%TF.GenerationSoftware,KiCad,Pcbnew,7.0.10*%
%TF.CreationDate,2024-01-08T21:25:52+01:00*%
%TF.ProjectId,p2000t-ram-expansion-board-1056kb,70323030-3074-42d7-9261-6d2d65787061,rev?*%
%TF.SameCoordinates,Original*%
%TF.FileFunction,Copper,L1,Top*%
%TF.FilePolarity,Positive*%
%FSLAX46Y46*%
G04 Gerber Fmt 4.6, Leading zero omitted, Abs format (unit mm)*
G04 Created by KiCad (PCBNEW 7.0.10) date 2024-01-08 21:25:52*
%MOMM*%
%LPD*%
G01*
G04 APERTURE LIST*
%TA.AperFunction,ComponentPad*%
%ADD10C,1.600000*%
%TD*%
%TA.AperFunction,ComponentPad*%
%ADD11R,1.600000X1.600000*%
%TD*%
%TA.AperFunction,ComponentPad*%
%ADD12O,1.600000X1.600000*%
%TD*%
%TA.AperFunction,ComponentPad*%
%ADD13R,1.700000X1.700000*%
%TD*%
%TA.AperFunction,ComponentPad*%
%ADD14O,1.700000X1.700000*%
%TD*%
%TA.AperFunction,ComponentPad*%
%ADD15R,3.000000X3.000000*%
%TD*%
%TA.AperFunction,ComponentPad*%
%ADD16C,3.000000*%
%TD*%
%TA.AperFunction,ViaPad*%
%ADD17C,0.800000*%
%TD*%
%TA.AperFunction,Conductor*%
%ADD18C,0.250000*%
%TD*%
%TA.AperFunction,Conductor*%
%ADD19C,0.500000*%
%TD*%
G04 APERTURE END LIST*
D10*
%TO.P,C1,1*%
%TO.N,+5V*%
X43140000Y-30480000D03*
%TO.P,C1,2*%
%TO.N,GND*%
X38140000Y-30480000D03*
%TD*%
D11*
%TO.P,U5,1,G*%
%TO.N,~{IORQ}*%
X116840000Y-28575000D03*
D12*
%TO.P,U5,2,P0*%
%TO.N,A0*%
X116840000Y-31115000D03*
%TO.P,U5,3,R0*%
%TO.N,GND*%
X116840000Y-33655000D03*
%TO.P,U5,4,P1*%
%TO.N,A1*%
X116840000Y-36195000D03*
%TO.P,U5,5,R1*%
%TO.N,GND*%
X116840000Y-38735000D03*
%TO.P,U5,6,P2*%
%TO.N,A2*%
X116840000Y-41275000D03*
%TO.P,U5,7,R2*%
%TO.N,+5V*%
X116840000Y-43815000D03*
%TO.P,U5,8,P3*%
%TO.N,A3*%
X116840000Y-46355000D03*
%TO.P,U5,9,R3*%
%TO.N,GND*%
X116840000Y-48895000D03*
%TO.P,U5,10,GND*%
X116840000Y-51435000D03*
%TO.P,U5,11,P4*%
%TO.N,A4*%
X124460000Y-51435000D03*
%TO.P,U5,12,R4*%
%TO.N,+5V*%
X124460000Y-48895000D03*
%TO.P,U5,13,P5*%
%TO.N,A5*%
X124460000Y-46355000D03*
%TO.P,U5,14,R5*%
%TO.N,GND*%
X124460000Y-43815000D03*
%TO.P,U5,15,P6*%
%TO.N,A6*%
X124460000Y-41275000D03*
%TO.P,U5,16,R6*%
%TO.N,GND*%
X124460000Y-38735000D03*
%TO.P,U5,17,P7*%
%TO.N,A7*%
X124460000Y-36195000D03*
%TO.P,U5,18,R7*%
%TO.N,+5V*%
X124460000Y-33655000D03*
%TO.P,U5,19,P=R*%
%TO.N,~{P=R}*%
X124460000Y-31115000D03*
%TO.P,U5,20,VCC*%
%TO.N,+5V*%
X124460000Y-28575000D03*
%TD*%
D11*
%TO.P,U2,1,A18*%
%TO.N,S5*%
X52705000Y-30480000D03*
D12*
%TO.P,U2,2,A16*%
%TO.N,S3*%
X52705000Y-33020000D03*
%TO.P,U2,3,A14*%
%TO.N,S1*%
X52705000Y-35560000D03*
%TO.P,U2,4,A12*%
%TO.N,A12*%
X52705000Y-38100000D03*
%TO.P,U2,5,A7*%
%TO.N,A7*%
X52705000Y-40640000D03*
%TO.P,U2,6,A6*%
%TO.N,A6*%
X52705000Y-43180000D03*
%TO.P,U2,7,A5*%
%TO.N,A5*%
X52705000Y-45720000D03*
%TO.P,U2,8,A4*%
%TO.N,A4*%
X52705000Y-48260000D03*
%TO.P,U2,9,A3*%
%TO.N,A3*%
X52705000Y-50800000D03*
%TO.P,U2,10,A2*%
%TO.N,A2*%
X52705000Y-53340000D03*
%TO.P,U2,11,A1*%
%TO.N,A1*%
X52705000Y-55880000D03*
%TO.P,U2,12,A0*%
%TO.N,A0*%
X52705000Y-58420000D03*
%TO.P,U2,13,DQ0*%
%TO.N,D0*%
X52705000Y-60960000D03*
%TO.P,U2,14,DQ1*%
%TO.N,D1*%
X52705000Y-63500000D03*
%TO.P,U2,15,DQ2*%
%TO.N,D2*%
X52705000Y-66040000D03*
%TO.P,U2,16,VSS*%
%TO.N,GND*%
X52705000Y-68580000D03*
%TO.P,U2,17,DQ3*%
%TO.N,D3*%
X67945000Y-68580000D03*
%TO.P,U2,18,DQ4*%
%TO.N,D4*%
X67945000Y-66040000D03*
%TO.P,U2,19,DQ5*%
%TO.N,D5*%
X67945000Y-63500000D03*
%TO.P,U2,20,DQ6*%
%TO.N,D6*%
X67945000Y-60960000D03*
%TO.P,U2,21,DQ7*%
%TO.N,D7*%
X67945000Y-58420000D03*
%TO.P,U2,22,CE#*%
%TO.N,~{CS1}*%
X67945000Y-55880000D03*
%TO.P,U2,23,A10*%
%TO.N,A10*%
X67945000Y-53340000D03*
%TO.P,U2,24,OE#*%
%TO.N,~{RD}*%
X67945000Y-50800000D03*
%TO.P,U2,25,A11*%
%TO.N,A11*%
X67945000Y-48260000D03*
%TO.P,U2,26,A9*%
%TO.N,A9*%
X67945000Y-45720000D03*
%TO.P,U2,27,A8*%
%TO.N,A8*%
X67945000Y-43180000D03*
%TO.P,U2,28,A13*%
%TO.N,S0*%
X67945000Y-40640000D03*
%TO.P,U2,29,WE#*%
%TO.N,~{WR}*%
X67945000Y-38100000D03*
%TO.P,U2,30,A17*%
%TO.N,S4*%
X67945000Y-35560000D03*
%TO.P,U2,31,A15*%
%TO.N,S2*%
X67945000Y-33020000D03*
%TO.P,U2,32,VCC*%
%TO.N,+5V*%
X67945000Y-30480000D03*
%TD*%
D10*
%TO.P,C9,1*%
%TO.N,+5V*%
X98345000Y-24130000D03*
%TO.P,C9,2*%
%TO.N,GND*%
X93345000Y-24130000D03*
%TD*%
%TO.P,C2,1*%
%TO.N,+5V*%
X122896000Y-23876000D03*
%TO.P,C2,2*%
%TO.N,GND*%
X117896000Y-23876000D03*
%TD*%
D11*
%TO.P,D1,1,K*%
%TO.N,+5V*%
X26075000Y-60960000D03*
D12*
%TO.P,D1,2,A*%
%TO.N,VCC*%
X26075000Y-53340000D03*
%TD*%
D10*
%TO.P,C5,1*%
%TO.N,+5V*%
X82510000Y-25400000D03*
%TO.P,C5,2*%
%TO.N,GND*%
X77510000Y-25400000D03*
%TD*%
%TO.P,C6,1*%
%TO.N,+5V*%
X62825000Y-25400000D03*
%TO.P,C6,2*%
%TO.N,GND*%
X57825000Y-25400000D03*
%TD*%
D11*
%TO.P,U1,1*%
%TO.N,GND*%
X104140000Y-36195000D03*
D12*
%TO.P,U1,2*%
%TO.N,unconnected-(U1-Pad2)*%
X104140000Y-38735000D03*
%TO.P,U1,3*%
%TO.N,Net-(U1-Pad3)*%
X104140000Y-41275000D03*
%TO.P,U1,4*%
%TO.N,Net-(U7-Cp)*%
X104140000Y-43815000D03*
%TO.P,U1,5*%
%TO.N,~{REN}*%
X104140000Y-46355000D03*
%TO.P,U1,6*%
%TO.N,Net-(U1-Pad6)*%
X104140000Y-48895000D03*
%TO.P,U1,7,GND*%
%TO.N,GND*%
X104140000Y-51435000D03*
%TO.P,U1,8*%
%TO.N,Net-(U1-Pad8)*%
X111760000Y-51435000D03*
%TO.P,U1,9*%
%TO.N,Net-(U1-Pad9)*%
X111760000Y-48895000D03*
%TO.P,U1,10*%
%TO.N,unconnected-(U1-Pad10)*%
X111760000Y-46355000D03*
%TO.P,U1,11*%
%TO.N,GND*%
X111760000Y-43815000D03*
%TO.P,U1,12*%
%TO.N,Net-(U1-Pad12)*%
X111760000Y-41275000D03*
%TO.P,U1,13*%
%TO.N,~{MRQ}*%
X111760000Y-38735000D03*
%TO.P,U1,14,VCC*%
%TO.N,+5V*%
X111760000Y-36195000D03*
%TD*%
D10*
%TO.P,C7,1*%
%TO.N,+5V*%
X110450000Y-31115000D03*
%TO.P,C7,2*%
%TO.N,GND*%
X105450000Y-31115000D03*
%TD*%
D11*
%TO.P,U8,1,A->B*%
%TO.N,+5V*%
X116850000Y-63500000D03*
D12*
%TO.P,U8,2,A0*%
%TO.N,S0*%
X116850000Y-66040000D03*
%TO.P,U8,3,A1*%
%TO.N,S1*%
X116850000Y-68580000D03*
%TO.P,U8,4,A2*%
%TO.N,S2*%
X116850000Y-71120000D03*
%TO.P,U8,5,A3*%
%TO.N,S3*%
X116850000Y-73660000D03*
%TO.P,U8,6,A4*%
%TO.N,S4*%
X116850000Y-76200000D03*
%TO.P,U8,7,A5*%
%TO.N,S5*%
X116850000Y-78740000D03*
%TO.P,U8,8,A6*%
%TO.N,S6*%
X116850000Y-81280000D03*
%TO.P,U8,9,A7*%
%TO.N,S7*%
X116850000Y-83820000D03*
%TO.P,U8,10,GND*%
%TO.N,GND*%
X116850000Y-86360000D03*
%TO.P,U8,11,B7*%
%TO.N,D7*%
X124470000Y-86360000D03*
%TO.P,U8,12,B6*%
%TO.N,D6*%
X124470000Y-83820000D03*
%TO.P,U8,13,B5*%
%TO.N,D5*%
X124470000Y-81280000D03*
%TO.P,U8,14,B4*%
%TO.N,D4*%
X124470000Y-78740000D03*
%TO.P,U8,15,B3*%
%TO.N,D3*%
X124470000Y-76200000D03*
%TO.P,U8,16,B2*%
%TO.N,D2*%
X124470000Y-73660000D03*
%TO.P,U8,17,B1*%
%TO.N,D1*%
X124470000Y-71120000D03*
%TO.P,U8,18,B0*%
%TO.N,D0*%
X124470000Y-68580000D03*
%TO.P,U8,19,CE*%
%TO.N,Net-(U8-CE)*%
X124470000Y-66040000D03*
%TO.P,U8,20,VCC*%
%TO.N,+5V*%
X124470000Y-63500000D03*
%TD*%
D11*
%TO.P,U9,1,A18*%
%TO.N,S5*%
X72385000Y-30480000D03*
D12*
%TO.P,U9,2,A16*%
%TO.N,S3*%
X72385000Y-33020000D03*
%TO.P,U9,3,A14*%
%TO.N,S1*%
X72385000Y-35560000D03*
%TO.P,U9,4,A12*%
%TO.N,A12*%
X72385000Y-38100000D03*
%TO.P,U9,5,A7*%
%TO.N,A7*%
X72385000Y-40640000D03*
%TO.P,U9,6,A6*%
%TO.N,A6*%
X72385000Y-43180000D03*
%TO.P,U9,7,A5*%
%TO.N,A5*%
X72385000Y-45720000D03*
%TO.P,U9,8,A4*%
%TO.N,A4*%
X72385000Y-48260000D03*
%TO.P,U9,9,A3*%
%TO.N,A3*%
X72385000Y-50800000D03*
%TO.P,U9,10,A2*%
%TO.N,A2*%
X72385000Y-53340000D03*
%TO.P,U9,11,A1*%
%TO.N,A1*%
X72385000Y-55880000D03*
%TO.P,U9,12,A0*%
%TO.N,A0*%
X72385000Y-58420000D03*
%TO.P,U9,13,DQ0*%
%TO.N,D0*%
X72385000Y-60960000D03*
%TO.P,U9,14,DQ1*%
%TO.N,D1*%
X72385000Y-63500000D03*
%TO.P,U9,15,DQ2*%
%TO.N,D2*%
X72385000Y-66040000D03*
%TO.P,U9,16,VSS*%
%TO.N,GND*%
X72385000Y-68580000D03*
%TO.P,U9,17,DQ3*%
%TO.N,D3*%
X87625000Y-68580000D03*
%TO.P,U9,18,DQ4*%
%TO.N,D4*%
X87625000Y-66040000D03*
%TO.P,U9,19,DQ5*%
%TO.N,D5*%
X87625000Y-63500000D03*
%TO.P,U9,20,DQ6*%
%TO.N,D6*%
X87625000Y-60960000D03*
%TO.P,U9,21,DQ7*%
%TO.N,D7*%
X87625000Y-58420000D03*
%TO.P,U9,22,CE#*%
%TO.N,~{CS2}*%
X87625000Y-55880000D03*
%TO.P,U9,23,A10*%
%TO.N,A10*%
X87625000Y-53340000D03*
%TO.P,U9,24,OE#*%
%TO.N,~{RD}*%
X87625000Y-50800000D03*
%TO.P,U9,25,A11*%
%TO.N,A11*%
X87625000Y-48260000D03*
%TO.P,U9,26,A9*%
%TO.N,A9*%
X87625000Y-45720000D03*
%TO.P,U9,27,A8*%
%TO.N,A8*%
X87625000Y-43180000D03*
%TO.P,U9,28,A13*%
%TO.N,S0*%
X87625000Y-40640000D03*
%TO.P,U9,29,WE#*%
%TO.N,~{WR}*%
X87625000Y-38100000D03*
%TO.P,U9,30,A17*%
%TO.N,S4*%
X87625000Y-35560000D03*
%TO.P,U9,31,A15*%
%TO.N,S2*%
X87625000Y-33020000D03*
%TO.P,U9,32,VCC*%
%TO.N,+5V*%
X87625000Y-30480000D03*
%TD*%
D11*
%TO.P,C3,1*%
%TO.N,+5V*%
X24805000Y-80010000D03*
D10*
%TO.P,C3,2*%
%TO.N,GND*%
X27305000Y-80010000D03*
%TD*%
%TO.P,C10,1*%
%TO.N,+5V*%
X110704000Y-58420000D03*
%TO.P,C10,2*%
%TO.N,GND*%
X105704000Y-58420000D03*
%TD*%
%TO.P,C4,1*%
%TO.N,+5V*%
X98385000Y-49530000D03*
%TO.P,C4,2*%
%TO.N,GND*%
X93385000Y-49530000D03*
%TD*%
D11*
%TO.P,U4,1,A14*%
%TO.N,S7*%
X33015000Y-35560000D03*
D12*
%TO.P,U4,2,A12*%
%TO.N,A12*%
X33015000Y-38100000D03*
%TO.P,U4,3,A7*%
%TO.N,A7*%
X33015000Y-40640000D03*
%TO.P,U4,4,A6*%
%TO.N,A6*%
X33015000Y-43180000D03*
%TO.P,U4,5,A5*%
%TO.N,A5*%
X33015000Y-45720000D03*
%TO.P,U4,6,A4*%
%TO.N,A4*%
X33015000Y-48260000D03*
%TO.P,U4,7,A3*%
%TO.N,A3*%
X33015000Y-50800000D03*
%TO.P,U4,8,A2*%
%TO.N,A2*%
X33015000Y-53340000D03*
%TO.P,U4,9,A1*%
%TO.N,A1*%
X33015000Y-55880000D03*
%TO.P,U4,10,A0*%
%TO.N,A0*%
X33015000Y-58420000D03*
%TO.P,U4,11,Q0*%
%TO.N,D0*%
X33015000Y-60960000D03*
%TO.P,U4,12,Q1*%
%TO.N,D1*%
X33015000Y-63500000D03*
%TO.P,U4,13,Q2*%
%TO.N,D2*%
X33015000Y-66040000D03*
%TO.P,U4,14,GND*%
%TO.N,GND*%
X33015000Y-68580000D03*
%TO.P,U4,15,Q3*%
%TO.N,D3*%
X48255000Y-68580000D03*
%TO.P,U4,16,Q4*%
%TO.N,D4*%
X48255000Y-66040000D03*
%TO.P,U4,17,Q5*%
%TO.N,D5*%
X48255000Y-63500000D03*
%TO.P,U4,18,Q6*%
%TO.N,D6*%
X48255000Y-60960000D03*
%TO.P,U4,19,Q7*%
%TO.N,D7*%
X48255000Y-58420000D03*
%TO.P,U4,20,~{CS}*%
%TO.N,~{CS3}*%
X48255000Y-55880000D03*
%TO.P,U4,21,A10*%
%TO.N,A10*%
X48255000Y-53340000D03*
%TO.P,U4,22,~{OE}*%
%TO.N,~{RD}*%
X48255000Y-50800000D03*
%TO.P,U4,23,A11*%
%TO.N,A11*%
X48255000Y-48260000D03*
%TO.P,U4,24,A9*%
%TO.N,A9*%
X48255000Y-45720000D03*
%TO.P,U4,25,A8*%
%TO.N,A8*%
X48255000Y-43180000D03*
%TO.P,U4,26,A13*%
%TO.N,A13*%
X48255000Y-40640000D03*
%TO.P,U4,27,~{WE}*%
%TO.N,~{WR}*%
X48255000Y-38100000D03*
%TO.P,U4,28,VCC*%
%TO.N,+5V*%
X48255000Y-35560000D03*
%TD*%
D13*
%TO.P,J2,1,Pin_1*%
%TO.N,GND*%
X25925000Y-39380000D03*
D14*
%TO.P,J2,2,Pin_2*%
%TO.N,VCC*%
X25925000Y-41920000D03*
%TD*%
D11*
%TO.P,U6,1*%
%TO.N,Net-(U3-Pad1)*%
X92085000Y-54605000D03*
D12*
%TO.P,U6,2*%
%TO.N,~{REN}*%
X92085000Y-57145000D03*
%TO.P,U6,3*%
%TO.N,Net-(U1-Pad9)*%
X92085000Y-59685000D03*
%TO.P,U6,4*%
%TO.N,~{P=R}*%
X92085000Y-62225000D03*
%TO.P,U6,5*%
%TO.N,~{WR}*%
X92085000Y-64765000D03*
%TO.P,U6,6*%
%TO.N,Net-(U1-Pad3)*%
X92085000Y-67305000D03*
%TO.P,U6,7,GND*%
%TO.N,GND*%
X92085000Y-69845000D03*
%TO.P,U6,8*%
%TO.N,~{CS1}*%
X99705000Y-69845000D03*
%TO.P,U6,9*%
%TO.N,Net-(U1-Pad9)*%
X99705000Y-67305000D03*
%TO.P,U6,10*%
%TO.N,S6*%
X99705000Y-64765000D03*
%TO.P,U6,11*%
%TO.N,Net-(U8-CE)*%
X99705000Y-62225000D03*
%TO.P,U6,12*%
%TO.N,~{RD}*%
X99705000Y-59685000D03*
%TO.P,U6,13*%
%TO.N,~{P=R}*%
X99705000Y-57145000D03*
%TO.P,U6,14,VCC*%
%TO.N,+5V*%
X99705000Y-54605000D03*
%TD*%
D10*
%TO.P,C8,1*%
%TO.N,+5V*%
X123150000Y-58420000D03*
%TO.P,C8,2*%
%TO.N,GND*%
X118150000Y-58420000D03*
%TD*%
D15*
%TO.P,J3,1,Pin_1*%
%TO.N,GND*%
X25925000Y-26172000D03*
D16*
%TO.P,J3,2,Pin_2*%
%TO.N,VCC*%
X25925000Y-31252000D03*
%TD*%
D11*
%TO.P,U3,1*%
%TO.N,Net-(U3-Pad1)*%
X92075000Y-29210000D03*
D12*
%TO.P,U3,2*%
%TO.N,Net-(U1-Pad6)*%
X92075000Y-31750000D03*
%TO.P,U3,3*%
%TO.N,~{CS3}*%
X92075000Y-34290000D03*
%TO.P,U3,4*%
%TO.N,Net-(U1-Pad8)*%
X92075000Y-36830000D03*
%TO.P,U3,5*%
%TO.N,S6*%
X92075000Y-39370000D03*
%TO.P,U3,6*%
%TO.N,~{CS2}*%
X92075000Y-41910000D03*
%TO.P,U3,7,GND*%
%TO.N,GND*%
X92075000Y-44450000D03*
%TO.P,U3,8*%
%TO.N,Net-(U3-Pad1)*%
X99695000Y-44450000D03*
%TO.P,U3,9*%
%TO.N,A13*%
X99695000Y-41910000D03*
%TO.P,U3,10*%
%TO.N,A14*%
X99695000Y-39370000D03*
%TO.P,U3,11*%
%TO.N,~{REN}*%
X99695000Y-36830000D03*
%TO.P,U3,12*%
%TO.N,Net-(U1-Pad12)*%
X99695000Y-34290000D03*
%TO.P,U3,13*%
%TO.N,RAMS2*%
X99695000Y-31750000D03*
%TO.P,U3,14,VCC*%
%TO.N,+5V*%
X99695000Y-29210000D03*
%TD*%
D11*
%TO.P,U7,1,~{Mr}*%
%TO.N,~{RES}*%
X104140000Y-63500000D03*
D12*
%TO.P,U7,2,Q0*%
%TO.N,S0*%
X104140000Y-66040000D03*
%TO.P,U7,3,D0*%
%TO.N,D0*%
X104140000Y-68580000D03*
%TO.P,U7,4,D1*%
%TO.N,D1*%
X104140000Y-71120000D03*
%TO.P,U7,5,Q1*%
%TO.N,S1*%
X104140000Y-73660000D03*
%TO.P,U7,6,Q2*%
%TO.N,S2*%
X104140000Y-76200000D03*
%TO.P,U7,7,D2*%
%TO.N,D2*%
X104140000Y-78740000D03*
%TO.P,U7,8,D3*%
%TO.N,D3*%
X104140000Y-81280000D03*
%TO.P,U7,9,Q3*%
%TO.N,S3*%
X104140000Y-83820000D03*
%TO.P,U7,10,GND*%
%TO.N,GND*%
X104140000Y-86360000D03*
%TO.P,U7,11,Cp*%
%TO.N,Net-(U7-Cp)*%
X111760000Y-86360000D03*
%TO.P,U7,12,Q4*%
%TO.N,S4*%
X111760000Y-83820000D03*
%TO.P,U7,13,D4*%
%TO.N,D4*%
X111760000Y-81280000D03*
%TO.P,U7,14,D5*%
%TO.N,D5*%
X111760000Y-78740000D03*
%TO.P,U7,15,Q5*%
%TO.N,S5*%
X111760000Y-76200000D03*
%TO.P,U7,16,Q6*%
%TO.N,S6*%
X111760000Y-73660000D03*
%TO.P,U7,17,D6*%
%TO.N,D6*%
X111760000Y-71120000D03*
%TO.P,U7,18,D7*%
%TO.N,D7*%
X111760000Y-68580000D03*
%TO.P,U7,19,Q7*%
%TO.N,S7*%
X111760000Y-66040000D03*
%TO.P,U7,20,VCC*%
%TO.N,+5V*%
X111760000Y-63500000D03*
%TD*%
D13*
%TO.P,J1,1,Pin_1*%
%TO.N,GND*%
X99055000Y-80518000D03*
D14*
%TO.P,J1,2,Pin_2*%
%TO.N,unconnected-(J1-Pin_2-Pad2)*%
X99055000Y-77978000D03*
%TO.P,J1,3,Pin_3*%
%TO.N,D0*%
X96515000Y-80518000D03*
%TO.P,J1,4,Pin_4*%
%TO.N,D1*%
X96515000Y-77978000D03*
%TO.P,J1,5,Pin_5*%
%TO.N,D2*%
X93975000Y-80518000D03*
%TO.P,J1,6,Pin_6*%
%TO.N,D3*%
X93975000Y-77978000D03*
%TO.P,J1,7,Pin_7*%
%TO.N,D4*%
X91435000Y-80518000D03*
%TO.P,J1,8,Pin_8*%
%TO.N,D5*%
X91435000Y-77978000D03*
%TO.P,J1,9,Pin_9*%
%TO.N,D6*%
X88895000Y-80518000D03*
%TO.P,J1,10,Pin_10*%
%TO.N,D7*%
X88895000Y-77978000D03*
%TO.P,J1,11,Pin_11*%
%TO.N,A0*%
X86355000Y-80518000D03*
%TO.P,J1,12,Pin_12*%
%TO.N,A1*%
X86355000Y-77978000D03*
%TO.P,J1,13,Pin_13*%
%TO.N,A2*%
X83815000Y-80518000D03*
%TO.P,J1,14,Pin_14*%
%TO.N,A3*%
X83815000Y-77978000D03*
%TO.P,J1,15,Pin_15*%
%TO.N,A4*%
X81275000Y-80518000D03*
%TO.P,J1,16,Pin_16*%
%TO.N,A5*%
X81275000Y-77978000D03*
%TO.P,J1,17,Pin_17*%
%TO.N,A6*%
X78735000Y-80518000D03*
%TO.P,J1,18,Pin_18*%
%TO.N,A7*%
X78735000Y-77978000D03*
%TO.P,J1,19,Pin_19*%
%TO.N,A8*%
X76195000Y-80518000D03*
%TO.P,J1,20,Pin_20*%
%TO.N,A9*%
X76195000Y-77978000D03*
%TO.P,J1,21,Pin_21*%
%TO.N,A10*%
X73655000Y-80518000D03*
%TO.P,J1,22,Pin_22*%
%TO.N,A11*%
X73655000Y-77978000D03*
%TO.P,J1,23,Pin_23*%
%TO.N,A12*%
X71115000Y-80518000D03*
%TO.P,J1,24,Pin_24*%
%TO.N,A13*%
X71115000Y-77978000D03*
%TO.P,J1,25,Pin_25*%
%TO.N,A14*%
X68575000Y-80518000D03*
%TO.P,J1,26,Pin_26*%
%TO.N,RAMS2*%
X68575000Y-77978000D03*
%TO.P,J1,27,Pin_27*%
%TO.N,~{MRQ}*%
X66035000Y-80518000D03*
%TO.P,J1,28,Pin_28*%
%TO.N,~{RD}*%
X66035000Y-77978000D03*
%TO.P,J1,29,Pin_29*%
%TO.N,unconnected-(J1-Pin_29-Pad29)*%
X63495000Y-80518000D03*
%TO.P,J1,30,Pin_30*%
%TO.N,~{WR}*%
X63495000Y-77978000D03*
%TO.P,J1,31,Pin_31*%
%TO.N,~{IORQ}*%
X60955000Y-80518000D03*
%TO.P,J1,32,Pin_32*%
%TO.N,unconnected-(J1-Pin_32-Pad32)*%
X60955000Y-77978000D03*
%TO.P,J1,33,Pin_33*%
%TO.N,unconnected-(J1-Pin_33-Pad33)*%
X58415000Y-80518000D03*
%TO.P,J1,34,Pin_34*%
%TO.N,~{RES}*%
X58415000Y-77978000D03*
%TO.P,J1,35,Pin_35*%
%TO.N,unconnected-(J1-Pin_35-Pad35)*%
X55875000Y-80518000D03*
%TO.P,J1,36,Pin_36*%
%TO.N,unconnected-(J1-Pin_36-Pad36)*%
X55875000Y-77978000D03*
%TO.P,J1,37,Pin_37*%
%TO.N,unconnected-(J1-Pin_37-Pad37)*%
X53335000Y-80518000D03*
%TO.P,J1,38,Pin_38*%
%TO.N,unconnected-(J1-Pin_38-Pad38)*%
X53335000Y-77978000D03*
%TO.P,J1,39,Pin_39*%
%TO.N,unconnected-(J1-Pin_39-Pad39)*%
X50795000Y-80518000D03*
%TO.P,J1,40,Pin_40*%
%TO.N,unconnected-(J1-Pin_40-Pad40)*%
X50795000Y-77978000D03*
%TD*%
D17*
%TO.N,Net-(U8-CE)*%
X112804100Y-54392700D03*
%TO.N,~{CS3}*%
X49439400Y-32315500D03*
X83377800Y-32369400D03*
%TO.N,S4*%
X93505600Y-39075500D03*
X97680700Y-44962400D03*
%TO.N,Net-(U1-Pad3)*%
X95274500Y-54050900D03*
%TO.N,S6*%
X97508900Y-45997700D03*
%TO.N,Net-(U1-Pad9)*%
X101507300Y-55849700D03*
%TO.N,S0*%
X109946000Y-64914700D03*
X70856200Y-40001500D03*
X93636100Y-52310400D03*
X96691600Y-51799300D03*
%TO.N,S3*%
X94194000Y-30510200D03*
X109086100Y-45440800D03*
%TO.N,Net-(U1-Pad8)*%
X109591500Y-39199000D03*
%TO.N,Net-(U1-Pad6)*%
X98151400Y-38678200D03*
%TO.N,Net-(U7-Cp)*%
X100785300Y-49083500D03*
%TO.N,~{CS1}*%
X91964200Y-73005000D03*
%TO.N,+5V*%
X97282000Y-26670000D03*
%TO.N,S2*%
X97463300Y-29906300D03*
%TO.N,S1*%
X95119200Y-38803100D03*
X97857800Y-42719300D03*
%TO.N,GND*%
X127000000Y-55372000D03*
%TO.N,~{RES}*%
X71996600Y-71548000D03*
X90096000Y-73960900D03*
%TO.N,~{IORQ}*%
X41087900Y-34399300D03*
%TO.N,~{RD}*%
X73966300Y-53333600D03*
X90232000Y-60674800D03*
%TO.N,~{MRQ}*%
X99905600Y-85083800D03*
X100468400Y-52218200D03*
%TO.N,RAMS2*%
X74636200Y-52506000D03*
X89583800Y-49598600D03*
%TO.N,A14*%
X77594400Y-75882700D03*
%TO.N,A13*%
X75214800Y-50872600D03*
X91290500Y-47751800D03*
%TO.N,A11*%
X74388800Y-49642400D03*
%TO.N,A10*%
X79867600Y-73631200D03*
%TO.N,A6*%
X122932900Y-35064700D03*
X83792900Y-33698600D03*
%TO.N,A5*%
X81275000Y-60035100D03*
X109815500Y-52978300D03*
%TO.N,A4*%
X101188600Y-85650800D03*
%TO.N,A2*%
X93634600Y-58607000D03*
X84551700Y-57363600D03*
%TO.N,A1*%
X85635700Y-57940900D03*
X88789700Y-56946200D03*
%TO.N,A0*%
X41275700Y-36447900D03*
%TO.N,D7*%
X101840100Y-70681500D03*
%TO.N,D6*%
X96932100Y-82228900D03*
X109404500Y-79335000D03*
X73412600Y-61952600D03*
%TO.N,D5*%
X87668700Y-73383400D03*
X119827600Y-84226800D03*
%TO.N,D2*%
X101187500Y-79116600D03*
%TO.N,D1*%
X113840800Y-57028200D03*
%TD*%
D18*
%TO.N,Net-(U8-CE)*%
X124188700Y-64914700D02*
X124470000Y-64914700D01*
X122531600Y-63257600D02*
X124188700Y-64914700D01*
X122531600Y-60573100D02*
X122531600Y-63257600D01*
X116351200Y-54392700D02*
X122531600Y-60573100D01*
X112804100Y-54392700D02*
X116351200Y-54392700D01*
X124470000Y-66040000D02*
X124470000Y-64914700D01*
%TO.N,S7*%
X112041300Y-67165300D02*
X111760000Y-67165300D01*
X114305000Y-69429000D02*
X112041300Y-67165300D01*
X114305000Y-72777000D02*
X114305000Y-69429000D01*
X116458000Y-74930000D02*
X114305000Y-72777000D01*
X117181300Y-74930000D02*
X116458000Y-74930000D01*
X118439900Y-76188600D02*
X117181300Y-74930000D01*
X118439900Y-81386100D02*
X118439900Y-76188600D01*
X117131300Y-82694700D02*
X118439900Y-81386100D01*
X116850000Y-82694700D02*
X117131300Y-82694700D01*
X116850000Y-83820000D02*
X116850000Y-82694700D01*
X111760000Y-66040000D02*
X111760000Y-67165300D01*
%TO.N,~{CS3}*%
X48255000Y-55880000D02*
X48255000Y-54754700D01*
X85910000Y-34290000D02*
X90949700Y-34290000D01*
X83989400Y-32369400D02*
X85910000Y-34290000D01*
X83377800Y-32369400D02*
X83989400Y-32369400D01*
X92075000Y-34290000D02*
X90949700Y-34290000D01*
X49439400Y-53851600D02*
X49439400Y-32315500D01*
X48536300Y-54754700D02*
X49439400Y-53851600D01*
X48255000Y-54754700D02*
X48536300Y-54754700D01*
D19*
%TO.N,VCC*%
X27425000Y-40420000D02*
X25925000Y-41920000D01*
X27425000Y-32752000D02*
X27425000Y-40420000D01*
X25925000Y-31252000D02*
X27425000Y-32752000D01*
X25925000Y-53190000D02*
X26075000Y-53340000D01*
X25925000Y-41920000D02*
X25925000Y-53190000D01*
D18*
%TO.N,S4*%
X92385500Y-37955400D02*
X93505600Y-39075500D01*
X91145700Y-37955400D02*
X92385500Y-37955400D01*
X88750300Y-35560000D02*
X91145700Y-37955400D01*
X87625000Y-35560000D02*
X88750300Y-35560000D01*
X112885400Y-72235400D02*
X116850000Y-76200000D01*
X112885400Y-70606500D02*
X112885400Y-72235400D01*
X112128900Y-69850000D02*
X112885400Y-70606500D01*
X111372200Y-69850000D02*
X112128900Y-69850000D01*
X109179400Y-67657200D02*
X111372200Y-69850000D01*
X109179400Y-59404900D02*
X109179400Y-67657200D01*
X102094500Y-52320000D02*
X109179400Y-59404900D01*
X102094500Y-49366700D02*
X102094500Y-52320000D01*
X97690200Y-44962400D02*
X102094500Y-49366700D01*
X97680700Y-44962400D02*
X97690200Y-44962400D01*
%TO.N,Net-(U1-Pad3)*%
X92085000Y-67305000D02*
X92085000Y-66179700D01*
X95274500Y-63271500D02*
X95274500Y-54050900D01*
X92366300Y-66179700D02*
X95274500Y-63271500D01*
X92085000Y-66179700D02*
X92366300Y-66179700D01*
%TO.N,S5*%
X111760000Y-76200000D02*
X112885300Y-76200000D01*
X115425300Y-78740000D02*
X115724700Y-78740000D01*
X112885300Y-76200000D02*
X115425300Y-78740000D01*
X116850000Y-78740000D02*
X115724700Y-78740000D01*
%TO.N,S6*%
X99705000Y-64765000D02*
X99705000Y-63639700D01*
X117131400Y-80154700D02*
X116850000Y-80154700D01*
X117975300Y-79310800D02*
X117131400Y-80154700D01*
X117975300Y-78259200D02*
X117975300Y-79310800D01*
X117186100Y-77470000D02*
X117975300Y-78259200D01*
X116414000Y-77470000D02*
X117186100Y-77470000D01*
X112885300Y-73941300D02*
X116414000Y-77470000D01*
X112885300Y-73660000D02*
X112885300Y-73941300D01*
X111760000Y-73660000D02*
X112885300Y-73660000D01*
X116850000Y-81280000D02*
X116850000Y-80154700D01*
X99986400Y-63639700D02*
X99705000Y-63639700D01*
X100830300Y-62795800D02*
X99986400Y-63639700D01*
X100830300Y-56546400D02*
X100830300Y-62795800D01*
X100775000Y-56491100D02*
X100830300Y-56546400D01*
X100775000Y-55527600D02*
X100775000Y-56491100D01*
X100873200Y-55429400D02*
X100775000Y-55527600D01*
X100873200Y-53649800D02*
X100873200Y-55429400D01*
X99574800Y-52351400D02*
X100873200Y-53649800D01*
X99574800Y-48063600D02*
X99574800Y-52351400D01*
X97508900Y-45997700D02*
X99574800Y-48063600D01*
%TO.N,Net-(U1-Pad9)*%
X101507300Y-57630200D02*
X101507300Y-55849700D01*
X105284200Y-61407100D02*
X101507300Y-57630200D01*
X105284200Y-66490400D02*
X105284200Y-61407100D01*
X104469600Y-67305000D02*
X105284200Y-66490400D01*
X99705000Y-67305000D02*
X104469600Y-67305000D01*
%TO.N,S0*%
X116850000Y-66040000D02*
X115724700Y-66040000D01*
X114599400Y-64914700D02*
X109946000Y-64914700D01*
X115724700Y-66040000D02*
X114599400Y-64914700D01*
X87625000Y-40640000D02*
X87625000Y-41765300D01*
X96691700Y-51799300D02*
X96691600Y-51799300D01*
X96691700Y-63383900D02*
X96691700Y-51799300D01*
X99347800Y-66040000D02*
X96691700Y-63383900D01*
X104140000Y-66040000D02*
X99347800Y-66040000D01*
X88750300Y-42609200D02*
X88750300Y-44305800D01*
X87906400Y-41765300D02*
X88750300Y-42609200D01*
X87625000Y-41765300D02*
X87906400Y-41765300D01*
X88870300Y-44305800D02*
X88750300Y-44305800D01*
X92015800Y-47451300D02*
X88870300Y-44305800D01*
X92015800Y-48052300D02*
X92015800Y-47451300D01*
X91775100Y-48293000D02*
X92015800Y-48052300D01*
X91775100Y-50449400D02*
X91775100Y-48293000D01*
X93636100Y-52310400D02*
X91775100Y-50449400D01*
X70856200Y-43259200D02*
X70856200Y-40001500D01*
X71902800Y-44305800D02*
X70856200Y-43259200D01*
X88750300Y-44305800D02*
X71902800Y-44305800D01*
%TO.N,S3*%
X116850000Y-73660000D02*
X116850000Y-72534700D01*
X72385000Y-33020000D02*
X73510300Y-33020000D01*
X89671900Y-30510200D02*
X94194000Y-30510200D01*
X83390800Y-24229100D02*
X89671900Y-30510200D01*
X82019900Y-24229100D02*
X83390800Y-24229100D01*
X73510300Y-32738700D02*
X82019900Y-24229100D01*
X73510300Y-33020000D02*
X73510300Y-32738700D01*
X109086100Y-53302600D02*
X109086100Y-45440800D01*
X116273500Y-60490000D02*
X109086100Y-53302600D01*
X116619300Y-60490000D02*
X116273500Y-60490000D01*
X118909000Y-62779700D02*
X116619300Y-60490000D01*
X118909000Y-70757000D02*
X118909000Y-62779700D01*
X117131300Y-72534700D02*
X118909000Y-70757000D01*
X116850000Y-72534700D02*
X117131300Y-72534700D01*
%TO.N,Net-(U1-Pad8)*%
X111760000Y-51435000D02*
X111760000Y-50309700D01*
X112041400Y-50309700D02*
X111760000Y-50309700D01*
X112885300Y-49465800D02*
X112041400Y-50309700D01*
X112885300Y-43348500D02*
X112885300Y-49465800D01*
X112081800Y-42545000D02*
X112885300Y-43348500D01*
X111432500Y-42545000D02*
X112081800Y-42545000D01*
X109591500Y-40704000D02*
X111432500Y-42545000D01*
X109591500Y-39199000D02*
X109591500Y-40704000D01*
%TO.N,Net-(U1-Pad6)*%
X104140000Y-48895000D02*
X104140000Y-47769700D01*
X98151400Y-39453400D02*
X98151400Y-38678200D01*
X99338000Y-40640000D02*
X98151400Y-39453400D01*
X100040200Y-40640000D02*
X99338000Y-40640000D01*
X102502600Y-43102400D02*
X100040200Y-40640000D01*
X102502600Y-46309100D02*
X102502600Y-43102400D01*
X103963100Y-47769600D02*
X102502600Y-46309100D01*
X103963100Y-47769700D02*
X103963100Y-47769600D01*
X104140000Y-47769700D02*
X103963100Y-47769700D01*
%TO.N,Net-(U7-Cp)*%
X111760000Y-86360000D02*
X111760000Y-85234700D01*
X111478700Y-85234700D02*
X111760000Y-85234700D01*
X108666800Y-82422800D02*
X111478700Y-85234700D01*
X108666800Y-59529200D02*
X108666800Y-82422800D01*
X101644200Y-52506600D02*
X108666800Y-59529200D01*
X101644200Y-49942400D02*
X101644200Y-52506600D01*
X100785300Y-49083500D02*
X101644200Y-49942400D01*
%TO.N,~{REN}*%
X103858600Y-45229700D02*
X104140000Y-45229700D01*
X103014700Y-44385800D02*
X103858600Y-45229700D01*
X103014700Y-40993700D02*
X103014700Y-44385800D01*
X99976300Y-37955300D02*
X103014700Y-40993700D01*
X99695000Y-37955300D02*
X99976300Y-37955300D01*
X99695000Y-36830000D02*
X99695000Y-37955300D01*
X104140000Y-46355000D02*
X104140000Y-45229700D01*
%TO.N,~{CS1}*%
X67945000Y-55880000D02*
X67945000Y-57005300D01*
X91703000Y-73005000D02*
X91964200Y-73005000D01*
X89433400Y-70735400D02*
X91703000Y-73005000D01*
X89433400Y-66198100D02*
X89433400Y-70735400D01*
X88139000Y-64903700D02*
X89433400Y-66198100D01*
X86671600Y-64903700D02*
X88139000Y-64903700D01*
X81861900Y-69713400D02*
X86671600Y-64903700D01*
X71334700Y-69713400D02*
X81861900Y-69713400D01*
X69070300Y-67449000D02*
X71334700Y-69713400D01*
X69070300Y-57849200D02*
X69070300Y-67449000D01*
X68226400Y-57005300D02*
X69070300Y-57849200D01*
X67945000Y-57005300D02*
X68226400Y-57005300D01*
%TO.N,+5V*%
X110704000Y-62444000D02*
X111760000Y-63500000D01*
X110704000Y-58420000D02*
X110704000Y-62444000D01*
X83820000Y-30480000D02*
X87625000Y-30480000D01*
X82510000Y-29170000D02*
X83820000Y-30480000D01*
X82510000Y-25400000D02*
X82510000Y-29170000D01*
X43815000Y-35560000D02*
X48255000Y-35560000D01*
X43140000Y-34885000D02*
X43815000Y-35560000D01*
X43140000Y-30480000D02*
X43140000Y-34885000D01*
X63500000Y-30480000D02*
X67945000Y-30480000D01*
X62825000Y-29805000D02*
X63500000Y-30480000D01*
X62825000Y-25400000D02*
X62825000Y-29805000D01*
X123150000Y-62180000D02*
X124470000Y-63500000D01*
X123150000Y-58420000D02*
X123150000Y-62180000D01*
D19*
X97282000Y-49530000D02*
X98385000Y-49530000D01*
X96587000Y-48835000D02*
X97282000Y-49530000D01*
X96587000Y-27365000D02*
X96587000Y-48835000D01*
X97282000Y-26670000D02*
X96587000Y-27365000D01*
D18*
X98345000Y-27860000D02*
X99695000Y-29210000D01*
X98345000Y-24130000D02*
X98345000Y-27860000D01*
X98385000Y-53285000D02*
X99705000Y-54605000D01*
X98385000Y-49530000D02*
X98385000Y-53285000D01*
D19*
X26075000Y-78740000D02*
X24805000Y-80010000D01*
X26075000Y-60960000D02*
X26075000Y-78740000D01*
D18*
X123571000Y-28575000D02*
X124460000Y-28575000D01*
X122896000Y-27900000D02*
X123571000Y-28575000D01*
X122896000Y-23876000D02*
X122896000Y-27900000D01*
X110450000Y-34885000D02*
X111760000Y-36195000D01*
X110450000Y-31115000D02*
X110450000Y-34885000D01*
X116558600Y-42689700D02*
X116840000Y-42689700D01*
X115714700Y-41845800D02*
X116558600Y-42689700D01*
X115714700Y-40993600D02*
X115714700Y-41845800D01*
X112041400Y-37320300D02*
X115714700Y-40993600D01*
X111760000Y-37320300D02*
X112041400Y-37320300D01*
X111760000Y-36195000D02*
X111760000Y-37320300D01*
X116840000Y-43815000D02*
X116840000Y-42689700D01*
%TO.N,S2*%
X116850000Y-71120000D02*
X116850000Y-69994700D01*
X97392000Y-29977600D02*
X97463300Y-29906300D01*
X97392000Y-41198600D02*
X97392000Y-29977600D01*
X99373400Y-43180000D02*
X97392000Y-41198600D01*
X100020200Y-43180000D02*
X99373400Y-43180000D01*
X101827200Y-44987000D02*
X100020200Y-43180000D01*
X101827200Y-46270600D02*
X101827200Y-44987000D01*
X102995200Y-47438600D02*
X101827200Y-46270600D01*
X102995200Y-51946900D02*
X102995200Y-47438600D01*
X104107400Y-53059100D02*
X102995200Y-51946900D01*
X108043900Y-53059100D02*
X104107400Y-53059100D01*
X117254300Y-62269500D02*
X108043900Y-53059100D01*
X117761900Y-62269500D02*
X117254300Y-62269500D01*
X118458600Y-62966200D02*
X117761900Y-62269500D01*
X118458600Y-68667400D02*
X118458600Y-62966200D01*
X117131300Y-69994700D02*
X118458600Y-68667400D01*
X116850000Y-69994700D02*
X117131300Y-69994700D01*
%TO.N,S1*%
X95119200Y-35666300D02*
X95119200Y-38803100D01*
X92583600Y-33130700D02*
X95119200Y-35666300D01*
X90368900Y-33130700D02*
X92583600Y-33130700D01*
X88843600Y-31605400D02*
X90368900Y-33130700D01*
X77464900Y-31605400D02*
X88843600Y-31605400D01*
X73510300Y-35560000D02*
X77464900Y-31605400D01*
X72385000Y-35560000D02*
X73510300Y-35560000D01*
X116850000Y-68580000D02*
X116850000Y-67454700D01*
X117054700Y-67454700D02*
X116850000Y-67454700D01*
X117999100Y-66510300D02*
X117054700Y-67454700D01*
X117999100Y-65530700D02*
X117999100Y-66510300D01*
X117093800Y-64625400D02*
X117999100Y-65530700D01*
X115915300Y-64625400D02*
X117093800Y-64625400D01*
X115724700Y-64434800D02*
X115915300Y-64625400D01*
X115724700Y-61816400D02*
X115724700Y-64434800D01*
X110809300Y-56901000D02*
X115724700Y-61816400D01*
X107312400Y-56901000D02*
X110809300Y-56901000D01*
X102544800Y-52133400D02*
X107312400Y-56901000D01*
X102544800Y-48891300D02*
X102544800Y-52133400D01*
X98569700Y-44916200D02*
X102544800Y-48891300D01*
X98569700Y-43431200D02*
X98569700Y-44916200D01*
X97857800Y-42719300D02*
X98569700Y-43431200D01*
%TO.N,GND*%
X73406000Y-25400000D02*
X76200000Y-25400000D01*
X70104000Y-28702000D02*
X73406000Y-25400000D01*
X70104000Y-67818000D02*
X70104000Y-28702000D01*
X70866000Y-68580000D02*
X70104000Y-67818000D01*
X72385000Y-68580000D02*
X70866000Y-68580000D01*
X57825000Y-26757000D02*
X57825000Y-25400000D01*
X56642000Y-27940000D02*
X57825000Y-26757000D01*
X50800000Y-27940000D02*
X56642000Y-27940000D01*
X50292000Y-28448000D02*
X50800000Y-27940000D01*
X50292000Y-67818000D02*
X50292000Y-28448000D01*
X51054000Y-68580000D02*
X50292000Y-67818000D01*
X52705000Y-68580000D02*
X51054000Y-68580000D01*
X31496000Y-30480000D02*
X38140000Y-30480000D01*
X29718000Y-32258000D02*
X31496000Y-30480000D01*
X29718000Y-67564000D02*
X29718000Y-32258000D01*
X30734000Y-68580000D02*
X29718000Y-67564000D01*
X33015000Y-68580000D02*
X30734000Y-68580000D01*
D19*
X25925000Y-26172000D02*
X37084000Y-26172000D01*
D18*
X96012000Y-43434000D02*
X96012000Y-43688000D01*
D19*
X116332000Y-22860000D02*
X116880000Y-22860000D01*
X116312000Y-22880000D02*
X116332000Y-22860000D01*
X104160000Y-22880000D02*
X116312000Y-22880000D01*
X127508000Y-88900000D02*
X100076000Y-88900000D01*
X128524000Y-87884000D02*
X127508000Y-88900000D01*
X128524000Y-56896000D02*
X128524000Y-87884000D01*
X76200000Y-25400000D02*
X77510000Y-25400000D01*
X128524000Y-56896000D02*
X127000000Y-55372000D01*
X89896000Y-22880000D02*
X104160000Y-22880000D01*
X89408000Y-23368000D02*
X89896000Y-22880000D01*
X74168000Y-23368000D02*
X89408000Y-23368000D01*
X116880000Y-22860000D02*
X117896000Y-23876000D01*
X24120000Y-39380000D02*
X25925000Y-39380000D01*
X23368000Y-40132000D02*
X24120000Y-39380000D01*
D18*
X107696000Y-86360000D02*
X104140000Y-86360000D01*
X108204000Y-85852000D02*
X107696000Y-86360000D01*
X108204000Y-60920000D02*
X108204000Y-85852000D01*
X105704000Y-58420000D02*
X108204000Y-60920000D01*
D19*
X90170000Y-24130000D02*
X93345000Y-24130000D01*
X89408000Y-23368000D02*
X90170000Y-24130000D01*
X38140000Y-26964000D02*
X38140000Y-30480000D01*
X37348000Y-26172000D02*
X38140000Y-26964000D01*
X37084000Y-26172000D02*
X37348000Y-26172000D01*
D18*
X95250000Y-44450000D02*
X92075000Y-44450000D01*
X96012000Y-43688000D02*
X95250000Y-44450000D01*
D19*
X54356000Y-23368000D02*
X74168000Y-23368000D01*
X52324000Y-25400000D02*
X54356000Y-23368000D01*
X74168000Y-23368000D02*
X76200000Y-25400000D01*
X105450000Y-24170000D02*
X105450000Y-31115000D01*
X104160000Y-22880000D02*
X105450000Y-24170000D01*
D18*
X119888000Y-86360000D02*
X116850000Y-86360000D01*
X120904000Y-85344000D02*
X119888000Y-86360000D01*
X120904000Y-61174000D02*
X120904000Y-85344000D01*
X118150000Y-58420000D02*
X120904000Y-61174000D01*
D19*
X24120000Y-26172000D02*
X25925000Y-26172000D01*
X23368000Y-26924000D02*
X24120000Y-26172000D01*
X23368000Y-40132000D02*
X23368000Y-26924000D01*
D18*
X96012000Y-26797000D02*
X96012000Y-43434000D01*
X93345000Y-24130000D02*
X96012000Y-26797000D01*
D19*
X99055000Y-87879000D02*
X99055000Y-80518000D01*
X100076000Y-88900000D02*
X99055000Y-87879000D01*
X52324000Y-25400000D02*
X57825000Y-25400000D01*
X27305000Y-86995000D02*
X27305000Y-80010000D01*
X28448000Y-88138000D02*
X27305000Y-86995000D01*
X28448000Y-88900000D02*
X28448000Y-88138000D01*
X100076000Y-88900000D02*
X28448000Y-88900000D01*
D18*
X95255000Y-69845000D02*
X92085000Y-69845000D01*
X96012000Y-69088000D02*
X95255000Y-69845000D01*
X96012000Y-52157000D02*
X96012000Y-69088000D01*
X93385000Y-49530000D02*
X96012000Y-52157000D01*
D19*
X23368000Y-81073000D02*
X23368000Y-40132000D01*
X23555000Y-81260000D02*
X23368000Y-81073000D01*
X26055000Y-81260000D02*
X23555000Y-81260000D01*
X27305000Y-80010000D02*
X26055000Y-81260000D01*
X37084000Y-26172000D02*
X37348000Y-26172000D01*
X51552000Y-26172000D02*
X52324000Y-25400000D01*
X37348000Y-26172000D02*
X51552000Y-26172000D01*
D18*
X96012000Y-43434000D02*
X96012000Y-43688000D01*
X95758000Y-49530000D02*
X93385000Y-49530000D01*
X96012000Y-49276000D02*
X95758000Y-49530000D01*
X96012000Y-43688000D02*
X96012000Y-49276000D01*
X76200000Y-25400000D02*
X77510000Y-25400000D01*
X108204000Y-33869000D02*
X108204000Y-36195000D01*
X105450000Y-31115000D02*
X108204000Y-33869000D01*
X124460000Y-43815000D02*
X120904000Y-43815000D01*
X119761000Y-51435000D02*
X116840000Y-51435000D01*
X120904000Y-50292000D02*
X119761000Y-51435000D01*
X120904000Y-43815000D02*
X120904000Y-50292000D01*
X105265300Y-36195000D02*
X108204000Y-36195000D01*
X104140000Y-36195000D02*
X105265300Y-36195000D01*
X120904000Y-38662600D02*
X120904000Y-43815000D01*
X118037700Y-38662600D02*
X117965300Y-38735000D01*
X120904000Y-38662600D02*
X118037700Y-38662600D01*
X116840000Y-38735000D02*
X117965300Y-38735000D01*
X120904000Y-33655000D02*
X116840000Y-33655000D01*
X120904000Y-26884000D02*
X120904000Y-33655000D01*
X117896000Y-23876000D02*
X120904000Y-26884000D01*
X120904000Y-33655000D02*
X120904000Y-38662600D01*
X108204000Y-36195000D02*
X108204000Y-43422300D01*
X107569000Y-51435000D02*
X104140000Y-51435000D01*
X108204000Y-50800000D02*
X107569000Y-51435000D01*
X108204000Y-43422300D02*
X108204000Y-50800000D01*
X110242000Y-43422300D02*
X110634700Y-43815000D01*
X108204000Y-43422300D02*
X110242000Y-43422300D01*
X111760000Y-43815000D02*
X110634700Y-43815000D01*
D19*
X128524000Y-23368000D02*
X128524000Y-38509800D01*
X127782000Y-22626000D02*
X128524000Y-23368000D01*
X117114000Y-22626000D02*
X127782000Y-22626000D01*
X116880000Y-22860000D02*
X117114000Y-22626000D01*
X128524000Y-38509800D02*
X128524000Y-56896000D01*
D18*
X125810500Y-38509800D02*
X125585300Y-38735000D01*
X128524000Y-38509800D02*
X125810500Y-38509800D01*
X124460000Y-38735000D02*
X125585300Y-38735000D01*
%TO.N,~{RES}*%
X87683100Y-71548000D02*
X90096000Y-73960900D01*
X71996600Y-71548000D02*
X87683100Y-71548000D01*
%TO.N,~{IORQ}*%
X60955000Y-80518000D02*
X59779700Y-80518000D01*
X59779700Y-80150600D02*
X59779700Y-80518000D01*
X58971800Y-79342700D02*
X59779700Y-80150600D01*
X58078700Y-79342700D02*
X58971800Y-79342700D01*
X57145000Y-78409000D02*
X58078700Y-79342700D01*
X57145000Y-77505400D02*
X57145000Y-78409000D01*
X55991800Y-76352200D02*
X57145000Y-77505400D01*
X52454200Y-76352200D02*
X55991800Y-76352200D01*
X45316500Y-69214500D02*
X52454200Y-76352200D01*
X45316500Y-61504000D02*
X45316500Y-69214500D01*
X33342500Y-49530000D02*
X45316500Y-61504000D01*
X32616000Y-49530000D02*
X33342500Y-49530000D01*
X31889600Y-48803600D02*
X32616000Y-49530000D01*
X31889600Y-42707700D02*
X31889600Y-48803600D01*
X32641900Y-41955400D02*
X31889600Y-42707700D01*
X36852500Y-41955400D02*
X32641900Y-41955400D01*
X42001100Y-36806800D02*
X36852500Y-41955400D01*
X42001100Y-35312500D02*
X42001100Y-36806800D01*
X41087900Y-34399300D02*
X42001100Y-35312500D01*
%TO.N,~{WR}*%
X87625000Y-38100000D02*
X87625000Y-39225300D01*
X92085000Y-64765000D02*
X92085000Y-63639700D01*
X87858900Y-39225300D02*
X87625000Y-39225300D01*
X89387300Y-40753700D02*
X87858900Y-39225300D01*
X89387300Y-43964400D02*
X89387300Y-40753700D01*
X92466100Y-47043200D02*
X89387300Y-43964400D01*
X92466100Y-48238900D02*
X92466100Y-47043200D01*
X92225400Y-48479600D02*
X92466100Y-48238900D01*
X92225400Y-50035300D02*
X92225400Y-48479600D01*
X93046400Y-50856300D02*
X92225400Y-50035300D01*
X93210400Y-50856300D02*
X93046400Y-50856300D01*
X94361400Y-52007300D02*
X93210400Y-50856300D01*
X94361400Y-56592800D02*
X94361400Y-52007300D01*
X94810200Y-57041600D02*
X94361400Y-56592800D01*
X94810200Y-61195900D02*
X94810200Y-57041600D01*
X92366400Y-63639700D02*
X94810200Y-61195900D01*
X92085000Y-63639700D02*
X92366400Y-63639700D01*
X47973700Y-39225300D02*
X48255000Y-39225300D01*
X46217100Y-40981900D02*
X47973700Y-39225300D01*
X46217100Y-68780000D02*
X46217100Y-40981900D01*
X52888600Y-75451500D02*
X46217100Y-68780000D01*
X60160500Y-75451500D02*
X52888600Y-75451500D01*
X62319700Y-77610700D02*
X60160500Y-75451500D01*
X62319700Y-77978000D02*
X62319700Y-77610700D01*
X63495000Y-77978000D02*
X62319700Y-77978000D01*
X48255000Y-38100000D02*
X48255000Y-39225300D01*
%TO.N,~{RD}*%
X86039700Y-53333600D02*
X87625000Y-51748300D01*
X73966300Y-53333600D02*
X86039700Y-53333600D01*
X87625000Y-50800000D02*
X87625000Y-51748300D01*
X90414000Y-60856800D02*
X90232000Y-60674800D01*
X92531900Y-60856800D02*
X90414000Y-60856800D01*
X94359900Y-59028800D02*
X92531900Y-60856800D01*
X94359900Y-57824900D02*
X94359900Y-59028800D01*
X92265400Y-55730400D02*
X94359900Y-57824900D01*
X91150300Y-55730400D02*
X92265400Y-55730400D01*
X90959700Y-55539800D02*
X91150300Y-55730400D01*
X90959700Y-55083000D02*
X90959700Y-55539800D01*
X87625000Y-51748300D02*
X90959700Y-55083000D01*
%TO.N,~{MRQ}*%
X102638500Y-54388300D02*
X100468400Y-52218200D01*
X102638500Y-57760500D02*
X102638500Y-54388300D01*
X105788000Y-60910000D02*
X102638500Y-57760500D01*
X105788000Y-78683500D02*
X105788000Y-60910000D01*
X104461500Y-80010000D02*
X105788000Y-78683500D01*
X103812500Y-80010000D02*
X104461500Y-80010000D01*
X99905600Y-83916900D02*
X103812500Y-80010000D01*
X99905600Y-85083800D02*
X99905600Y-83916900D01*
%TO.N,RAMS2*%
X75244100Y-52506000D02*
X74636200Y-52506000D01*
X78151400Y-49598700D02*
X75244100Y-52506000D01*
X78151400Y-49598600D02*
X78151400Y-49598700D01*
X89583800Y-49598600D02*
X78151400Y-49598600D01*
%TO.N,A14*%
X68575000Y-80518000D02*
X69750300Y-80518000D01*
X74007700Y-75882700D02*
X77594400Y-75882700D01*
X72385000Y-77505400D02*
X74007700Y-75882700D01*
X72385000Y-78409000D02*
X72385000Y-77505400D01*
X71451300Y-79342700D02*
X72385000Y-78409000D01*
X70558200Y-79342700D02*
X71451300Y-79342700D01*
X69750300Y-80150600D02*
X70558200Y-79342700D01*
X69750300Y-80518000D02*
X69750300Y-80150600D01*
%TO.N,A13*%
X90623900Y-47085200D02*
X91290500Y-47751800D01*
X79002200Y-47085200D02*
X90623900Y-47085200D01*
X75214800Y-50872600D02*
X79002200Y-47085200D01*
X48255000Y-40640000D02*
X48255000Y-41765300D01*
X71115000Y-77978000D02*
X69939700Y-77978000D01*
X48005500Y-41765300D02*
X48255000Y-41765300D01*
X46667400Y-43103400D02*
X48005500Y-41765300D01*
X46667400Y-68593400D02*
X46667400Y-43103400D01*
X52850200Y-74776200D02*
X46667400Y-68593400D01*
X67105200Y-74776200D02*
X52850200Y-74776200D01*
X69939700Y-77610700D02*
X67105200Y-74776200D01*
X69939700Y-77978000D02*
X69939700Y-77610700D01*
%TO.N,A11*%
X78773500Y-48260000D02*
X87625000Y-48260000D01*
X77646700Y-49386800D02*
X78773500Y-48260000D01*
X77646700Y-49466500D02*
X77646700Y-49386800D01*
X75485400Y-51627800D02*
X77646700Y-49466500D01*
X74943100Y-51627800D02*
X75485400Y-51627800D01*
X74388800Y-51073500D02*
X74943100Y-51627800D01*
X74388800Y-49642400D02*
X74388800Y-51073500D01*
%TO.N,A10*%
X67945000Y-53340000D02*
X67945000Y-54465300D01*
X79577100Y-73340700D02*
X79867600Y-73631200D01*
X69840300Y-73340700D02*
X79577100Y-73340700D01*
X65919100Y-69419500D02*
X69840300Y-73340700D01*
X65919100Y-56209900D02*
X65919100Y-69419500D01*
X67663700Y-54465300D02*
X65919100Y-56209900D01*
X67945000Y-54465300D02*
X67663700Y-54465300D01*
%TO.N,A8*%
X76195000Y-80518000D02*
X76195000Y-79342700D01*
X48255000Y-43180000D02*
X48255000Y-44305300D01*
X76562400Y-79342700D02*
X76195000Y-79342700D01*
X77370300Y-78534800D02*
X76562400Y-79342700D01*
X77370300Y-77211000D02*
X77370300Y-78534800D01*
X78371700Y-76209600D02*
X77370300Y-77211000D01*
X78371700Y-75594500D02*
X78371700Y-76209600D01*
X77934500Y-75157300D02*
X78371700Y-75594500D01*
X69109300Y-75157300D02*
X77934500Y-75157300D01*
X68237000Y-74285000D02*
X69109300Y-75157300D01*
X56087900Y-74285000D02*
X68237000Y-74285000D01*
X49380300Y-67577400D02*
X56087900Y-74285000D01*
X49380300Y-57953800D02*
X49380300Y-67577400D01*
X48721200Y-57294700D02*
X49380300Y-57953800D01*
X48021700Y-57294700D02*
X48721200Y-57294700D01*
X47129600Y-56402600D02*
X48021700Y-57294700D01*
X47129600Y-45231900D02*
X47129600Y-56402600D01*
X48056200Y-44305300D02*
X47129600Y-45231900D01*
X48255000Y-44305300D02*
X48056200Y-44305300D01*
%TO.N,A6*%
X124460000Y-41275000D02*
X124460000Y-40149700D01*
X72385000Y-43180000D02*
X73510300Y-43180000D01*
X74311500Y-43180000D02*
X83792900Y-33698600D01*
X73510300Y-43180000D02*
X74311500Y-43180000D01*
X122932900Y-38903900D02*
X122932900Y-35064700D01*
X124178700Y-40149700D02*
X122932900Y-38903900D01*
X124460000Y-40149700D02*
X124178700Y-40149700D01*
%TO.N,A5*%
X72385000Y-45720000D02*
X72385000Y-46845300D01*
X80929900Y-59690000D02*
X81275000Y-60035100D01*
X72027000Y-59690000D02*
X80929900Y-59690000D01*
X71250400Y-58913400D02*
X72027000Y-59690000D01*
X71250400Y-47698600D02*
X71250400Y-58913400D01*
X72103700Y-46845300D02*
X71250400Y-47698600D01*
X72385000Y-46845300D02*
X72103700Y-46845300D01*
X33015000Y-45720000D02*
X33015000Y-46845300D01*
X124460000Y-46355000D02*
X124460000Y-47480300D01*
X81275000Y-78024600D02*
X81275000Y-79153300D01*
X81275000Y-78024600D02*
X81275000Y-77978000D01*
X52705000Y-45720000D02*
X52705000Y-46845300D01*
X81275000Y-77860400D02*
X81275000Y-77978000D01*
X78121600Y-74707000D02*
X81275000Y-77860400D01*
X69295900Y-74707000D02*
X78121600Y-74707000D01*
X56818900Y-62230000D02*
X69295900Y-74707000D01*
X52373900Y-62230000D02*
X56818900Y-62230000D01*
X51127900Y-60984000D02*
X52373900Y-62230000D01*
X51127900Y-48141100D02*
X51127900Y-60984000D01*
X52423700Y-46845300D02*
X51127900Y-48141100D01*
X52705000Y-46845300D02*
X52423700Y-46845300D01*
X118873600Y-52978300D02*
X109815500Y-52978300D01*
X123334700Y-48517200D02*
X118873600Y-52978300D01*
X123334700Y-48387500D02*
X123334700Y-48517200D01*
X124241900Y-47480300D02*
X123334700Y-48387500D01*
X124460000Y-47480300D02*
X124241900Y-47480300D01*
X80907600Y-79153300D02*
X81275000Y-79153300D01*
X80099700Y-79961200D02*
X80907600Y-79153300D01*
X80099700Y-80834600D02*
X80099700Y-79961200D01*
X79207300Y-81727000D02*
X80099700Y-80834600D01*
X68113600Y-81727000D02*
X79207300Y-81727000D01*
X67210400Y-80823800D02*
X68113600Y-81727000D01*
X67210400Y-79937400D02*
X67210400Y-80823800D01*
X66487600Y-79214600D02*
X67210400Y-79937400D01*
X60507400Y-79214600D02*
X66487600Y-79214600D01*
X59685000Y-78392200D02*
X60507400Y-79214600D01*
X59685000Y-77571600D02*
X59685000Y-78392200D01*
X58015300Y-75901900D02*
X59685000Y-77571600D01*
X52696800Y-75901900D02*
X58015300Y-75901900D01*
X45766800Y-68971900D02*
X52696800Y-75901900D01*
X45766800Y-59315800D02*
X45766800Y-68971900D01*
X33296300Y-46845300D02*
X45766800Y-59315800D01*
X33015000Y-46845300D02*
X33296300Y-46845300D01*
%TO.N,A4*%
X124460000Y-51435000D02*
X124460000Y-52560300D01*
X101188700Y-85650800D02*
X101188600Y-85650800D01*
X101188700Y-85744200D02*
X101188700Y-85650800D01*
X103420000Y-87975500D02*
X101188700Y-85744200D01*
X119546300Y-87975500D02*
X103420000Y-87975500D01*
X123063500Y-84458300D02*
X119546300Y-87975500D01*
X123063500Y-81089000D02*
X123063500Y-84458300D01*
X124142500Y-80010000D02*
X123063500Y-81089000D01*
X124869000Y-80010000D02*
X124142500Y-80010000D01*
X125643000Y-79236000D02*
X124869000Y-80010000D01*
X125643000Y-53743300D02*
X125643000Y-79236000D01*
X124460000Y-52560300D02*
X125643000Y-53743300D01*
%TO.N,A3*%
X83815000Y-77978000D02*
X82639700Y-77978000D01*
X52705000Y-50800000D02*
X52705000Y-51925300D01*
X82639700Y-77657900D02*
X82639700Y-77978000D01*
X79788600Y-74806800D02*
X82639700Y-77657900D01*
X79380600Y-74806800D02*
X79788600Y-74806800D01*
X78830500Y-74256700D02*
X79380600Y-74806800D01*
X69482500Y-74256700D02*
X78830500Y-74256700D01*
X54915800Y-59690000D02*
X69482500Y-74256700D01*
X52303900Y-59690000D02*
X54915800Y-59690000D01*
X51579700Y-58965800D02*
X52303900Y-59690000D01*
X51579700Y-52769200D02*
X51579700Y-58965800D01*
X52423600Y-51925300D02*
X51579700Y-52769200D01*
X52705000Y-51925300D02*
X52423600Y-51925300D01*
%TO.N,A2*%
X72385000Y-53340000D02*
X72385000Y-54465300D01*
X81713600Y-54465300D02*
X84551700Y-57303400D01*
X72385000Y-54465300D02*
X81713600Y-54465300D01*
X93587200Y-58559600D02*
X93634600Y-58607000D01*
X91825200Y-58559600D02*
X93587200Y-58559600D01*
X90731800Y-57466200D02*
X91825200Y-58559600D01*
X90731800Y-57327900D02*
X90731800Y-57466200D01*
X88158500Y-54754600D02*
X90731800Y-57327900D01*
X87100500Y-54754600D02*
X88158500Y-54754600D01*
X84551700Y-57303400D02*
X87100500Y-54754600D01*
X84551700Y-57303400D02*
X84551700Y-57363600D01*
%TO.N,A1*%
X72385000Y-55880000D02*
X73510300Y-55880000D01*
X88441300Y-57294600D02*
X88789700Y-56946200D01*
X86282000Y-57294600D02*
X88441300Y-57294600D01*
X85635700Y-57940900D02*
X86282000Y-57294600D01*
X75735400Y-58105100D02*
X73510300Y-55880000D01*
X85471500Y-58105100D02*
X75735400Y-58105100D01*
X85635700Y-57940900D02*
X85471500Y-58105100D01*
%TO.N,A0*%
X33015000Y-58420000D02*
X33015000Y-57294700D01*
X32733700Y-57294700D02*
X33015000Y-57294700D01*
X31439300Y-56000300D02*
X32733700Y-57294700D01*
X31439300Y-40618100D02*
X31439300Y-56000300D01*
X32687500Y-39369900D02*
X31439300Y-40618100D01*
X38353700Y-39369900D02*
X32687500Y-39369900D01*
X41275700Y-36447900D02*
X38353700Y-39369900D01*
X86355000Y-80518000D02*
X86355000Y-79342700D01*
X85987600Y-79342700D02*
X86355000Y-79342700D01*
X85179700Y-78534800D02*
X85987600Y-79342700D01*
X85179700Y-77661500D02*
X85179700Y-78534800D01*
X81874700Y-74356500D02*
X85179700Y-77661500D01*
X79567200Y-74356500D02*
X81874700Y-74356500D01*
X79001700Y-73791000D02*
X79567200Y-74356500D01*
X69653700Y-73791000D02*
X79001700Y-73791000D01*
X54282700Y-58420000D02*
X69653700Y-73791000D01*
X52705000Y-58420000D02*
X54282700Y-58420000D01*
%TO.N,D7*%
X101537500Y-70984100D02*
X101840100Y-70681500D01*
X91600000Y-70984100D02*
X101537500Y-70984100D01*
X90943500Y-70327600D02*
X91600000Y-70984100D01*
X90943500Y-62412000D02*
X90943500Y-70327600D01*
X89446000Y-60914500D02*
X90943500Y-62412000D01*
X89446000Y-60241000D02*
X89446000Y-60914500D01*
X87625000Y-58420000D02*
X89446000Y-60241000D01*
X88895000Y-77978000D02*
X87719700Y-77978000D01*
X67945000Y-58420000D02*
X67945000Y-59545300D01*
X87719700Y-77610700D02*
X87719700Y-77978000D01*
X82999400Y-72890400D02*
X87719700Y-77610700D01*
X70026900Y-72890400D02*
X82999400Y-72890400D01*
X66369400Y-69232900D02*
X70026900Y-72890400D01*
X66369400Y-60839500D02*
X66369400Y-69232900D01*
X67663600Y-59545300D02*
X66369400Y-60839500D01*
X67945000Y-59545300D02*
X67663600Y-59545300D01*
%TO.N,D6*%
X111760000Y-71120000D02*
X111760000Y-72245300D01*
X91413900Y-82228900D02*
X96932100Y-82228900D01*
X90070300Y-80885300D02*
X91413900Y-82228900D01*
X90070300Y-80518000D02*
X90070300Y-80885300D01*
X88895000Y-80518000D02*
X90070300Y-80518000D01*
X109404500Y-74319500D02*
X109404500Y-79335000D01*
X111478700Y-72245300D02*
X109404500Y-74319500D01*
X111760000Y-72245300D02*
X111478700Y-72245300D01*
X85507100Y-61952600D02*
X73412600Y-61952600D01*
X86499700Y-60960000D02*
X85507100Y-61952600D01*
X87625000Y-60960000D02*
X86499700Y-60960000D01*
%TO.N,D5*%
X91435000Y-77978000D02*
X91435000Y-76802700D01*
X119109000Y-84945400D02*
X119827600Y-84226800D01*
X116372100Y-84945400D02*
X119109000Y-84945400D01*
X112885300Y-81458600D02*
X116372100Y-84945400D01*
X112885300Y-80709200D02*
X112885300Y-81458600D01*
X112041400Y-79865300D02*
X112885300Y-80709200D01*
X111760000Y-79865300D02*
X112041400Y-79865300D01*
X111760000Y-78740000D02*
X111760000Y-79865300D01*
X67945000Y-63500000D02*
X67945000Y-64625300D01*
X91088000Y-76802700D02*
X87668700Y-73383400D01*
X91435000Y-76802700D02*
X91088000Y-76802700D01*
X86725300Y-72440000D02*
X87668700Y-73383400D01*
X70213400Y-72440000D02*
X86725300Y-72440000D01*
X66819700Y-69046300D02*
X70213400Y-72440000D01*
X66819700Y-65557800D02*
X66819700Y-69046300D01*
X67752200Y-64625300D02*
X66819700Y-65557800D01*
X67945000Y-64625300D02*
X67752200Y-64625300D01*
%TO.N,D4*%
X87625000Y-66040000D02*
X87625000Y-66602600D01*
X67945000Y-66040000D02*
X67945000Y-67165300D01*
X91435000Y-80518000D02*
X92610300Y-80518000D01*
X92610300Y-80885300D02*
X92610300Y-80518000D01*
X93470300Y-81745300D02*
X92610300Y-80885300D01*
X94410000Y-81745300D02*
X93470300Y-81745300D01*
X95168200Y-80987100D02*
X94410000Y-81745300D01*
X95168200Y-77312100D02*
X95168200Y-80987100D01*
X88983100Y-71127000D02*
X95168200Y-77312100D01*
X88983100Y-67960700D02*
X88983100Y-71127000D01*
X87625000Y-66602600D02*
X88983100Y-67960700D01*
X84063900Y-70163700D02*
X87625000Y-66602600D01*
X71148100Y-70163700D02*
X84063900Y-70163700D01*
X68149700Y-67165300D02*
X71148100Y-70163700D01*
X67945000Y-67165300D02*
X68149700Y-67165300D01*
%TO.N,D3*%
X124188700Y-77325300D02*
X124470000Y-77325300D01*
X122613100Y-78900900D02*
X124188700Y-77325300D01*
X122613100Y-84271800D02*
X122613100Y-78900900D01*
X119389900Y-87495000D02*
X122613100Y-84271800D01*
X103661700Y-87495000D02*
X119389900Y-87495000D01*
X102969900Y-86803200D02*
X103661700Y-87495000D01*
X102969900Y-83294100D02*
X102969900Y-86803200D01*
X103858700Y-82405300D02*
X102969900Y-83294100D01*
X104140000Y-82405300D02*
X103858700Y-82405300D01*
X104140000Y-81280000D02*
X104140000Y-82405300D01*
X124470000Y-76200000D02*
X124470000Y-77325300D01*
X93975000Y-77978000D02*
X93975000Y-76802700D01*
X87412900Y-70664800D02*
X87625000Y-70452700D01*
X70029800Y-70664800D02*
X87412900Y-70664800D01*
X67945000Y-68580000D02*
X70029800Y-70664800D01*
X93975000Y-76802700D02*
X87625000Y-70452700D01*
X87625000Y-70452700D02*
X87625000Y-68580000D01*
%TO.N,D2*%
X102638100Y-79116600D02*
X103014700Y-78740000D01*
X101187500Y-79116600D02*
X102638100Y-79116600D01*
X104140000Y-78740000D02*
X103014700Y-78740000D01*
X50325200Y-82224900D02*
X34140300Y-66040000D01*
X86377700Y-82224900D02*
X50325200Y-82224900D01*
X87625000Y-80977600D02*
X86377700Y-82224900D01*
X87625000Y-80087000D02*
X87625000Y-80977600D01*
X88369400Y-79342600D02*
X87625000Y-80087000D01*
X92799600Y-79342600D02*
X88369400Y-79342600D01*
X93975000Y-80518000D02*
X92799600Y-79342600D01*
X33015000Y-66040000D02*
X34140300Y-66040000D01*
%TO.N,D1*%
X124470000Y-71120000D02*
X124470000Y-69994700D01*
X124188400Y-69994700D02*
X124470000Y-69994700D01*
X122026700Y-67833000D02*
X124188400Y-69994700D01*
X122026700Y-60705100D02*
X122026700Y-67833000D01*
X118349800Y-57028200D02*
X122026700Y-60705100D01*
X113840800Y-57028200D02*
X118349800Y-57028200D01*
X98731500Y-76528500D02*
X96515000Y-76528500D01*
X104140000Y-71120000D02*
X98731500Y-76528500D01*
X91909400Y-71922900D02*
X96515000Y-76528500D01*
X91257800Y-71922900D02*
X91909400Y-71922900D01*
X89883800Y-70548900D02*
X91257800Y-71922900D01*
X89883800Y-64134800D02*
X89883800Y-70548900D01*
X88063800Y-62314800D02*
X89883800Y-64134800D01*
X86274900Y-62314800D02*
X88063800Y-62314800D01*
X85089700Y-63500000D02*
X86274900Y-62314800D01*
X72385000Y-63500000D02*
X85089700Y-63500000D01*
X96515000Y-76528500D02*
X96515000Y-77978000D01*
%TO.N,D0*%
X96515000Y-80518000D02*
X97690300Y-80518000D01*
X104140000Y-68580000D02*
X104140000Y-69634400D01*
X104350500Y-69634400D02*
X104140000Y-69634400D01*
X105265300Y-70549200D02*
X104350500Y-69634400D01*
X105265300Y-74206600D02*
X105265300Y-70549200D01*
X104541900Y-74930000D02*
X105265300Y-74206600D01*
X103818300Y-74930000D02*
X104541900Y-74930000D01*
X99405600Y-79342700D02*
X103818300Y-74930000D01*
X98057500Y-79342700D02*
X99405600Y-79342700D01*
X97690300Y-79709900D02*
X98057500Y-79342700D01*
X97690300Y-80518000D02*
X97690300Y-79709900D01*
X72385000Y-60960000D02*
X73510300Y-60960000D01*
X103913000Y-69634400D02*
X104140000Y-69634400D01*
X102113000Y-71434400D02*
X103913000Y-69634400D01*
X91413400Y-71434400D02*
X102113000Y-71434400D01*
X90334100Y-70355100D02*
X91413400Y-71434400D01*
X90334100Y-62439500D02*
X90334100Y-70355100D01*
X88995700Y-61101100D02*
X90334100Y-62439500D01*
X88995700Y-60721500D02*
X88995700Y-61101100D01*
X88090000Y-59815800D02*
X88995700Y-60721500D01*
X84813400Y-59815800D02*
X88090000Y-59815800D01*
X83669200Y-60960000D02*
X84813400Y-59815800D01*
X73510300Y-60960000D02*
X83669200Y-60960000D01*
%TD*%
M02*
