%TF.GenerationSoftware,KiCad,Pcbnew,7.0.10*%
%TF.CreationDate,2024-01-08T21:25:52+01:00*%
%TF.ProjectId,p2000t-ram-expansion-board-1056kb,70323030-3074-42d7-9261-6d2d65787061,rev?*%
%TF.SameCoordinates,Original*%
%TF.FileFunction,Legend,Bot*%
%TF.FilePolarity,Positive*%
%FSLAX46Y46*%
G04 Gerber Fmt 4.6, Leading zero omitted, Abs format (unit mm)*
G04 Created by KiCad (PCBNEW 7.0.10) date 2024-01-08 21:25:52*
%MOMM*%
%LPD*%
G01*
G04 APERTURE LIST*
%ADD10C,0.150000*%
%ADD11C,0.120000*%
G04 APERTURE END LIST*
D10*
X29130190Y-87799152D02*
X29130190Y-88656295D01*
X29130190Y-88656295D02*
X29177809Y-88751533D01*
X29177809Y-88751533D02*
X29273047Y-88799152D01*
X29273047Y-88799152D02*
X29320666Y-88799152D01*
X29130190Y-87465819D02*
X29177809Y-87513438D01*
X29177809Y-87513438D02*
X29130190Y-87561057D01*
X29130190Y-87561057D02*
X29082571Y-87513438D01*
X29082571Y-87513438D02*
X29130190Y-87465819D01*
X29130190Y-87465819D02*
X29130190Y-87561057D01*
X28511143Y-88465819D02*
X28606381Y-88418200D01*
X28606381Y-88418200D02*
X28654000Y-88322961D01*
X28654000Y-88322961D02*
X28654000Y-87465819D01*
X27701619Y-88418200D02*
X27796857Y-88465819D01*
X27796857Y-88465819D02*
X27987333Y-88465819D01*
X27987333Y-88465819D02*
X28082571Y-88418200D01*
X28082571Y-88418200D02*
X28130190Y-88370580D01*
X28130190Y-88370580D02*
X28177809Y-88275342D01*
X28177809Y-88275342D02*
X28177809Y-87989628D01*
X28177809Y-87989628D02*
X28130190Y-87894390D01*
X28130190Y-87894390D02*
X28082571Y-87846771D01*
X28082571Y-87846771D02*
X27987333Y-87799152D01*
X27987333Y-87799152D02*
X27796857Y-87799152D01*
X27796857Y-87799152D02*
X27701619Y-87846771D01*
X27273047Y-87799152D02*
X27273047Y-88656295D01*
X27273047Y-88656295D02*
X27320666Y-88751533D01*
X27320666Y-88751533D02*
X27415904Y-88799152D01*
X27415904Y-88799152D02*
X27463523Y-88799152D01*
X27273047Y-87465819D02*
X27320666Y-87513438D01*
X27320666Y-87513438D02*
X27273047Y-87561057D01*
X27273047Y-87561057D02*
X27225428Y-87513438D01*
X27225428Y-87513438D02*
X27273047Y-87465819D01*
X27273047Y-87465819D02*
X27273047Y-87561057D01*
X26654000Y-88465819D02*
X26749238Y-88418200D01*
X26749238Y-88418200D02*
X26796857Y-88322961D01*
X26796857Y-88322961D02*
X26796857Y-87465819D01*
X25844476Y-88418200D02*
X25939714Y-88465819D01*
X25939714Y-88465819D02*
X26130190Y-88465819D01*
X26130190Y-88465819D02*
X26225428Y-88418200D01*
X26225428Y-88418200D02*
X26273047Y-88370580D01*
X26273047Y-88370580D02*
X26320666Y-88275342D01*
X26320666Y-88275342D02*
X26320666Y-87989628D01*
X26320666Y-87989628D02*
X26273047Y-87894390D01*
X26273047Y-87894390D02*
X26225428Y-87846771D01*
X26225428Y-87846771D02*
X26130190Y-87799152D01*
X26130190Y-87799152D02*
X25939714Y-87799152D01*
X25939714Y-87799152D02*
X25844476Y-87846771D01*
X25415904Y-87799152D02*
X25415904Y-88656295D01*
X25415904Y-88656295D02*
X25463523Y-88751533D01*
X25463523Y-88751533D02*
X25558761Y-88799152D01*
X25558761Y-88799152D02*
X25606380Y-88799152D01*
X25415904Y-87465819D02*
X25463523Y-87513438D01*
X25463523Y-87513438D02*
X25415904Y-87561057D01*
X25415904Y-87561057D02*
X25368285Y-87513438D01*
X25368285Y-87513438D02*
X25415904Y-87465819D01*
X25415904Y-87465819D02*
X25415904Y-87561057D01*
X24796857Y-88465819D02*
X24892095Y-88418200D01*
X24892095Y-88418200D02*
X24939714Y-88322961D01*
X24939714Y-88322961D02*
X24939714Y-87465819D01*
X23987333Y-88418200D02*
X24082571Y-88465819D01*
X24082571Y-88465819D02*
X24273047Y-88465819D01*
X24273047Y-88465819D02*
X24368285Y-88418200D01*
X24368285Y-88418200D02*
X24415904Y-88370580D01*
X24415904Y-88370580D02*
X24463523Y-88275342D01*
X24463523Y-88275342D02*
X24463523Y-87989628D01*
X24463523Y-87989628D02*
X24415904Y-87894390D01*
X24415904Y-87894390D02*
X24368285Y-87846771D01*
X24368285Y-87846771D02*
X24273047Y-87799152D01*
X24273047Y-87799152D02*
X24082571Y-87799152D01*
X24082571Y-87799152D02*
X23987333Y-87846771D01*
X23558761Y-87799152D02*
X23558761Y-88656295D01*
X23558761Y-88656295D02*
X23606380Y-88751533D01*
X23606380Y-88751533D02*
X23701618Y-88799152D01*
X23701618Y-88799152D02*
X23749237Y-88799152D01*
X23558761Y-87465819D02*
X23606380Y-87513438D01*
X23606380Y-87513438D02*
X23558761Y-87561057D01*
X23558761Y-87561057D02*
X23511142Y-87513438D01*
X23511142Y-87513438D02*
X23558761Y-87465819D01*
X23558761Y-87465819D02*
X23558761Y-87561057D01*
X22939714Y-88465819D02*
X23034952Y-88418200D01*
X23034952Y-88418200D02*
X23082571Y-88322961D01*
X23082571Y-88322961D02*
X23082571Y-87465819D01*
X22130190Y-88418200D02*
X22225428Y-88465819D01*
X22225428Y-88465819D02*
X22415904Y-88465819D01*
X22415904Y-88465819D02*
X22511142Y-88418200D01*
X22511142Y-88418200D02*
X22558761Y-88370580D01*
X22558761Y-88370580D02*
X22606380Y-88275342D01*
X22606380Y-88275342D02*
X22606380Y-87989628D01*
X22606380Y-87989628D02*
X22558761Y-87894390D01*
X22558761Y-87894390D02*
X22511142Y-87846771D01*
X22511142Y-87846771D02*
X22415904Y-87799152D01*
X22415904Y-87799152D02*
X22225428Y-87799152D01*
X22225428Y-87799152D02*
X22130190Y-87846771D01*
D11*
%TO.C,J1*%
X49465000Y-81848000D02*
X49465000Y-76648000D01*
X97785000Y-81848000D02*
X49465000Y-81848000D01*
X97785000Y-81848000D02*
X97785000Y-79248000D01*
X99055000Y-81848000D02*
X100385000Y-81848000D01*
X100385000Y-81848000D02*
X100385000Y-80518000D01*
X97785000Y-79248000D02*
X100385000Y-79248000D01*
X100385000Y-79248000D02*
X100385000Y-76648000D01*
X100385000Y-76648000D02*
X49465000Y-76648000D01*
%TD*%
M02*
