%TF.GenerationSoftware,KiCad,Pcbnew,8.0.2*%
%TF.CreationDate,2024-05-20T09:04:44+02:00*%
%TF.ProjectId,p2000t-ram-expansion-board-1056kb,70323030-3074-42d7-9261-6d2d65787061,1*%
%TF.SameCoordinates,Original*%
%TF.FileFunction,Soldermask,Bot*%
%TF.FilePolarity,Negative*%
%FSLAX46Y46*%
G04 Gerber Fmt 4.6, Leading zero omitted, Abs format (unit mm)*
G04 Created by KiCad (PCBNEW 8.0.2) date 2024-05-20 09:04:44*
%MOMM*%
%LPD*%
G01*
G04 APERTURE LIST*
%ADD10C,1.600000*%
%ADD11O,1.600000X1.600000*%
%ADD12R,1.600000X1.600000*%
%ADD13O,1.700000X1.700000*%
%ADD14R,1.700000X1.700000*%
%ADD15C,3.000000*%
%ADD16R,3.000000X3.000000*%
G04 APERTURE END LIST*
D10*
%TO.C,C1*%
X38140000Y-30480000D03*
X43140000Y-30480000D03*
%TD*%
D11*
%TO.C,U5*%
X124460000Y-28575000D03*
X124460000Y-31115000D03*
X124460000Y-33655000D03*
X124460000Y-36195000D03*
X124460000Y-38735000D03*
X124460000Y-41275000D03*
X124460000Y-43815000D03*
X124460000Y-46355000D03*
X124460000Y-48895000D03*
X124460000Y-51435000D03*
X116840000Y-51435000D03*
X116840000Y-48895000D03*
X116840000Y-46355000D03*
X116840000Y-43815000D03*
X116840000Y-41275000D03*
X116840000Y-38735000D03*
X116840000Y-36195000D03*
X116840000Y-33655000D03*
X116840000Y-31115000D03*
D12*
X116840000Y-28575000D03*
%TD*%
D11*
%TO.C,U2*%
X67945000Y-30480000D03*
X67945000Y-33020000D03*
X67945000Y-35560000D03*
X67945000Y-38100000D03*
X67945000Y-40640000D03*
X67945000Y-43180000D03*
X67945000Y-45720000D03*
X67945000Y-48260000D03*
X67945000Y-50800000D03*
X67945000Y-53340000D03*
X67945000Y-55880000D03*
X67945000Y-58420000D03*
X67945000Y-60960000D03*
X67945000Y-63500000D03*
X67945000Y-66040000D03*
X67945000Y-68580000D03*
X52705000Y-68580000D03*
X52705000Y-66040000D03*
X52705000Y-63500000D03*
X52705000Y-60960000D03*
X52705000Y-58420000D03*
X52705000Y-55880000D03*
X52705000Y-53340000D03*
X52705000Y-50800000D03*
X52705000Y-48260000D03*
X52705000Y-45720000D03*
X52705000Y-43180000D03*
X52705000Y-40640000D03*
X52705000Y-38100000D03*
X52705000Y-35560000D03*
X52705000Y-33020000D03*
D12*
X52705000Y-30480000D03*
%TD*%
D10*
%TO.C,C9*%
X93345000Y-24130000D03*
X98345000Y-24130000D03*
%TD*%
%TO.C,C2*%
X117896000Y-23876000D03*
X122896000Y-23876000D03*
%TD*%
D11*
%TO.C,D1*%
X26075000Y-53340000D03*
D12*
X26075000Y-60960000D03*
%TD*%
D10*
%TO.C,C5*%
X77510000Y-25400000D03*
X82510000Y-25400000D03*
%TD*%
%TO.C,C6*%
X57825000Y-25400000D03*
X62825000Y-25400000D03*
%TD*%
D11*
%TO.C,U1*%
X111760000Y-36195000D03*
X111760000Y-38735000D03*
X111760000Y-41275000D03*
X111760000Y-43815000D03*
X111760000Y-46355000D03*
X111760000Y-48895000D03*
X111760000Y-51435000D03*
X104140000Y-51435000D03*
X104140000Y-48895000D03*
X104140000Y-46355000D03*
X104140000Y-43815000D03*
X104140000Y-41275000D03*
X104140000Y-38735000D03*
D12*
X104140000Y-36195000D03*
%TD*%
D10*
%TO.C,C7*%
X105450000Y-31115000D03*
X110450000Y-31115000D03*
%TD*%
D11*
%TO.C,U8*%
X124470000Y-63500000D03*
X124470000Y-66040000D03*
X124470000Y-68580000D03*
X124470000Y-71120000D03*
X124470000Y-73660000D03*
X124470000Y-76200000D03*
X124470000Y-78740000D03*
X124470000Y-81280000D03*
X124470000Y-83820000D03*
X124470000Y-86360000D03*
X116850000Y-86360000D03*
X116850000Y-83820000D03*
X116850000Y-81280000D03*
X116850000Y-78740000D03*
X116850000Y-76200000D03*
X116850000Y-73660000D03*
X116850000Y-71120000D03*
X116850000Y-68580000D03*
X116850000Y-66040000D03*
D12*
X116850000Y-63500000D03*
%TD*%
D11*
%TO.C,U9*%
X87625000Y-30480000D03*
X87625000Y-33020000D03*
X87625000Y-35560000D03*
X87625000Y-38100000D03*
X87625000Y-40640000D03*
X87625000Y-43180000D03*
X87625000Y-45720000D03*
X87625000Y-48260000D03*
X87625000Y-50800000D03*
X87625000Y-53340000D03*
X87625000Y-55880000D03*
X87625000Y-58420000D03*
X87625000Y-60960000D03*
X87625000Y-63500000D03*
X87625000Y-66040000D03*
X87625000Y-68580000D03*
X72385000Y-68580000D03*
X72385000Y-66040000D03*
X72385000Y-63500000D03*
X72385000Y-60960000D03*
X72385000Y-58420000D03*
X72385000Y-55880000D03*
X72385000Y-53340000D03*
X72385000Y-50800000D03*
X72385000Y-48260000D03*
X72385000Y-45720000D03*
X72385000Y-43180000D03*
X72385000Y-40640000D03*
X72385000Y-38100000D03*
X72385000Y-35560000D03*
X72385000Y-33020000D03*
D12*
X72385000Y-30480000D03*
%TD*%
D10*
%TO.C,C3*%
X27305000Y-80010000D03*
D12*
X24805000Y-80010000D03*
%TD*%
D10*
%TO.C,C10*%
X105704000Y-58420000D03*
X110704000Y-58420000D03*
%TD*%
%TO.C,C4*%
X93385000Y-49530000D03*
X98385000Y-49530000D03*
%TD*%
D11*
%TO.C,U4*%
X48255000Y-35560000D03*
X48255000Y-38100000D03*
X48255000Y-40640000D03*
X48255000Y-43180000D03*
X48255000Y-45720000D03*
X48255000Y-48260000D03*
X48255000Y-50800000D03*
X48255000Y-53340000D03*
X48255000Y-55880000D03*
X48255000Y-58420000D03*
X48255000Y-60960000D03*
X48255000Y-63500000D03*
X48255000Y-66040000D03*
X48255000Y-68580000D03*
X33015000Y-68580000D03*
X33015000Y-66040000D03*
X33015000Y-63500000D03*
X33015000Y-60960000D03*
X33015000Y-58420000D03*
X33015000Y-55880000D03*
X33015000Y-53340000D03*
X33015000Y-50800000D03*
X33015000Y-48260000D03*
X33015000Y-45720000D03*
X33015000Y-43180000D03*
X33015000Y-40640000D03*
X33015000Y-38100000D03*
D12*
X33015000Y-35560000D03*
%TD*%
D13*
%TO.C,J2*%
X25925000Y-41920000D03*
D14*
X25925000Y-39380000D03*
%TD*%
D11*
%TO.C,U6*%
X99705000Y-54605000D03*
X99705000Y-57145000D03*
X99705000Y-59685000D03*
X99705000Y-62225000D03*
X99705000Y-64765000D03*
X99705000Y-67305000D03*
X99705000Y-69845000D03*
X92085000Y-69845000D03*
X92085000Y-67305000D03*
X92085000Y-64765000D03*
X92085000Y-62225000D03*
X92085000Y-59685000D03*
X92085000Y-57145000D03*
D12*
X92085000Y-54605000D03*
%TD*%
D10*
%TO.C,C8*%
X118150000Y-58420000D03*
X123150000Y-58420000D03*
%TD*%
D15*
%TO.C,J3*%
X25925000Y-31252000D03*
D16*
X25925000Y-26172000D03*
%TD*%
D11*
%TO.C,U3*%
X99695000Y-29210000D03*
X99695000Y-31750000D03*
X99695000Y-34290000D03*
X99695000Y-36830000D03*
X99695000Y-39370000D03*
X99695000Y-41910000D03*
X99695000Y-44450000D03*
X92075000Y-44450000D03*
X92075000Y-41910000D03*
X92075000Y-39370000D03*
X92075000Y-36830000D03*
X92075000Y-34290000D03*
X92075000Y-31750000D03*
D12*
X92075000Y-29210000D03*
%TD*%
D11*
%TO.C,U7*%
X111760000Y-63500000D03*
X111760000Y-66040000D03*
X111760000Y-68580000D03*
X111760000Y-71120000D03*
X111760000Y-73660000D03*
X111760000Y-76200000D03*
X111760000Y-78740000D03*
X111760000Y-81280000D03*
X111760000Y-83820000D03*
X111760000Y-86360000D03*
X104140000Y-86360000D03*
X104140000Y-83820000D03*
X104140000Y-81280000D03*
X104140000Y-78740000D03*
X104140000Y-76200000D03*
X104140000Y-73660000D03*
X104140000Y-71120000D03*
X104140000Y-68580000D03*
X104140000Y-66040000D03*
D12*
X104140000Y-63500000D03*
%TD*%
D13*
%TO.C,J1*%
X50795000Y-77978000D03*
X50795000Y-80518000D03*
X53335000Y-77978000D03*
X53335000Y-80518000D03*
X55875000Y-77978000D03*
X55875000Y-80518000D03*
X58415000Y-77978000D03*
X58415000Y-80518000D03*
X60955000Y-77978000D03*
X60955000Y-80518000D03*
X63495000Y-77978000D03*
X63495000Y-80518000D03*
X66035000Y-77978000D03*
X66035000Y-80518000D03*
X68575000Y-77978000D03*
X68575000Y-80518000D03*
X71115000Y-77978000D03*
X71115000Y-80518000D03*
X73655000Y-77978000D03*
X73655000Y-80518000D03*
X76195000Y-77978000D03*
X76195000Y-80518000D03*
X78735000Y-77978000D03*
X78735000Y-80518000D03*
X81275000Y-77978000D03*
X81275000Y-80518000D03*
X83815000Y-77978000D03*
X83815000Y-80518000D03*
X86355000Y-77978000D03*
X86355000Y-80518000D03*
X88895000Y-77978000D03*
X88895000Y-80518000D03*
X91435000Y-77978000D03*
X91435000Y-80518000D03*
X93975000Y-77978000D03*
X93975000Y-80518000D03*
X96515000Y-77978000D03*
X96515000Y-80518000D03*
X99055000Y-77978000D03*
D14*
X99055000Y-80518000D03*
%TD*%
M02*
