M48
; DRILL file {KiCad 8.0.2} date 2024-05-20T09:04:45+0200
; FORMAT={-:-/ absolute / inch / decimal}
; #@! TF.CreationDate,2024-05-20T09:04:45+02:00
; #@! TF.GenerationSoftware,Kicad,Pcbnew,8.0.2
; #@! TF.FileFunction,Plated,1,2,PTH
FMAT,2
INCH
; #@! TA.AperFunction,Plated,PTH,ViaDrill
T1C0.0157
; #@! TA.AperFunction,Plated,PTH,ComponentDrill
T2C0.0315
; #@! TA.AperFunction,Plated,PTH,ComponentDrill
T3C0.0394
; #@! TA.AperFunction,Plated,PTH,ComponentDrill
T4C0.0598
%
G90
G05
T1
X1.6176Y-1.3543
X1.625Y-1.435
X1.9464Y-1.2723
X2.7896Y-1.5749
X2.8345Y-2.8169
X2.8903Y-2.4391
X2.9121Y-2.0997
X2.9287Y-1.9544
X2.9384Y-2.0672
X2.9612Y-2.0029
X3.0549Y-2.9875
X3.1444Y-2.8989
X3.1998Y-2.3636
X3.2826Y-1.2744
X3.2989Y-1.3267
X3.3288Y-2.2584
X3.3715Y-2.2811
X3.4515Y-2.8891
X3.4957Y-2.242
X3.5269Y-1.9527
X3.5471Y-2.9118
X3.5524Y-2.3888
X3.5941Y-1.88
X3.6206Y-2.8742
X3.6813Y-1.5384
X3.6864Y-2.3074
X3.6865Y-2.0595
X3.7084Y-1.2012
X3.7449Y-1.5277
X3.751Y-2.128
X3.8068Y-2.0393
X3.8162Y-3.2374
X3.83Y-1.05
X3.8371Y-1.1774
X3.8389Y-1.8109
X3.8457Y-1.7702
X3.8527Y-1.6819
X3.8642Y-1.5228
X3.9333Y-3.3498
X3.9554Y-2.0558
X3.9679Y-1.9324
X3.9838Y-3.1148
X3.9838Y-3.3721
X3.9964Y-2.1988
X4.0095Y-2.7827
X4.2947Y-1.789
X4.3073Y-3.1234
X4.3146Y-1.5433
X4.3234Y-2.0858
X4.3286Y-2.5557
X4.4411Y-2.1414
X4.4819Y-2.2452
X4.7176Y-3.316
X4.8399Y-1.3805
X5.0Y-2.18
T2
X0.9766Y-3.15
X1.0266Y-2.1
X1.0266Y-2.4
X1.075Y-3.15
X1.2998Y-1.4
X1.2998Y-1.5
X1.2998Y-1.6
X1.2998Y-1.7
X1.2998Y-1.8
X1.2998Y-1.9
X1.2998Y-2.0
X1.2998Y-2.1
X1.2998Y-2.2
X1.2998Y-2.3
X1.2998Y-2.4
X1.2998Y-2.5
X1.2998Y-2.6
X1.2998Y-2.7
X1.5016Y-1.2
X1.6984Y-1.2
X1.8998Y-1.4
X1.8998Y-1.5
X1.8998Y-1.6
X1.8998Y-1.7
X1.8998Y-1.8
X1.8998Y-1.9
X1.8998Y-2.0
X1.8998Y-2.1
X1.8998Y-2.2
X1.8998Y-2.3
X1.8998Y-2.4
X1.8998Y-2.5
X1.8998Y-2.6
X1.8998Y-2.7
X2.075Y-1.2
X2.075Y-1.3
X2.075Y-1.4
X2.075Y-1.5
X2.075Y-1.6
X2.075Y-1.7
X2.075Y-1.8
X2.075Y-1.9
X2.075Y-2.0
X2.075Y-2.1
X2.075Y-2.2
X2.075Y-2.3
X2.075Y-2.4
X2.075Y-2.5
X2.075Y-2.6
X2.075Y-2.7
X2.2766Y-1.0
X2.4734Y-1.0
X2.675Y-1.2
X2.675Y-1.3
X2.675Y-1.4
X2.675Y-1.5
X2.675Y-1.6
X2.675Y-1.7
X2.675Y-1.8
X2.675Y-1.9
X2.675Y-2.0
X2.675Y-2.1
X2.675Y-2.2
X2.675Y-2.3
X2.675Y-2.4
X2.675Y-2.5
X2.675Y-2.6
X2.675Y-2.7
X2.8498Y-1.2
X2.8498Y-1.3
X2.8498Y-1.4
X2.8498Y-1.5
X2.8498Y-1.6
X2.8498Y-1.7
X2.8498Y-1.8
X2.8498Y-1.9
X2.8498Y-2.0
X2.8498Y-2.1
X2.8498Y-2.2
X2.8498Y-2.3
X2.8498Y-2.4
X2.8498Y-2.5
X2.8498Y-2.6
X2.8498Y-2.7
X3.0516Y-1.0
X3.2484Y-1.0
X3.4498Y-1.2
X3.4498Y-1.3
X3.4498Y-1.4
X3.4498Y-1.5
X3.4498Y-1.6
X3.4498Y-1.7
X3.4498Y-1.8
X3.4498Y-1.9
X3.4498Y-2.0
X3.4498Y-2.1
X3.4498Y-2.2
X3.4498Y-2.3
X3.4498Y-2.4
X3.4498Y-2.5
X3.4498Y-2.6
X3.4498Y-2.7
X3.625Y-1.15
X3.625Y-1.25
X3.625Y-1.35
X3.625Y-1.45
X3.625Y-1.55
X3.625Y-1.65
X3.625Y-1.75
X3.6254Y-2.1498
X3.6254Y-2.2498
X3.6254Y-2.3498
X3.6254Y-2.4498
X3.6254Y-2.5498
X3.6254Y-2.6498
X3.6254Y-2.7498
X3.675Y-0.95
X3.6766Y-1.95
X3.8719Y-0.95
X3.8734Y-1.95
X3.925Y-1.15
X3.925Y-1.25
X3.925Y-1.35
X3.925Y-1.45
X3.925Y-1.55
X3.925Y-1.65
X3.925Y-1.75
X3.9254Y-2.1498
X3.9254Y-2.2498
X3.9254Y-2.3498
X3.9254Y-2.4498
X3.9254Y-2.5498
X3.9254Y-2.6498
X3.9254Y-2.7498
X4.1Y-1.425
X4.1Y-1.525
X4.1Y-1.625
X4.1Y-1.725
X4.1Y-1.825
X4.1Y-1.925
X4.1Y-2.025
X4.1Y-2.5
X4.1Y-2.6
X4.1Y-2.7
X4.1Y-2.8
X4.1Y-2.9
X4.1Y-3.0
X4.1Y-3.1
X4.1Y-3.2
X4.1Y-3.3
X4.1Y-3.4
X4.1516Y-1.225
X4.1616Y-2.3
X4.3484Y-1.225
X4.3584Y-2.3
X4.4Y-1.425
X4.4Y-1.525
X4.4Y-1.625
X4.4Y-1.725
X4.4Y-1.825
X4.4Y-1.925
X4.4Y-2.025
X4.4Y-2.5
X4.4Y-2.6
X4.4Y-2.7
X4.4Y-2.8
X4.4Y-2.9
X4.4Y-3.0
X4.4Y-3.1
X4.4Y-3.2
X4.4Y-3.3
X4.4Y-3.4
X4.6Y-1.125
X4.6Y-1.225
X4.6Y-1.325
X4.6Y-1.425
X4.6Y-1.525
X4.6Y-1.625
X4.6Y-1.725
X4.6Y-1.825
X4.6Y-1.925
X4.6Y-2.025
X4.6004Y-2.5
X4.6004Y-2.6
X4.6004Y-2.7
X4.6004Y-2.8
X4.6004Y-2.9
X4.6004Y-3.0
X4.6004Y-3.1
X4.6004Y-3.2
X4.6004Y-3.3
X4.6004Y-3.4
X4.6416Y-0.94
X4.6516Y-2.3
X4.8384Y-0.94
X4.8484Y-2.3
X4.9Y-1.125
X4.9Y-1.225
X4.9Y-1.325
X4.9Y-1.425
X4.9Y-1.525
X4.9Y-1.625
X4.9Y-1.725
X4.9Y-1.825
X4.9Y-1.925
X4.9Y-2.025
X4.9004Y-2.5
X4.9004Y-2.6
X4.9004Y-2.7
X4.9004Y-2.8
X4.9004Y-2.9
X4.9004Y-3.0
X4.9004Y-3.1
X4.9004Y-3.2
X4.9004Y-3.3
X4.9004Y-3.4
T3
X1.0207Y-1.5504
X1.0207Y-1.6504
X1.9998Y-3.07
X1.9998Y-3.17
X2.0998Y-3.07
X2.0998Y-3.17
X2.1998Y-3.07
X2.1998Y-3.17
X2.2998Y-3.07
X2.2998Y-3.17
X2.3998Y-3.07
X2.3998Y-3.17
X2.4998Y-3.07
X2.4998Y-3.17
X2.5998Y-3.07
X2.5998Y-3.17
X2.6998Y-3.07
X2.6998Y-3.17
X2.7998Y-3.07
X2.7998Y-3.17
X2.8998Y-3.07
X2.8998Y-3.17
X2.9998Y-3.07
X2.9998Y-3.17
X3.0998Y-3.07
X3.0998Y-3.17
X3.1998Y-3.07
X3.1998Y-3.17
X3.2998Y-3.07
X3.2998Y-3.17
X3.3998Y-3.07
X3.3998Y-3.17
X3.4998Y-3.07
X3.4998Y-3.17
X3.5998Y-3.07
X3.5998Y-3.17
X3.6998Y-3.07
X3.6998Y-3.17
X3.7998Y-3.07
X3.7998Y-3.17
X3.8998Y-3.07
X3.8998Y-3.17
T4
X1.0207Y-1.0304
X1.0207Y-1.2304
M30
