%TF.GenerationSoftware,KiCad,Pcbnew,8.0.2*%
%TF.CreationDate,2024-05-20T09:04:44+02:00*%
%TF.ProjectId,p2000t-ram-expansion-board-1056kb,70323030-3074-42d7-9261-6d2d65787061,1*%
%TF.SameCoordinates,Original*%
%TF.FileFunction,Copper,L1,Top*%
%TF.FilePolarity,Positive*%
%FSLAX46Y46*%
G04 Gerber Fmt 4.6, Leading zero omitted, Abs format (unit mm)*
G04 Created by KiCad (PCBNEW 8.0.2) date 2024-05-20 09:04:44*
%MOMM*%
%LPD*%
G01*
G04 APERTURE LIST*
%TA.AperFunction,EtchedComponent*%
%ADD10C,0.010000*%
%TD*%
%TA.AperFunction,ComponentPad*%
%ADD11C,1.600000*%
%TD*%
%TA.AperFunction,ComponentPad*%
%ADD12O,1.600000X1.600000*%
%TD*%
%TA.AperFunction,ComponentPad*%
%ADD13R,1.600000X1.600000*%
%TD*%
%TA.AperFunction,ComponentPad*%
%ADD14O,1.700000X1.700000*%
%TD*%
%TA.AperFunction,ComponentPad*%
%ADD15R,1.700000X1.700000*%
%TD*%
%TA.AperFunction,ComponentPad*%
%ADD16C,3.000000*%
%TD*%
%TA.AperFunction,ComponentPad*%
%ADD17R,3.000000X3.000000*%
%TD*%
%TA.AperFunction,ViaPad*%
%ADD18C,0.800000*%
%TD*%
%TA.AperFunction,Conductor*%
%ADD19C,0.250000*%
%TD*%
%TA.AperFunction,Conductor*%
%ADD20C,0.500000*%
%TD*%
G04 APERTURE END LIST*
D10*
%TO.C,LOGO1*%
X44823621Y-83707360D02*
X44858516Y-83722611D01*
X44941808Y-83788577D01*
X45013034Y-83883960D01*
X45057084Y-83985748D01*
X45064253Y-84035929D01*
X45040216Y-84105989D01*
X44987492Y-84143059D01*
X44930962Y-84165506D01*
X44905077Y-84169642D01*
X44892473Y-84139625D01*
X44867585Y-84074303D01*
X44856666Y-84044787D01*
X44795439Y-83942690D01*
X44706792Y-83891765D01*
X44593124Y-83893331D01*
X44584705Y-83895336D01*
X44524019Y-83924109D01*
X44479405Y-83980201D01*
X44448933Y-84070505D01*
X44430675Y-84201913D01*
X44422702Y-84381316D01*
X44421954Y-84476775D01*
X44421583Y-84627255D01*
X44419154Y-84729837D01*
X44412691Y-84795014D01*
X44400219Y-84833280D01*
X44379764Y-84855127D01*
X44349350Y-84871049D01*
X44347592Y-84871851D01*
X44289022Y-84896614D01*
X44260006Y-84905733D01*
X44255547Y-84878164D01*
X44251730Y-84801962D01*
X44248830Y-84686883D01*
X44247122Y-84542683D01*
X44246782Y-84437156D01*
X44248519Y-84232955D01*
X44255313Y-84078039D01*
X44269538Y-83963366D01*
X44293569Y-83879893D01*
X44329779Y-83818578D01*
X44380543Y-83770376D01*
X44430670Y-83736735D01*
X44551206Y-83691961D01*
X44691488Y-83681863D01*
X44823621Y-83707360D01*
%TA.AperFunction,EtchedComponent*%
G36*
X44823621Y-83707360D02*
G01*
X44858516Y-83722611D01*
X44941808Y-83788577D01*
X45013034Y-83883960D01*
X45057084Y-83985748D01*
X45064253Y-84035929D01*
X45040216Y-84105989D01*
X44987492Y-84143059D01*
X44930962Y-84165506D01*
X44905077Y-84169642D01*
X44892473Y-84139625D01*
X44867585Y-84074303D01*
X44856666Y-84044787D01*
X44795439Y-83942690D01*
X44706792Y-83891765D01*
X44593124Y-83893331D01*
X44584705Y-83895336D01*
X44524019Y-83924109D01*
X44479405Y-83980201D01*
X44448933Y-84070505D01*
X44430675Y-84201913D01*
X44422702Y-84381316D01*
X44421954Y-84476775D01*
X44421583Y-84627255D01*
X44419154Y-84729837D01*
X44412691Y-84795014D01*
X44400219Y-84833280D01*
X44379764Y-84855127D01*
X44349350Y-84871049D01*
X44347592Y-84871851D01*
X44289022Y-84896614D01*
X44260006Y-84905733D01*
X44255547Y-84878164D01*
X44251730Y-84801962D01*
X44248830Y-84686883D01*
X44247122Y-84542683D01*
X44246782Y-84437156D01*
X44248519Y-84232955D01*
X44255313Y-84078039D01*
X44269538Y-83963366D01*
X44293569Y-83879893D01*
X44329779Y-83818578D01*
X44380543Y-83770376D01*
X44430670Y-83736735D01*
X44551206Y-83691961D01*
X44691488Y-83681863D01*
X44823621Y-83707360D01*
G37*
%TD.AperFunction*%
X36905360Y-83645061D02*
X36999054Y-83699256D01*
X37064195Y-83753049D01*
X37111838Y-83809408D01*
X37144659Y-83878329D01*
X37165337Y-83969810D01*
X37176551Y-84093848D01*
X37180980Y-84260440D01*
X37181494Y-84380193D01*
X37181494Y-84821001D01*
X37057414Y-84876625D01*
X36933333Y-84932249D01*
X36918736Y-84449437D01*
X36912704Y-84269121D01*
X36906376Y-84138243D01*
X36898537Y-84047853D01*
X36887968Y-83989006D01*
X36873454Y-83952755D01*
X36853779Y-83930152D01*
X36847466Y-83925259D01*
X36751819Y-83887048D01*
X36655138Y-83902169D01*
X36597586Y-83942285D01*
X36574176Y-83970712D01*
X36557970Y-84008014D01*
X36547672Y-84064565D01*
X36541980Y-84150736D01*
X36539595Y-84276900D01*
X36539195Y-84408384D01*
X36539117Y-84573341D01*
X36536292Y-84690103D01*
X36526838Y-84768852D01*
X36506871Y-84819773D01*
X36472507Y-84853048D01*
X36419863Y-84878862D01*
X36349548Y-84905686D01*
X36272751Y-84934884D01*
X36281893Y-84416688D01*
X36285574Y-84229881D01*
X36289881Y-84091832D01*
X36296054Y-83992910D01*
X36305333Y-83923487D01*
X36318958Y-83873932D01*
X36338170Y-83834615D01*
X36361333Y-83799926D01*
X36473083Y-83689112D01*
X36609444Y-83625031D01*
X36757756Y-83609681D01*
X36905360Y-83645061D01*
%TA.AperFunction,EtchedComponent*%
G36*
X36905360Y-83645061D02*
G01*
X36999054Y-83699256D01*
X37064195Y-83753049D01*
X37111838Y-83809408D01*
X37144659Y-83878329D01*
X37165337Y-83969810D01*
X37176551Y-84093848D01*
X37180980Y-84260440D01*
X37181494Y-84380193D01*
X37181494Y-84821001D01*
X37057414Y-84876625D01*
X36933333Y-84932249D01*
X36918736Y-84449437D01*
X36912704Y-84269121D01*
X36906376Y-84138243D01*
X36898537Y-84047853D01*
X36887968Y-83989006D01*
X36873454Y-83952755D01*
X36853779Y-83930152D01*
X36847466Y-83925259D01*
X36751819Y-83887048D01*
X36655138Y-83902169D01*
X36597586Y-83942285D01*
X36574176Y-83970712D01*
X36557970Y-84008014D01*
X36547672Y-84064565D01*
X36541980Y-84150736D01*
X36539595Y-84276900D01*
X36539195Y-84408384D01*
X36539117Y-84573341D01*
X36536292Y-84690103D01*
X36526838Y-84768852D01*
X36506871Y-84819773D01*
X36472507Y-84853048D01*
X36419863Y-84878862D01*
X36349548Y-84905686D01*
X36272751Y-84934884D01*
X36281893Y-84416688D01*
X36285574Y-84229881D01*
X36289881Y-84091832D01*
X36296054Y-83992910D01*
X36305333Y-83923487D01*
X36318958Y-83873932D01*
X36338170Y-83834615D01*
X36361333Y-83799926D01*
X36473083Y-83689112D01*
X36609444Y-83625031D01*
X36757756Y-83609681D01*
X36905360Y-83645061D01*
G37*
%TD.AperFunction*%
X40553874Y-83689262D02*
X40686496Y-83738201D01*
X40793941Y-83824761D01*
X40835963Y-83885694D01*
X40881774Y-83997503D01*
X40880822Y-84078348D01*
X40832739Y-84132720D01*
X40814948Y-84141966D01*
X40738135Y-84170792D01*
X40698907Y-84163407D01*
X40685620Y-84115000D01*
X40684943Y-84088262D01*
X40660617Y-83989890D01*
X40597212Y-83921076D01*
X40509085Y-83887840D01*
X40410594Y-83896203D01*
X40330533Y-83939638D01*
X40303492Y-83964414D01*
X40284325Y-83994471D01*
X40271377Y-84039907D01*
X40262995Y-84110818D01*
X40257524Y-84217302D01*
X40253309Y-84369454D01*
X40252218Y-84417629D01*
X40248238Y-84582437D01*
X40243712Y-84698430D01*
X40236926Y-84775175D01*
X40226162Y-84822235D01*
X40209704Y-84849177D01*
X40185837Y-84865565D01*
X40170557Y-84872805D01*
X40105664Y-84897562D01*
X40067465Y-84905733D01*
X40054843Y-84878445D01*
X40047139Y-84795945D01*
X40044311Y-84657283D01*
X40046317Y-84461504D01*
X40046942Y-84431307D01*
X40051352Y-84252691D01*
X40056566Y-84122265D01*
X40063986Y-84029834D01*
X40075013Y-83965200D01*
X40091048Y-83918167D01*
X40113492Y-83878538D01*
X40125233Y-83861557D01*
X40192550Y-83786422D01*
X40267841Y-83727980D01*
X40277059Y-83722878D01*
X40412064Y-83682602D01*
X40553874Y-83689262D01*
%TA.AperFunction,EtchedComponent*%
G36*
X40553874Y-83689262D02*
G01*
X40686496Y-83738201D01*
X40793941Y-83824761D01*
X40835963Y-83885694D01*
X40881774Y-83997503D01*
X40880822Y-84078348D01*
X40832739Y-84132720D01*
X40814948Y-84141966D01*
X40738135Y-84170792D01*
X40698907Y-84163407D01*
X40685620Y-84115000D01*
X40684943Y-84088262D01*
X40660617Y-83989890D01*
X40597212Y-83921076D01*
X40509085Y-83887840D01*
X40410594Y-83896203D01*
X40330533Y-83939638D01*
X40303492Y-83964414D01*
X40284325Y-83994471D01*
X40271377Y-84039907D01*
X40262995Y-84110818D01*
X40257524Y-84217302D01*
X40253309Y-84369454D01*
X40252218Y-84417629D01*
X40248238Y-84582437D01*
X40243712Y-84698430D01*
X40236926Y-84775175D01*
X40226162Y-84822235D01*
X40209704Y-84849177D01*
X40185837Y-84865565D01*
X40170557Y-84872805D01*
X40105664Y-84897562D01*
X40067465Y-84905733D01*
X40054843Y-84878445D01*
X40047139Y-84795945D01*
X40044311Y-84657283D01*
X40046317Y-84461504D01*
X40046942Y-84431307D01*
X40051352Y-84252691D01*
X40056566Y-84122265D01*
X40063986Y-84029834D01*
X40075013Y-83965200D01*
X40091048Y-83918167D01*
X40113492Y-83878538D01*
X40125233Y-83861557D01*
X40192550Y-83786422D01*
X40267841Y-83727980D01*
X40277059Y-83722878D01*
X40412064Y-83682602D01*
X40553874Y-83689262D01*
G37*
%TD.AperFunction*%
X43068055Y-83707182D02*
X43072510Y-83783995D01*
X43076002Y-83900733D01*
X43078246Y-84048163D01*
X43078966Y-84202797D01*
X43078966Y-84726069D01*
X42986576Y-84818459D01*
X42922909Y-84875389D01*
X42867020Y-84898449D01*
X42790633Y-84896989D01*
X42760311Y-84893276D01*
X42665541Y-84882468D01*
X42587153Y-84876275D01*
X42568046Y-84875703D01*
X42503630Y-84879444D01*
X42411502Y-84888836D01*
X42375781Y-84893276D01*
X42288045Y-84900143D01*
X42229084Y-84885227D01*
X42170621Y-84839177D01*
X42149516Y-84818459D01*
X42057126Y-84726069D01*
X42057126Y-83747289D01*
X42131489Y-83713408D01*
X42195521Y-83688312D01*
X42232983Y-83679526D01*
X42242588Y-83707292D01*
X42251566Y-83784872D01*
X42259317Y-83903690D01*
X42265245Y-84055170D01*
X42268104Y-84183147D01*
X42276092Y-84686767D01*
X42345779Y-84696620D01*
X42409160Y-84689731D01*
X42440217Y-84667425D01*
X42448898Y-84625721D01*
X42456309Y-84536886D01*
X42461862Y-84412176D01*
X42464967Y-84262849D01*
X42465415Y-84186003D01*
X42465862Y-83743629D01*
X42557805Y-83711577D01*
X42622880Y-83689785D01*
X42658278Y-83679623D01*
X42659299Y-83679526D01*
X42662851Y-83707151D01*
X42666754Y-83783753D01*
X42670682Y-83899921D01*
X42674307Y-84046246D01*
X42676839Y-84183147D01*
X42684828Y-84686767D01*
X42860000Y-84686767D01*
X42868038Y-84227307D01*
X42876077Y-83767847D01*
X42961474Y-83723686D01*
X43024524Y-83693361D01*
X43061841Y-83679600D01*
X43062918Y-83679526D01*
X43068055Y-83707182D01*
%TA.AperFunction,EtchedComponent*%
G36*
X43068055Y-83707182D02*
G01*
X43072510Y-83783995D01*
X43076002Y-83900733D01*
X43078246Y-84048163D01*
X43078966Y-84202797D01*
X43078966Y-84726069D01*
X42986576Y-84818459D01*
X42922909Y-84875389D01*
X42867020Y-84898449D01*
X42790633Y-84896989D01*
X42760311Y-84893276D01*
X42665541Y-84882468D01*
X42587153Y-84876275D01*
X42568046Y-84875703D01*
X42503630Y-84879444D01*
X42411502Y-84888836D01*
X42375781Y-84893276D01*
X42288045Y-84900143D01*
X42229084Y-84885227D01*
X42170621Y-84839177D01*
X42149516Y-84818459D01*
X42057126Y-84726069D01*
X42057126Y-83747289D01*
X42131489Y-83713408D01*
X42195521Y-83688312D01*
X42232983Y-83679526D01*
X42242588Y-83707292D01*
X42251566Y-83784872D01*
X42259317Y-83903690D01*
X42265245Y-84055170D01*
X42268104Y-84183147D01*
X42276092Y-84686767D01*
X42345779Y-84696620D01*
X42409160Y-84689731D01*
X42440217Y-84667425D01*
X42448898Y-84625721D01*
X42456309Y-84536886D01*
X42461862Y-84412176D01*
X42464967Y-84262849D01*
X42465415Y-84186003D01*
X42465862Y-83743629D01*
X42557805Y-83711577D01*
X42622880Y-83689785D01*
X42658278Y-83679623D01*
X42659299Y-83679526D01*
X42662851Y-83707151D01*
X42666754Y-83783753D01*
X42670682Y-83899921D01*
X42674307Y-84046246D01*
X42676839Y-84183147D01*
X42684828Y-84686767D01*
X42860000Y-84686767D01*
X42868038Y-84227307D01*
X42876077Y-83767847D01*
X42961474Y-83723686D01*
X43024524Y-83693361D01*
X43061841Y-83679600D01*
X43062918Y-83679526D01*
X43068055Y-83707182D01*
G37*
%TD.AperFunction*%
X38232529Y-83491199D02*
X38241085Y-83610530D01*
X38250912Y-83680848D01*
X38264530Y-83711521D01*
X38284458Y-83711913D01*
X38290920Y-83708252D01*
X38376871Y-83681740D01*
X38488676Y-83683288D01*
X38602345Y-83710541D01*
X38673441Y-83745797D01*
X38746336Y-83802120D01*
X38799624Y-83865861D01*
X38836206Y-83946852D01*
X38858981Y-84054928D01*
X38870850Y-84199922D01*
X38874713Y-84391668D01*
X38874782Y-84428451D01*
X38874828Y-84841630D01*
X38782885Y-84873681D01*
X38717583Y-84895486D01*
X38681755Y-84905639D01*
X38680701Y-84905733D01*
X38677173Y-84878202D01*
X38674170Y-84802265D01*
X38671921Y-84687907D01*
X38670655Y-84545111D01*
X38670460Y-84458293D01*
X38670054Y-84287115D01*
X38667963Y-84164430D01*
X38662878Y-84080342D01*
X38653491Y-84024956D01*
X38638492Y-83988374D01*
X38616573Y-83960701D01*
X38602888Y-83947374D01*
X38508880Y-83893670D01*
X38406295Y-83889649D01*
X38313221Y-83935067D01*
X38296009Y-83951465D01*
X38270763Y-83982299D01*
X38253251Y-84018873D01*
X38242073Y-84071757D01*
X38235827Y-84151519D01*
X38233113Y-84268727D01*
X38232529Y-84430333D01*
X38232529Y-84841630D01*
X38140586Y-84873681D01*
X38075284Y-84895486D01*
X38039456Y-84905639D01*
X38038402Y-84905733D01*
X38035706Y-84877790D01*
X38033276Y-84798972D01*
X38031209Y-84676795D01*
X38029602Y-84518774D01*
X38028554Y-84332425D01*
X38028162Y-84125262D01*
X38028161Y-84116048D01*
X38028161Y-83326362D01*
X38123046Y-83286339D01*
X38217931Y-83246315D01*
X38232529Y-83491199D01*
%TA.AperFunction,EtchedComponent*%
G36*
X38232529Y-83491199D02*
G01*
X38241085Y-83610530D01*
X38250912Y-83680848D01*
X38264530Y-83711521D01*
X38284458Y-83711913D01*
X38290920Y-83708252D01*
X38376871Y-83681740D01*
X38488676Y-83683288D01*
X38602345Y-83710541D01*
X38673441Y-83745797D01*
X38746336Y-83802120D01*
X38799624Y-83865861D01*
X38836206Y-83946852D01*
X38858981Y-84054928D01*
X38870850Y-84199922D01*
X38874713Y-84391668D01*
X38874782Y-84428451D01*
X38874828Y-84841630D01*
X38782885Y-84873681D01*
X38717583Y-84895486D01*
X38681755Y-84905639D01*
X38680701Y-84905733D01*
X38677173Y-84878202D01*
X38674170Y-84802265D01*
X38671921Y-84687907D01*
X38670655Y-84545111D01*
X38670460Y-84458293D01*
X38670054Y-84287115D01*
X38667963Y-84164430D01*
X38662878Y-84080342D01*
X38653491Y-84024956D01*
X38638492Y-83988374D01*
X38616573Y-83960701D01*
X38602888Y-83947374D01*
X38508880Y-83893670D01*
X38406295Y-83889649D01*
X38313221Y-83935067D01*
X38296009Y-83951465D01*
X38270763Y-83982299D01*
X38253251Y-84018873D01*
X38242073Y-84071757D01*
X38235827Y-84151519D01*
X38233113Y-84268727D01*
X38232529Y-84430333D01*
X38232529Y-84841630D01*
X38140586Y-84873681D01*
X38075284Y-84895486D01*
X38039456Y-84905639D01*
X38038402Y-84905733D01*
X38035706Y-84877790D01*
X38033276Y-84798972D01*
X38031209Y-84676795D01*
X38029602Y-84518774D01*
X38028554Y-84332425D01*
X38028162Y-84125262D01*
X38028161Y-84116048D01*
X38028161Y-83326362D01*
X38123046Y-83286339D01*
X38217931Y-83246315D01*
X38232529Y-83491199D01*
G37*
%TD.AperFunction*%
X33536152Y-83633357D02*
X33672992Y-83705310D01*
X33773982Y-83821108D01*
X33809856Y-83895555D01*
X33837770Y-84007334D01*
X33852060Y-84148569D01*
X33853415Y-84302713D01*
X33842526Y-84453221D01*
X33820084Y-84583547D01*
X33786781Y-84677145D01*
X33776546Y-84693264D01*
X33655313Y-84813591D01*
X33511318Y-84885659D01*
X33355070Y-84906750D01*
X33197079Y-84874144D01*
X33153111Y-84854595D01*
X33067487Y-84794354D01*
X32992339Y-84714477D01*
X32985237Y-84704346D01*
X32956370Y-84655523D01*
X32937288Y-84603332D01*
X32926015Y-84534627D01*
X32920576Y-84436260D01*
X32918993Y-84295086D01*
X32918966Y-84263434D01*
X32919038Y-84253361D01*
X33210920Y-84253361D01*
X33212618Y-84386598D01*
X33219303Y-84475016D01*
X33233356Y-84532127D01*
X33257160Y-84571444D01*
X33269310Y-84584583D01*
X33339167Y-84634514D01*
X33406990Y-84632237D01*
X33475566Y-84588926D01*
X33516466Y-84542688D01*
X33540689Y-84475199D01*
X33554292Y-84368775D01*
X33555225Y-84356362D01*
X33557547Y-84163489D01*
X33533281Y-84020242D01*
X33482755Y-83927502D01*
X33406299Y-83886149D01*
X33379007Y-83883894D01*
X33307342Y-83895235D01*
X33258321Y-83934526D01*
X33228349Y-84009668D01*
X33213830Y-84128564D01*
X33210920Y-84253361D01*
X32919038Y-84253361D01*
X32920053Y-84113001D01*
X32924619Y-84007891D01*
X32934619Y-83935056D01*
X32952010Y-83881450D01*
X32978747Y-83834023D01*
X32984655Y-83825206D01*
X33083963Y-83706349D01*
X33192173Y-83637350D01*
X33323912Y-83609961D01*
X33368648Y-83608623D01*
X33536152Y-83633357D01*
%TA.AperFunction,EtchedComponent*%
G36*
X33536152Y-83633357D02*
G01*
X33672992Y-83705310D01*
X33773982Y-83821108D01*
X33809856Y-83895555D01*
X33837770Y-84007334D01*
X33852060Y-84148569D01*
X33853415Y-84302713D01*
X33842526Y-84453221D01*
X33820084Y-84583547D01*
X33786781Y-84677145D01*
X33776546Y-84693264D01*
X33655313Y-84813591D01*
X33511318Y-84885659D01*
X33355070Y-84906750D01*
X33197079Y-84874144D01*
X33153111Y-84854595D01*
X33067487Y-84794354D01*
X32992339Y-84714477D01*
X32985237Y-84704346D01*
X32956370Y-84655523D01*
X32937288Y-84603332D01*
X32926015Y-84534627D01*
X32920576Y-84436260D01*
X32918993Y-84295086D01*
X32918966Y-84263434D01*
X32919038Y-84253361D01*
X33210920Y-84253361D01*
X33212618Y-84386598D01*
X33219303Y-84475016D01*
X33233356Y-84532127D01*
X33257160Y-84571444D01*
X33269310Y-84584583D01*
X33339167Y-84634514D01*
X33406990Y-84632237D01*
X33475566Y-84588926D01*
X33516466Y-84542688D01*
X33540689Y-84475199D01*
X33554292Y-84368775D01*
X33555225Y-84356362D01*
X33557547Y-84163489D01*
X33533281Y-84020242D01*
X33482755Y-83927502D01*
X33406299Y-83886149D01*
X33379007Y-83883894D01*
X33307342Y-83895235D01*
X33258321Y-83934526D01*
X33228349Y-84009668D01*
X33213830Y-84128564D01*
X33210920Y-84253361D01*
X32919038Y-84253361D01*
X32920053Y-84113001D01*
X32924619Y-84007891D01*
X32934619Y-83935056D01*
X32952010Y-83881450D01*
X32978747Y-83834023D01*
X32984655Y-83825206D01*
X33083963Y-83706349D01*
X33192173Y-83637350D01*
X33323912Y-83609961D01*
X33368648Y-83608623D01*
X33536152Y-83633357D01*
G37*
%TD.AperFunction*%
X45831370Y-83723882D02*
X45946881Y-83799376D01*
X46002595Y-83866959D01*
X46046735Y-83989597D01*
X46050240Y-84086640D01*
X46042299Y-84216398D01*
X45743046Y-84347381D01*
X45597542Y-84414300D01*
X45502468Y-84468132D01*
X45453032Y-84514758D01*
X45444442Y-84560062D01*
X45471903Y-84609924D01*
X45502184Y-84642974D01*
X45590294Y-84695975D01*
X45686127Y-84699689D01*
X45774143Y-84658383D01*
X45838800Y-84576325D01*
X45850364Y-84547350D01*
X45905756Y-84456851D01*
X45969484Y-84418282D01*
X46056897Y-84385288D01*
X46056897Y-84510376D01*
X46049169Y-84595498D01*
X46018897Y-84667280D01*
X45955449Y-84749698D01*
X45946019Y-84760408D01*
X45875444Y-84833733D01*
X45814778Y-84873084D01*
X45738881Y-84891187D01*
X45675961Y-84897116D01*
X45563418Y-84898593D01*
X45483301Y-84879877D01*
X45433321Y-84852089D01*
X45354769Y-84790983D01*
X45300394Y-84724896D01*
X45265983Y-84641783D01*
X45247319Y-84529596D01*
X45240187Y-84376288D01*
X45239618Y-84298478D01*
X45241553Y-84205195D01*
X45417830Y-84205195D01*
X45419875Y-84255238D01*
X45424970Y-84263434D01*
X45458597Y-84252300D01*
X45530961Y-84222835D01*
X45627678Y-84180943D01*
X45647904Y-84171939D01*
X45770134Y-84109784D01*
X45837478Y-84055157D01*
X45852279Y-84003991D01*
X45816878Y-83952218D01*
X45787642Y-83929342D01*
X45682147Y-83883592D01*
X45583407Y-83891150D01*
X45500743Y-83946993D01*
X45443479Y-84046095D01*
X45425119Y-84124756D01*
X45417830Y-84205195D01*
X45241553Y-84205195D01*
X45243390Y-84116693D01*
X45257290Y-83982195D01*
X45284825Y-83884258D01*
X45329503Y-83812153D01*
X45394832Y-83755155D01*
X45423314Y-83736735D01*
X45552694Y-83688764D01*
X45694343Y-83685745D01*
X45831370Y-83723882D01*
%TA.AperFunction,EtchedComponent*%
G36*
X45831370Y-83723882D02*
G01*
X45946881Y-83799376D01*
X46002595Y-83866959D01*
X46046735Y-83989597D01*
X46050240Y-84086640D01*
X46042299Y-84216398D01*
X45743046Y-84347381D01*
X45597542Y-84414300D01*
X45502468Y-84468132D01*
X45453032Y-84514758D01*
X45444442Y-84560062D01*
X45471903Y-84609924D01*
X45502184Y-84642974D01*
X45590294Y-84695975D01*
X45686127Y-84699689D01*
X45774143Y-84658383D01*
X45838800Y-84576325D01*
X45850364Y-84547350D01*
X45905756Y-84456851D01*
X45969484Y-84418282D01*
X46056897Y-84385288D01*
X46056897Y-84510376D01*
X46049169Y-84595498D01*
X46018897Y-84667280D01*
X45955449Y-84749698D01*
X45946019Y-84760408D01*
X45875444Y-84833733D01*
X45814778Y-84873084D01*
X45738881Y-84891187D01*
X45675961Y-84897116D01*
X45563418Y-84898593D01*
X45483301Y-84879877D01*
X45433321Y-84852089D01*
X45354769Y-84790983D01*
X45300394Y-84724896D01*
X45265983Y-84641783D01*
X45247319Y-84529596D01*
X45240187Y-84376288D01*
X45239618Y-84298478D01*
X45241553Y-84205195D01*
X45417830Y-84205195D01*
X45419875Y-84255238D01*
X45424970Y-84263434D01*
X45458597Y-84252300D01*
X45530961Y-84222835D01*
X45627678Y-84180943D01*
X45647904Y-84171939D01*
X45770134Y-84109784D01*
X45837478Y-84055157D01*
X45852279Y-84003991D01*
X45816878Y-83952218D01*
X45787642Y-83929342D01*
X45682147Y-83883592D01*
X45583407Y-83891150D01*
X45500743Y-83946993D01*
X45443479Y-84046095D01*
X45425119Y-84124756D01*
X45417830Y-84205195D01*
X45241553Y-84205195D01*
X45243390Y-84116693D01*
X45257290Y-83982195D01*
X45284825Y-83884258D01*
X45329503Y-83812153D01*
X45394832Y-83755155D01*
X45423314Y-83736735D01*
X45552694Y-83688764D01*
X45694343Y-83685745D01*
X45831370Y-83723882D01*
G37*
%TD.AperFunction*%
X41881845Y-83921797D02*
X41881474Y-84140003D01*
X41880039Y-84307861D01*
X41876933Y-84433412D01*
X41871553Y-84524697D01*
X41863293Y-84589757D01*
X41851547Y-84636633D01*
X41835712Y-84673366D01*
X41823721Y-84694333D01*
X41724421Y-84808036D01*
X41598519Y-84879307D01*
X41459222Y-84904880D01*
X41319736Y-84881492D01*
X41236674Y-84839461D01*
X41149476Y-84766753D01*
X41090048Y-84677954D01*
X41054192Y-84561662D01*
X41037712Y-84406477D01*
X41035378Y-84292629D01*
X41035692Y-84284448D01*
X41239655Y-84284448D01*
X41240901Y-84414999D01*
X41246609Y-84501422D01*
X41259735Y-84557960D01*
X41283237Y-84598856D01*
X41311317Y-84629704D01*
X41405619Y-84689247D01*
X41506871Y-84694334D01*
X41602567Y-84644621D01*
X41610015Y-84637885D01*
X41641805Y-84602844D01*
X41661739Y-84561153D01*
X41672531Y-84499104D01*
X41676896Y-84402986D01*
X41677586Y-84296721D01*
X41676090Y-84163222D01*
X41669895Y-84074164D01*
X41656445Y-84015635D01*
X41633182Y-83973724D01*
X41614106Y-83951465D01*
X41525494Y-83895327D01*
X41423439Y-83888577D01*
X41326026Y-83931456D01*
X41307227Y-83947374D01*
X41275224Y-83982724D01*
X41255249Y-84024844D01*
X41244524Y-84087593D01*
X41240270Y-84184829D01*
X41239655Y-84284448D01*
X41035692Y-84284448D01*
X41042435Y-84109289D01*
X41066403Y-83971537D01*
X41111479Y-83867974D01*
X41181859Y-83787198D01*
X41236674Y-83745797D01*
X41336307Y-83701070D01*
X41451786Y-83680309D01*
X41559130Y-83685867D01*
X41619195Y-83708285D01*
X41642766Y-83714665D01*
X41658408Y-83690877D01*
X41669326Y-83627130D01*
X41677586Y-83530029D01*
X41686630Y-83421883D01*
X41699192Y-83356817D01*
X41722050Y-83319610D01*
X41761982Y-83295041D01*
X41787069Y-83284161D01*
X41881954Y-83244414D01*
X41881845Y-83921797D01*
%TA.AperFunction,EtchedComponent*%
G36*
X41881845Y-83921797D02*
G01*
X41881474Y-84140003D01*
X41880039Y-84307861D01*
X41876933Y-84433412D01*
X41871553Y-84524697D01*
X41863293Y-84589757D01*
X41851547Y-84636633D01*
X41835712Y-84673366D01*
X41823721Y-84694333D01*
X41724421Y-84808036D01*
X41598519Y-84879307D01*
X41459222Y-84904880D01*
X41319736Y-84881492D01*
X41236674Y-84839461D01*
X41149476Y-84766753D01*
X41090048Y-84677954D01*
X41054192Y-84561662D01*
X41037712Y-84406477D01*
X41035378Y-84292629D01*
X41035692Y-84284448D01*
X41239655Y-84284448D01*
X41240901Y-84414999D01*
X41246609Y-84501422D01*
X41259735Y-84557960D01*
X41283237Y-84598856D01*
X41311317Y-84629704D01*
X41405619Y-84689247D01*
X41506871Y-84694334D01*
X41602567Y-84644621D01*
X41610015Y-84637885D01*
X41641805Y-84602844D01*
X41661739Y-84561153D01*
X41672531Y-84499104D01*
X41676896Y-84402986D01*
X41677586Y-84296721D01*
X41676090Y-84163222D01*
X41669895Y-84074164D01*
X41656445Y-84015635D01*
X41633182Y-83973724D01*
X41614106Y-83951465D01*
X41525494Y-83895327D01*
X41423439Y-83888577D01*
X41326026Y-83931456D01*
X41307227Y-83947374D01*
X41275224Y-83982724D01*
X41255249Y-84024844D01*
X41244524Y-84087593D01*
X41240270Y-84184829D01*
X41239655Y-84284448D01*
X41035692Y-84284448D01*
X41042435Y-84109289D01*
X41066403Y-83971537D01*
X41111479Y-83867974D01*
X41181859Y-83787198D01*
X41236674Y-83745797D01*
X41336307Y-83701070D01*
X41451786Y-83680309D01*
X41559130Y-83685867D01*
X41619195Y-83708285D01*
X41642766Y-83714665D01*
X41658408Y-83690877D01*
X41669326Y-83627130D01*
X41677586Y-83530029D01*
X41686630Y-83421883D01*
X41699192Y-83356817D01*
X41722050Y-83319610D01*
X41761982Y-83295041D01*
X41787069Y-83284161D01*
X41881954Y-83244414D01*
X41881845Y-83921797D01*
G37*
%TD.AperFunction*%
X35803483Y-83652018D02*
X35918589Y-83729453D01*
X36007542Y-83841291D01*
X36060680Y-83983607D01*
X36071428Y-84088357D01*
X36070207Y-84132068D01*
X36059987Y-84165536D01*
X36031892Y-84195521D01*
X35977047Y-84228782D01*
X35886576Y-84272080D01*
X35751603Y-84332175D01*
X35750920Y-84332476D01*
X35626682Y-84389379D01*
X35524804Y-84439907D01*
X35455698Y-84478622D01*
X35429777Y-84500082D01*
X35429770Y-84500255D01*
X35452616Y-84546986D01*
X35506040Y-84598496D01*
X35567373Y-84635603D01*
X35598446Y-84642974D01*
X35683220Y-84617480D01*
X35756224Y-84553633D01*
X35791844Y-84483436D01*
X35826111Y-84431685D01*
X35893234Y-84372751D01*
X35972139Y-84321838D01*
X36041752Y-84294151D01*
X36056308Y-84292629D01*
X36072694Y-84317663D01*
X36073681Y-84381653D01*
X36061639Y-84467935D01*
X36038938Y-84559843D01*
X36007945Y-84640711D01*
X36006379Y-84643851D01*
X35913112Y-84774076D01*
X35792235Y-84862653D01*
X35654958Y-84906128D01*
X35512491Y-84901048D01*
X35376043Y-84843958D01*
X35369976Y-84839944D01*
X35262641Y-84742668D01*
X35192063Y-84615751D01*
X35153005Y-84448868D01*
X35147763Y-84401981D01*
X35138479Y-84180671D01*
X35149609Y-84077466D01*
X35429770Y-84077466D01*
X35433410Y-84141845D01*
X35453320Y-84160633D01*
X35502957Y-84146577D01*
X35581198Y-84113351D01*
X35668657Y-84071701D01*
X35670830Y-84070598D01*
X35744961Y-84031607D01*
X35774712Y-84005586D01*
X35767376Y-83978307D01*
X35736484Y-83942463D01*
X35657891Y-83890593D01*
X35573254Y-83886781D01*
X35497334Y-83924531D01*
X35444896Y-83997343D01*
X35429770Y-84077466D01*
X35149609Y-84077466D01*
X35157575Y-84003603D01*
X35206565Y-83863171D01*
X35274767Y-83764789D01*
X35397866Y-83665372D01*
X35533459Y-83616053D01*
X35671886Y-83612910D01*
X35803483Y-83652018D01*
%TA.AperFunction,EtchedComponent*%
G36*
X35803483Y-83652018D02*
G01*
X35918589Y-83729453D01*
X36007542Y-83841291D01*
X36060680Y-83983607D01*
X36071428Y-84088357D01*
X36070207Y-84132068D01*
X36059987Y-84165536D01*
X36031892Y-84195521D01*
X35977047Y-84228782D01*
X35886576Y-84272080D01*
X35751603Y-84332175D01*
X35750920Y-84332476D01*
X35626682Y-84389379D01*
X35524804Y-84439907D01*
X35455698Y-84478622D01*
X35429777Y-84500082D01*
X35429770Y-84500255D01*
X35452616Y-84546986D01*
X35506040Y-84598496D01*
X35567373Y-84635603D01*
X35598446Y-84642974D01*
X35683220Y-84617480D01*
X35756224Y-84553633D01*
X35791844Y-84483436D01*
X35826111Y-84431685D01*
X35893234Y-84372751D01*
X35972139Y-84321838D01*
X36041752Y-84294151D01*
X36056308Y-84292629D01*
X36072694Y-84317663D01*
X36073681Y-84381653D01*
X36061639Y-84467935D01*
X36038938Y-84559843D01*
X36007945Y-84640711D01*
X36006379Y-84643851D01*
X35913112Y-84774076D01*
X35792235Y-84862653D01*
X35654958Y-84906128D01*
X35512491Y-84901048D01*
X35376043Y-84843958D01*
X35369976Y-84839944D01*
X35262641Y-84742668D01*
X35192063Y-84615751D01*
X35153005Y-84448868D01*
X35147763Y-84401981D01*
X35138479Y-84180671D01*
X35149609Y-84077466D01*
X35429770Y-84077466D01*
X35433410Y-84141845D01*
X35453320Y-84160633D01*
X35502957Y-84146577D01*
X35581198Y-84113351D01*
X35668657Y-84071701D01*
X35670830Y-84070598D01*
X35744961Y-84031607D01*
X35774712Y-84005586D01*
X35767376Y-83978307D01*
X35736484Y-83942463D01*
X35657891Y-83890593D01*
X35573254Y-83886781D01*
X35497334Y-83924531D01*
X35444896Y-83997343D01*
X35429770Y-84077466D01*
X35149609Y-84077466D01*
X35157575Y-84003603D01*
X35206565Y-83863171D01*
X35274767Y-83764789D01*
X35397866Y-83665372D01*
X35533459Y-83616053D01*
X35671886Y-83612910D01*
X35803483Y-83652018D01*
G37*
%TD.AperFunction*%
X39567875Y-83691702D02*
X39682274Y-83734184D01*
X39683583Y-83735000D01*
X39754334Y-83787072D01*
X39806567Y-83847926D01*
X39843302Y-83927229D01*
X39867565Y-84034651D01*
X39882376Y-84179859D01*
X39890760Y-84372521D01*
X39891495Y-84399970D01*
X39902051Y-84813863D01*
X39813222Y-84859798D01*
X39748949Y-84890840D01*
X39710141Y-84905548D01*
X39708346Y-84905733D01*
X39701631Y-84878592D01*
X39696296Y-84805383D01*
X39693014Y-84698423D01*
X39692299Y-84611811D01*
X39692282Y-84471504D01*
X39685868Y-84383393D01*
X39663511Y-84341367D01*
X39615663Y-84339317D01*
X39532780Y-84371132D01*
X39407644Y-84429614D01*
X39315628Y-84478187D01*
X39268302Y-84520328D01*
X39254389Y-84566258D01*
X39254368Y-84568531D01*
X39277326Y-84647653D01*
X39345301Y-84690397D01*
X39449329Y-84696588D01*
X39524261Y-84695514D01*
X39563770Y-84717095D01*
X39588409Y-84768933D01*
X39602590Y-84834974D01*
X39582154Y-84872446D01*
X39574459Y-84877809D01*
X39502014Y-84899348D01*
X39400564Y-84902397D01*
X39296088Y-84888120D01*
X39222056Y-84862030D01*
X39119703Y-84775127D01*
X39061522Y-84654158D01*
X39050000Y-84559650D01*
X39058793Y-84474404D01*
X39090611Y-84404818D01*
X39153615Y-84343014D01*
X39255962Y-84281114D01*
X39405813Y-84211239D01*
X39414943Y-84207290D01*
X39549928Y-84144930D01*
X39633225Y-84093788D01*
X39668928Y-84047830D01*
X39661134Y-84001025D01*
X39613938Y-83947340D01*
X39599825Y-83934986D01*
X39505290Y-83887083D01*
X39407337Y-83889100D01*
X39322028Y-83936066D01*
X39265427Y-84023011D01*
X39260168Y-84040076D01*
X39208954Y-84122846D01*
X39143968Y-84162714D01*
X39050000Y-84202224D01*
X39050000Y-84100000D01*
X39078584Y-83951414D01*
X39163426Y-83815126D01*
X39207576Y-83769533D01*
X39307936Y-83711016D01*
X39435566Y-83684526D01*
X39567875Y-83691702D01*
%TA.AperFunction,EtchedComponent*%
G36*
X39567875Y-83691702D02*
G01*
X39682274Y-83734184D01*
X39683583Y-83735000D01*
X39754334Y-83787072D01*
X39806567Y-83847926D01*
X39843302Y-83927229D01*
X39867565Y-84034651D01*
X39882376Y-84179859D01*
X39890760Y-84372521D01*
X39891495Y-84399970D01*
X39902051Y-84813863D01*
X39813222Y-84859798D01*
X39748949Y-84890840D01*
X39710141Y-84905548D01*
X39708346Y-84905733D01*
X39701631Y-84878592D01*
X39696296Y-84805383D01*
X39693014Y-84698423D01*
X39692299Y-84611811D01*
X39692282Y-84471504D01*
X39685868Y-84383393D01*
X39663511Y-84341367D01*
X39615663Y-84339317D01*
X39532780Y-84371132D01*
X39407644Y-84429614D01*
X39315628Y-84478187D01*
X39268302Y-84520328D01*
X39254389Y-84566258D01*
X39254368Y-84568531D01*
X39277326Y-84647653D01*
X39345301Y-84690397D01*
X39449329Y-84696588D01*
X39524261Y-84695514D01*
X39563770Y-84717095D01*
X39588409Y-84768933D01*
X39602590Y-84834974D01*
X39582154Y-84872446D01*
X39574459Y-84877809D01*
X39502014Y-84899348D01*
X39400564Y-84902397D01*
X39296088Y-84888120D01*
X39222056Y-84862030D01*
X39119703Y-84775127D01*
X39061522Y-84654158D01*
X39050000Y-84559650D01*
X39058793Y-84474404D01*
X39090611Y-84404818D01*
X39153615Y-84343014D01*
X39255962Y-84281114D01*
X39405813Y-84211239D01*
X39414943Y-84207290D01*
X39549928Y-84144930D01*
X39633225Y-84093788D01*
X39668928Y-84047830D01*
X39661134Y-84001025D01*
X39613938Y-83947340D01*
X39599825Y-83934986D01*
X39505290Y-83887083D01*
X39407337Y-83889100D01*
X39322028Y-83936066D01*
X39265427Y-84023011D01*
X39260168Y-84040076D01*
X39208954Y-84122846D01*
X39143968Y-84162714D01*
X39050000Y-84202224D01*
X39050000Y-84100000D01*
X39078584Y-83951414D01*
X39163426Y-83815126D01*
X39207576Y-83769533D01*
X39307936Y-83711016D01*
X39435566Y-83684526D01*
X39567875Y-83691702D01*
G37*
%TD.AperFunction*%
X34659831Y-83629245D02*
X34771381Y-83684864D01*
X34869839Y-83787273D01*
X34896954Y-83825206D01*
X34926493Y-83874842D01*
X34945659Y-83928754D01*
X34956624Y-84000706D01*
X34961560Y-84104464D01*
X34962644Y-84241443D01*
X34957749Y-84429157D01*
X34940735Y-84570100D01*
X34908108Y-84675250D01*
X34856373Y-84755585D01*
X34782035Y-84822083D01*
X34776573Y-84826020D01*
X34703311Y-84866295D01*
X34615091Y-84886222D01*
X34502893Y-84891135D01*
X34320498Y-84891135D01*
X34320422Y-85068199D01*
X34318724Y-85166812D01*
X34308381Y-85224656D01*
X34281353Y-85259348D01*
X34229599Y-85288506D01*
X34217170Y-85294463D01*
X34159008Y-85322381D01*
X34113975Y-85340014D01*
X34080490Y-85341536D01*
X34056969Y-85321123D01*
X34041831Y-85272949D01*
X34033494Y-85191188D01*
X34030375Y-85070014D01*
X34030891Y-84903602D01*
X34033460Y-84686127D01*
X34034263Y-84621078D01*
X34037153Y-84396844D01*
X34039743Y-84250163D01*
X34320345Y-84250163D01*
X34321922Y-84374668D01*
X34328931Y-84456129D01*
X34344789Y-84509857D01*
X34372912Y-84551165D01*
X34392006Y-84571313D01*
X34470066Y-84630263D01*
X34539178Y-84635062D01*
X34610491Y-84586380D01*
X34612299Y-84584583D01*
X34641314Y-84546960D01*
X34658964Y-84495826D01*
X34667867Y-84417080D01*
X34670640Y-84296618D01*
X34670690Y-84269930D01*
X34663989Y-84103925D01*
X34642179Y-83988847D01*
X34602696Y-83918596D01*
X34542975Y-83887071D01*
X34508459Y-83883894D01*
X34426542Y-83898802D01*
X34370352Y-83947890D01*
X34336529Y-84037704D01*
X34321711Y-84174787D01*
X34320345Y-84250163D01*
X34039743Y-84250163D01*
X34040218Y-84223294D01*
X34044178Y-84092724D01*
X34049757Y-83997429D01*
X34057677Y-83929706D01*
X34068662Y-83881849D01*
X34083432Y-83846155D01*
X34102713Y-83814920D01*
X34110980Y-83803166D01*
X34220643Y-83692139D01*
X34359296Y-83629189D01*
X34519685Y-83611639D01*
X34659831Y-83629245D01*
%TA.AperFunction,EtchedComponent*%
G36*
X34659831Y-83629245D02*
G01*
X34771381Y-83684864D01*
X34869839Y-83787273D01*
X34896954Y-83825206D01*
X34926493Y-83874842D01*
X34945659Y-83928754D01*
X34956624Y-84000706D01*
X34961560Y-84104464D01*
X34962644Y-84241443D01*
X34957749Y-84429157D01*
X34940735Y-84570100D01*
X34908108Y-84675250D01*
X34856373Y-84755585D01*
X34782035Y-84822083D01*
X34776573Y-84826020D01*
X34703311Y-84866295D01*
X34615091Y-84886222D01*
X34502893Y-84891135D01*
X34320498Y-84891135D01*
X34320422Y-85068199D01*
X34318724Y-85166812D01*
X34308381Y-85224656D01*
X34281353Y-85259348D01*
X34229599Y-85288506D01*
X34217170Y-85294463D01*
X34159008Y-85322381D01*
X34113975Y-85340014D01*
X34080490Y-85341536D01*
X34056969Y-85321123D01*
X34041831Y-85272949D01*
X34033494Y-85191188D01*
X34030375Y-85070014D01*
X34030891Y-84903602D01*
X34033460Y-84686127D01*
X34034263Y-84621078D01*
X34037153Y-84396844D01*
X34039743Y-84250163D01*
X34320345Y-84250163D01*
X34321922Y-84374668D01*
X34328931Y-84456129D01*
X34344789Y-84509857D01*
X34372912Y-84551165D01*
X34392006Y-84571313D01*
X34470066Y-84630263D01*
X34539178Y-84635062D01*
X34610491Y-84586380D01*
X34612299Y-84584583D01*
X34641314Y-84546960D01*
X34658964Y-84495826D01*
X34667867Y-84417080D01*
X34670640Y-84296618D01*
X34670690Y-84269930D01*
X34663989Y-84103925D01*
X34642179Y-83988847D01*
X34602696Y-83918596D01*
X34542975Y-83887071D01*
X34508459Y-83883894D01*
X34426542Y-83898802D01*
X34370352Y-83947890D01*
X34336529Y-84037704D01*
X34321711Y-84174787D01*
X34320345Y-84250163D01*
X34039743Y-84250163D01*
X34040218Y-84223294D01*
X34044178Y-84092724D01*
X34049757Y-83997429D01*
X34057677Y-83929706D01*
X34068662Y-83881849D01*
X34083432Y-83846155D01*
X34102713Y-83814920D01*
X34110980Y-83803166D01*
X34220643Y-83692139D01*
X34359296Y-83629189D01*
X34519685Y-83611639D01*
X34659831Y-83629245D01*
G37*
%TD.AperFunction*%
X43802337Y-83702498D02*
X43886400Y-83740735D01*
X43952381Y-83787068D01*
X44000725Y-83838874D01*
X44034103Y-83905705D01*
X44055184Y-83997111D01*
X44066638Y-84122643D01*
X44071134Y-84291850D01*
X44071609Y-84403275D01*
X44071609Y-84837969D01*
X43997247Y-84871851D01*
X43938677Y-84896614D01*
X43909661Y-84905733D01*
X43904110Y-84878599D01*
X43899706Y-84805436D01*
X43897009Y-84698605D01*
X43896437Y-84613779D01*
X43893977Y-84491229D01*
X43887343Y-84394010D01*
X43877657Y-84334476D01*
X43869963Y-84321825D01*
X43818242Y-84334744D01*
X43737048Y-84367881D01*
X43643033Y-84412803D01*
X43552848Y-84461077D01*
X43483146Y-84504270D01*
X43450579Y-84533950D01*
X43450450Y-84534271D01*
X43453251Y-84589199D01*
X43478370Y-84641634D01*
X43522472Y-84684223D01*
X43586840Y-84698468D01*
X43641852Y-84696808D01*
X43719766Y-84695587D01*
X43760663Y-84713840D01*
X43785226Y-84762068D01*
X43788323Y-84771162D01*
X43798971Y-84839940D01*
X43770496Y-84881702D01*
X43696275Y-84901605D01*
X43616099Y-84905286D01*
X43471821Y-84878000D01*
X43397134Y-84839032D01*
X43304894Y-84747490D01*
X43255974Y-84635124D01*
X43251585Y-84516393D01*
X43292932Y-84405753D01*
X43355128Y-84336422D01*
X43417225Y-84297607D01*
X43514826Y-84248467D01*
X43628563Y-84198634D01*
X43647521Y-84191019D01*
X43772452Y-84135887D01*
X43844470Y-84087296D01*
X43867631Y-84038989D01*
X43845995Y-83984712D01*
X43808851Y-83942285D01*
X43721058Y-83890044D01*
X43624461Y-83886126D01*
X43535875Y-83926383D01*
X43472117Y-84006668D01*
X43463748Y-84027382D01*
X43415027Y-84103567D01*
X43343896Y-84160127D01*
X43254138Y-84206543D01*
X43254138Y-84074926D01*
X43259421Y-83994510D01*
X43282073Y-83931128D01*
X43332298Y-83863505D01*
X43380513Y-83811418D01*
X43455485Y-83737664D01*
X43513737Y-83698044D01*
X43576303Y-83682152D01*
X43647124Y-83679526D01*
X43802337Y-83702498D01*
%TA.AperFunction,EtchedComponent*%
G36*
X43802337Y-83702498D02*
G01*
X43886400Y-83740735D01*
X43952381Y-83787068D01*
X44000725Y-83838874D01*
X44034103Y-83905705D01*
X44055184Y-83997111D01*
X44066638Y-84122643D01*
X44071134Y-84291850D01*
X44071609Y-84403275D01*
X44071609Y-84837969D01*
X43997247Y-84871851D01*
X43938677Y-84896614D01*
X43909661Y-84905733D01*
X43904110Y-84878599D01*
X43899706Y-84805436D01*
X43897009Y-84698605D01*
X43896437Y-84613779D01*
X43893977Y-84491229D01*
X43887343Y-84394010D01*
X43877657Y-84334476D01*
X43869963Y-84321825D01*
X43818242Y-84334744D01*
X43737048Y-84367881D01*
X43643033Y-84412803D01*
X43552848Y-84461077D01*
X43483146Y-84504270D01*
X43450579Y-84533950D01*
X43450450Y-84534271D01*
X43453251Y-84589199D01*
X43478370Y-84641634D01*
X43522472Y-84684223D01*
X43586840Y-84698468D01*
X43641852Y-84696808D01*
X43719766Y-84695587D01*
X43760663Y-84713840D01*
X43785226Y-84762068D01*
X43788323Y-84771162D01*
X43798971Y-84839940D01*
X43770496Y-84881702D01*
X43696275Y-84901605D01*
X43616099Y-84905286D01*
X43471821Y-84878000D01*
X43397134Y-84839032D01*
X43304894Y-84747490D01*
X43255974Y-84635124D01*
X43251585Y-84516393D01*
X43292932Y-84405753D01*
X43355128Y-84336422D01*
X43417225Y-84297607D01*
X43514826Y-84248467D01*
X43628563Y-84198634D01*
X43647521Y-84191019D01*
X43772452Y-84135887D01*
X43844470Y-84087296D01*
X43867631Y-84038989D01*
X43845995Y-83984712D01*
X43808851Y-83942285D01*
X43721058Y-83890044D01*
X43624461Y-83886126D01*
X43535875Y-83926383D01*
X43472117Y-84006668D01*
X43463748Y-84027382D01*
X43415027Y-84103567D01*
X43343896Y-84160127D01*
X43254138Y-84206543D01*
X43254138Y-84074926D01*
X43259421Y-83994510D01*
X43282073Y-83931128D01*
X43332298Y-83863505D01*
X43380513Y-83811418D01*
X43455485Y-83737664D01*
X43513737Y-83698044D01*
X43576303Y-83682152D01*
X43647124Y-83679526D01*
X43802337Y-83702498D01*
G37*
%TD.AperFunction*%
X39733172Y-74221734D02*
X39891164Y-74222599D01*
X40005505Y-74224941D01*
X40083565Y-74229498D01*
X40132712Y-74237006D01*
X40160317Y-74248202D01*
X40173750Y-74263824D01*
X40180379Y-74284609D01*
X40181023Y-74287299D01*
X40191093Y-74335849D01*
X40209733Y-74431641D01*
X40235003Y-74564479D01*
X40264965Y-74724167D01*
X40297680Y-74900510D01*
X40298822Y-74906703D01*
X40331591Y-75079518D01*
X40362251Y-75232205D01*
X40388822Y-75355607D01*
X40409325Y-75440567D01*
X40421784Y-75477926D01*
X40422378Y-75478588D01*
X40459077Y-75496831D01*
X40534744Y-75527233D01*
X40633036Y-75563229D01*
X40633583Y-75563421D01*
X40757391Y-75609958D01*
X40903354Y-75669240D01*
X41040939Y-75728845D01*
X41047451Y-75731792D01*
X41271548Y-75833501D01*
X41767777Y-75494633D01*
X41920004Y-75391328D01*
X42057899Y-75298973D01*
X42173473Y-75222820D01*
X42258737Y-75168121D01*
X42305702Y-75140129D01*
X42310162Y-75138053D01*
X42344292Y-75147296D01*
X42408039Y-75191892D01*
X42503889Y-75273945D01*
X42634327Y-75395557D01*
X42767486Y-75524941D01*
X42895852Y-75652438D01*
X43010739Y-75768782D01*
X43105231Y-75866788D01*
X43172411Y-75939272D01*
X43205364Y-75979049D01*
X43206590Y-75981097D01*
X43210232Y-76008392D01*
X43196508Y-76052970D01*
X43162027Y-76120848D01*
X43103397Y-76218047D01*
X43017228Y-76350587D01*
X42902358Y-76521212D01*
X42800412Y-76671391D01*
X42709281Y-76806086D01*
X42634231Y-76917476D01*
X42580527Y-76997741D01*
X42553438Y-77039061D01*
X42551732Y-77041866D01*
X42555040Y-77081457D01*
X42580111Y-77158405D01*
X42621956Y-77258168D01*
X42636870Y-77290027D01*
X42701944Y-77431962D01*
X42771370Y-77593009D01*
X42827767Y-77732357D01*
X42868405Y-77835780D01*
X42900684Y-77914378D01*
X42919336Y-77955456D01*
X42921655Y-77958621D01*
X42955961Y-77963864D01*
X43036827Y-77978230D01*
X43153501Y-77999673D01*
X43295233Y-78026149D01*
X43451268Y-78055613D01*
X43610856Y-78086019D01*
X43763243Y-78115324D01*
X43897679Y-78141481D01*
X44003410Y-78162446D01*
X44069684Y-78176175D01*
X44085940Y-78180056D01*
X44102731Y-78189636D01*
X44115407Y-78211272D01*
X44124536Y-78252267D01*
X44130689Y-78319925D01*
X44134438Y-78421548D01*
X44136350Y-78564439D01*
X44136998Y-78755901D01*
X44137032Y-78834381D01*
X44137032Y-79472642D01*
X43983756Y-79502896D01*
X43898480Y-79519300D01*
X43771228Y-79543245D01*
X43617473Y-79571843D01*
X43452692Y-79602203D01*
X43407147Y-79610542D01*
X43255090Y-79640106D01*
X43122626Y-79669178D01*
X43020872Y-79695065D01*
X42960946Y-79715073D01*
X42950963Y-79721037D01*
X42926451Y-79763270D01*
X42891306Y-79845106D01*
X42852331Y-79950419D01*
X42844600Y-79973104D01*
X42793518Y-80113754D01*
X42730112Y-80272450D01*
X42668062Y-80414961D01*
X42667756Y-80415622D01*
X42564425Y-80639176D01*
X43244119Y-81638968D01*
X42807779Y-82076036D01*
X42675807Y-82206117D01*
X42555437Y-82320784D01*
X42453431Y-82413917D01*
X42376549Y-82479394D01*
X42331551Y-82511093D01*
X42325096Y-82513104D01*
X42287198Y-82497265D01*
X42209866Y-82453232D01*
X42101547Y-82386226D01*
X41970690Y-82301470D01*
X41829210Y-82206552D01*
X41685619Y-82109734D01*
X41557593Y-82025487D01*
X41453263Y-81958994D01*
X41380758Y-81915438D01*
X41348316Y-81900000D01*
X41308734Y-81913064D01*
X41233677Y-81947486D01*
X41138626Y-81996116D01*
X41128550Y-82001521D01*
X41000549Y-82065716D01*
X40912776Y-82097199D01*
X40858186Y-82097534D01*
X40829733Y-82068284D01*
X40829568Y-82067874D01*
X40815346Y-82033234D01*
X40781427Y-81951005D01*
X40730442Y-81827550D01*
X40665020Y-81669234D01*
X40587792Y-81482422D01*
X40501387Y-81273478D01*
X40417709Y-81071182D01*
X40325746Y-80847936D01*
X40241308Y-80641128D01*
X40166927Y-80457098D01*
X40105132Y-80302187D01*
X40058455Y-80182732D01*
X40029426Y-80105075D01*
X40020480Y-80076092D01*
X40042914Y-80042846D01*
X40101597Y-79989859D01*
X40179847Y-79931440D01*
X40402692Y-79746688D01*
X40576876Y-79534918D01*
X40700312Y-79300592D01*
X40770912Y-79048170D01*
X40786589Y-78782113D01*
X40775194Y-78659311D01*
X40713108Y-78404529D01*
X40606181Y-78179537D01*
X40461047Y-77986553D01*
X40284336Y-77827797D01*
X40082680Y-77705486D01*
X39862712Y-77621841D01*
X39631064Y-77579080D01*
X39394367Y-77579423D01*
X39159253Y-77625088D01*
X38932354Y-77718295D01*
X38720302Y-77861263D01*
X38631794Y-77942119D01*
X38462047Y-78149743D01*
X38343857Y-78376631D01*
X38276436Y-78616169D01*
X38258998Y-78861743D01*
X38290756Y-79106739D01*
X38370923Y-79344544D01*
X38498713Y-79568543D01*
X38673338Y-79772123D01*
X38868470Y-79931440D01*
X38949749Y-79992338D01*
X39007167Y-80044751D01*
X39027836Y-80076142D01*
X39017014Y-80110375D01*
X38986235Y-80192155D01*
X38938032Y-80315143D01*
X38874936Y-80472999D01*
X38799480Y-80659385D01*
X38714196Y-80867962D01*
X38630377Y-81071232D01*
X38537903Y-81294669D01*
X38452247Y-81501720D01*
X38376040Y-81686022D01*
X38311911Y-81841211D01*
X38262490Y-81960924D01*
X38230406Y-82038797D01*
X38218517Y-82067874D01*
X38190432Y-82097413D01*
X38136107Y-82097327D01*
X38048553Y-82066062D01*
X37920777Y-82002065D01*
X37919766Y-82001521D01*
X37823560Y-81951857D01*
X37745789Y-81915681D01*
X37701935Y-81900144D01*
X37700000Y-81900000D01*
X37666987Y-81915760D01*
X37594104Y-81959586D01*
X37489480Y-82026293D01*
X37361248Y-82110700D01*
X37219106Y-82206552D01*
X37074391Y-82303603D01*
X36943962Y-82388006D01*
X36836268Y-82454537D01*
X36759756Y-82497974D01*
X36723220Y-82513104D01*
X36689576Y-82493218D01*
X36621934Y-82437639D01*
X36527051Y-82352490D01*
X36411688Y-82243889D01*
X36282603Y-82117957D01*
X36240387Y-82075885D01*
X35803897Y-81638667D01*
X36136135Y-81151076D01*
X36237104Y-81001341D01*
X36325720Y-80866956D01*
X36397012Y-80755705D01*
X36446008Y-80675375D01*
X36467736Y-80633750D01*
X36468373Y-80630789D01*
X36456918Y-80591554D01*
X36426107Y-80512631D01*
X36381274Y-80407245D01*
X36349805Y-80336690D01*
X36290966Y-80201612D01*
X36235554Y-80065145D01*
X36192594Y-79949839D01*
X36180924Y-79914713D01*
X36147769Y-79820910D01*
X36115359Y-79748430D01*
X36097557Y-79721037D01*
X36058272Y-79704272D01*
X35972532Y-79680506D01*
X35851461Y-79652433D01*
X35706185Y-79622745D01*
X35641170Y-79610542D01*
X35476071Y-79580204D01*
X35317710Y-79550829D01*
X35181562Y-79525305D01*
X35083101Y-79506521D01*
X35064560Y-79502896D01*
X34911285Y-79472642D01*
X34911285Y-78834381D01*
X34911629Y-78624506D01*
X34913042Y-78465716D01*
X34916094Y-78350709D01*
X34921355Y-78272182D01*
X34929395Y-78222832D01*
X34940785Y-78195355D01*
X34956095Y-78182449D01*
X34962376Y-78180056D01*
X35000262Y-78171569D01*
X35083963Y-78154636D01*
X35202725Y-78131302D01*
X35345797Y-78103611D01*
X35502426Y-78073609D01*
X35661861Y-78043340D01*
X35813349Y-78014851D01*
X35946139Y-77990185D01*
X36049477Y-77971387D01*
X36112613Y-77960503D01*
X36126661Y-77958621D01*
X36139388Y-77933440D01*
X36167558Y-77866358D01*
X36205906Y-77770069D01*
X36220549Y-77732357D01*
X36279610Y-77586657D01*
X36349158Y-77425687D01*
X36411446Y-77290027D01*
X36457279Y-77186297D01*
X36487771Y-77101062D01*
X36497950Y-77048862D01*
X36496327Y-77041866D01*
X36474815Y-77008838D01*
X36425693Y-76935379D01*
X36354235Y-76829313D01*
X36265713Y-76698462D01*
X36165399Y-76550648D01*
X36145564Y-76521470D01*
X36029170Y-76348599D01*
X35943610Y-76216962D01*
X35885474Y-76120497D01*
X35851350Y-76053144D01*
X35837827Y-76008842D01*
X35841494Y-75981530D01*
X35841588Y-75981356D01*
X35870451Y-75945482D01*
X35934291Y-75876127D01*
X36026189Y-75780481D01*
X36139225Y-75665735D01*
X36266479Y-75539077D01*
X36280830Y-75524941D01*
X36441201Y-75369639D01*
X36564963Y-75255606D01*
X36654603Y-75180738D01*
X36712606Y-75142932D01*
X36738154Y-75138053D01*
X36775440Y-75159339D01*
X36852815Y-75208509D01*
X36962291Y-75280311D01*
X37095878Y-75369491D01*
X37245588Y-75470799D01*
X37280540Y-75494633D01*
X37776768Y-75833501D01*
X38000865Y-75731792D01*
X38137147Y-75672519D01*
X38283434Y-75612906D01*
X38409193Y-75565376D01*
X38414733Y-75563421D01*
X38513101Y-75527413D01*
X38588929Y-75496965D01*
X38625876Y-75478641D01*
X38625938Y-75478588D01*
X38637662Y-75445465D01*
X38657590Y-75364003D01*
X38683745Y-75243361D01*
X38714148Y-75092695D01*
X38746821Y-74921164D01*
X38749494Y-74906703D01*
X38782268Y-74729971D01*
X38812356Y-74569546D01*
X38837819Y-74435624D01*
X38856717Y-74338399D01*
X38867111Y-74288068D01*
X38867293Y-74287299D01*
X38873619Y-74265889D01*
X38885919Y-74249724D01*
X38911564Y-74238067D01*
X38957923Y-74230181D01*
X39032366Y-74225329D01*
X39142263Y-74222775D01*
X39294983Y-74221781D01*
X39497896Y-74221610D01*
X39524158Y-74221610D01*
X39733172Y-74221734D01*
%TA.AperFunction,EtchedComponent*%
G36*
X39733172Y-74221734D02*
G01*
X39891164Y-74222599D01*
X40005505Y-74224941D01*
X40083565Y-74229498D01*
X40132712Y-74237006D01*
X40160317Y-74248202D01*
X40173750Y-74263824D01*
X40180379Y-74284609D01*
X40181023Y-74287299D01*
X40191093Y-74335849D01*
X40209733Y-74431641D01*
X40235003Y-74564479D01*
X40264965Y-74724167D01*
X40297680Y-74900510D01*
X40298822Y-74906703D01*
X40331591Y-75079518D01*
X40362251Y-75232205D01*
X40388822Y-75355607D01*
X40409325Y-75440567D01*
X40421784Y-75477926D01*
X40422378Y-75478588D01*
X40459077Y-75496831D01*
X40534744Y-75527233D01*
X40633036Y-75563229D01*
X40633583Y-75563421D01*
X40757391Y-75609958D01*
X40903354Y-75669240D01*
X41040939Y-75728845D01*
X41047451Y-75731792D01*
X41271548Y-75833501D01*
X41767777Y-75494633D01*
X41920004Y-75391328D01*
X42057899Y-75298973D01*
X42173473Y-75222820D01*
X42258737Y-75168121D01*
X42305702Y-75140129D01*
X42310162Y-75138053D01*
X42344292Y-75147296D01*
X42408039Y-75191892D01*
X42503889Y-75273945D01*
X42634327Y-75395557D01*
X42767486Y-75524941D01*
X42895852Y-75652438D01*
X43010739Y-75768782D01*
X43105231Y-75866788D01*
X43172411Y-75939272D01*
X43205364Y-75979049D01*
X43206590Y-75981097D01*
X43210232Y-76008392D01*
X43196508Y-76052970D01*
X43162027Y-76120848D01*
X43103397Y-76218047D01*
X43017228Y-76350587D01*
X42902358Y-76521212D01*
X42800412Y-76671391D01*
X42709281Y-76806086D01*
X42634231Y-76917476D01*
X42580527Y-76997741D01*
X42553438Y-77039061D01*
X42551732Y-77041866D01*
X42555040Y-77081457D01*
X42580111Y-77158405D01*
X42621956Y-77258168D01*
X42636870Y-77290027D01*
X42701944Y-77431962D01*
X42771370Y-77593009D01*
X42827767Y-77732357D01*
X42868405Y-77835780D01*
X42900684Y-77914378D01*
X42919336Y-77955456D01*
X42921655Y-77958621D01*
X42955961Y-77963864D01*
X43036827Y-77978230D01*
X43153501Y-77999673D01*
X43295233Y-78026149D01*
X43451268Y-78055613D01*
X43610856Y-78086019D01*
X43763243Y-78115324D01*
X43897679Y-78141481D01*
X44003410Y-78162446D01*
X44069684Y-78176175D01*
X44085940Y-78180056D01*
X44102731Y-78189636D01*
X44115407Y-78211272D01*
X44124536Y-78252267D01*
X44130689Y-78319925D01*
X44134438Y-78421548D01*
X44136350Y-78564439D01*
X44136998Y-78755901D01*
X44137032Y-78834381D01*
X44137032Y-79472642D01*
X43983756Y-79502896D01*
X43898480Y-79519300D01*
X43771228Y-79543245D01*
X43617473Y-79571843D01*
X43452692Y-79602203D01*
X43407147Y-79610542D01*
X43255090Y-79640106D01*
X43122626Y-79669178D01*
X43020872Y-79695065D01*
X42960946Y-79715073D01*
X42950963Y-79721037D01*
X42926451Y-79763270D01*
X42891306Y-79845106D01*
X42852331Y-79950419D01*
X42844600Y-79973104D01*
X42793518Y-80113754D01*
X42730112Y-80272450D01*
X42668062Y-80414961D01*
X42667756Y-80415622D01*
X42564425Y-80639176D01*
X43244119Y-81638968D01*
X42807779Y-82076036D01*
X42675807Y-82206117D01*
X42555437Y-82320784D01*
X42453431Y-82413917D01*
X42376549Y-82479394D01*
X42331551Y-82511093D01*
X42325096Y-82513104D01*
X42287198Y-82497265D01*
X42209866Y-82453232D01*
X42101547Y-82386226D01*
X41970690Y-82301470D01*
X41829210Y-82206552D01*
X41685619Y-82109734D01*
X41557593Y-82025487D01*
X41453263Y-81958994D01*
X41380758Y-81915438D01*
X41348316Y-81900000D01*
X41308734Y-81913064D01*
X41233677Y-81947486D01*
X41138626Y-81996116D01*
X41128550Y-82001521D01*
X41000549Y-82065716D01*
X40912776Y-82097199D01*
X40858186Y-82097534D01*
X40829733Y-82068284D01*
X40829568Y-82067874D01*
X40815346Y-82033234D01*
X40781427Y-81951005D01*
X40730442Y-81827550D01*
X40665020Y-81669234D01*
X40587792Y-81482422D01*
X40501387Y-81273478D01*
X40417709Y-81071182D01*
X40325746Y-80847936D01*
X40241308Y-80641128D01*
X40166927Y-80457098D01*
X40105132Y-80302187D01*
X40058455Y-80182732D01*
X40029426Y-80105075D01*
X40020480Y-80076092D01*
X40042914Y-80042846D01*
X40101597Y-79989859D01*
X40179847Y-79931440D01*
X40402692Y-79746688D01*
X40576876Y-79534918D01*
X40700312Y-79300592D01*
X40770912Y-79048170D01*
X40786589Y-78782113D01*
X40775194Y-78659311D01*
X40713108Y-78404529D01*
X40606181Y-78179537D01*
X40461047Y-77986553D01*
X40284336Y-77827797D01*
X40082680Y-77705486D01*
X39862712Y-77621841D01*
X39631064Y-77579080D01*
X39394367Y-77579423D01*
X39159253Y-77625088D01*
X38932354Y-77718295D01*
X38720302Y-77861263D01*
X38631794Y-77942119D01*
X38462047Y-78149743D01*
X38343857Y-78376631D01*
X38276436Y-78616169D01*
X38258998Y-78861743D01*
X38290756Y-79106739D01*
X38370923Y-79344544D01*
X38498713Y-79568543D01*
X38673338Y-79772123D01*
X38868470Y-79931440D01*
X38949749Y-79992338D01*
X39007167Y-80044751D01*
X39027836Y-80076142D01*
X39017014Y-80110375D01*
X38986235Y-80192155D01*
X38938032Y-80315143D01*
X38874936Y-80472999D01*
X38799480Y-80659385D01*
X38714196Y-80867962D01*
X38630377Y-81071232D01*
X38537903Y-81294669D01*
X38452247Y-81501720D01*
X38376040Y-81686022D01*
X38311911Y-81841211D01*
X38262490Y-81960924D01*
X38230406Y-82038797D01*
X38218517Y-82067874D01*
X38190432Y-82097413D01*
X38136107Y-82097327D01*
X38048553Y-82066062D01*
X37920777Y-82002065D01*
X37919766Y-82001521D01*
X37823560Y-81951857D01*
X37745789Y-81915681D01*
X37701935Y-81900144D01*
X37700000Y-81900000D01*
X37666987Y-81915760D01*
X37594104Y-81959586D01*
X37489480Y-82026293D01*
X37361248Y-82110700D01*
X37219106Y-82206552D01*
X37074391Y-82303603D01*
X36943962Y-82388006D01*
X36836268Y-82454537D01*
X36759756Y-82497974D01*
X36723220Y-82513104D01*
X36689576Y-82493218D01*
X36621934Y-82437639D01*
X36527051Y-82352490D01*
X36411688Y-82243889D01*
X36282603Y-82117957D01*
X36240387Y-82075885D01*
X35803897Y-81638667D01*
X36136135Y-81151076D01*
X36237104Y-81001341D01*
X36325720Y-80866956D01*
X36397012Y-80755705D01*
X36446008Y-80675375D01*
X36467736Y-80633750D01*
X36468373Y-80630789D01*
X36456918Y-80591554D01*
X36426107Y-80512631D01*
X36381274Y-80407245D01*
X36349805Y-80336690D01*
X36290966Y-80201612D01*
X36235554Y-80065145D01*
X36192594Y-79949839D01*
X36180924Y-79914713D01*
X36147769Y-79820910D01*
X36115359Y-79748430D01*
X36097557Y-79721037D01*
X36058272Y-79704272D01*
X35972532Y-79680506D01*
X35851461Y-79652433D01*
X35706185Y-79622745D01*
X35641170Y-79610542D01*
X35476071Y-79580204D01*
X35317710Y-79550829D01*
X35181562Y-79525305D01*
X35083101Y-79506521D01*
X35064560Y-79502896D01*
X34911285Y-79472642D01*
X34911285Y-78834381D01*
X34911629Y-78624506D01*
X34913042Y-78465716D01*
X34916094Y-78350709D01*
X34921355Y-78272182D01*
X34929395Y-78222832D01*
X34940785Y-78195355D01*
X34956095Y-78182449D01*
X34962376Y-78180056D01*
X35000262Y-78171569D01*
X35083963Y-78154636D01*
X35202725Y-78131302D01*
X35345797Y-78103611D01*
X35502426Y-78073609D01*
X35661861Y-78043340D01*
X35813349Y-78014851D01*
X35946139Y-77990185D01*
X36049477Y-77971387D01*
X36112613Y-77960503D01*
X36126661Y-77958621D01*
X36139388Y-77933440D01*
X36167558Y-77866358D01*
X36205906Y-77770069D01*
X36220549Y-77732357D01*
X36279610Y-77586657D01*
X36349158Y-77425687D01*
X36411446Y-77290027D01*
X36457279Y-77186297D01*
X36487771Y-77101062D01*
X36497950Y-77048862D01*
X36496327Y-77041866D01*
X36474815Y-77008838D01*
X36425693Y-76935379D01*
X36354235Y-76829313D01*
X36265713Y-76698462D01*
X36165399Y-76550648D01*
X36145564Y-76521470D01*
X36029170Y-76348599D01*
X35943610Y-76216962D01*
X35885474Y-76120497D01*
X35851350Y-76053144D01*
X35837827Y-76008842D01*
X35841494Y-75981530D01*
X35841588Y-75981356D01*
X35870451Y-75945482D01*
X35934291Y-75876127D01*
X36026189Y-75780481D01*
X36139225Y-75665735D01*
X36266479Y-75539077D01*
X36280830Y-75524941D01*
X36441201Y-75369639D01*
X36564963Y-75255606D01*
X36654603Y-75180738D01*
X36712606Y-75142932D01*
X36738154Y-75138053D01*
X36775440Y-75159339D01*
X36852815Y-75208509D01*
X36962291Y-75280311D01*
X37095878Y-75369491D01*
X37245588Y-75470799D01*
X37280540Y-75494633D01*
X37776768Y-75833501D01*
X38000865Y-75731792D01*
X38137147Y-75672519D01*
X38283434Y-75612906D01*
X38409193Y-75565376D01*
X38414733Y-75563421D01*
X38513101Y-75527413D01*
X38588929Y-75496965D01*
X38625876Y-75478641D01*
X38625938Y-75478588D01*
X38637662Y-75445465D01*
X38657590Y-75364003D01*
X38683745Y-75243361D01*
X38714148Y-75092695D01*
X38746821Y-74921164D01*
X38749494Y-74906703D01*
X38782268Y-74729971D01*
X38812356Y-74569546D01*
X38837819Y-74435624D01*
X38856717Y-74338399D01*
X38867111Y-74288068D01*
X38867293Y-74287299D01*
X38873619Y-74265889D01*
X38885919Y-74249724D01*
X38911564Y-74238067D01*
X38957923Y-74230181D01*
X39032366Y-74225329D01*
X39142263Y-74222775D01*
X39294983Y-74221781D01*
X39497896Y-74221610D01*
X39524158Y-74221610D01*
X39733172Y-74221734D01*
G37*
%TD.AperFunction*%
%TD*%
D11*
%TO.P,C1,2*%
%TO.N,GND*%
X38140000Y-30480000D03*
%TO.P,C1,1*%
%TO.N,+5V*%
X43140000Y-30480000D03*
%TD*%
D12*
%TO.P,U5,20,VCC*%
%TO.N,+5V*%
X124460000Y-28575000D03*
%TO.P,U5,19,P=R*%
%TO.N,~{P=R}*%
X124460000Y-31115000D03*
%TO.P,U5,18,R7*%
%TO.N,+5V*%
X124460000Y-33655000D03*
%TO.P,U5,17,P7*%
%TO.N,A7*%
X124460000Y-36195000D03*
%TO.P,U5,16,R6*%
%TO.N,GND*%
X124460000Y-38735000D03*
%TO.P,U5,15,P6*%
%TO.N,A6*%
X124460000Y-41275000D03*
%TO.P,U5,14,R5*%
%TO.N,GND*%
X124460000Y-43815000D03*
%TO.P,U5,13,P5*%
%TO.N,A5*%
X124460000Y-46355000D03*
%TO.P,U5,12,R4*%
%TO.N,+5V*%
X124460000Y-48895000D03*
%TO.P,U5,11,P4*%
%TO.N,A4*%
X124460000Y-51435000D03*
%TO.P,U5,10,GND*%
%TO.N,GND*%
X116840000Y-51435000D03*
%TO.P,U5,9,R3*%
X116840000Y-48895000D03*
%TO.P,U5,8,P3*%
%TO.N,A3*%
X116840000Y-46355000D03*
%TO.P,U5,7,R2*%
%TO.N,+5V*%
X116840000Y-43815000D03*
%TO.P,U5,6,P2*%
%TO.N,A2*%
X116840000Y-41275000D03*
%TO.P,U5,5,R1*%
%TO.N,GND*%
X116840000Y-38735000D03*
%TO.P,U5,4,P1*%
%TO.N,A1*%
X116840000Y-36195000D03*
%TO.P,U5,3,R0*%
%TO.N,GND*%
X116840000Y-33655000D03*
%TO.P,U5,2,P0*%
%TO.N,A0*%
X116840000Y-31115000D03*
D13*
%TO.P,U5,1,G*%
%TO.N,~{IORQ}*%
X116840000Y-28575000D03*
%TD*%
D12*
%TO.P,U2,32,VCC*%
%TO.N,+5V*%
X67945000Y-30480000D03*
%TO.P,U2,31,A15*%
%TO.N,S2*%
X67945000Y-33020000D03*
%TO.P,U2,30,A17*%
%TO.N,S4*%
X67945000Y-35560000D03*
%TO.P,U2,29,WE#*%
%TO.N,~{WR}*%
X67945000Y-38100000D03*
%TO.P,U2,28,A13*%
%TO.N,S0*%
X67945000Y-40640000D03*
%TO.P,U2,27,A8*%
%TO.N,A8*%
X67945000Y-43180000D03*
%TO.P,U2,26,A9*%
%TO.N,A9*%
X67945000Y-45720000D03*
%TO.P,U2,25,A11*%
%TO.N,A11*%
X67945000Y-48260000D03*
%TO.P,U2,24,OE#*%
%TO.N,~{RD}*%
X67945000Y-50800000D03*
%TO.P,U2,23,A10*%
%TO.N,A10*%
X67945000Y-53340000D03*
%TO.P,U2,22,CE#*%
%TO.N,~{CS1}*%
X67945000Y-55880000D03*
%TO.P,U2,21,DQ7*%
%TO.N,D7*%
X67945000Y-58420000D03*
%TO.P,U2,20,DQ6*%
%TO.N,D6*%
X67945000Y-60960000D03*
%TO.P,U2,19,DQ5*%
%TO.N,D5*%
X67945000Y-63500000D03*
%TO.P,U2,18,DQ4*%
%TO.N,D4*%
X67945000Y-66040000D03*
%TO.P,U2,17,DQ3*%
%TO.N,D3*%
X67945000Y-68580000D03*
%TO.P,U2,16,VSS*%
%TO.N,GND*%
X52705000Y-68580000D03*
%TO.P,U2,15,DQ2*%
%TO.N,D2*%
X52705000Y-66040000D03*
%TO.P,U2,14,DQ1*%
%TO.N,D1*%
X52705000Y-63500000D03*
%TO.P,U2,13,DQ0*%
%TO.N,D0*%
X52705000Y-60960000D03*
%TO.P,U2,12,A0*%
%TO.N,A0*%
X52705000Y-58420000D03*
%TO.P,U2,11,A1*%
%TO.N,A1*%
X52705000Y-55880000D03*
%TO.P,U2,10,A2*%
%TO.N,A2*%
X52705000Y-53340000D03*
%TO.P,U2,9,A3*%
%TO.N,A3*%
X52705000Y-50800000D03*
%TO.P,U2,8,A4*%
%TO.N,A4*%
X52705000Y-48260000D03*
%TO.P,U2,7,A5*%
%TO.N,A5*%
X52705000Y-45720000D03*
%TO.P,U2,6,A6*%
%TO.N,A6*%
X52705000Y-43180000D03*
%TO.P,U2,5,A7*%
%TO.N,A7*%
X52705000Y-40640000D03*
%TO.P,U2,4,A12*%
%TO.N,A12*%
X52705000Y-38100000D03*
%TO.P,U2,3,A14*%
%TO.N,S1*%
X52705000Y-35560000D03*
%TO.P,U2,2,A16*%
%TO.N,S3*%
X52705000Y-33020000D03*
D13*
%TO.P,U2,1,A18*%
%TO.N,S5*%
X52705000Y-30480000D03*
%TD*%
D11*
%TO.P,C9,2*%
%TO.N,GND*%
X93345000Y-24130000D03*
%TO.P,C9,1*%
%TO.N,+5V*%
X98345000Y-24130000D03*
%TD*%
%TO.P,C2,2*%
%TO.N,GND*%
X117896000Y-23876000D03*
%TO.P,C2,1*%
%TO.N,+5V*%
X122896000Y-23876000D03*
%TD*%
D12*
%TO.P,D1,2,A*%
%TO.N,VCC*%
X26075000Y-53340000D03*
D13*
%TO.P,D1,1,K*%
%TO.N,+5V*%
X26075000Y-60960000D03*
%TD*%
D11*
%TO.P,C5,2*%
%TO.N,GND*%
X77510000Y-25400000D03*
%TO.P,C5,1*%
%TO.N,+5V*%
X82510000Y-25400000D03*
%TD*%
%TO.P,C6,2*%
%TO.N,GND*%
X57825000Y-25400000D03*
%TO.P,C6,1*%
%TO.N,+5V*%
X62825000Y-25400000D03*
%TD*%
D12*
%TO.P,U1,14,VCC*%
%TO.N,+5V*%
X111760000Y-36195000D03*
%TO.P,U1,13*%
%TO.N,~{MRQ}*%
X111760000Y-38735000D03*
%TO.P,U1,12*%
%TO.N,Net-(U1-Pad12)*%
X111760000Y-41275000D03*
%TO.P,U1,11*%
%TO.N,GND*%
X111760000Y-43815000D03*
%TO.P,U1,10*%
%TO.N,unconnected-(U1-Pad10)*%
X111760000Y-46355000D03*
%TO.P,U1,9*%
%TO.N,Net-(U1-Pad9)*%
X111760000Y-48895000D03*
%TO.P,U1,8*%
%TO.N,Net-(U1-Pad8)*%
X111760000Y-51435000D03*
%TO.P,U1,7,GND*%
%TO.N,GND*%
X104140000Y-51435000D03*
%TO.P,U1,6*%
%TO.N,Net-(U1-Pad6)*%
X104140000Y-48895000D03*
%TO.P,U1,5*%
%TO.N,~{REN}*%
X104140000Y-46355000D03*
%TO.P,U1,4*%
%TO.N,Net-(U7-Cp)*%
X104140000Y-43815000D03*
%TO.P,U1,3*%
%TO.N,Net-(U1-Pad3)*%
X104140000Y-41275000D03*
%TO.P,U1,2*%
%TO.N,unconnected-(U1-Pad2)*%
X104140000Y-38735000D03*
D13*
%TO.P,U1,1*%
%TO.N,GND*%
X104140000Y-36195000D03*
%TD*%
D11*
%TO.P,C7,2*%
%TO.N,GND*%
X105450000Y-31115000D03*
%TO.P,C7,1*%
%TO.N,+5V*%
X110450000Y-31115000D03*
%TD*%
D12*
%TO.P,U8,20,VCC*%
%TO.N,+5V*%
X124470000Y-63500000D03*
%TO.P,U8,19,CE*%
%TO.N,Net-(U8-CE)*%
X124470000Y-66040000D03*
%TO.P,U8,18,B0*%
%TO.N,D0*%
X124470000Y-68580000D03*
%TO.P,U8,17,B1*%
%TO.N,D1*%
X124470000Y-71120000D03*
%TO.P,U8,16,B2*%
%TO.N,D2*%
X124470000Y-73660000D03*
%TO.P,U8,15,B3*%
%TO.N,D3*%
X124470000Y-76200000D03*
%TO.P,U8,14,B4*%
%TO.N,D4*%
X124470000Y-78740000D03*
%TO.P,U8,13,B5*%
%TO.N,D5*%
X124470000Y-81280000D03*
%TO.P,U8,12,B6*%
%TO.N,D6*%
X124470000Y-83820000D03*
%TO.P,U8,11,B7*%
%TO.N,D7*%
X124470000Y-86360000D03*
%TO.P,U8,10,GND*%
%TO.N,GND*%
X116850000Y-86360000D03*
%TO.P,U8,9,A7*%
%TO.N,S7*%
X116850000Y-83820000D03*
%TO.P,U8,8,A6*%
%TO.N,S6*%
X116850000Y-81280000D03*
%TO.P,U8,7,A5*%
%TO.N,S5*%
X116850000Y-78740000D03*
%TO.P,U8,6,A4*%
%TO.N,S4*%
X116850000Y-76200000D03*
%TO.P,U8,5,A3*%
%TO.N,S3*%
X116850000Y-73660000D03*
%TO.P,U8,4,A2*%
%TO.N,S2*%
X116850000Y-71120000D03*
%TO.P,U8,3,A1*%
%TO.N,S1*%
X116850000Y-68580000D03*
%TO.P,U8,2,A0*%
%TO.N,S0*%
X116850000Y-66040000D03*
D13*
%TO.P,U8,1,A->B*%
%TO.N,+5V*%
X116850000Y-63500000D03*
%TD*%
D12*
%TO.P,U9,32,VCC*%
%TO.N,+5V*%
X87625000Y-30480000D03*
%TO.P,U9,31,A15*%
%TO.N,S2*%
X87625000Y-33020000D03*
%TO.P,U9,30,A17*%
%TO.N,S4*%
X87625000Y-35560000D03*
%TO.P,U9,29,WE#*%
%TO.N,~{WR}*%
X87625000Y-38100000D03*
%TO.P,U9,28,A13*%
%TO.N,S0*%
X87625000Y-40640000D03*
%TO.P,U9,27,A8*%
%TO.N,A8*%
X87625000Y-43180000D03*
%TO.P,U9,26,A9*%
%TO.N,A9*%
X87625000Y-45720000D03*
%TO.P,U9,25,A11*%
%TO.N,A11*%
X87625000Y-48260000D03*
%TO.P,U9,24,OE#*%
%TO.N,~{RD}*%
X87625000Y-50800000D03*
%TO.P,U9,23,A10*%
%TO.N,A10*%
X87625000Y-53340000D03*
%TO.P,U9,22,CE#*%
%TO.N,~{CS2}*%
X87625000Y-55880000D03*
%TO.P,U9,21,DQ7*%
%TO.N,D7*%
X87625000Y-58420000D03*
%TO.P,U9,20,DQ6*%
%TO.N,D6*%
X87625000Y-60960000D03*
%TO.P,U9,19,DQ5*%
%TO.N,D5*%
X87625000Y-63500000D03*
%TO.P,U9,18,DQ4*%
%TO.N,D4*%
X87625000Y-66040000D03*
%TO.P,U9,17,DQ3*%
%TO.N,D3*%
X87625000Y-68580000D03*
%TO.P,U9,16,VSS*%
%TO.N,GND*%
X72385000Y-68580000D03*
%TO.P,U9,15,DQ2*%
%TO.N,D2*%
X72385000Y-66040000D03*
%TO.P,U9,14,DQ1*%
%TO.N,D1*%
X72385000Y-63500000D03*
%TO.P,U9,13,DQ0*%
%TO.N,D0*%
X72385000Y-60960000D03*
%TO.P,U9,12,A0*%
%TO.N,A0*%
X72385000Y-58420000D03*
%TO.P,U9,11,A1*%
%TO.N,A1*%
X72385000Y-55880000D03*
%TO.P,U9,10,A2*%
%TO.N,A2*%
X72385000Y-53340000D03*
%TO.P,U9,9,A3*%
%TO.N,A3*%
X72385000Y-50800000D03*
%TO.P,U9,8,A4*%
%TO.N,A4*%
X72385000Y-48260000D03*
%TO.P,U9,7,A5*%
%TO.N,A5*%
X72385000Y-45720000D03*
%TO.P,U9,6,A6*%
%TO.N,A6*%
X72385000Y-43180000D03*
%TO.P,U9,5,A7*%
%TO.N,A7*%
X72385000Y-40640000D03*
%TO.P,U9,4,A12*%
%TO.N,A12*%
X72385000Y-38100000D03*
%TO.P,U9,3,A14*%
%TO.N,S1*%
X72385000Y-35560000D03*
%TO.P,U9,2,A16*%
%TO.N,S3*%
X72385000Y-33020000D03*
D13*
%TO.P,U9,1,A18*%
%TO.N,S5*%
X72385000Y-30480000D03*
%TD*%
D11*
%TO.P,C3,2*%
%TO.N,GND*%
X27305000Y-80010000D03*
D13*
%TO.P,C3,1*%
%TO.N,+5V*%
X24805000Y-80010000D03*
%TD*%
D11*
%TO.P,C10,2*%
%TO.N,GND*%
X105704000Y-58420000D03*
%TO.P,C10,1*%
%TO.N,+5V*%
X110704000Y-58420000D03*
%TD*%
%TO.P,C4,2*%
%TO.N,GND*%
X93385000Y-49530000D03*
%TO.P,C4,1*%
%TO.N,+5V*%
X98385000Y-49530000D03*
%TD*%
D12*
%TO.P,U4,28,VCC*%
%TO.N,+5V*%
X48255000Y-35560000D03*
%TO.P,U4,27,~{WE}*%
%TO.N,~{WR}*%
X48255000Y-38100000D03*
%TO.P,U4,26,A13*%
%TO.N,A13*%
X48255000Y-40640000D03*
%TO.P,U4,25,A8*%
%TO.N,A8*%
X48255000Y-43180000D03*
%TO.P,U4,24,A9*%
%TO.N,A9*%
X48255000Y-45720000D03*
%TO.P,U4,23,A11*%
%TO.N,A11*%
X48255000Y-48260000D03*
%TO.P,U4,22,~{OE}*%
%TO.N,~{RD}*%
X48255000Y-50800000D03*
%TO.P,U4,21,A10*%
%TO.N,A10*%
X48255000Y-53340000D03*
%TO.P,U4,20,~{CS}*%
%TO.N,~{CS3}*%
X48255000Y-55880000D03*
%TO.P,U4,19,Q7*%
%TO.N,D7*%
X48255000Y-58420000D03*
%TO.P,U4,18,Q6*%
%TO.N,D6*%
X48255000Y-60960000D03*
%TO.P,U4,17,Q5*%
%TO.N,D5*%
X48255000Y-63500000D03*
%TO.P,U4,16,Q4*%
%TO.N,D4*%
X48255000Y-66040000D03*
%TO.P,U4,15,Q3*%
%TO.N,D3*%
X48255000Y-68580000D03*
%TO.P,U4,14,GND*%
%TO.N,GND*%
X33015000Y-68580000D03*
%TO.P,U4,13,Q2*%
%TO.N,D2*%
X33015000Y-66040000D03*
%TO.P,U4,12,Q1*%
%TO.N,D1*%
X33015000Y-63500000D03*
%TO.P,U4,11,Q0*%
%TO.N,D0*%
X33015000Y-60960000D03*
%TO.P,U4,10,A0*%
%TO.N,A0*%
X33015000Y-58420000D03*
%TO.P,U4,9,A1*%
%TO.N,A1*%
X33015000Y-55880000D03*
%TO.P,U4,8,A2*%
%TO.N,A2*%
X33015000Y-53340000D03*
%TO.P,U4,7,A3*%
%TO.N,A3*%
X33015000Y-50800000D03*
%TO.P,U4,6,A4*%
%TO.N,A4*%
X33015000Y-48260000D03*
%TO.P,U4,5,A5*%
%TO.N,A5*%
X33015000Y-45720000D03*
%TO.P,U4,4,A6*%
%TO.N,A6*%
X33015000Y-43180000D03*
%TO.P,U4,3,A7*%
%TO.N,A7*%
X33015000Y-40640000D03*
%TO.P,U4,2,A12*%
%TO.N,A12*%
X33015000Y-38100000D03*
D13*
%TO.P,U4,1,A14*%
%TO.N,S7*%
X33015000Y-35560000D03*
%TD*%
D14*
%TO.P,J2,2,Pin_2*%
%TO.N,VCC*%
X25925000Y-41920000D03*
D15*
%TO.P,J2,1,Pin_1*%
%TO.N,GND*%
X25925000Y-39380000D03*
%TD*%
D12*
%TO.P,U6,14,VCC*%
%TO.N,+5V*%
X99705000Y-54605000D03*
%TO.P,U6,13*%
%TO.N,~{P=R}*%
X99705000Y-57145000D03*
%TO.P,U6,12*%
%TO.N,~{RD}*%
X99705000Y-59685000D03*
%TO.P,U6,11*%
%TO.N,Net-(U8-CE)*%
X99705000Y-62225000D03*
%TO.P,U6,10*%
%TO.N,S6*%
X99705000Y-64765000D03*
%TO.P,U6,9*%
%TO.N,Net-(U1-Pad9)*%
X99705000Y-67305000D03*
%TO.P,U6,8*%
%TO.N,~{CS1}*%
X99705000Y-69845000D03*
%TO.P,U6,7,GND*%
%TO.N,GND*%
X92085000Y-69845000D03*
%TO.P,U6,6*%
%TO.N,Net-(U1-Pad3)*%
X92085000Y-67305000D03*
%TO.P,U6,5*%
%TO.N,~{WR}*%
X92085000Y-64765000D03*
%TO.P,U6,4*%
%TO.N,~{P=R}*%
X92085000Y-62225000D03*
%TO.P,U6,3*%
%TO.N,Net-(U1-Pad9)*%
X92085000Y-59685000D03*
%TO.P,U6,2*%
%TO.N,~{REN}*%
X92085000Y-57145000D03*
D13*
%TO.P,U6,1*%
%TO.N,Net-(U3-Pad1)*%
X92085000Y-54605000D03*
%TD*%
D11*
%TO.P,C8,2*%
%TO.N,GND*%
X118150000Y-58420000D03*
%TO.P,C8,1*%
%TO.N,+5V*%
X123150000Y-58420000D03*
%TD*%
D16*
%TO.P,J3,2,Pin_2*%
%TO.N,VCC*%
X25925000Y-31252000D03*
D17*
%TO.P,J3,1,Pin_1*%
%TO.N,GND*%
X25925000Y-26172000D03*
%TD*%
D12*
%TO.P,U3,14,VCC*%
%TO.N,+5V*%
X99695000Y-29210000D03*
%TO.P,U3,13*%
%TO.N,RAMS2*%
X99695000Y-31750000D03*
%TO.P,U3,12*%
%TO.N,Net-(U1-Pad12)*%
X99695000Y-34290000D03*
%TO.P,U3,11*%
%TO.N,~{REN}*%
X99695000Y-36830000D03*
%TO.P,U3,10*%
%TO.N,A14*%
X99695000Y-39370000D03*
%TO.P,U3,9*%
%TO.N,A13*%
X99695000Y-41910000D03*
%TO.P,U3,8*%
%TO.N,Net-(U3-Pad1)*%
X99695000Y-44450000D03*
%TO.P,U3,7,GND*%
%TO.N,GND*%
X92075000Y-44450000D03*
%TO.P,U3,6*%
%TO.N,~{CS2}*%
X92075000Y-41910000D03*
%TO.P,U3,5*%
%TO.N,S6*%
X92075000Y-39370000D03*
%TO.P,U3,4*%
%TO.N,Net-(U1-Pad8)*%
X92075000Y-36830000D03*
%TO.P,U3,3*%
%TO.N,~{CS3}*%
X92075000Y-34290000D03*
%TO.P,U3,2*%
%TO.N,Net-(U1-Pad6)*%
X92075000Y-31750000D03*
D13*
%TO.P,U3,1*%
%TO.N,Net-(U3-Pad1)*%
X92075000Y-29210000D03*
%TD*%
D12*
%TO.P,U7,20,VCC*%
%TO.N,+5V*%
X111760000Y-63500000D03*
%TO.P,U7,19,Q7*%
%TO.N,S7*%
X111760000Y-66040000D03*
%TO.P,U7,18,D7*%
%TO.N,D7*%
X111760000Y-68580000D03*
%TO.P,U7,17,D6*%
%TO.N,D6*%
X111760000Y-71120000D03*
%TO.P,U7,16,Q6*%
%TO.N,S6*%
X111760000Y-73660000D03*
%TO.P,U7,15,Q5*%
%TO.N,S5*%
X111760000Y-76200000D03*
%TO.P,U7,14,D5*%
%TO.N,D5*%
X111760000Y-78740000D03*
%TO.P,U7,13,D4*%
%TO.N,D4*%
X111760000Y-81280000D03*
%TO.P,U7,12,Q4*%
%TO.N,S4*%
X111760000Y-83820000D03*
%TO.P,U7,11,Cp*%
%TO.N,Net-(U7-Cp)*%
X111760000Y-86360000D03*
%TO.P,U7,10,GND*%
%TO.N,GND*%
X104140000Y-86360000D03*
%TO.P,U7,9,Q3*%
%TO.N,S3*%
X104140000Y-83820000D03*
%TO.P,U7,8,D3*%
%TO.N,D3*%
X104140000Y-81280000D03*
%TO.P,U7,7,D2*%
%TO.N,D2*%
X104140000Y-78740000D03*
%TO.P,U7,6,Q2*%
%TO.N,S2*%
X104140000Y-76200000D03*
%TO.P,U7,5,Q1*%
%TO.N,S1*%
X104140000Y-73660000D03*
%TO.P,U7,4,D1*%
%TO.N,D1*%
X104140000Y-71120000D03*
%TO.P,U7,3,D0*%
%TO.N,D0*%
X104140000Y-68580000D03*
%TO.P,U7,2,Q0*%
%TO.N,S0*%
X104140000Y-66040000D03*
D13*
%TO.P,U7,1,~{Mr}*%
%TO.N,~{RES}*%
X104140000Y-63500000D03*
%TD*%
D14*
%TO.P,J1,40,Pin_40*%
%TO.N,unconnected-(J1-Pin_40-Pad40)*%
X50795000Y-77978000D03*
%TO.P,J1,39,Pin_39*%
%TO.N,unconnected-(J1-Pin_39-Pad39)*%
X50795000Y-80518000D03*
%TO.P,J1,38,Pin_38*%
%TO.N,unconnected-(J1-Pin_38-Pad38)*%
X53335000Y-77978000D03*
%TO.P,J1,37,Pin_37*%
%TO.N,unconnected-(J1-Pin_37-Pad37)*%
X53335000Y-80518000D03*
%TO.P,J1,36,Pin_36*%
%TO.N,unconnected-(J1-Pin_36-Pad36)*%
X55875000Y-77978000D03*
%TO.P,J1,35,Pin_35*%
%TO.N,unconnected-(J1-Pin_35-Pad35)*%
X55875000Y-80518000D03*
%TO.P,J1,34,Pin_34*%
%TO.N,~{RES}*%
X58415000Y-77978000D03*
%TO.P,J1,33,Pin_33*%
%TO.N,unconnected-(J1-Pin_33-Pad33)*%
X58415000Y-80518000D03*
%TO.P,J1,32,Pin_32*%
%TO.N,unconnected-(J1-Pin_32-Pad32)*%
X60955000Y-77978000D03*
%TO.P,J1,31,Pin_31*%
%TO.N,~{IORQ}*%
X60955000Y-80518000D03*
%TO.P,J1,30,Pin_30*%
%TO.N,~{WR}*%
X63495000Y-77978000D03*
%TO.P,J1,29,Pin_29*%
%TO.N,unconnected-(J1-Pin_29-Pad29)*%
X63495000Y-80518000D03*
%TO.P,J1,28,Pin_28*%
%TO.N,~{RD}*%
X66035000Y-77978000D03*
%TO.P,J1,27,Pin_27*%
%TO.N,~{MRQ}*%
X66035000Y-80518000D03*
%TO.P,J1,26,Pin_26*%
%TO.N,RAMS2*%
X68575000Y-77978000D03*
%TO.P,J1,25,Pin_25*%
%TO.N,A14*%
X68575000Y-80518000D03*
%TO.P,J1,24,Pin_24*%
%TO.N,A13*%
X71115000Y-77978000D03*
%TO.P,J1,23,Pin_23*%
%TO.N,A12*%
X71115000Y-80518000D03*
%TO.P,J1,22,Pin_22*%
%TO.N,A11*%
X73655000Y-77978000D03*
%TO.P,J1,21,Pin_21*%
%TO.N,A10*%
X73655000Y-80518000D03*
%TO.P,J1,20,Pin_20*%
%TO.N,A9*%
X76195000Y-77978000D03*
%TO.P,J1,19,Pin_19*%
%TO.N,A8*%
X76195000Y-80518000D03*
%TO.P,J1,18,Pin_18*%
%TO.N,A7*%
X78735000Y-77978000D03*
%TO.P,J1,17,Pin_17*%
%TO.N,A6*%
X78735000Y-80518000D03*
%TO.P,J1,16,Pin_16*%
%TO.N,A5*%
X81275000Y-77978000D03*
%TO.P,J1,15,Pin_15*%
%TO.N,A4*%
X81275000Y-80518000D03*
%TO.P,J1,14,Pin_14*%
%TO.N,A3*%
X83815000Y-77978000D03*
%TO.P,J1,13,Pin_13*%
%TO.N,A2*%
X83815000Y-80518000D03*
%TO.P,J1,12,Pin_12*%
%TO.N,A1*%
X86355000Y-77978000D03*
%TO.P,J1,11,Pin_11*%
%TO.N,A0*%
X86355000Y-80518000D03*
%TO.P,J1,10,Pin_10*%
%TO.N,D7*%
X88895000Y-77978000D03*
%TO.P,J1,9,Pin_9*%
%TO.N,D6*%
X88895000Y-80518000D03*
%TO.P,J1,8,Pin_8*%
%TO.N,D5*%
X91435000Y-77978000D03*
%TO.P,J1,7,Pin_7*%
%TO.N,D4*%
X91435000Y-80518000D03*
%TO.P,J1,6,Pin_6*%
%TO.N,D3*%
X93975000Y-77978000D03*
%TO.P,J1,5,Pin_5*%
%TO.N,D2*%
X93975000Y-80518000D03*
%TO.P,J1,4,Pin_4*%
%TO.N,D1*%
X96515000Y-77978000D03*
%TO.P,J1,3,Pin_3*%
%TO.N,D0*%
X96515000Y-80518000D03*
%TO.P,J1,2,Pin_2*%
%TO.N,unconnected-(J1-Pin_2-Pad2)*%
X99055000Y-77978000D03*
D15*
%TO.P,J1,1,Pin_1*%
%TO.N,GND*%
X99055000Y-80518000D03*
%TD*%
D18*
%TO.N,D1*%
X113840800Y-57028200D03*
%TO.N,D2*%
X101187500Y-79116600D03*
%TO.N,D5*%
X87668700Y-73383400D03*
X119827600Y-84226800D03*
%TO.N,D6*%
X96932100Y-82228900D03*
X109404500Y-79335000D03*
X73412600Y-61952600D03*
%TO.N,D7*%
X101840100Y-70681500D03*
%TO.N,A0*%
X41275700Y-36447900D03*
%TO.N,A1*%
X85635700Y-57940900D03*
X88789700Y-56946200D03*
%TO.N,A2*%
X84551700Y-57363600D03*
X93634600Y-58607000D03*
%TO.N,A4*%
X101188600Y-85650800D03*
%TO.N,A5*%
X109815500Y-52978300D03*
X81275000Y-60035100D03*
%TO.N,A6*%
X122932900Y-35064700D03*
X83792900Y-33698600D03*
%TO.N,A10*%
X79867600Y-73631200D03*
%TO.N,A11*%
X74388800Y-49642400D03*
%TO.N,A13*%
X91290500Y-47751800D03*
X75214800Y-50872600D03*
%TO.N,A14*%
X77594400Y-75882700D03*
%TO.N,RAMS2*%
X89583800Y-49598600D03*
X74636200Y-52506000D03*
%TO.N,~{MRQ}*%
X100468400Y-52218200D03*
X99905600Y-85083800D03*
%TO.N,~{RD}*%
X90232000Y-60674800D03*
X73966300Y-53333600D03*
%TO.N,~{IORQ}*%
X41087900Y-34399300D03*
%TO.N,~{RES}*%
X71996600Y-71548000D03*
X90096000Y-73960900D03*
%TO.N,GND*%
X127000000Y-55372000D03*
%TO.N,S1*%
X97857800Y-42719300D03*
X95119200Y-38803100D03*
%TO.N,S2*%
X97463300Y-29906300D03*
%TO.N,+5V*%
X97282000Y-26670000D03*
%TO.N,~{CS1}*%
X91964200Y-73005000D03*
%TO.N,Net-(U7-Cp)*%
X100785300Y-49083500D03*
%TO.N,Net-(U1-Pad6)*%
X98151400Y-38678200D03*
%TO.N,Net-(U1-Pad8)*%
X109591500Y-39199000D03*
%TO.N,S3*%
X94194000Y-30510200D03*
X109086100Y-45440800D03*
%TO.N,S0*%
X109946000Y-64914700D03*
X96691600Y-51799300D03*
X70856200Y-40001500D03*
X93636100Y-52310400D03*
%TO.N,Net-(U1-Pad9)*%
X101507300Y-55849700D03*
%TO.N,S6*%
X97508900Y-45997700D03*
%TO.N,Net-(U1-Pad3)*%
X95274500Y-54050900D03*
%TO.N,S4*%
X93505600Y-39075500D03*
X97680700Y-44962400D03*
%TO.N,~{CS3}*%
X83377800Y-32369400D03*
X49439400Y-32315500D03*
%TO.N,Net-(U8-CE)*%
X112804100Y-54392700D03*
%TD*%
D19*
%TO.N,D0*%
X90334100Y-70355100D02*
X91413400Y-71434400D01*
X105265300Y-70549200D02*
X104350500Y-69634400D01*
X99405600Y-79342700D02*
X103818300Y-74930000D01*
X96515000Y-80518000D02*
X97690300Y-80518000D01*
X103818300Y-74930000D02*
X104541900Y-74930000D01*
X105265300Y-74206600D02*
X105265300Y-70549200D01*
X103913000Y-69634400D02*
X104140000Y-69634400D01*
X72385000Y-60960000D02*
X73510300Y-60960000D01*
X104140000Y-68580000D02*
X104140000Y-69634400D01*
X104541900Y-74930000D02*
X105265300Y-74206600D01*
X90334100Y-62439500D02*
X90334100Y-70355100D01*
X104350500Y-69634400D02*
X104140000Y-69634400D01*
X88090000Y-59815800D02*
X88995700Y-60721500D01*
X91413400Y-71434400D02*
X102113000Y-71434400D01*
X83669200Y-60960000D02*
X84813400Y-59815800D01*
X84813400Y-59815800D02*
X88090000Y-59815800D01*
X88995700Y-60721500D02*
X88995700Y-61101100D01*
X88995700Y-61101100D02*
X90334100Y-62439500D01*
X98057500Y-79342700D02*
X99405600Y-79342700D01*
X73510300Y-60960000D02*
X83669200Y-60960000D01*
X102113000Y-71434400D02*
X103913000Y-69634400D01*
X97690300Y-79709900D02*
X98057500Y-79342700D01*
X97690300Y-80518000D02*
X97690300Y-79709900D01*
%TO.N,D1*%
X86274900Y-62314800D02*
X88063800Y-62314800D01*
X124188400Y-69994700D02*
X124470000Y-69994700D01*
X104140000Y-71120000D02*
X98731500Y-76528500D01*
X122026700Y-60705100D02*
X122026700Y-67833000D01*
X124470000Y-71120000D02*
X124470000Y-69994700D01*
X85089700Y-63500000D02*
X86274900Y-62314800D01*
X72385000Y-63500000D02*
X85089700Y-63500000D01*
X96515000Y-76528500D02*
X96515000Y-77978000D01*
X88063800Y-62314800D02*
X89883800Y-64134800D01*
X98731500Y-76528500D02*
X96515000Y-76528500D01*
X91909400Y-71922900D02*
X96515000Y-76528500D01*
X122026700Y-67833000D02*
X124188400Y-69994700D01*
X91257800Y-71922900D02*
X91909400Y-71922900D01*
X118349800Y-57028200D02*
X122026700Y-60705100D01*
X89883800Y-70548900D02*
X91257800Y-71922900D01*
X113840800Y-57028200D02*
X118349800Y-57028200D01*
X89883800Y-64134800D02*
X89883800Y-70548900D01*
%TO.N,D2*%
X87625000Y-80087000D02*
X87625000Y-80977600D01*
X87625000Y-80977600D02*
X86377700Y-82224900D01*
X101187500Y-79116600D02*
X102638100Y-79116600D01*
X86377700Y-82224900D02*
X50325200Y-82224900D01*
X88369400Y-79342600D02*
X87625000Y-80087000D01*
X33015000Y-66040000D02*
X34140300Y-66040000D01*
X92799600Y-79342600D02*
X88369400Y-79342600D01*
X93975000Y-80518000D02*
X92799600Y-79342600D01*
X102638100Y-79116600D02*
X103014700Y-78740000D01*
X104140000Y-78740000D02*
X103014700Y-78740000D01*
X50325200Y-82224900D02*
X34140300Y-66040000D01*
%TO.N,D3*%
X122613100Y-78900900D02*
X124188700Y-77325300D01*
X103661700Y-87495000D02*
X119389900Y-87495000D01*
X104140000Y-81280000D02*
X104140000Y-82405300D01*
X70029800Y-70664800D02*
X87412900Y-70664800D01*
X93975000Y-76802700D02*
X87625000Y-70452700D01*
X103858700Y-82405300D02*
X102969900Y-83294100D01*
X124188700Y-77325300D02*
X124470000Y-77325300D01*
X119389900Y-87495000D02*
X122613100Y-84271800D01*
X122613100Y-84271800D02*
X122613100Y-78900900D01*
X102969900Y-86803200D02*
X103661700Y-87495000D01*
X102969900Y-83294100D02*
X102969900Y-86803200D01*
X87412900Y-70664800D02*
X87625000Y-70452700D01*
X67945000Y-68580000D02*
X70029800Y-70664800D01*
X87625000Y-70452700D02*
X87625000Y-68580000D01*
X93975000Y-77978000D02*
X93975000Y-76802700D01*
X124470000Y-76200000D02*
X124470000Y-77325300D01*
X104140000Y-82405300D02*
X103858700Y-82405300D01*
%TO.N,D4*%
X92610300Y-80885300D02*
X92610300Y-80518000D01*
X91435000Y-80518000D02*
X92610300Y-80518000D01*
X88983100Y-71127000D02*
X95168200Y-77312100D01*
X88983100Y-67960700D02*
X88983100Y-71127000D01*
X87625000Y-66040000D02*
X87625000Y-66602600D01*
X93470300Y-81745300D02*
X92610300Y-80885300D01*
X68149700Y-67165300D02*
X71148100Y-70163700D01*
X84063900Y-70163700D02*
X87625000Y-66602600D01*
X71148100Y-70163700D02*
X84063900Y-70163700D01*
X67945000Y-66040000D02*
X67945000Y-67165300D01*
X95168200Y-77312100D02*
X95168200Y-80987100D01*
X94410000Y-81745300D02*
X93470300Y-81745300D01*
X95168200Y-80987100D02*
X94410000Y-81745300D01*
X87625000Y-66602600D02*
X88983100Y-67960700D01*
X67945000Y-67165300D02*
X68149700Y-67165300D01*
%TO.N,D5*%
X112885300Y-80709200D02*
X112885300Y-81458600D01*
X111760000Y-78740000D02*
X111760000Y-79865300D01*
X67945000Y-64625300D02*
X67752200Y-64625300D01*
X66819700Y-69046300D02*
X70213400Y-72440000D01*
X66819700Y-65557800D02*
X66819700Y-69046300D01*
X111760000Y-79865300D02*
X112041400Y-79865300D01*
X119109000Y-84945400D02*
X119827600Y-84226800D01*
X91088000Y-76802700D02*
X87668700Y-73383400D01*
X91435000Y-76802700D02*
X91088000Y-76802700D01*
X67752200Y-64625300D02*
X66819700Y-65557800D01*
X86725300Y-72440000D02*
X87668700Y-73383400D01*
X70213400Y-72440000D02*
X86725300Y-72440000D01*
X91435000Y-77978000D02*
X91435000Y-76802700D01*
X112885300Y-81458600D02*
X116372100Y-84945400D01*
X112041400Y-79865300D02*
X112885300Y-80709200D01*
X67945000Y-63500000D02*
X67945000Y-64625300D01*
X116372100Y-84945400D02*
X119109000Y-84945400D01*
%TO.N,D6*%
X85507100Y-61952600D02*
X73412600Y-61952600D01*
X111478700Y-72245300D02*
X109404500Y-74319500D01*
X90070300Y-80518000D02*
X90070300Y-80885300D01*
X109404500Y-74319500D02*
X109404500Y-79335000D01*
X90070300Y-80885300D02*
X91413900Y-82228900D01*
X86499700Y-60960000D02*
X85507100Y-61952600D01*
X88895000Y-80518000D02*
X90070300Y-80518000D01*
X87625000Y-60960000D02*
X86499700Y-60960000D01*
X111760000Y-71120000D02*
X111760000Y-72245300D01*
X111760000Y-72245300D02*
X111478700Y-72245300D01*
X91413900Y-82228900D02*
X96932100Y-82228900D01*
%TO.N,D7*%
X67945000Y-58420000D02*
X67945000Y-59545300D01*
X82999400Y-72890400D02*
X87719700Y-77610700D01*
X67663600Y-59545300D02*
X66369400Y-60839500D01*
X66369400Y-69232900D02*
X70026900Y-72890400D01*
X89446000Y-60241000D02*
X89446000Y-60914500D01*
X67945000Y-59545300D02*
X67663600Y-59545300D01*
X87719700Y-77610700D02*
X87719700Y-77978000D01*
X101537500Y-70984100D02*
X101840100Y-70681500D01*
X88895000Y-77978000D02*
X87719700Y-77978000D01*
X90943500Y-62412000D02*
X90943500Y-70327600D01*
X91600000Y-70984100D02*
X101537500Y-70984100D01*
X89446000Y-60914500D02*
X90943500Y-62412000D01*
X90943500Y-70327600D02*
X91600000Y-70984100D01*
X87625000Y-58420000D02*
X89446000Y-60241000D01*
X70026900Y-72890400D02*
X82999400Y-72890400D01*
X66369400Y-60839500D02*
X66369400Y-69232900D01*
%TO.N,A0*%
X33015000Y-58420000D02*
X33015000Y-57294700D01*
X79567200Y-74356500D02*
X81874700Y-74356500D01*
X69653700Y-73791000D02*
X79001700Y-73791000D01*
X81874700Y-74356500D02*
X85179700Y-77661500D01*
X32733700Y-57294700D02*
X33015000Y-57294700D01*
X85987600Y-79342700D02*
X86355000Y-79342700D01*
X52705000Y-58420000D02*
X54282700Y-58420000D01*
X32687500Y-39369900D02*
X31439300Y-40618100D01*
X31439300Y-56000300D02*
X32733700Y-57294700D01*
X54282700Y-58420000D02*
X69653700Y-73791000D01*
X41275700Y-36447900D02*
X38353700Y-39369900D01*
X86355000Y-80518000D02*
X86355000Y-79342700D01*
X85179700Y-77661500D02*
X85179700Y-78534800D01*
X79001700Y-73791000D02*
X79567200Y-74356500D01*
X85179700Y-78534800D02*
X85987600Y-79342700D01*
X31439300Y-40618100D02*
X31439300Y-56000300D01*
X38353700Y-39369900D02*
X32687500Y-39369900D01*
%TO.N,A1*%
X88441300Y-57294600D02*
X88789700Y-56946200D01*
X85635700Y-57940900D02*
X85471500Y-58105100D01*
X75735400Y-58105100D02*
X73510300Y-55880000D01*
X86282000Y-57294600D02*
X88441300Y-57294600D01*
X72385000Y-55880000D02*
X73510300Y-55880000D01*
X85471500Y-58105100D02*
X75735400Y-58105100D01*
X85635700Y-57940900D02*
X86282000Y-57294600D01*
%TO.N,A2*%
X90731800Y-57327900D02*
X90731800Y-57466200D01*
X81713600Y-54465300D02*
X84551700Y-57303400D01*
X93587200Y-58559600D02*
X93634600Y-58607000D01*
X84551700Y-57303400D02*
X87100500Y-54754600D01*
X88158500Y-54754600D02*
X90731800Y-57327900D01*
X87100500Y-54754600D02*
X88158500Y-54754600D01*
X72385000Y-53340000D02*
X72385000Y-54465300D01*
X90731800Y-57466200D02*
X91825200Y-58559600D01*
X91825200Y-58559600D02*
X93587200Y-58559600D01*
X72385000Y-54465300D02*
X81713600Y-54465300D01*
X84551700Y-57303400D02*
X84551700Y-57363600D01*
%TO.N,A3*%
X78830500Y-74256700D02*
X79380600Y-74806800D01*
X52423600Y-51925300D02*
X51579700Y-52769200D01*
X51579700Y-52769200D02*
X51579700Y-58965800D01*
X54915800Y-59690000D02*
X69482500Y-74256700D01*
X79380600Y-74806800D02*
X79788600Y-74806800D01*
X79788600Y-74806800D02*
X82639700Y-77657900D01*
X52705000Y-50800000D02*
X52705000Y-51925300D01*
X83815000Y-77978000D02*
X82639700Y-77978000D01*
X52705000Y-51925300D02*
X52423600Y-51925300D01*
X82639700Y-77657900D02*
X82639700Y-77978000D01*
X69482500Y-74256700D02*
X78830500Y-74256700D01*
X51579700Y-58965800D02*
X52303900Y-59690000D01*
X52303900Y-59690000D02*
X54915800Y-59690000D01*
%TO.N,A4*%
X101188700Y-85744200D02*
X101188700Y-85650800D01*
X124460000Y-52560300D02*
X125643000Y-53743300D01*
X125643000Y-79236000D02*
X124869000Y-80010000D01*
X124142500Y-80010000D02*
X123063500Y-81089000D01*
X125643000Y-53743300D02*
X125643000Y-79236000D01*
X123063500Y-84458300D02*
X119546300Y-87975500D01*
X119546300Y-87975500D02*
X103420000Y-87975500D01*
X123063500Y-81089000D02*
X123063500Y-84458300D01*
X124460000Y-51435000D02*
X124460000Y-52560300D01*
X103420000Y-87975500D02*
X101188700Y-85744200D01*
X124869000Y-80010000D02*
X124142500Y-80010000D01*
X101188700Y-85650800D02*
X101188600Y-85650800D01*
%TO.N,A5*%
X80929900Y-59690000D02*
X81275000Y-60035100D01*
X72385000Y-45720000D02*
X72385000Y-46845300D01*
X59685000Y-77571600D02*
X59685000Y-78392200D01*
X52696800Y-75901900D02*
X58015300Y-75901900D01*
X59685000Y-78392200D02*
X60507400Y-79214600D01*
X71250400Y-58913400D02*
X72027000Y-59690000D01*
X69295900Y-74707000D02*
X78121600Y-74707000D01*
X67210400Y-80823800D02*
X68113600Y-81727000D01*
X124460000Y-46355000D02*
X124460000Y-47480300D01*
X80907600Y-79153300D02*
X81275000Y-79153300D01*
X123334700Y-48387500D02*
X123334700Y-48517200D01*
X52373900Y-62230000D02*
X56818900Y-62230000D01*
X124460000Y-47480300D02*
X124241900Y-47480300D01*
X52423700Y-46845300D02*
X51127900Y-48141100D01*
X78121600Y-74707000D02*
X81275000Y-77860400D01*
X72103700Y-46845300D02*
X71250400Y-47698600D01*
X118873600Y-52978300D02*
X109815500Y-52978300D01*
X71250400Y-47698600D02*
X71250400Y-58913400D01*
X80099700Y-79961200D02*
X80907600Y-79153300D01*
X33296300Y-46845300D02*
X45766800Y-59315800D01*
X72385000Y-46845300D02*
X72103700Y-46845300D01*
X33015000Y-45720000D02*
X33015000Y-46845300D01*
X81275000Y-77860400D02*
X81275000Y-77978000D01*
X52705000Y-45720000D02*
X52705000Y-46845300D01*
X56818900Y-62230000D02*
X69295900Y-74707000D01*
X67210400Y-79937400D02*
X67210400Y-80823800D01*
X72027000Y-59690000D02*
X80929900Y-59690000D01*
X51127900Y-60984000D02*
X52373900Y-62230000D01*
X33015000Y-46845300D02*
X33296300Y-46845300D01*
X45766800Y-68971900D02*
X52696800Y-75901900D01*
X124241900Y-47480300D02*
X123334700Y-48387500D01*
X60507400Y-79214600D02*
X66487600Y-79214600D01*
X58015300Y-75901900D02*
X59685000Y-77571600D01*
X81275000Y-78024600D02*
X81275000Y-77978000D01*
X123334700Y-48517200D02*
X118873600Y-52978300D01*
X66487600Y-79214600D02*
X67210400Y-79937400D01*
X79207300Y-81727000D02*
X80099700Y-80834600D01*
X51127900Y-48141100D02*
X51127900Y-60984000D01*
X52705000Y-46845300D02*
X52423700Y-46845300D01*
X68113600Y-81727000D02*
X79207300Y-81727000D01*
X80099700Y-80834600D02*
X80099700Y-79961200D01*
X81275000Y-78024600D02*
X81275000Y-79153300D01*
X45766800Y-59315800D02*
X45766800Y-68971900D01*
%TO.N,A6*%
X122932900Y-38903900D02*
X122932900Y-35064700D01*
X124460000Y-41275000D02*
X124460000Y-40149700D01*
X72385000Y-43180000D02*
X73510300Y-43180000D01*
X73510300Y-43180000D02*
X74311500Y-43180000D01*
X124178700Y-40149700D02*
X122932900Y-38903900D01*
X124460000Y-40149700D02*
X124178700Y-40149700D01*
X74311500Y-43180000D02*
X83792900Y-33698600D01*
%TO.N,A8*%
X56087900Y-74285000D02*
X68237000Y-74285000D01*
X47129600Y-45231900D02*
X47129600Y-56402600D01*
X78371700Y-76209600D02*
X77370300Y-77211000D01*
X69109300Y-75157300D02*
X77934500Y-75157300D01*
X76562400Y-79342700D02*
X76195000Y-79342700D01*
X68237000Y-74285000D02*
X69109300Y-75157300D01*
X77934500Y-75157300D02*
X78371700Y-75594500D01*
X49380300Y-67577400D02*
X56087900Y-74285000D01*
X77370300Y-77211000D02*
X77370300Y-78534800D01*
X48021700Y-57294700D02*
X48721200Y-57294700D01*
X78371700Y-75594500D02*
X78371700Y-76209600D01*
X47129600Y-56402600D02*
X48021700Y-57294700D01*
X48721200Y-57294700D02*
X49380300Y-57953800D01*
X76195000Y-80518000D02*
X76195000Y-79342700D01*
X48255000Y-43180000D02*
X48255000Y-44305300D01*
X48056200Y-44305300D02*
X47129600Y-45231900D01*
X77370300Y-78534800D02*
X76562400Y-79342700D01*
X49380300Y-57953800D02*
X49380300Y-67577400D01*
X48255000Y-44305300D02*
X48056200Y-44305300D01*
%TO.N,A10*%
X65919100Y-56209900D02*
X65919100Y-69419500D01*
X67663700Y-54465300D02*
X65919100Y-56209900D01*
X65919100Y-69419500D02*
X69840300Y-73340700D01*
X67945000Y-53340000D02*
X67945000Y-54465300D01*
X79577100Y-73340700D02*
X79867600Y-73631200D01*
X69840300Y-73340700D02*
X79577100Y-73340700D01*
X67945000Y-54465300D02*
X67663700Y-54465300D01*
%TO.N,A11*%
X74388800Y-49642400D02*
X74388800Y-51073500D01*
X74943100Y-51627800D02*
X75485400Y-51627800D01*
X77646700Y-49466500D02*
X77646700Y-49386800D01*
X77646700Y-49386800D02*
X78773500Y-48260000D01*
X78773500Y-48260000D02*
X87625000Y-48260000D01*
X75485400Y-51627800D02*
X77646700Y-49466500D01*
X74388800Y-51073500D02*
X74943100Y-51627800D01*
%TO.N,A13*%
X46667400Y-68593400D02*
X46667400Y-43103400D01*
X48005500Y-41765300D02*
X48255000Y-41765300D01*
X46667400Y-43103400D02*
X48005500Y-41765300D01*
X52850200Y-74776200D02*
X46667400Y-68593400D01*
X75214800Y-50872600D02*
X79002200Y-47085200D01*
X69939700Y-77978000D02*
X69939700Y-77610700D01*
X79002200Y-47085200D02*
X90623900Y-47085200D01*
X67105200Y-74776200D02*
X52850200Y-74776200D01*
X69939700Y-77610700D02*
X67105200Y-74776200D01*
X90623900Y-47085200D02*
X91290500Y-47751800D01*
X71115000Y-77978000D02*
X69939700Y-77978000D01*
X48255000Y-40640000D02*
X48255000Y-41765300D01*
%TO.N,A14*%
X74007700Y-75882700D02*
X77594400Y-75882700D01*
X72385000Y-77505400D02*
X74007700Y-75882700D01*
X72385000Y-78409000D02*
X72385000Y-77505400D01*
X71451300Y-79342700D02*
X72385000Y-78409000D01*
X68575000Y-80518000D02*
X69750300Y-80518000D01*
X70558200Y-79342700D02*
X71451300Y-79342700D01*
X69750300Y-80518000D02*
X69750300Y-80150600D01*
X69750300Y-80150600D02*
X70558200Y-79342700D01*
%TO.N,RAMS2*%
X78151400Y-49598700D02*
X75244100Y-52506000D01*
X89583800Y-49598600D02*
X78151400Y-49598600D01*
X75244100Y-52506000D02*
X74636200Y-52506000D01*
X78151400Y-49598600D02*
X78151400Y-49598700D01*
%TO.N,~{MRQ}*%
X105788000Y-60910000D02*
X102638500Y-57760500D01*
X102638500Y-54388300D02*
X100468400Y-52218200D01*
X104461500Y-80010000D02*
X105788000Y-78683500D01*
X105788000Y-78683500D02*
X105788000Y-60910000D01*
X99905600Y-85083800D02*
X99905600Y-83916900D01*
X99905600Y-83916900D02*
X103812500Y-80010000D01*
X102638500Y-57760500D02*
X102638500Y-54388300D01*
X103812500Y-80010000D02*
X104461500Y-80010000D01*
%TO.N,~{RD}*%
X91150300Y-55730400D02*
X92265400Y-55730400D01*
X92265400Y-55730400D02*
X94359900Y-57824900D01*
X87625000Y-50800000D02*
X87625000Y-51748300D01*
X94359900Y-57824900D02*
X94359900Y-59028800D01*
X90959700Y-55539800D02*
X91150300Y-55730400D01*
X92531900Y-60856800D02*
X90414000Y-60856800D01*
X94359900Y-59028800D02*
X92531900Y-60856800D01*
X86039700Y-53333600D02*
X87625000Y-51748300D01*
X73966300Y-53333600D02*
X86039700Y-53333600D01*
X87625000Y-51748300D02*
X90959700Y-55083000D01*
X90414000Y-60856800D02*
X90232000Y-60674800D01*
X90959700Y-55083000D02*
X90959700Y-55539800D01*
%TO.N,~{WR}*%
X87858900Y-39225300D02*
X87625000Y-39225300D01*
X46217100Y-40981900D02*
X47973700Y-39225300D01*
X63495000Y-77978000D02*
X62319700Y-77978000D01*
X62319700Y-77610700D02*
X60160500Y-75451500D01*
X87625000Y-38100000D02*
X87625000Y-39225300D01*
X94361400Y-52007300D02*
X93210400Y-50856300D01*
X92466100Y-48238900D02*
X92466100Y-47043200D01*
X60160500Y-75451500D02*
X52888600Y-75451500D01*
X94361400Y-56592800D02*
X94361400Y-52007300D01*
X93210400Y-50856300D02*
X93046400Y-50856300D01*
X92225400Y-48479600D02*
X92466100Y-48238900D01*
X47973700Y-39225300D02*
X48255000Y-39225300D01*
X93046400Y-50856300D02*
X92225400Y-50035300D01*
X94810200Y-57041600D02*
X94361400Y-56592800D01*
X92225400Y-50035300D02*
X92225400Y-48479600D01*
X52888600Y-75451500D02*
X46217100Y-68780000D01*
X46217100Y-68780000D02*
X46217100Y-40981900D01*
X89387300Y-40753700D02*
X87858900Y-39225300D01*
X48255000Y-38100000D02*
X48255000Y-39225300D01*
X62319700Y-77978000D02*
X62319700Y-77610700D01*
X92366400Y-63639700D02*
X94810200Y-61195900D01*
X89387300Y-43964400D02*
X89387300Y-40753700D01*
X92466100Y-47043200D02*
X89387300Y-43964400D01*
X94810200Y-61195900D02*
X94810200Y-57041600D01*
X92085000Y-63639700D02*
X92366400Y-63639700D01*
X92085000Y-64765000D02*
X92085000Y-63639700D01*
%TO.N,~{IORQ}*%
X60955000Y-80518000D02*
X59779700Y-80518000D01*
X32616000Y-49530000D02*
X33342500Y-49530000D01*
X58078700Y-79342700D02*
X58971800Y-79342700D01*
X32641900Y-41955400D02*
X31889600Y-42707700D01*
X58971800Y-79342700D02*
X59779700Y-80150600D01*
X52454200Y-76352200D02*
X55991800Y-76352200D01*
X57145000Y-78409000D02*
X58078700Y-79342700D01*
X31889600Y-42707700D02*
X31889600Y-48803600D01*
X42001100Y-36806800D02*
X36852500Y-41955400D01*
X57145000Y-77505400D02*
X57145000Y-78409000D01*
X36852500Y-41955400D02*
X32641900Y-41955400D01*
X45316500Y-61504000D02*
X45316500Y-69214500D01*
X41087900Y-34399300D02*
X42001100Y-35312500D01*
X45316500Y-69214500D02*
X52454200Y-76352200D01*
X33342500Y-49530000D02*
X45316500Y-61504000D01*
X55991800Y-76352200D02*
X57145000Y-77505400D01*
X59779700Y-80150600D02*
X59779700Y-80518000D01*
X42001100Y-35312500D02*
X42001100Y-36806800D01*
X31889600Y-48803600D02*
X32616000Y-49530000D01*
%TO.N,~{RES}*%
X87683100Y-71548000D02*
X90096000Y-73960900D01*
X71996600Y-71548000D02*
X87683100Y-71548000D01*
%TO.N,GND*%
X120904000Y-33655000D02*
X120904000Y-38662600D01*
D20*
X89408000Y-23368000D02*
X90170000Y-24130000D01*
D19*
X128524000Y-38509800D02*
X125810500Y-38509800D01*
D20*
X128524000Y-56896000D02*
X128524000Y-87884000D01*
X128524000Y-56896000D02*
X127000000Y-55372000D01*
D19*
X118150000Y-58420000D02*
X120904000Y-61174000D01*
X108204000Y-43422300D02*
X108204000Y-50800000D01*
X30734000Y-68580000D02*
X29718000Y-67564000D01*
X108204000Y-50800000D02*
X107569000Y-51435000D01*
D20*
X116880000Y-22860000D02*
X117896000Y-23876000D01*
X74168000Y-23368000D02*
X89408000Y-23368000D01*
X117114000Y-22626000D02*
X127782000Y-22626000D01*
X23368000Y-40132000D02*
X24120000Y-39380000D01*
X37348000Y-26172000D02*
X38140000Y-26964000D01*
D19*
X108204000Y-43422300D02*
X110242000Y-43422300D01*
D20*
X52324000Y-25400000D02*
X57825000Y-25400000D01*
D19*
X125810500Y-38509800D02*
X125585300Y-38735000D01*
X120904000Y-85344000D02*
X119888000Y-86360000D01*
X95250000Y-44450000D02*
X92075000Y-44450000D01*
X107569000Y-51435000D02*
X104140000Y-51435000D01*
X107696000Y-86360000D02*
X104140000Y-86360000D01*
D20*
X89408000Y-23368000D02*
X89896000Y-22880000D01*
D19*
X93345000Y-24130000D02*
X96012000Y-26797000D01*
X120904000Y-43815000D02*
X120904000Y-50292000D01*
X105704000Y-58420000D02*
X108204000Y-60920000D01*
D20*
X51552000Y-26172000D02*
X52324000Y-25400000D01*
D19*
X96012000Y-49276000D02*
X95758000Y-49530000D01*
D20*
X37084000Y-26172000D02*
X37348000Y-26172000D01*
D19*
X96012000Y-43434000D02*
X96012000Y-43688000D01*
X50292000Y-28448000D02*
X50800000Y-27940000D01*
D20*
X116312000Y-22880000D02*
X116332000Y-22860000D01*
D19*
X70104000Y-28702000D02*
X73406000Y-25400000D01*
X96012000Y-43688000D02*
X96012000Y-49276000D01*
D20*
X104160000Y-22880000D02*
X116312000Y-22880000D01*
X23368000Y-26924000D02*
X24120000Y-26172000D01*
X23555000Y-81260000D02*
X23368000Y-81073000D01*
D19*
X95758000Y-49530000D02*
X93385000Y-49530000D01*
D20*
X54356000Y-23368000D02*
X74168000Y-23368000D01*
X26055000Y-81260000D02*
X23555000Y-81260000D01*
X99055000Y-87879000D02*
X99055000Y-80518000D01*
X74168000Y-23368000D02*
X76200000Y-25400000D01*
X24120000Y-26172000D02*
X25925000Y-26172000D01*
X89896000Y-22880000D02*
X104160000Y-22880000D01*
D19*
X120904000Y-33655000D02*
X116840000Y-33655000D01*
X96012000Y-43688000D02*
X95250000Y-44450000D01*
D20*
X90170000Y-24130000D02*
X93345000Y-24130000D01*
X52324000Y-25400000D02*
X54356000Y-23368000D01*
X127508000Y-88900000D02*
X100076000Y-88900000D01*
X116880000Y-22860000D02*
X117114000Y-22626000D01*
D19*
X117896000Y-23876000D02*
X120904000Y-26884000D01*
X57825000Y-26757000D02*
X57825000Y-25400000D01*
D20*
X24120000Y-39380000D02*
X25925000Y-39380000D01*
D19*
X95255000Y-69845000D02*
X92085000Y-69845000D01*
D20*
X23368000Y-81073000D02*
X23368000Y-40132000D01*
X127782000Y-22626000D02*
X128524000Y-23368000D01*
D19*
X29718000Y-32258000D02*
X31496000Y-30480000D01*
D20*
X128524000Y-38509800D02*
X128524000Y-56896000D01*
X100076000Y-88900000D02*
X28448000Y-88900000D01*
D19*
X96012000Y-26797000D02*
X96012000Y-43434000D01*
D20*
X28448000Y-88138000D02*
X27305000Y-86995000D01*
D19*
X120904000Y-50292000D02*
X119761000Y-51435000D01*
X118037700Y-38662600D02*
X117965300Y-38735000D01*
X33015000Y-68580000D02*
X30734000Y-68580000D01*
D20*
X128524000Y-87884000D02*
X127508000Y-88900000D01*
D19*
X111760000Y-43815000D02*
X110634700Y-43815000D01*
X108204000Y-85852000D02*
X107696000Y-86360000D01*
X119761000Y-51435000D02*
X116840000Y-51435000D01*
D20*
X27305000Y-86995000D02*
X27305000Y-80010000D01*
D19*
X120904000Y-38662600D02*
X118037700Y-38662600D01*
D20*
X25925000Y-26172000D02*
X37084000Y-26172000D01*
D19*
X52705000Y-68580000D02*
X51054000Y-68580000D01*
X110242000Y-43422300D02*
X110634700Y-43815000D01*
X73406000Y-25400000D02*
X76200000Y-25400000D01*
X120904000Y-61174000D02*
X120904000Y-85344000D01*
X76200000Y-25400000D02*
X77510000Y-25400000D01*
X105265300Y-36195000D02*
X108204000Y-36195000D01*
D20*
X38140000Y-26964000D02*
X38140000Y-30480000D01*
D19*
X120904000Y-38662600D02*
X120904000Y-43815000D01*
X120904000Y-26884000D02*
X120904000Y-33655000D01*
D20*
X128524000Y-23368000D02*
X128524000Y-38509800D01*
D19*
X93385000Y-49530000D02*
X96012000Y-52157000D01*
D20*
X37348000Y-26172000D02*
X51552000Y-26172000D01*
D19*
X29718000Y-67564000D02*
X29718000Y-32258000D01*
X108204000Y-36195000D02*
X108204000Y-43422300D01*
X50292000Y-67818000D02*
X50292000Y-28448000D01*
X124460000Y-43815000D02*
X120904000Y-43815000D01*
D20*
X37084000Y-26172000D02*
X37348000Y-26172000D01*
X23368000Y-40132000D02*
X23368000Y-26924000D01*
D19*
X96012000Y-69088000D02*
X95255000Y-69845000D01*
X104140000Y-36195000D02*
X105265300Y-36195000D01*
D20*
X27305000Y-80010000D02*
X26055000Y-81260000D01*
D19*
X70104000Y-67818000D02*
X70104000Y-28702000D01*
X119888000Y-86360000D02*
X116850000Y-86360000D01*
D20*
X105450000Y-24170000D02*
X105450000Y-31115000D01*
X104160000Y-22880000D02*
X105450000Y-24170000D01*
X76200000Y-25400000D02*
X77510000Y-25400000D01*
D19*
X50800000Y-27940000D02*
X56642000Y-27940000D01*
D20*
X100076000Y-88900000D02*
X99055000Y-87879000D01*
D19*
X56642000Y-27940000D02*
X57825000Y-26757000D01*
X51054000Y-68580000D02*
X50292000Y-67818000D01*
D20*
X28448000Y-88900000D02*
X28448000Y-88138000D01*
D19*
X108204000Y-33869000D02*
X108204000Y-36195000D01*
X108204000Y-60920000D02*
X108204000Y-85852000D01*
X96012000Y-43434000D02*
X96012000Y-43688000D01*
X96012000Y-52157000D02*
X96012000Y-69088000D01*
X31496000Y-30480000D02*
X38140000Y-30480000D01*
X70866000Y-68580000D02*
X70104000Y-67818000D01*
X116840000Y-38735000D02*
X117965300Y-38735000D01*
X105450000Y-31115000D02*
X108204000Y-33869000D01*
D20*
X116332000Y-22860000D02*
X116880000Y-22860000D01*
D19*
X72385000Y-68580000D02*
X70866000Y-68580000D01*
X124460000Y-38735000D02*
X125585300Y-38735000D01*
%TO.N,S1*%
X77464900Y-31605400D02*
X88843600Y-31605400D01*
X115724700Y-61816400D02*
X115724700Y-64434800D01*
X73510300Y-35560000D02*
X77464900Y-31605400D01*
X95119200Y-35666300D02*
X95119200Y-38803100D01*
X102544800Y-52133400D02*
X107312400Y-56901000D01*
X110809300Y-56901000D02*
X115724700Y-61816400D01*
X72385000Y-35560000D02*
X73510300Y-35560000D01*
X97857800Y-42719300D02*
X98569700Y-43431200D01*
X92583600Y-33130700D02*
X95119200Y-35666300D01*
X117093800Y-64625400D02*
X117999100Y-65530700D01*
X117054700Y-67454700D02*
X116850000Y-67454700D01*
X88843600Y-31605400D02*
X90368900Y-33130700D01*
X116850000Y-68580000D02*
X116850000Y-67454700D01*
X102544800Y-48891300D02*
X102544800Y-52133400D01*
X107312400Y-56901000D02*
X110809300Y-56901000D01*
X98569700Y-44916200D02*
X102544800Y-48891300D01*
X115724700Y-64434800D02*
X115915300Y-64625400D01*
X117999100Y-65530700D02*
X117999100Y-66510300D01*
X117999100Y-66510300D02*
X117054700Y-67454700D01*
X90368900Y-33130700D02*
X92583600Y-33130700D01*
X98569700Y-43431200D02*
X98569700Y-44916200D01*
X115915300Y-64625400D02*
X117093800Y-64625400D01*
%TO.N,S2*%
X116850000Y-71120000D02*
X116850000Y-69994700D01*
X118458600Y-62966200D02*
X117761900Y-62269500D01*
X101827200Y-44987000D02*
X100020200Y-43180000D01*
X97392000Y-41198600D02*
X97392000Y-29977600D01*
X108043900Y-53059100D02*
X104107400Y-53059100D01*
X101827200Y-46270600D02*
X101827200Y-44987000D01*
X117131300Y-69994700D02*
X118458600Y-68667400D01*
X116850000Y-69994700D02*
X117131300Y-69994700D01*
X102995200Y-47438600D02*
X101827200Y-46270600D01*
X102995200Y-51946900D02*
X102995200Y-47438600D01*
X104107400Y-53059100D02*
X102995200Y-51946900D01*
X117254300Y-62269500D02*
X108043900Y-53059100D01*
X97392000Y-29977600D02*
X97463300Y-29906300D01*
X118458600Y-68667400D02*
X118458600Y-62966200D01*
X100020200Y-43180000D02*
X99373400Y-43180000D01*
X117761900Y-62269500D02*
X117254300Y-62269500D01*
X99373400Y-43180000D02*
X97392000Y-41198600D01*
%TO.N,+5V*%
X111760000Y-36195000D02*
X111760000Y-37320300D01*
X110704000Y-62444000D02*
X111760000Y-63500000D01*
X83820000Y-30480000D02*
X87625000Y-30480000D01*
X110704000Y-58420000D02*
X110704000Y-62444000D01*
X43815000Y-35560000D02*
X48255000Y-35560000D01*
X63500000Y-30480000D02*
X67945000Y-30480000D01*
X115714700Y-41845800D02*
X116558600Y-42689700D01*
D20*
X97282000Y-26670000D02*
X96587000Y-27365000D01*
D19*
X116558600Y-42689700D02*
X116840000Y-42689700D01*
X98345000Y-24130000D02*
X98345000Y-27860000D01*
X62825000Y-29805000D02*
X63500000Y-30480000D01*
X122896000Y-27900000D02*
X123571000Y-28575000D01*
D20*
X96587000Y-27365000D02*
X96587000Y-48835000D01*
D19*
X43140000Y-34885000D02*
X43815000Y-35560000D01*
X82510000Y-25400000D02*
X82510000Y-29170000D01*
X62825000Y-25400000D02*
X62825000Y-29805000D01*
X122896000Y-23876000D02*
X122896000Y-27900000D01*
X98345000Y-27860000D02*
X99695000Y-29210000D01*
X82510000Y-29170000D02*
X83820000Y-30480000D01*
D20*
X26075000Y-78740000D02*
X24805000Y-80010000D01*
D19*
X98385000Y-49530000D02*
X98385000Y-53285000D01*
X123571000Y-28575000D02*
X124460000Y-28575000D01*
X111760000Y-37320300D02*
X112041400Y-37320300D01*
X43140000Y-30480000D02*
X43140000Y-34885000D01*
X112041400Y-37320300D02*
X115714700Y-40993600D01*
D20*
X26075000Y-60960000D02*
X26075000Y-78740000D01*
D19*
X110450000Y-31115000D02*
X110450000Y-34885000D01*
X116840000Y-43815000D02*
X116840000Y-42689700D01*
X123150000Y-58420000D02*
X123150000Y-62180000D01*
X110450000Y-34885000D02*
X111760000Y-36195000D01*
X115714700Y-40993600D02*
X115714700Y-41845800D01*
X98385000Y-53285000D02*
X99705000Y-54605000D01*
X123150000Y-62180000D02*
X124470000Y-63500000D01*
D20*
X97282000Y-49530000D02*
X98385000Y-49530000D01*
X96587000Y-48835000D02*
X97282000Y-49530000D01*
D19*
%TO.N,~{CS1}*%
X69070300Y-57849200D02*
X69070300Y-67449000D01*
X71334700Y-69713400D02*
X81861900Y-69713400D01*
X68226400Y-57005300D02*
X69070300Y-57849200D01*
X67945000Y-55880000D02*
X67945000Y-57005300D01*
X67945000Y-57005300D02*
X68226400Y-57005300D01*
X91703000Y-73005000D02*
X91964200Y-73005000D01*
X69070300Y-67449000D02*
X71334700Y-69713400D01*
X88139000Y-64903700D02*
X89433400Y-66198100D01*
X86671600Y-64903700D02*
X88139000Y-64903700D01*
X81861900Y-69713400D02*
X86671600Y-64903700D01*
X89433400Y-70735400D02*
X91703000Y-73005000D01*
X89433400Y-66198100D02*
X89433400Y-70735400D01*
%TO.N,~{REN}*%
X103014700Y-40993700D02*
X103014700Y-44385800D01*
X99695000Y-36830000D02*
X99695000Y-37955300D01*
X99695000Y-37955300D02*
X99976300Y-37955300D01*
X103014700Y-44385800D02*
X103858600Y-45229700D01*
X99976300Y-37955300D02*
X103014700Y-40993700D01*
X104140000Y-46355000D02*
X104140000Y-45229700D01*
X103858600Y-45229700D02*
X104140000Y-45229700D01*
%TO.N,Net-(U7-Cp)*%
X101644200Y-49942400D02*
X101644200Y-52506600D01*
X111478700Y-85234700D02*
X111760000Y-85234700D01*
X100785300Y-49083500D02*
X101644200Y-49942400D01*
X108666800Y-59529200D02*
X108666800Y-82422800D01*
X111760000Y-86360000D02*
X111760000Y-85234700D01*
X108666800Y-82422800D02*
X111478700Y-85234700D01*
X101644200Y-52506600D02*
X108666800Y-59529200D01*
%TO.N,Net-(U1-Pad6)*%
X102502600Y-46309100D02*
X102502600Y-43102400D01*
X100040200Y-40640000D02*
X99338000Y-40640000D01*
X103963100Y-47769700D02*
X103963100Y-47769600D01*
X99338000Y-40640000D02*
X98151400Y-39453400D01*
X104140000Y-47769700D02*
X103963100Y-47769700D01*
X103963100Y-47769600D02*
X102502600Y-46309100D01*
X102502600Y-43102400D02*
X100040200Y-40640000D01*
X104140000Y-48895000D02*
X104140000Y-47769700D01*
X98151400Y-39453400D02*
X98151400Y-38678200D01*
%TO.N,Net-(U1-Pad8)*%
X109591500Y-39199000D02*
X109591500Y-40704000D01*
X112885300Y-49465800D02*
X112041400Y-50309700D01*
X111760000Y-51435000D02*
X111760000Y-50309700D01*
X112885300Y-43348500D02*
X112885300Y-49465800D01*
X112081800Y-42545000D02*
X112885300Y-43348500D01*
X109591500Y-40704000D02*
X111432500Y-42545000D01*
X112041400Y-50309700D02*
X111760000Y-50309700D01*
X111432500Y-42545000D02*
X112081800Y-42545000D01*
%TO.N,S3*%
X116273500Y-60490000D02*
X109086100Y-53302600D01*
X82019900Y-24229100D02*
X83390800Y-24229100D01*
X83390800Y-24229100D02*
X89671900Y-30510200D01*
X117131300Y-72534700D02*
X118909000Y-70757000D01*
X72385000Y-33020000D02*
X73510300Y-33020000D01*
X89671900Y-30510200D02*
X94194000Y-30510200D01*
X116619300Y-60490000D02*
X116273500Y-60490000D01*
X118909000Y-70757000D02*
X118909000Y-62779700D01*
X116850000Y-73660000D02*
X116850000Y-72534700D01*
X116850000Y-72534700D02*
X117131300Y-72534700D01*
X73510300Y-32738700D02*
X82019900Y-24229100D01*
X73510300Y-33020000D02*
X73510300Y-32738700D01*
X118909000Y-62779700D02*
X116619300Y-60490000D01*
X109086100Y-53302600D02*
X109086100Y-45440800D01*
%TO.N,S0*%
X115724700Y-66040000D02*
X114599400Y-64914700D01*
X92015800Y-48052300D02*
X92015800Y-47451300D01*
X96691700Y-63383900D02*
X96691700Y-51799300D01*
X114599400Y-64914700D02*
X109946000Y-64914700D01*
X93636100Y-52310400D02*
X91775100Y-50449400D01*
X99347800Y-66040000D02*
X96691700Y-63383900D01*
X87625000Y-41765300D02*
X87906400Y-41765300D01*
X116850000Y-66040000D02*
X115724700Y-66040000D01*
X71902800Y-44305800D02*
X70856200Y-43259200D01*
X88870300Y-44305800D02*
X88750300Y-44305800D01*
X87625000Y-40640000D02*
X87625000Y-41765300D01*
X96691700Y-51799300D02*
X96691600Y-51799300D01*
X70856200Y-43259200D02*
X70856200Y-40001500D01*
X104140000Y-66040000D02*
X99347800Y-66040000D01*
X92015800Y-47451300D02*
X88870300Y-44305800D01*
X88750300Y-42609200D02*
X88750300Y-44305800D01*
X88750300Y-44305800D02*
X71902800Y-44305800D01*
X91775100Y-48293000D02*
X92015800Y-48052300D01*
X87906400Y-41765300D02*
X88750300Y-42609200D01*
X91775100Y-50449400D02*
X91775100Y-48293000D01*
%TO.N,Net-(U1-Pad9)*%
X105284200Y-66490400D02*
X105284200Y-61407100D01*
X105284200Y-61407100D02*
X101507300Y-57630200D01*
X104469600Y-67305000D02*
X105284200Y-66490400D01*
X101507300Y-57630200D02*
X101507300Y-55849700D01*
X99705000Y-67305000D02*
X104469600Y-67305000D01*
%TO.N,S6*%
X112885300Y-73660000D02*
X112885300Y-73941300D01*
X99705000Y-64765000D02*
X99705000Y-63639700D01*
X117131400Y-80154700D02*
X116850000Y-80154700D01*
X100830300Y-62795800D02*
X99986400Y-63639700D01*
X111760000Y-73660000D02*
X112885300Y-73660000D01*
X99986400Y-63639700D02*
X99705000Y-63639700D01*
X100775000Y-56491100D02*
X100830300Y-56546400D01*
X117975300Y-79310800D02*
X117131400Y-80154700D01*
X97508900Y-45997700D02*
X99574800Y-48063600D01*
X117975300Y-78259200D02*
X117975300Y-79310800D01*
X116414000Y-77470000D02*
X117186100Y-77470000D01*
X99574800Y-52351400D02*
X100873200Y-53649800D01*
X117186100Y-77470000D02*
X117975300Y-78259200D01*
X100873200Y-53649800D02*
X100873200Y-55429400D01*
X100775000Y-55527600D02*
X100775000Y-56491100D01*
X100873200Y-55429400D02*
X100775000Y-55527600D01*
X116850000Y-81280000D02*
X116850000Y-80154700D01*
X112885300Y-73941300D02*
X116414000Y-77470000D01*
X100830300Y-56546400D02*
X100830300Y-62795800D01*
X99574800Y-48063600D02*
X99574800Y-52351400D01*
%TO.N,S5*%
X111760000Y-76200000D02*
X112885300Y-76200000D01*
X116850000Y-78740000D02*
X115724700Y-78740000D01*
X112885300Y-76200000D02*
X115425300Y-78740000D01*
X115425300Y-78740000D02*
X115724700Y-78740000D01*
%TO.N,Net-(U1-Pad3)*%
X92366300Y-66179700D02*
X95274500Y-63271500D01*
X92085000Y-66179700D02*
X92366300Y-66179700D01*
X92085000Y-67305000D02*
X92085000Y-66179700D01*
X95274500Y-63271500D02*
X95274500Y-54050900D01*
%TO.N,S4*%
X87625000Y-35560000D02*
X88750300Y-35560000D01*
X112885400Y-70606500D02*
X112885400Y-72235400D01*
X97680700Y-44962400D02*
X97690200Y-44962400D01*
X102094500Y-52320000D02*
X109179400Y-59404900D01*
X109179400Y-67657200D02*
X111372200Y-69850000D01*
X88750300Y-35560000D02*
X91145700Y-37955400D01*
X111372200Y-69850000D02*
X112128900Y-69850000D01*
X97690200Y-44962400D02*
X102094500Y-49366700D01*
X91145700Y-37955400D02*
X92385500Y-37955400D01*
X102094500Y-49366700D02*
X102094500Y-52320000D01*
X109179400Y-59404900D02*
X109179400Y-67657200D01*
X92385500Y-37955400D02*
X93505600Y-39075500D01*
X112885400Y-72235400D02*
X116850000Y-76200000D01*
X112128900Y-69850000D02*
X112885400Y-70606500D01*
D20*
%TO.N,VCC*%
X27425000Y-40420000D02*
X25925000Y-41920000D01*
X25925000Y-31252000D02*
X27425000Y-32752000D01*
X27425000Y-32752000D02*
X27425000Y-40420000D01*
X25925000Y-41920000D02*
X25925000Y-53190000D01*
X25925000Y-53190000D02*
X26075000Y-53340000D01*
D19*
%TO.N,~{CS3}*%
X48255000Y-55880000D02*
X48255000Y-54754700D01*
X92075000Y-34290000D02*
X90949700Y-34290000D01*
X83989400Y-32369400D02*
X85910000Y-34290000D01*
X85910000Y-34290000D02*
X90949700Y-34290000D01*
X48536300Y-54754700D02*
X49439400Y-53851600D01*
X83377800Y-32369400D02*
X83989400Y-32369400D01*
X48255000Y-54754700D02*
X48536300Y-54754700D01*
X49439400Y-53851600D02*
X49439400Y-32315500D01*
%TO.N,S7*%
X118439900Y-81386100D02*
X118439900Y-76188600D01*
X112041300Y-67165300D02*
X111760000Y-67165300D01*
X117131300Y-82694700D02*
X118439900Y-81386100D01*
X118439900Y-76188600D02*
X117181300Y-74930000D01*
X116850000Y-82694700D02*
X117131300Y-82694700D01*
X116850000Y-83820000D02*
X116850000Y-82694700D01*
X117181300Y-74930000D02*
X116458000Y-74930000D01*
X116458000Y-74930000D02*
X114305000Y-72777000D01*
X114305000Y-72777000D02*
X114305000Y-69429000D01*
X114305000Y-69429000D02*
X112041300Y-67165300D01*
X111760000Y-66040000D02*
X111760000Y-67165300D01*
%TO.N,Net-(U8-CE)*%
X124470000Y-66040000D02*
X124470000Y-64914700D01*
X112804100Y-54392700D02*
X116351200Y-54392700D01*
X122531600Y-60573100D02*
X122531600Y-63257600D01*
X122531600Y-63257600D02*
X124188700Y-64914700D01*
X124188700Y-64914700D02*
X124470000Y-64914700D01*
X116351200Y-54392700D02*
X122531600Y-60573100D01*
%TD*%
M02*
