%TF.GenerationSoftware,KiCad,Pcbnew,8.0.2*%
%TF.CreationDate,2024-05-20T09:04:44+02:00*%
%TF.ProjectId,p2000t-ram-expansion-board-1056kb,70323030-3074-42d7-9261-6d2d65787061,1*%
%TF.SameCoordinates,Original*%
%TF.FileFunction,Legend,Bot*%
%TF.FilePolarity,Positive*%
%FSLAX46Y46*%
G04 Gerber Fmt 4.6, Leading zero omitted, Abs format (unit mm)*
G04 Created by KiCad (PCBNEW 8.0.2) date 2024-05-20 09:04:44*
%MOMM*%
%LPD*%
G01*
G04 APERTURE LIST*
%ADD10C,0.150000*%
%ADD11C,0.120000*%
G04 APERTURE END LIST*
D10*
X28226190Y-88288152D02*
X28226190Y-89145295D01*
X28226190Y-89145295D02*
X28273809Y-89240533D01*
X28273809Y-89240533D02*
X28369047Y-89288152D01*
X28369047Y-89288152D02*
X28416666Y-89288152D01*
X28226190Y-87954819D02*
X28273809Y-88002438D01*
X28273809Y-88002438D02*
X28226190Y-88050057D01*
X28226190Y-88050057D02*
X28178571Y-88002438D01*
X28178571Y-88002438D02*
X28226190Y-87954819D01*
X28226190Y-87954819D02*
X28226190Y-88050057D01*
X27607143Y-88954819D02*
X27702381Y-88907200D01*
X27702381Y-88907200D02*
X27750000Y-88811961D01*
X27750000Y-88811961D02*
X27750000Y-87954819D01*
X26797619Y-88907200D02*
X26892857Y-88954819D01*
X26892857Y-88954819D02*
X27083333Y-88954819D01*
X27083333Y-88954819D02*
X27178571Y-88907200D01*
X27178571Y-88907200D02*
X27226190Y-88859580D01*
X27226190Y-88859580D02*
X27273809Y-88764342D01*
X27273809Y-88764342D02*
X27273809Y-88478628D01*
X27273809Y-88478628D02*
X27226190Y-88383390D01*
X27226190Y-88383390D02*
X27178571Y-88335771D01*
X27178571Y-88335771D02*
X27083333Y-88288152D01*
X27083333Y-88288152D02*
X26892857Y-88288152D01*
X26892857Y-88288152D02*
X26797619Y-88335771D01*
X26369047Y-88288152D02*
X26369047Y-89145295D01*
X26369047Y-89145295D02*
X26416666Y-89240533D01*
X26416666Y-89240533D02*
X26511904Y-89288152D01*
X26511904Y-89288152D02*
X26559523Y-89288152D01*
X26369047Y-87954819D02*
X26416666Y-88002438D01*
X26416666Y-88002438D02*
X26369047Y-88050057D01*
X26369047Y-88050057D02*
X26321428Y-88002438D01*
X26321428Y-88002438D02*
X26369047Y-87954819D01*
X26369047Y-87954819D02*
X26369047Y-88050057D01*
X25750000Y-88954819D02*
X25845238Y-88907200D01*
X25845238Y-88907200D02*
X25892857Y-88811961D01*
X25892857Y-88811961D02*
X25892857Y-87954819D01*
X24940476Y-88907200D02*
X25035714Y-88954819D01*
X25035714Y-88954819D02*
X25226190Y-88954819D01*
X25226190Y-88954819D02*
X25321428Y-88907200D01*
X25321428Y-88907200D02*
X25369047Y-88859580D01*
X25369047Y-88859580D02*
X25416666Y-88764342D01*
X25416666Y-88764342D02*
X25416666Y-88478628D01*
X25416666Y-88478628D02*
X25369047Y-88383390D01*
X25369047Y-88383390D02*
X25321428Y-88335771D01*
X25321428Y-88335771D02*
X25226190Y-88288152D01*
X25226190Y-88288152D02*
X25035714Y-88288152D01*
X25035714Y-88288152D02*
X24940476Y-88335771D01*
X24511904Y-88288152D02*
X24511904Y-89145295D01*
X24511904Y-89145295D02*
X24559523Y-89240533D01*
X24559523Y-89240533D02*
X24654761Y-89288152D01*
X24654761Y-89288152D02*
X24702380Y-89288152D01*
X24511904Y-87954819D02*
X24559523Y-88002438D01*
X24559523Y-88002438D02*
X24511904Y-88050057D01*
X24511904Y-88050057D02*
X24464285Y-88002438D01*
X24464285Y-88002438D02*
X24511904Y-87954819D01*
X24511904Y-87954819D02*
X24511904Y-88050057D01*
X23892857Y-88954819D02*
X23988095Y-88907200D01*
X23988095Y-88907200D02*
X24035714Y-88811961D01*
X24035714Y-88811961D02*
X24035714Y-87954819D01*
X23083333Y-88907200D02*
X23178571Y-88954819D01*
X23178571Y-88954819D02*
X23369047Y-88954819D01*
X23369047Y-88954819D02*
X23464285Y-88907200D01*
X23464285Y-88907200D02*
X23511904Y-88859580D01*
X23511904Y-88859580D02*
X23559523Y-88764342D01*
X23559523Y-88764342D02*
X23559523Y-88478628D01*
X23559523Y-88478628D02*
X23511904Y-88383390D01*
X23511904Y-88383390D02*
X23464285Y-88335771D01*
X23464285Y-88335771D02*
X23369047Y-88288152D01*
X23369047Y-88288152D02*
X23178571Y-88288152D01*
X23178571Y-88288152D02*
X23083333Y-88335771D01*
X22654761Y-88288152D02*
X22654761Y-89145295D01*
X22654761Y-89145295D02*
X22702380Y-89240533D01*
X22702380Y-89240533D02*
X22797618Y-89288152D01*
X22797618Y-89288152D02*
X22845237Y-89288152D01*
X22654761Y-87954819D02*
X22702380Y-88002438D01*
X22702380Y-88002438D02*
X22654761Y-88050057D01*
X22654761Y-88050057D02*
X22607142Y-88002438D01*
X22607142Y-88002438D02*
X22654761Y-87954819D01*
X22654761Y-87954819D02*
X22654761Y-88050057D01*
X22035714Y-88954819D02*
X22130952Y-88907200D01*
X22130952Y-88907200D02*
X22178571Y-88811961D01*
X22178571Y-88811961D02*
X22178571Y-87954819D01*
X21226190Y-88907200D02*
X21321428Y-88954819D01*
X21321428Y-88954819D02*
X21511904Y-88954819D01*
X21511904Y-88954819D02*
X21607142Y-88907200D01*
X21607142Y-88907200D02*
X21654761Y-88859580D01*
X21654761Y-88859580D02*
X21702380Y-88764342D01*
X21702380Y-88764342D02*
X21702380Y-88478628D01*
X21702380Y-88478628D02*
X21654761Y-88383390D01*
X21654761Y-88383390D02*
X21607142Y-88335771D01*
X21607142Y-88335771D02*
X21511904Y-88288152D01*
X21511904Y-88288152D02*
X21321428Y-88288152D01*
X21321428Y-88288152D02*
X21226190Y-88335771D01*
D11*
%TO.C,J1*%
X100385000Y-76648000D02*
X49465000Y-76648000D01*
X100385000Y-79248000D02*
X100385000Y-76648000D01*
X97785000Y-79248000D02*
X100385000Y-79248000D01*
X100385000Y-81848000D02*
X100385000Y-80518000D01*
X99055000Y-81848000D02*
X100385000Y-81848000D01*
X97785000Y-81848000D02*
X97785000Y-79248000D01*
X97785000Y-81848000D02*
X49465000Y-81848000D01*
X49465000Y-81848000D02*
X49465000Y-76648000D01*
%TD*%
M02*
