%TF.GenerationSoftware,KiCad,Pcbnew,8.0.2*%
%TF.CreationDate,2024-05-20T09:04:44+02:00*%
%TF.ProjectId,p2000t-ram-expansion-board-1056kb,70323030-3074-42d7-9261-6d2d65787061,1*%
%TF.SameCoordinates,Original*%
%TF.FileFunction,Copper,L2,Bot*%
%TF.FilePolarity,Positive*%
%FSLAX46Y46*%
G04 Gerber Fmt 4.6, Leading zero omitted, Abs format (unit mm)*
G04 Created by KiCad (PCBNEW 8.0.2) date 2024-05-20 09:04:44*
%MOMM*%
%LPD*%
G01*
G04 APERTURE LIST*
%TA.AperFunction,ComponentPad*%
%ADD10C,1.600000*%
%TD*%
%TA.AperFunction,ComponentPad*%
%ADD11O,1.600000X1.600000*%
%TD*%
%TA.AperFunction,ComponentPad*%
%ADD12R,1.600000X1.600000*%
%TD*%
%TA.AperFunction,ComponentPad*%
%ADD13O,1.700000X1.700000*%
%TD*%
%TA.AperFunction,ComponentPad*%
%ADD14R,1.700000X1.700000*%
%TD*%
%TA.AperFunction,ComponentPad*%
%ADD15C,3.000000*%
%TD*%
%TA.AperFunction,ComponentPad*%
%ADD16R,3.000000X3.000000*%
%TD*%
%TA.AperFunction,ViaPad*%
%ADD17C,0.800000*%
%TD*%
%TA.AperFunction,Conductor*%
%ADD18C,0.250000*%
%TD*%
%TA.AperFunction,Conductor*%
%ADD19C,0.500000*%
%TD*%
G04 APERTURE END LIST*
D10*
%TO.P,C1,2*%
%TO.N,GND*%
X38140000Y-30480000D03*
%TO.P,C1,1*%
%TO.N,+5V*%
X43140000Y-30480000D03*
%TD*%
D11*
%TO.P,U5,20,VCC*%
%TO.N,+5V*%
X124460000Y-28575000D03*
%TO.P,U5,19,P=R*%
%TO.N,~{P=R}*%
X124460000Y-31115000D03*
%TO.P,U5,18,R7*%
%TO.N,+5V*%
X124460000Y-33655000D03*
%TO.P,U5,17,P7*%
%TO.N,A7*%
X124460000Y-36195000D03*
%TO.P,U5,16,R6*%
%TO.N,GND*%
X124460000Y-38735000D03*
%TO.P,U5,15,P6*%
%TO.N,A6*%
X124460000Y-41275000D03*
%TO.P,U5,14,R5*%
%TO.N,GND*%
X124460000Y-43815000D03*
%TO.P,U5,13,P5*%
%TO.N,A5*%
X124460000Y-46355000D03*
%TO.P,U5,12,R4*%
%TO.N,+5V*%
X124460000Y-48895000D03*
%TO.P,U5,11,P4*%
%TO.N,A4*%
X124460000Y-51435000D03*
%TO.P,U5,10,GND*%
%TO.N,GND*%
X116840000Y-51435000D03*
%TO.P,U5,9,R3*%
X116840000Y-48895000D03*
%TO.P,U5,8,P3*%
%TO.N,A3*%
X116840000Y-46355000D03*
%TO.P,U5,7,R2*%
%TO.N,+5V*%
X116840000Y-43815000D03*
%TO.P,U5,6,P2*%
%TO.N,A2*%
X116840000Y-41275000D03*
%TO.P,U5,5,R1*%
%TO.N,GND*%
X116840000Y-38735000D03*
%TO.P,U5,4,P1*%
%TO.N,A1*%
X116840000Y-36195000D03*
%TO.P,U5,3,R0*%
%TO.N,GND*%
X116840000Y-33655000D03*
%TO.P,U5,2,P0*%
%TO.N,A0*%
X116840000Y-31115000D03*
D12*
%TO.P,U5,1,G*%
%TO.N,~{IORQ}*%
X116840000Y-28575000D03*
%TD*%
D11*
%TO.P,U2,32,VCC*%
%TO.N,+5V*%
X67945000Y-30480000D03*
%TO.P,U2,31,A15*%
%TO.N,S2*%
X67945000Y-33020000D03*
%TO.P,U2,30,A17*%
%TO.N,S4*%
X67945000Y-35560000D03*
%TO.P,U2,29,WE#*%
%TO.N,~{WR}*%
X67945000Y-38100000D03*
%TO.P,U2,28,A13*%
%TO.N,S0*%
X67945000Y-40640000D03*
%TO.P,U2,27,A8*%
%TO.N,A8*%
X67945000Y-43180000D03*
%TO.P,U2,26,A9*%
%TO.N,A9*%
X67945000Y-45720000D03*
%TO.P,U2,25,A11*%
%TO.N,A11*%
X67945000Y-48260000D03*
%TO.P,U2,24,OE#*%
%TO.N,~{RD}*%
X67945000Y-50800000D03*
%TO.P,U2,23,A10*%
%TO.N,A10*%
X67945000Y-53340000D03*
%TO.P,U2,22,CE#*%
%TO.N,~{CS1}*%
X67945000Y-55880000D03*
%TO.P,U2,21,DQ7*%
%TO.N,D7*%
X67945000Y-58420000D03*
%TO.P,U2,20,DQ6*%
%TO.N,D6*%
X67945000Y-60960000D03*
%TO.P,U2,19,DQ5*%
%TO.N,D5*%
X67945000Y-63500000D03*
%TO.P,U2,18,DQ4*%
%TO.N,D4*%
X67945000Y-66040000D03*
%TO.P,U2,17,DQ3*%
%TO.N,D3*%
X67945000Y-68580000D03*
%TO.P,U2,16,VSS*%
%TO.N,GND*%
X52705000Y-68580000D03*
%TO.P,U2,15,DQ2*%
%TO.N,D2*%
X52705000Y-66040000D03*
%TO.P,U2,14,DQ1*%
%TO.N,D1*%
X52705000Y-63500000D03*
%TO.P,U2,13,DQ0*%
%TO.N,D0*%
X52705000Y-60960000D03*
%TO.P,U2,12,A0*%
%TO.N,A0*%
X52705000Y-58420000D03*
%TO.P,U2,11,A1*%
%TO.N,A1*%
X52705000Y-55880000D03*
%TO.P,U2,10,A2*%
%TO.N,A2*%
X52705000Y-53340000D03*
%TO.P,U2,9,A3*%
%TO.N,A3*%
X52705000Y-50800000D03*
%TO.P,U2,8,A4*%
%TO.N,A4*%
X52705000Y-48260000D03*
%TO.P,U2,7,A5*%
%TO.N,A5*%
X52705000Y-45720000D03*
%TO.P,U2,6,A6*%
%TO.N,A6*%
X52705000Y-43180000D03*
%TO.P,U2,5,A7*%
%TO.N,A7*%
X52705000Y-40640000D03*
%TO.P,U2,4,A12*%
%TO.N,A12*%
X52705000Y-38100000D03*
%TO.P,U2,3,A14*%
%TO.N,S1*%
X52705000Y-35560000D03*
%TO.P,U2,2,A16*%
%TO.N,S3*%
X52705000Y-33020000D03*
D12*
%TO.P,U2,1,A18*%
%TO.N,S5*%
X52705000Y-30480000D03*
%TD*%
D10*
%TO.P,C9,2*%
%TO.N,GND*%
X93345000Y-24130000D03*
%TO.P,C9,1*%
%TO.N,+5V*%
X98345000Y-24130000D03*
%TD*%
%TO.P,C2,2*%
%TO.N,GND*%
X117896000Y-23876000D03*
%TO.P,C2,1*%
%TO.N,+5V*%
X122896000Y-23876000D03*
%TD*%
D11*
%TO.P,D1,2,A*%
%TO.N,VCC*%
X26075000Y-53340000D03*
D12*
%TO.P,D1,1,K*%
%TO.N,+5V*%
X26075000Y-60960000D03*
%TD*%
D10*
%TO.P,C5,2*%
%TO.N,GND*%
X77510000Y-25400000D03*
%TO.P,C5,1*%
%TO.N,+5V*%
X82510000Y-25400000D03*
%TD*%
%TO.P,C6,2*%
%TO.N,GND*%
X57825000Y-25400000D03*
%TO.P,C6,1*%
%TO.N,+5V*%
X62825000Y-25400000D03*
%TD*%
D11*
%TO.P,U1,14,VCC*%
%TO.N,+5V*%
X111760000Y-36195000D03*
%TO.P,U1,13*%
%TO.N,~{MRQ}*%
X111760000Y-38735000D03*
%TO.P,U1,12*%
%TO.N,Net-(U1-Pad12)*%
X111760000Y-41275000D03*
%TO.P,U1,11*%
%TO.N,GND*%
X111760000Y-43815000D03*
%TO.P,U1,10*%
%TO.N,unconnected-(U1-Pad10)*%
X111760000Y-46355000D03*
%TO.P,U1,9*%
%TO.N,Net-(U1-Pad9)*%
X111760000Y-48895000D03*
%TO.P,U1,8*%
%TO.N,Net-(U1-Pad8)*%
X111760000Y-51435000D03*
%TO.P,U1,7,GND*%
%TO.N,GND*%
X104140000Y-51435000D03*
%TO.P,U1,6*%
%TO.N,Net-(U1-Pad6)*%
X104140000Y-48895000D03*
%TO.P,U1,5*%
%TO.N,~{REN}*%
X104140000Y-46355000D03*
%TO.P,U1,4*%
%TO.N,Net-(U7-Cp)*%
X104140000Y-43815000D03*
%TO.P,U1,3*%
%TO.N,Net-(U1-Pad3)*%
X104140000Y-41275000D03*
%TO.P,U1,2*%
%TO.N,unconnected-(U1-Pad2)*%
X104140000Y-38735000D03*
D12*
%TO.P,U1,1*%
%TO.N,GND*%
X104140000Y-36195000D03*
%TD*%
D10*
%TO.P,C7,2*%
%TO.N,GND*%
X105450000Y-31115000D03*
%TO.P,C7,1*%
%TO.N,+5V*%
X110450000Y-31115000D03*
%TD*%
D11*
%TO.P,U8,20,VCC*%
%TO.N,+5V*%
X124470000Y-63500000D03*
%TO.P,U8,19,CE*%
%TO.N,Net-(U8-CE)*%
X124470000Y-66040000D03*
%TO.P,U8,18,B0*%
%TO.N,D0*%
X124470000Y-68580000D03*
%TO.P,U8,17,B1*%
%TO.N,D1*%
X124470000Y-71120000D03*
%TO.P,U8,16,B2*%
%TO.N,D2*%
X124470000Y-73660000D03*
%TO.P,U8,15,B3*%
%TO.N,D3*%
X124470000Y-76200000D03*
%TO.P,U8,14,B4*%
%TO.N,D4*%
X124470000Y-78740000D03*
%TO.P,U8,13,B5*%
%TO.N,D5*%
X124470000Y-81280000D03*
%TO.P,U8,12,B6*%
%TO.N,D6*%
X124470000Y-83820000D03*
%TO.P,U8,11,B7*%
%TO.N,D7*%
X124470000Y-86360000D03*
%TO.P,U8,10,GND*%
%TO.N,GND*%
X116850000Y-86360000D03*
%TO.P,U8,9,A7*%
%TO.N,S7*%
X116850000Y-83820000D03*
%TO.P,U8,8,A6*%
%TO.N,S6*%
X116850000Y-81280000D03*
%TO.P,U8,7,A5*%
%TO.N,S5*%
X116850000Y-78740000D03*
%TO.P,U8,6,A4*%
%TO.N,S4*%
X116850000Y-76200000D03*
%TO.P,U8,5,A3*%
%TO.N,S3*%
X116850000Y-73660000D03*
%TO.P,U8,4,A2*%
%TO.N,S2*%
X116850000Y-71120000D03*
%TO.P,U8,3,A1*%
%TO.N,S1*%
X116850000Y-68580000D03*
%TO.P,U8,2,A0*%
%TO.N,S0*%
X116850000Y-66040000D03*
D12*
%TO.P,U8,1,A->B*%
%TO.N,+5V*%
X116850000Y-63500000D03*
%TD*%
D11*
%TO.P,U9,32,VCC*%
%TO.N,+5V*%
X87625000Y-30480000D03*
%TO.P,U9,31,A15*%
%TO.N,S2*%
X87625000Y-33020000D03*
%TO.P,U9,30,A17*%
%TO.N,S4*%
X87625000Y-35560000D03*
%TO.P,U9,29,WE#*%
%TO.N,~{WR}*%
X87625000Y-38100000D03*
%TO.P,U9,28,A13*%
%TO.N,S0*%
X87625000Y-40640000D03*
%TO.P,U9,27,A8*%
%TO.N,A8*%
X87625000Y-43180000D03*
%TO.P,U9,26,A9*%
%TO.N,A9*%
X87625000Y-45720000D03*
%TO.P,U9,25,A11*%
%TO.N,A11*%
X87625000Y-48260000D03*
%TO.P,U9,24,OE#*%
%TO.N,~{RD}*%
X87625000Y-50800000D03*
%TO.P,U9,23,A10*%
%TO.N,A10*%
X87625000Y-53340000D03*
%TO.P,U9,22,CE#*%
%TO.N,~{CS2}*%
X87625000Y-55880000D03*
%TO.P,U9,21,DQ7*%
%TO.N,D7*%
X87625000Y-58420000D03*
%TO.P,U9,20,DQ6*%
%TO.N,D6*%
X87625000Y-60960000D03*
%TO.P,U9,19,DQ5*%
%TO.N,D5*%
X87625000Y-63500000D03*
%TO.P,U9,18,DQ4*%
%TO.N,D4*%
X87625000Y-66040000D03*
%TO.P,U9,17,DQ3*%
%TO.N,D3*%
X87625000Y-68580000D03*
%TO.P,U9,16,VSS*%
%TO.N,GND*%
X72385000Y-68580000D03*
%TO.P,U9,15,DQ2*%
%TO.N,D2*%
X72385000Y-66040000D03*
%TO.P,U9,14,DQ1*%
%TO.N,D1*%
X72385000Y-63500000D03*
%TO.P,U9,13,DQ0*%
%TO.N,D0*%
X72385000Y-60960000D03*
%TO.P,U9,12,A0*%
%TO.N,A0*%
X72385000Y-58420000D03*
%TO.P,U9,11,A1*%
%TO.N,A1*%
X72385000Y-55880000D03*
%TO.P,U9,10,A2*%
%TO.N,A2*%
X72385000Y-53340000D03*
%TO.P,U9,9,A3*%
%TO.N,A3*%
X72385000Y-50800000D03*
%TO.P,U9,8,A4*%
%TO.N,A4*%
X72385000Y-48260000D03*
%TO.P,U9,7,A5*%
%TO.N,A5*%
X72385000Y-45720000D03*
%TO.P,U9,6,A6*%
%TO.N,A6*%
X72385000Y-43180000D03*
%TO.P,U9,5,A7*%
%TO.N,A7*%
X72385000Y-40640000D03*
%TO.P,U9,4,A12*%
%TO.N,A12*%
X72385000Y-38100000D03*
%TO.P,U9,3,A14*%
%TO.N,S1*%
X72385000Y-35560000D03*
%TO.P,U9,2,A16*%
%TO.N,S3*%
X72385000Y-33020000D03*
D12*
%TO.P,U9,1,A18*%
%TO.N,S5*%
X72385000Y-30480000D03*
%TD*%
D10*
%TO.P,C3,2*%
%TO.N,GND*%
X27305000Y-80010000D03*
D12*
%TO.P,C3,1*%
%TO.N,+5V*%
X24805000Y-80010000D03*
%TD*%
D10*
%TO.P,C10,2*%
%TO.N,GND*%
X105704000Y-58420000D03*
%TO.P,C10,1*%
%TO.N,+5V*%
X110704000Y-58420000D03*
%TD*%
%TO.P,C4,2*%
%TO.N,GND*%
X93385000Y-49530000D03*
%TO.P,C4,1*%
%TO.N,+5V*%
X98385000Y-49530000D03*
%TD*%
D11*
%TO.P,U4,28,VCC*%
%TO.N,+5V*%
X48255000Y-35560000D03*
%TO.P,U4,27,~{WE}*%
%TO.N,~{WR}*%
X48255000Y-38100000D03*
%TO.P,U4,26,A13*%
%TO.N,A13*%
X48255000Y-40640000D03*
%TO.P,U4,25,A8*%
%TO.N,A8*%
X48255000Y-43180000D03*
%TO.P,U4,24,A9*%
%TO.N,A9*%
X48255000Y-45720000D03*
%TO.P,U4,23,A11*%
%TO.N,A11*%
X48255000Y-48260000D03*
%TO.P,U4,22,~{OE}*%
%TO.N,~{RD}*%
X48255000Y-50800000D03*
%TO.P,U4,21,A10*%
%TO.N,A10*%
X48255000Y-53340000D03*
%TO.P,U4,20,~{CS}*%
%TO.N,~{CS3}*%
X48255000Y-55880000D03*
%TO.P,U4,19,Q7*%
%TO.N,D7*%
X48255000Y-58420000D03*
%TO.P,U4,18,Q6*%
%TO.N,D6*%
X48255000Y-60960000D03*
%TO.P,U4,17,Q5*%
%TO.N,D5*%
X48255000Y-63500000D03*
%TO.P,U4,16,Q4*%
%TO.N,D4*%
X48255000Y-66040000D03*
%TO.P,U4,15,Q3*%
%TO.N,D3*%
X48255000Y-68580000D03*
%TO.P,U4,14,GND*%
%TO.N,GND*%
X33015000Y-68580000D03*
%TO.P,U4,13,Q2*%
%TO.N,D2*%
X33015000Y-66040000D03*
%TO.P,U4,12,Q1*%
%TO.N,D1*%
X33015000Y-63500000D03*
%TO.P,U4,11,Q0*%
%TO.N,D0*%
X33015000Y-60960000D03*
%TO.P,U4,10,A0*%
%TO.N,A0*%
X33015000Y-58420000D03*
%TO.P,U4,9,A1*%
%TO.N,A1*%
X33015000Y-55880000D03*
%TO.P,U4,8,A2*%
%TO.N,A2*%
X33015000Y-53340000D03*
%TO.P,U4,7,A3*%
%TO.N,A3*%
X33015000Y-50800000D03*
%TO.P,U4,6,A4*%
%TO.N,A4*%
X33015000Y-48260000D03*
%TO.P,U4,5,A5*%
%TO.N,A5*%
X33015000Y-45720000D03*
%TO.P,U4,4,A6*%
%TO.N,A6*%
X33015000Y-43180000D03*
%TO.P,U4,3,A7*%
%TO.N,A7*%
X33015000Y-40640000D03*
%TO.P,U4,2,A12*%
%TO.N,A12*%
X33015000Y-38100000D03*
D12*
%TO.P,U4,1,A14*%
%TO.N,S7*%
X33015000Y-35560000D03*
%TD*%
D13*
%TO.P,J2,2,Pin_2*%
%TO.N,VCC*%
X25925000Y-41920000D03*
D14*
%TO.P,J2,1,Pin_1*%
%TO.N,GND*%
X25925000Y-39380000D03*
%TD*%
D11*
%TO.P,U6,14,VCC*%
%TO.N,+5V*%
X99705000Y-54605000D03*
%TO.P,U6,13*%
%TO.N,~{P=R}*%
X99705000Y-57145000D03*
%TO.P,U6,12*%
%TO.N,~{RD}*%
X99705000Y-59685000D03*
%TO.P,U6,11*%
%TO.N,Net-(U8-CE)*%
X99705000Y-62225000D03*
%TO.P,U6,10*%
%TO.N,S6*%
X99705000Y-64765000D03*
%TO.P,U6,9*%
%TO.N,Net-(U1-Pad9)*%
X99705000Y-67305000D03*
%TO.P,U6,8*%
%TO.N,~{CS1}*%
X99705000Y-69845000D03*
%TO.P,U6,7,GND*%
%TO.N,GND*%
X92085000Y-69845000D03*
%TO.P,U6,6*%
%TO.N,Net-(U1-Pad3)*%
X92085000Y-67305000D03*
%TO.P,U6,5*%
%TO.N,~{WR}*%
X92085000Y-64765000D03*
%TO.P,U6,4*%
%TO.N,~{P=R}*%
X92085000Y-62225000D03*
%TO.P,U6,3*%
%TO.N,Net-(U1-Pad9)*%
X92085000Y-59685000D03*
%TO.P,U6,2*%
%TO.N,~{REN}*%
X92085000Y-57145000D03*
D12*
%TO.P,U6,1*%
%TO.N,Net-(U3-Pad1)*%
X92085000Y-54605000D03*
%TD*%
D10*
%TO.P,C8,2*%
%TO.N,GND*%
X118150000Y-58420000D03*
%TO.P,C8,1*%
%TO.N,+5V*%
X123150000Y-58420000D03*
%TD*%
D15*
%TO.P,J3,2,Pin_2*%
%TO.N,VCC*%
X25925000Y-31252000D03*
D16*
%TO.P,J3,1,Pin_1*%
%TO.N,GND*%
X25925000Y-26172000D03*
%TD*%
D11*
%TO.P,U3,14,VCC*%
%TO.N,+5V*%
X99695000Y-29210000D03*
%TO.P,U3,13*%
%TO.N,RAMS2*%
X99695000Y-31750000D03*
%TO.P,U3,12*%
%TO.N,Net-(U1-Pad12)*%
X99695000Y-34290000D03*
%TO.P,U3,11*%
%TO.N,~{REN}*%
X99695000Y-36830000D03*
%TO.P,U3,10*%
%TO.N,A14*%
X99695000Y-39370000D03*
%TO.P,U3,9*%
%TO.N,A13*%
X99695000Y-41910000D03*
%TO.P,U3,8*%
%TO.N,Net-(U3-Pad1)*%
X99695000Y-44450000D03*
%TO.P,U3,7,GND*%
%TO.N,GND*%
X92075000Y-44450000D03*
%TO.P,U3,6*%
%TO.N,~{CS2}*%
X92075000Y-41910000D03*
%TO.P,U3,5*%
%TO.N,S6*%
X92075000Y-39370000D03*
%TO.P,U3,4*%
%TO.N,Net-(U1-Pad8)*%
X92075000Y-36830000D03*
%TO.P,U3,3*%
%TO.N,~{CS3}*%
X92075000Y-34290000D03*
%TO.P,U3,2*%
%TO.N,Net-(U1-Pad6)*%
X92075000Y-31750000D03*
D12*
%TO.P,U3,1*%
%TO.N,Net-(U3-Pad1)*%
X92075000Y-29210000D03*
%TD*%
D11*
%TO.P,U7,20,VCC*%
%TO.N,+5V*%
X111760000Y-63500000D03*
%TO.P,U7,19,Q7*%
%TO.N,S7*%
X111760000Y-66040000D03*
%TO.P,U7,18,D7*%
%TO.N,D7*%
X111760000Y-68580000D03*
%TO.P,U7,17,D6*%
%TO.N,D6*%
X111760000Y-71120000D03*
%TO.P,U7,16,Q6*%
%TO.N,S6*%
X111760000Y-73660000D03*
%TO.P,U7,15,Q5*%
%TO.N,S5*%
X111760000Y-76200000D03*
%TO.P,U7,14,D5*%
%TO.N,D5*%
X111760000Y-78740000D03*
%TO.P,U7,13,D4*%
%TO.N,D4*%
X111760000Y-81280000D03*
%TO.P,U7,12,Q4*%
%TO.N,S4*%
X111760000Y-83820000D03*
%TO.P,U7,11,Cp*%
%TO.N,Net-(U7-Cp)*%
X111760000Y-86360000D03*
%TO.P,U7,10,GND*%
%TO.N,GND*%
X104140000Y-86360000D03*
%TO.P,U7,9,Q3*%
%TO.N,S3*%
X104140000Y-83820000D03*
%TO.P,U7,8,D3*%
%TO.N,D3*%
X104140000Y-81280000D03*
%TO.P,U7,7,D2*%
%TO.N,D2*%
X104140000Y-78740000D03*
%TO.P,U7,6,Q2*%
%TO.N,S2*%
X104140000Y-76200000D03*
%TO.P,U7,5,Q1*%
%TO.N,S1*%
X104140000Y-73660000D03*
%TO.P,U7,4,D1*%
%TO.N,D1*%
X104140000Y-71120000D03*
%TO.P,U7,3,D0*%
%TO.N,D0*%
X104140000Y-68580000D03*
%TO.P,U7,2,Q0*%
%TO.N,S0*%
X104140000Y-66040000D03*
D12*
%TO.P,U7,1,~{Mr}*%
%TO.N,~{RES}*%
X104140000Y-63500000D03*
%TD*%
D13*
%TO.P,J1,40,Pin_40*%
%TO.N,unconnected-(J1-Pin_40-Pad40)*%
X50795000Y-77978000D03*
%TO.P,J1,39,Pin_39*%
%TO.N,unconnected-(J1-Pin_39-Pad39)*%
X50795000Y-80518000D03*
%TO.P,J1,38,Pin_38*%
%TO.N,unconnected-(J1-Pin_38-Pad38)*%
X53335000Y-77978000D03*
%TO.P,J1,37,Pin_37*%
%TO.N,unconnected-(J1-Pin_37-Pad37)*%
X53335000Y-80518000D03*
%TO.P,J1,36,Pin_36*%
%TO.N,unconnected-(J1-Pin_36-Pad36)*%
X55875000Y-77978000D03*
%TO.P,J1,35,Pin_35*%
%TO.N,unconnected-(J1-Pin_35-Pad35)*%
X55875000Y-80518000D03*
%TO.P,J1,34,Pin_34*%
%TO.N,~{RES}*%
X58415000Y-77978000D03*
%TO.P,J1,33,Pin_33*%
%TO.N,unconnected-(J1-Pin_33-Pad33)*%
X58415000Y-80518000D03*
%TO.P,J1,32,Pin_32*%
%TO.N,unconnected-(J1-Pin_32-Pad32)*%
X60955000Y-77978000D03*
%TO.P,J1,31,Pin_31*%
%TO.N,~{IORQ}*%
X60955000Y-80518000D03*
%TO.P,J1,30,Pin_30*%
%TO.N,~{WR}*%
X63495000Y-77978000D03*
%TO.P,J1,29,Pin_29*%
%TO.N,unconnected-(J1-Pin_29-Pad29)*%
X63495000Y-80518000D03*
%TO.P,J1,28,Pin_28*%
%TO.N,~{RD}*%
X66035000Y-77978000D03*
%TO.P,J1,27,Pin_27*%
%TO.N,~{MRQ}*%
X66035000Y-80518000D03*
%TO.P,J1,26,Pin_26*%
%TO.N,RAMS2*%
X68575000Y-77978000D03*
%TO.P,J1,25,Pin_25*%
%TO.N,A14*%
X68575000Y-80518000D03*
%TO.P,J1,24,Pin_24*%
%TO.N,A13*%
X71115000Y-77978000D03*
%TO.P,J1,23,Pin_23*%
%TO.N,A12*%
X71115000Y-80518000D03*
%TO.P,J1,22,Pin_22*%
%TO.N,A11*%
X73655000Y-77978000D03*
%TO.P,J1,21,Pin_21*%
%TO.N,A10*%
X73655000Y-80518000D03*
%TO.P,J1,20,Pin_20*%
%TO.N,A9*%
X76195000Y-77978000D03*
%TO.P,J1,19,Pin_19*%
%TO.N,A8*%
X76195000Y-80518000D03*
%TO.P,J1,18,Pin_18*%
%TO.N,A7*%
X78735000Y-77978000D03*
%TO.P,J1,17,Pin_17*%
%TO.N,A6*%
X78735000Y-80518000D03*
%TO.P,J1,16,Pin_16*%
%TO.N,A5*%
X81275000Y-77978000D03*
%TO.P,J1,15,Pin_15*%
%TO.N,A4*%
X81275000Y-80518000D03*
%TO.P,J1,14,Pin_14*%
%TO.N,A3*%
X83815000Y-77978000D03*
%TO.P,J1,13,Pin_13*%
%TO.N,A2*%
X83815000Y-80518000D03*
%TO.P,J1,12,Pin_12*%
%TO.N,A1*%
X86355000Y-77978000D03*
%TO.P,J1,11,Pin_11*%
%TO.N,A0*%
X86355000Y-80518000D03*
%TO.P,J1,10,Pin_10*%
%TO.N,D7*%
X88895000Y-77978000D03*
%TO.P,J1,9,Pin_9*%
%TO.N,D6*%
X88895000Y-80518000D03*
%TO.P,J1,8,Pin_8*%
%TO.N,D5*%
X91435000Y-77978000D03*
%TO.P,J1,7,Pin_7*%
%TO.N,D4*%
X91435000Y-80518000D03*
%TO.P,J1,6,Pin_6*%
%TO.N,D3*%
X93975000Y-77978000D03*
%TO.P,J1,5,Pin_5*%
%TO.N,D2*%
X93975000Y-80518000D03*
%TO.P,J1,4,Pin_4*%
%TO.N,D1*%
X96515000Y-77978000D03*
%TO.P,J1,3,Pin_3*%
%TO.N,D0*%
X96515000Y-80518000D03*
%TO.P,J1,2,Pin_2*%
%TO.N,unconnected-(J1-Pin_2-Pad2)*%
X99055000Y-77978000D03*
D14*
%TO.P,J1,1,Pin_1*%
%TO.N,GND*%
X99055000Y-80518000D03*
%TD*%
D17*
%TO.N,D1*%
X113840800Y-57028200D03*
%TO.N,D2*%
X101187500Y-79116600D03*
%TO.N,D5*%
X87668700Y-73383400D03*
X119827600Y-84226800D03*
%TO.N,D6*%
X96932100Y-82228900D03*
X109404500Y-79335000D03*
X73412600Y-61952600D03*
%TO.N,D7*%
X101840100Y-70681500D03*
%TO.N,A0*%
X41275700Y-36447900D03*
%TO.N,A1*%
X85635700Y-57940900D03*
X88789700Y-56946200D03*
%TO.N,A2*%
X84551700Y-57363600D03*
X93634600Y-58607000D03*
%TO.N,A4*%
X101188600Y-85650800D03*
%TO.N,A5*%
X109815500Y-52978300D03*
X81275000Y-60035100D03*
%TO.N,A6*%
X122932900Y-35064700D03*
X83792900Y-33698600D03*
%TO.N,A10*%
X79867600Y-73631200D03*
%TO.N,A11*%
X74388800Y-49642400D03*
%TO.N,A13*%
X91290500Y-47751800D03*
X75214800Y-50872600D03*
%TO.N,A14*%
X77594400Y-75882700D03*
%TO.N,RAMS2*%
X89583800Y-49598600D03*
X74636200Y-52506000D03*
%TO.N,~{MRQ}*%
X100468400Y-52218200D03*
X99905600Y-85083800D03*
%TO.N,~{RD}*%
X90232000Y-60674800D03*
X73966300Y-53333600D03*
%TO.N,~{IORQ}*%
X41087900Y-34399300D03*
%TO.N,~{RES}*%
X71996600Y-71548000D03*
X90096000Y-73960900D03*
%TO.N,GND*%
X127000000Y-55372000D03*
%TO.N,S1*%
X97857800Y-42719300D03*
X95119200Y-38803100D03*
%TO.N,S2*%
X97463300Y-29906300D03*
%TO.N,+5V*%
X97282000Y-26670000D03*
%TO.N,~{CS1}*%
X91964200Y-73005000D03*
%TO.N,Net-(U7-Cp)*%
X100785300Y-49083500D03*
%TO.N,Net-(U1-Pad6)*%
X98151400Y-38678200D03*
%TO.N,Net-(U1-Pad8)*%
X109591500Y-39199000D03*
%TO.N,S3*%
X94194000Y-30510200D03*
X109086100Y-45440800D03*
%TO.N,S0*%
X109946000Y-64914700D03*
X96691600Y-51799300D03*
X70856200Y-40001500D03*
X93636100Y-52310400D03*
%TO.N,Net-(U1-Pad9)*%
X101507300Y-55849700D03*
%TO.N,S6*%
X97508900Y-45997700D03*
%TO.N,Net-(U1-Pad3)*%
X95274500Y-54050900D03*
%TO.N,S4*%
X93505600Y-39075500D03*
X97680700Y-44962400D03*
%TO.N,~{CS3}*%
X83377800Y-32369400D03*
X49439400Y-32315500D03*
%TO.N,Net-(U8-CE)*%
X112804100Y-54392700D03*
%TD*%
D18*
%TO.N,D0*%
X35265600Y-59834700D02*
X50454400Y-59834700D01*
X52705000Y-60960000D02*
X53830300Y-60960000D01*
X52705000Y-60960000D02*
X51579700Y-60960000D01*
X34140300Y-60960000D02*
X35265600Y-59834700D01*
X111183300Y-64914700D02*
X120804700Y-64914700D01*
X54955600Y-59834700D02*
X53830300Y-60960000D01*
X33015000Y-60960000D02*
X34140300Y-60960000D01*
X105265300Y-68580000D02*
X107518000Y-68580000D01*
X107518000Y-68580000D02*
X111183300Y-64914700D01*
X70134400Y-59834700D02*
X54955600Y-59834700D01*
X104140000Y-68580000D02*
X105265300Y-68580000D01*
X71259700Y-60960000D02*
X70134400Y-59834700D01*
X120804700Y-64914700D02*
X124470000Y-68580000D01*
X72385000Y-60960000D02*
X71259700Y-60960000D01*
X50454400Y-59834700D02*
X51579700Y-60960000D01*
%TO.N,D1*%
X104140000Y-71120000D02*
X104140000Y-69994700D01*
X105100700Y-64625400D02*
X109504400Y-60221700D01*
X104140000Y-69994700D02*
X103858700Y-69994700D01*
X52705000Y-63500000D02*
X51579700Y-63500000D01*
X33015000Y-63500000D02*
X34140300Y-63500000D01*
X70134400Y-62374700D02*
X54955600Y-62374700D01*
X109504400Y-60221700D02*
X109504400Y-58008800D01*
X103014100Y-65558900D02*
X103947600Y-64625400D01*
X34140300Y-63500000D02*
X35265600Y-62374700D01*
X103858700Y-69994700D02*
X103014100Y-69150100D01*
X72385000Y-63500000D02*
X71259700Y-63500000D01*
X103014100Y-69150100D02*
X103014100Y-65558900D01*
X103947600Y-64625400D02*
X105100700Y-64625400D01*
X71259700Y-63500000D02*
X70134400Y-62374700D01*
X35265600Y-62374700D02*
X50454400Y-62374700D01*
X54955600Y-62374700D02*
X53830300Y-63500000D01*
X110485000Y-57028200D02*
X113840800Y-57028200D01*
X50454400Y-62374700D02*
X51579700Y-63500000D01*
X109504400Y-58008800D02*
X110485000Y-57028200D01*
X52705000Y-63500000D02*
X53830300Y-63500000D01*
%TO.N,D2*%
X65409700Y-66040000D02*
X66535000Y-64914700D01*
X104140000Y-78740000D02*
X105265300Y-78740000D01*
X34140300Y-66040000D02*
X35273500Y-64906800D01*
X95150300Y-80518000D02*
X95150300Y-80150600D01*
X115580800Y-73324900D02*
X116371000Y-72534700D01*
X35273500Y-64906800D02*
X48884000Y-64906800D01*
X70134400Y-64914700D02*
X71259700Y-66040000D01*
X66535000Y-64914700D02*
X70134400Y-64914700D01*
X100961400Y-79342700D02*
X101187500Y-79116600D01*
X33015000Y-66040000D02*
X34140300Y-66040000D01*
X105265300Y-78740000D02*
X106390600Y-77614700D01*
X116371000Y-72534700D02*
X122219400Y-72534700D01*
X122219400Y-72534700D02*
X123344700Y-73660000D01*
X95150300Y-80150600D02*
X95958200Y-79342700D01*
X93975000Y-80518000D02*
X95150300Y-80518000D01*
X95958200Y-79342700D02*
X100961400Y-79342700D01*
X72385000Y-66040000D02*
X71259700Y-66040000D01*
X106390600Y-77614700D02*
X111941900Y-77614700D01*
X124470000Y-73660000D02*
X123344700Y-73660000D01*
X52705000Y-66040000D02*
X53830300Y-66040000D01*
X53830300Y-66040000D02*
X65409700Y-66040000D01*
X50017200Y-66040000D02*
X52705000Y-66040000D01*
X115580800Y-73975800D02*
X115580800Y-73324900D01*
X48884000Y-64906800D02*
X50017200Y-66040000D01*
X111941900Y-77614700D02*
X115580800Y-73975800D01*
%TO.N,D3*%
X48255000Y-68580000D02*
X49380300Y-68580000D01*
X95150300Y-77978000D02*
X95150300Y-77610700D01*
X95958400Y-76802600D02*
X99951600Y-76802600D01*
X50505600Y-69705300D02*
X49380300Y-68580000D01*
X99951600Y-76802600D02*
X104140000Y-80991000D01*
X66819700Y-68580000D02*
X65694400Y-69705300D01*
X95150300Y-77610700D02*
X95958400Y-76802600D01*
X67945000Y-68580000D02*
X66819700Y-68580000D01*
X93975000Y-77978000D02*
X95150300Y-77978000D01*
X104140000Y-80991000D02*
X104140000Y-81280000D01*
X65694400Y-69705300D02*
X50505600Y-69705300D01*
%TO.N,D4*%
X109099700Y-82815000D02*
X106954200Y-84960500D01*
X67945000Y-66040000D02*
X66819700Y-66040000D01*
X101798900Y-84960500D02*
X100442100Y-83603700D01*
X100442100Y-83603700D02*
X95328700Y-83603700D01*
X112279500Y-84977400D02*
X115299300Y-81957600D01*
X66819700Y-66040000D02*
X65694400Y-67165300D01*
X111262100Y-84977400D02*
X112279500Y-84977400D01*
X92610300Y-80885300D02*
X92610300Y-80518000D01*
X91435000Y-80518000D02*
X92610300Y-80518000D01*
X109099700Y-82815000D02*
X111262100Y-84977400D01*
X111760000Y-81280000D02*
X110634700Y-81280000D01*
X118612200Y-78740000D02*
X124470000Y-78740000D01*
X95328700Y-83603700D02*
X92610300Y-80885300D01*
X110634700Y-81280000D02*
X109099700Y-82815000D01*
X48255000Y-66040000D02*
X49380300Y-66040000D01*
X106954200Y-84960500D02*
X101798900Y-84960500D01*
X116319900Y-80154600D02*
X117197600Y-80154600D01*
X50505600Y-67165300D02*
X49380300Y-66040000D01*
X65694400Y-67165300D02*
X50505600Y-67165300D01*
X115299300Y-81957600D02*
X115299300Y-81175200D01*
X117197600Y-80154600D02*
X118612200Y-78740000D01*
X115299300Y-81175200D02*
X116319900Y-80154600D01*
%TO.N,D5*%
X48255000Y-63500000D02*
X49380300Y-63500000D01*
X87343600Y-64625300D02*
X86499700Y-65469200D01*
X92610300Y-77978000D02*
X92610300Y-77610700D01*
X50505600Y-64625300D02*
X49380300Y-63500000D01*
X100118000Y-76332100D02*
X103670300Y-79884400D01*
X93888900Y-76332100D02*
X100118000Y-76332100D01*
X103670300Y-79884400D02*
X106068300Y-79884400D01*
X111760000Y-78740000D02*
X110634700Y-78740000D01*
X120397900Y-84226800D02*
X123344700Y-81280000D01*
X86499700Y-65469200D02*
X86499700Y-72214400D01*
X119827600Y-84226800D02*
X120397900Y-84226800D01*
X67945000Y-63500000D02*
X66819700Y-63500000D01*
X87625000Y-63500000D02*
X87625000Y-64625300D01*
X66819700Y-63500000D02*
X65694400Y-64625300D01*
X65694400Y-64625300D02*
X50505600Y-64625300D01*
X92610300Y-77610700D02*
X93888900Y-76332100D01*
X124470000Y-81280000D02*
X123344700Y-81280000D01*
X87625000Y-64625300D02*
X87343600Y-64625300D01*
X107353200Y-78599500D02*
X110494200Y-78599500D01*
X110494200Y-78599500D02*
X110634700Y-78740000D01*
X91435000Y-77978000D02*
X92610300Y-77978000D01*
X86499700Y-72214400D02*
X87668700Y-73383400D01*
X106068300Y-79884400D02*
X107353200Y-78599500D01*
%TO.N,D6*%
X73412600Y-61952600D02*
X73273900Y-62091300D01*
X52076000Y-62093200D02*
X50942800Y-60960000D01*
X124871100Y-72390000D02*
X126101800Y-73620700D01*
X87683400Y-78498400D02*
X88527700Y-79342700D01*
X126101800Y-81344200D02*
X124751300Y-82694700D01*
X88750300Y-62929200D02*
X88750300Y-72877300D01*
X55240300Y-60960000D02*
X54107100Y-62093200D01*
X104660000Y-82405400D02*
X107730400Y-79335000D01*
X71754100Y-62091300D02*
X70622800Y-60960000D01*
X121541200Y-69991400D02*
X123939800Y-72390000D01*
X67945000Y-60960000D02*
X55240300Y-60960000D01*
X124751300Y-82694700D02*
X124470000Y-82694700D01*
X87683400Y-74581100D02*
X87683400Y-78498400D01*
X97108600Y-82405400D02*
X104660000Y-82405400D01*
X54107100Y-62093200D02*
X52076000Y-62093200D01*
X70622800Y-60960000D02*
X67945000Y-60960000D01*
X107730400Y-79335000D02*
X109404500Y-79335000D01*
X88527700Y-79342700D02*
X88895000Y-79342700D01*
X115580900Y-69991400D02*
X121541200Y-69991400D01*
X124470000Y-83820000D02*
X124470000Y-82694700D01*
X88750300Y-72877300D02*
X88394100Y-73233500D01*
X87625000Y-62085300D02*
X87906400Y-62085300D01*
X96932100Y-82228900D02*
X97108600Y-82405400D01*
X88895000Y-80518000D02*
X88895000Y-79342700D01*
X87625000Y-60960000D02*
X87625000Y-62085300D01*
X126101800Y-73620700D02*
X126101800Y-81344200D01*
X88394100Y-73870400D02*
X87683400Y-74581100D01*
X87906400Y-62085300D02*
X88750300Y-62929200D01*
X111760000Y-71120000D02*
X114452300Y-71120000D01*
X114452300Y-71120000D02*
X115580900Y-69991400D01*
X50942800Y-60960000D02*
X48255000Y-60960000D01*
X88394100Y-73233500D02*
X88394100Y-73870400D01*
X73273900Y-62091300D02*
X71754100Y-62091300D01*
X123939800Y-72390000D02*
X124871100Y-72390000D01*
%TO.N,D7*%
X109075400Y-68580000D02*
X105409800Y-72245600D01*
X89200700Y-73063800D02*
X88895000Y-73369500D01*
X88895000Y-77978000D02*
X88895000Y-76802700D01*
X124737600Y-69755100D02*
X123946400Y-69755100D01*
X55240300Y-58420000D02*
X54107100Y-59553200D01*
X67945000Y-58420000D02*
X55240300Y-58420000D01*
X126552200Y-83433800D02*
X126552200Y-71569700D01*
X114010600Y-67454700D02*
X112885300Y-68580000D01*
X52076000Y-59553200D02*
X50942800Y-58420000D01*
X88895000Y-73369500D02*
X88895000Y-76802700D01*
X124470000Y-85234700D02*
X124751300Y-85234700D01*
X123946400Y-69755100D02*
X121646000Y-67454700D01*
X89200700Y-60839700D02*
X89200700Y-73063800D01*
X50942800Y-58420000D02*
X48255000Y-58420000D01*
X121646000Y-67454700D02*
X114010600Y-67454700D01*
X105409800Y-72245600D02*
X103404200Y-72245600D01*
X54107100Y-59553200D02*
X52076000Y-59553200D01*
X124751300Y-85234700D02*
X126552200Y-83433800D01*
X87625000Y-58420000D02*
X87625000Y-59545300D01*
X124470000Y-86360000D02*
X124470000Y-85234700D01*
X87625000Y-59545300D02*
X87906300Y-59545300D01*
X87906300Y-59545300D02*
X89200700Y-60839700D01*
X111760000Y-68580000D02*
X112885300Y-68580000D01*
X126552200Y-71569700D02*
X124737600Y-69755100D01*
X103404200Y-72245600D02*
X101840100Y-70681500D01*
X111760000Y-68580000D02*
X109075400Y-68580000D01*
%TO.N,A0*%
X115281700Y-31115000D02*
X116840000Y-31115000D01*
X52142400Y-58420000D02*
X51579700Y-58420000D01*
X98419200Y-27553200D02*
X103842500Y-27553200D01*
X50454400Y-57294700D02*
X35265600Y-57294700D01*
X89636400Y-25713600D02*
X94474200Y-25713600D01*
X35265600Y-57294700D02*
X34140300Y-58420000D01*
X94474200Y-25713600D02*
X96651500Y-27890900D01*
X41275700Y-36447900D02*
X49700000Y-28023600D01*
X54955600Y-57294700D02*
X70134400Y-57294700D01*
X98081500Y-27890900D02*
X98419200Y-27553200D01*
X33015000Y-58420000D02*
X34140300Y-58420000D01*
X96651500Y-27890900D02*
X98081500Y-27890900D01*
X113691600Y-32705100D02*
X115281700Y-31115000D01*
X70134400Y-57294700D02*
X71259700Y-58420000D01*
X52705000Y-58420000D02*
X53830300Y-58420000D01*
X53830300Y-58420000D02*
X54955600Y-57294700D01*
X108994400Y-32705100D02*
X113691600Y-32705100D01*
X103842500Y-27553200D02*
X108994400Y-32705100D01*
X52142400Y-58420000D02*
X52705000Y-58420000D01*
X49700000Y-28023600D02*
X87326400Y-28023600D01*
X51579700Y-58420000D02*
X50454400Y-57294700D01*
X72385000Y-58420000D02*
X71259700Y-58420000D01*
X87326400Y-28023600D02*
X89636400Y-25713600D01*
%TO.N,A1*%
X112099800Y-45085000D02*
X115696600Y-41488200D01*
X116840000Y-36195000D02*
X116840000Y-37320300D01*
X88789700Y-56946200D02*
X90160400Y-58316900D01*
X106288200Y-50165000D02*
X111368200Y-45085000D01*
X70126400Y-54746700D02*
X65731300Y-54746700D01*
X64598000Y-55880000D02*
X52705000Y-55880000D01*
X92899000Y-58316900D02*
X98234700Y-52981200D01*
X116558600Y-37320300D02*
X116840000Y-37320300D01*
X90160400Y-58316900D02*
X92899000Y-58316900D01*
X50069700Y-55880000D02*
X52705000Y-55880000D01*
X34140300Y-55880000D02*
X35280200Y-54740100D01*
X101001700Y-52981200D02*
X103817900Y-50165000D01*
X103817900Y-50165000D02*
X106288200Y-50165000D01*
X86355000Y-77978000D02*
X86355000Y-76802700D01*
X98234700Y-52981200D02*
X101001700Y-52981200D01*
X72385000Y-55880000D02*
X71259700Y-55880000D01*
X65731300Y-54746700D02*
X64598000Y-55880000D01*
X115696600Y-41488200D02*
X115696600Y-38182300D01*
X71259700Y-55880000D02*
X70126400Y-54746700D01*
X35280200Y-54740100D02*
X48929800Y-54740100D01*
X111368200Y-45085000D02*
X112099800Y-45085000D01*
X33015000Y-55880000D02*
X34140300Y-55880000D01*
X48929800Y-54740100D02*
X50069700Y-55880000D01*
X115696600Y-38182300D02*
X116558600Y-37320300D01*
X85635700Y-76083400D02*
X85635700Y-57940900D01*
X86355000Y-76802700D02*
X85635700Y-76083400D01*
%TO.N,A2*%
X72385000Y-53340000D02*
X71259700Y-53340000D01*
X52142400Y-53340000D02*
X52705000Y-53340000D01*
X109934000Y-47625000D02*
X112138400Y-47625000D01*
X70134400Y-52214700D02*
X71259700Y-53340000D01*
X65409700Y-53340000D02*
X66535000Y-52214700D01*
X83815000Y-79342700D02*
X83447700Y-79342700D01*
X52705000Y-53340000D02*
X65409700Y-53340000D01*
X52142400Y-53340000D02*
X51579700Y-53340000D01*
X83815000Y-80518000D02*
X83815000Y-79342700D01*
X83447700Y-79342700D02*
X82624400Y-78519400D01*
X82624400Y-59290900D02*
X84551700Y-57363600D01*
X33015000Y-53340000D02*
X34140300Y-53340000D01*
X113330500Y-44784500D02*
X116840000Y-41275000D01*
X112138400Y-47625000D02*
X113330500Y-46432900D01*
X98810000Y-53431600D02*
X104127400Y-53431600D01*
X104127400Y-53431600D02*
X109934000Y-47625000D01*
X50454400Y-52214700D02*
X51579700Y-53340000D01*
X82624400Y-78519400D02*
X82624400Y-59290900D01*
X113330500Y-46432900D02*
X113330500Y-44784500D01*
X34140300Y-53340000D02*
X35265600Y-52214700D01*
X93634600Y-58607000D02*
X98810000Y-53431600D01*
X66535000Y-52214700D02*
X70134400Y-52214700D01*
X35265600Y-52214700D02*
X50454400Y-52214700D01*
%TO.N,A3*%
X34140300Y-50800000D02*
X35265600Y-49674700D01*
X92159200Y-71379100D02*
X91522200Y-71379100D01*
X99882000Y-61099600D02*
X99229600Y-61099600D01*
X89370700Y-76361000D02*
X90120500Y-77110800D01*
X89370700Y-73530700D02*
X89370700Y-76361000D01*
X115714700Y-48324200D02*
X115714700Y-49071900D01*
X85085000Y-80945700D02*
X85085000Y-79248000D01*
X70134300Y-49674600D02*
X61470800Y-49674600D01*
X52705000Y-50800000D02*
X51579700Y-50800000D01*
X90120500Y-77110800D02*
X90120500Y-80958200D01*
X116840000Y-46355000D02*
X116840000Y-47480300D01*
X35265600Y-49674700D02*
X50391500Y-49674700D01*
X51516800Y-50800000D02*
X51579700Y-50800000D01*
X93355000Y-66974200D02*
X93355000Y-70183300D01*
X115714700Y-49071900D02*
X110614800Y-54171800D01*
X102359500Y-58112400D02*
X102359500Y-58622100D01*
X85841800Y-81702500D02*
X85085000Y-80945700D01*
X106300100Y-54171800D02*
X102359500Y-58112400D01*
X90120500Y-80958200D02*
X89376200Y-81702500D01*
X91522200Y-71379100D02*
X91522200Y-71379200D01*
X61470800Y-49674600D02*
X60345400Y-50800000D01*
X116558600Y-47480300D02*
X115714700Y-48324200D01*
X110614800Y-54171800D02*
X106300100Y-54171800D01*
X85085000Y-79248000D02*
X83815000Y-77978000D01*
X91522200Y-71379200D02*
X89370700Y-73530700D01*
X102359500Y-58622100D02*
X99882000Y-61099600D01*
X89376200Y-81702500D02*
X85841800Y-81702500D01*
X116840000Y-47480300D02*
X116558600Y-47480300D01*
X71259700Y-50800000D02*
X70134300Y-49674600D01*
X50391500Y-49674700D02*
X51516800Y-50800000D01*
X33015000Y-50800000D02*
X34140300Y-50800000D01*
X99229600Y-61099600D02*
X93355000Y-66974200D01*
X72385000Y-50800000D02*
X71259700Y-50800000D01*
X60345400Y-50800000D02*
X52705000Y-50800000D01*
X93355000Y-70183300D02*
X92159200Y-71379100D01*
%TO.N,A4*%
X53830300Y-48260000D02*
X54955700Y-47134600D01*
X74925000Y-75222800D02*
X74925000Y-78409000D01*
X72385000Y-48260000D02*
X74330900Y-48260000D01*
X73318600Y-79153400D02*
X72479600Y-79992400D01*
X51579700Y-48260000D02*
X50454400Y-47134700D01*
X76443500Y-50372600D02*
X76443500Y-73704300D01*
X52705000Y-48260000D02*
X51579700Y-48260000D01*
X81862700Y-80518000D02*
X82450300Y-80518000D01*
X33015000Y-48260000D02*
X34140300Y-48260000D01*
X72385000Y-48260000D02*
X71259700Y-48260000D01*
X85693300Y-84128300D02*
X82450300Y-80885300D01*
X52705000Y-48260000D02*
X53830300Y-48260000D01*
X101188600Y-85650800D02*
X101188600Y-85319000D01*
X72479600Y-79992400D02*
X72479600Y-81005500D01*
X74925000Y-78409000D02*
X74180600Y-79153400D01*
X54955700Y-47134600D02*
X70134300Y-47134600D01*
X81275000Y-80518000D02*
X81862700Y-80518000D01*
X99997900Y-84128300D02*
X85693300Y-84128300D01*
X74180600Y-79153400D02*
X73318600Y-79153400D01*
X35265600Y-47134700D02*
X34140300Y-48260000D01*
X70134300Y-47134600D02*
X71259700Y-48260000D01*
X82450300Y-80885300D02*
X82450300Y-80518000D01*
X50454400Y-47134700D02*
X35265600Y-47134700D01*
X76443500Y-73704300D02*
X74925000Y-75222800D01*
X101188600Y-85319000D02*
X99997900Y-84128300D01*
X73682500Y-82208400D02*
X79584600Y-82208400D01*
X72479600Y-81005500D02*
X73682500Y-82208400D01*
X79584600Y-82208400D02*
X81275000Y-80518000D01*
X74330900Y-48260000D02*
X76443500Y-50372600D01*
%TO.N,A5*%
X98295000Y-58415000D02*
X101241800Y-58415000D01*
X81275000Y-60035100D02*
X81275000Y-59584800D01*
X106678500Y-52978300D02*
X109815500Y-52978300D01*
X91591800Y-63352200D02*
X93357800Y-63352200D01*
X81275000Y-76802700D02*
X81275000Y-60035100D01*
X90959500Y-60151100D02*
X90959500Y-62719900D01*
X101241800Y-58415000D02*
X106678500Y-52978300D01*
X84227300Y-56632500D02*
X85353200Y-56632500D01*
X93357800Y-63352200D02*
X98295000Y-58415000D01*
X90959500Y-62719900D02*
X91591800Y-63352200D01*
X85353200Y-56632500D02*
X85726100Y-57005400D01*
X87813800Y-57005400D02*
X90959500Y-60151100D01*
X81275000Y-59584800D02*
X84227300Y-56632500D01*
X85726100Y-57005400D02*
X87813800Y-57005400D01*
X81275000Y-77978000D02*
X81275000Y-76802700D01*
%TO.N,A6*%
X73510300Y-43180000D02*
X74635600Y-44305300D01*
X113827000Y-33206700D02*
X114504600Y-32529100D01*
X78735000Y-80518000D02*
X78735000Y-79342700D01*
X35265600Y-44305300D02*
X34140300Y-43180000D01*
X71259700Y-43180000D02*
X70134400Y-44305300D01*
X51579700Y-43180000D02*
X50454400Y-44305300D01*
X84103100Y-32387500D02*
X90326700Y-26163900D01*
X54955600Y-44305300D02*
X53830300Y-43180000D01*
X88756900Y-45180000D02*
X88756900Y-46260400D01*
X114504600Y-32529100D02*
X120397300Y-32529100D01*
X98261800Y-28347500D02*
X98580500Y-28028800D01*
X83792900Y-33698600D02*
X84103100Y-33388400D01*
X52705000Y-43180000D02*
X51579700Y-43180000D01*
X77554400Y-77505300D02*
X77554400Y-78481400D01*
X52705000Y-43180000D02*
X53830300Y-43180000D01*
X76418800Y-75189900D02*
X76418800Y-76369700D01*
X74635600Y-44305300D02*
X87882200Y-44305300D01*
X94287600Y-26163900D02*
X96471200Y-28347500D01*
X96471200Y-28347500D02*
X98261800Y-28347500D01*
X84103100Y-33388400D02*
X84103100Y-32387500D01*
X88027300Y-46990000D02*
X87297500Y-46990000D01*
X77554400Y-74054300D02*
X76418800Y-75189900D01*
X98580500Y-28028800D02*
X100133100Y-28028800D01*
X72385000Y-43180000D02*
X71259700Y-43180000D01*
X77554400Y-78481400D02*
X78415700Y-79342700D01*
X100133100Y-28028800D02*
X105311000Y-33206700D01*
X70134400Y-44305300D02*
X54955600Y-44305300D01*
X50454400Y-44305300D02*
X35265600Y-44305300D01*
X120397300Y-32529100D02*
X122932900Y-35064700D01*
X105311000Y-33206700D02*
X113827000Y-33206700D01*
X87297500Y-46990000D02*
X77554400Y-56733100D01*
X87882200Y-44305300D02*
X88756900Y-45180000D01*
X72947700Y-43180000D02*
X72385000Y-43180000D01*
X33015000Y-43180000D02*
X34140300Y-43180000D01*
X77554400Y-56733100D02*
X77554400Y-74054300D01*
X72947700Y-43180000D02*
X73510300Y-43180000D01*
X76418800Y-76369700D02*
X77554400Y-77505300D01*
X78415700Y-79342700D02*
X78735000Y-79342700D01*
X90326700Y-26163900D02*
X94287600Y-26163900D01*
X88756900Y-46260400D02*
X88027300Y-46990000D01*
%TO.N,A7*%
X88756900Y-39496400D02*
X84909900Y-39496400D01*
X35265600Y-41765300D02*
X34140300Y-40640000D01*
X78162000Y-58606400D02*
X78162000Y-74109900D01*
X78735000Y-77978000D02*
X78735000Y-76802700D01*
X88756900Y-39496400D02*
X89244200Y-39009100D01*
X90729400Y-27115700D02*
X93328700Y-27115700D01*
X53830300Y-40640000D02*
X54963600Y-41773300D01*
X53267700Y-40640000D02*
X53830300Y-40640000D01*
X53267700Y-40640000D02*
X52705000Y-40640000D01*
X98096500Y-30603600D02*
X101940500Y-30603600D01*
X52705000Y-40640000D02*
X50790300Y-40640000D01*
X124460000Y-36195000D02*
X123334700Y-36195000D01*
X72385000Y-40640000D02*
X71259700Y-40640000D01*
X88756900Y-39496400D02*
X89207200Y-39946700D01*
X33015000Y-40640000D02*
X34140300Y-40640000D01*
X49665000Y-41765300D02*
X35265600Y-41765300D01*
X72947700Y-40640000D02*
X73510300Y-40640000D01*
X89244200Y-28600900D02*
X90729400Y-27115700D01*
X84909900Y-39496400D02*
X83766300Y-40640000D01*
X87238400Y-49530000D02*
X78162000Y-58606400D01*
X77488700Y-76802700D02*
X78735000Y-76802700D01*
X101940500Y-30603600D02*
X106243100Y-34906200D01*
X50790300Y-40640000D02*
X49665000Y-41765300D01*
X89207200Y-48317300D02*
X87994500Y-49530000D01*
X121748700Y-34906200D02*
X123037500Y-36195000D01*
X78162000Y-74109900D02*
X76869100Y-75402800D01*
X72947700Y-40640000D02*
X72385000Y-40640000D01*
X106243100Y-34906200D02*
X121748700Y-34906200D01*
X76869100Y-75402800D02*
X76869100Y-76183100D01*
X89207200Y-39946700D02*
X89207200Y-48317300D01*
X93328700Y-27115700D02*
X96844600Y-30631600D01*
X54963600Y-41773300D02*
X70126400Y-41773300D01*
X83766300Y-40640000D02*
X73510300Y-40640000D01*
X70126400Y-41773300D02*
X71259700Y-40640000D01*
X98068500Y-30631600D02*
X98096500Y-30603600D01*
X76869100Y-76183100D02*
X77488700Y-76802700D01*
X87994500Y-49530000D02*
X87238400Y-49530000D01*
X123037500Y-36195000D02*
X123334700Y-36195000D01*
X89244200Y-39009100D02*
X89244200Y-28600900D01*
X96844600Y-30631600D02*
X98068500Y-30631600D01*
%TO.N,A8*%
X50513100Y-42047200D02*
X49380300Y-43180000D01*
X67945000Y-43180000D02*
X69070300Y-43180000D01*
X48255000Y-43180000D02*
X49380300Y-43180000D01*
X70975000Y-42054700D02*
X85374400Y-42054700D01*
X53807500Y-42047200D02*
X50513100Y-42047200D01*
X85374400Y-42054700D02*
X86499700Y-43180000D01*
X69070300Y-43180000D02*
X69849700Y-43180000D01*
X54940300Y-43180000D02*
X53807500Y-42047200D01*
X67945000Y-43180000D02*
X54940300Y-43180000D01*
X87625000Y-43180000D02*
X86499700Y-43180000D01*
X69849700Y-43180000D02*
X70975000Y-42054700D01*
%TO.N,A9*%
X54107100Y-46853200D02*
X55240300Y-45720000D01*
X55240300Y-45720000D02*
X67945000Y-45720000D01*
X81235500Y-45720000D02*
X77104100Y-49851400D01*
X71159500Y-46909500D02*
X74162200Y-46909500D01*
X77104100Y-49851400D02*
X77104100Y-73680600D01*
X69970000Y-45720000D02*
X71159500Y-46909500D01*
X48255000Y-45720000D02*
X50942800Y-45720000D01*
X86499700Y-45720000D02*
X81235500Y-45720000D01*
X76195000Y-77978000D02*
X76195000Y-76802700D01*
X74162200Y-46909500D02*
X77104100Y-49851400D01*
X87625000Y-45720000D02*
X86499700Y-45720000D01*
X67945000Y-45720000D02*
X69970000Y-45720000D01*
X52076000Y-46853200D02*
X54107100Y-46853200D01*
X50942800Y-45720000D02*
X52076000Y-46853200D01*
X75968500Y-76576200D02*
X76195000Y-76802700D01*
X77104100Y-73680600D02*
X75968500Y-74816200D01*
X75968500Y-74816200D02*
X75968500Y-76576200D01*
%TO.N,A10*%
X66819700Y-53340000D02*
X66369300Y-53790400D01*
X74830300Y-80885300D02*
X75675200Y-81730200D01*
X74830300Y-80518000D02*
X74830300Y-80885300D01*
X79208000Y-81730200D02*
X79958900Y-80979300D01*
X87625000Y-53340000D02*
X86499700Y-53340000D01*
X60173800Y-53790400D02*
X59498900Y-54465300D01*
X75675200Y-81730200D02*
X79208000Y-81730200D01*
X50505600Y-54465300D02*
X49380300Y-53340000D01*
X48255000Y-53340000D02*
X49380300Y-53340000D01*
X73655000Y-80518000D02*
X74830300Y-80518000D01*
X59498900Y-54465300D02*
X50505600Y-54465300D01*
X79958900Y-80979300D02*
X79958900Y-73631200D01*
X79958900Y-73631200D02*
X79958900Y-59880800D01*
X79958900Y-73631200D02*
X79867600Y-73631200D01*
X67945000Y-53340000D02*
X66819700Y-53340000D01*
X66369300Y-53790400D02*
X60173800Y-53790400D01*
X79958900Y-59880800D02*
X86499700Y-53340000D01*
%TO.N,A11*%
X67945000Y-48260000D02*
X55240300Y-48260000D01*
X72005200Y-49642400D02*
X70622800Y-48260000D01*
X73655000Y-77978000D02*
X73655000Y-76802700D01*
X74388800Y-49642400D02*
X72005200Y-49642400D01*
X70622800Y-48260000D02*
X67945000Y-48260000D01*
X75010400Y-49642400D02*
X75958900Y-50590900D01*
X75958900Y-50590900D02*
X75958900Y-73552000D01*
X55240300Y-48260000D02*
X54100300Y-49400000D01*
X49613700Y-48260000D02*
X49380300Y-48260000D01*
X50753700Y-49400000D02*
X49613700Y-48260000D01*
X75958900Y-73552000D02*
X73655000Y-75855900D01*
X54100300Y-49400000D02*
X50753700Y-49400000D01*
X74388800Y-49642400D02*
X75010400Y-49642400D01*
X48255000Y-48260000D02*
X49380300Y-48260000D01*
X73655000Y-75855900D02*
X73655000Y-76802700D01*
%TO.N,A12*%
X33015000Y-38100000D02*
X44766800Y-38100000D01*
X72385000Y-38100000D02*
X71259700Y-38100000D01*
X31889700Y-40069200D02*
X32733600Y-39225300D01*
X71115000Y-80518000D02*
X69939700Y-80518000D01*
X70134400Y-36974700D02*
X71259700Y-38100000D01*
X45892100Y-36974700D02*
X50454400Y-36974700D01*
X52705000Y-38100000D02*
X53830300Y-38100000D01*
X50454400Y-36974700D02*
X51579700Y-38100000D01*
X53830300Y-38100000D02*
X54955600Y-36974700D01*
X49570100Y-69930400D02*
X36165600Y-69930400D01*
X69939700Y-80150600D02*
X69131800Y-79342700D01*
X52705000Y-38100000D02*
X51579700Y-38100000D01*
X33545200Y-67310000D02*
X32613900Y-67310000D01*
X32613900Y-67310000D02*
X31889700Y-66585800D01*
X58078700Y-79342700D02*
X57145000Y-78409000D01*
X32733600Y-39225300D02*
X33015000Y-39225300D01*
X31889700Y-66585800D02*
X31889700Y-40069200D01*
X57145000Y-78409000D02*
X57145000Y-77505300D01*
X36165600Y-69930400D02*
X33545200Y-67310000D01*
X44766800Y-38100000D02*
X45892100Y-36974700D01*
X33015000Y-38100000D02*
X33015000Y-39225300D01*
X57145000Y-77505300D02*
X49570100Y-69930400D01*
X54955600Y-36974700D02*
X70134400Y-36974700D01*
X69131800Y-79342700D02*
X58078700Y-79342700D01*
X69939700Y-80518000D02*
X69939700Y-80150600D01*
%TO.N,A13*%
X98459300Y-43145700D02*
X99695000Y-41910000D01*
X71115000Y-77978000D02*
X71115000Y-76802700D01*
X97020100Y-47563900D02*
X98459300Y-46124700D01*
X91478400Y-47563900D02*
X97020100Y-47563900D01*
X98459300Y-46124700D02*
X98459300Y-43145700D01*
X75375800Y-51033600D02*
X75214800Y-50872600D01*
X91290500Y-47751800D02*
X91478400Y-47563900D01*
X71115000Y-76802700D02*
X75375800Y-72541900D01*
X75375800Y-72541900D02*
X75375800Y-51033600D01*
%TO.N,A14*%
X90332600Y-49876900D02*
X87994900Y-52214600D01*
X90114900Y-47264800D02*
X90114900Y-48238800D01*
X99695000Y-39370000D02*
X98569700Y-39370000D01*
X90332600Y-47047100D02*
X90114900Y-47264800D01*
X98569700Y-39370000D02*
X98536200Y-39403500D01*
X97770600Y-39403500D02*
X96444900Y-38077800D01*
X90332600Y-39509100D02*
X90332600Y-47047100D01*
X90114900Y-48238800D02*
X90332600Y-48456500D01*
X87994900Y-52214600D02*
X86915400Y-52214600D01*
X78934500Y-74542600D02*
X77594400Y-75882700D01*
X78934500Y-60195500D02*
X78934500Y-74542600D01*
X90332600Y-48456500D02*
X90332600Y-49876900D01*
X86915400Y-52214600D02*
X78934500Y-60195500D01*
X96444900Y-38077800D02*
X91763900Y-38077800D01*
X98536200Y-39403500D02*
X97770600Y-39403500D01*
X91763900Y-38077800D02*
X90332600Y-39509100D01*
%TO.N,RAMS2*%
X74699300Y-52569100D02*
X74636200Y-52506000D01*
X74699300Y-70678400D02*
X74699300Y-52569100D01*
X90953000Y-27566100D02*
X93142200Y-27566100D01*
X89583800Y-49598600D02*
X89664600Y-49517800D01*
X68575000Y-77978000D02*
X68575000Y-76802700D01*
X68575000Y-76802700D02*
X74699300Y-70678400D01*
X93142200Y-27566100D02*
X97326100Y-31750000D01*
X89709200Y-47033600D02*
X89709200Y-28809900D01*
X89664600Y-47078200D02*
X89709200Y-47033600D01*
X89709200Y-28809900D02*
X90953000Y-27566100D01*
X89664600Y-49517800D02*
X89664600Y-47078200D01*
X97326100Y-31750000D02*
X99695000Y-31750000D01*
%TO.N,~{MRQ}*%
X100468400Y-52218200D02*
X102311600Y-50375000D01*
X102311600Y-50375000D02*
X102311600Y-49071300D01*
X107875500Y-47703800D02*
X110025500Y-45553800D01*
X112147000Y-42545000D02*
X112917700Y-41774300D01*
X111409200Y-42545000D02*
X112147000Y-42545000D01*
X111760000Y-38735000D02*
X111760000Y-39860300D01*
X71408800Y-85083800D02*
X99905600Y-85083800D01*
X112917700Y-40736700D02*
X112041300Y-39860300D01*
X66035000Y-80518000D02*
X67210300Y-80518000D01*
X110025500Y-43928700D02*
X111409200Y-42545000D01*
X103679100Y-47703800D02*
X107875500Y-47703800D01*
X112917700Y-41774300D02*
X112917700Y-40736700D01*
X110025500Y-45553800D02*
X110025500Y-43928700D01*
X102311600Y-49071300D02*
X103679100Y-47703800D01*
X67210300Y-80518000D02*
X67210300Y-80885300D01*
X67210300Y-80885300D02*
X71408800Y-85083800D01*
X112041300Y-39860300D02*
X111760000Y-39860300D01*
%TO.N,~{RD}*%
X74147200Y-70423200D02*
X74147200Y-53514500D01*
X73966300Y-53326000D02*
X73966300Y-53333600D01*
X91637500Y-65926500D02*
X90232000Y-64521000D01*
X49707800Y-50800000D02*
X48255000Y-50800000D01*
X98579700Y-59685000D02*
X98579700Y-59966300D01*
X65683400Y-51936300D02*
X50844100Y-51936300D01*
X72037400Y-52214600D02*
X72854900Y-52214600D01*
X67945000Y-50800000D02*
X70622800Y-50800000D01*
X98579700Y-59966300D02*
X92619500Y-65926500D01*
X90232000Y-64521000D02*
X90232000Y-60674800D01*
X67210300Y-77360100D02*
X74147200Y-70423200D01*
X66035000Y-77978000D02*
X67210300Y-77978000D01*
X67382400Y-50800000D02*
X66819700Y-50800000D01*
X99705000Y-59685000D02*
X98579700Y-59685000D01*
X70622800Y-50800000D02*
X72037400Y-52214600D01*
X66819700Y-50800000D02*
X65683400Y-51936300D01*
X74147200Y-53514500D02*
X73966300Y-53333600D01*
X67382400Y-50800000D02*
X67945000Y-50800000D01*
X72854900Y-52214600D02*
X73966300Y-53326000D01*
X67210300Y-77978000D02*
X67210300Y-77360100D01*
X92619500Y-65926500D02*
X91637500Y-65926500D01*
X50844100Y-51936300D02*
X49707800Y-50800000D01*
%TO.N,~{WR}*%
X70195600Y-39225300D02*
X69070300Y-38100000D01*
X67945000Y-38100000D02*
X66819700Y-38100000D01*
X84544100Y-39225300D02*
X70195600Y-39225300D01*
X65694400Y-39225300D02*
X50505600Y-39225300D01*
X67945000Y-38100000D02*
X69070300Y-38100000D01*
X85669400Y-38100000D02*
X84544100Y-39225300D01*
X48255000Y-38100000D02*
X49380300Y-38100000D01*
X87062400Y-38100000D02*
X87625000Y-38100000D01*
X87062400Y-38100000D02*
X86499700Y-38100000D01*
X50505600Y-39225300D02*
X49380300Y-38100000D01*
X66819700Y-38100000D02*
X65694400Y-39225300D01*
X86499700Y-38100000D02*
X85669400Y-38100000D01*
%TO.N,~{IORQ}*%
X48305900Y-27181300D02*
X85505600Y-27181300D01*
X109266200Y-32254800D02*
X112034900Y-32254800D01*
X96950600Y-27440600D02*
X97669600Y-27440600D01*
X116840000Y-28575000D02*
X115714700Y-28575000D01*
X112034900Y-32254800D02*
X115714700Y-28575000D01*
X104104300Y-27092900D02*
X109266200Y-32254800D01*
X94773200Y-25263200D02*
X96950600Y-27440600D01*
X97669600Y-27440600D02*
X98017300Y-27092900D01*
X87423700Y-25263200D02*
X94773200Y-25263200D01*
X85505600Y-27181300D02*
X87423700Y-25263200D01*
X41087900Y-34399300D02*
X48305900Y-27181300D01*
X98017300Y-27092900D02*
X104104300Y-27092900D01*
%TO.N,~{RES}*%
X59590300Y-77978000D02*
X59590300Y-77610700D01*
X58415000Y-77978000D02*
X59590300Y-77978000D01*
X90096000Y-73960900D02*
X90096000Y-73840200D01*
X59590300Y-77610700D02*
X65653000Y-71548000D01*
X65653000Y-71548000D02*
X71996600Y-71548000D01*
X90096000Y-73840200D02*
X91722400Y-72213800D01*
X98202000Y-64609500D02*
X99311500Y-63500000D01*
X98202000Y-65994600D02*
X98202000Y-64609500D01*
X91722400Y-72213800D02*
X91982800Y-72213800D01*
X91982800Y-72213800D02*
X98202000Y-65994600D01*
X99311500Y-63500000D02*
X104140000Y-63500000D01*
%TO.N,~{CS2}*%
X87625000Y-55880000D02*
X87625000Y-54754700D01*
X90949700Y-43879200D02*
X90949700Y-47066900D01*
X90853600Y-51807400D02*
X87906300Y-54754700D01*
X90565200Y-48052200D02*
X90853600Y-48340600D01*
X92075000Y-43035300D02*
X91793600Y-43035300D01*
X90949700Y-47066900D02*
X90565200Y-47451400D01*
X92075000Y-41910000D02*
X92075000Y-43035300D01*
X90853600Y-48340600D02*
X90853600Y-51807400D01*
X91793600Y-43035300D02*
X90949700Y-43879200D01*
X87906300Y-54754700D02*
X87625000Y-54754700D01*
X90565200Y-47451400D02*
X90565200Y-48052200D01*
D19*
%TO.N,GND*%
X105664000Y-56388000D02*
X105704000Y-56428000D01*
X127000000Y-55372000D02*
X119380000Y-55372000D01*
X118150000Y-56602000D02*
X118150000Y-58420000D01*
D18*
X116840000Y-51435000D02*
X116840000Y-48895000D01*
D19*
X119380000Y-55372000D02*
X118150000Y-56602000D01*
X105704000Y-56428000D02*
X105704000Y-58420000D01*
X119380000Y-55372000D02*
X106680000Y-55372000D01*
X106680000Y-55372000D02*
X105664000Y-56388000D01*
D18*
%TO.N,S1*%
X72385000Y-35560000D02*
X71259700Y-35560000D01*
X109165500Y-69759800D02*
X114545000Y-69759800D01*
X97857800Y-41541700D02*
X97857800Y-42719300D01*
X105265300Y-73660000D02*
X109165500Y-69759800D01*
X114545000Y-69759800D02*
X114545000Y-69759700D01*
X114545000Y-69759700D02*
X115724700Y-68580000D01*
X54955600Y-34434700D02*
X70134400Y-34434700D01*
X104140000Y-73660000D02*
X105265300Y-73660000D01*
X70134400Y-34434700D02*
X71259700Y-35560000D01*
X116850000Y-68580000D02*
X115724700Y-68580000D01*
X95119200Y-38803100D02*
X97857800Y-41541700D01*
X52705000Y-35560000D02*
X53830300Y-35560000D01*
X53830300Y-35560000D02*
X54955600Y-34434700D01*
%TO.N,S2*%
X87625000Y-33020000D02*
X87625000Y-31894700D01*
X93491400Y-26614300D02*
X96783400Y-29906300D01*
X87906400Y-31894700D02*
X88750300Y-31050800D01*
X104140000Y-76200000D02*
X105265300Y-76200000D01*
X87062400Y-33020000D02*
X86499700Y-33020000D01*
X106390600Y-75074700D02*
X105265300Y-76200000D01*
X70622800Y-33020000D02*
X67945000Y-33020000D01*
X90513200Y-26614300D02*
X93491400Y-26614300D01*
X88750300Y-31050800D02*
X88750300Y-28377200D01*
X87625000Y-31894700D02*
X87906400Y-31894700D01*
X88750300Y-28377200D02*
X90513200Y-26614300D01*
X72037400Y-34434600D02*
X70622800Y-33020000D01*
X85085100Y-34434600D02*
X72037400Y-34434600D01*
X115724700Y-71401300D02*
X112051300Y-75074700D01*
X87062400Y-33020000D02*
X87625000Y-33020000D01*
X96783400Y-29906300D02*
X97463300Y-29906300D01*
X115724700Y-71120000D02*
X115724700Y-71401300D01*
X112051300Y-75074700D02*
X106390600Y-75074700D01*
X86499700Y-33020000D02*
X85085100Y-34434600D01*
X116850000Y-71120000D02*
X115724700Y-71120000D01*
D19*
%TO.N,+5V*%
X127508000Y-23876000D02*
X122896000Y-23876000D01*
X82804000Y-23368000D02*
X64008000Y-23368000D01*
X127508000Y-23876000D02*
X126258000Y-22626000D01*
X82510000Y-23662000D02*
X82510000Y-25400000D01*
X128524000Y-59436000D02*
X127508000Y-58420000D01*
X24805000Y-80010000D02*
X24805000Y-87797000D01*
X110450000Y-23936000D02*
X110450000Y-31115000D01*
X22352000Y-85344000D02*
X22352000Y-58928000D01*
X96012000Y-22626000D02*
X83546000Y-22626000D01*
X23975000Y-58860000D02*
X26075000Y-60960000D01*
X125476000Y-58420000D02*
X123150000Y-58420000D01*
X22352000Y-58928000D02*
X23975000Y-57305000D01*
D18*
X121646000Y-22626000D02*
X120904000Y-22626000D01*
D19*
X23975000Y-24222000D02*
X23975000Y-56388000D01*
D18*
X122896000Y-23876000D02*
X121646000Y-22626000D01*
D19*
X128524000Y-33654900D02*
X128524000Y-24892000D01*
X25908000Y-88900000D02*
X127508000Y-88900000D01*
D18*
X128524000Y-33654900D02*
X125585300Y-33654900D01*
D19*
X112228000Y-59944000D02*
X110704000Y-58420000D01*
X97282000Y-23896000D02*
X98111000Y-23896000D01*
X64008000Y-23368000D02*
X45212000Y-23368000D01*
X126258000Y-22626000D02*
X121646000Y-22626000D01*
D18*
X125585300Y-33654900D02*
X125585300Y-33655000D01*
X118090000Y-59944000D02*
X116850000Y-61184000D01*
D19*
X23975000Y-57305000D02*
X23975000Y-58860000D01*
D18*
X116850000Y-61184000D02*
X116850000Y-63500000D01*
D19*
X118090000Y-59944000D02*
X112228000Y-59944000D01*
X98111000Y-23896000D02*
X98345000Y-24130000D01*
X83546000Y-22626000D02*
X82804000Y-23368000D01*
X24829000Y-23368000D02*
X23975000Y-24222000D01*
X82804000Y-23368000D02*
X82510000Y-23662000D01*
X128524000Y-87884000D02*
X128524000Y-59436000D01*
X99849000Y-22626000D02*
X98345000Y-24130000D01*
X45212000Y-23368000D02*
X24829000Y-23368000D01*
X123952000Y-59944000D02*
X118090000Y-59944000D01*
X128524000Y-24892000D02*
X127508000Y-23876000D01*
X83546000Y-22626000D02*
X82804000Y-23368000D01*
X62825000Y-24551000D02*
X62825000Y-25400000D01*
X125476000Y-58420000D02*
X123952000Y-59944000D01*
D18*
X124460000Y-33655000D02*
X125585300Y-33655000D01*
D19*
X128524000Y-59436000D02*
X128524000Y-48895000D01*
X24805000Y-87797000D02*
X25908000Y-88900000D01*
X96012000Y-22626000D02*
X97282000Y-23896000D01*
X43140000Y-25440000D02*
X43140000Y-30480000D01*
X23975000Y-57305000D02*
X23975000Y-56388000D01*
X23975000Y-56388000D02*
X23975000Y-57305000D01*
X120904000Y-22626000D02*
X111760000Y-22626000D01*
D18*
X128524000Y-48895000D02*
X124460000Y-48895000D01*
D19*
X24805000Y-87797000D02*
X22352000Y-85344000D01*
X111760000Y-22626000D02*
X99849000Y-22626000D01*
X64008000Y-23368000D02*
X62825000Y-24551000D01*
X121646000Y-22626000D02*
X120904000Y-22626000D01*
X127508000Y-58420000D02*
X125476000Y-58420000D01*
X99849000Y-22626000D02*
X96012000Y-22626000D01*
X97282000Y-23896000D02*
X97282000Y-26670000D01*
X45212000Y-23368000D02*
X43140000Y-25440000D01*
X111760000Y-22626000D02*
X110450000Y-23936000D01*
X127508000Y-88900000D02*
X128524000Y-87884000D01*
X128524000Y-48895000D02*
X128524000Y-33654900D01*
D18*
%TO.N,~{CS1}*%
X98579700Y-69845000D02*
X95419700Y-73005000D01*
X99705000Y-69845000D02*
X98579700Y-69845000D01*
X95419700Y-73005000D02*
X91964200Y-73005000D01*
%TO.N,~{REN}*%
X101861300Y-47508400D02*
X103014700Y-46355000D01*
X92085000Y-57145000D02*
X93210300Y-57145000D01*
X93210300Y-57145000D02*
X100546500Y-49808800D01*
X101085800Y-49808800D02*
X101861300Y-49033300D01*
X100546500Y-49808800D02*
X101085800Y-49808800D01*
X104140000Y-46355000D02*
X103014700Y-46355000D01*
X101861300Y-49033300D02*
X101861300Y-47508400D01*
%TO.N,Net-(U7-Cp)*%
X104140000Y-43815000D02*
X104140000Y-44940300D01*
X103718000Y-44940300D02*
X100785300Y-47873000D01*
X104140000Y-44940300D02*
X103718000Y-44940300D01*
X100785300Y-47873000D02*
X100785300Y-49083500D01*
%TO.N,Net-(U1-Pad6)*%
X92075000Y-32875300D02*
X92348500Y-32875300D01*
X92348500Y-32875300D02*
X98151400Y-38678200D01*
X92075000Y-31750000D02*
X92075000Y-32875300D01*
%TO.N,Net-(U1-Pad8)*%
X91125200Y-28075000D02*
X93014200Y-28075000D01*
X92075000Y-35704700D02*
X91793600Y-35704700D01*
X98033100Y-33093900D02*
X103486400Y-33093900D01*
X103486400Y-33093900D02*
X109591500Y-39199000D01*
X90949700Y-28250500D02*
X91125200Y-28075000D01*
X93014200Y-28075000D02*
X98033100Y-33093900D01*
X92075000Y-36830000D02*
X92075000Y-35704700D01*
X91793600Y-35704700D02*
X90949700Y-34860800D01*
X90949700Y-34860800D02*
X90949700Y-28250500D01*
%TO.N,Net-(U3-Pad1)*%
X99695000Y-43324700D02*
X99976400Y-43324700D01*
X96729100Y-48173200D02*
X97097100Y-48173200D01*
X100820300Y-42480800D02*
X100820300Y-38897900D01*
X98165200Y-36235800D02*
X92264700Y-30335300D01*
X97097100Y-48173200D02*
X99695000Y-45575300D01*
X92085000Y-52817300D02*
X96729100Y-48173200D01*
X92085000Y-53479700D02*
X92085000Y-52817300D01*
X92085000Y-54605000D02*
X92085000Y-53479700D01*
X99695000Y-44450000D02*
X99695000Y-43324700D01*
X92264700Y-30335300D02*
X92075000Y-30335300D01*
X100022400Y-38100000D02*
X99372900Y-38100000D01*
X99695000Y-44450000D02*
X99695000Y-45575300D01*
X100820300Y-38897900D02*
X100022400Y-38100000D01*
X99976400Y-43324700D02*
X100820300Y-42480800D01*
X98165200Y-36892300D02*
X98165200Y-36235800D01*
X99372900Y-38100000D02*
X98165200Y-36892300D01*
X92075000Y-29210000D02*
X92075000Y-30335300D01*
%TO.N,S3*%
X102550900Y-38749100D02*
X102550900Y-38042600D01*
X108985000Y-80100300D02*
X111991300Y-80100300D01*
X109086100Y-45440800D02*
X109086100Y-44555000D01*
X54955600Y-31894700D02*
X53830300Y-33020000D01*
X102550900Y-38042600D02*
X100068300Y-35560000D01*
X114581200Y-77510400D02*
X114581200Y-76772700D01*
X99243800Y-35560000D02*
X94194000Y-30510200D01*
X72385000Y-33020000D02*
X71259700Y-33020000D01*
X104536100Y-40005000D02*
X103806800Y-40005000D01*
X114581200Y-76772700D02*
X116568600Y-74785300D01*
X71259700Y-33020000D02*
X70134400Y-31894700D01*
X104140000Y-83820000D02*
X105265300Y-83820000D01*
X105265300Y-83820000D02*
X108985000Y-80100300D01*
X111991300Y-80100300D02*
X114581200Y-77510400D01*
X70134400Y-31894700D02*
X54955600Y-31894700D01*
X100068300Y-35560000D02*
X99243800Y-35560000D01*
X109086100Y-44555000D02*
X104536100Y-40005000D01*
X52705000Y-33020000D02*
X53830300Y-33020000D01*
X116568600Y-74785300D02*
X116850000Y-74785300D01*
X103806800Y-40005000D02*
X102550900Y-38749100D01*
X116850000Y-73660000D02*
X116850000Y-74785300D01*
%TO.N,S0*%
X69070300Y-40640000D02*
X69708800Y-40001500D01*
X94147200Y-51799300D02*
X96691600Y-51799300D01*
X108820700Y-66040000D02*
X109946000Y-64914700D01*
X69708800Y-40001500D02*
X70856200Y-40001500D01*
X105265300Y-66040000D02*
X108820700Y-66040000D01*
X67945000Y-40640000D02*
X69070300Y-40640000D01*
X93636100Y-52310400D02*
X94147200Y-51799300D01*
X104140000Y-66040000D02*
X105265300Y-66040000D01*
%TO.N,Net-(U1-Pad9)*%
X101507300Y-55849700D02*
X97682400Y-55849700D01*
X109418700Y-48895000D02*
X102464000Y-55849700D01*
X102464000Y-55849700D02*
X101507300Y-55849700D01*
X97682400Y-55849700D02*
X93847100Y-59685000D01*
X111760000Y-48895000D02*
X109418700Y-48895000D01*
X93847100Y-59685000D02*
X93210300Y-59685000D01*
X92085000Y-59685000D02*
X93210300Y-59685000D01*
%TO.N,S6*%
X92075000Y-39370000D02*
X92075000Y-40495300D01*
X105902200Y-73660000D02*
X111760000Y-73660000D01*
X92318100Y-40495300D02*
X96955400Y-45132600D01*
X96955400Y-45132600D02*
X96955400Y-45444200D01*
X103681600Y-74793200D02*
X104769000Y-74793200D01*
X92075000Y-40495300D02*
X92318100Y-40495300D01*
X99705000Y-65890300D02*
X99986400Y-65890300D01*
X100830300Y-71941900D02*
X103681600Y-74793200D01*
X104769000Y-74793200D02*
X105902200Y-73660000D01*
X100830300Y-66734200D02*
X100830300Y-71941900D01*
X99705000Y-64765000D02*
X99705000Y-65890300D01*
X96955400Y-45444200D02*
X97508900Y-45997700D01*
X99986400Y-65890300D02*
X100830300Y-66734200D01*
%TO.N,S5*%
X41845500Y-37173800D02*
X45586400Y-33432900D01*
X125616800Y-79203300D02*
X124810100Y-80010000D01*
X49347800Y-33432900D02*
X51579700Y-31201000D01*
X70134400Y-29354700D02*
X54955600Y-29354700D01*
X51579700Y-31201000D02*
X51579700Y-30480000D01*
X123018700Y-80010000D02*
X117794100Y-85234600D01*
X52705000Y-30480000D02*
X51579700Y-30480000D01*
X112774900Y-88040500D02*
X50118300Y-88040500D01*
X52705000Y-30480000D02*
X53830300Y-30480000D01*
X119100600Y-77614700D02*
X124988700Y-77614700D01*
X116850000Y-78740000D02*
X117975300Y-78740000D01*
X117975300Y-78740000D02*
X119100600Y-77614700D01*
X124988700Y-77614700D02*
X125616800Y-78242800D01*
X54955600Y-29354700D02*
X53830300Y-30480000D01*
X32046500Y-34434600D02*
X37014600Y-34434600D01*
X39753800Y-37173800D02*
X41845500Y-37173800D01*
X124810100Y-80010000D02*
X123018700Y-80010000D01*
X71259700Y-30480000D02*
X70134400Y-29354700D01*
X37014600Y-34434600D02*
X39753800Y-37173800D01*
X125616800Y-78242800D02*
X125616800Y-79203300D01*
X50118300Y-88040500D02*
X30966100Y-68888300D01*
X117794100Y-85234600D02*
X115580800Y-85234600D01*
X72385000Y-30480000D02*
X71259700Y-30480000D01*
X115580800Y-85234600D02*
X112774900Y-88040500D01*
X30966100Y-68888300D02*
X30966100Y-35515000D01*
X45586400Y-33432900D02*
X49347800Y-33432900D01*
X30966100Y-35515000D02*
X32046500Y-34434600D01*
%TO.N,Net-(U1-Pad12)*%
X111760000Y-41275000D02*
X110634700Y-41275000D01*
X99695000Y-34290000D02*
X100820300Y-34290000D01*
X100820300Y-34993300D02*
X103147400Y-37320400D01*
X103147400Y-37320400D02*
X106680100Y-37320400D01*
X106680100Y-37320400D02*
X110634700Y-41275000D01*
X100820300Y-34290000D02*
X100820300Y-34993300D01*
%TO.N,Net-(U1-Pad3)*%
X99543000Y-49974200D02*
X95466300Y-54050900D01*
X95466300Y-54050900D02*
X95274500Y-54050900D01*
X103963100Y-42400300D02*
X99543000Y-46820400D01*
X104140000Y-41275000D02*
X104140000Y-42400300D01*
X99543000Y-46820400D02*
X99543000Y-49974200D01*
X104140000Y-42400300D02*
X103963100Y-42400300D01*
%TO.N,S4*%
X86499700Y-35560000D02*
X85366500Y-36693200D01*
X71756000Y-36693200D02*
X70622800Y-35560000D01*
X93505600Y-40787300D02*
X93505600Y-39075500D01*
X87625000Y-35560000D02*
X86499700Y-35560000D01*
X116568600Y-77325300D02*
X112885300Y-81008600D01*
X97680700Y-44962400D02*
X93505600Y-40787300D01*
X116850000Y-77325300D02*
X116568600Y-77325300D01*
X85366500Y-36693200D02*
X71756000Y-36693200D01*
X112041400Y-82694700D02*
X111760000Y-82694700D01*
X70622800Y-35560000D02*
X67945000Y-35560000D01*
X111760000Y-83820000D02*
X111760000Y-82694700D01*
X112885300Y-81008600D02*
X112885300Y-81850800D01*
X112885300Y-81850800D02*
X112041400Y-82694700D01*
X116850000Y-76200000D02*
X116850000Y-77325300D01*
%TO.N,~{CS3}*%
X49439400Y-31662700D02*
X49439400Y-32315500D01*
X83377800Y-32369400D02*
X79878200Y-28869800D01*
X79878200Y-28869800D02*
X52232300Y-28869800D01*
X52232300Y-28869800D02*
X49439400Y-31662700D01*
%TO.N,S7*%
X32733700Y-36685300D02*
X31416500Y-38002500D01*
X50366700Y-87523200D02*
X112188300Y-87523200D01*
X33015000Y-36685300D02*
X32733700Y-36685300D01*
X115724700Y-83986800D02*
X115724700Y-83820000D01*
X112188300Y-87523200D02*
X115724700Y-83986800D01*
X31416500Y-38002500D02*
X31416500Y-68573000D01*
X33015000Y-35560000D02*
X33015000Y-36685300D01*
X31416500Y-68573000D02*
X50366700Y-87523200D01*
X116850000Y-83820000D02*
X115724700Y-83820000D01*
%TO.N,~{P=R}*%
X99142400Y-57145000D02*
X98579700Y-57145000D01*
X124460000Y-32240300D02*
X124178600Y-32240300D01*
X98290300Y-57145000D02*
X93210300Y-62225000D01*
X101874900Y-57145000D02*
X100830300Y-57145000D01*
X112120500Y-50165000D02*
X108854900Y-50165000D01*
X98579700Y-57145000D02*
X98290300Y-57145000D01*
X124178600Y-32240300D02*
X123334700Y-33084200D01*
X122400500Y-37465000D02*
X117225000Y-42640500D01*
X114588500Y-47697000D02*
X112120500Y-50165000D01*
X123334700Y-33084200D02*
X123334700Y-34122400D01*
X99705000Y-57145000D02*
X100830300Y-57145000D01*
X124781700Y-37465000D02*
X122400500Y-37465000D01*
X117225000Y-42640500D02*
X116415500Y-42640500D01*
X125612700Y-35749800D02*
X125612700Y-36634000D01*
X124932500Y-35069600D02*
X125612700Y-35749800D01*
X116415500Y-42640500D02*
X114588500Y-44467500D01*
X108854900Y-50165000D02*
X101874900Y-57145000D01*
X124460000Y-31115000D02*
X124460000Y-32240300D01*
X125612700Y-36634000D02*
X124781700Y-37465000D01*
X123334700Y-34122400D02*
X124281900Y-35069600D01*
X114588500Y-44467500D02*
X114588500Y-47697000D01*
X124281900Y-35069600D02*
X124932500Y-35069600D01*
X92085000Y-62225000D02*
X93210300Y-62225000D01*
X99142400Y-57145000D02*
X99705000Y-57145000D01*
%TO.N,Net-(U8-CE)*%
X104657600Y-56483700D02*
X106344700Y-54796600D01*
X112400200Y-54796600D02*
X112804100Y-54392700D01*
X99705000Y-62225000D02*
X104657600Y-57272400D01*
X106344700Y-54796600D02*
X112400200Y-54796600D01*
X104657600Y-57272400D02*
X104657600Y-56483700D01*
%TD*%
M02*
