%TF.GenerationSoftware,KiCad,Pcbnew,8.0.2*%
%TF.CreationDate,2024-05-20T09:04:44+02:00*%
%TF.ProjectId,p2000t-ram-expansion-board-1056kb,70323030-3074-42d7-9261-6d2d65787061,1*%
%TF.SameCoordinates,Original*%
%TF.FileFunction,Soldermask,Top*%
%TF.FilePolarity,Negative*%
%FSLAX46Y46*%
G04 Gerber Fmt 4.6, Leading zero omitted, Abs format (unit mm)*
G04 Created by KiCad (PCBNEW 8.0.2) date 2024-05-20 09:04:44*
%MOMM*%
%LPD*%
G01*
G04 APERTURE LIST*
%ADD10C,0.010000*%
%ADD11C,1.600000*%
%ADD12O,1.600000X1.600000*%
%ADD13R,1.600000X1.600000*%
%ADD14O,1.700000X1.700000*%
%ADD15R,1.700000X1.700000*%
%ADD16C,3.000000*%
%ADD17R,3.000000X3.000000*%
G04 APERTURE END LIST*
D10*
%TO.C,LOGO1*%
X44835690Y-83690018D02*
X44870585Y-83705269D01*
X44953877Y-83771235D01*
X45025103Y-83866618D01*
X45069153Y-83968406D01*
X45076322Y-84018587D01*
X45052285Y-84088647D01*
X44999561Y-84125717D01*
X44943031Y-84148164D01*
X44917146Y-84152300D01*
X44904542Y-84122283D01*
X44879654Y-84056961D01*
X44868735Y-84027445D01*
X44807508Y-83925348D01*
X44718861Y-83874423D01*
X44605193Y-83875989D01*
X44596774Y-83877994D01*
X44536088Y-83906767D01*
X44491474Y-83962859D01*
X44461002Y-84053163D01*
X44442744Y-84184571D01*
X44434771Y-84363974D01*
X44434023Y-84459433D01*
X44433652Y-84609913D01*
X44431223Y-84712495D01*
X44424760Y-84777672D01*
X44412288Y-84815938D01*
X44391833Y-84837785D01*
X44361419Y-84853707D01*
X44359661Y-84854509D01*
X44301091Y-84879272D01*
X44272075Y-84888391D01*
X44267616Y-84860822D01*
X44263799Y-84784620D01*
X44260899Y-84669541D01*
X44259191Y-84525341D01*
X44258851Y-84419814D01*
X44260588Y-84215613D01*
X44267382Y-84060697D01*
X44281607Y-83946024D01*
X44305638Y-83862551D01*
X44341848Y-83801236D01*
X44392612Y-83753034D01*
X44442739Y-83719393D01*
X44563275Y-83674619D01*
X44703557Y-83664521D01*
X44835690Y-83690018D01*
G36*
X44835690Y-83690018D02*
G01*
X44870585Y-83705269D01*
X44953877Y-83771235D01*
X45025103Y-83866618D01*
X45069153Y-83968406D01*
X45076322Y-84018587D01*
X45052285Y-84088647D01*
X44999561Y-84125717D01*
X44943031Y-84148164D01*
X44917146Y-84152300D01*
X44904542Y-84122283D01*
X44879654Y-84056961D01*
X44868735Y-84027445D01*
X44807508Y-83925348D01*
X44718861Y-83874423D01*
X44605193Y-83875989D01*
X44596774Y-83877994D01*
X44536088Y-83906767D01*
X44491474Y-83962859D01*
X44461002Y-84053163D01*
X44442744Y-84184571D01*
X44434771Y-84363974D01*
X44434023Y-84459433D01*
X44433652Y-84609913D01*
X44431223Y-84712495D01*
X44424760Y-84777672D01*
X44412288Y-84815938D01*
X44391833Y-84837785D01*
X44361419Y-84853707D01*
X44359661Y-84854509D01*
X44301091Y-84879272D01*
X44272075Y-84888391D01*
X44267616Y-84860822D01*
X44263799Y-84784620D01*
X44260899Y-84669541D01*
X44259191Y-84525341D01*
X44258851Y-84419814D01*
X44260588Y-84215613D01*
X44267382Y-84060697D01*
X44281607Y-83946024D01*
X44305638Y-83862551D01*
X44341848Y-83801236D01*
X44392612Y-83753034D01*
X44442739Y-83719393D01*
X44563275Y-83674619D01*
X44703557Y-83664521D01*
X44835690Y-83690018D01*
G37*
X36917429Y-83627719D02*
X37011123Y-83681914D01*
X37076264Y-83735707D01*
X37123907Y-83792066D01*
X37156728Y-83860987D01*
X37177406Y-83952468D01*
X37188620Y-84076506D01*
X37193049Y-84243098D01*
X37193563Y-84362851D01*
X37193563Y-84803659D01*
X37069483Y-84859283D01*
X36945402Y-84914907D01*
X36930805Y-84432095D01*
X36924773Y-84251779D01*
X36918445Y-84120901D01*
X36910606Y-84030511D01*
X36900037Y-83971664D01*
X36885523Y-83935413D01*
X36865848Y-83912810D01*
X36859535Y-83907917D01*
X36763888Y-83869706D01*
X36667207Y-83884827D01*
X36609655Y-83924943D01*
X36586245Y-83953370D01*
X36570039Y-83990672D01*
X36559741Y-84047223D01*
X36554049Y-84133394D01*
X36551664Y-84259558D01*
X36551264Y-84391042D01*
X36551186Y-84555999D01*
X36548361Y-84672761D01*
X36538907Y-84751510D01*
X36518940Y-84802431D01*
X36484576Y-84835706D01*
X36431932Y-84861520D01*
X36361617Y-84888344D01*
X36284820Y-84917542D01*
X36293962Y-84399346D01*
X36297643Y-84212539D01*
X36301950Y-84074490D01*
X36308123Y-83975568D01*
X36317402Y-83906145D01*
X36331027Y-83856590D01*
X36350239Y-83817273D01*
X36373402Y-83782584D01*
X36485152Y-83671770D01*
X36621513Y-83607689D01*
X36769825Y-83592339D01*
X36917429Y-83627719D01*
G36*
X36917429Y-83627719D02*
G01*
X37011123Y-83681914D01*
X37076264Y-83735707D01*
X37123907Y-83792066D01*
X37156728Y-83860987D01*
X37177406Y-83952468D01*
X37188620Y-84076506D01*
X37193049Y-84243098D01*
X37193563Y-84362851D01*
X37193563Y-84803659D01*
X37069483Y-84859283D01*
X36945402Y-84914907D01*
X36930805Y-84432095D01*
X36924773Y-84251779D01*
X36918445Y-84120901D01*
X36910606Y-84030511D01*
X36900037Y-83971664D01*
X36885523Y-83935413D01*
X36865848Y-83912810D01*
X36859535Y-83907917D01*
X36763888Y-83869706D01*
X36667207Y-83884827D01*
X36609655Y-83924943D01*
X36586245Y-83953370D01*
X36570039Y-83990672D01*
X36559741Y-84047223D01*
X36554049Y-84133394D01*
X36551664Y-84259558D01*
X36551264Y-84391042D01*
X36551186Y-84555999D01*
X36548361Y-84672761D01*
X36538907Y-84751510D01*
X36518940Y-84802431D01*
X36484576Y-84835706D01*
X36431932Y-84861520D01*
X36361617Y-84888344D01*
X36284820Y-84917542D01*
X36293962Y-84399346D01*
X36297643Y-84212539D01*
X36301950Y-84074490D01*
X36308123Y-83975568D01*
X36317402Y-83906145D01*
X36331027Y-83856590D01*
X36350239Y-83817273D01*
X36373402Y-83782584D01*
X36485152Y-83671770D01*
X36621513Y-83607689D01*
X36769825Y-83592339D01*
X36917429Y-83627719D01*
G37*
X40565943Y-83671920D02*
X40698565Y-83720859D01*
X40806010Y-83807419D01*
X40848032Y-83868352D01*
X40893843Y-83980161D01*
X40892891Y-84061006D01*
X40844808Y-84115378D01*
X40827017Y-84124624D01*
X40750204Y-84153450D01*
X40710976Y-84146065D01*
X40697689Y-84097658D01*
X40697012Y-84070920D01*
X40672686Y-83972548D01*
X40609281Y-83903734D01*
X40521154Y-83870498D01*
X40422663Y-83878861D01*
X40342602Y-83922296D01*
X40315561Y-83947072D01*
X40296394Y-83977129D01*
X40283446Y-84022565D01*
X40275064Y-84093476D01*
X40269593Y-84199960D01*
X40265378Y-84352112D01*
X40264287Y-84400287D01*
X40260307Y-84565095D01*
X40255781Y-84681088D01*
X40248995Y-84757833D01*
X40238231Y-84804893D01*
X40221773Y-84831835D01*
X40197906Y-84848223D01*
X40182626Y-84855463D01*
X40117733Y-84880220D01*
X40079534Y-84888391D01*
X40066912Y-84861103D01*
X40059208Y-84778603D01*
X40056380Y-84639941D01*
X40058386Y-84444162D01*
X40059011Y-84413965D01*
X40063421Y-84235349D01*
X40068635Y-84104923D01*
X40076055Y-84012492D01*
X40087082Y-83947858D01*
X40103117Y-83900825D01*
X40125561Y-83861196D01*
X40137302Y-83844215D01*
X40204619Y-83769080D01*
X40279910Y-83710638D01*
X40289128Y-83705536D01*
X40424133Y-83665260D01*
X40565943Y-83671920D01*
G36*
X40565943Y-83671920D02*
G01*
X40698565Y-83720859D01*
X40806010Y-83807419D01*
X40848032Y-83868352D01*
X40893843Y-83980161D01*
X40892891Y-84061006D01*
X40844808Y-84115378D01*
X40827017Y-84124624D01*
X40750204Y-84153450D01*
X40710976Y-84146065D01*
X40697689Y-84097658D01*
X40697012Y-84070920D01*
X40672686Y-83972548D01*
X40609281Y-83903734D01*
X40521154Y-83870498D01*
X40422663Y-83878861D01*
X40342602Y-83922296D01*
X40315561Y-83947072D01*
X40296394Y-83977129D01*
X40283446Y-84022565D01*
X40275064Y-84093476D01*
X40269593Y-84199960D01*
X40265378Y-84352112D01*
X40264287Y-84400287D01*
X40260307Y-84565095D01*
X40255781Y-84681088D01*
X40248995Y-84757833D01*
X40238231Y-84804893D01*
X40221773Y-84831835D01*
X40197906Y-84848223D01*
X40182626Y-84855463D01*
X40117733Y-84880220D01*
X40079534Y-84888391D01*
X40066912Y-84861103D01*
X40059208Y-84778603D01*
X40056380Y-84639941D01*
X40058386Y-84444162D01*
X40059011Y-84413965D01*
X40063421Y-84235349D01*
X40068635Y-84104923D01*
X40076055Y-84012492D01*
X40087082Y-83947858D01*
X40103117Y-83900825D01*
X40125561Y-83861196D01*
X40137302Y-83844215D01*
X40204619Y-83769080D01*
X40279910Y-83710638D01*
X40289128Y-83705536D01*
X40424133Y-83665260D01*
X40565943Y-83671920D01*
G37*
X43080124Y-83689840D02*
X43084579Y-83766653D01*
X43088071Y-83883391D01*
X43090315Y-84030821D01*
X43091035Y-84185455D01*
X43091035Y-84708727D01*
X42998645Y-84801117D01*
X42934978Y-84858047D01*
X42879089Y-84881107D01*
X42802702Y-84879647D01*
X42772380Y-84875934D01*
X42677610Y-84865126D01*
X42599222Y-84858933D01*
X42580115Y-84858361D01*
X42515699Y-84862102D01*
X42423571Y-84871494D01*
X42387850Y-84875934D01*
X42300114Y-84882801D01*
X42241153Y-84867885D01*
X42182690Y-84821835D01*
X42161585Y-84801117D01*
X42069195Y-84708727D01*
X42069195Y-83729947D01*
X42143558Y-83696066D01*
X42207590Y-83670970D01*
X42245052Y-83662184D01*
X42254657Y-83689950D01*
X42263635Y-83767530D01*
X42271386Y-83886348D01*
X42277314Y-84037828D01*
X42280173Y-84165805D01*
X42288161Y-84669425D01*
X42357848Y-84679278D01*
X42421229Y-84672389D01*
X42452286Y-84650083D01*
X42460967Y-84608379D01*
X42468378Y-84519544D01*
X42473931Y-84394834D01*
X42477036Y-84245507D01*
X42477484Y-84168661D01*
X42477931Y-83726287D01*
X42569874Y-83694235D01*
X42634949Y-83672443D01*
X42670347Y-83662281D01*
X42671368Y-83662184D01*
X42674920Y-83689809D01*
X42678823Y-83766411D01*
X42682751Y-83882579D01*
X42686376Y-84028904D01*
X42688908Y-84165805D01*
X42696897Y-84669425D01*
X42872069Y-84669425D01*
X42880107Y-84209965D01*
X42888146Y-83750505D01*
X42973543Y-83706344D01*
X43036593Y-83676019D01*
X43073910Y-83662258D01*
X43074987Y-83662184D01*
X43080124Y-83689840D01*
G36*
X43080124Y-83689840D02*
G01*
X43084579Y-83766653D01*
X43088071Y-83883391D01*
X43090315Y-84030821D01*
X43091035Y-84185455D01*
X43091035Y-84708727D01*
X42998645Y-84801117D01*
X42934978Y-84858047D01*
X42879089Y-84881107D01*
X42802702Y-84879647D01*
X42772380Y-84875934D01*
X42677610Y-84865126D01*
X42599222Y-84858933D01*
X42580115Y-84858361D01*
X42515699Y-84862102D01*
X42423571Y-84871494D01*
X42387850Y-84875934D01*
X42300114Y-84882801D01*
X42241153Y-84867885D01*
X42182690Y-84821835D01*
X42161585Y-84801117D01*
X42069195Y-84708727D01*
X42069195Y-83729947D01*
X42143558Y-83696066D01*
X42207590Y-83670970D01*
X42245052Y-83662184D01*
X42254657Y-83689950D01*
X42263635Y-83767530D01*
X42271386Y-83886348D01*
X42277314Y-84037828D01*
X42280173Y-84165805D01*
X42288161Y-84669425D01*
X42357848Y-84679278D01*
X42421229Y-84672389D01*
X42452286Y-84650083D01*
X42460967Y-84608379D01*
X42468378Y-84519544D01*
X42473931Y-84394834D01*
X42477036Y-84245507D01*
X42477484Y-84168661D01*
X42477931Y-83726287D01*
X42569874Y-83694235D01*
X42634949Y-83672443D01*
X42670347Y-83662281D01*
X42671368Y-83662184D01*
X42674920Y-83689809D01*
X42678823Y-83766411D01*
X42682751Y-83882579D01*
X42686376Y-84028904D01*
X42688908Y-84165805D01*
X42696897Y-84669425D01*
X42872069Y-84669425D01*
X42880107Y-84209965D01*
X42888146Y-83750505D01*
X42973543Y-83706344D01*
X43036593Y-83676019D01*
X43073910Y-83662258D01*
X43074987Y-83662184D01*
X43080124Y-83689840D01*
G37*
X38244598Y-83473857D02*
X38253154Y-83593188D01*
X38262981Y-83663506D01*
X38276599Y-83694179D01*
X38296527Y-83694571D01*
X38302989Y-83690910D01*
X38388940Y-83664398D01*
X38500745Y-83665946D01*
X38614414Y-83693199D01*
X38685510Y-83728455D01*
X38758405Y-83784778D01*
X38811693Y-83848519D01*
X38848275Y-83929510D01*
X38871050Y-84037586D01*
X38882919Y-84182580D01*
X38886782Y-84374326D01*
X38886851Y-84411109D01*
X38886897Y-84824288D01*
X38794954Y-84856339D01*
X38729652Y-84878144D01*
X38693824Y-84888297D01*
X38692770Y-84888391D01*
X38689242Y-84860860D01*
X38686239Y-84784923D01*
X38683990Y-84670565D01*
X38682724Y-84527769D01*
X38682529Y-84440951D01*
X38682123Y-84269773D01*
X38680032Y-84147088D01*
X38674947Y-84063000D01*
X38665560Y-84007614D01*
X38650561Y-83971032D01*
X38628642Y-83943359D01*
X38614957Y-83930032D01*
X38520949Y-83876328D01*
X38418364Y-83872307D01*
X38325290Y-83917725D01*
X38308078Y-83934123D01*
X38282832Y-83964957D01*
X38265320Y-84001531D01*
X38254142Y-84054415D01*
X38247896Y-84134177D01*
X38245182Y-84251385D01*
X38244598Y-84412991D01*
X38244598Y-84824288D01*
X38152655Y-84856339D01*
X38087353Y-84878144D01*
X38051525Y-84888297D01*
X38050471Y-84888391D01*
X38047775Y-84860448D01*
X38045345Y-84781630D01*
X38043278Y-84659453D01*
X38041671Y-84501432D01*
X38040623Y-84315083D01*
X38040231Y-84107920D01*
X38040230Y-84098706D01*
X38040230Y-83309020D01*
X38135115Y-83268997D01*
X38230000Y-83228973D01*
X38244598Y-83473857D01*
G36*
X38244598Y-83473857D02*
G01*
X38253154Y-83593188D01*
X38262981Y-83663506D01*
X38276599Y-83694179D01*
X38296527Y-83694571D01*
X38302989Y-83690910D01*
X38388940Y-83664398D01*
X38500745Y-83665946D01*
X38614414Y-83693199D01*
X38685510Y-83728455D01*
X38758405Y-83784778D01*
X38811693Y-83848519D01*
X38848275Y-83929510D01*
X38871050Y-84037586D01*
X38882919Y-84182580D01*
X38886782Y-84374326D01*
X38886851Y-84411109D01*
X38886897Y-84824288D01*
X38794954Y-84856339D01*
X38729652Y-84878144D01*
X38693824Y-84888297D01*
X38692770Y-84888391D01*
X38689242Y-84860860D01*
X38686239Y-84784923D01*
X38683990Y-84670565D01*
X38682724Y-84527769D01*
X38682529Y-84440951D01*
X38682123Y-84269773D01*
X38680032Y-84147088D01*
X38674947Y-84063000D01*
X38665560Y-84007614D01*
X38650561Y-83971032D01*
X38628642Y-83943359D01*
X38614957Y-83930032D01*
X38520949Y-83876328D01*
X38418364Y-83872307D01*
X38325290Y-83917725D01*
X38308078Y-83934123D01*
X38282832Y-83964957D01*
X38265320Y-84001531D01*
X38254142Y-84054415D01*
X38247896Y-84134177D01*
X38245182Y-84251385D01*
X38244598Y-84412991D01*
X38244598Y-84824288D01*
X38152655Y-84856339D01*
X38087353Y-84878144D01*
X38051525Y-84888297D01*
X38050471Y-84888391D01*
X38047775Y-84860448D01*
X38045345Y-84781630D01*
X38043278Y-84659453D01*
X38041671Y-84501432D01*
X38040623Y-84315083D01*
X38040231Y-84107920D01*
X38040230Y-84098706D01*
X38040230Y-83309020D01*
X38135115Y-83268997D01*
X38230000Y-83228973D01*
X38244598Y-83473857D01*
G37*
X33548221Y-83616015D02*
X33685061Y-83687968D01*
X33786051Y-83803766D01*
X33821925Y-83878213D01*
X33849839Y-83989992D01*
X33864129Y-84131227D01*
X33865484Y-84285371D01*
X33854595Y-84435879D01*
X33832153Y-84566205D01*
X33798850Y-84659803D01*
X33788615Y-84675922D01*
X33667382Y-84796249D01*
X33523387Y-84868317D01*
X33367139Y-84889408D01*
X33209148Y-84856802D01*
X33165180Y-84837253D01*
X33079556Y-84777012D01*
X33004408Y-84697135D01*
X32997306Y-84687004D01*
X32968439Y-84638181D01*
X32949357Y-84585990D01*
X32938084Y-84517285D01*
X32932645Y-84418918D01*
X32931062Y-84277744D01*
X32931035Y-84246092D01*
X32931107Y-84236019D01*
X33222989Y-84236019D01*
X33224687Y-84369256D01*
X33231372Y-84457674D01*
X33245425Y-84514785D01*
X33269229Y-84554102D01*
X33281379Y-84567241D01*
X33351236Y-84617172D01*
X33419059Y-84614895D01*
X33487635Y-84571584D01*
X33528535Y-84525346D01*
X33552758Y-84457857D01*
X33566361Y-84351433D01*
X33567294Y-84339020D01*
X33569616Y-84146147D01*
X33545350Y-84002900D01*
X33494824Y-83910160D01*
X33418368Y-83868807D01*
X33391076Y-83866552D01*
X33319411Y-83877893D01*
X33270390Y-83917184D01*
X33240418Y-83992326D01*
X33225899Y-84111222D01*
X33222989Y-84236019D01*
X32931107Y-84236019D01*
X32932122Y-84095659D01*
X32936688Y-83990549D01*
X32946688Y-83917714D01*
X32964079Y-83864108D01*
X32990816Y-83816681D01*
X32996724Y-83807864D01*
X33096032Y-83689007D01*
X33204242Y-83620008D01*
X33335981Y-83592619D01*
X33380717Y-83591281D01*
X33548221Y-83616015D01*
G36*
X33548221Y-83616015D02*
G01*
X33685061Y-83687968D01*
X33786051Y-83803766D01*
X33821925Y-83878213D01*
X33849839Y-83989992D01*
X33864129Y-84131227D01*
X33865484Y-84285371D01*
X33854595Y-84435879D01*
X33832153Y-84566205D01*
X33798850Y-84659803D01*
X33788615Y-84675922D01*
X33667382Y-84796249D01*
X33523387Y-84868317D01*
X33367139Y-84889408D01*
X33209148Y-84856802D01*
X33165180Y-84837253D01*
X33079556Y-84777012D01*
X33004408Y-84697135D01*
X32997306Y-84687004D01*
X32968439Y-84638181D01*
X32949357Y-84585990D01*
X32938084Y-84517285D01*
X32932645Y-84418918D01*
X32931062Y-84277744D01*
X32931035Y-84246092D01*
X32931107Y-84236019D01*
X33222989Y-84236019D01*
X33224687Y-84369256D01*
X33231372Y-84457674D01*
X33245425Y-84514785D01*
X33269229Y-84554102D01*
X33281379Y-84567241D01*
X33351236Y-84617172D01*
X33419059Y-84614895D01*
X33487635Y-84571584D01*
X33528535Y-84525346D01*
X33552758Y-84457857D01*
X33566361Y-84351433D01*
X33567294Y-84339020D01*
X33569616Y-84146147D01*
X33545350Y-84002900D01*
X33494824Y-83910160D01*
X33418368Y-83868807D01*
X33391076Y-83866552D01*
X33319411Y-83877893D01*
X33270390Y-83917184D01*
X33240418Y-83992326D01*
X33225899Y-84111222D01*
X33222989Y-84236019D01*
X32931107Y-84236019D01*
X32932122Y-84095659D01*
X32936688Y-83990549D01*
X32946688Y-83917714D01*
X32964079Y-83864108D01*
X32990816Y-83816681D01*
X32996724Y-83807864D01*
X33096032Y-83689007D01*
X33204242Y-83620008D01*
X33335981Y-83592619D01*
X33380717Y-83591281D01*
X33548221Y-83616015D01*
G37*
X45843439Y-83706540D02*
X45958950Y-83782034D01*
X46014664Y-83849617D01*
X46058804Y-83972255D01*
X46062309Y-84069298D01*
X46054368Y-84199056D01*
X45755115Y-84330039D01*
X45609611Y-84396958D01*
X45514537Y-84450790D01*
X45465101Y-84497416D01*
X45456511Y-84542720D01*
X45483972Y-84592582D01*
X45514253Y-84625632D01*
X45602363Y-84678633D01*
X45698196Y-84682347D01*
X45786212Y-84641041D01*
X45850869Y-84558983D01*
X45862433Y-84530008D01*
X45917825Y-84439509D01*
X45981553Y-84400940D01*
X46068966Y-84367946D01*
X46068966Y-84493034D01*
X46061238Y-84578156D01*
X46030966Y-84649938D01*
X45967518Y-84732356D01*
X45958088Y-84743066D01*
X45887513Y-84816391D01*
X45826847Y-84855742D01*
X45750950Y-84873845D01*
X45688030Y-84879774D01*
X45575487Y-84881251D01*
X45495370Y-84862535D01*
X45445390Y-84834747D01*
X45366838Y-84773641D01*
X45312463Y-84707554D01*
X45278052Y-84624441D01*
X45259388Y-84512254D01*
X45252256Y-84358946D01*
X45251687Y-84281136D01*
X45253622Y-84187853D01*
X45429899Y-84187853D01*
X45431944Y-84237896D01*
X45437039Y-84246092D01*
X45470666Y-84234958D01*
X45543030Y-84205493D01*
X45639747Y-84163601D01*
X45659973Y-84154597D01*
X45782203Y-84092442D01*
X45849547Y-84037815D01*
X45864348Y-83986649D01*
X45828947Y-83934876D01*
X45799711Y-83912000D01*
X45694216Y-83866250D01*
X45595476Y-83873808D01*
X45512812Y-83929651D01*
X45455548Y-84028753D01*
X45437188Y-84107414D01*
X45429899Y-84187853D01*
X45253622Y-84187853D01*
X45255459Y-84099351D01*
X45269359Y-83964853D01*
X45296894Y-83866916D01*
X45341572Y-83794811D01*
X45406901Y-83737813D01*
X45435383Y-83719393D01*
X45564763Y-83671422D01*
X45706412Y-83668403D01*
X45843439Y-83706540D01*
G36*
X45843439Y-83706540D02*
G01*
X45958950Y-83782034D01*
X46014664Y-83849617D01*
X46058804Y-83972255D01*
X46062309Y-84069298D01*
X46054368Y-84199056D01*
X45755115Y-84330039D01*
X45609611Y-84396958D01*
X45514537Y-84450790D01*
X45465101Y-84497416D01*
X45456511Y-84542720D01*
X45483972Y-84592582D01*
X45514253Y-84625632D01*
X45602363Y-84678633D01*
X45698196Y-84682347D01*
X45786212Y-84641041D01*
X45850869Y-84558983D01*
X45862433Y-84530008D01*
X45917825Y-84439509D01*
X45981553Y-84400940D01*
X46068966Y-84367946D01*
X46068966Y-84493034D01*
X46061238Y-84578156D01*
X46030966Y-84649938D01*
X45967518Y-84732356D01*
X45958088Y-84743066D01*
X45887513Y-84816391D01*
X45826847Y-84855742D01*
X45750950Y-84873845D01*
X45688030Y-84879774D01*
X45575487Y-84881251D01*
X45495370Y-84862535D01*
X45445390Y-84834747D01*
X45366838Y-84773641D01*
X45312463Y-84707554D01*
X45278052Y-84624441D01*
X45259388Y-84512254D01*
X45252256Y-84358946D01*
X45251687Y-84281136D01*
X45253622Y-84187853D01*
X45429899Y-84187853D01*
X45431944Y-84237896D01*
X45437039Y-84246092D01*
X45470666Y-84234958D01*
X45543030Y-84205493D01*
X45639747Y-84163601D01*
X45659973Y-84154597D01*
X45782203Y-84092442D01*
X45849547Y-84037815D01*
X45864348Y-83986649D01*
X45828947Y-83934876D01*
X45799711Y-83912000D01*
X45694216Y-83866250D01*
X45595476Y-83873808D01*
X45512812Y-83929651D01*
X45455548Y-84028753D01*
X45437188Y-84107414D01*
X45429899Y-84187853D01*
X45253622Y-84187853D01*
X45255459Y-84099351D01*
X45269359Y-83964853D01*
X45296894Y-83866916D01*
X45341572Y-83794811D01*
X45406901Y-83737813D01*
X45435383Y-83719393D01*
X45564763Y-83671422D01*
X45706412Y-83668403D01*
X45843439Y-83706540D01*
G37*
X41893914Y-83904455D02*
X41893543Y-84122661D01*
X41892108Y-84290519D01*
X41889002Y-84416070D01*
X41883622Y-84507355D01*
X41875362Y-84572415D01*
X41863616Y-84619291D01*
X41847781Y-84656024D01*
X41835790Y-84676991D01*
X41736490Y-84790694D01*
X41610588Y-84861965D01*
X41471291Y-84887538D01*
X41331805Y-84864150D01*
X41248743Y-84822119D01*
X41161545Y-84749411D01*
X41102117Y-84660612D01*
X41066261Y-84544320D01*
X41049781Y-84389135D01*
X41047447Y-84275287D01*
X41047761Y-84267106D01*
X41251724Y-84267106D01*
X41252970Y-84397657D01*
X41258678Y-84484080D01*
X41271804Y-84540618D01*
X41295306Y-84581514D01*
X41323386Y-84612362D01*
X41417688Y-84671905D01*
X41518940Y-84676992D01*
X41614636Y-84627279D01*
X41622084Y-84620543D01*
X41653874Y-84585502D01*
X41673808Y-84543811D01*
X41684600Y-84481762D01*
X41688965Y-84385644D01*
X41689655Y-84279379D01*
X41688159Y-84145880D01*
X41681964Y-84056822D01*
X41668514Y-83998293D01*
X41645251Y-83956382D01*
X41626175Y-83934123D01*
X41537563Y-83877985D01*
X41435508Y-83871235D01*
X41338095Y-83914114D01*
X41319296Y-83930032D01*
X41287293Y-83965382D01*
X41267318Y-84007502D01*
X41256593Y-84070251D01*
X41252339Y-84167487D01*
X41251724Y-84267106D01*
X41047761Y-84267106D01*
X41054504Y-84091947D01*
X41078472Y-83954195D01*
X41123548Y-83850632D01*
X41193928Y-83769856D01*
X41248743Y-83728455D01*
X41348376Y-83683728D01*
X41463855Y-83662967D01*
X41571199Y-83668525D01*
X41631264Y-83690943D01*
X41654835Y-83697323D01*
X41670477Y-83673535D01*
X41681395Y-83609788D01*
X41689655Y-83512687D01*
X41698699Y-83404541D01*
X41711261Y-83339475D01*
X41734119Y-83302268D01*
X41774051Y-83277699D01*
X41799138Y-83266819D01*
X41894023Y-83227072D01*
X41893914Y-83904455D01*
G36*
X41893914Y-83904455D02*
G01*
X41893543Y-84122661D01*
X41892108Y-84290519D01*
X41889002Y-84416070D01*
X41883622Y-84507355D01*
X41875362Y-84572415D01*
X41863616Y-84619291D01*
X41847781Y-84656024D01*
X41835790Y-84676991D01*
X41736490Y-84790694D01*
X41610588Y-84861965D01*
X41471291Y-84887538D01*
X41331805Y-84864150D01*
X41248743Y-84822119D01*
X41161545Y-84749411D01*
X41102117Y-84660612D01*
X41066261Y-84544320D01*
X41049781Y-84389135D01*
X41047447Y-84275287D01*
X41047761Y-84267106D01*
X41251724Y-84267106D01*
X41252970Y-84397657D01*
X41258678Y-84484080D01*
X41271804Y-84540618D01*
X41295306Y-84581514D01*
X41323386Y-84612362D01*
X41417688Y-84671905D01*
X41518940Y-84676992D01*
X41614636Y-84627279D01*
X41622084Y-84620543D01*
X41653874Y-84585502D01*
X41673808Y-84543811D01*
X41684600Y-84481762D01*
X41688965Y-84385644D01*
X41689655Y-84279379D01*
X41688159Y-84145880D01*
X41681964Y-84056822D01*
X41668514Y-83998293D01*
X41645251Y-83956382D01*
X41626175Y-83934123D01*
X41537563Y-83877985D01*
X41435508Y-83871235D01*
X41338095Y-83914114D01*
X41319296Y-83930032D01*
X41287293Y-83965382D01*
X41267318Y-84007502D01*
X41256593Y-84070251D01*
X41252339Y-84167487D01*
X41251724Y-84267106D01*
X41047761Y-84267106D01*
X41054504Y-84091947D01*
X41078472Y-83954195D01*
X41123548Y-83850632D01*
X41193928Y-83769856D01*
X41248743Y-83728455D01*
X41348376Y-83683728D01*
X41463855Y-83662967D01*
X41571199Y-83668525D01*
X41631264Y-83690943D01*
X41654835Y-83697323D01*
X41670477Y-83673535D01*
X41681395Y-83609788D01*
X41689655Y-83512687D01*
X41698699Y-83404541D01*
X41711261Y-83339475D01*
X41734119Y-83302268D01*
X41774051Y-83277699D01*
X41799138Y-83266819D01*
X41894023Y-83227072D01*
X41893914Y-83904455D01*
G37*
X35815552Y-83634676D02*
X35930658Y-83712111D01*
X36019611Y-83823949D01*
X36072749Y-83966265D01*
X36083497Y-84071015D01*
X36082276Y-84114726D01*
X36072056Y-84148194D01*
X36043961Y-84178179D01*
X35989116Y-84211440D01*
X35898645Y-84254738D01*
X35763672Y-84314833D01*
X35762989Y-84315134D01*
X35638751Y-84372037D01*
X35536873Y-84422565D01*
X35467767Y-84461280D01*
X35441846Y-84482740D01*
X35441839Y-84482913D01*
X35464685Y-84529644D01*
X35518109Y-84581154D01*
X35579442Y-84618261D01*
X35610515Y-84625632D01*
X35695289Y-84600138D01*
X35768293Y-84536291D01*
X35803913Y-84466094D01*
X35838180Y-84414343D01*
X35905303Y-84355409D01*
X35984208Y-84304496D01*
X36053821Y-84276809D01*
X36068377Y-84275287D01*
X36084763Y-84300321D01*
X36085750Y-84364311D01*
X36073708Y-84450593D01*
X36051007Y-84542501D01*
X36020014Y-84623369D01*
X36018448Y-84626509D01*
X35925181Y-84756734D01*
X35804304Y-84845311D01*
X35667027Y-84888786D01*
X35524560Y-84883706D01*
X35388112Y-84826616D01*
X35382045Y-84822602D01*
X35274710Y-84725326D01*
X35204132Y-84598409D01*
X35165074Y-84431526D01*
X35159832Y-84384639D01*
X35150548Y-84163329D01*
X35161678Y-84060124D01*
X35441839Y-84060124D01*
X35445479Y-84124503D01*
X35465389Y-84143291D01*
X35515026Y-84129235D01*
X35593267Y-84096009D01*
X35680726Y-84054359D01*
X35682899Y-84053256D01*
X35757030Y-84014265D01*
X35786781Y-83988244D01*
X35779445Y-83960965D01*
X35748553Y-83925121D01*
X35669960Y-83873251D01*
X35585323Y-83869439D01*
X35509403Y-83907189D01*
X35456965Y-83980001D01*
X35441839Y-84060124D01*
X35161678Y-84060124D01*
X35169644Y-83986261D01*
X35218634Y-83845829D01*
X35286836Y-83747447D01*
X35409935Y-83648030D01*
X35545528Y-83598711D01*
X35683955Y-83595568D01*
X35815552Y-83634676D01*
G36*
X35815552Y-83634676D02*
G01*
X35930658Y-83712111D01*
X36019611Y-83823949D01*
X36072749Y-83966265D01*
X36083497Y-84071015D01*
X36082276Y-84114726D01*
X36072056Y-84148194D01*
X36043961Y-84178179D01*
X35989116Y-84211440D01*
X35898645Y-84254738D01*
X35763672Y-84314833D01*
X35762989Y-84315134D01*
X35638751Y-84372037D01*
X35536873Y-84422565D01*
X35467767Y-84461280D01*
X35441846Y-84482740D01*
X35441839Y-84482913D01*
X35464685Y-84529644D01*
X35518109Y-84581154D01*
X35579442Y-84618261D01*
X35610515Y-84625632D01*
X35695289Y-84600138D01*
X35768293Y-84536291D01*
X35803913Y-84466094D01*
X35838180Y-84414343D01*
X35905303Y-84355409D01*
X35984208Y-84304496D01*
X36053821Y-84276809D01*
X36068377Y-84275287D01*
X36084763Y-84300321D01*
X36085750Y-84364311D01*
X36073708Y-84450593D01*
X36051007Y-84542501D01*
X36020014Y-84623369D01*
X36018448Y-84626509D01*
X35925181Y-84756734D01*
X35804304Y-84845311D01*
X35667027Y-84888786D01*
X35524560Y-84883706D01*
X35388112Y-84826616D01*
X35382045Y-84822602D01*
X35274710Y-84725326D01*
X35204132Y-84598409D01*
X35165074Y-84431526D01*
X35159832Y-84384639D01*
X35150548Y-84163329D01*
X35161678Y-84060124D01*
X35441839Y-84060124D01*
X35445479Y-84124503D01*
X35465389Y-84143291D01*
X35515026Y-84129235D01*
X35593267Y-84096009D01*
X35680726Y-84054359D01*
X35682899Y-84053256D01*
X35757030Y-84014265D01*
X35786781Y-83988244D01*
X35779445Y-83960965D01*
X35748553Y-83925121D01*
X35669960Y-83873251D01*
X35585323Y-83869439D01*
X35509403Y-83907189D01*
X35456965Y-83980001D01*
X35441839Y-84060124D01*
X35161678Y-84060124D01*
X35169644Y-83986261D01*
X35218634Y-83845829D01*
X35286836Y-83747447D01*
X35409935Y-83648030D01*
X35545528Y-83598711D01*
X35683955Y-83595568D01*
X35815552Y-83634676D01*
G37*
X39579944Y-83674360D02*
X39694343Y-83716842D01*
X39695652Y-83717658D01*
X39766403Y-83769730D01*
X39818636Y-83830584D01*
X39855371Y-83909887D01*
X39879634Y-84017309D01*
X39894445Y-84162517D01*
X39902829Y-84355179D01*
X39903564Y-84382628D01*
X39914120Y-84796521D01*
X39825291Y-84842456D01*
X39761018Y-84873498D01*
X39722210Y-84888206D01*
X39720415Y-84888391D01*
X39713700Y-84861250D01*
X39708365Y-84788041D01*
X39705083Y-84681081D01*
X39704368Y-84594469D01*
X39704351Y-84454162D01*
X39697937Y-84366051D01*
X39675580Y-84324025D01*
X39627732Y-84321975D01*
X39544849Y-84353790D01*
X39419713Y-84412272D01*
X39327697Y-84460845D01*
X39280371Y-84502986D01*
X39266458Y-84548916D01*
X39266437Y-84551189D01*
X39289395Y-84630311D01*
X39357370Y-84673055D01*
X39461398Y-84679246D01*
X39536330Y-84678172D01*
X39575839Y-84699753D01*
X39600478Y-84751591D01*
X39614659Y-84817632D01*
X39594223Y-84855104D01*
X39586528Y-84860467D01*
X39514083Y-84882006D01*
X39412633Y-84885055D01*
X39308157Y-84870778D01*
X39234125Y-84844688D01*
X39131772Y-84757785D01*
X39073591Y-84636816D01*
X39062069Y-84542308D01*
X39070862Y-84457062D01*
X39102680Y-84387476D01*
X39165684Y-84325672D01*
X39268031Y-84263772D01*
X39417882Y-84193897D01*
X39427012Y-84189948D01*
X39561997Y-84127588D01*
X39645294Y-84076446D01*
X39680997Y-84030488D01*
X39673203Y-83983683D01*
X39626007Y-83929998D01*
X39611894Y-83917644D01*
X39517359Y-83869741D01*
X39419406Y-83871758D01*
X39334097Y-83918724D01*
X39277496Y-84005669D01*
X39272237Y-84022734D01*
X39221023Y-84105504D01*
X39156037Y-84145372D01*
X39062069Y-84184882D01*
X39062069Y-84082658D01*
X39090653Y-83934072D01*
X39175495Y-83797784D01*
X39219645Y-83752191D01*
X39320005Y-83693674D01*
X39447635Y-83667184D01*
X39579944Y-83674360D01*
G36*
X39579944Y-83674360D02*
G01*
X39694343Y-83716842D01*
X39695652Y-83717658D01*
X39766403Y-83769730D01*
X39818636Y-83830584D01*
X39855371Y-83909887D01*
X39879634Y-84017309D01*
X39894445Y-84162517D01*
X39902829Y-84355179D01*
X39903564Y-84382628D01*
X39914120Y-84796521D01*
X39825291Y-84842456D01*
X39761018Y-84873498D01*
X39722210Y-84888206D01*
X39720415Y-84888391D01*
X39713700Y-84861250D01*
X39708365Y-84788041D01*
X39705083Y-84681081D01*
X39704368Y-84594469D01*
X39704351Y-84454162D01*
X39697937Y-84366051D01*
X39675580Y-84324025D01*
X39627732Y-84321975D01*
X39544849Y-84353790D01*
X39419713Y-84412272D01*
X39327697Y-84460845D01*
X39280371Y-84502986D01*
X39266458Y-84548916D01*
X39266437Y-84551189D01*
X39289395Y-84630311D01*
X39357370Y-84673055D01*
X39461398Y-84679246D01*
X39536330Y-84678172D01*
X39575839Y-84699753D01*
X39600478Y-84751591D01*
X39614659Y-84817632D01*
X39594223Y-84855104D01*
X39586528Y-84860467D01*
X39514083Y-84882006D01*
X39412633Y-84885055D01*
X39308157Y-84870778D01*
X39234125Y-84844688D01*
X39131772Y-84757785D01*
X39073591Y-84636816D01*
X39062069Y-84542308D01*
X39070862Y-84457062D01*
X39102680Y-84387476D01*
X39165684Y-84325672D01*
X39268031Y-84263772D01*
X39417882Y-84193897D01*
X39427012Y-84189948D01*
X39561997Y-84127588D01*
X39645294Y-84076446D01*
X39680997Y-84030488D01*
X39673203Y-83983683D01*
X39626007Y-83929998D01*
X39611894Y-83917644D01*
X39517359Y-83869741D01*
X39419406Y-83871758D01*
X39334097Y-83918724D01*
X39277496Y-84005669D01*
X39272237Y-84022734D01*
X39221023Y-84105504D01*
X39156037Y-84145372D01*
X39062069Y-84184882D01*
X39062069Y-84082658D01*
X39090653Y-83934072D01*
X39175495Y-83797784D01*
X39219645Y-83752191D01*
X39320005Y-83693674D01*
X39447635Y-83667184D01*
X39579944Y-83674360D01*
G37*
X34671900Y-83611903D02*
X34783450Y-83667522D01*
X34881908Y-83769931D01*
X34909023Y-83807864D01*
X34938562Y-83857500D01*
X34957728Y-83911412D01*
X34968693Y-83983364D01*
X34973629Y-84087122D01*
X34974713Y-84224101D01*
X34969818Y-84411815D01*
X34952804Y-84552758D01*
X34920177Y-84657908D01*
X34868442Y-84738243D01*
X34794104Y-84804741D01*
X34788642Y-84808678D01*
X34715380Y-84848953D01*
X34627160Y-84868880D01*
X34514962Y-84873793D01*
X34332567Y-84873793D01*
X34332491Y-85050857D01*
X34330793Y-85149470D01*
X34320450Y-85207314D01*
X34293422Y-85242006D01*
X34241668Y-85271164D01*
X34229239Y-85277121D01*
X34171077Y-85305039D01*
X34126044Y-85322672D01*
X34092559Y-85324194D01*
X34069038Y-85303781D01*
X34053900Y-85255607D01*
X34045563Y-85173846D01*
X34042444Y-85052672D01*
X34042960Y-84886260D01*
X34045529Y-84668785D01*
X34046332Y-84603736D01*
X34049222Y-84379502D01*
X34051812Y-84232821D01*
X34332414Y-84232821D01*
X34333991Y-84357326D01*
X34341000Y-84438787D01*
X34356858Y-84492515D01*
X34384981Y-84533823D01*
X34404075Y-84553971D01*
X34482135Y-84612921D01*
X34551247Y-84617720D01*
X34622560Y-84569038D01*
X34624368Y-84567241D01*
X34653383Y-84529618D01*
X34671033Y-84478484D01*
X34679936Y-84399738D01*
X34682709Y-84279276D01*
X34682759Y-84252588D01*
X34676058Y-84086583D01*
X34654248Y-83971505D01*
X34614765Y-83901254D01*
X34555044Y-83869729D01*
X34520528Y-83866552D01*
X34438611Y-83881460D01*
X34382421Y-83930548D01*
X34348598Y-84020362D01*
X34333780Y-84157445D01*
X34332414Y-84232821D01*
X34051812Y-84232821D01*
X34052287Y-84205952D01*
X34056247Y-84075382D01*
X34061826Y-83980087D01*
X34069746Y-83912364D01*
X34080731Y-83864507D01*
X34095501Y-83828813D01*
X34114782Y-83797578D01*
X34123049Y-83785824D01*
X34232712Y-83674797D01*
X34371365Y-83611847D01*
X34531754Y-83594297D01*
X34671900Y-83611903D01*
G36*
X34671900Y-83611903D02*
G01*
X34783450Y-83667522D01*
X34881908Y-83769931D01*
X34909023Y-83807864D01*
X34938562Y-83857500D01*
X34957728Y-83911412D01*
X34968693Y-83983364D01*
X34973629Y-84087122D01*
X34974713Y-84224101D01*
X34969818Y-84411815D01*
X34952804Y-84552758D01*
X34920177Y-84657908D01*
X34868442Y-84738243D01*
X34794104Y-84804741D01*
X34788642Y-84808678D01*
X34715380Y-84848953D01*
X34627160Y-84868880D01*
X34514962Y-84873793D01*
X34332567Y-84873793D01*
X34332491Y-85050857D01*
X34330793Y-85149470D01*
X34320450Y-85207314D01*
X34293422Y-85242006D01*
X34241668Y-85271164D01*
X34229239Y-85277121D01*
X34171077Y-85305039D01*
X34126044Y-85322672D01*
X34092559Y-85324194D01*
X34069038Y-85303781D01*
X34053900Y-85255607D01*
X34045563Y-85173846D01*
X34042444Y-85052672D01*
X34042960Y-84886260D01*
X34045529Y-84668785D01*
X34046332Y-84603736D01*
X34049222Y-84379502D01*
X34051812Y-84232821D01*
X34332414Y-84232821D01*
X34333991Y-84357326D01*
X34341000Y-84438787D01*
X34356858Y-84492515D01*
X34384981Y-84533823D01*
X34404075Y-84553971D01*
X34482135Y-84612921D01*
X34551247Y-84617720D01*
X34622560Y-84569038D01*
X34624368Y-84567241D01*
X34653383Y-84529618D01*
X34671033Y-84478484D01*
X34679936Y-84399738D01*
X34682709Y-84279276D01*
X34682759Y-84252588D01*
X34676058Y-84086583D01*
X34654248Y-83971505D01*
X34614765Y-83901254D01*
X34555044Y-83869729D01*
X34520528Y-83866552D01*
X34438611Y-83881460D01*
X34382421Y-83930548D01*
X34348598Y-84020362D01*
X34333780Y-84157445D01*
X34332414Y-84232821D01*
X34051812Y-84232821D01*
X34052287Y-84205952D01*
X34056247Y-84075382D01*
X34061826Y-83980087D01*
X34069746Y-83912364D01*
X34080731Y-83864507D01*
X34095501Y-83828813D01*
X34114782Y-83797578D01*
X34123049Y-83785824D01*
X34232712Y-83674797D01*
X34371365Y-83611847D01*
X34531754Y-83594297D01*
X34671900Y-83611903D01*
G37*
X43814406Y-83685156D02*
X43898469Y-83723393D01*
X43964450Y-83769726D01*
X44012794Y-83821532D01*
X44046172Y-83888363D01*
X44067253Y-83979769D01*
X44078707Y-84105301D01*
X44083203Y-84274508D01*
X44083678Y-84385933D01*
X44083678Y-84820627D01*
X44009316Y-84854509D01*
X43950746Y-84879272D01*
X43921730Y-84888391D01*
X43916179Y-84861257D01*
X43911775Y-84788094D01*
X43909078Y-84681263D01*
X43908506Y-84596437D01*
X43906046Y-84473887D01*
X43899412Y-84376668D01*
X43889726Y-84317134D01*
X43882032Y-84304483D01*
X43830311Y-84317402D01*
X43749117Y-84350539D01*
X43655102Y-84395461D01*
X43564917Y-84443735D01*
X43495215Y-84486928D01*
X43462648Y-84516608D01*
X43462519Y-84516929D01*
X43465320Y-84571857D01*
X43490439Y-84624292D01*
X43534541Y-84666881D01*
X43598909Y-84681126D01*
X43653921Y-84679466D01*
X43731835Y-84678245D01*
X43772732Y-84696498D01*
X43797295Y-84744726D01*
X43800392Y-84753820D01*
X43811040Y-84822598D01*
X43782565Y-84864360D01*
X43708344Y-84884263D01*
X43628168Y-84887944D01*
X43483890Y-84860658D01*
X43409203Y-84821690D01*
X43316963Y-84730148D01*
X43268043Y-84617782D01*
X43263654Y-84499051D01*
X43305001Y-84388411D01*
X43367197Y-84319080D01*
X43429294Y-84280265D01*
X43526895Y-84231125D01*
X43640632Y-84181292D01*
X43659590Y-84173677D01*
X43784521Y-84118545D01*
X43856539Y-84069954D01*
X43879700Y-84021647D01*
X43858064Y-83967370D01*
X43820920Y-83924943D01*
X43733127Y-83872702D01*
X43636530Y-83868784D01*
X43547944Y-83909041D01*
X43484186Y-83989326D01*
X43475817Y-84010040D01*
X43427096Y-84086225D01*
X43355965Y-84142785D01*
X43266207Y-84189201D01*
X43266207Y-84057584D01*
X43271490Y-83977168D01*
X43294142Y-83913786D01*
X43344367Y-83846163D01*
X43392582Y-83794076D01*
X43467554Y-83720322D01*
X43525806Y-83680702D01*
X43588372Y-83664810D01*
X43659193Y-83662184D01*
X43814406Y-83685156D01*
G36*
X43814406Y-83685156D02*
G01*
X43898469Y-83723393D01*
X43964450Y-83769726D01*
X44012794Y-83821532D01*
X44046172Y-83888363D01*
X44067253Y-83979769D01*
X44078707Y-84105301D01*
X44083203Y-84274508D01*
X44083678Y-84385933D01*
X44083678Y-84820627D01*
X44009316Y-84854509D01*
X43950746Y-84879272D01*
X43921730Y-84888391D01*
X43916179Y-84861257D01*
X43911775Y-84788094D01*
X43909078Y-84681263D01*
X43908506Y-84596437D01*
X43906046Y-84473887D01*
X43899412Y-84376668D01*
X43889726Y-84317134D01*
X43882032Y-84304483D01*
X43830311Y-84317402D01*
X43749117Y-84350539D01*
X43655102Y-84395461D01*
X43564917Y-84443735D01*
X43495215Y-84486928D01*
X43462648Y-84516608D01*
X43462519Y-84516929D01*
X43465320Y-84571857D01*
X43490439Y-84624292D01*
X43534541Y-84666881D01*
X43598909Y-84681126D01*
X43653921Y-84679466D01*
X43731835Y-84678245D01*
X43772732Y-84696498D01*
X43797295Y-84744726D01*
X43800392Y-84753820D01*
X43811040Y-84822598D01*
X43782565Y-84864360D01*
X43708344Y-84884263D01*
X43628168Y-84887944D01*
X43483890Y-84860658D01*
X43409203Y-84821690D01*
X43316963Y-84730148D01*
X43268043Y-84617782D01*
X43263654Y-84499051D01*
X43305001Y-84388411D01*
X43367197Y-84319080D01*
X43429294Y-84280265D01*
X43526895Y-84231125D01*
X43640632Y-84181292D01*
X43659590Y-84173677D01*
X43784521Y-84118545D01*
X43856539Y-84069954D01*
X43879700Y-84021647D01*
X43858064Y-83967370D01*
X43820920Y-83924943D01*
X43733127Y-83872702D01*
X43636530Y-83868784D01*
X43547944Y-83909041D01*
X43484186Y-83989326D01*
X43475817Y-84010040D01*
X43427096Y-84086225D01*
X43355965Y-84142785D01*
X43266207Y-84189201D01*
X43266207Y-84057584D01*
X43271490Y-83977168D01*
X43294142Y-83913786D01*
X43344367Y-83846163D01*
X43392582Y-83794076D01*
X43467554Y-83720322D01*
X43525806Y-83680702D01*
X43588372Y-83664810D01*
X43659193Y-83662184D01*
X43814406Y-83685156D01*
G37*
X39709014Y-74202998D02*
X39867006Y-74203863D01*
X39981347Y-74206205D01*
X40059407Y-74210762D01*
X40108554Y-74218270D01*
X40136159Y-74229466D01*
X40149592Y-74245088D01*
X40156221Y-74265873D01*
X40156865Y-74268563D01*
X40166935Y-74317113D01*
X40185575Y-74412905D01*
X40210845Y-74545743D01*
X40240807Y-74705431D01*
X40273522Y-74881774D01*
X40274664Y-74887967D01*
X40307433Y-75060782D01*
X40338093Y-75213469D01*
X40364664Y-75336871D01*
X40385167Y-75421831D01*
X40397626Y-75459190D01*
X40398220Y-75459852D01*
X40434919Y-75478095D01*
X40510586Y-75508497D01*
X40608878Y-75544493D01*
X40609425Y-75544685D01*
X40733233Y-75591222D01*
X40879196Y-75650504D01*
X41016781Y-75710109D01*
X41023293Y-75713056D01*
X41247390Y-75814765D01*
X41743619Y-75475897D01*
X41895846Y-75372592D01*
X42033741Y-75280237D01*
X42149315Y-75204084D01*
X42234579Y-75149385D01*
X42281544Y-75121393D01*
X42286004Y-75119317D01*
X42320134Y-75128560D01*
X42383881Y-75173156D01*
X42479731Y-75255209D01*
X42610169Y-75376821D01*
X42743328Y-75506205D01*
X42871694Y-75633702D01*
X42986581Y-75750046D01*
X43081073Y-75848052D01*
X43148253Y-75920536D01*
X43181206Y-75960313D01*
X43182432Y-75962361D01*
X43186074Y-75989656D01*
X43172350Y-76034234D01*
X43137869Y-76102112D01*
X43079239Y-76199311D01*
X42993070Y-76331851D01*
X42878200Y-76502476D01*
X42776254Y-76652655D01*
X42685123Y-76787350D01*
X42610073Y-76898740D01*
X42556369Y-76979005D01*
X42529280Y-77020325D01*
X42527574Y-77023130D01*
X42530882Y-77062721D01*
X42555953Y-77139669D01*
X42597798Y-77239432D01*
X42612712Y-77271291D01*
X42677786Y-77413226D01*
X42747212Y-77574273D01*
X42803609Y-77713621D01*
X42844247Y-77817044D01*
X42876526Y-77895642D01*
X42895178Y-77936720D01*
X42897497Y-77939885D01*
X42931803Y-77945128D01*
X43012669Y-77959494D01*
X43129343Y-77980937D01*
X43271075Y-78007413D01*
X43427110Y-78036877D01*
X43586698Y-78067283D01*
X43739085Y-78096588D01*
X43873521Y-78122745D01*
X43979252Y-78143710D01*
X44045526Y-78157439D01*
X44061782Y-78161320D01*
X44078573Y-78170900D01*
X44091249Y-78192536D01*
X44100378Y-78233531D01*
X44106531Y-78301189D01*
X44110280Y-78402812D01*
X44112192Y-78545703D01*
X44112840Y-78737165D01*
X44112874Y-78815645D01*
X44112874Y-79453906D01*
X43959598Y-79484160D01*
X43874322Y-79500564D01*
X43747070Y-79524509D01*
X43593315Y-79553107D01*
X43428534Y-79583467D01*
X43382989Y-79591806D01*
X43230932Y-79621370D01*
X43098468Y-79650442D01*
X42996714Y-79676329D01*
X42936788Y-79696337D01*
X42926805Y-79702301D01*
X42902293Y-79744534D01*
X42867148Y-79826370D01*
X42828173Y-79931683D01*
X42820442Y-79954368D01*
X42769360Y-80095018D01*
X42705954Y-80253714D01*
X42643904Y-80396225D01*
X42643598Y-80396886D01*
X42540267Y-80620440D01*
X43219961Y-81620232D01*
X42783621Y-82057300D01*
X42651649Y-82187381D01*
X42531279Y-82302048D01*
X42429273Y-82395181D01*
X42352391Y-82460658D01*
X42307393Y-82492357D01*
X42300938Y-82494368D01*
X42263040Y-82478529D01*
X42185708Y-82434496D01*
X42077389Y-82367490D01*
X41946532Y-82282734D01*
X41805052Y-82187816D01*
X41661461Y-82090998D01*
X41533435Y-82006751D01*
X41429105Y-81940258D01*
X41356600Y-81896702D01*
X41324158Y-81881264D01*
X41284576Y-81894328D01*
X41209519Y-81928750D01*
X41114468Y-81977380D01*
X41104392Y-81982785D01*
X40976391Y-82046980D01*
X40888618Y-82078463D01*
X40834028Y-82078798D01*
X40805575Y-82049548D01*
X40805410Y-82049138D01*
X40791188Y-82014498D01*
X40757269Y-81932269D01*
X40706284Y-81808814D01*
X40640862Y-81650498D01*
X40563634Y-81463686D01*
X40477229Y-81254742D01*
X40393551Y-81052446D01*
X40301588Y-80829200D01*
X40217150Y-80622392D01*
X40142769Y-80438362D01*
X40080974Y-80283451D01*
X40034297Y-80163996D01*
X40005268Y-80086339D01*
X39996322Y-80057356D01*
X40018756Y-80024110D01*
X40077439Y-79971123D01*
X40155689Y-79912704D01*
X40378534Y-79727952D01*
X40552718Y-79516182D01*
X40676154Y-79281856D01*
X40746754Y-79029434D01*
X40762431Y-78763377D01*
X40751036Y-78640575D01*
X40688950Y-78385793D01*
X40582023Y-78160801D01*
X40436889Y-77967817D01*
X40260178Y-77809061D01*
X40058522Y-77686750D01*
X39838554Y-77603105D01*
X39606906Y-77560344D01*
X39370209Y-77560687D01*
X39135095Y-77606352D01*
X38908196Y-77699559D01*
X38696144Y-77842527D01*
X38607636Y-77923383D01*
X38437889Y-78131007D01*
X38319699Y-78357895D01*
X38252278Y-78597433D01*
X38234840Y-78843007D01*
X38266598Y-79088003D01*
X38346765Y-79325808D01*
X38474555Y-79549807D01*
X38649180Y-79753387D01*
X38844312Y-79912704D01*
X38925591Y-79973602D01*
X38983009Y-80026015D01*
X39003678Y-80057406D01*
X38992856Y-80091639D01*
X38962077Y-80173419D01*
X38913874Y-80296407D01*
X38850778Y-80454263D01*
X38775322Y-80640649D01*
X38690038Y-80849226D01*
X38606219Y-81052496D01*
X38513745Y-81275933D01*
X38428089Y-81482984D01*
X38351882Y-81667286D01*
X38287753Y-81822475D01*
X38238332Y-81942188D01*
X38206248Y-82020061D01*
X38194359Y-82049138D01*
X38166274Y-82078677D01*
X38111949Y-82078591D01*
X38024395Y-82047326D01*
X37896619Y-81983329D01*
X37895608Y-81982785D01*
X37799402Y-81933121D01*
X37721631Y-81896945D01*
X37677777Y-81881408D01*
X37675842Y-81881264D01*
X37642829Y-81897024D01*
X37569946Y-81940850D01*
X37465322Y-82007557D01*
X37337090Y-82091964D01*
X37194948Y-82187816D01*
X37050233Y-82284867D01*
X36919804Y-82369270D01*
X36812110Y-82435801D01*
X36735598Y-82479238D01*
X36699062Y-82494368D01*
X36665418Y-82474482D01*
X36597776Y-82418903D01*
X36502893Y-82333754D01*
X36387530Y-82225153D01*
X36258445Y-82099221D01*
X36216229Y-82057149D01*
X35779739Y-81619931D01*
X36111977Y-81132340D01*
X36212946Y-80982605D01*
X36301562Y-80848220D01*
X36372854Y-80736969D01*
X36421850Y-80656639D01*
X36443578Y-80615014D01*
X36444215Y-80612053D01*
X36432760Y-80572818D01*
X36401949Y-80493895D01*
X36357116Y-80388509D01*
X36325647Y-80317954D01*
X36266808Y-80182876D01*
X36211396Y-80046409D01*
X36168436Y-79931103D01*
X36156766Y-79895977D01*
X36123611Y-79802174D01*
X36091201Y-79729694D01*
X36073399Y-79702301D01*
X36034114Y-79685536D01*
X35948374Y-79661770D01*
X35827303Y-79633697D01*
X35682027Y-79604009D01*
X35617012Y-79591806D01*
X35451913Y-79561468D01*
X35293552Y-79532093D01*
X35157404Y-79506569D01*
X35058943Y-79487785D01*
X35040402Y-79484160D01*
X34887127Y-79453906D01*
X34887127Y-78815645D01*
X34887471Y-78605770D01*
X34888884Y-78446980D01*
X34891936Y-78331973D01*
X34897197Y-78253446D01*
X34905237Y-78204096D01*
X34916627Y-78176619D01*
X34931937Y-78163713D01*
X34938218Y-78161320D01*
X34976104Y-78152833D01*
X35059805Y-78135900D01*
X35178567Y-78112566D01*
X35321639Y-78084875D01*
X35478268Y-78054873D01*
X35637703Y-78024604D01*
X35789191Y-77996115D01*
X35921981Y-77971449D01*
X36025319Y-77952651D01*
X36088455Y-77941767D01*
X36102503Y-77939885D01*
X36115230Y-77914704D01*
X36143400Y-77847622D01*
X36181748Y-77751333D01*
X36196391Y-77713621D01*
X36255452Y-77567921D01*
X36325000Y-77406951D01*
X36387288Y-77271291D01*
X36433121Y-77167561D01*
X36463613Y-77082326D01*
X36473792Y-77030126D01*
X36472169Y-77023130D01*
X36450657Y-76990102D01*
X36401535Y-76916643D01*
X36330077Y-76810577D01*
X36241555Y-76679726D01*
X36141241Y-76531912D01*
X36121406Y-76502734D01*
X36005012Y-76329863D01*
X35919452Y-76198226D01*
X35861316Y-76101761D01*
X35827192Y-76034408D01*
X35813669Y-75990106D01*
X35817336Y-75962794D01*
X35817430Y-75962620D01*
X35846293Y-75926746D01*
X35910133Y-75857391D01*
X36002031Y-75761745D01*
X36115067Y-75646999D01*
X36242321Y-75520341D01*
X36256672Y-75506205D01*
X36417043Y-75350903D01*
X36540805Y-75236870D01*
X36630445Y-75162002D01*
X36688448Y-75124196D01*
X36713996Y-75119317D01*
X36751282Y-75140603D01*
X36828657Y-75189773D01*
X36938133Y-75261575D01*
X37071720Y-75350755D01*
X37221430Y-75452063D01*
X37256382Y-75475897D01*
X37752610Y-75814765D01*
X37976707Y-75713056D01*
X38112989Y-75653783D01*
X38259276Y-75594170D01*
X38385035Y-75546640D01*
X38390575Y-75544685D01*
X38488943Y-75508677D01*
X38564771Y-75478229D01*
X38601718Y-75459905D01*
X38601780Y-75459852D01*
X38613504Y-75426729D01*
X38633432Y-75345267D01*
X38659587Y-75224625D01*
X38689990Y-75073959D01*
X38722663Y-74902428D01*
X38725336Y-74887967D01*
X38758110Y-74711235D01*
X38788198Y-74550810D01*
X38813661Y-74416888D01*
X38832559Y-74319663D01*
X38842953Y-74269332D01*
X38843135Y-74268563D01*
X38849461Y-74247153D01*
X38861761Y-74230988D01*
X38887406Y-74219331D01*
X38933765Y-74211445D01*
X39008208Y-74206593D01*
X39118105Y-74204039D01*
X39270825Y-74203045D01*
X39473738Y-74202874D01*
X39500000Y-74202874D01*
X39709014Y-74202998D01*
G36*
X39709014Y-74202998D02*
G01*
X39867006Y-74203863D01*
X39981347Y-74206205D01*
X40059407Y-74210762D01*
X40108554Y-74218270D01*
X40136159Y-74229466D01*
X40149592Y-74245088D01*
X40156221Y-74265873D01*
X40156865Y-74268563D01*
X40166935Y-74317113D01*
X40185575Y-74412905D01*
X40210845Y-74545743D01*
X40240807Y-74705431D01*
X40273522Y-74881774D01*
X40274664Y-74887967D01*
X40307433Y-75060782D01*
X40338093Y-75213469D01*
X40364664Y-75336871D01*
X40385167Y-75421831D01*
X40397626Y-75459190D01*
X40398220Y-75459852D01*
X40434919Y-75478095D01*
X40510586Y-75508497D01*
X40608878Y-75544493D01*
X40609425Y-75544685D01*
X40733233Y-75591222D01*
X40879196Y-75650504D01*
X41016781Y-75710109D01*
X41023293Y-75713056D01*
X41247390Y-75814765D01*
X41743619Y-75475897D01*
X41895846Y-75372592D01*
X42033741Y-75280237D01*
X42149315Y-75204084D01*
X42234579Y-75149385D01*
X42281544Y-75121393D01*
X42286004Y-75119317D01*
X42320134Y-75128560D01*
X42383881Y-75173156D01*
X42479731Y-75255209D01*
X42610169Y-75376821D01*
X42743328Y-75506205D01*
X42871694Y-75633702D01*
X42986581Y-75750046D01*
X43081073Y-75848052D01*
X43148253Y-75920536D01*
X43181206Y-75960313D01*
X43182432Y-75962361D01*
X43186074Y-75989656D01*
X43172350Y-76034234D01*
X43137869Y-76102112D01*
X43079239Y-76199311D01*
X42993070Y-76331851D01*
X42878200Y-76502476D01*
X42776254Y-76652655D01*
X42685123Y-76787350D01*
X42610073Y-76898740D01*
X42556369Y-76979005D01*
X42529280Y-77020325D01*
X42527574Y-77023130D01*
X42530882Y-77062721D01*
X42555953Y-77139669D01*
X42597798Y-77239432D01*
X42612712Y-77271291D01*
X42677786Y-77413226D01*
X42747212Y-77574273D01*
X42803609Y-77713621D01*
X42844247Y-77817044D01*
X42876526Y-77895642D01*
X42895178Y-77936720D01*
X42897497Y-77939885D01*
X42931803Y-77945128D01*
X43012669Y-77959494D01*
X43129343Y-77980937D01*
X43271075Y-78007413D01*
X43427110Y-78036877D01*
X43586698Y-78067283D01*
X43739085Y-78096588D01*
X43873521Y-78122745D01*
X43979252Y-78143710D01*
X44045526Y-78157439D01*
X44061782Y-78161320D01*
X44078573Y-78170900D01*
X44091249Y-78192536D01*
X44100378Y-78233531D01*
X44106531Y-78301189D01*
X44110280Y-78402812D01*
X44112192Y-78545703D01*
X44112840Y-78737165D01*
X44112874Y-78815645D01*
X44112874Y-79453906D01*
X43959598Y-79484160D01*
X43874322Y-79500564D01*
X43747070Y-79524509D01*
X43593315Y-79553107D01*
X43428534Y-79583467D01*
X43382989Y-79591806D01*
X43230932Y-79621370D01*
X43098468Y-79650442D01*
X42996714Y-79676329D01*
X42936788Y-79696337D01*
X42926805Y-79702301D01*
X42902293Y-79744534D01*
X42867148Y-79826370D01*
X42828173Y-79931683D01*
X42820442Y-79954368D01*
X42769360Y-80095018D01*
X42705954Y-80253714D01*
X42643904Y-80396225D01*
X42643598Y-80396886D01*
X42540267Y-80620440D01*
X43219961Y-81620232D01*
X42783621Y-82057300D01*
X42651649Y-82187381D01*
X42531279Y-82302048D01*
X42429273Y-82395181D01*
X42352391Y-82460658D01*
X42307393Y-82492357D01*
X42300938Y-82494368D01*
X42263040Y-82478529D01*
X42185708Y-82434496D01*
X42077389Y-82367490D01*
X41946532Y-82282734D01*
X41805052Y-82187816D01*
X41661461Y-82090998D01*
X41533435Y-82006751D01*
X41429105Y-81940258D01*
X41356600Y-81896702D01*
X41324158Y-81881264D01*
X41284576Y-81894328D01*
X41209519Y-81928750D01*
X41114468Y-81977380D01*
X41104392Y-81982785D01*
X40976391Y-82046980D01*
X40888618Y-82078463D01*
X40834028Y-82078798D01*
X40805575Y-82049548D01*
X40805410Y-82049138D01*
X40791188Y-82014498D01*
X40757269Y-81932269D01*
X40706284Y-81808814D01*
X40640862Y-81650498D01*
X40563634Y-81463686D01*
X40477229Y-81254742D01*
X40393551Y-81052446D01*
X40301588Y-80829200D01*
X40217150Y-80622392D01*
X40142769Y-80438362D01*
X40080974Y-80283451D01*
X40034297Y-80163996D01*
X40005268Y-80086339D01*
X39996322Y-80057356D01*
X40018756Y-80024110D01*
X40077439Y-79971123D01*
X40155689Y-79912704D01*
X40378534Y-79727952D01*
X40552718Y-79516182D01*
X40676154Y-79281856D01*
X40746754Y-79029434D01*
X40762431Y-78763377D01*
X40751036Y-78640575D01*
X40688950Y-78385793D01*
X40582023Y-78160801D01*
X40436889Y-77967817D01*
X40260178Y-77809061D01*
X40058522Y-77686750D01*
X39838554Y-77603105D01*
X39606906Y-77560344D01*
X39370209Y-77560687D01*
X39135095Y-77606352D01*
X38908196Y-77699559D01*
X38696144Y-77842527D01*
X38607636Y-77923383D01*
X38437889Y-78131007D01*
X38319699Y-78357895D01*
X38252278Y-78597433D01*
X38234840Y-78843007D01*
X38266598Y-79088003D01*
X38346765Y-79325808D01*
X38474555Y-79549807D01*
X38649180Y-79753387D01*
X38844312Y-79912704D01*
X38925591Y-79973602D01*
X38983009Y-80026015D01*
X39003678Y-80057406D01*
X38992856Y-80091639D01*
X38962077Y-80173419D01*
X38913874Y-80296407D01*
X38850778Y-80454263D01*
X38775322Y-80640649D01*
X38690038Y-80849226D01*
X38606219Y-81052496D01*
X38513745Y-81275933D01*
X38428089Y-81482984D01*
X38351882Y-81667286D01*
X38287753Y-81822475D01*
X38238332Y-81942188D01*
X38206248Y-82020061D01*
X38194359Y-82049138D01*
X38166274Y-82078677D01*
X38111949Y-82078591D01*
X38024395Y-82047326D01*
X37896619Y-81983329D01*
X37895608Y-81982785D01*
X37799402Y-81933121D01*
X37721631Y-81896945D01*
X37677777Y-81881408D01*
X37675842Y-81881264D01*
X37642829Y-81897024D01*
X37569946Y-81940850D01*
X37465322Y-82007557D01*
X37337090Y-82091964D01*
X37194948Y-82187816D01*
X37050233Y-82284867D01*
X36919804Y-82369270D01*
X36812110Y-82435801D01*
X36735598Y-82479238D01*
X36699062Y-82494368D01*
X36665418Y-82474482D01*
X36597776Y-82418903D01*
X36502893Y-82333754D01*
X36387530Y-82225153D01*
X36258445Y-82099221D01*
X36216229Y-82057149D01*
X35779739Y-81619931D01*
X36111977Y-81132340D01*
X36212946Y-80982605D01*
X36301562Y-80848220D01*
X36372854Y-80736969D01*
X36421850Y-80656639D01*
X36443578Y-80615014D01*
X36444215Y-80612053D01*
X36432760Y-80572818D01*
X36401949Y-80493895D01*
X36357116Y-80388509D01*
X36325647Y-80317954D01*
X36266808Y-80182876D01*
X36211396Y-80046409D01*
X36168436Y-79931103D01*
X36156766Y-79895977D01*
X36123611Y-79802174D01*
X36091201Y-79729694D01*
X36073399Y-79702301D01*
X36034114Y-79685536D01*
X35948374Y-79661770D01*
X35827303Y-79633697D01*
X35682027Y-79604009D01*
X35617012Y-79591806D01*
X35451913Y-79561468D01*
X35293552Y-79532093D01*
X35157404Y-79506569D01*
X35058943Y-79487785D01*
X35040402Y-79484160D01*
X34887127Y-79453906D01*
X34887127Y-78815645D01*
X34887471Y-78605770D01*
X34888884Y-78446980D01*
X34891936Y-78331973D01*
X34897197Y-78253446D01*
X34905237Y-78204096D01*
X34916627Y-78176619D01*
X34931937Y-78163713D01*
X34938218Y-78161320D01*
X34976104Y-78152833D01*
X35059805Y-78135900D01*
X35178567Y-78112566D01*
X35321639Y-78084875D01*
X35478268Y-78054873D01*
X35637703Y-78024604D01*
X35789191Y-77996115D01*
X35921981Y-77971449D01*
X36025319Y-77952651D01*
X36088455Y-77941767D01*
X36102503Y-77939885D01*
X36115230Y-77914704D01*
X36143400Y-77847622D01*
X36181748Y-77751333D01*
X36196391Y-77713621D01*
X36255452Y-77567921D01*
X36325000Y-77406951D01*
X36387288Y-77271291D01*
X36433121Y-77167561D01*
X36463613Y-77082326D01*
X36473792Y-77030126D01*
X36472169Y-77023130D01*
X36450657Y-76990102D01*
X36401535Y-76916643D01*
X36330077Y-76810577D01*
X36241555Y-76679726D01*
X36141241Y-76531912D01*
X36121406Y-76502734D01*
X36005012Y-76329863D01*
X35919452Y-76198226D01*
X35861316Y-76101761D01*
X35827192Y-76034408D01*
X35813669Y-75990106D01*
X35817336Y-75962794D01*
X35817430Y-75962620D01*
X35846293Y-75926746D01*
X35910133Y-75857391D01*
X36002031Y-75761745D01*
X36115067Y-75646999D01*
X36242321Y-75520341D01*
X36256672Y-75506205D01*
X36417043Y-75350903D01*
X36540805Y-75236870D01*
X36630445Y-75162002D01*
X36688448Y-75124196D01*
X36713996Y-75119317D01*
X36751282Y-75140603D01*
X36828657Y-75189773D01*
X36938133Y-75261575D01*
X37071720Y-75350755D01*
X37221430Y-75452063D01*
X37256382Y-75475897D01*
X37752610Y-75814765D01*
X37976707Y-75713056D01*
X38112989Y-75653783D01*
X38259276Y-75594170D01*
X38385035Y-75546640D01*
X38390575Y-75544685D01*
X38488943Y-75508677D01*
X38564771Y-75478229D01*
X38601718Y-75459905D01*
X38601780Y-75459852D01*
X38613504Y-75426729D01*
X38633432Y-75345267D01*
X38659587Y-75224625D01*
X38689990Y-75073959D01*
X38722663Y-74902428D01*
X38725336Y-74887967D01*
X38758110Y-74711235D01*
X38788198Y-74550810D01*
X38813661Y-74416888D01*
X38832559Y-74319663D01*
X38842953Y-74269332D01*
X38843135Y-74268563D01*
X38849461Y-74247153D01*
X38861761Y-74230988D01*
X38887406Y-74219331D01*
X38933765Y-74211445D01*
X39008208Y-74206593D01*
X39118105Y-74204039D01*
X39270825Y-74203045D01*
X39473738Y-74202874D01*
X39500000Y-74202874D01*
X39709014Y-74202998D01*
G37*
%TD*%
D11*
%TO.C,C1*%
X38140000Y-30480000D03*
X43140000Y-30480000D03*
%TD*%
D12*
%TO.C,U5*%
X124460000Y-28575000D03*
X124460000Y-31115000D03*
X124460000Y-33655000D03*
X124460000Y-36195000D03*
X124460000Y-38735000D03*
X124460000Y-41275000D03*
X124460000Y-43815000D03*
X124460000Y-46355000D03*
X124460000Y-48895000D03*
X124460000Y-51435000D03*
X116840000Y-51435000D03*
X116840000Y-48895000D03*
X116840000Y-46355000D03*
X116840000Y-43815000D03*
X116840000Y-41275000D03*
X116840000Y-38735000D03*
X116840000Y-36195000D03*
X116840000Y-33655000D03*
X116840000Y-31115000D03*
D13*
X116840000Y-28575000D03*
%TD*%
D12*
%TO.C,U2*%
X67945000Y-30480000D03*
X67945000Y-33020000D03*
X67945000Y-35560000D03*
X67945000Y-38100000D03*
X67945000Y-40640000D03*
X67945000Y-43180000D03*
X67945000Y-45720000D03*
X67945000Y-48260000D03*
X67945000Y-50800000D03*
X67945000Y-53340000D03*
X67945000Y-55880000D03*
X67945000Y-58420000D03*
X67945000Y-60960000D03*
X67945000Y-63500000D03*
X67945000Y-66040000D03*
X67945000Y-68580000D03*
X52705000Y-68580000D03*
X52705000Y-66040000D03*
X52705000Y-63500000D03*
X52705000Y-60960000D03*
X52705000Y-58420000D03*
X52705000Y-55880000D03*
X52705000Y-53340000D03*
X52705000Y-50800000D03*
X52705000Y-48260000D03*
X52705000Y-45720000D03*
X52705000Y-43180000D03*
X52705000Y-40640000D03*
X52705000Y-38100000D03*
X52705000Y-35560000D03*
X52705000Y-33020000D03*
D13*
X52705000Y-30480000D03*
%TD*%
D11*
%TO.C,C9*%
X93345000Y-24130000D03*
X98345000Y-24130000D03*
%TD*%
%TO.C,C2*%
X117896000Y-23876000D03*
X122896000Y-23876000D03*
%TD*%
D12*
%TO.C,D1*%
X26075000Y-53340000D03*
D13*
X26075000Y-60960000D03*
%TD*%
D11*
%TO.C,C5*%
X77510000Y-25400000D03*
X82510000Y-25400000D03*
%TD*%
%TO.C,C6*%
X57825000Y-25400000D03*
X62825000Y-25400000D03*
%TD*%
D12*
%TO.C,U1*%
X111760000Y-36195000D03*
X111760000Y-38735000D03*
X111760000Y-41275000D03*
X111760000Y-43815000D03*
X111760000Y-46355000D03*
X111760000Y-48895000D03*
X111760000Y-51435000D03*
X104140000Y-51435000D03*
X104140000Y-48895000D03*
X104140000Y-46355000D03*
X104140000Y-43815000D03*
X104140000Y-41275000D03*
X104140000Y-38735000D03*
D13*
X104140000Y-36195000D03*
%TD*%
D11*
%TO.C,C7*%
X105450000Y-31115000D03*
X110450000Y-31115000D03*
%TD*%
D12*
%TO.C,U8*%
X124470000Y-63500000D03*
X124470000Y-66040000D03*
X124470000Y-68580000D03*
X124470000Y-71120000D03*
X124470000Y-73660000D03*
X124470000Y-76200000D03*
X124470000Y-78740000D03*
X124470000Y-81280000D03*
X124470000Y-83820000D03*
X124470000Y-86360000D03*
X116850000Y-86360000D03*
X116850000Y-83820000D03*
X116850000Y-81280000D03*
X116850000Y-78740000D03*
X116850000Y-76200000D03*
X116850000Y-73660000D03*
X116850000Y-71120000D03*
X116850000Y-68580000D03*
X116850000Y-66040000D03*
D13*
X116850000Y-63500000D03*
%TD*%
D12*
%TO.C,U9*%
X87625000Y-30480000D03*
X87625000Y-33020000D03*
X87625000Y-35560000D03*
X87625000Y-38100000D03*
X87625000Y-40640000D03*
X87625000Y-43180000D03*
X87625000Y-45720000D03*
X87625000Y-48260000D03*
X87625000Y-50800000D03*
X87625000Y-53340000D03*
X87625000Y-55880000D03*
X87625000Y-58420000D03*
X87625000Y-60960000D03*
X87625000Y-63500000D03*
X87625000Y-66040000D03*
X87625000Y-68580000D03*
X72385000Y-68580000D03*
X72385000Y-66040000D03*
X72385000Y-63500000D03*
X72385000Y-60960000D03*
X72385000Y-58420000D03*
X72385000Y-55880000D03*
X72385000Y-53340000D03*
X72385000Y-50800000D03*
X72385000Y-48260000D03*
X72385000Y-45720000D03*
X72385000Y-43180000D03*
X72385000Y-40640000D03*
X72385000Y-38100000D03*
X72385000Y-35560000D03*
X72385000Y-33020000D03*
D13*
X72385000Y-30480000D03*
%TD*%
D11*
%TO.C,C3*%
X27305000Y-80010000D03*
D13*
X24805000Y-80010000D03*
%TD*%
D11*
%TO.C,C10*%
X105704000Y-58420000D03*
X110704000Y-58420000D03*
%TD*%
%TO.C,C4*%
X93385000Y-49530000D03*
X98385000Y-49530000D03*
%TD*%
D12*
%TO.C,U4*%
X48255000Y-35560000D03*
X48255000Y-38100000D03*
X48255000Y-40640000D03*
X48255000Y-43180000D03*
X48255000Y-45720000D03*
X48255000Y-48260000D03*
X48255000Y-50800000D03*
X48255000Y-53340000D03*
X48255000Y-55880000D03*
X48255000Y-58420000D03*
X48255000Y-60960000D03*
X48255000Y-63500000D03*
X48255000Y-66040000D03*
X48255000Y-68580000D03*
X33015000Y-68580000D03*
X33015000Y-66040000D03*
X33015000Y-63500000D03*
X33015000Y-60960000D03*
X33015000Y-58420000D03*
X33015000Y-55880000D03*
X33015000Y-53340000D03*
X33015000Y-50800000D03*
X33015000Y-48260000D03*
X33015000Y-45720000D03*
X33015000Y-43180000D03*
X33015000Y-40640000D03*
X33015000Y-38100000D03*
D13*
X33015000Y-35560000D03*
%TD*%
D14*
%TO.C,J2*%
X25925000Y-41920000D03*
D15*
X25925000Y-39380000D03*
%TD*%
D12*
%TO.C,U6*%
X99705000Y-54605000D03*
X99705000Y-57145000D03*
X99705000Y-59685000D03*
X99705000Y-62225000D03*
X99705000Y-64765000D03*
X99705000Y-67305000D03*
X99705000Y-69845000D03*
X92085000Y-69845000D03*
X92085000Y-67305000D03*
X92085000Y-64765000D03*
X92085000Y-62225000D03*
X92085000Y-59685000D03*
X92085000Y-57145000D03*
D13*
X92085000Y-54605000D03*
%TD*%
D11*
%TO.C,C8*%
X118150000Y-58420000D03*
X123150000Y-58420000D03*
%TD*%
D16*
%TO.C,J3*%
X25925000Y-31252000D03*
D17*
X25925000Y-26172000D03*
%TD*%
D12*
%TO.C,U3*%
X99695000Y-29210000D03*
X99695000Y-31750000D03*
X99695000Y-34290000D03*
X99695000Y-36830000D03*
X99695000Y-39370000D03*
X99695000Y-41910000D03*
X99695000Y-44450000D03*
X92075000Y-44450000D03*
X92075000Y-41910000D03*
X92075000Y-39370000D03*
X92075000Y-36830000D03*
X92075000Y-34290000D03*
X92075000Y-31750000D03*
D13*
X92075000Y-29210000D03*
%TD*%
D12*
%TO.C,U7*%
X111760000Y-63500000D03*
X111760000Y-66040000D03*
X111760000Y-68580000D03*
X111760000Y-71120000D03*
X111760000Y-73660000D03*
X111760000Y-76200000D03*
X111760000Y-78740000D03*
X111760000Y-81280000D03*
X111760000Y-83820000D03*
X111760000Y-86360000D03*
X104140000Y-86360000D03*
X104140000Y-83820000D03*
X104140000Y-81280000D03*
X104140000Y-78740000D03*
X104140000Y-76200000D03*
X104140000Y-73660000D03*
X104140000Y-71120000D03*
X104140000Y-68580000D03*
X104140000Y-66040000D03*
D13*
X104140000Y-63500000D03*
%TD*%
D14*
%TO.C,J1*%
X50795000Y-77978000D03*
X50795000Y-80518000D03*
X53335000Y-77978000D03*
X53335000Y-80518000D03*
X55875000Y-77978000D03*
X55875000Y-80518000D03*
X58415000Y-77978000D03*
X58415000Y-80518000D03*
X60955000Y-77978000D03*
X60955000Y-80518000D03*
X63495000Y-77978000D03*
X63495000Y-80518000D03*
X66035000Y-77978000D03*
X66035000Y-80518000D03*
X68575000Y-77978000D03*
X68575000Y-80518000D03*
X71115000Y-77978000D03*
X71115000Y-80518000D03*
X73655000Y-77978000D03*
X73655000Y-80518000D03*
X76195000Y-77978000D03*
X76195000Y-80518000D03*
X78735000Y-77978000D03*
X78735000Y-80518000D03*
X81275000Y-77978000D03*
X81275000Y-80518000D03*
X83815000Y-77978000D03*
X83815000Y-80518000D03*
X86355000Y-77978000D03*
X86355000Y-80518000D03*
X88895000Y-77978000D03*
X88895000Y-80518000D03*
X91435000Y-77978000D03*
X91435000Y-80518000D03*
X93975000Y-77978000D03*
X93975000Y-80518000D03*
X96515000Y-77978000D03*
X96515000Y-80518000D03*
X99055000Y-77978000D03*
D15*
X99055000Y-80518000D03*
%TD*%
M02*
