M48
; DRILL file {KiCad 7.0.10} date Wed Apr  3 07:10:26 2024
; FORMAT={-:-/ absolute / inch / decimal}
; #@! TF.CreationDate,2024-04-03T07:10:26+02:00
; #@! TF.GenerationSoftware,Kicad,Pcbnew,7.0.10
; #@! TF.FileFunction,Plated,1,2,PTH
FMAT,2
INCH
; #@! TA.AperFunction,Plated,PTH,ViaDrill
T1C0.0157
; #@! TA.AperFunction,Plated,PTH,ComponentDrill
T2C0.0315
; #@! TA.AperFunction,Plated,PTH,ComponentDrill
T3C0.0394
; #@! TA.AperFunction,Plated,PTH,ComponentDrill
T4C0.0598
%
G90
G05
T1
X2.9581Y-4.4656
X3.1604Y-3.1133
X3.1745Y-4.155
X3.2407Y-3.2538
X3.2672Y-4.0544
X3.3741Y-3.0548
X4.07Y-3.3547
X4.1311Y-3.3001
X4.19Y-3.1425
X4.6442Y-3.2052
X5.1066Y-4.2016
X5.1069Y-3.2214
X5.1667Y-3.1326
X5.6202Y-3.1581
X5.8952Y-3.0779
X5.9524Y-4.5696
X6.0646Y-2.9291
X6.5556Y-4.641
X6.5695Y-4.4583
X6.5829Y-4.1663
X6.6436Y-4.4806
X6.6551Y-4.5241
X6.727Y-2.9462
X6.7701Y-2.957
X6.7713Y-2.8247
X6.8289Y-2.7953
X6.8298Y-4.3147
X6.8317Y-3.4623
X6.8317Y-3.8535
X6.9723Y-2.9107
X6.9982Y-4.5454
X7.0376Y-4.5454
X7.1005Y-4.6856
X7.305Y-4.8136
X7.3373Y-3.3814
X7.5615Y-4.8573
X7.6246Y-3.4315
X7.7968Y-3.429
X7.8292Y-4.6679
X7.9013Y-4.6399
X7.9542Y-4.6114
X7.9963Y-5.1379
X8.0949Y-4.5885
X8.1189Y-4.4239
X8.1498Y-4.4538
X8.1627Y-3.0711
X8.2297Y-3.2222
X8.2335Y-3.9922
X8.2416Y-4.367
X8.2511Y-3.4397
X8.2557Y-3.1563
X8.2629Y-2.9709
X8.28Y-3.5351
X8.2873Y-3.2399
X8.3089Y-3.6187
X8.382Y-4.592
X8.4203Y-4.7442
X8.6372Y-4.6586
X8.7838Y-4.4282
X9.226Y-4.0127
T2
X1.6077Y-3.8779
X1.6077Y-4.1779
X2.0575Y-3.0279
X2.0575Y-3.1279
X2.0575Y-3.2279
X2.0575Y-3.3279
X2.0575Y-3.4279
X2.0575Y-3.5279
X2.0575Y-3.6279
X2.0575Y-3.7279
X2.0575Y-3.8279
X2.0575Y-3.9279
X2.0575Y-4.0279
X2.0575Y-4.1279
X2.0575Y-4.2279
X2.0575Y-4.3279
X2.0575Y-4.4279
X2.0575Y-4.5279
X2.2613Y-2.8279
X2.4581Y-2.8279
X2.6575Y-3.0279
X2.6575Y-3.1279
X2.6575Y-3.2279
X2.6575Y-3.3279
X2.6575Y-3.4279
X2.6575Y-3.5279
X2.6575Y-3.6279
X2.6575Y-3.7279
X2.6575Y-3.8279
X2.6575Y-3.9279
X2.6575Y-4.0279
X2.6575Y-4.1279
X2.6575Y-4.2279
X2.6575Y-4.3279
X2.6575Y-4.4279
X2.6575Y-4.5279
X3.0077Y-3.0279
X3.0077Y-3.1279
X3.0077Y-3.2279
X3.0077Y-3.3279
X3.0077Y-3.4279
X3.0077Y-3.5279
X3.0077Y-3.6279
X3.0077Y-3.7279
X3.0077Y-3.8279
X3.0077Y-3.9279
X3.0077Y-4.0279
X3.0077Y-4.1279
X3.0077Y-4.2279
X3.0077Y-4.3279
X3.0077Y-4.4279
X3.0077Y-4.5279
X3.2108Y-2.8279
X3.4077Y-2.8279
X3.6077Y-3.0279
X3.6077Y-3.1279
X3.6077Y-3.2279
X3.6077Y-3.3279
X3.6077Y-3.4279
X3.6077Y-3.5279
X3.6077Y-3.6279
X3.6077Y-3.7279
X3.6077Y-3.8279
X3.6077Y-3.9279
X3.6077Y-4.0279
X3.6077Y-4.1279
X3.6077Y-4.2279
X3.6077Y-4.3279
X3.6077Y-4.4279
X3.6077Y-4.5279
X3.9577Y-3.0279
X3.9577Y-3.1279
X3.9577Y-3.2279
X3.9577Y-3.3279
X3.9577Y-3.4279
X3.9577Y-3.5279
X3.9577Y-3.6279
X3.9577Y-3.7279
X3.9577Y-3.8279
X3.9577Y-3.9279
X3.9577Y-4.0279
X3.9577Y-4.1279
X3.9577Y-4.2279
X3.9577Y-4.3279
X3.9577Y-4.4279
X3.9577Y-4.5279
X4.1608Y-2.8279
X4.3577Y-2.8279
X4.5577Y-3.0279
X4.5577Y-3.1279
X4.5577Y-3.2279
X4.5577Y-3.3279
X4.5577Y-3.4279
X4.5577Y-3.5279
X4.5577Y-3.6279
X4.5577Y-3.7279
X4.5577Y-3.8279
X4.5577Y-3.9279
X4.5577Y-4.0279
X4.5577Y-4.1279
X4.5577Y-4.2279
X4.5577Y-4.3279
X4.5577Y-4.4279
X4.5577Y-4.5279
X4.9327Y-3.0279
X4.9327Y-3.1279
X4.9327Y-3.2279
X4.9327Y-3.3279
X4.9327Y-3.4279
X4.9327Y-3.5279
X4.9327Y-3.6279
X4.9327Y-3.7279
X4.9327Y-3.8279
X4.9327Y-3.9279
X4.9327Y-4.0279
X4.9327Y-4.1279
X4.9327Y-4.2279
X4.9327Y-4.3279
X4.9327Y-4.4279
X4.9327Y-4.5279
X5.1358Y-2.8279
X5.3327Y-2.8279
X5.4921Y-4.9899
X5.5327Y-3.0279
X5.5327Y-3.1279
X5.5327Y-3.2279
X5.5327Y-3.3279
X5.5327Y-3.4279
X5.5327Y-3.5279
X5.5327Y-3.6279
X5.5327Y-3.7279
X5.5327Y-3.8279
X5.5327Y-3.9279
X5.5327Y-4.0279
X5.5327Y-4.1279
X5.5327Y-4.2279
X5.5327Y-4.3279
X5.5327Y-4.4279
X5.5327Y-4.5279
X5.5906Y-4.9899
X5.9077Y-3.2279
X5.9077Y-3.3279
X5.9077Y-3.4279
X5.9077Y-3.5279
X5.9077Y-3.6279
X5.9077Y-3.7279
X5.9077Y-3.8279
X5.9077Y-3.9279
X5.9077Y-4.0279
X5.9077Y-4.1279
X5.9077Y-4.2279
X5.9077Y-4.3279
X5.9077Y-4.4279
X5.9077Y-4.5279
X6.1108Y-3.0399
X6.3077Y-3.0399
X6.5077Y-3.2279
X6.5077Y-3.3279
X6.5077Y-3.4279
X6.5077Y-3.5279
X6.5077Y-3.6279
X6.5077Y-3.7279
X6.5077Y-3.8279
X6.5077Y-3.9279
X6.5077Y-4.0279
X6.5077Y-4.1279
X6.5077Y-4.2279
X6.5077Y-4.3279
X6.5077Y-4.4279
X6.5077Y-4.5279
X6.9077Y-3.3766
X6.9077Y-3.5734
X6.9077Y-3.8279
X6.9077Y-4.0248
X6.9077Y-4.2781
X6.9077Y-4.475
X7.1077Y-2.9281
X7.1077Y-3.125
X7.1077Y-3.7779
X7.1077Y-4.0779
X7.1077Y-4.2279
X7.1077Y-4.5279
X7.1079Y-3.3279
X7.1079Y-3.6279
X7.2077Y-3.7779
X7.2077Y-4.0779
X7.2077Y-4.2279
X7.2077Y-4.5279
X7.2079Y-3.3279
X7.2079Y-3.6279
X7.3077Y-2.8779
X7.3077Y-3.1779
X7.3077Y-3.7779
X7.3077Y-4.0779
X7.3077Y-4.2279
X7.3077Y-4.5279
X7.3079Y-3.3279
X7.3079Y-3.6279
X7.4077Y-2.8779
X7.4077Y-3.1779
X7.4077Y-3.7779
X7.4077Y-4.0779
X7.4077Y-4.2279
X7.4077Y-4.5279
X7.4079Y-3.3279
X7.4079Y-3.6279
X7.5077Y-2.8779
X7.5077Y-3.1779
X7.5077Y-3.7779
X7.5077Y-4.0779
X7.5077Y-4.2279
X7.5077Y-4.5279
X7.5079Y-3.3279
X7.5079Y-3.6279
X7.6077Y-2.8779
X7.6077Y-3.1779
X7.6077Y-3.7779
X7.6077Y-4.0779
X7.6077Y-4.2279
X7.6077Y-4.5279
X7.6079Y-3.3279
X7.6079Y-3.6279
X7.7077Y-2.8779
X7.7077Y-3.1779
X7.7077Y-3.7779
X7.7077Y-4.0779
X7.7077Y-4.2279
X7.7077Y-4.5279
X7.7079Y-3.3279
X7.7079Y-3.6279
X7.8077Y-2.8779
X7.8077Y-3.1779
X7.8077Y-3.7779
X7.8077Y-4.0779
X7.8077Y-4.2279
X7.8077Y-4.5279
X7.8079Y-3.3279
X7.8079Y-3.6279
X7.9077Y-2.8779
X7.9077Y-3.1779
X7.9077Y-3.7779
X7.9077Y-4.0779
X7.9077Y-4.2279
X7.9077Y-4.5279
X7.9079Y-3.3279
X7.9079Y-3.6279
X8.0077Y-2.8779
X8.0077Y-3.1779
X8.0077Y-3.7779
X8.0077Y-4.0779
X8.0077Y-4.2279
X8.0077Y-4.5279
X8.0079Y-3.3279
X8.0079Y-3.6279
X8.3825Y-2.9266
X8.3825Y-3.1234
X8.3825Y-3.3795
X8.3825Y-3.5763
X8.3825Y-3.8279
X8.3825Y-4.0248
X8.3825Y-4.2779
X8.3825Y-4.4748
X8.5825Y-2.8779
X8.5825Y-3.1779
X8.5825Y-3.7783
X8.5825Y-4.0783
X8.5825Y-4.2279
X8.5825Y-4.5279
X8.5827Y-3.3283
X8.5827Y-3.6283
X8.6825Y-2.8779
X8.6825Y-3.1779
X8.6825Y-3.7783
X8.6825Y-4.0783
X8.6825Y-4.2279
X8.6825Y-4.5279
X8.6827Y-3.3283
X8.6827Y-3.6283
X8.7825Y-2.8779
X8.7825Y-3.1779
X8.7825Y-3.7783
X8.7825Y-4.0783
X8.7825Y-4.2279
X8.7825Y-4.5279
X8.7827Y-3.3283
X8.7827Y-3.6283
X8.8825Y-2.8779
X8.8825Y-3.1779
X8.8825Y-3.7783
X8.8825Y-4.0783
X8.8825Y-4.2279
X8.8825Y-4.5279
X8.8827Y-3.3283
X8.8827Y-3.6283
X8.9825Y-2.8779
X8.9825Y-3.1779
X8.9825Y-3.7783
X8.9825Y-4.0783
X8.9825Y-4.2279
X8.9825Y-4.5279
X8.9827Y-3.3283
X8.9827Y-3.6283
X9.0825Y-2.8779
X9.0825Y-3.1779
X9.0825Y-3.7783
X9.0825Y-4.0783
X9.0825Y-4.2279
X9.0825Y-4.5279
X9.0827Y-3.3283
X9.0827Y-3.6283
X9.1825Y-2.8779
X9.1825Y-3.1779
X9.1825Y-3.7783
X9.1825Y-4.0783
X9.1825Y-4.2279
X9.1825Y-4.5279
X9.1827Y-3.3283
X9.1827Y-3.6283
T3
X1.6077Y-3.4279
X1.6077Y-3.5279
X6.3215Y-4.9099
X6.3215Y-5.0099
X6.4215Y-4.9099
X6.4215Y-5.0099
X6.5215Y-4.9099
X6.5215Y-5.0099
X6.6215Y-4.9099
X6.6215Y-5.0099
X6.7215Y-4.9099
X6.7215Y-5.0099
X6.8215Y-4.9099
X6.8215Y-5.0099
X6.9215Y-4.9099
X6.9215Y-5.0099
X7.0215Y-4.9099
X7.0215Y-5.0099
X7.1215Y-4.9099
X7.1215Y-5.0099
X7.2215Y-4.9099
X7.2215Y-5.0099
X7.3215Y-4.9099
X7.3215Y-5.0099
X7.4215Y-4.9099
X7.4215Y-5.0099
X7.5215Y-4.9099
X7.5215Y-5.0099
X7.6215Y-4.9099
X7.6215Y-5.0099
X7.7215Y-4.9099
X7.7215Y-5.0099
X7.8215Y-4.9099
X7.8215Y-5.0099
X7.9215Y-4.9099
X7.9215Y-5.0099
X8.0215Y-4.9099
X8.0215Y-5.0099
X8.1215Y-4.9099
X8.1215Y-5.0099
X8.2215Y-4.9099
X8.2215Y-5.0099
T4
X1.6577Y-2.9279
X1.6577Y-3.1279
M30
