%TF.GenerationSoftware,KiCad,Pcbnew,7.0.10*%
%TF.CreationDate,2024-05-03T22:19:21+02:00*%
%TF.ProjectId,p2000t-ram-expansion-board-2080kb,70323030-3074-42d7-9261-6d2d65787061,rev?*%
%TF.SameCoordinates,Original*%
%TF.FileFunction,Soldermask,Top*%
%TF.FilePolarity,Negative*%
%FSLAX46Y46*%
G04 Gerber Fmt 4.6, Leading zero omitted, Abs format (unit mm)*
G04 Created by KiCad (PCBNEW 7.0.10) date 2024-05-03 22:19:21*
%MOMM*%
%LPD*%
G01*
G04 APERTURE LIST*
%ADD10C,1.600000*%
%ADD11R,1.600000X1.600000*%
%ADD12O,1.600000X1.600000*%
%ADD13R,1.700000X1.700000*%
%ADD14O,1.700000X1.700000*%
%ADD15R,3.000000X3.000000*%
%ADD16C,3.000000*%
G04 APERTURE END LIST*
D10*
%TO.C,C1*%
X160215000Y-77213600D03*
X155215000Y-77213600D03*
%TD*%
D11*
%TO.C,U5*%
X180535000Y-115008800D03*
D12*
X183075000Y-115008800D03*
X185615000Y-115008800D03*
X188155000Y-115008800D03*
X190695000Y-115008800D03*
X193235000Y-115008800D03*
X195775000Y-115008800D03*
X198315000Y-115008800D03*
X200855000Y-115008800D03*
X203395000Y-115008800D03*
X203395000Y-107388800D03*
X200855000Y-107388800D03*
X198315000Y-107388800D03*
X195775000Y-107388800D03*
X193235000Y-107388800D03*
X190695000Y-107388800D03*
X188155000Y-107388800D03*
X185615000Y-107388800D03*
X183075000Y-107388800D03*
X180535000Y-107388800D03*
%TD*%
D11*
%TO.C,U2*%
X52260000Y-76908800D03*
D12*
X52260000Y-79448800D03*
X52260000Y-81988800D03*
X52260000Y-84528800D03*
X52260000Y-87068800D03*
X52260000Y-89608800D03*
X52260000Y-92148800D03*
X52260000Y-94688800D03*
X52260000Y-97228800D03*
X52260000Y-99768800D03*
X52260000Y-102308800D03*
X52260000Y-104848800D03*
X52260000Y-107388800D03*
X52260000Y-109928800D03*
X52260000Y-112468800D03*
X52260000Y-115008800D03*
X67500000Y-115008800D03*
X67500000Y-112468800D03*
X67500000Y-109928800D03*
X67500000Y-107388800D03*
X67500000Y-104848800D03*
X67500000Y-102308800D03*
X67500000Y-99768800D03*
X67500000Y-97228800D03*
X67500000Y-94688800D03*
X67500000Y-92148800D03*
X67500000Y-89608800D03*
X67500000Y-87068800D03*
X67500000Y-84528800D03*
X67500000Y-81988800D03*
X67500000Y-79448800D03*
X67500000Y-76908800D03*
%TD*%
D10*
%TO.C,C9*%
X175455000Y-97228800D03*
X175455000Y-102228800D03*
%TD*%
%TO.C,C11*%
X180535000Y-74375000D03*
X180535000Y-79375000D03*
%TD*%
%TO.C,C13*%
X175455000Y-108665000D03*
X175455000Y-113665000D03*
%TD*%
D11*
%TO.C,U12*%
X185615000Y-80718800D03*
D12*
X188155000Y-80718800D03*
X190695000Y-80718800D03*
X193235000Y-80718800D03*
X195775000Y-80718800D03*
X198315000Y-80718800D03*
X200855000Y-80718800D03*
X203395000Y-80718800D03*
X203395000Y-73098800D03*
X200855000Y-73098800D03*
X198315000Y-73098800D03*
X195775000Y-73098800D03*
X193235000Y-73098800D03*
X190695000Y-73098800D03*
X188155000Y-73098800D03*
X185615000Y-73098800D03*
%TD*%
D10*
%TO.C,C2*%
X212915000Y-85838800D03*
X212915000Y-90838800D03*
%TD*%
D11*
%TO.C,D1*%
X40835000Y-106118800D03*
D12*
X40835000Y-98498800D03*
%TD*%
D10*
%TO.C,C14*%
X212915000Y-74335000D03*
X212915000Y-79335000D03*
%TD*%
D11*
%TO.C,U11*%
X125290000Y-76908800D03*
D12*
X125290000Y-79448800D03*
X125290000Y-81988800D03*
X125290000Y-84528800D03*
X125290000Y-87068800D03*
X125290000Y-89608800D03*
X125290000Y-92148800D03*
X125290000Y-94688800D03*
X125290000Y-97228800D03*
X125290000Y-99768800D03*
X125290000Y-102308800D03*
X125290000Y-104848800D03*
X125290000Y-107388800D03*
X125290000Y-109928800D03*
X125290000Y-112468800D03*
X125290000Y-115008800D03*
X140530000Y-115008800D03*
X140530000Y-112468800D03*
X140530000Y-109928800D03*
X140530000Y-107388800D03*
X140530000Y-104848800D03*
X140530000Y-102308800D03*
X140530000Y-99768800D03*
X140530000Y-97228800D03*
X140530000Y-94688800D03*
X140530000Y-92148800D03*
X140530000Y-89608800D03*
X140530000Y-87068800D03*
X140530000Y-84528800D03*
X140530000Y-81988800D03*
X140530000Y-79448800D03*
X140530000Y-76908800D03*
%TD*%
D10*
%TO.C,C5*%
X86555000Y-71828800D03*
X81555000Y-71828800D03*
%TD*%
%TO.C,C12*%
X175455000Y-85765000D03*
X175455000Y-90765000D03*
%TD*%
%TO.C,C6*%
X62435800Y-71828800D03*
X57435800Y-71828800D03*
%TD*%
D11*
%TO.C,U1*%
X217995000Y-115008800D03*
D12*
X220535000Y-115008800D03*
X223075000Y-115008800D03*
X225615000Y-115008800D03*
X228155000Y-115008800D03*
X230695000Y-115008800D03*
X233235000Y-115008800D03*
X233235000Y-107388800D03*
X230695000Y-107388800D03*
X228155000Y-107388800D03*
X225615000Y-107388800D03*
X223075000Y-107388800D03*
X220535000Y-107388800D03*
X217995000Y-107388800D03*
%TD*%
D10*
%TO.C,C7*%
X110685000Y-71828800D03*
X105685000Y-71828800D03*
%TD*%
D11*
%TO.C,U8*%
X180540000Y-92148800D03*
D12*
X183080000Y-92148800D03*
X185620000Y-92148800D03*
X188160000Y-92148800D03*
X190700000Y-92148800D03*
X193240000Y-92148800D03*
X195780000Y-92148800D03*
X198320000Y-92148800D03*
X200860000Y-92148800D03*
X203400000Y-92148800D03*
X203400000Y-84528800D03*
X200860000Y-84528800D03*
X198320000Y-84528800D03*
X195780000Y-84528800D03*
X193240000Y-84528800D03*
X190700000Y-84528800D03*
X188160000Y-84528800D03*
X185620000Y-84528800D03*
X183080000Y-84528800D03*
X180540000Y-84528800D03*
%TD*%
D11*
%TO.C,U9*%
X76395000Y-76908800D03*
D12*
X76395000Y-79448800D03*
X76395000Y-81988800D03*
X76395000Y-84528800D03*
X76395000Y-87068800D03*
X76395000Y-89608800D03*
X76395000Y-92148800D03*
X76395000Y-94688800D03*
X76395000Y-97228800D03*
X76395000Y-99768800D03*
X76395000Y-102308800D03*
X76395000Y-104848800D03*
X76395000Y-107388800D03*
X76395000Y-109928800D03*
X76395000Y-112468800D03*
X76395000Y-115008800D03*
X91635000Y-115008800D03*
X91635000Y-112468800D03*
X91635000Y-109928800D03*
X91635000Y-107388800D03*
X91635000Y-104848800D03*
X91635000Y-102308800D03*
X91635000Y-99768800D03*
X91635000Y-97228800D03*
X91635000Y-94688800D03*
X91635000Y-92148800D03*
X91635000Y-89608800D03*
X91635000Y-87068800D03*
X91635000Y-84528800D03*
X91635000Y-81988800D03*
X91635000Y-79448800D03*
X91635000Y-76908800D03*
%TD*%
D11*
%TO.C,C3*%
X139500000Y-126743600D03*
D10*
X142000000Y-126743600D03*
%TD*%
%TO.C,C10*%
X212915000Y-97228800D03*
X212915000Y-102228800D03*
%TD*%
%TO.C,C4*%
X135450000Y-71828800D03*
X130450000Y-71828800D03*
%TD*%
D11*
%TO.C,U4*%
X150055000Y-81988800D03*
D12*
X150055000Y-84528800D03*
X150055000Y-87068800D03*
X150055000Y-89608800D03*
X150055000Y-92148800D03*
X150055000Y-94688800D03*
X150055000Y-97228800D03*
X150055000Y-99768800D03*
X150055000Y-102308800D03*
X150055000Y-104848800D03*
X150055000Y-107388800D03*
X150055000Y-109928800D03*
X150055000Y-112468800D03*
X150055000Y-115008800D03*
X165295000Y-115008800D03*
X165295000Y-112468800D03*
X165295000Y-109928800D03*
X165295000Y-107388800D03*
X165295000Y-104848800D03*
X165295000Y-102308800D03*
X165295000Y-99768800D03*
X165295000Y-97228800D03*
X165295000Y-94688800D03*
X165295000Y-92148800D03*
X165295000Y-89608800D03*
X165295000Y-87068800D03*
X165295000Y-84528800D03*
X165295000Y-81988800D03*
%TD*%
D11*
%TO.C,U13*%
X217995000Y-103588800D03*
D12*
X220535000Y-103588800D03*
X223075000Y-103588800D03*
X225615000Y-103588800D03*
X228155000Y-103588800D03*
X230695000Y-103588800D03*
X233235000Y-103588800D03*
X233235000Y-95968800D03*
X230695000Y-95968800D03*
X228155000Y-95968800D03*
X225615000Y-95968800D03*
X223075000Y-95968800D03*
X220535000Y-95968800D03*
X217995000Y-95968800D03*
%TD*%
D13*
%TO.C,J2*%
X40835000Y-87068800D03*
D14*
X40835000Y-89608800D03*
%TD*%
D11*
%TO.C,U6*%
X217995000Y-80718800D03*
D12*
X220535000Y-80718800D03*
X223075000Y-80718800D03*
X225615000Y-80718800D03*
X228155000Y-80718800D03*
X230695000Y-80718800D03*
X233235000Y-80718800D03*
X233235000Y-73098800D03*
X230695000Y-73098800D03*
X228155000Y-73098800D03*
X225615000Y-73098800D03*
X223075000Y-73098800D03*
X220535000Y-73098800D03*
X217995000Y-73098800D03*
%TD*%
D10*
%TO.C,C8*%
X212915000Y-108658800D03*
X212915000Y-113658800D03*
%TD*%
D11*
%TO.C,U10*%
X100525000Y-76908800D03*
D12*
X100525000Y-79448800D03*
X100525000Y-81988800D03*
X100525000Y-84528800D03*
X100525000Y-87068800D03*
X100525000Y-89608800D03*
X100525000Y-92148800D03*
X100525000Y-94688800D03*
X100525000Y-97228800D03*
X100525000Y-99768800D03*
X100525000Y-102308800D03*
X100525000Y-104848800D03*
X100525000Y-107388800D03*
X100525000Y-109928800D03*
X100525000Y-112468800D03*
X100525000Y-115008800D03*
X115765000Y-115008800D03*
X115765000Y-112468800D03*
X115765000Y-109928800D03*
X115765000Y-107388800D03*
X115765000Y-104848800D03*
X115765000Y-102308800D03*
X115765000Y-99768800D03*
X115765000Y-97228800D03*
X115765000Y-94688800D03*
X115765000Y-92148800D03*
X115765000Y-89608800D03*
X115765000Y-87068800D03*
X115765000Y-84528800D03*
X115765000Y-81988800D03*
X115765000Y-79448800D03*
X115765000Y-76908800D03*
%TD*%
D15*
%TO.C,J3*%
X42105000Y-74368800D03*
D16*
X42105000Y-79448800D03*
%TD*%
D11*
%TO.C,U3*%
X218000000Y-92158800D03*
D12*
X220540000Y-92158800D03*
X223080000Y-92158800D03*
X225620000Y-92158800D03*
X228160000Y-92158800D03*
X230700000Y-92158800D03*
X233240000Y-92158800D03*
X233240000Y-84538800D03*
X230700000Y-84538800D03*
X228160000Y-84538800D03*
X225620000Y-84538800D03*
X223080000Y-84538800D03*
X220540000Y-84538800D03*
X218000000Y-84538800D03*
%TD*%
D11*
%TO.C,U7*%
X180535000Y-103578800D03*
D12*
X183075000Y-103578800D03*
X185615000Y-103578800D03*
X188155000Y-103578800D03*
X190695000Y-103578800D03*
X193235000Y-103578800D03*
X195775000Y-103578800D03*
X198315000Y-103578800D03*
X200855000Y-103578800D03*
X203395000Y-103578800D03*
X203395000Y-95958800D03*
X200855000Y-95958800D03*
X198315000Y-95958800D03*
X195775000Y-95958800D03*
X193235000Y-95958800D03*
X190695000Y-95958800D03*
X188155000Y-95958800D03*
X185615000Y-95958800D03*
X183075000Y-95958800D03*
X180535000Y-95958800D03*
%TD*%
D13*
%TO.C,J1*%
X208825600Y-127251600D03*
D14*
X208825600Y-124711600D03*
X206285600Y-127251600D03*
X206285600Y-124711600D03*
X203745600Y-127251600D03*
X203745600Y-124711600D03*
X201205600Y-127251600D03*
X201205600Y-124711600D03*
X198665600Y-127251600D03*
X198665600Y-124711600D03*
X196125600Y-127251600D03*
X196125600Y-124711600D03*
X193585600Y-127251600D03*
X193585600Y-124711600D03*
X191045600Y-127251600D03*
X191045600Y-124711600D03*
X188505600Y-127251600D03*
X188505600Y-124711600D03*
X185965600Y-127251600D03*
X185965600Y-124711600D03*
X183425600Y-127251600D03*
X183425600Y-124711600D03*
X180885600Y-127251600D03*
X180885600Y-124711600D03*
X178345600Y-127251600D03*
X178345600Y-124711600D03*
X175805600Y-127251600D03*
X175805600Y-124711600D03*
X173265600Y-127251600D03*
X173265600Y-124711600D03*
X170725600Y-127251600D03*
X170725600Y-124711600D03*
X168185600Y-127251600D03*
X168185600Y-124711600D03*
X165645600Y-127251600D03*
X165645600Y-124711600D03*
X163105600Y-127251600D03*
X163105600Y-124711600D03*
X160565600Y-127251600D03*
X160565600Y-124711600D03*
%TD*%
M02*
