%TF.GenerationSoftware,KiCad,Pcbnew,8.0.2*%
%TF.CreationDate,2024-05-20T09:00:16+02:00*%
%TF.ProjectId,p2000t-ram-expansion-board-2080kb,70323030-3074-42d7-9261-6d2d65787061,2*%
%TF.SameCoordinates,Original*%
%TF.FileFunction,Legend,Bot*%
%TF.FilePolarity,Positive*%
%FSLAX46Y46*%
G04 Gerber Fmt 4.6, Leading zero omitted, Abs format (unit mm)*
G04 Created by KiCad (PCBNEW 8.0.2) date 2024-05-20 09:00:16*
%MOMM*%
%LPD*%
G01*
G04 APERTURE LIST*
%ADD10C,0.150000*%
%ADD11C,0.120000*%
G04 APERTURE END LIST*
D10*
X138900790Y-134532752D02*
X138900790Y-135389895D01*
X138900790Y-135389895D02*
X138948409Y-135485133D01*
X138948409Y-135485133D02*
X139043647Y-135532752D01*
X139043647Y-135532752D02*
X139091266Y-135532752D01*
X138900790Y-134199419D02*
X138948409Y-134247038D01*
X138948409Y-134247038D02*
X138900790Y-134294657D01*
X138900790Y-134294657D02*
X138853171Y-134247038D01*
X138853171Y-134247038D02*
X138900790Y-134199419D01*
X138900790Y-134199419D02*
X138900790Y-134294657D01*
X138281743Y-135199419D02*
X138376981Y-135151800D01*
X138376981Y-135151800D02*
X138424600Y-135056561D01*
X138424600Y-135056561D02*
X138424600Y-134199419D01*
X137472219Y-135151800D02*
X137567457Y-135199419D01*
X137567457Y-135199419D02*
X137757933Y-135199419D01*
X137757933Y-135199419D02*
X137853171Y-135151800D01*
X137853171Y-135151800D02*
X137900790Y-135104180D01*
X137900790Y-135104180D02*
X137948409Y-135008942D01*
X137948409Y-135008942D02*
X137948409Y-134723228D01*
X137948409Y-134723228D02*
X137900790Y-134627990D01*
X137900790Y-134627990D02*
X137853171Y-134580371D01*
X137853171Y-134580371D02*
X137757933Y-134532752D01*
X137757933Y-134532752D02*
X137567457Y-134532752D01*
X137567457Y-134532752D02*
X137472219Y-134580371D01*
X137043647Y-134532752D02*
X137043647Y-135389895D01*
X137043647Y-135389895D02*
X137091266Y-135485133D01*
X137091266Y-135485133D02*
X137186504Y-135532752D01*
X137186504Y-135532752D02*
X137234123Y-135532752D01*
X137043647Y-134199419D02*
X137091266Y-134247038D01*
X137091266Y-134247038D02*
X137043647Y-134294657D01*
X137043647Y-134294657D02*
X136996028Y-134247038D01*
X136996028Y-134247038D02*
X137043647Y-134199419D01*
X137043647Y-134199419D02*
X137043647Y-134294657D01*
X136424600Y-135199419D02*
X136519838Y-135151800D01*
X136519838Y-135151800D02*
X136567457Y-135056561D01*
X136567457Y-135056561D02*
X136567457Y-134199419D01*
X135615076Y-135151800D02*
X135710314Y-135199419D01*
X135710314Y-135199419D02*
X135900790Y-135199419D01*
X135900790Y-135199419D02*
X135996028Y-135151800D01*
X135996028Y-135151800D02*
X136043647Y-135104180D01*
X136043647Y-135104180D02*
X136091266Y-135008942D01*
X136091266Y-135008942D02*
X136091266Y-134723228D01*
X136091266Y-134723228D02*
X136043647Y-134627990D01*
X136043647Y-134627990D02*
X135996028Y-134580371D01*
X135996028Y-134580371D02*
X135900790Y-134532752D01*
X135900790Y-134532752D02*
X135710314Y-134532752D01*
X135710314Y-134532752D02*
X135615076Y-134580371D01*
X135186504Y-134532752D02*
X135186504Y-135389895D01*
X135186504Y-135389895D02*
X135234123Y-135485133D01*
X135234123Y-135485133D02*
X135329361Y-135532752D01*
X135329361Y-135532752D02*
X135376980Y-135532752D01*
X135186504Y-134199419D02*
X135234123Y-134247038D01*
X135234123Y-134247038D02*
X135186504Y-134294657D01*
X135186504Y-134294657D02*
X135138885Y-134247038D01*
X135138885Y-134247038D02*
X135186504Y-134199419D01*
X135186504Y-134199419D02*
X135186504Y-134294657D01*
X134567457Y-135199419D02*
X134662695Y-135151800D01*
X134662695Y-135151800D02*
X134710314Y-135056561D01*
X134710314Y-135056561D02*
X134710314Y-134199419D01*
X133757933Y-135151800D02*
X133853171Y-135199419D01*
X133853171Y-135199419D02*
X134043647Y-135199419D01*
X134043647Y-135199419D02*
X134138885Y-135151800D01*
X134138885Y-135151800D02*
X134186504Y-135104180D01*
X134186504Y-135104180D02*
X134234123Y-135008942D01*
X134234123Y-135008942D02*
X134234123Y-134723228D01*
X134234123Y-134723228D02*
X134186504Y-134627990D01*
X134186504Y-134627990D02*
X134138885Y-134580371D01*
X134138885Y-134580371D02*
X134043647Y-134532752D01*
X134043647Y-134532752D02*
X133853171Y-134532752D01*
X133853171Y-134532752D02*
X133757933Y-134580371D01*
X133329361Y-134532752D02*
X133329361Y-135389895D01*
X133329361Y-135389895D02*
X133376980Y-135485133D01*
X133376980Y-135485133D02*
X133472218Y-135532752D01*
X133472218Y-135532752D02*
X133519837Y-135532752D01*
X133329361Y-134199419D02*
X133376980Y-134247038D01*
X133376980Y-134247038D02*
X133329361Y-134294657D01*
X133329361Y-134294657D02*
X133281742Y-134247038D01*
X133281742Y-134247038D02*
X133329361Y-134199419D01*
X133329361Y-134199419D02*
X133329361Y-134294657D01*
X132710314Y-135199419D02*
X132805552Y-135151800D01*
X132805552Y-135151800D02*
X132853171Y-135056561D01*
X132853171Y-135056561D02*
X132853171Y-134199419D01*
X131900790Y-135151800D02*
X131996028Y-135199419D01*
X131996028Y-135199419D02*
X132186504Y-135199419D01*
X132186504Y-135199419D02*
X132281742Y-135151800D01*
X132281742Y-135151800D02*
X132329361Y-135104180D01*
X132329361Y-135104180D02*
X132376980Y-135008942D01*
X132376980Y-135008942D02*
X132376980Y-134723228D01*
X132376980Y-134723228D02*
X132329361Y-134627990D01*
X132329361Y-134627990D02*
X132281742Y-134580371D01*
X132281742Y-134580371D02*
X132186504Y-134532752D01*
X132186504Y-134532752D02*
X131996028Y-134532752D01*
X131996028Y-134532752D02*
X131900790Y-134580371D01*
D11*
%TO.C,J1*%
X159235600Y-128581600D02*
X159235600Y-123381600D01*
X207555600Y-125981600D02*
X210155600Y-125981600D01*
X207555600Y-128581600D02*
X159235600Y-128581600D01*
X207555600Y-128581600D02*
X207555600Y-125981600D01*
X208825600Y-128581600D02*
X210155600Y-128581600D01*
X210155600Y-123381600D02*
X159235600Y-123381600D01*
X210155600Y-125981600D02*
X210155600Y-123381600D01*
X210155600Y-128581600D02*
X210155600Y-127251600D01*
%TD*%
M02*
