%TF.GenerationSoftware,KiCad,Pcbnew,8.0.2*%
%TF.CreationDate,2024-05-20T09:00:16+02:00*%
%TF.ProjectId,p2000t-ram-expansion-board-2080kb,70323030-3074-42d7-9261-6d2d65787061,2*%
%TF.SameCoordinates,Original*%
%TF.FileFunction,Soldermask,Top*%
%TF.FilePolarity,Negative*%
%FSLAX46Y46*%
G04 Gerber Fmt 4.6, Leading zero omitted, Abs format (unit mm)*
G04 Created by KiCad (PCBNEW 8.0.2) date 2024-05-20 09:00:16*
%MOMM*%
%LPD*%
G01*
G04 APERTURE LIST*
%ADD10C,0.010000*%
%ADD11C,1.600000*%
%ADD12R,1.600000X1.600000*%
%ADD13O,1.600000X1.600000*%
%ADD14R,1.700000X1.700000*%
%ADD15O,1.700000X1.700000*%
%ADD16R,3.000000X3.000000*%
%ADD17C,3.000000*%
G04 APERTURE END LIST*
D10*
%TO.C,LOGO1*%
X232835690Y-130940018D02*
X232870585Y-130955269D01*
X232953877Y-131021235D01*
X233025103Y-131116618D01*
X233069153Y-131218406D01*
X233076322Y-131268587D01*
X233052285Y-131338647D01*
X232999561Y-131375717D01*
X232943031Y-131398164D01*
X232917146Y-131402300D01*
X232904542Y-131372283D01*
X232879654Y-131306961D01*
X232868735Y-131277445D01*
X232807508Y-131175348D01*
X232718861Y-131124423D01*
X232605193Y-131125989D01*
X232596774Y-131127994D01*
X232536088Y-131156767D01*
X232491474Y-131212859D01*
X232461002Y-131303163D01*
X232442744Y-131434571D01*
X232434771Y-131613974D01*
X232434023Y-131709433D01*
X232433652Y-131859913D01*
X232431223Y-131962495D01*
X232424760Y-132027672D01*
X232412288Y-132065938D01*
X232391833Y-132087785D01*
X232361419Y-132103707D01*
X232359661Y-132104509D01*
X232301091Y-132129272D01*
X232272075Y-132138391D01*
X232267616Y-132110822D01*
X232263799Y-132034620D01*
X232260899Y-131919541D01*
X232259191Y-131775341D01*
X232258851Y-131669814D01*
X232260588Y-131465613D01*
X232267382Y-131310697D01*
X232281607Y-131196024D01*
X232305638Y-131112551D01*
X232341848Y-131051236D01*
X232392612Y-131003034D01*
X232442739Y-130969393D01*
X232563275Y-130924619D01*
X232703557Y-130914521D01*
X232835690Y-130940018D01*
G36*
X232835690Y-130940018D02*
G01*
X232870585Y-130955269D01*
X232953877Y-131021235D01*
X233025103Y-131116618D01*
X233069153Y-131218406D01*
X233076322Y-131268587D01*
X233052285Y-131338647D01*
X232999561Y-131375717D01*
X232943031Y-131398164D01*
X232917146Y-131402300D01*
X232904542Y-131372283D01*
X232879654Y-131306961D01*
X232868735Y-131277445D01*
X232807508Y-131175348D01*
X232718861Y-131124423D01*
X232605193Y-131125989D01*
X232596774Y-131127994D01*
X232536088Y-131156767D01*
X232491474Y-131212859D01*
X232461002Y-131303163D01*
X232442744Y-131434571D01*
X232434771Y-131613974D01*
X232434023Y-131709433D01*
X232433652Y-131859913D01*
X232431223Y-131962495D01*
X232424760Y-132027672D01*
X232412288Y-132065938D01*
X232391833Y-132087785D01*
X232361419Y-132103707D01*
X232359661Y-132104509D01*
X232301091Y-132129272D01*
X232272075Y-132138391D01*
X232267616Y-132110822D01*
X232263799Y-132034620D01*
X232260899Y-131919541D01*
X232259191Y-131775341D01*
X232258851Y-131669814D01*
X232260588Y-131465613D01*
X232267382Y-131310697D01*
X232281607Y-131196024D01*
X232305638Y-131112551D01*
X232341848Y-131051236D01*
X232392612Y-131003034D01*
X232442739Y-130969393D01*
X232563275Y-130924619D01*
X232703557Y-130914521D01*
X232835690Y-130940018D01*
G37*
X224917429Y-130877719D02*
X225011123Y-130931914D01*
X225076264Y-130985707D01*
X225123907Y-131042066D01*
X225156728Y-131110987D01*
X225177406Y-131202468D01*
X225188620Y-131326506D01*
X225193049Y-131493098D01*
X225193563Y-131612851D01*
X225193563Y-132053659D01*
X225069483Y-132109283D01*
X224945402Y-132164907D01*
X224930805Y-131682095D01*
X224924773Y-131501779D01*
X224918445Y-131370901D01*
X224910606Y-131280511D01*
X224900037Y-131221664D01*
X224885523Y-131185413D01*
X224865848Y-131162810D01*
X224859535Y-131157917D01*
X224763888Y-131119706D01*
X224667207Y-131134827D01*
X224609655Y-131174943D01*
X224586245Y-131203370D01*
X224570039Y-131240672D01*
X224559741Y-131297223D01*
X224554049Y-131383394D01*
X224551664Y-131509558D01*
X224551264Y-131641042D01*
X224551186Y-131805999D01*
X224548361Y-131922761D01*
X224538907Y-132001510D01*
X224518940Y-132052431D01*
X224484576Y-132085706D01*
X224431932Y-132111520D01*
X224361617Y-132138344D01*
X224284820Y-132167542D01*
X224293962Y-131649346D01*
X224297643Y-131462539D01*
X224301950Y-131324490D01*
X224308123Y-131225568D01*
X224317402Y-131156145D01*
X224331027Y-131106590D01*
X224350239Y-131067273D01*
X224373402Y-131032584D01*
X224485152Y-130921770D01*
X224621513Y-130857689D01*
X224769825Y-130842339D01*
X224917429Y-130877719D01*
G36*
X224917429Y-130877719D02*
G01*
X225011123Y-130931914D01*
X225076264Y-130985707D01*
X225123907Y-131042066D01*
X225156728Y-131110987D01*
X225177406Y-131202468D01*
X225188620Y-131326506D01*
X225193049Y-131493098D01*
X225193563Y-131612851D01*
X225193563Y-132053659D01*
X225069483Y-132109283D01*
X224945402Y-132164907D01*
X224930805Y-131682095D01*
X224924773Y-131501779D01*
X224918445Y-131370901D01*
X224910606Y-131280511D01*
X224900037Y-131221664D01*
X224885523Y-131185413D01*
X224865848Y-131162810D01*
X224859535Y-131157917D01*
X224763888Y-131119706D01*
X224667207Y-131134827D01*
X224609655Y-131174943D01*
X224586245Y-131203370D01*
X224570039Y-131240672D01*
X224559741Y-131297223D01*
X224554049Y-131383394D01*
X224551664Y-131509558D01*
X224551264Y-131641042D01*
X224551186Y-131805999D01*
X224548361Y-131922761D01*
X224538907Y-132001510D01*
X224518940Y-132052431D01*
X224484576Y-132085706D01*
X224431932Y-132111520D01*
X224361617Y-132138344D01*
X224284820Y-132167542D01*
X224293962Y-131649346D01*
X224297643Y-131462539D01*
X224301950Y-131324490D01*
X224308123Y-131225568D01*
X224317402Y-131156145D01*
X224331027Y-131106590D01*
X224350239Y-131067273D01*
X224373402Y-131032584D01*
X224485152Y-130921770D01*
X224621513Y-130857689D01*
X224769825Y-130842339D01*
X224917429Y-130877719D01*
G37*
X228565943Y-130921920D02*
X228698565Y-130970859D01*
X228806010Y-131057419D01*
X228848032Y-131118352D01*
X228893843Y-131230161D01*
X228892891Y-131311006D01*
X228844808Y-131365378D01*
X228827017Y-131374624D01*
X228750204Y-131403450D01*
X228710976Y-131396065D01*
X228697689Y-131347658D01*
X228697012Y-131320920D01*
X228672686Y-131222548D01*
X228609281Y-131153734D01*
X228521154Y-131120498D01*
X228422663Y-131128861D01*
X228342602Y-131172296D01*
X228315561Y-131197072D01*
X228296394Y-131227129D01*
X228283446Y-131272565D01*
X228275064Y-131343476D01*
X228269593Y-131449960D01*
X228265378Y-131602112D01*
X228264287Y-131650287D01*
X228260307Y-131815095D01*
X228255781Y-131931088D01*
X228248995Y-132007833D01*
X228238231Y-132054893D01*
X228221773Y-132081835D01*
X228197906Y-132098223D01*
X228182626Y-132105463D01*
X228117733Y-132130220D01*
X228079534Y-132138391D01*
X228066912Y-132111103D01*
X228059208Y-132028603D01*
X228056380Y-131889941D01*
X228058386Y-131694162D01*
X228059011Y-131663965D01*
X228063421Y-131485349D01*
X228068635Y-131354923D01*
X228076055Y-131262492D01*
X228087082Y-131197858D01*
X228103117Y-131150825D01*
X228125561Y-131111196D01*
X228137302Y-131094215D01*
X228204619Y-131019080D01*
X228279910Y-130960638D01*
X228289128Y-130955536D01*
X228424133Y-130915260D01*
X228565943Y-130921920D01*
G36*
X228565943Y-130921920D02*
G01*
X228698565Y-130970859D01*
X228806010Y-131057419D01*
X228848032Y-131118352D01*
X228893843Y-131230161D01*
X228892891Y-131311006D01*
X228844808Y-131365378D01*
X228827017Y-131374624D01*
X228750204Y-131403450D01*
X228710976Y-131396065D01*
X228697689Y-131347658D01*
X228697012Y-131320920D01*
X228672686Y-131222548D01*
X228609281Y-131153734D01*
X228521154Y-131120498D01*
X228422663Y-131128861D01*
X228342602Y-131172296D01*
X228315561Y-131197072D01*
X228296394Y-131227129D01*
X228283446Y-131272565D01*
X228275064Y-131343476D01*
X228269593Y-131449960D01*
X228265378Y-131602112D01*
X228264287Y-131650287D01*
X228260307Y-131815095D01*
X228255781Y-131931088D01*
X228248995Y-132007833D01*
X228238231Y-132054893D01*
X228221773Y-132081835D01*
X228197906Y-132098223D01*
X228182626Y-132105463D01*
X228117733Y-132130220D01*
X228079534Y-132138391D01*
X228066912Y-132111103D01*
X228059208Y-132028603D01*
X228056380Y-131889941D01*
X228058386Y-131694162D01*
X228059011Y-131663965D01*
X228063421Y-131485349D01*
X228068635Y-131354923D01*
X228076055Y-131262492D01*
X228087082Y-131197858D01*
X228103117Y-131150825D01*
X228125561Y-131111196D01*
X228137302Y-131094215D01*
X228204619Y-131019080D01*
X228279910Y-130960638D01*
X228289128Y-130955536D01*
X228424133Y-130915260D01*
X228565943Y-130921920D01*
G37*
X231080124Y-130939840D02*
X231084579Y-131016653D01*
X231088071Y-131133391D01*
X231090315Y-131280821D01*
X231091035Y-131435455D01*
X231091035Y-131958727D01*
X230998645Y-132051117D01*
X230934978Y-132108047D01*
X230879089Y-132131107D01*
X230802702Y-132129647D01*
X230772380Y-132125934D01*
X230677610Y-132115126D01*
X230599222Y-132108933D01*
X230580115Y-132108361D01*
X230515699Y-132112102D01*
X230423571Y-132121494D01*
X230387850Y-132125934D01*
X230300114Y-132132801D01*
X230241153Y-132117885D01*
X230182690Y-132071835D01*
X230161585Y-132051117D01*
X230069195Y-131958727D01*
X230069195Y-130979947D01*
X230143558Y-130946066D01*
X230207590Y-130920970D01*
X230245052Y-130912184D01*
X230254657Y-130939950D01*
X230263635Y-131017530D01*
X230271386Y-131136348D01*
X230277314Y-131287828D01*
X230280173Y-131415805D01*
X230288161Y-131919425D01*
X230357848Y-131929278D01*
X230421229Y-131922389D01*
X230452286Y-131900083D01*
X230460967Y-131858379D01*
X230468378Y-131769544D01*
X230473931Y-131644834D01*
X230477036Y-131495507D01*
X230477484Y-131418661D01*
X230477931Y-130976287D01*
X230569874Y-130944235D01*
X230634949Y-130922443D01*
X230670347Y-130912281D01*
X230671368Y-130912184D01*
X230674920Y-130939809D01*
X230678823Y-131016411D01*
X230682751Y-131132579D01*
X230686376Y-131278904D01*
X230688908Y-131415805D01*
X230696897Y-131919425D01*
X230872069Y-131919425D01*
X230880107Y-131459965D01*
X230888146Y-131000505D01*
X230973543Y-130956344D01*
X231036593Y-130926019D01*
X231073910Y-130912258D01*
X231074987Y-130912184D01*
X231080124Y-130939840D01*
G36*
X231080124Y-130939840D02*
G01*
X231084579Y-131016653D01*
X231088071Y-131133391D01*
X231090315Y-131280821D01*
X231091035Y-131435455D01*
X231091035Y-131958727D01*
X230998645Y-132051117D01*
X230934978Y-132108047D01*
X230879089Y-132131107D01*
X230802702Y-132129647D01*
X230772380Y-132125934D01*
X230677610Y-132115126D01*
X230599222Y-132108933D01*
X230580115Y-132108361D01*
X230515699Y-132112102D01*
X230423571Y-132121494D01*
X230387850Y-132125934D01*
X230300114Y-132132801D01*
X230241153Y-132117885D01*
X230182690Y-132071835D01*
X230161585Y-132051117D01*
X230069195Y-131958727D01*
X230069195Y-130979947D01*
X230143558Y-130946066D01*
X230207590Y-130920970D01*
X230245052Y-130912184D01*
X230254657Y-130939950D01*
X230263635Y-131017530D01*
X230271386Y-131136348D01*
X230277314Y-131287828D01*
X230280173Y-131415805D01*
X230288161Y-131919425D01*
X230357848Y-131929278D01*
X230421229Y-131922389D01*
X230452286Y-131900083D01*
X230460967Y-131858379D01*
X230468378Y-131769544D01*
X230473931Y-131644834D01*
X230477036Y-131495507D01*
X230477484Y-131418661D01*
X230477931Y-130976287D01*
X230569874Y-130944235D01*
X230634949Y-130922443D01*
X230670347Y-130912281D01*
X230671368Y-130912184D01*
X230674920Y-130939809D01*
X230678823Y-131016411D01*
X230682751Y-131132579D01*
X230686376Y-131278904D01*
X230688908Y-131415805D01*
X230696897Y-131919425D01*
X230872069Y-131919425D01*
X230880107Y-131459965D01*
X230888146Y-131000505D01*
X230973543Y-130956344D01*
X231036593Y-130926019D01*
X231073910Y-130912258D01*
X231074987Y-130912184D01*
X231080124Y-130939840D01*
G37*
X226244598Y-130723857D02*
X226253154Y-130843188D01*
X226262981Y-130913506D01*
X226276599Y-130944179D01*
X226296527Y-130944571D01*
X226302989Y-130940910D01*
X226388940Y-130914398D01*
X226500745Y-130915946D01*
X226614414Y-130943199D01*
X226685510Y-130978455D01*
X226758405Y-131034778D01*
X226811693Y-131098519D01*
X226848275Y-131179510D01*
X226871050Y-131287586D01*
X226882919Y-131432580D01*
X226886782Y-131624326D01*
X226886851Y-131661109D01*
X226886897Y-132074288D01*
X226794954Y-132106339D01*
X226729652Y-132128144D01*
X226693824Y-132138297D01*
X226692770Y-132138391D01*
X226689242Y-132110860D01*
X226686239Y-132034923D01*
X226683990Y-131920565D01*
X226682724Y-131777769D01*
X226682529Y-131690951D01*
X226682123Y-131519773D01*
X226680032Y-131397088D01*
X226674947Y-131313000D01*
X226665560Y-131257614D01*
X226650561Y-131221032D01*
X226628642Y-131193359D01*
X226614957Y-131180032D01*
X226520949Y-131126328D01*
X226418364Y-131122307D01*
X226325290Y-131167725D01*
X226308078Y-131184123D01*
X226282832Y-131214957D01*
X226265320Y-131251531D01*
X226254142Y-131304415D01*
X226247896Y-131384177D01*
X226245182Y-131501385D01*
X226244598Y-131662991D01*
X226244598Y-132074288D01*
X226152655Y-132106339D01*
X226087353Y-132128144D01*
X226051525Y-132138297D01*
X226050471Y-132138391D01*
X226047775Y-132110448D01*
X226045345Y-132031630D01*
X226043278Y-131909453D01*
X226041671Y-131751432D01*
X226040623Y-131565083D01*
X226040231Y-131357920D01*
X226040230Y-131348706D01*
X226040230Y-130559020D01*
X226135115Y-130518997D01*
X226230000Y-130478973D01*
X226244598Y-130723857D01*
G36*
X226244598Y-130723857D02*
G01*
X226253154Y-130843188D01*
X226262981Y-130913506D01*
X226276599Y-130944179D01*
X226296527Y-130944571D01*
X226302989Y-130940910D01*
X226388940Y-130914398D01*
X226500745Y-130915946D01*
X226614414Y-130943199D01*
X226685510Y-130978455D01*
X226758405Y-131034778D01*
X226811693Y-131098519D01*
X226848275Y-131179510D01*
X226871050Y-131287586D01*
X226882919Y-131432580D01*
X226886782Y-131624326D01*
X226886851Y-131661109D01*
X226886897Y-132074288D01*
X226794954Y-132106339D01*
X226729652Y-132128144D01*
X226693824Y-132138297D01*
X226692770Y-132138391D01*
X226689242Y-132110860D01*
X226686239Y-132034923D01*
X226683990Y-131920565D01*
X226682724Y-131777769D01*
X226682529Y-131690951D01*
X226682123Y-131519773D01*
X226680032Y-131397088D01*
X226674947Y-131313000D01*
X226665560Y-131257614D01*
X226650561Y-131221032D01*
X226628642Y-131193359D01*
X226614957Y-131180032D01*
X226520949Y-131126328D01*
X226418364Y-131122307D01*
X226325290Y-131167725D01*
X226308078Y-131184123D01*
X226282832Y-131214957D01*
X226265320Y-131251531D01*
X226254142Y-131304415D01*
X226247896Y-131384177D01*
X226245182Y-131501385D01*
X226244598Y-131662991D01*
X226244598Y-132074288D01*
X226152655Y-132106339D01*
X226087353Y-132128144D01*
X226051525Y-132138297D01*
X226050471Y-132138391D01*
X226047775Y-132110448D01*
X226045345Y-132031630D01*
X226043278Y-131909453D01*
X226041671Y-131751432D01*
X226040623Y-131565083D01*
X226040231Y-131357920D01*
X226040230Y-131348706D01*
X226040230Y-130559020D01*
X226135115Y-130518997D01*
X226230000Y-130478973D01*
X226244598Y-130723857D01*
G37*
X221548221Y-130866015D02*
X221685061Y-130937968D01*
X221786051Y-131053766D01*
X221821925Y-131128213D01*
X221849839Y-131239992D01*
X221864129Y-131381227D01*
X221865484Y-131535371D01*
X221854595Y-131685879D01*
X221832153Y-131816205D01*
X221798850Y-131909803D01*
X221788615Y-131925922D01*
X221667382Y-132046249D01*
X221523387Y-132118317D01*
X221367139Y-132139408D01*
X221209148Y-132106802D01*
X221165180Y-132087253D01*
X221079556Y-132027012D01*
X221004408Y-131947135D01*
X220997306Y-131937004D01*
X220968439Y-131888181D01*
X220949357Y-131835990D01*
X220938084Y-131767285D01*
X220932645Y-131668918D01*
X220931062Y-131527744D01*
X220931035Y-131496092D01*
X220931107Y-131486019D01*
X221222989Y-131486019D01*
X221224687Y-131619256D01*
X221231372Y-131707674D01*
X221245425Y-131764785D01*
X221269229Y-131804102D01*
X221281379Y-131817241D01*
X221351236Y-131867172D01*
X221419059Y-131864895D01*
X221487635Y-131821584D01*
X221528535Y-131775346D01*
X221552758Y-131707857D01*
X221566361Y-131601433D01*
X221567294Y-131589020D01*
X221569616Y-131396147D01*
X221545350Y-131252900D01*
X221494824Y-131160160D01*
X221418368Y-131118807D01*
X221391076Y-131116552D01*
X221319411Y-131127893D01*
X221270390Y-131167184D01*
X221240418Y-131242326D01*
X221225899Y-131361222D01*
X221222989Y-131486019D01*
X220931107Y-131486019D01*
X220932122Y-131345659D01*
X220936688Y-131240549D01*
X220946688Y-131167714D01*
X220964079Y-131114108D01*
X220990816Y-131066681D01*
X220996724Y-131057864D01*
X221096032Y-130939007D01*
X221204242Y-130870008D01*
X221335981Y-130842619D01*
X221380717Y-130841281D01*
X221548221Y-130866015D01*
G36*
X221548221Y-130866015D02*
G01*
X221685061Y-130937968D01*
X221786051Y-131053766D01*
X221821925Y-131128213D01*
X221849839Y-131239992D01*
X221864129Y-131381227D01*
X221865484Y-131535371D01*
X221854595Y-131685879D01*
X221832153Y-131816205D01*
X221798850Y-131909803D01*
X221788615Y-131925922D01*
X221667382Y-132046249D01*
X221523387Y-132118317D01*
X221367139Y-132139408D01*
X221209148Y-132106802D01*
X221165180Y-132087253D01*
X221079556Y-132027012D01*
X221004408Y-131947135D01*
X220997306Y-131937004D01*
X220968439Y-131888181D01*
X220949357Y-131835990D01*
X220938084Y-131767285D01*
X220932645Y-131668918D01*
X220931062Y-131527744D01*
X220931035Y-131496092D01*
X220931107Y-131486019D01*
X221222989Y-131486019D01*
X221224687Y-131619256D01*
X221231372Y-131707674D01*
X221245425Y-131764785D01*
X221269229Y-131804102D01*
X221281379Y-131817241D01*
X221351236Y-131867172D01*
X221419059Y-131864895D01*
X221487635Y-131821584D01*
X221528535Y-131775346D01*
X221552758Y-131707857D01*
X221566361Y-131601433D01*
X221567294Y-131589020D01*
X221569616Y-131396147D01*
X221545350Y-131252900D01*
X221494824Y-131160160D01*
X221418368Y-131118807D01*
X221391076Y-131116552D01*
X221319411Y-131127893D01*
X221270390Y-131167184D01*
X221240418Y-131242326D01*
X221225899Y-131361222D01*
X221222989Y-131486019D01*
X220931107Y-131486019D01*
X220932122Y-131345659D01*
X220936688Y-131240549D01*
X220946688Y-131167714D01*
X220964079Y-131114108D01*
X220990816Y-131066681D01*
X220996724Y-131057864D01*
X221096032Y-130939007D01*
X221204242Y-130870008D01*
X221335981Y-130842619D01*
X221380717Y-130841281D01*
X221548221Y-130866015D01*
G37*
X233843439Y-130956540D02*
X233958950Y-131032034D01*
X234014664Y-131099617D01*
X234058804Y-131222255D01*
X234062309Y-131319298D01*
X234054368Y-131449056D01*
X233755115Y-131580039D01*
X233609611Y-131646958D01*
X233514537Y-131700790D01*
X233465101Y-131747416D01*
X233456511Y-131792720D01*
X233483972Y-131842582D01*
X233514253Y-131875632D01*
X233602363Y-131928633D01*
X233698196Y-131932347D01*
X233786212Y-131891041D01*
X233850869Y-131808983D01*
X233862433Y-131780008D01*
X233917825Y-131689509D01*
X233981553Y-131650940D01*
X234068966Y-131617946D01*
X234068966Y-131743034D01*
X234061238Y-131828156D01*
X234030966Y-131899938D01*
X233967518Y-131982356D01*
X233958088Y-131993066D01*
X233887513Y-132066391D01*
X233826847Y-132105742D01*
X233750950Y-132123845D01*
X233688030Y-132129774D01*
X233575487Y-132131251D01*
X233495370Y-132112535D01*
X233445390Y-132084747D01*
X233366838Y-132023641D01*
X233312463Y-131957554D01*
X233278052Y-131874441D01*
X233259388Y-131762254D01*
X233252256Y-131608946D01*
X233251687Y-131531136D01*
X233253622Y-131437853D01*
X233429899Y-131437853D01*
X233431944Y-131487896D01*
X233437039Y-131496092D01*
X233470666Y-131484958D01*
X233543030Y-131455493D01*
X233639747Y-131413601D01*
X233659973Y-131404597D01*
X233782203Y-131342442D01*
X233849547Y-131287815D01*
X233864348Y-131236649D01*
X233828947Y-131184876D01*
X233799711Y-131162000D01*
X233694216Y-131116250D01*
X233595476Y-131123808D01*
X233512812Y-131179651D01*
X233455548Y-131278753D01*
X233437188Y-131357414D01*
X233429899Y-131437853D01*
X233253622Y-131437853D01*
X233255459Y-131349351D01*
X233269359Y-131214853D01*
X233296894Y-131116916D01*
X233341572Y-131044811D01*
X233406901Y-130987813D01*
X233435383Y-130969393D01*
X233564763Y-130921422D01*
X233706412Y-130918403D01*
X233843439Y-130956540D01*
G36*
X233843439Y-130956540D02*
G01*
X233958950Y-131032034D01*
X234014664Y-131099617D01*
X234058804Y-131222255D01*
X234062309Y-131319298D01*
X234054368Y-131449056D01*
X233755115Y-131580039D01*
X233609611Y-131646958D01*
X233514537Y-131700790D01*
X233465101Y-131747416D01*
X233456511Y-131792720D01*
X233483972Y-131842582D01*
X233514253Y-131875632D01*
X233602363Y-131928633D01*
X233698196Y-131932347D01*
X233786212Y-131891041D01*
X233850869Y-131808983D01*
X233862433Y-131780008D01*
X233917825Y-131689509D01*
X233981553Y-131650940D01*
X234068966Y-131617946D01*
X234068966Y-131743034D01*
X234061238Y-131828156D01*
X234030966Y-131899938D01*
X233967518Y-131982356D01*
X233958088Y-131993066D01*
X233887513Y-132066391D01*
X233826847Y-132105742D01*
X233750950Y-132123845D01*
X233688030Y-132129774D01*
X233575487Y-132131251D01*
X233495370Y-132112535D01*
X233445390Y-132084747D01*
X233366838Y-132023641D01*
X233312463Y-131957554D01*
X233278052Y-131874441D01*
X233259388Y-131762254D01*
X233252256Y-131608946D01*
X233251687Y-131531136D01*
X233253622Y-131437853D01*
X233429899Y-131437853D01*
X233431944Y-131487896D01*
X233437039Y-131496092D01*
X233470666Y-131484958D01*
X233543030Y-131455493D01*
X233639747Y-131413601D01*
X233659973Y-131404597D01*
X233782203Y-131342442D01*
X233849547Y-131287815D01*
X233864348Y-131236649D01*
X233828947Y-131184876D01*
X233799711Y-131162000D01*
X233694216Y-131116250D01*
X233595476Y-131123808D01*
X233512812Y-131179651D01*
X233455548Y-131278753D01*
X233437188Y-131357414D01*
X233429899Y-131437853D01*
X233253622Y-131437853D01*
X233255459Y-131349351D01*
X233269359Y-131214853D01*
X233296894Y-131116916D01*
X233341572Y-131044811D01*
X233406901Y-130987813D01*
X233435383Y-130969393D01*
X233564763Y-130921422D01*
X233706412Y-130918403D01*
X233843439Y-130956540D01*
G37*
X229893914Y-131154455D02*
X229893543Y-131372661D01*
X229892108Y-131540519D01*
X229889002Y-131666070D01*
X229883622Y-131757355D01*
X229875362Y-131822415D01*
X229863616Y-131869291D01*
X229847781Y-131906024D01*
X229835790Y-131926991D01*
X229736490Y-132040694D01*
X229610588Y-132111965D01*
X229471291Y-132137538D01*
X229331805Y-132114150D01*
X229248743Y-132072119D01*
X229161545Y-131999411D01*
X229102117Y-131910612D01*
X229066261Y-131794320D01*
X229049781Y-131639135D01*
X229047447Y-131525287D01*
X229047761Y-131517106D01*
X229251724Y-131517106D01*
X229252970Y-131647657D01*
X229258678Y-131734080D01*
X229271804Y-131790618D01*
X229295306Y-131831514D01*
X229323386Y-131862362D01*
X229417688Y-131921905D01*
X229518940Y-131926992D01*
X229614636Y-131877279D01*
X229622084Y-131870543D01*
X229653874Y-131835502D01*
X229673808Y-131793811D01*
X229684600Y-131731762D01*
X229688965Y-131635644D01*
X229689655Y-131529379D01*
X229688159Y-131395880D01*
X229681964Y-131306822D01*
X229668514Y-131248293D01*
X229645251Y-131206382D01*
X229626175Y-131184123D01*
X229537563Y-131127985D01*
X229435508Y-131121235D01*
X229338095Y-131164114D01*
X229319296Y-131180032D01*
X229287293Y-131215382D01*
X229267318Y-131257502D01*
X229256593Y-131320251D01*
X229252339Y-131417487D01*
X229251724Y-131517106D01*
X229047761Y-131517106D01*
X229054504Y-131341947D01*
X229078472Y-131204195D01*
X229123548Y-131100632D01*
X229193928Y-131019856D01*
X229248743Y-130978455D01*
X229348376Y-130933728D01*
X229463855Y-130912967D01*
X229571199Y-130918525D01*
X229631264Y-130940943D01*
X229654835Y-130947323D01*
X229670477Y-130923535D01*
X229681395Y-130859788D01*
X229689655Y-130762687D01*
X229698699Y-130654541D01*
X229711261Y-130589475D01*
X229734119Y-130552268D01*
X229774051Y-130527699D01*
X229799138Y-130516819D01*
X229894023Y-130477072D01*
X229893914Y-131154455D01*
G36*
X229893914Y-131154455D02*
G01*
X229893543Y-131372661D01*
X229892108Y-131540519D01*
X229889002Y-131666070D01*
X229883622Y-131757355D01*
X229875362Y-131822415D01*
X229863616Y-131869291D01*
X229847781Y-131906024D01*
X229835790Y-131926991D01*
X229736490Y-132040694D01*
X229610588Y-132111965D01*
X229471291Y-132137538D01*
X229331805Y-132114150D01*
X229248743Y-132072119D01*
X229161545Y-131999411D01*
X229102117Y-131910612D01*
X229066261Y-131794320D01*
X229049781Y-131639135D01*
X229047447Y-131525287D01*
X229047761Y-131517106D01*
X229251724Y-131517106D01*
X229252970Y-131647657D01*
X229258678Y-131734080D01*
X229271804Y-131790618D01*
X229295306Y-131831514D01*
X229323386Y-131862362D01*
X229417688Y-131921905D01*
X229518940Y-131926992D01*
X229614636Y-131877279D01*
X229622084Y-131870543D01*
X229653874Y-131835502D01*
X229673808Y-131793811D01*
X229684600Y-131731762D01*
X229688965Y-131635644D01*
X229689655Y-131529379D01*
X229688159Y-131395880D01*
X229681964Y-131306822D01*
X229668514Y-131248293D01*
X229645251Y-131206382D01*
X229626175Y-131184123D01*
X229537563Y-131127985D01*
X229435508Y-131121235D01*
X229338095Y-131164114D01*
X229319296Y-131180032D01*
X229287293Y-131215382D01*
X229267318Y-131257502D01*
X229256593Y-131320251D01*
X229252339Y-131417487D01*
X229251724Y-131517106D01*
X229047761Y-131517106D01*
X229054504Y-131341947D01*
X229078472Y-131204195D01*
X229123548Y-131100632D01*
X229193928Y-131019856D01*
X229248743Y-130978455D01*
X229348376Y-130933728D01*
X229463855Y-130912967D01*
X229571199Y-130918525D01*
X229631264Y-130940943D01*
X229654835Y-130947323D01*
X229670477Y-130923535D01*
X229681395Y-130859788D01*
X229689655Y-130762687D01*
X229698699Y-130654541D01*
X229711261Y-130589475D01*
X229734119Y-130552268D01*
X229774051Y-130527699D01*
X229799138Y-130516819D01*
X229894023Y-130477072D01*
X229893914Y-131154455D01*
G37*
X223815552Y-130884676D02*
X223930658Y-130962111D01*
X224019611Y-131073949D01*
X224072749Y-131216265D01*
X224083497Y-131321015D01*
X224082276Y-131364726D01*
X224072056Y-131398194D01*
X224043961Y-131428179D01*
X223989116Y-131461440D01*
X223898645Y-131504738D01*
X223763672Y-131564833D01*
X223762989Y-131565134D01*
X223638751Y-131622037D01*
X223536873Y-131672565D01*
X223467767Y-131711280D01*
X223441846Y-131732740D01*
X223441839Y-131732913D01*
X223464685Y-131779644D01*
X223518109Y-131831154D01*
X223579442Y-131868261D01*
X223610515Y-131875632D01*
X223695289Y-131850138D01*
X223768293Y-131786291D01*
X223803913Y-131716094D01*
X223838180Y-131664343D01*
X223905303Y-131605409D01*
X223984208Y-131554496D01*
X224053821Y-131526809D01*
X224068377Y-131525287D01*
X224084763Y-131550321D01*
X224085750Y-131614311D01*
X224073708Y-131700593D01*
X224051007Y-131792501D01*
X224020014Y-131873369D01*
X224018448Y-131876509D01*
X223925181Y-132006734D01*
X223804304Y-132095311D01*
X223667027Y-132138786D01*
X223524560Y-132133706D01*
X223388112Y-132076616D01*
X223382045Y-132072602D01*
X223274710Y-131975326D01*
X223204132Y-131848409D01*
X223165074Y-131681526D01*
X223159832Y-131634639D01*
X223150548Y-131413329D01*
X223161678Y-131310124D01*
X223441839Y-131310124D01*
X223445479Y-131374503D01*
X223465389Y-131393291D01*
X223515026Y-131379235D01*
X223593267Y-131346009D01*
X223680726Y-131304359D01*
X223682899Y-131303256D01*
X223757030Y-131264265D01*
X223786781Y-131238244D01*
X223779445Y-131210965D01*
X223748553Y-131175121D01*
X223669960Y-131123251D01*
X223585323Y-131119439D01*
X223509403Y-131157189D01*
X223456965Y-131230001D01*
X223441839Y-131310124D01*
X223161678Y-131310124D01*
X223169644Y-131236261D01*
X223218634Y-131095829D01*
X223286836Y-130997447D01*
X223409935Y-130898030D01*
X223545528Y-130848711D01*
X223683955Y-130845568D01*
X223815552Y-130884676D01*
G36*
X223815552Y-130884676D02*
G01*
X223930658Y-130962111D01*
X224019611Y-131073949D01*
X224072749Y-131216265D01*
X224083497Y-131321015D01*
X224082276Y-131364726D01*
X224072056Y-131398194D01*
X224043961Y-131428179D01*
X223989116Y-131461440D01*
X223898645Y-131504738D01*
X223763672Y-131564833D01*
X223762989Y-131565134D01*
X223638751Y-131622037D01*
X223536873Y-131672565D01*
X223467767Y-131711280D01*
X223441846Y-131732740D01*
X223441839Y-131732913D01*
X223464685Y-131779644D01*
X223518109Y-131831154D01*
X223579442Y-131868261D01*
X223610515Y-131875632D01*
X223695289Y-131850138D01*
X223768293Y-131786291D01*
X223803913Y-131716094D01*
X223838180Y-131664343D01*
X223905303Y-131605409D01*
X223984208Y-131554496D01*
X224053821Y-131526809D01*
X224068377Y-131525287D01*
X224084763Y-131550321D01*
X224085750Y-131614311D01*
X224073708Y-131700593D01*
X224051007Y-131792501D01*
X224020014Y-131873369D01*
X224018448Y-131876509D01*
X223925181Y-132006734D01*
X223804304Y-132095311D01*
X223667027Y-132138786D01*
X223524560Y-132133706D01*
X223388112Y-132076616D01*
X223382045Y-132072602D01*
X223274710Y-131975326D01*
X223204132Y-131848409D01*
X223165074Y-131681526D01*
X223159832Y-131634639D01*
X223150548Y-131413329D01*
X223161678Y-131310124D01*
X223441839Y-131310124D01*
X223445479Y-131374503D01*
X223465389Y-131393291D01*
X223515026Y-131379235D01*
X223593267Y-131346009D01*
X223680726Y-131304359D01*
X223682899Y-131303256D01*
X223757030Y-131264265D01*
X223786781Y-131238244D01*
X223779445Y-131210965D01*
X223748553Y-131175121D01*
X223669960Y-131123251D01*
X223585323Y-131119439D01*
X223509403Y-131157189D01*
X223456965Y-131230001D01*
X223441839Y-131310124D01*
X223161678Y-131310124D01*
X223169644Y-131236261D01*
X223218634Y-131095829D01*
X223286836Y-130997447D01*
X223409935Y-130898030D01*
X223545528Y-130848711D01*
X223683955Y-130845568D01*
X223815552Y-130884676D01*
G37*
X227579944Y-130924360D02*
X227694343Y-130966842D01*
X227695652Y-130967658D01*
X227766403Y-131019730D01*
X227818636Y-131080584D01*
X227855371Y-131159887D01*
X227879634Y-131267309D01*
X227894445Y-131412517D01*
X227902829Y-131605179D01*
X227903564Y-131632628D01*
X227914120Y-132046521D01*
X227825291Y-132092456D01*
X227761018Y-132123498D01*
X227722210Y-132138206D01*
X227720415Y-132138391D01*
X227713700Y-132111250D01*
X227708365Y-132038041D01*
X227705083Y-131931081D01*
X227704368Y-131844469D01*
X227704351Y-131704162D01*
X227697937Y-131616051D01*
X227675580Y-131574025D01*
X227627732Y-131571975D01*
X227544849Y-131603790D01*
X227419713Y-131662272D01*
X227327697Y-131710845D01*
X227280371Y-131752986D01*
X227266458Y-131798916D01*
X227266437Y-131801189D01*
X227289395Y-131880311D01*
X227357370Y-131923055D01*
X227461398Y-131929246D01*
X227536330Y-131928172D01*
X227575839Y-131949753D01*
X227600478Y-132001591D01*
X227614659Y-132067632D01*
X227594223Y-132105104D01*
X227586528Y-132110467D01*
X227514083Y-132132006D01*
X227412633Y-132135055D01*
X227308157Y-132120778D01*
X227234125Y-132094688D01*
X227131772Y-132007785D01*
X227073591Y-131886816D01*
X227062069Y-131792308D01*
X227070862Y-131707062D01*
X227102680Y-131637476D01*
X227165684Y-131575672D01*
X227268031Y-131513772D01*
X227417882Y-131443897D01*
X227427012Y-131439948D01*
X227561997Y-131377588D01*
X227645294Y-131326446D01*
X227680997Y-131280488D01*
X227673203Y-131233683D01*
X227626007Y-131179998D01*
X227611894Y-131167644D01*
X227517359Y-131119741D01*
X227419406Y-131121758D01*
X227334097Y-131168724D01*
X227277496Y-131255669D01*
X227272237Y-131272734D01*
X227221023Y-131355504D01*
X227156037Y-131395372D01*
X227062069Y-131434882D01*
X227062069Y-131332658D01*
X227090653Y-131184072D01*
X227175495Y-131047784D01*
X227219645Y-131002191D01*
X227320005Y-130943674D01*
X227447635Y-130917184D01*
X227579944Y-130924360D01*
G36*
X227579944Y-130924360D02*
G01*
X227694343Y-130966842D01*
X227695652Y-130967658D01*
X227766403Y-131019730D01*
X227818636Y-131080584D01*
X227855371Y-131159887D01*
X227879634Y-131267309D01*
X227894445Y-131412517D01*
X227902829Y-131605179D01*
X227903564Y-131632628D01*
X227914120Y-132046521D01*
X227825291Y-132092456D01*
X227761018Y-132123498D01*
X227722210Y-132138206D01*
X227720415Y-132138391D01*
X227713700Y-132111250D01*
X227708365Y-132038041D01*
X227705083Y-131931081D01*
X227704368Y-131844469D01*
X227704351Y-131704162D01*
X227697937Y-131616051D01*
X227675580Y-131574025D01*
X227627732Y-131571975D01*
X227544849Y-131603790D01*
X227419713Y-131662272D01*
X227327697Y-131710845D01*
X227280371Y-131752986D01*
X227266458Y-131798916D01*
X227266437Y-131801189D01*
X227289395Y-131880311D01*
X227357370Y-131923055D01*
X227461398Y-131929246D01*
X227536330Y-131928172D01*
X227575839Y-131949753D01*
X227600478Y-132001591D01*
X227614659Y-132067632D01*
X227594223Y-132105104D01*
X227586528Y-132110467D01*
X227514083Y-132132006D01*
X227412633Y-132135055D01*
X227308157Y-132120778D01*
X227234125Y-132094688D01*
X227131772Y-132007785D01*
X227073591Y-131886816D01*
X227062069Y-131792308D01*
X227070862Y-131707062D01*
X227102680Y-131637476D01*
X227165684Y-131575672D01*
X227268031Y-131513772D01*
X227417882Y-131443897D01*
X227427012Y-131439948D01*
X227561997Y-131377588D01*
X227645294Y-131326446D01*
X227680997Y-131280488D01*
X227673203Y-131233683D01*
X227626007Y-131179998D01*
X227611894Y-131167644D01*
X227517359Y-131119741D01*
X227419406Y-131121758D01*
X227334097Y-131168724D01*
X227277496Y-131255669D01*
X227272237Y-131272734D01*
X227221023Y-131355504D01*
X227156037Y-131395372D01*
X227062069Y-131434882D01*
X227062069Y-131332658D01*
X227090653Y-131184072D01*
X227175495Y-131047784D01*
X227219645Y-131002191D01*
X227320005Y-130943674D01*
X227447635Y-130917184D01*
X227579944Y-130924360D01*
G37*
X222671900Y-130861903D02*
X222783450Y-130917522D01*
X222881908Y-131019931D01*
X222909023Y-131057864D01*
X222938562Y-131107500D01*
X222957728Y-131161412D01*
X222968693Y-131233364D01*
X222973629Y-131337122D01*
X222974713Y-131474101D01*
X222969818Y-131661815D01*
X222952804Y-131802758D01*
X222920177Y-131907908D01*
X222868442Y-131988243D01*
X222794104Y-132054741D01*
X222788642Y-132058678D01*
X222715380Y-132098953D01*
X222627160Y-132118880D01*
X222514962Y-132123793D01*
X222332567Y-132123793D01*
X222332491Y-132300857D01*
X222330793Y-132399470D01*
X222320450Y-132457314D01*
X222293422Y-132492006D01*
X222241668Y-132521164D01*
X222229239Y-132527121D01*
X222171077Y-132555039D01*
X222126044Y-132572672D01*
X222092559Y-132574194D01*
X222069038Y-132553781D01*
X222053900Y-132505607D01*
X222045563Y-132423846D01*
X222042444Y-132302672D01*
X222042960Y-132136260D01*
X222045529Y-131918785D01*
X222046332Y-131853736D01*
X222049222Y-131629502D01*
X222051812Y-131482821D01*
X222332414Y-131482821D01*
X222333991Y-131607326D01*
X222341000Y-131688787D01*
X222356858Y-131742515D01*
X222384981Y-131783823D01*
X222404075Y-131803971D01*
X222482135Y-131862921D01*
X222551247Y-131867720D01*
X222622560Y-131819038D01*
X222624368Y-131817241D01*
X222653383Y-131779618D01*
X222671033Y-131728484D01*
X222679936Y-131649738D01*
X222682709Y-131529276D01*
X222682759Y-131502588D01*
X222676058Y-131336583D01*
X222654248Y-131221505D01*
X222614765Y-131151254D01*
X222555044Y-131119729D01*
X222520528Y-131116552D01*
X222438611Y-131131460D01*
X222382421Y-131180548D01*
X222348598Y-131270362D01*
X222333780Y-131407445D01*
X222332414Y-131482821D01*
X222051812Y-131482821D01*
X222052287Y-131455952D01*
X222056247Y-131325382D01*
X222061826Y-131230087D01*
X222069746Y-131162364D01*
X222080731Y-131114507D01*
X222095501Y-131078813D01*
X222114782Y-131047578D01*
X222123049Y-131035824D01*
X222232712Y-130924797D01*
X222371365Y-130861847D01*
X222531754Y-130844297D01*
X222671900Y-130861903D01*
G36*
X222671900Y-130861903D02*
G01*
X222783450Y-130917522D01*
X222881908Y-131019931D01*
X222909023Y-131057864D01*
X222938562Y-131107500D01*
X222957728Y-131161412D01*
X222968693Y-131233364D01*
X222973629Y-131337122D01*
X222974713Y-131474101D01*
X222969818Y-131661815D01*
X222952804Y-131802758D01*
X222920177Y-131907908D01*
X222868442Y-131988243D01*
X222794104Y-132054741D01*
X222788642Y-132058678D01*
X222715380Y-132098953D01*
X222627160Y-132118880D01*
X222514962Y-132123793D01*
X222332567Y-132123793D01*
X222332491Y-132300857D01*
X222330793Y-132399470D01*
X222320450Y-132457314D01*
X222293422Y-132492006D01*
X222241668Y-132521164D01*
X222229239Y-132527121D01*
X222171077Y-132555039D01*
X222126044Y-132572672D01*
X222092559Y-132574194D01*
X222069038Y-132553781D01*
X222053900Y-132505607D01*
X222045563Y-132423846D01*
X222042444Y-132302672D01*
X222042960Y-132136260D01*
X222045529Y-131918785D01*
X222046332Y-131853736D01*
X222049222Y-131629502D01*
X222051812Y-131482821D01*
X222332414Y-131482821D01*
X222333991Y-131607326D01*
X222341000Y-131688787D01*
X222356858Y-131742515D01*
X222384981Y-131783823D01*
X222404075Y-131803971D01*
X222482135Y-131862921D01*
X222551247Y-131867720D01*
X222622560Y-131819038D01*
X222624368Y-131817241D01*
X222653383Y-131779618D01*
X222671033Y-131728484D01*
X222679936Y-131649738D01*
X222682709Y-131529276D01*
X222682759Y-131502588D01*
X222676058Y-131336583D01*
X222654248Y-131221505D01*
X222614765Y-131151254D01*
X222555044Y-131119729D01*
X222520528Y-131116552D01*
X222438611Y-131131460D01*
X222382421Y-131180548D01*
X222348598Y-131270362D01*
X222333780Y-131407445D01*
X222332414Y-131482821D01*
X222051812Y-131482821D01*
X222052287Y-131455952D01*
X222056247Y-131325382D01*
X222061826Y-131230087D01*
X222069746Y-131162364D01*
X222080731Y-131114507D01*
X222095501Y-131078813D01*
X222114782Y-131047578D01*
X222123049Y-131035824D01*
X222232712Y-130924797D01*
X222371365Y-130861847D01*
X222531754Y-130844297D01*
X222671900Y-130861903D01*
G37*
X231814406Y-130935156D02*
X231898469Y-130973393D01*
X231964450Y-131019726D01*
X232012794Y-131071532D01*
X232046172Y-131138363D01*
X232067253Y-131229769D01*
X232078707Y-131355301D01*
X232083203Y-131524508D01*
X232083678Y-131635933D01*
X232083678Y-132070627D01*
X232009316Y-132104509D01*
X231950746Y-132129272D01*
X231921730Y-132138391D01*
X231916179Y-132111257D01*
X231911775Y-132038094D01*
X231909078Y-131931263D01*
X231908506Y-131846437D01*
X231906046Y-131723887D01*
X231899412Y-131626668D01*
X231889726Y-131567134D01*
X231882032Y-131554483D01*
X231830311Y-131567402D01*
X231749117Y-131600539D01*
X231655102Y-131645461D01*
X231564917Y-131693735D01*
X231495215Y-131736928D01*
X231462648Y-131766608D01*
X231462519Y-131766929D01*
X231465320Y-131821857D01*
X231490439Y-131874292D01*
X231534541Y-131916881D01*
X231598909Y-131931126D01*
X231653921Y-131929466D01*
X231731835Y-131928245D01*
X231772732Y-131946498D01*
X231797295Y-131994726D01*
X231800392Y-132003820D01*
X231811040Y-132072598D01*
X231782565Y-132114360D01*
X231708344Y-132134263D01*
X231628168Y-132137944D01*
X231483890Y-132110658D01*
X231409203Y-132071690D01*
X231316963Y-131980148D01*
X231268043Y-131867782D01*
X231263654Y-131749051D01*
X231305001Y-131638411D01*
X231367197Y-131569080D01*
X231429294Y-131530265D01*
X231526895Y-131481125D01*
X231640632Y-131431292D01*
X231659590Y-131423677D01*
X231784521Y-131368545D01*
X231856539Y-131319954D01*
X231879700Y-131271647D01*
X231858064Y-131217370D01*
X231820920Y-131174943D01*
X231733127Y-131122702D01*
X231636530Y-131118784D01*
X231547944Y-131159041D01*
X231484186Y-131239326D01*
X231475817Y-131260040D01*
X231427096Y-131336225D01*
X231355965Y-131392785D01*
X231266207Y-131439201D01*
X231266207Y-131307584D01*
X231271490Y-131227168D01*
X231294142Y-131163786D01*
X231344367Y-131096163D01*
X231392582Y-131044076D01*
X231467554Y-130970322D01*
X231525806Y-130930702D01*
X231588372Y-130914810D01*
X231659193Y-130912184D01*
X231814406Y-130935156D01*
G36*
X231814406Y-130935156D02*
G01*
X231898469Y-130973393D01*
X231964450Y-131019726D01*
X232012794Y-131071532D01*
X232046172Y-131138363D01*
X232067253Y-131229769D01*
X232078707Y-131355301D01*
X232083203Y-131524508D01*
X232083678Y-131635933D01*
X232083678Y-132070627D01*
X232009316Y-132104509D01*
X231950746Y-132129272D01*
X231921730Y-132138391D01*
X231916179Y-132111257D01*
X231911775Y-132038094D01*
X231909078Y-131931263D01*
X231908506Y-131846437D01*
X231906046Y-131723887D01*
X231899412Y-131626668D01*
X231889726Y-131567134D01*
X231882032Y-131554483D01*
X231830311Y-131567402D01*
X231749117Y-131600539D01*
X231655102Y-131645461D01*
X231564917Y-131693735D01*
X231495215Y-131736928D01*
X231462648Y-131766608D01*
X231462519Y-131766929D01*
X231465320Y-131821857D01*
X231490439Y-131874292D01*
X231534541Y-131916881D01*
X231598909Y-131931126D01*
X231653921Y-131929466D01*
X231731835Y-131928245D01*
X231772732Y-131946498D01*
X231797295Y-131994726D01*
X231800392Y-132003820D01*
X231811040Y-132072598D01*
X231782565Y-132114360D01*
X231708344Y-132134263D01*
X231628168Y-132137944D01*
X231483890Y-132110658D01*
X231409203Y-132071690D01*
X231316963Y-131980148D01*
X231268043Y-131867782D01*
X231263654Y-131749051D01*
X231305001Y-131638411D01*
X231367197Y-131569080D01*
X231429294Y-131530265D01*
X231526895Y-131481125D01*
X231640632Y-131431292D01*
X231659590Y-131423677D01*
X231784521Y-131368545D01*
X231856539Y-131319954D01*
X231879700Y-131271647D01*
X231858064Y-131217370D01*
X231820920Y-131174943D01*
X231733127Y-131122702D01*
X231636530Y-131118784D01*
X231547944Y-131159041D01*
X231484186Y-131239326D01*
X231475817Y-131260040D01*
X231427096Y-131336225D01*
X231355965Y-131392785D01*
X231266207Y-131439201D01*
X231266207Y-131307584D01*
X231271490Y-131227168D01*
X231294142Y-131163786D01*
X231344367Y-131096163D01*
X231392582Y-131044076D01*
X231467554Y-130970322D01*
X231525806Y-130930702D01*
X231588372Y-130914810D01*
X231659193Y-130912184D01*
X231814406Y-130935156D01*
G37*
X227709014Y-121452998D02*
X227867006Y-121453863D01*
X227981347Y-121456205D01*
X228059407Y-121460762D01*
X228108554Y-121468270D01*
X228136159Y-121479466D01*
X228149592Y-121495088D01*
X228156221Y-121515873D01*
X228156865Y-121518563D01*
X228166935Y-121567113D01*
X228185575Y-121662905D01*
X228210845Y-121795743D01*
X228240807Y-121955431D01*
X228273522Y-122131774D01*
X228274664Y-122137967D01*
X228307433Y-122310782D01*
X228338093Y-122463469D01*
X228364664Y-122586871D01*
X228385167Y-122671831D01*
X228397626Y-122709190D01*
X228398220Y-122709852D01*
X228434919Y-122728095D01*
X228510586Y-122758497D01*
X228608878Y-122794493D01*
X228609425Y-122794685D01*
X228733233Y-122841222D01*
X228879196Y-122900504D01*
X229016781Y-122960109D01*
X229023293Y-122963056D01*
X229247390Y-123064765D01*
X229743619Y-122725897D01*
X229895846Y-122622592D01*
X230033741Y-122530237D01*
X230149315Y-122454084D01*
X230234579Y-122399385D01*
X230281544Y-122371393D01*
X230286004Y-122369317D01*
X230320134Y-122378560D01*
X230383881Y-122423156D01*
X230479731Y-122505209D01*
X230610169Y-122626821D01*
X230743328Y-122756205D01*
X230871694Y-122883702D01*
X230986581Y-123000046D01*
X231081073Y-123098052D01*
X231148253Y-123170536D01*
X231181206Y-123210313D01*
X231182432Y-123212361D01*
X231186074Y-123239656D01*
X231172350Y-123284234D01*
X231137869Y-123352112D01*
X231079239Y-123449311D01*
X230993070Y-123581851D01*
X230878200Y-123752476D01*
X230776254Y-123902655D01*
X230685123Y-124037350D01*
X230610073Y-124148740D01*
X230556369Y-124229005D01*
X230529280Y-124270325D01*
X230527574Y-124273130D01*
X230530882Y-124312721D01*
X230555953Y-124389669D01*
X230597798Y-124489432D01*
X230612712Y-124521291D01*
X230677786Y-124663226D01*
X230747212Y-124824273D01*
X230803609Y-124963621D01*
X230844247Y-125067044D01*
X230876526Y-125145642D01*
X230895178Y-125186720D01*
X230897497Y-125189885D01*
X230931803Y-125195128D01*
X231012669Y-125209494D01*
X231129343Y-125230937D01*
X231271075Y-125257413D01*
X231427110Y-125286877D01*
X231586698Y-125317283D01*
X231739085Y-125346588D01*
X231873521Y-125372745D01*
X231979252Y-125393710D01*
X232045526Y-125407439D01*
X232061782Y-125411320D01*
X232078573Y-125420900D01*
X232091249Y-125442536D01*
X232100378Y-125483531D01*
X232106531Y-125551189D01*
X232110280Y-125652812D01*
X232112192Y-125795703D01*
X232112840Y-125987165D01*
X232112874Y-126065645D01*
X232112874Y-126703906D01*
X231959598Y-126734160D01*
X231874322Y-126750564D01*
X231747070Y-126774509D01*
X231593315Y-126803107D01*
X231428534Y-126833467D01*
X231382989Y-126841806D01*
X231230932Y-126871370D01*
X231098468Y-126900442D01*
X230996714Y-126926329D01*
X230936788Y-126946337D01*
X230926805Y-126952301D01*
X230902293Y-126994534D01*
X230867148Y-127076370D01*
X230828173Y-127181683D01*
X230820442Y-127204368D01*
X230769360Y-127345018D01*
X230705954Y-127503714D01*
X230643904Y-127646225D01*
X230643598Y-127646886D01*
X230540267Y-127870440D01*
X231219961Y-128870232D01*
X230783621Y-129307300D01*
X230651649Y-129437381D01*
X230531279Y-129552048D01*
X230429273Y-129645181D01*
X230352391Y-129710658D01*
X230307393Y-129742357D01*
X230300938Y-129744368D01*
X230263040Y-129728529D01*
X230185708Y-129684496D01*
X230077389Y-129617490D01*
X229946532Y-129532734D01*
X229805052Y-129437816D01*
X229661461Y-129340998D01*
X229533435Y-129256751D01*
X229429105Y-129190258D01*
X229356600Y-129146702D01*
X229324158Y-129131264D01*
X229284576Y-129144328D01*
X229209519Y-129178750D01*
X229114468Y-129227380D01*
X229104392Y-129232785D01*
X228976391Y-129296980D01*
X228888618Y-129328463D01*
X228834028Y-129328798D01*
X228805575Y-129299548D01*
X228805410Y-129299138D01*
X228791188Y-129264498D01*
X228757269Y-129182269D01*
X228706284Y-129058814D01*
X228640862Y-128900498D01*
X228563634Y-128713686D01*
X228477229Y-128504742D01*
X228393551Y-128302446D01*
X228301588Y-128079200D01*
X228217150Y-127872392D01*
X228142769Y-127688362D01*
X228080974Y-127533451D01*
X228034297Y-127413996D01*
X228005268Y-127336339D01*
X227996322Y-127307356D01*
X228018756Y-127274110D01*
X228077439Y-127221123D01*
X228155689Y-127162704D01*
X228378534Y-126977952D01*
X228552718Y-126766182D01*
X228676154Y-126531856D01*
X228746754Y-126279434D01*
X228762431Y-126013377D01*
X228751036Y-125890575D01*
X228688950Y-125635793D01*
X228582023Y-125410801D01*
X228436889Y-125217817D01*
X228260178Y-125059061D01*
X228058522Y-124936750D01*
X227838554Y-124853105D01*
X227606906Y-124810344D01*
X227370209Y-124810687D01*
X227135095Y-124856352D01*
X226908196Y-124949559D01*
X226696144Y-125092527D01*
X226607636Y-125173383D01*
X226437889Y-125381007D01*
X226319699Y-125607895D01*
X226252278Y-125847433D01*
X226234840Y-126093007D01*
X226266598Y-126338003D01*
X226346765Y-126575808D01*
X226474555Y-126799807D01*
X226649180Y-127003387D01*
X226844312Y-127162704D01*
X226925591Y-127223602D01*
X226983009Y-127276015D01*
X227003678Y-127307406D01*
X226992856Y-127341639D01*
X226962077Y-127423419D01*
X226913874Y-127546407D01*
X226850778Y-127704263D01*
X226775322Y-127890649D01*
X226690038Y-128099226D01*
X226606219Y-128302496D01*
X226513745Y-128525933D01*
X226428089Y-128732984D01*
X226351882Y-128917286D01*
X226287753Y-129072475D01*
X226238332Y-129192188D01*
X226206248Y-129270061D01*
X226194359Y-129299138D01*
X226166274Y-129328677D01*
X226111949Y-129328591D01*
X226024395Y-129297326D01*
X225896619Y-129233329D01*
X225895608Y-129232785D01*
X225799402Y-129183121D01*
X225721631Y-129146945D01*
X225677777Y-129131408D01*
X225675842Y-129131264D01*
X225642829Y-129147024D01*
X225569946Y-129190850D01*
X225465322Y-129257557D01*
X225337090Y-129341964D01*
X225194948Y-129437816D01*
X225050233Y-129534867D01*
X224919804Y-129619270D01*
X224812110Y-129685801D01*
X224735598Y-129729238D01*
X224699062Y-129744368D01*
X224665418Y-129724482D01*
X224597776Y-129668903D01*
X224502893Y-129583754D01*
X224387530Y-129475153D01*
X224258445Y-129349221D01*
X224216229Y-129307149D01*
X223779739Y-128869931D01*
X224111977Y-128382340D01*
X224212946Y-128232605D01*
X224301562Y-128098220D01*
X224372854Y-127986969D01*
X224421850Y-127906639D01*
X224443578Y-127865014D01*
X224444215Y-127862053D01*
X224432760Y-127822818D01*
X224401949Y-127743895D01*
X224357116Y-127638509D01*
X224325647Y-127567954D01*
X224266808Y-127432876D01*
X224211396Y-127296409D01*
X224168436Y-127181103D01*
X224156766Y-127145977D01*
X224123611Y-127052174D01*
X224091201Y-126979694D01*
X224073399Y-126952301D01*
X224034114Y-126935536D01*
X223948374Y-126911770D01*
X223827303Y-126883697D01*
X223682027Y-126854009D01*
X223617012Y-126841806D01*
X223451913Y-126811468D01*
X223293552Y-126782093D01*
X223157404Y-126756569D01*
X223058943Y-126737785D01*
X223040402Y-126734160D01*
X222887127Y-126703906D01*
X222887127Y-126065645D01*
X222887471Y-125855770D01*
X222888884Y-125696980D01*
X222891936Y-125581973D01*
X222897197Y-125503446D01*
X222905237Y-125454096D01*
X222916627Y-125426619D01*
X222931937Y-125413713D01*
X222938218Y-125411320D01*
X222976104Y-125402833D01*
X223059805Y-125385900D01*
X223178567Y-125362566D01*
X223321639Y-125334875D01*
X223478268Y-125304873D01*
X223637703Y-125274604D01*
X223789191Y-125246115D01*
X223921981Y-125221449D01*
X224025319Y-125202651D01*
X224088455Y-125191767D01*
X224102503Y-125189885D01*
X224115230Y-125164704D01*
X224143400Y-125097622D01*
X224181748Y-125001333D01*
X224196391Y-124963621D01*
X224255452Y-124817921D01*
X224325000Y-124656951D01*
X224387288Y-124521291D01*
X224433121Y-124417561D01*
X224463613Y-124332326D01*
X224473792Y-124280126D01*
X224472169Y-124273130D01*
X224450657Y-124240102D01*
X224401535Y-124166643D01*
X224330077Y-124060577D01*
X224241555Y-123929726D01*
X224141241Y-123781912D01*
X224121406Y-123752734D01*
X224005012Y-123579863D01*
X223919452Y-123448226D01*
X223861316Y-123351761D01*
X223827192Y-123284408D01*
X223813669Y-123240106D01*
X223817336Y-123212794D01*
X223817430Y-123212620D01*
X223846293Y-123176746D01*
X223910133Y-123107391D01*
X224002031Y-123011745D01*
X224115067Y-122896999D01*
X224242321Y-122770341D01*
X224256672Y-122756205D01*
X224417043Y-122600903D01*
X224540805Y-122486870D01*
X224630445Y-122412002D01*
X224688448Y-122374196D01*
X224713996Y-122369317D01*
X224751282Y-122390603D01*
X224828657Y-122439773D01*
X224938133Y-122511575D01*
X225071720Y-122600755D01*
X225221430Y-122702063D01*
X225256382Y-122725897D01*
X225752610Y-123064765D01*
X225976707Y-122963056D01*
X226112989Y-122903783D01*
X226259276Y-122844170D01*
X226385035Y-122796640D01*
X226390575Y-122794685D01*
X226488943Y-122758677D01*
X226564771Y-122728229D01*
X226601718Y-122709905D01*
X226601780Y-122709852D01*
X226613504Y-122676729D01*
X226633432Y-122595267D01*
X226659587Y-122474625D01*
X226689990Y-122323959D01*
X226722663Y-122152428D01*
X226725336Y-122137967D01*
X226758110Y-121961235D01*
X226788198Y-121800810D01*
X226813661Y-121666888D01*
X226832559Y-121569663D01*
X226842953Y-121519332D01*
X226843135Y-121518563D01*
X226849461Y-121497153D01*
X226861761Y-121480988D01*
X226887406Y-121469331D01*
X226933765Y-121461445D01*
X227008208Y-121456593D01*
X227118105Y-121454039D01*
X227270825Y-121453045D01*
X227473738Y-121452874D01*
X227500000Y-121452874D01*
X227709014Y-121452998D01*
G36*
X227709014Y-121452998D02*
G01*
X227867006Y-121453863D01*
X227981347Y-121456205D01*
X228059407Y-121460762D01*
X228108554Y-121468270D01*
X228136159Y-121479466D01*
X228149592Y-121495088D01*
X228156221Y-121515873D01*
X228156865Y-121518563D01*
X228166935Y-121567113D01*
X228185575Y-121662905D01*
X228210845Y-121795743D01*
X228240807Y-121955431D01*
X228273522Y-122131774D01*
X228274664Y-122137967D01*
X228307433Y-122310782D01*
X228338093Y-122463469D01*
X228364664Y-122586871D01*
X228385167Y-122671831D01*
X228397626Y-122709190D01*
X228398220Y-122709852D01*
X228434919Y-122728095D01*
X228510586Y-122758497D01*
X228608878Y-122794493D01*
X228609425Y-122794685D01*
X228733233Y-122841222D01*
X228879196Y-122900504D01*
X229016781Y-122960109D01*
X229023293Y-122963056D01*
X229247390Y-123064765D01*
X229743619Y-122725897D01*
X229895846Y-122622592D01*
X230033741Y-122530237D01*
X230149315Y-122454084D01*
X230234579Y-122399385D01*
X230281544Y-122371393D01*
X230286004Y-122369317D01*
X230320134Y-122378560D01*
X230383881Y-122423156D01*
X230479731Y-122505209D01*
X230610169Y-122626821D01*
X230743328Y-122756205D01*
X230871694Y-122883702D01*
X230986581Y-123000046D01*
X231081073Y-123098052D01*
X231148253Y-123170536D01*
X231181206Y-123210313D01*
X231182432Y-123212361D01*
X231186074Y-123239656D01*
X231172350Y-123284234D01*
X231137869Y-123352112D01*
X231079239Y-123449311D01*
X230993070Y-123581851D01*
X230878200Y-123752476D01*
X230776254Y-123902655D01*
X230685123Y-124037350D01*
X230610073Y-124148740D01*
X230556369Y-124229005D01*
X230529280Y-124270325D01*
X230527574Y-124273130D01*
X230530882Y-124312721D01*
X230555953Y-124389669D01*
X230597798Y-124489432D01*
X230612712Y-124521291D01*
X230677786Y-124663226D01*
X230747212Y-124824273D01*
X230803609Y-124963621D01*
X230844247Y-125067044D01*
X230876526Y-125145642D01*
X230895178Y-125186720D01*
X230897497Y-125189885D01*
X230931803Y-125195128D01*
X231012669Y-125209494D01*
X231129343Y-125230937D01*
X231271075Y-125257413D01*
X231427110Y-125286877D01*
X231586698Y-125317283D01*
X231739085Y-125346588D01*
X231873521Y-125372745D01*
X231979252Y-125393710D01*
X232045526Y-125407439D01*
X232061782Y-125411320D01*
X232078573Y-125420900D01*
X232091249Y-125442536D01*
X232100378Y-125483531D01*
X232106531Y-125551189D01*
X232110280Y-125652812D01*
X232112192Y-125795703D01*
X232112840Y-125987165D01*
X232112874Y-126065645D01*
X232112874Y-126703906D01*
X231959598Y-126734160D01*
X231874322Y-126750564D01*
X231747070Y-126774509D01*
X231593315Y-126803107D01*
X231428534Y-126833467D01*
X231382989Y-126841806D01*
X231230932Y-126871370D01*
X231098468Y-126900442D01*
X230996714Y-126926329D01*
X230936788Y-126946337D01*
X230926805Y-126952301D01*
X230902293Y-126994534D01*
X230867148Y-127076370D01*
X230828173Y-127181683D01*
X230820442Y-127204368D01*
X230769360Y-127345018D01*
X230705954Y-127503714D01*
X230643904Y-127646225D01*
X230643598Y-127646886D01*
X230540267Y-127870440D01*
X231219961Y-128870232D01*
X230783621Y-129307300D01*
X230651649Y-129437381D01*
X230531279Y-129552048D01*
X230429273Y-129645181D01*
X230352391Y-129710658D01*
X230307393Y-129742357D01*
X230300938Y-129744368D01*
X230263040Y-129728529D01*
X230185708Y-129684496D01*
X230077389Y-129617490D01*
X229946532Y-129532734D01*
X229805052Y-129437816D01*
X229661461Y-129340998D01*
X229533435Y-129256751D01*
X229429105Y-129190258D01*
X229356600Y-129146702D01*
X229324158Y-129131264D01*
X229284576Y-129144328D01*
X229209519Y-129178750D01*
X229114468Y-129227380D01*
X229104392Y-129232785D01*
X228976391Y-129296980D01*
X228888618Y-129328463D01*
X228834028Y-129328798D01*
X228805575Y-129299548D01*
X228805410Y-129299138D01*
X228791188Y-129264498D01*
X228757269Y-129182269D01*
X228706284Y-129058814D01*
X228640862Y-128900498D01*
X228563634Y-128713686D01*
X228477229Y-128504742D01*
X228393551Y-128302446D01*
X228301588Y-128079200D01*
X228217150Y-127872392D01*
X228142769Y-127688362D01*
X228080974Y-127533451D01*
X228034297Y-127413996D01*
X228005268Y-127336339D01*
X227996322Y-127307356D01*
X228018756Y-127274110D01*
X228077439Y-127221123D01*
X228155689Y-127162704D01*
X228378534Y-126977952D01*
X228552718Y-126766182D01*
X228676154Y-126531856D01*
X228746754Y-126279434D01*
X228762431Y-126013377D01*
X228751036Y-125890575D01*
X228688950Y-125635793D01*
X228582023Y-125410801D01*
X228436889Y-125217817D01*
X228260178Y-125059061D01*
X228058522Y-124936750D01*
X227838554Y-124853105D01*
X227606906Y-124810344D01*
X227370209Y-124810687D01*
X227135095Y-124856352D01*
X226908196Y-124949559D01*
X226696144Y-125092527D01*
X226607636Y-125173383D01*
X226437889Y-125381007D01*
X226319699Y-125607895D01*
X226252278Y-125847433D01*
X226234840Y-126093007D01*
X226266598Y-126338003D01*
X226346765Y-126575808D01*
X226474555Y-126799807D01*
X226649180Y-127003387D01*
X226844312Y-127162704D01*
X226925591Y-127223602D01*
X226983009Y-127276015D01*
X227003678Y-127307406D01*
X226992856Y-127341639D01*
X226962077Y-127423419D01*
X226913874Y-127546407D01*
X226850778Y-127704263D01*
X226775322Y-127890649D01*
X226690038Y-128099226D01*
X226606219Y-128302496D01*
X226513745Y-128525933D01*
X226428089Y-128732984D01*
X226351882Y-128917286D01*
X226287753Y-129072475D01*
X226238332Y-129192188D01*
X226206248Y-129270061D01*
X226194359Y-129299138D01*
X226166274Y-129328677D01*
X226111949Y-129328591D01*
X226024395Y-129297326D01*
X225896619Y-129233329D01*
X225895608Y-129232785D01*
X225799402Y-129183121D01*
X225721631Y-129146945D01*
X225677777Y-129131408D01*
X225675842Y-129131264D01*
X225642829Y-129147024D01*
X225569946Y-129190850D01*
X225465322Y-129257557D01*
X225337090Y-129341964D01*
X225194948Y-129437816D01*
X225050233Y-129534867D01*
X224919804Y-129619270D01*
X224812110Y-129685801D01*
X224735598Y-129729238D01*
X224699062Y-129744368D01*
X224665418Y-129724482D01*
X224597776Y-129668903D01*
X224502893Y-129583754D01*
X224387530Y-129475153D01*
X224258445Y-129349221D01*
X224216229Y-129307149D01*
X223779739Y-128869931D01*
X224111977Y-128382340D01*
X224212946Y-128232605D01*
X224301562Y-128098220D01*
X224372854Y-127986969D01*
X224421850Y-127906639D01*
X224443578Y-127865014D01*
X224444215Y-127862053D01*
X224432760Y-127822818D01*
X224401949Y-127743895D01*
X224357116Y-127638509D01*
X224325647Y-127567954D01*
X224266808Y-127432876D01*
X224211396Y-127296409D01*
X224168436Y-127181103D01*
X224156766Y-127145977D01*
X224123611Y-127052174D01*
X224091201Y-126979694D01*
X224073399Y-126952301D01*
X224034114Y-126935536D01*
X223948374Y-126911770D01*
X223827303Y-126883697D01*
X223682027Y-126854009D01*
X223617012Y-126841806D01*
X223451913Y-126811468D01*
X223293552Y-126782093D01*
X223157404Y-126756569D01*
X223058943Y-126737785D01*
X223040402Y-126734160D01*
X222887127Y-126703906D01*
X222887127Y-126065645D01*
X222887471Y-125855770D01*
X222888884Y-125696980D01*
X222891936Y-125581973D01*
X222897197Y-125503446D01*
X222905237Y-125454096D01*
X222916627Y-125426619D01*
X222931937Y-125413713D01*
X222938218Y-125411320D01*
X222976104Y-125402833D01*
X223059805Y-125385900D01*
X223178567Y-125362566D01*
X223321639Y-125334875D01*
X223478268Y-125304873D01*
X223637703Y-125274604D01*
X223789191Y-125246115D01*
X223921981Y-125221449D01*
X224025319Y-125202651D01*
X224088455Y-125191767D01*
X224102503Y-125189885D01*
X224115230Y-125164704D01*
X224143400Y-125097622D01*
X224181748Y-125001333D01*
X224196391Y-124963621D01*
X224255452Y-124817921D01*
X224325000Y-124656951D01*
X224387288Y-124521291D01*
X224433121Y-124417561D01*
X224463613Y-124332326D01*
X224473792Y-124280126D01*
X224472169Y-124273130D01*
X224450657Y-124240102D01*
X224401535Y-124166643D01*
X224330077Y-124060577D01*
X224241555Y-123929726D01*
X224141241Y-123781912D01*
X224121406Y-123752734D01*
X224005012Y-123579863D01*
X223919452Y-123448226D01*
X223861316Y-123351761D01*
X223827192Y-123284408D01*
X223813669Y-123240106D01*
X223817336Y-123212794D01*
X223817430Y-123212620D01*
X223846293Y-123176746D01*
X223910133Y-123107391D01*
X224002031Y-123011745D01*
X224115067Y-122896999D01*
X224242321Y-122770341D01*
X224256672Y-122756205D01*
X224417043Y-122600903D01*
X224540805Y-122486870D01*
X224630445Y-122412002D01*
X224688448Y-122374196D01*
X224713996Y-122369317D01*
X224751282Y-122390603D01*
X224828657Y-122439773D01*
X224938133Y-122511575D01*
X225071720Y-122600755D01*
X225221430Y-122702063D01*
X225256382Y-122725897D01*
X225752610Y-123064765D01*
X225976707Y-122963056D01*
X226112989Y-122903783D01*
X226259276Y-122844170D01*
X226385035Y-122796640D01*
X226390575Y-122794685D01*
X226488943Y-122758677D01*
X226564771Y-122728229D01*
X226601718Y-122709905D01*
X226601780Y-122709852D01*
X226613504Y-122676729D01*
X226633432Y-122595267D01*
X226659587Y-122474625D01*
X226689990Y-122323959D01*
X226722663Y-122152428D01*
X226725336Y-122137967D01*
X226758110Y-121961235D01*
X226788198Y-121800810D01*
X226813661Y-121666888D01*
X226832559Y-121569663D01*
X226842953Y-121519332D01*
X226843135Y-121518563D01*
X226849461Y-121497153D01*
X226861761Y-121480988D01*
X226887406Y-121469331D01*
X226933765Y-121461445D01*
X227008208Y-121456593D01*
X227118105Y-121454039D01*
X227270825Y-121453045D01*
X227473738Y-121452874D01*
X227500000Y-121452874D01*
X227709014Y-121452998D01*
G37*
%TD*%
D11*
%TO.C,C1*%
X160215000Y-77213600D03*
X155215000Y-77213600D03*
%TD*%
D12*
%TO.C,U5*%
X180535000Y-115008800D03*
D13*
X183075000Y-115008800D03*
X185615000Y-115008800D03*
X188155000Y-115008800D03*
X190695000Y-115008800D03*
X193235000Y-115008800D03*
X195775000Y-115008800D03*
X198315000Y-115008800D03*
X200855000Y-115008800D03*
X203395000Y-115008800D03*
X203395000Y-107388800D03*
X200855000Y-107388800D03*
X198315000Y-107388800D03*
X195775000Y-107388800D03*
X193235000Y-107388800D03*
X190695000Y-107388800D03*
X188155000Y-107388800D03*
X185615000Y-107388800D03*
X183075000Y-107388800D03*
X180535000Y-107388800D03*
%TD*%
D12*
%TO.C,U2*%
X52260000Y-76908800D03*
D13*
X52260000Y-79448800D03*
X52260000Y-81988800D03*
X52260000Y-84528800D03*
X52260000Y-87068800D03*
X52260000Y-89608800D03*
X52260000Y-92148800D03*
X52260000Y-94688800D03*
X52260000Y-97228800D03*
X52260000Y-99768800D03*
X52260000Y-102308800D03*
X52260000Y-104848800D03*
X52260000Y-107388800D03*
X52260000Y-109928800D03*
X52260000Y-112468800D03*
X52260000Y-115008800D03*
X67500000Y-115008800D03*
X67500000Y-112468800D03*
X67500000Y-109928800D03*
X67500000Y-107388800D03*
X67500000Y-104848800D03*
X67500000Y-102308800D03*
X67500000Y-99768800D03*
X67500000Y-97228800D03*
X67500000Y-94688800D03*
X67500000Y-92148800D03*
X67500000Y-89608800D03*
X67500000Y-87068800D03*
X67500000Y-84528800D03*
X67500000Y-81988800D03*
X67500000Y-79448800D03*
X67500000Y-76908800D03*
%TD*%
D11*
%TO.C,C9*%
X175455000Y-97228800D03*
X175455000Y-102228800D03*
%TD*%
%TO.C,C11*%
X180535000Y-74375000D03*
X180535000Y-79375000D03*
%TD*%
%TO.C,C13*%
X175455000Y-108665000D03*
X175455000Y-113665000D03*
%TD*%
D12*
%TO.C,U12*%
X185615000Y-80718800D03*
D13*
X188155000Y-80718800D03*
X190695000Y-80718800D03*
X193235000Y-80718800D03*
X195775000Y-80718800D03*
X198315000Y-80718800D03*
X200855000Y-80718800D03*
X203395000Y-80718800D03*
X203395000Y-73098800D03*
X200855000Y-73098800D03*
X198315000Y-73098800D03*
X195775000Y-73098800D03*
X193235000Y-73098800D03*
X190695000Y-73098800D03*
X188155000Y-73098800D03*
X185615000Y-73098800D03*
%TD*%
D11*
%TO.C,C2*%
X212915000Y-85838800D03*
X212915000Y-90838800D03*
%TD*%
D12*
%TO.C,D1*%
X42800000Y-104410000D03*
D13*
X42800000Y-96790000D03*
%TD*%
D11*
%TO.C,C14*%
X212915000Y-74335000D03*
X212915000Y-79335000D03*
%TD*%
D12*
%TO.C,U11*%
X125290000Y-76908800D03*
D13*
X125290000Y-79448800D03*
X125290000Y-81988800D03*
X125290000Y-84528800D03*
X125290000Y-87068800D03*
X125290000Y-89608800D03*
X125290000Y-92148800D03*
X125290000Y-94688800D03*
X125290000Y-97228800D03*
X125290000Y-99768800D03*
X125290000Y-102308800D03*
X125290000Y-104848800D03*
X125290000Y-107388800D03*
X125290000Y-109928800D03*
X125290000Y-112468800D03*
X125290000Y-115008800D03*
X140530000Y-115008800D03*
X140530000Y-112468800D03*
X140530000Y-109928800D03*
X140530000Y-107388800D03*
X140530000Y-104848800D03*
X140530000Y-102308800D03*
X140530000Y-99768800D03*
X140530000Y-97228800D03*
X140530000Y-94688800D03*
X140530000Y-92148800D03*
X140530000Y-89608800D03*
X140530000Y-87068800D03*
X140530000Y-84528800D03*
X140530000Y-81988800D03*
X140530000Y-79448800D03*
X140530000Y-76908800D03*
%TD*%
D11*
%TO.C,C5*%
X86555000Y-71828800D03*
X81555000Y-71828800D03*
%TD*%
%TO.C,C12*%
X175455000Y-85765000D03*
X175455000Y-90765000D03*
%TD*%
%TO.C,C6*%
X62435800Y-71828800D03*
X57435800Y-71828800D03*
%TD*%
D12*
%TO.C,U1*%
X217995000Y-115008800D03*
D13*
X220535000Y-115008800D03*
X223075000Y-115008800D03*
X225615000Y-115008800D03*
X228155000Y-115008800D03*
X230695000Y-115008800D03*
X233235000Y-115008800D03*
X233235000Y-107388800D03*
X230695000Y-107388800D03*
X228155000Y-107388800D03*
X225615000Y-107388800D03*
X223075000Y-107388800D03*
X220535000Y-107388800D03*
X217995000Y-107388800D03*
%TD*%
D11*
%TO.C,C7*%
X110685000Y-71828800D03*
X105685000Y-71828800D03*
%TD*%
D12*
%TO.C,U8*%
X180540000Y-92148800D03*
D13*
X183080000Y-92148800D03*
X185620000Y-92148800D03*
X188160000Y-92148800D03*
X190700000Y-92148800D03*
X193240000Y-92148800D03*
X195780000Y-92148800D03*
X198320000Y-92148800D03*
X200860000Y-92148800D03*
X203400000Y-92148800D03*
X203400000Y-84528800D03*
X200860000Y-84528800D03*
X198320000Y-84528800D03*
X195780000Y-84528800D03*
X193240000Y-84528800D03*
X190700000Y-84528800D03*
X188160000Y-84528800D03*
X185620000Y-84528800D03*
X183080000Y-84528800D03*
X180540000Y-84528800D03*
%TD*%
D12*
%TO.C,U9*%
X76395000Y-76908800D03*
D13*
X76395000Y-79448800D03*
X76395000Y-81988800D03*
X76395000Y-84528800D03*
X76395000Y-87068800D03*
X76395000Y-89608800D03*
X76395000Y-92148800D03*
X76395000Y-94688800D03*
X76395000Y-97228800D03*
X76395000Y-99768800D03*
X76395000Y-102308800D03*
X76395000Y-104848800D03*
X76395000Y-107388800D03*
X76395000Y-109928800D03*
X76395000Y-112468800D03*
X76395000Y-115008800D03*
X91635000Y-115008800D03*
X91635000Y-112468800D03*
X91635000Y-109928800D03*
X91635000Y-107388800D03*
X91635000Y-104848800D03*
X91635000Y-102308800D03*
X91635000Y-99768800D03*
X91635000Y-97228800D03*
X91635000Y-94688800D03*
X91635000Y-92148800D03*
X91635000Y-89608800D03*
X91635000Y-87068800D03*
X91635000Y-84528800D03*
X91635000Y-81988800D03*
X91635000Y-79448800D03*
X91635000Y-76908800D03*
%TD*%
D12*
%TO.C,C3*%
X139500000Y-126743600D03*
D11*
X142000000Y-126743600D03*
%TD*%
%TO.C,C10*%
X212915000Y-97228800D03*
X212915000Y-102228800D03*
%TD*%
%TO.C,C4*%
X135450000Y-71828800D03*
X130450000Y-71828800D03*
%TD*%
D12*
%TO.C,U4*%
X150055000Y-81988800D03*
D13*
X150055000Y-84528800D03*
X150055000Y-87068800D03*
X150055000Y-89608800D03*
X150055000Y-92148800D03*
X150055000Y-94688800D03*
X150055000Y-97228800D03*
X150055000Y-99768800D03*
X150055000Y-102308800D03*
X150055000Y-104848800D03*
X150055000Y-107388800D03*
X150055000Y-109928800D03*
X150055000Y-112468800D03*
X150055000Y-115008800D03*
X165295000Y-115008800D03*
X165295000Y-112468800D03*
X165295000Y-109928800D03*
X165295000Y-107388800D03*
X165295000Y-104848800D03*
X165295000Y-102308800D03*
X165295000Y-99768800D03*
X165295000Y-97228800D03*
X165295000Y-94688800D03*
X165295000Y-92148800D03*
X165295000Y-89608800D03*
X165295000Y-87068800D03*
X165295000Y-84528800D03*
X165295000Y-81988800D03*
%TD*%
D12*
%TO.C,U13*%
X217995000Y-103588800D03*
D13*
X220535000Y-103588800D03*
X223075000Y-103588800D03*
X225615000Y-103588800D03*
X228155000Y-103588800D03*
X230695000Y-103588800D03*
X233235000Y-103588800D03*
X233235000Y-95968800D03*
X230695000Y-95968800D03*
X228155000Y-95968800D03*
X225615000Y-95968800D03*
X223075000Y-95968800D03*
X220535000Y-95968800D03*
X217995000Y-95968800D03*
%TD*%
D14*
%TO.C,J2*%
X42800000Y-85360000D03*
D15*
X42800000Y-87900000D03*
%TD*%
D12*
%TO.C,U6*%
X217995000Y-80718800D03*
D13*
X220535000Y-80718800D03*
X223075000Y-80718800D03*
X225615000Y-80718800D03*
X228155000Y-80718800D03*
X230695000Y-80718800D03*
X233235000Y-80718800D03*
X233235000Y-73098800D03*
X230695000Y-73098800D03*
X228155000Y-73098800D03*
X225615000Y-73098800D03*
X223075000Y-73098800D03*
X220535000Y-73098800D03*
X217995000Y-73098800D03*
%TD*%
D11*
%TO.C,C8*%
X212915000Y-108658800D03*
X212915000Y-113658800D03*
%TD*%
D12*
%TO.C,U10*%
X100525000Y-76908800D03*
D13*
X100525000Y-79448800D03*
X100525000Y-81988800D03*
X100525000Y-84528800D03*
X100525000Y-87068800D03*
X100525000Y-89608800D03*
X100525000Y-92148800D03*
X100525000Y-94688800D03*
X100525000Y-97228800D03*
X100525000Y-99768800D03*
X100525000Y-102308800D03*
X100525000Y-104848800D03*
X100525000Y-107388800D03*
X100525000Y-109928800D03*
X100525000Y-112468800D03*
X100525000Y-115008800D03*
X115765000Y-115008800D03*
X115765000Y-112468800D03*
X115765000Y-109928800D03*
X115765000Y-107388800D03*
X115765000Y-104848800D03*
X115765000Y-102308800D03*
X115765000Y-99768800D03*
X115765000Y-97228800D03*
X115765000Y-94688800D03*
X115765000Y-92148800D03*
X115765000Y-89608800D03*
X115765000Y-87068800D03*
X115765000Y-84528800D03*
X115765000Y-81988800D03*
X115765000Y-79448800D03*
X115765000Y-76908800D03*
%TD*%
D16*
%TO.C,J3*%
X44070000Y-72660000D03*
D17*
X44070000Y-77740000D03*
%TD*%
D12*
%TO.C,U3*%
X218000000Y-92158800D03*
D13*
X220540000Y-92158800D03*
X223080000Y-92158800D03*
X225620000Y-92158800D03*
X228160000Y-92158800D03*
X230700000Y-92158800D03*
X233240000Y-92158800D03*
X233240000Y-84538800D03*
X230700000Y-84538800D03*
X228160000Y-84538800D03*
X225620000Y-84538800D03*
X223080000Y-84538800D03*
X220540000Y-84538800D03*
X218000000Y-84538800D03*
%TD*%
D12*
%TO.C,U7*%
X180535000Y-103578800D03*
D13*
X183075000Y-103578800D03*
X185615000Y-103578800D03*
X188155000Y-103578800D03*
X190695000Y-103578800D03*
X193235000Y-103578800D03*
X195775000Y-103578800D03*
X198315000Y-103578800D03*
X200855000Y-103578800D03*
X203395000Y-103578800D03*
X203395000Y-95958800D03*
X200855000Y-95958800D03*
X198315000Y-95958800D03*
X195775000Y-95958800D03*
X193235000Y-95958800D03*
X190695000Y-95958800D03*
X188155000Y-95958800D03*
X185615000Y-95958800D03*
X183075000Y-95958800D03*
X180535000Y-95958800D03*
%TD*%
D14*
%TO.C,J1*%
X208825600Y-127251600D03*
D15*
X208825600Y-124711600D03*
X206285600Y-127251600D03*
X206285600Y-124711600D03*
X203745600Y-127251600D03*
X203745600Y-124711600D03*
X201205600Y-127251600D03*
X201205600Y-124711600D03*
X198665600Y-127251600D03*
X198665600Y-124711600D03*
X196125600Y-127251600D03*
X196125600Y-124711600D03*
X193585600Y-127251600D03*
X193585600Y-124711600D03*
X191045600Y-127251600D03*
X191045600Y-124711600D03*
X188505600Y-127251600D03*
X188505600Y-124711600D03*
X185965600Y-127251600D03*
X185965600Y-124711600D03*
X183425600Y-127251600D03*
X183425600Y-124711600D03*
X180885600Y-127251600D03*
X180885600Y-124711600D03*
X178345600Y-127251600D03*
X178345600Y-124711600D03*
X175805600Y-127251600D03*
X175805600Y-124711600D03*
X173265600Y-127251600D03*
X173265600Y-124711600D03*
X170725600Y-127251600D03*
X170725600Y-124711600D03*
X168185600Y-127251600D03*
X168185600Y-124711600D03*
X165645600Y-127251600D03*
X165645600Y-124711600D03*
X163105600Y-127251600D03*
X163105600Y-124711600D03*
X160565600Y-127251600D03*
X160565600Y-124711600D03*
%TD*%
M02*
