M48
; DRILL file {KiCad (6.0.9)} date Fri Nov  3 09:01:55 2023
; FORMAT={-:-/ absolute / inch / decimal}
; #@! TF.CreationDate,2023-11-03T09:01:55+01:00
; #@! TF.GenerationSoftware,Kicad,Pcbnew,(6.0.9)
; #@! TF.FileFunction,Plated,1,2,PTH
FMAT,2
INCH
; #@! TA.AperFunction,Plated,PTH,ViaDrill
T1C0.0157
; #@! TA.AperFunction,Plated,PTH,ComponentDrill
T2C0.0315
; #@! TA.AperFunction,Plated,PTH,ComponentDrill
T3C0.0394
; #@! TA.AperFunction,Plated,PTH,ComponentDrill
T4C0.0598
%
G90
G05
T1
X2.1665Y-2.8287
X2.2595Y-2.8293
X2.3674Y-2.8962
X2.4209Y-2.8318
X2.5906Y-2.4979
X2.5923Y-2.5974
X2.598Y-2.5501
X2.6393Y-2.7097
X2.6881Y-2.9946
X2.7085Y-2.9316
X2.7153Y-2.2175
X2.7175Y-2.3219
X2.7376Y-2.8996
X2.7573Y-2.363
X2.828Y-2.6601
X2.9222Y-1.9095
X2.9517Y-2.1113
X2.9533Y-3.1313
X3.0087Y-2.2416
X3.0797Y-1.7181
X3.1942Y-1.5762
X3.1946Y-1.6812
X3.2883Y-2.6271
X3.2896Y-1.9846
X3.3564Y-3.278
X3.4747Y-1.4841
X3.4933Y-3.3175
X3.4968Y-2.5927
X3.6067Y-2.5935
X3.7557Y-2.0931
X3.8362Y-2.5517
X4.2172Y-2.426
X4.2895Y-2.3984
T2
X1.0Y-3.15
X1.0441Y-1.8504
X1.0441Y-2.1504
X1.05Y-2.357
X1.05Y-2.5539
X1.0984Y-3.15
X1.25Y-2.1556
X1.25Y-2.7556
X1.35Y-2.1556
X1.35Y-2.7556
X1.4004Y-1.1996
X1.4004Y-1.2996
X1.4004Y-1.3996
X1.4004Y-1.4996
X1.4004Y-1.5996
X1.4004Y-1.6996
X1.4004Y-1.7996
X1.4004Y-1.8996
X1.45Y-2.1556
X1.45Y-2.7556
X1.4516Y-1.0
X1.55Y-2.1556
X1.55Y-2.7556
X1.6484Y-1.0
X1.65Y-2.1556
X1.65Y-2.7556
X1.7004Y-1.1996
X1.7004Y-1.2996
X1.7004Y-1.3996
X1.7004Y-1.4996
X1.7004Y-1.5996
X1.7004Y-1.6996
X1.7004Y-1.7996
X1.7004Y-1.8996
X1.75Y-2.1556
X1.75Y-2.7556
X1.85Y-2.1556
X1.85Y-2.7556
X1.95Y-2.1556
X1.95Y-2.7556
X2.05Y-2.1556
X2.05Y-2.7556
X2.0504Y-1.1996
X2.0504Y-1.2996
X2.0504Y-1.3996
X2.0504Y-1.4996
X2.0504Y-1.5996
X2.0504Y-1.6996
X2.0504Y-1.7996
X2.0504Y-1.8996
X2.1031Y-1.0
X2.15Y-2.1556
X2.15Y-2.7556
X2.25Y-2.1556
X2.25Y-2.7556
X2.3Y-1.0
X2.35Y-2.1556
X2.35Y-2.7556
X2.3504Y-1.1996
X2.3504Y-1.2996
X2.3504Y-1.3996
X2.3504Y-1.4996
X2.3504Y-1.5996
X2.3504Y-1.6996
X2.3504Y-1.7996
X2.3504Y-1.8996
X2.45Y-2.1556
X2.45Y-2.7556
X2.55Y-2.1556
X2.55Y-2.7556
X2.7004Y-1.3
X2.7004Y-1.4
X2.7004Y-1.5
X2.7004Y-1.6
X2.7004Y-1.7
X2.7004Y-1.8
X2.7004Y-1.9
X2.7531Y-1.1
X2.85Y-2.3516
X2.85Y-2.5484
X2.95Y-1.1
X3.0004Y-1.3
X3.0004Y-1.4
X3.0004Y-1.5
X3.0004Y-1.6
X3.0004Y-1.7
X3.0004Y-1.8
X3.0004Y-1.9
X3.051Y-2.1502
X3.051Y-2.7502
X3.151Y-2.1502
X3.151Y-2.7502
X3.251Y-2.1502
X3.251Y-2.7502
X3.3504Y-1.2998
X3.3504Y-1.3998
X3.3504Y-1.4998
X3.3504Y-1.5998
X3.3504Y-1.6998
X3.3504Y-1.7998
X3.3504Y-1.8998
X3.351Y-2.1502
X3.351Y-2.7502
X3.4031Y-1.1
X3.451Y-2.1502
X3.451Y-2.7502
X3.551Y-2.1502
X3.551Y-2.7502
X3.6Y-1.1
X3.6504Y-1.2998
X3.6504Y-1.3998
X3.6504Y-1.4998
X3.6504Y-1.5998
X3.6504Y-1.6998
X3.6504Y-1.7998
X3.6504Y-1.8998
X3.651Y-2.1502
X3.651Y-2.7502
X3.751Y-2.1502
X3.751Y-2.7502
X3.851Y-2.1502
X3.851Y-2.7502
X3.951Y-2.1502
X3.951Y-2.7502
X4.0004Y-1.2998
X4.0004Y-1.3998
X4.0004Y-1.4998
X4.0004Y-1.5998
X4.0004Y-1.6998
X4.0004Y-1.7998
X4.0004Y-1.8998
X4.051Y-2.1502
X4.051Y-2.7502
X4.0516Y-1.1
X4.151Y-2.1502
X4.151Y-2.7502
X4.2484Y-1.1
X4.251Y-2.1502
X4.251Y-2.7502
X4.3004Y-1.2998
X4.3004Y-1.3998
X4.3004Y-1.4998
X4.3004Y-1.5998
X4.3004Y-1.6998
X4.3004Y-1.7998
X4.3004Y-1.8998
X4.351Y-2.1502
X4.351Y-2.7502
X4.6504Y-2.16
X4.6504Y-2.26
X4.6504Y-2.36
X4.6504Y-2.46
X4.6504Y-2.56
X4.6504Y-2.66
X4.6504Y-2.76
X4.6504Y-2.86
X4.6504Y-2.96
X4.6504Y-3.06
X4.7016Y-1.94
X4.8984Y-1.94
X4.9504Y-2.16
X4.9504Y-2.26
X4.9504Y-2.36
X4.9504Y-2.46
X4.9504Y-2.56
X4.9504Y-2.66
X4.9504Y-2.76
X4.9504Y-2.86
X4.9504Y-2.96
X4.9504Y-3.06
T3
X1.0441Y-1.5504
X1.0441Y-1.6504
X1.9998Y-3.07
X1.9998Y-3.17
X2.0998Y-3.07
X2.0998Y-3.17
X2.1998Y-3.07
X2.1998Y-3.17
X2.2998Y-3.07
X2.2998Y-3.17
X2.3998Y-3.07
X2.3998Y-3.17
X2.4998Y-3.07
X2.4998Y-3.17
X2.5998Y-3.07
X2.5998Y-3.17
X2.6998Y-3.07
X2.6998Y-3.17
X2.7998Y-3.07
X2.7998Y-3.17
X2.8998Y-3.07
X2.8998Y-3.17
X2.9998Y-3.07
X2.9998Y-3.17
X3.0998Y-3.07
X3.0998Y-3.17
X3.1998Y-3.07
X3.1998Y-3.17
X3.2998Y-3.07
X3.2998Y-3.17
X3.3998Y-3.07
X3.3998Y-3.17
X3.4998Y-3.07
X3.4998Y-3.17
X3.5998Y-3.07
X3.5998Y-3.17
X3.6998Y-3.07
X3.6998Y-3.17
X3.7998Y-3.07
X3.7998Y-3.17
X3.8998Y-3.07
X3.8998Y-3.17
T4
X1.0441Y-1.0304
X1.0441Y-1.2304
T0
M30
