M48
; DRILL file {KiCad 8.0.2} date 2024-05-20T09:09:20+0200
; FORMAT={-:-/ absolute / inch / decimal}
; #@! TF.CreationDate,2024-05-20T09:09:20+02:00
; #@! TF.GenerationSoftware,Kicad,Pcbnew,8.0.2
; #@! TF.FileFunction,Plated,1,2,PTH
FMAT,2
INCH
; #@! TA.AperFunction,Plated,PTH,ViaDrill
T1C0.0157
; #@! TA.AperFunction,Plated,PTH,ComponentDrill
T2C0.0315
; #@! TA.AperFunction,Plated,PTH,ComponentDrill
T3C0.0394
; #@! TA.AperFunction,Plated,PTH,ComponentDrill
T4C0.0598
%
G90
G05
T1
X2.1163Y-2.8912
X2.2213Y-2.8359
X2.2457Y-1.3293
X2.2823Y-2.4259
X2.3044Y-2.3858
X2.3271Y-2.0124
X2.3888Y-2.1141
X2.3898Y-2.2806
X2.4291Y-2.2814
X2.485Y-2.2631
X2.5136Y-2.2345
X2.5925Y-2.2814
X2.8701Y-2.6039
X2.8787Y-1.5445
X2.8995Y-1.3845
X2.9294Y-2.3851
X3.0268Y-2.8292
X3.0272Y-2.6747
X3.0674Y-2.5142
X3.1214Y-2.2397
X3.1319Y-2.022
X3.2508Y-1.9828
X3.3356Y-2.5016
X3.4338Y-1.451
X3.4545Y-1.69
X3.5109Y-2.7087
X3.5386Y-1.5969
X3.539Y-1.3264
X3.6027Y-2.6917
X3.6207Y-2.2043
X3.7004Y-2.0628
X3.7079Y-1.7729
X3.7797Y-2.3164
X3.9948Y-2.0274
X4.0494Y-2.3851
X4.2215Y-2.5874
X4.25Y-2.4424
X4.5383Y-3.2123
X4.7121Y-3.1986
X5.0076Y-2.26
T2
X1.0Y-3.15
X1.0441Y-1.8504
X1.0441Y-2.1504
X1.05Y-2.357
X1.05Y-2.5539
X1.0984Y-3.15
X1.25Y-2.16
X1.25Y-2.76
X1.35Y-2.16
X1.35Y-2.76
X1.4004Y-1.1996
X1.4004Y-1.2996
X1.4004Y-1.3996
X1.4004Y-1.4996
X1.4004Y-1.5996
X1.4004Y-1.6996
X1.4004Y-1.7996
X1.4004Y-1.8996
X1.45Y-2.16
X1.45Y-2.76
X1.4516Y-1.0
X1.55Y-2.16
X1.55Y-2.76
X1.6484Y-1.0
X1.65Y-2.16
X1.65Y-2.76
X1.7004Y-1.1996
X1.7004Y-1.2996
X1.7004Y-1.3996
X1.7004Y-1.4996
X1.7004Y-1.5996
X1.7004Y-1.6996
X1.7004Y-1.7996
X1.7004Y-1.8996
X1.75Y-2.16
X1.75Y-2.76
X1.85Y-2.16
X1.85Y-2.76
X1.95Y-2.16
X1.95Y-2.76
X2.05Y-2.16
X2.05Y-2.76
X2.0504Y-1.1996
X2.0504Y-1.2996
X2.0504Y-1.3996
X2.0504Y-1.4996
X2.0504Y-1.5996
X2.0504Y-1.6996
X2.0504Y-1.7996
X2.0504Y-1.8996
X2.1031Y-1.0
X2.15Y-2.16
X2.15Y-2.76
X2.25Y-2.16
X2.25Y-2.76
X2.3Y-1.0
X2.35Y-2.16
X2.35Y-2.76
X2.3504Y-1.1996
X2.3504Y-1.2996
X2.3504Y-1.3996
X2.3504Y-1.4996
X2.3504Y-1.5996
X2.3504Y-1.6996
X2.3504Y-1.7996
X2.3504Y-1.8996
X2.45Y-2.16
X2.45Y-2.76
X2.55Y-2.16
X2.55Y-2.76
X2.7004Y-1.3
X2.7004Y-1.4
X2.7004Y-1.5
X2.7004Y-1.6
X2.7004Y-1.7
X2.7004Y-1.8
X2.7004Y-1.9
X2.7531Y-1.1
X2.85Y-2.3516
X2.85Y-2.5484
X2.95Y-1.1
X3.0004Y-1.3
X3.0004Y-1.4
X3.0004Y-1.5
X3.0004Y-1.6
X3.0004Y-1.7
X3.0004Y-1.8
X3.0004Y-1.9
X3.05Y-2.15
X3.05Y-2.75
X3.15Y-2.15
X3.15Y-2.75
X3.25Y-2.15
X3.25Y-2.75
X3.35Y-2.15
X3.35Y-2.75
X3.3504Y-1.2998
X3.3504Y-1.3998
X3.3504Y-1.4998
X3.3504Y-1.5998
X3.3504Y-1.6998
X3.3504Y-1.7998
X3.3504Y-1.8998
X3.4031Y-1.1
X3.45Y-2.15
X3.45Y-2.75
X3.55Y-2.15
X3.55Y-2.75
X3.6Y-1.1
X3.65Y-2.15
X3.65Y-2.75
X3.6504Y-1.2998
X3.6504Y-1.3998
X3.6504Y-1.4998
X3.6504Y-1.5998
X3.6504Y-1.6998
X3.6504Y-1.7998
X3.6504Y-1.8998
X3.75Y-2.15
X3.75Y-2.75
X3.85Y-2.15
X3.85Y-2.75
X3.95Y-2.15
X3.95Y-2.75
X4.0004Y-1.2998
X4.0004Y-1.3998
X4.0004Y-1.4998
X4.0004Y-1.5998
X4.0004Y-1.6998
X4.0004Y-1.7998
X4.0004Y-1.8998
X4.05Y-2.15
X4.05Y-2.75
X4.0516Y-1.1
X4.15Y-2.15
X4.15Y-2.75
X4.2484Y-1.1
X4.25Y-2.15
X4.25Y-2.75
X4.3004Y-1.2998
X4.3004Y-1.3998
X4.3004Y-1.4998
X4.3004Y-1.5998
X4.3004Y-1.6998
X4.3004Y-1.7998
X4.3004Y-1.8998
X4.35Y-2.15
X4.35Y-2.75
X4.6254Y-1.1502
X4.6254Y-1.2502
X4.6254Y-1.3502
X4.6254Y-1.4502
X4.6254Y-1.5502
X4.6254Y-1.6502
X4.6254Y-1.7502
X4.6254Y-1.8502
X4.6254Y-1.9502
X4.6254Y-2.0502
X4.6254Y-2.495
X4.6254Y-2.595
X4.6254Y-2.695
X4.6254Y-2.795
X4.6254Y-2.895
X4.6254Y-2.995
X4.6254Y-3.095
X4.6254Y-3.195
X4.6254Y-3.295
X4.6254Y-3.395
X4.6766Y-2.3
X4.6781Y-0.95
X4.8734Y-2.3
X4.875Y-0.95
X4.9254Y-1.1502
X4.9254Y-1.2502
X4.9254Y-1.3502
X4.9254Y-1.4502
X4.9254Y-1.5502
X4.9254Y-1.6502
X4.9254Y-1.7502
X4.9254Y-1.8502
X4.9254Y-1.9502
X4.9254Y-2.0502
X4.9254Y-2.495
X4.9254Y-2.595
X4.9254Y-2.695
X4.9254Y-2.795
X4.9254Y-2.895
X4.9254Y-2.995
X4.9254Y-3.095
X4.9254Y-3.195
X4.9254Y-3.295
X4.9254Y-3.395
T3
X1.0441Y-1.5504
X1.0441Y-1.6504
X1.9998Y-3.07
X1.9998Y-3.17
X2.0998Y-3.07
X2.0998Y-3.17
X2.1998Y-3.07
X2.1998Y-3.17
X2.2998Y-3.07
X2.2998Y-3.17
X2.3998Y-3.07
X2.3998Y-3.17
X2.4998Y-3.07
X2.4998Y-3.17
X2.5998Y-3.07
X2.5998Y-3.17
X2.6998Y-3.07
X2.6998Y-3.17
X2.7998Y-3.07
X2.7998Y-3.17
X2.8998Y-3.07
X2.8998Y-3.17
X2.9998Y-3.07
X2.9998Y-3.17
X3.0998Y-3.07
X3.0998Y-3.17
X3.1998Y-3.07
X3.1998Y-3.17
X3.2998Y-3.07
X3.2998Y-3.17
X3.3998Y-3.07
X3.3998Y-3.17
X3.4998Y-3.07
X3.4998Y-3.17
X3.5998Y-3.07
X3.5998Y-3.17
X3.6998Y-3.07
X3.6998Y-3.17
X3.7998Y-3.07
X3.7998Y-3.17
X3.8998Y-3.07
X3.8998Y-3.17
T4
X1.0441Y-1.0304
X1.0441Y-1.2304
M30
