%TF.GenerationSoftware,KiCad,Pcbnew,8.0.2*%
%TF.CreationDate,2024-08-03T14:36:34+02:00*%
%TF.ProjectId,p2000t-ram-expansion-board,70323030-3074-42d7-9261-6d2d65787061,4*%
%TF.SameCoordinates,Original*%
%TF.FileFunction,Soldermask,Top*%
%TF.FilePolarity,Negative*%
%FSLAX46Y46*%
G04 Gerber Fmt 4.6, Leading zero omitted, Abs format (unit mm)*
G04 Created by KiCad (PCBNEW 8.0.2) date 2024-08-03 14:36:34*
%MOMM*%
%LPD*%
G01*
G04 APERTURE LIST*
%ADD10C,0.010000*%
%ADD11C,1.600000*%
%ADD12R,1.600000X1.600000*%
%ADD13O,1.600000X1.600000*%
%ADD14R,1.700000X1.700000*%
%ADD15O,1.700000X1.700000*%
%ADD16R,3.000000X3.000000*%
%ADD17C,3.000000*%
G04 APERTURE END LIST*
D10*
%TO.C,LOGO1*%
X113835690Y-83940018D02*
X113870585Y-83955269D01*
X113953877Y-84021235D01*
X114025103Y-84116618D01*
X114069153Y-84218406D01*
X114076322Y-84268587D01*
X114052285Y-84338647D01*
X113999561Y-84375717D01*
X113943031Y-84398164D01*
X113917146Y-84402300D01*
X113904542Y-84372283D01*
X113879654Y-84306961D01*
X113868735Y-84277445D01*
X113807508Y-84175348D01*
X113718861Y-84124423D01*
X113605193Y-84125989D01*
X113596774Y-84127994D01*
X113536088Y-84156767D01*
X113491474Y-84212859D01*
X113461002Y-84303163D01*
X113442744Y-84434571D01*
X113434771Y-84613974D01*
X113434023Y-84709433D01*
X113433652Y-84859913D01*
X113431223Y-84962495D01*
X113424760Y-85027672D01*
X113412288Y-85065938D01*
X113391833Y-85087785D01*
X113361419Y-85103707D01*
X113359661Y-85104509D01*
X113301091Y-85129272D01*
X113272075Y-85138391D01*
X113267616Y-85110822D01*
X113263799Y-85034620D01*
X113260899Y-84919541D01*
X113259191Y-84775341D01*
X113258851Y-84669814D01*
X113260588Y-84465613D01*
X113267382Y-84310697D01*
X113281607Y-84196024D01*
X113305638Y-84112551D01*
X113341848Y-84051236D01*
X113392612Y-84003034D01*
X113442739Y-83969393D01*
X113563275Y-83924619D01*
X113703557Y-83914521D01*
X113835690Y-83940018D01*
G36*
X113835690Y-83940018D02*
G01*
X113870585Y-83955269D01*
X113953877Y-84021235D01*
X114025103Y-84116618D01*
X114069153Y-84218406D01*
X114076322Y-84268587D01*
X114052285Y-84338647D01*
X113999561Y-84375717D01*
X113943031Y-84398164D01*
X113917146Y-84402300D01*
X113904542Y-84372283D01*
X113879654Y-84306961D01*
X113868735Y-84277445D01*
X113807508Y-84175348D01*
X113718861Y-84124423D01*
X113605193Y-84125989D01*
X113596774Y-84127994D01*
X113536088Y-84156767D01*
X113491474Y-84212859D01*
X113461002Y-84303163D01*
X113442744Y-84434571D01*
X113434771Y-84613974D01*
X113434023Y-84709433D01*
X113433652Y-84859913D01*
X113431223Y-84962495D01*
X113424760Y-85027672D01*
X113412288Y-85065938D01*
X113391833Y-85087785D01*
X113361419Y-85103707D01*
X113359661Y-85104509D01*
X113301091Y-85129272D01*
X113272075Y-85138391D01*
X113267616Y-85110822D01*
X113263799Y-85034620D01*
X113260899Y-84919541D01*
X113259191Y-84775341D01*
X113258851Y-84669814D01*
X113260588Y-84465613D01*
X113267382Y-84310697D01*
X113281607Y-84196024D01*
X113305638Y-84112551D01*
X113341848Y-84051236D01*
X113392612Y-84003034D01*
X113442739Y-83969393D01*
X113563275Y-83924619D01*
X113703557Y-83914521D01*
X113835690Y-83940018D01*
G37*
X105917429Y-83877719D02*
X106011123Y-83931914D01*
X106076264Y-83985707D01*
X106123907Y-84042066D01*
X106156728Y-84110987D01*
X106177406Y-84202468D01*
X106188620Y-84326506D01*
X106193049Y-84493098D01*
X106193563Y-84612851D01*
X106193563Y-85053659D01*
X106069483Y-85109283D01*
X105945402Y-85164907D01*
X105930805Y-84682095D01*
X105924773Y-84501779D01*
X105918445Y-84370901D01*
X105910606Y-84280511D01*
X105900037Y-84221664D01*
X105885523Y-84185413D01*
X105865848Y-84162810D01*
X105859535Y-84157917D01*
X105763888Y-84119706D01*
X105667207Y-84134827D01*
X105609655Y-84174943D01*
X105586245Y-84203370D01*
X105570039Y-84240672D01*
X105559741Y-84297223D01*
X105554049Y-84383394D01*
X105551664Y-84509558D01*
X105551264Y-84641042D01*
X105551186Y-84805999D01*
X105548361Y-84922761D01*
X105538907Y-85001510D01*
X105518940Y-85052431D01*
X105484576Y-85085706D01*
X105431932Y-85111520D01*
X105361617Y-85138344D01*
X105284820Y-85167542D01*
X105293962Y-84649346D01*
X105297643Y-84462539D01*
X105301950Y-84324490D01*
X105308123Y-84225568D01*
X105317402Y-84156145D01*
X105331027Y-84106590D01*
X105350239Y-84067273D01*
X105373402Y-84032584D01*
X105485152Y-83921770D01*
X105621513Y-83857689D01*
X105769825Y-83842339D01*
X105917429Y-83877719D01*
G36*
X105917429Y-83877719D02*
G01*
X106011123Y-83931914D01*
X106076264Y-83985707D01*
X106123907Y-84042066D01*
X106156728Y-84110987D01*
X106177406Y-84202468D01*
X106188620Y-84326506D01*
X106193049Y-84493098D01*
X106193563Y-84612851D01*
X106193563Y-85053659D01*
X106069483Y-85109283D01*
X105945402Y-85164907D01*
X105930805Y-84682095D01*
X105924773Y-84501779D01*
X105918445Y-84370901D01*
X105910606Y-84280511D01*
X105900037Y-84221664D01*
X105885523Y-84185413D01*
X105865848Y-84162810D01*
X105859535Y-84157917D01*
X105763888Y-84119706D01*
X105667207Y-84134827D01*
X105609655Y-84174943D01*
X105586245Y-84203370D01*
X105570039Y-84240672D01*
X105559741Y-84297223D01*
X105554049Y-84383394D01*
X105551664Y-84509558D01*
X105551264Y-84641042D01*
X105551186Y-84805999D01*
X105548361Y-84922761D01*
X105538907Y-85001510D01*
X105518940Y-85052431D01*
X105484576Y-85085706D01*
X105431932Y-85111520D01*
X105361617Y-85138344D01*
X105284820Y-85167542D01*
X105293962Y-84649346D01*
X105297643Y-84462539D01*
X105301950Y-84324490D01*
X105308123Y-84225568D01*
X105317402Y-84156145D01*
X105331027Y-84106590D01*
X105350239Y-84067273D01*
X105373402Y-84032584D01*
X105485152Y-83921770D01*
X105621513Y-83857689D01*
X105769825Y-83842339D01*
X105917429Y-83877719D01*
G37*
X109565943Y-83921920D02*
X109698565Y-83970859D01*
X109806010Y-84057419D01*
X109848032Y-84118352D01*
X109893843Y-84230161D01*
X109892891Y-84311006D01*
X109844808Y-84365378D01*
X109827017Y-84374624D01*
X109750204Y-84403450D01*
X109710976Y-84396065D01*
X109697689Y-84347658D01*
X109697012Y-84320920D01*
X109672686Y-84222548D01*
X109609281Y-84153734D01*
X109521154Y-84120498D01*
X109422663Y-84128861D01*
X109342602Y-84172296D01*
X109315561Y-84197072D01*
X109296394Y-84227129D01*
X109283446Y-84272565D01*
X109275064Y-84343476D01*
X109269593Y-84449960D01*
X109265378Y-84602112D01*
X109264287Y-84650287D01*
X109260307Y-84815095D01*
X109255781Y-84931088D01*
X109248995Y-85007833D01*
X109238231Y-85054893D01*
X109221773Y-85081835D01*
X109197906Y-85098223D01*
X109182626Y-85105463D01*
X109117733Y-85130220D01*
X109079534Y-85138391D01*
X109066912Y-85111103D01*
X109059208Y-85028603D01*
X109056380Y-84889941D01*
X109058386Y-84694162D01*
X109059011Y-84663965D01*
X109063421Y-84485349D01*
X109068635Y-84354923D01*
X109076055Y-84262492D01*
X109087082Y-84197858D01*
X109103117Y-84150825D01*
X109125561Y-84111196D01*
X109137302Y-84094215D01*
X109204619Y-84019080D01*
X109279910Y-83960638D01*
X109289128Y-83955536D01*
X109424133Y-83915260D01*
X109565943Y-83921920D01*
G36*
X109565943Y-83921920D02*
G01*
X109698565Y-83970859D01*
X109806010Y-84057419D01*
X109848032Y-84118352D01*
X109893843Y-84230161D01*
X109892891Y-84311006D01*
X109844808Y-84365378D01*
X109827017Y-84374624D01*
X109750204Y-84403450D01*
X109710976Y-84396065D01*
X109697689Y-84347658D01*
X109697012Y-84320920D01*
X109672686Y-84222548D01*
X109609281Y-84153734D01*
X109521154Y-84120498D01*
X109422663Y-84128861D01*
X109342602Y-84172296D01*
X109315561Y-84197072D01*
X109296394Y-84227129D01*
X109283446Y-84272565D01*
X109275064Y-84343476D01*
X109269593Y-84449960D01*
X109265378Y-84602112D01*
X109264287Y-84650287D01*
X109260307Y-84815095D01*
X109255781Y-84931088D01*
X109248995Y-85007833D01*
X109238231Y-85054893D01*
X109221773Y-85081835D01*
X109197906Y-85098223D01*
X109182626Y-85105463D01*
X109117733Y-85130220D01*
X109079534Y-85138391D01*
X109066912Y-85111103D01*
X109059208Y-85028603D01*
X109056380Y-84889941D01*
X109058386Y-84694162D01*
X109059011Y-84663965D01*
X109063421Y-84485349D01*
X109068635Y-84354923D01*
X109076055Y-84262492D01*
X109087082Y-84197858D01*
X109103117Y-84150825D01*
X109125561Y-84111196D01*
X109137302Y-84094215D01*
X109204619Y-84019080D01*
X109279910Y-83960638D01*
X109289128Y-83955536D01*
X109424133Y-83915260D01*
X109565943Y-83921920D01*
G37*
X112080124Y-83939840D02*
X112084579Y-84016653D01*
X112088071Y-84133391D01*
X112090315Y-84280821D01*
X112091035Y-84435455D01*
X112091035Y-84958727D01*
X111998645Y-85051117D01*
X111934978Y-85108047D01*
X111879089Y-85131107D01*
X111802702Y-85129647D01*
X111772380Y-85125934D01*
X111677610Y-85115126D01*
X111599222Y-85108933D01*
X111580115Y-85108361D01*
X111515699Y-85112102D01*
X111423571Y-85121494D01*
X111387850Y-85125934D01*
X111300114Y-85132801D01*
X111241153Y-85117885D01*
X111182690Y-85071835D01*
X111161585Y-85051117D01*
X111069195Y-84958727D01*
X111069195Y-83979947D01*
X111143558Y-83946066D01*
X111207590Y-83920970D01*
X111245052Y-83912184D01*
X111254657Y-83939950D01*
X111263635Y-84017530D01*
X111271386Y-84136348D01*
X111277314Y-84287828D01*
X111280173Y-84415805D01*
X111288161Y-84919425D01*
X111357848Y-84929278D01*
X111421229Y-84922389D01*
X111452286Y-84900083D01*
X111460967Y-84858379D01*
X111468378Y-84769544D01*
X111473931Y-84644834D01*
X111477036Y-84495507D01*
X111477484Y-84418661D01*
X111477931Y-83976287D01*
X111569874Y-83944235D01*
X111634949Y-83922443D01*
X111670347Y-83912281D01*
X111671368Y-83912184D01*
X111674920Y-83939809D01*
X111678823Y-84016411D01*
X111682751Y-84132579D01*
X111686376Y-84278904D01*
X111688908Y-84415805D01*
X111696897Y-84919425D01*
X111872069Y-84919425D01*
X111880107Y-84459965D01*
X111888146Y-84000505D01*
X111973543Y-83956344D01*
X112036593Y-83926019D01*
X112073910Y-83912258D01*
X112074987Y-83912184D01*
X112080124Y-83939840D01*
G36*
X112080124Y-83939840D02*
G01*
X112084579Y-84016653D01*
X112088071Y-84133391D01*
X112090315Y-84280821D01*
X112091035Y-84435455D01*
X112091035Y-84958727D01*
X111998645Y-85051117D01*
X111934978Y-85108047D01*
X111879089Y-85131107D01*
X111802702Y-85129647D01*
X111772380Y-85125934D01*
X111677610Y-85115126D01*
X111599222Y-85108933D01*
X111580115Y-85108361D01*
X111515699Y-85112102D01*
X111423571Y-85121494D01*
X111387850Y-85125934D01*
X111300114Y-85132801D01*
X111241153Y-85117885D01*
X111182690Y-85071835D01*
X111161585Y-85051117D01*
X111069195Y-84958727D01*
X111069195Y-83979947D01*
X111143558Y-83946066D01*
X111207590Y-83920970D01*
X111245052Y-83912184D01*
X111254657Y-83939950D01*
X111263635Y-84017530D01*
X111271386Y-84136348D01*
X111277314Y-84287828D01*
X111280173Y-84415805D01*
X111288161Y-84919425D01*
X111357848Y-84929278D01*
X111421229Y-84922389D01*
X111452286Y-84900083D01*
X111460967Y-84858379D01*
X111468378Y-84769544D01*
X111473931Y-84644834D01*
X111477036Y-84495507D01*
X111477484Y-84418661D01*
X111477931Y-83976287D01*
X111569874Y-83944235D01*
X111634949Y-83922443D01*
X111670347Y-83912281D01*
X111671368Y-83912184D01*
X111674920Y-83939809D01*
X111678823Y-84016411D01*
X111682751Y-84132579D01*
X111686376Y-84278904D01*
X111688908Y-84415805D01*
X111696897Y-84919425D01*
X111872069Y-84919425D01*
X111880107Y-84459965D01*
X111888146Y-84000505D01*
X111973543Y-83956344D01*
X112036593Y-83926019D01*
X112073910Y-83912258D01*
X112074987Y-83912184D01*
X112080124Y-83939840D01*
G37*
X107244598Y-83723857D02*
X107253154Y-83843188D01*
X107262981Y-83913506D01*
X107276599Y-83944179D01*
X107296527Y-83944571D01*
X107302989Y-83940910D01*
X107388940Y-83914398D01*
X107500745Y-83915946D01*
X107614414Y-83943199D01*
X107685510Y-83978455D01*
X107758405Y-84034778D01*
X107811693Y-84098519D01*
X107848275Y-84179510D01*
X107871050Y-84287586D01*
X107882919Y-84432580D01*
X107886782Y-84624326D01*
X107886851Y-84661109D01*
X107886897Y-85074288D01*
X107794954Y-85106339D01*
X107729652Y-85128144D01*
X107693824Y-85138297D01*
X107692770Y-85138391D01*
X107689242Y-85110860D01*
X107686239Y-85034923D01*
X107683990Y-84920565D01*
X107682724Y-84777769D01*
X107682529Y-84690951D01*
X107682123Y-84519773D01*
X107680032Y-84397088D01*
X107674947Y-84313000D01*
X107665560Y-84257614D01*
X107650561Y-84221032D01*
X107628642Y-84193359D01*
X107614957Y-84180032D01*
X107520949Y-84126328D01*
X107418364Y-84122307D01*
X107325290Y-84167725D01*
X107308078Y-84184123D01*
X107282832Y-84214957D01*
X107265320Y-84251531D01*
X107254142Y-84304415D01*
X107247896Y-84384177D01*
X107245182Y-84501385D01*
X107244598Y-84662991D01*
X107244598Y-85074288D01*
X107152655Y-85106339D01*
X107087353Y-85128144D01*
X107051525Y-85138297D01*
X107050471Y-85138391D01*
X107047775Y-85110448D01*
X107045345Y-85031630D01*
X107043278Y-84909453D01*
X107041671Y-84751432D01*
X107040623Y-84565083D01*
X107040231Y-84357920D01*
X107040230Y-84348706D01*
X107040230Y-83559020D01*
X107135115Y-83518997D01*
X107230000Y-83478973D01*
X107244598Y-83723857D01*
G36*
X107244598Y-83723857D02*
G01*
X107253154Y-83843188D01*
X107262981Y-83913506D01*
X107276599Y-83944179D01*
X107296527Y-83944571D01*
X107302989Y-83940910D01*
X107388940Y-83914398D01*
X107500745Y-83915946D01*
X107614414Y-83943199D01*
X107685510Y-83978455D01*
X107758405Y-84034778D01*
X107811693Y-84098519D01*
X107848275Y-84179510D01*
X107871050Y-84287586D01*
X107882919Y-84432580D01*
X107886782Y-84624326D01*
X107886851Y-84661109D01*
X107886897Y-85074288D01*
X107794954Y-85106339D01*
X107729652Y-85128144D01*
X107693824Y-85138297D01*
X107692770Y-85138391D01*
X107689242Y-85110860D01*
X107686239Y-85034923D01*
X107683990Y-84920565D01*
X107682724Y-84777769D01*
X107682529Y-84690951D01*
X107682123Y-84519773D01*
X107680032Y-84397088D01*
X107674947Y-84313000D01*
X107665560Y-84257614D01*
X107650561Y-84221032D01*
X107628642Y-84193359D01*
X107614957Y-84180032D01*
X107520949Y-84126328D01*
X107418364Y-84122307D01*
X107325290Y-84167725D01*
X107308078Y-84184123D01*
X107282832Y-84214957D01*
X107265320Y-84251531D01*
X107254142Y-84304415D01*
X107247896Y-84384177D01*
X107245182Y-84501385D01*
X107244598Y-84662991D01*
X107244598Y-85074288D01*
X107152655Y-85106339D01*
X107087353Y-85128144D01*
X107051525Y-85138297D01*
X107050471Y-85138391D01*
X107047775Y-85110448D01*
X107045345Y-85031630D01*
X107043278Y-84909453D01*
X107041671Y-84751432D01*
X107040623Y-84565083D01*
X107040231Y-84357920D01*
X107040230Y-84348706D01*
X107040230Y-83559020D01*
X107135115Y-83518997D01*
X107230000Y-83478973D01*
X107244598Y-83723857D01*
G37*
X102548221Y-83866015D02*
X102685061Y-83937968D01*
X102786051Y-84053766D01*
X102821925Y-84128213D01*
X102849839Y-84239992D01*
X102864129Y-84381227D01*
X102865484Y-84535371D01*
X102854595Y-84685879D01*
X102832153Y-84816205D01*
X102798850Y-84909803D01*
X102788615Y-84925922D01*
X102667382Y-85046249D01*
X102523387Y-85118317D01*
X102367139Y-85139408D01*
X102209148Y-85106802D01*
X102165180Y-85087253D01*
X102079556Y-85027012D01*
X102004408Y-84947135D01*
X101997306Y-84937004D01*
X101968439Y-84888181D01*
X101949357Y-84835990D01*
X101938084Y-84767285D01*
X101932645Y-84668918D01*
X101931062Y-84527744D01*
X101931035Y-84496092D01*
X101931107Y-84486019D01*
X102222989Y-84486019D01*
X102224687Y-84619256D01*
X102231372Y-84707674D01*
X102245425Y-84764785D01*
X102269229Y-84804102D01*
X102281379Y-84817241D01*
X102351236Y-84867172D01*
X102419059Y-84864895D01*
X102487635Y-84821584D01*
X102528535Y-84775346D01*
X102552758Y-84707857D01*
X102566361Y-84601433D01*
X102567294Y-84589020D01*
X102569616Y-84396147D01*
X102545350Y-84252900D01*
X102494824Y-84160160D01*
X102418368Y-84118807D01*
X102391076Y-84116552D01*
X102319411Y-84127893D01*
X102270390Y-84167184D01*
X102240418Y-84242326D01*
X102225899Y-84361222D01*
X102222989Y-84486019D01*
X101931107Y-84486019D01*
X101932122Y-84345659D01*
X101936688Y-84240549D01*
X101946688Y-84167714D01*
X101964079Y-84114108D01*
X101990816Y-84066681D01*
X101996724Y-84057864D01*
X102096032Y-83939007D01*
X102204242Y-83870008D01*
X102335981Y-83842619D01*
X102380717Y-83841281D01*
X102548221Y-83866015D01*
G36*
X102548221Y-83866015D02*
G01*
X102685061Y-83937968D01*
X102786051Y-84053766D01*
X102821925Y-84128213D01*
X102849839Y-84239992D01*
X102864129Y-84381227D01*
X102865484Y-84535371D01*
X102854595Y-84685879D01*
X102832153Y-84816205D01*
X102798850Y-84909803D01*
X102788615Y-84925922D01*
X102667382Y-85046249D01*
X102523387Y-85118317D01*
X102367139Y-85139408D01*
X102209148Y-85106802D01*
X102165180Y-85087253D01*
X102079556Y-85027012D01*
X102004408Y-84947135D01*
X101997306Y-84937004D01*
X101968439Y-84888181D01*
X101949357Y-84835990D01*
X101938084Y-84767285D01*
X101932645Y-84668918D01*
X101931062Y-84527744D01*
X101931035Y-84496092D01*
X101931107Y-84486019D01*
X102222989Y-84486019D01*
X102224687Y-84619256D01*
X102231372Y-84707674D01*
X102245425Y-84764785D01*
X102269229Y-84804102D01*
X102281379Y-84817241D01*
X102351236Y-84867172D01*
X102419059Y-84864895D01*
X102487635Y-84821584D01*
X102528535Y-84775346D01*
X102552758Y-84707857D01*
X102566361Y-84601433D01*
X102567294Y-84589020D01*
X102569616Y-84396147D01*
X102545350Y-84252900D01*
X102494824Y-84160160D01*
X102418368Y-84118807D01*
X102391076Y-84116552D01*
X102319411Y-84127893D01*
X102270390Y-84167184D01*
X102240418Y-84242326D01*
X102225899Y-84361222D01*
X102222989Y-84486019D01*
X101931107Y-84486019D01*
X101932122Y-84345659D01*
X101936688Y-84240549D01*
X101946688Y-84167714D01*
X101964079Y-84114108D01*
X101990816Y-84066681D01*
X101996724Y-84057864D01*
X102096032Y-83939007D01*
X102204242Y-83870008D01*
X102335981Y-83842619D01*
X102380717Y-83841281D01*
X102548221Y-83866015D01*
G37*
X114843439Y-83956540D02*
X114958950Y-84032034D01*
X115014664Y-84099617D01*
X115058804Y-84222255D01*
X115062309Y-84319298D01*
X115054368Y-84449056D01*
X114755115Y-84580039D01*
X114609611Y-84646958D01*
X114514537Y-84700790D01*
X114465101Y-84747416D01*
X114456511Y-84792720D01*
X114483972Y-84842582D01*
X114514253Y-84875632D01*
X114602363Y-84928633D01*
X114698196Y-84932347D01*
X114786212Y-84891041D01*
X114850869Y-84808983D01*
X114862433Y-84780008D01*
X114917825Y-84689509D01*
X114981553Y-84650940D01*
X115068966Y-84617946D01*
X115068966Y-84743034D01*
X115061238Y-84828156D01*
X115030966Y-84899938D01*
X114967518Y-84982356D01*
X114958088Y-84993066D01*
X114887513Y-85066391D01*
X114826847Y-85105742D01*
X114750950Y-85123845D01*
X114688030Y-85129774D01*
X114575487Y-85131251D01*
X114495370Y-85112535D01*
X114445390Y-85084747D01*
X114366838Y-85023641D01*
X114312463Y-84957554D01*
X114278052Y-84874441D01*
X114259388Y-84762254D01*
X114252256Y-84608946D01*
X114251687Y-84531136D01*
X114253622Y-84437853D01*
X114429899Y-84437853D01*
X114431944Y-84487896D01*
X114437039Y-84496092D01*
X114470666Y-84484958D01*
X114543030Y-84455493D01*
X114639747Y-84413601D01*
X114659973Y-84404597D01*
X114782203Y-84342442D01*
X114849547Y-84287815D01*
X114864348Y-84236649D01*
X114828947Y-84184876D01*
X114799711Y-84162000D01*
X114694216Y-84116250D01*
X114595476Y-84123808D01*
X114512812Y-84179651D01*
X114455548Y-84278753D01*
X114437188Y-84357414D01*
X114429899Y-84437853D01*
X114253622Y-84437853D01*
X114255459Y-84349351D01*
X114269359Y-84214853D01*
X114296894Y-84116916D01*
X114341572Y-84044811D01*
X114406901Y-83987813D01*
X114435383Y-83969393D01*
X114564763Y-83921422D01*
X114706412Y-83918403D01*
X114843439Y-83956540D01*
G36*
X114843439Y-83956540D02*
G01*
X114958950Y-84032034D01*
X115014664Y-84099617D01*
X115058804Y-84222255D01*
X115062309Y-84319298D01*
X115054368Y-84449056D01*
X114755115Y-84580039D01*
X114609611Y-84646958D01*
X114514537Y-84700790D01*
X114465101Y-84747416D01*
X114456511Y-84792720D01*
X114483972Y-84842582D01*
X114514253Y-84875632D01*
X114602363Y-84928633D01*
X114698196Y-84932347D01*
X114786212Y-84891041D01*
X114850869Y-84808983D01*
X114862433Y-84780008D01*
X114917825Y-84689509D01*
X114981553Y-84650940D01*
X115068966Y-84617946D01*
X115068966Y-84743034D01*
X115061238Y-84828156D01*
X115030966Y-84899938D01*
X114967518Y-84982356D01*
X114958088Y-84993066D01*
X114887513Y-85066391D01*
X114826847Y-85105742D01*
X114750950Y-85123845D01*
X114688030Y-85129774D01*
X114575487Y-85131251D01*
X114495370Y-85112535D01*
X114445390Y-85084747D01*
X114366838Y-85023641D01*
X114312463Y-84957554D01*
X114278052Y-84874441D01*
X114259388Y-84762254D01*
X114252256Y-84608946D01*
X114251687Y-84531136D01*
X114253622Y-84437853D01*
X114429899Y-84437853D01*
X114431944Y-84487896D01*
X114437039Y-84496092D01*
X114470666Y-84484958D01*
X114543030Y-84455493D01*
X114639747Y-84413601D01*
X114659973Y-84404597D01*
X114782203Y-84342442D01*
X114849547Y-84287815D01*
X114864348Y-84236649D01*
X114828947Y-84184876D01*
X114799711Y-84162000D01*
X114694216Y-84116250D01*
X114595476Y-84123808D01*
X114512812Y-84179651D01*
X114455548Y-84278753D01*
X114437188Y-84357414D01*
X114429899Y-84437853D01*
X114253622Y-84437853D01*
X114255459Y-84349351D01*
X114269359Y-84214853D01*
X114296894Y-84116916D01*
X114341572Y-84044811D01*
X114406901Y-83987813D01*
X114435383Y-83969393D01*
X114564763Y-83921422D01*
X114706412Y-83918403D01*
X114843439Y-83956540D01*
G37*
X110893914Y-84154455D02*
X110893543Y-84372661D01*
X110892108Y-84540519D01*
X110889002Y-84666070D01*
X110883622Y-84757355D01*
X110875362Y-84822415D01*
X110863616Y-84869291D01*
X110847781Y-84906024D01*
X110835790Y-84926991D01*
X110736490Y-85040694D01*
X110610588Y-85111965D01*
X110471291Y-85137538D01*
X110331805Y-85114150D01*
X110248743Y-85072119D01*
X110161545Y-84999411D01*
X110102117Y-84910612D01*
X110066261Y-84794320D01*
X110049781Y-84639135D01*
X110047447Y-84525287D01*
X110047761Y-84517106D01*
X110251724Y-84517106D01*
X110252970Y-84647657D01*
X110258678Y-84734080D01*
X110271804Y-84790618D01*
X110295306Y-84831514D01*
X110323386Y-84862362D01*
X110417688Y-84921905D01*
X110518940Y-84926992D01*
X110614636Y-84877279D01*
X110622084Y-84870543D01*
X110653874Y-84835502D01*
X110673808Y-84793811D01*
X110684600Y-84731762D01*
X110688965Y-84635644D01*
X110689655Y-84529379D01*
X110688159Y-84395880D01*
X110681964Y-84306822D01*
X110668514Y-84248293D01*
X110645251Y-84206382D01*
X110626175Y-84184123D01*
X110537563Y-84127985D01*
X110435508Y-84121235D01*
X110338095Y-84164114D01*
X110319296Y-84180032D01*
X110287293Y-84215382D01*
X110267318Y-84257502D01*
X110256593Y-84320251D01*
X110252339Y-84417487D01*
X110251724Y-84517106D01*
X110047761Y-84517106D01*
X110054504Y-84341947D01*
X110078472Y-84204195D01*
X110123548Y-84100632D01*
X110193928Y-84019856D01*
X110248743Y-83978455D01*
X110348376Y-83933728D01*
X110463855Y-83912967D01*
X110571199Y-83918525D01*
X110631264Y-83940943D01*
X110654835Y-83947323D01*
X110670477Y-83923535D01*
X110681395Y-83859788D01*
X110689655Y-83762687D01*
X110698699Y-83654541D01*
X110711261Y-83589475D01*
X110734119Y-83552268D01*
X110774051Y-83527699D01*
X110799138Y-83516819D01*
X110894023Y-83477072D01*
X110893914Y-84154455D01*
G36*
X110893914Y-84154455D02*
G01*
X110893543Y-84372661D01*
X110892108Y-84540519D01*
X110889002Y-84666070D01*
X110883622Y-84757355D01*
X110875362Y-84822415D01*
X110863616Y-84869291D01*
X110847781Y-84906024D01*
X110835790Y-84926991D01*
X110736490Y-85040694D01*
X110610588Y-85111965D01*
X110471291Y-85137538D01*
X110331805Y-85114150D01*
X110248743Y-85072119D01*
X110161545Y-84999411D01*
X110102117Y-84910612D01*
X110066261Y-84794320D01*
X110049781Y-84639135D01*
X110047447Y-84525287D01*
X110047761Y-84517106D01*
X110251724Y-84517106D01*
X110252970Y-84647657D01*
X110258678Y-84734080D01*
X110271804Y-84790618D01*
X110295306Y-84831514D01*
X110323386Y-84862362D01*
X110417688Y-84921905D01*
X110518940Y-84926992D01*
X110614636Y-84877279D01*
X110622084Y-84870543D01*
X110653874Y-84835502D01*
X110673808Y-84793811D01*
X110684600Y-84731762D01*
X110688965Y-84635644D01*
X110689655Y-84529379D01*
X110688159Y-84395880D01*
X110681964Y-84306822D01*
X110668514Y-84248293D01*
X110645251Y-84206382D01*
X110626175Y-84184123D01*
X110537563Y-84127985D01*
X110435508Y-84121235D01*
X110338095Y-84164114D01*
X110319296Y-84180032D01*
X110287293Y-84215382D01*
X110267318Y-84257502D01*
X110256593Y-84320251D01*
X110252339Y-84417487D01*
X110251724Y-84517106D01*
X110047761Y-84517106D01*
X110054504Y-84341947D01*
X110078472Y-84204195D01*
X110123548Y-84100632D01*
X110193928Y-84019856D01*
X110248743Y-83978455D01*
X110348376Y-83933728D01*
X110463855Y-83912967D01*
X110571199Y-83918525D01*
X110631264Y-83940943D01*
X110654835Y-83947323D01*
X110670477Y-83923535D01*
X110681395Y-83859788D01*
X110689655Y-83762687D01*
X110698699Y-83654541D01*
X110711261Y-83589475D01*
X110734119Y-83552268D01*
X110774051Y-83527699D01*
X110799138Y-83516819D01*
X110894023Y-83477072D01*
X110893914Y-84154455D01*
G37*
X104815552Y-83884676D02*
X104930658Y-83962111D01*
X105019611Y-84073949D01*
X105072749Y-84216265D01*
X105083497Y-84321015D01*
X105082276Y-84364726D01*
X105072056Y-84398194D01*
X105043961Y-84428179D01*
X104989116Y-84461440D01*
X104898645Y-84504738D01*
X104763672Y-84564833D01*
X104762989Y-84565134D01*
X104638751Y-84622037D01*
X104536873Y-84672565D01*
X104467767Y-84711280D01*
X104441846Y-84732740D01*
X104441839Y-84732913D01*
X104464685Y-84779644D01*
X104518109Y-84831154D01*
X104579442Y-84868261D01*
X104610515Y-84875632D01*
X104695289Y-84850138D01*
X104768293Y-84786291D01*
X104803913Y-84716094D01*
X104838180Y-84664343D01*
X104905303Y-84605409D01*
X104984208Y-84554496D01*
X105053821Y-84526809D01*
X105068377Y-84525287D01*
X105084763Y-84550321D01*
X105085750Y-84614311D01*
X105073708Y-84700593D01*
X105051007Y-84792501D01*
X105020014Y-84873369D01*
X105018448Y-84876509D01*
X104925181Y-85006734D01*
X104804304Y-85095311D01*
X104667027Y-85138786D01*
X104524560Y-85133706D01*
X104388112Y-85076616D01*
X104382045Y-85072602D01*
X104274710Y-84975326D01*
X104204132Y-84848409D01*
X104165074Y-84681526D01*
X104159832Y-84634639D01*
X104150548Y-84413329D01*
X104161678Y-84310124D01*
X104441839Y-84310124D01*
X104445479Y-84374503D01*
X104465389Y-84393291D01*
X104515026Y-84379235D01*
X104593267Y-84346009D01*
X104680726Y-84304359D01*
X104682899Y-84303256D01*
X104757030Y-84264265D01*
X104786781Y-84238244D01*
X104779445Y-84210965D01*
X104748553Y-84175121D01*
X104669960Y-84123251D01*
X104585323Y-84119439D01*
X104509403Y-84157189D01*
X104456965Y-84230001D01*
X104441839Y-84310124D01*
X104161678Y-84310124D01*
X104169644Y-84236261D01*
X104218634Y-84095829D01*
X104286836Y-83997447D01*
X104409935Y-83898030D01*
X104545528Y-83848711D01*
X104683955Y-83845568D01*
X104815552Y-83884676D01*
G36*
X104815552Y-83884676D02*
G01*
X104930658Y-83962111D01*
X105019611Y-84073949D01*
X105072749Y-84216265D01*
X105083497Y-84321015D01*
X105082276Y-84364726D01*
X105072056Y-84398194D01*
X105043961Y-84428179D01*
X104989116Y-84461440D01*
X104898645Y-84504738D01*
X104763672Y-84564833D01*
X104762989Y-84565134D01*
X104638751Y-84622037D01*
X104536873Y-84672565D01*
X104467767Y-84711280D01*
X104441846Y-84732740D01*
X104441839Y-84732913D01*
X104464685Y-84779644D01*
X104518109Y-84831154D01*
X104579442Y-84868261D01*
X104610515Y-84875632D01*
X104695289Y-84850138D01*
X104768293Y-84786291D01*
X104803913Y-84716094D01*
X104838180Y-84664343D01*
X104905303Y-84605409D01*
X104984208Y-84554496D01*
X105053821Y-84526809D01*
X105068377Y-84525287D01*
X105084763Y-84550321D01*
X105085750Y-84614311D01*
X105073708Y-84700593D01*
X105051007Y-84792501D01*
X105020014Y-84873369D01*
X105018448Y-84876509D01*
X104925181Y-85006734D01*
X104804304Y-85095311D01*
X104667027Y-85138786D01*
X104524560Y-85133706D01*
X104388112Y-85076616D01*
X104382045Y-85072602D01*
X104274710Y-84975326D01*
X104204132Y-84848409D01*
X104165074Y-84681526D01*
X104159832Y-84634639D01*
X104150548Y-84413329D01*
X104161678Y-84310124D01*
X104441839Y-84310124D01*
X104445479Y-84374503D01*
X104465389Y-84393291D01*
X104515026Y-84379235D01*
X104593267Y-84346009D01*
X104680726Y-84304359D01*
X104682899Y-84303256D01*
X104757030Y-84264265D01*
X104786781Y-84238244D01*
X104779445Y-84210965D01*
X104748553Y-84175121D01*
X104669960Y-84123251D01*
X104585323Y-84119439D01*
X104509403Y-84157189D01*
X104456965Y-84230001D01*
X104441839Y-84310124D01*
X104161678Y-84310124D01*
X104169644Y-84236261D01*
X104218634Y-84095829D01*
X104286836Y-83997447D01*
X104409935Y-83898030D01*
X104545528Y-83848711D01*
X104683955Y-83845568D01*
X104815552Y-83884676D01*
G37*
X108579944Y-83924360D02*
X108694343Y-83966842D01*
X108695652Y-83967658D01*
X108766403Y-84019730D01*
X108818636Y-84080584D01*
X108855371Y-84159887D01*
X108879634Y-84267309D01*
X108894445Y-84412517D01*
X108902829Y-84605179D01*
X108903564Y-84632628D01*
X108914120Y-85046521D01*
X108825291Y-85092456D01*
X108761018Y-85123498D01*
X108722210Y-85138206D01*
X108720415Y-85138391D01*
X108713700Y-85111250D01*
X108708365Y-85038041D01*
X108705083Y-84931081D01*
X108704368Y-84844469D01*
X108704351Y-84704162D01*
X108697937Y-84616051D01*
X108675580Y-84574025D01*
X108627732Y-84571975D01*
X108544849Y-84603790D01*
X108419713Y-84662272D01*
X108327697Y-84710845D01*
X108280371Y-84752986D01*
X108266458Y-84798916D01*
X108266437Y-84801189D01*
X108289395Y-84880311D01*
X108357370Y-84923055D01*
X108461398Y-84929246D01*
X108536330Y-84928172D01*
X108575839Y-84949753D01*
X108600478Y-85001591D01*
X108614659Y-85067632D01*
X108594223Y-85105104D01*
X108586528Y-85110467D01*
X108514083Y-85132006D01*
X108412633Y-85135055D01*
X108308157Y-85120778D01*
X108234125Y-85094688D01*
X108131772Y-85007785D01*
X108073591Y-84886816D01*
X108062069Y-84792308D01*
X108070862Y-84707062D01*
X108102680Y-84637476D01*
X108165684Y-84575672D01*
X108268031Y-84513772D01*
X108417882Y-84443897D01*
X108427012Y-84439948D01*
X108561997Y-84377588D01*
X108645294Y-84326446D01*
X108680997Y-84280488D01*
X108673203Y-84233683D01*
X108626007Y-84179998D01*
X108611894Y-84167644D01*
X108517359Y-84119741D01*
X108419406Y-84121758D01*
X108334097Y-84168724D01*
X108277496Y-84255669D01*
X108272237Y-84272734D01*
X108221023Y-84355504D01*
X108156037Y-84395372D01*
X108062069Y-84434882D01*
X108062069Y-84332658D01*
X108090653Y-84184072D01*
X108175495Y-84047784D01*
X108219645Y-84002191D01*
X108320005Y-83943674D01*
X108447635Y-83917184D01*
X108579944Y-83924360D01*
G36*
X108579944Y-83924360D02*
G01*
X108694343Y-83966842D01*
X108695652Y-83967658D01*
X108766403Y-84019730D01*
X108818636Y-84080584D01*
X108855371Y-84159887D01*
X108879634Y-84267309D01*
X108894445Y-84412517D01*
X108902829Y-84605179D01*
X108903564Y-84632628D01*
X108914120Y-85046521D01*
X108825291Y-85092456D01*
X108761018Y-85123498D01*
X108722210Y-85138206D01*
X108720415Y-85138391D01*
X108713700Y-85111250D01*
X108708365Y-85038041D01*
X108705083Y-84931081D01*
X108704368Y-84844469D01*
X108704351Y-84704162D01*
X108697937Y-84616051D01*
X108675580Y-84574025D01*
X108627732Y-84571975D01*
X108544849Y-84603790D01*
X108419713Y-84662272D01*
X108327697Y-84710845D01*
X108280371Y-84752986D01*
X108266458Y-84798916D01*
X108266437Y-84801189D01*
X108289395Y-84880311D01*
X108357370Y-84923055D01*
X108461398Y-84929246D01*
X108536330Y-84928172D01*
X108575839Y-84949753D01*
X108600478Y-85001591D01*
X108614659Y-85067632D01*
X108594223Y-85105104D01*
X108586528Y-85110467D01*
X108514083Y-85132006D01*
X108412633Y-85135055D01*
X108308157Y-85120778D01*
X108234125Y-85094688D01*
X108131772Y-85007785D01*
X108073591Y-84886816D01*
X108062069Y-84792308D01*
X108070862Y-84707062D01*
X108102680Y-84637476D01*
X108165684Y-84575672D01*
X108268031Y-84513772D01*
X108417882Y-84443897D01*
X108427012Y-84439948D01*
X108561997Y-84377588D01*
X108645294Y-84326446D01*
X108680997Y-84280488D01*
X108673203Y-84233683D01*
X108626007Y-84179998D01*
X108611894Y-84167644D01*
X108517359Y-84119741D01*
X108419406Y-84121758D01*
X108334097Y-84168724D01*
X108277496Y-84255669D01*
X108272237Y-84272734D01*
X108221023Y-84355504D01*
X108156037Y-84395372D01*
X108062069Y-84434882D01*
X108062069Y-84332658D01*
X108090653Y-84184072D01*
X108175495Y-84047784D01*
X108219645Y-84002191D01*
X108320005Y-83943674D01*
X108447635Y-83917184D01*
X108579944Y-83924360D01*
G37*
X103671900Y-83861903D02*
X103783450Y-83917522D01*
X103881908Y-84019931D01*
X103909023Y-84057864D01*
X103938562Y-84107500D01*
X103957728Y-84161412D01*
X103968693Y-84233364D01*
X103973629Y-84337122D01*
X103974713Y-84474101D01*
X103969818Y-84661815D01*
X103952804Y-84802758D01*
X103920177Y-84907908D01*
X103868442Y-84988243D01*
X103794104Y-85054741D01*
X103788642Y-85058678D01*
X103715380Y-85098953D01*
X103627160Y-85118880D01*
X103514962Y-85123793D01*
X103332567Y-85123793D01*
X103332491Y-85300857D01*
X103330793Y-85399470D01*
X103320450Y-85457314D01*
X103293422Y-85492006D01*
X103241668Y-85521164D01*
X103229239Y-85527121D01*
X103171077Y-85555039D01*
X103126044Y-85572672D01*
X103092559Y-85574194D01*
X103069038Y-85553781D01*
X103053900Y-85505607D01*
X103045563Y-85423846D01*
X103042444Y-85302672D01*
X103042960Y-85136260D01*
X103045529Y-84918785D01*
X103046332Y-84853736D01*
X103049222Y-84629502D01*
X103051812Y-84482821D01*
X103332414Y-84482821D01*
X103333991Y-84607326D01*
X103341000Y-84688787D01*
X103356858Y-84742515D01*
X103384981Y-84783823D01*
X103404075Y-84803971D01*
X103482135Y-84862921D01*
X103551247Y-84867720D01*
X103622560Y-84819038D01*
X103624368Y-84817241D01*
X103653383Y-84779618D01*
X103671033Y-84728484D01*
X103679936Y-84649738D01*
X103682709Y-84529276D01*
X103682759Y-84502588D01*
X103676058Y-84336583D01*
X103654248Y-84221505D01*
X103614765Y-84151254D01*
X103555044Y-84119729D01*
X103520528Y-84116552D01*
X103438611Y-84131460D01*
X103382421Y-84180548D01*
X103348598Y-84270362D01*
X103333780Y-84407445D01*
X103332414Y-84482821D01*
X103051812Y-84482821D01*
X103052287Y-84455952D01*
X103056247Y-84325382D01*
X103061826Y-84230087D01*
X103069746Y-84162364D01*
X103080731Y-84114507D01*
X103095501Y-84078813D01*
X103114782Y-84047578D01*
X103123049Y-84035824D01*
X103232712Y-83924797D01*
X103371365Y-83861847D01*
X103531754Y-83844297D01*
X103671900Y-83861903D01*
G36*
X103671900Y-83861903D02*
G01*
X103783450Y-83917522D01*
X103881908Y-84019931D01*
X103909023Y-84057864D01*
X103938562Y-84107500D01*
X103957728Y-84161412D01*
X103968693Y-84233364D01*
X103973629Y-84337122D01*
X103974713Y-84474101D01*
X103969818Y-84661815D01*
X103952804Y-84802758D01*
X103920177Y-84907908D01*
X103868442Y-84988243D01*
X103794104Y-85054741D01*
X103788642Y-85058678D01*
X103715380Y-85098953D01*
X103627160Y-85118880D01*
X103514962Y-85123793D01*
X103332567Y-85123793D01*
X103332491Y-85300857D01*
X103330793Y-85399470D01*
X103320450Y-85457314D01*
X103293422Y-85492006D01*
X103241668Y-85521164D01*
X103229239Y-85527121D01*
X103171077Y-85555039D01*
X103126044Y-85572672D01*
X103092559Y-85574194D01*
X103069038Y-85553781D01*
X103053900Y-85505607D01*
X103045563Y-85423846D01*
X103042444Y-85302672D01*
X103042960Y-85136260D01*
X103045529Y-84918785D01*
X103046332Y-84853736D01*
X103049222Y-84629502D01*
X103051812Y-84482821D01*
X103332414Y-84482821D01*
X103333991Y-84607326D01*
X103341000Y-84688787D01*
X103356858Y-84742515D01*
X103384981Y-84783823D01*
X103404075Y-84803971D01*
X103482135Y-84862921D01*
X103551247Y-84867720D01*
X103622560Y-84819038D01*
X103624368Y-84817241D01*
X103653383Y-84779618D01*
X103671033Y-84728484D01*
X103679936Y-84649738D01*
X103682709Y-84529276D01*
X103682759Y-84502588D01*
X103676058Y-84336583D01*
X103654248Y-84221505D01*
X103614765Y-84151254D01*
X103555044Y-84119729D01*
X103520528Y-84116552D01*
X103438611Y-84131460D01*
X103382421Y-84180548D01*
X103348598Y-84270362D01*
X103333780Y-84407445D01*
X103332414Y-84482821D01*
X103051812Y-84482821D01*
X103052287Y-84455952D01*
X103056247Y-84325382D01*
X103061826Y-84230087D01*
X103069746Y-84162364D01*
X103080731Y-84114507D01*
X103095501Y-84078813D01*
X103114782Y-84047578D01*
X103123049Y-84035824D01*
X103232712Y-83924797D01*
X103371365Y-83861847D01*
X103531754Y-83844297D01*
X103671900Y-83861903D01*
G37*
X112814406Y-83935156D02*
X112898469Y-83973393D01*
X112964450Y-84019726D01*
X113012794Y-84071532D01*
X113046172Y-84138363D01*
X113067253Y-84229769D01*
X113078707Y-84355301D01*
X113083203Y-84524508D01*
X113083678Y-84635933D01*
X113083678Y-85070627D01*
X113009316Y-85104509D01*
X112950746Y-85129272D01*
X112921730Y-85138391D01*
X112916179Y-85111257D01*
X112911775Y-85038094D01*
X112909078Y-84931263D01*
X112908506Y-84846437D01*
X112906046Y-84723887D01*
X112899412Y-84626668D01*
X112889726Y-84567134D01*
X112882032Y-84554483D01*
X112830311Y-84567402D01*
X112749117Y-84600539D01*
X112655102Y-84645461D01*
X112564917Y-84693735D01*
X112495215Y-84736928D01*
X112462648Y-84766608D01*
X112462519Y-84766929D01*
X112465320Y-84821857D01*
X112490439Y-84874292D01*
X112534541Y-84916881D01*
X112598909Y-84931126D01*
X112653921Y-84929466D01*
X112731835Y-84928245D01*
X112772732Y-84946498D01*
X112797295Y-84994726D01*
X112800392Y-85003820D01*
X112811040Y-85072598D01*
X112782565Y-85114360D01*
X112708344Y-85134263D01*
X112628168Y-85137944D01*
X112483890Y-85110658D01*
X112409203Y-85071690D01*
X112316963Y-84980148D01*
X112268043Y-84867782D01*
X112263654Y-84749051D01*
X112305001Y-84638411D01*
X112367197Y-84569080D01*
X112429294Y-84530265D01*
X112526895Y-84481125D01*
X112640632Y-84431292D01*
X112659590Y-84423677D01*
X112784521Y-84368545D01*
X112856539Y-84319954D01*
X112879700Y-84271647D01*
X112858064Y-84217370D01*
X112820920Y-84174943D01*
X112733127Y-84122702D01*
X112636530Y-84118784D01*
X112547944Y-84159041D01*
X112484186Y-84239326D01*
X112475817Y-84260040D01*
X112427096Y-84336225D01*
X112355965Y-84392785D01*
X112266207Y-84439201D01*
X112266207Y-84307584D01*
X112271490Y-84227168D01*
X112294142Y-84163786D01*
X112344367Y-84096163D01*
X112392582Y-84044076D01*
X112467554Y-83970322D01*
X112525806Y-83930702D01*
X112588372Y-83914810D01*
X112659193Y-83912184D01*
X112814406Y-83935156D01*
G36*
X112814406Y-83935156D02*
G01*
X112898469Y-83973393D01*
X112964450Y-84019726D01*
X113012794Y-84071532D01*
X113046172Y-84138363D01*
X113067253Y-84229769D01*
X113078707Y-84355301D01*
X113083203Y-84524508D01*
X113083678Y-84635933D01*
X113083678Y-85070627D01*
X113009316Y-85104509D01*
X112950746Y-85129272D01*
X112921730Y-85138391D01*
X112916179Y-85111257D01*
X112911775Y-85038094D01*
X112909078Y-84931263D01*
X112908506Y-84846437D01*
X112906046Y-84723887D01*
X112899412Y-84626668D01*
X112889726Y-84567134D01*
X112882032Y-84554483D01*
X112830311Y-84567402D01*
X112749117Y-84600539D01*
X112655102Y-84645461D01*
X112564917Y-84693735D01*
X112495215Y-84736928D01*
X112462648Y-84766608D01*
X112462519Y-84766929D01*
X112465320Y-84821857D01*
X112490439Y-84874292D01*
X112534541Y-84916881D01*
X112598909Y-84931126D01*
X112653921Y-84929466D01*
X112731835Y-84928245D01*
X112772732Y-84946498D01*
X112797295Y-84994726D01*
X112800392Y-85003820D01*
X112811040Y-85072598D01*
X112782565Y-85114360D01*
X112708344Y-85134263D01*
X112628168Y-85137944D01*
X112483890Y-85110658D01*
X112409203Y-85071690D01*
X112316963Y-84980148D01*
X112268043Y-84867782D01*
X112263654Y-84749051D01*
X112305001Y-84638411D01*
X112367197Y-84569080D01*
X112429294Y-84530265D01*
X112526895Y-84481125D01*
X112640632Y-84431292D01*
X112659590Y-84423677D01*
X112784521Y-84368545D01*
X112856539Y-84319954D01*
X112879700Y-84271647D01*
X112858064Y-84217370D01*
X112820920Y-84174943D01*
X112733127Y-84122702D01*
X112636530Y-84118784D01*
X112547944Y-84159041D01*
X112484186Y-84239326D01*
X112475817Y-84260040D01*
X112427096Y-84336225D01*
X112355965Y-84392785D01*
X112266207Y-84439201D01*
X112266207Y-84307584D01*
X112271490Y-84227168D01*
X112294142Y-84163786D01*
X112344367Y-84096163D01*
X112392582Y-84044076D01*
X112467554Y-83970322D01*
X112525806Y-83930702D01*
X112588372Y-83914810D01*
X112659193Y-83912184D01*
X112814406Y-83935156D01*
G37*
X108709014Y-74452998D02*
X108867006Y-74453863D01*
X108981347Y-74456205D01*
X109059407Y-74460762D01*
X109108554Y-74468270D01*
X109136159Y-74479466D01*
X109149592Y-74495088D01*
X109156221Y-74515873D01*
X109156865Y-74518563D01*
X109166935Y-74567113D01*
X109185575Y-74662905D01*
X109210845Y-74795743D01*
X109240807Y-74955431D01*
X109273522Y-75131774D01*
X109274664Y-75137967D01*
X109307433Y-75310782D01*
X109338093Y-75463469D01*
X109364664Y-75586871D01*
X109385167Y-75671831D01*
X109397626Y-75709190D01*
X109398220Y-75709852D01*
X109434919Y-75728095D01*
X109510586Y-75758497D01*
X109608878Y-75794493D01*
X109609425Y-75794685D01*
X109733233Y-75841222D01*
X109879196Y-75900504D01*
X110016781Y-75960109D01*
X110023293Y-75963056D01*
X110247390Y-76064765D01*
X110743619Y-75725897D01*
X110895846Y-75622592D01*
X111033741Y-75530237D01*
X111149315Y-75454084D01*
X111234579Y-75399385D01*
X111281544Y-75371393D01*
X111286004Y-75369317D01*
X111320134Y-75378560D01*
X111383881Y-75423156D01*
X111479731Y-75505209D01*
X111610169Y-75626821D01*
X111743328Y-75756205D01*
X111871694Y-75883702D01*
X111986581Y-76000046D01*
X112081073Y-76098052D01*
X112148253Y-76170536D01*
X112181206Y-76210313D01*
X112182432Y-76212361D01*
X112186074Y-76239656D01*
X112172350Y-76284234D01*
X112137869Y-76352112D01*
X112079239Y-76449311D01*
X111993070Y-76581851D01*
X111878200Y-76752476D01*
X111776254Y-76902655D01*
X111685123Y-77037350D01*
X111610073Y-77148740D01*
X111556369Y-77229005D01*
X111529280Y-77270325D01*
X111527574Y-77273130D01*
X111530882Y-77312721D01*
X111555953Y-77389669D01*
X111597798Y-77489432D01*
X111612712Y-77521291D01*
X111677786Y-77663226D01*
X111747212Y-77824273D01*
X111803609Y-77963621D01*
X111844247Y-78067044D01*
X111876526Y-78145642D01*
X111895178Y-78186720D01*
X111897497Y-78189885D01*
X111931803Y-78195128D01*
X112012669Y-78209494D01*
X112129343Y-78230937D01*
X112271075Y-78257413D01*
X112427110Y-78286877D01*
X112586698Y-78317283D01*
X112739085Y-78346588D01*
X112873521Y-78372745D01*
X112979252Y-78393710D01*
X113045526Y-78407439D01*
X113061782Y-78411320D01*
X113078573Y-78420900D01*
X113091249Y-78442536D01*
X113100378Y-78483531D01*
X113106531Y-78551189D01*
X113110280Y-78652812D01*
X113112192Y-78795703D01*
X113112840Y-78987165D01*
X113112874Y-79065645D01*
X113112874Y-79703906D01*
X112959598Y-79734160D01*
X112874322Y-79750564D01*
X112747070Y-79774509D01*
X112593315Y-79803107D01*
X112428534Y-79833467D01*
X112382989Y-79841806D01*
X112230932Y-79871370D01*
X112098468Y-79900442D01*
X111996714Y-79926329D01*
X111936788Y-79946337D01*
X111926805Y-79952301D01*
X111902293Y-79994534D01*
X111867148Y-80076370D01*
X111828173Y-80181683D01*
X111820442Y-80204368D01*
X111769360Y-80345018D01*
X111705954Y-80503714D01*
X111643904Y-80646225D01*
X111643598Y-80646886D01*
X111540267Y-80870440D01*
X112219961Y-81870232D01*
X111783621Y-82307300D01*
X111651649Y-82437381D01*
X111531279Y-82552048D01*
X111429273Y-82645181D01*
X111352391Y-82710658D01*
X111307393Y-82742357D01*
X111300938Y-82744368D01*
X111263040Y-82728529D01*
X111185708Y-82684496D01*
X111077389Y-82617490D01*
X110946532Y-82532734D01*
X110805052Y-82437816D01*
X110661461Y-82340998D01*
X110533435Y-82256751D01*
X110429105Y-82190258D01*
X110356600Y-82146702D01*
X110324158Y-82131264D01*
X110284576Y-82144328D01*
X110209519Y-82178750D01*
X110114468Y-82227380D01*
X110104392Y-82232785D01*
X109976391Y-82296980D01*
X109888618Y-82328463D01*
X109834028Y-82328798D01*
X109805575Y-82299548D01*
X109805410Y-82299138D01*
X109791188Y-82264498D01*
X109757269Y-82182269D01*
X109706284Y-82058814D01*
X109640862Y-81900498D01*
X109563634Y-81713686D01*
X109477229Y-81504742D01*
X109393551Y-81302446D01*
X109301588Y-81079200D01*
X109217150Y-80872392D01*
X109142769Y-80688362D01*
X109080974Y-80533451D01*
X109034297Y-80413996D01*
X109005268Y-80336339D01*
X108996322Y-80307356D01*
X109018756Y-80274110D01*
X109077439Y-80221123D01*
X109155689Y-80162704D01*
X109378534Y-79977952D01*
X109552718Y-79766182D01*
X109676154Y-79531856D01*
X109746754Y-79279434D01*
X109762431Y-79013377D01*
X109751036Y-78890575D01*
X109688950Y-78635793D01*
X109582023Y-78410801D01*
X109436889Y-78217817D01*
X109260178Y-78059061D01*
X109058522Y-77936750D01*
X108838554Y-77853105D01*
X108606906Y-77810344D01*
X108370209Y-77810687D01*
X108135095Y-77856352D01*
X107908196Y-77949559D01*
X107696144Y-78092527D01*
X107607636Y-78173383D01*
X107437889Y-78381007D01*
X107319699Y-78607895D01*
X107252278Y-78847433D01*
X107234840Y-79093007D01*
X107266598Y-79338003D01*
X107346765Y-79575808D01*
X107474555Y-79799807D01*
X107649180Y-80003387D01*
X107844312Y-80162704D01*
X107925591Y-80223602D01*
X107983009Y-80276015D01*
X108003678Y-80307406D01*
X107992856Y-80341639D01*
X107962077Y-80423419D01*
X107913874Y-80546407D01*
X107850778Y-80704263D01*
X107775322Y-80890649D01*
X107690038Y-81099226D01*
X107606219Y-81302496D01*
X107513745Y-81525933D01*
X107428089Y-81732984D01*
X107351882Y-81917286D01*
X107287753Y-82072475D01*
X107238332Y-82192188D01*
X107206248Y-82270061D01*
X107194359Y-82299138D01*
X107166274Y-82328677D01*
X107111949Y-82328591D01*
X107024395Y-82297326D01*
X106896619Y-82233329D01*
X106895608Y-82232785D01*
X106799402Y-82183121D01*
X106721631Y-82146945D01*
X106677777Y-82131408D01*
X106675842Y-82131264D01*
X106642829Y-82147024D01*
X106569946Y-82190850D01*
X106465322Y-82257557D01*
X106337090Y-82341964D01*
X106194948Y-82437816D01*
X106050233Y-82534867D01*
X105919804Y-82619270D01*
X105812110Y-82685801D01*
X105735598Y-82729238D01*
X105699062Y-82744368D01*
X105665418Y-82724482D01*
X105597776Y-82668903D01*
X105502893Y-82583754D01*
X105387530Y-82475153D01*
X105258445Y-82349221D01*
X105216229Y-82307149D01*
X104779739Y-81869931D01*
X105111977Y-81382340D01*
X105212946Y-81232605D01*
X105301562Y-81098220D01*
X105372854Y-80986969D01*
X105421850Y-80906639D01*
X105443578Y-80865014D01*
X105444215Y-80862053D01*
X105432760Y-80822818D01*
X105401949Y-80743895D01*
X105357116Y-80638509D01*
X105325647Y-80567954D01*
X105266808Y-80432876D01*
X105211396Y-80296409D01*
X105168436Y-80181103D01*
X105156766Y-80145977D01*
X105123611Y-80052174D01*
X105091201Y-79979694D01*
X105073399Y-79952301D01*
X105034114Y-79935536D01*
X104948374Y-79911770D01*
X104827303Y-79883697D01*
X104682027Y-79854009D01*
X104617012Y-79841806D01*
X104451913Y-79811468D01*
X104293552Y-79782093D01*
X104157404Y-79756569D01*
X104058943Y-79737785D01*
X104040402Y-79734160D01*
X103887127Y-79703906D01*
X103887127Y-79065645D01*
X103887471Y-78855770D01*
X103888884Y-78696980D01*
X103891936Y-78581973D01*
X103897197Y-78503446D01*
X103905237Y-78454096D01*
X103916627Y-78426619D01*
X103931937Y-78413713D01*
X103938218Y-78411320D01*
X103976104Y-78402833D01*
X104059805Y-78385900D01*
X104178567Y-78362566D01*
X104321639Y-78334875D01*
X104478268Y-78304873D01*
X104637703Y-78274604D01*
X104789191Y-78246115D01*
X104921981Y-78221449D01*
X105025319Y-78202651D01*
X105088455Y-78191767D01*
X105102503Y-78189885D01*
X105115230Y-78164704D01*
X105143400Y-78097622D01*
X105181748Y-78001333D01*
X105196391Y-77963621D01*
X105255452Y-77817921D01*
X105325000Y-77656951D01*
X105387288Y-77521291D01*
X105433121Y-77417561D01*
X105463613Y-77332326D01*
X105473792Y-77280126D01*
X105472169Y-77273130D01*
X105450657Y-77240102D01*
X105401535Y-77166643D01*
X105330077Y-77060577D01*
X105241555Y-76929726D01*
X105141241Y-76781912D01*
X105121406Y-76752734D01*
X105005012Y-76579863D01*
X104919452Y-76448226D01*
X104861316Y-76351761D01*
X104827192Y-76284408D01*
X104813669Y-76240106D01*
X104817336Y-76212794D01*
X104817430Y-76212620D01*
X104846293Y-76176746D01*
X104910133Y-76107391D01*
X105002031Y-76011745D01*
X105115067Y-75896999D01*
X105242321Y-75770341D01*
X105256672Y-75756205D01*
X105417043Y-75600903D01*
X105540805Y-75486870D01*
X105630445Y-75412002D01*
X105688448Y-75374196D01*
X105713996Y-75369317D01*
X105751282Y-75390603D01*
X105828657Y-75439773D01*
X105938133Y-75511575D01*
X106071720Y-75600755D01*
X106221430Y-75702063D01*
X106256382Y-75725897D01*
X106752610Y-76064765D01*
X106976707Y-75963056D01*
X107112989Y-75903783D01*
X107259276Y-75844170D01*
X107385035Y-75796640D01*
X107390575Y-75794685D01*
X107488943Y-75758677D01*
X107564771Y-75728229D01*
X107601718Y-75709905D01*
X107601780Y-75709852D01*
X107613504Y-75676729D01*
X107633432Y-75595267D01*
X107659587Y-75474625D01*
X107689990Y-75323959D01*
X107722663Y-75152428D01*
X107725336Y-75137967D01*
X107758110Y-74961235D01*
X107788198Y-74800810D01*
X107813661Y-74666888D01*
X107832559Y-74569663D01*
X107842953Y-74519332D01*
X107843135Y-74518563D01*
X107849461Y-74497153D01*
X107861761Y-74480988D01*
X107887406Y-74469331D01*
X107933765Y-74461445D01*
X108008208Y-74456593D01*
X108118105Y-74454039D01*
X108270825Y-74453045D01*
X108473738Y-74452874D01*
X108500000Y-74452874D01*
X108709014Y-74452998D01*
G36*
X108709014Y-74452998D02*
G01*
X108867006Y-74453863D01*
X108981347Y-74456205D01*
X109059407Y-74460762D01*
X109108554Y-74468270D01*
X109136159Y-74479466D01*
X109149592Y-74495088D01*
X109156221Y-74515873D01*
X109156865Y-74518563D01*
X109166935Y-74567113D01*
X109185575Y-74662905D01*
X109210845Y-74795743D01*
X109240807Y-74955431D01*
X109273522Y-75131774D01*
X109274664Y-75137967D01*
X109307433Y-75310782D01*
X109338093Y-75463469D01*
X109364664Y-75586871D01*
X109385167Y-75671831D01*
X109397626Y-75709190D01*
X109398220Y-75709852D01*
X109434919Y-75728095D01*
X109510586Y-75758497D01*
X109608878Y-75794493D01*
X109609425Y-75794685D01*
X109733233Y-75841222D01*
X109879196Y-75900504D01*
X110016781Y-75960109D01*
X110023293Y-75963056D01*
X110247390Y-76064765D01*
X110743619Y-75725897D01*
X110895846Y-75622592D01*
X111033741Y-75530237D01*
X111149315Y-75454084D01*
X111234579Y-75399385D01*
X111281544Y-75371393D01*
X111286004Y-75369317D01*
X111320134Y-75378560D01*
X111383881Y-75423156D01*
X111479731Y-75505209D01*
X111610169Y-75626821D01*
X111743328Y-75756205D01*
X111871694Y-75883702D01*
X111986581Y-76000046D01*
X112081073Y-76098052D01*
X112148253Y-76170536D01*
X112181206Y-76210313D01*
X112182432Y-76212361D01*
X112186074Y-76239656D01*
X112172350Y-76284234D01*
X112137869Y-76352112D01*
X112079239Y-76449311D01*
X111993070Y-76581851D01*
X111878200Y-76752476D01*
X111776254Y-76902655D01*
X111685123Y-77037350D01*
X111610073Y-77148740D01*
X111556369Y-77229005D01*
X111529280Y-77270325D01*
X111527574Y-77273130D01*
X111530882Y-77312721D01*
X111555953Y-77389669D01*
X111597798Y-77489432D01*
X111612712Y-77521291D01*
X111677786Y-77663226D01*
X111747212Y-77824273D01*
X111803609Y-77963621D01*
X111844247Y-78067044D01*
X111876526Y-78145642D01*
X111895178Y-78186720D01*
X111897497Y-78189885D01*
X111931803Y-78195128D01*
X112012669Y-78209494D01*
X112129343Y-78230937D01*
X112271075Y-78257413D01*
X112427110Y-78286877D01*
X112586698Y-78317283D01*
X112739085Y-78346588D01*
X112873521Y-78372745D01*
X112979252Y-78393710D01*
X113045526Y-78407439D01*
X113061782Y-78411320D01*
X113078573Y-78420900D01*
X113091249Y-78442536D01*
X113100378Y-78483531D01*
X113106531Y-78551189D01*
X113110280Y-78652812D01*
X113112192Y-78795703D01*
X113112840Y-78987165D01*
X113112874Y-79065645D01*
X113112874Y-79703906D01*
X112959598Y-79734160D01*
X112874322Y-79750564D01*
X112747070Y-79774509D01*
X112593315Y-79803107D01*
X112428534Y-79833467D01*
X112382989Y-79841806D01*
X112230932Y-79871370D01*
X112098468Y-79900442D01*
X111996714Y-79926329D01*
X111936788Y-79946337D01*
X111926805Y-79952301D01*
X111902293Y-79994534D01*
X111867148Y-80076370D01*
X111828173Y-80181683D01*
X111820442Y-80204368D01*
X111769360Y-80345018D01*
X111705954Y-80503714D01*
X111643904Y-80646225D01*
X111643598Y-80646886D01*
X111540267Y-80870440D01*
X112219961Y-81870232D01*
X111783621Y-82307300D01*
X111651649Y-82437381D01*
X111531279Y-82552048D01*
X111429273Y-82645181D01*
X111352391Y-82710658D01*
X111307393Y-82742357D01*
X111300938Y-82744368D01*
X111263040Y-82728529D01*
X111185708Y-82684496D01*
X111077389Y-82617490D01*
X110946532Y-82532734D01*
X110805052Y-82437816D01*
X110661461Y-82340998D01*
X110533435Y-82256751D01*
X110429105Y-82190258D01*
X110356600Y-82146702D01*
X110324158Y-82131264D01*
X110284576Y-82144328D01*
X110209519Y-82178750D01*
X110114468Y-82227380D01*
X110104392Y-82232785D01*
X109976391Y-82296980D01*
X109888618Y-82328463D01*
X109834028Y-82328798D01*
X109805575Y-82299548D01*
X109805410Y-82299138D01*
X109791188Y-82264498D01*
X109757269Y-82182269D01*
X109706284Y-82058814D01*
X109640862Y-81900498D01*
X109563634Y-81713686D01*
X109477229Y-81504742D01*
X109393551Y-81302446D01*
X109301588Y-81079200D01*
X109217150Y-80872392D01*
X109142769Y-80688362D01*
X109080974Y-80533451D01*
X109034297Y-80413996D01*
X109005268Y-80336339D01*
X108996322Y-80307356D01*
X109018756Y-80274110D01*
X109077439Y-80221123D01*
X109155689Y-80162704D01*
X109378534Y-79977952D01*
X109552718Y-79766182D01*
X109676154Y-79531856D01*
X109746754Y-79279434D01*
X109762431Y-79013377D01*
X109751036Y-78890575D01*
X109688950Y-78635793D01*
X109582023Y-78410801D01*
X109436889Y-78217817D01*
X109260178Y-78059061D01*
X109058522Y-77936750D01*
X108838554Y-77853105D01*
X108606906Y-77810344D01*
X108370209Y-77810687D01*
X108135095Y-77856352D01*
X107908196Y-77949559D01*
X107696144Y-78092527D01*
X107607636Y-78173383D01*
X107437889Y-78381007D01*
X107319699Y-78607895D01*
X107252278Y-78847433D01*
X107234840Y-79093007D01*
X107266598Y-79338003D01*
X107346765Y-79575808D01*
X107474555Y-79799807D01*
X107649180Y-80003387D01*
X107844312Y-80162704D01*
X107925591Y-80223602D01*
X107983009Y-80276015D01*
X108003678Y-80307406D01*
X107992856Y-80341639D01*
X107962077Y-80423419D01*
X107913874Y-80546407D01*
X107850778Y-80704263D01*
X107775322Y-80890649D01*
X107690038Y-81099226D01*
X107606219Y-81302496D01*
X107513745Y-81525933D01*
X107428089Y-81732984D01*
X107351882Y-81917286D01*
X107287753Y-82072475D01*
X107238332Y-82192188D01*
X107206248Y-82270061D01*
X107194359Y-82299138D01*
X107166274Y-82328677D01*
X107111949Y-82328591D01*
X107024395Y-82297326D01*
X106896619Y-82233329D01*
X106895608Y-82232785D01*
X106799402Y-82183121D01*
X106721631Y-82146945D01*
X106677777Y-82131408D01*
X106675842Y-82131264D01*
X106642829Y-82147024D01*
X106569946Y-82190850D01*
X106465322Y-82257557D01*
X106337090Y-82341964D01*
X106194948Y-82437816D01*
X106050233Y-82534867D01*
X105919804Y-82619270D01*
X105812110Y-82685801D01*
X105735598Y-82729238D01*
X105699062Y-82744368D01*
X105665418Y-82724482D01*
X105597776Y-82668903D01*
X105502893Y-82583754D01*
X105387530Y-82475153D01*
X105258445Y-82349221D01*
X105216229Y-82307149D01*
X104779739Y-81869931D01*
X105111977Y-81382340D01*
X105212946Y-81232605D01*
X105301562Y-81098220D01*
X105372854Y-80986969D01*
X105421850Y-80906639D01*
X105443578Y-80865014D01*
X105444215Y-80862053D01*
X105432760Y-80822818D01*
X105401949Y-80743895D01*
X105357116Y-80638509D01*
X105325647Y-80567954D01*
X105266808Y-80432876D01*
X105211396Y-80296409D01*
X105168436Y-80181103D01*
X105156766Y-80145977D01*
X105123611Y-80052174D01*
X105091201Y-79979694D01*
X105073399Y-79952301D01*
X105034114Y-79935536D01*
X104948374Y-79911770D01*
X104827303Y-79883697D01*
X104682027Y-79854009D01*
X104617012Y-79841806D01*
X104451913Y-79811468D01*
X104293552Y-79782093D01*
X104157404Y-79756569D01*
X104058943Y-79737785D01*
X104040402Y-79734160D01*
X103887127Y-79703906D01*
X103887127Y-79065645D01*
X103887471Y-78855770D01*
X103888884Y-78696980D01*
X103891936Y-78581973D01*
X103897197Y-78503446D01*
X103905237Y-78454096D01*
X103916627Y-78426619D01*
X103931937Y-78413713D01*
X103938218Y-78411320D01*
X103976104Y-78402833D01*
X104059805Y-78385900D01*
X104178567Y-78362566D01*
X104321639Y-78334875D01*
X104478268Y-78304873D01*
X104637703Y-78274604D01*
X104789191Y-78246115D01*
X104921981Y-78221449D01*
X105025319Y-78202651D01*
X105088455Y-78191767D01*
X105102503Y-78189885D01*
X105115230Y-78164704D01*
X105143400Y-78097622D01*
X105181748Y-78001333D01*
X105196391Y-77963621D01*
X105255452Y-77817921D01*
X105325000Y-77656951D01*
X105387288Y-77521291D01*
X105433121Y-77417561D01*
X105463613Y-77332326D01*
X105473792Y-77280126D01*
X105472169Y-77273130D01*
X105450657Y-77240102D01*
X105401535Y-77166643D01*
X105330077Y-77060577D01*
X105241555Y-76929726D01*
X105141241Y-76781912D01*
X105121406Y-76752734D01*
X105005012Y-76579863D01*
X104919452Y-76448226D01*
X104861316Y-76351761D01*
X104827192Y-76284408D01*
X104813669Y-76240106D01*
X104817336Y-76212794D01*
X104817430Y-76212620D01*
X104846293Y-76176746D01*
X104910133Y-76107391D01*
X105002031Y-76011745D01*
X105115067Y-75896999D01*
X105242321Y-75770341D01*
X105256672Y-75756205D01*
X105417043Y-75600903D01*
X105540805Y-75486870D01*
X105630445Y-75412002D01*
X105688448Y-75374196D01*
X105713996Y-75369317D01*
X105751282Y-75390603D01*
X105828657Y-75439773D01*
X105938133Y-75511575D01*
X106071720Y-75600755D01*
X106221430Y-75702063D01*
X106256382Y-75725897D01*
X106752610Y-76064765D01*
X106976707Y-75963056D01*
X107112989Y-75903783D01*
X107259276Y-75844170D01*
X107385035Y-75796640D01*
X107390575Y-75794685D01*
X107488943Y-75758677D01*
X107564771Y-75728229D01*
X107601718Y-75709905D01*
X107601780Y-75709852D01*
X107613504Y-75676729D01*
X107633432Y-75595267D01*
X107659587Y-75474625D01*
X107689990Y-75323959D01*
X107722663Y-75152428D01*
X107725336Y-75137967D01*
X107758110Y-74961235D01*
X107788198Y-74800810D01*
X107813661Y-74666888D01*
X107832559Y-74569663D01*
X107842953Y-74519332D01*
X107843135Y-74518563D01*
X107849461Y-74497153D01*
X107861761Y-74480988D01*
X107887406Y-74469331D01*
X107933765Y-74461445D01*
X108008208Y-74456593D01*
X108118105Y-74454039D01*
X108270825Y-74453045D01*
X108473738Y-74452874D01*
X108500000Y-74452874D01*
X108709014Y-74452998D01*
G37*
%TD*%
D11*
%TO.C,C1*%
X91440000Y-27940000D03*
X86440000Y-27940000D03*
%TD*%
D12*
%TO.C,U5*%
X117485000Y-63373000D03*
D13*
X117485000Y-65913000D03*
X117485000Y-68453000D03*
X117485000Y-70993000D03*
X117485000Y-73533000D03*
X117485000Y-76073000D03*
X117485000Y-78613000D03*
X117485000Y-81153000D03*
X117485000Y-83693000D03*
X117485000Y-86233000D03*
X125105000Y-86233000D03*
X125105000Y-83693000D03*
X125105000Y-81153000D03*
X125105000Y-78613000D03*
X125105000Y-76073000D03*
X125105000Y-73533000D03*
X125105000Y-70993000D03*
X125105000Y-68453000D03*
X125105000Y-65913000D03*
X125105000Y-63373000D03*
%TD*%
D11*
%TO.C,C9*%
X74930000Y-27940000D03*
X69930000Y-27940000D03*
%TD*%
D12*
%TO.C,D1*%
X26520000Y-54620000D03*
D13*
X26520000Y-47000000D03*
%TD*%
D11*
%TO.C,C5*%
X58420000Y-25400000D03*
X53420000Y-25400000D03*
%TD*%
%TO.C,C10*%
X123825000Y-24130000D03*
X118825000Y-24130000D03*
%TD*%
%TO.C,C6*%
X72390000Y-59730000D03*
X72390000Y-64730000D03*
%TD*%
D12*
%TO.C,U9*%
X35570000Y-30470000D03*
D13*
X35570000Y-33010000D03*
X35570000Y-35550000D03*
X35570000Y-38090000D03*
X35570000Y-40630000D03*
X35570000Y-43170000D03*
X35570000Y-45710000D03*
X35570000Y-48250000D03*
X43190000Y-48250000D03*
X43190000Y-45710000D03*
X43190000Y-43170000D03*
X43190000Y-40630000D03*
X43190000Y-38090000D03*
X43190000Y-35550000D03*
X43190000Y-33010000D03*
X43190000Y-30470000D03*
%TD*%
D12*
%TO.C,U1*%
X68590000Y-33020000D03*
D13*
X68590000Y-35560000D03*
X68590000Y-38100000D03*
X68590000Y-40640000D03*
X68590000Y-43180000D03*
X68590000Y-45720000D03*
X68590000Y-48260000D03*
X76210000Y-48260000D03*
X76210000Y-45720000D03*
X76210000Y-43180000D03*
X76210000Y-40640000D03*
X76210000Y-38100000D03*
X76210000Y-35560000D03*
X76210000Y-33020000D03*
%TD*%
D11*
%TO.C,C7*%
X26670000Y-59868000D03*
X26670000Y-64868000D03*
%TD*%
D12*
%TO.C,U8*%
X117485000Y-29215000D03*
D13*
X117485000Y-31755000D03*
X117485000Y-34295000D03*
X117485000Y-36835000D03*
X117485000Y-39375000D03*
X117485000Y-41915000D03*
X117485000Y-44455000D03*
X117485000Y-46995000D03*
X117485000Y-49535000D03*
X117485000Y-52075000D03*
X125105000Y-52075000D03*
X125105000Y-49535000D03*
X125105000Y-46995000D03*
X125105000Y-44455000D03*
X125105000Y-41915000D03*
X125105000Y-39375000D03*
X125105000Y-36835000D03*
X125105000Y-34295000D03*
X125105000Y-31755000D03*
X125105000Y-29215000D03*
%TD*%
D12*
%TO.C,C3*%
X25400000Y-80010000D03*
D11*
X27900000Y-80010000D03*
%TD*%
%TO.C,C4*%
X107910000Y-27940000D03*
X102910000Y-27940000D03*
%TD*%
%TO.C,C2*%
X41870000Y-25400000D03*
X36870000Y-25400000D03*
%TD*%
D12*
%TO.C,U4*%
X77470000Y-69850000D03*
D13*
X80010000Y-69850000D03*
X82550000Y-69850000D03*
X85090000Y-69850000D03*
X87630000Y-69850000D03*
X90170000Y-69850000D03*
X92710000Y-69850000D03*
X95250000Y-69850000D03*
X97790000Y-69850000D03*
X100330000Y-69850000D03*
X102870000Y-69850000D03*
X105410000Y-69850000D03*
X107950000Y-69850000D03*
X110490000Y-69850000D03*
X110490000Y-54610000D03*
X107950000Y-54610000D03*
X105410000Y-54610000D03*
X102870000Y-54610000D03*
X100330000Y-54610000D03*
X97790000Y-54610000D03*
X95250000Y-54610000D03*
X92710000Y-54610000D03*
X90170000Y-54610000D03*
X87630000Y-54610000D03*
X85090000Y-54610000D03*
X82550000Y-54610000D03*
X80010000Y-54610000D03*
X77470000Y-54610000D03*
%TD*%
D14*
%TO.C,J2*%
X26520000Y-39380000D03*
D15*
X26520000Y-41920000D03*
%TD*%
D12*
%TO.C,U6*%
X85100000Y-33015000D03*
D13*
X85100000Y-35555000D03*
X85100000Y-38095000D03*
X85100000Y-40635000D03*
X85100000Y-43175000D03*
X85100000Y-45715000D03*
X85100000Y-48255000D03*
X92720000Y-48255000D03*
X92720000Y-45715000D03*
X92720000Y-43175000D03*
X92720000Y-40635000D03*
X92720000Y-38095000D03*
X92720000Y-35555000D03*
X92720000Y-33015000D03*
%TD*%
D12*
%TO.C,U7*%
X52080000Y-30470000D03*
D13*
X52080000Y-33010000D03*
X52080000Y-35550000D03*
X52080000Y-38090000D03*
X52080000Y-40630000D03*
X52080000Y-43170000D03*
X52080000Y-45710000D03*
X52080000Y-48250000D03*
X59700000Y-48250000D03*
X59700000Y-45710000D03*
X59700000Y-43170000D03*
X59700000Y-40630000D03*
X59700000Y-38090000D03*
X59700000Y-35550000D03*
X59700000Y-33010000D03*
X59700000Y-30470000D03*
%TD*%
D11*
%TO.C,C8*%
X123785000Y-58420000D03*
X118785000Y-58420000D03*
%TD*%
D12*
%TO.C,U2*%
X31750000Y-70104000D03*
D13*
X34290000Y-70104000D03*
X36830000Y-70104000D03*
X39370000Y-70104000D03*
X41910000Y-70104000D03*
X44450000Y-70104000D03*
X46990000Y-70104000D03*
X49530000Y-70104000D03*
X52070000Y-70104000D03*
X54610000Y-70104000D03*
X57150000Y-70104000D03*
X59690000Y-70104000D03*
X62230000Y-70104000D03*
X64770000Y-70104000D03*
X64770000Y-54864000D03*
X62230000Y-54864000D03*
X59690000Y-54864000D03*
X57150000Y-54864000D03*
X54610000Y-54864000D03*
X52070000Y-54864000D03*
X49530000Y-54864000D03*
X46990000Y-54864000D03*
X44450000Y-54864000D03*
X41910000Y-54864000D03*
X39370000Y-54864000D03*
X36830000Y-54864000D03*
X34290000Y-54864000D03*
X31750000Y-54864000D03*
%TD*%
D16*
%TO.C,J3*%
X26520000Y-26172000D03*
D17*
X26520000Y-31252000D03*
%TD*%
D12*
%TO.C,U3*%
X101610000Y-33015000D03*
D13*
X101610000Y-35555000D03*
X101610000Y-38095000D03*
X101610000Y-40635000D03*
X101610000Y-43175000D03*
X101610000Y-45715000D03*
X101610000Y-48255000D03*
X109230000Y-48255000D03*
X109230000Y-45715000D03*
X109230000Y-43175000D03*
X109230000Y-40635000D03*
X109230000Y-38095000D03*
X109230000Y-35555000D03*
X109230000Y-33015000D03*
%TD*%
D14*
%TO.C,J1*%
X99055000Y-80518000D03*
D15*
X99055000Y-77978000D03*
X96515000Y-80518000D03*
X96515000Y-77978000D03*
X93975000Y-80518000D03*
X93975000Y-77978000D03*
X91435000Y-80518000D03*
X91435000Y-77978000D03*
X88895000Y-80518000D03*
X88895000Y-77978000D03*
X86355000Y-80518000D03*
X86355000Y-77978000D03*
X83815000Y-80518000D03*
X83815000Y-77978000D03*
X81275000Y-80518000D03*
X81275000Y-77978000D03*
X78735000Y-80518000D03*
X78735000Y-77978000D03*
X76195000Y-80518000D03*
X76195000Y-77978000D03*
X73655000Y-80518000D03*
X73655000Y-77978000D03*
X71115000Y-80518000D03*
X71115000Y-77978000D03*
X68575000Y-80518000D03*
X68575000Y-77978000D03*
X66035000Y-80518000D03*
X66035000Y-77978000D03*
X63495000Y-80518000D03*
X63495000Y-77978000D03*
X60955000Y-80518000D03*
X60955000Y-77978000D03*
X58415000Y-80518000D03*
X58415000Y-77978000D03*
X55875000Y-80518000D03*
X55875000Y-77978000D03*
X53335000Y-80518000D03*
X53335000Y-77978000D03*
X50795000Y-80518000D03*
X50795000Y-77978000D03*
%TD*%
M02*
