%TF.GenerationSoftware,KiCad,Pcbnew,(6.0.9)*%
%TF.CreationDate,2023-10-24T21:18:58+02:00*%
%TF.ProjectId,p2000t-ram-expansion-board,70323030-3074-42d7-9261-6d2d65787061,rev?*%
%TF.SameCoordinates,Original*%
%TF.FileFunction,Copper,L1,Top*%
%TF.FilePolarity,Positive*%
%FSLAX46Y46*%
G04 Gerber Fmt 4.6, Leading zero omitted, Abs format (unit mm)*
G04 Created by KiCad (PCBNEW (6.0.9)) date 2023-10-24 21:18:58*
%MOMM*%
%LPD*%
G01*
G04 APERTURE LIST*
%TA.AperFunction,ComponentPad*%
%ADD10C,1.600000*%
%TD*%
%TA.AperFunction,ComponentPad*%
%ADD11R,1.600000X1.600000*%
%TD*%
%TA.AperFunction,ComponentPad*%
%ADD12O,1.600000X1.600000*%
%TD*%
%TA.AperFunction,ComponentPad*%
%ADD13R,1.700000X1.700000*%
%TD*%
%TA.AperFunction,ComponentPad*%
%ADD14O,1.700000X1.700000*%
%TD*%
%TA.AperFunction,ComponentPad*%
%ADD15R,3.000000X3.000000*%
%TD*%
%TA.AperFunction,ComponentPad*%
%ADD16C,3.000000*%
%TD*%
%TA.AperFunction,ViaPad*%
%ADD17C,0.800000*%
%TD*%
%TA.AperFunction,Conductor*%
%ADD18C,0.250000*%
%TD*%
%TA.AperFunction,Conductor*%
%ADD19C,1.000000*%
%TD*%
G04 APERTURE END LIST*
D10*
%TO.P,C1,1*%
%TO.N,+5V*%
X91440000Y-27940000D03*
%TO.P,C1,2*%
%TO.N,GND*%
X86440000Y-27940000D03*
%TD*%
D11*
%TO.P,U5,1,G*%
%TO.N,GND*%
X118120000Y-33020000D03*
D12*
%TO.P,U5,2,P0*%
%TO.N,A0*%
X118120000Y-35560000D03*
%TO.P,U5,3,R0*%
%TO.N,GND*%
X118120000Y-38100000D03*
%TO.P,U5,4,P1*%
%TO.N,A1*%
X118120000Y-40640000D03*
%TO.P,U5,5,R1*%
%TO.N,GND*%
X118120000Y-43180000D03*
%TO.P,U5,6,P2*%
%TO.N,A2*%
X118120000Y-45720000D03*
%TO.P,U5,7,R2*%
%TO.N,+5V*%
X118120000Y-48260000D03*
%TO.P,U5,8,P3*%
%TO.N,A3*%
X118120000Y-50800000D03*
%TO.P,U5,9,R3*%
%TO.N,GND*%
X118120000Y-53340000D03*
%TO.P,U5,10,GND*%
X118120000Y-55880000D03*
%TO.P,U5,11,P4*%
%TO.N,A4*%
X125740000Y-55880000D03*
%TO.P,U5,12,R4*%
%TO.N,+5V*%
X125740000Y-53340000D03*
%TO.P,U5,13,P5*%
%TO.N,A5*%
X125740000Y-50800000D03*
%TO.P,U5,14,R5*%
%TO.N,GND*%
X125740000Y-48260000D03*
%TO.P,U5,15,P6*%
%TO.N,A6*%
X125740000Y-45720000D03*
%TO.P,U5,16,R6*%
%TO.N,GND*%
X125740000Y-43180000D03*
%TO.P,U5,17,P7*%
%TO.N,A7*%
X125740000Y-40640000D03*
%TO.P,U5,18,R7*%
%TO.N,+5V*%
X125740000Y-38100000D03*
%TO.P,U5,19,P=R*%
%TO.N,Net-(U5-Pad19)*%
X125740000Y-35560000D03*
%TO.P,U5,20,VCC*%
%TO.N,+5V*%
X125740000Y-33020000D03*
%TD*%
D10*
%TO.P,C9,1*%
%TO.N,+5V*%
X74930000Y-27940000D03*
%TO.P,C9,2*%
%TO.N,GND*%
X69930000Y-27940000D03*
%TD*%
D11*
%TO.P,D1,1,K*%
%TO.N,+5V*%
X26520000Y-54620000D03*
D12*
%TO.P,D1,2,A*%
%TO.N,VCC*%
X26520000Y-47000000D03*
%TD*%
D10*
%TO.P,C5,1*%
%TO.N,+5V*%
X58420000Y-25400000D03*
%TO.P,C5,2*%
%TO.N,GND*%
X53420000Y-25400000D03*
%TD*%
%TO.P,C6,1*%
%TO.N,+5V*%
X72390000Y-59730000D03*
%TO.P,C6,2*%
%TO.N,GND*%
X72390000Y-64730000D03*
%TD*%
D11*
%TO.P,U1,1*%
%TO.N,~{RES}*%
X68590000Y-33020000D03*
D12*
%TO.P,U1,2*%
%TO.N,RES*%
X68590000Y-35560000D03*
%TO.P,U1,3*%
%TO.N,~{WR}*%
X68590000Y-38100000D03*
%TO.P,U1,4*%
%TO.N,WR*%
X68590000Y-40640000D03*
%TO.P,U1,5*%
%TO.N,Net-(U1-Pad5)*%
X68590000Y-43180000D03*
%TO.P,U1,6*%
%TO.N,Net-(U1-Pad6)*%
X68590000Y-45720000D03*
%TO.P,U1,7,GND*%
%TO.N,GND*%
X68590000Y-48260000D03*
%TO.P,U1,8*%
%TO.N,unconnected-(U1-Pad8)*%
X76210000Y-48260000D03*
%TO.P,U1,9*%
%TO.N,GND*%
X76210000Y-45720000D03*
%TO.P,U1,10*%
%TO.N,Net-(U1-Pad10)*%
X76210000Y-43180000D03*
%TO.P,U1,11*%
%TO.N,BR*%
X76210000Y-40640000D03*
%TO.P,U1,12*%
%TO.N,Net-(U1-Pad12)*%
X76210000Y-38100000D03*
%TO.P,U1,13*%
%TO.N,~{MRQ}*%
X76210000Y-35560000D03*
%TO.P,U1,14,VCC*%
%TO.N,+5V*%
X76210000Y-33020000D03*
%TD*%
D10*
%TO.P,C7,1*%
%TO.N,+5V*%
X26670000Y-59868000D03*
%TO.P,C7,2*%
%TO.N,GND*%
X26670000Y-64868000D03*
%TD*%
D11*
%TO.P,U8,1,S*%
%TO.N,BR*%
X35570000Y-30470000D03*
D12*
%TO.P,U8,2,I0a*%
%TO.N,GND*%
X35570000Y-33010000D03*
%TO.P,U8,3,I1a*%
%TO.N,S0*%
X35570000Y-35550000D03*
%TO.P,U8,4,Za*%
%TO.N,A13_1*%
X35570000Y-38090000D03*
%TO.P,U8,5,I0b*%
%TO.N,GND*%
X35570000Y-40630000D03*
%TO.P,U8,6,I1b*%
%TO.N,+5V*%
X35570000Y-43170000D03*
%TO.P,U8,7,Zb*%
%TO.N,A14_1*%
X35570000Y-45710000D03*
%TO.P,U8,8,GND*%
%TO.N,GND*%
X35570000Y-48250000D03*
%TO.P,U8,9,Zc*%
%TO.N,A13_2*%
X43190000Y-48250000D03*
%TO.P,U8,10,I1c*%
%TO.N,S0*%
X43190000Y-45710000D03*
%TO.P,U8,11,I0c*%
X43190000Y-43170000D03*
%TO.P,U8,12,Zd*%
%TO.N,A14_2*%
X43190000Y-40630000D03*
%TO.P,U8,13,I1d*%
%TO.N,S2*%
X43190000Y-38090000D03*
%TO.P,U8,14,I0d*%
X43190000Y-35550000D03*
%TO.P,U8,15,E*%
%TO.N,GND*%
X43190000Y-33010000D03*
%TO.P,U8,16,VCC*%
%TO.N,+5V*%
X43190000Y-30470000D03*
%TD*%
D11*
%TO.P,C3,1*%
%TO.N,+5V*%
X25400000Y-80010000D03*
D10*
%TO.P,C3,2*%
%TO.N,GND*%
X27900000Y-80010000D03*
%TD*%
%TO.P,C4,1*%
%TO.N,+5V*%
X107910000Y-27940000D03*
%TO.P,C4,2*%
%TO.N,GND*%
X102910000Y-27940000D03*
%TD*%
%TO.P,C2,1*%
%TO.N,+5V*%
X41870000Y-25400000D03*
%TO.P,C2,2*%
%TO.N,GND*%
X36870000Y-25400000D03*
%TD*%
D11*
%TO.P,U4,1,A14*%
%TO.N,A14_2*%
X31750000Y-69993000D03*
D12*
%TO.P,U4,2,A12*%
%TO.N,A12*%
X34290000Y-69993000D03*
%TO.P,U4,3,A7*%
%TO.N,A7*%
X36830000Y-69993000D03*
%TO.P,U4,4,A6*%
%TO.N,A6*%
X39370000Y-69993000D03*
%TO.P,U4,5,A5*%
%TO.N,A5*%
X41910000Y-69993000D03*
%TO.P,U4,6,A4*%
%TO.N,A4*%
X44450000Y-69993000D03*
%TO.P,U4,7,A3*%
%TO.N,A3*%
X46990000Y-69993000D03*
%TO.P,U4,8,A2*%
%TO.N,A2*%
X49530000Y-69993000D03*
%TO.P,U4,9,A1*%
%TO.N,A1*%
X52070000Y-69993000D03*
%TO.P,U4,10,A0*%
%TO.N,A0*%
X54610000Y-69993000D03*
%TO.P,U4,11,Q0*%
%TO.N,D0*%
X57150000Y-69993000D03*
%TO.P,U4,12,Q1*%
%TO.N,D1*%
X59690000Y-69993000D03*
%TO.P,U4,13,Q2*%
%TO.N,D2*%
X62230000Y-69993000D03*
%TO.P,U4,14,GND*%
%TO.N,GND*%
X64770000Y-69993000D03*
%TO.P,U4,15,Q3*%
%TO.N,D3*%
X64770000Y-54753000D03*
%TO.P,U4,16,Q4*%
%TO.N,D4*%
X62230000Y-54753000D03*
%TO.P,U4,17,Q5*%
%TO.N,D5*%
X59690000Y-54753000D03*
%TO.P,U4,18,Q6*%
%TO.N,D6*%
X57150000Y-54753000D03*
%TO.P,U4,19,Q7*%
%TO.N,D7*%
X54610000Y-54753000D03*
%TO.P,U4,20,~{CS}*%
%TO.N,~{CS2}*%
X52070000Y-54753000D03*
%TO.P,U4,21,A10*%
%TO.N,A10*%
X49530000Y-54753000D03*
%TO.P,U4,22,~{OE}*%
%TO.N,~{RD}*%
X46990000Y-54753000D03*
%TO.P,U4,23,A11*%
%TO.N,A11*%
X44450000Y-54753000D03*
%TO.P,U4,24,A9*%
%TO.N,A9*%
X41910000Y-54753000D03*
%TO.P,U4,25,A8*%
%TO.N,A8*%
X39370000Y-54753000D03*
%TO.P,U4,26,A13*%
%TO.N,A13_2*%
X36830000Y-54753000D03*
%TO.P,U4,27,~{WE}*%
%TO.N,~{WR}*%
X34290000Y-54753000D03*
%TO.P,U4,28,VCC*%
%TO.N,+5V*%
X31750000Y-54753000D03*
%TD*%
D13*
%TO.P,J2,1,Pin_1*%
%TO.N,GND*%
X26520000Y-39380000D03*
D14*
%TO.P,J2,2,Pin_2*%
%TO.N,VCC*%
X26520000Y-41920000D03*
%TD*%
D11*
%TO.P,U6,1*%
%TO.N,BR*%
X85100000Y-33015000D03*
D12*
%TO.P,U6,2*%
%TO.N,~{REN}*%
X85100000Y-35555000D03*
%TO.P,U6,3*%
%TO.N,~{CS2}*%
X85100000Y-38095000D03*
%TO.P,U6,4*%
%TO.N,GND*%
X85100000Y-40635000D03*
%TO.P,U6,5*%
X85100000Y-43175000D03*
%TO.P,U6,6*%
%TO.N,unconnected-(U6-Pad6)*%
X85100000Y-45715000D03*
%TO.P,U6,7,GND*%
%TO.N,GND*%
X85100000Y-48255000D03*
%TO.P,U6,8*%
%TO.N,Net-(U3-Pad1)*%
X92720000Y-48255000D03*
%TO.P,U6,9*%
%TO.N,S1*%
X92720000Y-45715000D03*
%TO.P,U6,10*%
%TO.N,S2*%
X92720000Y-43175000D03*
%TO.P,U6,11*%
%TO.N,~{CS1}*%
X92720000Y-40635000D03*
%TO.P,U6,12*%
%TO.N,Net-(U1-Pad10)*%
X92720000Y-38095000D03*
%TO.P,U6,13*%
%TO.N,~{REN}*%
X92720000Y-35555000D03*
%TO.P,U6,14,VCC*%
%TO.N,+5V*%
X92720000Y-33015000D03*
%TD*%
D11*
%TO.P,U7,1,Oe1*%
%TO.N,GND*%
X52080000Y-30470000D03*
D12*
%TO.P,U7,2,Oe2*%
X52080000Y-33010000D03*
%TO.P,U7,3,Q0*%
%TO.N,S0*%
X52080000Y-35550000D03*
%TO.P,U7,4,Q1*%
%TO.N,S1*%
X52080000Y-38090000D03*
%TO.P,U7,5,Q2*%
%TO.N,S2*%
X52080000Y-40630000D03*
%TO.P,U7,6,Q3*%
%TO.N,unconnected-(U7-Pad6)*%
X52080000Y-43170000D03*
%TO.P,U7,7,Cp*%
%TO.N,WR*%
X52080000Y-45710000D03*
%TO.P,U7,8,GND*%
%TO.N,GND*%
X52080000Y-48250000D03*
%TO.P,U7,9,E1*%
%TO.N,Net-(U5-Pad19)*%
X59700000Y-48250000D03*
%TO.P,U7,10,E2*%
%TO.N,~{IORQ}*%
X59700000Y-45710000D03*
%TO.P,U7,11,D3*%
%TO.N,D3*%
X59700000Y-43170000D03*
%TO.P,U7,12,D2*%
%TO.N,D2*%
X59700000Y-40630000D03*
%TO.P,U7,13,D1*%
%TO.N,D1*%
X59700000Y-38090000D03*
%TO.P,U7,14,D0*%
%TO.N,D0*%
X59700000Y-35550000D03*
%TO.P,U7,15,Mr*%
%TO.N,RES*%
X59700000Y-33010000D03*
%TO.P,U7,16,VCC*%
%TO.N,+5V*%
X59700000Y-30470000D03*
%TD*%
D10*
%TO.P,C8,1*%
%TO.N,+5V*%
X124420000Y-27935000D03*
%TO.P,C8,2*%
%TO.N,GND*%
X119420000Y-27935000D03*
%TD*%
D11*
%TO.P,U2,1,A14*%
%TO.N,A14_1*%
X77495000Y-69855000D03*
D12*
%TO.P,U2,2,A12*%
%TO.N,A12*%
X80035000Y-69855000D03*
%TO.P,U2,3,A7*%
%TO.N,A7*%
X82575000Y-69855000D03*
%TO.P,U2,4,A6*%
%TO.N,A6*%
X85115000Y-69855000D03*
%TO.P,U2,5,A5*%
%TO.N,A5*%
X87655000Y-69855000D03*
%TO.P,U2,6,A4*%
%TO.N,A4*%
X90195000Y-69855000D03*
%TO.P,U2,7,A3*%
%TO.N,A3*%
X92735000Y-69855000D03*
%TO.P,U2,8,A2*%
%TO.N,A2*%
X95275000Y-69855000D03*
%TO.P,U2,9,A1*%
%TO.N,A1*%
X97815000Y-69855000D03*
%TO.P,U2,10,A0*%
%TO.N,A0*%
X100355000Y-69855000D03*
%TO.P,U2,11,Q0*%
%TO.N,D0*%
X102895000Y-69855000D03*
%TO.P,U2,12,Q1*%
%TO.N,D1*%
X105435000Y-69855000D03*
%TO.P,U2,13,Q2*%
%TO.N,D2*%
X107975000Y-69855000D03*
%TO.P,U2,14,GND*%
%TO.N,GND*%
X110515000Y-69855000D03*
%TO.P,U2,15,Q3*%
%TO.N,D3*%
X110515000Y-54615000D03*
%TO.P,U2,16,Q4*%
%TO.N,D4*%
X107975000Y-54615000D03*
%TO.P,U2,17,Q5*%
%TO.N,D5*%
X105435000Y-54615000D03*
%TO.P,U2,18,Q6*%
%TO.N,D6*%
X102895000Y-54615000D03*
%TO.P,U2,19,Q7*%
%TO.N,D7*%
X100355000Y-54615000D03*
%TO.P,U2,20,~{CS}*%
%TO.N,~{CS1}*%
X97815000Y-54615000D03*
%TO.P,U2,21,A10*%
%TO.N,A10*%
X95275000Y-54615000D03*
%TO.P,U2,22,~{OE}*%
%TO.N,~{RD}*%
X92735000Y-54615000D03*
%TO.P,U2,23,A11*%
%TO.N,A11*%
X90195000Y-54615000D03*
%TO.P,U2,24,A9*%
%TO.N,A9*%
X87655000Y-54615000D03*
%TO.P,U2,25,A8*%
%TO.N,A8*%
X85115000Y-54615000D03*
%TO.P,U2,26,A13*%
%TO.N,A13_1*%
X82575000Y-54615000D03*
%TO.P,U2,27,~{WE}*%
%TO.N,~{WR}*%
X80035000Y-54615000D03*
%TO.P,U2,28,VCC*%
%TO.N,+5V*%
X77495000Y-54615000D03*
%TD*%
D15*
%TO.P,J3,1,Pin_1*%
%TO.N,GND*%
X26520000Y-26172000D03*
D16*
%TO.P,J3,2,Pin_2*%
%TO.N,VCC*%
X26520000Y-31252000D03*
%TD*%
D11*
%TO.P,U3,1*%
%TO.N,Net-(U3-Pad1)*%
X101610000Y-33015000D03*
D12*
%TO.P,U3,2*%
%TO.N,Net-(U1-Pad6)*%
X101610000Y-35555000D03*
%TO.P,U3,3*%
%TO.N,BR*%
X101610000Y-38095000D03*
%TO.P,U3,4*%
%TO.N,GND*%
X101610000Y-40635000D03*
%TO.P,U3,5*%
X101610000Y-43175000D03*
%TO.P,U3,6*%
%TO.N,unconnected-(U3-Pad6)*%
X101610000Y-45715000D03*
%TO.P,U3,7,GND*%
%TO.N,GND*%
X101610000Y-48255000D03*
%TO.P,U3,8*%
%TO.N,Net-(U1-Pad5)*%
X109230000Y-48255000D03*
%TO.P,U3,9*%
%TO.N,A13*%
X109230000Y-45715000D03*
%TO.P,U3,10*%
%TO.N,A14*%
X109230000Y-43175000D03*
%TO.P,U3,11*%
%TO.N,~{REN}*%
X109230000Y-40635000D03*
%TO.P,U3,12*%
%TO.N,Net-(U1-Pad12)*%
X109230000Y-38095000D03*
%TO.P,U3,13*%
%TO.N,RAMS2*%
X109230000Y-35555000D03*
%TO.P,U3,14,VCC*%
%TO.N,+5V*%
X109230000Y-33015000D03*
%TD*%
D13*
%TO.P,J1,1,Pin_1*%
%TO.N,GND*%
X99055000Y-80518000D03*
D14*
%TO.P,J1,2,Pin_2*%
%TO.N,unconnected-(J1-Pad2)*%
X99055000Y-77978000D03*
%TO.P,J1,3,Pin_3*%
%TO.N,D0*%
X96515000Y-80518000D03*
%TO.P,J1,4,Pin_4*%
%TO.N,D1*%
X96515000Y-77978000D03*
%TO.P,J1,5,Pin_5*%
%TO.N,D2*%
X93975000Y-80518000D03*
%TO.P,J1,6,Pin_6*%
%TO.N,D3*%
X93975000Y-77978000D03*
%TO.P,J1,7,Pin_7*%
%TO.N,D4*%
X91435000Y-80518000D03*
%TO.P,J1,8,Pin_8*%
%TO.N,D5*%
X91435000Y-77978000D03*
%TO.P,J1,9,Pin_9*%
%TO.N,D6*%
X88895000Y-80518000D03*
%TO.P,J1,10,Pin_10*%
%TO.N,D7*%
X88895000Y-77978000D03*
%TO.P,J1,11,Pin_11*%
%TO.N,A0*%
X86355000Y-80518000D03*
%TO.P,J1,12,Pin_12*%
%TO.N,A1*%
X86355000Y-77978000D03*
%TO.P,J1,13,Pin_13*%
%TO.N,A2*%
X83815000Y-80518000D03*
%TO.P,J1,14,Pin_14*%
%TO.N,A3*%
X83815000Y-77978000D03*
%TO.P,J1,15,Pin_15*%
%TO.N,A4*%
X81275000Y-80518000D03*
%TO.P,J1,16,Pin_16*%
%TO.N,A5*%
X81275000Y-77978000D03*
%TO.P,J1,17,Pin_17*%
%TO.N,A6*%
X78735000Y-80518000D03*
%TO.P,J1,18,Pin_18*%
%TO.N,A7*%
X78735000Y-77978000D03*
%TO.P,J1,19,Pin_19*%
%TO.N,A8*%
X76195000Y-80518000D03*
%TO.P,J1,20,Pin_20*%
%TO.N,A9*%
X76195000Y-77978000D03*
%TO.P,J1,21,Pin_21*%
%TO.N,A10*%
X73655000Y-80518000D03*
%TO.P,J1,22,Pin_22*%
%TO.N,A11*%
X73655000Y-77978000D03*
%TO.P,J1,23,Pin_23*%
%TO.N,A12*%
X71115000Y-80518000D03*
%TO.P,J1,24,Pin_24*%
%TO.N,A13*%
X71115000Y-77978000D03*
%TO.P,J1,25,Pin_25*%
%TO.N,A14*%
X68575000Y-80518000D03*
%TO.P,J1,26,Pin_26*%
%TO.N,RAMS2*%
X68575000Y-77978000D03*
%TO.P,J1,27,Pin_27*%
%TO.N,~{MRQ}*%
X66035000Y-80518000D03*
%TO.P,J1,28,Pin_28*%
%TO.N,~{RD}*%
X66035000Y-77978000D03*
%TO.P,J1,29,Pin_29*%
%TO.N,unconnected-(J1-Pad29)*%
X63495000Y-80518000D03*
%TO.P,J1,30,Pin_30*%
%TO.N,~{WR}*%
X63495000Y-77978000D03*
%TO.P,J1,31,Pin_31*%
%TO.N,~{IORQ}*%
X60955000Y-80518000D03*
%TO.P,J1,32,Pin_32*%
%TO.N,unconnected-(J1-Pad32)*%
X60955000Y-77978000D03*
%TO.P,J1,33,Pin_33*%
%TO.N,unconnected-(J1-Pad33)*%
X58415000Y-80518000D03*
%TO.P,J1,34,Pin_34*%
%TO.N,~{RES}*%
X58415000Y-77978000D03*
%TO.P,J1,35,Pin_35*%
%TO.N,unconnected-(J1-Pad35)*%
X55875000Y-80518000D03*
%TO.P,J1,36,Pin_36*%
%TO.N,unconnected-(J1-Pad36)*%
X55875000Y-77978000D03*
%TO.P,J1,37,Pin_37*%
%TO.N,unconnected-(J1-Pad37)*%
X53335000Y-80518000D03*
%TO.P,J1,38,Pin_38*%
%TO.N,unconnected-(J1-Pad38)*%
X53335000Y-77978000D03*
%TO.P,J1,39,Pin_39*%
%TO.N,unconnected-(J1-Pad39)*%
X50795000Y-80518000D03*
%TO.P,J1,40,Pin_40*%
%TO.N,unconnected-(J1-Pad40)*%
X50795000Y-77978000D03*
%TD*%
D17*
%TO.N,Net-(U1-Pad5)*%
X85847100Y-49501800D03*
%TO.N,A13_1*%
X70998200Y-46491200D03*
%TO.N,~{IORQ}*%
X61778500Y-74720300D03*
%TO.N,~{WR}*%
X68556700Y-68308300D03*
%TO.N,~{RD}*%
X79475900Y-63456400D03*
X82345600Y-61748000D03*
%TO.N,RAMS2*%
X74501400Y-67371400D03*
%TO.N,A12*%
X49402800Y-75010800D03*
%TO.N,A8*%
X74768500Y-66074400D03*
%TO.N,A7*%
X114476900Y-54076400D03*
%TO.N,A6*%
X113301100Y-58838700D03*
%TO.N,A5*%
X114673000Y-61023000D03*
%TO.N,A3*%
X109558500Y-61817500D03*
X72341200Y-82115700D03*
%TO.N,A2*%
X108738700Y-62776300D03*
X70333400Y-82319500D03*
%TO.N,A1*%
X68334700Y-82505900D03*
%TO.N,A0*%
X64692600Y-82063800D03*
%TO.N,D3*%
X77313200Y-52871900D03*
X72052300Y-54402700D03*
%TO.N,D2*%
X64651600Y-72981800D03*
%TO.N,D1*%
X61817900Y-75793800D03*
%TO.N,D0*%
X59633700Y-79670500D03*
%TO.N,A14_1*%
X35035100Y-56468400D03*
%TD*%
D18*
%TO.N,GND*%
X119240300Y-34140300D02*
X118120000Y-33020000D01*
X119245300Y-34140300D02*
X119240300Y-34140300D01*
D19*
%TO.N,VCC*%
X27930000Y-41920000D02*
X26520000Y-41920000D01*
X29210000Y-40640000D02*
X27930000Y-41920000D01*
X29210000Y-33942000D02*
X29210000Y-40640000D01*
X26520000Y-31252000D02*
X29210000Y-33942000D01*
X26520000Y-47000000D02*
X26520000Y-41920000D01*
D18*
%TO.N,Net-(U1-Pad12)*%
X78457600Y-39222300D02*
X77335300Y-38100000D01*
X106977400Y-39222300D02*
X78457600Y-39222300D01*
X108104700Y-38095000D02*
X106977400Y-39222300D01*
X76210000Y-38100000D02*
X77335300Y-38100000D01*
X109230000Y-38095000D02*
X108104700Y-38095000D01*
%TO.N,Net-(U5-Pad19)*%
X59700000Y-48250000D02*
X60825300Y-48250000D01*
X125740000Y-35560000D02*
X124614700Y-35560000D01*
X124614700Y-35841300D02*
X124614700Y-35560000D01*
X118551000Y-41905000D02*
X124614700Y-35841300D01*
X99233000Y-41905000D02*
X118551000Y-41905000D01*
X94013300Y-47124700D02*
X99233000Y-41905000D01*
X71870000Y-47124700D02*
X94013300Y-47124700D01*
X71773800Y-47220900D02*
X71870000Y-47124700D01*
X70595300Y-47220900D02*
X71773800Y-47220900D01*
X70499100Y-47124700D02*
X70595300Y-47220900D01*
X61950600Y-47124700D02*
X70499100Y-47124700D01*
X60825300Y-48250000D02*
X61950600Y-47124700D01*
%TO.N,BR*%
X85100000Y-33015000D02*
X85100000Y-34140300D01*
X76210000Y-40640000D02*
X76210000Y-39514700D01*
X84775100Y-36825000D02*
X83974700Y-36024600D01*
X93250200Y-36825000D02*
X84775100Y-36825000D01*
X94520200Y-38095000D02*
X93250200Y-36825000D01*
X101610000Y-38095000D02*
X94520200Y-38095000D01*
X84818600Y-34140300D02*
X85100000Y-34140300D01*
X83974700Y-34984200D02*
X84818600Y-34140300D01*
X83974700Y-36024600D02*
X83974700Y-34984200D01*
X71596600Y-34145400D02*
X75084700Y-37633500D01*
X65736100Y-34145400D02*
X71596600Y-34145400D01*
X63186000Y-31595300D02*
X65736100Y-34145400D01*
X37820600Y-31595300D02*
X63186000Y-31595300D01*
X36695300Y-30470000D02*
X37820600Y-31595300D01*
X75888200Y-36830000D02*
X75084700Y-37633500D01*
X83169300Y-36830000D02*
X75888200Y-36830000D01*
X83974700Y-36024600D02*
X83169300Y-36830000D01*
X75928600Y-39514700D02*
X76210000Y-39514700D01*
X75084700Y-38670800D02*
X75928600Y-39514700D01*
X75084700Y-37633500D02*
X75084700Y-38670800D01*
X35570000Y-30470000D02*
X36695300Y-30470000D01*
%TO.N,Net-(U1-Pad5)*%
X109230000Y-48255000D02*
X108104700Y-48255000D01*
X94856000Y-49501800D02*
X85847100Y-49501800D01*
X97233300Y-47124500D02*
X94856000Y-49501800D01*
X106974200Y-47124500D02*
X97233300Y-47124500D01*
X108104700Y-48255000D02*
X106974200Y-47124500D01*
%TO.N,~{REN}*%
X85100000Y-35555000D02*
X92720000Y-35555000D01*
X94970600Y-36680300D02*
X93845300Y-35555000D01*
X109459300Y-36680300D02*
X94970600Y-36680300D01*
X110388300Y-37609300D02*
X109459300Y-36680300D01*
X110388300Y-38632700D02*
X110388300Y-37609300D01*
X109511300Y-39509700D02*
X110388300Y-38632700D01*
X109230000Y-39509700D02*
X109511300Y-39509700D01*
X109230000Y-40635000D02*
X109230000Y-39509700D01*
X92720000Y-35555000D02*
X93845300Y-35555000D01*
%TO.N,RES*%
X63375300Y-35560000D02*
X68590000Y-35560000D01*
X60825300Y-33010000D02*
X63375300Y-35560000D01*
X59700000Y-33010000D02*
X60825300Y-33010000D01*
%TO.N,WR*%
X66339400Y-41765300D02*
X67464700Y-40640000D01*
X57150000Y-41765300D02*
X66339400Y-41765300D01*
X53205300Y-45710000D02*
X57150000Y-41765300D01*
X52080000Y-45710000D02*
X53205300Y-45710000D01*
X68590000Y-40640000D02*
X67464700Y-40640000D01*
D19*
%TO.N,+5V*%
X33250000Y-53253000D02*
X31750000Y-54753000D01*
X76133000Y-53253000D02*
X33250000Y-53253000D01*
X77495000Y-54615000D02*
X76133000Y-53253000D01*
X31750000Y-58420000D02*
X31750000Y-54753000D01*
X30302000Y-59868000D02*
X31750000Y-58420000D01*
X26670000Y-59868000D02*
X30302000Y-59868000D01*
X72405000Y-59730000D02*
X72405000Y-58009900D01*
X73655000Y-54615000D02*
X77495000Y-54615000D01*
X72405000Y-55865000D02*
X73655000Y-54615000D01*
X72405000Y-58009900D02*
X72405000Y-55865000D01*
D18*
X72390000Y-58024900D02*
X72390000Y-59730000D01*
X72405000Y-58009900D02*
X72390000Y-58024900D01*
X126021400Y-36974700D02*
X125740000Y-36974700D01*
X126865300Y-36130800D02*
X126021400Y-36974700D01*
X126865300Y-34989300D02*
X126865300Y-36130800D01*
X126021300Y-34145300D02*
X126865300Y-34989300D01*
X125740000Y-34145300D02*
X126021300Y-34145300D01*
X125740000Y-33020000D02*
X125740000Y-34145300D01*
X125740000Y-38100000D02*
X125740000Y-36974700D01*
X124325300Y-53340000D02*
X125740000Y-53340000D01*
X119245300Y-48260000D02*
X124325300Y-53340000D01*
X118120000Y-48260000D02*
X119245300Y-48260000D01*
%TO.N,S2*%
X52080000Y-40630000D02*
X50954700Y-40630000D01*
X92720000Y-43175000D02*
X91594700Y-43175000D01*
X90469400Y-42049700D02*
X91594700Y-43175000D01*
X74932100Y-42049700D02*
X90469400Y-42049700D01*
X69822700Y-36940300D02*
X74932100Y-42049700D01*
X51628100Y-36940300D02*
X69822700Y-36940300D01*
X49446600Y-39121800D02*
X51628100Y-36940300D01*
X50954700Y-40630000D02*
X49446600Y-39121800D01*
X48414700Y-38090000D02*
X43190000Y-38090000D01*
X49446600Y-39121800D02*
X48414700Y-38090000D01*
%TO.N,S1*%
X52080000Y-38090000D02*
X53205300Y-38090000D01*
X92720000Y-45715000D02*
X91594700Y-45715000D01*
X54485300Y-39370000D02*
X53205300Y-38090000D01*
X70209700Y-39370000D02*
X54485300Y-39370000D01*
X75429400Y-44589700D02*
X70209700Y-39370000D01*
X90469400Y-44589700D02*
X75429400Y-44589700D01*
X91594700Y-45715000D02*
X90469400Y-44589700D01*
D19*
%TO.N,GND*%
X69707000Y-69993000D02*
X64770000Y-69993000D01*
X72390000Y-67310000D02*
X69707000Y-69993000D01*
X72390000Y-64730000D02*
X72390000Y-67310000D01*
X39370000Y-76200000D02*
X35560000Y-80010000D01*
X58563000Y-76200000D02*
X39370000Y-76200000D01*
X64770000Y-69993000D02*
X58563000Y-76200000D01*
X118120000Y-76190000D02*
X110515000Y-83795000D01*
X118120000Y-55880000D02*
X118120000Y-76190000D01*
X109220000Y-85090000D02*
X110515000Y-83795000D01*
X107950000Y-86360000D02*
X109220000Y-85090000D01*
X97790000Y-86360000D02*
X107950000Y-86360000D01*
X110515000Y-83795000D02*
X110515000Y-69855000D01*
X96520000Y-86360000D02*
X97790000Y-86360000D01*
X99055000Y-85095000D02*
X99055000Y-80518000D01*
X97790000Y-86360000D02*
X99055000Y-85095000D01*
X41910000Y-86360000D02*
X96520000Y-86360000D01*
X35560000Y-80010000D02*
X41910000Y-86360000D01*
X27900000Y-80010000D02*
X35560000Y-80010000D01*
X99060000Y-50800000D02*
X99065000Y-50800000D01*
X99065000Y-50800000D02*
X101610000Y-48255000D01*
X81280000Y-50800000D02*
X82555000Y-50800000D01*
X82555000Y-50800000D02*
X85100000Y-48255000D01*
X66050000Y-50800000D02*
X68590000Y-48260000D01*
X49530000Y-50800000D02*
X66050000Y-50800000D01*
X49530000Y-50800000D02*
X52080000Y-48250000D01*
X24130000Y-46731300D02*
X24130000Y-40640000D01*
X26448700Y-49050000D02*
X24130000Y-46731300D01*
X34770000Y-49050000D02*
X26448700Y-49050000D01*
X35570000Y-48250000D02*
X34770000Y-49050000D01*
X24130000Y-36990000D02*
X24130000Y-40640000D01*
X24130000Y-36990000D02*
X26520000Y-39380000D01*
X24130000Y-28562000D02*
X24130000Y-36990000D01*
X26520000Y-26172000D02*
X24130000Y-28562000D01*
X119420000Y-25440000D02*
X119420000Y-27935000D01*
X117880000Y-23900000D02*
X119420000Y-25440000D01*
X101370000Y-23900000D02*
X117880000Y-23900000D01*
X102910000Y-25440000D02*
X102910000Y-27940000D01*
X101370000Y-23900000D02*
X102910000Y-25440000D01*
X83590000Y-23900000D02*
X84860000Y-23900000D01*
X65810000Y-23900000D02*
X68350000Y-23900000D01*
X51920000Y-23900000D02*
X65810000Y-23900000D01*
X86440000Y-25480000D02*
X86440000Y-27940000D01*
X84860000Y-23900000D02*
X86440000Y-25480000D01*
X69930000Y-25480000D02*
X69930000Y-27940000D01*
X68350000Y-23900000D02*
X69930000Y-25480000D01*
X51920000Y-23900000D02*
X53420000Y-25400000D01*
X38370000Y-23900000D02*
X51920000Y-23900000D01*
X36870000Y-25400000D02*
X38370000Y-23900000D01*
X65810000Y-23900000D02*
X68350000Y-23900000D01*
X68350000Y-23900000D02*
X83590000Y-23900000D01*
X83590000Y-23900000D02*
X84860000Y-23900000D01*
X99290000Y-23900000D02*
X101370000Y-23900000D01*
X24130000Y-40640000D02*
X24130000Y-46731300D01*
X81280000Y-50800000D02*
X82555000Y-50800000D01*
X82555000Y-50800000D02*
X99060000Y-50800000D01*
X99060000Y-50800000D02*
X99065000Y-50800000D01*
X96520000Y-86360000D02*
X97790000Y-86360000D01*
X110515000Y-83795000D02*
X109220000Y-85090000D01*
X84860000Y-23900000D02*
X99290000Y-23900000D01*
X99290000Y-23900000D02*
X101370000Y-23900000D01*
X36098000Y-26172000D02*
X36870000Y-25400000D01*
X26520000Y-26172000D02*
X36098000Y-26172000D01*
X66050000Y-50800000D02*
X81280000Y-50800000D01*
D18*
X118401400Y-36974700D02*
X118120000Y-36974700D01*
X119245300Y-36130800D02*
X118401400Y-36974700D01*
X119245300Y-34140300D02*
X119245300Y-36130800D01*
X118120000Y-38100000D02*
X118120000Y-36974700D01*
D19*
X38120000Y-50800000D02*
X49530000Y-50800000D01*
X35570000Y-48250000D02*
X38120000Y-50800000D01*
D18*
X35288600Y-34135300D02*
X35570000Y-34135300D01*
X34444700Y-34979200D02*
X35288600Y-34135300D01*
X34444700Y-38660700D02*
X34444700Y-34979200D01*
X35288700Y-39504700D02*
X34444700Y-38660700D01*
X35570000Y-39504700D02*
X35288700Y-39504700D01*
X35570000Y-40630000D02*
X35570000Y-39504700D01*
X35570000Y-33010000D02*
X35570000Y-34135300D01*
X116994700Y-54465300D02*
X116994700Y-53340000D01*
X116850000Y-54610000D02*
X116994700Y-54465300D01*
D19*
X115580000Y-53340000D02*
X116850000Y-54610000D01*
X115570000Y-53340000D02*
X115580000Y-53340000D01*
X113030000Y-50800000D02*
X115570000Y-53340000D01*
X99065000Y-50800000D02*
X113030000Y-50800000D01*
X116850000Y-54610000D02*
X118120000Y-55880000D01*
D18*
X118120000Y-53340000D02*
X116994700Y-53340000D01*
X125740000Y-48260000D02*
X125740000Y-47134700D01*
X125458700Y-47134700D02*
X125740000Y-47134700D01*
X124576500Y-46252500D02*
X125458700Y-47134700D01*
X124576500Y-43180000D02*
X124576500Y-46252500D01*
X118120000Y-43180000D02*
X124576500Y-43180000D01*
X124576500Y-43180000D02*
X125740000Y-43180000D01*
D19*
X24130000Y-62338000D02*
X26015000Y-64223000D01*
X24130000Y-46731300D02*
X24130000Y-62338000D01*
X27900000Y-66108000D02*
X27900000Y-80010000D01*
X26015000Y-64223000D02*
X27900000Y-66108000D01*
D18*
X26025000Y-64223000D02*
X26670000Y-64868000D01*
X26015000Y-64223000D02*
X26025000Y-64223000D01*
%TO.N,A13_1*%
X35570000Y-38090000D02*
X36695300Y-38090000D01*
X37820600Y-39215300D02*
X36695300Y-38090000D01*
X43976700Y-39215300D02*
X37820600Y-39215300D01*
X51607800Y-46846400D02*
X43976700Y-39215300D01*
X61098900Y-46846400D02*
X51607800Y-46846400D01*
X63356100Y-44589200D02*
X61098900Y-46846400D01*
X69096200Y-44589200D02*
X63356100Y-44589200D01*
X70998200Y-46491200D02*
X69096200Y-44589200D01*
%TO.N,~{IORQ}*%
X60955000Y-80518000D02*
X60955000Y-79342700D01*
X59761000Y-76737800D02*
X61778500Y-74720300D01*
X59761000Y-78453800D02*
X59761000Y-76737800D01*
X60649900Y-79342700D02*
X59761000Y-78453800D01*
X60955000Y-79342700D02*
X60649900Y-79342700D01*
%TO.N,~{WR}*%
X45842000Y-68308300D02*
X68556700Y-68308300D01*
X34290000Y-56756300D02*
X45842000Y-68308300D01*
X34290000Y-55878300D02*
X34290000Y-56756300D01*
X34290000Y-54753000D02*
X34290000Y-55878300D01*
%TO.N,~{RD}*%
X46990000Y-54753000D02*
X48115300Y-54753000D01*
X92735000Y-54615000D02*
X91609700Y-54615000D01*
X91609700Y-54896300D02*
X91609700Y-54615000D01*
X84758000Y-61748000D02*
X91609700Y-54896300D01*
X82345600Y-61748000D02*
X84758000Y-61748000D01*
X48115300Y-55034300D02*
X48115300Y-54753000D01*
X55749900Y-62668900D02*
X48115300Y-55034300D01*
X78688400Y-62668900D02*
X55749900Y-62668900D01*
X79475900Y-63456400D02*
X78688400Y-62668900D01*
%TO.N,RAMS2*%
X68575000Y-77978000D02*
X68575000Y-76802700D01*
X74501400Y-70876300D02*
X68575000Y-76802700D01*
X74501400Y-67371400D02*
X74501400Y-70876300D01*
%TO.N,A12*%
X34290000Y-69993000D02*
X35415300Y-69993000D01*
X80035000Y-74198400D02*
X80035000Y-69855000D01*
X77377300Y-76856100D02*
X80035000Y-74198400D01*
X77377300Y-81010600D02*
X77377300Y-76856100D01*
X76671300Y-81716600D02*
X77377300Y-81010600D01*
X73173500Y-81716600D02*
X76671300Y-81716600D01*
X72290300Y-80833400D02*
X73173500Y-81716600D01*
X72290300Y-80518000D02*
X72290300Y-80833400D01*
X71115000Y-80518000D02*
X72290300Y-80518000D01*
X40151800Y-75010800D02*
X49402800Y-75010800D01*
X35415300Y-70274300D02*
X40151800Y-75010800D01*
X35415300Y-69993000D02*
X35415300Y-70274300D01*
%TO.N,A9*%
X76195000Y-77978000D02*
X76195000Y-76802700D01*
X87655000Y-54615000D02*
X87655000Y-55740300D01*
X41910000Y-54753000D02*
X43035300Y-54753000D01*
X78696200Y-74301500D02*
X78696200Y-64223100D01*
X76195000Y-76802700D02*
X78696200Y-74301500D01*
X87303400Y-55740300D02*
X87655000Y-55740300D01*
X81197500Y-61846200D02*
X87303400Y-55740300D01*
X81197500Y-62811900D02*
X81197500Y-61846200D01*
X79786300Y-64223100D02*
X81197500Y-62811900D01*
X78696200Y-64223100D02*
X79786300Y-64223100D01*
X43035300Y-55034300D02*
X43035300Y-54753000D01*
X51120200Y-63119200D02*
X43035300Y-55034300D01*
X77592300Y-63119200D02*
X51120200Y-63119200D01*
X78696200Y-64223100D02*
X77592300Y-63119200D01*
%TO.N,A8*%
X76195000Y-80518000D02*
X76195000Y-79342700D01*
X75238200Y-66544100D02*
X74768500Y-66074400D01*
X75238200Y-70776400D02*
X75238200Y-66544100D01*
X75019700Y-70994900D02*
X75238200Y-70776400D01*
X75019700Y-78534800D02*
X75019700Y-70994900D01*
X75827600Y-79342700D02*
X75019700Y-78534800D01*
X76195000Y-79342700D02*
X75827600Y-79342700D01*
%TO.N,A7*%
X78735000Y-77978000D02*
X78735000Y-76802700D01*
X82575000Y-72443500D02*
X82575000Y-69855000D01*
X78735000Y-76283500D02*
X82575000Y-72443500D01*
X78735000Y-76802700D02*
X78735000Y-76283500D01*
X110440000Y-58113300D02*
X114476900Y-54076400D01*
X95160700Y-58113300D02*
X110440000Y-58113300D01*
X83700300Y-69573700D02*
X95160700Y-58113300D01*
X83700300Y-69855000D02*
X83700300Y-69573700D01*
X82575000Y-69855000D02*
X83700300Y-69855000D01*
%TO.N,A6*%
X79910300Y-76185000D02*
X85115000Y-70980300D01*
X79910300Y-78534800D02*
X79910300Y-76185000D01*
X79102400Y-79342700D02*
X79910300Y-78534800D01*
X78735000Y-79342700D02*
X79102400Y-79342700D01*
X78735000Y-80518000D02*
X78735000Y-79342700D01*
X85115000Y-69855000D02*
X85115000Y-70417600D01*
X85115000Y-70417600D02*
X85115000Y-70980300D01*
X96693900Y-58838700D02*
X113301100Y-58838700D01*
X85115000Y-70417600D02*
X96693900Y-58838700D01*
%TO.N,A5*%
X87655000Y-69855000D02*
X88780300Y-69855000D01*
X97331000Y-61023000D02*
X114673000Y-61023000D01*
X88780300Y-69573700D02*
X97331000Y-61023000D01*
X88780300Y-69855000D02*
X88780300Y-69573700D01*
%TO.N,A3*%
X101616500Y-61817500D02*
X109558500Y-61817500D01*
X93860300Y-69573700D02*
X101616500Y-61817500D01*
X93860300Y-69855000D02*
X93860300Y-69573700D01*
X92735000Y-69855000D02*
X93860300Y-69855000D01*
X83815000Y-77978000D02*
X83815000Y-79153300D01*
X72393300Y-82167800D02*
X72341200Y-82115700D01*
X81290400Y-82167800D02*
X72393300Y-82167800D01*
X82639700Y-80818500D02*
X81290400Y-82167800D01*
X82639700Y-79961200D02*
X82639700Y-80818500D01*
X83447600Y-79153300D02*
X82639700Y-79961200D01*
X83815000Y-79153300D02*
X83447600Y-79153300D01*
%TO.N,A2*%
X103197700Y-62776300D02*
X108738700Y-62776300D01*
X96400300Y-69573700D02*
X103197700Y-62776300D01*
X96400300Y-69855000D02*
X96400300Y-69573700D01*
X95275000Y-69855000D02*
X96400300Y-69855000D01*
X81492000Y-82841000D02*
X83815000Y-80518000D01*
X70854900Y-82841000D02*
X81492000Y-82841000D01*
X70333400Y-82319500D02*
X70854900Y-82841000D01*
%TO.N,A1*%
X87361400Y-77815700D02*
X87361400Y-77978000D01*
X93876100Y-71301000D02*
X87361400Y-77815700D01*
X96369000Y-71301000D02*
X93876100Y-71301000D01*
X97815000Y-69855000D02*
X96369000Y-71301000D01*
X86355000Y-77978000D02*
X86858200Y-77978000D01*
X86858200Y-77978000D02*
X87361400Y-77978000D01*
X85179700Y-79656500D02*
X86858200Y-77978000D01*
X85179700Y-80885300D02*
X85179700Y-79656500D01*
X82773700Y-83291300D02*
X85179700Y-80885300D01*
X69120100Y-83291300D02*
X82773700Y-83291300D01*
X68334700Y-82505900D02*
X69120100Y-83291300D01*
%TO.N,A0*%
X99229700Y-70136300D02*
X99229700Y-69855000D01*
X97109900Y-72256100D02*
X99229700Y-70136300D01*
X95464900Y-72256100D02*
X97109900Y-72256100D01*
X90165000Y-77556000D02*
X95464900Y-72256100D01*
X90165000Y-78409000D02*
X90165000Y-77556000D01*
X89231300Y-79342700D02*
X90165000Y-78409000D01*
X88338200Y-79342700D02*
X89231300Y-79342700D01*
X87530300Y-80150600D02*
X88338200Y-79342700D01*
X87530300Y-80518000D02*
X87530300Y-80150600D01*
X100355000Y-69855000D02*
X99229700Y-69855000D01*
X86355000Y-80518000D02*
X86428500Y-80518000D01*
X86428500Y-80518000D02*
X87530300Y-80518000D01*
X83204900Y-83741600D02*
X86428500Y-80518000D01*
X66370400Y-83741600D02*
X83204900Y-83741600D01*
X64692600Y-82063800D02*
X66370400Y-83741600D01*
%TO.N,D7*%
X100355000Y-54615000D02*
X99229700Y-54615000D01*
X54610000Y-54753000D02*
X55735300Y-54753000D01*
X55735300Y-55034300D02*
X55735300Y-54753000D01*
X62919600Y-62218600D02*
X55735300Y-55034300D01*
X79103000Y-62218600D02*
X62919600Y-62218600D01*
X86385000Y-54936600D02*
X79103000Y-62218600D01*
X86385000Y-54279900D02*
X86385000Y-54936600D01*
X87185200Y-53479700D02*
X86385000Y-54279900D01*
X98375700Y-53479700D02*
X87185200Y-53479700D01*
X99229700Y-54333700D02*
X98375700Y-53479700D01*
X99229700Y-54615000D02*
X99229700Y-54333700D01*
%TO.N,D6*%
X102895000Y-54615000D02*
X101769700Y-54615000D01*
X57150000Y-54753000D02*
X58275300Y-54753000D01*
X58275300Y-55034400D02*
X58275300Y-54753000D01*
X65009200Y-61768300D02*
X58275300Y-55034400D01*
X77064700Y-61768300D02*
X65009200Y-61768300D01*
X83845000Y-54988000D02*
X77064700Y-61768300D01*
X83845000Y-54240500D02*
X83845000Y-54988000D01*
X85094900Y-52990600D02*
X83845000Y-54240500D01*
X100426700Y-52990600D02*
X85094900Y-52990600D01*
X101769700Y-54333600D02*
X100426700Y-52990600D01*
X101769700Y-54615000D02*
X101769700Y-54333600D01*
%TO.N,D5*%
X105435000Y-54615000D02*
X104309700Y-54615000D01*
X59690000Y-54753000D02*
X60815300Y-54753000D01*
X60815300Y-55034300D02*
X60815300Y-54753000D01*
X67098400Y-61317400D02*
X60815300Y-55034300D01*
X74967500Y-61317400D02*
X67098400Y-61317400D01*
X81305000Y-54979900D02*
X74967500Y-61317400D01*
X81305000Y-54266400D02*
X81305000Y-54979900D01*
X83031100Y-52540300D02*
X81305000Y-54266400D01*
X102517400Y-52540300D02*
X83031100Y-52540300D01*
X104309700Y-54332600D02*
X102517400Y-52540300D01*
X104309700Y-54615000D02*
X104309700Y-54332600D01*
%TO.N,D4*%
X107975000Y-54615000D02*
X106849700Y-54615000D01*
X62230000Y-54753000D02*
X63355300Y-54753000D01*
X63355300Y-55034300D02*
X63355300Y-54753000D01*
X69188100Y-60867100D02*
X63355300Y-55034300D01*
X72883200Y-60867100D02*
X69188100Y-60867100D01*
X78765000Y-54985300D02*
X72883200Y-60867100D01*
X78765000Y-54271200D02*
X78765000Y-54985300D01*
X80946200Y-52090000D02*
X78765000Y-54271200D01*
X104606000Y-52090000D02*
X80946200Y-52090000D01*
X106849700Y-54333700D02*
X104606000Y-52090000D01*
X106849700Y-54615000D02*
X106849700Y-54333700D01*
%TO.N,D3*%
X66245600Y-54402700D02*
X65895300Y-54753000D01*
X72052300Y-54402700D02*
X66245600Y-54402700D01*
X64770000Y-54753000D02*
X65895300Y-54753000D01*
X110515000Y-54615000D02*
X109389700Y-54615000D01*
X78545400Y-51639700D02*
X77313200Y-52871900D01*
X106695700Y-51639700D02*
X78545400Y-51639700D01*
X109389700Y-54333700D02*
X106695700Y-51639700D01*
X109389700Y-54615000D02*
X109389700Y-54333700D01*
%TO.N,D2*%
X93975000Y-80518000D02*
X92799700Y-80518000D01*
X92799700Y-80885400D02*
X92799700Y-80518000D01*
X89493200Y-84191900D02*
X92799700Y-80885400D01*
X65729800Y-84191900D02*
X89493200Y-84191900D01*
X63926000Y-82388100D02*
X65729800Y-84191900D01*
X63926000Y-81804700D02*
X63926000Y-82388100D01*
X64700200Y-81030500D02*
X63926000Y-81804700D01*
X64700200Y-73030400D02*
X64700200Y-81030500D01*
X64651600Y-72981800D02*
X64700200Y-73030400D01*
%TO.N,D1*%
X105435000Y-69855000D02*
X104309700Y-69855000D01*
X96515000Y-77978000D02*
X96515000Y-77684100D01*
X96515000Y-77684100D02*
X96515000Y-76802700D01*
X95245000Y-78954100D02*
X96515000Y-77684100D01*
X95245000Y-80926200D02*
X95245000Y-78954100D01*
X91529000Y-84642200D02*
X95245000Y-80926200D01*
X65497900Y-84642200D02*
X91529000Y-84642200D01*
X62319600Y-81463900D02*
X65497900Y-84642200D01*
X62319600Y-76295500D02*
X62319600Y-81463900D01*
X61817900Y-75793800D02*
X62319600Y-76295500D01*
X101769700Y-71548000D02*
X96515000Y-76802700D01*
X101769700Y-69322900D02*
X101769700Y-71548000D01*
X102392400Y-68700200D02*
X101769700Y-69322900D01*
X103436200Y-68700200D02*
X102392400Y-68700200D01*
X104309700Y-69573700D02*
X103436200Y-68700200D01*
X104309700Y-69855000D02*
X104309700Y-69573700D01*
%TO.N,D0*%
X91940500Y-85092500D02*
X96515000Y-80518000D01*
X63851000Y-85092500D02*
X91940500Y-85092500D01*
X59633700Y-80875200D02*
X63851000Y-85092500D01*
X59633700Y-79670500D02*
X59633700Y-80875200D01*
X102895000Y-71692600D02*
X102895000Y-69855000D01*
X97690300Y-76897300D02*
X102895000Y-71692600D01*
X97690300Y-78534800D02*
X97690300Y-76897300D01*
X96882400Y-79342700D02*
X97690300Y-78534800D01*
X96515000Y-79342700D02*
X96882400Y-79342700D01*
X96515000Y-80518000D02*
X96515000Y-79342700D01*
%TO.N,A14_1*%
X42171400Y-63604700D02*
X35035100Y-56468400D01*
X73420400Y-63604700D02*
X42171400Y-63604700D01*
X77495000Y-67679300D02*
X73420400Y-63604700D01*
X77495000Y-69855000D02*
X77495000Y-67679300D01*
%TD*%
M02*
