%TF.GenerationSoftware,KiCad,Pcbnew,(6.0.9)*%
%TF.CreationDate,2023-11-25T21:35:55+01:00*%
%TF.ProjectId,p2000t-ram-expansion-board,70323030-3074-42d7-9261-6d2d65787061,rev?*%
%TF.SameCoordinates,Original*%
%TF.FileFunction,Legend,Bot*%
%TF.FilePolarity,Positive*%
%FSLAX46Y46*%
G04 Gerber Fmt 4.6, Leading zero omitted, Abs format (unit mm)*
G04 Created by KiCad (PCBNEW (6.0.9)) date 2023-11-25 21:35:55*
%MOMM*%
%LPD*%
G01*
G04 APERTURE LIST*
%ADD10C,0.150000*%
%ADD11C,0.200000*%
%ADD12C,0.010000*%
%ADD13C,0.120000*%
G04 APERTURE END LIST*
D10*
X80772000Y-58928000D02*
X108712000Y-58928000D01*
X108712000Y-58928000D02*
X108712000Y-66802000D01*
X108712000Y-66802000D02*
X80772000Y-66802000D01*
X80772000Y-66802000D02*
X80772000Y-58928000D01*
X33337500Y-65024000D02*
X63690500Y-65024000D01*
X63690500Y-65024000D02*
X63690500Y-59944000D01*
X63690500Y-59944000D02*
X33337500Y-59944000D01*
X33337500Y-59944000D02*
X33337500Y-65024000D01*
G36*
X33337500Y-65024000D02*
G01*
X63690500Y-65024000D01*
X63690500Y-59944000D01*
X33337500Y-59944000D01*
X33337500Y-65024000D01*
G37*
X81763618Y-61595000D02*
X107036618Y-61595000D01*
X106203237Y-64984142D02*
X106869903Y-64984142D01*
X106679427Y-64984142D02*
X106774665Y-64936523D01*
X106822284Y-64888904D01*
X106869903Y-64793666D01*
X106869903Y-64698428D01*
X106250856Y-63984142D02*
X106203237Y-64079380D01*
X106203237Y-64269857D01*
X106250856Y-64365095D01*
X106346094Y-64412714D01*
X106727046Y-64412714D01*
X106822284Y-64365095D01*
X106869903Y-64269857D01*
X106869903Y-64079380D01*
X106822284Y-63984142D01*
X106727046Y-63936523D01*
X106631808Y-63936523D01*
X106536570Y-64412714D01*
X106869903Y-63603190D02*
X106203237Y-63365095D01*
X106869903Y-63127000D01*
X107203237Y-62841285D02*
X107203237Y-62222238D01*
X106822284Y-62555571D01*
X106822284Y-62412714D01*
X106774665Y-62317476D01*
X106727046Y-62269857D01*
X106631808Y-62222238D01*
X106393713Y-62222238D01*
X106298475Y-62269857D01*
X106250856Y-62317476D01*
X106203237Y-62412714D01*
X106203237Y-62698428D01*
X106250856Y-62793666D01*
X106298475Y-62841285D01*
D11*
X31198428Y-64626857D02*
X32698428Y-64626857D01*
X32698428Y-64269714D01*
X32627000Y-64055428D01*
X32484142Y-63912571D01*
X32341285Y-63841142D01*
X32055571Y-63769714D01*
X31841285Y-63769714D01*
X31555571Y-63841142D01*
X31412714Y-63912571D01*
X31269857Y-64055428D01*
X31198428Y-64269714D01*
X31198428Y-64626857D01*
X31198428Y-62484000D02*
X31984142Y-62484000D01*
X32127000Y-62555428D01*
X32198428Y-62698285D01*
X32198428Y-62984000D01*
X32127000Y-63126857D01*
X31269857Y-62484000D02*
X31198428Y-62626857D01*
X31198428Y-62984000D01*
X31269857Y-63126857D01*
X31412714Y-63198285D01*
X31555571Y-63198285D01*
X31698428Y-63126857D01*
X31769857Y-62984000D01*
X31769857Y-62626857D01*
X31841285Y-62484000D01*
X32198428Y-61984000D02*
X32198428Y-61412571D01*
X32698428Y-61769714D02*
X31412714Y-61769714D01*
X31269857Y-61698285D01*
X31198428Y-61555428D01*
X31198428Y-61412571D01*
X31269857Y-60341142D02*
X31198428Y-60484000D01*
X31198428Y-60769714D01*
X31269857Y-60912571D01*
X31412714Y-60984000D01*
X31984142Y-60984000D01*
X32127000Y-60912571D01*
X32198428Y-60769714D01*
X32198428Y-60484000D01*
X32127000Y-60341142D01*
X31984142Y-60269714D01*
X31841285Y-60269714D01*
X31698428Y-60984000D01*
D10*
X104520760Y-60067857D02*
X104292189Y-60867857D01*
X104063618Y-60296428D01*
X103835046Y-60867857D01*
X103606475Y-60067857D01*
X103263618Y-60067857D02*
X103035046Y-60867857D01*
X102806475Y-60296428D01*
X102577903Y-60867857D01*
X102349332Y-60067857D01*
X102006475Y-60067857D02*
X101777903Y-60867857D01*
X101549332Y-60296428D01*
X101320760Y-60867857D01*
X101092189Y-60067857D01*
X100635046Y-60753571D02*
X100577903Y-60810714D01*
X100635046Y-60867857D01*
X100692189Y-60810714D01*
X100635046Y-60753571D01*
X100635046Y-60867857D01*
X100063618Y-60067857D02*
X100063618Y-61267857D01*
X100063618Y-60125000D02*
X99949332Y-60067857D01*
X99720760Y-60067857D01*
X99606475Y-60125000D01*
X99549332Y-60182142D01*
X99492189Y-60296428D01*
X99492189Y-60639285D01*
X99549332Y-60753571D01*
X99606475Y-60810714D01*
X99720760Y-60867857D01*
X99949332Y-60867857D01*
X100063618Y-60810714D01*
X98977903Y-60867857D02*
X98977903Y-59667857D01*
X98463618Y-60867857D02*
X98463618Y-60239285D01*
X98520760Y-60125000D01*
X98635046Y-60067857D01*
X98806475Y-60067857D01*
X98920760Y-60125000D01*
X98977903Y-60182142D01*
X97892189Y-60867857D02*
X97892189Y-60067857D01*
X97892189Y-59667857D02*
X97949332Y-59725000D01*
X97892189Y-59782142D01*
X97835046Y-59725000D01*
X97892189Y-59667857D01*
X97892189Y-59782142D01*
X97149332Y-60867857D02*
X97263618Y-60810714D01*
X97320760Y-60696428D01*
X97320760Y-59667857D01*
X96692189Y-60867857D02*
X96692189Y-60067857D01*
X96692189Y-59667857D02*
X96749332Y-59725000D01*
X96692189Y-59782142D01*
X96635046Y-59725000D01*
X96692189Y-59667857D01*
X96692189Y-59782142D01*
X96120760Y-60067857D02*
X96120760Y-61267857D01*
X96120760Y-60125000D02*
X96006475Y-60067857D01*
X95777903Y-60067857D01*
X95663618Y-60125000D01*
X95606475Y-60182142D01*
X95549332Y-60296428D01*
X95549332Y-60639285D01*
X95606475Y-60753571D01*
X95663618Y-60810714D01*
X95777903Y-60867857D01*
X96006475Y-60867857D01*
X96120760Y-60810714D01*
X95092189Y-60810714D02*
X94977903Y-60867857D01*
X94749332Y-60867857D01*
X94635046Y-60810714D01*
X94577903Y-60696428D01*
X94577903Y-60639285D01*
X94635046Y-60525000D01*
X94749332Y-60467857D01*
X94920760Y-60467857D01*
X95035046Y-60410714D01*
X95092189Y-60296428D01*
X95092189Y-60239285D01*
X95035046Y-60125000D01*
X94920760Y-60067857D01*
X94749332Y-60067857D01*
X94635046Y-60125000D01*
X94063618Y-60410714D02*
X93149332Y-60410714D01*
X92577903Y-60067857D02*
X92577903Y-61267857D01*
X92577903Y-60125000D02*
X92463618Y-60067857D01*
X92235046Y-60067857D01*
X92120760Y-60125000D01*
X92063618Y-60182142D01*
X92006475Y-60296428D01*
X92006475Y-60639285D01*
X92063618Y-60753571D01*
X92120760Y-60810714D01*
X92235046Y-60867857D01*
X92463618Y-60867857D01*
X92577903Y-60810714D01*
X91549332Y-59782142D02*
X91492189Y-59725000D01*
X91377903Y-59667857D01*
X91092189Y-59667857D01*
X90977903Y-59725000D01*
X90920760Y-59782142D01*
X90863618Y-59896428D01*
X90863618Y-60010714D01*
X90920760Y-60182142D01*
X91606475Y-60867857D01*
X90863618Y-60867857D01*
X90120760Y-59667857D02*
X90006475Y-59667857D01*
X89892189Y-59725000D01*
X89835046Y-59782142D01*
X89777903Y-59896428D01*
X89720760Y-60125000D01*
X89720760Y-60410714D01*
X89777903Y-60639285D01*
X89835046Y-60753571D01*
X89892189Y-60810714D01*
X90006475Y-60867857D01*
X90120760Y-60867857D01*
X90235046Y-60810714D01*
X90292189Y-60753571D01*
X90349332Y-60639285D01*
X90406475Y-60410714D01*
X90406475Y-60125000D01*
X90349332Y-59896428D01*
X90292189Y-59782142D01*
X90235046Y-59725000D01*
X90120760Y-59667857D01*
X88977903Y-59667857D02*
X88863618Y-59667857D01*
X88749332Y-59725000D01*
X88692189Y-59782142D01*
X88635046Y-59896428D01*
X88577903Y-60125000D01*
X88577903Y-60410714D01*
X88635046Y-60639285D01*
X88692189Y-60753571D01*
X88749332Y-60810714D01*
X88863618Y-60867857D01*
X88977903Y-60867857D01*
X89092189Y-60810714D01*
X89149332Y-60753571D01*
X89206475Y-60639285D01*
X89263618Y-60410714D01*
X89263618Y-60125000D01*
X89206475Y-59896428D01*
X89149332Y-59782142D01*
X89092189Y-59725000D01*
X88977903Y-59667857D01*
X87835046Y-59667857D02*
X87720760Y-59667857D01*
X87606475Y-59725000D01*
X87549332Y-59782142D01*
X87492189Y-59896428D01*
X87435046Y-60125000D01*
X87435046Y-60410714D01*
X87492189Y-60639285D01*
X87549332Y-60753571D01*
X87606475Y-60810714D01*
X87720760Y-60867857D01*
X87835046Y-60867857D01*
X87949332Y-60810714D01*
X88006475Y-60753571D01*
X88063618Y-60639285D01*
X88120760Y-60410714D01*
X88120760Y-60125000D01*
X88063618Y-59896428D01*
X88006475Y-59782142D01*
X87949332Y-59725000D01*
X87835046Y-59667857D01*
X87092189Y-60067857D02*
X86635046Y-60067857D01*
X86920760Y-59667857D02*
X86920760Y-60696428D01*
X86863618Y-60810714D01*
X86749332Y-60867857D01*
X86635046Y-60867857D01*
X86235046Y-60753571D02*
X86177903Y-60810714D01*
X86235046Y-60867857D01*
X86292189Y-60810714D01*
X86235046Y-60753571D01*
X86235046Y-60867857D01*
X85663618Y-60067857D02*
X85663618Y-60867857D01*
X85663618Y-60182142D02*
X85606475Y-60125000D01*
X85492189Y-60067857D01*
X85320760Y-60067857D01*
X85206475Y-60125000D01*
X85149332Y-60239285D01*
X85149332Y-60867857D01*
X84406475Y-60867857D02*
X84520760Y-60810714D01*
X84577903Y-60696428D01*
X84577903Y-59667857D01*
X105304022Y-63274380D02*
X105304022Y-62274380D01*
X104923070Y-62274380D01*
X104827832Y-62322000D01*
X104780213Y-62369619D01*
X104732594Y-62464857D01*
X104732594Y-62607714D01*
X104780213Y-62702952D01*
X104827832Y-62750571D01*
X104923070Y-62798190D01*
X105304022Y-62798190D01*
X104351641Y-62369619D02*
X104304022Y-62322000D01*
X104208784Y-62274380D01*
X103970689Y-62274380D01*
X103875451Y-62322000D01*
X103827832Y-62369619D01*
X103780213Y-62464857D01*
X103780213Y-62560095D01*
X103827832Y-62702952D01*
X104399260Y-63274380D01*
X103780213Y-63274380D01*
X103161165Y-62274380D02*
X103065927Y-62274380D01*
X102970689Y-62322000D01*
X102923070Y-62369619D01*
X102875451Y-62464857D01*
X102827832Y-62655333D01*
X102827832Y-62893428D01*
X102875451Y-63083904D01*
X102923070Y-63179142D01*
X102970689Y-63226761D01*
X103065927Y-63274380D01*
X103161165Y-63274380D01*
X103256403Y-63226761D01*
X103304022Y-63179142D01*
X103351641Y-63083904D01*
X103399260Y-62893428D01*
X103399260Y-62655333D01*
X103351641Y-62464857D01*
X103304022Y-62369619D01*
X103256403Y-62322000D01*
X103161165Y-62274380D01*
X102208784Y-62274380D02*
X102113546Y-62274380D01*
X102018308Y-62322000D01*
X101970689Y-62369619D01*
X101923070Y-62464857D01*
X101875451Y-62655333D01*
X101875451Y-62893428D01*
X101923070Y-63083904D01*
X101970689Y-63179142D01*
X102018308Y-63226761D01*
X102113546Y-63274380D01*
X102208784Y-63274380D01*
X102304022Y-63226761D01*
X102351641Y-63179142D01*
X102399260Y-63083904D01*
X102446879Y-62893428D01*
X102446879Y-62655333D01*
X102399260Y-62464857D01*
X102351641Y-62369619D01*
X102304022Y-62322000D01*
X102208784Y-62274380D01*
X101256403Y-62274380D02*
X101161165Y-62274380D01*
X101065927Y-62322000D01*
X101018308Y-62369619D01*
X100970689Y-62464857D01*
X100923070Y-62655333D01*
X100923070Y-62893428D01*
X100970689Y-63083904D01*
X101018308Y-63179142D01*
X101065927Y-63226761D01*
X101161165Y-63274380D01*
X101256403Y-63274380D01*
X101351641Y-63226761D01*
X101399260Y-63179142D01*
X101446879Y-63083904D01*
X101494498Y-62893428D01*
X101494498Y-62655333D01*
X101446879Y-62464857D01*
X101399260Y-62369619D01*
X101351641Y-62322000D01*
X101256403Y-62274380D01*
X100637356Y-62274380D02*
X100065927Y-62274380D01*
X100351641Y-63274380D02*
X100351641Y-62274380D01*
X98399260Y-63274380D02*
X98732594Y-62798190D01*
X98970689Y-63274380D02*
X98970689Y-62274380D01*
X98589737Y-62274380D01*
X98494498Y-62322000D01*
X98446879Y-62369619D01*
X98399260Y-62464857D01*
X98399260Y-62607714D01*
X98446879Y-62702952D01*
X98494498Y-62750571D01*
X98589737Y-62798190D01*
X98970689Y-62798190D01*
X98018308Y-62988666D02*
X97542118Y-62988666D01*
X98113546Y-63274380D02*
X97780213Y-62274380D01*
X97446879Y-63274380D01*
X97113546Y-63274380D02*
X97113546Y-62274380D01*
X96780213Y-62988666D01*
X96446879Y-62274380D01*
X96446879Y-63274380D01*
X95208784Y-62750571D02*
X94875451Y-62750571D01*
X94732594Y-63274380D02*
X95208784Y-63274380D01*
X95208784Y-62274380D01*
X94732594Y-62274380D01*
X94399260Y-62274380D02*
X93732594Y-63274380D01*
X93732594Y-62274380D02*
X94399260Y-63274380D01*
X93351641Y-63274380D02*
X93351641Y-62274380D01*
X92970689Y-62274380D01*
X92875451Y-62322000D01*
X92827832Y-62369619D01*
X92780213Y-62464857D01*
X92780213Y-62607714D01*
X92827832Y-62702952D01*
X92875451Y-62750571D01*
X92970689Y-62798190D01*
X93351641Y-62798190D01*
X92399260Y-62988666D02*
X91923070Y-62988666D01*
X92494498Y-63274380D02*
X92161165Y-62274380D01*
X91827832Y-63274380D01*
X91494498Y-63274380D02*
X91494498Y-62274380D01*
X90923070Y-63274380D01*
X90923070Y-62274380D01*
X90494498Y-63226761D02*
X90351641Y-63274380D01*
X90113546Y-63274380D01*
X90018308Y-63226761D01*
X89970689Y-63179142D01*
X89923070Y-63083904D01*
X89923070Y-62988666D01*
X89970689Y-62893428D01*
X90018308Y-62845809D01*
X90113546Y-62798190D01*
X90304022Y-62750571D01*
X90399260Y-62702952D01*
X90446879Y-62655333D01*
X90494498Y-62560095D01*
X90494498Y-62464857D01*
X90446879Y-62369619D01*
X90399260Y-62322000D01*
X90304022Y-62274380D01*
X90065927Y-62274380D01*
X89923070Y-62322000D01*
X89494498Y-63274380D02*
X89494498Y-62274380D01*
X88827832Y-62274380D02*
X88637356Y-62274380D01*
X88542118Y-62322000D01*
X88446879Y-62417238D01*
X88399260Y-62607714D01*
X88399260Y-62941047D01*
X88446879Y-63131523D01*
X88542118Y-63226761D01*
X88637356Y-63274380D01*
X88827832Y-63274380D01*
X88923070Y-63226761D01*
X89018308Y-63131523D01*
X89065927Y-62941047D01*
X89065927Y-62607714D01*
X89018308Y-62417238D01*
X88923070Y-62322000D01*
X88827832Y-62274380D01*
X87970689Y-63274380D02*
X87970689Y-62274380D01*
X87399260Y-63274380D01*
X87399260Y-62274380D01*
X85827832Y-62750571D02*
X85684975Y-62798190D01*
X85637356Y-62845809D01*
X85589737Y-62941047D01*
X85589737Y-63083904D01*
X85637356Y-63179142D01*
X85684975Y-63226761D01*
X85780213Y-63274380D01*
X86161165Y-63274380D01*
X86161165Y-62274380D01*
X85827832Y-62274380D01*
X85732594Y-62322000D01*
X85684975Y-62369619D01*
X85637356Y-62464857D01*
X85637356Y-62560095D01*
X85684975Y-62655333D01*
X85732594Y-62702952D01*
X85827832Y-62750571D01*
X86161165Y-62750571D01*
X84970689Y-62274380D02*
X84780213Y-62274380D01*
X84684975Y-62322000D01*
X84589737Y-62417238D01*
X84542118Y-62607714D01*
X84542118Y-62941047D01*
X84589737Y-63131523D01*
X84684975Y-63226761D01*
X84780213Y-63274380D01*
X84970689Y-63274380D01*
X85065927Y-63226761D01*
X85161165Y-63131523D01*
X85208784Y-62941047D01*
X85208784Y-62607714D01*
X85161165Y-62417238D01*
X85065927Y-62322000D01*
X84970689Y-62274380D01*
X84161165Y-62988666D02*
X83684975Y-62988666D01*
X84256403Y-63274380D02*
X83923070Y-62274380D01*
X83589737Y-63274380D01*
X82684975Y-63274380D02*
X83018308Y-62798190D01*
X83256403Y-63274380D02*
X83256403Y-62274380D01*
X82875451Y-62274380D01*
X82780213Y-62322000D01*
X82732594Y-62369619D01*
X82684975Y-62464857D01*
X82684975Y-62607714D01*
X82732594Y-62702952D01*
X82780213Y-62750571D01*
X82875451Y-62798190D01*
X83256403Y-62798190D01*
X82256403Y-63274380D02*
X82256403Y-62274380D01*
X82018308Y-62274380D01*
X81875451Y-62322000D01*
X81780213Y-62417238D01*
X81732594Y-62512476D01*
X81684975Y-62702952D01*
X81684975Y-62845809D01*
X81732594Y-63036285D01*
X81780213Y-63131523D01*
X81875451Y-63226761D01*
X82018308Y-63274380D01*
X82256403Y-63274380D01*
X104875451Y-63884380D02*
X105065927Y-63884380D01*
X105161165Y-63932000D01*
X105208784Y-63979619D01*
X105304022Y-64122476D01*
X105351641Y-64312952D01*
X105351641Y-64693904D01*
X105304022Y-64789142D01*
X105256403Y-64836761D01*
X105161165Y-64884380D01*
X104970689Y-64884380D01*
X104875451Y-64836761D01*
X104827832Y-64789142D01*
X104780213Y-64693904D01*
X104780213Y-64455809D01*
X104827832Y-64360571D01*
X104875451Y-64312952D01*
X104970689Y-64265333D01*
X105161165Y-64265333D01*
X105256403Y-64312952D01*
X105304022Y-64360571D01*
X105351641Y-64455809D01*
X103923070Y-64217714D02*
X103923070Y-64884380D01*
X104161165Y-63836761D02*
X104399260Y-64551047D01*
X103780213Y-64551047D01*
X103399260Y-64884380D02*
X103399260Y-63884380D01*
X103304022Y-64503428D02*
X103018308Y-64884380D01*
X103018308Y-64217714D02*
X103399260Y-64598666D01*
X102589737Y-64884380D02*
X102589737Y-63884380D01*
X102589737Y-64265333D02*
X102494498Y-64217714D01*
X102304022Y-64217714D01*
X102208784Y-64265333D01*
X102161165Y-64312952D01*
X102113546Y-64408190D01*
X102113546Y-64693904D01*
X102161165Y-64789142D01*
X102208784Y-64836761D01*
X102304022Y-64884380D01*
X102494498Y-64884380D01*
X102589737Y-64836761D01*
X100637356Y-65265333D02*
X100684975Y-65217714D01*
X100780213Y-65074857D01*
X100827832Y-64979619D01*
X100875451Y-64836761D01*
X100923070Y-64598666D01*
X100923070Y-64408190D01*
X100875451Y-64170095D01*
X100827832Y-64027238D01*
X100780213Y-63932000D01*
X100684975Y-63789142D01*
X100637356Y-63741523D01*
X100065927Y-63884380D02*
X99970689Y-63884380D01*
X99875451Y-63932000D01*
X99827832Y-63979619D01*
X99780213Y-64074857D01*
X99732594Y-64265333D01*
X99732594Y-64503428D01*
X99780213Y-64693904D01*
X99827832Y-64789142D01*
X99875451Y-64836761D01*
X99970689Y-64884380D01*
X100065927Y-64884380D01*
X100161165Y-64836761D01*
X100208784Y-64789142D01*
X100256403Y-64693904D01*
X100304022Y-64503428D01*
X100304022Y-64265333D01*
X100256403Y-64074857D01*
X100208784Y-63979619D01*
X100161165Y-63932000D01*
X100065927Y-63884380D01*
X99304022Y-64503428D02*
X98542118Y-64503428D01*
X97589737Y-63884380D02*
X98065927Y-63884380D01*
X98113546Y-64360571D01*
X98065927Y-64312952D01*
X97970689Y-64265333D01*
X97732594Y-64265333D01*
X97637356Y-64312952D01*
X97589737Y-64360571D01*
X97542118Y-64455809D01*
X97542118Y-64693904D01*
X97589737Y-64789142D01*
X97637356Y-64836761D01*
X97732594Y-64884380D01*
X97970689Y-64884380D01*
X98065927Y-64836761D01*
X98113546Y-64789142D01*
X96351641Y-64884380D02*
X96351641Y-63884380D01*
X96351641Y-64265333D02*
X96256403Y-64217714D01*
X96065927Y-64217714D01*
X95970689Y-64265333D01*
X95923070Y-64312952D01*
X95875451Y-64408190D01*
X95875451Y-64693904D01*
X95923070Y-64789142D01*
X95970689Y-64836761D01*
X96065927Y-64884380D01*
X96256403Y-64884380D01*
X96351641Y-64836761D01*
X95018308Y-64884380D02*
X95018308Y-64360571D01*
X95065927Y-64265333D01*
X95161165Y-64217714D01*
X95351641Y-64217714D01*
X95446879Y-64265333D01*
X95018308Y-64836761D02*
X95113546Y-64884380D01*
X95351641Y-64884380D01*
X95446879Y-64836761D01*
X95494498Y-64741523D01*
X95494498Y-64646285D01*
X95446879Y-64551047D01*
X95351641Y-64503428D01*
X95113546Y-64503428D01*
X95018308Y-64455809D01*
X94542118Y-64217714D02*
X94542118Y-64884380D01*
X94542118Y-64312952D02*
X94494498Y-64265333D01*
X94399260Y-64217714D01*
X94256403Y-64217714D01*
X94161165Y-64265333D01*
X94113546Y-64360571D01*
X94113546Y-64884380D01*
X93637356Y-64884380D02*
X93637356Y-63884380D01*
X93542118Y-64503428D02*
X93256403Y-64884380D01*
X93256403Y-64217714D02*
X93637356Y-64598666D01*
X92113546Y-64836761D02*
X92018308Y-64884380D01*
X91827832Y-64884380D01*
X91732594Y-64836761D01*
X91684975Y-64741523D01*
X91684975Y-64693904D01*
X91732594Y-64598666D01*
X91827832Y-64551047D01*
X91970689Y-64551047D01*
X92065927Y-64503428D01*
X92113546Y-64408190D01*
X92113546Y-64360571D01*
X92065927Y-64265333D01*
X91970689Y-64217714D01*
X91827832Y-64217714D01*
X91732594Y-64265333D01*
X91351641Y-64217714D02*
X91161165Y-64884380D01*
X90970689Y-64408190D01*
X90780213Y-64884380D01*
X90589737Y-64217714D01*
X90208784Y-64884380D02*
X90208784Y-64217714D01*
X90208784Y-63884380D02*
X90256403Y-63932000D01*
X90208784Y-63979619D01*
X90161165Y-63932000D01*
X90208784Y-63884380D01*
X90208784Y-63979619D01*
X89875451Y-64217714D02*
X89494498Y-64217714D01*
X89732594Y-63884380D02*
X89732594Y-64741523D01*
X89684975Y-64836761D01*
X89589737Y-64884380D01*
X89494498Y-64884380D01*
X88732594Y-64836761D02*
X88827832Y-64884380D01*
X89018308Y-64884380D01*
X89113546Y-64836761D01*
X89161165Y-64789142D01*
X89208784Y-64693904D01*
X89208784Y-64408190D01*
X89161165Y-64312952D01*
X89113546Y-64265333D01*
X89018308Y-64217714D01*
X88827832Y-64217714D01*
X88732594Y-64265333D01*
X88304022Y-64884380D02*
X88304022Y-63884380D01*
X87875451Y-64884380D02*
X87875451Y-64360571D01*
X87923070Y-64265333D01*
X88018308Y-64217714D01*
X88161165Y-64217714D01*
X88256403Y-64265333D01*
X88304022Y-64312952D01*
X87399260Y-64884380D02*
X87399260Y-64217714D01*
X87399260Y-63884380D02*
X87446879Y-63932000D01*
X87399260Y-63979619D01*
X87351641Y-63932000D01*
X87399260Y-63884380D01*
X87399260Y-63979619D01*
X86923070Y-64217714D02*
X86923070Y-64884380D01*
X86923070Y-64312952D02*
X86875451Y-64265333D01*
X86780213Y-64217714D01*
X86637356Y-64217714D01*
X86542118Y-64265333D01*
X86494498Y-64360571D01*
X86494498Y-64884380D01*
X85589737Y-64217714D02*
X85589737Y-65027238D01*
X85637356Y-65122476D01*
X85684975Y-65170095D01*
X85780213Y-65217714D01*
X85923070Y-65217714D01*
X86018308Y-65170095D01*
X85589737Y-64836761D02*
X85684975Y-64884380D01*
X85875451Y-64884380D01*
X85970689Y-64836761D01*
X86018308Y-64789142D01*
X86065927Y-64693904D01*
X86065927Y-64408190D01*
X86018308Y-64312952D01*
X85970689Y-64265333D01*
X85875451Y-64217714D01*
X85684975Y-64217714D01*
X85589737Y-64265333D01*
X85208784Y-65265333D02*
X85161165Y-65217714D01*
X85065927Y-65074857D01*
X85018308Y-64979619D01*
X84970689Y-64836761D01*
X84923070Y-64598666D01*
X84923070Y-64408190D01*
X84970689Y-64170095D01*
X85018308Y-64027238D01*
X85065927Y-63932000D01*
X85161165Y-63789142D01*
X85208784Y-63741523D01*
X29130190Y-87796714D02*
X29130190Y-88653857D01*
X29177809Y-88749095D01*
X29273047Y-88796714D01*
X29320666Y-88796714D01*
X29130190Y-87463380D02*
X29177809Y-87511000D01*
X29130190Y-87558619D01*
X29082571Y-87511000D01*
X29130190Y-87463380D01*
X29130190Y-87558619D01*
X28511142Y-88463380D02*
X28606380Y-88415761D01*
X28654000Y-88320523D01*
X28654000Y-87463380D01*
X27701619Y-88415761D02*
X27796857Y-88463380D01*
X27987333Y-88463380D01*
X28082571Y-88415761D01*
X28130190Y-88368142D01*
X28177809Y-88272904D01*
X28177809Y-87987190D01*
X28130190Y-87891952D01*
X28082571Y-87844333D01*
X27987333Y-87796714D01*
X27796857Y-87796714D01*
X27701619Y-87844333D01*
X27273047Y-87796714D02*
X27273047Y-88653857D01*
X27320666Y-88749095D01*
X27415904Y-88796714D01*
X27463523Y-88796714D01*
X27273047Y-87463380D02*
X27320666Y-87511000D01*
X27273047Y-87558619D01*
X27225428Y-87511000D01*
X27273047Y-87463380D01*
X27273047Y-87558619D01*
X26654000Y-88463380D02*
X26749238Y-88415761D01*
X26796857Y-88320523D01*
X26796857Y-87463380D01*
X25844476Y-88415761D02*
X25939714Y-88463380D01*
X26130190Y-88463380D01*
X26225428Y-88415761D01*
X26273047Y-88368142D01*
X26320666Y-88272904D01*
X26320666Y-87987190D01*
X26273047Y-87891952D01*
X26225428Y-87844333D01*
X26130190Y-87796714D01*
X25939714Y-87796714D01*
X25844476Y-87844333D01*
X25415904Y-87796714D02*
X25415904Y-88653857D01*
X25463523Y-88749095D01*
X25558761Y-88796714D01*
X25606380Y-88796714D01*
X25415904Y-87463380D02*
X25463523Y-87511000D01*
X25415904Y-87558619D01*
X25368285Y-87511000D01*
X25415904Y-87463380D01*
X25415904Y-87558619D01*
X24796857Y-88463380D02*
X24892095Y-88415761D01*
X24939714Y-88320523D01*
X24939714Y-87463380D01*
X23987333Y-88415761D02*
X24082571Y-88463380D01*
X24273047Y-88463380D01*
X24368285Y-88415761D01*
X24415904Y-88368142D01*
X24463523Y-88272904D01*
X24463523Y-87987190D01*
X24415904Y-87891952D01*
X24368285Y-87844333D01*
X24273047Y-87796714D01*
X24082571Y-87796714D01*
X23987333Y-87844333D01*
X23558761Y-87796714D02*
X23558761Y-88653857D01*
X23606380Y-88749095D01*
X23701619Y-88796714D01*
X23749238Y-88796714D01*
X23558761Y-87463380D02*
X23606380Y-87511000D01*
X23558761Y-87558619D01*
X23511142Y-87511000D01*
X23558761Y-87463380D01*
X23558761Y-87558619D01*
X22939714Y-88463380D02*
X23034952Y-88415761D01*
X23082571Y-88320523D01*
X23082571Y-87463380D01*
X22130190Y-88415761D02*
X22225428Y-88463380D01*
X22415904Y-88463380D01*
X22511142Y-88415761D01*
X22558761Y-88368142D01*
X22606380Y-88272904D01*
X22606380Y-87987190D01*
X22558761Y-87891952D01*
X22511142Y-87844333D01*
X22415904Y-87796714D01*
X22225428Y-87796714D01*
X22130190Y-87844333D01*
%TO.C,REF\u002A\u002A*%
G36*
X109340458Y-82141228D02*
G01*
X109407622Y-82180389D01*
X109437169Y-82210902D01*
X109493948Y-82302110D01*
X109513077Y-82401548D01*
X109513077Y-82469960D01*
X109450191Y-82443518D01*
X109406700Y-82416837D01*
X109372426Y-82361446D01*
X109368907Y-82350024D01*
X109331028Y-82291838D01*
X109273936Y-82260407D01*
X109208383Y-82259058D01*
X109145117Y-82291116D01*
X109135672Y-82299383D01*
X109104087Y-82335311D01*
X109098871Y-82366635D01*
X109122765Y-82397391D01*
X109178510Y-82431617D01*
X109268846Y-82473350D01*
X109274956Y-82475993D01*
X109375241Y-82522755D01*
X109443735Y-82564181D01*
X109485899Y-82605542D01*
X109507193Y-82652111D01*
X109513077Y-82709160D01*
X109505366Y-82772408D01*
X109466430Y-82853364D01*
X109397932Y-82911522D01*
X109348388Y-82928983D01*
X109278469Y-82938537D01*
X109210575Y-82936496D01*
X109162093Y-82922082D01*
X109156943Y-82918493D01*
X109143267Y-82893416D01*
X109152757Y-82849218D01*
X109169246Y-82814527D01*
X109195687Y-82800084D01*
X109245834Y-82800803D01*
X109315453Y-82796660D01*
X109360943Y-82768054D01*
X109376308Y-82715104D01*
X109376294Y-82713582D01*
X109366983Y-82682845D01*
X109335311Y-82654643D01*
X109273731Y-82622136D01*
X109189986Y-82582998D01*
X109134518Y-82561706D01*
X109102497Y-82563079D01*
X109087534Y-82591203D01*
X109083242Y-82650170D01*
X109083231Y-82744068D01*
X109082752Y-82802031D01*
X109080556Y-82873612D01*
X109076986Y-82922606D01*
X109072491Y-82940769D01*
X109071290Y-82940646D01*
X109045319Y-82930802D01*
X109002305Y-82910028D01*
X108942859Y-82879287D01*
X108949923Y-82602298D01*
X108950414Y-82583928D01*
X108956025Y-82454992D01*
X108965938Y-82357814D01*
X108982175Y-82285925D01*
X109006759Y-82232852D01*
X109041715Y-82192127D01*
X109089064Y-82157279D01*
X109089940Y-82156733D01*
X109166499Y-82128303D01*
X109255044Y-82123500D01*
X109340458Y-82141228D01*
G37*
D12*
X109340458Y-82141228D02*
X109407622Y-82180389D01*
X109437169Y-82210902D01*
X109493948Y-82302110D01*
X109513077Y-82401548D01*
X109513077Y-82469960D01*
X109450191Y-82443518D01*
X109406700Y-82416837D01*
X109372426Y-82361446D01*
X109368907Y-82350024D01*
X109331028Y-82291838D01*
X109273936Y-82260407D01*
X109208383Y-82259058D01*
X109145117Y-82291116D01*
X109135672Y-82299383D01*
X109104087Y-82335311D01*
X109098871Y-82366635D01*
X109122765Y-82397391D01*
X109178510Y-82431617D01*
X109268846Y-82473350D01*
X109274956Y-82475993D01*
X109375241Y-82522755D01*
X109443735Y-82564181D01*
X109485899Y-82605542D01*
X109507193Y-82652111D01*
X109513077Y-82709160D01*
X109505366Y-82772408D01*
X109466430Y-82853364D01*
X109397932Y-82911522D01*
X109348388Y-82928983D01*
X109278469Y-82938537D01*
X109210575Y-82936496D01*
X109162093Y-82922082D01*
X109156943Y-82918493D01*
X109143267Y-82893416D01*
X109152757Y-82849218D01*
X109169246Y-82814527D01*
X109195687Y-82800084D01*
X109245834Y-82800803D01*
X109315453Y-82796660D01*
X109360943Y-82768054D01*
X109376308Y-82715104D01*
X109376294Y-82713582D01*
X109366983Y-82682845D01*
X109335311Y-82654643D01*
X109273731Y-82622136D01*
X109189986Y-82582998D01*
X109134518Y-82561706D01*
X109102497Y-82563079D01*
X109087534Y-82591203D01*
X109083242Y-82650170D01*
X109083231Y-82744068D01*
X109082752Y-82802031D01*
X109080556Y-82873612D01*
X109076986Y-82922606D01*
X109072491Y-82940769D01*
X109071290Y-82940646D01*
X109045319Y-82930802D01*
X109002305Y-82910028D01*
X108942859Y-82879287D01*
X108949923Y-82602298D01*
X108950414Y-82583928D01*
X108956025Y-82454992D01*
X108965938Y-82357814D01*
X108982175Y-82285925D01*
X109006759Y-82232852D01*
X109041715Y-82192127D01*
X109089064Y-82157279D01*
X109089940Y-82156733D01*
X109166499Y-82128303D01*
X109255044Y-82123500D01*
X109340458Y-82141228D01*
G36*
X108691892Y-82149167D02*
G01*
X108698060Y-82152581D01*
X108748447Y-82191692D01*
X108793498Y-82241975D01*
X108801355Y-82253339D01*
X108816376Y-82279860D01*
X108827107Y-82311336D01*
X108834486Y-82354591D01*
X108839452Y-82416449D01*
X108842942Y-82503733D01*
X108845893Y-82623269D01*
X108846311Y-82643478D01*
X108847654Y-82774499D01*
X108845761Y-82867296D01*
X108840605Y-82922507D01*
X108832158Y-82940769D01*
X108806594Y-82935301D01*
X108763166Y-82918733D01*
X108752940Y-82913888D01*
X108736967Y-82902920D01*
X108725954Y-82884890D01*
X108718750Y-82853396D01*
X108714208Y-82802036D01*
X108711180Y-82724410D01*
X108708516Y-82614115D01*
X108707785Y-82581875D01*
X108704965Y-82480050D01*
X108701304Y-82408788D01*
X108695694Y-82361332D01*
X108687029Y-82330925D01*
X108674202Y-82310810D01*
X108656105Y-82294229D01*
X108602525Y-82265161D01*
X108536612Y-82259564D01*
X108477635Y-82281807D01*
X108435203Y-82327859D01*
X108418923Y-82393692D01*
X108418470Y-82411587D01*
X108409578Y-82443982D01*
X108383325Y-82448925D01*
X108331919Y-82429633D01*
X108320013Y-82423446D01*
X108287835Y-82387058D01*
X108287198Y-82332954D01*
X108317856Y-82258128D01*
X108345978Y-82217350D01*
X108417883Y-82159421D01*
X108506638Y-82126670D01*
X108601542Y-82122212D01*
X108691892Y-82149167D01*
G37*
X108691892Y-82149167D02*
X108698060Y-82152581D01*
X108748447Y-82191692D01*
X108793498Y-82241975D01*
X108801355Y-82253339D01*
X108816376Y-82279860D01*
X108827107Y-82311336D01*
X108834486Y-82354591D01*
X108839452Y-82416449D01*
X108842942Y-82503733D01*
X108845893Y-82623269D01*
X108846311Y-82643478D01*
X108847654Y-82774499D01*
X108845761Y-82867296D01*
X108840605Y-82922507D01*
X108832158Y-82940769D01*
X108806594Y-82935301D01*
X108763166Y-82918733D01*
X108752940Y-82913888D01*
X108736967Y-82902920D01*
X108725954Y-82884890D01*
X108718750Y-82853396D01*
X108714208Y-82802036D01*
X108711180Y-82724410D01*
X108708516Y-82614115D01*
X108707785Y-82581875D01*
X108704965Y-82480050D01*
X108701304Y-82408788D01*
X108695694Y-82361332D01*
X108687029Y-82330925D01*
X108674202Y-82310810D01*
X108656105Y-82294229D01*
X108602525Y-82265161D01*
X108536612Y-82259564D01*
X108477635Y-82281807D01*
X108435203Y-82327859D01*
X108418923Y-82393692D01*
X108418470Y-82411587D01*
X108409578Y-82443982D01*
X108383325Y-82448925D01*
X108331919Y-82429633D01*
X108320013Y-82423446D01*
X108287835Y-82387058D01*
X108287198Y-82332954D01*
X108317856Y-82258128D01*
X108345978Y-82217350D01*
X108417883Y-82159421D01*
X108506638Y-82126670D01*
X108601542Y-82122212D01*
X108691892Y-82149167D01*
G36*
X108182839Y-82606652D02*
G01*
X108171810Y-82710507D01*
X108147814Y-82788333D01*
X108108043Y-82847760D01*
X108049688Y-82896418D01*
X107994100Y-82924546D01*
X107900751Y-82940199D01*
X107807530Y-82923084D01*
X107723272Y-82875388D01*
X107656818Y-82799294D01*
X107648793Y-82785262D01*
X107638196Y-82760679D01*
X107630335Y-82729309D01*
X107624807Y-82685769D01*
X107621206Y-82624678D01*
X107619128Y-82540655D01*
X107619064Y-82533200D01*
X107754615Y-82533200D01*
X107755077Y-82604316D01*
X107757999Y-82668641D01*
X107765221Y-82710166D01*
X107778561Y-82738067D01*
X107799836Y-82761517D01*
X107804821Y-82766025D01*
X107868863Y-82799295D01*
X107936625Y-82795890D01*
X107999734Y-82756042D01*
X108018526Y-82735398D01*
X108034254Y-82708029D01*
X108043039Y-82670192D01*
X108046859Y-82612355D01*
X108047692Y-82524986D01*
X108047281Y-82458319D01*
X108044434Y-82393245D01*
X108037256Y-82351251D01*
X108023889Y-82323063D01*
X108002472Y-82299406D01*
X107989890Y-82288753D01*
X107924699Y-82260057D01*
X107856400Y-82264575D01*
X107797098Y-82302144D01*
X107784333Y-82317040D01*
X107768764Y-82345089D01*
X107759762Y-82384258D01*
X107755617Y-82443858D01*
X107754615Y-82533200D01*
X107619064Y-82533200D01*
X107618167Y-82428320D01*
X107617919Y-82282289D01*
X107617846Y-81828963D01*
X107681346Y-81855564D01*
X107698136Y-81862845D01*
X107724859Y-81879287D01*
X107740156Y-81904187D01*
X107748563Y-81947732D01*
X107754615Y-82020106D01*
X107760144Y-82085089D01*
X107767450Y-82127750D01*
X107777918Y-82143670D01*
X107793692Y-82139400D01*
X107833890Y-82124397D01*
X107905728Y-82120678D01*
X107983010Y-82134572D01*
X108049688Y-82164505D01*
X108086371Y-82192211D01*
X108133472Y-82246269D01*
X108163638Y-82315577D01*
X108179678Y-82407765D01*
X108184191Y-82524986D01*
X108184401Y-82530462D01*
X108182839Y-82606652D01*
G37*
X108182839Y-82606652D02*
X108171810Y-82710507D01*
X108147814Y-82788333D01*
X108108043Y-82847760D01*
X108049688Y-82896418D01*
X107994100Y-82924546D01*
X107900751Y-82940199D01*
X107807530Y-82923084D01*
X107723272Y-82875388D01*
X107656818Y-82799294D01*
X107648793Y-82785262D01*
X107638196Y-82760679D01*
X107630335Y-82729309D01*
X107624807Y-82685769D01*
X107621206Y-82624678D01*
X107619128Y-82540655D01*
X107619064Y-82533200D01*
X107754615Y-82533200D01*
X107755077Y-82604316D01*
X107757999Y-82668641D01*
X107765221Y-82710166D01*
X107778561Y-82738067D01*
X107799836Y-82761517D01*
X107804821Y-82766025D01*
X107868863Y-82799295D01*
X107936625Y-82795890D01*
X107999734Y-82756042D01*
X108018526Y-82735398D01*
X108034254Y-82708029D01*
X108043039Y-82670192D01*
X108046859Y-82612355D01*
X108047692Y-82524986D01*
X108047281Y-82458319D01*
X108044434Y-82393245D01*
X108037256Y-82351251D01*
X108023889Y-82323063D01*
X108002472Y-82299406D01*
X107989890Y-82288753D01*
X107924699Y-82260057D01*
X107856400Y-82264575D01*
X107797098Y-82302144D01*
X107784333Y-82317040D01*
X107768764Y-82345089D01*
X107759762Y-82384258D01*
X107755617Y-82443858D01*
X107754615Y-82533200D01*
X107619064Y-82533200D01*
X107618167Y-82428320D01*
X107617919Y-82282289D01*
X107617846Y-81828963D01*
X107681346Y-81855564D01*
X107698136Y-81862845D01*
X107724859Y-81879287D01*
X107740156Y-81904187D01*
X107748563Y-81947732D01*
X107754615Y-82020106D01*
X107760144Y-82085089D01*
X107767450Y-82127750D01*
X107777918Y-82143670D01*
X107793692Y-82139400D01*
X107833890Y-82124397D01*
X107905728Y-82120678D01*
X107983010Y-82134572D01*
X108049688Y-82164505D01*
X108086371Y-82192211D01*
X108133472Y-82246269D01*
X108163638Y-82315577D01*
X108179678Y-82407765D01*
X108184191Y-82524986D01*
X108184401Y-82530462D01*
X108182839Y-82606652D01*
G36*
X111146372Y-82083684D02*
G01*
X111237629Y-82126569D01*
X111312416Y-82200729D01*
X111327917Y-82223944D01*
X111340774Y-82250256D01*
X111349893Y-82283420D01*
X111356102Y-82329881D01*
X111360233Y-82396082D01*
X111363116Y-82488468D01*
X111365579Y-82613485D01*
X111371697Y-82960278D01*
X111320303Y-82940738D01*
X111273246Y-82922787D01*
X111238015Y-82905511D01*
X111215017Y-82883242D01*
X111201655Y-82849165D01*
X111195328Y-82796463D01*
X111193437Y-82718323D01*
X111193385Y-82607928D01*
X111193117Y-82519935D01*
X111191521Y-82435502D01*
X111187712Y-82377834D01*
X111180820Y-82339988D01*
X111169975Y-82315024D01*
X111154308Y-82296000D01*
X111115792Y-82269153D01*
X111051091Y-82259034D01*
X110987081Y-82284606D01*
X110982856Y-82287880D01*
X110969689Y-82303007D01*
X110959975Y-82327268D01*
X110952903Y-82366650D01*
X110947656Y-82427141D01*
X110943421Y-82514729D01*
X110939385Y-82635402D01*
X110929615Y-82958515D01*
X110763539Y-82884065D01*
X110763539Y-82589062D01*
X110763883Y-82508919D01*
X110766847Y-82397431D01*
X110774351Y-82314421D01*
X110788190Y-82253199D01*
X110810155Y-82207075D01*
X110842039Y-82169358D01*
X110885633Y-82133358D01*
X110948336Y-82097089D01*
X111047117Y-82073412D01*
X111146372Y-82083684D01*
G37*
X111146372Y-82083684D02*
X111237629Y-82126569D01*
X111312416Y-82200729D01*
X111327917Y-82223944D01*
X111340774Y-82250256D01*
X111349893Y-82283420D01*
X111356102Y-82329881D01*
X111360233Y-82396082D01*
X111363116Y-82488468D01*
X111365579Y-82613485D01*
X111371697Y-82960278D01*
X111320303Y-82940738D01*
X111273246Y-82922787D01*
X111238015Y-82905511D01*
X111215017Y-82883242D01*
X111201655Y-82849165D01*
X111195328Y-82796463D01*
X111193437Y-82718323D01*
X111193385Y-82607928D01*
X111193117Y-82519935D01*
X111191521Y-82435502D01*
X111187712Y-82377834D01*
X111180820Y-82339988D01*
X111169975Y-82315024D01*
X111154308Y-82296000D01*
X111115792Y-82269153D01*
X111051091Y-82259034D01*
X110987081Y-82284606D01*
X110982856Y-82287880D01*
X110969689Y-82303007D01*
X110959975Y-82327268D01*
X110952903Y-82366650D01*
X110947656Y-82427141D01*
X110943421Y-82514729D01*
X110939385Y-82635402D01*
X110929615Y-82958515D01*
X110763539Y-82884065D01*
X110763539Y-82589062D01*
X110763883Y-82508919D01*
X110766847Y-82397431D01*
X110774351Y-82314421D01*
X110788190Y-82253199D01*
X110810155Y-82207075D01*
X110842039Y-82169358D01*
X110885633Y-82133358D01*
X110948336Y-82097089D01*
X111047117Y-82073412D01*
X111146372Y-82083684D01*
G36*
X107407998Y-82126034D02*
G01*
X107450850Y-82142829D01*
X107500615Y-82165503D01*
X107500615Y-82820533D01*
X107438785Y-82882363D01*
X107424662Y-82896228D01*
X107385536Y-82927046D01*
X107346078Y-82937028D01*
X107287362Y-82932433D01*
X107263456Y-82929462D01*
X107201801Y-82923176D01*
X107158692Y-82920672D01*
X107145905Y-82921055D01*
X107093446Y-82925200D01*
X107030022Y-82932433D01*
X107009730Y-82934918D01*
X106958610Y-82935895D01*
X106921207Y-82920462D01*
X106878599Y-82882363D01*
X106816769Y-82820533D01*
X106816769Y-82470343D01*
X106817251Y-82366857D01*
X106818753Y-82268192D01*
X106821089Y-82190068D01*
X106824071Y-82138662D01*
X106827509Y-82120154D01*
X106828230Y-82120204D01*
X106853203Y-82129413D01*
X106895399Y-82149707D01*
X106952549Y-82179261D01*
X106957928Y-82486746D01*
X106963308Y-82794231D01*
X107080539Y-82794231D01*
X107085885Y-82457192D01*
X107087579Y-82365574D01*
X107090005Y-82267649D01*
X107092634Y-82189906D01*
X107095246Y-82138642D01*
X107097623Y-82120154D01*
X107098306Y-82120219D01*
X107121996Y-82127020D01*
X107165546Y-82141604D01*
X107227077Y-82163054D01*
X107227376Y-82459104D01*
X107227676Y-82510532D01*
X107229754Y-82610466D01*
X107233470Y-82693925D01*
X107238430Y-82753377D01*
X107244240Y-82781287D01*
X107265024Y-82796214D01*
X107307440Y-82800825D01*
X107354077Y-82794231D01*
X107359423Y-82457192D01*
X107361336Y-82371546D01*
X107365303Y-82270172D01*
X107370491Y-82190655D01*
X107376499Y-82138736D01*
X107382927Y-82120154D01*
X107407998Y-82126034D01*
G37*
X107407998Y-82126034D02*
X107450850Y-82142829D01*
X107500615Y-82165503D01*
X107500615Y-82820533D01*
X107438785Y-82882363D01*
X107424662Y-82896228D01*
X107385536Y-82927046D01*
X107346078Y-82937028D01*
X107287362Y-82932433D01*
X107263456Y-82929462D01*
X107201801Y-82923176D01*
X107158692Y-82920672D01*
X107145905Y-82921055D01*
X107093446Y-82925200D01*
X107030022Y-82932433D01*
X107009730Y-82934918D01*
X106958610Y-82935895D01*
X106921207Y-82920462D01*
X106878599Y-82882363D01*
X106816769Y-82820533D01*
X106816769Y-82470343D01*
X106817251Y-82366857D01*
X106818753Y-82268192D01*
X106821089Y-82190068D01*
X106824071Y-82138662D01*
X106827509Y-82120154D01*
X106828230Y-82120204D01*
X106853203Y-82129413D01*
X106895399Y-82149707D01*
X106952549Y-82179261D01*
X106957928Y-82486746D01*
X106963308Y-82794231D01*
X107080539Y-82794231D01*
X107085885Y-82457192D01*
X107087579Y-82365574D01*
X107090005Y-82267649D01*
X107092634Y-82189906D01*
X107095246Y-82138642D01*
X107097623Y-82120154D01*
X107098306Y-82120219D01*
X107121996Y-82127020D01*
X107165546Y-82141604D01*
X107227077Y-82163054D01*
X107227376Y-82459104D01*
X107227676Y-82510532D01*
X107229754Y-82610466D01*
X107233470Y-82693925D01*
X107238430Y-82753377D01*
X107244240Y-82781287D01*
X107265024Y-82796214D01*
X107307440Y-82800825D01*
X107354077Y-82794231D01*
X107359423Y-82457192D01*
X107361336Y-82371546D01*
X107365303Y-82270172D01*
X107370491Y-82190655D01*
X107376499Y-82138736D01*
X107382927Y-82120154D01*
X107407998Y-82126034D01*
G36*
X105831501Y-82128476D02*
G01*
X105912167Y-82158440D01*
X105945714Y-82180954D01*
X105979687Y-82213212D01*
X106003919Y-82254246D01*
X106020001Y-82310108D01*
X106029521Y-82386851D01*
X106034068Y-82490525D01*
X106035231Y-82627184D01*
X106035003Y-82697805D01*
X106033860Y-82794308D01*
X106031919Y-82871323D01*
X106029365Y-82922319D01*
X106026381Y-82940769D01*
X106006962Y-82934667D01*
X105967766Y-82918095D01*
X105966589Y-82917558D01*
X105946235Y-82906903D01*
X105932546Y-82892282D01*
X105924199Y-82866673D01*
X105919874Y-82823054D01*
X105918248Y-82754403D01*
X105918000Y-82653698D01*
X105917500Y-82589813D01*
X105912164Y-82469751D01*
X105899945Y-82381809D01*
X105879552Y-82321375D01*
X105849695Y-82283836D01*
X105809082Y-82264581D01*
X105803448Y-82263239D01*
X105727378Y-82262191D01*
X105668052Y-82296271D01*
X105627077Y-82364598D01*
X105619770Y-82384351D01*
X105603114Y-82428066D01*
X105594679Y-82448155D01*
X105577356Y-82445387D01*
X105539525Y-82430365D01*
X105504240Y-82405556D01*
X105488154Y-82358670D01*
X105492952Y-82325087D01*
X105522431Y-82256967D01*
X105570098Y-82193134D01*
X105625839Y-82148988D01*
X105649193Y-82138782D01*
X105737619Y-82121718D01*
X105831501Y-82128476D01*
G37*
X105831501Y-82128476D02*
X105912167Y-82158440D01*
X105945714Y-82180954D01*
X105979687Y-82213212D01*
X106003919Y-82254246D01*
X106020001Y-82310108D01*
X106029521Y-82386851D01*
X106034068Y-82490525D01*
X106035231Y-82627184D01*
X106035003Y-82697805D01*
X106033860Y-82794308D01*
X106031919Y-82871323D01*
X106029365Y-82922319D01*
X106026381Y-82940769D01*
X106006962Y-82934667D01*
X105967766Y-82918095D01*
X105966589Y-82917558D01*
X105946235Y-82906903D01*
X105932546Y-82892282D01*
X105924199Y-82866673D01*
X105919874Y-82823054D01*
X105918248Y-82754403D01*
X105918000Y-82653698D01*
X105917500Y-82589813D01*
X105912164Y-82469751D01*
X105899945Y-82381809D01*
X105879552Y-82321375D01*
X105849695Y-82283836D01*
X105809082Y-82264581D01*
X105803448Y-82263239D01*
X105727378Y-82262191D01*
X105668052Y-82296271D01*
X105627077Y-82364598D01*
X105619770Y-82384351D01*
X105603114Y-82428066D01*
X105594679Y-82448155D01*
X105577356Y-82445387D01*
X105539525Y-82430365D01*
X105504240Y-82405556D01*
X105488154Y-82358670D01*
X105492952Y-82325087D01*
X105522431Y-82256967D01*
X105570098Y-82193134D01*
X105625839Y-82148988D01*
X105649193Y-82138782D01*
X105737619Y-82121718D01*
X105831501Y-82128476D01*
G36*
X106483936Y-82121911D02*
G01*
X106525807Y-82132547D01*
X106564791Y-82159062D01*
X106614965Y-82208420D01*
X106647232Y-82243279D01*
X106680844Y-82288534D01*
X106696003Y-82330951D01*
X106699539Y-82384768D01*
X106699539Y-82472850D01*
X106639470Y-82441787D01*
X106591867Y-82403936D01*
X106559261Y-82352950D01*
X106553661Y-82339088D01*
X106510992Y-82285358D01*
X106451707Y-82258417D01*
X106387061Y-82261039D01*
X106328308Y-82296000D01*
X106303450Y-82324394D01*
X106288970Y-82360718D01*
X106304470Y-82393046D01*
X106352667Y-82425565D01*
X106436274Y-82462461D01*
X106448962Y-82467557D01*
X106525078Y-82500907D01*
X106590396Y-82533793D01*
X106631953Y-82559769D01*
X106673576Y-82606167D01*
X106701247Y-82680211D01*
X106698310Y-82759670D01*
X106665571Y-82834868D01*
X106603841Y-82896131D01*
X106553858Y-82922210D01*
X106457303Y-82940470D01*
X106403647Y-82938007D01*
X106353976Y-82924687D01*
X106334919Y-82896739D01*
X106342045Y-82850710D01*
X106344118Y-82844624D01*
X106360556Y-82812349D01*
X106387926Y-82800133D01*
X106440068Y-82800950D01*
X106476884Y-82802061D01*
X106519961Y-82792528D01*
X106549475Y-82764026D01*
X106566286Y-82728935D01*
X106568161Y-82692175D01*
X106568074Y-82691961D01*
X106546279Y-82672098D01*
X106499632Y-82643192D01*
X106439278Y-82610886D01*
X106376360Y-82580823D01*
X106322023Y-82558646D01*
X106287410Y-82550000D01*
X106282260Y-82558467D01*
X106275778Y-82598309D01*
X106271339Y-82663371D01*
X106269692Y-82745385D01*
X106269309Y-82802153D01*
X106267505Y-82873648D01*
X106264558Y-82922610D01*
X106260843Y-82940769D01*
X106241424Y-82934667D01*
X106202227Y-82918095D01*
X106152462Y-82895420D01*
X106152462Y-82604509D01*
X106152780Y-82529940D01*
X106155789Y-82416701D01*
X106163454Y-82332692D01*
X106177562Y-82271520D01*
X106199899Y-82226795D01*
X106232253Y-82192124D01*
X106276410Y-82161117D01*
X106332667Y-82135528D01*
X106436540Y-82120154D01*
X106483936Y-82121911D01*
G37*
X106483936Y-82121911D02*
X106525807Y-82132547D01*
X106564791Y-82159062D01*
X106614965Y-82208420D01*
X106647232Y-82243279D01*
X106680844Y-82288534D01*
X106696003Y-82330951D01*
X106699539Y-82384768D01*
X106699539Y-82472850D01*
X106639470Y-82441787D01*
X106591867Y-82403936D01*
X106559261Y-82352950D01*
X106553661Y-82339088D01*
X106510992Y-82285358D01*
X106451707Y-82258417D01*
X106387061Y-82261039D01*
X106328308Y-82296000D01*
X106303450Y-82324394D01*
X106288970Y-82360718D01*
X106304470Y-82393046D01*
X106352667Y-82425565D01*
X106436274Y-82462461D01*
X106448962Y-82467557D01*
X106525078Y-82500907D01*
X106590396Y-82533793D01*
X106631953Y-82559769D01*
X106673576Y-82606167D01*
X106701247Y-82680211D01*
X106698310Y-82759670D01*
X106665571Y-82834868D01*
X106603841Y-82896131D01*
X106553858Y-82922210D01*
X106457303Y-82940470D01*
X106403647Y-82938007D01*
X106353976Y-82924687D01*
X106334919Y-82896739D01*
X106342045Y-82850710D01*
X106344118Y-82844624D01*
X106360556Y-82812349D01*
X106387926Y-82800133D01*
X106440068Y-82800950D01*
X106476884Y-82802061D01*
X106519961Y-82792528D01*
X106549475Y-82764026D01*
X106566286Y-82728935D01*
X106568161Y-82692175D01*
X106568074Y-82691961D01*
X106546279Y-82672098D01*
X106499632Y-82643192D01*
X106439278Y-82610886D01*
X106376360Y-82580823D01*
X106322023Y-82558646D01*
X106287410Y-82550000D01*
X106282260Y-82558467D01*
X106275778Y-82598309D01*
X106271339Y-82663371D01*
X106269692Y-82745385D01*
X106269309Y-82802153D01*
X106267505Y-82873648D01*
X106264558Y-82922610D01*
X106260843Y-82940769D01*
X106241424Y-82934667D01*
X106202227Y-82918095D01*
X106152462Y-82895420D01*
X106152462Y-82604509D01*
X106152780Y-82529940D01*
X106155789Y-82416701D01*
X106163454Y-82332692D01*
X106177562Y-82271520D01*
X106199899Y-82226795D01*
X106232253Y-82192124D01*
X106276410Y-82161117D01*
X106332667Y-82135528D01*
X106436540Y-82120154D01*
X106483936Y-82121911D01*
G36*
X110196923Y-81883806D02*
G01*
X110196923Y-82418455D01*
X110196660Y-82557094D01*
X110195958Y-82681805D01*
X110194883Y-82787557D01*
X110193500Y-82869322D01*
X110191874Y-82922069D01*
X110190070Y-82940769D01*
X110189364Y-82940706D01*
X110165387Y-82933912D01*
X110121685Y-82919320D01*
X110060154Y-82897870D01*
X110060154Y-82622617D01*
X110059763Y-82514466D01*
X110057946Y-82436026D01*
X110053767Y-82382647D01*
X110046286Y-82347256D01*
X110034567Y-82322779D01*
X110017671Y-82302144D01*
X110006152Y-82291170D01*
X109943864Y-82260775D01*
X109875211Y-82263466D01*
X109812298Y-82299406D01*
X109803139Y-82308325D01*
X109788471Y-82326844D01*
X109778433Y-82351326D01*
X109772151Y-82388393D01*
X109768748Y-82444667D01*
X109767349Y-82526771D01*
X109767077Y-82641329D01*
X109766947Y-82699430D01*
X109766099Y-82794993D01*
X109764594Y-82871526D01*
X109762585Y-82922345D01*
X109760223Y-82940769D01*
X109759518Y-82940706D01*
X109735541Y-82933912D01*
X109691839Y-82919320D01*
X109630308Y-82897870D01*
X109630338Y-82621358D01*
X109630384Y-82596742D01*
X109632970Y-82468419D01*
X109640913Y-82371384D01*
X109656155Y-82299057D01*
X109680636Y-82244855D01*
X109716298Y-82202198D01*
X109765082Y-82164505D01*
X109812661Y-82140910D01*
X109888732Y-82122672D01*
X109963556Y-82121636D01*
X110021077Y-82139378D01*
X110025402Y-82141829D01*
X110038738Y-82141566D01*
X110047851Y-82121039D01*
X110054428Y-82073980D01*
X110060154Y-81994120D01*
X110069923Y-81830236D01*
X110196923Y-81883806D01*
G37*
X110196923Y-81883806D02*
X110196923Y-82418455D01*
X110196660Y-82557094D01*
X110195958Y-82681805D01*
X110194883Y-82787557D01*
X110193500Y-82869322D01*
X110191874Y-82922069D01*
X110190070Y-82940769D01*
X110189364Y-82940706D01*
X110165387Y-82933912D01*
X110121685Y-82919320D01*
X110060154Y-82897870D01*
X110060154Y-82622617D01*
X110059763Y-82514466D01*
X110057946Y-82436026D01*
X110053767Y-82382647D01*
X110046286Y-82347256D01*
X110034567Y-82322779D01*
X110017671Y-82302144D01*
X110006152Y-82291170D01*
X109943864Y-82260775D01*
X109875211Y-82263466D01*
X109812298Y-82299406D01*
X109803139Y-82308325D01*
X109788471Y-82326844D01*
X109778433Y-82351326D01*
X109772151Y-82388393D01*
X109768748Y-82444667D01*
X109767349Y-82526771D01*
X109767077Y-82641329D01*
X109766947Y-82699430D01*
X109766099Y-82794993D01*
X109764594Y-82871526D01*
X109762585Y-82922345D01*
X109760223Y-82940769D01*
X109759518Y-82940706D01*
X109735541Y-82933912D01*
X109691839Y-82919320D01*
X109630308Y-82897870D01*
X109630338Y-82621358D01*
X109630384Y-82596742D01*
X109632970Y-82468419D01*
X109640913Y-82371384D01*
X109656155Y-82299057D01*
X109680636Y-82244855D01*
X109716298Y-82202198D01*
X109765082Y-82164505D01*
X109812661Y-82140910D01*
X109888732Y-82122672D01*
X109963556Y-82121636D01*
X110021077Y-82139378D01*
X110025402Y-82141829D01*
X110038738Y-82141566D01*
X110047851Y-82121039D01*
X110054428Y-82073980D01*
X110060154Y-81994120D01*
X110069923Y-81830236D01*
X110196923Y-81883806D01*
G36*
X109237575Y-75789693D02*
G01*
X109373371Y-75789807D01*
X109475576Y-75790472D01*
X109549122Y-75792182D01*
X109598942Y-75795429D01*
X109629967Y-75800706D01*
X109647129Y-75808507D01*
X109655361Y-75819325D01*
X109659594Y-75833654D01*
X109659716Y-75834168D01*
X109666672Y-75867851D01*
X109679320Y-75932917D01*
X109696360Y-76022542D01*
X109716496Y-76129904D01*
X109738429Y-76248178D01*
X109740218Y-76257856D01*
X109762083Y-76372650D01*
X109782430Y-76473480D01*
X109799934Y-76554217D01*
X109813271Y-76608734D01*
X109821116Y-76630901D01*
X109821158Y-76630936D01*
X109845884Y-76643200D01*
X109896631Y-76663576D01*
X109962462Y-76687674D01*
X109966169Y-76688983D01*
X110050331Y-76720791D01*
X110148230Y-76760685D01*
X110239435Y-76800353D01*
X110389407Y-76868420D01*
X110721499Y-76641639D01*
X110744889Y-76625688D01*
X110845080Y-76557890D01*
X110934480Y-76498208D01*
X111007745Y-76450156D01*
X111059527Y-76417250D01*
X111084480Y-76403004D01*
X111101577Y-76406270D01*
X111140395Y-76431571D01*
X111200385Y-76481675D01*
X111283210Y-76557989D01*
X111390535Y-76661922D01*
X111400139Y-76671382D01*
X111485302Y-76756145D01*
X111560949Y-76832937D01*
X111622449Y-76896947D01*
X111665173Y-76943361D01*
X111684489Y-76967369D01*
X111684552Y-76967485D01*
X111687006Y-76985763D01*
X111677956Y-77015411D01*
X111655119Y-77060486D01*
X111616213Y-77125044D01*
X111558954Y-77213140D01*
X111481059Y-77328830D01*
X111467785Y-77348357D01*
X111400652Y-77447278D01*
X111341410Y-77534848D01*
X111293588Y-77605831D01*
X111260715Y-77654991D01*
X111246318Y-77677095D01*
X111245232Y-77681777D01*
X111252044Y-77716710D01*
X111272450Y-77773753D01*
X111303123Y-77843172D01*
X111344808Y-77933959D01*
X111391352Y-78041686D01*
X111430877Y-78139192D01*
X111440676Y-78164430D01*
X111466340Y-78228870D01*
X111485193Y-78273763D01*
X111493710Y-78290616D01*
X111503111Y-78291875D01*
X111545363Y-78299159D01*
X111614521Y-78311739D01*
X111703387Y-78328246D01*
X111804768Y-78347312D01*
X111911467Y-78367569D01*
X112016288Y-78387647D01*
X112112036Y-78406179D01*
X112191516Y-78421795D01*
X112247530Y-78433127D01*
X112272885Y-78438807D01*
X112277088Y-78440408D01*
X112287334Y-78449045D01*
X112294957Y-78467433D01*
X112300338Y-78500460D01*
X112303859Y-78553013D01*
X112305901Y-78629979D01*
X112306847Y-78736246D01*
X112307077Y-78876701D01*
X112307077Y-79303845D01*
X112204500Y-79324091D01*
X112192092Y-79326518D01*
X112126199Y-79339088D01*
X112035084Y-79356170D01*
X111929104Y-79375829D01*
X111818615Y-79396132D01*
X111775105Y-79404299D01*
X111677882Y-79424167D01*
X111596858Y-79442954D01*
X111539477Y-79458859D01*
X111513187Y-79470079D01*
X111501273Y-79488411D01*
X111479583Y-79536916D01*
X111457395Y-79599692D01*
X111449585Y-79623200D01*
X111420835Y-79700366D01*
X111383752Y-79791694D01*
X111344375Y-79882093D01*
X111323315Y-79929310D01*
X111293311Y-79999837D01*
X111272692Y-80052655D01*
X111265026Y-80078912D01*
X111265452Y-80080894D01*
X111279993Y-80108751D01*
X111312783Y-80162510D01*
X111360493Y-80236963D01*
X111419798Y-80326897D01*
X111487369Y-80427104D01*
X111709713Y-80753416D01*
X111417601Y-81046016D01*
X111389349Y-81074171D01*
X111302961Y-81158449D01*
X111225756Y-81231128D01*
X111162258Y-81288112D01*
X111116990Y-81325307D01*
X111094474Y-81338616D01*
X111070023Y-81328490D01*
X111018819Y-81299421D01*
X110946747Y-81254896D01*
X110859460Y-81198411D01*
X110762612Y-81133462D01*
X110667486Y-81069314D01*
X110581669Y-81012827D01*
X110511652Y-80968184D01*
X110462876Y-80938855D01*
X110440783Y-80928308D01*
X110439488Y-80928404D01*
X110410139Y-80938802D01*
X110358093Y-80963012D01*
X110293708Y-80996249D01*
X110293032Y-80996613D01*
X110207521Y-81039441D01*
X110148926Y-81060365D01*
X110112571Y-81060423D01*
X110093775Y-81040654D01*
X110085819Y-81021195D01*
X110064347Y-80969080D01*
X110031273Y-80888964D01*
X109988356Y-80785107D01*
X109937356Y-80661767D01*
X109880033Y-80523201D01*
X109818146Y-80373670D01*
X109762052Y-80237636D01*
X109704977Y-80098050D01*
X109654479Y-79973315D01*
X109612254Y-79867672D01*
X109579995Y-79785365D01*
X109559397Y-79730635D01*
X109552154Y-79707726D01*
X109565986Y-79686718D01*
X109604412Y-79651642D01*
X109658807Y-79610887D01*
X109789395Y-79504267D01*
X109906260Y-79368025D01*
X109991780Y-79218118D01*
X110045431Y-79058971D01*
X110066684Y-78895012D01*
X110055014Y-78730667D01*
X110009894Y-78570361D01*
X109930797Y-78418520D01*
X109817197Y-78279572D01*
X109757965Y-78225460D01*
X109616054Y-78129782D01*
X109464206Y-78067405D01*
X109306861Y-78036844D01*
X109148456Y-78036615D01*
X108993429Y-78065232D01*
X108846220Y-78121210D01*
X108711266Y-78203064D01*
X108593005Y-78309309D01*
X108495877Y-78438459D01*
X108424318Y-78589031D01*
X108382769Y-78759539D01*
X108375143Y-78841722D01*
X108385634Y-79019775D01*
X108432882Y-79188704D01*
X108515489Y-79345522D01*
X108632059Y-79487245D01*
X108781193Y-79610887D01*
X108833561Y-79649982D01*
X108872832Y-79685443D01*
X108887846Y-79707692D01*
X108881859Y-79727088D01*
X108862432Y-79779059D01*
X108831194Y-79859002D01*
X108789839Y-79962673D01*
X108740061Y-80085832D01*
X108683553Y-80224234D01*
X108622009Y-80373637D01*
X108566008Y-80509020D01*
X108508184Y-80648852D01*
X108456500Y-80773872D01*
X108412718Y-80879822D01*
X108378597Y-80962441D01*
X108355898Y-81017472D01*
X108346380Y-81040654D01*
X108346269Y-81040928D01*
X108327228Y-81060503D01*
X108290694Y-81060279D01*
X108231954Y-81039210D01*
X108146292Y-80996249D01*
X108139549Y-80992631D01*
X108075938Y-80960087D01*
X108025707Y-80937050D01*
X107999218Y-80928308D01*
X107977506Y-80938639D01*
X107928984Y-80967788D01*
X107859163Y-81012287D01*
X107773484Y-81068668D01*
X107677388Y-81133462D01*
X107582706Y-81196984D01*
X107495132Y-81253705D01*
X107422642Y-81298547D01*
X107370889Y-81328016D01*
X107345526Y-81338616D01*
X107341206Y-81337270D01*
X107311092Y-81316056D01*
X107259640Y-81272237D01*
X107191375Y-81209909D01*
X107110820Y-81133170D01*
X107022500Y-81046116D01*
X106730488Y-80753617D01*
X107185360Y-80084525D01*
X107116208Y-79934916D01*
X107116003Y-79934473D01*
X107074477Y-79839101D01*
X107032044Y-79732896D01*
X106997858Y-79638769D01*
X106992684Y-79623588D01*
X106966601Y-79553109D01*
X106943081Y-79498342D01*
X106926677Y-79470079D01*
X106919996Y-79466088D01*
X106879892Y-79452697D01*
X106811795Y-79435373D01*
X106723145Y-79415917D01*
X106621385Y-79396132D01*
X106590904Y-79390551D01*
X106480628Y-79370233D01*
X106377731Y-79351095D01*
X106292569Y-79335070D01*
X106235500Y-79324091D01*
X106132923Y-79303845D01*
X106132923Y-78876701D01*
X106132946Y-78824180D01*
X106133379Y-78696047D01*
X106134659Y-78600420D01*
X106137168Y-78532411D01*
X106141286Y-78487133D01*
X106147395Y-78459697D01*
X106155878Y-78445218D01*
X106167115Y-78438807D01*
X106177994Y-78436209D01*
X106222347Y-78427022D01*
X106293106Y-78412991D01*
X106383074Y-78395486D01*
X106485056Y-78375874D01*
X106591857Y-78355525D01*
X106696281Y-78335807D01*
X106791132Y-78318089D01*
X106869214Y-78303738D01*
X106923332Y-78294124D01*
X106946291Y-78290616D01*
X106947842Y-78288497D01*
X106960325Y-78261006D01*
X106981927Y-78208406D01*
X107009123Y-78139192D01*
X107046866Y-78045937D01*
X107093328Y-77938159D01*
X107136878Y-77843172D01*
X107146858Y-77821851D01*
X107174862Y-77755086D01*
X107191641Y-77703590D01*
X107193854Y-77677095D01*
X107192713Y-77675218D01*
X107174584Y-77647565D01*
X107138644Y-77593849D01*
X107088418Y-77519303D01*
X107027430Y-77429162D01*
X106959205Y-77328657D01*
X106882330Y-77214470D01*
X106824663Y-77125770D01*
X106785426Y-77060721D01*
X106762350Y-77015295D01*
X106753166Y-76985463D01*
X106755604Y-76967195D01*
X106756424Y-76965825D01*
X106778477Y-76939205D01*
X106823436Y-76890697D01*
X106886673Y-76825108D01*
X106963559Y-76747247D01*
X107049465Y-76661922D01*
X107138579Y-76575334D01*
X107225872Y-76493947D01*
X107290018Y-76439035D01*
X107332679Y-76409190D01*
X107355521Y-76403004D01*
X107358505Y-76404394D01*
X107389936Y-76423127D01*
X107446997Y-76459733D01*
X107524343Y-76510697D01*
X107616626Y-76572504D01*
X107718502Y-76641639D01*
X108050593Y-76868420D01*
X108200566Y-76800353D01*
X108204923Y-76798381D01*
X108297000Y-76758491D01*
X108394683Y-76718818D01*
X108477539Y-76687674D01*
X108477905Y-76687545D01*
X108543685Y-76663456D01*
X108594323Y-76643110D01*
X108618884Y-76630901D01*
X108619282Y-76630458D01*
X108627619Y-76605456D01*
X108641341Y-76548598D01*
X108659123Y-76466014D01*
X108679641Y-76363831D01*
X108701571Y-76248178D01*
X108702336Y-76244033D01*
X108724229Y-76126019D01*
X108744281Y-76019151D01*
X108761192Y-75930252D01*
X108773667Y-75866145D01*
X108780406Y-75833654D01*
X108780837Y-75831853D01*
X108785273Y-75817944D01*
X108794263Y-75807489D01*
X108812737Y-75799996D01*
X108845628Y-75794972D01*
X108897868Y-75791922D01*
X108974388Y-75790355D01*
X109080122Y-75789776D01*
X109220000Y-75789692D01*
X109237575Y-75789693D01*
G37*
X109237575Y-75789693D02*
X109373371Y-75789807D01*
X109475576Y-75790472D01*
X109549122Y-75792182D01*
X109598942Y-75795429D01*
X109629967Y-75800706D01*
X109647129Y-75808507D01*
X109655361Y-75819325D01*
X109659594Y-75833654D01*
X109659716Y-75834168D01*
X109666672Y-75867851D01*
X109679320Y-75932917D01*
X109696360Y-76022542D01*
X109716496Y-76129904D01*
X109738429Y-76248178D01*
X109740218Y-76257856D01*
X109762083Y-76372650D01*
X109782430Y-76473480D01*
X109799934Y-76554217D01*
X109813271Y-76608734D01*
X109821116Y-76630901D01*
X109821158Y-76630936D01*
X109845884Y-76643200D01*
X109896631Y-76663576D01*
X109962462Y-76687674D01*
X109966169Y-76688983D01*
X110050331Y-76720791D01*
X110148230Y-76760685D01*
X110239435Y-76800353D01*
X110389407Y-76868420D01*
X110721499Y-76641639D01*
X110744889Y-76625688D01*
X110845080Y-76557890D01*
X110934480Y-76498208D01*
X111007745Y-76450156D01*
X111059527Y-76417250D01*
X111084480Y-76403004D01*
X111101577Y-76406270D01*
X111140395Y-76431571D01*
X111200385Y-76481675D01*
X111283210Y-76557989D01*
X111390535Y-76661922D01*
X111400139Y-76671382D01*
X111485302Y-76756145D01*
X111560949Y-76832937D01*
X111622449Y-76896947D01*
X111665173Y-76943361D01*
X111684489Y-76967369D01*
X111684552Y-76967485D01*
X111687006Y-76985763D01*
X111677956Y-77015411D01*
X111655119Y-77060486D01*
X111616213Y-77125044D01*
X111558954Y-77213140D01*
X111481059Y-77328830D01*
X111467785Y-77348357D01*
X111400652Y-77447278D01*
X111341410Y-77534848D01*
X111293588Y-77605831D01*
X111260715Y-77654991D01*
X111246318Y-77677095D01*
X111245232Y-77681777D01*
X111252044Y-77716710D01*
X111272450Y-77773753D01*
X111303123Y-77843172D01*
X111344808Y-77933959D01*
X111391352Y-78041686D01*
X111430877Y-78139192D01*
X111440676Y-78164430D01*
X111466340Y-78228870D01*
X111485193Y-78273763D01*
X111493710Y-78290616D01*
X111503111Y-78291875D01*
X111545363Y-78299159D01*
X111614521Y-78311739D01*
X111703387Y-78328246D01*
X111804768Y-78347312D01*
X111911467Y-78367569D01*
X112016288Y-78387647D01*
X112112036Y-78406179D01*
X112191516Y-78421795D01*
X112247530Y-78433127D01*
X112272885Y-78438807D01*
X112277088Y-78440408D01*
X112287334Y-78449045D01*
X112294957Y-78467433D01*
X112300338Y-78500460D01*
X112303859Y-78553013D01*
X112305901Y-78629979D01*
X112306847Y-78736246D01*
X112307077Y-78876701D01*
X112307077Y-79303845D01*
X112204500Y-79324091D01*
X112192092Y-79326518D01*
X112126199Y-79339088D01*
X112035084Y-79356170D01*
X111929104Y-79375829D01*
X111818615Y-79396132D01*
X111775105Y-79404299D01*
X111677882Y-79424167D01*
X111596858Y-79442954D01*
X111539477Y-79458859D01*
X111513187Y-79470079D01*
X111501273Y-79488411D01*
X111479583Y-79536916D01*
X111457395Y-79599692D01*
X111449585Y-79623200D01*
X111420835Y-79700366D01*
X111383752Y-79791694D01*
X111344375Y-79882093D01*
X111323315Y-79929310D01*
X111293311Y-79999837D01*
X111272692Y-80052655D01*
X111265026Y-80078912D01*
X111265452Y-80080894D01*
X111279993Y-80108751D01*
X111312783Y-80162510D01*
X111360493Y-80236963D01*
X111419798Y-80326897D01*
X111487369Y-80427104D01*
X111709713Y-80753416D01*
X111417601Y-81046016D01*
X111389349Y-81074171D01*
X111302961Y-81158449D01*
X111225756Y-81231128D01*
X111162258Y-81288112D01*
X111116990Y-81325307D01*
X111094474Y-81338616D01*
X111070023Y-81328490D01*
X111018819Y-81299421D01*
X110946747Y-81254896D01*
X110859460Y-81198411D01*
X110762612Y-81133462D01*
X110667486Y-81069314D01*
X110581669Y-81012827D01*
X110511652Y-80968184D01*
X110462876Y-80938855D01*
X110440783Y-80928308D01*
X110439488Y-80928404D01*
X110410139Y-80938802D01*
X110358093Y-80963012D01*
X110293708Y-80996249D01*
X110293032Y-80996613D01*
X110207521Y-81039441D01*
X110148926Y-81060365D01*
X110112571Y-81060423D01*
X110093775Y-81040654D01*
X110085819Y-81021195D01*
X110064347Y-80969080D01*
X110031273Y-80888964D01*
X109988356Y-80785107D01*
X109937356Y-80661767D01*
X109880033Y-80523201D01*
X109818146Y-80373670D01*
X109762052Y-80237636D01*
X109704977Y-80098050D01*
X109654479Y-79973315D01*
X109612254Y-79867672D01*
X109579995Y-79785365D01*
X109559397Y-79730635D01*
X109552154Y-79707726D01*
X109565986Y-79686718D01*
X109604412Y-79651642D01*
X109658807Y-79610887D01*
X109789395Y-79504267D01*
X109906260Y-79368025D01*
X109991780Y-79218118D01*
X110045431Y-79058971D01*
X110066684Y-78895012D01*
X110055014Y-78730667D01*
X110009894Y-78570361D01*
X109930797Y-78418520D01*
X109817197Y-78279572D01*
X109757965Y-78225460D01*
X109616054Y-78129782D01*
X109464206Y-78067405D01*
X109306861Y-78036844D01*
X109148456Y-78036615D01*
X108993429Y-78065232D01*
X108846220Y-78121210D01*
X108711266Y-78203064D01*
X108593005Y-78309309D01*
X108495877Y-78438459D01*
X108424318Y-78589031D01*
X108382769Y-78759539D01*
X108375143Y-78841722D01*
X108385634Y-79019775D01*
X108432882Y-79188704D01*
X108515489Y-79345522D01*
X108632059Y-79487245D01*
X108781193Y-79610887D01*
X108833561Y-79649982D01*
X108872832Y-79685443D01*
X108887846Y-79707692D01*
X108881859Y-79727088D01*
X108862432Y-79779059D01*
X108831194Y-79859002D01*
X108789839Y-79962673D01*
X108740061Y-80085832D01*
X108683553Y-80224234D01*
X108622009Y-80373637D01*
X108566008Y-80509020D01*
X108508184Y-80648852D01*
X108456500Y-80773872D01*
X108412718Y-80879822D01*
X108378597Y-80962441D01*
X108355898Y-81017472D01*
X108346380Y-81040654D01*
X108346269Y-81040928D01*
X108327228Y-81060503D01*
X108290694Y-81060279D01*
X108231954Y-81039210D01*
X108146292Y-80996249D01*
X108139549Y-80992631D01*
X108075938Y-80960087D01*
X108025707Y-80937050D01*
X107999218Y-80928308D01*
X107977506Y-80938639D01*
X107928984Y-80967788D01*
X107859163Y-81012287D01*
X107773484Y-81068668D01*
X107677388Y-81133462D01*
X107582706Y-81196984D01*
X107495132Y-81253705D01*
X107422642Y-81298547D01*
X107370889Y-81328016D01*
X107345526Y-81338616D01*
X107341206Y-81337270D01*
X107311092Y-81316056D01*
X107259640Y-81272237D01*
X107191375Y-81209909D01*
X107110820Y-81133170D01*
X107022500Y-81046116D01*
X106730488Y-80753617D01*
X107185360Y-80084525D01*
X107116208Y-79934916D01*
X107116003Y-79934473D01*
X107074477Y-79839101D01*
X107032044Y-79732896D01*
X106997858Y-79638769D01*
X106992684Y-79623588D01*
X106966601Y-79553109D01*
X106943081Y-79498342D01*
X106926677Y-79470079D01*
X106919996Y-79466088D01*
X106879892Y-79452697D01*
X106811795Y-79435373D01*
X106723145Y-79415917D01*
X106621385Y-79396132D01*
X106590904Y-79390551D01*
X106480628Y-79370233D01*
X106377731Y-79351095D01*
X106292569Y-79335070D01*
X106235500Y-79324091D01*
X106132923Y-79303845D01*
X106132923Y-78876701D01*
X106132946Y-78824180D01*
X106133379Y-78696047D01*
X106134659Y-78600420D01*
X106137168Y-78532411D01*
X106141286Y-78487133D01*
X106147395Y-78459697D01*
X106155878Y-78445218D01*
X106167115Y-78438807D01*
X106177994Y-78436209D01*
X106222347Y-78427022D01*
X106293106Y-78412991D01*
X106383074Y-78395486D01*
X106485056Y-78375874D01*
X106591857Y-78355525D01*
X106696281Y-78335807D01*
X106791132Y-78318089D01*
X106869214Y-78303738D01*
X106923332Y-78294124D01*
X106946291Y-78290616D01*
X106947842Y-78288497D01*
X106960325Y-78261006D01*
X106981927Y-78208406D01*
X107009123Y-78139192D01*
X107046866Y-78045937D01*
X107093328Y-77938159D01*
X107136878Y-77843172D01*
X107146858Y-77821851D01*
X107174862Y-77755086D01*
X107191641Y-77703590D01*
X107193854Y-77677095D01*
X107192713Y-77675218D01*
X107174584Y-77647565D01*
X107138644Y-77593849D01*
X107088418Y-77519303D01*
X107027430Y-77429162D01*
X106959205Y-77328657D01*
X106882330Y-77214470D01*
X106824663Y-77125770D01*
X106785426Y-77060721D01*
X106762350Y-77015295D01*
X106753166Y-76985463D01*
X106755604Y-76967195D01*
X106756424Y-76965825D01*
X106778477Y-76939205D01*
X106823436Y-76890697D01*
X106886673Y-76825108D01*
X106963559Y-76747247D01*
X107049465Y-76661922D01*
X107138579Y-76575334D01*
X107225872Y-76493947D01*
X107290018Y-76439035D01*
X107332679Y-76409190D01*
X107355521Y-76403004D01*
X107358505Y-76404394D01*
X107389936Y-76423127D01*
X107446997Y-76459733D01*
X107524343Y-76510697D01*
X107616626Y-76572504D01*
X107718502Y-76641639D01*
X108050593Y-76868420D01*
X108200566Y-76800353D01*
X108204923Y-76798381D01*
X108297000Y-76758491D01*
X108394683Y-76718818D01*
X108477539Y-76687674D01*
X108477905Y-76687545D01*
X108543685Y-76663456D01*
X108594323Y-76643110D01*
X108618884Y-76630901D01*
X108619282Y-76630458D01*
X108627619Y-76605456D01*
X108641341Y-76548598D01*
X108659123Y-76466014D01*
X108679641Y-76363831D01*
X108701571Y-76248178D01*
X108702336Y-76244033D01*
X108724229Y-76126019D01*
X108744281Y-76019151D01*
X108761192Y-75930252D01*
X108773667Y-75866145D01*
X108780406Y-75833654D01*
X108780837Y-75831853D01*
X108785273Y-75817944D01*
X108794263Y-75807489D01*
X108812737Y-75799996D01*
X108845628Y-75794972D01*
X108897868Y-75791922D01*
X108974388Y-75790355D01*
X109080122Y-75789776D01*
X109220000Y-75789692D01*
X109237575Y-75789693D01*
G36*
X112869763Y-82750269D02*
G01*
X112870300Y-82793802D01*
X112872019Y-82939344D01*
X112872365Y-83050711D01*
X112870277Y-83131804D01*
X112864698Y-83186522D01*
X112854567Y-83218761D01*
X112838826Y-83232422D01*
X112816417Y-83231403D01*
X112786280Y-83219603D01*
X112747355Y-83200920D01*
X112739038Y-83196933D01*
X112704402Y-83177419D01*
X112686314Y-83154202D01*
X112679392Y-83115492D01*
X112678256Y-83049497D01*
X112678205Y-82931000D01*
X112556141Y-82931000D01*
X112481055Y-82927712D01*
X112422015Y-82914377D01*
X112372986Y-82887423D01*
X112369330Y-82884788D01*
X112319581Y-82840286D01*
X112284959Y-82786523D01*
X112263123Y-82716154D01*
X112251737Y-82621830D01*
X112248959Y-82515271D01*
X112443846Y-82515271D01*
X112443880Y-82533131D01*
X112445735Y-82613748D01*
X112451693Y-82666447D01*
X112463506Y-82700668D01*
X112482923Y-82725846D01*
X112484133Y-82727049D01*
X112531858Y-82759628D01*
X112578110Y-82756417D01*
X112630350Y-82716965D01*
X112643128Y-82703482D01*
X112661949Y-82675837D01*
X112672562Y-82639880D01*
X112677252Y-82585364D01*
X112678308Y-82502042D01*
X112677394Y-82451598D01*
X112667477Y-82359857D01*
X112644842Y-82299752D01*
X112607238Y-82266900D01*
X112552416Y-82256923D01*
X112529317Y-82259050D01*
X112489350Y-82280147D01*
X112462926Y-82327161D01*
X112448330Y-82404175D01*
X112443846Y-82515271D01*
X112248959Y-82515271D01*
X112248462Y-82496206D01*
X112249187Y-82404536D01*
X112252490Y-82335098D01*
X112259828Y-82286945D01*
X112272655Y-82250866D01*
X112292423Y-82217648D01*
X112310569Y-82192261D01*
X112376461Y-82123727D01*
X112451114Y-82086505D01*
X112544904Y-82074722D01*
X112652240Y-82086467D01*
X112745031Y-82128595D01*
X112818421Y-82202898D01*
X112823954Y-82210764D01*
X112836857Y-82231668D01*
X112846742Y-82255555D01*
X112854093Y-82287582D01*
X112859394Y-82332905D01*
X112863127Y-82396679D01*
X112865778Y-82484060D01*
X112866096Y-82502042D01*
X112867828Y-82600205D01*
X112869763Y-82750269D01*
G37*
X112869763Y-82750269D02*
X112870300Y-82793802D01*
X112872019Y-82939344D01*
X112872365Y-83050711D01*
X112870277Y-83131804D01*
X112864698Y-83186522D01*
X112854567Y-83218761D01*
X112838826Y-83232422D01*
X112816417Y-83231403D01*
X112786280Y-83219603D01*
X112747355Y-83200920D01*
X112739038Y-83196933D01*
X112704402Y-83177419D01*
X112686314Y-83154202D01*
X112679392Y-83115492D01*
X112678256Y-83049497D01*
X112678205Y-82931000D01*
X112556141Y-82931000D01*
X112481055Y-82927712D01*
X112422015Y-82914377D01*
X112372986Y-82887423D01*
X112369330Y-82884788D01*
X112319581Y-82840286D01*
X112284959Y-82786523D01*
X112263123Y-82716154D01*
X112251737Y-82621830D01*
X112248959Y-82515271D01*
X112443846Y-82515271D01*
X112443880Y-82533131D01*
X112445735Y-82613748D01*
X112451693Y-82666447D01*
X112463506Y-82700668D01*
X112482923Y-82725846D01*
X112484133Y-82727049D01*
X112531858Y-82759628D01*
X112578110Y-82756417D01*
X112630350Y-82716965D01*
X112643128Y-82703482D01*
X112661949Y-82675837D01*
X112672562Y-82639880D01*
X112677252Y-82585364D01*
X112678308Y-82502042D01*
X112677394Y-82451598D01*
X112667477Y-82359857D01*
X112644842Y-82299752D01*
X112607238Y-82266900D01*
X112552416Y-82256923D01*
X112529317Y-82259050D01*
X112489350Y-82280147D01*
X112462926Y-82327161D01*
X112448330Y-82404175D01*
X112443846Y-82515271D01*
X112248959Y-82515271D01*
X112248462Y-82496206D01*
X112249187Y-82404536D01*
X112252490Y-82335098D01*
X112259828Y-82286945D01*
X112272655Y-82250866D01*
X112292423Y-82217648D01*
X112310569Y-82192261D01*
X112376461Y-82123727D01*
X112451114Y-82086505D01*
X112544904Y-82074722D01*
X112652240Y-82086467D01*
X112745031Y-82128595D01*
X112818421Y-82202898D01*
X112823954Y-82210764D01*
X112836857Y-82231668D01*
X112846742Y-82255555D01*
X112854093Y-82287582D01*
X112859394Y-82332905D01*
X112863127Y-82396679D01*
X112865778Y-82484060D01*
X112866096Y-82502042D01*
X112867828Y-82600205D01*
X112869763Y-82750269D01*
G36*
X112124574Y-82603643D02*
G01*
X112121066Y-82635021D01*
X112094927Y-82746705D01*
X112047694Y-82831642D01*
X111975862Y-82896741D01*
X111971802Y-82899428D01*
X111880487Y-82937634D01*
X111785144Y-82941034D01*
X111693274Y-82911939D01*
X111612379Y-82852660D01*
X111549962Y-82765510D01*
X111548914Y-82763409D01*
X111528173Y-82709289D01*
X111512980Y-82647781D01*
X111504921Y-82590039D01*
X111505582Y-82547215D01*
X111516548Y-82530462D01*
X111526290Y-82531480D01*
X111572877Y-82550009D01*
X111625682Y-82584081D01*
X111670603Y-82623522D01*
X111693535Y-82658155D01*
X111717373Y-82705133D01*
X111766230Y-82747862D01*
X111822963Y-82764923D01*
X111843758Y-82759990D01*
X111884804Y-82735157D01*
X111920557Y-82700685D01*
X111935846Y-82669411D01*
X111935842Y-82669295D01*
X111918495Y-82654933D01*
X111872247Y-82629025D01*
X111804067Y-82595210D01*
X111720923Y-82557129D01*
X111720466Y-82556927D01*
X111630138Y-82516709D01*
X111569592Y-82487733D01*
X111532888Y-82465474D01*
X111514086Y-82445407D01*
X111507246Y-82423009D01*
X111506429Y-82393756D01*
X111512113Y-82338363D01*
X111705000Y-82338363D01*
X111724911Y-82355777D01*
X111774521Y-82381872D01*
X111775976Y-82382610D01*
X111834506Y-82410483D01*
X111886868Y-82432719D01*
X111920086Y-82442126D01*
X111933410Y-82429552D01*
X111935846Y-82386468D01*
X111925724Y-82332847D01*
X111890631Y-82284119D01*
X111839823Y-82258856D01*
X111783181Y-82261406D01*
X111730584Y-82296120D01*
X111709910Y-82320107D01*
X111705000Y-82338363D01*
X111512113Y-82338363D01*
X111513622Y-82323654D01*
X111549184Y-82228412D01*
X111608714Y-82153567D01*
X111685746Y-82101745D01*
X111773815Y-82075573D01*
X111866454Y-82077676D01*
X111957198Y-82110681D01*
X112039579Y-82177215D01*
X112085222Y-82243055D01*
X112118008Y-82337036D01*
X112123339Y-82386468D01*
X112130787Y-82455536D01*
X112124574Y-82603643D01*
G37*
X112124574Y-82603643D02*
X112121066Y-82635021D01*
X112094927Y-82746705D01*
X112047694Y-82831642D01*
X111975862Y-82896741D01*
X111971802Y-82899428D01*
X111880487Y-82937634D01*
X111785144Y-82941034D01*
X111693274Y-82911939D01*
X111612379Y-82852660D01*
X111549962Y-82765510D01*
X111548914Y-82763409D01*
X111528173Y-82709289D01*
X111512980Y-82647781D01*
X111504921Y-82590039D01*
X111505582Y-82547215D01*
X111516548Y-82530462D01*
X111526290Y-82531480D01*
X111572877Y-82550009D01*
X111625682Y-82584081D01*
X111670603Y-82623522D01*
X111693535Y-82658155D01*
X111717373Y-82705133D01*
X111766230Y-82747862D01*
X111822963Y-82764923D01*
X111843758Y-82759990D01*
X111884804Y-82735157D01*
X111920557Y-82700685D01*
X111935846Y-82669411D01*
X111935842Y-82669295D01*
X111918495Y-82654933D01*
X111872247Y-82629025D01*
X111804067Y-82595210D01*
X111720923Y-82557129D01*
X111720466Y-82556927D01*
X111630138Y-82516709D01*
X111569592Y-82487733D01*
X111532888Y-82465474D01*
X111514086Y-82445407D01*
X111507246Y-82423009D01*
X111506429Y-82393756D01*
X111512113Y-82338363D01*
X111705000Y-82338363D01*
X111724911Y-82355777D01*
X111774521Y-82381872D01*
X111775976Y-82382610D01*
X111834506Y-82410483D01*
X111886868Y-82432719D01*
X111920086Y-82442126D01*
X111933410Y-82429552D01*
X111935846Y-82386468D01*
X111925724Y-82332847D01*
X111890631Y-82284119D01*
X111839823Y-82258856D01*
X111783181Y-82261406D01*
X111730584Y-82296120D01*
X111709910Y-82320107D01*
X111705000Y-82338363D01*
X111512113Y-82338363D01*
X111513622Y-82323654D01*
X111549184Y-82228412D01*
X111608714Y-82153567D01*
X111685746Y-82101745D01*
X111773815Y-82075573D01*
X111866454Y-82077676D01*
X111957198Y-82110681D01*
X112039579Y-82177215D01*
X112085222Y-82243055D01*
X112118008Y-82337036D01*
X112123339Y-82386468D01*
X112130787Y-82455536D01*
X112124574Y-82603643D01*
G36*
X113616135Y-82532105D02*
G01*
X113615076Y-82626584D01*
X113611436Y-82692414D01*
X113603892Y-82738394D01*
X113591122Y-82773321D01*
X113571803Y-82805995D01*
X113567050Y-82812775D01*
X113516759Y-82866231D01*
X113459457Y-82906547D01*
X113430032Y-82919629D01*
X113324299Y-82941450D01*
X113219734Y-82927336D01*
X113123368Y-82879105D01*
X113042235Y-82798579D01*
X113035385Y-82787791D01*
X113013097Y-82725153D01*
X112998079Y-82637935D01*
X112990792Y-82537210D01*
X112991611Y-82444037D01*
X113188796Y-82444037D01*
X113190349Y-82573114D01*
X113190974Y-82581420D01*
X113200077Y-82652643D01*
X113216288Y-82697809D01*
X113243660Y-82728752D01*
X113289553Y-82757737D01*
X113334942Y-82759261D01*
X113381692Y-82725846D01*
X113389824Y-82717053D01*
X113405754Y-82690741D01*
X113415159Y-82652520D01*
X113419632Y-82593349D01*
X113420769Y-82504182D01*
X113418822Y-82420664D01*
X113409105Y-82341095D01*
X113389047Y-82290808D01*
X113356240Y-82264513D01*
X113308280Y-82256923D01*
X113290016Y-82258432D01*
X113238848Y-82286107D01*
X113205035Y-82348172D01*
X113188796Y-82444037D01*
X112991611Y-82444037D01*
X112991699Y-82434052D01*
X113001262Y-82339533D01*
X113019943Y-82264727D01*
X113043951Y-82214905D01*
X113111536Y-82137409D01*
X113203114Y-82089256D01*
X113315213Y-82072703D01*
X113345151Y-82073599D01*
X113433315Y-82091929D01*
X113505733Y-82138104D01*
X113572192Y-82217648D01*
X113576147Y-82223548D01*
X113594040Y-82255288D01*
X113605678Y-82291163D01*
X113612371Y-82339906D01*
X113615426Y-82410249D01*
X113616106Y-82504182D01*
X113616154Y-82510923D01*
X113616135Y-82532105D01*
G37*
X113616135Y-82532105D02*
X113615076Y-82626584D01*
X113611436Y-82692414D01*
X113603892Y-82738394D01*
X113591122Y-82773321D01*
X113571803Y-82805995D01*
X113567050Y-82812775D01*
X113516759Y-82866231D01*
X113459457Y-82906547D01*
X113430032Y-82919629D01*
X113324299Y-82941450D01*
X113219734Y-82927336D01*
X113123368Y-82879105D01*
X113042235Y-82798579D01*
X113035385Y-82787791D01*
X113013097Y-82725153D01*
X112998079Y-82637935D01*
X112990792Y-82537210D01*
X112991611Y-82444037D01*
X113188796Y-82444037D01*
X113190349Y-82573114D01*
X113190974Y-82581420D01*
X113200077Y-82652643D01*
X113216288Y-82697809D01*
X113243660Y-82728752D01*
X113289553Y-82757737D01*
X113334942Y-82759261D01*
X113381692Y-82725846D01*
X113389824Y-82717053D01*
X113405754Y-82690741D01*
X113415159Y-82652520D01*
X113419632Y-82593349D01*
X113420769Y-82504182D01*
X113418822Y-82420664D01*
X113409105Y-82341095D01*
X113389047Y-82290808D01*
X113356240Y-82264513D01*
X113308280Y-82256923D01*
X113290016Y-82258432D01*
X113238848Y-82286107D01*
X113205035Y-82348172D01*
X113188796Y-82444037D01*
X112991611Y-82444037D01*
X112991699Y-82434052D01*
X113001262Y-82339533D01*
X113019943Y-82264727D01*
X113043951Y-82214905D01*
X113111536Y-82137409D01*
X113203114Y-82089256D01*
X113315213Y-82072703D01*
X113345151Y-82073599D01*
X113433315Y-82091929D01*
X113505733Y-82138104D01*
X113572192Y-82217648D01*
X113576147Y-82223548D01*
X113594040Y-82255288D01*
X113605678Y-82291163D01*
X113612371Y-82339906D01*
X113615426Y-82410249D01*
X113616106Y-82504182D01*
X113616154Y-82510923D01*
X113616135Y-82532105D01*
G36*
X105370413Y-82586449D02*
G01*
X105365641Y-82689047D01*
X105353150Y-82764126D01*
X105330121Y-82819748D01*
X105293732Y-82863975D01*
X105241162Y-82904869D01*
X105207714Y-82923466D01*
X105154098Y-82935991D01*
X105078780Y-82935003D01*
X105036672Y-82931035D01*
X104985879Y-82918920D01*
X104945280Y-82892585D01*
X104898049Y-82843514D01*
X104891738Y-82836346D01*
X104849277Y-82781189D01*
X104829018Y-82733150D01*
X104823846Y-82676184D01*
X104823846Y-82592471D01*
X104882346Y-82614552D01*
X104924994Y-82640364D01*
X104962064Y-82700928D01*
X104969803Y-82720320D01*
X105013074Y-82775235D01*
X105071976Y-82802879D01*
X105136111Y-82800393D01*
X105195077Y-82764923D01*
X105215342Y-82742805D01*
X105233720Y-82709436D01*
X105227971Y-82679117D01*
X105194887Y-82647913D01*
X105131261Y-82611887D01*
X105033885Y-82567103D01*
X104833615Y-82479445D01*
X104828301Y-82392607D01*
X104830299Y-82337296D01*
X104960783Y-82337296D01*
X104970688Y-82371538D01*
X105015756Y-82408096D01*
X105097557Y-82449692D01*
X105111092Y-82455718D01*
X105175818Y-82483753D01*
X105224247Y-82503472D01*
X105246751Y-82510923D01*
X105250161Y-82505438D01*
X105251529Y-82471948D01*
X105246651Y-82418116D01*
X105234364Y-82365473D01*
X105196041Y-82299151D01*
X105140720Y-82261780D01*
X105074640Y-82256721D01*
X105004040Y-82287339D01*
X104984474Y-82302648D01*
X104960783Y-82337296D01*
X104830299Y-82337296D01*
X104830647Y-82327663D01*
X104860186Y-82245590D01*
X104897472Y-82200361D01*
X104974776Y-82149838D01*
X105066478Y-82124316D01*
X105161274Y-82126336D01*
X105247859Y-82158440D01*
X105266920Y-82170767D01*
X105310640Y-82208912D01*
X105340540Y-82257167D01*
X105358968Y-82322710D01*
X105368270Y-82412720D01*
X105369499Y-82471948D01*
X105370794Y-82534376D01*
X105370413Y-82586449D01*
G37*
X105370413Y-82586449D02*
X105365641Y-82689047D01*
X105353150Y-82764126D01*
X105330121Y-82819748D01*
X105293732Y-82863975D01*
X105241162Y-82904869D01*
X105207714Y-82923466D01*
X105154098Y-82935991D01*
X105078780Y-82935003D01*
X105036672Y-82931035D01*
X104985879Y-82918920D01*
X104945280Y-82892585D01*
X104898049Y-82843514D01*
X104891738Y-82836346D01*
X104849277Y-82781189D01*
X104829018Y-82733150D01*
X104823846Y-82676184D01*
X104823846Y-82592471D01*
X104882346Y-82614552D01*
X104924994Y-82640364D01*
X104962064Y-82700928D01*
X104969803Y-82720320D01*
X105013074Y-82775235D01*
X105071976Y-82802879D01*
X105136111Y-82800393D01*
X105195077Y-82764923D01*
X105215342Y-82742805D01*
X105233720Y-82709436D01*
X105227971Y-82679117D01*
X105194887Y-82647913D01*
X105131261Y-82611887D01*
X105033885Y-82567103D01*
X104833615Y-82479445D01*
X104828301Y-82392607D01*
X104830299Y-82337296D01*
X104960783Y-82337296D01*
X104970688Y-82371538D01*
X105015756Y-82408096D01*
X105097557Y-82449692D01*
X105111092Y-82455718D01*
X105175818Y-82483753D01*
X105224247Y-82503472D01*
X105246751Y-82510923D01*
X105250161Y-82505438D01*
X105251529Y-82471948D01*
X105246651Y-82418116D01*
X105234364Y-82365473D01*
X105196041Y-82299151D01*
X105140720Y-82261780D01*
X105074640Y-82256721D01*
X105004040Y-82287339D01*
X104984474Y-82302648D01*
X104960783Y-82337296D01*
X104830299Y-82337296D01*
X104830647Y-82327663D01*
X104860186Y-82245590D01*
X104897472Y-82200361D01*
X104974776Y-82149838D01*
X105066478Y-82124316D01*
X105161274Y-82126336D01*
X105247859Y-82158440D01*
X105266920Y-82170767D01*
X105310640Y-82208912D01*
X105340540Y-82257167D01*
X105358968Y-82322710D01*
X105368270Y-82412720D01*
X105369499Y-82471948D01*
X105370794Y-82534376D01*
X105370413Y-82586449D01*
D13*
%TO.C,J1*%
X100385000Y-76648000D02*
X49465000Y-76648000D01*
X49465000Y-81848000D02*
X49465000Y-76648000D01*
X97785000Y-81848000D02*
X49465000Y-81848000D01*
X97785000Y-79248000D02*
X100385000Y-79248000D01*
X100385000Y-81848000D02*
X100385000Y-80518000D01*
X99055000Y-81848000D02*
X100385000Y-81848000D01*
X97785000Y-81848000D02*
X97785000Y-79248000D01*
X100385000Y-79248000D02*
X100385000Y-76648000D01*
%TD*%
M02*
