%TF.GenerationSoftware,KiCad,Pcbnew,8.0.2*%
%TF.CreationDate,2024-08-03T14:36:34+02:00*%
%TF.ProjectId,p2000t-ram-expansion-board,70323030-3074-42d7-9261-6d2d65787061,4*%
%TF.SameCoordinates,Original*%
%TF.FileFunction,Legend,Bot*%
%TF.FilePolarity,Positive*%
%FSLAX46Y46*%
G04 Gerber Fmt 4.6, Leading zero omitted, Abs format (unit mm)*
G04 Created by KiCad (PCBNEW 8.0.2) date 2024-08-03 14:36:34*
%MOMM*%
%LPD*%
G01*
G04 APERTURE LIST*
%ADD10C,0.150000*%
%ADD11C,0.200000*%
%ADD12C,0.120000*%
G04 APERTURE END LIST*
D10*
X80772000Y-58928000D02*
X108712000Y-58928000D01*
X108712000Y-66802000D01*
X80772000Y-66802000D01*
X80772000Y-58928000D01*
X33337500Y-59944000D02*
X63690500Y-59944000D01*
X63690500Y-65024000D01*
X33337500Y-65024000D01*
X33337500Y-59944000D01*
G36*
X33337500Y-59944000D02*
G01*
X63690500Y-59944000D01*
X63690500Y-65024000D01*
X33337500Y-65024000D01*
X33337500Y-59944000D01*
G37*
X81763618Y-61595000D02*
X107036618Y-61595000D01*
X106200798Y-64984142D02*
X106867465Y-64984142D01*
X106676989Y-64984142D02*
X106772227Y-64936523D01*
X106772227Y-64936523D02*
X106819846Y-64888904D01*
X106819846Y-64888904D02*
X106867465Y-64793666D01*
X106867465Y-64793666D02*
X106867465Y-64698428D01*
X106248418Y-63984142D02*
X106200798Y-64079380D01*
X106200798Y-64079380D02*
X106200798Y-64269856D01*
X106200798Y-64269856D02*
X106248418Y-64365094D01*
X106248418Y-64365094D02*
X106343656Y-64412713D01*
X106343656Y-64412713D02*
X106724608Y-64412713D01*
X106724608Y-64412713D02*
X106819846Y-64365094D01*
X106819846Y-64365094D02*
X106867465Y-64269856D01*
X106867465Y-64269856D02*
X106867465Y-64079380D01*
X106867465Y-64079380D02*
X106819846Y-63984142D01*
X106819846Y-63984142D02*
X106724608Y-63936523D01*
X106724608Y-63936523D02*
X106629370Y-63936523D01*
X106629370Y-63936523D02*
X106534132Y-64412713D01*
X106867465Y-63603189D02*
X106200798Y-63365094D01*
X106200798Y-63365094D02*
X106867465Y-63126999D01*
X107200798Y-62841284D02*
X107200798Y-62222237D01*
X107200798Y-62222237D02*
X106819846Y-62555570D01*
X106819846Y-62555570D02*
X106819846Y-62412713D01*
X106819846Y-62412713D02*
X106772227Y-62317475D01*
X106772227Y-62317475D02*
X106724608Y-62269856D01*
X106724608Y-62269856D02*
X106629370Y-62222237D01*
X106629370Y-62222237D02*
X106391275Y-62222237D01*
X106391275Y-62222237D02*
X106296037Y-62269856D01*
X106296037Y-62269856D02*
X106248418Y-62317475D01*
X106248418Y-62317475D02*
X106200798Y-62412713D01*
X106200798Y-62412713D02*
X106200798Y-62698427D01*
X106200798Y-62698427D02*
X106248418Y-62793665D01*
X106248418Y-62793665D02*
X106296037Y-62841284D01*
D11*
X31193471Y-64626857D02*
X32693471Y-64626857D01*
X32693471Y-64626857D02*
X32693471Y-64269714D01*
X32693471Y-64269714D02*
X32622042Y-64055428D01*
X32622042Y-64055428D02*
X32479185Y-63912571D01*
X32479185Y-63912571D02*
X32336328Y-63841142D01*
X32336328Y-63841142D02*
X32050614Y-63769714D01*
X32050614Y-63769714D02*
X31836328Y-63769714D01*
X31836328Y-63769714D02*
X31550614Y-63841142D01*
X31550614Y-63841142D02*
X31407757Y-63912571D01*
X31407757Y-63912571D02*
X31264900Y-64055428D01*
X31264900Y-64055428D02*
X31193471Y-64269714D01*
X31193471Y-64269714D02*
X31193471Y-64626857D01*
X31193471Y-62484000D02*
X31979185Y-62484000D01*
X31979185Y-62484000D02*
X32122042Y-62555428D01*
X32122042Y-62555428D02*
X32193471Y-62698285D01*
X32193471Y-62698285D02*
X32193471Y-62984000D01*
X32193471Y-62984000D02*
X32122042Y-63126857D01*
X31264900Y-62484000D02*
X31193471Y-62626857D01*
X31193471Y-62626857D02*
X31193471Y-62984000D01*
X31193471Y-62984000D02*
X31264900Y-63126857D01*
X31264900Y-63126857D02*
X31407757Y-63198285D01*
X31407757Y-63198285D02*
X31550614Y-63198285D01*
X31550614Y-63198285D02*
X31693471Y-63126857D01*
X31693471Y-63126857D02*
X31764900Y-62984000D01*
X31764900Y-62984000D02*
X31764900Y-62626857D01*
X31764900Y-62626857D02*
X31836328Y-62484000D01*
X32193471Y-61983999D02*
X32193471Y-61412571D01*
X32693471Y-61769714D02*
X31407757Y-61769714D01*
X31407757Y-61769714D02*
X31264900Y-61698285D01*
X31264900Y-61698285D02*
X31193471Y-61555428D01*
X31193471Y-61555428D02*
X31193471Y-61412571D01*
X31264900Y-60341142D02*
X31193471Y-60483999D01*
X31193471Y-60483999D02*
X31193471Y-60769714D01*
X31193471Y-60769714D02*
X31264900Y-60912571D01*
X31264900Y-60912571D02*
X31407757Y-60983999D01*
X31407757Y-60983999D02*
X31979185Y-60983999D01*
X31979185Y-60983999D02*
X32122042Y-60912571D01*
X32122042Y-60912571D02*
X32193471Y-60769714D01*
X32193471Y-60769714D02*
X32193471Y-60483999D01*
X32193471Y-60483999D02*
X32122042Y-60341142D01*
X32122042Y-60341142D02*
X31979185Y-60269714D01*
X31979185Y-60269714D02*
X31836328Y-60269714D01*
X31836328Y-60269714D02*
X31693471Y-60983999D01*
D10*
X104520760Y-60072342D02*
X104292189Y-60872342D01*
X104292189Y-60872342D02*
X104063617Y-60300914D01*
X104063617Y-60300914D02*
X103835046Y-60872342D01*
X103835046Y-60872342D02*
X103606474Y-60072342D01*
X103263617Y-60072342D02*
X103035046Y-60872342D01*
X103035046Y-60872342D02*
X102806474Y-60300914D01*
X102806474Y-60300914D02*
X102577903Y-60872342D01*
X102577903Y-60872342D02*
X102349331Y-60072342D01*
X102006474Y-60072342D02*
X101777903Y-60872342D01*
X101777903Y-60872342D02*
X101549331Y-60300914D01*
X101549331Y-60300914D02*
X101320760Y-60872342D01*
X101320760Y-60872342D02*
X101092188Y-60072342D01*
X100635045Y-60758057D02*
X100577902Y-60815200D01*
X100577902Y-60815200D02*
X100635045Y-60872342D01*
X100635045Y-60872342D02*
X100692188Y-60815200D01*
X100692188Y-60815200D02*
X100635045Y-60758057D01*
X100635045Y-60758057D02*
X100635045Y-60872342D01*
X100063616Y-60072342D02*
X100063616Y-61272342D01*
X100063616Y-60129485D02*
X99949331Y-60072342D01*
X99949331Y-60072342D02*
X99720759Y-60072342D01*
X99720759Y-60072342D02*
X99606473Y-60129485D01*
X99606473Y-60129485D02*
X99549331Y-60186628D01*
X99549331Y-60186628D02*
X99492188Y-60300914D01*
X99492188Y-60300914D02*
X99492188Y-60643771D01*
X99492188Y-60643771D02*
X99549331Y-60758057D01*
X99549331Y-60758057D02*
X99606473Y-60815200D01*
X99606473Y-60815200D02*
X99720759Y-60872342D01*
X99720759Y-60872342D02*
X99949331Y-60872342D01*
X99949331Y-60872342D02*
X100063616Y-60815200D01*
X98977902Y-60872342D02*
X98977902Y-59672342D01*
X98463617Y-60872342D02*
X98463617Y-60243771D01*
X98463617Y-60243771D02*
X98520759Y-60129485D01*
X98520759Y-60129485D02*
X98635045Y-60072342D01*
X98635045Y-60072342D02*
X98806474Y-60072342D01*
X98806474Y-60072342D02*
X98920759Y-60129485D01*
X98920759Y-60129485D02*
X98977902Y-60186628D01*
X97892188Y-60872342D02*
X97892188Y-60072342D01*
X97892188Y-59672342D02*
X97949331Y-59729485D01*
X97949331Y-59729485D02*
X97892188Y-59786628D01*
X97892188Y-59786628D02*
X97835045Y-59729485D01*
X97835045Y-59729485D02*
X97892188Y-59672342D01*
X97892188Y-59672342D02*
X97892188Y-59786628D01*
X97149331Y-60872342D02*
X97263616Y-60815200D01*
X97263616Y-60815200D02*
X97320759Y-60700914D01*
X97320759Y-60700914D02*
X97320759Y-59672342D01*
X96692188Y-60872342D02*
X96692188Y-60072342D01*
X96692188Y-59672342D02*
X96749331Y-59729485D01*
X96749331Y-59729485D02*
X96692188Y-59786628D01*
X96692188Y-59786628D02*
X96635045Y-59729485D01*
X96635045Y-59729485D02*
X96692188Y-59672342D01*
X96692188Y-59672342D02*
X96692188Y-59786628D01*
X96120759Y-60072342D02*
X96120759Y-61272342D01*
X96120759Y-60129485D02*
X96006474Y-60072342D01*
X96006474Y-60072342D02*
X95777902Y-60072342D01*
X95777902Y-60072342D02*
X95663616Y-60129485D01*
X95663616Y-60129485D02*
X95606474Y-60186628D01*
X95606474Y-60186628D02*
X95549331Y-60300914D01*
X95549331Y-60300914D02*
X95549331Y-60643771D01*
X95549331Y-60643771D02*
X95606474Y-60758057D01*
X95606474Y-60758057D02*
X95663616Y-60815200D01*
X95663616Y-60815200D02*
X95777902Y-60872342D01*
X95777902Y-60872342D02*
X96006474Y-60872342D01*
X96006474Y-60872342D02*
X96120759Y-60815200D01*
X95092188Y-60815200D02*
X94977902Y-60872342D01*
X94977902Y-60872342D02*
X94749331Y-60872342D01*
X94749331Y-60872342D02*
X94635045Y-60815200D01*
X94635045Y-60815200D02*
X94577902Y-60700914D01*
X94577902Y-60700914D02*
X94577902Y-60643771D01*
X94577902Y-60643771D02*
X94635045Y-60529485D01*
X94635045Y-60529485D02*
X94749331Y-60472342D01*
X94749331Y-60472342D02*
X94920760Y-60472342D01*
X94920760Y-60472342D02*
X95035045Y-60415200D01*
X95035045Y-60415200D02*
X95092188Y-60300914D01*
X95092188Y-60300914D02*
X95092188Y-60243771D01*
X95092188Y-60243771D02*
X95035045Y-60129485D01*
X95035045Y-60129485D02*
X94920760Y-60072342D01*
X94920760Y-60072342D02*
X94749331Y-60072342D01*
X94749331Y-60072342D02*
X94635045Y-60129485D01*
X94063616Y-60415200D02*
X93149331Y-60415200D01*
X92577902Y-60072342D02*
X92577902Y-61272342D01*
X92577902Y-60129485D02*
X92463617Y-60072342D01*
X92463617Y-60072342D02*
X92235045Y-60072342D01*
X92235045Y-60072342D02*
X92120759Y-60129485D01*
X92120759Y-60129485D02*
X92063617Y-60186628D01*
X92063617Y-60186628D02*
X92006474Y-60300914D01*
X92006474Y-60300914D02*
X92006474Y-60643771D01*
X92006474Y-60643771D02*
X92063617Y-60758057D01*
X92063617Y-60758057D02*
X92120759Y-60815200D01*
X92120759Y-60815200D02*
X92235045Y-60872342D01*
X92235045Y-60872342D02*
X92463617Y-60872342D01*
X92463617Y-60872342D02*
X92577902Y-60815200D01*
X91549331Y-59786628D02*
X91492188Y-59729485D01*
X91492188Y-59729485D02*
X91377903Y-59672342D01*
X91377903Y-59672342D02*
X91092188Y-59672342D01*
X91092188Y-59672342D02*
X90977903Y-59729485D01*
X90977903Y-59729485D02*
X90920760Y-59786628D01*
X90920760Y-59786628D02*
X90863617Y-59900914D01*
X90863617Y-59900914D02*
X90863617Y-60015200D01*
X90863617Y-60015200D02*
X90920760Y-60186628D01*
X90920760Y-60186628D02*
X91606474Y-60872342D01*
X91606474Y-60872342D02*
X90863617Y-60872342D01*
X90120760Y-59672342D02*
X90006474Y-59672342D01*
X90006474Y-59672342D02*
X89892188Y-59729485D01*
X89892188Y-59729485D02*
X89835046Y-59786628D01*
X89835046Y-59786628D02*
X89777903Y-59900914D01*
X89777903Y-59900914D02*
X89720760Y-60129485D01*
X89720760Y-60129485D02*
X89720760Y-60415200D01*
X89720760Y-60415200D02*
X89777903Y-60643771D01*
X89777903Y-60643771D02*
X89835046Y-60758057D01*
X89835046Y-60758057D02*
X89892188Y-60815200D01*
X89892188Y-60815200D02*
X90006474Y-60872342D01*
X90006474Y-60872342D02*
X90120760Y-60872342D01*
X90120760Y-60872342D02*
X90235046Y-60815200D01*
X90235046Y-60815200D02*
X90292188Y-60758057D01*
X90292188Y-60758057D02*
X90349331Y-60643771D01*
X90349331Y-60643771D02*
X90406474Y-60415200D01*
X90406474Y-60415200D02*
X90406474Y-60129485D01*
X90406474Y-60129485D02*
X90349331Y-59900914D01*
X90349331Y-59900914D02*
X90292188Y-59786628D01*
X90292188Y-59786628D02*
X90235046Y-59729485D01*
X90235046Y-59729485D02*
X90120760Y-59672342D01*
X88977903Y-59672342D02*
X88863617Y-59672342D01*
X88863617Y-59672342D02*
X88749331Y-59729485D01*
X88749331Y-59729485D02*
X88692189Y-59786628D01*
X88692189Y-59786628D02*
X88635046Y-59900914D01*
X88635046Y-59900914D02*
X88577903Y-60129485D01*
X88577903Y-60129485D02*
X88577903Y-60415200D01*
X88577903Y-60415200D02*
X88635046Y-60643771D01*
X88635046Y-60643771D02*
X88692189Y-60758057D01*
X88692189Y-60758057D02*
X88749331Y-60815200D01*
X88749331Y-60815200D02*
X88863617Y-60872342D01*
X88863617Y-60872342D02*
X88977903Y-60872342D01*
X88977903Y-60872342D02*
X89092189Y-60815200D01*
X89092189Y-60815200D02*
X89149331Y-60758057D01*
X89149331Y-60758057D02*
X89206474Y-60643771D01*
X89206474Y-60643771D02*
X89263617Y-60415200D01*
X89263617Y-60415200D02*
X89263617Y-60129485D01*
X89263617Y-60129485D02*
X89206474Y-59900914D01*
X89206474Y-59900914D02*
X89149331Y-59786628D01*
X89149331Y-59786628D02*
X89092189Y-59729485D01*
X89092189Y-59729485D02*
X88977903Y-59672342D01*
X87835046Y-59672342D02*
X87720760Y-59672342D01*
X87720760Y-59672342D02*
X87606474Y-59729485D01*
X87606474Y-59729485D02*
X87549332Y-59786628D01*
X87549332Y-59786628D02*
X87492189Y-59900914D01*
X87492189Y-59900914D02*
X87435046Y-60129485D01*
X87435046Y-60129485D02*
X87435046Y-60415200D01*
X87435046Y-60415200D02*
X87492189Y-60643771D01*
X87492189Y-60643771D02*
X87549332Y-60758057D01*
X87549332Y-60758057D02*
X87606474Y-60815200D01*
X87606474Y-60815200D02*
X87720760Y-60872342D01*
X87720760Y-60872342D02*
X87835046Y-60872342D01*
X87835046Y-60872342D02*
X87949332Y-60815200D01*
X87949332Y-60815200D02*
X88006474Y-60758057D01*
X88006474Y-60758057D02*
X88063617Y-60643771D01*
X88063617Y-60643771D02*
X88120760Y-60415200D01*
X88120760Y-60415200D02*
X88120760Y-60129485D01*
X88120760Y-60129485D02*
X88063617Y-59900914D01*
X88063617Y-59900914D02*
X88006474Y-59786628D01*
X88006474Y-59786628D02*
X87949332Y-59729485D01*
X87949332Y-59729485D02*
X87835046Y-59672342D01*
X87092189Y-60072342D02*
X86635046Y-60072342D01*
X86920760Y-59672342D02*
X86920760Y-60700914D01*
X86920760Y-60700914D02*
X86863617Y-60815200D01*
X86863617Y-60815200D02*
X86749332Y-60872342D01*
X86749332Y-60872342D02*
X86635046Y-60872342D01*
X86235046Y-60758057D02*
X86177903Y-60815200D01*
X86177903Y-60815200D02*
X86235046Y-60872342D01*
X86235046Y-60872342D02*
X86292189Y-60815200D01*
X86292189Y-60815200D02*
X86235046Y-60758057D01*
X86235046Y-60758057D02*
X86235046Y-60872342D01*
X85663617Y-60072342D02*
X85663617Y-60872342D01*
X85663617Y-60186628D02*
X85606474Y-60129485D01*
X85606474Y-60129485D02*
X85492189Y-60072342D01*
X85492189Y-60072342D02*
X85320760Y-60072342D01*
X85320760Y-60072342D02*
X85206474Y-60129485D01*
X85206474Y-60129485D02*
X85149332Y-60243771D01*
X85149332Y-60243771D02*
X85149332Y-60872342D01*
X84406475Y-60872342D02*
X84520760Y-60815200D01*
X84520760Y-60815200D02*
X84577903Y-60700914D01*
X84577903Y-60700914D02*
X84577903Y-59672342D01*
X105302838Y-63276847D02*
X105302838Y-62276847D01*
X105302838Y-62276847D02*
X104921886Y-62276847D01*
X104921886Y-62276847D02*
X104826648Y-62324466D01*
X104826648Y-62324466D02*
X104779029Y-62372085D01*
X104779029Y-62372085D02*
X104731410Y-62467323D01*
X104731410Y-62467323D02*
X104731410Y-62610180D01*
X104731410Y-62610180D02*
X104779029Y-62705418D01*
X104779029Y-62705418D02*
X104826648Y-62753037D01*
X104826648Y-62753037D02*
X104921886Y-62800656D01*
X104921886Y-62800656D02*
X105302838Y-62800656D01*
X104350457Y-62372085D02*
X104302838Y-62324466D01*
X104302838Y-62324466D02*
X104207600Y-62276847D01*
X104207600Y-62276847D02*
X103969505Y-62276847D01*
X103969505Y-62276847D02*
X103874267Y-62324466D01*
X103874267Y-62324466D02*
X103826648Y-62372085D01*
X103826648Y-62372085D02*
X103779029Y-62467323D01*
X103779029Y-62467323D02*
X103779029Y-62562561D01*
X103779029Y-62562561D02*
X103826648Y-62705418D01*
X103826648Y-62705418D02*
X104398076Y-63276847D01*
X104398076Y-63276847D02*
X103779029Y-63276847D01*
X103159981Y-62276847D02*
X103064743Y-62276847D01*
X103064743Y-62276847D02*
X102969505Y-62324466D01*
X102969505Y-62324466D02*
X102921886Y-62372085D01*
X102921886Y-62372085D02*
X102874267Y-62467323D01*
X102874267Y-62467323D02*
X102826648Y-62657799D01*
X102826648Y-62657799D02*
X102826648Y-62895894D01*
X102826648Y-62895894D02*
X102874267Y-63086370D01*
X102874267Y-63086370D02*
X102921886Y-63181608D01*
X102921886Y-63181608D02*
X102969505Y-63229228D01*
X102969505Y-63229228D02*
X103064743Y-63276847D01*
X103064743Y-63276847D02*
X103159981Y-63276847D01*
X103159981Y-63276847D02*
X103255219Y-63229228D01*
X103255219Y-63229228D02*
X103302838Y-63181608D01*
X103302838Y-63181608D02*
X103350457Y-63086370D01*
X103350457Y-63086370D02*
X103398076Y-62895894D01*
X103398076Y-62895894D02*
X103398076Y-62657799D01*
X103398076Y-62657799D02*
X103350457Y-62467323D01*
X103350457Y-62467323D02*
X103302838Y-62372085D01*
X103302838Y-62372085D02*
X103255219Y-62324466D01*
X103255219Y-62324466D02*
X103159981Y-62276847D01*
X102207600Y-62276847D02*
X102112362Y-62276847D01*
X102112362Y-62276847D02*
X102017124Y-62324466D01*
X102017124Y-62324466D02*
X101969505Y-62372085D01*
X101969505Y-62372085D02*
X101921886Y-62467323D01*
X101921886Y-62467323D02*
X101874267Y-62657799D01*
X101874267Y-62657799D02*
X101874267Y-62895894D01*
X101874267Y-62895894D02*
X101921886Y-63086370D01*
X101921886Y-63086370D02*
X101969505Y-63181608D01*
X101969505Y-63181608D02*
X102017124Y-63229228D01*
X102017124Y-63229228D02*
X102112362Y-63276847D01*
X102112362Y-63276847D02*
X102207600Y-63276847D01*
X102207600Y-63276847D02*
X102302838Y-63229228D01*
X102302838Y-63229228D02*
X102350457Y-63181608D01*
X102350457Y-63181608D02*
X102398076Y-63086370D01*
X102398076Y-63086370D02*
X102445695Y-62895894D01*
X102445695Y-62895894D02*
X102445695Y-62657799D01*
X102445695Y-62657799D02*
X102398076Y-62467323D01*
X102398076Y-62467323D02*
X102350457Y-62372085D01*
X102350457Y-62372085D02*
X102302838Y-62324466D01*
X102302838Y-62324466D02*
X102207600Y-62276847D01*
X101255219Y-62276847D02*
X101159981Y-62276847D01*
X101159981Y-62276847D02*
X101064743Y-62324466D01*
X101064743Y-62324466D02*
X101017124Y-62372085D01*
X101017124Y-62372085D02*
X100969505Y-62467323D01*
X100969505Y-62467323D02*
X100921886Y-62657799D01*
X100921886Y-62657799D02*
X100921886Y-62895894D01*
X100921886Y-62895894D02*
X100969505Y-63086370D01*
X100969505Y-63086370D02*
X101017124Y-63181608D01*
X101017124Y-63181608D02*
X101064743Y-63229228D01*
X101064743Y-63229228D02*
X101159981Y-63276847D01*
X101159981Y-63276847D02*
X101255219Y-63276847D01*
X101255219Y-63276847D02*
X101350457Y-63229228D01*
X101350457Y-63229228D02*
X101398076Y-63181608D01*
X101398076Y-63181608D02*
X101445695Y-63086370D01*
X101445695Y-63086370D02*
X101493314Y-62895894D01*
X101493314Y-62895894D02*
X101493314Y-62657799D01*
X101493314Y-62657799D02*
X101445695Y-62467323D01*
X101445695Y-62467323D02*
X101398076Y-62372085D01*
X101398076Y-62372085D02*
X101350457Y-62324466D01*
X101350457Y-62324466D02*
X101255219Y-62276847D01*
X100636171Y-62276847D02*
X100064743Y-62276847D01*
X100350457Y-63276847D02*
X100350457Y-62276847D01*
X98398076Y-63276847D02*
X98731409Y-62800656D01*
X98969504Y-63276847D02*
X98969504Y-62276847D01*
X98969504Y-62276847D02*
X98588552Y-62276847D01*
X98588552Y-62276847D02*
X98493314Y-62324466D01*
X98493314Y-62324466D02*
X98445695Y-62372085D01*
X98445695Y-62372085D02*
X98398076Y-62467323D01*
X98398076Y-62467323D02*
X98398076Y-62610180D01*
X98398076Y-62610180D02*
X98445695Y-62705418D01*
X98445695Y-62705418D02*
X98493314Y-62753037D01*
X98493314Y-62753037D02*
X98588552Y-62800656D01*
X98588552Y-62800656D02*
X98969504Y-62800656D01*
X98017123Y-62991132D02*
X97540933Y-62991132D01*
X98112361Y-63276847D02*
X97779028Y-62276847D01*
X97779028Y-62276847D02*
X97445695Y-63276847D01*
X97112361Y-63276847D02*
X97112361Y-62276847D01*
X97112361Y-62276847D02*
X96779028Y-62991132D01*
X96779028Y-62991132D02*
X96445695Y-62276847D01*
X96445695Y-62276847D02*
X96445695Y-63276847D01*
X95207599Y-62753037D02*
X94874266Y-62753037D01*
X94731409Y-63276847D02*
X95207599Y-63276847D01*
X95207599Y-63276847D02*
X95207599Y-62276847D01*
X95207599Y-62276847D02*
X94731409Y-62276847D01*
X94398075Y-62276847D02*
X93731409Y-63276847D01*
X93731409Y-62276847D02*
X94398075Y-63276847D01*
X93350456Y-63276847D02*
X93350456Y-62276847D01*
X93350456Y-62276847D02*
X92969504Y-62276847D01*
X92969504Y-62276847D02*
X92874266Y-62324466D01*
X92874266Y-62324466D02*
X92826647Y-62372085D01*
X92826647Y-62372085D02*
X92779028Y-62467323D01*
X92779028Y-62467323D02*
X92779028Y-62610180D01*
X92779028Y-62610180D02*
X92826647Y-62705418D01*
X92826647Y-62705418D02*
X92874266Y-62753037D01*
X92874266Y-62753037D02*
X92969504Y-62800656D01*
X92969504Y-62800656D02*
X93350456Y-62800656D01*
X92398075Y-62991132D02*
X91921885Y-62991132D01*
X92493313Y-63276847D02*
X92159980Y-62276847D01*
X92159980Y-62276847D02*
X91826647Y-63276847D01*
X91493313Y-63276847D02*
X91493313Y-62276847D01*
X91493313Y-62276847D02*
X90921885Y-63276847D01*
X90921885Y-63276847D02*
X90921885Y-62276847D01*
X90493313Y-63229228D02*
X90350456Y-63276847D01*
X90350456Y-63276847D02*
X90112361Y-63276847D01*
X90112361Y-63276847D02*
X90017123Y-63229228D01*
X90017123Y-63229228D02*
X89969504Y-63181608D01*
X89969504Y-63181608D02*
X89921885Y-63086370D01*
X89921885Y-63086370D02*
X89921885Y-62991132D01*
X89921885Y-62991132D02*
X89969504Y-62895894D01*
X89969504Y-62895894D02*
X90017123Y-62848275D01*
X90017123Y-62848275D02*
X90112361Y-62800656D01*
X90112361Y-62800656D02*
X90302837Y-62753037D01*
X90302837Y-62753037D02*
X90398075Y-62705418D01*
X90398075Y-62705418D02*
X90445694Y-62657799D01*
X90445694Y-62657799D02*
X90493313Y-62562561D01*
X90493313Y-62562561D02*
X90493313Y-62467323D01*
X90493313Y-62467323D02*
X90445694Y-62372085D01*
X90445694Y-62372085D02*
X90398075Y-62324466D01*
X90398075Y-62324466D02*
X90302837Y-62276847D01*
X90302837Y-62276847D02*
X90064742Y-62276847D01*
X90064742Y-62276847D02*
X89921885Y-62324466D01*
X89493313Y-63276847D02*
X89493313Y-62276847D01*
X88826647Y-62276847D02*
X88636171Y-62276847D01*
X88636171Y-62276847D02*
X88540933Y-62324466D01*
X88540933Y-62324466D02*
X88445695Y-62419704D01*
X88445695Y-62419704D02*
X88398076Y-62610180D01*
X88398076Y-62610180D02*
X88398076Y-62943513D01*
X88398076Y-62943513D02*
X88445695Y-63133989D01*
X88445695Y-63133989D02*
X88540933Y-63229228D01*
X88540933Y-63229228D02*
X88636171Y-63276847D01*
X88636171Y-63276847D02*
X88826647Y-63276847D01*
X88826647Y-63276847D02*
X88921885Y-63229228D01*
X88921885Y-63229228D02*
X89017123Y-63133989D01*
X89017123Y-63133989D02*
X89064742Y-62943513D01*
X89064742Y-62943513D02*
X89064742Y-62610180D01*
X89064742Y-62610180D02*
X89017123Y-62419704D01*
X89017123Y-62419704D02*
X88921885Y-62324466D01*
X88921885Y-62324466D02*
X88826647Y-62276847D01*
X87969504Y-63276847D02*
X87969504Y-62276847D01*
X87969504Y-62276847D02*
X87398076Y-63276847D01*
X87398076Y-63276847D02*
X87398076Y-62276847D01*
X85826647Y-62753037D02*
X85683790Y-62800656D01*
X85683790Y-62800656D02*
X85636171Y-62848275D01*
X85636171Y-62848275D02*
X85588552Y-62943513D01*
X85588552Y-62943513D02*
X85588552Y-63086370D01*
X85588552Y-63086370D02*
X85636171Y-63181608D01*
X85636171Y-63181608D02*
X85683790Y-63229228D01*
X85683790Y-63229228D02*
X85779028Y-63276847D01*
X85779028Y-63276847D02*
X86159980Y-63276847D01*
X86159980Y-63276847D02*
X86159980Y-62276847D01*
X86159980Y-62276847D02*
X85826647Y-62276847D01*
X85826647Y-62276847D02*
X85731409Y-62324466D01*
X85731409Y-62324466D02*
X85683790Y-62372085D01*
X85683790Y-62372085D02*
X85636171Y-62467323D01*
X85636171Y-62467323D02*
X85636171Y-62562561D01*
X85636171Y-62562561D02*
X85683790Y-62657799D01*
X85683790Y-62657799D02*
X85731409Y-62705418D01*
X85731409Y-62705418D02*
X85826647Y-62753037D01*
X85826647Y-62753037D02*
X86159980Y-62753037D01*
X84969504Y-62276847D02*
X84779028Y-62276847D01*
X84779028Y-62276847D02*
X84683790Y-62324466D01*
X84683790Y-62324466D02*
X84588552Y-62419704D01*
X84588552Y-62419704D02*
X84540933Y-62610180D01*
X84540933Y-62610180D02*
X84540933Y-62943513D01*
X84540933Y-62943513D02*
X84588552Y-63133989D01*
X84588552Y-63133989D02*
X84683790Y-63229228D01*
X84683790Y-63229228D02*
X84779028Y-63276847D01*
X84779028Y-63276847D02*
X84969504Y-63276847D01*
X84969504Y-63276847D02*
X85064742Y-63229228D01*
X85064742Y-63229228D02*
X85159980Y-63133989D01*
X85159980Y-63133989D02*
X85207599Y-62943513D01*
X85207599Y-62943513D02*
X85207599Y-62610180D01*
X85207599Y-62610180D02*
X85159980Y-62419704D01*
X85159980Y-62419704D02*
X85064742Y-62324466D01*
X85064742Y-62324466D02*
X84969504Y-62276847D01*
X84159980Y-62991132D02*
X83683790Y-62991132D01*
X84255218Y-63276847D02*
X83921885Y-62276847D01*
X83921885Y-62276847D02*
X83588552Y-63276847D01*
X82683790Y-63276847D02*
X83017123Y-62800656D01*
X83255218Y-63276847D02*
X83255218Y-62276847D01*
X83255218Y-62276847D02*
X82874266Y-62276847D01*
X82874266Y-62276847D02*
X82779028Y-62324466D01*
X82779028Y-62324466D02*
X82731409Y-62372085D01*
X82731409Y-62372085D02*
X82683790Y-62467323D01*
X82683790Y-62467323D02*
X82683790Y-62610180D01*
X82683790Y-62610180D02*
X82731409Y-62705418D01*
X82731409Y-62705418D02*
X82779028Y-62753037D01*
X82779028Y-62753037D02*
X82874266Y-62800656D01*
X82874266Y-62800656D02*
X83255218Y-62800656D01*
X82255218Y-63276847D02*
X82255218Y-62276847D01*
X82255218Y-62276847D02*
X82017123Y-62276847D01*
X82017123Y-62276847D02*
X81874266Y-62324466D01*
X81874266Y-62324466D02*
X81779028Y-62419704D01*
X81779028Y-62419704D02*
X81731409Y-62514942D01*
X81731409Y-62514942D02*
X81683790Y-62705418D01*
X81683790Y-62705418D02*
X81683790Y-62848275D01*
X81683790Y-62848275D02*
X81731409Y-63038751D01*
X81731409Y-63038751D02*
X81779028Y-63133989D01*
X81779028Y-63133989D02*
X81874266Y-63229228D01*
X81874266Y-63229228D02*
X82017123Y-63276847D01*
X82017123Y-63276847D02*
X82255218Y-63276847D01*
X104874267Y-63886791D02*
X105064743Y-63886791D01*
X105064743Y-63886791D02*
X105159981Y-63934410D01*
X105159981Y-63934410D02*
X105207600Y-63982029D01*
X105207600Y-63982029D02*
X105302838Y-64124886D01*
X105302838Y-64124886D02*
X105350457Y-64315362D01*
X105350457Y-64315362D02*
X105350457Y-64696314D01*
X105350457Y-64696314D02*
X105302838Y-64791552D01*
X105302838Y-64791552D02*
X105255219Y-64839172D01*
X105255219Y-64839172D02*
X105159981Y-64886791D01*
X105159981Y-64886791D02*
X104969505Y-64886791D01*
X104969505Y-64886791D02*
X104874267Y-64839172D01*
X104874267Y-64839172D02*
X104826648Y-64791552D01*
X104826648Y-64791552D02*
X104779029Y-64696314D01*
X104779029Y-64696314D02*
X104779029Y-64458219D01*
X104779029Y-64458219D02*
X104826648Y-64362981D01*
X104826648Y-64362981D02*
X104874267Y-64315362D01*
X104874267Y-64315362D02*
X104969505Y-64267743D01*
X104969505Y-64267743D02*
X105159981Y-64267743D01*
X105159981Y-64267743D02*
X105255219Y-64315362D01*
X105255219Y-64315362D02*
X105302838Y-64362981D01*
X105302838Y-64362981D02*
X105350457Y-64458219D01*
X103921886Y-64220124D02*
X103921886Y-64886791D01*
X104159981Y-63839172D02*
X104398076Y-64553457D01*
X104398076Y-64553457D02*
X103779029Y-64553457D01*
X103398076Y-64886791D02*
X103398076Y-63886791D01*
X103302838Y-64505838D02*
X103017124Y-64886791D01*
X103017124Y-64220124D02*
X103398076Y-64601076D01*
X102588552Y-64886791D02*
X102588552Y-63886791D01*
X102588552Y-64267743D02*
X102493314Y-64220124D01*
X102493314Y-64220124D02*
X102302838Y-64220124D01*
X102302838Y-64220124D02*
X102207600Y-64267743D01*
X102207600Y-64267743D02*
X102159981Y-64315362D01*
X102159981Y-64315362D02*
X102112362Y-64410600D01*
X102112362Y-64410600D02*
X102112362Y-64696314D01*
X102112362Y-64696314D02*
X102159981Y-64791552D01*
X102159981Y-64791552D02*
X102207600Y-64839172D01*
X102207600Y-64839172D02*
X102302838Y-64886791D01*
X102302838Y-64886791D02*
X102493314Y-64886791D01*
X102493314Y-64886791D02*
X102588552Y-64839172D01*
X100636171Y-65267743D02*
X100683790Y-65220124D01*
X100683790Y-65220124D02*
X100779028Y-65077267D01*
X100779028Y-65077267D02*
X100826647Y-64982029D01*
X100826647Y-64982029D02*
X100874266Y-64839172D01*
X100874266Y-64839172D02*
X100921885Y-64601076D01*
X100921885Y-64601076D02*
X100921885Y-64410600D01*
X100921885Y-64410600D02*
X100874266Y-64172505D01*
X100874266Y-64172505D02*
X100826647Y-64029648D01*
X100826647Y-64029648D02*
X100779028Y-63934410D01*
X100779028Y-63934410D02*
X100683790Y-63791552D01*
X100683790Y-63791552D02*
X100636171Y-63743933D01*
X100064742Y-63886791D02*
X99969504Y-63886791D01*
X99969504Y-63886791D02*
X99874266Y-63934410D01*
X99874266Y-63934410D02*
X99826647Y-63982029D01*
X99826647Y-63982029D02*
X99779028Y-64077267D01*
X99779028Y-64077267D02*
X99731409Y-64267743D01*
X99731409Y-64267743D02*
X99731409Y-64505838D01*
X99731409Y-64505838D02*
X99779028Y-64696314D01*
X99779028Y-64696314D02*
X99826647Y-64791552D01*
X99826647Y-64791552D02*
X99874266Y-64839172D01*
X99874266Y-64839172D02*
X99969504Y-64886791D01*
X99969504Y-64886791D02*
X100064742Y-64886791D01*
X100064742Y-64886791D02*
X100159980Y-64839172D01*
X100159980Y-64839172D02*
X100207599Y-64791552D01*
X100207599Y-64791552D02*
X100255218Y-64696314D01*
X100255218Y-64696314D02*
X100302837Y-64505838D01*
X100302837Y-64505838D02*
X100302837Y-64267743D01*
X100302837Y-64267743D02*
X100255218Y-64077267D01*
X100255218Y-64077267D02*
X100207599Y-63982029D01*
X100207599Y-63982029D02*
X100159980Y-63934410D01*
X100159980Y-63934410D02*
X100064742Y-63886791D01*
X99302837Y-64505838D02*
X98540933Y-64505838D01*
X97588552Y-63886791D02*
X98064742Y-63886791D01*
X98064742Y-63886791D02*
X98112361Y-64362981D01*
X98112361Y-64362981D02*
X98064742Y-64315362D01*
X98064742Y-64315362D02*
X97969504Y-64267743D01*
X97969504Y-64267743D02*
X97731409Y-64267743D01*
X97731409Y-64267743D02*
X97636171Y-64315362D01*
X97636171Y-64315362D02*
X97588552Y-64362981D01*
X97588552Y-64362981D02*
X97540933Y-64458219D01*
X97540933Y-64458219D02*
X97540933Y-64696314D01*
X97540933Y-64696314D02*
X97588552Y-64791552D01*
X97588552Y-64791552D02*
X97636171Y-64839172D01*
X97636171Y-64839172D02*
X97731409Y-64886791D01*
X97731409Y-64886791D02*
X97969504Y-64886791D01*
X97969504Y-64886791D02*
X98064742Y-64839172D01*
X98064742Y-64839172D02*
X98112361Y-64791552D01*
X96350456Y-64886791D02*
X96350456Y-63886791D01*
X96350456Y-64267743D02*
X96255218Y-64220124D01*
X96255218Y-64220124D02*
X96064742Y-64220124D01*
X96064742Y-64220124D02*
X95969504Y-64267743D01*
X95969504Y-64267743D02*
X95921885Y-64315362D01*
X95921885Y-64315362D02*
X95874266Y-64410600D01*
X95874266Y-64410600D02*
X95874266Y-64696314D01*
X95874266Y-64696314D02*
X95921885Y-64791552D01*
X95921885Y-64791552D02*
X95969504Y-64839172D01*
X95969504Y-64839172D02*
X96064742Y-64886791D01*
X96064742Y-64886791D02*
X96255218Y-64886791D01*
X96255218Y-64886791D02*
X96350456Y-64839172D01*
X95017123Y-64886791D02*
X95017123Y-64362981D01*
X95017123Y-64362981D02*
X95064742Y-64267743D01*
X95064742Y-64267743D02*
X95159980Y-64220124D01*
X95159980Y-64220124D02*
X95350456Y-64220124D01*
X95350456Y-64220124D02*
X95445694Y-64267743D01*
X95017123Y-64839172D02*
X95112361Y-64886791D01*
X95112361Y-64886791D02*
X95350456Y-64886791D01*
X95350456Y-64886791D02*
X95445694Y-64839172D01*
X95445694Y-64839172D02*
X95493313Y-64743933D01*
X95493313Y-64743933D02*
X95493313Y-64648695D01*
X95493313Y-64648695D02*
X95445694Y-64553457D01*
X95445694Y-64553457D02*
X95350456Y-64505838D01*
X95350456Y-64505838D02*
X95112361Y-64505838D01*
X95112361Y-64505838D02*
X95017123Y-64458219D01*
X94540932Y-64220124D02*
X94540932Y-64886791D01*
X94540932Y-64315362D02*
X94493313Y-64267743D01*
X94493313Y-64267743D02*
X94398075Y-64220124D01*
X94398075Y-64220124D02*
X94255218Y-64220124D01*
X94255218Y-64220124D02*
X94159980Y-64267743D01*
X94159980Y-64267743D02*
X94112361Y-64362981D01*
X94112361Y-64362981D02*
X94112361Y-64886791D01*
X93636170Y-64886791D02*
X93636170Y-63886791D01*
X93540932Y-64505838D02*
X93255218Y-64886791D01*
X93255218Y-64220124D02*
X93636170Y-64601076D01*
X92112360Y-64839172D02*
X92017122Y-64886791D01*
X92017122Y-64886791D02*
X91826646Y-64886791D01*
X91826646Y-64886791D02*
X91731408Y-64839172D01*
X91731408Y-64839172D02*
X91683789Y-64743933D01*
X91683789Y-64743933D02*
X91683789Y-64696314D01*
X91683789Y-64696314D02*
X91731408Y-64601076D01*
X91731408Y-64601076D02*
X91826646Y-64553457D01*
X91826646Y-64553457D02*
X91969503Y-64553457D01*
X91969503Y-64553457D02*
X92064741Y-64505838D01*
X92064741Y-64505838D02*
X92112360Y-64410600D01*
X92112360Y-64410600D02*
X92112360Y-64362981D01*
X92112360Y-64362981D02*
X92064741Y-64267743D01*
X92064741Y-64267743D02*
X91969503Y-64220124D01*
X91969503Y-64220124D02*
X91826646Y-64220124D01*
X91826646Y-64220124D02*
X91731408Y-64267743D01*
X91350455Y-64220124D02*
X91159979Y-64886791D01*
X91159979Y-64886791D02*
X90969503Y-64410600D01*
X90969503Y-64410600D02*
X90779027Y-64886791D01*
X90779027Y-64886791D02*
X90588551Y-64220124D01*
X90207598Y-64886791D02*
X90207598Y-64220124D01*
X90207598Y-63886791D02*
X90255217Y-63934410D01*
X90255217Y-63934410D02*
X90207598Y-63982029D01*
X90207598Y-63982029D02*
X90159979Y-63934410D01*
X90159979Y-63934410D02*
X90207598Y-63886791D01*
X90207598Y-63886791D02*
X90207598Y-63982029D01*
X89874265Y-64220124D02*
X89493313Y-64220124D01*
X89731408Y-63886791D02*
X89731408Y-64743933D01*
X89731408Y-64743933D02*
X89683789Y-64839172D01*
X89683789Y-64839172D02*
X89588551Y-64886791D01*
X89588551Y-64886791D02*
X89493313Y-64886791D01*
X88731408Y-64839172D02*
X88826646Y-64886791D01*
X88826646Y-64886791D02*
X89017122Y-64886791D01*
X89017122Y-64886791D02*
X89112360Y-64839172D01*
X89112360Y-64839172D02*
X89159979Y-64791552D01*
X89159979Y-64791552D02*
X89207598Y-64696314D01*
X89207598Y-64696314D02*
X89207598Y-64410600D01*
X89207598Y-64410600D02*
X89159979Y-64315362D01*
X89159979Y-64315362D02*
X89112360Y-64267743D01*
X89112360Y-64267743D02*
X89017122Y-64220124D01*
X89017122Y-64220124D02*
X88826646Y-64220124D01*
X88826646Y-64220124D02*
X88731408Y-64267743D01*
X88302836Y-64886791D02*
X88302836Y-63886791D01*
X87874265Y-64886791D02*
X87874265Y-64362981D01*
X87874265Y-64362981D02*
X87921884Y-64267743D01*
X87921884Y-64267743D02*
X88017122Y-64220124D01*
X88017122Y-64220124D02*
X88159979Y-64220124D01*
X88159979Y-64220124D02*
X88255217Y-64267743D01*
X88255217Y-64267743D02*
X88302836Y-64315362D01*
X87398074Y-64886791D02*
X87398074Y-64220124D01*
X87398074Y-63886791D02*
X87445693Y-63934410D01*
X87445693Y-63934410D02*
X87398074Y-63982029D01*
X87398074Y-63982029D02*
X87350455Y-63934410D01*
X87350455Y-63934410D02*
X87398074Y-63886791D01*
X87398074Y-63886791D02*
X87398074Y-63982029D01*
X86921884Y-64220124D02*
X86921884Y-64886791D01*
X86921884Y-64315362D02*
X86874265Y-64267743D01*
X86874265Y-64267743D02*
X86779027Y-64220124D01*
X86779027Y-64220124D02*
X86636170Y-64220124D01*
X86636170Y-64220124D02*
X86540932Y-64267743D01*
X86540932Y-64267743D02*
X86493313Y-64362981D01*
X86493313Y-64362981D02*
X86493313Y-64886791D01*
X85588551Y-64220124D02*
X85588551Y-65029648D01*
X85588551Y-65029648D02*
X85636170Y-65124886D01*
X85636170Y-65124886D02*
X85683789Y-65172505D01*
X85683789Y-65172505D02*
X85779027Y-65220124D01*
X85779027Y-65220124D02*
X85921884Y-65220124D01*
X85921884Y-65220124D02*
X86017122Y-65172505D01*
X85588551Y-64839172D02*
X85683789Y-64886791D01*
X85683789Y-64886791D02*
X85874265Y-64886791D01*
X85874265Y-64886791D02*
X85969503Y-64839172D01*
X85969503Y-64839172D02*
X86017122Y-64791552D01*
X86017122Y-64791552D02*
X86064741Y-64696314D01*
X86064741Y-64696314D02*
X86064741Y-64410600D01*
X86064741Y-64410600D02*
X86017122Y-64315362D01*
X86017122Y-64315362D02*
X85969503Y-64267743D01*
X85969503Y-64267743D02*
X85874265Y-64220124D01*
X85874265Y-64220124D02*
X85683789Y-64220124D01*
X85683789Y-64220124D02*
X85588551Y-64267743D01*
X85207598Y-65267743D02*
X85159979Y-65220124D01*
X85159979Y-65220124D02*
X85064741Y-65077267D01*
X85064741Y-65077267D02*
X85017122Y-64982029D01*
X85017122Y-64982029D02*
X84969503Y-64839172D01*
X84969503Y-64839172D02*
X84921884Y-64601076D01*
X84921884Y-64601076D02*
X84921884Y-64410600D01*
X84921884Y-64410600D02*
X84969503Y-64172505D01*
X84969503Y-64172505D02*
X85017122Y-64029648D01*
X85017122Y-64029648D02*
X85064741Y-63934410D01*
X85064741Y-63934410D02*
X85159979Y-63791552D01*
X85159979Y-63791552D02*
X85207598Y-63743933D01*
X29130190Y-87799152D02*
X29130190Y-88656295D01*
X29130190Y-88656295D02*
X29177809Y-88751533D01*
X29177809Y-88751533D02*
X29273047Y-88799152D01*
X29273047Y-88799152D02*
X29320666Y-88799152D01*
X29130190Y-87465819D02*
X29177809Y-87513438D01*
X29177809Y-87513438D02*
X29130190Y-87561057D01*
X29130190Y-87561057D02*
X29082571Y-87513438D01*
X29082571Y-87513438D02*
X29130190Y-87465819D01*
X29130190Y-87465819D02*
X29130190Y-87561057D01*
X28511143Y-88465819D02*
X28606381Y-88418200D01*
X28606381Y-88418200D02*
X28654000Y-88322961D01*
X28654000Y-88322961D02*
X28654000Y-87465819D01*
X27701619Y-88418200D02*
X27796857Y-88465819D01*
X27796857Y-88465819D02*
X27987333Y-88465819D01*
X27987333Y-88465819D02*
X28082571Y-88418200D01*
X28082571Y-88418200D02*
X28130190Y-88370580D01*
X28130190Y-88370580D02*
X28177809Y-88275342D01*
X28177809Y-88275342D02*
X28177809Y-87989628D01*
X28177809Y-87989628D02*
X28130190Y-87894390D01*
X28130190Y-87894390D02*
X28082571Y-87846771D01*
X28082571Y-87846771D02*
X27987333Y-87799152D01*
X27987333Y-87799152D02*
X27796857Y-87799152D01*
X27796857Y-87799152D02*
X27701619Y-87846771D01*
X27273047Y-87799152D02*
X27273047Y-88656295D01*
X27273047Y-88656295D02*
X27320666Y-88751533D01*
X27320666Y-88751533D02*
X27415904Y-88799152D01*
X27415904Y-88799152D02*
X27463523Y-88799152D01*
X27273047Y-87465819D02*
X27320666Y-87513438D01*
X27320666Y-87513438D02*
X27273047Y-87561057D01*
X27273047Y-87561057D02*
X27225428Y-87513438D01*
X27225428Y-87513438D02*
X27273047Y-87465819D01*
X27273047Y-87465819D02*
X27273047Y-87561057D01*
X26654000Y-88465819D02*
X26749238Y-88418200D01*
X26749238Y-88418200D02*
X26796857Y-88322961D01*
X26796857Y-88322961D02*
X26796857Y-87465819D01*
X25844476Y-88418200D02*
X25939714Y-88465819D01*
X25939714Y-88465819D02*
X26130190Y-88465819D01*
X26130190Y-88465819D02*
X26225428Y-88418200D01*
X26225428Y-88418200D02*
X26273047Y-88370580D01*
X26273047Y-88370580D02*
X26320666Y-88275342D01*
X26320666Y-88275342D02*
X26320666Y-87989628D01*
X26320666Y-87989628D02*
X26273047Y-87894390D01*
X26273047Y-87894390D02*
X26225428Y-87846771D01*
X26225428Y-87846771D02*
X26130190Y-87799152D01*
X26130190Y-87799152D02*
X25939714Y-87799152D01*
X25939714Y-87799152D02*
X25844476Y-87846771D01*
X25415904Y-87799152D02*
X25415904Y-88656295D01*
X25415904Y-88656295D02*
X25463523Y-88751533D01*
X25463523Y-88751533D02*
X25558761Y-88799152D01*
X25558761Y-88799152D02*
X25606380Y-88799152D01*
X25415904Y-87465819D02*
X25463523Y-87513438D01*
X25463523Y-87513438D02*
X25415904Y-87561057D01*
X25415904Y-87561057D02*
X25368285Y-87513438D01*
X25368285Y-87513438D02*
X25415904Y-87465819D01*
X25415904Y-87465819D02*
X25415904Y-87561057D01*
X24796857Y-88465819D02*
X24892095Y-88418200D01*
X24892095Y-88418200D02*
X24939714Y-88322961D01*
X24939714Y-88322961D02*
X24939714Y-87465819D01*
X23987333Y-88418200D02*
X24082571Y-88465819D01*
X24082571Y-88465819D02*
X24273047Y-88465819D01*
X24273047Y-88465819D02*
X24368285Y-88418200D01*
X24368285Y-88418200D02*
X24415904Y-88370580D01*
X24415904Y-88370580D02*
X24463523Y-88275342D01*
X24463523Y-88275342D02*
X24463523Y-87989628D01*
X24463523Y-87989628D02*
X24415904Y-87894390D01*
X24415904Y-87894390D02*
X24368285Y-87846771D01*
X24368285Y-87846771D02*
X24273047Y-87799152D01*
X24273047Y-87799152D02*
X24082571Y-87799152D01*
X24082571Y-87799152D02*
X23987333Y-87846771D01*
X23558761Y-87799152D02*
X23558761Y-88656295D01*
X23558761Y-88656295D02*
X23606380Y-88751533D01*
X23606380Y-88751533D02*
X23701618Y-88799152D01*
X23701618Y-88799152D02*
X23749237Y-88799152D01*
X23558761Y-87465819D02*
X23606380Y-87513438D01*
X23606380Y-87513438D02*
X23558761Y-87561057D01*
X23558761Y-87561057D02*
X23511142Y-87513438D01*
X23511142Y-87513438D02*
X23558761Y-87465819D01*
X23558761Y-87465819D02*
X23558761Y-87561057D01*
X22939714Y-88465819D02*
X23034952Y-88418200D01*
X23034952Y-88418200D02*
X23082571Y-88322961D01*
X23082571Y-88322961D02*
X23082571Y-87465819D01*
X22130190Y-88418200D02*
X22225428Y-88465819D01*
X22225428Y-88465819D02*
X22415904Y-88465819D01*
X22415904Y-88465819D02*
X22511142Y-88418200D01*
X22511142Y-88418200D02*
X22558761Y-88370580D01*
X22558761Y-88370580D02*
X22606380Y-88275342D01*
X22606380Y-88275342D02*
X22606380Y-87989628D01*
X22606380Y-87989628D02*
X22558761Y-87894390D01*
X22558761Y-87894390D02*
X22511142Y-87846771D01*
X22511142Y-87846771D02*
X22415904Y-87799152D01*
X22415904Y-87799152D02*
X22225428Y-87799152D01*
X22225428Y-87799152D02*
X22130190Y-87846771D01*
D12*
%TO.C,J1*%
X49465000Y-81848000D02*
X49465000Y-76648000D01*
X97785000Y-79248000D02*
X100385000Y-79248000D01*
X97785000Y-81848000D02*
X49465000Y-81848000D01*
X97785000Y-81848000D02*
X97785000Y-79248000D01*
X99055000Y-81848000D02*
X100385000Y-81848000D01*
X100385000Y-76648000D02*
X49465000Y-76648000D01*
X100385000Y-79248000D02*
X100385000Y-76648000D01*
X100385000Y-81848000D02*
X100385000Y-80518000D01*
%TD*%
M02*
