%TF.GenerationSoftware,KiCad,Pcbnew,(6.0.9)*%
%TF.CreationDate,2023-10-24T21:18:59+02:00*%
%TF.ProjectId,p2000t-ram-expansion-board,70323030-3074-42d7-9261-6d2d65787061,rev?*%
%TF.SameCoordinates,Original*%
%TF.FileFunction,Legend,Top*%
%TF.FilePolarity,Positive*%
%FSLAX46Y46*%
G04 Gerber Fmt 4.6, Leading zero omitted, Abs format (unit mm)*
G04 Created by KiCad (PCBNEW (6.0.9)) date 2023-10-24 21:18:59*
%MOMM*%
%LPD*%
G01*
G04 APERTURE LIST*
%ADD10C,0.150000*%
%ADD11C,0.100000*%
%ADD12C,0.120000*%
%ADD13C,0.010000*%
G04 APERTURE END LIST*
D10*
X21923809Y-87415714D02*
X21923809Y-88272857D01*
X21876190Y-88368095D01*
X21780952Y-88415714D01*
X21733333Y-88415714D01*
X21923809Y-87082380D02*
X21876190Y-87130000D01*
X21923809Y-87177619D01*
X21971428Y-87130000D01*
X21923809Y-87082380D01*
X21923809Y-87177619D01*
X22542857Y-88082380D02*
X22447619Y-88034761D01*
X22400000Y-87939523D01*
X22400000Y-87082380D01*
X23352380Y-88034761D02*
X23257142Y-88082380D01*
X23066666Y-88082380D01*
X22971428Y-88034761D01*
X22923809Y-87987142D01*
X22876190Y-87891904D01*
X22876190Y-87606190D01*
X22923809Y-87510952D01*
X22971428Y-87463333D01*
X23066666Y-87415714D01*
X23257142Y-87415714D01*
X23352380Y-87463333D01*
X23780952Y-87415714D02*
X23780952Y-88272857D01*
X23733333Y-88368095D01*
X23638095Y-88415714D01*
X23590476Y-88415714D01*
X23780952Y-87082380D02*
X23733333Y-87130000D01*
X23780952Y-87177619D01*
X23828571Y-87130000D01*
X23780952Y-87082380D01*
X23780952Y-87177619D01*
X24400000Y-88082380D02*
X24304761Y-88034761D01*
X24257142Y-87939523D01*
X24257142Y-87082380D01*
X25209523Y-88034761D02*
X25114285Y-88082380D01*
X24923809Y-88082380D01*
X24828571Y-88034761D01*
X24780952Y-87987142D01*
X24733333Y-87891904D01*
X24733333Y-87606190D01*
X24780952Y-87510952D01*
X24828571Y-87463333D01*
X24923809Y-87415714D01*
X25114285Y-87415714D01*
X25209523Y-87463333D01*
X25638095Y-87415714D02*
X25638095Y-88272857D01*
X25590476Y-88368095D01*
X25495238Y-88415714D01*
X25447619Y-88415714D01*
X25638095Y-87082380D02*
X25590476Y-87130000D01*
X25638095Y-87177619D01*
X25685714Y-87130000D01*
X25638095Y-87082380D01*
X25638095Y-87177619D01*
X26257142Y-88082380D02*
X26161904Y-88034761D01*
X26114285Y-87939523D01*
X26114285Y-87082380D01*
X27066666Y-88034761D02*
X26971428Y-88082380D01*
X26780952Y-88082380D01*
X26685714Y-88034761D01*
X26638095Y-87987142D01*
X26590476Y-87891904D01*
X26590476Y-87606190D01*
X26638095Y-87510952D01*
X26685714Y-87463333D01*
X26780952Y-87415714D01*
X26971428Y-87415714D01*
X27066666Y-87463333D01*
X27495238Y-87415714D02*
X27495238Y-88272857D01*
X27447619Y-88368095D01*
X27352380Y-88415714D01*
X27304761Y-88415714D01*
X27495238Y-87082380D02*
X27447619Y-87130000D01*
X27495238Y-87177619D01*
X27542857Y-87130000D01*
X27495238Y-87082380D01*
X27495238Y-87177619D01*
X28114285Y-88082380D02*
X28019047Y-88034761D01*
X27971428Y-87939523D01*
X27971428Y-87082380D01*
X28923809Y-88034761D02*
X28828571Y-88082380D01*
X28638095Y-88082380D01*
X28542857Y-88034761D01*
X28495238Y-87987142D01*
X28447619Y-87891904D01*
X28447619Y-87606190D01*
X28495238Y-87510952D01*
X28542857Y-87463333D01*
X28638095Y-87415714D01*
X28828571Y-87415714D01*
X28923809Y-87463333D01*
X114818000Y-32258000D02*
X116342000Y-32258000D01*
X116342000Y-32258000D02*
X116342000Y-33782000D01*
X116342000Y-33782000D02*
X114818000Y-33782000D01*
X114818000Y-33782000D02*
X114818000Y-32258000D01*
G36*
X114818000Y-32258000D02*
G01*
X116342000Y-32258000D01*
X116342000Y-33782000D01*
X114818000Y-33782000D01*
X114818000Y-32258000D01*
G37*
X48768000Y-29718000D02*
X50292000Y-29718000D01*
X50292000Y-29718000D02*
X50292000Y-31242000D01*
X50292000Y-31242000D02*
X48768000Y-31242000D01*
X48768000Y-31242000D02*
X48768000Y-29718000D01*
G36*
X48768000Y-29718000D02*
G01*
X50292000Y-29718000D01*
X50292000Y-31242000D01*
X48768000Y-31242000D01*
X48768000Y-29718000D01*
G37*
X81788000Y-32258000D02*
X83312000Y-32258000D01*
X83312000Y-32258000D02*
X83312000Y-33782000D01*
X83312000Y-33782000D02*
X81788000Y-33782000D01*
X81788000Y-33782000D02*
X81788000Y-32258000D01*
G36*
X81788000Y-32258000D02*
G01*
X83312000Y-32258000D01*
X83312000Y-33782000D01*
X81788000Y-33782000D01*
X81788000Y-32258000D01*
G37*
X32258000Y-29718000D02*
X33782000Y-29718000D01*
X33782000Y-29718000D02*
X33782000Y-31242000D01*
X33782000Y-31242000D02*
X32258000Y-31242000D01*
X32258000Y-31242000D02*
X32258000Y-29718000D01*
G36*
X32258000Y-29718000D02*
G01*
X33782000Y-29718000D01*
X33782000Y-31242000D01*
X32258000Y-31242000D01*
X32258000Y-29718000D01*
G37*
X65278000Y-32258000D02*
X66802000Y-32258000D01*
X66802000Y-32258000D02*
X66802000Y-33782000D01*
X66802000Y-33782000D02*
X65278000Y-33782000D01*
X65278000Y-33782000D02*
X65278000Y-32258000D01*
G36*
X65278000Y-32258000D02*
G01*
X66802000Y-32258000D01*
X66802000Y-33782000D01*
X65278000Y-33782000D01*
X65278000Y-32258000D01*
G37*
X98298000Y-32258000D02*
X99822000Y-32258000D01*
X99822000Y-32258000D02*
X99822000Y-33782000D01*
X99822000Y-33782000D02*
X98298000Y-33782000D01*
X98298000Y-33782000D02*
X98298000Y-32258000D01*
G36*
X98298000Y-32258000D02*
G01*
X99822000Y-32258000D01*
X99822000Y-33782000D01*
X98298000Y-33782000D01*
X98298000Y-32258000D01*
G37*
X76723000Y-73152000D02*
X78247000Y-73152000D01*
X78247000Y-73152000D02*
X78247000Y-71628000D01*
X78247000Y-71628000D02*
X76723000Y-71628000D01*
X76723000Y-71628000D02*
X76723000Y-73152000D01*
G36*
X76723000Y-73152000D02*
G01*
X78247000Y-73152000D01*
X78247000Y-71628000D01*
X76723000Y-71628000D01*
X76723000Y-73152000D01*
G37*
X101516000Y-79756000D02*
X103040000Y-79756000D01*
X103040000Y-79756000D02*
X103040000Y-81280000D01*
X103040000Y-81280000D02*
X101516000Y-81280000D01*
X101516000Y-81280000D02*
X101516000Y-79756000D01*
G36*
X101516000Y-79756000D02*
G01*
X103040000Y-79756000D01*
X103040000Y-81280000D01*
X101516000Y-81280000D01*
X101516000Y-79756000D01*
G37*
X30988000Y-73406000D02*
X32512000Y-73406000D01*
X32512000Y-73406000D02*
X32512000Y-71882000D01*
X32512000Y-71882000D02*
X30988000Y-71882000D01*
X30988000Y-71882000D02*
X30988000Y-73406000D01*
G36*
X30988000Y-73406000D02*
G01*
X32512000Y-73406000D01*
X32512000Y-71882000D01*
X30988000Y-71882000D01*
X30988000Y-73406000D01*
G37*
X48938000Y-76200000D02*
X101008000Y-76200000D01*
X101008000Y-76200000D02*
X101008000Y-82296000D01*
X101008000Y-82296000D02*
X48938000Y-82296000D01*
X48938000Y-82296000D02*
X48938000Y-76200000D01*
X65126000Y-75848500D02*
X65126000Y-74848500D01*
X66408380Y-75038976D02*
X65932190Y-75372309D01*
X66408380Y-75610404D02*
X65408380Y-75610404D01*
X65408380Y-75229452D01*
X65456000Y-75134214D01*
X65503619Y-75086595D01*
X65598857Y-75038976D01*
X65741714Y-75038976D01*
X65836952Y-75086595D01*
X65884571Y-75134214D01*
X65932190Y-75229452D01*
X65932190Y-75610404D01*
X65126000Y-74848500D02*
X65126000Y-73848500D01*
X66408380Y-74610404D02*
X65408380Y-74610404D01*
X65408380Y-74372309D01*
X65456000Y-74229452D01*
X65551238Y-74134214D01*
X65646476Y-74086595D01*
X65836952Y-74038976D01*
X65979809Y-74038976D01*
X66170285Y-74086595D01*
X66265523Y-74134214D01*
X66360761Y-74229452D01*
X66408380Y-74372309D01*
X66408380Y-74610404D01*
X125642857Y-62682380D02*
X125642857Y-62015714D01*
X125642857Y-62206190D02*
X125690476Y-62110952D01*
X125738095Y-62063333D01*
X125833333Y-62015714D01*
X125928571Y-62015714D01*
X126642857Y-62634761D02*
X126547619Y-62682380D01*
X126357142Y-62682380D01*
X126261904Y-62634761D01*
X126214285Y-62539523D01*
X126214285Y-62158571D01*
X126261904Y-62063333D01*
X126357142Y-62015714D01*
X126547619Y-62015714D01*
X126642857Y-62063333D01*
X126690476Y-62158571D01*
X126690476Y-62253809D01*
X126214285Y-62349047D01*
X127023809Y-62015714D02*
X127261904Y-62682380D01*
X127500000Y-62015714D01*
X128071428Y-61682380D02*
X128166666Y-61682380D01*
X128261904Y-61730000D01*
X128309523Y-61777619D01*
X128357142Y-61872857D01*
X128404761Y-62063333D01*
X128404761Y-62301428D01*
X128357142Y-62491904D01*
X128309523Y-62587142D01*
X128261904Y-62634761D01*
X128166666Y-62682380D01*
X128071428Y-62682380D01*
X127976190Y-62634761D01*
X127928571Y-62587142D01*
X127880952Y-62491904D01*
X127833333Y-62301428D01*
X127833333Y-62063333D01*
X127880952Y-61872857D01*
X127928571Y-61777619D01*
X127976190Y-61730000D01*
X128071428Y-61682380D01*
X62840000Y-75848500D02*
X62840000Y-74705642D01*
X63122380Y-75705642D02*
X64122380Y-75467547D01*
X63408095Y-75277071D01*
X64122380Y-75086595D01*
X63122380Y-74848500D01*
X62840000Y-74705642D02*
X62840000Y-73705642D01*
X64122380Y-73896119D02*
X63646190Y-74229452D01*
X64122380Y-74467547D02*
X63122380Y-74467547D01*
X63122380Y-74086595D01*
X63170000Y-73991357D01*
X63217619Y-73943738D01*
X63312857Y-73896119D01*
X63455714Y-73896119D01*
X63550952Y-73943738D01*
X63598571Y-73991357D01*
X63646190Y-74086595D01*
X63646190Y-74467547D01*
X79076666Y-84520547D02*
X79076666Y-84044357D01*
X79362380Y-84615785D02*
X78362380Y-84282452D01*
X79362380Y-83949119D01*
X78362380Y-83187214D02*
X78362380Y-83377690D01*
X78410000Y-83472928D01*
X78457619Y-83520547D01*
X78600476Y-83615785D01*
X78790952Y-83663404D01*
X79171904Y-83663404D01*
X79267142Y-83615785D01*
X79314761Y-83568166D01*
X79362380Y-83472928D01*
X79362380Y-83282452D01*
X79314761Y-83187214D01*
X79267142Y-83139595D01*
X79171904Y-83091976D01*
X78933809Y-83091976D01*
X78838571Y-83139595D01*
X78790952Y-83187214D01*
X78743333Y-83282452D01*
X78743333Y-83472928D01*
X78790952Y-83568166D01*
X78838571Y-83615785D01*
X78933809Y-83663404D01*
X30798380Y-31442476D02*
X30798380Y-31918666D01*
X31274571Y-31966285D01*
X31226952Y-31918666D01*
X31179333Y-31823428D01*
X31179333Y-31585333D01*
X31226952Y-31490095D01*
X31274571Y-31442476D01*
X31369809Y-31394857D01*
X31607904Y-31394857D01*
X31703142Y-31442476D01*
X31750761Y-31490095D01*
X31798380Y-31585333D01*
X31798380Y-31823428D01*
X31750761Y-31918666D01*
X31703142Y-31966285D01*
X30798380Y-31109142D02*
X31798380Y-30775809D01*
X30798380Y-30442476D01*
X73742666Y-75658023D02*
X73742666Y-75181833D01*
X74028380Y-75753261D02*
X73028380Y-75419928D01*
X74028380Y-75086595D01*
X74028380Y-74229452D02*
X74028380Y-74800880D01*
X74028380Y-74515166D02*
X73028380Y-74515166D01*
X73171238Y-74610404D01*
X73266476Y-74705642D01*
X73314095Y-74800880D01*
X74028380Y-73277071D02*
X74028380Y-73848500D01*
X74028380Y-73562785D02*
X73028380Y-73562785D01*
X73171238Y-73658023D01*
X73266476Y-73753261D01*
X73314095Y-73848500D01*
D11*
X79429000Y-53074000D02*
X79429000Y-52274000D01*
X79626666Y-52974000D02*
X80326666Y-52807333D01*
X79826666Y-52674000D01*
X80326666Y-52540666D01*
X79626666Y-52374000D01*
X79429000Y-52274000D02*
X79429000Y-51574000D01*
X80326666Y-51707333D02*
X79993333Y-51940666D01*
X80326666Y-52107333D02*
X79626666Y-52107333D01*
X79626666Y-51840666D01*
X79660000Y-51774000D01*
X79693333Y-51740666D01*
X79760000Y-51707333D01*
X79860000Y-51707333D01*
X79926666Y-51740666D01*
X79960000Y-51774000D01*
X79993333Y-51840666D01*
X79993333Y-52107333D01*
D10*
X60046000Y-86472928D02*
X60046000Y-85996738D01*
X61328380Y-86234833D02*
X60328380Y-86234833D01*
X60046000Y-85996738D02*
X60046000Y-84949119D01*
X60328380Y-85568166D02*
X60328380Y-85377690D01*
X60376000Y-85282452D01*
X60471238Y-85187214D01*
X60661714Y-85139595D01*
X60995047Y-85139595D01*
X61185523Y-85187214D01*
X61280761Y-85282452D01*
X61328380Y-85377690D01*
X61328380Y-85568166D01*
X61280761Y-85663404D01*
X61185523Y-85758642D01*
X60995047Y-85806261D01*
X60661714Y-85806261D01*
X60471238Y-85758642D01*
X60376000Y-85663404D01*
X60328380Y-85568166D01*
X60046000Y-84949119D02*
X60046000Y-83949119D01*
X61328380Y-84139595D02*
X60852190Y-84472928D01*
X61328380Y-84711023D02*
X60328380Y-84711023D01*
X60328380Y-84330071D01*
X60376000Y-84234833D01*
X60423619Y-84187214D01*
X60518857Y-84139595D01*
X60661714Y-84139595D01*
X60756952Y-84187214D01*
X60804571Y-84234833D01*
X60852190Y-84330071D01*
X60852190Y-84711023D01*
X60046000Y-83949119D02*
X60046000Y-82901500D01*
X61423619Y-83044357D02*
X61376000Y-83139595D01*
X61280761Y-83234833D01*
X61137904Y-83377690D01*
X61090285Y-83472928D01*
X61090285Y-83568166D01*
X61328380Y-83520547D02*
X61280761Y-83615785D01*
X61185523Y-83711023D01*
X60995047Y-83758642D01*
X60661714Y-83758642D01*
X60471238Y-83711023D01*
X60376000Y-83615785D01*
X60328380Y-83520547D01*
X60328380Y-83330071D01*
X60376000Y-83234833D01*
X60471238Y-83139595D01*
X60661714Y-83091976D01*
X60995047Y-83091976D01*
X61185523Y-83139595D01*
X61280761Y-83234833D01*
X61328380Y-83330071D01*
X61328380Y-83520547D01*
X86696666Y-84520547D02*
X86696666Y-84044357D01*
X86982380Y-84615785D02*
X85982380Y-84282452D01*
X86982380Y-83949119D01*
X85982380Y-83425309D02*
X85982380Y-83330071D01*
X86030000Y-83234833D01*
X86077619Y-83187214D01*
X86172857Y-83139595D01*
X86363333Y-83091976D01*
X86601428Y-83091976D01*
X86791904Y-83139595D01*
X86887142Y-83187214D01*
X86934761Y-83234833D01*
X86982380Y-83330071D01*
X86982380Y-83425309D01*
X86934761Y-83520547D01*
X86887142Y-83568166D01*
X86791904Y-83615785D01*
X86601428Y-83663404D01*
X86363333Y-83663404D01*
X86172857Y-83615785D01*
X86077619Y-83568166D01*
X86030000Y-83520547D01*
X85982380Y-83425309D01*
X96888380Y-75610404D02*
X95888380Y-75610404D01*
X95888380Y-75372309D01*
X95936000Y-75229452D01*
X96031238Y-75134214D01*
X96126476Y-75086595D01*
X96316952Y-75038976D01*
X96459809Y-75038976D01*
X96650285Y-75086595D01*
X96745523Y-75134214D01*
X96840761Y-75229452D01*
X96888380Y-75372309D01*
X96888380Y-75610404D01*
X96888380Y-74086595D02*
X96888380Y-74658023D01*
X96888380Y-74372309D02*
X95888380Y-74372309D01*
X96031238Y-74467547D01*
X96126476Y-74562785D01*
X96174095Y-74658023D01*
X71202666Y-85472928D02*
X71202666Y-84996738D01*
X71488380Y-85568166D02*
X70488380Y-85234833D01*
X71488380Y-84901500D01*
X71488380Y-84044357D02*
X71488380Y-84615785D01*
X71488380Y-84330071D02*
X70488380Y-84330071D01*
X70631238Y-84425309D01*
X70726476Y-84520547D01*
X70774095Y-84615785D01*
X70583619Y-83663404D02*
X70536000Y-83615785D01*
X70488380Y-83520547D01*
X70488380Y-83282452D01*
X70536000Y-83187214D01*
X70583619Y-83139595D01*
X70678857Y-83091976D01*
X70774095Y-83091976D01*
X70916952Y-83139595D01*
X71488380Y-83711023D01*
X71488380Y-83091976D01*
X23445261Y-41402380D02*
X22969071Y-41402380D01*
X22921452Y-41878571D01*
X22969071Y-41830952D01*
X23064309Y-41783333D01*
X23302404Y-41783333D01*
X23397642Y-41830952D01*
X23445261Y-41878571D01*
X23492880Y-41973809D01*
X23492880Y-42211904D01*
X23445261Y-42307142D01*
X23397642Y-42354761D01*
X23302404Y-42402380D01*
X23064309Y-42402380D01*
X22969071Y-42354761D01*
X22921452Y-42307142D01*
X23778595Y-41402380D02*
X24111928Y-42402380D01*
X24445261Y-41402380D01*
X29307404Y-38870000D02*
X29212166Y-38822380D01*
X29069309Y-38822380D01*
X28926452Y-38870000D01*
X28831214Y-38965238D01*
X28783595Y-39060476D01*
X28735976Y-39250952D01*
X28735976Y-39393809D01*
X28783595Y-39584285D01*
X28831214Y-39679523D01*
X28926452Y-39774761D01*
X29069309Y-39822380D01*
X29164547Y-39822380D01*
X29307404Y-39774761D01*
X29355023Y-39727142D01*
X29355023Y-39393809D01*
X29164547Y-39393809D01*
X29783595Y-39822380D02*
X29783595Y-38822380D01*
X30355023Y-39822380D01*
X30355023Y-38822380D01*
X30831214Y-39822380D02*
X30831214Y-38822380D01*
X31069309Y-38822380D01*
X31212166Y-38870000D01*
X31307404Y-38965238D01*
X31355023Y-39060476D01*
X31402642Y-39250952D01*
X31402642Y-39393809D01*
X31355023Y-39584285D01*
X31307404Y-39679523D01*
X31212166Y-39774761D01*
X31069309Y-39822380D01*
X30831214Y-39822380D01*
X89522380Y-84615785D02*
X88522380Y-84615785D01*
X88522380Y-84377690D01*
X88570000Y-84234833D01*
X88665238Y-84139595D01*
X88760476Y-84091976D01*
X88950952Y-84044357D01*
X89093809Y-84044357D01*
X89284285Y-84091976D01*
X89379523Y-84139595D01*
X89474761Y-84234833D01*
X89522380Y-84377690D01*
X89522380Y-84615785D01*
X88522380Y-83187214D02*
X88522380Y-83377690D01*
X88570000Y-83472928D01*
X88617619Y-83520547D01*
X88760476Y-83615785D01*
X88950952Y-83663404D01*
X89331904Y-83663404D01*
X89427142Y-83615785D01*
X89474761Y-83568166D01*
X89522380Y-83472928D01*
X89522380Y-83282452D01*
X89474761Y-83187214D01*
X89427142Y-83139595D01*
X89331904Y-83091976D01*
X89093809Y-83091976D01*
X88998571Y-83139595D01*
X88950952Y-83187214D01*
X88903333Y-83282452D01*
X88903333Y-83472928D01*
X88950952Y-83568166D01*
X88998571Y-83615785D01*
X89093809Y-83663404D01*
X21400380Y-31442476D02*
X21400380Y-31918666D01*
X21876571Y-31966285D01*
X21828952Y-31918666D01*
X21781333Y-31823428D01*
X21781333Y-31585333D01*
X21828952Y-31490095D01*
X21876571Y-31442476D01*
X21971809Y-31394857D01*
X22209904Y-31394857D01*
X22305142Y-31442476D01*
X22352761Y-31490095D01*
X22400380Y-31585333D01*
X22400380Y-31823428D01*
X22352761Y-31918666D01*
X22305142Y-31966285D01*
X21400380Y-31109142D02*
X22400380Y-30775809D01*
X21400380Y-30442476D01*
X81616666Y-84520547D02*
X81616666Y-84044357D01*
X81902380Y-84615785D02*
X80902380Y-84282452D01*
X81902380Y-83949119D01*
X81235714Y-83187214D02*
X81902380Y-83187214D01*
X80854761Y-83425309D02*
X81569047Y-83663404D01*
X81569047Y-83044357D01*
X21448000Y-26933904D02*
X21400380Y-27029142D01*
X21400380Y-27172000D01*
X21448000Y-27314857D01*
X21543238Y-27410095D01*
X21638476Y-27457714D01*
X21828952Y-27505333D01*
X21971809Y-27505333D01*
X22162285Y-27457714D01*
X22257523Y-27410095D01*
X22352761Y-27314857D01*
X22400380Y-27172000D01*
X22400380Y-27076761D01*
X22352761Y-26933904D01*
X22305142Y-26886285D01*
X21971809Y-26886285D01*
X21971809Y-27076761D01*
X22400380Y-26457714D02*
X21400380Y-26457714D01*
X22400380Y-25886285D01*
X21400380Y-25886285D01*
X22400380Y-25410095D02*
X21400380Y-25410095D01*
X21400380Y-25172000D01*
X21448000Y-25029142D01*
X21543238Y-24933904D01*
X21638476Y-24886285D01*
X21828952Y-24838666D01*
X21971809Y-24838666D01*
X22162285Y-24886285D01*
X22257523Y-24933904D01*
X22352761Y-25029142D01*
X22400380Y-25172000D01*
X22400380Y-25410095D01*
X30846000Y-26933904D02*
X30798380Y-27029142D01*
X30798380Y-27172000D01*
X30846000Y-27314857D01*
X30941238Y-27410095D01*
X31036476Y-27457714D01*
X31226952Y-27505333D01*
X31369809Y-27505333D01*
X31560285Y-27457714D01*
X31655523Y-27410095D01*
X31750761Y-27314857D01*
X31798380Y-27172000D01*
X31798380Y-27076761D01*
X31750761Y-26933904D01*
X31703142Y-26886285D01*
X31369809Y-26886285D01*
X31369809Y-27076761D01*
X31798380Y-26457714D02*
X30798380Y-26457714D01*
X31798380Y-25886285D01*
X30798380Y-25886285D01*
X31798380Y-25410095D02*
X30798380Y-25410095D01*
X30798380Y-25172000D01*
X30846000Y-25029142D01*
X30941238Y-24933904D01*
X31036476Y-24886285D01*
X31226952Y-24838666D01*
X31369809Y-24838666D01*
X31560285Y-24886285D01*
X31655523Y-24933904D01*
X31750761Y-25029142D01*
X31798380Y-25172000D01*
X31798380Y-25410095D01*
X83902666Y-75658023D02*
X83902666Y-75181833D01*
X84188380Y-75753261D02*
X83188380Y-75419928D01*
X84188380Y-75086595D01*
X83188380Y-74848500D02*
X83188380Y-74229452D01*
X83569333Y-74562785D01*
X83569333Y-74419928D01*
X83616952Y-74324690D01*
X83664571Y-74277071D01*
X83759809Y-74229452D01*
X83997904Y-74229452D01*
X84093142Y-74277071D01*
X84140761Y-74324690D01*
X84188380Y-74419928D01*
X84188380Y-74705642D01*
X84140761Y-74800880D01*
X84093142Y-74848500D01*
X69202380Y-75038976D02*
X68726190Y-75372309D01*
X69202380Y-75610404D02*
X68202380Y-75610404D01*
X68202380Y-75229452D01*
X68250000Y-75134214D01*
X68297619Y-75086595D01*
X68392857Y-75038976D01*
X68535714Y-75038976D01*
X68630952Y-75086595D01*
X68678571Y-75134214D01*
X68726190Y-75229452D01*
X68726190Y-75610404D01*
X68916666Y-74658023D02*
X68916666Y-74181833D01*
X69202380Y-74753261D02*
X68202380Y-74419928D01*
X69202380Y-74086595D01*
X69202380Y-73753261D02*
X68202380Y-73753261D01*
X68916666Y-73419928D01*
X68202380Y-73086595D01*
X69202380Y-73086595D01*
X69154761Y-72658023D02*
X69202380Y-72515166D01*
X69202380Y-72277071D01*
X69154761Y-72181833D01*
X69107142Y-72134214D01*
X69011904Y-72086595D01*
X68916666Y-72086595D01*
X68821428Y-72134214D01*
X68773809Y-72181833D01*
X68726190Y-72277071D01*
X68678571Y-72467547D01*
X68630952Y-72562785D01*
X68583333Y-72610404D01*
X68488095Y-72658023D01*
X68392857Y-72658023D01*
X68297619Y-72610404D01*
X68250000Y-72562785D01*
X68202380Y-72467547D01*
X68202380Y-72229452D01*
X68250000Y-72086595D01*
X68297619Y-71705642D02*
X68250000Y-71658023D01*
X68202380Y-71562785D01*
X68202380Y-71324690D01*
X68250000Y-71229452D01*
X68297619Y-71181833D01*
X68392857Y-71134214D01*
X68488095Y-71134214D01*
X68630952Y-71181833D01*
X69202380Y-71753261D01*
X69202380Y-71134214D01*
D11*
X97209000Y-53086666D02*
X97209000Y-52386666D01*
X98040000Y-52520000D02*
X98073333Y-52553333D01*
X98106666Y-52653333D01*
X98106666Y-52720000D01*
X98073333Y-52820000D01*
X98006666Y-52886666D01*
X97940000Y-52920000D01*
X97806666Y-52953333D01*
X97706666Y-52953333D01*
X97573333Y-52920000D01*
X97506666Y-52886666D01*
X97440000Y-52820000D01*
X97406666Y-52720000D01*
X97406666Y-52653333D01*
X97440000Y-52553333D01*
X97473333Y-52520000D01*
X97209000Y-52386666D02*
X97209000Y-51720000D01*
X98073333Y-52253333D02*
X98106666Y-52153333D01*
X98106666Y-51986666D01*
X98073333Y-51920000D01*
X98040000Y-51886666D01*
X97973333Y-51853333D01*
X97906666Y-51853333D01*
X97840000Y-51886666D01*
X97806666Y-51920000D01*
X97773333Y-51986666D01*
X97740000Y-52120000D01*
X97706666Y-52186666D01*
X97673333Y-52220000D01*
X97606666Y-52253333D01*
X97540000Y-52253333D01*
X97473333Y-52220000D01*
X97440000Y-52186666D01*
X97406666Y-52120000D01*
X97406666Y-51953333D01*
X97440000Y-51853333D01*
X97209000Y-51720000D02*
X97209000Y-51053333D01*
X98106666Y-51186666D02*
X98106666Y-51586666D01*
X98106666Y-51386666D02*
X97406666Y-51386666D01*
X97506666Y-51453333D01*
X97573333Y-51520000D01*
X97606666Y-51586666D01*
D10*
X22254785Y-38870000D02*
X22159547Y-38822380D01*
X22016690Y-38822380D01*
X21873833Y-38870000D01*
X21778595Y-38965238D01*
X21730976Y-39060476D01*
X21683357Y-39250952D01*
X21683357Y-39393809D01*
X21730976Y-39584285D01*
X21778595Y-39679523D01*
X21873833Y-39774761D01*
X22016690Y-39822380D01*
X22111928Y-39822380D01*
X22254785Y-39774761D01*
X22302404Y-39727142D01*
X22302404Y-39393809D01*
X22111928Y-39393809D01*
X22730976Y-39822380D02*
X22730976Y-38822380D01*
X23302404Y-39822380D01*
X23302404Y-38822380D01*
X23778595Y-39822380D02*
X23778595Y-38822380D01*
X24016690Y-38822380D01*
X24159547Y-38870000D01*
X24254785Y-38965238D01*
X24302404Y-39060476D01*
X24350023Y-39250952D01*
X24350023Y-39393809D01*
X24302404Y-39584285D01*
X24254785Y-39679523D01*
X24159547Y-39774761D01*
X24016690Y-39822380D01*
X23778595Y-39822380D01*
X92062380Y-84615785D02*
X91062380Y-84615785D01*
X91062380Y-84377690D01*
X91110000Y-84234833D01*
X91205238Y-84139595D01*
X91300476Y-84091976D01*
X91490952Y-84044357D01*
X91633809Y-84044357D01*
X91824285Y-84091976D01*
X91919523Y-84139595D01*
X92014761Y-84234833D01*
X92062380Y-84377690D01*
X92062380Y-84615785D01*
X91395714Y-83187214D02*
X92062380Y-83187214D01*
X91014761Y-83425309D02*
X91729047Y-83663404D01*
X91729047Y-83044357D01*
X76536666Y-84520547D02*
X76536666Y-84044357D01*
X76822380Y-84615785D02*
X75822380Y-84282452D01*
X76822380Y-83949119D01*
X76250952Y-83472928D02*
X76203333Y-83568166D01*
X76155714Y-83615785D01*
X76060476Y-83663404D01*
X76012857Y-83663404D01*
X75917619Y-83615785D01*
X75870000Y-83568166D01*
X75822380Y-83472928D01*
X75822380Y-83282452D01*
X75870000Y-83187214D01*
X75917619Y-83139595D01*
X76012857Y-83091976D01*
X76060476Y-83091976D01*
X76155714Y-83139595D01*
X76203333Y-83187214D01*
X76250952Y-83282452D01*
X76250952Y-83472928D01*
X76298571Y-83568166D01*
X76346190Y-83615785D01*
X76441428Y-83663404D01*
X76631904Y-83663404D01*
X76727142Y-83615785D01*
X76774761Y-83568166D01*
X76822380Y-83472928D01*
X76822380Y-83282452D01*
X76774761Y-83187214D01*
X76727142Y-83139595D01*
X76631904Y-83091976D01*
X76441428Y-83091976D01*
X76346190Y-83139595D01*
X76298571Y-83187214D01*
X76250952Y-83282452D01*
X65126000Y-86091976D02*
X65126000Y-84949119D01*
X66408380Y-85853880D02*
X65408380Y-85853880D01*
X66122666Y-85520547D01*
X65408380Y-85187214D01*
X66408380Y-85187214D01*
X65126000Y-84949119D02*
X65126000Y-83949119D01*
X66408380Y-84139595D02*
X65932190Y-84472928D01*
X66408380Y-84711023D02*
X65408380Y-84711023D01*
X65408380Y-84330071D01*
X65456000Y-84234833D01*
X65503619Y-84187214D01*
X65598857Y-84139595D01*
X65741714Y-84139595D01*
X65836952Y-84187214D01*
X65884571Y-84234833D01*
X65932190Y-84330071D01*
X65932190Y-84711023D01*
X65126000Y-83949119D02*
X65126000Y-82901500D01*
X66503619Y-83044357D02*
X66456000Y-83139595D01*
X66360761Y-83234833D01*
X66217904Y-83377690D01*
X66170285Y-83472928D01*
X66170285Y-83568166D01*
X66408380Y-83520547D02*
X66360761Y-83615785D01*
X66265523Y-83711023D01*
X66075047Y-83758642D01*
X65741714Y-83758642D01*
X65551238Y-83711023D01*
X65456000Y-83615785D01*
X65408380Y-83520547D01*
X65408380Y-83330071D01*
X65456000Y-83234833D01*
X65551238Y-83139595D01*
X65741714Y-83091976D01*
X66075047Y-83091976D01*
X66265523Y-83139595D01*
X66360761Y-83234833D01*
X66408380Y-83330071D01*
X66408380Y-83520547D01*
X78822666Y-75658023D02*
X78822666Y-75181833D01*
X79108380Y-75753261D02*
X78108380Y-75419928D01*
X79108380Y-75086595D01*
X78108380Y-74848500D02*
X78108380Y-74181833D01*
X79108380Y-74610404D01*
D11*
X92129000Y-53024000D02*
X92129000Y-52324000D01*
X93026666Y-52457333D02*
X92693333Y-52690666D01*
X93026666Y-52857333D02*
X92326666Y-52857333D01*
X92326666Y-52590666D01*
X92360000Y-52524000D01*
X92393333Y-52490666D01*
X92460000Y-52457333D01*
X92560000Y-52457333D01*
X92626666Y-52490666D01*
X92660000Y-52524000D01*
X92693333Y-52590666D01*
X92693333Y-52857333D01*
X92129000Y-52324000D02*
X92129000Y-51624000D01*
X93026666Y-52157333D02*
X92326666Y-52157333D01*
X92326666Y-51990666D01*
X92360000Y-51890666D01*
X92426666Y-51824000D01*
X92493333Y-51790666D01*
X92626666Y-51757333D01*
X92726666Y-51757333D01*
X92860000Y-51790666D01*
X92926666Y-51824000D01*
X92993333Y-51890666D01*
X93026666Y-51990666D01*
X93026666Y-52157333D01*
D10*
X126647380Y-87294404D02*
X125647380Y-87294404D01*
X125647380Y-86913452D01*
X125695000Y-86818214D01*
X125742619Y-86770595D01*
X125837857Y-86722976D01*
X125980714Y-86722976D01*
X126075952Y-86770595D01*
X126123571Y-86818214D01*
X126171190Y-86913452D01*
X126171190Y-87294404D01*
X125742619Y-86342023D02*
X125695000Y-86294404D01*
X125647380Y-86199166D01*
X125647380Y-85961071D01*
X125695000Y-85865833D01*
X125742619Y-85818214D01*
X125837857Y-85770595D01*
X125933095Y-85770595D01*
X126075952Y-85818214D01*
X126647380Y-86389642D01*
X126647380Y-85770595D01*
X125647380Y-85151547D02*
X125647380Y-85056309D01*
X125695000Y-84961071D01*
X125742619Y-84913452D01*
X125837857Y-84865833D01*
X126028333Y-84818214D01*
X126266428Y-84818214D01*
X126456904Y-84865833D01*
X126552142Y-84913452D01*
X126599761Y-84961071D01*
X126647380Y-85056309D01*
X126647380Y-85151547D01*
X126599761Y-85246785D01*
X126552142Y-85294404D01*
X126456904Y-85342023D01*
X126266428Y-85389642D01*
X126028333Y-85389642D01*
X125837857Y-85342023D01*
X125742619Y-85294404D01*
X125695000Y-85246785D01*
X125647380Y-85151547D01*
X125647380Y-84199166D02*
X125647380Y-84103928D01*
X125695000Y-84008690D01*
X125742619Y-83961071D01*
X125837857Y-83913452D01*
X126028333Y-83865833D01*
X126266428Y-83865833D01*
X126456904Y-83913452D01*
X126552142Y-83961071D01*
X126599761Y-84008690D01*
X126647380Y-84103928D01*
X126647380Y-84199166D01*
X126599761Y-84294404D01*
X126552142Y-84342023D01*
X126456904Y-84389642D01*
X126266428Y-84437261D01*
X126028333Y-84437261D01*
X125837857Y-84389642D01*
X125742619Y-84342023D01*
X125695000Y-84294404D01*
X125647380Y-84199166D01*
X125647380Y-83246785D02*
X125647380Y-83151547D01*
X125695000Y-83056309D01*
X125742619Y-83008690D01*
X125837857Y-82961071D01*
X126028333Y-82913452D01*
X126266428Y-82913452D01*
X126456904Y-82961071D01*
X126552142Y-83008690D01*
X126599761Y-83056309D01*
X126647380Y-83151547D01*
X126647380Y-83246785D01*
X126599761Y-83342023D01*
X126552142Y-83389642D01*
X126456904Y-83437261D01*
X126266428Y-83484880D01*
X126028333Y-83484880D01*
X125837857Y-83437261D01*
X125742619Y-83389642D01*
X125695000Y-83342023D01*
X125647380Y-83246785D01*
X125647380Y-82627738D02*
X125647380Y-82056309D01*
X126647380Y-82342023D02*
X125647380Y-82342023D01*
X126647380Y-80389642D02*
X126171190Y-80722976D01*
X126647380Y-80961071D02*
X125647380Y-80961071D01*
X125647380Y-80580119D01*
X125695000Y-80484880D01*
X125742619Y-80437261D01*
X125837857Y-80389642D01*
X125980714Y-80389642D01*
X126075952Y-80437261D01*
X126123571Y-80484880D01*
X126171190Y-80580119D01*
X126171190Y-80961071D01*
X126361666Y-80008690D02*
X126361666Y-79532500D01*
X126647380Y-80103928D02*
X125647380Y-79770595D01*
X126647380Y-79437261D01*
X126647380Y-79103928D02*
X125647380Y-79103928D01*
X126361666Y-78770595D01*
X125647380Y-78437261D01*
X126647380Y-78437261D01*
X126123571Y-77199166D02*
X126123571Y-76865833D01*
X126647380Y-76722976D02*
X126647380Y-77199166D01*
X125647380Y-77199166D01*
X125647380Y-76722976D01*
X125647380Y-76389642D02*
X126647380Y-75722976D01*
X125647380Y-75722976D02*
X126647380Y-76389642D01*
X126647380Y-75342023D02*
X125647380Y-75342023D01*
X125647380Y-74961071D01*
X125695000Y-74865833D01*
X125742619Y-74818214D01*
X125837857Y-74770595D01*
X125980714Y-74770595D01*
X126075952Y-74818214D01*
X126123571Y-74865833D01*
X126171190Y-74961071D01*
X126171190Y-75342023D01*
X126361666Y-74389642D02*
X126361666Y-73913452D01*
X126647380Y-74484880D02*
X125647380Y-74151547D01*
X126647380Y-73818214D01*
X126647380Y-73484880D02*
X125647380Y-73484880D01*
X126647380Y-72913452D01*
X125647380Y-72913452D01*
X126599761Y-72484880D02*
X126647380Y-72342023D01*
X126647380Y-72103928D01*
X126599761Y-72008690D01*
X126552142Y-71961071D01*
X126456904Y-71913452D01*
X126361666Y-71913452D01*
X126266428Y-71961071D01*
X126218809Y-72008690D01*
X126171190Y-72103928D01*
X126123571Y-72294404D01*
X126075952Y-72389642D01*
X126028333Y-72437261D01*
X125933095Y-72484880D01*
X125837857Y-72484880D01*
X125742619Y-72437261D01*
X125695000Y-72389642D01*
X125647380Y-72294404D01*
X125647380Y-72056309D01*
X125695000Y-71913452D01*
X126647380Y-71484880D02*
X125647380Y-71484880D01*
X125647380Y-70818214D02*
X125647380Y-70627738D01*
X125695000Y-70532500D01*
X125790238Y-70437261D01*
X125980714Y-70389642D01*
X126314047Y-70389642D01*
X126504523Y-70437261D01*
X126599761Y-70532500D01*
X126647380Y-70627738D01*
X126647380Y-70818214D01*
X126599761Y-70913452D01*
X126504523Y-71008690D01*
X126314047Y-71056309D01*
X125980714Y-71056309D01*
X125790238Y-71008690D01*
X125695000Y-70913452D01*
X125647380Y-70818214D01*
X126647380Y-69961071D02*
X125647380Y-69961071D01*
X126647380Y-69389642D01*
X125647380Y-69389642D01*
X126123571Y-67818214D02*
X126171190Y-67675357D01*
X126218809Y-67627738D01*
X126314047Y-67580119D01*
X126456904Y-67580119D01*
X126552142Y-67627738D01*
X126599761Y-67675357D01*
X126647380Y-67770595D01*
X126647380Y-68151547D01*
X125647380Y-68151547D01*
X125647380Y-67818214D01*
X125695000Y-67722976D01*
X125742619Y-67675357D01*
X125837857Y-67627738D01*
X125933095Y-67627738D01*
X126028333Y-67675357D01*
X126075952Y-67722976D01*
X126123571Y-67818214D01*
X126123571Y-68151547D01*
X125647380Y-66961071D02*
X125647380Y-66770595D01*
X125695000Y-66675357D01*
X125790238Y-66580119D01*
X125980714Y-66532500D01*
X126314047Y-66532500D01*
X126504523Y-66580119D01*
X126599761Y-66675357D01*
X126647380Y-66770595D01*
X126647380Y-66961071D01*
X126599761Y-67056309D01*
X126504523Y-67151547D01*
X126314047Y-67199166D01*
X125980714Y-67199166D01*
X125790238Y-67151547D01*
X125695000Y-67056309D01*
X125647380Y-66961071D01*
X126361666Y-66151547D02*
X126361666Y-65675357D01*
X126647380Y-66246785D02*
X125647380Y-65913452D01*
X126647380Y-65580119D01*
X126647380Y-64675357D02*
X126171190Y-65008690D01*
X126647380Y-65246785D02*
X125647380Y-65246785D01*
X125647380Y-64865833D01*
X125695000Y-64770595D01*
X125742619Y-64722976D01*
X125837857Y-64675357D01*
X125980714Y-64675357D01*
X126075952Y-64722976D01*
X126123571Y-64770595D01*
X126171190Y-64865833D01*
X126171190Y-65246785D01*
X126647380Y-64246785D02*
X125647380Y-64246785D01*
X125647380Y-64008690D01*
X125695000Y-63865833D01*
X125790238Y-63770595D01*
X125885476Y-63722976D01*
X126075952Y-63675357D01*
X126218809Y-63675357D01*
X126409285Y-63722976D01*
X126504523Y-63770595D01*
X126599761Y-63865833D01*
X126647380Y-64008690D01*
X126647380Y-64246785D01*
X127257380Y-86865833D02*
X127257380Y-87056309D01*
X127305000Y-87151547D01*
X127352619Y-87199166D01*
X127495476Y-87294404D01*
X127685952Y-87342023D01*
X128066904Y-87342023D01*
X128162142Y-87294404D01*
X128209761Y-87246785D01*
X128257380Y-87151547D01*
X128257380Y-86961071D01*
X128209761Y-86865833D01*
X128162142Y-86818214D01*
X128066904Y-86770595D01*
X127828809Y-86770595D01*
X127733571Y-86818214D01*
X127685952Y-86865833D01*
X127638333Y-86961071D01*
X127638333Y-87151547D01*
X127685952Y-87246785D01*
X127733571Y-87294404D01*
X127828809Y-87342023D01*
X127590714Y-85913452D02*
X128257380Y-85913452D01*
X127209761Y-86151547D02*
X127924047Y-86389642D01*
X127924047Y-85770595D01*
X128257380Y-85389642D02*
X127257380Y-85389642D01*
X127876428Y-85294404D02*
X128257380Y-85008690D01*
X127590714Y-85008690D02*
X127971666Y-85389642D01*
X128257380Y-84580119D02*
X127257380Y-84580119D01*
X127638333Y-84580119D02*
X127590714Y-84484880D01*
X127590714Y-84294404D01*
X127638333Y-84199166D01*
X127685952Y-84151547D01*
X127781190Y-84103928D01*
X128066904Y-84103928D01*
X128162142Y-84151547D01*
X128209761Y-84199166D01*
X128257380Y-84294404D01*
X128257380Y-84484880D01*
X128209761Y-84580119D01*
X128638333Y-82627738D02*
X128590714Y-82675357D01*
X128447857Y-82770595D01*
X128352619Y-82818214D01*
X128209761Y-82865833D01*
X127971666Y-82913452D01*
X127781190Y-82913452D01*
X127543095Y-82865833D01*
X127400238Y-82818214D01*
X127305000Y-82770595D01*
X127162142Y-82675357D01*
X127114523Y-82627738D01*
X127257380Y-82056309D02*
X127257380Y-81961071D01*
X127305000Y-81865833D01*
X127352619Y-81818214D01*
X127447857Y-81770595D01*
X127638333Y-81722976D01*
X127876428Y-81722976D01*
X128066904Y-81770595D01*
X128162142Y-81818214D01*
X128209761Y-81865833D01*
X128257380Y-81961071D01*
X128257380Y-82056309D01*
X128209761Y-82151547D01*
X128162142Y-82199166D01*
X128066904Y-82246785D01*
X127876428Y-82294404D01*
X127638333Y-82294404D01*
X127447857Y-82246785D01*
X127352619Y-82199166D01*
X127305000Y-82151547D01*
X127257380Y-82056309D01*
X127876428Y-81294404D02*
X127876428Y-80532500D01*
X127257380Y-79580119D02*
X127257380Y-80056309D01*
X127733571Y-80103928D01*
X127685952Y-80056309D01*
X127638333Y-79961071D01*
X127638333Y-79722976D01*
X127685952Y-79627738D01*
X127733571Y-79580119D01*
X127828809Y-79532500D01*
X128066904Y-79532500D01*
X128162142Y-79580119D01*
X128209761Y-79627738D01*
X128257380Y-79722976D01*
X128257380Y-79961071D01*
X128209761Y-80056309D01*
X128162142Y-80103928D01*
X128257380Y-78342023D02*
X127257380Y-78342023D01*
X127638333Y-78342023D02*
X127590714Y-78246785D01*
X127590714Y-78056309D01*
X127638333Y-77961071D01*
X127685952Y-77913452D01*
X127781190Y-77865833D01*
X128066904Y-77865833D01*
X128162142Y-77913452D01*
X128209761Y-77961071D01*
X128257380Y-78056309D01*
X128257380Y-78246785D01*
X128209761Y-78342023D01*
X128257380Y-77008690D02*
X127733571Y-77008690D01*
X127638333Y-77056309D01*
X127590714Y-77151547D01*
X127590714Y-77342023D01*
X127638333Y-77437261D01*
X128209761Y-77008690D02*
X128257380Y-77103928D01*
X128257380Y-77342023D01*
X128209761Y-77437261D01*
X128114523Y-77484880D01*
X128019285Y-77484880D01*
X127924047Y-77437261D01*
X127876428Y-77342023D01*
X127876428Y-77103928D01*
X127828809Y-77008690D01*
X127590714Y-76532500D02*
X128257380Y-76532500D01*
X127685952Y-76532500D02*
X127638333Y-76484880D01*
X127590714Y-76389642D01*
X127590714Y-76246785D01*
X127638333Y-76151547D01*
X127733571Y-76103928D01*
X128257380Y-76103928D01*
X128257380Y-75627738D02*
X127257380Y-75627738D01*
X127876428Y-75532500D02*
X128257380Y-75246785D01*
X127590714Y-75246785D02*
X127971666Y-75627738D01*
X128209761Y-74103928D02*
X128257380Y-74008690D01*
X128257380Y-73818214D01*
X128209761Y-73722976D01*
X128114523Y-73675357D01*
X128066904Y-73675357D01*
X127971666Y-73722976D01*
X127924047Y-73818214D01*
X127924047Y-73961071D01*
X127876428Y-74056309D01*
X127781190Y-74103928D01*
X127733571Y-74103928D01*
X127638333Y-74056309D01*
X127590714Y-73961071D01*
X127590714Y-73818214D01*
X127638333Y-73722976D01*
X127590714Y-73342023D02*
X128257380Y-73151547D01*
X127781190Y-72961071D01*
X128257380Y-72770595D01*
X127590714Y-72580119D01*
X128257380Y-72199166D02*
X127590714Y-72199166D01*
X127257380Y-72199166D02*
X127305000Y-72246785D01*
X127352619Y-72199166D01*
X127305000Y-72151547D01*
X127257380Y-72199166D01*
X127352619Y-72199166D01*
X127590714Y-71865833D02*
X127590714Y-71484880D01*
X127257380Y-71722976D02*
X128114523Y-71722976D01*
X128209761Y-71675357D01*
X128257380Y-71580119D01*
X128257380Y-71484880D01*
X128209761Y-70722976D02*
X128257380Y-70818214D01*
X128257380Y-71008690D01*
X128209761Y-71103928D01*
X128162142Y-71151547D01*
X128066904Y-71199166D01*
X127781190Y-71199166D01*
X127685952Y-71151547D01*
X127638333Y-71103928D01*
X127590714Y-71008690D01*
X127590714Y-70818214D01*
X127638333Y-70722976D01*
X128257380Y-70294404D02*
X127257380Y-70294404D01*
X128257380Y-69865833D02*
X127733571Y-69865833D01*
X127638333Y-69913452D01*
X127590714Y-70008690D01*
X127590714Y-70151547D01*
X127638333Y-70246785D01*
X127685952Y-70294404D01*
X128257380Y-69389642D02*
X127590714Y-69389642D01*
X127257380Y-69389642D02*
X127305000Y-69437261D01*
X127352619Y-69389642D01*
X127305000Y-69342023D01*
X127257380Y-69389642D01*
X127352619Y-69389642D01*
X127590714Y-68913452D02*
X128257380Y-68913452D01*
X127685952Y-68913452D02*
X127638333Y-68865833D01*
X127590714Y-68770595D01*
X127590714Y-68627738D01*
X127638333Y-68532500D01*
X127733571Y-68484880D01*
X128257380Y-68484880D01*
X127590714Y-67580119D02*
X128400238Y-67580119D01*
X128495476Y-67627738D01*
X128543095Y-67675357D01*
X128590714Y-67770595D01*
X128590714Y-67913452D01*
X128543095Y-68008690D01*
X128209761Y-67580119D02*
X128257380Y-67675357D01*
X128257380Y-67865833D01*
X128209761Y-67961071D01*
X128162142Y-68008690D01*
X128066904Y-68056309D01*
X127781190Y-68056309D01*
X127685952Y-68008690D01*
X127638333Y-67961071D01*
X127590714Y-67865833D01*
X127590714Y-67675357D01*
X127638333Y-67580119D01*
X128638333Y-67199166D02*
X128590714Y-67151547D01*
X128447857Y-67056309D01*
X128352619Y-67008690D01*
X128209761Y-66961071D01*
X127971666Y-66913452D01*
X127781190Y-66913452D01*
X127543095Y-66961071D01*
X127400238Y-67008690D01*
X127305000Y-67056309D01*
X127162142Y-67151547D01*
X127114523Y-67199166D01*
X89268380Y-75610404D02*
X88268380Y-75610404D01*
X88268380Y-75372309D01*
X88316000Y-75229452D01*
X88411238Y-75134214D01*
X88506476Y-75086595D01*
X88696952Y-75038976D01*
X88839809Y-75038976D01*
X89030285Y-75086595D01*
X89125523Y-75134214D01*
X89220761Y-75229452D01*
X89268380Y-75372309D01*
X89268380Y-75610404D01*
X88268380Y-74705642D02*
X88268380Y-74038976D01*
X89268380Y-74467547D01*
X91808380Y-75610404D02*
X90808380Y-75610404D01*
X90808380Y-75372309D01*
X90856000Y-75229452D01*
X90951238Y-75134214D01*
X91046476Y-75086595D01*
X91236952Y-75038976D01*
X91379809Y-75038976D01*
X91570285Y-75086595D01*
X91665523Y-75134214D01*
X91760761Y-75229452D01*
X91808380Y-75372309D01*
X91808380Y-75610404D01*
X90808380Y-74134214D02*
X90808380Y-74610404D01*
X91284571Y-74658023D01*
X91236952Y-74610404D01*
X91189333Y-74515166D01*
X91189333Y-74277071D01*
X91236952Y-74181833D01*
X91284571Y-74134214D01*
X91379809Y-74086595D01*
X91617904Y-74086595D01*
X91713142Y-74134214D01*
X91760761Y-74181833D01*
X91808380Y-74277071D01*
X91808380Y-74515166D01*
X91760761Y-74610404D01*
X91713142Y-74658023D01*
X57760000Y-75848500D02*
X57760000Y-74848500D01*
X59042380Y-75038976D02*
X58566190Y-75372309D01*
X59042380Y-75610404D02*
X58042380Y-75610404D01*
X58042380Y-75229452D01*
X58090000Y-75134214D01*
X58137619Y-75086595D01*
X58232857Y-75038976D01*
X58375714Y-75038976D01*
X58470952Y-75086595D01*
X58518571Y-75134214D01*
X58566190Y-75229452D01*
X58566190Y-75610404D01*
X57760000Y-74848500D02*
X57760000Y-73943738D01*
X58518571Y-74610404D02*
X58518571Y-74277071D01*
X59042380Y-74134214D02*
X59042380Y-74610404D01*
X58042380Y-74610404D01*
X58042380Y-74134214D01*
X57760000Y-73943738D02*
X57760000Y-72991357D01*
X58994761Y-73753261D02*
X59042380Y-73610404D01*
X59042380Y-73372309D01*
X58994761Y-73277071D01*
X58947142Y-73229452D01*
X58851904Y-73181833D01*
X58756666Y-73181833D01*
X58661428Y-73229452D01*
X58613809Y-73277071D01*
X58566190Y-73372309D01*
X58518571Y-73562785D01*
X58470952Y-73658023D01*
X58423333Y-73705642D01*
X58328095Y-73753261D01*
X58232857Y-73753261D01*
X58137619Y-73705642D01*
X58090000Y-73658023D01*
X58042380Y-73562785D01*
X58042380Y-73324690D01*
X58090000Y-73181833D01*
X94348380Y-75610404D02*
X93348380Y-75610404D01*
X93348380Y-75372309D01*
X93396000Y-75229452D01*
X93491238Y-75134214D01*
X93586476Y-75086595D01*
X93776952Y-75038976D01*
X93919809Y-75038976D01*
X94110285Y-75086595D01*
X94205523Y-75134214D01*
X94300761Y-75229452D01*
X94348380Y-75372309D01*
X94348380Y-75610404D01*
X93348380Y-74705642D02*
X93348380Y-74086595D01*
X93729333Y-74419928D01*
X93729333Y-74277071D01*
X93776952Y-74181833D01*
X93824571Y-74134214D01*
X93919809Y-74086595D01*
X94157904Y-74086595D01*
X94253142Y-74134214D01*
X94300761Y-74181833D01*
X94348380Y-74277071D01*
X94348380Y-74562785D01*
X94300761Y-74658023D01*
X94253142Y-74705642D01*
X29259785Y-41372380D02*
X28783595Y-41372380D01*
X28735976Y-41848571D01*
X28783595Y-41800952D01*
X28878833Y-41753333D01*
X29116928Y-41753333D01*
X29212166Y-41800952D01*
X29259785Y-41848571D01*
X29307404Y-41943809D01*
X29307404Y-42181904D01*
X29259785Y-42277142D01*
X29212166Y-42324761D01*
X29116928Y-42372380D01*
X28878833Y-42372380D01*
X28783595Y-42324761D01*
X28735976Y-42277142D01*
X29593119Y-41372380D02*
X29926452Y-42372380D01*
X30259785Y-41372380D01*
X73742666Y-85472928D02*
X73742666Y-84996738D01*
X74028380Y-85568166D02*
X73028380Y-85234833D01*
X74028380Y-84901500D01*
X74028380Y-84044357D02*
X74028380Y-84615785D01*
X74028380Y-84330071D02*
X73028380Y-84330071D01*
X73171238Y-84425309D01*
X73266476Y-84520547D01*
X73314095Y-84615785D01*
X73028380Y-83425309D02*
X73028380Y-83330071D01*
X73076000Y-83234833D01*
X73123619Y-83187214D01*
X73218857Y-83139595D01*
X73409333Y-83091976D01*
X73647428Y-83091976D01*
X73837904Y-83139595D01*
X73933142Y-83187214D01*
X73980761Y-83234833D01*
X74028380Y-83330071D01*
X74028380Y-83425309D01*
X73980761Y-83520547D01*
X73933142Y-83568166D01*
X73837904Y-83615785D01*
X73647428Y-83663404D01*
X73409333Y-83663404D01*
X73218857Y-83615785D01*
X73123619Y-83568166D01*
X73076000Y-83520547D01*
X73028380Y-83425309D01*
X97142380Y-84615785D02*
X96142380Y-84615785D01*
X96142380Y-84377690D01*
X96190000Y-84234833D01*
X96285238Y-84139595D01*
X96380476Y-84091976D01*
X96570952Y-84044357D01*
X96713809Y-84044357D01*
X96904285Y-84091976D01*
X96999523Y-84139595D01*
X97094761Y-84234833D01*
X97142380Y-84377690D01*
X97142380Y-84615785D01*
X96142380Y-83425309D02*
X96142380Y-83330071D01*
X96190000Y-83234833D01*
X96237619Y-83187214D01*
X96332857Y-83139595D01*
X96523333Y-83091976D01*
X96761428Y-83091976D01*
X96951904Y-83139595D01*
X97047142Y-83187214D01*
X97094761Y-83234833D01*
X97142380Y-83330071D01*
X97142380Y-83425309D01*
X97094761Y-83520547D01*
X97047142Y-83568166D01*
X96951904Y-83615785D01*
X96761428Y-83663404D01*
X96523333Y-83663404D01*
X96332857Y-83615785D01*
X96237619Y-83568166D01*
X96190000Y-83520547D01*
X96142380Y-83425309D01*
X84156666Y-84520547D02*
X84156666Y-84044357D01*
X84442380Y-84615785D02*
X83442380Y-84282452D01*
X84442380Y-83949119D01*
X83537619Y-83663404D02*
X83490000Y-83615785D01*
X83442380Y-83520547D01*
X83442380Y-83282452D01*
X83490000Y-83187214D01*
X83537619Y-83139595D01*
X83632857Y-83091976D01*
X83728095Y-83091976D01*
X83870952Y-83139595D01*
X84442380Y-83711023D01*
X84442380Y-83091976D01*
X98430000Y-84933214D02*
X98382380Y-85028452D01*
X98382380Y-85171309D01*
X98430000Y-85314166D01*
X98525238Y-85409404D01*
X98620476Y-85457023D01*
X98810952Y-85504642D01*
X98953809Y-85504642D01*
X99144285Y-85457023D01*
X99239523Y-85409404D01*
X99334761Y-85314166D01*
X99382380Y-85171309D01*
X99382380Y-85076071D01*
X99334761Y-84933214D01*
X99287142Y-84885595D01*
X98953809Y-84885595D01*
X98953809Y-85076071D01*
X99382380Y-84457023D02*
X98382380Y-84457023D01*
X99382380Y-83885595D01*
X98382380Y-83885595D01*
X99382380Y-83409404D02*
X98382380Y-83409404D01*
X98382380Y-83171309D01*
X98430000Y-83028452D01*
X98525238Y-82933214D01*
X98620476Y-82885595D01*
X98810952Y-82837976D01*
X98953809Y-82837976D01*
X99144285Y-82885595D01*
X99239523Y-82933214D01*
X99334761Y-83028452D01*
X99382380Y-83171309D01*
X99382380Y-83409404D01*
X68662666Y-85472928D02*
X68662666Y-84996738D01*
X68948380Y-85568166D02*
X67948380Y-85234833D01*
X68948380Y-84901500D01*
X68948380Y-84044357D02*
X68948380Y-84615785D01*
X68948380Y-84330071D02*
X67948380Y-84330071D01*
X68091238Y-84425309D01*
X68186476Y-84520547D01*
X68234095Y-84615785D01*
X68281714Y-83187214D02*
X68948380Y-83187214D01*
X67900761Y-83425309D02*
X68615047Y-83663404D01*
X68615047Y-83044357D01*
D11*
X46409000Y-53024000D02*
X46409000Y-52324000D01*
X47306666Y-52457333D02*
X46973333Y-52690666D01*
X47306666Y-52857333D02*
X46606666Y-52857333D01*
X46606666Y-52590666D01*
X46640000Y-52524000D01*
X46673333Y-52490666D01*
X46740000Y-52457333D01*
X46840000Y-52457333D01*
X46906666Y-52490666D01*
X46940000Y-52524000D01*
X46973333Y-52590666D01*
X46973333Y-52857333D01*
X46409000Y-52324000D02*
X46409000Y-51624000D01*
X47306666Y-52157333D02*
X46606666Y-52157333D01*
X46606666Y-51990666D01*
X46640000Y-51890666D01*
X46706666Y-51824000D01*
X46773333Y-51790666D01*
X46906666Y-51757333D01*
X47006666Y-51757333D01*
X47140000Y-51790666D01*
X47206666Y-51824000D01*
X47273333Y-51890666D01*
X47306666Y-51990666D01*
X47306666Y-52157333D01*
D10*
X86442666Y-75658023D02*
X86442666Y-75181833D01*
X86728380Y-75753261D02*
X85728380Y-75419928D01*
X86728380Y-75086595D01*
X86728380Y-74229452D02*
X86728380Y-74800880D01*
X86728380Y-74515166D02*
X85728380Y-74515166D01*
X85871238Y-74610404D01*
X85966476Y-74705642D01*
X86014095Y-74800880D01*
X81362666Y-75658023D02*
X81362666Y-75181833D01*
X81648380Y-75753261D02*
X80648380Y-75419928D01*
X81648380Y-75086595D01*
X80648380Y-74277071D02*
X80648380Y-74753261D01*
X81124571Y-74800880D01*
X81076952Y-74753261D01*
X81029333Y-74658023D01*
X81029333Y-74419928D01*
X81076952Y-74324690D01*
X81124571Y-74277071D01*
X81219809Y-74229452D01*
X81457904Y-74229452D01*
X81553142Y-74277071D01*
X81600761Y-74324690D01*
X81648380Y-74419928D01*
X81648380Y-74658023D01*
X81600761Y-74753261D01*
X81553142Y-74800880D01*
X76282666Y-75658023D02*
X76282666Y-75181833D01*
X76568380Y-75753261D02*
X75568380Y-75419928D01*
X76568380Y-75086595D01*
X76568380Y-74705642D02*
X76568380Y-74515166D01*
X76520761Y-74419928D01*
X76473142Y-74372309D01*
X76330285Y-74277071D01*
X76139809Y-74229452D01*
X75758857Y-74229452D01*
X75663619Y-74277071D01*
X75616000Y-74324690D01*
X75568380Y-74419928D01*
X75568380Y-74610404D01*
X75616000Y-74705642D01*
X75663619Y-74753261D01*
X75758857Y-74800880D01*
X75996952Y-74800880D01*
X76092190Y-74753261D01*
X76139809Y-74705642D01*
X76187428Y-74610404D01*
X76187428Y-74419928D01*
X76139809Y-74324690D01*
X76092190Y-74277071D01*
X75996952Y-74229452D01*
D11*
X51489000Y-53086666D02*
X51489000Y-52386666D01*
X52320000Y-52520000D02*
X52353333Y-52553333D01*
X52386666Y-52653333D01*
X52386666Y-52720000D01*
X52353333Y-52820000D01*
X52286666Y-52886666D01*
X52220000Y-52920000D01*
X52086666Y-52953333D01*
X51986666Y-52953333D01*
X51853333Y-52920000D01*
X51786666Y-52886666D01*
X51720000Y-52820000D01*
X51686666Y-52720000D01*
X51686666Y-52653333D01*
X51720000Y-52553333D01*
X51753333Y-52520000D01*
X51489000Y-52386666D02*
X51489000Y-51720000D01*
X52353333Y-52253333D02*
X52386666Y-52153333D01*
X52386666Y-51986666D01*
X52353333Y-51920000D01*
X52320000Y-51886666D01*
X52253333Y-51853333D01*
X52186666Y-51853333D01*
X52120000Y-51886666D01*
X52086666Y-51920000D01*
X52053333Y-51986666D01*
X52020000Y-52120000D01*
X51986666Y-52186666D01*
X51953333Y-52220000D01*
X51886666Y-52253333D01*
X51820000Y-52253333D01*
X51753333Y-52220000D01*
X51720000Y-52186666D01*
X51686666Y-52120000D01*
X51686666Y-51953333D01*
X51720000Y-51853333D01*
X51489000Y-51720000D02*
X51489000Y-51053333D01*
X51753333Y-51586666D02*
X51720000Y-51553333D01*
X51686666Y-51486666D01*
X51686666Y-51320000D01*
X51720000Y-51253333D01*
X51753333Y-51220000D01*
X51820000Y-51186666D01*
X51886666Y-51186666D01*
X51986666Y-51220000D01*
X52386666Y-51620000D01*
X52386666Y-51186666D01*
D10*
X94602380Y-84615785D02*
X93602380Y-84615785D01*
X93602380Y-84377690D01*
X93650000Y-84234833D01*
X93745238Y-84139595D01*
X93840476Y-84091976D01*
X94030952Y-84044357D01*
X94173809Y-84044357D01*
X94364285Y-84091976D01*
X94459523Y-84139595D01*
X94554761Y-84234833D01*
X94602380Y-84377690D01*
X94602380Y-84615785D01*
X93697619Y-83663404D02*
X93650000Y-83615785D01*
X93602380Y-83520547D01*
X93602380Y-83282452D01*
X93650000Y-83187214D01*
X93697619Y-83139595D01*
X93792857Y-83091976D01*
X93888095Y-83091976D01*
X94030952Y-83139595D01*
X94602380Y-83711023D01*
X94602380Y-83091976D01*
D11*
X33709000Y-53074000D02*
X33709000Y-52274000D01*
X33906666Y-52974000D02*
X34606666Y-52807333D01*
X34106666Y-52674000D01*
X34606666Y-52540666D01*
X33906666Y-52374000D01*
X33709000Y-52274000D02*
X33709000Y-51574000D01*
X34606666Y-51707333D02*
X34273333Y-51940666D01*
X34606666Y-52107333D02*
X33906666Y-52107333D01*
X33906666Y-51840666D01*
X33940000Y-51774000D01*
X33973333Y-51740666D01*
X34040000Y-51707333D01*
X34140000Y-51707333D01*
X34206666Y-51740666D01*
X34240000Y-51774000D01*
X34273333Y-51840666D01*
X34273333Y-52107333D01*
D10*
X71456666Y-75658023D02*
X71456666Y-75181833D01*
X71742380Y-75753261D02*
X70742380Y-75419928D01*
X71742380Y-75086595D01*
X71742380Y-74229452D02*
X71742380Y-74800880D01*
X71742380Y-74515166D02*
X70742380Y-74515166D01*
X70885238Y-74610404D01*
X70980476Y-74705642D01*
X71028095Y-74800880D01*
X70742380Y-73896119D02*
X70742380Y-73277071D01*
X71123333Y-73610404D01*
X71123333Y-73467547D01*
X71170952Y-73372309D01*
X71218571Y-73324690D01*
X71313809Y-73277071D01*
X71551904Y-73277071D01*
X71647142Y-73324690D01*
X71694761Y-73372309D01*
X71742380Y-73467547D01*
X71742380Y-73753261D01*
X71694761Y-73848500D01*
X71647142Y-73896119D01*
%TO.C,C1*%
X88773333Y-26011142D02*
X88725714Y-26058761D01*
X88582857Y-26106380D01*
X88487619Y-26106380D01*
X88344761Y-26058761D01*
X88249523Y-25963523D01*
X88201904Y-25868285D01*
X88154285Y-25677809D01*
X88154285Y-25534952D01*
X88201904Y-25344476D01*
X88249523Y-25249238D01*
X88344761Y-25154000D01*
X88487619Y-25106380D01*
X88582857Y-25106380D01*
X88725714Y-25154000D01*
X88773333Y-25201619D01*
X89725714Y-26106380D02*
X89154285Y-26106380D01*
X89440000Y-26106380D02*
X89440000Y-25106380D01*
X89344761Y-25249238D01*
X89249523Y-25344476D01*
X89154285Y-25392095D01*
%TO.C,U5*%
X121168095Y-30142380D02*
X121168095Y-30951904D01*
X121215714Y-31047142D01*
X121263333Y-31094761D01*
X121358571Y-31142380D01*
X121549047Y-31142380D01*
X121644285Y-31094761D01*
X121691904Y-31047142D01*
X121739523Y-30951904D01*
X121739523Y-30142380D01*
X122691904Y-30142380D02*
X122215714Y-30142380D01*
X122168095Y-30618571D01*
X122215714Y-30570952D01*
X122310952Y-30523333D01*
X122549047Y-30523333D01*
X122644285Y-30570952D01*
X122691904Y-30618571D01*
X122739523Y-30713809D01*
X122739523Y-30951904D01*
X122691904Y-31047142D01*
X122644285Y-31094761D01*
X122549047Y-31142380D01*
X122310952Y-31142380D01*
X122215714Y-31094761D01*
X122168095Y-31047142D01*
X118668095Y-57662380D02*
X119334761Y-57662380D01*
X118906190Y-58662380D01*
X120144285Y-57995714D02*
X120144285Y-58662380D01*
X119906190Y-57614761D02*
X119668095Y-58329047D01*
X120287142Y-58329047D01*
X120668095Y-58662380D02*
X120668095Y-57662380D01*
X120668095Y-58138571D02*
X121239523Y-58138571D01*
X121239523Y-58662380D02*
X121239523Y-57662380D01*
X122287142Y-58567142D02*
X122239523Y-58614761D01*
X122096666Y-58662380D01*
X122001428Y-58662380D01*
X121858571Y-58614761D01*
X121763333Y-58519523D01*
X121715714Y-58424285D01*
X121668095Y-58233809D01*
X121668095Y-58090952D01*
X121715714Y-57900476D01*
X121763333Y-57805238D01*
X121858571Y-57710000D01*
X122001428Y-57662380D01*
X122096666Y-57662380D01*
X122239523Y-57710000D01*
X122287142Y-57757619D01*
X123144285Y-57662380D02*
X122953809Y-57662380D01*
X122858571Y-57710000D01*
X122810952Y-57757619D01*
X122715714Y-57900476D01*
X122668095Y-58090952D01*
X122668095Y-58471904D01*
X122715714Y-58567142D01*
X122763333Y-58614761D01*
X122858571Y-58662380D01*
X123049047Y-58662380D01*
X123144285Y-58614761D01*
X123191904Y-58567142D01*
X123239523Y-58471904D01*
X123239523Y-58233809D01*
X123191904Y-58138571D01*
X123144285Y-58090952D01*
X123049047Y-58043333D01*
X122858571Y-58043333D01*
X122763333Y-58090952D01*
X122715714Y-58138571D01*
X122668095Y-58233809D01*
X123810952Y-58090952D02*
X123715714Y-58043333D01*
X123668095Y-57995714D01*
X123620476Y-57900476D01*
X123620476Y-57852857D01*
X123668095Y-57757619D01*
X123715714Y-57710000D01*
X123810952Y-57662380D01*
X124001428Y-57662380D01*
X124096666Y-57710000D01*
X124144285Y-57757619D01*
X124191904Y-57852857D01*
X124191904Y-57900476D01*
X124144285Y-57995714D01*
X124096666Y-58043333D01*
X124001428Y-58090952D01*
X123810952Y-58090952D01*
X123715714Y-58138571D01*
X123668095Y-58186190D01*
X123620476Y-58281428D01*
X123620476Y-58471904D01*
X123668095Y-58567142D01*
X123715714Y-58614761D01*
X123810952Y-58662380D01*
X124001428Y-58662380D01*
X124096666Y-58614761D01*
X124144285Y-58567142D01*
X124191904Y-58471904D01*
X124191904Y-58281428D01*
X124144285Y-58186190D01*
X124096666Y-58138571D01*
X124001428Y-58090952D01*
X124763333Y-58090952D02*
X124668095Y-58043333D01*
X124620476Y-57995714D01*
X124572857Y-57900476D01*
X124572857Y-57852857D01*
X124620476Y-57757619D01*
X124668095Y-57710000D01*
X124763333Y-57662380D01*
X124953809Y-57662380D01*
X125049047Y-57710000D01*
X125096666Y-57757619D01*
X125144285Y-57852857D01*
X125144285Y-57900476D01*
X125096666Y-57995714D01*
X125049047Y-58043333D01*
X124953809Y-58090952D01*
X124763333Y-58090952D01*
X124668095Y-58138571D01*
X124620476Y-58186190D01*
X124572857Y-58281428D01*
X124572857Y-58471904D01*
X124620476Y-58567142D01*
X124668095Y-58614761D01*
X124763333Y-58662380D01*
X124953809Y-58662380D01*
X125049047Y-58614761D01*
X125096666Y-58567142D01*
X125144285Y-58471904D01*
X125144285Y-58281428D01*
X125096666Y-58186190D01*
X125049047Y-58138571D01*
X124953809Y-58090952D01*
%TO.C,C9*%
X72263333Y-25757142D02*
X72215714Y-25804761D01*
X72072857Y-25852380D01*
X71977619Y-25852380D01*
X71834761Y-25804761D01*
X71739523Y-25709523D01*
X71691904Y-25614285D01*
X71644285Y-25423809D01*
X71644285Y-25280952D01*
X71691904Y-25090476D01*
X71739523Y-24995238D01*
X71834761Y-24900000D01*
X71977619Y-24852380D01*
X72072857Y-24852380D01*
X72215714Y-24900000D01*
X72263333Y-24947619D01*
X72739523Y-25852380D02*
X72930000Y-25852380D01*
X73025238Y-25804761D01*
X73072857Y-25757142D01*
X73168095Y-25614285D01*
X73215714Y-25423809D01*
X73215714Y-25042857D01*
X73168095Y-24947619D01*
X73120476Y-24900000D01*
X73025238Y-24852380D01*
X72834761Y-24852380D01*
X72739523Y-24900000D01*
X72691904Y-24947619D01*
X72644285Y-25042857D01*
X72644285Y-25280952D01*
X72691904Y-25376190D01*
X72739523Y-25423809D01*
X72834761Y-25471428D01*
X73025238Y-25471428D01*
X73120476Y-25423809D01*
X73168095Y-25376190D01*
X73215714Y-25280952D01*
%TO.C,D1*%
X24852380Y-51548095D02*
X23852380Y-51548095D01*
X23852380Y-51310000D01*
X23900000Y-51167142D01*
X23995238Y-51071904D01*
X24090476Y-51024285D01*
X24280952Y-50976666D01*
X24423809Y-50976666D01*
X24614285Y-51024285D01*
X24709523Y-51071904D01*
X24804761Y-51167142D01*
X24852380Y-51310000D01*
X24852380Y-51548095D01*
X24852380Y-50024285D02*
X24852380Y-50595714D01*
X24852380Y-50310000D02*
X23852380Y-50310000D01*
X23995238Y-50405238D01*
X24090476Y-50500476D01*
X24138095Y-50595714D01*
X29092380Y-52786190D02*
X28092380Y-52786190D01*
X28092380Y-52548095D01*
X28140000Y-52405238D01*
X28235238Y-52310000D01*
X28330476Y-52262380D01*
X28520952Y-52214761D01*
X28663809Y-52214761D01*
X28854285Y-52262380D01*
X28949523Y-52310000D01*
X29044761Y-52405238D01*
X29092380Y-52548095D01*
X29092380Y-52786190D01*
X29092380Y-51786190D02*
X28092380Y-51786190D01*
X28092380Y-51119523D02*
X28092380Y-50929047D01*
X28140000Y-50833809D01*
X28235238Y-50738571D01*
X28425714Y-50690952D01*
X28759047Y-50690952D01*
X28949523Y-50738571D01*
X29044761Y-50833809D01*
X29092380Y-50929047D01*
X29092380Y-51119523D01*
X29044761Y-51214761D01*
X28949523Y-51310000D01*
X28759047Y-51357619D01*
X28425714Y-51357619D01*
X28235238Y-51310000D01*
X28140000Y-51214761D01*
X28092380Y-51119523D01*
X29092380Y-50262380D02*
X28092380Y-50262380D01*
X28092380Y-50024285D01*
X28140000Y-49881428D01*
X28235238Y-49786190D01*
X28330476Y-49738571D01*
X28520952Y-49690952D01*
X28663809Y-49690952D01*
X28854285Y-49738571D01*
X28949523Y-49786190D01*
X29044761Y-49881428D01*
X29092380Y-50024285D01*
X29092380Y-50262380D01*
X28568571Y-49262380D02*
X28568571Y-48929047D01*
X29092380Y-48786190D02*
X29092380Y-49262380D01*
X28092380Y-49262380D01*
X28092380Y-48786190D01*
X25172380Y-54881904D02*
X24172380Y-54881904D01*
X25172380Y-54310476D02*
X24600952Y-54739047D01*
X24172380Y-54310476D02*
X24743809Y-54881904D01*
%TO.C,C5*%
X55753333Y-23217142D02*
X55705714Y-23264761D01*
X55562857Y-23312380D01*
X55467619Y-23312380D01*
X55324761Y-23264761D01*
X55229523Y-23169523D01*
X55181904Y-23074285D01*
X55134285Y-22883809D01*
X55134285Y-22740952D01*
X55181904Y-22550476D01*
X55229523Y-22455238D01*
X55324761Y-22360000D01*
X55467619Y-22312380D01*
X55562857Y-22312380D01*
X55705714Y-22360000D01*
X55753333Y-22407619D01*
X56658095Y-22312380D02*
X56181904Y-22312380D01*
X56134285Y-22788571D01*
X56181904Y-22740952D01*
X56277142Y-22693333D01*
X56515238Y-22693333D01*
X56610476Y-22740952D01*
X56658095Y-22788571D01*
X56705714Y-22883809D01*
X56705714Y-23121904D01*
X56658095Y-23217142D01*
X56610476Y-23264761D01*
X56515238Y-23312380D01*
X56277142Y-23312380D01*
X56181904Y-23264761D01*
X56134285Y-23217142D01*
%TO.C,C6*%
X70461142Y-62396666D02*
X70508761Y-62444285D01*
X70556380Y-62587142D01*
X70556380Y-62682380D01*
X70508761Y-62825238D01*
X70413523Y-62920476D01*
X70318285Y-62968095D01*
X70127809Y-63015714D01*
X69984952Y-63015714D01*
X69794476Y-62968095D01*
X69699238Y-62920476D01*
X69604000Y-62825238D01*
X69556380Y-62682380D01*
X69556380Y-62587142D01*
X69604000Y-62444285D01*
X69651619Y-62396666D01*
X69556380Y-61539523D02*
X69556380Y-61730000D01*
X69604000Y-61825238D01*
X69651619Y-61872857D01*
X69794476Y-61968095D01*
X69984952Y-62015714D01*
X70365904Y-62015714D01*
X70461142Y-61968095D01*
X70508761Y-61920476D01*
X70556380Y-61825238D01*
X70556380Y-61634761D01*
X70508761Y-61539523D01*
X70461142Y-61491904D01*
X70365904Y-61444285D01*
X70127809Y-61444285D01*
X70032571Y-61491904D01*
X69984952Y-61539523D01*
X69937333Y-61634761D01*
X69937333Y-61825238D01*
X69984952Y-61920476D01*
X70032571Y-61968095D01*
X70127809Y-62015714D01*
%TO.C,U1*%
X71638095Y-30142380D02*
X71638095Y-30951904D01*
X71685714Y-31047142D01*
X71733333Y-31094761D01*
X71828571Y-31142380D01*
X72019047Y-31142380D01*
X72114285Y-31094761D01*
X72161904Y-31047142D01*
X72209523Y-30951904D01*
X72209523Y-30142380D01*
X73209523Y-31142380D02*
X72638095Y-31142380D01*
X72923809Y-31142380D02*
X72923809Y-30142380D01*
X72828571Y-30285238D01*
X72733333Y-30380476D01*
X72638095Y-30428095D01*
X69614285Y-50042380D02*
X70280952Y-50042380D01*
X69852380Y-51042380D01*
X71090476Y-50375714D02*
X71090476Y-51042380D01*
X70852380Y-49994761D02*
X70614285Y-50709047D01*
X71233333Y-50709047D01*
X71614285Y-51042380D02*
X71614285Y-50042380D01*
X71614285Y-50518571D02*
X72185714Y-50518571D01*
X72185714Y-51042380D02*
X72185714Y-50042380D01*
X73233333Y-50947142D02*
X73185714Y-50994761D01*
X73042857Y-51042380D01*
X72947619Y-51042380D01*
X72804761Y-50994761D01*
X72709523Y-50899523D01*
X72661904Y-50804285D01*
X72614285Y-50613809D01*
X72614285Y-50470952D01*
X72661904Y-50280476D01*
X72709523Y-50185238D01*
X72804761Y-50090000D01*
X72947619Y-50042380D01*
X73042857Y-50042380D01*
X73185714Y-50090000D01*
X73233333Y-50137619D01*
X73852380Y-50042380D02*
X73947619Y-50042380D01*
X74042857Y-50090000D01*
X74090476Y-50137619D01*
X74138095Y-50232857D01*
X74185714Y-50423333D01*
X74185714Y-50661428D01*
X74138095Y-50851904D01*
X74090476Y-50947142D01*
X74042857Y-50994761D01*
X73947619Y-51042380D01*
X73852380Y-51042380D01*
X73757142Y-50994761D01*
X73709523Y-50947142D01*
X73661904Y-50851904D01*
X73614285Y-50661428D01*
X73614285Y-50423333D01*
X73661904Y-50232857D01*
X73709523Y-50137619D01*
X73757142Y-50090000D01*
X73852380Y-50042380D01*
X75042857Y-50375714D02*
X75042857Y-51042380D01*
X74804761Y-49994761D02*
X74566666Y-50709047D01*
X75185714Y-50709047D01*
%TO.C,C7*%
X24741142Y-62534666D02*
X24788761Y-62582285D01*
X24836380Y-62725142D01*
X24836380Y-62820380D01*
X24788761Y-62963238D01*
X24693523Y-63058476D01*
X24598285Y-63106095D01*
X24407809Y-63153714D01*
X24264952Y-63153714D01*
X24074476Y-63106095D01*
X23979238Y-63058476D01*
X23884000Y-62963238D01*
X23836380Y-62820380D01*
X23836380Y-62725142D01*
X23884000Y-62582285D01*
X23931619Y-62534666D01*
X23836380Y-62201333D02*
X23836380Y-61534666D01*
X24836380Y-61963238D01*
%TO.C,U8*%
X38618095Y-27592380D02*
X38618095Y-28401904D01*
X38665714Y-28497142D01*
X38713333Y-28544761D01*
X38808571Y-28592380D01*
X38999047Y-28592380D01*
X39094285Y-28544761D01*
X39141904Y-28497142D01*
X39189523Y-28401904D01*
X39189523Y-27592380D01*
X39808571Y-28020952D02*
X39713333Y-27973333D01*
X39665714Y-27925714D01*
X39618095Y-27830476D01*
X39618095Y-27782857D01*
X39665714Y-27687619D01*
X39713333Y-27640000D01*
X39808571Y-27592380D01*
X39999047Y-27592380D01*
X40094285Y-27640000D01*
X40141904Y-27687619D01*
X40189523Y-27782857D01*
X40189523Y-27830476D01*
X40141904Y-27925714D01*
X40094285Y-27973333D01*
X39999047Y-28020952D01*
X39808571Y-28020952D01*
X39713333Y-28068571D01*
X39665714Y-28116190D01*
X39618095Y-28211428D01*
X39618095Y-28401904D01*
X39665714Y-28497142D01*
X39713333Y-28544761D01*
X39808571Y-28592380D01*
X39999047Y-28592380D01*
X40094285Y-28544761D01*
X40141904Y-28497142D01*
X40189523Y-28401904D01*
X40189523Y-28211428D01*
X40141904Y-28116190D01*
X40094285Y-28068571D01*
X39999047Y-28020952D01*
X35713333Y-50032380D02*
X36380000Y-50032380D01*
X35951428Y-51032380D01*
X37189523Y-50365714D02*
X37189523Y-51032380D01*
X36951428Y-49984761D02*
X36713333Y-50699047D01*
X37332380Y-50699047D01*
X38189523Y-51032380D02*
X37713333Y-51032380D01*
X37713333Y-50032380D01*
X38522857Y-51032380D02*
X38522857Y-50032380D01*
X38522857Y-50508571D02*
X39094285Y-50508571D01*
X39094285Y-51032380D02*
X39094285Y-50032380D01*
X40141904Y-50937142D02*
X40094285Y-50984761D01*
X39951428Y-51032380D01*
X39856190Y-51032380D01*
X39713333Y-50984761D01*
X39618095Y-50889523D01*
X39570476Y-50794285D01*
X39522857Y-50603809D01*
X39522857Y-50460952D01*
X39570476Y-50270476D01*
X39618095Y-50175238D01*
X39713333Y-50080000D01*
X39856190Y-50032380D01*
X39951428Y-50032380D01*
X40094285Y-50080000D01*
X40141904Y-50127619D01*
X41094285Y-51032380D02*
X40522857Y-51032380D01*
X40808571Y-51032380D02*
X40808571Y-50032380D01*
X40713333Y-50175238D01*
X40618095Y-50270476D01*
X40522857Y-50318095D01*
X41999047Y-50032380D02*
X41522857Y-50032380D01*
X41475238Y-50508571D01*
X41522857Y-50460952D01*
X41618095Y-50413333D01*
X41856190Y-50413333D01*
X41951428Y-50460952D01*
X41999047Y-50508571D01*
X42046666Y-50603809D01*
X42046666Y-50841904D01*
X41999047Y-50937142D01*
X41951428Y-50984761D01*
X41856190Y-51032380D01*
X41618095Y-51032380D01*
X41522857Y-50984761D01*
X41475238Y-50937142D01*
X42380000Y-50032380D02*
X43046666Y-50032380D01*
X42618095Y-51032380D01*
%TO.C,C3*%
X26483333Y-75967142D02*
X26435714Y-76014761D01*
X26292857Y-76062380D01*
X26197619Y-76062380D01*
X26054761Y-76014761D01*
X25959523Y-75919523D01*
X25911904Y-75824285D01*
X25864285Y-75633809D01*
X25864285Y-75490952D01*
X25911904Y-75300476D01*
X25959523Y-75205238D01*
X26054761Y-75110000D01*
X26197619Y-75062380D01*
X26292857Y-75062380D01*
X26435714Y-75110000D01*
X26483333Y-75157619D01*
X26816666Y-75062380D02*
X27435714Y-75062380D01*
X27102380Y-75443333D01*
X27245238Y-75443333D01*
X27340476Y-75490952D01*
X27388095Y-75538571D01*
X27435714Y-75633809D01*
X27435714Y-75871904D01*
X27388095Y-75967142D01*
X27340476Y-76014761D01*
X27245238Y-76062380D01*
X26959523Y-76062380D01*
X26864285Y-76014761D01*
X26816666Y-75967142D01*
X24550952Y-84383619D02*
X24598571Y-84336000D01*
X24693809Y-84288380D01*
X24931904Y-84288380D01*
X25027142Y-84336000D01*
X25074761Y-84383619D01*
X25122380Y-84478857D01*
X25122380Y-84574095D01*
X25074761Y-84716952D01*
X24503333Y-85288380D01*
X25122380Y-85288380D01*
X25503333Y-84383619D02*
X25550952Y-84336000D01*
X25646190Y-84288380D01*
X25884285Y-84288380D01*
X25979523Y-84336000D01*
X26027142Y-84383619D01*
X26074761Y-84478857D01*
X26074761Y-84574095D01*
X26027142Y-84716952D01*
X25455714Y-85288380D01*
X26074761Y-85288380D01*
X26693809Y-84288380D02*
X26789047Y-84288380D01*
X26884285Y-84336000D01*
X26931904Y-84383619D01*
X26979523Y-84478857D01*
X27027142Y-84669333D01*
X27027142Y-84907428D01*
X26979523Y-85097904D01*
X26931904Y-85193142D01*
X26884285Y-85240761D01*
X26789047Y-85288380D01*
X26693809Y-85288380D01*
X26598571Y-85240761D01*
X26550952Y-85193142D01*
X26503333Y-85097904D01*
X26455714Y-84907428D01*
X26455714Y-84669333D01*
X26503333Y-84478857D01*
X26550952Y-84383619D01*
X26598571Y-84336000D01*
X26693809Y-84288380D01*
X27884285Y-84621714D02*
X27884285Y-85288380D01*
X27455714Y-84621714D02*
X27455714Y-85145523D01*
X27503333Y-85240761D01*
X27598571Y-85288380D01*
X27741428Y-85288380D01*
X27836666Y-85240761D01*
X27884285Y-85193142D01*
X28693809Y-84764571D02*
X28360476Y-84764571D01*
X28360476Y-85288380D02*
X28360476Y-84288380D01*
X28836666Y-84288380D01*
%TO.C,C4*%
X105243333Y-26011142D02*
X105195714Y-26058761D01*
X105052857Y-26106380D01*
X104957619Y-26106380D01*
X104814761Y-26058761D01*
X104719523Y-25963523D01*
X104671904Y-25868285D01*
X104624285Y-25677809D01*
X104624285Y-25534952D01*
X104671904Y-25344476D01*
X104719523Y-25249238D01*
X104814761Y-25154000D01*
X104957619Y-25106380D01*
X105052857Y-25106380D01*
X105195714Y-25154000D01*
X105243333Y-25201619D01*
X106100476Y-25439714D02*
X106100476Y-26106380D01*
X105862380Y-25058761D02*
X105624285Y-25773047D01*
X106243333Y-25773047D01*
%TO.C,C2*%
X39203333Y-23217142D02*
X39155714Y-23264761D01*
X39012857Y-23312380D01*
X38917619Y-23312380D01*
X38774761Y-23264761D01*
X38679523Y-23169523D01*
X38631904Y-23074285D01*
X38584285Y-22883809D01*
X38584285Y-22740952D01*
X38631904Y-22550476D01*
X38679523Y-22455238D01*
X38774761Y-22360000D01*
X38917619Y-22312380D01*
X39012857Y-22312380D01*
X39155714Y-22360000D01*
X39203333Y-22407619D01*
X39584285Y-22407619D02*
X39631904Y-22360000D01*
X39727142Y-22312380D01*
X39965238Y-22312380D01*
X40060476Y-22360000D01*
X40108095Y-22407619D01*
X40155714Y-22502857D01*
X40155714Y-22598095D01*
X40108095Y-22740952D01*
X39536666Y-23312380D01*
X40155714Y-23312380D01*
%TO.C,U4*%
X28872380Y-63134904D02*
X29681904Y-63134904D01*
X29777142Y-63087285D01*
X29824761Y-63039666D01*
X29872380Y-62944428D01*
X29872380Y-62753952D01*
X29824761Y-62658714D01*
X29777142Y-62611095D01*
X29681904Y-62563476D01*
X28872380Y-62563476D01*
X29205714Y-61658714D02*
X29872380Y-61658714D01*
X28824761Y-61896809D02*
X29539047Y-62134904D01*
X29539047Y-61515857D01*
X67667142Y-67444428D02*
X67714761Y-67492047D01*
X67762380Y-67634904D01*
X67762380Y-67730142D01*
X67714761Y-67873000D01*
X67619523Y-67968238D01*
X67524285Y-68015857D01*
X67333809Y-68063476D01*
X67190952Y-68063476D01*
X67000476Y-68015857D01*
X66905238Y-67968238D01*
X66810000Y-67873000D01*
X66762380Y-67730142D01*
X66762380Y-67634904D01*
X66810000Y-67492047D01*
X66857619Y-67444428D01*
X67286190Y-66825380D02*
X67762380Y-66825380D01*
X66762380Y-67158714D02*
X67286190Y-66825380D01*
X66762380Y-66492047D01*
X66762380Y-65730142D02*
X66762380Y-65920619D01*
X66810000Y-66015857D01*
X66857619Y-66063476D01*
X67000476Y-66158714D01*
X67190952Y-66206333D01*
X67571904Y-66206333D01*
X67667142Y-66158714D01*
X67714761Y-66111095D01*
X67762380Y-66015857D01*
X67762380Y-65825380D01*
X67714761Y-65730142D01*
X67667142Y-65682523D01*
X67571904Y-65634904D01*
X67333809Y-65634904D01*
X67238571Y-65682523D01*
X67190952Y-65730142D01*
X67143333Y-65825380D01*
X67143333Y-66015857D01*
X67190952Y-66111095D01*
X67238571Y-66158714D01*
X67333809Y-66206333D01*
X66857619Y-65253952D02*
X66810000Y-65206333D01*
X66762380Y-65111095D01*
X66762380Y-64873000D01*
X66810000Y-64777761D01*
X66857619Y-64730142D01*
X66952857Y-64682523D01*
X67048095Y-64682523D01*
X67190952Y-64730142D01*
X67762380Y-65301571D01*
X67762380Y-64682523D01*
X66857619Y-64301571D02*
X66810000Y-64253952D01*
X66762380Y-64158714D01*
X66762380Y-63920619D01*
X66810000Y-63825380D01*
X66857619Y-63777761D01*
X66952857Y-63730142D01*
X67048095Y-63730142D01*
X67190952Y-63777761D01*
X67762380Y-64349190D01*
X67762380Y-63730142D01*
X66762380Y-62825380D02*
X66762380Y-63301571D01*
X67238571Y-63349190D01*
X67190952Y-63301571D01*
X67143333Y-63206333D01*
X67143333Y-62968238D01*
X67190952Y-62873000D01*
X67238571Y-62825380D01*
X67333809Y-62777761D01*
X67571904Y-62777761D01*
X67667142Y-62825380D01*
X67714761Y-62873000D01*
X67762380Y-62968238D01*
X67762380Y-63206333D01*
X67714761Y-63301571D01*
X67667142Y-63349190D01*
X66762380Y-61920619D02*
X66762380Y-62111095D01*
X66810000Y-62206333D01*
X66857619Y-62253952D01*
X67000476Y-62349190D01*
X67190952Y-62396809D01*
X67571904Y-62396809D01*
X67667142Y-62349190D01*
X67714761Y-62301571D01*
X67762380Y-62206333D01*
X67762380Y-62015857D01*
X67714761Y-61920619D01*
X67667142Y-61873000D01*
X67571904Y-61825380D01*
X67333809Y-61825380D01*
X67238571Y-61873000D01*
X67190952Y-61920619D01*
X67143333Y-62015857D01*
X67143333Y-62206333D01*
X67190952Y-62301571D01*
X67238571Y-62349190D01*
X67333809Y-62396809D01*
X67381428Y-61396809D02*
X67381428Y-60634904D01*
X66762380Y-60253952D02*
X66762380Y-59587285D01*
X67762380Y-60015857D01*
X66762380Y-59015857D02*
X66762380Y-58920619D01*
X66810000Y-58825380D01*
X66857619Y-58777761D01*
X66952857Y-58730142D01*
X67143333Y-58682523D01*
X67381428Y-58682523D01*
X67571904Y-58730142D01*
X67667142Y-58777761D01*
X67714761Y-58825380D01*
X67762380Y-58920619D01*
X67762380Y-59015857D01*
X67714761Y-59111095D01*
X67667142Y-59158714D01*
X67571904Y-59206333D01*
X67381428Y-59253952D01*
X67143333Y-59253952D01*
X66952857Y-59206333D01*
X66857619Y-59158714D01*
X66810000Y-59111095D01*
X66762380Y-59015857D01*
X67762380Y-58253952D02*
X66762380Y-58253952D01*
X66762380Y-57873000D01*
X66810000Y-57777761D01*
X66857619Y-57730142D01*
X66952857Y-57682523D01*
X67095714Y-57682523D01*
X67190952Y-57730142D01*
X67238571Y-57777761D01*
X67286190Y-57873000D01*
X67286190Y-58253952D01*
X67667142Y-56682523D02*
X67714761Y-56730142D01*
X67762380Y-56873000D01*
X67762380Y-56968238D01*
X67714761Y-57111095D01*
X67619523Y-57206333D01*
X67524285Y-57253952D01*
X67333809Y-57301571D01*
X67190952Y-57301571D01*
X67000476Y-57253952D01*
X66905238Y-57206333D01*
X66810000Y-57111095D01*
X66762380Y-56968238D01*
X66762380Y-56873000D01*
X66810000Y-56730142D01*
X66857619Y-56682523D01*
%TO.C,J2*%
X26186666Y-44420380D02*
X26186666Y-45134666D01*
X26139047Y-45277523D01*
X26043809Y-45372761D01*
X25900952Y-45420380D01*
X25805714Y-45420380D01*
X26615238Y-44515619D02*
X26662857Y-44468000D01*
X26758095Y-44420380D01*
X26996190Y-44420380D01*
X27091428Y-44468000D01*
X27139047Y-44515619D01*
X27186666Y-44610857D01*
X27186666Y-44706095D01*
X27139047Y-44848952D01*
X26567619Y-45420380D01*
X27186666Y-45420380D01*
%TO.C,U6*%
X88148095Y-30137380D02*
X88148095Y-30946904D01*
X88195714Y-31042142D01*
X88243333Y-31089761D01*
X88338571Y-31137380D01*
X88529047Y-31137380D01*
X88624285Y-31089761D01*
X88671904Y-31042142D01*
X88719523Y-30946904D01*
X88719523Y-30137380D01*
X89624285Y-30137380D02*
X89433809Y-30137380D01*
X89338571Y-30185000D01*
X89290952Y-30232619D01*
X89195714Y-30375476D01*
X89148095Y-30565952D01*
X89148095Y-30946904D01*
X89195714Y-31042142D01*
X89243333Y-31089761D01*
X89338571Y-31137380D01*
X89529047Y-31137380D01*
X89624285Y-31089761D01*
X89671904Y-31042142D01*
X89719523Y-30946904D01*
X89719523Y-30708809D01*
X89671904Y-30613571D01*
X89624285Y-30565952D01*
X89529047Y-30518333D01*
X89338571Y-30518333D01*
X89243333Y-30565952D01*
X89195714Y-30613571D01*
X89148095Y-30708809D01*
X86124285Y-50037380D02*
X86790952Y-50037380D01*
X86362380Y-51037380D01*
X87600476Y-50370714D02*
X87600476Y-51037380D01*
X87362380Y-49989761D02*
X87124285Y-50704047D01*
X87743333Y-50704047D01*
X88124285Y-51037380D02*
X88124285Y-50037380D01*
X88124285Y-50513571D02*
X88695714Y-50513571D01*
X88695714Y-51037380D02*
X88695714Y-50037380D01*
X89743333Y-50942142D02*
X89695714Y-50989761D01*
X89552857Y-51037380D01*
X89457619Y-51037380D01*
X89314761Y-50989761D01*
X89219523Y-50894523D01*
X89171904Y-50799285D01*
X89124285Y-50608809D01*
X89124285Y-50465952D01*
X89171904Y-50275476D01*
X89219523Y-50180238D01*
X89314761Y-50085000D01*
X89457619Y-50037380D01*
X89552857Y-50037380D01*
X89695714Y-50085000D01*
X89743333Y-50132619D01*
X90076666Y-50037380D02*
X90695714Y-50037380D01*
X90362380Y-50418333D01*
X90505238Y-50418333D01*
X90600476Y-50465952D01*
X90648095Y-50513571D01*
X90695714Y-50608809D01*
X90695714Y-50846904D01*
X90648095Y-50942142D01*
X90600476Y-50989761D01*
X90505238Y-51037380D01*
X90219523Y-51037380D01*
X90124285Y-50989761D01*
X90076666Y-50942142D01*
X91076666Y-50132619D02*
X91124285Y-50085000D01*
X91219523Y-50037380D01*
X91457619Y-50037380D01*
X91552857Y-50085000D01*
X91600476Y-50132619D01*
X91648095Y-50227857D01*
X91648095Y-50323095D01*
X91600476Y-50465952D01*
X91029047Y-51037380D01*
X91648095Y-51037380D01*
%TO.C,U7*%
X55128095Y-27592380D02*
X55128095Y-28401904D01*
X55175714Y-28497142D01*
X55223333Y-28544761D01*
X55318571Y-28592380D01*
X55509047Y-28592380D01*
X55604285Y-28544761D01*
X55651904Y-28497142D01*
X55699523Y-28401904D01*
X55699523Y-27592380D01*
X56080476Y-27592380D02*
X56747142Y-27592380D01*
X56318571Y-28592380D01*
X52628095Y-50032380D02*
X53294761Y-50032380D01*
X52866190Y-51032380D01*
X54104285Y-50365714D02*
X54104285Y-51032380D01*
X53866190Y-49984761D02*
X53628095Y-50699047D01*
X54247142Y-50699047D01*
X54628095Y-51032380D02*
X54628095Y-50032380D01*
X54628095Y-50508571D02*
X55199523Y-50508571D01*
X55199523Y-51032380D02*
X55199523Y-50032380D01*
X56247142Y-50937142D02*
X56199523Y-50984761D01*
X56056666Y-51032380D01*
X55961428Y-51032380D01*
X55818571Y-50984761D01*
X55723333Y-50889523D01*
X55675714Y-50794285D01*
X55628095Y-50603809D01*
X55628095Y-50460952D01*
X55675714Y-50270476D01*
X55723333Y-50175238D01*
X55818571Y-50080000D01*
X55961428Y-50032380D01*
X56056666Y-50032380D01*
X56199523Y-50080000D01*
X56247142Y-50127619D01*
X57199523Y-51032380D02*
X56628095Y-51032380D01*
X56913809Y-51032380D02*
X56913809Y-50032380D01*
X56818571Y-50175238D01*
X56723333Y-50270476D01*
X56628095Y-50318095D01*
X57532857Y-50032380D02*
X58199523Y-50032380D01*
X57770952Y-51032380D01*
X58485238Y-50032380D02*
X59104285Y-50032380D01*
X58770952Y-50413333D01*
X58913809Y-50413333D01*
X59009047Y-50460952D01*
X59056666Y-50508571D01*
X59104285Y-50603809D01*
X59104285Y-50841904D01*
X59056666Y-50937142D01*
X59009047Y-50984761D01*
X58913809Y-51032380D01*
X58628095Y-51032380D01*
X58532857Y-50984761D01*
X58485238Y-50937142D01*
%TO.C,C8*%
X121753333Y-25752142D02*
X121705714Y-25799761D01*
X121562857Y-25847380D01*
X121467619Y-25847380D01*
X121324761Y-25799761D01*
X121229523Y-25704523D01*
X121181904Y-25609285D01*
X121134285Y-25418809D01*
X121134285Y-25275952D01*
X121181904Y-25085476D01*
X121229523Y-24990238D01*
X121324761Y-24895000D01*
X121467619Y-24847380D01*
X121562857Y-24847380D01*
X121705714Y-24895000D01*
X121753333Y-24942619D01*
X122324761Y-25275952D02*
X122229523Y-25228333D01*
X122181904Y-25180714D01*
X122134285Y-25085476D01*
X122134285Y-25037857D01*
X122181904Y-24942619D01*
X122229523Y-24895000D01*
X122324761Y-24847380D01*
X122515238Y-24847380D01*
X122610476Y-24895000D01*
X122658095Y-24942619D01*
X122705714Y-25037857D01*
X122705714Y-25085476D01*
X122658095Y-25180714D01*
X122610476Y-25228333D01*
X122515238Y-25275952D01*
X122324761Y-25275952D01*
X122229523Y-25323571D01*
X122181904Y-25371190D01*
X122134285Y-25466428D01*
X122134285Y-25656904D01*
X122181904Y-25752142D01*
X122229523Y-25799761D01*
X122324761Y-25847380D01*
X122515238Y-25847380D01*
X122610476Y-25799761D01*
X122658095Y-25752142D01*
X122705714Y-25656904D01*
X122705714Y-25466428D01*
X122658095Y-25371190D01*
X122610476Y-25323571D01*
X122515238Y-25275952D01*
%TO.C,U2*%
X74617380Y-62996904D02*
X75426904Y-62996904D01*
X75522142Y-62949285D01*
X75569761Y-62901666D01*
X75617380Y-62806428D01*
X75617380Y-62615952D01*
X75569761Y-62520714D01*
X75522142Y-62473095D01*
X75426904Y-62425476D01*
X74617380Y-62425476D01*
X74712619Y-61996904D02*
X74665000Y-61949285D01*
X74617380Y-61854047D01*
X74617380Y-61615952D01*
X74665000Y-61520714D01*
X74712619Y-61473095D01*
X74807857Y-61425476D01*
X74903095Y-61425476D01*
X75045952Y-61473095D01*
X75617380Y-62044523D01*
X75617380Y-61425476D01*
X113387142Y-67306428D02*
X113434761Y-67354047D01*
X113482380Y-67496904D01*
X113482380Y-67592142D01*
X113434761Y-67735000D01*
X113339523Y-67830238D01*
X113244285Y-67877857D01*
X113053809Y-67925476D01*
X112910952Y-67925476D01*
X112720476Y-67877857D01*
X112625238Y-67830238D01*
X112530000Y-67735000D01*
X112482380Y-67592142D01*
X112482380Y-67496904D01*
X112530000Y-67354047D01*
X112577619Y-67306428D01*
X113006190Y-66687380D02*
X113482380Y-66687380D01*
X112482380Y-67020714D02*
X113006190Y-66687380D01*
X112482380Y-66354047D01*
X112482380Y-65592142D02*
X112482380Y-65782619D01*
X112530000Y-65877857D01*
X112577619Y-65925476D01*
X112720476Y-66020714D01*
X112910952Y-66068333D01*
X113291904Y-66068333D01*
X113387142Y-66020714D01*
X113434761Y-65973095D01*
X113482380Y-65877857D01*
X113482380Y-65687380D01*
X113434761Y-65592142D01*
X113387142Y-65544523D01*
X113291904Y-65496904D01*
X113053809Y-65496904D01*
X112958571Y-65544523D01*
X112910952Y-65592142D01*
X112863333Y-65687380D01*
X112863333Y-65877857D01*
X112910952Y-65973095D01*
X112958571Y-66020714D01*
X113053809Y-66068333D01*
X112577619Y-65115952D02*
X112530000Y-65068333D01*
X112482380Y-64973095D01*
X112482380Y-64735000D01*
X112530000Y-64639761D01*
X112577619Y-64592142D01*
X112672857Y-64544523D01*
X112768095Y-64544523D01*
X112910952Y-64592142D01*
X113482380Y-65163571D01*
X113482380Y-64544523D01*
X112577619Y-64163571D02*
X112530000Y-64115952D01*
X112482380Y-64020714D01*
X112482380Y-63782619D01*
X112530000Y-63687380D01*
X112577619Y-63639761D01*
X112672857Y-63592142D01*
X112768095Y-63592142D01*
X112910952Y-63639761D01*
X113482380Y-64211190D01*
X113482380Y-63592142D01*
X112482380Y-62687380D02*
X112482380Y-63163571D01*
X112958571Y-63211190D01*
X112910952Y-63163571D01*
X112863333Y-63068333D01*
X112863333Y-62830238D01*
X112910952Y-62735000D01*
X112958571Y-62687380D01*
X113053809Y-62639761D01*
X113291904Y-62639761D01*
X113387142Y-62687380D01*
X113434761Y-62735000D01*
X113482380Y-62830238D01*
X113482380Y-63068333D01*
X113434761Y-63163571D01*
X113387142Y-63211190D01*
X112482380Y-61782619D02*
X112482380Y-61973095D01*
X112530000Y-62068333D01*
X112577619Y-62115952D01*
X112720476Y-62211190D01*
X112910952Y-62258809D01*
X113291904Y-62258809D01*
X113387142Y-62211190D01*
X113434761Y-62163571D01*
X113482380Y-62068333D01*
X113482380Y-61877857D01*
X113434761Y-61782619D01*
X113387142Y-61735000D01*
X113291904Y-61687380D01*
X113053809Y-61687380D01*
X112958571Y-61735000D01*
X112910952Y-61782619D01*
X112863333Y-61877857D01*
X112863333Y-62068333D01*
X112910952Y-62163571D01*
X112958571Y-62211190D01*
X113053809Y-62258809D01*
X113101428Y-61258809D02*
X113101428Y-60496904D01*
X112482380Y-60115952D02*
X112482380Y-59449285D01*
X113482380Y-59877857D01*
X112482380Y-58877857D02*
X112482380Y-58782619D01*
X112530000Y-58687380D01*
X112577619Y-58639761D01*
X112672857Y-58592142D01*
X112863333Y-58544523D01*
X113101428Y-58544523D01*
X113291904Y-58592142D01*
X113387142Y-58639761D01*
X113434761Y-58687380D01*
X113482380Y-58782619D01*
X113482380Y-58877857D01*
X113434761Y-58973095D01*
X113387142Y-59020714D01*
X113291904Y-59068333D01*
X113101428Y-59115952D01*
X112863333Y-59115952D01*
X112672857Y-59068333D01*
X112577619Y-59020714D01*
X112530000Y-58973095D01*
X112482380Y-58877857D01*
X113482380Y-58115952D02*
X112482380Y-58115952D01*
X112482380Y-57735000D01*
X112530000Y-57639761D01*
X112577619Y-57592142D01*
X112672857Y-57544523D01*
X112815714Y-57544523D01*
X112910952Y-57592142D01*
X112958571Y-57639761D01*
X113006190Y-57735000D01*
X113006190Y-58115952D01*
X113387142Y-56544523D02*
X113434761Y-56592142D01*
X113482380Y-56735000D01*
X113482380Y-56830238D01*
X113434761Y-56973095D01*
X113339523Y-57068333D01*
X113244285Y-57115952D01*
X113053809Y-57163571D01*
X112910952Y-57163571D01*
X112720476Y-57115952D01*
X112625238Y-57068333D01*
X112530000Y-56973095D01*
X112482380Y-56830238D01*
X112482380Y-56735000D01*
X112530000Y-56592142D01*
X112577619Y-56544523D01*
%TO.C,J3*%
X26186666Y-34514380D02*
X26186666Y-35228666D01*
X26139047Y-35371523D01*
X26043809Y-35466761D01*
X25900952Y-35514380D01*
X25805714Y-35514380D01*
X26567619Y-34514380D02*
X27186666Y-34514380D01*
X26853333Y-34895333D01*
X26996190Y-34895333D01*
X27091428Y-34942952D01*
X27139047Y-34990571D01*
X27186666Y-35085809D01*
X27186666Y-35323904D01*
X27139047Y-35419142D01*
X27091428Y-35466761D01*
X26996190Y-35514380D01*
X26710476Y-35514380D01*
X26615238Y-35466761D01*
X26567619Y-35419142D01*
%TO.C,U3*%
X104658095Y-30137380D02*
X104658095Y-30946904D01*
X104705714Y-31042142D01*
X104753333Y-31089761D01*
X104848571Y-31137380D01*
X105039047Y-31137380D01*
X105134285Y-31089761D01*
X105181904Y-31042142D01*
X105229523Y-30946904D01*
X105229523Y-30137380D01*
X105610476Y-30137380D02*
X106229523Y-30137380D01*
X105896190Y-30518333D01*
X106039047Y-30518333D01*
X106134285Y-30565952D01*
X106181904Y-30613571D01*
X106229523Y-30708809D01*
X106229523Y-30946904D01*
X106181904Y-31042142D01*
X106134285Y-31089761D01*
X106039047Y-31137380D01*
X105753333Y-31137380D01*
X105658095Y-31089761D01*
X105610476Y-31042142D01*
X102634285Y-50037380D02*
X103300952Y-50037380D01*
X102872380Y-51037380D01*
X104110476Y-50370714D02*
X104110476Y-51037380D01*
X103872380Y-49989761D02*
X103634285Y-50704047D01*
X104253333Y-50704047D01*
X104634285Y-51037380D02*
X104634285Y-50037380D01*
X104634285Y-50513571D02*
X105205714Y-50513571D01*
X105205714Y-51037380D02*
X105205714Y-50037380D01*
X106253333Y-50942142D02*
X106205714Y-50989761D01*
X106062857Y-51037380D01*
X105967619Y-51037380D01*
X105824761Y-50989761D01*
X105729523Y-50894523D01*
X105681904Y-50799285D01*
X105634285Y-50608809D01*
X105634285Y-50465952D01*
X105681904Y-50275476D01*
X105729523Y-50180238D01*
X105824761Y-50085000D01*
X105967619Y-50037380D01*
X106062857Y-50037380D01*
X106205714Y-50085000D01*
X106253333Y-50132619D01*
X106872380Y-50037380D02*
X106967619Y-50037380D01*
X107062857Y-50085000D01*
X107110476Y-50132619D01*
X107158095Y-50227857D01*
X107205714Y-50418333D01*
X107205714Y-50656428D01*
X107158095Y-50846904D01*
X107110476Y-50942142D01*
X107062857Y-50989761D01*
X106967619Y-51037380D01*
X106872380Y-51037380D01*
X106777142Y-50989761D01*
X106729523Y-50942142D01*
X106681904Y-50846904D01*
X106634285Y-50656428D01*
X106634285Y-50418333D01*
X106681904Y-50227857D01*
X106729523Y-50132619D01*
X106777142Y-50085000D01*
X106872380Y-50037380D01*
X107824761Y-50037380D02*
X107920000Y-50037380D01*
X108015238Y-50085000D01*
X108062857Y-50132619D01*
X108110476Y-50227857D01*
X108158095Y-50418333D01*
X108158095Y-50656428D01*
X108110476Y-50846904D01*
X108062857Y-50942142D01*
X108015238Y-50989761D01*
X107920000Y-51037380D01*
X107824761Y-51037380D01*
X107729523Y-50989761D01*
X107681904Y-50942142D01*
X107634285Y-50846904D01*
X107586666Y-50656428D01*
X107586666Y-50418333D01*
X107634285Y-50227857D01*
X107681904Y-50132619D01*
X107729523Y-50085000D01*
X107824761Y-50037380D01*
%TO.C,J1*%
X101730380Y-77295333D02*
X102444666Y-77295333D01*
X102587523Y-77342952D01*
X102682761Y-77438190D01*
X102730380Y-77581047D01*
X102730380Y-77676285D01*
X102730380Y-76295333D02*
X102730380Y-76866761D01*
X102730380Y-76581047D02*
X101730380Y-76581047D01*
X101873238Y-76676285D01*
X101968476Y-76771523D01*
X102016095Y-76866761D01*
X43807904Y-83494571D02*
X44141238Y-83494571D01*
X44284095Y-84018380D02*
X43807904Y-84018380D01*
X43807904Y-83018380D01*
X44284095Y-83018380D01*
X44617428Y-83018380D02*
X45284095Y-84018380D01*
X45284095Y-83018380D02*
X44617428Y-84018380D01*
X45665047Y-84018380D02*
X45665047Y-83018380D01*
X46046000Y-83018380D01*
X46141238Y-83066000D01*
X46188857Y-83113619D01*
X46236476Y-83208857D01*
X46236476Y-83351714D01*
X46188857Y-83446952D01*
X46141238Y-83494571D01*
X46046000Y-83542190D01*
X45665047Y-83542190D01*
X46617428Y-83732666D02*
X47093619Y-83732666D01*
X46522190Y-84018380D02*
X46855523Y-83018380D01*
X47188857Y-84018380D01*
X47522190Y-84018380D02*
X47522190Y-83018380D01*
X48093619Y-84018380D01*
X48093619Y-83018380D01*
X48522190Y-83970761D02*
X48665047Y-84018380D01*
X48903142Y-84018380D01*
X48998380Y-83970761D01*
X49046000Y-83923142D01*
X49093619Y-83827904D01*
X49093619Y-83732666D01*
X49046000Y-83637428D01*
X48998380Y-83589809D01*
X48903142Y-83542190D01*
X48712666Y-83494571D01*
X48617428Y-83446952D01*
X48569809Y-83399333D01*
X48522190Y-83304095D01*
X48522190Y-83208857D01*
X48569809Y-83113619D01*
X48617428Y-83066000D01*
X48712666Y-83018380D01*
X48950761Y-83018380D01*
X49093619Y-83066000D01*
X49522190Y-84018380D02*
X49522190Y-83018380D01*
X50188857Y-83018380D02*
X50379333Y-83018380D01*
X50474571Y-83066000D01*
X50569809Y-83161238D01*
X50617428Y-83351714D01*
X50617428Y-83685047D01*
X50569809Y-83875523D01*
X50474571Y-83970761D01*
X50379333Y-84018380D01*
X50188857Y-84018380D01*
X50093619Y-83970761D01*
X49998380Y-83875523D01*
X49950761Y-83685047D01*
X49950761Y-83351714D01*
X49998380Y-83161238D01*
X50093619Y-83066000D01*
X50188857Y-83018380D01*
X51046000Y-84018380D02*
X51046000Y-83018380D01*
X51617428Y-84018380D01*
X51617428Y-83018380D01*
X53188857Y-83494571D02*
X53331714Y-83542190D01*
X53379333Y-83589809D01*
X53426952Y-83685047D01*
X53426952Y-83827904D01*
X53379333Y-83923142D01*
X53331714Y-83970761D01*
X53236476Y-84018380D01*
X52855523Y-84018380D01*
X52855523Y-83018380D01*
X53188857Y-83018380D01*
X53284095Y-83066000D01*
X53331714Y-83113619D01*
X53379333Y-83208857D01*
X53379333Y-83304095D01*
X53331714Y-83399333D01*
X53284095Y-83446952D01*
X53188857Y-83494571D01*
X52855523Y-83494571D01*
X54046000Y-83018380D02*
X54236476Y-83018380D01*
X54331714Y-83066000D01*
X54426952Y-83161238D01*
X54474571Y-83351714D01*
X54474571Y-83685047D01*
X54426952Y-83875523D01*
X54331714Y-83970761D01*
X54236476Y-84018380D01*
X54046000Y-84018380D01*
X53950761Y-83970761D01*
X53855523Y-83875523D01*
X53807904Y-83685047D01*
X53807904Y-83351714D01*
X53855523Y-83161238D01*
X53950761Y-83066000D01*
X54046000Y-83018380D01*
X54855523Y-83732666D02*
X55331714Y-83732666D01*
X54760285Y-84018380D02*
X55093619Y-83018380D01*
X55426952Y-84018380D01*
X56331714Y-84018380D02*
X55998380Y-83542190D01*
X55760285Y-84018380D02*
X55760285Y-83018380D01*
X56141238Y-83018380D01*
X56236476Y-83066000D01*
X56284095Y-83113619D01*
X56331714Y-83208857D01*
X56331714Y-83351714D01*
X56284095Y-83446952D01*
X56236476Y-83494571D01*
X56141238Y-83542190D01*
X55760285Y-83542190D01*
X56760285Y-84018380D02*
X56760285Y-83018380D01*
X56998380Y-83018380D01*
X57141238Y-83066000D01*
X57236476Y-83161238D01*
X57284095Y-83256476D01*
X57331714Y-83446952D01*
X57331714Y-83589809D01*
X57284095Y-83780285D01*
X57236476Y-83875523D01*
X57141238Y-83970761D01*
X56998380Y-84018380D01*
X56760285Y-84018380D01*
D12*
%TO.C,C1*%
X91560000Y-26885000D02*
X91560000Y-26570000D01*
X86320000Y-29310000D02*
X86320000Y-28995000D01*
X91560000Y-26570000D02*
X86320000Y-26570000D01*
X86320000Y-26885000D02*
X86320000Y-26570000D01*
X91560000Y-29310000D02*
X86320000Y-29310000D01*
X91560000Y-29310000D02*
X91560000Y-28995000D01*
%TO.C,U5*%
X124580000Y-57210000D02*
X124580000Y-31690000D01*
X119280000Y-57210000D02*
X124580000Y-57210000D01*
X127070000Y-31630000D02*
X116790000Y-31630000D01*
X116790000Y-31630000D02*
X116790000Y-57270000D01*
X127070000Y-57270000D02*
X127070000Y-31630000D01*
X120930000Y-31690000D02*
X119280000Y-31690000D01*
X124580000Y-31690000D02*
X122930000Y-31690000D01*
X119280000Y-31690000D02*
X119280000Y-57210000D01*
X116790000Y-57270000D02*
X127070000Y-57270000D01*
X120930000Y-31690000D02*
G75*
G03*
X122930000Y-31690000I1000000J0D01*
G01*
%TO.C,C9*%
X75050000Y-26570000D02*
X69810000Y-26570000D01*
X75050000Y-29310000D02*
X69810000Y-29310000D01*
X69810000Y-26885000D02*
X69810000Y-26570000D01*
X75050000Y-29310000D02*
X75050000Y-28995000D01*
X75050000Y-26885000D02*
X75050000Y-26570000D01*
X69810000Y-29310000D02*
X69810000Y-28995000D01*
%TO.C,D1*%
X25400000Y-52210000D02*
X27640000Y-52210000D01*
X25400000Y-52330000D02*
X27640000Y-52330000D01*
X27640000Y-48690000D02*
X25400000Y-48690000D01*
X27640000Y-52930000D02*
X27640000Y-48690000D01*
X25400000Y-52090000D02*
X27640000Y-52090000D01*
X25400000Y-48690000D02*
X25400000Y-52930000D01*
X26520000Y-48040000D02*
X26520000Y-48690000D01*
X25400000Y-52930000D02*
X27640000Y-52930000D01*
X26520000Y-53580000D02*
X26520000Y-52930000D01*
%TO.C,C5*%
X53300000Y-26770000D02*
X53300000Y-26455000D01*
X53300000Y-24345000D02*
X53300000Y-24030000D01*
X58540000Y-24345000D02*
X58540000Y-24030000D01*
X58540000Y-24030000D02*
X53300000Y-24030000D01*
X58540000Y-26770000D02*
X53300000Y-26770000D01*
X58540000Y-26770000D02*
X58540000Y-26455000D01*
%TO.C,C6*%
X71335000Y-59610000D02*
X71020000Y-59610000D01*
X73760000Y-59610000D02*
X73760000Y-64850000D01*
X71335000Y-64850000D02*
X71020000Y-64850000D01*
X73760000Y-64850000D02*
X73445000Y-64850000D01*
X73760000Y-59610000D02*
X73445000Y-59610000D01*
X71020000Y-59610000D02*
X71020000Y-64850000D01*
%TO.C,U1*%
X69750000Y-31690000D02*
X69750000Y-49590000D01*
X67260000Y-49650000D02*
X77540000Y-49650000D01*
X75050000Y-49590000D02*
X75050000Y-31690000D01*
X71400000Y-31690000D02*
X69750000Y-31690000D01*
X77540000Y-49650000D02*
X77540000Y-31630000D01*
X69750000Y-49590000D02*
X75050000Y-49590000D01*
X75050000Y-31690000D02*
X73400000Y-31690000D01*
X67260000Y-31630000D02*
X67260000Y-49650000D01*
X77540000Y-31630000D02*
X67260000Y-31630000D01*
X71400000Y-31690000D02*
G75*
G03*
X73400000Y-31690000I1000000J0D01*
G01*
%TO.C,C7*%
X28040000Y-59748000D02*
X27725000Y-59748000D01*
X25615000Y-59748000D02*
X25300000Y-59748000D01*
X28040000Y-59748000D02*
X28040000Y-64988000D01*
X28040000Y-64988000D02*
X27725000Y-64988000D01*
X25300000Y-59748000D02*
X25300000Y-64988000D01*
X25615000Y-64988000D02*
X25300000Y-64988000D01*
%TO.C,U8*%
X44520000Y-29080000D02*
X34240000Y-29080000D01*
X34240000Y-29080000D02*
X34240000Y-49640000D01*
X38380000Y-29140000D02*
X36730000Y-29140000D01*
X44520000Y-49640000D02*
X44520000Y-29080000D01*
X42030000Y-29140000D02*
X40380000Y-29140000D01*
X36730000Y-29140000D02*
X36730000Y-49580000D01*
X34240000Y-49640000D02*
X44520000Y-49640000D01*
X42030000Y-49580000D02*
X42030000Y-29140000D01*
X36730000Y-49580000D02*
X42030000Y-49580000D01*
X38380000Y-29140000D02*
G75*
G03*
X40380000Y-29140000I1000000J0D01*
G01*
%TO.C,C3*%
X28931000Y-77705000D02*
X28931000Y-78970000D01*
X27371000Y-81050000D02*
X27371000Y-83160000D01*
X27531000Y-81050000D02*
X27531000Y-83120000D01*
X27651000Y-76936000D02*
X27651000Y-78970000D01*
X27771000Y-76977000D02*
X27771000Y-78970000D01*
X27090000Y-76809000D02*
X27090000Y-78970000D01*
X27170000Y-81050000D02*
X27170000Y-83199000D01*
X28491000Y-77346000D02*
X28491000Y-78970000D01*
X28931000Y-81050000D02*
X28931000Y-82315000D01*
X23149759Y-78171000D02*
X23779759Y-78171000D01*
X23464759Y-77856000D02*
X23464759Y-78486000D01*
X28691000Y-81050000D02*
X28691000Y-82526000D01*
X29051000Y-77828000D02*
X29051000Y-82192000D01*
X26930000Y-76792000D02*
X26930000Y-78970000D01*
X29211000Y-78015000D02*
X29211000Y-82005000D01*
X27330000Y-76851000D02*
X27330000Y-78970000D01*
X28331000Y-81050000D02*
X28331000Y-82776000D01*
X29691000Y-78845000D02*
X29691000Y-81175000D01*
X28531000Y-77374000D02*
X28531000Y-78970000D01*
X29731000Y-78951000D02*
X29731000Y-81069000D01*
X27210000Y-81050000D02*
X27210000Y-83192000D01*
X27691000Y-81050000D02*
X27691000Y-83071000D01*
X28371000Y-81050000D02*
X28371000Y-82752000D01*
X27771000Y-81050000D02*
X27771000Y-83043000D01*
X28091000Y-77114000D02*
X28091000Y-78970000D01*
X29251000Y-78066000D02*
X29251000Y-81954000D01*
X28131000Y-81050000D02*
X28131000Y-82886000D01*
X29371000Y-78234000D02*
X29371000Y-81786000D01*
X28171000Y-81050000D02*
X28171000Y-82866000D01*
X28771000Y-81050000D02*
X28771000Y-82460000D01*
X28611000Y-81050000D02*
X28611000Y-82588000D01*
X29651000Y-78748000D02*
X29651000Y-81272000D01*
X27611000Y-76924000D02*
X27611000Y-78970000D01*
X28251000Y-81050000D02*
X28251000Y-82822000D01*
X28411000Y-77294000D02*
X28411000Y-78970000D01*
X27611000Y-81050000D02*
X27611000Y-83096000D01*
X27851000Y-77008000D02*
X27851000Y-78970000D01*
X28851000Y-77630000D02*
X28851000Y-78970000D01*
X27971000Y-81050000D02*
X27971000Y-82962000D01*
X27050000Y-76804000D02*
X27050000Y-78970000D01*
X29091000Y-77873000D02*
X29091000Y-82147000D01*
X27731000Y-81050000D02*
X27731000Y-83057000D01*
X28651000Y-81050000D02*
X28651000Y-82558000D01*
X28691000Y-77494000D02*
X28691000Y-78970000D01*
X28731000Y-77526000D02*
X28731000Y-78970000D01*
X27210000Y-76828000D02*
X27210000Y-78970000D01*
X28011000Y-81050000D02*
X28011000Y-82944000D01*
X27130000Y-81050000D02*
X27130000Y-83205000D01*
X28251000Y-77198000D02*
X28251000Y-78970000D01*
X27571000Y-76912000D02*
X27571000Y-78970000D01*
X29411000Y-78296000D02*
X29411000Y-81724000D01*
X27451000Y-81050000D02*
X27451000Y-83141000D01*
X28291000Y-81050000D02*
X28291000Y-82800000D01*
X27010000Y-76799000D02*
X27010000Y-78970000D01*
X28891000Y-77667000D02*
X28891000Y-78970000D01*
X28851000Y-81050000D02*
X28851000Y-82390000D01*
X28211000Y-77176000D02*
X28211000Y-78970000D01*
X28771000Y-77560000D02*
X28771000Y-78970000D01*
X29491000Y-78429000D02*
X29491000Y-81591000D01*
X28091000Y-81050000D02*
X28091000Y-82906000D01*
X28531000Y-81050000D02*
X28531000Y-82646000D01*
X28051000Y-81050000D02*
X28051000Y-82926000D01*
X29291000Y-78120000D02*
X29291000Y-81900000D01*
X28211000Y-81050000D02*
X28211000Y-82844000D01*
X28451000Y-81050000D02*
X28451000Y-82700000D01*
X27891000Y-77024000D02*
X27891000Y-78970000D01*
X29451000Y-78360000D02*
X29451000Y-81660000D01*
X29131000Y-77918000D02*
X29131000Y-82102000D01*
X28731000Y-81050000D02*
X28731000Y-82494000D01*
X26970000Y-76795000D02*
X26970000Y-78970000D01*
X27571000Y-81050000D02*
X27571000Y-83108000D01*
X27731000Y-76963000D02*
X27731000Y-78970000D01*
X27531000Y-76900000D02*
X27531000Y-78970000D01*
X27651000Y-81050000D02*
X27651000Y-83084000D01*
X28571000Y-81050000D02*
X28571000Y-82617000D01*
X28611000Y-77432000D02*
X28611000Y-78970000D01*
X26890000Y-81050000D02*
X26890000Y-83232000D01*
X28331000Y-77244000D02*
X28331000Y-78970000D01*
X26770000Y-76782000D02*
X26770000Y-83238000D01*
X26650000Y-76780000D02*
X26650000Y-83240000D01*
X28291000Y-77220000D02*
X28291000Y-78970000D01*
X29811000Y-79208000D02*
X29811000Y-80812000D01*
X26850000Y-76786000D02*
X26850000Y-83234000D01*
X28011000Y-77076000D02*
X28011000Y-78970000D01*
X27851000Y-81050000D02*
X27851000Y-83012000D01*
X29891000Y-79608000D02*
X29891000Y-80412000D01*
X28971000Y-77745000D02*
X28971000Y-82275000D01*
X28371000Y-77268000D02*
X28371000Y-78970000D01*
X29531000Y-78501000D02*
X29531000Y-81519000D01*
X27931000Y-77040000D02*
X27931000Y-78970000D01*
X27290000Y-76843000D02*
X27290000Y-78970000D01*
X28411000Y-81050000D02*
X28411000Y-82726000D01*
X27811000Y-81050000D02*
X27811000Y-83028000D01*
X27050000Y-81050000D02*
X27050000Y-83216000D01*
X27971000Y-77058000D02*
X27971000Y-78970000D01*
X29331000Y-78176000D02*
X29331000Y-81844000D01*
X27170000Y-76821000D02*
X27170000Y-78970000D01*
X27250000Y-76835000D02*
X27250000Y-78970000D01*
X26730000Y-76780000D02*
X26730000Y-83240000D01*
X27811000Y-76992000D02*
X27811000Y-78970000D01*
X27491000Y-76889000D02*
X27491000Y-78970000D01*
X28571000Y-77403000D02*
X28571000Y-78970000D01*
X28811000Y-77594000D02*
X28811000Y-78970000D01*
X27451000Y-76879000D02*
X27451000Y-78970000D01*
X27090000Y-81050000D02*
X27090000Y-83211000D01*
X27330000Y-81050000D02*
X27330000Y-83169000D01*
X27491000Y-81050000D02*
X27491000Y-83131000D01*
X29611000Y-78660000D02*
X29611000Y-81360000D01*
X27411000Y-81050000D02*
X27411000Y-83151000D01*
X28051000Y-77094000D02*
X28051000Y-78970000D01*
X28131000Y-77134000D02*
X28131000Y-78970000D01*
X26810000Y-76783000D02*
X26810000Y-83237000D01*
X27250000Y-81050000D02*
X27250000Y-83185000D01*
X26970000Y-81050000D02*
X26970000Y-83225000D01*
X28491000Y-81050000D02*
X28491000Y-82674000D01*
X29851000Y-79377000D02*
X29851000Y-80643000D01*
X27130000Y-76815000D02*
X27130000Y-78970000D01*
X29771000Y-79070000D02*
X29771000Y-80950000D01*
X28891000Y-81050000D02*
X28891000Y-82353000D01*
X26690000Y-76780000D02*
X26690000Y-83240000D01*
X29571000Y-78578000D02*
X29571000Y-81442000D01*
X26930000Y-81050000D02*
X26930000Y-83228000D01*
X28651000Y-77462000D02*
X28651000Y-78970000D01*
X27290000Y-81050000D02*
X27290000Y-83177000D01*
X27411000Y-76869000D02*
X27411000Y-78970000D01*
X28451000Y-77320000D02*
X28451000Y-78970000D01*
X27371000Y-76860000D02*
X27371000Y-78970000D01*
X27891000Y-81050000D02*
X27891000Y-82996000D01*
X28811000Y-81050000D02*
X28811000Y-82426000D01*
X29011000Y-77786000D02*
X29011000Y-82234000D01*
X28171000Y-77154000D02*
X28171000Y-78970000D01*
X29171000Y-77966000D02*
X29171000Y-82054000D01*
X27931000Y-81050000D02*
X27931000Y-82980000D01*
X27691000Y-76949000D02*
X27691000Y-78970000D01*
X27010000Y-81050000D02*
X27010000Y-83221000D01*
X26890000Y-76788000D02*
X26890000Y-78970000D01*
X29920000Y-80010000D02*
G75*
G03*
X29920000Y-80010000I-3270000J0D01*
G01*
%TO.C,C4*%
X108030000Y-26885000D02*
X108030000Y-26570000D01*
X102790000Y-26885000D02*
X102790000Y-26570000D01*
X108030000Y-26570000D02*
X102790000Y-26570000D01*
X108030000Y-29310000D02*
X102790000Y-29310000D01*
X108030000Y-29310000D02*
X108030000Y-28995000D01*
X102790000Y-29310000D02*
X102790000Y-28995000D01*
%TO.C,C2*%
X41990000Y-24030000D02*
X36750000Y-24030000D01*
X41990000Y-26770000D02*
X41990000Y-26455000D01*
X36750000Y-24345000D02*
X36750000Y-24030000D01*
X36750000Y-26770000D02*
X36750000Y-26455000D01*
X41990000Y-26770000D02*
X36750000Y-26770000D01*
X41990000Y-24345000D02*
X41990000Y-24030000D01*
%TO.C,U4*%
X66160000Y-53423000D02*
X30360000Y-53423000D01*
X30420000Y-68833000D02*
X66100000Y-68833000D01*
X66100000Y-55913000D02*
X30420000Y-55913000D01*
X66100000Y-68833000D02*
X66100000Y-55913000D01*
X30360000Y-71323000D02*
X66160000Y-71323000D01*
X66160000Y-71323000D02*
X66160000Y-53423000D01*
X30420000Y-55913000D02*
X30420000Y-61373000D01*
X30420000Y-63373000D02*
X30420000Y-68833000D01*
X30360000Y-53423000D02*
X30360000Y-71323000D01*
X30420000Y-63373000D02*
G75*
G03*
X30420000Y-61373000I0J1000000D01*
G01*
%TO.C,J2*%
X25190000Y-43250000D02*
X27850000Y-43250000D01*
X25190000Y-40650000D02*
X25190000Y-43250000D01*
X25190000Y-40650000D02*
X27850000Y-40650000D01*
X27850000Y-40650000D02*
X27850000Y-43250000D01*
X25190000Y-38050000D02*
X26520000Y-38050000D01*
X25190000Y-39380000D02*
X25190000Y-38050000D01*
%TO.C,U6*%
X83770000Y-49645000D02*
X94050000Y-49645000D01*
X91560000Y-49585000D02*
X91560000Y-31685000D01*
X83770000Y-31625000D02*
X83770000Y-49645000D01*
X94050000Y-31625000D02*
X83770000Y-31625000D01*
X87910000Y-31685000D02*
X86260000Y-31685000D01*
X94050000Y-49645000D02*
X94050000Y-31625000D01*
X86260000Y-31685000D02*
X86260000Y-49585000D01*
X86260000Y-49585000D02*
X91560000Y-49585000D01*
X91560000Y-31685000D02*
X89910000Y-31685000D01*
X87910000Y-31685000D02*
G75*
G03*
X89910000Y-31685000I1000000J0D01*
G01*
%TO.C,U7*%
X53240000Y-29140000D02*
X53240000Y-49580000D01*
X50750000Y-49640000D02*
X61030000Y-49640000D01*
X53240000Y-49580000D02*
X58540000Y-49580000D01*
X58540000Y-29140000D02*
X56890000Y-29140000D01*
X61030000Y-49640000D02*
X61030000Y-29080000D01*
X61030000Y-29080000D02*
X50750000Y-29080000D01*
X50750000Y-29080000D02*
X50750000Y-49640000D01*
X54890000Y-29140000D02*
X53240000Y-29140000D01*
X58540000Y-49580000D02*
X58540000Y-29140000D01*
X54890000Y-29140000D02*
G75*
G03*
X56890000Y-29140000I1000000J0D01*
G01*
%TO.C,C8*%
X124540000Y-29305000D02*
X119300000Y-29305000D01*
X124540000Y-26565000D02*
X119300000Y-26565000D01*
X119300000Y-29305000D02*
X119300000Y-28990000D01*
X124540000Y-29305000D02*
X124540000Y-28990000D01*
X119300000Y-26880000D02*
X119300000Y-26565000D01*
X124540000Y-26880000D02*
X124540000Y-26565000D01*
%TO.C,U2*%
X111845000Y-55775000D02*
X76165000Y-55775000D01*
X111845000Y-68695000D02*
X111845000Y-55775000D01*
X76105000Y-71185000D02*
X111905000Y-71185000D01*
X76165000Y-55775000D02*
X76165000Y-61235000D01*
X76165000Y-68695000D02*
X111845000Y-68695000D01*
X76105000Y-53285000D02*
X76105000Y-71185000D01*
X76165000Y-63235000D02*
X76165000Y-68695000D01*
X111905000Y-53285000D02*
X76105000Y-53285000D01*
X111905000Y-71185000D02*
X111905000Y-53285000D01*
X76165000Y-63235000D02*
G75*
G03*
X76165000Y-61235000I0J1000000D01*
G01*
%TO.C,REF\u002A\u002A*%
G36*
X123487906Y-79322371D02*
G01*
X123439163Y-79315678D01*
X123403288Y-79304040D01*
X123371548Y-79286147D01*
X123365648Y-79282192D01*
X123286104Y-79215733D01*
X123239929Y-79143315D01*
X123221599Y-79055151D01*
X123220703Y-79025213D01*
X123221727Y-79018280D01*
X123404923Y-79018280D01*
X123412513Y-79066240D01*
X123438808Y-79099047D01*
X123489095Y-79119105D01*
X123568664Y-79128822D01*
X123652182Y-79130769D01*
X123741349Y-79129632D01*
X123800520Y-79125159D01*
X123838741Y-79115754D01*
X123865053Y-79099824D01*
X123873846Y-79091692D01*
X123907261Y-79044942D01*
X123905737Y-78999553D01*
X123876752Y-78953660D01*
X123845809Y-78926288D01*
X123800643Y-78910077D01*
X123729420Y-78900974D01*
X123721114Y-78900349D01*
X123592037Y-78898796D01*
X123496172Y-78915035D01*
X123434107Y-78948848D01*
X123406432Y-79000016D01*
X123404923Y-79018280D01*
X123221727Y-79018280D01*
X123237256Y-78913114D01*
X123285409Y-78821536D01*
X123362905Y-78753951D01*
X123412727Y-78729943D01*
X123487533Y-78711262D01*
X123582052Y-78701699D01*
X123685210Y-78700792D01*
X123785935Y-78708079D01*
X123873153Y-78723097D01*
X123935791Y-78745385D01*
X123946579Y-78752235D01*
X124027105Y-78833368D01*
X124075336Y-78929734D01*
X124089450Y-79034299D01*
X124067629Y-79140032D01*
X124054547Y-79169457D01*
X124014231Y-79226759D01*
X123960775Y-79277050D01*
X123953995Y-79281803D01*
X123921321Y-79301122D01*
X123886394Y-79313892D01*
X123840414Y-79321436D01*
X123774584Y-79325076D01*
X123680105Y-79326135D01*
X123658923Y-79326154D01*
X123652182Y-79326106D01*
X123558249Y-79325426D01*
X123487906Y-79322371D01*
G37*
D13*
X123487906Y-79322371D02*
X123439163Y-79315678D01*
X123403288Y-79304040D01*
X123371548Y-79286147D01*
X123365648Y-79282192D01*
X123286104Y-79215733D01*
X123239929Y-79143315D01*
X123221599Y-79055151D01*
X123220703Y-79025213D01*
X123221727Y-79018280D01*
X123404923Y-79018280D01*
X123412513Y-79066240D01*
X123438808Y-79099047D01*
X123489095Y-79119105D01*
X123568664Y-79128822D01*
X123652182Y-79130769D01*
X123741349Y-79129632D01*
X123800520Y-79125159D01*
X123838741Y-79115754D01*
X123865053Y-79099824D01*
X123873846Y-79091692D01*
X123907261Y-79044942D01*
X123905737Y-78999553D01*
X123876752Y-78953660D01*
X123845809Y-78926288D01*
X123800643Y-78910077D01*
X123729420Y-78900974D01*
X123721114Y-78900349D01*
X123592037Y-78898796D01*
X123496172Y-78915035D01*
X123434107Y-78948848D01*
X123406432Y-79000016D01*
X123404923Y-79018280D01*
X123221727Y-79018280D01*
X123237256Y-78913114D01*
X123285409Y-78821536D01*
X123362905Y-78753951D01*
X123412727Y-78729943D01*
X123487533Y-78711262D01*
X123582052Y-78701699D01*
X123685210Y-78700792D01*
X123785935Y-78708079D01*
X123873153Y-78723097D01*
X123935791Y-78745385D01*
X123946579Y-78752235D01*
X124027105Y-78833368D01*
X124075336Y-78929734D01*
X124089450Y-79034299D01*
X124067629Y-79140032D01*
X124054547Y-79169457D01*
X124014231Y-79226759D01*
X123960775Y-79277050D01*
X123953995Y-79281803D01*
X123921321Y-79301122D01*
X123886394Y-79313892D01*
X123840414Y-79321436D01*
X123774584Y-79325076D01*
X123680105Y-79326135D01*
X123658923Y-79326154D01*
X123652182Y-79326106D01*
X123558249Y-79325426D01*
X123487906Y-79322371D01*
G36*
X124067320Y-75401839D02*
G01*
X124081912Y-75445541D01*
X124088706Y-75469518D01*
X124088769Y-75470223D01*
X124070345Y-75472585D01*
X124019526Y-75474594D01*
X123942993Y-75476099D01*
X123847430Y-75476947D01*
X123789329Y-75477077D01*
X123674771Y-75477349D01*
X123592667Y-75478748D01*
X123536393Y-75482151D01*
X123499326Y-75488433D01*
X123474844Y-75498471D01*
X123456325Y-75513139D01*
X123447406Y-75522298D01*
X123411466Y-75585211D01*
X123408775Y-75653864D01*
X123439170Y-75716152D01*
X123450144Y-75727671D01*
X123470779Y-75744567D01*
X123495256Y-75756286D01*
X123530647Y-75763767D01*
X123584026Y-75767946D01*
X123662466Y-75769763D01*
X123770617Y-75770154D01*
X124045870Y-75770154D01*
X124067320Y-75831685D01*
X124081912Y-75875387D01*
X124088706Y-75899364D01*
X124088769Y-75900070D01*
X124070069Y-75901874D01*
X124017322Y-75903500D01*
X123935557Y-75904883D01*
X123829805Y-75905958D01*
X123705094Y-75906660D01*
X123566455Y-75906923D01*
X123031806Y-75906923D01*
X122978236Y-75779923D01*
X123142120Y-75770154D01*
X123221980Y-75764428D01*
X123269039Y-75757851D01*
X123289566Y-75748738D01*
X123289829Y-75735402D01*
X123287378Y-75731077D01*
X123269636Y-75673556D01*
X123270672Y-75598732D01*
X123288910Y-75522661D01*
X123312505Y-75475082D01*
X123350198Y-75426298D01*
X123392855Y-75390636D01*
X123447057Y-75366155D01*
X123519384Y-75350913D01*
X123616419Y-75342970D01*
X123744742Y-75340384D01*
X123769358Y-75340338D01*
X124045870Y-75340308D01*
X124067320Y-75401839D01*
G37*
X124067320Y-75401839D02*
X124081912Y-75445541D01*
X124088706Y-75469518D01*
X124088769Y-75470223D01*
X124070345Y-75472585D01*
X124019526Y-75474594D01*
X123942993Y-75476099D01*
X123847430Y-75476947D01*
X123789329Y-75477077D01*
X123674771Y-75477349D01*
X123592667Y-75478748D01*
X123536393Y-75482151D01*
X123499326Y-75488433D01*
X123474844Y-75498471D01*
X123456325Y-75513139D01*
X123447406Y-75522298D01*
X123411466Y-75585211D01*
X123408775Y-75653864D01*
X123439170Y-75716152D01*
X123450144Y-75727671D01*
X123470779Y-75744567D01*
X123495256Y-75756286D01*
X123530647Y-75763767D01*
X123584026Y-75767946D01*
X123662466Y-75769763D01*
X123770617Y-75770154D01*
X124045870Y-75770154D01*
X124067320Y-75831685D01*
X124081912Y-75875387D01*
X124088706Y-75899364D01*
X124088769Y-75900070D01*
X124070069Y-75901874D01*
X124017322Y-75903500D01*
X123935557Y-75904883D01*
X123829805Y-75905958D01*
X123705094Y-75906660D01*
X123566455Y-75906923D01*
X123031806Y-75906923D01*
X122978236Y-75779923D01*
X123142120Y-75770154D01*
X123221980Y-75764428D01*
X123269039Y-75757851D01*
X123289566Y-75748738D01*
X123289829Y-75735402D01*
X123287378Y-75731077D01*
X123269636Y-75673556D01*
X123270672Y-75598732D01*
X123288910Y-75522661D01*
X123312505Y-75475082D01*
X123350198Y-75426298D01*
X123392855Y-75390636D01*
X123447057Y-75366155D01*
X123519384Y-75350913D01*
X123616419Y-75342970D01*
X123744742Y-75340384D01*
X123769358Y-75340338D01*
X124045870Y-75340308D01*
X124067320Y-75401839D01*
G36*
X123544679Y-78573127D02*
G01*
X123480905Y-78569394D01*
X123435582Y-78564093D01*
X123403555Y-78556742D01*
X123379668Y-78546857D01*
X123358764Y-78533954D01*
X123350898Y-78528421D01*
X123276595Y-78455031D01*
X123234467Y-78362240D01*
X123223544Y-78262416D01*
X123404923Y-78262416D01*
X123414900Y-78317238D01*
X123447752Y-78354842D01*
X123507857Y-78377477D01*
X123599598Y-78387394D01*
X123650042Y-78388308D01*
X123733364Y-78387252D01*
X123787880Y-78382562D01*
X123823837Y-78371949D01*
X123851482Y-78353128D01*
X123864965Y-78340350D01*
X123904417Y-78288110D01*
X123907628Y-78241858D01*
X123875049Y-78194133D01*
X123873846Y-78192923D01*
X123848668Y-78173506D01*
X123814447Y-78161693D01*
X123761748Y-78155735D01*
X123681131Y-78153880D01*
X123663271Y-78153846D01*
X123552175Y-78158330D01*
X123475161Y-78172926D01*
X123428147Y-78199350D01*
X123407050Y-78239317D01*
X123404923Y-78262416D01*
X123223544Y-78262416D01*
X123222722Y-78254904D01*
X123234505Y-78161114D01*
X123271727Y-78086461D01*
X123340261Y-78020569D01*
X123365648Y-78002423D01*
X123398866Y-77982655D01*
X123434945Y-77969828D01*
X123483098Y-77962490D01*
X123552536Y-77959187D01*
X123644206Y-77958462D01*
X123769830Y-77961737D01*
X123864154Y-77973123D01*
X123934523Y-77994959D01*
X123988286Y-78029581D01*
X124032788Y-78079330D01*
X124035423Y-78082986D01*
X124062377Y-78132015D01*
X124075712Y-78191055D01*
X124079000Y-78266141D01*
X124079000Y-78388205D01*
X124197497Y-78388256D01*
X124263492Y-78389392D01*
X124302202Y-78396314D01*
X124325419Y-78414402D01*
X124344933Y-78449038D01*
X124348920Y-78457355D01*
X124367603Y-78496280D01*
X124379403Y-78526417D01*
X124380422Y-78548826D01*
X124366761Y-78564567D01*
X124334522Y-78574698D01*
X124279804Y-78580277D01*
X124198711Y-78582365D01*
X124087344Y-78582019D01*
X123941802Y-78580300D01*
X123898269Y-78579763D01*
X123748205Y-78577828D01*
X123650042Y-78576096D01*
X123632060Y-78575778D01*
X123544679Y-78573127D01*
G37*
X123544679Y-78573127D02*
X123480905Y-78569394D01*
X123435582Y-78564093D01*
X123403555Y-78556742D01*
X123379668Y-78546857D01*
X123358764Y-78533954D01*
X123350898Y-78528421D01*
X123276595Y-78455031D01*
X123234467Y-78362240D01*
X123223544Y-78262416D01*
X123404923Y-78262416D01*
X123414900Y-78317238D01*
X123447752Y-78354842D01*
X123507857Y-78377477D01*
X123599598Y-78387394D01*
X123650042Y-78388308D01*
X123733364Y-78387252D01*
X123787880Y-78382562D01*
X123823837Y-78371949D01*
X123851482Y-78353128D01*
X123864965Y-78340350D01*
X123904417Y-78288110D01*
X123907628Y-78241858D01*
X123875049Y-78194133D01*
X123873846Y-78192923D01*
X123848668Y-78173506D01*
X123814447Y-78161693D01*
X123761748Y-78155735D01*
X123681131Y-78153880D01*
X123663271Y-78153846D01*
X123552175Y-78158330D01*
X123475161Y-78172926D01*
X123428147Y-78199350D01*
X123407050Y-78239317D01*
X123404923Y-78262416D01*
X123223544Y-78262416D01*
X123222722Y-78254904D01*
X123234505Y-78161114D01*
X123271727Y-78086461D01*
X123340261Y-78020569D01*
X123365648Y-78002423D01*
X123398866Y-77982655D01*
X123434945Y-77969828D01*
X123483098Y-77962490D01*
X123552536Y-77959187D01*
X123644206Y-77958462D01*
X123769830Y-77961737D01*
X123864154Y-77973123D01*
X123934523Y-77994959D01*
X123988286Y-78029581D01*
X124032788Y-78079330D01*
X124035423Y-78082986D01*
X124062377Y-78132015D01*
X124075712Y-78191055D01*
X124079000Y-78266141D01*
X124079000Y-78388205D01*
X124197497Y-78388256D01*
X124263492Y-78389392D01*
X124302202Y-78396314D01*
X124325419Y-78414402D01*
X124344933Y-78449038D01*
X124348920Y-78457355D01*
X124367603Y-78496280D01*
X124379403Y-78526417D01*
X124380422Y-78548826D01*
X124366761Y-78564567D01*
X124334522Y-78574698D01*
X124279804Y-78580277D01*
X124198711Y-78582365D01*
X124087344Y-78582019D01*
X123941802Y-78580300D01*
X123898269Y-78579763D01*
X123748205Y-78577828D01*
X123650042Y-78576096D01*
X123632060Y-78575778D01*
X123544679Y-78573127D01*
G36*
X124030363Y-72588599D02*
G01*
X124068462Y-72631207D01*
X124083895Y-72668610D01*
X124082918Y-72719730D01*
X124080433Y-72740022D01*
X124073200Y-72803446D01*
X124069055Y-72855905D01*
X124068672Y-72868692D01*
X124071176Y-72911801D01*
X124077462Y-72973456D01*
X124080433Y-72997362D01*
X124085028Y-73056078D01*
X124075046Y-73095536D01*
X124044228Y-73134662D01*
X124030363Y-73148785D01*
X123968533Y-73210615D01*
X123313503Y-73210615D01*
X123290829Y-73160850D01*
X123274034Y-73117998D01*
X123268154Y-73092927D01*
X123286736Y-73086499D01*
X123338655Y-73080491D01*
X123418172Y-73075303D01*
X123519546Y-73071336D01*
X123605192Y-73069423D01*
X123942231Y-73064077D01*
X123948825Y-73017440D01*
X123944214Y-72975024D01*
X123929287Y-72954240D01*
X123901377Y-72948430D01*
X123841925Y-72943470D01*
X123758466Y-72939754D01*
X123658532Y-72937676D01*
X123607104Y-72937376D01*
X123311054Y-72937077D01*
X123289604Y-72875546D01*
X123275020Y-72831996D01*
X123268219Y-72808306D01*
X123268154Y-72807623D01*
X123286642Y-72805246D01*
X123337906Y-72802634D01*
X123415649Y-72800005D01*
X123513574Y-72797579D01*
X123605192Y-72795885D01*
X123942231Y-72790539D01*
X123942231Y-72673308D01*
X123634746Y-72667928D01*
X123327261Y-72662549D01*
X123297707Y-72605399D01*
X123277413Y-72563203D01*
X123268204Y-72538230D01*
X123268154Y-72537509D01*
X123286662Y-72534071D01*
X123338068Y-72531089D01*
X123416192Y-72528753D01*
X123514857Y-72527251D01*
X123618343Y-72526769D01*
X123968533Y-72526769D01*
X124030363Y-72588599D01*
G37*
X124030363Y-72588599D02*
X124068462Y-72631207D01*
X124083895Y-72668610D01*
X124082918Y-72719730D01*
X124080433Y-72740022D01*
X124073200Y-72803446D01*
X124069055Y-72855905D01*
X124068672Y-72868692D01*
X124071176Y-72911801D01*
X124077462Y-72973456D01*
X124080433Y-72997362D01*
X124085028Y-73056078D01*
X124075046Y-73095536D01*
X124044228Y-73134662D01*
X124030363Y-73148785D01*
X123968533Y-73210615D01*
X123313503Y-73210615D01*
X123290829Y-73160850D01*
X123274034Y-73117998D01*
X123268154Y-73092927D01*
X123286736Y-73086499D01*
X123338655Y-73080491D01*
X123418172Y-73075303D01*
X123519546Y-73071336D01*
X123605192Y-73069423D01*
X123942231Y-73064077D01*
X123948825Y-73017440D01*
X123944214Y-72975024D01*
X123929287Y-72954240D01*
X123901377Y-72948430D01*
X123841925Y-72943470D01*
X123758466Y-72939754D01*
X123658532Y-72937676D01*
X123607104Y-72937376D01*
X123311054Y-72937077D01*
X123289604Y-72875546D01*
X123275020Y-72831996D01*
X123268219Y-72808306D01*
X123268154Y-72807623D01*
X123286642Y-72805246D01*
X123337906Y-72802634D01*
X123415649Y-72800005D01*
X123513574Y-72797579D01*
X123605192Y-72795885D01*
X123942231Y-72790539D01*
X123942231Y-72673308D01*
X123634746Y-72667928D01*
X123327261Y-72662549D01*
X123297707Y-72605399D01*
X123277413Y-72563203D01*
X123268204Y-72538230D01*
X123268154Y-72537509D01*
X123286662Y-72534071D01*
X123338068Y-72531089D01*
X123416192Y-72528753D01*
X123514857Y-72527251D01*
X123618343Y-72526769D01*
X123968533Y-72526769D01*
X124030363Y-72588599D01*
G36*
X123535058Y-73997835D02*
G01*
X123571446Y-74030013D01*
X123577633Y-74041919D01*
X123596925Y-74093325D01*
X123591982Y-74119578D01*
X123559587Y-74128470D01*
X123541692Y-74128923D01*
X123475859Y-74145203D01*
X123429807Y-74187635D01*
X123407564Y-74246612D01*
X123413161Y-74312525D01*
X123442229Y-74366105D01*
X123458810Y-74384202D01*
X123478925Y-74397029D01*
X123509332Y-74405694D01*
X123556788Y-74411304D01*
X123628050Y-74414965D01*
X123729875Y-74417785D01*
X123762115Y-74418516D01*
X123872410Y-74421180D01*
X123950036Y-74424208D01*
X124001396Y-74428750D01*
X124032890Y-74435954D01*
X124050920Y-74446967D01*
X124061888Y-74462940D01*
X124066733Y-74473166D01*
X124083301Y-74516594D01*
X124088769Y-74542158D01*
X124070507Y-74550605D01*
X124015296Y-74555761D01*
X123922499Y-74557654D01*
X123791478Y-74556311D01*
X123771269Y-74555893D01*
X123651733Y-74552942D01*
X123564449Y-74549452D01*
X123502591Y-74544486D01*
X123459336Y-74537107D01*
X123427860Y-74526376D01*
X123401339Y-74511355D01*
X123389975Y-74503498D01*
X123339692Y-74458447D01*
X123300581Y-74408060D01*
X123297167Y-74401892D01*
X123270212Y-74311542D01*
X123274670Y-74216638D01*
X123307421Y-74127883D01*
X123365350Y-74055978D01*
X123406128Y-74027856D01*
X123480954Y-73997198D01*
X123535058Y-73997835D01*
G37*
X123535058Y-73997835D02*
X123571446Y-74030013D01*
X123577633Y-74041919D01*
X123596925Y-74093325D01*
X123591982Y-74119578D01*
X123559587Y-74128470D01*
X123541692Y-74128923D01*
X123475859Y-74145203D01*
X123429807Y-74187635D01*
X123407564Y-74246612D01*
X123413161Y-74312525D01*
X123442229Y-74366105D01*
X123458810Y-74384202D01*
X123478925Y-74397029D01*
X123509332Y-74405694D01*
X123556788Y-74411304D01*
X123628050Y-74414965D01*
X123729875Y-74417785D01*
X123762115Y-74418516D01*
X123872410Y-74421180D01*
X123950036Y-74424208D01*
X124001396Y-74428750D01*
X124032890Y-74435954D01*
X124050920Y-74446967D01*
X124061888Y-74462940D01*
X124066733Y-74473166D01*
X124083301Y-74516594D01*
X124088769Y-74542158D01*
X124070507Y-74550605D01*
X124015296Y-74555761D01*
X123922499Y-74557654D01*
X123791478Y-74556311D01*
X123771269Y-74555893D01*
X123651733Y-74552942D01*
X123564449Y-74549452D01*
X123502591Y-74544486D01*
X123459336Y-74537107D01*
X123427860Y-74526376D01*
X123401339Y-74511355D01*
X123389975Y-74503498D01*
X123339692Y-74458447D01*
X123300581Y-74408060D01*
X123297167Y-74401892D01*
X123270212Y-74311542D01*
X123274670Y-74216638D01*
X123307421Y-74127883D01*
X123365350Y-74055978D01*
X123406128Y-74027856D01*
X123480954Y-73997198D01*
X123535058Y-73997835D01*
G36*
X123553556Y-71214240D02*
G01*
X123578365Y-71249525D01*
X123593387Y-71287356D01*
X123596155Y-71304679D01*
X123576066Y-71313114D01*
X123532351Y-71329770D01*
X123512598Y-71337077D01*
X123444271Y-71378052D01*
X123410191Y-71437378D01*
X123411239Y-71513448D01*
X123412581Y-71519082D01*
X123431836Y-71559695D01*
X123469375Y-71589552D01*
X123529809Y-71609945D01*
X123617751Y-71622164D01*
X123737813Y-71627500D01*
X123801698Y-71628000D01*
X123902403Y-71628248D01*
X123971054Y-71629874D01*
X124014673Y-71634199D01*
X124040282Y-71642546D01*
X124054903Y-71656235D01*
X124065558Y-71676589D01*
X124066095Y-71677766D01*
X124082667Y-71716962D01*
X124088769Y-71736381D01*
X124070319Y-71739365D01*
X124019323Y-71741919D01*
X123942308Y-71743860D01*
X123845805Y-71745003D01*
X123775184Y-71745231D01*
X123638525Y-71744068D01*
X123534851Y-71739521D01*
X123458108Y-71730001D01*
X123402246Y-71713919D01*
X123361212Y-71689687D01*
X123328954Y-71655714D01*
X123306440Y-71622167D01*
X123276476Y-71541501D01*
X123269718Y-71447619D01*
X123286782Y-71359193D01*
X123296988Y-71335839D01*
X123341134Y-71280098D01*
X123404967Y-71232431D01*
X123473087Y-71202952D01*
X123506670Y-71198154D01*
X123553556Y-71214240D01*
G37*
X123553556Y-71214240D02*
X123578365Y-71249525D01*
X123593387Y-71287356D01*
X123596155Y-71304679D01*
X123576066Y-71313114D01*
X123532351Y-71329770D01*
X123512598Y-71337077D01*
X123444271Y-71378052D01*
X123410191Y-71437378D01*
X123411239Y-71513448D01*
X123412581Y-71519082D01*
X123431836Y-71559695D01*
X123469375Y-71589552D01*
X123529809Y-71609945D01*
X123617751Y-71622164D01*
X123737813Y-71627500D01*
X123801698Y-71628000D01*
X123902403Y-71628248D01*
X123971054Y-71629874D01*
X124014673Y-71634199D01*
X124040282Y-71642546D01*
X124054903Y-71656235D01*
X124065558Y-71676589D01*
X124066095Y-71677766D01*
X124082667Y-71716962D01*
X124088769Y-71736381D01*
X124070319Y-71739365D01*
X124019323Y-71741919D01*
X123942308Y-71743860D01*
X123845805Y-71745003D01*
X123775184Y-71745231D01*
X123638525Y-71744068D01*
X123534851Y-71739521D01*
X123458108Y-71730001D01*
X123402246Y-71713919D01*
X123361212Y-71689687D01*
X123328954Y-71655714D01*
X123306440Y-71622167D01*
X123276476Y-71541501D01*
X123269718Y-71447619D01*
X123286782Y-71359193D01*
X123296988Y-71335839D01*
X123341134Y-71280098D01*
X123404967Y-71232431D01*
X123473087Y-71202952D01*
X123506670Y-71198154D01*
X123553556Y-71214240D01*
G36*
X123463577Y-73873638D02*
G01*
X123394269Y-73843472D01*
X123340211Y-73796371D01*
X123312505Y-73759688D01*
X123282572Y-73693010D01*
X123272089Y-73634699D01*
X123408057Y-73634699D01*
X123436753Y-73699890D01*
X123447406Y-73712472D01*
X123471063Y-73733889D01*
X123499251Y-73747256D01*
X123541245Y-73754434D01*
X123606319Y-73757281D01*
X123672986Y-73757692D01*
X123760355Y-73756859D01*
X123818192Y-73753039D01*
X123856029Y-73744254D01*
X123883398Y-73728526D01*
X123904042Y-73709734D01*
X123943890Y-73646625D01*
X123947295Y-73578863D01*
X123914025Y-73514821D01*
X123909517Y-73509836D01*
X123886067Y-73488561D01*
X123858166Y-73475221D01*
X123816641Y-73467999D01*
X123752316Y-73465077D01*
X123681200Y-73464615D01*
X123591858Y-73465617D01*
X123532258Y-73469762D01*
X123493089Y-73478764D01*
X123465040Y-73494333D01*
X123450144Y-73507098D01*
X123412575Y-73566400D01*
X123408057Y-73634699D01*
X123272089Y-73634699D01*
X123268678Y-73615728D01*
X123272397Y-73543890D01*
X123287400Y-73503692D01*
X123291670Y-73487918D01*
X123275750Y-73477450D01*
X123233089Y-73470144D01*
X123168106Y-73464615D01*
X123095732Y-73458563D01*
X123052187Y-73450156D01*
X123027287Y-73434859D01*
X123010845Y-73408136D01*
X123003564Y-73391346D01*
X122976963Y-73327846D01*
X123430289Y-73327919D01*
X123576320Y-73328167D01*
X123688655Y-73329128D01*
X123772678Y-73331206D01*
X123833769Y-73334807D01*
X123877309Y-73340335D01*
X123908679Y-73348196D01*
X123933262Y-73358793D01*
X123947294Y-73366818D01*
X124023388Y-73433272D01*
X124071084Y-73517530D01*
X124088199Y-73610751D01*
X124072546Y-73704100D01*
X124044418Y-73759688D01*
X123995760Y-73818043D01*
X123936333Y-73857814D01*
X123858507Y-73881810D01*
X123754652Y-73892839D01*
X123678462Y-73894401D01*
X123672986Y-73894191D01*
X123555765Y-73889678D01*
X123463577Y-73873638D01*
G37*
X123463577Y-73873638D02*
X123394269Y-73843472D01*
X123340211Y-73796371D01*
X123312505Y-73759688D01*
X123282572Y-73693010D01*
X123272089Y-73634699D01*
X123408057Y-73634699D01*
X123436753Y-73699890D01*
X123447406Y-73712472D01*
X123471063Y-73733889D01*
X123499251Y-73747256D01*
X123541245Y-73754434D01*
X123606319Y-73757281D01*
X123672986Y-73757692D01*
X123760355Y-73756859D01*
X123818192Y-73753039D01*
X123856029Y-73744254D01*
X123883398Y-73728526D01*
X123904042Y-73709734D01*
X123943890Y-73646625D01*
X123947295Y-73578863D01*
X123914025Y-73514821D01*
X123909517Y-73509836D01*
X123886067Y-73488561D01*
X123858166Y-73475221D01*
X123816641Y-73467999D01*
X123752316Y-73465077D01*
X123681200Y-73464615D01*
X123591858Y-73465617D01*
X123532258Y-73469762D01*
X123493089Y-73478764D01*
X123465040Y-73494333D01*
X123450144Y-73507098D01*
X123412575Y-73566400D01*
X123408057Y-73634699D01*
X123272089Y-73634699D01*
X123268678Y-73615728D01*
X123272397Y-73543890D01*
X123287400Y-73503692D01*
X123291670Y-73487918D01*
X123275750Y-73477450D01*
X123233089Y-73470144D01*
X123168106Y-73464615D01*
X123095732Y-73458563D01*
X123052187Y-73450156D01*
X123027287Y-73434859D01*
X123010845Y-73408136D01*
X123003564Y-73391346D01*
X122976963Y-73327846D01*
X123430289Y-73327919D01*
X123576320Y-73328167D01*
X123688655Y-73329128D01*
X123772678Y-73331206D01*
X123833769Y-73334807D01*
X123877309Y-73340335D01*
X123908679Y-73348196D01*
X123933262Y-73358793D01*
X123947294Y-73366818D01*
X124023388Y-73433272D01*
X124071084Y-73517530D01*
X124088199Y-73610751D01*
X124072546Y-73704100D01*
X124044418Y-73759688D01*
X123995760Y-73818043D01*
X123936333Y-73857814D01*
X123858507Y-73881810D01*
X123754652Y-73892839D01*
X123678462Y-73894401D01*
X123672986Y-73894191D01*
X123555765Y-73889678D01*
X123463577Y-73873638D01*
G36*
X123470710Y-71068968D02*
G01*
X123405167Y-71050540D01*
X123356912Y-71020640D01*
X123318767Y-70976920D01*
X123306440Y-70957859D01*
X123274336Y-70871274D01*
X123272490Y-70784640D01*
X123404721Y-70784640D01*
X123409780Y-70850720D01*
X123447151Y-70906041D01*
X123513473Y-70944364D01*
X123566116Y-70956651D01*
X123619948Y-70961529D01*
X123653438Y-70960161D01*
X123658923Y-70956751D01*
X123651472Y-70934247D01*
X123631753Y-70885818D01*
X123603718Y-70821092D01*
X123597692Y-70807557D01*
X123556096Y-70725756D01*
X123519538Y-70680688D01*
X123485296Y-70670783D01*
X123450648Y-70694474D01*
X123435339Y-70714040D01*
X123404721Y-70784640D01*
X123272490Y-70784640D01*
X123272316Y-70776478D01*
X123297838Y-70684776D01*
X123348361Y-70607472D01*
X123393590Y-70570186D01*
X123475663Y-70540647D01*
X123540607Y-70538301D01*
X123627445Y-70543615D01*
X123715103Y-70743885D01*
X123759887Y-70841261D01*
X123795913Y-70904887D01*
X123827117Y-70937971D01*
X123857436Y-70943720D01*
X123890805Y-70925342D01*
X123912923Y-70905077D01*
X123948393Y-70846111D01*
X123950879Y-70781976D01*
X123923235Y-70723074D01*
X123868320Y-70679803D01*
X123848928Y-70672064D01*
X123788364Y-70634994D01*
X123762552Y-70592346D01*
X123740471Y-70533846D01*
X123824184Y-70533846D01*
X123881150Y-70539018D01*
X123929189Y-70559277D01*
X123984346Y-70601738D01*
X123991514Y-70608049D01*
X124040585Y-70655280D01*
X124066920Y-70695879D01*
X124079035Y-70746672D01*
X124083003Y-70788780D01*
X124083991Y-70864098D01*
X124071466Y-70917714D01*
X124052869Y-70951162D01*
X124011975Y-71003732D01*
X123967748Y-71040121D01*
X123912126Y-71063150D01*
X123837047Y-71075641D01*
X123734449Y-71080413D01*
X123682376Y-71080794D01*
X123619948Y-71079499D01*
X123560720Y-71078270D01*
X123470710Y-71068968D01*
G37*
X123470710Y-71068968D02*
X123405167Y-71050540D01*
X123356912Y-71020640D01*
X123318767Y-70976920D01*
X123306440Y-70957859D01*
X123274336Y-70871274D01*
X123272490Y-70784640D01*
X123404721Y-70784640D01*
X123409780Y-70850720D01*
X123447151Y-70906041D01*
X123513473Y-70944364D01*
X123566116Y-70956651D01*
X123619948Y-70961529D01*
X123653438Y-70960161D01*
X123658923Y-70956751D01*
X123651472Y-70934247D01*
X123631753Y-70885818D01*
X123603718Y-70821092D01*
X123597692Y-70807557D01*
X123556096Y-70725756D01*
X123519538Y-70680688D01*
X123485296Y-70670783D01*
X123450648Y-70694474D01*
X123435339Y-70714040D01*
X123404721Y-70784640D01*
X123272490Y-70784640D01*
X123272316Y-70776478D01*
X123297838Y-70684776D01*
X123348361Y-70607472D01*
X123393590Y-70570186D01*
X123475663Y-70540647D01*
X123540607Y-70538301D01*
X123627445Y-70543615D01*
X123715103Y-70743885D01*
X123759887Y-70841261D01*
X123795913Y-70904887D01*
X123827117Y-70937971D01*
X123857436Y-70943720D01*
X123890805Y-70925342D01*
X123912923Y-70905077D01*
X123948393Y-70846111D01*
X123950879Y-70781976D01*
X123923235Y-70723074D01*
X123868320Y-70679803D01*
X123848928Y-70672064D01*
X123788364Y-70634994D01*
X123762552Y-70592346D01*
X123740471Y-70533846D01*
X123824184Y-70533846D01*
X123881150Y-70539018D01*
X123929189Y-70559277D01*
X123984346Y-70601738D01*
X123991514Y-70608049D01*
X124040585Y-70655280D01*
X124066920Y-70695879D01*
X124079035Y-70746672D01*
X124083003Y-70788780D01*
X124083991Y-70864098D01*
X124071466Y-70917714D01*
X124052869Y-70951162D01*
X124011975Y-71003732D01*
X123967748Y-71040121D01*
X123912126Y-71063150D01*
X123837047Y-71075641D01*
X123734449Y-71080413D01*
X123682376Y-71080794D01*
X123619948Y-71079499D01*
X123560720Y-71078270D01*
X123470710Y-71068968D01*
G36*
X124106515Y-76639615D02*
G01*
X123783402Y-76649385D01*
X123662729Y-76653421D01*
X123575141Y-76657656D01*
X123514650Y-76662903D01*
X123475268Y-76669975D01*
X123451007Y-76679689D01*
X123435880Y-76692856D01*
X123432606Y-76697081D01*
X123407034Y-76761091D01*
X123417153Y-76825792D01*
X123444000Y-76864308D01*
X123463024Y-76879975D01*
X123487988Y-76890820D01*
X123525834Y-76897712D01*
X123583502Y-76901521D01*
X123667935Y-76903117D01*
X123755928Y-76903385D01*
X123866323Y-76903437D01*
X123944463Y-76905328D01*
X123997165Y-76911655D01*
X124031242Y-76925017D01*
X124053511Y-76948015D01*
X124070787Y-76983246D01*
X124088738Y-77030303D01*
X124108278Y-77081697D01*
X123761485Y-77075579D01*
X123636468Y-77073116D01*
X123544082Y-77070233D01*
X123477881Y-77066102D01*
X123431420Y-77059893D01*
X123398256Y-77050774D01*
X123371944Y-77037917D01*
X123348729Y-77022416D01*
X123274569Y-76947629D01*
X123231684Y-76856372D01*
X123221412Y-76757117D01*
X123245089Y-76658336D01*
X123281358Y-76595633D01*
X123317358Y-76552039D01*
X123355075Y-76520155D01*
X123401199Y-76498190D01*
X123462421Y-76484351D01*
X123545431Y-76476847D01*
X123656919Y-76473883D01*
X123737062Y-76473539D01*
X124032065Y-76473539D01*
X124106515Y-76639615D01*
G37*
X124106515Y-76639615D02*
X123783402Y-76649385D01*
X123662729Y-76653421D01*
X123575141Y-76657656D01*
X123514650Y-76662903D01*
X123475268Y-76669975D01*
X123451007Y-76679689D01*
X123435880Y-76692856D01*
X123432606Y-76697081D01*
X123407034Y-76761091D01*
X123417153Y-76825792D01*
X123444000Y-76864308D01*
X123463024Y-76879975D01*
X123487988Y-76890820D01*
X123525834Y-76897712D01*
X123583502Y-76901521D01*
X123667935Y-76903117D01*
X123755928Y-76903385D01*
X123866323Y-76903437D01*
X123944463Y-76905328D01*
X123997165Y-76911655D01*
X124031242Y-76925017D01*
X124053511Y-76948015D01*
X124070787Y-76983246D01*
X124088738Y-77030303D01*
X124108278Y-77081697D01*
X123761485Y-77075579D01*
X123636468Y-77073116D01*
X123544082Y-77070233D01*
X123477881Y-77066102D01*
X123431420Y-77059893D01*
X123398256Y-77050774D01*
X123371944Y-77037917D01*
X123348729Y-77022416D01*
X123274569Y-76947629D01*
X123231684Y-76856372D01*
X123221412Y-76757117D01*
X123245089Y-76658336D01*
X123281358Y-76595633D01*
X123317358Y-76552039D01*
X123355075Y-76520155D01*
X123401199Y-76498190D01*
X123462421Y-76484351D01*
X123545431Y-76476847D01*
X123656919Y-76473883D01*
X123737062Y-76473539D01*
X124032065Y-76473539D01*
X124106515Y-76639615D01*
G36*
X123391055Y-77795222D02*
G01*
X123325215Y-77749579D01*
X123258681Y-77667198D01*
X123225676Y-77576454D01*
X123225071Y-77549823D01*
X123406856Y-77549823D01*
X123432119Y-77600631D01*
X123480847Y-77635724D01*
X123534468Y-77645846D01*
X123577552Y-77643410D01*
X123590126Y-77630086D01*
X123580719Y-77596868D01*
X123558483Y-77544506D01*
X123530610Y-77485976D01*
X123529872Y-77484521D01*
X123503777Y-77434911D01*
X123486363Y-77415000D01*
X123468107Y-77419910D01*
X123444120Y-77440584D01*
X123409406Y-77493181D01*
X123406856Y-77549823D01*
X123225071Y-77549823D01*
X123223573Y-77483815D01*
X123249745Y-77395746D01*
X123301567Y-77318714D01*
X123376412Y-77259184D01*
X123471654Y-77223622D01*
X123541756Y-77216429D01*
X123571009Y-77217246D01*
X123593407Y-77224086D01*
X123613474Y-77242888D01*
X123635733Y-77279592D01*
X123664709Y-77340138D01*
X123704927Y-77430466D01*
X123705129Y-77430923D01*
X123743210Y-77514067D01*
X123777025Y-77582247D01*
X123802933Y-77628495D01*
X123817295Y-77645842D01*
X123817411Y-77645846D01*
X123848685Y-77630557D01*
X123883157Y-77594804D01*
X123907990Y-77553758D01*
X123912923Y-77532963D01*
X123895862Y-77476230D01*
X123853133Y-77427373D01*
X123806155Y-77403535D01*
X123771522Y-77380603D01*
X123732081Y-77335682D01*
X123698009Y-77282877D01*
X123679480Y-77236290D01*
X123678462Y-77226548D01*
X123695215Y-77215582D01*
X123738039Y-77214921D01*
X123795781Y-77222980D01*
X123857289Y-77238173D01*
X123911409Y-77258914D01*
X123913510Y-77259962D01*
X124000660Y-77322379D01*
X124059939Y-77403274D01*
X124089034Y-77495144D01*
X124085634Y-77590487D01*
X124047428Y-77681802D01*
X124044741Y-77685862D01*
X123979642Y-77757694D01*
X123894705Y-77804927D01*
X123783021Y-77831066D01*
X123751643Y-77834574D01*
X123603536Y-77840787D01*
X123534468Y-77833339D01*
X123485036Y-77828008D01*
X123391055Y-77795222D01*
G37*
X123391055Y-77795222D02*
X123325215Y-77749579D01*
X123258681Y-77667198D01*
X123225676Y-77576454D01*
X123225071Y-77549823D01*
X123406856Y-77549823D01*
X123432119Y-77600631D01*
X123480847Y-77635724D01*
X123534468Y-77645846D01*
X123577552Y-77643410D01*
X123590126Y-77630086D01*
X123580719Y-77596868D01*
X123558483Y-77544506D01*
X123530610Y-77485976D01*
X123529872Y-77484521D01*
X123503777Y-77434911D01*
X123486363Y-77415000D01*
X123468107Y-77419910D01*
X123444120Y-77440584D01*
X123409406Y-77493181D01*
X123406856Y-77549823D01*
X123225071Y-77549823D01*
X123223573Y-77483815D01*
X123249745Y-77395746D01*
X123301567Y-77318714D01*
X123376412Y-77259184D01*
X123471654Y-77223622D01*
X123541756Y-77216429D01*
X123571009Y-77217246D01*
X123593407Y-77224086D01*
X123613474Y-77242888D01*
X123635733Y-77279592D01*
X123664709Y-77340138D01*
X123704927Y-77430466D01*
X123705129Y-77430923D01*
X123743210Y-77514067D01*
X123777025Y-77582247D01*
X123802933Y-77628495D01*
X123817295Y-77645842D01*
X123817411Y-77645846D01*
X123848685Y-77630557D01*
X123883157Y-77594804D01*
X123907990Y-77553758D01*
X123912923Y-77532963D01*
X123895862Y-77476230D01*
X123853133Y-77427373D01*
X123806155Y-77403535D01*
X123771522Y-77380603D01*
X123732081Y-77335682D01*
X123698009Y-77282877D01*
X123679480Y-77236290D01*
X123678462Y-77226548D01*
X123695215Y-77215582D01*
X123738039Y-77214921D01*
X123795781Y-77222980D01*
X123857289Y-77238173D01*
X123911409Y-77258914D01*
X123913510Y-77259962D01*
X124000660Y-77322379D01*
X124059939Y-77403274D01*
X124089034Y-77495144D01*
X124085634Y-77590487D01*
X124047428Y-77681802D01*
X124044741Y-77685862D01*
X123979642Y-77757694D01*
X123894705Y-77804927D01*
X123783021Y-77831066D01*
X123751643Y-77834574D01*
X123603536Y-77840787D01*
X123534468Y-77833339D01*
X123485036Y-77828008D01*
X123391055Y-77795222D01*
G36*
X124058028Y-74712305D02*
G01*
X124078802Y-74755319D01*
X124088646Y-74781290D01*
X124088769Y-74782491D01*
X124070606Y-74786986D01*
X124021612Y-74790556D01*
X123950031Y-74792752D01*
X123892068Y-74793231D01*
X123798170Y-74793242D01*
X123739203Y-74797534D01*
X123711079Y-74812497D01*
X123709706Y-74844518D01*
X123730998Y-74899986D01*
X123770136Y-74983731D01*
X123802643Y-75045311D01*
X123830845Y-75076983D01*
X123861582Y-75086294D01*
X123863104Y-75086308D01*
X123916054Y-75070943D01*
X123944660Y-75025453D01*
X123948803Y-74955834D01*
X123948084Y-74905687D01*
X123962527Y-74879246D01*
X123997218Y-74862757D01*
X124041416Y-74853267D01*
X124066493Y-74866943D01*
X124070082Y-74872093D01*
X124084496Y-74920575D01*
X124086537Y-74988469D01*
X124076983Y-75058388D01*
X124059522Y-75107932D01*
X124001364Y-75176430D01*
X123920408Y-75215366D01*
X123857160Y-75223077D01*
X123800111Y-75217193D01*
X123753542Y-75195899D01*
X123712181Y-75153735D01*
X123670755Y-75085241D01*
X123623993Y-74984956D01*
X123621350Y-74978846D01*
X123579617Y-74888510D01*
X123545391Y-74832765D01*
X123514635Y-74808871D01*
X123483311Y-74814087D01*
X123447383Y-74845672D01*
X123439116Y-74855117D01*
X123407058Y-74918383D01*
X123408407Y-74983936D01*
X123439838Y-75041028D01*
X123498024Y-75078907D01*
X123509446Y-75082426D01*
X123564837Y-75116700D01*
X123591518Y-75160191D01*
X123617960Y-75223077D01*
X123549548Y-75223077D01*
X123450110Y-75203948D01*
X123358902Y-75147169D01*
X123328389Y-75117622D01*
X123289228Y-75050458D01*
X123271500Y-74965044D01*
X123276303Y-74876499D01*
X123304733Y-74799940D01*
X123305279Y-74799064D01*
X123340127Y-74751715D01*
X123380852Y-74716759D01*
X123433925Y-74692175D01*
X123505814Y-74675938D01*
X123602992Y-74666025D01*
X123731928Y-74660414D01*
X123750298Y-74659923D01*
X124027287Y-74652859D01*
X124058028Y-74712305D01*
G37*
X124058028Y-74712305D02*
X124078802Y-74755319D01*
X124088646Y-74781290D01*
X124088769Y-74782491D01*
X124070606Y-74786986D01*
X124021612Y-74790556D01*
X123950031Y-74792752D01*
X123892068Y-74793231D01*
X123798170Y-74793242D01*
X123739203Y-74797534D01*
X123711079Y-74812497D01*
X123709706Y-74844518D01*
X123730998Y-74899986D01*
X123770136Y-74983731D01*
X123802643Y-75045311D01*
X123830845Y-75076983D01*
X123861582Y-75086294D01*
X123863104Y-75086308D01*
X123916054Y-75070943D01*
X123944660Y-75025453D01*
X123948803Y-74955834D01*
X123948084Y-74905687D01*
X123962527Y-74879246D01*
X123997218Y-74862757D01*
X124041416Y-74853267D01*
X124066493Y-74866943D01*
X124070082Y-74872093D01*
X124084496Y-74920575D01*
X124086537Y-74988469D01*
X124076983Y-75058388D01*
X124059522Y-75107932D01*
X124001364Y-75176430D01*
X123920408Y-75215366D01*
X123857160Y-75223077D01*
X123800111Y-75217193D01*
X123753542Y-75195899D01*
X123712181Y-75153735D01*
X123670755Y-75085241D01*
X123623993Y-74984956D01*
X123621350Y-74978846D01*
X123579617Y-74888510D01*
X123545391Y-74832765D01*
X123514635Y-74808871D01*
X123483311Y-74814087D01*
X123447383Y-74845672D01*
X123439116Y-74855117D01*
X123407058Y-74918383D01*
X123408407Y-74983936D01*
X123439838Y-75041028D01*
X123498024Y-75078907D01*
X123509446Y-75082426D01*
X123564837Y-75116700D01*
X123591518Y-75160191D01*
X123617960Y-75223077D01*
X123549548Y-75223077D01*
X123450110Y-75203948D01*
X123358902Y-75147169D01*
X123328389Y-75117622D01*
X123289228Y-75050458D01*
X123271500Y-74965044D01*
X123276303Y-74876499D01*
X123304733Y-74799940D01*
X123305279Y-74799064D01*
X123340127Y-74751715D01*
X123380852Y-74716759D01*
X123433925Y-74692175D01*
X123505814Y-74675938D01*
X123602992Y-74666025D01*
X123731928Y-74660414D01*
X123750298Y-74659923D01*
X124027287Y-74652859D01*
X124058028Y-74712305D01*
G36*
X124066095Y-71912227D02*
G01*
X124082667Y-71951424D01*
X124088769Y-71970843D01*
X124070610Y-71974558D01*
X124021648Y-71977505D01*
X123950153Y-71979309D01*
X123893385Y-71979692D01*
X123811371Y-71981339D01*
X123746309Y-71985778D01*
X123706467Y-71992260D01*
X123698000Y-71997410D01*
X123706646Y-72032023D01*
X123728823Y-72086360D01*
X123758886Y-72149278D01*
X123791192Y-72209632D01*
X123820098Y-72256279D01*
X123839961Y-72278074D01*
X123840175Y-72278161D01*
X123876935Y-72276286D01*
X123912026Y-72259475D01*
X123940528Y-72229961D01*
X123950061Y-72186884D01*
X123948950Y-72150068D01*
X123948133Y-72097926D01*
X123960349Y-72070556D01*
X123992624Y-72054118D01*
X123998710Y-72052045D01*
X124044739Y-72044919D01*
X124072687Y-72063976D01*
X124086007Y-72113647D01*
X124088470Y-72167303D01*
X124070210Y-72263858D01*
X124044131Y-72313841D01*
X123982868Y-72375571D01*
X123907670Y-72408310D01*
X123828211Y-72411247D01*
X123754167Y-72383576D01*
X123707769Y-72341953D01*
X123681793Y-72300396D01*
X123648907Y-72235078D01*
X123615557Y-72158962D01*
X123610461Y-72146274D01*
X123573565Y-72062667D01*
X123541046Y-72014470D01*
X123508718Y-71998970D01*
X123472394Y-72013450D01*
X123444000Y-72038308D01*
X123409039Y-72097061D01*
X123406417Y-72161707D01*
X123433358Y-72220992D01*
X123487088Y-72263661D01*
X123500950Y-72269261D01*
X123551936Y-72301867D01*
X123589787Y-72349470D01*
X123620850Y-72409539D01*
X123532768Y-72409539D01*
X123478951Y-72406003D01*
X123436534Y-72390844D01*
X123391279Y-72357232D01*
X123356420Y-72324965D01*
X123307062Y-72274791D01*
X123280547Y-72235807D01*
X123269911Y-72193936D01*
X123268154Y-72146540D01*
X123283528Y-72042667D01*
X123309117Y-71986410D01*
X123340124Y-71942253D01*
X123374795Y-71909899D01*
X123419520Y-71887562D01*
X123480692Y-71873454D01*
X123564701Y-71865789D01*
X123677940Y-71862780D01*
X123752509Y-71862462D01*
X124043420Y-71862462D01*
X124066095Y-71912227D01*
G37*
X124066095Y-71912227D02*
X124082667Y-71951424D01*
X124088769Y-71970843D01*
X124070610Y-71974558D01*
X124021648Y-71977505D01*
X123950153Y-71979309D01*
X123893385Y-71979692D01*
X123811371Y-71981339D01*
X123746309Y-71985778D01*
X123706467Y-71992260D01*
X123698000Y-71997410D01*
X123706646Y-72032023D01*
X123728823Y-72086360D01*
X123758886Y-72149278D01*
X123791192Y-72209632D01*
X123820098Y-72256279D01*
X123839961Y-72278074D01*
X123840175Y-72278161D01*
X123876935Y-72276286D01*
X123912026Y-72259475D01*
X123940528Y-72229961D01*
X123950061Y-72186884D01*
X123948950Y-72150068D01*
X123948133Y-72097926D01*
X123960349Y-72070556D01*
X123992624Y-72054118D01*
X123998710Y-72052045D01*
X124044739Y-72044919D01*
X124072687Y-72063976D01*
X124086007Y-72113647D01*
X124088470Y-72167303D01*
X124070210Y-72263858D01*
X124044131Y-72313841D01*
X123982868Y-72375571D01*
X123907670Y-72408310D01*
X123828211Y-72411247D01*
X123754167Y-72383576D01*
X123707769Y-72341953D01*
X123681793Y-72300396D01*
X123648907Y-72235078D01*
X123615557Y-72158962D01*
X123610461Y-72146274D01*
X123573565Y-72062667D01*
X123541046Y-72014470D01*
X123508718Y-71998970D01*
X123472394Y-72013450D01*
X123444000Y-72038308D01*
X123409039Y-72097061D01*
X123406417Y-72161707D01*
X123433358Y-72220992D01*
X123487088Y-72263661D01*
X123500950Y-72269261D01*
X123551936Y-72301867D01*
X123589787Y-72349470D01*
X123620850Y-72409539D01*
X123532768Y-72409539D01*
X123478951Y-72406003D01*
X123436534Y-72390844D01*
X123391279Y-72357232D01*
X123356420Y-72324965D01*
X123307062Y-72274791D01*
X123280547Y-72235807D01*
X123269911Y-72193936D01*
X123268154Y-72146540D01*
X123283528Y-72042667D01*
X123309117Y-71986410D01*
X123340124Y-71942253D01*
X123374795Y-71909899D01*
X123419520Y-71887562D01*
X123480692Y-71873454D01*
X123564701Y-71865789D01*
X123677940Y-71862780D01*
X123752509Y-71862462D01*
X124043420Y-71862462D01*
X124066095Y-71912227D01*
G36*
X120472091Y-71945500D02*
G01*
X120483070Y-72002569D01*
X120499095Y-72087731D01*
X120518233Y-72190628D01*
X120538551Y-72300904D01*
X120544132Y-72331385D01*
X120563917Y-72433145D01*
X120583373Y-72521795D01*
X120600697Y-72589892D01*
X120614088Y-72629996D01*
X120618079Y-72636677D01*
X120646342Y-72653081D01*
X120701109Y-72676601D01*
X120771588Y-72702684D01*
X120786769Y-72707858D01*
X120880896Y-72742044D01*
X120987101Y-72784477D01*
X121082473Y-72826003D01*
X121082916Y-72826208D01*
X121232525Y-72895360D01*
X121901617Y-72440488D01*
X122194116Y-72732500D01*
X122281170Y-72820820D01*
X122357909Y-72901375D01*
X122420237Y-72969640D01*
X122464056Y-73021092D01*
X122485270Y-73051206D01*
X122486616Y-73055526D01*
X122476016Y-73080889D01*
X122446547Y-73132642D01*
X122401705Y-73205132D01*
X122344984Y-73292706D01*
X122281462Y-73387388D01*
X122216668Y-73483484D01*
X122160287Y-73569163D01*
X122115788Y-73638984D01*
X122086639Y-73687506D01*
X122076308Y-73709218D01*
X122085050Y-73735707D01*
X122108087Y-73785938D01*
X122140631Y-73849549D01*
X122144249Y-73856292D01*
X122187210Y-73941954D01*
X122208279Y-74000694D01*
X122208503Y-74037228D01*
X122188928Y-74056269D01*
X122188654Y-74056380D01*
X122165472Y-74065898D01*
X122110441Y-74088597D01*
X122027822Y-74122718D01*
X121921872Y-74166500D01*
X121796852Y-74218184D01*
X121657020Y-74276008D01*
X121521637Y-74332009D01*
X121372234Y-74393553D01*
X121233832Y-74450061D01*
X121110673Y-74499839D01*
X121007002Y-74541194D01*
X120927059Y-74572432D01*
X120875088Y-74591859D01*
X120855692Y-74597846D01*
X120833443Y-74582832D01*
X120797982Y-74543561D01*
X120758887Y-74491193D01*
X120635245Y-74342059D01*
X120493522Y-74225489D01*
X120336704Y-74142882D01*
X120167775Y-74095634D01*
X119989722Y-74085143D01*
X119907539Y-74092769D01*
X119737031Y-74134318D01*
X119586459Y-74205877D01*
X119457309Y-74303005D01*
X119351064Y-74421266D01*
X119269210Y-74556220D01*
X119213232Y-74703429D01*
X119184615Y-74858456D01*
X119184844Y-75016861D01*
X119215405Y-75174206D01*
X119277782Y-75326054D01*
X119373460Y-75467965D01*
X119427572Y-75527197D01*
X119566520Y-75640797D01*
X119718361Y-75719894D01*
X119878667Y-75765014D01*
X120043012Y-75776684D01*
X120206971Y-75755431D01*
X120366118Y-75701780D01*
X120516025Y-75616260D01*
X120652267Y-75499395D01*
X120758887Y-75368807D01*
X120799642Y-75314412D01*
X120834718Y-75275986D01*
X120855726Y-75262154D01*
X120878635Y-75269397D01*
X120933365Y-75289995D01*
X121015672Y-75322254D01*
X121121315Y-75364479D01*
X121246050Y-75414977D01*
X121385636Y-75472052D01*
X121521670Y-75528146D01*
X121671201Y-75590033D01*
X121809767Y-75647356D01*
X121933107Y-75698356D01*
X122036964Y-75741273D01*
X122117080Y-75774347D01*
X122169195Y-75795819D01*
X122188654Y-75803775D01*
X122208423Y-75822571D01*
X122208365Y-75858926D01*
X122187441Y-75917521D01*
X122144613Y-76003032D01*
X122144249Y-76003708D01*
X122111012Y-76068093D01*
X122086802Y-76120139D01*
X122076404Y-76149488D01*
X122076308Y-76150783D01*
X122086855Y-76172876D01*
X122116184Y-76221652D01*
X122160827Y-76291669D01*
X122217314Y-76377486D01*
X122281462Y-76472612D01*
X122346411Y-76569460D01*
X122402896Y-76656747D01*
X122447421Y-76728819D01*
X122476490Y-76780023D01*
X122486616Y-76804474D01*
X122473307Y-76826990D01*
X122436112Y-76872258D01*
X122379128Y-76935756D01*
X122306449Y-77012961D01*
X122222171Y-77099349D01*
X122194016Y-77127601D01*
X121901416Y-77419713D01*
X121575104Y-77197369D01*
X121474897Y-77129798D01*
X121384963Y-77070493D01*
X121310510Y-77022783D01*
X121256751Y-76989993D01*
X121228894Y-76975452D01*
X121226912Y-76975026D01*
X121200655Y-76982692D01*
X121147837Y-77003311D01*
X121077310Y-77033315D01*
X121030093Y-77054375D01*
X120939694Y-77093752D01*
X120848366Y-77130835D01*
X120771200Y-77159585D01*
X120747692Y-77167395D01*
X120684916Y-77189583D01*
X120636411Y-77211273D01*
X120618079Y-77223187D01*
X120606859Y-77249477D01*
X120590954Y-77306858D01*
X120572167Y-77387882D01*
X120552299Y-77485105D01*
X120544132Y-77528615D01*
X120523829Y-77639104D01*
X120504170Y-77745084D01*
X120487088Y-77836199D01*
X120474518Y-77902092D01*
X120472091Y-77914500D01*
X120451845Y-78017077D01*
X120024701Y-78017077D01*
X119884246Y-78016847D01*
X119777979Y-78015901D01*
X119701013Y-78013859D01*
X119648460Y-78010338D01*
X119615433Y-78004957D01*
X119597045Y-77997334D01*
X119588408Y-77987088D01*
X119586807Y-77982885D01*
X119581127Y-77957530D01*
X119569795Y-77901516D01*
X119554179Y-77822036D01*
X119535647Y-77726288D01*
X119515569Y-77621467D01*
X119495312Y-77514768D01*
X119476246Y-77413387D01*
X119459739Y-77324521D01*
X119447159Y-77255363D01*
X119439875Y-77213111D01*
X119438616Y-77203710D01*
X119421763Y-77195193D01*
X119376870Y-77176340D01*
X119312430Y-77150676D01*
X119287192Y-77140877D01*
X119189686Y-77101352D01*
X119081959Y-77054808D01*
X118991172Y-77013123D01*
X118921753Y-76982450D01*
X118864710Y-76962044D01*
X118829777Y-76955232D01*
X118825095Y-76956318D01*
X118802991Y-76970715D01*
X118753831Y-77003588D01*
X118682848Y-77051410D01*
X118595278Y-77110652D01*
X118496357Y-77177785D01*
X118476830Y-77191059D01*
X118361140Y-77268954D01*
X118273044Y-77326213D01*
X118208486Y-77365119D01*
X118163411Y-77387956D01*
X118133763Y-77397006D01*
X118115485Y-77394552D01*
X118115369Y-77394489D01*
X118091361Y-77375173D01*
X118044947Y-77332449D01*
X117980937Y-77270949D01*
X117904145Y-77195302D01*
X117819382Y-77110139D01*
X117809922Y-77100535D01*
X117705989Y-76993210D01*
X117629675Y-76910385D01*
X117579571Y-76850395D01*
X117554270Y-76811577D01*
X117551004Y-76794480D01*
X117565250Y-76769527D01*
X117598156Y-76717745D01*
X117646208Y-76644480D01*
X117705890Y-76555080D01*
X117773688Y-76454889D01*
X117789639Y-76431499D01*
X118016420Y-76099407D01*
X117948353Y-75949435D01*
X117908685Y-75858230D01*
X117868791Y-75760331D01*
X117836983Y-75676169D01*
X117835674Y-75672462D01*
X117811576Y-75606631D01*
X117791200Y-75555884D01*
X117778936Y-75531158D01*
X117778901Y-75531116D01*
X117756734Y-75523271D01*
X117702217Y-75509934D01*
X117621480Y-75492430D01*
X117520650Y-75472083D01*
X117405856Y-75450218D01*
X117396178Y-75448429D01*
X117277904Y-75426496D01*
X117170542Y-75406360D01*
X117080917Y-75389320D01*
X117015851Y-75376672D01*
X116982168Y-75369716D01*
X116981654Y-75369594D01*
X116967325Y-75365361D01*
X116956507Y-75357129D01*
X116948706Y-75339967D01*
X116943429Y-75308942D01*
X116940182Y-75259122D01*
X116938472Y-75185576D01*
X116937807Y-75083371D01*
X116937693Y-74947575D01*
X116937692Y-74930000D01*
X116937776Y-74790122D01*
X116938355Y-74684388D01*
X116939922Y-74607868D01*
X116942972Y-74555628D01*
X116947996Y-74522737D01*
X116955489Y-74504263D01*
X116965944Y-74495273D01*
X116979853Y-74490837D01*
X116981654Y-74490406D01*
X117014145Y-74483667D01*
X117078252Y-74471192D01*
X117167151Y-74454281D01*
X117274019Y-74434229D01*
X117392033Y-74412336D01*
X117396178Y-74411571D01*
X117511831Y-74389641D01*
X117614014Y-74369123D01*
X117696598Y-74351341D01*
X117753456Y-74337619D01*
X117778458Y-74329282D01*
X117778901Y-74328884D01*
X117791110Y-74304323D01*
X117811456Y-74253685D01*
X117835545Y-74187905D01*
X117835674Y-74187539D01*
X117866818Y-74104683D01*
X117906491Y-74007000D01*
X117946381Y-73914923D01*
X117948353Y-73910566D01*
X118016420Y-73760593D01*
X117789639Y-73428502D01*
X117720504Y-73326626D01*
X117658697Y-73234343D01*
X117607733Y-73156997D01*
X117571127Y-73099936D01*
X117552394Y-73068505D01*
X117551004Y-73065521D01*
X117557190Y-73042679D01*
X117587035Y-73000018D01*
X117641947Y-72935872D01*
X117723334Y-72848579D01*
X117809922Y-72759465D01*
X117895247Y-72673559D01*
X117973108Y-72596673D01*
X118038697Y-72533436D01*
X118087205Y-72488477D01*
X118113825Y-72466424D01*
X118115195Y-72465604D01*
X118133463Y-72463166D01*
X118163295Y-72472350D01*
X118208721Y-72495426D01*
X118273770Y-72534663D01*
X118362470Y-72592330D01*
X118476657Y-72669205D01*
X118577162Y-72737430D01*
X118667303Y-72798418D01*
X118741849Y-72848644D01*
X118795565Y-72884584D01*
X118823218Y-72902713D01*
X118825095Y-72903854D01*
X118851590Y-72901641D01*
X118903086Y-72884862D01*
X118969851Y-72856858D01*
X118991172Y-72846878D01*
X119086159Y-72803328D01*
X119193937Y-72756866D01*
X119287192Y-72719123D01*
X119356406Y-72691927D01*
X119409006Y-72670325D01*
X119436497Y-72657842D01*
X119438616Y-72656291D01*
X119442124Y-72633332D01*
X119451738Y-72579214D01*
X119466089Y-72501132D01*
X119483807Y-72406281D01*
X119503525Y-72301857D01*
X119523874Y-72195056D01*
X119543486Y-72093074D01*
X119560991Y-72003106D01*
X119575022Y-71932347D01*
X119584209Y-71887994D01*
X119586807Y-71877115D01*
X119593218Y-71865878D01*
X119607697Y-71857395D01*
X119635133Y-71851286D01*
X119680411Y-71847168D01*
X119748420Y-71844659D01*
X119844047Y-71843379D01*
X119972180Y-71842946D01*
X120024701Y-71842923D01*
X120451845Y-71842923D01*
X120472091Y-71945500D01*
G37*
X120472091Y-71945500D02*
X120483070Y-72002569D01*
X120499095Y-72087731D01*
X120518233Y-72190628D01*
X120538551Y-72300904D01*
X120544132Y-72331385D01*
X120563917Y-72433145D01*
X120583373Y-72521795D01*
X120600697Y-72589892D01*
X120614088Y-72629996D01*
X120618079Y-72636677D01*
X120646342Y-72653081D01*
X120701109Y-72676601D01*
X120771588Y-72702684D01*
X120786769Y-72707858D01*
X120880896Y-72742044D01*
X120987101Y-72784477D01*
X121082473Y-72826003D01*
X121082916Y-72826208D01*
X121232525Y-72895360D01*
X121901617Y-72440488D01*
X122194116Y-72732500D01*
X122281170Y-72820820D01*
X122357909Y-72901375D01*
X122420237Y-72969640D01*
X122464056Y-73021092D01*
X122485270Y-73051206D01*
X122486616Y-73055526D01*
X122476016Y-73080889D01*
X122446547Y-73132642D01*
X122401705Y-73205132D01*
X122344984Y-73292706D01*
X122281462Y-73387388D01*
X122216668Y-73483484D01*
X122160287Y-73569163D01*
X122115788Y-73638984D01*
X122086639Y-73687506D01*
X122076308Y-73709218D01*
X122085050Y-73735707D01*
X122108087Y-73785938D01*
X122140631Y-73849549D01*
X122144249Y-73856292D01*
X122187210Y-73941954D01*
X122208279Y-74000694D01*
X122208503Y-74037228D01*
X122188928Y-74056269D01*
X122188654Y-74056380D01*
X122165472Y-74065898D01*
X122110441Y-74088597D01*
X122027822Y-74122718D01*
X121921872Y-74166500D01*
X121796852Y-74218184D01*
X121657020Y-74276008D01*
X121521637Y-74332009D01*
X121372234Y-74393553D01*
X121233832Y-74450061D01*
X121110673Y-74499839D01*
X121007002Y-74541194D01*
X120927059Y-74572432D01*
X120875088Y-74591859D01*
X120855692Y-74597846D01*
X120833443Y-74582832D01*
X120797982Y-74543561D01*
X120758887Y-74491193D01*
X120635245Y-74342059D01*
X120493522Y-74225489D01*
X120336704Y-74142882D01*
X120167775Y-74095634D01*
X119989722Y-74085143D01*
X119907539Y-74092769D01*
X119737031Y-74134318D01*
X119586459Y-74205877D01*
X119457309Y-74303005D01*
X119351064Y-74421266D01*
X119269210Y-74556220D01*
X119213232Y-74703429D01*
X119184615Y-74858456D01*
X119184844Y-75016861D01*
X119215405Y-75174206D01*
X119277782Y-75326054D01*
X119373460Y-75467965D01*
X119427572Y-75527197D01*
X119566520Y-75640797D01*
X119718361Y-75719894D01*
X119878667Y-75765014D01*
X120043012Y-75776684D01*
X120206971Y-75755431D01*
X120366118Y-75701780D01*
X120516025Y-75616260D01*
X120652267Y-75499395D01*
X120758887Y-75368807D01*
X120799642Y-75314412D01*
X120834718Y-75275986D01*
X120855726Y-75262154D01*
X120878635Y-75269397D01*
X120933365Y-75289995D01*
X121015672Y-75322254D01*
X121121315Y-75364479D01*
X121246050Y-75414977D01*
X121385636Y-75472052D01*
X121521670Y-75528146D01*
X121671201Y-75590033D01*
X121809767Y-75647356D01*
X121933107Y-75698356D01*
X122036964Y-75741273D01*
X122117080Y-75774347D01*
X122169195Y-75795819D01*
X122188654Y-75803775D01*
X122208423Y-75822571D01*
X122208365Y-75858926D01*
X122187441Y-75917521D01*
X122144613Y-76003032D01*
X122144249Y-76003708D01*
X122111012Y-76068093D01*
X122086802Y-76120139D01*
X122076404Y-76149488D01*
X122076308Y-76150783D01*
X122086855Y-76172876D01*
X122116184Y-76221652D01*
X122160827Y-76291669D01*
X122217314Y-76377486D01*
X122281462Y-76472612D01*
X122346411Y-76569460D01*
X122402896Y-76656747D01*
X122447421Y-76728819D01*
X122476490Y-76780023D01*
X122486616Y-76804474D01*
X122473307Y-76826990D01*
X122436112Y-76872258D01*
X122379128Y-76935756D01*
X122306449Y-77012961D01*
X122222171Y-77099349D01*
X122194016Y-77127601D01*
X121901416Y-77419713D01*
X121575104Y-77197369D01*
X121474897Y-77129798D01*
X121384963Y-77070493D01*
X121310510Y-77022783D01*
X121256751Y-76989993D01*
X121228894Y-76975452D01*
X121226912Y-76975026D01*
X121200655Y-76982692D01*
X121147837Y-77003311D01*
X121077310Y-77033315D01*
X121030093Y-77054375D01*
X120939694Y-77093752D01*
X120848366Y-77130835D01*
X120771200Y-77159585D01*
X120747692Y-77167395D01*
X120684916Y-77189583D01*
X120636411Y-77211273D01*
X120618079Y-77223187D01*
X120606859Y-77249477D01*
X120590954Y-77306858D01*
X120572167Y-77387882D01*
X120552299Y-77485105D01*
X120544132Y-77528615D01*
X120523829Y-77639104D01*
X120504170Y-77745084D01*
X120487088Y-77836199D01*
X120474518Y-77902092D01*
X120472091Y-77914500D01*
X120451845Y-78017077D01*
X120024701Y-78017077D01*
X119884246Y-78016847D01*
X119777979Y-78015901D01*
X119701013Y-78013859D01*
X119648460Y-78010338D01*
X119615433Y-78004957D01*
X119597045Y-77997334D01*
X119588408Y-77987088D01*
X119586807Y-77982885D01*
X119581127Y-77957530D01*
X119569795Y-77901516D01*
X119554179Y-77822036D01*
X119535647Y-77726288D01*
X119515569Y-77621467D01*
X119495312Y-77514768D01*
X119476246Y-77413387D01*
X119459739Y-77324521D01*
X119447159Y-77255363D01*
X119439875Y-77213111D01*
X119438616Y-77203710D01*
X119421763Y-77195193D01*
X119376870Y-77176340D01*
X119312430Y-77150676D01*
X119287192Y-77140877D01*
X119189686Y-77101352D01*
X119081959Y-77054808D01*
X118991172Y-77013123D01*
X118921753Y-76982450D01*
X118864710Y-76962044D01*
X118829777Y-76955232D01*
X118825095Y-76956318D01*
X118802991Y-76970715D01*
X118753831Y-77003588D01*
X118682848Y-77051410D01*
X118595278Y-77110652D01*
X118496357Y-77177785D01*
X118476830Y-77191059D01*
X118361140Y-77268954D01*
X118273044Y-77326213D01*
X118208486Y-77365119D01*
X118163411Y-77387956D01*
X118133763Y-77397006D01*
X118115485Y-77394552D01*
X118115369Y-77394489D01*
X118091361Y-77375173D01*
X118044947Y-77332449D01*
X117980937Y-77270949D01*
X117904145Y-77195302D01*
X117819382Y-77110139D01*
X117809922Y-77100535D01*
X117705989Y-76993210D01*
X117629675Y-76910385D01*
X117579571Y-76850395D01*
X117554270Y-76811577D01*
X117551004Y-76794480D01*
X117565250Y-76769527D01*
X117598156Y-76717745D01*
X117646208Y-76644480D01*
X117705890Y-76555080D01*
X117773688Y-76454889D01*
X117789639Y-76431499D01*
X118016420Y-76099407D01*
X117948353Y-75949435D01*
X117908685Y-75858230D01*
X117868791Y-75760331D01*
X117836983Y-75676169D01*
X117835674Y-75672462D01*
X117811576Y-75606631D01*
X117791200Y-75555884D01*
X117778936Y-75531158D01*
X117778901Y-75531116D01*
X117756734Y-75523271D01*
X117702217Y-75509934D01*
X117621480Y-75492430D01*
X117520650Y-75472083D01*
X117405856Y-75450218D01*
X117396178Y-75448429D01*
X117277904Y-75426496D01*
X117170542Y-75406360D01*
X117080917Y-75389320D01*
X117015851Y-75376672D01*
X116982168Y-75369716D01*
X116981654Y-75369594D01*
X116967325Y-75365361D01*
X116956507Y-75357129D01*
X116948706Y-75339967D01*
X116943429Y-75308942D01*
X116940182Y-75259122D01*
X116938472Y-75185576D01*
X116937807Y-75083371D01*
X116937693Y-74947575D01*
X116937692Y-74930000D01*
X116937776Y-74790122D01*
X116938355Y-74684388D01*
X116939922Y-74607868D01*
X116942972Y-74555628D01*
X116947996Y-74522737D01*
X116955489Y-74504263D01*
X116965944Y-74495273D01*
X116979853Y-74490837D01*
X116981654Y-74490406D01*
X117014145Y-74483667D01*
X117078252Y-74471192D01*
X117167151Y-74454281D01*
X117274019Y-74434229D01*
X117392033Y-74412336D01*
X117396178Y-74411571D01*
X117511831Y-74389641D01*
X117614014Y-74369123D01*
X117696598Y-74351341D01*
X117753456Y-74337619D01*
X117778458Y-74329282D01*
X117778901Y-74328884D01*
X117791110Y-74304323D01*
X117811456Y-74253685D01*
X117835545Y-74187905D01*
X117835674Y-74187539D01*
X117866818Y-74104683D01*
X117906491Y-74007000D01*
X117946381Y-73914923D01*
X117948353Y-73910566D01*
X118016420Y-73760593D01*
X117789639Y-73428502D01*
X117720504Y-73326626D01*
X117658697Y-73234343D01*
X117607733Y-73156997D01*
X117571127Y-73099936D01*
X117552394Y-73068505D01*
X117551004Y-73065521D01*
X117557190Y-73042679D01*
X117587035Y-73000018D01*
X117641947Y-72935872D01*
X117723334Y-72848579D01*
X117809922Y-72759465D01*
X117895247Y-72673559D01*
X117973108Y-72596673D01*
X118038697Y-72533436D01*
X118087205Y-72488477D01*
X118113825Y-72466424D01*
X118115195Y-72465604D01*
X118133463Y-72463166D01*
X118163295Y-72472350D01*
X118208721Y-72495426D01*
X118273770Y-72534663D01*
X118362470Y-72592330D01*
X118476657Y-72669205D01*
X118577162Y-72737430D01*
X118667303Y-72798418D01*
X118741849Y-72848644D01*
X118795565Y-72884584D01*
X118823218Y-72902713D01*
X118825095Y-72903854D01*
X118851590Y-72901641D01*
X118903086Y-72884862D01*
X118969851Y-72856858D01*
X118991172Y-72846878D01*
X119086159Y-72803328D01*
X119193937Y-72756866D01*
X119287192Y-72719123D01*
X119356406Y-72691927D01*
X119409006Y-72670325D01*
X119436497Y-72657842D01*
X119438616Y-72656291D01*
X119442124Y-72633332D01*
X119451738Y-72579214D01*
X119466089Y-72501132D01*
X119483807Y-72406281D01*
X119503525Y-72301857D01*
X119523874Y-72195056D01*
X119543486Y-72093074D01*
X119560991Y-72003106D01*
X119575022Y-71932347D01*
X119584209Y-71887994D01*
X119586807Y-71877115D01*
X119593218Y-71865878D01*
X119607697Y-71857395D01*
X119635133Y-71851286D01*
X119680411Y-71847168D01*
X119748420Y-71844659D01*
X119844047Y-71843379D01*
X119972180Y-71842946D01*
X120024701Y-71842923D01*
X120451845Y-71842923D01*
X120472091Y-71945500D01*
D12*
%TO.C,J3*%
X30330000Y-23632000D02*
X22710000Y-23632000D01*
X30330000Y-33792000D02*
X30330000Y-23632000D01*
X23980000Y-33792000D02*
X23980000Y-23632000D01*
X22710000Y-33792000D02*
X30330000Y-33792000D01*
X22710000Y-23632000D02*
X22710000Y-33792000D01*
%TO.C,U3*%
X110560000Y-31625000D02*
X100280000Y-31625000D01*
X108070000Y-31685000D02*
X106420000Y-31685000D01*
X108070000Y-49585000D02*
X108070000Y-31685000D01*
X110560000Y-49645000D02*
X110560000Y-31625000D01*
X104420000Y-31685000D02*
X102770000Y-31685000D01*
X102770000Y-49585000D02*
X108070000Y-49585000D01*
X100280000Y-49645000D02*
X110560000Y-49645000D01*
X102770000Y-31685000D02*
X102770000Y-49585000D01*
X100280000Y-31625000D02*
X100280000Y-49645000D01*
X104420000Y-31685000D02*
G75*
G03*
X106420000Y-31685000I1000000J0D01*
G01*
%TD*%
M02*
