%TF.GenerationSoftware,KiCad,Pcbnew,8.0.2*%
%TF.CreationDate,2024-05-20T09:09:19+02:00*%
%TF.ProjectId,p2000t-ram-expansion-board,70323030-3074-42d7-9261-6d2d65787061,4*%
%TF.SameCoordinates,Original*%
%TF.FileFunction,Soldermask,Bot*%
%TF.FilePolarity,Negative*%
%FSLAX46Y46*%
G04 Gerber Fmt 4.6, Leading zero omitted, Abs format (unit mm)*
G04 Created by KiCad (PCBNEW 8.0.2) date 2024-05-20 09:09:19*
%MOMM*%
%LPD*%
G01*
G04 APERTURE LIST*
%ADD10C,1.600000*%
%ADD11R,1.600000X1.600000*%
%ADD12O,1.600000X1.600000*%
%ADD13R,1.700000X1.700000*%
%ADD14O,1.700000X1.700000*%
%ADD15C,3.000000*%
%ADD16R,3.000000X3.000000*%
G04 APERTURE END LIST*
D10*
%TO.C,C1*%
X91440000Y-27940000D03*
X86440000Y-27940000D03*
%TD*%
D11*
%TO.C,U5*%
X117485000Y-63373000D03*
D12*
X117485000Y-65913000D03*
X117485000Y-68453000D03*
X117485000Y-70993000D03*
X117485000Y-73533000D03*
X117485000Y-76073000D03*
X117485000Y-78613000D03*
X117485000Y-81153000D03*
X117485000Y-83693000D03*
X117485000Y-86233000D03*
X125105000Y-86233000D03*
X125105000Y-83693000D03*
X125105000Y-81153000D03*
X125105000Y-78613000D03*
X125105000Y-76073000D03*
X125105000Y-73533000D03*
X125105000Y-70993000D03*
X125105000Y-68453000D03*
X125105000Y-65913000D03*
X125105000Y-63373000D03*
%TD*%
D10*
%TO.C,C9*%
X74930000Y-27940000D03*
X69930000Y-27940000D03*
%TD*%
D11*
%TO.C,D1*%
X26520000Y-54620000D03*
D12*
X26520000Y-47000000D03*
%TD*%
D10*
%TO.C,C5*%
X58420000Y-25400000D03*
X53420000Y-25400000D03*
%TD*%
%TO.C,C10*%
X123825000Y-24130000D03*
X118825000Y-24130000D03*
%TD*%
%TO.C,C6*%
X72390000Y-59730000D03*
X72390000Y-64730000D03*
%TD*%
D11*
%TO.C,U9*%
X35570000Y-30470000D03*
D12*
X35570000Y-33010000D03*
X35570000Y-35550000D03*
X35570000Y-38090000D03*
X35570000Y-40630000D03*
X35570000Y-43170000D03*
X35570000Y-45710000D03*
X35570000Y-48250000D03*
X43190000Y-48250000D03*
X43190000Y-45710000D03*
X43190000Y-43170000D03*
X43190000Y-40630000D03*
X43190000Y-38090000D03*
X43190000Y-35550000D03*
X43190000Y-33010000D03*
X43190000Y-30470000D03*
%TD*%
D11*
%TO.C,U1*%
X68590000Y-33020000D03*
D12*
X68590000Y-35560000D03*
X68590000Y-38100000D03*
X68590000Y-40640000D03*
X68590000Y-43180000D03*
X68590000Y-45720000D03*
X68590000Y-48260000D03*
X76210000Y-48260000D03*
X76210000Y-45720000D03*
X76210000Y-43180000D03*
X76210000Y-40640000D03*
X76210000Y-38100000D03*
X76210000Y-35560000D03*
X76210000Y-33020000D03*
%TD*%
D10*
%TO.C,C7*%
X26670000Y-59868000D03*
X26670000Y-64868000D03*
%TD*%
D11*
%TO.C,U8*%
X117485000Y-29215000D03*
D12*
X117485000Y-31755000D03*
X117485000Y-34295000D03*
X117485000Y-36835000D03*
X117485000Y-39375000D03*
X117485000Y-41915000D03*
X117485000Y-44455000D03*
X117485000Y-46995000D03*
X117485000Y-49535000D03*
X117485000Y-52075000D03*
X125105000Y-52075000D03*
X125105000Y-49535000D03*
X125105000Y-46995000D03*
X125105000Y-44455000D03*
X125105000Y-41915000D03*
X125105000Y-39375000D03*
X125105000Y-36835000D03*
X125105000Y-34295000D03*
X125105000Y-31755000D03*
X125105000Y-29215000D03*
%TD*%
D11*
%TO.C,C3*%
X25400000Y-80010000D03*
D10*
X27900000Y-80010000D03*
%TD*%
%TO.C,C4*%
X107910000Y-27940000D03*
X102910000Y-27940000D03*
%TD*%
%TO.C,C2*%
X41870000Y-25400000D03*
X36870000Y-25400000D03*
%TD*%
D11*
%TO.C,U4*%
X77470000Y-69850000D03*
D12*
X80010000Y-69850000D03*
X82550000Y-69850000D03*
X85090000Y-69850000D03*
X87630000Y-69850000D03*
X90170000Y-69850000D03*
X92710000Y-69850000D03*
X95250000Y-69850000D03*
X97790000Y-69850000D03*
X100330000Y-69850000D03*
X102870000Y-69850000D03*
X105410000Y-69850000D03*
X107950000Y-69850000D03*
X110490000Y-69850000D03*
X110490000Y-54610000D03*
X107950000Y-54610000D03*
X105410000Y-54610000D03*
X102870000Y-54610000D03*
X100330000Y-54610000D03*
X97790000Y-54610000D03*
X95250000Y-54610000D03*
X92710000Y-54610000D03*
X90170000Y-54610000D03*
X87630000Y-54610000D03*
X85090000Y-54610000D03*
X82550000Y-54610000D03*
X80010000Y-54610000D03*
X77470000Y-54610000D03*
%TD*%
D13*
%TO.C,J2*%
X26520000Y-39380000D03*
D14*
X26520000Y-41920000D03*
%TD*%
D11*
%TO.C,U6*%
X85100000Y-33015000D03*
D12*
X85100000Y-35555000D03*
X85100000Y-38095000D03*
X85100000Y-40635000D03*
X85100000Y-43175000D03*
X85100000Y-45715000D03*
X85100000Y-48255000D03*
X92720000Y-48255000D03*
X92720000Y-45715000D03*
X92720000Y-43175000D03*
X92720000Y-40635000D03*
X92720000Y-38095000D03*
X92720000Y-35555000D03*
X92720000Y-33015000D03*
%TD*%
D11*
%TO.C,U7*%
X52080000Y-30470000D03*
D12*
X52080000Y-33010000D03*
X52080000Y-35550000D03*
X52080000Y-38090000D03*
X52080000Y-40630000D03*
X52080000Y-43170000D03*
X52080000Y-45710000D03*
X52080000Y-48250000D03*
X59700000Y-48250000D03*
X59700000Y-45710000D03*
X59700000Y-43170000D03*
X59700000Y-40630000D03*
X59700000Y-38090000D03*
X59700000Y-35550000D03*
X59700000Y-33010000D03*
X59700000Y-30470000D03*
%TD*%
D10*
%TO.C,C8*%
X123785000Y-58420000D03*
X118785000Y-58420000D03*
%TD*%
D11*
%TO.C,U2*%
X31750000Y-70104000D03*
D12*
X34290000Y-70104000D03*
X36830000Y-70104000D03*
X39370000Y-70104000D03*
X41910000Y-70104000D03*
X44450000Y-70104000D03*
X46990000Y-70104000D03*
X49530000Y-70104000D03*
X52070000Y-70104000D03*
X54610000Y-70104000D03*
X57150000Y-70104000D03*
X59690000Y-70104000D03*
X62230000Y-70104000D03*
X64770000Y-70104000D03*
X64770000Y-54864000D03*
X62230000Y-54864000D03*
X59690000Y-54864000D03*
X57150000Y-54864000D03*
X54610000Y-54864000D03*
X52070000Y-54864000D03*
X49530000Y-54864000D03*
X46990000Y-54864000D03*
X44450000Y-54864000D03*
X41910000Y-54864000D03*
X39370000Y-54864000D03*
X36830000Y-54864000D03*
X34290000Y-54864000D03*
X31750000Y-54864000D03*
%TD*%
D15*
%TO.C,J3*%
X26520000Y-31252000D03*
D16*
X26520000Y-26172000D03*
%TD*%
D11*
%TO.C,U3*%
X101610000Y-33015000D03*
D12*
X101610000Y-35555000D03*
X101610000Y-38095000D03*
X101610000Y-40635000D03*
X101610000Y-43175000D03*
X101610000Y-45715000D03*
X101610000Y-48255000D03*
X109230000Y-48255000D03*
X109230000Y-45715000D03*
X109230000Y-43175000D03*
X109230000Y-40635000D03*
X109230000Y-38095000D03*
X109230000Y-35555000D03*
X109230000Y-33015000D03*
%TD*%
D13*
%TO.C,J1*%
X99055000Y-80518000D03*
D14*
X99055000Y-77978000D03*
X96515000Y-80518000D03*
X96515000Y-77978000D03*
X93975000Y-80518000D03*
X93975000Y-77978000D03*
X91435000Y-80518000D03*
X91435000Y-77978000D03*
X88895000Y-80518000D03*
X88895000Y-77978000D03*
X86355000Y-80518000D03*
X86355000Y-77978000D03*
X83815000Y-80518000D03*
X83815000Y-77978000D03*
X81275000Y-80518000D03*
X81275000Y-77978000D03*
X78735000Y-80518000D03*
X78735000Y-77978000D03*
X76195000Y-80518000D03*
X76195000Y-77978000D03*
X73655000Y-80518000D03*
X73655000Y-77978000D03*
X71115000Y-80518000D03*
X71115000Y-77978000D03*
X68575000Y-80518000D03*
X68575000Y-77978000D03*
X66035000Y-80518000D03*
X66035000Y-77978000D03*
X63495000Y-80518000D03*
X63495000Y-77978000D03*
X60955000Y-80518000D03*
X60955000Y-77978000D03*
X58415000Y-80518000D03*
X58415000Y-77978000D03*
X55875000Y-80518000D03*
X55875000Y-77978000D03*
X53335000Y-80518000D03*
X53335000Y-77978000D03*
X50795000Y-80518000D03*
X50795000Y-77978000D03*
%TD*%
M02*
