%TF.GenerationSoftware,KiCad,Pcbnew,(6.0.9)*%
%TF.CreationDate,2023-11-25T21:35:55+01:00*%
%TF.ProjectId,p2000t-ram-expansion-board,70323030-3074-42d7-9261-6d2d65787061,rev?*%
%TF.SameCoordinates,Original*%
%TF.FileFunction,Copper,L1,Top*%
%TF.FilePolarity,Positive*%
%FSLAX46Y46*%
G04 Gerber Fmt 4.6, Leading zero omitted, Abs format (unit mm)*
G04 Created by KiCad (PCBNEW (6.0.9)) date 2023-11-25 21:35:55*
%MOMM*%
%LPD*%
G01*
G04 APERTURE LIST*
%TA.AperFunction,ComponentPad*%
%ADD10C,1.600000*%
%TD*%
%TA.AperFunction,ComponentPad*%
%ADD11R,1.600000X1.600000*%
%TD*%
%TA.AperFunction,ComponentPad*%
%ADD12O,1.600000X1.600000*%
%TD*%
%TA.AperFunction,ComponentPad*%
%ADD13R,1.700000X1.700000*%
%TD*%
%TA.AperFunction,ComponentPad*%
%ADD14O,1.700000X1.700000*%
%TD*%
%TA.AperFunction,ComponentPad*%
%ADD15R,3.000000X3.000000*%
%TD*%
%TA.AperFunction,ComponentPad*%
%ADD16C,3.000000*%
%TD*%
%TA.AperFunction,ViaPad*%
%ADD17C,0.800000*%
%TD*%
%TA.AperFunction,Conductor*%
%ADD18C,0.250000*%
%TD*%
%TA.AperFunction,Conductor*%
%ADD19C,0.500000*%
%TD*%
G04 APERTURE END LIST*
D10*
%TO.P,C1,1*%
%TO.N,+5V*%
X91440000Y-27940000D03*
%TO.P,C1,2*%
%TO.N,GND*%
X86440000Y-27940000D03*
%TD*%
D11*
%TO.P,U5,1,G*%
%TO.N,~{IORQ}*%
X117485000Y-63373000D03*
D12*
%TO.P,U5,2,P0*%
%TO.N,A0*%
X117485000Y-65913000D03*
%TO.P,U5,3,R0*%
%TO.N,GND*%
X117485000Y-68453000D03*
%TO.P,U5,4,P1*%
%TO.N,A1*%
X117485000Y-70993000D03*
%TO.P,U5,5,R1*%
%TO.N,GND*%
X117485000Y-73533000D03*
%TO.P,U5,6,P2*%
%TO.N,A2*%
X117485000Y-76073000D03*
%TO.P,U5,7,R2*%
%TO.N,+5V*%
X117485000Y-78613000D03*
%TO.P,U5,8,P3*%
%TO.N,A3*%
X117485000Y-81153000D03*
%TO.P,U5,9,R3*%
%TO.N,GND*%
X117485000Y-83693000D03*
%TO.P,U5,10,GND*%
X117485000Y-86233000D03*
%TO.P,U5,11,P4*%
%TO.N,A4*%
X125105000Y-86233000D03*
%TO.P,U5,12,R4*%
%TO.N,+5V*%
X125105000Y-83693000D03*
%TO.P,U5,13,P5*%
%TO.N,A5*%
X125105000Y-81153000D03*
%TO.P,U5,14,R5*%
%TO.N,GND*%
X125105000Y-78613000D03*
%TO.P,U5,15,P6*%
%TO.N,A6*%
X125105000Y-76073000D03*
%TO.P,U5,16,R6*%
%TO.N,GND*%
X125105000Y-73533000D03*
%TO.P,U5,17,P7*%
%TO.N,A7*%
X125105000Y-70993000D03*
%TO.P,U5,18,R7*%
%TO.N,+5V*%
X125105000Y-68453000D03*
%TO.P,U5,19,P=R*%
%TO.N,~{P=Q}*%
X125105000Y-65913000D03*
%TO.P,U5,20,VCC*%
%TO.N,+5V*%
X125105000Y-63373000D03*
%TD*%
D10*
%TO.P,C9,1*%
%TO.N,+5V*%
X74930000Y-27940000D03*
%TO.P,C9,2*%
%TO.N,GND*%
X69930000Y-27940000D03*
%TD*%
D11*
%TO.P,D1,1,K*%
%TO.N,+5V*%
X26520000Y-54620000D03*
D12*
%TO.P,D1,2,A*%
%TO.N,VCC*%
X26520000Y-47000000D03*
%TD*%
D10*
%TO.P,C5,1*%
%TO.N,+5V*%
X58420000Y-25400000D03*
%TO.P,C5,2*%
%TO.N,GND*%
X53420000Y-25400000D03*
%TD*%
%TO.P,C10,1*%
%TO.N,+5V*%
X123825000Y-24130000D03*
%TO.P,C10,2*%
%TO.N,GND*%
X118825000Y-24130000D03*
%TD*%
%TO.P,C6,1*%
%TO.N,+5V*%
X72390000Y-59730000D03*
%TO.P,C6,2*%
%TO.N,GND*%
X72390000Y-64730000D03*
%TD*%
D11*
%TO.P,U9,1,S*%
%TO.N,EO*%
X35570000Y-30470000D03*
D12*
%TO.P,U9,2,I0a*%
%TO.N,A13*%
X35570000Y-33010000D03*
%TO.P,U9,3,I1a*%
%TO.N,S0*%
X35570000Y-35550000D03*
%TO.P,U9,4,Za*%
%TO.N,A13_1*%
X35570000Y-38090000D03*
%TO.P,U9,5,I0b*%
%TO.N,GND*%
X35570000Y-40630000D03*
%TO.P,U9,6,I1b*%
%TO.N,+5V*%
X35570000Y-43170000D03*
%TO.P,U9,7,Zb*%
%TO.N,A14_1*%
X35570000Y-45710000D03*
%TO.P,U9,8,GND*%
%TO.N,GND*%
X35570000Y-48250000D03*
%TO.P,U9,9,Zc*%
%TO.N,A13_2*%
X43190000Y-48250000D03*
%TO.P,U9,10,I1c*%
%TO.N,S0*%
X43190000Y-45710000D03*
%TO.P,U9,11,I0c*%
X43190000Y-43170000D03*
%TO.P,U9,12,Zd*%
%TO.N,A14_2*%
X43190000Y-40630000D03*
%TO.P,U9,13,I1d*%
%TO.N,S2*%
X43190000Y-38090000D03*
%TO.P,U9,14,I0d*%
X43190000Y-35550000D03*
%TO.P,U9,15,E*%
%TO.N,GND*%
X43190000Y-33010000D03*
%TO.P,U9,16,VCC*%
%TO.N,+5V*%
X43190000Y-30470000D03*
%TD*%
D11*
%TO.P,U1,1*%
%TO.N,~{RES}*%
X68590000Y-33020000D03*
D12*
%TO.P,U1,2*%
%TO.N,RES*%
X68590000Y-35560000D03*
%TO.P,U1,3*%
%TO.N,Net-(U1-Pad3)*%
X68590000Y-38100000D03*
%TO.P,U1,4*%
%TO.N,Net-(U1-Pad4)*%
X68590000Y-40640000D03*
%TO.P,U1,5*%
%TO.N,Net-(U1-Pad5)*%
X68590000Y-43180000D03*
%TO.P,U1,6*%
%TO.N,EO*%
X68590000Y-45720000D03*
%TO.P,U1,7,GND*%
%TO.N,GND*%
X68590000Y-48260000D03*
%TO.P,U1,8*%
%TO.N,unconnected-(U1-Pad8)*%
X76210000Y-48260000D03*
%TO.P,U1,9*%
%TO.N,GND*%
X76210000Y-45720000D03*
%TO.P,U1,10*%
%TO.N,Net-(U1-Pad10)*%
X76210000Y-43180000D03*
%TO.P,U1,11*%
%TO.N,~{REN}*%
X76210000Y-40640000D03*
%TO.P,U1,12*%
%TO.N,Net-(U1-Pad12)*%
X76210000Y-38100000D03*
%TO.P,U1,13*%
%TO.N,~{MRQ}*%
X76210000Y-35560000D03*
%TO.P,U1,14,VCC*%
%TO.N,+5V*%
X76210000Y-33020000D03*
%TD*%
D10*
%TO.P,C7,1*%
%TO.N,+5V*%
X26670000Y-59868000D03*
%TO.P,C7,2*%
%TO.N,GND*%
X26670000Y-64868000D03*
%TD*%
D11*
%TO.P,U8,1,A->B*%
%TO.N,+5V*%
X117485000Y-29215000D03*
D12*
%TO.P,U8,2,A0*%
%TO.N,S0*%
X117485000Y-31755000D03*
%TO.P,U8,3,A1*%
%TO.N,S1*%
X117485000Y-34295000D03*
%TO.P,U8,4,A2*%
%TO.N,S2*%
X117485000Y-36835000D03*
%TO.P,U8,5,A3*%
%TO.N,S3*%
X117485000Y-39375000D03*
%TO.P,U8,6,A4*%
%TO.N,GND*%
X117485000Y-41915000D03*
%TO.P,U8,7,A5*%
X117485000Y-44455000D03*
%TO.P,U8,8,A6*%
X117485000Y-46995000D03*
%TO.P,U8,9,A7*%
X117485000Y-49535000D03*
%TO.P,U8,10,GND*%
X117485000Y-52075000D03*
%TO.P,U8,11,B7*%
%TO.N,D7*%
X125105000Y-52075000D03*
%TO.P,U8,12,B6*%
%TO.N,D6*%
X125105000Y-49535000D03*
%TO.P,U8,13,B5*%
%TO.N,D5*%
X125105000Y-46995000D03*
%TO.P,U8,14,B4*%
%TO.N,D4*%
X125105000Y-44455000D03*
%TO.P,U8,15,B3*%
%TO.N,D3*%
X125105000Y-41915000D03*
%TO.P,U8,16,B2*%
%TO.N,D2*%
X125105000Y-39375000D03*
%TO.P,U8,17,B1*%
%TO.N,D1*%
X125105000Y-36835000D03*
%TO.P,U8,18,B0*%
%TO.N,D0*%
X125105000Y-34295000D03*
%TO.P,U8,19,CE*%
%TO.N,Net-(U6-Pad11)*%
X125105000Y-31755000D03*
%TO.P,U8,20,VCC*%
%TO.N,+5V*%
X125105000Y-29215000D03*
%TD*%
D11*
%TO.P,C3,1*%
%TO.N,+5V*%
X25400000Y-80010000D03*
D10*
%TO.P,C3,2*%
%TO.N,GND*%
X27900000Y-80010000D03*
%TD*%
%TO.P,C4,1*%
%TO.N,+5V*%
X107910000Y-27940000D03*
%TO.P,C4,2*%
%TO.N,GND*%
X102910000Y-27940000D03*
%TD*%
%TO.P,C2,1*%
%TO.N,+5V*%
X41870000Y-25400000D03*
%TO.P,C2,2*%
%TO.N,GND*%
X36870000Y-25400000D03*
%TD*%
D11*
%TO.P,U4,1,A14*%
%TO.N,A14_2*%
X77470000Y-69850000D03*
D12*
%TO.P,U4,2,A12*%
%TO.N,A12*%
X80010000Y-69850000D03*
%TO.P,U4,3,A7*%
%TO.N,A7*%
X82550000Y-69850000D03*
%TO.P,U4,4,A6*%
%TO.N,A6*%
X85090000Y-69850000D03*
%TO.P,U4,5,A5*%
%TO.N,A5*%
X87630000Y-69850000D03*
%TO.P,U4,6,A4*%
%TO.N,A4*%
X90170000Y-69850000D03*
%TO.P,U4,7,A3*%
%TO.N,A3*%
X92710000Y-69850000D03*
%TO.P,U4,8,A2*%
%TO.N,A2*%
X95250000Y-69850000D03*
%TO.P,U4,9,A1*%
%TO.N,A1*%
X97790000Y-69850000D03*
%TO.P,U4,10,A0*%
%TO.N,A0*%
X100330000Y-69850000D03*
%TO.P,U4,11,Q0*%
%TO.N,D0*%
X102870000Y-69850000D03*
%TO.P,U4,12,Q1*%
%TO.N,D1*%
X105410000Y-69850000D03*
%TO.P,U4,13,Q2*%
%TO.N,D2*%
X107950000Y-69850000D03*
%TO.P,U4,14,GND*%
%TO.N,GND*%
X110490000Y-69850000D03*
%TO.P,U4,15,Q3*%
%TO.N,D3*%
X110490000Y-54610000D03*
%TO.P,U4,16,Q4*%
%TO.N,D4*%
X107950000Y-54610000D03*
%TO.P,U4,17,Q5*%
%TO.N,D5*%
X105410000Y-54610000D03*
%TO.P,U4,18,Q6*%
%TO.N,D6*%
X102870000Y-54610000D03*
%TO.P,U4,19,Q7*%
%TO.N,D7*%
X100330000Y-54610000D03*
%TO.P,U4,20,~{CS}*%
%TO.N,~{CS2}*%
X97790000Y-54610000D03*
%TO.P,U4,21,A10*%
%TO.N,A10*%
X95250000Y-54610000D03*
%TO.P,U4,22,~{OE}*%
%TO.N,~{RD}*%
X92710000Y-54610000D03*
%TO.P,U4,23,A11*%
%TO.N,A11*%
X90170000Y-54610000D03*
%TO.P,U4,24,A9*%
%TO.N,A9*%
X87630000Y-54610000D03*
%TO.P,U4,25,A8*%
%TO.N,A8*%
X85090000Y-54610000D03*
%TO.P,U4,26,A13*%
%TO.N,A13_2*%
X82550000Y-54610000D03*
%TO.P,U4,27,~{WE}*%
%TO.N,~{WR}*%
X80010000Y-54610000D03*
%TO.P,U4,28,VCC*%
%TO.N,+5V*%
X77470000Y-54610000D03*
%TD*%
D13*
%TO.P,J2,1,Pin_1*%
%TO.N,GND*%
X26520000Y-39380000D03*
D14*
%TO.P,J2,2,Pin_2*%
%TO.N,VCC*%
X26520000Y-41920000D03*
%TD*%
D11*
%TO.P,U6,1*%
%TO.N,Net-(U3-Pad3)*%
X85100000Y-33015000D03*
D12*
%TO.P,U6,2*%
%TO.N,~{REN}*%
X85100000Y-35555000D03*
%TO.P,U6,3*%
%TO.N,~{CS2}*%
X85100000Y-38095000D03*
%TO.P,U6,4*%
%TO.N,~{P=Q}*%
X85100000Y-40635000D03*
%TO.P,U6,5*%
%TO.N,~{WR}*%
X85100000Y-43175000D03*
%TO.P,U6,6*%
%TO.N,Net-(U1-Pad3)*%
X85100000Y-45715000D03*
%TO.P,U6,7,GND*%
%TO.N,GND*%
X85100000Y-48255000D03*
%TO.P,U6,8*%
%TO.N,Net-(U3-Pad1)*%
X92720000Y-48255000D03*
%TO.P,U6,9*%
%TO.N,S1*%
X92720000Y-45715000D03*
%TO.P,U6,10*%
%TO.N,S2*%
X92720000Y-43175000D03*
%TO.P,U6,11*%
%TO.N,Net-(U6-Pad11)*%
X92720000Y-40635000D03*
%TO.P,U6,12*%
%TO.N,~{RD}*%
X92720000Y-38095000D03*
%TO.P,U6,13*%
%TO.N,~{P=Q}*%
X92720000Y-35555000D03*
%TO.P,U6,14,VCC*%
%TO.N,+5V*%
X92720000Y-33015000D03*
%TD*%
D11*
%TO.P,U7,1,Oe1*%
%TO.N,GND*%
X52080000Y-30470000D03*
D12*
%TO.P,U7,2,Oe2*%
X52080000Y-33010000D03*
%TO.P,U7,3,Q0*%
%TO.N,S0*%
X52080000Y-35550000D03*
%TO.P,U7,4,Q1*%
%TO.N,S1*%
X52080000Y-38090000D03*
%TO.P,U7,5,Q2*%
%TO.N,S2*%
X52080000Y-40630000D03*
%TO.P,U7,6,Q3*%
%TO.N,S3*%
X52080000Y-43170000D03*
%TO.P,U7,7,Cp*%
%TO.N,Net-(U1-Pad4)*%
X52080000Y-45710000D03*
%TO.P,U7,8,GND*%
%TO.N,GND*%
X52080000Y-48250000D03*
%TO.P,U7,9,E1*%
X59700000Y-48250000D03*
%TO.P,U7,10,E2*%
X59700000Y-45710000D03*
%TO.P,U7,11,D3*%
%TO.N,D3*%
X59700000Y-43170000D03*
%TO.P,U7,12,D2*%
%TO.N,D2*%
X59700000Y-40630000D03*
%TO.P,U7,13,D1*%
%TO.N,D1*%
X59700000Y-38090000D03*
%TO.P,U7,14,D0*%
%TO.N,D0*%
X59700000Y-35550000D03*
%TO.P,U7,15,Mr*%
%TO.N,RES*%
X59700000Y-33010000D03*
%TO.P,U7,16,VCC*%
%TO.N,+5V*%
X59700000Y-30470000D03*
%TD*%
D10*
%TO.P,C8,1*%
%TO.N,+5V*%
X123785000Y-58420000D03*
%TO.P,C8,2*%
%TO.N,GND*%
X118785000Y-58420000D03*
%TD*%
D11*
%TO.P,U2,1,A14*%
%TO.N,A14_1*%
X31750000Y-70104000D03*
D12*
%TO.P,U2,2,A12*%
%TO.N,A12*%
X34290000Y-70104000D03*
%TO.P,U2,3,A7*%
%TO.N,A7*%
X36830000Y-70104000D03*
%TO.P,U2,4,A6*%
%TO.N,A6*%
X39370000Y-70104000D03*
%TO.P,U2,5,A5*%
%TO.N,A5*%
X41910000Y-70104000D03*
%TO.P,U2,6,A4*%
%TO.N,A4*%
X44450000Y-70104000D03*
%TO.P,U2,7,A3*%
%TO.N,A3*%
X46990000Y-70104000D03*
%TO.P,U2,8,A2*%
%TO.N,A2*%
X49530000Y-70104000D03*
%TO.P,U2,9,A1*%
%TO.N,A1*%
X52070000Y-70104000D03*
%TO.P,U2,10,A0*%
%TO.N,A0*%
X54610000Y-70104000D03*
%TO.P,U2,11,Q0*%
%TO.N,D0*%
X57150000Y-70104000D03*
%TO.P,U2,12,Q1*%
%TO.N,D1*%
X59690000Y-70104000D03*
%TO.P,U2,13,Q2*%
%TO.N,D2*%
X62230000Y-70104000D03*
%TO.P,U2,14,GND*%
%TO.N,GND*%
X64770000Y-70104000D03*
%TO.P,U2,15,Q3*%
%TO.N,D3*%
X64770000Y-54864000D03*
%TO.P,U2,16,Q4*%
%TO.N,D4*%
X62230000Y-54864000D03*
%TO.P,U2,17,Q5*%
%TO.N,D5*%
X59690000Y-54864000D03*
%TO.P,U2,18,Q6*%
%TO.N,D6*%
X57150000Y-54864000D03*
%TO.P,U2,19,Q7*%
%TO.N,D7*%
X54610000Y-54864000D03*
%TO.P,U2,20,~{CS}*%
%TO.N,~{CS1}*%
X52070000Y-54864000D03*
%TO.P,U2,21,A10*%
%TO.N,A10*%
X49530000Y-54864000D03*
%TO.P,U2,22,~{OE}*%
%TO.N,~{RD}*%
X46990000Y-54864000D03*
%TO.P,U2,23,A11*%
%TO.N,A11*%
X44450000Y-54864000D03*
%TO.P,U2,24,A9*%
%TO.N,A9*%
X41910000Y-54864000D03*
%TO.P,U2,25,A8*%
%TO.N,A8*%
X39370000Y-54864000D03*
%TO.P,U2,26,A13*%
%TO.N,A13_1*%
X36830000Y-54864000D03*
%TO.P,U2,27,~{WE}*%
%TO.N,~{WR}*%
X34290000Y-54864000D03*
%TO.P,U2,28,VCC*%
%TO.N,+5V*%
X31750000Y-54864000D03*
%TD*%
D15*
%TO.P,J3,1,Pin_1*%
%TO.N,GND*%
X26520000Y-26172000D03*
D16*
%TO.P,J3,2,Pin_2*%
%TO.N,VCC*%
X26520000Y-31252000D03*
%TD*%
D11*
%TO.P,U3,1*%
%TO.N,Net-(U3-Pad1)*%
X101610000Y-33015000D03*
D12*
%TO.P,U3,2*%
%TO.N,EO*%
X101610000Y-35555000D03*
%TO.P,U3,3*%
%TO.N,Net-(U3-Pad3)*%
X101610000Y-38095000D03*
%TO.P,U3,4*%
X101610000Y-40635000D03*
%TO.P,U3,5*%
%TO.N,Net-(U1-Pad10)*%
X101610000Y-43175000D03*
%TO.P,U3,6*%
%TO.N,~{CS1}*%
X101610000Y-45715000D03*
%TO.P,U3,7,GND*%
%TO.N,GND*%
X101610000Y-48255000D03*
%TO.P,U3,8*%
%TO.N,Net-(U1-Pad5)*%
X109230000Y-48255000D03*
%TO.P,U3,9*%
%TO.N,A13*%
X109230000Y-45715000D03*
%TO.P,U3,10*%
%TO.N,A14*%
X109230000Y-43175000D03*
%TO.P,U3,11*%
%TO.N,~{REN}*%
X109230000Y-40635000D03*
%TO.P,U3,12*%
%TO.N,Net-(U1-Pad12)*%
X109230000Y-38095000D03*
%TO.P,U3,13*%
%TO.N,RAMS2*%
X109230000Y-35555000D03*
%TO.P,U3,14,VCC*%
%TO.N,+5V*%
X109230000Y-33015000D03*
%TD*%
D13*
%TO.P,J1,1,Pin_1*%
%TO.N,GND*%
X99055000Y-80518000D03*
D14*
%TO.P,J1,2,Pin_2*%
%TO.N,unconnected-(J1-Pad2)*%
X99055000Y-77978000D03*
%TO.P,J1,3,Pin_3*%
%TO.N,D0*%
X96515000Y-80518000D03*
%TO.P,J1,4,Pin_4*%
%TO.N,D1*%
X96515000Y-77978000D03*
%TO.P,J1,5,Pin_5*%
%TO.N,D2*%
X93975000Y-80518000D03*
%TO.P,J1,6,Pin_6*%
%TO.N,D3*%
X93975000Y-77978000D03*
%TO.P,J1,7,Pin_7*%
%TO.N,D4*%
X91435000Y-80518000D03*
%TO.P,J1,8,Pin_8*%
%TO.N,D5*%
X91435000Y-77978000D03*
%TO.P,J1,9,Pin_9*%
%TO.N,D6*%
X88895000Y-80518000D03*
%TO.P,J1,10,Pin_10*%
%TO.N,D7*%
X88895000Y-77978000D03*
%TO.P,J1,11,Pin_11*%
%TO.N,A0*%
X86355000Y-80518000D03*
%TO.P,J1,12,Pin_12*%
%TO.N,A1*%
X86355000Y-77978000D03*
%TO.P,J1,13,Pin_13*%
%TO.N,A2*%
X83815000Y-80518000D03*
%TO.P,J1,14,Pin_14*%
%TO.N,A3*%
X83815000Y-77978000D03*
%TO.P,J1,15,Pin_15*%
%TO.N,A4*%
X81275000Y-80518000D03*
%TO.P,J1,16,Pin_16*%
%TO.N,A5*%
X81275000Y-77978000D03*
%TO.P,J1,17,Pin_17*%
%TO.N,A6*%
X78735000Y-80518000D03*
%TO.P,J1,18,Pin_18*%
%TO.N,A7*%
X78735000Y-77978000D03*
%TO.P,J1,19,Pin_19*%
%TO.N,A8*%
X76195000Y-80518000D03*
%TO.P,J1,20,Pin_20*%
%TO.N,A9*%
X76195000Y-77978000D03*
%TO.P,J1,21,Pin_21*%
%TO.N,A10*%
X73655000Y-80518000D03*
%TO.P,J1,22,Pin_22*%
%TO.N,A11*%
X73655000Y-77978000D03*
%TO.P,J1,23,Pin_23*%
%TO.N,A12*%
X71115000Y-80518000D03*
%TO.P,J1,24,Pin_24*%
%TO.N,A13*%
X71115000Y-77978000D03*
%TO.P,J1,25,Pin_25*%
%TO.N,A14*%
X68575000Y-80518000D03*
%TO.P,J1,26,Pin_26*%
%TO.N,RAMS2*%
X68575000Y-77978000D03*
%TO.P,J1,27,Pin_27*%
%TO.N,~{MRQ}*%
X66035000Y-80518000D03*
%TO.P,J1,28,Pin_28*%
%TO.N,~{RD}*%
X66035000Y-77978000D03*
%TO.P,J1,29,Pin_29*%
%TO.N,unconnected-(J1-Pad29)*%
X63495000Y-80518000D03*
%TO.P,J1,30,Pin_30*%
%TO.N,~{WR}*%
X63495000Y-77978000D03*
%TO.P,J1,31,Pin_31*%
%TO.N,~{IORQ}*%
X60955000Y-80518000D03*
%TO.P,J1,32,Pin_32*%
%TO.N,unconnected-(J1-Pad32)*%
X60955000Y-77978000D03*
%TO.P,J1,33,Pin_33*%
%TO.N,unconnected-(J1-Pad33)*%
X58415000Y-80518000D03*
%TO.P,J1,34,Pin_34*%
%TO.N,~{RES}*%
X58415000Y-77978000D03*
%TO.P,J1,35,Pin_35*%
%TO.N,unconnected-(J1-Pad35)*%
X55875000Y-80518000D03*
%TO.P,J1,36,Pin_36*%
%TO.N,unconnected-(J1-Pad36)*%
X55875000Y-77978000D03*
%TO.P,J1,37,Pin_37*%
%TO.N,unconnected-(J1-Pad37)*%
X53335000Y-80518000D03*
%TO.P,J1,38,Pin_38*%
%TO.N,unconnected-(J1-Pad38)*%
X53335000Y-77978000D03*
%TO.P,J1,39,Pin_39*%
%TO.N,unconnected-(J1-Pad39)*%
X50795000Y-80518000D03*
%TO.P,J1,40,Pin_40*%
%TO.N,unconnected-(J1-Pad40)*%
X50795000Y-77978000D03*
%TD*%
D17*
%TO.N,EO*%
X57041000Y-33763600D03*
%TO.N,Net-(U1-Pad3)*%
X73118100Y-39230900D03*
%TO.N,S3*%
X101468800Y-51495500D03*
%TO.N,~{CS1}*%
X93989900Y-52396100D03*
%TO.N,~{P=Q}*%
X127193100Y-57404000D03*
X89879300Y-40562500D03*
%TO.N,Net-(U3-Pad3)*%
X89891800Y-33690000D03*
%TO.N,S2*%
X73646700Y-35167200D03*
X87217300Y-36855600D03*
%TO.N,S1*%
X82569600Y-50363500D03*
%TO.N,A13_2*%
X79551500Y-51359100D03*
%TO.N,~{CS2}*%
X87745300Y-42926600D03*
%TO.N,A14_2*%
X77911100Y-63860500D03*
X57971000Y-61617100D03*
%TO.N,~{RES}*%
X61700200Y-57946800D03*
%TO.N,~{WR}*%
X53752800Y-73436200D03*
%TO.N,~{RD}*%
X94179400Y-45032300D03*
X56420000Y-72031000D03*
X76892000Y-67937700D03*
%TO.N,~{MRQ}*%
X65850500Y-57946800D03*
%TO.N,RAMS2*%
X91509700Y-68368400D03*
%TO.N,A14*%
X76879900Y-71862800D03*
X91966500Y-55988900D03*
%TO.N,A13*%
X59108700Y-51116200D03*
X89175900Y-68802200D03*
%TO.N,A11*%
X60674300Y-53697900D03*
%TO.N,A10*%
X84723000Y-63540400D03*
X58530700Y-60598500D03*
%TO.N,A5*%
X119687300Y-81244800D03*
%TO.N,A4*%
X115272900Y-81592300D03*
%TO.N,D7*%
X96005600Y-58837800D03*
%TO.N,D5*%
X102855300Y-60581100D03*
X74407800Y-60581100D03*
%TO.N,D4*%
X107950000Y-62037700D03*
X79282400Y-56887700D03*
%TO.N,D3*%
X107225300Y-65719800D03*
X72901800Y-66138100D03*
%TO.N,D2*%
X63845000Y-56755700D03*
%TO.N,D1*%
X63119600Y-57483600D03*
%TO.N,D0*%
X60699800Y-57926300D03*
%TD*%
D18*
%TO.N,EO*%
X57412800Y-34135400D02*
X57041000Y-33763600D01*
X60820700Y-34135400D02*
X57412800Y-34135400D01*
X66055300Y-39370000D02*
X60820700Y-34135400D01*
X68917500Y-39370000D02*
X66055300Y-39370000D01*
X69715400Y-40167900D02*
X68917500Y-39370000D01*
X69715400Y-43750600D02*
X69715400Y-40167900D01*
X68871300Y-44594700D02*
X69715400Y-43750600D01*
X68590000Y-44594700D02*
X68871300Y-44594700D01*
X68590000Y-45720000D02*
X68590000Y-44594700D01*
%TO.N,Net-(U1-Pad4)*%
X52080000Y-45710000D02*
X52080000Y-46835300D01*
X68590000Y-40640000D02*
X67464700Y-40640000D01*
X61124700Y-46980000D02*
X67464700Y-40640000D01*
X57860700Y-46980000D02*
X61124700Y-46980000D01*
X55444600Y-49396100D02*
X57860700Y-46980000D01*
X51610500Y-49396100D02*
X55444600Y-49396100D01*
X50954700Y-48740300D02*
X51610500Y-49396100D01*
X50954700Y-47723400D02*
X50954700Y-48740300D01*
X51842800Y-46835300D02*
X50954700Y-47723400D01*
X52080000Y-46835300D02*
X51842800Y-46835300D01*
%TO.N,Net-(U1-Pad3)*%
X76601100Y-39230900D02*
X73118100Y-39230900D01*
X83085200Y-45715000D02*
X76601100Y-39230900D01*
X85100000Y-45715000D02*
X83085200Y-45715000D01*
%TO.N,Net-(U1-Pad12)*%
X76210000Y-38100000D02*
X77335300Y-38100000D01*
X109230000Y-38095000D02*
X109230000Y-39220300D01*
X83680300Y-44445000D02*
X77335300Y-38100000D01*
X85447600Y-44445000D02*
X83680300Y-44445000D01*
X86276300Y-45273700D02*
X85447600Y-44445000D01*
X86276300Y-46203000D02*
X86276300Y-45273700D01*
X85494300Y-46985000D02*
X86276300Y-46203000D01*
X84731400Y-46985000D02*
X85494300Y-46985000D01*
X83962000Y-47754400D02*
X84731400Y-46985000D01*
X83962000Y-48768300D02*
X83962000Y-47754400D01*
X85063200Y-49869500D02*
X83962000Y-48768300D01*
X104569500Y-49869500D02*
X85063200Y-49869500D01*
X106615700Y-47823300D02*
X104569500Y-49869500D01*
X106615700Y-41553300D02*
X106615700Y-47823300D01*
X108948700Y-39220300D02*
X106615700Y-41553300D01*
X109230000Y-39220300D02*
X108948700Y-39220300D01*
%TO.N,S0*%
X44315300Y-42189400D02*
X44315300Y-43170000D01*
X50954700Y-35550000D02*
X44315300Y-42189400D01*
X52080000Y-35550000D02*
X50954700Y-35550000D01*
X43190000Y-43170000D02*
X44315300Y-43170000D01*
%TO.N,S3*%
X52080000Y-43170000D02*
X52080000Y-44295300D01*
X101193700Y-51220400D02*
X101468800Y-51495500D01*
X84487900Y-51220400D02*
X101193700Y-51220400D01*
X82880800Y-49613300D02*
X84487900Y-51220400D01*
X77374500Y-49613300D02*
X82880800Y-49613300D01*
X77110100Y-49877700D02*
X77374500Y-49613300D01*
X51393100Y-49877700D02*
X77110100Y-49877700D01*
X50460000Y-48944600D02*
X51393100Y-49877700D01*
X50460000Y-45633900D02*
X50460000Y-48944600D01*
X51798600Y-44295300D02*
X50460000Y-45633900D01*
X52080000Y-44295300D02*
X51798600Y-44295300D01*
%TO.N,Net-(U3-Pad1)*%
X92720000Y-47921400D02*
X92720000Y-48255000D01*
X101276400Y-39365000D02*
X92720000Y-47921400D01*
X101949300Y-39365000D02*
X101276400Y-39365000D01*
X102748000Y-38566300D02*
X101949300Y-39365000D01*
X102748000Y-34997000D02*
X102748000Y-38566300D01*
X101891300Y-34140300D02*
X102748000Y-34997000D01*
X101610000Y-34140300D02*
X101891300Y-34140300D01*
X101610000Y-33015000D02*
X101610000Y-34140300D01*
%TO.N,Net-(U1-Pad5)*%
X109230000Y-48255000D02*
X108104700Y-48255000D01*
X105589600Y-50770100D02*
X108104700Y-48255000D01*
X84675400Y-50770100D02*
X105589600Y-50770100D01*
X83068200Y-49162900D02*
X84675400Y-50770100D01*
X77188000Y-49162900D02*
X83068200Y-49162900D01*
X76923600Y-49427300D02*
X77188000Y-49162900D01*
X68129000Y-49427300D02*
X76923600Y-49427300D01*
X67437300Y-48735600D02*
X68129000Y-49427300D01*
X67437300Y-44332700D02*
X67437300Y-48735600D01*
X68590000Y-43180000D02*
X67437300Y-44332700D01*
%TO.N,~{REN}*%
X76442600Y-41765300D02*
X76210000Y-41765300D01*
X77335300Y-42658000D02*
X76442600Y-41765300D01*
X77335300Y-42785700D02*
X77335300Y-42658000D01*
X84869400Y-50319800D02*
X77335300Y-42785700D01*
X104757400Y-50319800D02*
X84869400Y-50319800D01*
X108104700Y-46972500D02*
X104757400Y-50319800D01*
X108104700Y-42604200D02*
X108104700Y-46972500D01*
X108948600Y-41760300D02*
X108104700Y-42604200D01*
X109230000Y-41760300D02*
X108948600Y-41760300D01*
X109230000Y-40635000D02*
X109230000Y-41760300D01*
X76210000Y-40640000D02*
X76210000Y-41765300D01*
%TO.N,~{CS1}*%
X52070000Y-54864000D02*
X53195300Y-54864000D01*
X93714800Y-52121000D02*
X93989900Y-52396100D01*
X78486900Y-52121000D02*
X93714800Y-52121000D01*
X78269900Y-51904000D02*
X78486900Y-52121000D01*
X60061400Y-51904000D02*
X78269900Y-51904000D01*
X59511300Y-52454100D02*
X60061400Y-51904000D01*
X55323900Y-52454100D02*
X59511300Y-52454100D01*
X53195300Y-54582700D02*
X55323900Y-52454100D01*
X53195300Y-54864000D02*
X53195300Y-54582700D01*
%TO.N,RES*%
X64914700Y-33010000D02*
X67464700Y-35560000D01*
X59700000Y-33010000D02*
X64914700Y-33010000D01*
X68590000Y-35560000D02*
X67464700Y-35560000D01*
%TO.N,~{P=Q}*%
X125386300Y-64787700D02*
X125105000Y-64787700D01*
X127193100Y-62980900D02*
X125386300Y-64787700D01*
X127193100Y-57404000D02*
X127193100Y-62980900D01*
X125105000Y-65913000D02*
X125105000Y-64787700D01*
X92720000Y-35555000D02*
X92720000Y-36680300D01*
X89879300Y-39239700D02*
X89879300Y-40562500D01*
X92438700Y-36680300D02*
X89879300Y-39239700D01*
X92720000Y-36680300D02*
X92438700Y-36680300D01*
%TO.N,+5V*%
X35288700Y-44295300D02*
X35570000Y-44295300D01*
X31750000Y-47834000D02*
X35288700Y-44295300D01*
X31750000Y-54864000D02*
X31750000Y-47834000D01*
X35570000Y-43170000D02*
X35570000Y-44295300D01*
%TO.N,Net-(U3-Pad3)*%
X101610000Y-38095000D02*
X100484700Y-38095000D01*
X96674700Y-34285000D02*
X100484700Y-38095000D01*
X90486800Y-34285000D02*
X96674700Y-34285000D01*
X89891800Y-33690000D02*
X90486800Y-34285000D01*
%TO.N,S2*%
X43190000Y-35550000D02*
X43190000Y-38090000D01*
X75335100Y-36855600D02*
X87217300Y-36855600D01*
X73646700Y-35167200D02*
X75335100Y-36855600D01*
%TO.N,S1*%
X52080000Y-38090000D02*
X52080000Y-39215300D01*
X92720000Y-45715000D02*
X92720000Y-46840300D01*
X92438700Y-46840300D02*
X92720000Y-46840300D01*
X91577600Y-47701400D02*
X92438700Y-46840300D01*
X91577600Y-48715500D02*
X91577600Y-47701400D01*
X92281200Y-49419100D02*
X91577600Y-48715500D01*
X104383000Y-49419100D02*
X92281200Y-49419100D01*
X105606400Y-48195700D02*
X104383000Y-49419100D01*
X105606400Y-37574700D02*
X105606400Y-48195700D01*
X108886100Y-34295000D02*
X105606400Y-37574700D01*
X117485000Y-34295000D02*
X108886100Y-34295000D01*
X82308900Y-50102800D02*
X82569600Y-50363500D01*
X77747200Y-50102800D02*
X82308900Y-50102800D01*
X77465800Y-50384200D02*
X77747200Y-50102800D01*
X51262700Y-50384200D02*
X77465800Y-50384200D01*
X50009700Y-49131200D02*
X51262700Y-50384200D01*
X50009700Y-41004300D02*
X50009700Y-49131200D01*
X51798700Y-39215300D02*
X50009700Y-41004300D01*
X52080000Y-39215300D02*
X51798700Y-39215300D01*
%TO.N,A13_2*%
X47931400Y-51866100D02*
X44315300Y-48250000D01*
X59462400Y-51866100D02*
X47931400Y-51866100D01*
X59874900Y-51453600D02*
X59462400Y-51866100D01*
X79457000Y-51453600D02*
X59874900Y-51453600D01*
X79551500Y-51359100D02*
X79457000Y-51453600D01*
X43190000Y-48250000D02*
X44315300Y-48250000D01*
D19*
%TO.N,GND*%
X118825000Y-24130000D02*
X119888000Y-24130000D01*
D18*
X121412000Y-25654000D02*
X119888000Y-24130000D01*
X121412000Y-51562000D02*
X121412000Y-25654000D01*
X120899000Y-52075000D02*
X121412000Y-51562000D01*
X117485000Y-52075000D02*
X120899000Y-52075000D01*
X104394000Y-27940000D02*
X102910000Y-27940000D01*
X105156000Y-28702000D02*
X104394000Y-27940000D01*
X105156000Y-48006000D02*
X105156000Y-28702000D01*
X104907000Y-48255000D02*
X105156000Y-48006000D01*
X101610000Y-48255000D02*
X104907000Y-48255000D01*
X88138000Y-27940000D02*
X86440000Y-27940000D01*
X89154000Y-28956000D02*
X88138000Y-27940000D01*
X89154000Y-48006000D02*
X89154000Y-28956000D01*
X88905000Y-48255000D02*
X89154000Y-48006000D01*
X85100000Y-48255000D02*
X88905000Y-48255000D01*
D19*
X23358000Y-26172000D02*
X26520000Y-26172000D01*
X22098000Y-27432000D02*
X23358000Y-26172000D01*
X22098000Y-40132000D02*
X22098000Y-27432000D01*
X22860000Y-40894000D02*
X22098000Y-40132000D01*
X24374000Y-39380000D02*
X26520000Y-39380000D01*
X22860000Y-40894000D02*
X24374000Y-39380000D01*
X22860000Y-61058000D02*
X22860000Y-40894000D01*
X26670000Y-64868000D02*
X22860000Y-61058000D01*
X27900000Y-66098000D02*
X26670000Y-64868000D01*
X27900000Y-80010000D02*
X27900000Y-66098000D01*
X27900000Y-87844000D02*
X27900000Y-80010000D01*
X28956000Y-88900000D02*
X27900000Y-87844000D01*
X100330000Y-88900000D02*
X28956000Y-88900000D01*
X99055000Y-87625000D02*
X99055000Y-80518000D01*
X100330000Y-88900000D02*
X99055000Y-87625000D01*
X128524000Y-56134000D02*
X128524000Y-56388000D01*
X120817000Y-56388000D02*
X118785000Y-58420000D01*
X128524000Y-56388000D02*
X120817000Y-56388000D01*
X128524000Y-24130000D02*
X128524000Y-56134000D01*
X127274000Y-22880000D02*
X128524000Y-24130000D01*
X122408000Y-22880000D02*
X127274000Y-22880000D01*
X121158000Y-24130000D02*
X122408000Y-22880000D01*
X119888000Y-24130000D02*
X121158000Y-24130000D01*
X102108000Y-24130000D02*
X118825000Y-24130000D01*
X101894000Y-23916000D02*
X102108000Y-24130000D01*
X85638000Y-23916000D02*
X101894000Y-23916000D01*
X86440000Y-24718000D02*
X86440000Y-27940000D01*
X85638000Y-23916000D02*
X86440000Y-24718000D01*
X67350000Y-23916000D02*
X85638000Y-23916000D01*
X51602000Y-23916000D02*
X51936000Y-23916000D01*
X69930000Y-26496000D02*
X69930000Y-27940000D01*
X67350000Y-23916000D02*
X69930000Y-26496000D01*
X51936000Y-23916000D02*
X53420000Y-25400000D01*
X38354000Y-23916000D02*
X51602000Y-23916000D01*
X36870000Y-25400000D02*
X38354000Y-23916000D01*
X36098000Y-26172000D02*
X36870000Y-25400000D01*
X26520000Y-26172000D02*
X36098000Y-26172000D01*
X51602000Y-23916000D02*
X51936000Y-23916000D01*
X51936000Y-23916000D02*
X67350000Y-23916000D01*
X101894000Y-23916000D02*
X102108000Y-24130000D01*
X102910000Y-24932000D02*
X102910000Y-27940000D01*
X102108000Y-24130000D02*
X102910000Y-24932000D01*
X128524000Y-56134000D02*
X128524000Y-56388000D01*
X118618000Y-88900000D02*
X118364000Y-88900000D01*
X118618000Y-88900000D02*
X118364000Y-88900000D01*
X100584000Y-88900000D02*
X100330000Y-88900000D01*
X118364000Y-88900000D02*
X100584000Y-88900000D01*
X100584000Y-88900000D02*
X100330000Y-88900000D01*
D18*
X128524000Y-73533000D02*
X125105000Y-73533000D01*
D19*
X128524000Y-56388000D02*
X128524000Y-73533000D01*
D18*
X117485000Y-44455000D02*
X117485000Y-46995000D01*
X117485000Y-41915000D02*
X117485000Y-44455000D01*
X35570000Y-40630000D02*
X39370000Y-40630000D01*
X39370000Y-47752000D02*
X39370000Y-40630000D01*
X38872000Y-48250000D02*
X39370000Y-47752000D01*
X35570000Y-48250000D02*
X38872000Y-48250000D01*
X39370000Y-33010000D02*
X43190000Y-33010000D01*
X39370000Y-40630000D02*
X39370000Y-33010000D01*
X38354000Y-25400000D02*
X36870000Y-25400000D01*
X39370000Y-26416000D02*
X38354000Y-25400000D01*
X39370000Y-33010000D02*
X39370000Y-26416000D01*
D19*
X120142000Y-58420000D02*
X118785000Y-58420000D01*
X121412000Y-59690000D02*
X120142000Y-58420000D01*
X121412000Y-68707800D02*
X121412000Y-59690000D01*
D18*
X118865100Y-68707800D02*
X118610300Y-68453000D01*
X121412000Y-68707800D02*
X118865100Y-68707800D01*
X117485000Y-68453000D02*
X118610300Y-68453000D01*
X55880000Y-48006000D02*
X55880000Y-45875600D01*
X55636000Y-48250000D02*
X55880000Y-48006000D01*
X52080000Y-48250000D02*
X55636000Y-48250000D01*
X58409100Y-45875600D02*
X58574700Y-45710000D01*
X55880000Y-45875600D02*
X58409100Y-45875600D01*
X59700000Y-45710000D02*
X58574700Y-45710000D01*
D19*
X121412000Y-85598000D02*
X121412000Y-73235500D01*
X120777000Y-86233000D02*
X121412000Y-85598000D01*
X117485000Y-86233000D02*
X120777000Y-86233000D01*
X121412000Y-73235500D02*
X121412000Y-68707800D01*
D18*
X118907800Y-73235500D02*
X118610300Y-73533000D01*
X121412000Y-73235500D02*
X118907800Y-73235500D01*
X117485000Y-73533000D02*
X118610300Y-73533000D01*
X72390000Y-47752000D02*
X72390000Y-45792300D01*
X71882000Y-48260000D02*
X72390000Y-47752000D01*
X68590000Y-48260000D02*
X71882000Y-48260000D01*
X71882000Y-27940000D02*
X69930000Y-27940000D01*
X72390000Y-28448000D02*
X71882000Y-27940000D01*
X72390000Y-45792300D02*
X72390000Y-28448000D01*
X75012400Y-45792300D02*
X75084700Y-45720000D01*
X72390000Y-45792300D02*
X75012400Y-45792300D01*
X76210000Y-45720000D02*
X75084700Y-45720000D01*
X128524000Y-78613000D02*
X125105000Y-78613000D01*
D19*
X128524000Y-73533000D02*
X128524000Y-78613000D01*
X127762000Y-88900000D02*
X118618000Y-88900000D01*
X128524000Y-88138000D02*
X127762000Y-88900000D01*
X128524000Y-78613000D02*
X128524000Y-88138000D01*
D18*
X55880000Y-45875600D02*
X55880000Y-30532900D01*
X54864000Y-25400000D02*
X53420000Y-25400000D01*
X55880000Y-26416000D02*
X54864000Y-25400000D01*
X55880000Y-30532900D02*
X55880000Y-26416000D01*
X55682400Y-30532900D02*
X53205300Y-33010000D01*
X55880000Y-30532900D02*
X55682400Y-30532900D01*
X52080000Y-33010000D02*
X53205300Y-33010000D01*
%TO.N,~{CS2}*%
X85100000Y-38095000D02*
X85100000Y-39220300D01*
X87745300Y-41584200D02*
X87745300Y-42926600D01*
X85381400Y-39220300D02*
X87745300Y-41584200D01*
X85100000Y-39220300D02*
X85381400Y-39220300D01*
%TO.N,A14_2*%
X42908600Y-41755300D02*
X43190000Y-41755300D01*
X42064700Y-42599200D02*
X42908600Y-41755300D01*
X42064700Y-48762900D02*
X42064700Y-42599200D01*
X44596100Y-51294300D02*
X42064700Y-48762900D01*
X45065000Y-51294300D02*
X44596100Y-51294300D01*
X48260000Y-54489300D02*
X45065000Y-51294300D01*
X48260000Y-55239900D02*
X48260000Y-54489300D01*
X54637200Y-61617100D02*
X48260000Y-55239900D01*
X57971000Y-61617100D02*
X54637200Y-61617100D01*
X43190000Y-40630000D02*
X43190000Y-41755300D01*
X77470000Y-69850000D02*
X77470000Y-68724700D01*
X77911100Y-68283600D02*
X77911100Y-63860500D01*
X77470000Y-68724700D02*
X77911100Y-68283600D01*
%TO.N,~{RES}*%
X61700200Y-62252100D02*
X61700200Y-57946800D01*
X58415000Y-65537300D02*
X61700200Y-62252100D01*
X58415000Y-77978000D02*
X58415000Y-65537300D01*
%TO.N,~{WR}*%
X63495000Y-77978000D02*
X63495000Y-76802700D01*
X80010000Y-54610000D02*
X80010000Y-55735300D01*
X80010000Y-57189500D02*
X80010000Y-55735300D01*
X73965700Y-63233800D02*
X80010000Y-57189500D01*
X73965700Y-66332000D02*
X73965700Y-63233800D01*
X63495000Y-76802700D02*
X73965700Y-66332000D01*
X35415300Y-55145400D02*
X35415300Y-54864000D01*
X36259200Y-55989300D02*
X35415300Y-55145400D01*
X37075200Y-55989300D02*
X36259200Y-55989300D01*
X50800000Y-69714100D02*
X37075200Y-55989300D01*
X50800000Y-70483400D02*
X50800000Y-69714100D01*
X53752800Y-73436200D02*
X50800000Y-70483400D01*
X34290000Y-54864000D02*
X35415300Y-54864000D01*
%TO.N,~{RD}*%
X92720000Y-38095000D02*
X92720000Y-39220300D01*
X94179400Y-40398400D02*
X94179400Y-45032300D01*
X93001300Y-39220300D02*
X94179400Y-40398400D01*
X92720000Y-39220300D02*
X93001300Y-39220300D01*
X55880000Y-64879300D02*
X46990000Y-55989300D01*
X55880000Y-71491000D02*
X55880000Y-64879300D01*
X56420000Y-72031000D02*
X55880000Y-71491000D01*
X46990000Y-54864000D02*
X46990000Y-55989300D01*
X92710000Y-54610000D02*
X91584700Y-54610000D01*
X76892000Y-63839900D02*
X76892000Y-67937700D01*
X80853300Y-59878600D02*
X76892000Y-63839900D01*
X86498200Y-59878600D02*
X80853300Y-59878600D01*
X91584700Y-54792100D02*
X86498200Y-59878600D01*
X91584700Y-54610000D02*
X91584700Y-54792100D01*
%TO.N,~{MRQ}*%
X66035000Y-80518000D02*
X64859700Y-80518000D01*
X65850500Y-67213800D02*
X65850500Y-57946800D01*
X63355400Y-69708900D02*
X65850500Y-67213800D01*
X63355400Y-70778800D02*
X63355400Y-69708900D01*
X62312200Y-71822000D02*
X63355400Y-70778800D01*
X62312200Y-78460000D02*
X62312200Y-71822000D01*
X63194900Y-79342700D02*
X62312200Y-78460000D01*
X64051800Y-79342700D02*
X63194900Y-79342700D01*
X64859700Y-80150600D02*
X64051800Y-79342700D01*
X64859700Y-80518000D02*
X64859700Y-80150600D01*
%TO.N,RAMS2*%
X109230000Y-35555000D02*
X109230000Y-36680300D01*
X96162700Y-68368400D02*
X91509700Y-68368400D01*
X106535400Y-57995700D02*
X96162700Y-68368400D01*
X106535400Y-54216500D02*
X106535400Y-57995700D01*
X110859600Y-49892300D02*
X106535400Y-54216500D01*
X110859600Y-38028600D02*
X110859600Y-49892300D01*
X109511300Y-36680300D02*
X110859600Y-38028600D01*
X109230000Y-36680300D02*
X109511300Y-36680300D01*
%TO.N,A14*%
X91213500Y-55988900D02*
X91966500Y-55988900D01*
X78595400Y-68607000D02*
X91213500Y-55988900D01*
X78595400Y-70790600D02*
X78595400Y-68607000D01*
X77523200Y-71862800D02*
X78595400Y-70790600D01*
X76879900Y-71862800D02*
X77523200Y-71862800D01*
%TO.N,A13*%
X109230000Y-45715000D02*
X109230000Y-46840300D01*
X104022200Y-55050700D02*
X104022200Y-52248900D01*
X103197600Y-55875300D02*
X104022200Y-55050700D01*
X102102800Y-55875300D02*
X103197600Y-55875300D01*
X89175900Y-68802200D02*
X102102800Y-55875300D01*
X106829000Y-52248900D02*
X104022200Y-52248900D01*
X110362700Y-48715200D02*
X106829000Y-52248900D01*
X110362700Y-47691700D02*
X110362700Y-48715200D01*
X109511300Y-46840300D02*
X110362700Y-47691700D01*
X109230000Y-46840300D02*
X109511300Y-46840300D01*
X59221600Y-51003300D02*
X59108700Y-51116200D01*
X77483600Y-51003300D02*
X59221600Y-51003300D01*
X77877500Y-50609400D02*
X77483600Y-51003300D01*
X80187600Y-50609400D02*
X77877500Y-50609400D01*
X81248900Y-51670700D02*
X80187600Y-50609400D01*
X100618300Y-51670700D02*
X81248900Y-51670700D01*
X101196500Y-52248900D02*
X100618300Y-51670700D01*
X104022200Y-52248900D02*
X101196500Y-52248900D01*
%TO.N,A12*%
X35415300Y-69822600D02*
X35415300Y-70104000D01*
X36259200Y-68978700D02*
X35415300Y-69822600D01*
X47478700Y-68978700D02*
X36259200Y-68978700D01*
X48260000Y-69760000D02*
X47478700Y-68978700D01*
X48260000Y-71176700D02*
X48260000Y-69760000D01*
X54605000Y-77521700D02*
X48260000Y-71176700D01*
X54605000Y-78409000D02*
X54605000Y-77521700D01*
X55349400Y-79153400D02*
X54605000Y-78409000D01*
X56174600Y-79153400D02*
X55349400Y-79153400D01*
X57239700Y-80218500D02*
X56174600Y-79153400D01*
X57239700Y-81027900D02*
X57239700Y-80218500D01*
X58369000Y-82157200D02*
X57239700Y-81027900D01*
X68667900Y-82157200D02*
X58369000Y-82157200D01*
X69939700Y-80885400D02*
X68667900Y-82157200D01*
X69939700Y-80518000D02*
X69939700Y-80885400D01*
X71115000Y-80518000D02*
X69939700Y-80518000D01*
X34290000Y-70104000D02*
X35415300Y-70104000D01*
%TO.N,A11*%
X90170000Y-54610000D02*
X89044700Y-54610000D01*
X73655000Y-77978000D02*
X73655000Y-76802700D01*
X89044700Y-54373100D02*
X89044700Y-54610000D01*
X88143500Y-53471900D02*
X89044700Y-54373100D01*
X81168200Y-53471900D02*
X88143500Y-53471900D01*
X81155300Y-53484800D02*
X81168200Y-53471900D01*
X61117300Y-53254900D02*
X60674300Y-53697900D01*
X77166500Y-53254900D02*
X61117300Y-53254900D01*
X77396200Y-53484600D02*
X77166500Y-53254900D01*
X81155100Y-53484600D02*
X77396200Y-53484600D01*
X81155300Y-53484800D02*
X81155100Y-53484600D01*
X81155300Y-57154100D02*
X81155300Y-53484800D01*
X74416000Y-63893400D02*
X81155300Y-57154100D01*
X74416000Y-76041700D02*
X74416000Y-63893400D01*
X73655000Y-76802700D02*
X74416000Y-76041700D01*
%TO.N,A10*%
X95250000Y-54610000D02*
X94124700Y-54610000D01*
X50655300Y-55145300D02*
X50655300Y-54864000D01*
X56108500Y-60598500D02*
X50655300Y-55145300D01*
X58530700Y-60598500D02*
X56108500Y-60598500D01*
X49530000Y-54864000D02*
X50655300Y-54864000D01*
X81280000Y-66983400D02*
X84723000Y-63540400D01*
X81280000Y-71892200D02*
X81280000Y-66983400D01*
X77465000Y-75707200D02*
X81280000Y-71892200D01*
X77465000Y-80973700D02*
X77465000Y-75707200D01*
X76675600Y-81763100D02*
X77465000Y-80973700D01*
X75708100Y-81763100D02*
X76675600Y-81763100D01*
X74830300Y-80885300D02*
X75708100Y-81763100D01*
X74830300Y-80518000D02*
X74830300Y-80885300D01*
X73655000Y-80518000D02*
X74830300Y-80518000D01*
X94124700Y-54868600D02*
X94124700Y-54610000D01*
X85452900Y-63540400D02*
X94124700Y-54868600D01*
X84723000Y-63540400D02*
X85452900Y-63540400D01*
%TO.N,A9*%
X76195000Y-77978000D02*
X76195000Y-76802700D01*
X87630000Y-54610000D02*
X86504700Y-54610000D01*
X76141200Y-76748900D02*
X76195000Y-76802700D01*
X76141200Y-63939900D02*
X76141200Y-76748900D01*
X84345800Y-55735300D02*
X76141200Y-63939900D01*
X85660800Y-55735300D02*
X84345800Y-55735300D01*
X86504700Y-54891400D02*
X85660800Y-55735300D01*
X86504700Y-54610000D02*
X86504700Y-54891400D01*
%TO.N,A8*%
X76195000Y-80518000D02*
X76195000Y-79342700D01*
X85090000Y-54610000D02*
X83964700Y-54610000D01*
X39370000Y-54864000D02*
X39370000Y-55989300D01*
X74980300Y-64310400D02*
X74980300Y-78495300D01*
X83964700Y-55326000D02*
X74980300Y-64310400D01*
X83964700Y-54610000D02*
X83964700Y-55326000D01*
X75827700Y-79342700D02*
X76195000Y-79342700D01*
X74980300Y-78495300D02*
X75827700Y-79342700D01*
X39651300Y-55989300D02*
X39370000Y-55989300D01*
X53340000Y-69678000D02*
X39651300Y-55989300D01*
X53340000Y-71967300D02*
X53340000Y-69678000D01*
X57145000Y-75772300D02*
X53340000Y-71967300D01*
X57145000Y-78409000D02*
X57145000Y-75772300D01*
X57889400Y-79153400D02*
X57145000Y-78409000D01*
X61349900Y-79153400D02*
X57889400Y-79153400D01*
X62130400Y-79933900D02*
X61349900Y-79153400D01*
X62130400Y-80816000D02*
X62130400Y-79933900D01*
X63017700Y-81703300D02*
X62130400Y-80816000D01*
X66531000Y-81703300D02*
X63017700Y-81703300D01*
X67240700Y-80993600D02*
X66531000Y-81703300D01*
X67240700Y-80116900D02*
X67240700Y-80993600D01*
X68109600Y-79248000D02*
X67240700Y-80116900D01*
X74227600Y-79248000D02*
X68109600Y-79248000D01*
X74980300Y-78495300D02*
X74227600Y-79248000D01*
%TO.N,A7*%
X78735000Y-77978000D02*
X79910300Y-77978000D01*
X36830000Y-70104000D02*
X37955300Y-70104000D01*
X81803500Y-71721800D02*
X82550000Y-70975300D01*
X81803500Y-76791600D02*
X81803500Y-71721800D01*
X80729400Y-76791600D02*
X81803500Y-76791600D01*
X79910300Y-77610700D02*
X80729400Y-76791600D01*
X79910300Y-77978000D02*
X79910300Y-77610700D01*
X37955300Y-70385300D02*
X37955300Y-70104000D01*
X51107000Y-83537000D02*
X37955300Y-70385300D01*
X82569200Y-83537000D02*
X51107000Y-83537000D01*
X84991900Y-81114300D02*
X82569200Y-83537000D01*
X84991900Y-79993900D02*
X84991900Y-81114300D01*
X84340600Y-79342600D02*
X84991900Y-79993900D01*
X83515400Y-79342600D02*
X84340600Y-79342600D01*
X82450400Y-78277600D02*
X83515400Y-79342600D01*
X82450400Y-77438500D02*
X82450400Y-78277600D01*
X81803500Y-76791600D02*
X82450400Y-77438500D01*
X82550000Y-69850000D02*
X82550000Y-70975300D01*
%TO.N,A5*%
X87630000Y-69850000D02*
X88755300Y-69850000D01*
X81275000Y-77978000D02*
X81275000Y-79153300D01*
X41910000Y-73331900D02*
X41910000Y-70104000D01*
X51655200Y-83077100D02*
X41910000Y-73331900D01*
X80379000Y-83077100D02*
X51655200Y-83077100D01*
X82457200Y-80998900D02*
X80379000Y-83077100D01*
X82457200Y-79968200D02*
X82457200Y-80998900D01*
X81642300Y-79153300D02*
X82457200Y-79968200D01*
X81275000Y-79153300D02*
X81642300Y-79153300D01*
X118602500Y-82329600D02*
X119687300Y-81244800D01*
X114785300Y-82329600D02*
X118602500Y-82329600D01*
X111784400Y-79328700D02*
X114785300Y-82329600D01*
X98717800Y-79328700D02*
X111784400Y-79328700D01*
X97879700Y-78490600D02*
X98717800Y-79328700D01*
X97879700Y-77652400D02*
X97879700Y-78490600D01*
X91575800Y-71348500D02*
X97879700Y-77652400D01*
X89972400Y-71348500D02*
X91575800Y-71348500D01*
X88755300Y-70131400D02*
X89972400Y-71348500D01*
X88755300Y-69850000D02*
X88755300Y-70131400D01*
%TO.N,A4*%
X44450000Y-70104000D02*
X45575300Y-70104000D01*
X81275000Y-80518000D02*
X80099700Y-80518000D01*
X80099700Y-80884500D02*
X80099700Y-80518000D01*
X78376700Y-82607500D02*
X80099700Y-80884500D01*
X56269300Y-82607500D02*
X78376700Y-82607500D01*
X54699700Y-81037900D02*
X56269300Y-82607500D01*
X54699700Y-80218500D02*
X54699700Y-81037900D01*
X53634600Y-79153400D02*
X54699700Y-80218500D01*
X52809400Y-79153400D02*
X53634600Y-79153400D01*
X52065000Y-78409000D02*
X52809400Y-79153400D01*
X52065000Y-77488100D02*
X52065000Y-78409000D01*
X45575300Y-70998400D02*
X52065000Y-77488100D01*
X45575300Y-70104000D02*
X45575300Y-70998400D01*
X108628700Y-74948100D02*
X115272900Y-81592300D01*
X96175500Y-74948100D02*
X108628700Y-74948100D01*
X91295300Y-70067900D02*
X96175500Y-74948100D01*
X91295300Y-69850000D02*
X91295300Y-70067900D01*
X90170000Y-69850000D02*
X91295300Y-69850000D01*
%TO.N,A3*%
X109704400Y-74497700D02*
X116359700Y-81153000D01*
X98201700Y-74497700D02*
X109704400Y-74497700D01*
X93835300Y-70131300D02*
X98201700Y-74497700D01*
X93835300Y-69850000D02*
X93835300Y-70131300D01*
X92710000Y-69850000D02*
X93835300Y-69850000D01*
X117485000Y-81153000D02*
X116359700Y-81153000D01*
%TO.N,A2*%
X95250000Y-69850000D02*
X96375300Y-69850000D01*
X117485000Y-76073000D02*
X116359700Y-76073000D01*
X96375300Y-70131300D02*
X96375300Y-69850000D01*
X99841100Y-73597100D02*
X96375300Y-70131300D01*
X113883800Y-73597100D02*
X99841100Y-73597100D01*
X116359700Y-76073000D02*
X113883800Y-73597100D01*
%TO.N,A1*%
X117485000Y-70993000D02*
X116359700Y-70993000D01*
X97790000Y-69850000D02*
X98915300Y-69850000D01*
X115909400Y-71443300D02*
X116359700Y-70993000D01*
X100227300Y-71443300D02*
X115909400Y-71443300D01*
X98915300Y-70131300D02*
X100227300Y-71443300D01*
X98915300Y-69850000D02*
X98915300Y-70131300D01*
%TO.N,A0*%
X112773700Y-65913000D02*
X117485000Y-65913000D01*
X109220000Y-69466700D02*
X112773700Y-65913000D01*
X109220000Y-70208900D02*
X109220000Y-69466700D01*
X108436000Y-70992900D02*
X109220000Y-70208900D01*
X102316900Y-70992900D02*
X108436000Y-70992900D01*
X101455300Y-70131300D02*
X102316900Y-70992900D01*
X101455300Y-69850000D02*
X101455300Y-70131300D01*
X100330000Y-69850000D02*
X101455300Y-69850000D01*
%TO.N,D7*%
X54610000Y-54864000D02*
X55735300Y-54864000D01*
X100330000Y-54610000D02*
X99204700Y-54610000D01*
X99204700Y-54328700D02*
X99204700Y-54610000D01*
X97905700Y-53029700D02*
X99204700Y-54328700D01*
X94382100Y-53029700D02*
X97905700Y-53029700D01*
X94290400Y-53121400D02*
X94382100Y-53029700D01*
X93689500Y-53121400D02*
X94290400Y-53121400D01*
X93139400Y-52571300D02*
X93689500Y-53121400D01*
X78300300Y-52571300D02*
X93139400Y-52571300D01*
X78083300Y-52354300D02*
X78300300Y-52571300D01*
X60321300Y-52354300D02*
X78083300Y-52354300D01*
X59764100Y-52911500D02*
X60321300Y-52354300D01*
X57471300Y-52911500D02*
X59764100Y-52911500D01*
X55735300Y-54647500D02*
X57471300Y-52911500D01*
X55735300Y-54864000D02*
X55735300Y-54647500D01*
X88895000Y-77978000D02*
X88895000Y-76802700D01*
X86498000Y-68345400D02*
X96005600Y-58837800D01*
X86498000Y-74405700D02*
X86498000Y-68345400D01*
X88895000Y-76802700D02*
X86498000Y-74405700D01*
%TO.N,D6*%
X57150000Y-54864000D02*
X58275300Y-54864000D01*
X102870000Y-54610000D02*
X101744700Y-54610000D01*
X101744700Y-54891300D02*
X101744700Y-54610000D01*
X100893100Y-55742900D02*
X101744700Y-54891300D01*
X96375400Y-55742900D02*
X100893100Y-55742900D01*
X58275300Y-54582700D02*
X58275300Y-54864000D01*
X59496200Y-53361800D02*
X58275300Y-54582700D01*
X59950800Y-53361800D02*
X59496200Y-53361800D01*
X60508000Y-52804600D02*
X59950800Y-53361800D01*
X77896700Y-52804600D02*
X60508000Y-52804600D01*
X78113700Y-53021600D02*
X77896700Y-52804600D01*
X92952800Y-53021600D02*
X78113700Y-53021600D01*
X93502900Y-53571700D02*
X92952800Y-53021600D01*
X94477000Y-53571700D02*
X93502900Y-53571700D01*
X94568600Y-53480100D02*
X94477000Y-53571700D01*
X95757700Y-53480100D02*
X94568600Y-53480100D01*
X96375400Y-54097800D02*
X95757700Y-53480100D01*
X96375400Y-55742900D02*
X96375400Y-54097800D01*
X83938900Y-68179400D02*
X96375400Y-55742900D01*
X83938900Y-73458600D02*
X83938900Y-68179400D01*
X87719700Y-77239400D02*
X83938900Y-73458600D01*
X87719700Y-78534800D02*
X87719700Y-77239400D01*
X88527600Y-79342700D02*
X87719700Y-78534800D01*
X88895000Y-79342700D02*
X88527600Y-79342700D01*
X88895000Y-80518000D02*
X88895000Y-79342700D01*
%TO.N,D5*%
X105410000Y-54610000D02*
X105410000Y-55735300D01*
X102855300Y-58290000D02*
X102855300Y-60581100D01*
X105410000Y-55735300D02*
X102855300Y-58290000D01*
X59690000Y-54864000D02*
X60815300Y-54864000D01*
X74407700Y-60581100D02*
X74407800Y-60581100D01*
X74407700Y-60091600D02*
X74407700Y-60581100D01*
X70305400Y-55989300D02*
X74407700Y-60091600D01*
X61659200Y-55989300D02*
X70305400Y-55989300D01*
X60815300Y-55145400D02*
X61659200Y-55989300D01*
X60815300Y-54864000D02*
X60815300Y-55145400D01*
%TO.N,D4*%
X107950000Y-54610000D02*
X107950000Y-62037700D01*
X63355300Y-54582600D02*
X63355300Y-54864000D01*
X64199200Y-53738700D02*
X63355300Y-54582600D01*
X72582800Y-53738700D02*
X64199200Y-53738700D01*
X75731800Y-56887700D02*
X72582800Y-53738700D01*
X79282400Y-56887700D02*
X75731800Y-56887700D01*
X62230000Y-54864000D02*
X63355300Y-54864000D01*
%TO.N,D3*%
X110490000Y-62455100D02*
X110490000Y-55735300D01*
X107225300Y-65719800D02*
X110490000Y-62455100D01*
X110490000Y-54610000D02*
X110490000Y-55735300D01*
X69852200Y-54864000D02*
X64770000Y-54864000D01*
X75148400Y-60160200D02*
X69852200Y-54864000D01*
X75148400Y-61286200D02*
X75148400Y-60160200D01*
X73515400Y-62919200D02*
X75148400Y-61286200D01*
X73515400Y-65524500D02*
X73515400Y-62919200D01*
X72901800Y-66138100D02*
X73515400Y-65524500D01*
%TO.N,D2*%
X125105000Y-39375000D02*
X125105000Y-40500300D01*
X107950000Y-69850000D02*
X107950000Y-68724700D01*
X124912200Y-40500300D02*
X125105000Y-40500300D01*
X123979700Y-41432800D02*
X124912200Y-40500300D01*
X123979700Y-51346100D02*
X123979700Y-41432800D01*
X107950000Y-67375800D02*
X123979700Y-51346100D01*
X107950000Y-68724700D02*
X107950000Y-67375800D01*
X62230000Y-70104000D02*
X62230000Y-68978700D01*
X63845000Y-67363700D02*
X63845000Y-56755700D01*
X62230000Y-68978700D02*
X63845000Y-67363700D01*
%TO.N,D1*%
X124823700Y-37960300D02*
X125105000Y-37960300D01*
X123304200Y-39479800D02*
X124823700Y-37960300D01*
X123304200Y-51384700D02*
X123304200Y-39479800D01*
X105964200Y-68724700D02*
X123304200Y-51384700D01*
X105410000Y-68724700D02*
X105964200Y-68724700D01*
X105410000Y-69850000D02*
X105410000Y-68724700D01*
X125105000Y-36835000D02*
X125105000Y-37960300D01*
X59690000Y-70104000D02*
X59690000Y-68978700D01*
X63119600Y-65549100D02*
X63119600Y-57483600D01*
X59690000Y-68978700D02*
X63119600Y-65549100D01*
%TO.N,D0*%
X102870000Y-69850000D02*
X103995300Y-69850000D01*
X125105000Y-34295000D02*
X125105000Y-35420300D01*
X103995300Y-69432600D02*
X103995300Y-69850000D01*
X106982800Y-66445100D02*
X103995300Y-69432600D01*
X107528900Y-66445100D02*
X106982800Y-66445100D01*
X122628900Y-51345100D02*
X107528900Y-66445100D01*
X122628900Y-37615100D02*
X122628900Y-51345100D01*
X124823700Y-35420300D02*
X122628900Y-37615100D01*
X125105000Y-35420300D02*
X124823700Y-35420300D01*
X57150000Y-70104000D02*
X57150000Y-71229300D01*
X60699800Y-60360600D02*
X60699800Y-57926300D01*
X57599200Y-63461200D02*
X60699800Y-60360600D01*
X57599200Y-71162400D02*
X57599200Y-63461200D01*
X57532300Y-71229300D02*
X57599200Y-71162400D01*
X57150000Y-71229300D02*
X57532300Y-71229300D01*
%TO.N,A14_1*%
X31750000Y-70104000D02*
X31750000Y-68978700D01*
X35570000Y-45710000D02*
X35570000Y-46835300D01*
X35387600Y-46835300D02*
X35570000Y-46835300D01*
X32875300Y-49347600D02*
X35387600Y-46835300D01*
X32875300Y-67853400D02*
X32875300Y-49347600D01*
X31750000Y-68978700D02*
X32875300Y-67853400D01*
%TD*%
M02*
