%TF.GenerationSoftware,KiCad,Pcbnew,8.0.2*%
%TF.CreationDate,2024-05-20T09:09:19+02:00*%
%TF.ProjectId,p2000t-ram-expansion-board,70323030-3074-42d7-9261-6d2d65787061,4*%
%TF.SameCoordinates,Original*%
%TF.FileFunction,Copper,L2,Bot*%
%TF.FilePolarity,Positive*%
%FSLAX46Y46*%
G04 Gerber Fmt 4.6, Leading zero omitted, Abs format (unit mm)*
G04 Created by KiCad (PCBNEW 8.0.2) date 2024-05-20 09:09:19*
%MOMM*%
%LPD*%
G01*
G04 APERTURE LIST*
%TA.AperFunction,ComponentPad*%
%ADD10C,1.600000*%
%TD*%
%TA.AperFunction,ComponentPad*%
%ADD11R,1.600000X1.600000*%
%TD*%
%TA.AperFunction,ComponentPad*%
%ADD12O,1.600000X1.600000*%
%TD*%
%TA.AperFunction,ComponentPad*%
%ADD13R,1.700000X1.700000*%
%TD*%
%TA.AperFunction,ComponentPad*%
%ADD14O,1.700000X1.700000*%
%TD*%
%TA.AperFunction,ComponentPad*%
%ADD15C,3.000000*%
%TD*%
%TA.AperFunction,ComponentPad*%
%ADD16R,3.000000X3.000000*%
%TD*%
%TA.AperFunction,ViaPad*%
%ADD17C,0.800000*%
%TD*%
%TA.AperFunction,Conductor*%
%ADD18C,0.250000*%
%TD*%
%TA.AperFunction,Conductor*%
%ADD19C,0.500000*%
%TD*%
G04 APERTURE END LIST*
D10*
%TO.P,C1,1*%
%TO.N,+5V*%
X91440000Y-27940000D03*
%TO.P,C1,2*%
%TO.N,GND*%
X86440000Y-27940000D03*
%TD*%
D11*
%TO.P,U5,1,G*%
%TO.N,~{IORQ}*%
X117485000Y-63373000D03*
D12*
%TO.P,U5,2,P0*%
%TO.N,A0*%
X117485000Y-65913000D03*
%TO.P,U5,3,R0*%
%TO.N,GND*%
X117485000Y-68453000D03*
%TO.P,U5,4,P1*%
%TO.N,A1*%
X117485000Y-70993000D03*
%TO.P,U5,5,R1*%
%TO.N,GND*%
X117485000Y-73533000D03*
%TO.P,U5,6,P2*%
%TO.N,A2*%
X117485000Y-76073000D03*
%TO.P,U5,7,R2*%
%TO.N,+5V*%
X117485000Y-78613000D03*
%TO.P,U5,8,P3*%
%TO.N,A3*%
X117485000Y-81153000D03*
%TO.P,U5,9,R3*%
%TO.N,GND*%
X117485000Y-83693000D03*
%TO.P,U5,10,GND*%
X117485000Y-86233000D03*
%TO.P,U5,11,P4*%
%TO.N,A4*%
X125105000Y-86233000D03*
%TO.P,U5,12,R4*%
%TO.N,+5V*%
X125105000Y-83693000D03*
%TO.P,U5,13,P5*%
%TO.N,A5*%
X125105000Y-81153000D03*
%TO.P,U5,14,R5*%
%TO.N,GND*%
X125105000Y-78613000D03*
%TO.P,U5,15,P6*%
%TO.N,A6*%
X125105000Y-76073000D03*
%TO.P,U5,16,R6*%
%TO.N,GND*%
X125105000Y-73533000D03*
%TO.P,U5,17,P7*%
%TO.N,A7*%
X125105000Y-70993000D03*
%TO.P,U5,18,R7*%
%TO.N,+5V*%
X125105000Y-68453000D03*
%TO.P,U5,19,P=R*%
%TO.N,~{P=Q}*%
X125105000Y-65913000D03*
%TO.P,U5,20,VCC*%
%TO.N,+5V*%
X125105000Y-63373000D03*
%TD*%
D10*
%TO.P,C9,1*%
%TO.N,+5V*%
X74930000Y-27940000D03*
%TO.P,C9,2*%
%TO.N,GND*%
X69930000Y-27940000D03*
%TD*%
D11*
%TO.P,D1,1,K*%
%TO.N,+5V*%
X26520000Y-54620000D03*
D12*
%TO.P,D1,2,A*%
%TO.N,VCC*%
X26520000Y-47000000D03*
%TD*%
D10*
%TO.P,C5,1*%
%TO.N,+5V*%
X58420000Y-25400000D03*
%TO.P,C5,2*%
%TO.N,GND*%
X53420000Y-25400000D03*
%TD*%
%TO.P,C10,1*%
%TO.N,+5V*%
X123825000Y-24130000D03*
%TO.P,C10,2*%
%TO.N,GND*%
X118825000Y-24130000D03*
%TD*%
%TO.P,C6,1*%
%TO.N,+5V*%
X72390000Y-59730000D03*
%TO.P,C6,2*%
%TO.N,GND*%
X72390000Y-64730000D03*
%TD*%
D11*
%TO.P,U9,1,S*%
%TO.N,EO*%
X35570000Y-30470000D03*
D12*
%TO.P,U9,2,I0a*%
%TO.N,A13*%
X35570000Y-33010000D03*
%TO.P,U9,3,I1a*%
%TO.N,S0*%
X35570000Y-35550000D03*
%TO.P,U9,4,Za*%
%TO.N,A13_1*%
X35570000Y-38090000D03*
%TO.P,U9,5,I0b*%
%TO.N,GND*%
X35570000Y-40630000D03*
%TO.P,U9,6,I1b*%
%TO.N,+5V*%
X35570000Y-43170000D03*
%TO.P,U9,7,Zb*%
%TO.N,A14_1*%
X35570000Y-45710000D03*
%TO.P,U9,8,GND*%
%TO.N,GND*%
X35570000Y-48250000D03*
%TO.P,U9,9,Zc*%
%TO.N,A13_2*%
X43190000Y-48250000D03*
%TO.P,U9,10,I1c*%
%TO.N,S0*%
X43190000Y-45710000D03*
%TO.P,U9,11,I0c*%
X43190000Y-43170000D03*
%TO.P,U9,12,Zd*%
%TO.N,A14_2*%
X43190000Y-40630000D03*
%TO.P,U9,13,I1d*%
%TO.N,S2*%
X43190000Y-38090000D03*
%TO.P,U9,14,I0d*%
X43190000Y-35550000D03*
%TO.P,U9,15,E*%
%TO.N,GND*%
X43190000Y-33010000D03*
%TO.P,U9,16,VCC*%
%TO.N,+5V*%
X43190000Y-30470000D03*
%TD*%
D11*
%TO.P,U1,1*%
%TO.N,~{RES}*%
X68590000Y-33020000D03*
D12*
%TO.P,U1,2*%
%TO.N,RES*%
X68590000Y-35560000D03*
%TO.P,U1,3*%
%TO.N,Net-(U1-Pad3)*%
X68590000Y-38100000D03*
%TO.P,U1,4*%
%TO.N,Net-(U1-Pad4)*%
X68590000Y-40640000D03*
%TO.P,U1,5*%
%TO.N,Net-(U1-Pad5)*%
X68590000Y-43180000D03*
%TO.P,U1,6*%
%TO.N,EO*%
X68590000Y-45720000D03*
%TO.P,U1,7,GND*%
%TO.N,GND*%
X68590000Y-48260000D03*
%TO.P,U1,8*%
%TO.N,unconnected-(U1-Pad8)*%
X76210000Y-48260000D03*
%TO.P,U1,9*%
%TO.N,GND*%
X76210000Y-45720000D03*
%TO.P,U1,10*%
%TO.N,Net-(U1-Pad10)*%
X76210000Y-43180000D03*
%TO.P,U1,11*%
%TO.N,~{REN}*%
X76210000Y-40640000D03*
%TO.P,U1,12*%
%TO.N,Net-(U1-Pad12)*%
X76210000Y-38100000D03*
%TO.P,U1,13*%
%TO.N,~{MRQ}*%
X76210000Y-35560000D03*
%TO.P,U1,14,VCC*%
%TO.N,+5V*%
X76210000Y-33020000D03*
%TD*%
D10*
%TO.P,C7,1*%
%TO.N,+5V*%
X26670000Y-59868000D03*
%TO.P,C7,2*%
%TO.N,GND*%
X26670000Y-64868000D03*
%TD*%
D11*
%TO.P,U8,1,A->B*%
%TO.N,+5V*%
X117485000Y-29215000D03*
D12*
%TO.P,U8,2,A0*%
%TO.N,S0*%
X117485000Y-31755000D03*
%TO.P,U8,3,A1*%
%TO.N,S1*%
X117485000Y-34295000D03*
%TO.P,U8,4,A2*%
%TO.N,S2*%
X117485000Y-36835000D03*
%TO.P,U8,5,A3*%
%TO.N,S3*%
X117485000Y-39375000D03*
%TO.P,U8,6,A4*%
%TO.N,GND*%
X117485000Y-41915000D03*
%TO.P,U8,7,A5*%
X117485000Y-44455000D03*
%TO.P,U8,8,A6*%
X117485000Y-46995000D03*
%TO.P,U8,9,A7*%
X117485000Y-49535000D03*
%TO.P,U8,10,GND*%
X117485000Y-52075000D03*
%TO.P,U8,11,B7*%
%TO.N,D7*%
X125105000Y-52075000D03*
%TO.P,U8,12,B6*%
%TO.N,D6*%
X125105000Y-49535000D03*
%TO.P,U8,13,B5*%
%TO.N,D5*%
X125105000Y-46995000D03*
%TO.P,U8,14,B4*%
%TO.N,D4*%
X125105000Y-44455000D03*
%TO.P,U8,15,B3*%
%TO.N,D3*%
X125105000Y-41915000D03*
%TO.P,U8,16,B2*%
%TO.N,D2*%
X125105000Y-39375000D03*
%TO.P,U8,17,B1*%
%TO.N,D1*%
X125105000Y-36835000D03*
%TO.P,U8,18,B0*%
%TO.N,D0*%
X125105000Y-34295000D03*
%TO.P,U8,19,CE*%
%TO.N,Net-(U6-Pad11)*%
X125105000Y-31755000D03*
%TO.P,U8,20,VCC*%
%TO.N,+5V*%
X125105000Y-29215000D03*
%TD*%
D11*
%TO.P,C3,1*%
%TO.N,+5V*%
X25400000Y-80010000D03*
D10*
%TO.P,C3,2*%
%TO.N,GND*%
X27900000Y-80010000D03*
%TD*%
%TO.P,C4,1*%
%TO.N,+5V*%
X107910000Y-27940000D03*
%TO.P,C4,2*%
%TO.N,GND*%
X102910000Y-27940000D03*
%TD*%
%TO.P,C2,1*%
%TO.N,+5V*%
X41870000Y-25400000D03*
%TO.P,C2,2*%
%TO.N,GND*%
X36870000Y-25400000D03*
%TD*%
D11*
%TO.P,U4,1,A14*%
%TO.N,A14_2*%
X77470000Y-69850000D03*
D12*
%TO.P,U4,2,A12*%
%TO.N,A12*%
X80010000Y-69850000D03*
%TO.P,U4,3,A7*%
%TO.N,A7*%
X82550000Y-69850000D03*
%TO.P,U4,4,A6*%
%TO.N,A6*%
X85090000Y-69850000D03*
%TO.P,U4,5,A5*%
%TO.N,A5*%
X87630000Y-69850000D03*
%TO.P,U4,6,A4*%
%TO.N,A4*%
X90170000Y-69850000D03*
%TO.P,U4,7,A3*%
%TO.N,A3*%
X92710000Y-69850000D03*
%TO.P,U4,8,A2*%
%TO.N,A2*%
X95250000Y-69850000D03*
%TO.P,U4,9,A1*%
%TO.N,A1*%
X97790000Y-69850000D03*
%TO.P,U4,10,A0*%
%TO.N,A0*%
X100330000Y-69850000D03*
%TO.P,U4,11,Q0*%
%TO.N,D0*%
X102870000Y-69850000D03*
%TO.P,U4,12,Q1*%
%TO.N,D1*%
X105410000Y-69850000D03*
%TO.P,U4,13,Q2*%
%TO.N,D2*%
X107950000Y-69850000D03*
%TO.P,U4,14,GND*%
%TO.N,GND*%
X110490000Y-69850000D03*
%TO.P,U4,15,Q3*%
%TO.N,D3*%
X110490000Y-54610000D03*
%TO.P,U4,16,Q4*%
%TO.N,D4*%
X107950000Y-54610000D03*
%TO.P,U4,17,Q5*%
%TO.N,D5*%
X105410000Y-54610000D03*
%TO.P,U4,18,Q6*%
%TO.N,D6*%
X102870000Y-54610000D03*
%TO.P,U4,19,Q7*%
%TO.N,D7*%
X100330000Y-54610000D03*
%TO.P,U4,20,~{CS}*%
%TO.N,~{CS2}*%
X97790000Y-54610000D03*
%TO.P,U4,21,A10*%
%TO.N,A10*%
X95250000Y-54610000D03*
%TO.P,U4,22,~{OE}*%
%TO.N,~{RD}*%
X92710000Y-54610000D03*
%TO.P,U4,23,A11*%
%TO.N,A11*%
X90170000Y-54610000D03*
%TO.P,U4,24,A9*%
%TO.N,A9*%
X87630000Y-54610000D03*
%TO.P,U4,25,A8*%
%TO.N,A8*%
X85090000Y-54610000D03*
%TO.P,U4,26,A13*%
%TO.N,A13_2*%
X82550000Y-54610000D03*
%TO.P,U4,27,~{WE}*%
%TO.N,~{WR}*%
X80010000Y-54610000D03*
%TO.P,U4,28,VCC*%
%TO.N,+5V*%
X77470000Y-54610000D03*
%TD*%
D13*
%TO.P,J2,1,Pin_1*%
%TO.N,GND*%
X26520000Y-39380000D03*
D14*
%TO.P,J2,2,Pin_2*%
%TO.N,VCC*%
X26520000Y-41920000D03*
%TD*%
D11*
%TO.P,U6,1*%
%TO.N,Net-(U3-Pad3)*%
X85100000Y-33015000D03*
D12*
%TO.P,U6,2*%
%TO.N,~{REN}*%
X85100000Y-35555000D03*
%TO.P,U6,3*%
%TO.N,~{CS2}*%
X85100000Y-38095000D03*
%TO.P,U6,4*%
%TO.N,~{P=Q}*%
X85100000Y-40635000D03*
%TO.P,U6,5*%
%TO.N,~{WR}*%
X85100000Y-43175000D03*
%TO.P,U6,6*%
%TO.N,Net-(U1-Pad3)*%
X85100000Y-45715000D03*
%TO.P,U6,7,GND*%
%TO.N,GND*%
X85100000Y-48255000D03*
%TO.P,U6,8*%
%TO.N,Net-(U3-Pad1)*%
X92720000Y-48255000D03*
%TO.P,U6,9*%
%TO.N,S1*%
X92720000Y-45715000D03*
%TO.P,U6,10*%
%TO.N,S2*%
X92720000Y-43175000D03*
%TO.P,U6,11*%
%TO.N,Net-(U6-Pad11)*%
X92720000Y-40635000D03*
%TO.P,U6,12*%
%TO.N,~{RD}*%
X92720000Y-38095000D03*
%TO.P,U6,13*%
%TO.N,~{P=Q}*%
X92720000Y-35555000D03*
%TO.P,U6,14,VCC*%
%TO.N,+5V*%
X92720000Y-33015000D03*
%TD*%
D11*
%TO.P,U7,1,Oe1*%
%TO.N,GND*%
X52080000Y-30470000D03*
D12*
%TO.P,U7,2,Oe2*%
X52080000Y-33010000D03*
%TO.P,U7,3,Q0*%
%TO.N,S0*%
X52080000Y-35550000D03*
%TO.P,U7,4,Q1*%
%TO.N,S1*%
X52080000Y-38090000D03*
%TO.P,U7,5,Q2*%
%TO.N,S2*%
X52080000Y-40630000D03*
%TO.P,U7,6,Q3*%
%TO.N,S3*%
X52080000Y-43170000D03*
%TO.P,U7,7,Cp*%
%TO.N,Net-(U1-Pad4)*%
X52080000Y-45710000D03*
%TO.P,U7,8,GND*%
%TO.N,GND*%
X52080000Y-48250000D03*
%TO.P,U7,9,E1*%
X59700000Y-48250000D03*
%TO.P,U7,10,E2*%
X59700000Y-45710000D03*
%TO.P,U7,11,D3*%
%TO.N,D3*%
X59700000Y-43170000D03*
%TO.P,U7,12,D2*%
%TO.N,D2*%
X59700000Y-40630000D03*
%TO.P,U7,13,D1*%
%TO.N,D1*%
X59700000Y-38090000D03*
%TO.P,U7,14,D0*%
%TO.N,D0*%
X59700000Y-35550000D03*
%TO.P,U7,15,Mr*%
%TO.N,RES*%
X59700000Y-33010000D03*
%TO.P,U7,16,VCC*%
%TO.N,+5V*%
X59700000Y-30470000D03*
%TD*%
D10*
%TO.P,C8,1*%
%TO.N,+5V*%
X123785000Y-58420000D03*
%TO.P,C8,2*%
%TO.N,GND*%
X118785000Y-58420000D03*
%TD*%
D11*
%TO.P,U2,1,A14*%
%TO.N,A14_1*%
X31750000Y-70104000D03*
D12*
%TO.P,U2,2,A12*%
%TO.N,A12*%
X34290000Y-70104000D03*
%TO.P,U2,3,A7*%
%TO.N,A7*%
X36830000Y-70104000D03*
%TO.P,U2,4,A6*%
%TO.N,A6*%
X39370000Y-70104000D03*
%TO.P,U2,5,A5*%
%TO.N,A5*%
X41910000Y-70104000D03*
%TO.P,U2,6,A4*%
%TO.N,A4*%
X44450000Y-70104000D03*
%TO.P,U2,7,A3*%
%TO.N,A3*%
X46990000Y-70104000D03*
%TO.P,U2,8,A2*%
%TO.N,A2*%
X49530000Y-70104000D03*
%TO.P,U2,9,A1*%
%TO.N,A1*%
X52070000Y-70104000D03*
%TO.P,U2,10,A0*%
%TO.N,A0*%
X54610000Y-70104000D03*
%TO.P,U2,11,Q0*%
%TO.N,D0*%
X57150000Y-70104000D03*
%TO.P,U2,12,Q1*%
%TO.N,D1*%
X59690000Y-70104000D03*
%TO.P,U2,13,Q2*%
%TO.N,D2*%
X62230000Y-70104000D03*
%TO.P,U2,14,GND*%
%TO.N,GND*%
X64770000Y-70104000D03*
%TO.P,U2,15,Q3*%
%TO.N,D3*%
X64770000Y-54864000D03*
%TO.P,U2,16,Q4*%
%TO.N,D4*%
X62230000Y-54864000D03*
%TO.P,U2,17,Q5*%
%TO.N,D5*%
X59690000Y-54864000D03*
%TO.P,U2,18,Q6*%
%TO.N,D6*%
X57150000Y-54864000D03*
%TO.P,U2,19,Q7*%
%TO.N,D7*%
X54610000Y-54864000D03*
%TO.P,U2,20,~{CS}*%
%TO.N,~{CS1}*%
X52070000Y-54864000D03*
%TO.P,U2,21,A10*%
%TO.N,A10*%
X49530000Y-54864000D03*
%TO.P,U2,22,~{OE}*%
%TO.N,~{RD}*%
X46990000Y-54864000D03*
%TO.P,U2,23,A11*%
%TO.N,A11*%
X44450000Y-54864000D03*
%TO.P,U2,24,A9*%
%TO.N,A9*%
X41910000Y-54864000D03*
%TO.P,U2,25,A8*%
%TO.N,A8*%
X39370000Y-54864000D03*
%TO.P,U2,26,A13*%
%TO.N,A13_1*%
X36830000Y-54864000D03*
%TO.P,U2,27,~{WE}*%
%TO.N,~{WR}*%
X34290000Y-54864000D03*
%TO.P,U2,28,VCC*%
%TO.N,+5V*%
X31750000Y-54864000D03*
%TD*%
D15*
%TO.P,J3,2,Pin_2*%
%TO.N,VCC*%
X26520000Y-31252000D03*
D16*
%TO.P,J3,1,Pin_1*%
%TO.N,GND*%
X26520000Y-26172000D03*
%TD*%
D11*
%TO.P,U3,1*%
%TO.N,Net-(U3-Pad1)*%
X101610000Y-33015000D03*
D12*
%TO.P,U3,2*%
%TO.N,EO*%
X101610000Y-35555000D03*
%TO.P,U3,3*%
%TO.N,Net-(U3-Pad3)*%
X101610000Y-38095000D03*
%TO.P,U3,4*%
X101610000Y-40635000D03*
%TO.P,U3,5*%
%TO.N,Net-(U1-Pad10)*%
X101610000Y-43175000D03*
%TO.P,U3,6*%
%TO.N,~{CS1}*%
X101610000Y-45715000D03*
%TO.P,U3,7,GND*%
%TO.N,GND*%
X101610000Y-48255000D03*
%TO.P,U3,8*%
%TO.N,Net-(U1-Pad5)*%
X109230000Y-48255000D03*
%TO.P,U3,9*%
%TO.N,A13*%
X109230000Y-45715000D03*
%TO.P,U3,10*%
%TO.N,A14*%
X109230000Y-43175000D03*
%TO.P,U3,11*%
%TO.N,~{REN}*%
X109230000Y-40635000D03*
%TO.P,U3,12*%
%TO.N,Net-(U1-Pad12)*%
X109230000Y-38095000D03*
%TO.P,U3,13*%
%TO.N,RAMS2*%
X109230000Y-35555000D03*
%TO.P,U3,14,VCC*%
%TO.N,+5V*%
X109230000Y-33015000D03*
%TD*%
D13*
%TO.P,J1,1,Pin_1*%
%TO.N,GND*%
X99055000Y-80518000D03*
D14*
%TO.P,J1,2,Pin_2*%
%TO.N,unconnected-(J1-Pad2)*%
X99055000Y-77978000D03*
%TO.P,J1,3,Pin_3*%
%TO.N,D0*%
X96515000Y-80518000D03*
%TO.P,J1,4,Pin_4*%
%TO.N,D1*%
X96515000Y-77978000D03*
%TO.P,J1,5,Pin_5*%
%TO.N,D2*%
X93975000Y-80518000D03*
%TO.P,J1,6,Pin_6*%
%TO.N,D3*%
X93975000Y-77978000D03*
%TO.P,J1,7,Pin_7*%
%TO.N,D4*%
X91435000Y-80518000D03*
%TO.P,J1,8,Pin_8*%
%TO.N,D5*%
X91435000Y-77978000D03*
%TO.P,J1,9,Pin_9*%
%TO.N,D6*%
X88895000Y-80518000D03*
%TO.P,J1,10,Pin_10*%
%TO.N,D7*%
X88895000Y-77978000D03*
%TO.P,J1,11,Pin_11*%
%TO.N,A0*%
X86355000Y-80518000D03*
%TO.P,J1,12,Pin_12*%
%TO.N,A1*%
X86355000Y-77978000D03*
%TO.P,J1,13,Pin_13*%
%TO.N,A2*%
X83815000Y-80518000D03*
%TO.P,J1,14,Pin_14*%
%TO.N,A3*%
X83815000Y-77978000D03*
%TO.P,J1,15,Pin_15*%
%TO.N,A4*%
X81275000Y-80518000D03*
%TO.P,J1,16,Pin_16*%
%TO.N,A5*%
X81275000Y-77978000D03*
%TO.P,J1,17,Pin_17*%
%TO.N,A6*%
X78735000Y-80518000D03*
%TO.P,J1,18,Pin_18*%
%TO.N,A7*%
X78735000Y-77978000D03*
%TO.P,J1,19,Pin_19*%
%TO.N,A8*%
X76195000Y-80518000D03*
%TO.P,J1,20,Pin_20*%
%TO.N,A9*%
X76195000Y-77978000D03*
%TO.P,J1,21,Pin_21*%
%TO.N,A10*%
X73655000Y-80518000D03*
%TO.P,J1,22,Pin_22*%
%TO.N,A11*%
X73655000Y-77978000D03*
%TO.P,J1,23,Pin_23*%
%TO.N,A12*%
X71115000Y-80518000D03*
%TO.P,J1,24,Pin_24*%
%TO.N,A13*%
X71115000Y-77978000D03*
%TO.P,J1,25,Pin_25*%
%TO.N,A14*%
X68575000Y-80518000D03*
%TO.P,J1,26,Pin_26*%
%TO.N,RAMS2*%
X68575000Y-77978000D03*
%TO.P,J1,27,Pin_27*%
%TO.N,~{MRQ}*%
X66035000Y-80518000D03*
%TO.P,J1,28,Pin_28*%
%TO.N,~{RD}*%
X66035000Y-77978000D03*
%TO.P,J1,29,Pin_29*%
%TO.N,unconnected-(J1-Pad29)*%
X63495000Y-80518000D03*
%TO.P,J1,30,Pin_30*%
%TO.N,~{WR}*%
X63495000Y-77978000D03*
%TO.P,J1,31,Pin_31*%
%TO.N,~{IORQ}*%
X60955000Y-80518000D03*
%TO.P,J1,32,Pin_32*%
%TO.N,unconnected-(J1-Pad32)*%
X60955000Y-77978000D03*
%TO.P,J1,33,Pin_33*%
%TO.N,unconnected-(J1-Pad33)*%
X58415000Y-80518000D03*
%TO.P,J1,34,Pin_34*%
%TO.N,~{RES}*%
X58415000Y-77978000D03*
%TO.P,J1,35,Pin_35*%
%TO.N,unconnected-(J1-Pad35)*%
X55875000Y-80518000D03*
%TO.P,J1,36,Pin_36*%
%TO.N,unconnected-(J1-Pad36)*%
X55875000Y-77978000D03*
%TO.P,J1,37,Pin_37*%
%TO.N,unconnected-(J1-Pad37)*%
X53335000Y-80518000D03*
%TO.P,J1,38,Pin_38*%
%TO.N,unconnected-(J1-Pad38)*%
X53335000Y-77978000D03*
%TO.P,J1,39,Pin_39*%
%TO.N,unconnected-(J1-Pad39)*%
X50795000Y-80518000D03*
%TO.P,J1,40,Pin_40*%
%TO.N,unconnected-(J1-Pad40)*%
X50795000Y-77978000D03*
%TD*%
D17*
%TO.N,D0*%
X60699800Y-57926300D03*
%TO.N,D1*%
X63119600Y-57483600D03*
%TO.N,D2*%
X63845000Y-56755700D03*
%TO.N,D3*%
X72901800Y-66138100D03*
X107225300Y-65719800D03*
%TO.N,D4*%
X107950000Y-62037700D03*
X79282400Y-56887700D03*
%TO.N,D5*%
X74407800Y-60581100D03*
X102855300Y-60581100D03*
%TO.N,D7*%
X96005600Y-58837800D03*
%TO.N,A4*%
X115272900Y-81592300D03*
%TO.N,A5*%
X119687300Y-81244800D03*
%TO.N,A10*%
X58530700Y-60598500D03*
X84723000Y-63540400D03*
%TO.N,A11*%
X60674300Y-53697900D03*
%TO.N,A13*%
X89175900Y-68802200D03*
X59108700Y-51116200D03*
%TO.N,A14*%
X76879900Y-71862800D03*
X91966500Y-55988900D03*
%TO.N,RAMS2*%
X91509700Y-68368400D03*
%TO.N,~{MRQ}*%
X65850500Y-57946800D03*
%TO.N,~{RD}*%
X76892000Y-67937700D03*
X56420000Y-72031000D03*
X94179400Y-45032300D03*
%TO.N,~{WR}*%
X53752800Y-73436200D03*
%TO.N,~{RES}*%
X61700200Y-57946800D03*
%TO.N,A14_2*%
X77911100Y-63860500D03*
X57971000Y-61617100D03*
%TO.N,~{CS2}*%
X87745300Y-42926600D03*
%TO.N,A13_2*%
X79551500Y-51359100D03*
%TO.N,S1*%
X82569600Y-50363500D03*
%TO.N,S2*%
X73646700Y-35167200D03*
X87217300Y-36855600D03*
%TO.N,Net-(U3-Pad3)*%
X89891800Y-33690000D03*
%TO.N,~{P=Q}*%
X127193100Y-57404000D03*
X89879300Y-40562500D03*
%TO.N,~{CS1}*%
X93989900Y-52396100D03*
%TO.N,S3*%
X101468800Y-51495500D03*
%TO.N,Net-(U1-Pad3)*%
X73118100Y-39230900D03*
%TO.N,EO*%
X57041000Y-33763600D03*
%TD*%
D18*
%TO.N,D0*%
X58275300Y-70385300D02*
X60025000Y-72135000D01*
X101744700Y-69568700D02*
X101744700Y-69850000D01*
X61446100Y-52427500D02*
X61446100Y-54004100D01*
X57150000Y-70104000D02*
X58275300Y-70104000D01*
X102870000Y-69850000D02*
X101744700Y-69850000D01*
X58124400Y-37969500D02*
X58124400Y-49105800D01*
X101744700Y-71069200D02*
X101744700Y-69850000D01*
X59700000Y-36675300D02*
X59418600Y-36675300D01*
X96147700Y-79342700D02*
X95299900Y-78494900D01*
X60850800Y-57775300D02*
X60699800Y-57926300D01*
X59700000Y-35550000D02*
X59700000Y-36675300D01*
X76190400Y-66742300D02*
X98918300Y-66742300D01*
X95299900Y-78494900D02*
X95299900Y-77514000D01*
X61446100Y-54004100D02*
X60850800Y-54599400D01*
X59418600Y-36675300D02*
X58124400Y-37969500D01*
X60850800Y-54599400D02*
X60850800Y-57775300D01*
X98918300Y-66742300D02*
X101744700Y-69568700D01*
X70797700Y-72135000D02*
X76190400Y-66742300D01*
X58275300Y-70104000D02*
X58275300Y-70385300D01*
X60025000Y-72135000D02*
X70797700Y-72135000D01*
X96515000Y-79342700D02*
X96147700Y-79342700D01*
X95299900Y-77514000D02*
X101744700Y-71069200D01*
X58124400Y-49105800D02*
X61446100Y-52427500D01*
X96515000Y-80518000D02*
X96515000Y-79342700D01*
%TO.N,D1*%
X104284700Y-69568700D02*
X104284700Y-69850000D01*
X76036900Y-66258900D02*
X100974900Y-66258900D01*
X60815300Y-70385300D02*
X62114700Y-71684700D01*
X59690000Y-70104000D02*
X60815300Y-70104000D01*
X59700000Y-39215300D02*
X59981300Y-39215300D01*
X104284700Y-70208300D02*
X104284700Y-69850000D01*
X59981300Y-39215300D02*
X65895400Y-45129400D01*
X65895400Y-55744700D02*
X64156500Y-57483600D01*
X59700000Y-38090000D02*
X59700000Y-39215300D01*
X65895400Y-45129400D02*
X65895400Y-55744700D01*
X105410000Y-69850000D02*
X104284700Y-69850000D01*
X62114700Y-71684700D02*
X70611100Y-71684700D01*
X64156500Y-57483600D02*
X63119600Y-57483600D01*
X96515000Y-77978000D02*
X104284700Y-70208300D01*
X70611100Y-71684700D02*
X76036900Y-66258900D01*
X100974900Y-66258900D02*
X104284700Y-69568700D01*
X60815300Y-70104000D02*
X60815300Y-70385300D01*
%TO.N,D2*%
X64246700Y-71234400D02*
X69246900Y-71234400D01*
X63644600Y-53887800D02*
X58574700Y-48817900D01*
X74672800Y-65808500D02*
X103028600Y-65808500D01*
X103028600Y-65808500D02*
X106824700Y-69604600D01*
X59507200Y-41755300D02*
X59700000Y-41755300D01*
X97785000Y-80963700D02*
X97785000Y-77569800D01*
X63355300Y-70104000D02*
X63355300Y-70343000D01*
X97785000Y-77569800D02*
X104379500Y-70975300D01*
X95150300Y-80518000D02*
X95150300Y-80885400D01*
X62230000Y-70104000D02*
X63355300Y-70104000D01*
X58574700Y-48817900D02*
X58574700Y-42687800D01*
X97055400Y-81693300D02*
X97785000Y-80963700D01*
X104379500Y-70975300D02*
X105980800Y-70975300D01*
X93975000Y-80518000D02*
X95150300Y-80518000D01*
X107950000Y-69850000D02*
X106824700Y-69850000D01*
X95150300Y-80885400D02*
X95958200Y-81693300D01*
X63644600Y-56555300D02*
X63644600Y-53887800D01*
X69246900Y-71234400D02*
X74672800Y-65808500D01*
X105980800Y-70975300D02*
X106824700Y-70131400D01*
X106824700Y-69604600D02*
X106824700Y-69850000D01*
X106824700Y-70131400D02*
X106824700Y-69850000D01*
X63355300Y-70343000D02*
X64246700Y-71234400D01*
X95958200Y-81693300D02*
X97055400Y-81693300D01*
X58574700Y-42687800D02*
X59507200Y-41755300D01*
X59700000Y-40630000D02*
X59700000Y-41755300D01*
X63845000Y-56755700D02*
X63644600Y-56555300D01*
%TO.N,D3*%
X73682400Y-65357500D02*
X72901800Y-66138100D01*
X59904500Y-44295300D02*
X64770000Y-49160800D01*
X59700000Y-43170000D02*
X59700000Y-44295300D01*
X125427800Y-45725000D02*
X124774700Y-45725000D01*
X92761800Y-79999200D02*
X93607700Y-79153300D01*
X92761800Y-80968700D02*
X92761800Y-79999200D01*
X125105000Y-43040300D02*
X125386400Y-43040300D01*
X93975000Y-77978000D02*
X93975000Y-79153300D01*
X126230300Y-43884200D02*
X126230300Y-44922500D01*
X109095300Y-72682300D02*
X99633900Y-82143700D01*
X93607700Y-79153300D02*
X93975000Y-79153300D01*
X125386400Y-43040300D02*
X126230300Y-43884200D01*
X118810400Y-51689300D02*
X118810400Y-52366000D01*
X118810400Y-52366000D02*
X116566400Y-54610000D01*
X107225300Y-65719800D02*
X109095300Y-67589800D01*
X109095300Y-67589800D02*
X109095300Y-72682300D01*
X99633900Y-82143700D02*
X93936800Y-82143700D01*
X59700000Y-44295300D02*
X59904500Y-44295300D01*
X110490000Y-54610000D02*
X111615300Y-54610000D01*
X124774700Y-45725000D02*
X118810400Y-51689300D01*
X116566400Y-54610000D02*
X111615300Y-54610000D01*
X125105000Y-41915000D02*
X125105000Y-43040300D01*
X106863000Y-65357500D02*
X73682400Y-65357500D01*
X64770000Y-49160800D02*
X64770000Y-54864000D01*
X107225300Y-65719800D02*
X106863000Y-65357500D01*
X126230300Y-44922500D02*
X125427800Y-45725000D01*
X93936800Y-82143700D02*
X92761800Y-80968700D01*
%TO.N,D4*%
X99204600Y-54121600D02*
X99204600Y-54795600D01*
X79574300Y-57179600D02*
X79282400Y-56887700D01*
X107950000Y-54610000D02*
X107950000Y-53484700D01*
X99204600Y-54795600D02*
X96820600Y-57179600D01*
X108342600Y-62037700D02*
X111636000Y-65331100D01*
X107950000Y-62037700D02*
X108342600Y-62037700D01*
X107950000Y-53484700D02*
X99841500Y-53484700D01*
X99779700Y-82647800D02*
X93564800Y-82647800D01*
X122854400Y-45580300D02*
X115854400Y-45580300D01*
X111636000Y-65331100D02*
X111636000Y-70791500D01*
X123979700Y-44455000D02*
X122854400Y-45580300D01*
X99841500Y-53484700D02*
X99204600Y-54121600D01*
X125105000Y-44455000D02*
X123979700Y-44455000D01*
X115854400Y-45580300D02*
X107950000Y-53484700D01*
X96820600Y-57179600D02*
X79574300Y-57179600D01*
X93564800Y-82647800D02*
X91435000Y-80518000D01*
X111636000Y-70791500D02*
X99779700Y-82647800D01*
%TO.N,D5*%
X91435000Y-77978000D02*
X91435000Y-79153300D01*
X107522900Y-60581100D02*
X112086300Y-65144500D01*
X107387800Y-55743800D02*
X106535300Y-54891300D01*
X102855300Y-60581100D02*
X107522900Y-60581100D01*
X91067700Y-79153300D02*
X91435000Y-79153300D01*
X112086300Y-65144500D02*
X112086300Y-70978100D01*
X112086300Y-70978100D02*
X99966300Y-83098100D01*
X90254900Y-81075800D02*
X90254900Y-79966100D01*
X116356200Y-55743800D02*
X107387800Y-55743800D01*
X105410000Y-54610000D02*
X106535300Y-54610000D01*
X102855300Y-60581100D02*
X74407800Y-60581100D01*
X90254900Y-79966100D02*
X91067700Y-79153300D01*
X125105000Y-46995000D02*
X116356200Y-55743800D01*
X99966300Y-83098100D02*
X92277200Y-83098100D01*
X92277200Y-83098100D02*
X90254900Y-81075800D01*
X106535300Y-54891300D02*
X106535300Y-54610000D01*
%TO.N,D6*%
X125105000Y-49535000D02*
X123979700Y-49535000D01*
X123979700Y-49535000D02*
X117320400Y-56194300D01*
X103995300Y-54839600D02*
X103995300Y-54610000D01*
X102870000Y-54610000D02*
X103995300Y-54610000D01*
X117320400Y-56194300D02*
X105350000Y-56194300D01*
X105350000Y-56194300D02*
X103995300Y-54839600D01*
%TO.N,D7*%
X100330000Y-54610000D02*
X100233400Y-54610000D01*
X101455300Y-54610000D02*
X101455300Y-54891300D01*
X101455300Y-54891300D02*
X103214500Y-56650500D01*
X119404200Y-56650500D02*
X123979700Y-52075000D01*
X125105000Y-52075000D02*
X123979700Y-52075000D01*
X100233400Y-54610000D02*
X96005600Y-58837800D01*
X103214500Y-56650500D02*
X119404200Y-56650500D01*
X100330000Y-54610000D02*
X101455300Y-54610000D01*
%TO.N,A0*%
X54610000Y-70104000D02*
X55735300Y-70104000D01*
X98360800Y-70975300D02*
X96773600Y-70975300D01*
X99204700Y-69850000D02*
X99204700Y-70131400D01*
X55735300Y-70320600D02*
X55735400Y-70320600D01*
X70984300Y-72585300D02*
X76376900Y-67192700D01*
X90070400Y-77678500D02*
X90070400Y-78467400D01*
X55735300Y-70104000D02*
X55735300Y-70320600D01*
X99767400Y-69850000D02*
X99204700Y-69850000D01*
X100330000Y-69850000D02*
X99767400Y-69850000D01*
X88338200Y-79342700D02*
X87530300Y-80150600D01*
X90070400Y-78467400D02*
X89195100Y-79342700D01*
X55735400Y-70320600D02*
X58000100Y-72585300D01*
X96773600Y-70975300D02*
X90070400Y-77678500D01*
X58000100Y-72585300D02*
X70984300Y-72585300D01*
X76376900Y-67192700D02*
X97110100Y-67192700D01*
X97110100Y-67192700D02*
X99767400Y-69850000D01*
X86355000Y-80518000D02*
X87530300Y-80518000D01*
X89195100Y-79342700D02*
X88338200Y-79342700D01*
X99204700Y-70131400D02*
X98360800Y-70975300D01*
X87530300Y-80150600D02*
X87530300Y-80518000D01*
%TO.N,A1*%
X87530300Y-77978000D02*
X87530300Y-77610600D01*
X89904800Y-76802700D02*
X96664700Y-70042800D01*
X102358700Y-84994000D02*
X116359700Y-70993000D01*
X86355000Y-77978000D02*
X87530300Y-77978000D01*
X117485000Y-70993000D02*
X116359700Y-70993000D01*
X52070000Y-71229300D02*
X52070000Y-72779100D01*
X52070000Y-70104000D02*
X52070000Y-71229300D01*
X97790000Y-69850000D02*
X96664700Y-69850000D01*
X87530300Y-77610600D02*
X88338200Y-76802700D01*
X52070000Y-72779100D02*
X54605000Y-75314100D01*
X54605000Y-75314100D02*
X54605000Y-80918000D01*
X54605000Y-80918000D02*
X58681000Y-84994000D01*
X58681000Y-84994000D02*
X102358700Y-84994000D01*
X96664700Y-70042800D02*
X96664700Y-69850000D01*
X88338200Y-76802700D02*
X89904800Y-76802700D01*
%TO.N,A2*%
X56520300Y-85444300D02*
X106988400Y-85444300D01*
X49530000Y-70104000D02*
X49530000Y-71229300D01*
X83815000Y-80518000D02*
X83815000Y-79342700D01*
X117485000Y-76073000D02*
X116359700Y-76073000D01*
X84990300Y-77664500D02*
X91679500Y-70975300D01*
X84182400Y-79342700D02*
X84990300Y-78534800D01*
X95250000Y-69850000D02*
X94124700Y-69850000D01*
X84990300Y-78534800D02*
X84990300Y-77664500D01*
X83815000Y-79342700D02*
X84182400Y-79342700D01*
X106988400Y-85444300D02*
X116359700Y-76073000D01*
X49530000Y-71229300D02*
X52065000Y-73764300D01*
X94124700Y-70131400D02*
X94124700Y-69850000D01*
X91679500Y-70975300D02*
X93280800Y-70975300D01*
X52065000Y-73764300D02*
X52065000Y-80989000D01*
X93280800Y-70975300D02*
X94124700Y-70131400D01*
X52065000Y-80989000D02*
X56520300Y-85444300D01*
%TO.N,A3*%
X91584700Y-70208300D02*
X91584700Y-69850000D01*
X92710000Y-69850000D02*
X91584700Y-69850000D01*
X116073700Y-80867000D02*
X116359700Y-81153000D01*
X46990000Y-71229300D02*
X46990000Y-78375300D01*
X46990000Y-70104000D02*
X46990000Y-71229300D01*
X83815000Y-77978000D02*
X91584700Y-70208300D01*
X114129300Y-80867000D02*
X116073700Y-80867000D01*
X54564400Y-85949700D02*
X109046600Y-85949700D01*
X117485000Y-81153000D02*
X116359700Y-81153000D01*
X46990000Y-78375300D02*
X54564400Y-85949700D01*
X109046600Y-85949700D02*
X114129300Y-80867000D01*
%TO.N,A4*%
X116103600Y-82423000D02*
X118840800Y-82423000D01*
X81275000Y-80518000D02*
X81275000Y-79342700D01*
X82450300Y-78534800D02*
X82450300Y-77569700D01*
X115272900Y-81592300D02*
X116103600Y-82423000D01*
X90170000Y-69850000D02*
X90170000Y-70975300D01*
X118840800Y-82423000D02*
X122650800Y-86233000D01*
X122650800Y-86233000D02*
X125105000Y-86233000D01*
X82450300Y-77569700D02*
X89044700Y-70975300D01*
X89044700Y-70975300D02*
X90170000Y-70975300D01*
X81275000Y-79342700D02*
X81642400Y-79342700D01*
X81642400Y-79342700D02*
X82450300Y-78534800D01*
%TO.N,A5*%
X87630000Y-69850000D02*
X87630000Y-70975300D01*
X81275000Y-77978000D02*
X81275000Y-76802700D01*
X81802600Y-76802700D02*
X87630000Y-70975300D01*
X119779100Y-81153000D02*
X119687300Y-81244800D01*
X123979700Y-81153000D02*
X119779100Y-81153000D01*
X125105000Y-81153000D02*
X123979700Y-81153000D01*
X81275000Y-76802700D02*
X81802600Y-76802700D01*
%TO.N,A6*%
X118643900Y-68767900D02*
X124823700Y-74947700D01*
X77552100Y-77387900D02*
X83964700Y-70975300D01*
X125105000Y-76073000D02*
X125105000Y-74947700D01*
X60736600Y-75134300D02*
X58000700Y-75134300D01*
X67210400Y-80815900D02*
X67210400Y-79992400D01*
X124823700Y-74947700D02*
X125105000Y-74947700D01*
X64681100Y-78325100D02*
X64681100Y-77430300D01*
X67210400Y-79992400D02*
X66371400Y-79153400D01*
X78147400Y-80518000D02*
X78735000Y-80518000D01*
X115235500Y-69151200D02*
X115235500Y-63505900D01*
X41339200Y-68978700D02*
X40495300Y-69822600D01*
X82254100Y-84037100D02*
X100349600Y-84037100D01*
X65509400Y-79153400D02*
X64681100Y-78325100D01*
X78012700Y-80383200D02*
X76676600Y-81719300D01*
X40495300Y-69822600D02*
X40495300Y-70104000D01*
X66371400Y-79153400D02*
X65509400Y-79153400D01*
X116537900Y-62203500D02*
X118409100Y-62203500D01*
X76676600Y-81719300D02*
X68113800Y-81719300D01*
X78735000Y-80518000D02*
X82254100Y-84037100D01*
X78012700Y-80383200D02*
X77552100Y-79922700D01*
X58000700Y-75134300D02*
X53340000Y-70473600D01*
X64681100Y-77430300D02*
X62835300Y-75584500D01*
X61186800Y-75584500D02*
X60736600Y-75134300D01*
X115235500Y-63505900D02*
X116537900Y-62203500D01*
X78012700Y-80383200D02*
X78147400Y-80518000D01*
X39370000Y-70104000D02*
X40495300Y-70104000D01*
X100349600Y-84037100D02*
X115235500Y-69151200D01*
X118409100Y-62203500D02*
X118643900Y-62438300D01*
X118643900Y-62438300D02*
X118643900Y-68767900D01*
X68113800Y-81719300D02*
X67210400Y-80815900D01*
X77552100Y-79922700D02*
X77552100Y-77387900D01*
X52592700Y-68978700D02*
X41339200Y-68978700D01*
X62835300Y-75584500D02*
X61186800Y-75584500D01*
X83964700Y-70975300D02*
X85090000Y-70975300D01*
X53340000Y-70473600D02*
X53340000Y-69726000D01*
X85090000Y-69850000D02*
X85090000Y-70975300D01*
X53340000Y-69726000D02*
X52592700Y-68978700D01*
%TO.N,A7*%
X78735000Y-77978000D02*
X78735000Y-79153300D01*
X112761800Y-65342700D02*
X112761800Y-70939500D01*
X100150700Y-83550600D02*
X82636200Y-83550600D01*
X79910300Y-79961200D02*
X79102400Y-79153300D01*
X82636200Y-83550600D02*
X79910300Y-80824700D01*
X125105000Y-70993000D02*
X125105000Y-69867700D01*
X79102400Y-79153300D02*
X78735000Y-79153300D01*
X118595700Y-61753200D02*
X116351300Y-61753200D01*
X116351300Y-61753200D02*
X112761800Y-65342700D01*
X112761800Y-70939500D02*
X100150700Y-83550600D01*
X124823600Y-69867700D02*
X119094200Y-64138300D01*
X125105000Y-69867700D02*
X124823600Y-69867700D01*
X119094200Y-64138300D02*
X119094200Y-62251700D01*
X79910300Y-80824700D02*
X79910300Y-79961200D01*
X119094200Y-62251700D02*
X118595700Y-61753200D01*
%TO.N,A9*%
X85642800Y-55753200D02*
X79533400Y-55753200D01*
X77926300Y-53464500D02*
X74436800Y-53464500D01*
X41910000Y-54864000D02*
X43035300Y-54864000D01*
X79533400Y-55753200D02*
X78884600Y-55104400D01*
X46569900Y-58679900D02*
X43035300Y-55145300D01*
X78884600Y-55104400D02*
X78884600Y-54422800D01*
X87630000Y-54610000D02*
X86504700Y-54610000D01*
X86504700Y-54610000D02*
X86504700Y-54891300D01*
X78884600Y-54422800D02*
X77926300Y-53464500D01*
X74436800Y-53464500D02*
X69221400Y-58679900D01*
X43035300Y-55145300D02*
X43035300Y-54864000D01*
X86504700Y-54891300D02*
X85642800Y-55753200D01*
X69221400Y-58679900D02*
X46569900Y-58679900D01*
%TO.N,A10*%
X84723000Y-63540400D02*
X83414400Y-62231800D01*
X83414400Y-62231800D02*
X60164000Y-62231800D01*
X60164000Y-62231800D02*
X58530700Y-60598500D01*
%TO.N,A11*%
X45575300Y-54582700D02*
X46460100Y-53697900D01*
X44450000Y-54864000D02*
X45575300Y-54864000D01*
X45575300Y-54864000D02*
X45575300Y-54582700D01*
X46460100Y-53697900D02*
X60674300Y-53697900D01*
%TO.N,A12*%
X72290300Y-80150600D02*
X73098200Y-79342700D01*
X80010000Y-71513000D02*
X80010000Y-69850000D01*
X72290300Y-80518000D02*
X72290300Y-80150600D01*
X74925000Y-78372800D02*
X74925000Y-76598000D01*
X71115000Y-80518000D02*
X72290300Y-80518000D01*
X73098200Y-79342700D02*
X73955100Y-79342700D01*
X74925000Y-76598000D02*
X80010000Y-71513000D01*
X73955100Y-79342700D02*
X74925000Y-78372800D01*
%TO.N,A13*%
X72290300Y-77531000D02*
X78595400Y-71225900D01*
X45563000Y-39360000D02*
X50643000Y-44440000D01*
X89098300Y-68724600D02*
X89175900Y-68802200D01*
X79533300Y-68724600D02*
X89098300Y-68724600D01*
X52432500Y-44440000D02*
X59108700Y-51116200D01*
X78595400Y-71225900D02*
X78595400Y-69662500D01*
X50643000Y-44440000D02*
X52432500Y-44440000D01*
X36695300Y-33010000D02*
X36695300Y-33291300D01*
X42764000Y-39360000D02*
X45563000Y-39360000D01*
X35570000Y-33010000D02*
X36695300Y-33010000D01*
X71115000Y-77978000D02*
X72290300Y-77978000D01*
X72290300Y-77978000D02*
X72290300Y-77531000D01*
X78595400Y-69662500D02*
X79533300Y-68724600D01*
X36695300Y-33291300D02*
X42764000Y-39360000D01*
%TO.N,A14*%
X93835400Y-55151100D02*
X92997600Y-55988900D01*
X75552100Y-71862800D02*
X76879900Y-71862800D01*
X69750300Y-78534800D02*
X69750300Y-77664600D01*
X109230000Y-43175000D02*
X108104700Y-43175000D01*
X92997600Y-55988900D02*
X91966500Y-55988900D01*
X93835400Y-54351400D02*
X93835400Y-55151100D01*
X68942400Y-79342700D02*
X69750300Y-78534800D01*
X108104700Y-43175000D02*
X108104700Y-43358100D01*
X68575000Y-79342700D02*
X68942400Y-79342700D01*
X108104700Y-43358100D02*
X102080900Y-49381900D01*
X98804900Y-49381900D02*
X93835400Y-54351400D01*
X102080900Y-49381900D02*
X98804900Y-49381900D01*
X68575000Y-80518000D02*
X68575000Y-79342700D01*
X69750300Y-77664600D02*
X75552100Y-71862800D01*
%TO.N,RAMS2*%
X91218200Y-68076900D02*
X78279300Y-68076900D01*
X91509700Y-68368400D02*
X91218200Y-68076900D01*
X76585100Y-68663000D02*
X68575000Y-76673100D01*
X78279300Y-68076900D02*
X77693200Y-68663000D01*
X77693200Y-68663000D02*
X76585100Y-68663000D01*
X68575000Y-76673100D02*
X68575000Y-77978000D01*
%TO.N,~{MRQ}*%
X76210000Y-35560000D02*
X76210000Y-36685300D01*
X76210000Y-36685300D02*
X75928600Y-36685300D01*
X67272000Y-56525300D02*
X65850500Y-57946800D01*
X75928600Y-36685300D02*
X75084700Y-37529200D01*
X67272000Y-45436400D02*
X67272000Y-56525300D01*
X68258400Y-44450000D02*
X67272000Y-45436400D01*
X75084700Y-37529200D02*
X75084700Y-38291500D01*
X75084700Y-38291500D02*
X68926200Y-44450000D01*
X68926200Y-44450000D02*
X68258400Y-44450000D01*
%TO.N,~{RD}*%
X92710000Y-54610000D02*
X92710000Y-53484700D01*
X94179400Y-45032300D02*
X94179400Y-50495300D01*
X67210300Y-77978000D02*
X67210300Y-77350700D01*
X62433800Y-74376800D02*
X58765800Y-74376800D01*
X66035000Y-77978000D02*
X67210300Y-77978000D01*
X92710000Y-51964700D02*
X92710000Y-53484700D01*
X76623300Y-67937700D02*
X76892000Y-67937700D01*
X58765800Y-74376800D02*
X56420000Y-72031000D01*
X67210300Y-77350700D02*
X76623300Y-67937700D01*
X94179400Y-50495300D02*
X92710000Y-51964700D01*
X66035000Y-77978000D02*
X62433800Y-74376800D01*
%TO.N,~{WR}*%
X62319700Y-77679000D02*
X60450300Y-75809600D01*
X60450300Y-75809600D02*
X56126200Y-75809600D01*
X85100000Y-43175000D02*
X85100000Y-44300300D01*
X80010000Y-54610000D02*
X80010000Y-53484700D01*
X78805700Y-52280400D02*
X80010000Y-53484700D01*
X78805700Y-50414700D02*
X78805700Y-52280400D01*
X56126200Y-75809600D02*
X53752800Y-73436200D01*
X84920100Y-44300300D02*
X78805700Y-50414700D01*
X62319700Y-77978000D02*
X62319700Y-77679000D01*
X85100000Y-44300300D02*
X84920100Y-44300300D01*
X63495000Y-77978000D02*
X62319700Y-77978000D01*
%TO.N,~{IORQ}*%
X62130300Y-80885300D02*
X65760500Y-84515500D01*
X117485000Y-63373000D02*
X117485000Y-64498300D01*
X60955000Y-80518000D02*
X62130300Y-80518000D01*
X62130300Y-80518000D02*
X62130300Y-80885300D01*
X100566500Y-84515500D02*
X116359700Y-68722300D01*
X65760500Y-84515500D02*
X100566500Y-84515500D01*
X116359700Y-68722300D02*
X116359700Y-65342200D01*
X116359700Y-65342200D02*
X117203600Y-64498300D01*
X117203600Y-64498300D02*
X117485000Y-64498300D01*
%TO.N,~{RES}*%
X68590000Y-33020000D02*
X72597300Y-33020000D01*
X64055100Y-58221900D02*
X61975300Y-58221900D01*
X74402800Y-34825500D02*
X74402800Y-35504500D01*
X61975300Y-58221900D02*
X61700200Y-57946800D01*
X66658400Y-55618600D02*
X64055100Y-58221900D01*
X74402800Y-35504500D02*
X73003400Y-36903900D01*
X73003400Y-36903900D02*
X68191600Y-36903900D01*
X72597300Y-33020000D02*
X74402800Y-34825500D01*
X66658400Y-38437100D02*
X66658400Y-55618600D01*
X68191600Y-36903900D02*
X66658400Y-38437100D01*
%TO.N,A13_1*%
X36830000Y-53738700D02*
X34444700Y-51353400D01*
X35570000Y-38090000D02*
X35570000Y-39215300D01*
X36830000Y-54864000D02*
X36830000Y-53738700D01*
X35288600Y-39215300D02*
X35570000Y-39215300D01*
X34444700Y-51353400D02*
X34444700Y-40059200D01*
X34444700Y-40059200D02*
X35288600Y-39215300D01*
%TO.N,A14_2*%
X59299800Y-62945900D02*
X76996500Y-62945900D01*
X76996500Y-62945900D02*
X77911100Y-63860500D01*
X57971000Y-61617100D02*
X59299800Y-62945900D01*
%TO.N,~{CS2}*%
X82559700Y-51456400D02*
X81844300Y-50741000D01*
X85486600Y-46985000D02*
X87745300Y-44726300D01*
X94841800Y-56714300D02*
X90682500Y-56714300D01*
X86073900Y-51456400D02*
X82559700Y-51456400D01*
X87745300Y-44726300D02*
X87745300Y-42926600D01*
X84680400Y-46985000D02*
X85486600Y-46985000D01*
X90682500Y-56714300D02*
X88900000Y-54931800D01*
X81844300Y-50741000D02*
X81844300Y-49821100D01*
X81844300Y-49821100D02*
X84680400Y-46985000D01*
X96664700Y-54891400D02*
X94841800Y-56714300D01*
X96664700Y-54610000D02*
X96664700Y-54891400D01*
X97790000Y-54610000D02*
X96664700Y-54610000D01*
X88900000Y-54931800D02*
X88900000Y-54282500D01*
X88900000Y-54282500D02*
X86073900Y-51456400D01*
%TO.N,GND*%
X110515000Y-68902200D02*
X110490000Y-68927200D01*
D19*
X72390000Y-64730000D02*
X110196000Y-64730000D01*
X110515000Y-65049000D02*
X110515000Y-68902200D01*
X110515000Y-68902200D02*
X110515000Y-69855000D01*
X64106000Y-64868000D02*
X72252000Y-64868000D01*
D18*
X59700000Y-45710000D02*
X59700000Y-48250000D01*
X117485000Y-49535000D02*
X117485000Y-46995000D01*
X52080000Y-33010000D02*
X52080000Y-30470000D01*
D19*
X26670000Y-64868000D02*
X64106000Y-64868000D01*
D18*
X64770000Y-70104000D02*
X64770000Y-69993000D01*
D19*
X110196000Y-64730000D02*
X110515000Y-65049000D01*
D18*
X117485000Y-52075000D02*
X117485000Y-49535000D01*
X117485000Y-86233000D02*
X117485000Y-83693000D01*
X110490000Y-68927200D02*
X110490000Y-69850000D01*
D19*
X64770000Y-65532000D02*
X64106000Y-64868000D01*
X64770000Y-69993000D02*
X64770000Y-65532000D01*
X72252000Y-64868000D02*
X72390000Y-64730000D01*
D18*
%TO.N,A13_2*%
X82550000Y-53484700D02*
X81677100Y-53484700D01*
X81677100Y-53484700D02*
X79551500Y-51359100D01*
X82550000Y-54610000D02*
X82550000Y-53484700D01*
%TO.N,S1*%
X86946200Y-50363500D02*
X82569600Y-50363500D01*
X92720000Y-45715000D02*
X91594700Y-45715000D01*
X91594700Y-45715000D02*
X86946200Y-50363500D01*
%TO.N,S2*%
X92720000Y-43175000D02*
X93845300Y-43175000D01*
X91594700Y-41233000D02*
X87217300Y-36855600D01*
X72855800Y-34376300D02*
X73646700Y-35167200D01*
X92720000Y-43175000D02*
X91594700Y-43175000D01*
X43190000Y-38090000D02*
X50369600Y-38090000D01*
X52080000Y-39800400D02*
X57504100Y-34376300D01*
X116359700Y-36835000D02*
X111145000Y-42049700D01*
X52080000Y-40630000D02*
X52080000Y-39800400D01*
X111145000Y-42049700D02*
X94970600Y-42049700D01*
X117485000Y-36835000D02*
X116359700Y-36835000D01*
X94970600Y-42049700D02*
X93845300Y-43175000D01*
X91594700Y-43175000D02*
X91594700Y-41233000D01*
X57504100Y-34376300D02*
X72855800Y-34376300D01*
X50369600Y-38090000D02*
X52080000Y-39800400D01*
%TO.N,Net-(U3-Pad3)*%
X101610000Y-40635000D02*
X101610000Y-38095000D01*
X86900300Y-33690000D02*
X86225300Y-33015000D01*
X85100000Y-33015000D02*
X86225300Y-33015000D01*
X89891800Y-33690000D02*
X86900300Y-33690000D01*
D19*
%TO.N,+5V*%
X58420000Y-23622000D02*
X58420000Y-25400000D01*
X31202000Y-59730000D02*
X31750000Y-59182000D01*
X76434000Y-22880000D02*
X74930000Y-24384000D01*
D18*
X41870000Y-30186000D02*
X41870000Y-25400000D01*
X124211000Y-29215000D02*
X123825000Y-28829000D01*
D19*
X22606000Y-22860000D02*
X22606000Y-54102000D01*
D18*
X109230000Y-33015000D02*
X108199000Y-33015000D01*
X123785000Y-63079000D02*
X123785000Y-58420000D01*
D19*
X93706000Y-22880000D02*
X91440000Y-25146000D01*
X41870000Y-23916000D02*
X41870000Y-25400000D01*
D18*
X126455500Y-68227800D02*
X126230300Y-68453000D01*
X107910000Y-32726000D02*
X107910000Y-27940000D01*
X128524000Y-83693000D02*
X125105000Y-83693000D01*
D19*
X26670000Y-59868000D02*
X31064000Y-59868000D01*
X25400000Y-61138000D02*
X25400000Y-80010000D01*
X23124000Y-54620000D02*
X26520000Y-54620000D01*
X122475000Y-59730000D02*
X123785000Y-58420000D01*
D18*
X118610300Y-81199200D02*
X118610300Y-80582200D01*
D19*
X107910000Y-25440000D02*
X107910000Y-27940000D01*
D18*
X124079000Y-63373000D02*
X123785000Y-63079000D01*
D19*
X59182000Y-22860000D02*
X42926000Y-22860000D01*
X25400000Y-86106000D02*
X28194000Y-88900000D01*
D18*
X59700000Y-30470000D02*
X59690000Y-30480000D01*
X92720000Y-33015000D02*
X91943000Y-33015000D01*
X125105000Y-29215000D02*
X124211000Y-29215000D01*
D19*
X128524000Y-59944000D02*
X128524000Y-24384000D01*
D18*
X42154000Y-30470000D02*
X41870000Y-30186000D01*
D19*
X26670000Y-59868000D02*
X25400000Y-61138000D01*
X93746000Y-22880000D02*
X93706000Y-22880000D01*
X93746000Y-22880000D02*
X93706000Y-22880000D01*
D18*
X108199000Y-33015000D02*
X107910000Y-32726000D01*
X75184000Y-33020000D02*
X74930000Y-32766000D01*
D19*
X31202000Y-59730000D02*
X72390000Y-59730000D01*
X31064000Y-59868000D02*
X31202000Y-59730000D01*
X42926000Y-22860000D02*
X22606000Y-22860000D01*
D18*
X123825000Y-28829000D02*
X123825000Y-24130000D01*
D19*
X25400000Y-80010000D02*
X25400000Y-86106000D01*
X128524000Y-59944000D02*
X127000000Y-58420000D01*
X93706000Y-22880000D02*
X76434000Y-22880000D01*
D18*
X125105000Y-83693000D02*
X121104100Y-83693000D01*
X74930000Y-32766000D02*
X74930000Y-27940000D01*
X118610300Y-80582200D02*
X117766400Y-79738300D01*
X77495000Y-54615000D02*
X77495000Y-55434900D01*
D19*
X76414000Y-22860000D02*
X59182000Y-22860000D01*
D18*
X117766400Y-79738300D02*
X117485000Y-79738300D01*
D19*
X74930000Y-24384000D02*
X74930000Y-27940000D01*
X31750000Y-59182000D02*
X31750000Y-54864000D01*
D18*
X91943000Y-33015000D02*
X91440000Y-32512000D01*
X77495000Y-55434900D02*
X77470000Y-55409900D01*
D19*
X28194000Y-88900000D02*
X127508000Y-88900000D01*
D18*
X125105000Y-63373000D02*
X124079000Y-63373000D01*
X77470000Y-55409900D02*
X77470000Y-54610000D01*
D19*
X59182000Y-22860000D02*
X58420000Y-23622000D01*
X127508000Y-88900000D02*
X128524000Y-87884000D01*
D18*
X76210000Y-33020000D02*
X75184000Y-33020000D01*
D19*
X42926000Y-22860000D02*
X41870000Y-23916000D01*
D18*
X77495000Y-58903000D02*
X76668000Y-59730000D01*
D19*
X122575000Y-22880000D02*
X117485000Y-22880000D01*
X128524000Y-87884000D02*
X128524000Y-83693000D01*
X128524000Y-68227800D02*
X128524000Y-59944000D01*
X26520000Y-59718000D02*
X26670000Y-59868000D01*
X128524000Y-24384000D02*
X128270000Y-24130000D01*
D18*
X125105000Y-68453000D02*
X126230300Y-68453000D01*
D19*
X72390000Y-59730000D02*
X76668000Y-59730000D01*
X91440000Y-25146000D02*
X91440000Y-27940000D01*
D18*
X77495000Y-55434900D02*
X77495000Y-58903000D01*
X59690000Y-30480000D02*
X58674000Y-30480000D01*
D19*
X127000000Y-58420000D02*
X123785000Y-58420000D01*
X128524000Y-83693000D02*
X128524000Y-68227800D01*
X76668000Y-59730000D02*
X122475000Y-59730000D01*
X26520000Y-54620000D02*
X26520000Y-59718000D01*
X128270000Y-24130000D02*
X123825000Y-24130000D01*
D18*
X58420000Y-30226000D02*
X58420000Y-25400000D01*
X117485000Y-29215000D02*
X117485000Y-22880000D01*
X121104100Y-83693000D02*
X118610300Y-81199200D01*
D19*
X110470000Y-22880000D02*
X93746000Y-22880000D01*
D18*
X117485000Y-78613000D02*
X117485000Y-79738300D01*
D19*
X31064000Y-59868000D02*
X31202000Y-59730000D01*
X117485000Y-22880000D02*
X110470000Y-22880000D01*
D18*
X91440000Y-32512000D02*
X91440000Y-27940000D01*
D19*
X22606000Y-54102000D02*
X23124000Y-54620000D01*
X123825000Y-24130000D02*
X122575000Y-22880000D01*
D18*
X43190000Y-30470000D02*
X42154000Y-30470000D01*
X128524000Y-68227800D02*
X126455500Y-68227800D01*
D19*
X76434000Y-22880000D02*
X76414000Y-22860000D01*
D18*
X58674000Y-30480000D02*
X58420000Y-30226000D01*
D19*
X110470000Y-22880000D02*
X107910000Y-25440000D01*
D18*
%TO.N,~{P=Q}*%
X116219700Y-33025000D02*
X112520600Y-36724100D01*
X104135400Y-35540400D02*
X103000600Y-34405600D01*
X125571200Y-30629600D02*
X124430200Y-30629600D01*
X124430200Y-30629600D02*
X122034800Y-33025000D01*
X103000600Y-34405600D02*
X98765500Y-34405600D01*
X86225300Y-40635000D02*
X89806800Y-40635000D01*
X85100000Y-40635000D02*
X86225300Y-40635000D01*
X107276900Y-35540400D02*
X104135400Y-35540400D01*
X89806800Y-40635000D02*
X89879300Y-40562500D01*
X127193100Y-32251500D02*
X125571200Y-30629600D01*
X112520600Y-36724100D02*
X108460600Y-36724100D01*
X97616100Y-35555000D02*
X92720000Y-35555000D01*
X127193100Y-57404000D02*
X127193100Y-32251500D01*
X98765500Y-34405600D02*
X97616100Y-35555000D01*
X108460600Y-36724100D02*
X107276900Y-35540400D01*
X122034800Y-33025000D02*
X116219700Y-33025000D01*
%TO.N,~{CS1}*%
X101610000Y-45715000D02*
X100484700Y-45715000D01*
X100484700Y-45715000D02*
X93989900Y-52209800D01*
X93989900Y-52209800D02*
X93989900Y-52396100D01*
%TO.N,~{REN}*%
X77335300Y-40640000D02*
X82420300Y-35555000D01*
X76210000Y-40640000D02*
X77335300Y-40640000D01*
X82420300Y-35555000D02*
X85100000Y-35555000D01*
%TO.N,Net-(U6-Pad11)*%
X111818400Y-39261300D02*
X115514700Y-35565000D01*
X93845300Y-40635000D02*
X97510600Y-36969700D01*
X115514700Y-35565000D02*
X120169700Y-35565000D01*
X125105000Y-31755000D02*
X123979700Y-31755000D01*
X97510600Y-36969700D02*
X105569400Y-36969700D01*
X120169700Y-35565000D02*
X123979700Y-31755000D01*
X92720000Y-40635000D02*
X93845300Y-40635000D01*
X107861000Y-39261300D02*
X111818400Y-39261300D01*
X105569400Y-36969700D02*
X107861000Y-39261300D01*
%TO.N,S3*%
X117485000Y-39375000D02*
X116359700Y-39375000D01*
X111289700Y-44445000D02*
X108519300Y-44445000D01*
X108519300Y-44445000D02*
X101468800Y-51495500D01*
X116359700Y-39375000D02*
X111289700Y-44445000D01*
%TO.N,S0*%
X98697300Y-31885300D02*
X103508100Y-31885300D01*
X42064700Y-42888700D02*
X35851300Y-36675300D01*
X105764400Y-34141600D02*
X113973100Y-34141600D01*
X75106900Y-34429600D02*
X96153000Y-34429600D01*
X43190000Y-43170000D02*
X42064700Y-43170000D01*
X113973100Y-34141600D02*
X116359700Y-31755000D01*
X56883400Y-31871900D02*
X72549200Y-31871900D01*
X96153000Y-34429600D02*
X98697300Y-31885300D01*
X103508100Y-31885300D02*
X105764400Y-34141600D01*
X72549200Y-31871900D02*
X75106900Y-34429600D01*
X42064700Y-43170000D02*
X42064700Y-42888700D01*
X35851300Y-36675300D02*
X35570000Y-36675300D01*
X53205300Y-35550000D02*
X56883400Y-31871900D01*
X35570000Y-35550000D02*
X35570000Y-36675300D01*
X117485000Y-31755000D02*
X116359700Y-31755000D01*
X52080000Y-35550000D02*
X53205300Y-35550000D01*
X43190000Y-45710000D02*
X43190000Y-43170000D01*
%TO.N,Net-(U1-Pad10)*%
X87882400Y-41991000D02*
X78524300Y-41991000D01*
X100484700Y-43175000D02*
X99354500Y-44305200D01*
X101610000Y-43175000D02*
X100484700Y-43175000D01*
X78524300Y-41991000D02*
X77335300Y-43180000D01*
X76210000Y-43180000D02*
X77335300Y-43180000D01*
X99354500Y-44305200D02*
X90196600Y-44305200D01*
X90196600Y-44305200D02*
X87882400Y-41991000D01*
%TO.N,Net-(U1-Pad3)*%
X70846200Y-39230900D02*
X73118100Y-39230900D01*
X68590000Y-38100000D02*
X69715300Y-38100000D01*
X69715300Y-38100000D02*
X70846200Y-39230900D01*
D19*
%TO.N,VCC*%
X26520000Y-41920000D02*
X26520000Y-47000000D01*
X25020000Y-40420000D02*
X26520000Y-41920000D01*
X26520000Y-31252000D02*
X25020000Y-32752000D01*
X25020000Y-32752000D02*
X25020000Y-40420000D01*
D18*
%TO.N,EO*%
X68590000Y-45720000D02*
X69715300Y-45720000D01*
X89314800Y-36119300D02*
X86177900Y-36119300D01*
X100034300Y-36005400D02*
X96074900Y-36005400D01*
X42630400Y-36686400D02*
X54118200Y-36686400D01*
X89898900Y-36703400D02*
X89314800Y-36119300D01*
X73525300Y-41910000D02*
X69715300Y-45720000D01*
X54118200Y-36686400D02*
X57041000Y-33763600D01*
X100484700Y-35555000D02*
X100034300Y-36005400D01*
X36695300Y-30751300D02*
X42630400Y-36686400D01*
X85472200Y-36825000D02*
X82051000Y-36825000D01*
X101610000Y-35555000D02*
X100484700Y-35555000D01*
X95376900Y-36703400D02*
X89898900Y-36703400D01*
X76966000Y-41910000D02*
X73525300Y-41910000D01*
X36695300Y-30470000D02*
X36695300Y-30751300D01*
X35570000Y-30470000D02*
X36695300Y-30470000D01*
X96074900Y-36005400D02*
X95376900Y-36703400D01*
X82051000Y-36825000D02*
X76966000Y-41910000D01*
X86177900Y-36119300D02*
X85472200Y-36825000D01*
%TD*%
M02*
