M48
; DRILL file {KiCad (6.0.9)} date Tue Oct 24 21:16:47 2023
; FORMAT={-:-/ absolute / inch / decimal}
; #@! TF.CreationDate,2023-10-24T21:16:47+02:00
; #@! TF.GenerationSoftware,Kicad,Pcbnew,(6.0.9)
; #@! TF.FileFunction,Plated,1,2,PTH
FMAT,2
INCH
; #@! TA.AperFunction,Plated,PTH,ViaDrill
T1C0.0157
; #@! TA.AperFunction,Plated,PTH,ComponentDrill
T2C0.0315
; #@! TA.AperFunction,Plated,PTH,ComponentDrill
T3C0.0394
; #@! TA.AperFunction,Plated,PTH,ComponentDrill
T4C0.0598
%
G90
G05
T1
X1.3793Y-2.2232
X1.945Y-2.9532
X2.3478Y-3.1366
X2.4322Y-2.9417
X2.4338Y-2.984
X2.5453Y-2.8733
X2.547Y-3.2309
X2.6903Y-3.2483
X2.6991Y-2.6893
X2.769Y-3.2409
X2.7952Y-1.8304
X2.8367Y-2.1418
X2.8481Y-3.2329
X2.9331Y-2.6524
X2.9436Y-2.6014
X3.0438Y-2.0816
X3.129Y-2.4983
X3.242Y-2.431
X3.3798Y-1.9489
X4.2811Y-2.4715
X4.3133Y-2.4338
X4.4607Y-2.3165
X4.507Y-2.129
X4.5147Y-2.4025
T2
X1.0Y-3.15
X1.0441Y-1.8504
X1.0441Y-2.1504
X1.05Y-2.357
X1.05Y-2.5539
X1.0984Y-3.15
X1.25Y-2.1556
X1.25Y-2.7556
X1.35Y-2.1556
X1.35Y-2.7556
X1.4004Y-1.1996
X1.4004Y-1.2996
X1.4004Y-1.3996
X1.4004Y-1.4996
X1.4004Y-1.5996
X1.4004Y-1.6996
X1.4004Y-1.7996
X1.4004Y-1.8996
X1.45Y-2.1556
X1.45Y-2.7556
X1.4516Y-1.0
X1.55Y-2.1556
X1.55Y-2.7556
X1.6484Y-1.0
X1.65Y-2.1556
X1.65Y-2.7556
X1.7004Y-1.1996
X1.7004Y-1.2996
X1.7004Y-1.3996
X1.7004Y-1.4996
X1.7004Y-1.5996
X1.7004Y-1.6996
X1.7004Y-1.7996
X1.7004Y-1.8996
X1.75Y-2.1556
X1.75Y-2.7556
X1.85Y-2.1556
X1.85Y-2.7556
X1.95Y-2.1556
X1.95Y-2.7556
X2.05Y-2.1556
X2.05Y-2.7556
X2.0504Y-1.1996
X2.0504Y-1.2996
X2.0504Y-1.3996
X2.0504Y-1.4996
X2.0504Y-1.5996
X2.0504Y-1.6996
X2.0504Y-1.7996
X2.0504Y-1.8996
X2.1031Y-1.0
X2.15Y-2.1556
X2.15Y-2.7556
X2.25Y-2.1556
X2.25Y-2.7556
X2.3Y-1.0
X2.35Y-2.1556
X2.35Y-2.7556
X2.3504Y-1.1996
X2.3504Y-1.2996
X2.3504Y-1.3996
X2.3504Y-1.4996
X2.3504Y-1.5996
X2.3504Y-1.6996
X2.3504Y-1.7996
X2.3504Y-1.8996
X2.45Y-2.1556
X2.45Y-2.7556
X2.55Y-2.1556
X2.55Y-2.7556
X2.7004Y-1.3
X2.7004Y-1.4
X2.7004Y-1.5
X2.7004Y-1.6
X2.7004Y-1.7
X2.7004Y-1.8
X2.7004Y-1.9
X2.7531Y-1.1
X2.85Y-2.3516
X2.85Y-2.5484
X2.95Y-1.1
X3.0004Y-1.3
X3.0004Y-1.4
X3.0004Y-1.5
X3.0004Y-1.6
X3.0004Y-1.7
X3.0004Y-1.8
X3.0004Y-1.9
X3.051Y-2.1502
X3.051Y-2.7502
X3.151Y-2.1502
X3.151Y-2.7502
X3.251Y-2.1502
X3.251Y-2.7502
X3.3504Y-1.2998
X3.3504Y-1.3998
X3.3504Y-1.4998
X3.3504Y-1.5998
X3.3504Y-1.6998
X3.3504Y-1.7998
X3.3504Y-1.8998
X3.351Y-2.1502
X3.351Y-2.7502
X3.4031Y-1.1
X3.451Y-2.1502
X3.451Y-2.7502
X3.551Y-2.1502
X3.551Y-2.7502
X3.6Y-1.1
X3.6504Y-1.2998
X3.6504Y-1.3998
X3.6504Y-1.4998
X3.6504Y-1.5998
X3.6504Y-1.6998
X3.6504Y-1.7998
X3.6504Y-1.8998
X3.651Y-2.1502
X3.651Y-2.7502
X3.751Y-2.1502
X3.751Y-2.7502
X3.851Y-2.1502
X3.851Y-2.7502
X3.951Y-2.1502
X3.951Y-2.7502
X4.0004Y-1.2998
X4.0004Y-1.3998
X4.0004Y-1.4998
X4.0004Y-1.5998
X4.0004Y-1.6998
X4.0004Y-1.7998
X4.0004Y-1.8998
X4.051Y-2.1502
X4.051Y-2.7502
X4.0516Y-1.1
X4.151Y-2.1502
X4.151Y-2.7502
X4.2484Y-1.1
X4.251Y-2.1502
X4.251Y-2.7502
X4.3004Y-1.2998
X4.3004Y-1.3998
X4.3004Y-1.4998
X4.3004Y-1.5998
X4.3004Y-1.6998
X4.3004Y-1.7998
X4.3004Y-1.8998
X4.351Y-2.1502
X4.351Y-2.7502
X4.6504Y-1.3
X4.6504Y-1.4
X4.6504Y-1.5
X4.6504Y-1.6
X4.6504Y-1.7
X4.6504Y-1.8
X4.6504Y-1.9
X4.6504Y-2.0
X4.6504Y-2.1
X4.6504Y-2.2
X4.7016Y-1.0998
X4.8984Y-1.0998
X4.9504Y-1.3
X4.9504Y-1.4
X4.9504Y-1.5
X4.9504Y-1.6
X4.9504Y-1.7
X4.9504Y-1.8
X4.9504Y-1.9
X4.9504Y-2.0
X4.9504Y-2.1
X4.9504Y-2.2
T3
X1.0441Y-1.5504
X1.0441Y-1.6504
X1.9998Y-3.07
X1.9998Y-3.17
X2.0998Y-3.07
X2.0998Y-3.17
X2.1998Y-3.07
X2.1998Y-3.17
X2.2998Y-3.07
X2.2998Y-3.17
X2.3998Y-3.07
X2.3998Y-3.17
X2.4998Y-3.07
X2.4998Y-3.17
X2.5998Y-3.07
X2.5998Y-3.17
X2.6998Y-3.07
X2.6998Y-3.17
X2.7998Y-3.07
X2.7998Y-3.17
X2.8998Y-3.07
X2.8998Y-3.17
X2.9998Y-3.07
X2.9998Y-3.17
X3.0998Y-3.07
X3.0998Y-3.17
X3.1998Y-3.07
X3.1998Y-3.17
X3.2998Y-3.07
X3.2998Y-3.17
X3.3998Y-3.07
X3.3998Y-3.17
X3.4998Y-3.07
X3.4998Y-3.17
X3.5998Y-3.07
X3.5998Y-3.17
X3.6998Y-3.07
X3.6998Y-3.17
X3.7998Y-3.07
X3.7998Y-3.17
X3.8998Y-3.07
X3.8998Y-3.17
T4
X1.0441Y-1.0304
X1.0441Y-1.2304
T0
M30
