%TF.GenerationSoftware,KiCad,Pcbnew,(6.0.9)*%
%TF.CreationDate,2023-11-03T09:01:54+01:00*%
%TF.ProjectId,p2000t-ram-expansion-board,70323030-3074-42d7-9261-6d2d65787061,rev?*%
%TF.SameCoordinates,Original*%
%TF.FileFunction,Copper,L1,Top*%
%TF.FilePolarity,Positive*%
%FSLAX46Y46*%
G04 Gerber Fmt 4.6, Leading zero omitted, Abs format (unit mm)*
G04 Created by KiCad (PCBNEW (6.0.9)) date 2023-11-03 09:01:54*
%MOMM*%
%LPD*%
G01*
G04 APERTURE LIST*
G04 Aperture macros list*
%AMRoundRect*
0 Rectangle with rounded corners*
0 $1 Rounding radius*
0 $2 $3 $4 $5 $6 $7 $8 $9 X,Y pos of 4 corners*
0 Add a 4 corners polygon primitive as box body*
4,1,4,$2,$3,$4,$5,$6,$7,$8,$9,$2,$3,0*
0 Add four circle primitives for the rounded corners*
1,1,$1+$1,$2,$3*
1,1,$1+$1,$4,$5*
1,1,$1+$1,$6,$7*
1,1,$1+$1,$8,$9*
0 Add four rect primitives between the rounded corners*
20,1,$1+$1,$2,$3,$4,$5,0*
20,1,$1+$1,$4,$5,$6,$7,0*
20,1,$1+$1,$6,$7,$8,$9,0*
20,1,$1+$1,$8,$9,$2,$3,0*%
G04 Aperture macros list end*
%TA.AperFunction,ComponentPad*%
%ADD10C,1.600000*%
%TD*%
%TA.AperFunction,ComponentPad*%
%ADD11R,1.600000X1.600000*%
%TD*%
%TA.AperFunction,ComponentPad*%
%ADD12O,1.600000X1.600000*%
%TD*%
%TA.AperFunction,SMDPad,CuDef*%
%ADD13RoundRect,0.250000X0.325000X0.450000X-0.325000X0.450000X-0.325000X-0.450000X0.325000X-0.450000X0*%
%TD*%
%TA.AperFunction,SMDPad,CuDef*%
%ADD14RoundRect,0.250000X-0.350000X-0.450000X0.350000X-0.450000X0.350000X0.450000X-0.350000X0.450000X0*%
%TD*%
%TA.AperFunction,ComponentPad*%
%ADD15R,1.700000X1.700000*%
%TD*%
%TA.AperFunction,ComponentPad*%
%ADD16O,1.700000X1.700000*%
%TD*%
%TA.AperFunction,ComponentPad*%
%ADD17R,3.000000X3.000000*%
%TD*%
%TA.AperFunction,ComponentPad*%
%ADD18C,3.000000*%
%TD*%
%TA.AperFunction,ViaPad*%
%ADD19C,0.800000*%
%TD*%
%TA.AperFunction,Conductor*%
%ADD20C,0.250000*%
%TD*%
%TA.AperFunction,Conductor*%
%ADD21C,0.500000*%
%TD*%
G04 APERTURE END LIST*
D10*
%TO.P,C1,1*%
%TO.N,+5V*%
X91440000Y-27940000D03*
%TO.P,C1,2*%
%TO.N,GND*%
X86440000Y-27940000D03*
%TD*%
D11*
%TO.P,U5,1,G*%
%TO.N,~{IORQ}*%
X118120000Y-54864000D03*
D12*
%TO.P,U5,2,P0*%
%TO.N,A0*%
X118120000Y-57404000D03*
%TO.P,U5,3,R0*%
%TO.N,GND*%
X118120000Y-59944000D03*
%TO.P,U5,4,P1*%
%TO.N,A1*%
X118120000Y-62484000D03*
%TO.P,U5,5,R1*%
%TO.N,GND*%
X118120000Y-65024000D03*
%TO.P,U5,6,P2*%
%TO.N,A2*%
X118120000Y-67564000D03*
%TO.P,U5,7,R2*%
%TO.N,+5V*%
X118120000Y-70104000D03*
%TO.P,U5,8,P3*%
%TO.N,A3*%
X118120000Y-72644000D03*
%TO.P,U5,9,R3*%
%TO.N,GND*%
X118120000Y-75184000D03*
%TO.P,U5,10,GND*%
X118120000Y-77724000D03*
%TO.P,U5,11,P4*%
%TO.N,A4*%
X125740000Y-77724000D03*
%TO.P,U5,12,R4*%
%TO.N,+5V*%
X125740000Y-75184000D03*
%TO.P,U5,13,P5*%
%TO.N,A5*%
X125740000Y-72644000D03*
%TO.P,U5,14,R5*%
%TO.N,GND*%
X125740000Y-70104000D03*
%TO.P,U5,15,P6*%
%TO.N,A6*%
X125740000Y-67564000D03*
%TO.P,U5,16,R6*%
%TO.N,GND*%
X125740000Y-65024000D03*
%TO.P,U5,17,P7*%
%TO.N,A7*%
X125740000Y-62484000D03*
%TO.P,U5,18,R7*%
%TO.N,+5V*%
X125740000Y-59944000D03*
%TO.P,U5,19,P=R*%
%TO.N,Net-(U5-Pad19)*%
X125740000Y-57404000D03*
%TO.P,U5,20,VCC*%
%TO.N,+5V*%
X125740000Y-54864000D03*
%TD*%
D10*
%TO.P,C9,1*%
%TO.N,+5V*%
X74930000Y-27940000D03*
%TO.P,C9,2*%
%TO.N,GND*%
X69930000Y-27940000D03*
%TD*%
D11*
%TO.P,D1,1,K*%
%TO.N,+5V*%
X26520000Y-54620000D03*
D12*
%TO.P,D1,2,A*%
%TO.N,VCC*%
X26520000Y-47000000D03*
%TD*%
D10*
%TO.P,C5,1*%
%TO.N,+5V*%
X58420000Y-25400000D03*
%TO.P,C5,2*%
%TO.N,GND*%
X53420000Y-25400000D03*
%TD*%
D13*
%TO.P,D3,1,K*%
%TO.N,GND*%
X124460000Y-34036000D03*
%TO.P,D3,2,A*%
%TO.N,Net-(D3-Pad2)*%
X122410000Y-34036000D03*
%TD*%
D14*
%TO.P,R1,1*%
%TO.N,S0*%
X117380000Y-30480000D03*
%TO.P,R1,2*%
%TO.N,Net-(D2-Pad2)*%
X119380000Y-30480000D03*
%TD*%
D10*
%TO.P,C6,1*%
%TO.N,+5V*%
X72390000Y-59730000D03*
%TO.P,C6,2*%
%TO.N,GND*%
X72390000Y-64730000D03*
%TD*%
D11*
%TO.P,U1,1*%
%TO.N,~{RES}*%
X68590000Y-33020000D03*
D12*
%TO.P,U1,2*%
%TO.N,RES*%
X68590000Y-35560000D03*
%TO.P,U1,3*%
%TO.N,Net-(U1-Pad3)*%
X68590000Y-38100000D03*
%TO.P,U1,4*%
%TO.N,Net-(U1-Pad4)*%
X68590000Y-40640000D03*
%TO.P,U1,5*%
%TO.N,Net-(U1-Pad5)*%
X68590000Y-43180000D03*
%TO.P,U1,6*%
%TO.N,EO*%
X68590000Y-45720000D03*
%TO.P,U1,7,GND*%
%TO.N,GND*%
X68590000Y-48260000D03*
%TO.P,U1,8*%
%TO.N,unconnected-(U1-Pad8)*%
X76210000Y-48260000D03*
%TO.P,U1,9*%
%TO.N,GND*%
X76210000Y-45720000D03*
%TO.P,U1,10*%
%TO.N,Net-(U1-Pad10)*%
X76210000Y-43180000D03*
%TO.P,U1,11*%
%TO.N,Net-(U1-Pad11)*%
X76210000Y-40640000D03*
%TO.P,U1,12*%
%TO.N,Net-(U1-Pad12)*%
X76210000Y-38100000D03*
%TO.P,U1,13*%
%TO.N,~{MRQ}*%
X76210000Y-35560000D03*
%TO.P,U1,14,VCC*%
%TO.N,+5V*%
X76210000Y-33020000D03*
%TD*%
D10*
%TO.P,C7,1*%
%TO.N,+5V*%
X26670000Y-59868000D03*
%TO.P,C7,2*%
%TO.N,GND*%
X26670000Y-64868000D03*
%TD*%
D13*
%TO.P,D4,1,K*%
%TO.N,GND*%
X124469000Y-37592000D03*
%TO.P,D4,2,A*%
%TO.N,Net-(D4-Pad2)*%
X122419000Y-37592000D03*
%TD*%
D11*
%TO.P,U8,1,S*%
%TO.N,EO*%
X35570000Y-30470000D03*
D12*
%TO.P,U8,2,I0a*%
%TO.N,GND*%
X35570000Y-33010000D03*
%TO.P,U8,3,I1a*%
%TO.N,S0*%
X35570000Y-35550000D03*
%TO.P,U8,4,Za*%
%TO.N,A13_1*%
X35570000Y-38090000D03*
%TO.P,U8,5,I0b*%
%TO.N,GND*%
X35570000Y-40630000D03*
%TO.P,U8,6,I1b*%
%TO.N,+5V*%
X35570000Y-43170000D03*
%TO.P,U8,7,Zb*%
%TO.N,A14_1*%
X35570000Y-45710000D03*
%TO.P,U8,8,GND*%
%TO.N,GND*%
X35570000Y-48250000D03*
%TO.P,U8,9,Zc*%
%TO.N,A13_2*%
X43190000Y-48250000D03*
%TO.P,U8,10,I1c*%
%TO.N,S0*%
X43190000Y-45710000D03*
%TO.P,U8,11,I0c*%
X43190000Y-43170000D03*
%TO.P,U8,12,Zd*%
%TO.N,A14_2*%
X43190000Y-40630000D03*
%TO.P,U8,13,I1d*%
%TO.N,S2*%
X43190000Y-38090000D03*
%TO.P,U8,14,I0d*%
X43190000Y-35550000D03*
%TO.P,U8,15,E*%
%TO.N,GND*%
X43190000Y-33010000D03*
%TO.P,U8,16,VCC*%
%TO.N,+5V*%
X43190000Y-30470000D03*
%TD*%
D11*
%TO.P,C3,1*%
%TO.N,+5V*%
X25400000Y-80010000D03*
D10*
%TO.P,C3,2*%
%TO.N,GND*%
X27900000Y-80010000D03*
%TD*%
%TO.P,C4,1*%
%TO.N,+5V*%
X107910000Y-27940000D03*
%TO.P,C4,2*%
%TO.N,GND*%
X102910000Y-27940000D03*
%TD*%
%TO.P,C2,1*%
%TO.N,+5V*%
X41870000Y-25400000D03*
%TO.P,C2,2*%
%TO.N,GND*%
X36870000Y-25400000D03*
%TD*%
D11*
%TO.P,U4,1,A14*%
%TO.N,A14_2*%
X31750000Y-69993000D03*
D12*
%TO.P,U4,2,A12*%
%TO.N,A12*%
X34290000Y-69993000D03*
%TO.P,U4,3,A7*%
%TO.N,A7*%
X36830000Y-69993000D03*
%TO.P,U4,4,A6*%
%TO.N,A6*%
X39370000Y-69993000D03*
%TO.P,U4,5,A5*%
%TO.N,A5*%
X41910000Y-69993000D03*
%TO.P,U4,6,A4*%
%TO.N,A4*%
X44450000Y-69993000D03*
%TO.P,U4,7,A3*%
%TO.N,A3*%
X46990000Y-69993000D03*
%TO.P,U4,8,A2*%
%TO.N,A2*%
X49530000Y-69993000D03*
%TO.P,U4,9,A1*%
%TO.N,A1*%
X52070000Y-69993000D03*
%TO.P,U4,10,A0*%
%TO.N,A0*%
X54610000Y-69993000D03*
%TO.P,U4,11,Q0*%
%TO.N,D0*%
X57150000Y-69993000D03*
%TO.P,U4,12,Q1*%
%TO.N,D1*%
X59690000Y-69993000D03*
%TO.P,U4,13,Q2*%
%TO.N,D2*%
X62230000Y-69993000D03*
%TO.P,U4,14,GND*%
%TO.N,GND*%
X64770000Y-69993000D03*
%TO.P,U4,15,Q3*%
%TO.N,D3*%
X64770000Y-54753000D03*
%TO.P,U4,16,Q4*%
%TO.N,D4*%
X62230000Y-54753000D03*
%TO.P,U4,17,Q5*%
%TO.N,D5*%
X59690000Y-54753000D03*
%TO.P,U4,18,Q6*%
%TO.N,D6*%
X57150000Y-54753000D03*
%TO.P,U4,19,Q7*%
%TO.N,D7*%
X54610000Y-54753000D03*
%TO.P,U4,20,~{CS}*%
%TO.N,~{CS2}*%
X52070000Y-54753000D03*
%TO.P,U4,21,A10*%
%TO.N,A10*%
X49530000Y-54753000D03*
%TO.P,U4,22,~{OE}*%
%TO.N,~{RD}*%
X46990000Y-54753000D03*
%TO.P,U4,23,A11*%
%TO.N,A11*%
X44450000Y-54753000D03*
%TO.P,U4,24,A9*%
%TO.N,A9*%
X41910000Y-54753000D03*
%TO.P,U4,25,A8*%
%TO.N,A8*%
X39370000Y-54753000D03*
%TO.P,U4,26,A13*%
%TO.N,A13_2*%
X36830000Y-54753000D03*
%TO.P,U4,27,~{WE}*%
%TO.N,~{WR}*%
X34290000Y-54753000D03*
%TO.P,U4,28,VCC*%
%TO.N,+5V*%
X31750000Y-54753000D03*
%TD*%
D15*
%TO.P,J2,1,Pin_1*%
%TO.N,GND*%
X26520000Y-39380000D03*
D16*
%TO.P,J2,2,Pin_2*%
%TO.N,VCC*%
X26520000Y-41920000D03*
%TD*%
D11*
%TO.P,U6,1*%
%TO.N,Net-(U1-Pad11)*%
X85100000Y-33015000D03*
D12*
%TO.P,U6,2*%
%TO.N,~{REN}*%
X85100000Y-35555000D03*
%TO.P,U6,3*%
%TO.N,~{CS2}*%
X85100000Y-38095000D03*
%TO.P,U6,4*%
%TO.N,Net-(U5-Pad19)*%
X85100000Y-40635000D03*
%TO.P,U6,5*%
%TO.N,~{WR}*%
X85100000Y-43175000D03*
%TO.P,U6,6*%
%TO.N,Net-(U1-Pad3)*%
X85100000Y-45715000D03*
%TO.P,U6,7,GND*%
%TO.N,GND*%
X85100000Y-48255000D03*
%TO.P,U6,8*%
%TO.N,Net-(U3-Pad1)*%
X92720000Y-48255000D03*
%TO.P,U6,9*%
%TO.N,S1*%
X92720000Y-45715000D03*
%TO.P,U6,10*%
%TO.N,S2*%
X92720000Y-43175000D03*
%TO.P,U6,11*%
%TO.N,~{CS1}*%
X92720000Y-40635000D03*
%TO.P,U6,12*%
%TO.N,Net-(U1-Pad10)*%
X92720000Y-38095000D03*
%TO.P,U6,13*%
%TO.N,~{REN}*%
X92720000Y-35555000D03*
%TO.P,U6,14,VCC*%
%TO.N,+5V*%
X92720000Y-33015000D03*
%TD*%
D11*
%TO.P,U7,1,Oe1*%
%TO.N,GND*%
X52080000Y-30470000D03*
D12*
%TO.P,U7,2,Oe2*%
X52080000Y-33010000D03*
%TO.P,U7,3,Q0*%
%TO.N,S0*%
X52080000Y-35550000D03*
%TO.P,U7,4,Q1*%
%TO.N,S1*%
X52080000Y-38090000D03*
%TO.P,U7,5,Q2*%
%TO.N,S2*%
X52080000Y-40630000D03*
%TO.P,U7,6,Q3*%
%TO.N,unconnected-(U7-Pad6)*%
X52080000Y-43170000D03*
%TO.P,U7,7,Cp*%
%TO.N,Net-(U1-Pad4)*%
X52080000Y-45710000D03*
%TO.P,U7,8,GND*%
%TO.N,GND*%
X52080000Y-48250000D03*
%TO.P,U7,9,E1*%
X59700000Y-48250000D03*
%TO.P,U7,10,E2*%
X59700000Y-45710000D03*
%TO.P,U7,11,D3*%
%TO.N,D3*%
X59700000Y-43170000D03*
%TO.P,U7,12,D2*%
%TO.N,D2*%
X59700000Y-40630000D03*
%TO.P,U7,13,D1*%
%TO.N,D1*%
X59700000Y-38090000D03*
%TO.P,U7,14,D0*%
%TO.N,D0*%
X59700000Y-35550000D03*
%TO.P,U7,15,Mr*%
%TO.N,RES*%
X59700000Y-33010000D03*
%TO.P,U7,16,VCC*%
%TO.N,+5V*%
X59700000Y-30470000D03*
%TD*%
D10*
%TO.P,C8,1*%
%TO.N,+5V*%
X124420000Y-49276000D03*
%TO.P,C8,2*%
%TO.N,GND*%
X119420000Y-49276000D03*
%TD*%
D11*
%TO.P,U2,1,A14*%
%TO.N,A14_1*%
X77495000Y-69855000D03*
D12*
%TO.P,U2,2,A12*%
%TO.N,A12*%
X80035000Y-69855000D03*
%TO.P,U2,3,A7*%
%TO.N,A7*%
X82575000Y-69855000D03*
%TO.P,U2,4,A6*%
%TO.N,A6*%
X85115000Y-69855000D03*
%TO.P,U2,5,A5*%
%TO.N,A5*%
X87655000Y-69855000D03*
%TO.P,U2,6,A4*%
%TO.N,A4*%
X90195000Y-69855000D03*
%TO.P,U2,7,A3*%
%TO.N,A3*%
X92735000Y-69855000D03*
%TO.P,U2,8,A2*%
%TO.N,A2*%
X95275000Y-69855000D03*
%TO.P,U2,9,A1*%
%TO.N,A1*%
X97815000Y-69855000D03*
%TO.P,U2,10,A0*%
%TO.N,A0*%
X100355000Y-69855000D03*
%TO.P,U2,11,Q0*%
%TO.N,D0*%
X102895000Y-69855000D03*
%TO.P,U2,12,Q1*%
%TO.N,D1*%
X105435000Y-69855000D03*
%TO.P,U2,13,Q2*%
%TO.N,D2*%
X107975000Y-69855000D03*
%TO.P,U2,14,GND*%
%TO.N,GND*%
X110515000Y-69855000D03*
%TO.P,U2,15,Q3*%
%TO.N,D3*%
X110515000Y-54615000D03*
%TO.P,U2,16,Q4*%
%TO.N,D4*%
X107975000Y-54615000D03*
%TO.P,U2,17,Q5*%
%TO.N,D5*%
X105435000Y-54615000D03*
%TO.P,U2,18,Q6*%
%TO.N,D6*%
X102895000Y-54615000D03*
%TO.P,U2,19,Q7*%
%TO.N,D7*%
X100355000Y-54615000D03*
%TO.P,U2,20,~{CS}*%
%TO.N,~{CS1}*%
X97815000Y-54615000D03*
%TO.P,U2,21,A10*%
%TO.N,A10*%
X95275000Y-54615000D03*
%TO.P,U2,22,~{OE}*%
%TO.N,~{RD}*%
X92735000Y-54615000D03*
%TO.P,U2,23,A11*%
%TO.N,A11*%
X90195000Y-54615000D03*
%TO.P,U2,24,A9*%
%TO.N,A9*%
X87655000Y-54615000D03*
%TO.P,U2,25,A8*%
%TO.N,A8*%
X85115000Y-54615000D03*
%TO.P,U2,26,A13*%
%TO.N,A13_1*%
X82575000Y-54615000D03*
%TO.P,U2,27,~{WE}*%
%TO.N,~{WR}*%
X80035000Y-54615000D03*
%TO.P,U2,28,VCC*%
%TO.N,+5V*%
X77495000Y-54615000D03*
%TD*%
D14*
%TO.P,R2,1*%
%TO.N,S1*%
X117380000Y-34036000D03*
%TO.P,R2,2*%
%TO.N,Net-(D3-Pad2)*%
X119380000Y-34036000D03*
%TD*%
%TO.P,R3,1*%
%TO.N,S2*%
X117380000Y-37592000D03*
%TO.P,R3,2*%
%TO.N,Net-(D4-Pad2)*%
X119380000Y-37592000D03*
%TD*%
D17*
%TO.P,J3,1,Pin_1*%
%TO.N,GND*%
X26520000Y-26172000D03*
D18*
%TO.P,J3,2,Pin_2*%
%TO.N,VCC*%
X26520000Y-31252000D03*
%TD*%
D13*
%TO.P,D2,1,K*%
%TO.N,GND*%
X124469000Y-30480000D03*
%TO.P,D2,2,A*%
%TO.N,Net-(D2-Pad2)*%
X122419000Y-30480000D03*
%TD*%
D11*
%TO.P,U3,1*%
%TO.N,Net-(U3-Pad1)*%
X101610000Y-33015000D03*
D12*
%TO.P,U3,2*%
%TO.N,EO*%
X101610000Y-35555000D03*
%TO.P,U3,3*%
%TO.N,Net-(U1-Pad11)*%
X101610000Y-38095000D03*
%TO.P,U3,4*%
%TO.N,GND*%
X101610000Y-40635000D03*
%TO.P,U3,5*%
X101610000Y-43175000D03*
%TO.P,U3,6*%
%TO.N,unconnected-(U3-Pad6)*%
X101610000Y-45715000D03*
%TO.P,U3,7,GND*%
%TO.N,GND*%
X101610000Y-48255000D03*
%TO.P,U3,8*%
%TO.N,Net-(U1-Pad5)*%
X109230000Y-48255000D03*
%TO.P,U3,9*%
%TO.N,A13*%
X109230000Y-45715000D03*
%TO.P,U3,10*%
%TO.N,A14*%
X109230000Y-43175000D03*
%TO.P,U3,11*%
%TO.N,~{REN}*%
X109230000Y-40635000D03*
%TO.P,U3,12*%
%TO.N,Net-(U1-Pad12)*%
X109230000Y-38095000D03*
%TO.P,U3,13*%
%TO.N,RAMS2*%
X109230000Y-35555000D03*
%TO.P,U3,14,VCC*%
%TO.N,+5V*%
X109230000Y-33015000D03*
%TD*%
D15*
%TO.P,J1,1,Pin_1*%
%TO.N,GND*%
X99055000Y-80518000D03*
D16*
%TO.P,J1,2,Pin_2*%
%TO.N,unconnected-(J1-Pad2)*%
X99055000Y-77978000D03*
%TO.P,J1,3,Pin_3*%
%TO.N,D0*%
X96515000Y-80518000D03*
%TO.P,J1,4,Pin_4*%
%TO.N,D1*%
X96515000Y-77978000D03*
%TO.P,J1,5,Pin_5*%
%TO.N,D2*%
X93975000Y-80518000D03*
%TO.P,J1,6,Pin_6*%
%TO.N,D3*%
X93975000Y-77978000D03*
%TO.P,J1,7,Pin_7*%
%TO.N,D4*%
X91435000Y-80518000D03*
%TO.P,J1,8,Pin_8*%
%TO.N,D5*%
X91435000Y-77978000D03*
%TO.P,J1,9,Pin_9*%
%TO.N,D6*%
X88895000Y-80518000D03*
%TO.P,J1,10,Pin_10*%
%TO.N,D7*%
X88895000Y-77978000D03*
%TO.P,J1,11,Pin_11*%
%TO.N,A0*%
X86355000Y-80518000D03*
%TO.P,J1,12,Pin_12*%
%TO.N,A1*%
X86355000Y-77978000D03*
%TO.P,J1,13,Pin_13*%
%TO.N,A2*%
X83815000Y-80518000D03*
%TO.P,J1,14,Pin_14*%
%TO.N,A3*%
X83815000Y-77978000D03*
%TO.P,J1,15,Pin_15*%
%TO.N,A4*%
X81275000Y-80518000D03*
%TO.P,J1,16,Pin_16*%
%TO.N,A5*%
X81275000Y-77978000D03*
%TO.P,J1,17,Pin_17*%
%TO.N,A6*%
X78735000Y-80518000D03*
%TO.P,J1,18,Pin_18*%
%TO.N,A7*%
X78735000Y-77978000D03*
%TO.P,J1,19,Pin_19*%
%TO.N,A8*%
X76195000Y-80518000D03*
%TO.P,J1,20,Pin_20*%
%TO.N,A9*%
X76195000Y-77978000D03*
%TO.P,J1,21,Pin_21*%
%TO.N,A10*%
X73655000Y-80518000D03*
%TO.P,J1,22,Pin_22*%
%TO.N,A11*%
X73655000Y-77978000D03*
%TO.P,J1,23,Pin_23*%
%TO.N,A12*%
X71115000Y-80518000D03*
%TO.P,J1,24,Pin_24*%
%TO.N,A13*%
X71115000Y-77978000D03*
%TO.P,J1,25,Pin_25*%
%TO.N,A14*%
X68575000Y-80518000D03*
%TO.P,J1,26,Pin_26*%
%TO.N,RAMS2*%
X68575000Y-77978000D03*
%TO.P,J1,27,Pin_27*%
%TO.N,~{MRQ}*%
X66035000Y-80518000D03*
%TO.P,J1,28,Pin_28*%
%TO.N,~{RD}*%
X66035000Y-77978000D03*
%TO.P,J1,29,Pin_29*%
%TO.N,unconnected-(J1-Pad29)*%
X63495000Y-80518000D03*
%TO.P,J1,30,Pin_30*%
%TO.N,~{WR}*%
X63495000Y-77978000D03*
%TO.P,J1,31,Pin_31*%
%TO.N,~{IORQ}*%
X60955000Y-80518000D03*
%TO.P,J1,32,Pin_32*%
%TO.N,unconnected-(J1-Pad32)*%
X60955000Y-77978000D03*
%TO.P,J1,33,Pin_33*%
%TO.N,unconnected-(J1-Pad33)*%
X58415000Y-80518000D03*
%TO.P,J1,34,Pin_34*%
%TO.N,~{RES}*%
X58415000Y-77978000D03*
%TO.P,J1,35,Pin_35*%
%TO.N,unconnected-(J1-Pad35)*%
X55875000Y-80518000D03*
%TO.P,J1,36,Pin_36*%
%TO.N,unconnected-(J1-Pad36)*%
X55875000Y-77978000D03*
%TO.P,J1,37,Pin_37*%
%TO.N,unconnected-(J1-Pad37)*%
X53335000Y-80518000D03*
%TO.P,J1,38,Pin_38*%
%TO.N,unconnected-(J1-Pad38)*%
X53335000Y-77978000D03*
%TO.P,J1,39,Pin_39*%
%TO.N,unconnected-(J1-Pad39)*%
X50795000Y-80518000D03*
%TO.P,J1,40,Pin_40*%
%TO.N,unconnected-(J1-Pad40)*%
X50795000Y-77978000D03*
%TD*%
D19*
%TO.N,A14_1*%
X67038300Y-68826100D03*
%TO.N,D3*%
X97439400Y-64812200D03*
X65802200Y-63447100D03*
%TO.N,D4*%
X65988600Y-64772400D03*
X91609600Y-65873700D03*
%TO.N,D5*%
X88819000Y-65853800D03*
X65843300Y-65973300D03*
%TO.N,D6*%
X108952400Y-60918500D03*
X76422100Y-56936300D03*
X68968700Y-56323400D03*
%TO.N,D7*%
X83522600Y-66728700D03*
X69024600Y-58975100D03*
X71830900Y-67566700D03*
%TO.N,A0*%
X107117000Y-61620500D03*
%TO.N,A1*%
X61490400Y-71927600D03*
%TO.N,A3*%
X85252000Y-83261900D03*
%TO.N,A4*%
X88728700Y-84264200D03*
%TO.N,A9*%
X60132500Y-73562500D03*
X69534900Y-73651100D03*
%TO.N,A10*%
X57391900Y-71865300D03*
X68277800Y-76063200D03*
%TO.N,A11*%
X83554800Y-50409000D03*
X68795800Y-74461600D03*
%TO.N,~{RD}*%
X55028600Y-71849600D03*
%TO.N,~{WR}*%
X70036400Y-60020000D03*
%TO.N,~{IORQ}*%
X75013700Y-79536200D03*
%TO.N,A13_1*%
X74223600Y-48500400D03*
%TO.N,~{CS2}*%
X74974100Y-53627700D03*
%TO.N,S2*%
X88257600Y-37696100D03*
%TO.N,Net-(U5-Pad19)*%
X95394700Y-53165200D03*
%TO.N,Net-(U1-Pad10)*%
X81144000Y-42703700D03*
%TO.N,Net-(U1-Pad3)*%
X78225000Y-43639300D03*
%TO.N,Net-(U1-Pad11)*%
X81133900Y-40035800D03*
%TD*%
D20*
%TO.N,A14_1*%
X68067200Y-69855000D02*
X67038300Y-68826100D01*
X77495000Y-69855000D02*
X68067200Y-69855000D01*
%TO.N,D0*%
X49887600Y-71952900D02*
X51538300Y-71952900D01*
X93688500Y-82536600D02*
X95339700Y-80885400D01*
X48351100Y-69505300D02*
X48351100Y-70416400D01*
X48988700Y-68867700D02*
X48351100Y-69505300D01*
X56024700Y-69711600D02*
X55180800Y-68867700D01*
X84951600Y-82536600D02*
X93688500Y-82536600D01*
X55180800Y-68867700D02*
X48988700Y-68867700D01*
X48351100Y-70416400D02*
X49887600Y-71952900D01*
X58763300Y-82625900D02*
X84862300Y-82625900D01*
X57150000Y-69993000D02*
X56024700Y-69993000D01*
X56024700Y-69993000D02*
X56024700Y-69711600D01*
X51538300Y-71952900D02*
X57145000Y-77559600D01*
X57145000Y-77559600D02*
X57145000Y-81007600D01*
X95339700Y-80885400D02*
X95339700Y-80518000D01*
X96515000Y-80518000D02*
X95339700Y-80518000D01*
X84862300Y-82625900D02*
X84951600Y-82536600D01*
X57145000Y-81007600D02*
X58763300Y-82625900D01*
%TO.N,D1*%
X45814000Y-69525900D02*
X46932800Y-68407100D01*
X46932800Y-68407100D02*
X57260100Y-68407100D01*
X59690000Y-69993000D02*
X58564700Y-69993000D01*
X87978400Y-83988800D02*
X55072500Y-83988800D01*
X97759000Y-77321700D02*
X97759000Y-77978000D01*
X52065000Y-77570800D02*
X45814000Y-71319800D01*
X57260100Y-68407100D02*
X58564700Y-69711700D01*
X105435000Y-69855000D02*
X104309700Y-69855000D01*
X55072500Y-83988800D02*
X52065000Y-80981300D01*
X97102700Y-77978000D02*
X97759000Y-77978000D01*
X52065000Y-80981300D02*
X52065000Y-77570800D01*
X104309700Y-70771000D02*
X97759000Y-77321700D01*
X104309700Y-69855000D02*
X104309700Y-70771000D01*
X96515000Y-77978000D02*
X97102700Y-77978000D01*
X97759000Y-80961900D02*
X95182000Y-83538900D01*
X45814000Y-71319800D02*
X45814000Y-69525900D01*
X95182000Y-83538900D02*
X88428300Y-83538900D01*
X97759000Y-77978000D02*
X97759000Y-80961900D01*
X88428300Y-83538900D02*
X87978400Y-83988800D01*
X58564700Y-69711700D02*
X58564700Y-69993000D01*
%TO.N,D2*%
X90259600Y-81010000D02*
X90259600Y-80218400D01*
X92799700Y-80885300D02*
X91934500Y-81750500D01*
X93975000Y-80518000D02*
X92799700Y-80518000D01*
X91000100Y-81750500D02*
X90259600Y-81010000D01*
X92799700Y-80518000D02*
X92799700Y-80885300D01*
X89194600Y-79153400D02*
X88369400Y-79153400D01*
X63811700Y-71574700D02*
X62230000Y-69993000D01*
X90259600Y-80218400D02*
X89194600Y-79153400D01*
X88369400Y-79153400D02*
X87559000Y-78343000D01*
X87559000Y-78343000D02*
X87559000Y-77513700D01*
X91934500Y-81750500D02*
X91000100Y-81750500D01*
X81620000Y-71574700D02*
X63811700Y-71574700D01*
X87559000Y-77513700D02*
X81620000Y-71574700D01*
%TO.N,D3*%
X93975000Y-77978000D02*
X93975000Y-67192200D01*
X96355000Y-64812200D02*
X97439400Y-64812200D01*
X91435100Y-64652300D02*
X76428000Y-64652300D01*
X93975000Y-67192200D02*
X96355000Y-64812200D01*
X76428000Y-64652300D02*
X75175800Y-65904500D01*
X93975000Y-67192200D02*
X91435100Y-64652300D01*
X75175800Y-65904500D02*
X68259600Y-65904500D01*
X68259600Y-65904500D02*
X65802200Y-63447100D01*
%TO.N,D4*%
X91609600Y-72873300D02*
X91609600Y-65873700D01*
X92636700Y-73900400D02*
X91609600Y-72873300D01*
X80773400Y-66354900D02*
X82025600Y-65102700D01*
X82025600Y-65102700D02*
X90838600Y-65102700D01*
X91802300Y-79342700D02*
X92636700Y-78508300D01*
X90838600Y-65102700D02*
X91609600Y-65873700D01*
X91435000Y-80518000D02*
X91435000Y-79342700D01*
X92636700Y-78508300D02*
X92636700Y-73900400D01*
X65988600Y-64772400D02*
X67571100Y-66354900D01*
X91435000Y-79342700D02*
X91802300Y-79342700D01*
X67571100Y-66354900D02*
X80773400Y-66354900D01*
%TO.N,D5*%
X91435000Y-76802700D02*
X88819000Y-74186700D01*
X65843300Y-65973300D02*
X66675300Y-66805300D01*
X88819000Y-74186700D02*
X88819000Y-65853800D01*
X83354200Y-65853800D02*
X88819000Y-65853800D01*
X82402700Y-66805300D02*
X83354200Y-65853800D01*
X66675300Y-66805300D02*
X82402700Y-66805300D01*
X91435000Y-77978000D02*
X91435000Y-76802700D01*
%TO.N,D6*%
X57150000Y-54753000D02*
X58275300Y-54753000D01*
X102895000Y-56936300D02*
X76422100Y-56936300D01*
X59564400Y-56323400D02*
X58275300Y-55034300D01*
X58275300Y-55034300D02*
X58275300Y-54753000D01*
X68968700Y-56323400D02*
X59564400Y-56323400D01*
X108952400Y-60918500D02*
X104970200Y-56936300D01*
X104970200Y-56936300D02*
X102895000Y-56936300D01*
X102895000Y-56936300D02*
X102895000Y-54615000D01*
%TO.N,D7*%
X83756100Y-68833600D02*
X83756100Y-71663800D01*
X71830900Y-67566700D02*
X82489200Y-67566700D01*
X59753100Y-58975100D02*
X55735300Y-54957300D01*
X82586900Y-67664400D02*
X83756100Y-68833600D01*
X69024600Y-58975100D02*
X59753100Y-58975100D01*
X83756100Y-71663800D02*
X88895000Y-76802700D01*
X82489200Y-67566700D02*
X82586900Y-67664400D01*
X55735300Y-54957300D02*
X55735300Y-54753000D01*
X88895000Y-77978000D02*
X88895000Y-76802700D01*
X54610000Y-54753000D02*
X55735300Y-54753000D01*
X82586900Y-67664400D02*
X83522600Y-66728700D01*
%TO.N,A0*%
X77465000Y-78427700D02*
X78380000Y-79342700D01*
X59033500Y-71133400D02*
X61012300Y-73112200D01*
X112718100Y-61680600D02*
X116994700Y-57404000D01*
X72861900Y-72925700D02*
X77465000Y-77528800D01*
X78380000Y-79342700D02*
X84371800Y-79342700D01*
X107177100Y-61680600D02*
X112718100Y-61680600D01*
X85179700Y-80150600D02*
X85179700Y-80518000D01*
X84371800Y-79342700D02*
X85179700Y-80150600D01*
X118120000Y-57404000D02*
X116994700Y-57404000D01*
X107117000Y-61620500D02*
X107177100Y-61680600D01*
X64396200Y-73112200D02*
X64582700Y-72925700D01*
X64582700Y-72925700D02*
X72861900Y-72925700D01*
X61012300Y-73112200D02*
X64396200Y-73112200D01*
X86355000Y-80518000D02*
X85179700Y-80518000D01*
X55750400Y-71133400D02*
X59033500Y-71133400D01*
X77465000Y-77528800D02*
X77465000Y-78427700D01*
X54610000Y-69993000D02*
X55750400Y-71133400D01*
%TO.N,A1*%
X85179700Y-77610700D02*
X79594100Y-72025100D01*
X86355000Y-77978000D02*
X85179700Y-77978000D01*
X85179700Y-77978000D02*
X85179700Y-77610700D01*
X61587900Y-72025100D02*
X61490400Y-71927600D01*
X79594100Y-72025100D02*
X61587900Y-72025100D01*
%TO.N,A2*%
X50655300Y-70274400D02*
X52791200Y-72410300D01*
X50655300Y-69993000D02*
X50655300Y-70274400D01*
X52791200Y-72410300D02*
X54539800Y-72410300D01*
X83815000Y-80518000D02*
X82639700Y-80518000D01*
X59685000Y-80926400D02*
X60918300Y-82159700D01*
X81365300Y-82159700D02*
X82639700Y-80885300D01*
X59685000Y-77555500D02*
X59685000Y-80926400D01*
X82639700Y-80885300D02*
X82639700Y-80518000D01*
X49530000Y-69993000D02*
X50655300Y-69993000D01*
X54539800Y-72410300D02*
X59685000Y-77555500D01*
X60918300Y-82159700D02*
X81365300Y-82159700D01*
%TO.N,A3*%
X56911300Y-83261900D02*
X85252000Y-83261900D01*
X54605000Y-80955600D02*
X56911300Y-83261900D01*
X54605000Y-77579500D02*
X54605000Y-80955600D01*
X47018500Y-69993000D02*
X54605000Y-77579500D01*
X46990000Y-69993000D02*
X47018500Y-69993000D01*
%TO.N,A4*%
X88553600Y-84439300D02*
X52986300Y-84439300D01*
X44450000Y-75903000D02*
X44450000Y-69993000D01*
X88728700Y-84264200D02*
X88553600Y-84439300D01*
X52986300Y-84439300D02*
X44450000Y-75903000D01*
%TO.N,A7*%
X64209600Y-72661900D02*
X61198900Y-72661900D01*
X60841600Y-71176000D02*
X60841600Y-69547000D01*
X61198900Y-72661900D02*
X60723200Y-72186200D01*
X39720000Y-67946900D02*
X37955300Y-69711600D01*
X36830000Y-69993000D02*
X37955300Y-69993000D01*
X64396100Y-72475400D02*
X64209600Y-72661900D01*
X59241500Y-67946900D02*
X39720000Y-67946900D01*
X60841600Y-69547000D02*
X59241500Y-67946900D01*
X73232400Y-72475400D02*
X64396100Y-72475400D01*
X60723200Y-72186200D02*
X60723200Y-71294400D01*
X37955300Y-69711600D02*
X37955300Y-69993000D01*
X60723200Y-71294400D02*
X60841600Y-71176000D01*
X78735000Y-77978000D02*
X73232400Y-72475400D01*
%TO.N,A9*%
X76195000Y-77978000D02*
X75019700Y-77978000D01*
X69534900Y-73651100D02*
X71060200Y-73651100D01*
X69446300Y-73562500D02*
X69534900Y-73651100D01*
X71060200Y-73651100D02*
X75019700Y-77610600D01*
X60132500Y-73562500D02*
X69446300Y-73562500D01*
X75019700Y-77610600D02*
X75019700Y-77978000D01*
%TO.N,A10*%
X71671800Y-79342700D02*
X70778700Y-79342700D01*
X69845000Y-78409000D02*
X69845000Y-77505300D01*
X70778700Y-79342700D02*
X69845000Y-78409000D01*
X72479700Y-80518000D02*
X72479700Y-80150600D01*
X61589800Y-76063200D02*
X57391900Y-71865300D01*
X72479700Y-80150600D02*
X71671800Y-79342700D01*
X69845000Y-77505300D02*
X68402900Y-76063200D01*
X68402900Y-76063200D02*
X68277800Y-76063200D01*
X68277800Y-76063200D02*
X61589800Y-76063200D01*
X73655000Y-80518000D02*
X72479700Y-80518000D01*
%TO.N,A11*%
X72479700Y-77610600D02*
X69330700Y-74461600D01*
X73655000Y-77978000D02*
X72479700Y-77978000D01*
X45575300Y-54471700D02*
X45575300Y-54753000D01*
X49638000Y-50409000D02*
X45575300Y-54471700D01*
X44450000Y-54753000D02*
X45575300Y-54753000D01*
X69330700Y-74461600D02*
X68795800Y-74461600D01*
X83554800Y-50409000D02*
X49638000Y-50409000D01*
X72479700Y-77978000D02*
X72479700Y-77610600D01*
%TO.N,A12*%
X35415300Y-69711700D02*
X35415300Y-69993000D01*
X80035000Y-69855000D02*
X78909700Y-69855000D01*
X64305300Y-71121500D02*
X63500000Y-70316200D01*
X34290000Y-69993000D02*
X35415300Y-69993000D01*
X61341200Y-67496600D02*
X37630400Y-67496600D01*
X37630400Y-67496600D02*
X35415300Y-69711700D01*
X78909700Y-69855000D02*
X78909700Y-70551500D01*
X63500000Y-69655400D02*
X61341200Y-67496600D01*
X63500000Y-70316200D02*
X63500000Y-69655400D01*
X78909700Y-70551500D02*
X78339700Y-71121500D01*
X78339700Y-71121500D02*
X64305300Y-71121500D01*
%TO.N,~{RD}*%
X64051800Y-76802700D02*
X59981700Y-76802700D01*
X64859700Y-77610600D02*
X64051800Y-76802700D01*
X59981700Y-76802700D02*
X55028600Y-71849600D01*
X66035000Y-77978000D02*
X64859700Y-77978000D01*
X64859700Y-77978000D02*
X64859700Y-77610600D01*
%TO.N,~{WR}*%
X40401000Y-60020000D02*
X70036400Y-60020000D01*
X34290000Y-54753000D02*
X35415300Y-54753000D01*
X35415300Y-54753000D02*
X35415300Y-55034300D01*
X35415300Y-55034300D02*
X40401000Y-60020000D01*
%TO.N,~{IORQ}*%
X62130300Y-80518000D02*
X62130300Y-80885300D01*
X74196200Y-81693400D02*
X75013600Y-80876000D01*
X75013600Y-80876000D02*
X75013600Y-79536200D01*
X75013600Y-79536200D02*
X75013700Y-79536200D01*
X62130300Y-80885300D02*
X62938400Y-81693400D01*
X62938400Y-81693400D02*
X74196200Y-81693400D01*
X60955000Y-80518000D02*
X62130300Y-80518000D01*
%TO.N,A13_1*%
X41846100Y-44366100D02*
X35570000Y-38090000D01*
X45493100Y-44366100D02*
X41846100Y-44366100D01*
X48107000Y-46980000D02*
X45493100Y-44366100D01*
X74223600Y-48500400D02*
X72703200Y-46980000D01*
X72703200Y-46980000D02*
X48107000Y-46980000D01*
%TO.N,~{CS2}*%
X52070000Y-54753000D02*
X53195300Y-54753000D01*
X53195300Y-54471600D02*
X54039200Y-53627700D01*
X54039200Y-53627700D02*
X74974100Y-53627700D01*
X53195300Y-54753000D02*
X53195300Y-54471600D01*
D21*
%TO.N,GND*%
X129032000Y-70104000D02*
X129032000Y-87884000D01*
X118120000Y-77724000D02*
X110794000Y-77724000D01*
X71628000Y-62484000D02*
X72390000Y-63246000D01*
D20*
X125740000Y-65024000D02*
X126865300Y-65024000D01*
X110515000Y-64990000D02*
X116960700Y-64990000D01*
X116960700Y-64990000D02*
X116994700Y-65024000D01*
D21*
X52080000Y-48250000D02*
X59700000Y-48250000D01*
X126492000Y-30480000D02*
X127000000Y-30988000D01*
X85344000Y-23368000D02*
X101092000Y-23368000D01*
X110236000Y-88900000D02*
X100076000Y-88900000D01*
X71628000Y-62484000D02*
X109220000Y-62484000D01*
X27900000Y-66098000D02*
X26670000Y-64868000D01*
X110515000Y-88621000D02*
X110236000Y-88900000D01*
X110515000Y-64990000D02*
X110515000Y-69855000D01*
D20*
X37820800Y-33010000D02*
X37258100Y-32447200D01*
D21*
X100076000Y-88900000D02*
X99055000Y-87879000D01*
X51388000Y-23368000D02*
X68580000Y-23368000D01*
X125476000Y-23368000D02*
X127000000Y-24892000D01*
X128016000Y-88900000D02*
X110236000Y-88900000D01*
D20*
X36695400Y-25636800D02*
X36664300Y-25605700D01*
D21*
X125984000Y-46228000D02*
X120396000Y-46228000D01*
X68580000Y-48250000D02*
X68590000Y-48260000D01*
D20*
X74948900Y-47825100D02*
X75928700Y-46845300D01*
D21*
X26670000Y-64868000D02*
X22860000Y-61058000D01*
X63500000Y-62484000D02*
X64008000Y-62484000D01*
X120396000Y-46228000D02*
X119420000Y-47204000D01*
X127000000Y-45212000D02*
X125984000Y-46228000D01*
X85344000Y-23368000D02*
X86440000Y-24464000D01*
X36870000Y-25400000D02*
X38902000Y-23368000D01*
X22860000Y-40640000D02*
X24120000Y-39380000D01*
X23612000Y-26172000D02*
X26520000Y-26172000D01*
X110515000Y-63779000D02*
X110515000Y-64990000D01*
X22860000Y-51308000D02*
X22860000Y-40640000D01*
X68580000Y-23368000D02*
X69930000Y-24718000D01*
X31514000Y-62484000D02*
X63500000Y-62484000D01*
X35570000Y-48250000D02*
X36820000Y-49500000D01*
X51388000Y-23368000D02*
X53420000Y-25400000D01*
X127000000Y-34036000D02*
X127000000Y-37592000D01*
X22860000Y-61058000D02*
X22860000Y-51308000D01*
X36820000Y-49500000D02*
X50830000Y-49500000D01*
X22860000Y-26924000D02*
X23612000Y-26172000D01*
X110794000Y-77724000D02*
X110515000Y-78003000D01*
X68590000Y-48260000D02*
X69840000Y-49510000D01*
X29464000Y-88900000D02*
X27900000Y-87336000D01*
X27900000Y-80010000D02*
X27900000Y-66098000D01*
X127000000Y-31496000D02*
X127000000Y-34036000D01*
X129032000Y-70104000D02*
X125740000Y-70104000D01*
D20*
X129032000Y-64798800D02*
X127090500Y-64798800D01*
D21*
X50830000Y-49500000D02*
X52080000Y-48250000D01*
X100076000Y-88900000D02*
X29464000Y-88900000D01*
D20*
X43190000Y-33010000D02*
X37820800Y-33010000D01*
D21*
X38902000Y-23368000D02*
X51388000Y-23368000D01*
X124469000Y-37592000D02*
X127000000Y-37592000D01*
X26416000Y-51308000D02*
X22860000Y-51308000D01*
X29474000Y-48250000D02*
X26416000Y-51308000D01*
X86350000Y-49505000D02*
X100360000Y-49505000D01*
D20*
X75928700Y-46845300D02*
X76210000Y-46845300D01*
D21*
X69930000Y-24718000D02*
X69930000Y-27940000D01*
X129032000Y-64798800D02*
X129032000Y-70104000D01*
X68580000Y-23368000D02*
X85344000Y-23368000D01*
X127000000Y-45212000D02*
X129032000Y-47244000D01*
X59700000Y-48250000D02*
X68580000Y-48250000D01*
X69840000Y-49510000D02*
X74915800Y-49510000D01*
X83845000Y-49510000D02*
X85100000Y-48255000D01*
D20*
X37258100Y-32447200D02*
X36695300Y-33010000D01*
D21*
X109220000Y-62484000D02*
X110515000Y-63779000D01*
X86440000Y-24464000D02*
X86440000Y-27940000D01*
D20*
X118120000Y-65024000D02*
X116994700Y-65024000D01*
D21*
X110515000Y-78003000D02*
X110515000Y-88621000D01*
X63500000Y-62484000D02*
X64008000Y-62484000D01*
X24120000Y-39380000D02*
X26520000Y-39380000D01*
X100360000Y-49505000D02*
X101610000Y-48255000D01*
X22860000Y-40640000D02*
X22860000Y-26924000D01*
X101610000Y-48255000D02*
X103431000Y-50076000D01*
X124460000Y-34036000D02*
X127000000Y-34036000D01*
D20*
X74948900Y-49476900D02*
X74948900Y-47825100D01*
D21*
X64770000Y-63246000D02*
X64770000Y-69993000D01*
X36098000Y-26172000D02*
X36664300Y-25605700D01*
X35570000Y-48250000D02*
X29474000Y-48250000D01*
X110515000Y-69855000D02*
X110515000Y-78003000D01*
X85100000Y-48255000D02*
X86350000Y-49505000D01*
X72390000Y-63246000D02*
X72390000Y-64730000D01*
D20*
X127090500Y-64798800D02*
X126865300Y-65024000D01*
D21*
X27900000Y-66098000D02*
X31514000Y-62484000D01*
X124469000Y-30480000D02*
X126492000Y-30480000D01*
D20*
X74915800Y-49510000D02*
X74948900Y-49476900D01*
D21*
X129032000Y-87884000D02*
X128016000Y-88900000D01*
X74915800Y-49510000D02*
X83845000Y-49510000D01*
X127000000Y-37592000D02*
X127000000Y-45212000D01*
X101092000Y-23368000D02*
X125476000Y-23368000D01*
D20*
X76210000Y-45720000D02*
X76210000Y-46845300D01*
D21*
X127000000Y-24892000D02*
X127000000Y-30988000D01*
D20*
X37258100Y-32447200D02*
X36695400Y-31884600D01*
X36695400Y-31884600D02*
X36695400Y-25636800D01*
D21*
X36664300Y-25605700D02*
X36870000Y-25400000D01*
X103431000Y-50076000D02*
X118620000Y-50076000D01*
X102910000Y-25186000D02*
X102910000Y-27940000D01*
X99055000Y-87879000D02*
X99055000Y-80518000D01*
X64008000Y-62484000D02*
X71628000Y-62484000D01*
X127000000Y-30988000D02*
X127000000Y-31496000D01*
X27900000Y-87336000D02*
X27900000Y-80010000D01*
X119420000Y-47204000D02*
X119420000Y-49276000D01*
X129032000Y-47244000D02*
X129032000Y-64798800D01*
X118620000Y-50076000D02*
X119420000Y-49276000D01*
X26520000Y-26172000D02*
X36098000Y-26172000D01*
X127000000Y-30988000D02*
X127000000Y-31496000D01*
X64008000Y-62484000D02*
X64770000Y-63246000D01*
D20*
X35570000Y-33010000D02*
X36695300Y-33010000D01*
D21*
X101092000Y-23368000D02*
X102910000Y-25186000D01*
D20*
%TO.N,S1*%
X109694200Y-41768200D02*
X117380000Y-34082400D01*
X117380000Y-34082400D02*
X117380000Y-34036000D01*
X92720000Y-45715000D02*
X91594700Y-45715000D01*
X91594700Y-41768200D02*
X109694200Y-41768200D01*
X52080000Y-38090000D02*
X53205300Y-38090000D01*
X70985300Y-39370000D02*
X73383500Y-41768200D01*
X73383500Y-41768200D02*
X91594700Y-41768200D01*
X54485300Y-39370000D02*
X70985300Y-39370000D01*
X91594700Y-41768200D02*
X91594700Y-45715000D01*
X53205300Y-38090000D02*
X54485300Y-39370000D01*
%TO.N,S2*%
X87503700Y-36942200D02*
X88257600Y-37696100D01*
X43190000Y-38090000D02*
X48499900Y-38090000D01*
X92720000Y-43175000D02*
X93845300Y-43175000D01*
X49458800Y-39048900D02*
X51565500Y-36942200D01*
X49458800Y-39048900D02*
X50954700Y-40544800D01*
X110606400Y-44365600D02*
X117380000Y-37592000D01*
X52080000Y-40630000D02*
X50954700Y-40630000D01*
X51565500Y-36942200D02*
X87503700Y-36942200D01*
X93845300Y-43175000D02*
X95035900Y-44365600D01*
X95035900Y-44365600D02*
X110606400Y-44365600D01*
X50954700Y-40544800D02*
X50954700Y-40630000D01*
X48499900Y-38090000D02*
X49458800Y-39048900D01*
D21*
%TO.N,+5V*%
X107910000Y-27940000D02*
X107910000Y-31695000D01*
D20*
X118401400Y-68978700D02*
X118120000Y-68978700D01*
D21*
X51308000Y-25400000D02*
X52832000Y-26924000D01*
D20*
X125458600Y-61069300D02*
X119245300Y-67282600D01*
D21*
X124420000Y-49276000D02*
X124420000Y-53544000D01*
X90190000Y-29190000D02*
X91440000Y-27940000D01*
X58420000Y-25400000D02*
X65622200Y-25400000D01*
X74930000Y-27940000D02*
X76180000Y-29190000D01*
X41870000Y-25400000D02*
X41870000Y-29150000D01*
X76180000Y-29190000D02*
X90190000Y-29190000D01*
D20*
X118120000Y-70104000D02*
X118120000Y-68978700D01*
D21*
X124420000Y-53544000D02*
X125740000Y-54864000D01*
X26670000Y-59868000D02*
X30048000Y-59868000D01*
X106660000Y-29190000D02*
X107910000Y-27940000D01*
X41870000Y-25400000D02*
X51308000Y-25400000D01*
X69412200Y-29190000D02*
X73680000Y-29190000D01*
X74930000Y-27940000D02*
X74930000Y-31740000D01*
X41870000Y-29150000D02*
X43190000Y-30470000D01*
X52832000Y-26924000D02*
X56896000Y-26924000D01*
D20*
X125740000Y-61069300D02*
X125458600Y-61069300D01*
D21*
X34544000Y-60960000D02*
X71160000Y-60960000D01*
X58420000Y-29190000D02*
X59700000Y-30470000D01*
X80802000Y-51308000D02*
X77495000Y-54615000D01*
X30048000Y-59868000D02*
X31750000Y-58166000D01*
X31750000Y-54753000D02*
X31750000Y-58166000D01*
X56896000Y-26924000D02*
X58420000Y-25400000D01*
X72390000Y-59730000D02*
X77495000Y-54625000D01*
X77495000Y-54625000D02*
X77495000Y-54615000D01*
X65622200Y-25400000D02*
X69412200Y-29190000D01*
D20*
X119245300Y-68134800D02*
X118401400Y-68978700D01*
D21*
X74930000Y-31740000D02*
X76210000Y-33020000D01*
X73680000Y-29190000D02*
X74930000Y-27940000D01*
D20*
X125740000Y-59944000D02*
X125740000Y-61069300D01*
D21*
X71160000Y-60960000D02*
X72390000Y-59730000D01*
X31750000Y-58166000D02*
X34544000Y-60960000D01*
X122388000Y-51308000D02*
X80802000Y-51308000D01*
X91440000Y-27940000D02*
X92690000Y-29190000D01*
X91440000Y-27940000D02*
X91440000Y-31735000D01*
X58420000Y-25400000D02*
X58420000Y-29190000D01*
D20*
X119245300Y-67282600D02*
X119245300Y-68134800D01*
D21*
X107910000Y-31695000D02*
X109230000Y-33015000D01*
X92690000Y-29190000D02*
X106660000Y-29190000D01*
X124420000Y-49276000D02*
X122388000Y-51308000D01*
X91440000Y-31735000D02*
X92720000Y-33015000D01*
D20*
%TO.N,Net-(D2-Pad2)*%
X119380000Y-30480000D02*
X122419000Y-30480000D01*
%TO.N,RES*%
X63375300Y-35560000D02*
X68590000Y-35560000D01*
X60825300Y-33010000D02*
X63375300Y-35560000D01*
X59700000Y-33010000D02*
X60825300Y-33010000D01*
%TO.N,~{REN}*%
X109230000Y-40635000D02*
X109230000Y-39509700D01*
X110365600Y-38655400D02*
X110365600Y-37620000D01*
X109511300Y-39509700D02*
X110365600Y-38655400D01*
X110365600Y-37620000D02*
X109570600Y-36825000D01*
X109230000Y-39509700D02*
X109511300Y-39509700D01*
X99520300Y-35555000D02*
X92720000Y-35555000D01*
X109570600Y-36825000D02*
X100790300Y-36825000D01*
X100790300Y-36825000D02*
X99520300Y-35555000D01*
%TO.N,Net-(U1-Pad5)*%
X106979400Y-47129700D02*
X80689600Y-47129700D01*
X109230000Y-48255000D02*
X108104700Y-48255000D01*
X77865200Y-44305300D02*
X70840600Y-44305300D01*
X70840600Y-44305300D02*
X69715300Y-43180000D01*
X68590000Y-43180000D02*
X69715300Y-43180000D01*
X80689600Y-47129700D02*
X77865200Y-44305300D01*
X108104700Y-48255000D02*
X106979400Y-47129700D01*
%TO.N,Net-(D3-Pad2)*%
X119380000Y-34036000D02*
X122410000Y-34036000D01*
%TO.N,Net-(D4-Pad2)*%
X119380000Y-37592000D02*
X122419000Y-37592000D01*
%TO.N,S0*%
X63469800Y-31879100D02*
X65792100Y-34201400D01*
X42064700Y-43170000D02*
X42064700Y-42888700D01*
X42064700Y-42888700D02*
X35851300Y-36675300D01*
X88386700Y-31889600D02*
X90683700Y-34186600D01*
X65792100Y-34201400D02*
X79675500Y-34201400D01*
X113673400Y-34186600D02*
X117380000Y-30480000D01*
X52080000Y-35550000D02*
X53205300Y-35550000D01*
X53205300Y-35550000D02*
X56876200Y-31879100D01*
X90683700Y-34186600D02*
X113673400Y-34186600D01*
X35570000Y-35550000D02*
X35570000Y-36675300D01*
X56876200Y-31879100D02*
X63469800Y-31879100D01*
X81987300Y-31889600D02*
X88386700Y-31889600D01*
X43190000Y-43170000D02*
X42064700Y-43170000D01*
X79675500Y-34201400D02*
X81987300Y-31889600D01*
X35851300Y-36675300D02*
X35570000Y-36675300D01*
%TO.N,Net-(U5-Pad19)*%
X95394700Y-53165200D02*
X120375900Y-53165200D01*
X125740000Y-57404000D02*
X124614700Y-57404000D01*
X120375900Y-53165200D02*
X124614700Y-57404000D01*
%TO.N,Net-(U1-Pad10)*%
X76210000Y-43180000D02*
X77335300Y-43180000D01*
X77811600Y-42703700D02*
X77335300Y-43180000D01*
X81144000Y-42703700D02*
X77811600Y-42703700D01*
%TO.N,Net-(U1-Pad12)*%
X109230000Y-38095000D02*
X108104700Y-38095000D01*
X108104700Y-38095000D02*
X106974400Y-39225300D01*
X78460600Y-39225300D02*
X77335300Y-38100000D01*
X76210000Y-38100000D02*
X77335300Y-38100000D01*
X106974400Y-39225300D02*
X78460600Y-39225300D01*
%TO.N,Net-(U1-Pad3)*%
X83974700Y-45715000D02*
X81899000Y-43639300D01*
X85100000Y-45715000D02*
X83974700Y-45715000D01*
X81899000Y-43639300D02*
X78225000Y-43639300D01*
D21*
%TO.N,VCC*%
X26520000Y-37188000D02*
X26928000Y-37188000D01*
X27820000Y-38080000D02*
X27820000Y-40620000D01*
X26928000Y-37188000D02*
X27820000Y-38080000D01*
X26520000Y-41920000D02*
X26520000Y-47000000D01*
X26520000Y-31252000D02*
X26520000Y-37188000D01*
X27820000Y-40620000D02*
X26520000Y-41920000D01*
D20*
%TO.N,Net-(U1-Pad4)*%
X57150000Y-41765300D02*
X66339400Y-41765300D01*
X53205300Y-45710000D02*
X57150000Y-41765300D01*
X66339400Y-41765300D02*
X67464700Y-40640000D01*
X68590000Y-40640000D02*
X67464700Y-40640000D01*
X52080000Y-45710000D02*
X53205300Y-45710000D01*
%TO.N,Net-(U1-Pad11)*%
X81133900Y-40035800D02*
X77939500Y-40035800D01*
X76210000Y-40640000D02*
X77335300Y-40640000D01*
X90180000Y-36969700D02*
X99359400Y-36969700D01*
X99359400Y-36969700D02*
X100484700Y-38095000D01*
X86225300Y-33015000D02*
X90180000Y-36969700D01*
X85100000Y-33015000D02*
X86225300Y-33015000D01*
X101610000Y-38095000D02*
X100484700Y-38095000D01*
X77939500Y-40035800D02*
X77335300Y-40640000D01*
%TD*%
M02*
