%TF.GenerationSoftware,KiCad,Pcbnew,(6.0.9)*%
%TF.CreationDate,2023-11-12T13:03:50+01:00*%
%TF.ProjectId,p2000t-ram-expansion-board,70323030-3074-42d7-9261-6d2d65787061,rev?*%
%TF.SameCoordinates,Original*%
%TF.FileFunction,Legend,Bot*%
%TF.FilePolarity,Positive*%
%FSLAX46Y46*%
G04 Gerber Fmt 4.6, Leading zero omitted, Abs format (unit mm)*
G04 Created by KiCad (PCBNEW (6.0.9)) date 2023-11-12 13:03:50*
%MOMM*%
%LPD*%
G01*
G04 APERTURE LIST*
%ADD10C,0.150000*%
%ADD11C,0.200000*%
%ADD12C,0.120000*%
G04 APERTURE END LIST*
D10*
X33337500Y-65024000D02*
X63690500Y-65024000D01*
X63690500Y-65024000D02*
X63690500Y-59944000D01*
X63690500Y-59944000D02*
X33337500Y-59944000D01*
X33337500Y-59944000D02*
X33337500Y-65024000D01*
G36*
X33337500Y-65024000D02*
G01*
X63690500Y-65024000D01*
X63690500Y-59944000D01*
X33337500Y-59944000D01*
X33337500Y-65024000D01*
G37*
D11*
X31198428Y-64626857D02*
X32698428Y-64626857D01*
X32698428Y-64269714D01*
X32627000Y-64055428D01*
X32484142Y-63912571D01*
X32341285Y-63841142D01*
X32055571Y-63769714D01*
X31841285Y-63769714D01*
X31555571Y-63841142D01*
X31412714Y-63912571D01*
X31269857Y-64055428D01*
X31198428Y-64269714D01*
X31198428Y-64626857D01*
X31198428Y-62484000D02*
X31984142Y-62484000D01*
X32127000Y-62555428D01*
X32198428Y-62698285D01*
X32198428Y-62984000D01*
X32127000Y-63126857D01*
X31269857Y-62484000D02*
X31198428Y-62626857D01*
X31198428Y-62984000D01*
X31269857Y-63126857D01*
X31412714Y-63198285D01*
X31555571Y-63198285D01*
X31698428Y-63126857D01*
X31769857Y-62984000D01*
X31769857Y-62626857D01*
X31841285Y-62484000D01*
X32198428Y-61984000D02*
X32198428Y-61412571D01*
X32698428Y-61769714D02*
X31412714Y-61769714D01*
X31269857Y-61698285D01*
X31198428Y-61555428D01*
X31198428Y-61412571D01*
X31269857Y-60341142D02*
X31198428Y-60484000D01*
X31198428Y-60769714D01*
X31269857Y-60912571D01*
X31412714Y-60984000D01*
X31984142Y-60984000D01*
X32127000Y-60912571D01*
X32198428Y-60769714D01*
X32198428Y-60484000D01*
X32127000Y-60341142D01*
X31984142Y-60269714D01*
X31841285Y-60269714D01*
X31698428Y-60984000D01*
D10*
X29130190Y-87796714D02*
X29130190Y-88653857D01*
X29177809Y-88749095D01*
X29273047Y-88796714D01*
X29320666Y-88796714D01*
X29130190Y-87463380D02*
X29177809Y-87511000D01*
X29130190Y-87558619D01*
X29082571Y-87511000D01*
X29130190Y-87463380D01*
X29130190Y-87558619D01*
X28511142Y-88463380D02*
X28606380Y-88415761D01*
X28654000Y-88320523D01*
X28654000Y-87463380D01*
X27701619Y-88415761D02*
X27796857Y-88463380D01*
X27987333Y-88463380D01*
X28082571Y-88415761D01*
X28130190Y-88368142D01*
X28177809Y-88272904D01*
X28177809Y-87987190D01*
X28130190Y-87891952D01*
X28082571Y-87844333D01*
X27987333Y-87796714D01*
X27796857Y-87796714D01*
X27701619Y-87844333D01*
X27273047Y-87796714D02*
X27273047Y-88653857D01*
X27320666Y-88749095D01*
X27415904Y-88796714D01*
X27463523Y-88796714D01*
X27273047Y-87463380D02*
X27320666Y-87511000D01*
X27273047Y-87558619D01*
X27225428Y-87511000D01*
X27273047Y-87463380D01*
X27273047Y-87558619D01*
X26654000Y-88463380D02*
X26749238Y-88415761D01*
X26796857Y-88320523D01*
X26796857Y-87463380D01*
X25844476Y-88415761D02*
X25939714Y-88463380D01*
X26130190Y-88463380D01*
X26225428Y-88415761D01*
X26273047Y-88368142D01*
X26320666Y-88272904D01*
X26320666Y-87987190D01*
X26273047Y-87891952D01*
X26225428Y-87844333D01*
X26130190Y-87796714D01*
X25939714Y-87796714D01*
X25844476Y-87844333D01*
X25415904Y-87796714D02*
X25415904Y-88653857D01*
X25463523Y-88749095D01*
X25558761Y-88796714D01*
X25606380Y-88796714D01*
X25415904Y-87463380D02*
X25463523Y-87511000D01*
X25415904Y-87558619D01*
X25368285Y-87511000D01*
X25415904Y-87463380D01*
X25415904Y-87558619D01*
X24796857Y-88463380D02*
X24892095Y-88415761D01*
X24939714Y-88320523D01*
X24939714Y-87463380D01*
X23987333Y-88415761D02*
X24082571Y-88463380D01*
X24273047Y-88463380D01*
X24368285Y-88415761D01*
X24415904Y-88368142D01*
X24463523Y-88272904D01*
X24463523Y-87987190D01*
X24415904Y-87891952D01*
X24368285Y-87844333D01*
X24273047Y-87796714D01*
X24082571Y-87796714D01*
X23987333Y-87844333D01*
X23558761Y-87796714D02*
X23558761Y-88653857D01*
X23606380Y-88749095D01*
X23701619Y-88796714D01*
X23749238Y-88796714D01*
X23558761Y-87463380D02*
X23606380Y-87511000D01*
X23558761Y-87558619D01*
X23511142Y-87511000D01*
X23558761Y-87463380D01*
X23558761Y-87558619D01*
X22939714Y-88463380D02*
X23034952Y-88415761D01*
X23082571Y-88320523D01*
X23082571Y-87463380D01*
X22130190Y-88415761D02*
X22225428Y-88463380D01*
X22415904Y-88463380D01*
X22511142Y-88415761D01*
X22558761Y-88368142D01*
X22606380Y-88272904D01*
X22606380Y-87987190D01*
X22558761Y-87891952D01*
X22511142Y-87844333D01*
X22415904Y-87796714D01*
X22225428Y-87796714D01*
X22130190Y-87844333D01*
D12*
%TO.C,J1*%
X100385000Y-76648000D02*
X49465000Y-76648000D01*
X49465000Y-81848000D02*
X49465000Y-76648000D01*
X97785000Y-81848000D02*
X49465000Y-81848000D01*
X97785000Y-79248000D02*
X100385000Y-79248000D01*
X100385000Y-81848000D02*
X100385000Y-80518000D01*
X99055000Y-81848000D02*
X100385000Y-81848000D01*
X97785000Y-81848000D02*
X97785000Y-79248000D01*
X100385000Y-79248000D02*
X100385000Y-76648000D01*
%TD*%
M02*
