%TF.GenerationSoftware,KiCad,Pcbnew,8.0.2*%
%TF.CreationDate,2024-05-20T09:09:19+02:00*%
%TF.ProjectId,p2000t-ram-expansion-board,70323030-3074-42d7-9261-6d2d65787061,4*%
%TF.SameCoordinates,Original*%
%TF.FileFunction,Copper,L1,Top*%
%TF.FilePolarity,Positive*%
%FSLAX46Y46*%
G04 Gerber Fmt 4.6, Leading zero omitted, Abs format (unit mm)*
G04 Created by KiCad (PCBNEW 8.0.2) date 2024-05-20 09:09:19*
%MOMM*%
%LPD*%
G01*
G04 APERTURE LIST*
%TA.AperFunction,EtchedComponent*%
%ADD10C,0.010000*%
%TD*%
%TA.AperFunction,ComponentPad*%
%ADD11C,1.600000*%
%TD*%
%TA.AperFunction,ComponentPad*%
%ADD12R,1.600000X1.600000*%
%TD*%
%TA.AperFunction,ComponentPad*%
%ADD13O,1.600000X1.600000*%
%TD*%
%TA.AperFunction,ComponentPad*%
%ADD14R,1.700000X1.700000*%
%TD*%
%TA.AperFunction,ComponentPad*%
%ADD15O,1.700000X1.700000*%
%TD*%
%TA.AperFunction,ComponentPad*%
%ADD16C,3.000000*%
%TD*%
%TA.AperFunction,ComponentPad*%
%ADD17R,3.000000X3.000000*%
%TD*%
%TA.AperFunction,ViaPad*%
%ADD18C,0.800000*%
%TD*%
%TA.AperFunction,Conductor*%
%ADD19C,0.250000*%
%TD*%
%TA.AperFunction,Conductor*%
%ADD20C,0.500000*%
%TD*%
G04 APERTURE END LIST*
D10*
%TO.C,LOGO1*%
X113823621Y-83957360D02*
X113858516Y-83972611D01*
X113941808Y-84038577D01*
X114013034Y-84133960D01*
X114057084Y-84235748D01*
X114064253Y-84285929D01*
X114040216Y-84355989D01*
X113987492Y-84393059D01*
X113930962Y-84415506D01*
X113905077Y-84419642D01*
X113892473Y-84389625D01*
X113867585Y-84324303D01*
X113856666Y-84294787D01*
X113795439Y-84192690D01*
X113706792Y-84141765D01*
X113593124Y-84143331D01*
X113584705Y-84145336D01*
X113524019Y-84174109D01*
X113479405Y-84230201D01*
X113448933Y-84320505D01*
X113430675Y-84451913D01*
X113422702Y-84631316D01*
X113421954Y-84726775D01*
X113421583Y-84877255D01*
X113419154Y-84979837D01*
X113412691Y-85045014D01*
X113400219Y-85083280D01*
X113379764Y-85105127D01*
X113349350Y-85121049D01*
X113347592Y-85121851D01*
X113289022Y-85146614D01*
X113260006Y-85155733D01*
X113255547Y-85128164D01*
X113251730Y-85051962D01*
X113248830Y-84936883D01*
X113247122Y-84792683D01*
X113246782Y-84687156D01*
X113248519Y-84482955D01*
X113255313Y-84328039D01*
X113269538Y-84213366D01*
X113293569Y-84129893D01*
X113329779Y-84068578D01*
X113380543Y-84020376D01*
X113430670Y-83986735D01*
X113551206Y-83941961D01*
X113691488Y-83931863D01*
X113823621Y-83957360D01*
%TA.AperFunction,EtchedComponent*%
G36*
X113823621Y-83957360D02*
G01*
X113858516Y-83972611D01*
X113941808Y-84038577D01*
X114013034Y-84133960D01*
X114057084Y-84235748D01*
X114064253Y-84285929D01*
X114040216Y-84355989D01*
X113987492Y-84393059D01*
X113930962Y-84415506D01*
X113905077Y-84419642D01*
X113892473Y-84389625D01*
X113867585Y-84324303D01*
X113856666Y-84294787D01*
X113795439Y-84192690D01*
X113706792Y-84141765D01*
X113593124Y-84143331D01*
X113584705Y-84145336D01*
X113524019Y-84174109D01*
X113479405Y-84230201D01*
X113448933Y-84320505D01*
X113430675Y-84451913D01*
X113422702Y-84631316D01*
X113421954Y-84726775D01*
X113421583Y-84877255D01*
X113419154Y-84979837D01*
X113412691Y-85045014D01*
X113400219Y-85083280D01*
X113379764Y-85105127D01*
X113349350Y-85121049D01*
X113347592Y-85121851D01*
X113289022Y-85146614D01*
X113260006Y-85155733D01*
X113255547Y-85128164D01*
X113251730Y-85051962D01*
X113248830Y-84936883D01*
X113247122Y-84792683D01*
X113246782Y-84687156D01*
X113248519Y-84482955D01*
X113255313Y-84328039D01*
X113269538Y-84213366D01*
X113293569Y-84129893D01*
X113329779Y-84068578D01*
X113380543Y-84020376D01*
X113430670Y-83986735D01*
X113551206Y-83941961D01*
X113691488Y-83931863D01*
X113823621Y-83957360D01*
G37*
%TD.AperFunction*%
X105905360Y-83895061D02*
X105999054Y-83949256D01*
X106064195Y-84003049D01*
X106111838Y-84059408D01*
X106144659Y-84128329D01*
X106165337Y-84219810D01*
X106176551Y-84343848D01*
X106180980Y-84510440D01*
X106181494Y-84630193D01*
X106181494Y-85071001D01*
X106057414Y-85126625D01*
X105933333Y-85182249D01*
X105918736Y-84699437D01*
X105912704Y-84519121D01*
X105906376Y-84388243D01*
X105898537Y-84297853D01*
X105887968Y-84239006D01*
X105873454Y-84202755D01*
X105853779Y-84180152D01*
X105847466Y-84175259D01*
X105751819Y-84137048D01*
X105655138Y-84152169D01*
X105597586Y-84192285D01*
X105574176Y-84220712D01*
X105557970Y-84258014D01*
X105547672Y-84314565D01*
X105541980Y-84400736D01*
X105539595Y-84526900D01*
X105539195Y-84658384D01*
X105539117Y-84823341D01*
X105536292Y-84940103D01*
X105526838Y-85018852D01*
X105506871Y-85069773D01*
X105472507Y-85103048D01*
X105419863Y-85128862D01*
X105349548Y-85155686D01*
X105272751Y-85184884D01*
X105281893Y-84666688D01*
X105285574Y-84479881D01*
X105289881Y-84341832D01*
X105296054Y-84242910D01*
X105305333Y-84173487D01*
X105318958Y-84123932D01*
X105338170Y-84084615D01*
X105361333Y-84049926D01*
X105473083Y-83939112D01*
X105609444Y-83875031D01*
X105757756Y-83859681D01*
X105905360Y-83895061D01*
%TA.AperFunction,EtchedComponent*%
G36*
X105905360Y-83895061D02*
G01*
X105999054Y-83949256D01*
X106064195Y-84003049D01*
X106111838Y-84059408D01*
X106144659Y-84128329D01*
X106165337Y-84219810D01*
X106176551Y-84343848D01*
X106180980Y-84510440D01*
X106181494Y-84630193D01*
X106181494Y-85071001D01*
X106057414Y-85126625D01*
X105933333Y-85182249D01*
X105918736Y-84699437D01*
X105912704Y-84519121D01*
X105906376Y-84388243D01*
X105898537Y-84297853D01*
X105887968Y-84239006D01*
X105873454Y-84202755D01*
X105853779Y-84180152D01*
X105847466Y-84175259D01*
X105751819Y-84137048D01*
X105655138Y-84152169D01*
X105597586Y-84192285D01*
X105574176Y-84220712D01*
X105557970Y-84258014D01*
X105547672Y-84314565D01*
X105541980Y-84400736D01*
X105539595Y-84526900D01*
X105539195Y-84658384D01*
X105539117Y-84823341D01*
X105536292Y-84940103D01*
X105526838Y-85018852D01*
X105506871Y-85069773D01*
X105472507Y-85103048D01*
X105419863Y-85128862D01*
X105349548Y-85155686D01*
X105272751Y-85184884D01*
X105281893Y-84666688D01*
X105285574Y-84479881D01*
X105289881Y-84341832D01*
X105296054Y-84242910D01*
X105305333Y-84173487D01*
X105318958Y-84123932D01*
X105338170Y-84084615D01*
X105361333Y-84049926D01*
X105473083Y-83939112D01*
X105609444Y-83875031D01*
X105757756Y-83859681D01*
X105905360Y-83895061D01*
G37*
%TD.AperFunction*%
X109553874Y-83939262D02*
X109686496Y-83988201D01*
X109793941Y-84074761D01*
X109835963Y-84135694D01*
X109881774Y-84247503D01*
X109880822Y-84328348D01*
X109832739Y-84382720D01*
X109814948Y-84391966D01*
X109738135Y-84420792D01*
X109698907Y-84413407D01*
X109685620Y-84365000D01*
X109684943Y-84338262D01*
X109660617Y-84239890D01*
X109597212Y-84171076D01*
X109509085Y-84137840D01*
X109410594Y-84146203D01*
X109330533Y-84189638D01*
X109303492Y-84214414D01*
X109284325Y-84244471D01*
X109271377Y-84289907D01*
X109262995Y-84360818D01*
X109257524Y-84467302D01*
X109253309Y-84619454D01*
X109252218Y-84667629D01*
X109248238Y-84832437D01*
X109243712Y-84948430D01*
X109236926Y-85025175D01*
X109226162Y-85072235D01*
X109209704Y-85099177D01*
X109185837Y-85115565D01*
X109170557Y-85122805D01*
X109105664Y-85147562D01*
X109067465Y-85155733D01*
X109054843Y-85128445D01*
X109047139Y-85045945D01*
X109044311Y-84907283D01*
X109046317Y-84711504D01*
X109046942Y-84681307D01*
X109051352Y-84502691D01*
X109056566Y-84372265D01*
X109063986Y-84279834D01*
X109075013Y-84215200D01*
X109091048Y-84168167D01*
X109113492Y-84128538D01*
X109125233Y-84111557D01*
X109192550Y-84036422D01*
X109267841Y-83977980D01*
X109277059Y-83972878D01*
X109412064Y-83932602D01*
X109553874Y-83939262D01*
%TA.AperFunction,EtchedComponent*%
G36*
X109553874Y-83939262D02*
G01*
X109686496Y-83988201D01*
X109793941Y-84074761D01*
X109835963Y-84135694D01*
X109881774Y-84247503D01*
X109880822Y-84328348D01*
X109832739Y-84382720D01*
X109814948Y-84391966D01*
X109738135Y-84420792D01*
X109698907Y-84413407D01*
X109685620Y-84365000D01*
X109684943Y-84338262D01*
X109660617Y-84239890D01*
X109597212Y-84171076D01*
X109509085Y-84137840D01*
X109410594Y-84146203D01*
X109330533Y-84189638D01*
X109303492Y-84214414D01*
X109284325Y-84244471D01*
X109271377Y-84289907D01*
X109262995Y-84360818D01*
X109257524Y-84467302D01*
X109253309Y-84619454D01*
X109252218Y-84667629D01*
X109248238Y-84832437D01*
X109243712Y-84948430D01*
X109236926Y-85025175D01*
X109226162Y-85072235D01*
X109209704Y-85099177D01*
X109185837Y-85115565D01*
X109170557Y-85122805D01*
X109105664Y-85147562D01*
X109067465Y-85155733D01*
X109054843Y-85128445D01*
X109047139Y-85045945D01*
X109044311Y-84907283D01*
X109046317Y-84711504D01*
X109046942Y-84681307D01*
X109051352Y-84502691D01*
X109056566Y-84372265D01*
X109063986Y-84279834D01*
X109075013Y-84215200D01*
X109091048Y-84168167D01*
X109113492Y-84128538D01*
X109125233Y-84111557D01*
X109192550Y-84036422D01*
X109267841Y-83977980D01*
X109277059Y-83972878D01*
X109412064Y-83932602D01*
X109553874Y-83939262D01*
G37*
%TD.AperFunction*%
X112068055Y-83957182D02*
X112072510Y-84033995D01*
X112076002Y-84150733D01*
X112078246Y-84298163D01*
X112078966Y-84452797D01*
X112078966Y-84976069D01*
X111986576Y-85068459D01*
X111922909Y-85125389D01*
X111867020Y-85148449D01*
X111790633Y-85146989D01*
X111760311Y-85143276D01*
X111665541Y-85132468D01*
X111587153Y-85126275D01*
X111568046Y-85125703D01*
X111503630Y-85129444D01*
X111411502Y-85138836D01*
X111375781Y-85143276D01*
X111288045Y-85150143D01*
X111229084Y-85135227D01*
X111170621Y-85089177D01*
X111149516Y-85068459D01*
X111057126Y-84976069D01*
X111057126Y-83997289D01*
X111131489Y-83963408D01*
X111195521Y-83938312D01*
X111232983Y-83929526D01*
X111242588Y-83957292D01*
X111251566Y-84034872D01*
X111259317Y-84153690D01*
X111265245Y-84305170D01*
X111268104Y-84433147D01*
X111276092Y-84936767D01*
X111345779Y-84946620D01*
X111409160Y-84939731D01*
X111440217Y-84917425D01*
X111448898Y-84875721D01*
X111456309Y-84786886D01*
X111461862Y-84662176D01*
X111464967Y-84512849D01*
X111465415Y-84436003D01*
X111465862Y-83993629D01*
X111557805Y-83961577D01*
X111622880Y-83939785D01*
X111658278Y-83929623D01*
X111659299Y-83929526D01*
X111662851Y-83957151D01*
X111666754Y-84033753D01*
X111670682Y-84149921D01*
X111674307Y-84296246D01*
X111676839Y-84433147D01*
X111684828Y-84936767D01*
X111860000Y-84936767D01*
X111868038Y-84477307D01*
X111876077Y-84017847D01*
X111961474Y-83973686D01*
X112024524Y-83943361D01*
X112061841Y-83929600D01*
X112062918Y-83929526D01*
X112068055Y-83957182D01*
%TA.AperFunction,EtchedComponent*%
G36*
X112068055Y-83957182D02*
G01*
X112072510Y-84033995D01*
X112076002Y-84150733D01*
X112078246Y-84298163D01*
X112078966Y-84452797D01*
X112078966Y-84976069D01*
X111986576Y-85068459D01*
X111922909Y-85125389D01*
X111867020Y-85148449D01*
X111790633Y-85146989D01*
X111760311Y-85143276D01*
X111665541Y-85132468D01*
X111587153Y-85126275D01*
X111568046Y-85125703D01*
X111503630Y-85129444D01*
X111411502Y-85138836D01*
X111375781Y-85143276D01*
X111288045Y-85150143D01*
X111229084Y-85135227D01*
X111170621Y-85089177D01*
X111149516Y-85068459D01*
X111057126Y-84976069D01*
X111057126Y-83997289D01*
X111131489Y-83963408D01*
X111195521Y-83938312D01*
X111232983Y-83929526D01*
X111242588Y-83957292D01*
X111251566Y-84034872D01*
X111259317Y-84153690D01*
X111265245Y-84305170D01*
X111268104Y-84433147D01*
X111276092Y-84936767D01*
X111345779Y-84946620D01*
X111409160Y-84939731D01*
X111440217Y-84917425D01*
X111448898Y-84875721D01*
X111456309Y-84786886D01*
X111461862Y-84662176D01*
X111464967Y-84512849D01*
X111465415Y-84436003D01*
X111465862Y-83993629D01*
X111557805Y-83961577D01*
X111622880Y-83939785D01*
X111658278Y-83929623D01*
X111659299Y-83929526D01*
X111662851Y-83957151D01*
X111666754Y-84033753D01*
X111670682Y-84149921D01*
X111674307Y-84296246D01*
X111676839Y-84433147D01*
X111684828Y-84936767D01*
X111860000Y-84936767D01*
X111868038Y-84477307D01*
X111876077Y-84017847D01*
X111961474Y-83973686D01*
X112024524Y-83943361D01*
X112061841Y-83929600D01*
X112062918Y-83929526D01*
X112068055Y-83957182D01*
G37*
%TD.AperFunction*%
X107232529Y-83741199D02*
X107241085Y-83860530D01*
X107250912Y-83930848D01*
X107264530Y-83961521D01*
X107284458Y-83961913D01*
X107290920Y-83958252D01*
X107376871Y-83931740D01*
X107488676Y-83933288D01*
X107602345Y-83960541D01*
X107673441Y-83995797D01*
X107746336Y-84052120D01*
X107799624Y-84115861D01*
X107836206Y-84196852D01*
X107858981Y-84304928D01*
X107870850Y-84449922D01*
X107874713Y-84641668D01*
X107874782Y-84678451D01*
X107874828Y-85091630D01*
X107782885Y-85123681D01*
X107717583Y-85145486D01*
X107681755Y-85155639D01*
X107680701Y-85155733D01*
X107677173Y-85128202D01*
X107674170Y-85052265D01*
X107671921Y-84937907D01*
X107670655Y-84795111D01*
X107670460Y-84708293D01*
X107670054Y-84537115D01*
X107667963Y-84414430D01*
X107662878Y-84330342D01*
X107653491Y-84274956D01*
X107638492Y-84238374D01*
X107616573Y-84210701D01*
X107602888Y-84197374D01*
X107508880Y-84143670D01*
X107406295Y-84139649D01*
X107313221Y-84185067D01*
X107296009Y-84201465D01*
X107270763Y-84232299D01*
X107253251Y-84268873D01*
X107242073Y-84321757D01*
X107235827Y-84401519D01*
X107233113Y-84518727D01*
X107232529Y-84680333D01*
X107232529Y-85091630D01*
X107140586Y-85123681D01*
X107075284Y-85145486D01*
X107039456Y-85155639D01*
X107038402Y-85155733D01*
X107035706Y-85127790D01*
X107033276Y-85048972D01*
X107031209Y-84926795D01*
X107029602Y-84768774D01*
X107028554Y-84582425D01*
X107028162Y-84375262D01*
X107028161Y-84366048D01*
X107028161Y-83576362D01*
X107123046Y-83536339D01*
X107217931Y-83496315D01*
X107232529Y-83741199D01*
%TA.AperFunction,EtchedComponent*%
G36*
X107232529Y-83741199D02*
G01*
X107241085Y-83860530D01*
X107250912Y-83930848D01*
X107264530Y-83961521D01*
X107284458Y-83961913D01*
X107290920Y-83958252D01*
X107376871Y-83931740D01*
X107488676Y-83933288D01*
X107602345Y-83960541D01*
X107673441Y-83995797D01*
X107746336Y-84052120D01*
X107799624Y-84115861D01*
X107836206Y-84196852D01*
X107858981Y-84304928D01*
X107870850Y-84449922D01*
X107874713Y-84641668D01*
X107874782Y-84678451D01*
X107874828Y-85091630D01*
X107782885Y-85123681D01*
X107717583Y-85145486D01*
X107681755Y-85155639D01*
X107680701Y-85155733D01*
X107677173Y-85128202D01*
X107674170Y-85052265D01*
X107671921Y-84937907D01*
X107670655Y-84795111D01*
X107670460Y-84708293D01*
X107670054Y-84537115D01*
X107667963Y-84414430D01*
X107662878Y-84330342D01*
X107653491Y-84274956D01*
X107638492Y-84238374D01*
X107616573Y-84210701D01*
X107602888Y-84197374D01*
X107508880Y-84143670D01*
X107406295Y-84139649D01*
X107313221Y-84185067D01*
X107296009Y-84201465D01*
X107270763Y-84232299D01*
X107253251Y-84268873D01*
X107242073Y-84321757D01*
X107235827Y-84401519D01*
X107233113Y-84518727D01*
X107232529Y-84680333D01*
X107232529Y-85091630D01*
X107140586Y-85123681D01*
X107075284Y-85145486D01*
X107039456Y-85155639D01*
X107038402Y-85155733D01*
X107035706Y-85127790D01*
X107033276Y-85048972D01*
X107031209Y-84926795D01*
X107029602Y-84768774D01*
X107028554Y-84582425D01*
X107028162Y-84375262D01*
X107028161Y-84366048D01*
X107028161Y-83576362D01*
X107123046Y-83536339D01*
X107217931Y-83496315D01*
X107232529Y-83741199D01*
G37*
%TD.AperFunction*%
X102536152Y-83883357D02*
X102672992Y-83955310D01*
X102773982Y-84071108D01*
X102809856Y-84145555D01*
X102837770Y-84257334D01*
X102852060Y-84398569D01*
X102853415Y-84552713D01*
X102842526Y-84703221D01*
X102820084Y-84833547D01*
X102786781Y-84927145D01*
X102776546Y-84943264D01*
X102655313Y-85063591D01*
X102511318Y-85135659D01*
X102355070Y-85156750D01*
X102197079Y-85124144D01*
X102153111Y-85104595D01*
X102067487Y-85044354D01*
X101992339Y-84964477D01*
X101985237Y-84954346D01*
X101956370Y-84905523D01*
X101937288Y-84853332D01*
X101926015Y-84784627D01*
X101920576Y-84686260D01*
X101918993Y-84545086D01*
X101918966Y-84513434D01*
X101919038Y-84503361D01*
X102210920Y-84503361D01*
X102212618Y-84636598D01*
X102219303Y-84725016D01*
X102233356Y-84782127D01*
X102257160Y-84821444D01*
X102269310Y-84834583D01*
X102339167Y-84884514D01*
X102406990Y-84882237D01*
X102475566Y-84838926D01*
X102516466Y-84792688D01*
X102540689Y-84725199D01*
X102554292Y-84618775D01*
X102555225Y-84606362D01*
X102557547Y-84413489D01*
X102533281Y-84270242D01*
X102482755Y-84177502D01*
X102406299Y-84136149D01*
X102379007Y-84133894D01*
X102307342Y-84145235D01*
X102258321Y-84184526D01*
X102228349Y-84259668D01*
X102213830Y-84378564D01*
X102210920Y-84503361D01*
X101919038Y-84503361D01*
X101920053Y-84363001D01*
X101924619Y-84257891D01*
X101934619Y-84185056D01*
X101952010Y-84131450D01*
X101978747Y-84084023D01*
X101984655Y-84075206D01*
X102083963Y-83956349D01*
X102192173Y-83887350D01*
X102323912Y-83859961D01*
X102368648Y-83858623D01*
X102536152Y-83883357D01*
%TA.AperFunction,EtchedComponent*%
G36*
X102536152Y-83883357D02*
G01*
X102672992Y-83955310D01*
X102773982Y-84071108D01*
X102809856Y-84145555D01*
X102837770Y-84257334D01*
X102852060Y-84398569D01*
X102853415Y-84552713D01*
X102842526Y-84703221D01*
X102820084Y-84833547D01*
X102786781Y-84927145D01*
X102776546Y-84943264D01*
X102655313Y-85063591D01*
X102511318Y-85135659D01*
X102355070Y-85156750D01*
X102197079Y-85124144D01*
X102153111Y-85104595D01*
X102067487Y-85044354D01*
X101992339Y-84964477D01*
X101985237Y-84954346D01*
X101956370Y-84905523D01*
X101937288Y-84853332D01*
X101926015Y-84784627D01*
X101920576Y-84686260D01*
X101918993Y-84545086D01*
X101918966Y-84513434D01*
X101919038Y-84503361D01*
X102210920Y-84503361D01*
X102212618Y-84636598D01*
X102219303Y-84725016D01*
X102233356Y-84782127D01*
X102257160Y-84821444D01*
X102269310Y-84834583D01*
X102339167Y-84884514D01*
X102406990Y-84882237D01*
X102475566Y-84838926D01*
X102516466Y-84792688D01*
X102540689Y-84725199D01*
X102554292Y-84618775D01*
X102555225Y-84606362D01*
X102557547Y-84413489D01*
X102533281Y-84270242D01*
X102482755Y-84177502D01*
X102406299Y-84136149D01*
X102379007Y-84133894D01*
X102307342Y-84145235D01*
X102258321Y-84184526D01*
X102228349Y-84259668D01*
X102213830Y-84378564D01*
X102210920Y-84503361D01*
X101919038Y-84503361D01*
X101920053Y-84363001D01*
X101924619Y-84257891D01*
X101934619Y-84185056D01*
X101952010Y-84131450D01*
X101978747Y-84084023D01*
X101984655Y-84075206D01*
X102083963Y-83956349D01*
X102192173Y-83887350D01*
X102323912Y-83859961D01*
X102368648Y-83858623D01*
X102536152Y-83883357D01*
G37*
%TD.AperFunction*%
X114831370Y-83973882D02*
X114946881Y-84049376D01*
X115002595Y-84116959D01*
X115046735Y-84239597D01*
X115050240Y-84336640D01*
X115042299Y-84466398D01*
X114743046Y-84597381D01*
X114597542Y-84664300D01*
X114502468Y-84718132D01*
X114453032Y-84764758D01*
X114444442Y-84810062D01*
X114471903Y-84859924D01*
X114502184Y-84892974D01*
X114590294Y-84945975D01*
X114686127Y-84949689D01*
X114774143Y-84908383D01*
X114838800Y-84826325D01*
X114850364Y-84797350D01*
X114905756Y-84706851D01*
X114969484Y-84668282D01*
X115056897Y-84635288D01*
X115056897Y-84760376D01*
X115049169Y-84845498D01*
X115018897Y-84917280D01*
X114955449Y-84999698D01*
X114946019Y-85010408D01*
X114875444Y-85083733D01*
X114814778Y-85123084D01*
X114738881Y-85141187D01*
X114675961Y-85147116D01*
X114563418Y-85148593D01*
X114483301Y-85129877D01*
X114433321Y-85102089D01*
X114354769Y-85040983D01*
X114300394Y-84974896D01*
X114265983Y-84891783D01*
X114247319Y-84779596D01*
X114240187Y-84626288D01*
X114239618Y-84548478D01*
X114241553Y-84455195D01*
X114417830Y-84455195D01*
X114419875Y-84505238D01*
X114424970Y-84513434D01*
X114458597Y-84502300D01*
X114530961Y-84472835D01*
X114627678Y-84430943D01*
X114647904Y-84421939D01*
X114770134Y-84359784D01*
X114837478Y-84305157D01*
X114852279Y-84253991D01*
X114816878Y-84202218D01*
X114787642Y-84179342D01*
X114682147Y-84133592D01*
X114583407Y-84141150D01*
X114500743Y-84196993D01*
X114443479Y-84296095D01*
X114425119Y-84374756D01*
X114417830Y-84455195D01*
X114241553Y-84455195D01*
X114243390Y-84366693D01*
X114257290Y-84232195D01*
X114284825Y-84134258D01*
X114329503Y-84062153D01*
X114394832Y-84005155D01*
X114423314Y-83986735D01*
X114552694Y-83938764D01*
X114694343Y-83935745D01*
X114831370Y-83973882D01*
%TA.AperFunction,EtchedComponent*%
G36*
X114831370Y-83973882D02*
G01*
X114946881Y-84049376D01*
X115002595Y-84116959D01*
X115046735Y-84239597D01*
X115050240Y-84336640D01*
X115042299Y-84466398D01*
X114743046Y-84597381D01*
X114597542Y-84664300D01*
X114502468Y-84718132D01*
X114453032Y-84764758D01*
X114444442Y-84810062D01*
X114471903Y-84859924D01*
X114502184Y-84892974D01*
X114590294Y-84945975D01*
X114686127Y-84949689D01*
X114774143Y-84908383D01*
X114838800Y-84826325D01*
X114850364Y-84797350D01*
X114905756Y-84706851D01*
X114969484Y-84668282D01*
X115056897Y-84635288D01*
X115056897Y-84760376D01*
X115049169Y-84845498D01*
X115018897Y-84917280D01*
X114955449Y-84999698D01*
X114946019Y-85010408D01*
X114875444Y-85083733D01*
X114814778Y-85123084D01*
X114738881Y-85141187D01*
X114675961Y-85147116D01*
X114563418Y-85148593D01*
X114483301Y-85129877D01*
X114433321Y-85102089D01*
X114354769Y-85040983D01*
X114300394Y-84974896D01*
X114265983Y-84891783D01*
X114247319Y-84779596D01*
X114240187Y-84626288D01*
X114239618Y-84548478D01*
X114241553Y-84455195D01*
X114417830Y-84455195D01*
X114419875Y-84505238D01*
X114424970Y-84513434D01*
X114458597Y-84502300D01*
X114530961Y-84472835D01*
X114627678Y-84430943D01*
X114647904Y-84421939D01*
X114770134Y-84359784D01*
X114837478Y-84305157D01*
X114852279Y-84253991D01*
X114816878Y-84202218D01*
X114787642Y-84179342D01*
X114682147Y-84133592D01*
X114583407Y-84141150D01*
X114500743Y-84196993D01*
X114443479Y-84296095D01*
X114425119Y-84374756D01*
X114417830Y-84455195D01*
X114241553Y-84455195D01*
X114243390Y-84366693D01*
X114257290Y-84232195D01*
X114284825Y-84134258D01*
X114329503Y-84062153D01*
X114394832Y-84005155D01*
X114423314Y-83986735D01*
X114552694Y-83938764D01*
X114694343Y-83935745D01*
X114831370Y-83973882D01*
G37*
%TD.AperFunction*%
X110881845Y-84171797D02*
X110881474Y-84390003D01*
X110880039Y-84557861D01*
X110876933Y-84683412D01*
X110871553Y-84774697D01*
X110863293Y-84839757D01*
X110851547Y-84886633D01*
X110835712Y-84923366D01*
X110823721Y-84944333D01*
X110724421Y-85058036D01*
X110598519Y-85129307D01*
X110459222Y-85154880D01*
X110319736Y-85131492D01*
X110236674Y-85089461D01*
X110149476Y-85016753D01*
X110090048Y-84927954D01*
X110054192Y-84811662D01*
X110037712Y-84656477D01*
X110035378Y-84542629D01*
X110035692Y-84534448D01*
X110239655Y-84534448D01*
X110240901Y-84664999D01*
X110246609Y-84751422D01*
X110259735Y-84807960D01*
X110283237Y-84848856D01*
X110311317Y-84879704D01*
X110405619Y-84939247D01*
X110506871Y-84944334D01*
X110602567Y-84894621D01*
X110610015Y-84887885D01*
X110641805Y-84852844D01*
X110661739Y-84811153D01*
X110672531Y-84749104D01*
X110676896Y-84652986D01*
X110677586Y-84546721D01*
X110676090Y-84413222D01*
X110669895Y-84324164D01*
X110656445Y-84265635D01*
X110633182Y-84223724D01*
X110614106Y-84201465D01*
X110525494Y-84145327D01*
X110423439Y-84138577D01*
X110326026Y-84181456D01*
X110307227Y-84197374D01*
X110275224Y-84232724D01*
X110255249Y-84274844D01*
X110244524Y-84337593D01*
X110240270Y-84434829D01*
X110239655Y-84534448D01*
X110035692Y-84534448D01*
X110042435Y-84359289D01*
X110066403Y-84221537D01*
X110111479Y-84117974D01*
X110181859Y-84037198D01*
X110236674Y-83995797D01*
X110336307Y-83951070D01*
X110451786Y-83930309D01*
X110559130Y-83935867D01*
X110619195Y-83958285D01*
X110642766Y-83964665D01*
X110658408Y-83940877D01*
X110669326Y-83877130D01*
X110677586Y-83780029D01*
X110686630Y-83671883D01*
X110699192Y-83606817D01*
X110722050Y-83569610D01*
X110761982Y-83545041D01*
X110787069Y-83534161D01*
X110881954Y-83494414D01*
X110881845Y-84171797D01*
%TA.AperFunction,EtchedComponent*%
G36*
X110881845Y-84171797D02*
G01*
X110881474Y-84390003D01*
X110880039Y-84557861D01*
X110876933Y-84683412D01*
X110871553Y-84774697D01*
X110863293Y-84839757D01*
X110851547Y-84886633D01*
X110835712Y-84923366D01*
X110823721Y-84944333D01*
X110724421Y-85058036D01*
X110598519Y-85129307D01*
X110459222Y-85154880D01*
X110319736Y-85131492D01*
X110236674Y-85089461D01*
X110149476Y-85016753D01*
X110090048Y-84927954D01*
X110054192Y-84811662D01*
X110037712Y-84656477D01*
X110035378Y-84542629D01*
X110035692Y-84534448D01*
X110239655Y-84534448D01*
X110240901Y-84664999D01*
X110246609Y-84751422D01*
X110259735Y-84807960D01*
X110283237Y-84848856D01*
X110311317Y-84879704D01*
X110405619Y-84939247D01*
X110506871Y-84944334D01*
X110602567Y-84894621D01*
X110610015Y-84887885D01*
X110641805Y-84852844D01*
X110661739Y-84811153D01*
X110672531Y-84749104D01*
X110676896Y-84652986D01*
X110677586Y-84546721D01*
X110676090Y-84413222D01*
X110669895Y-84324164D01*
X110656445Y-84265635D01*
X110633182Y-84223724D01*
X110614106Y-84201465D01*
X110525494Y-84145327D01*
X110423439Y-84138577D01*
X110326026Y-84181456D01*
X110307227Y-84197374D01*
X110275224Y-84232724D01*
X110255249Y-84274844D01*
X110244524Y-84337593D01*
X110240270Y-84434829D01*
X110239655Y-84534448D01*
X110035692Y-84534448D01*
X110042435Y-84359289D01*
X110066403Y-84221537D01*
X110111479Y-84117974D01*
X110181859Y-84037198D01*
X110236674Y-83995797D01*
X110336307Y-83951070D01*
X110451786Y-83930309D01*
X110559130Y-83935867D01*
X110619195Y-83958285D01*
X110642766Y-83964665D01*
X110658408Y-83940877D01*
X110669326Y-83877130D01*
X110677586Y-83780029D01*
X110686630Y-83671883D01*
X110699192Y-83606817D01*
X110722050Y-83569610D01*
X110761982Y-83545041D01*
X110787069Y-83534161D01*
X110881954Y-83494414D01*
X110881845Y-84171797D01*
G37*
%TD.AperFunction*%
X104803483Y-83902018D02*
X104918589Y-83979453D01*
X105007542Y-84091291D01*
X105060680Y-84233607D01*
X105071428Y-84338357D01*
X105070207Y-84382068D01*
X105059987Y-84415536D01*
X105031892Y-84445521D01*
X104977047Y-84478782D01*
X104886576Y-84522080D01*
X104751603Y-84582175D01*
X104750920Y-84582476D01*
X104626682Y-84639379D01*
X104524804Y-84689907D01*
X104455698Y-84728622D01*
X104429777Y-84750082D01*
X104429770Y-84750255D01*
X104452616Y-84796986D01*
X104506040Y-84848496D01*
X104567373Y-84885603D01*
X104598446Y-84892974D01*
X104683220Y-84867480D01*
X104756224Y-84803633D01*
X104791844Y-84733436D01*
X104826111Y-84681685D01*
X104893234Y-84622751D01*
X104972139Y-84571838D01*
X105041752Y-84544151D01*
X105056308Y-84542629D01*
X105072694Y-84567663D01*
X105073681Y-84631653D01*
X105061639Y-84717935D01*
X105038938Y-84809843D01*
X105007945Y-84890711D01*
X105006379Y-84893851D01*
X104913112Y-85024076D01*
X104792235Y-85112653D01*
X104654958Y-85156128D01*
X104512491Y-85151048D01*
X104376043Y-85093958D01*
X104369976Y-85089944D01*
X104262641Y-84992668D01*
X104192063Y-84865751D01*
X104153005Y-84698868D01*
X104147763Y-84651981D01*
X104138479Y-84430671D01*
X104149609Y-84327466D01*
X104429770Y-84327466D01*
X104433410Y-84391845D01*
X104453320Y-84410633D01*
X104502957Y-84396577D01*
X104581198Y-84363351D01*
X104668657Y-84321701D01*
X104670830Y-84320598D01*
X104744961Y-84281607D01*
X104774712Y-84255586D01*
X104767376Y-84228307D01*
X104736484Y-84192463D01*
X104657891Y-84140593D01*
X104573254Y-84136781D01*
X104497334Y-84174531D01*
X104444896Y-84247343D01*
X104429770Y-84327466D01*
X104149609Y-84327466D01*
X104157575Y-84253603D01*
X104206565Y-84113171D01*
X104274767Y-84014789D01*
X104397866Y-83915372D01*
X104533459Y-83866053D01*
X104671886Y-83862910D01*
X104803483Y-83902018D01*
%TA.AperFunction,EtchedComponent*%
G36*
X104803483Y-83902018D02*
G01*
X104918589Y-83979453D01*
X105007542Y-84091291D01*
X105060680Y-84233607D01*
X105071428Y-84338357D01*
X105070207Y-84382068D01*
X105059987Y-84415536D01*
X105031892Y-84445521D01*
X104977047Y-84478782D01*
X104886576Y-84522080D01*
X104751603Y-84582175D01*
X104750920Y-84582476D01*
X104626682Y-84639379D01*
X104524804Y-84689907D01*
X104455698Y-84728622D01*
X104429777Y-84750082D01*
X104429770Y-84750255D01*
X104452616Y-84796986D01*
X104506040Y-84848496D01*
X104567373Y-84885603D01*
X104598446Y-84892974D01*
X104683220Y-84867480D01*
X104756224Y-84803633D01*
X104791844Y-84733436D01*
X104826111Y-84681685D01*
X104893234Y-84622751D01*
X104972139Y-84571838D01*
X105041752Y-84544151D01*
X105056308Y-84542629D01*
X105072694Y-84567663D01*
X105073681Y-84631653D01*
X105061639Y-84717935D01*
X105038938Y-84809843D01*
X105007945Y-84890711D01*
X105006379Y-84893851D01*
X104913112Y-85024076D01*
X104792235Y-85112653D01*
X104654958Y-85156128D01*
X104512491Y-85151048D01*
X104376043Y-85093958D01*
X104369976Y-85089944D01*
X104262641Y-84992668D01*
X104192063Y-84865751D01*
X104153005Y-84698868D01*
X104147763Y-84651981D01*
X104138479Y-84430671D01*
X104149609Y-84327466D01*
X104429770Y-84327466D01*
X104433410Y-84391845D01*
X104453320Y-84410633D01*
X104502957Y-84396577D01*
X104581198Y-84363351D01*
X104668657Y-84321701D01*
X104670830Y-84320598D01*
X104744961Y-84281607D01*
X104774712Y-84255586D01*
X104767376Y-84228307D01*
X104736484Y-84192463D01*
X104657891Y-84140593D01*
X104573254Y-84136781D01*
X104497334Y-84174531D01*
X104444896Y-84247343D01*
X104429770Y-84327466D01*
X104149609Y-84327466D01*
X104157575Y-84253603D01*
X104206565Y-84113171D01*
X104274767Y-84014789D01*
X104397866Y-83915372D01*
X104533459Y-83866053D01*
X104671886Y-83862910D01*
X104803483Y-83902018D01*
G37*
%TD.AperFunction*%
X108567875Y-83941702D02*
X108682274Y-83984184D01*
X108683583Y-83985000D01*
X108754334Y-84037072D01*
X108806567Y-84097926D01*
X108843302Y-84177229D01*
X108867565Y-84284651D01*
X108882376Y-84429859D01*
X108890760Y-84622521D01*
X108891495Y-84649970D01*
X108902051Y-85063863D01*
X108813222Y-85109798D01*
X108748949Y-85140840D01*
X108710141Y-85155548D01*
X108708346Y-85155733D01*
X108701631Y-85128592D01*
X108696296Y-85055383D01*
X108693014Y-84948423D01*
X108692299Y-84861811D01*
X108692282Y-84721504D01*
X108685868Y-84633393D01*
X108663511Y-84591367D01*
X108615663Y-84589317D01*
X108532780Y-84621132D01*
X108407644Y-84679614D01*
X108315628Y-84728187D01*
X108268302Y-84770328D01*
X108254389Y-84816258D01*
X108254368Y-84818531D01*
X108277326Y-84897653D01*
X108345301Y-84940397D01*
X108449329Y-84946588D01*
X108524261Y-84945514D01*
X108563770Y-84967095D01*
X108588409Y-85018933D01*
X108602590Y-85084974D01*
X108582154Y-85122446D01*
X108574459Y-85127809D01*
X108502014Y-85149348D01*
X108400564Y-85152397D01*
X108296088Y-85138120D01*
X108222056Y-85112030D01*
X108119703Y-85025127D01*
X108061522Y-84904158D01*
X108050000Y-84809650D01*
X108058793Y-84724404D01*
X108090611Y-84654818D01*
X108153615Y-84593014D01*
X108255962Y-84531114D01*
X108405813Y-84461239D01*
X108414943Y-84457290D01*
X108549928Y-84394930D01*
X108633225Y-84343788D01*
X108668928Y-84297830D01*
X108661134Y-84251025D01*
X108613938Y-84197340D01*
X108599825Y-84184986D01*
X108505290Y-84137083D01*
X108407337Y-84139100D01*
X108322028Y-84186066D01*
X108265427Y-84273011D01*
X108260168Y-84290076D01*
X108208954Y-84372846D01*
X108143968Y-84412714D01*
X108050000Y-84452224D01*
X108050000Y-84350000D01*
X108078584Y-84201414D01*
X108163426Y-84065126D01*
X108207576Y-84019533D01*
X108307936Y-83961016D01*
X108435566Y-83934526D01*
X108567875Y-83941702D01*
%TA.AperFunction,EtchedComponent*%
G36*
X108567875Y-83941702D02*
G01*
X108682274Y-83984184D01*
X108683583Y-83985000D01*
X108754334Y-84037072D01*
X108806567Y-84097926D01*
X108843302Y-84177229D01*
X108867565Y-84284651D01*
X108882376Y-84429859D01*
X108890760Y-84622521D01*
X108891495Y-84649970D01*
X108902051Y-85063863D01*
X108813222Y-85109798D01*
X108748949Y-85140840D01*
X108710141Y-85155548D01*
X108708346Y-85155733D01*
X108701631Y-85128592D01*
X108696296Y-85055383D01*
X108693014Y-84948423D01*
X108692299Y-84861811D01*
X108692282Y-84721504D01*
X108685868Y-84633393D01*
X108663511Y-84591367D01*
X108615663Y-84589317D01*
X108532780Y-84621132D01*
X108407644Y-84679614D01*
X108315628Y-84728187D01*
X108268302Y-84770328D01*
X108254389Y-84816258D01*
X108254368Y-84818531D01*
X108277326Y-84897653D01*
X108345301Y-84940397D01*
X108449329Y-84946588D01*
X108524261Y-84945514D01*
X108563770Y-84967095D01*
X108588409Y-85018933D01*
X108602590Y-85084974D01*
X108582154Y-85122446D01*
X108574459Y-85127809D01*
X108502014Y-85149348D01*
X108400564Y-85152397D01*
X108296088Y-85138120D01*
X108222056Y-85112030D01*
X108119703Y-85025127D01*
X108061522Y-84904158D01*
X108050000Y-84809650D01*
X108058793Y-84724404D01*
X108090611Y-84654818D01*
X108153615Y-84593014D01*
X108255962Y-84531114D01*
X108405813Y-84461239D01*
X108414943Y-84457290D01*
X108549928Y-84394930D01*
X108633225Y-84343788D01*
X108668928Y-84297830D01*
X108661134Y-84251025D01*
X108613938Y-84197340D01*
X108599825Y-84184986D01*
X108505290Y-84137083D01*
X108407337Y-84139100D01*
X108322028Y-84186066D01*
X108265427Y-84273011D01*
X108260168Y-84290076D01*
X108208954Y-84372846D01*
X108143968Y-84412714D01*
X108050000Y-84452224D01*
X108050000Y-84350000D01*
X108078584Y-84201414D01*
X108163426Y-84065126D01*
X108207576Y-84019533D01*
X108307936Y-83961016D01*
X108435566Y-83934526D01*
X108567875Y-83941702D01*
G37*
%TD.AperFunction*%
X103659831Y-83879245D02*
X103771381Y-83934864D01*
X103869839Y-84037273D01*
X103896954Y-84075206D01*
X103926493Y-84124842D01*
X103945659Y-84178754D01*
X103956624Y-84250706D01*
X103961560Y-84354464D01*
X103962644Y-84491443D01*
X103957749Y-84679157D01*
X103940735Y-84820100D01*
X103908108Y-84925250D01*
X103856373Y-85005585D01*
X103782035Y-85072083D01*
X103776573Y-85076020D01*
X103703311Y-85116295D01*
X103615091Y-85136222D01*
X103502893Y-85141135D01*
X103320498Y-85141135D01*
X103320422Y-85318199D01*
X103318724Y-85416812D01*
X103308381Y-85474656D01*
X103281353Y-85509348D01*
X103229599Y-85538506D01*
X103217170Y-85544463D01*
X103159008Y-85572381D01*
X103113975Y-85590014D01*
X103080490Y-85591536D01*
X103056969Y-85571123D01*
X103041831Y-85522949D01*
X103033494Y-85441188D01*
X103030375Y-85320014D01*
X103030891Y-85153602D01*
X103033460Y-84936127D01*
X103034263Y-84871078D01*
X103037153Y-84646844D01*
X103039743Y-84500163D01*
X103320345Y-84500163D01*
X103321922Y-84624668D01*
X103328931Y-84706129D01*
X103344789Y-84759857D01*
X103372912Y-84801165D01*
X103392006Y-84821313D01*
X103470066Y-84880263D01*
X103539178Y-84885062D01*
X103610491Y-84836380D01*
X103612299Y-84834583D01*
X103641314Y-84796960D01*
X103658964Y-84745826D01*
X103667867Y-84667080D01*
X103670640Y-84546618D01*
X103670690Y-84519930D01*
X103663989Y-84353925D01*
X103642179Y-84238847D01*
X103602696Y-84168596D01*
X103542975Y-84137071D01*
X103508459Y-84133894D01*
X103426542Y-84148802D01*
X103370352Y-84197890D01*
X103336529Y-84287704D01*
X103321711Y-84424787D01*
X103320345Y-84500163D01*
X103039743Y-84500163D01*
X103040218Y-84473294D01*
X103044178Y-84342724D01*
X103049757Y-84247429D01*
X103057677Y-84179706D01*
X103068662Y-84131849D01*
X103083432Y-84096155D01*
X103102713Y-84064920D01*
X103110980Y-84053166D01*
X103220643Y-83942139D01*
X103359296Y-83879189D01*
X103519685Y-83861639D01*
X103659831Y-83879245D01*
%TA.AperFunction,EtchedComponent*%
G36*
X103659831Y-83879245D02*
G01*
X103771381Y-83934864D01*
X103869839Y-84037273D01*
X103896954Y-84075206D01*
X103926493Y-84124842D01*
X103945659Y-84178754D01*
X103956624Y-84250706D01*
X103961560Y-84354464D01*
X103962644Y-84491443D01*
X103957749Y-84679157D01*
X103940735Y-84820100D01*
X103908108Y-84925250D01*
X103856373Y-85005585D01*
X103782035Y-85072083D01*
X103776573Y-85076020D01*
X103703311Y-85116295D01*
X103615091Y-85136222D01*
X103502893Y-85141135D01*
X103320498Y-85141135D01*
X103320422Y-85318199D01*
X103318724Y-85416812D01*
X103308381Y-85474656D01*
X103281353Y-85509348D01*
X103229599Y-85538506D01*
X103217170Y-85544463D01*
X103159008Y-85572381D01*
X103113975Y-85590014D01*
X103080490Y-85591536D01*
X103056969Y-85571123D01*
X103041831Y-85522949D01*
X103033494Y-85441188D01*
X103030375Y-85320014D01*
X103030891Y-85153602D01*
X103033460Y-84936127D01*
X103034263Y-84871078D01*
X103037153Y-84646844D01*
X103039743Y-84500163D01*
X103320345Y-84500163D01*
X103321922Y-84624668D01*
X103328931Y-84706129D01*
X103344789Y-84759857D01*
X103372912Y-84801165D01*
X103392006Y-84821313D01*
X103470066Y-84880263D01*
X103539178Y-84885062D01*
X103610491Y-84836380D01*
X103612299Y-84834583D01*
X103641314Y-84796960D01*
X103658964Y-84745826D01*
X103667867Y-84667080D01*
X103670640Y-84546618D01*
X103670690Y-84519930D01*
X103663989Y-84353925D01*
X103642179Y-84238847D01*
X103602696Y-84168596D01*
X103542975Y-84137071D01*
X103508459Y-84133894D01*
X103426542Y-84148802D01*
X103370352Y-84197890D01*
X103336529Y-84287704D01*
X103321711Y-84424787D01*
X103320345Y-84500163D01*
X103039743Y-84500163D01*
X103040218Y-84473294D01*
X103044178Y-84342724D01*
X103049757Y-84247429D01*
X103057677Y-84179706D01*
X103068662Y-84131849D01*
X103083432Y-84096155D01*
X103102713Y-84064920D01*
X103110980Y-84053166D01*
X103220643Y-83942139D01*
X103359296Y-83879189D01*
X103519685Y-83861639D01*
X103659831Y-83879245D01*
G37*
%TD.AperFunction*%
X112802337Y-83952498D02*
X112886400Y-83990735D01*
X112952381Y-84037068D01*
X113000725Y-84088874D01*
X113034103Y-84155705D01*
X113055184Y-84247111D01*
X113066638Y-84372643D01*
X113071134Y-84541850D01*
X113071609Y-84653275D01*
X113071609Y-85087969D01*
X112997247Y-85121851D01*
X112938677Y-85146614D01*
X112909661Y-85155733D01*
X112904110Y-85128599D01*
X112899706Y-85055436D01*
X112897009Y-84948605D01*
X112896437Y-84863779D01*
X112893977Y-84741229D01*
X112887343Y-84644010D01*
X112877657Y-84584476D01*
X112869963Y-84571825D01*
X112818242Y-84584744D01*
X112737048Y-84617881D01*
X112643033Y-84662803D01*
X112552848Y-84711077D01*
X112483146Y-84754270D01*
X112450579Y-84783950D01*
X112450450Y-84784271D01*
X112453251Y-84839199D01*
X112478370Y-84891634D01*
X112522472Y-84934223D01*
X112586840Y-84948468D01*
X112641852Y-84946808D01*
X112719766Y-84945587D01*
X112760663Y-84963840D01*
X112785226Y-85012068D01*
X112788323Y-85021162D01*
X112798971Y-85089940D01*
X112770496Y-85131702D01*
X112696275Y-85151605D01*
X112616099Y-85155286D01*
X112471821Y-85128000D01*
X112397134Y-85089032D01*
X112304894Y-84997490D01*
X112255974Y-84885124D01*
X112251585Y-84766393D01*
X112292932Y-84655753D01*
X112355128Y-84586422D01*
X112417225Y-84547607D01*
X112514826Y-84498467D01*
X112628563Y-84448634D01*
X112647521Y-84441019D01*
X112772452Y-84385887D01*
X112844470Y-84337296D01*
X112867631Y-84288989D01*
X112845995Y-84234712D01*
X112808851Y-84192285D01*
X112721058Y-84140044D01*
X112624461Y-84136126D01*
X112535875Y-84176383D01*
X112472117Y-84256668D01*
X112463748Y-84277382D01*
X112415027Y-84353567D01*
X112343896Y-84410127D01*
X112254138Y-84456543D01*
X112254138Y-84324926D01*
X112259421Y-84244510D01*
X112282073Y-84181128D01*
X112332298Y-84113505D01*
X112380513Y-84061418D01*
X112455485Y-83987664D01*
X112513737Y-83948044D01*
X112576303Y-83932152D01*
X112647124Y-83929526D01*
X112802337Y-83952498D01*
%TA.AperFunction,EtchedComponent*%
G36*
X112802337Y-83952498D02*
G01*
X112886400Y-83990735D01*
X112952381Y-84037068D01*
X113000725Y-84088874D01*
X113034103Y-84155705D01*
X113055184Y-84247111D01*
X113066638Y-84372643D01*
X113071134Y-84541850D01*
X113071609Y-84653275D01*
X113071609Y-85087969D01*
X112997247Y-85121851D01*
X112938677Y-85146614D01*
X112909661Y-85155733D01*
X112904110Y-85128599D01*
X112899706Y-85055436D01*
X112897009Y-84948605D01*
X112896437Y-84863779D01*
X112893977Y-84741229D01*
X112887343Y-84644010D01*
X112877657Y-84584476D01*
X112869963Y-84571825D01*
X112818242Y-84584744D01*
X112737048Y-84617881D01*
X112643033Y-84662803D01*
X112552848Y-84711077D01*
X112483146Y-84754270D01*
X112450579Y-84783950D01*
X112450450Y-84784271D01*
X112453251Y-84839199D01*
X112478370Y-84891634D01*
X112522472Y-84934223D01*
X112586840Y-84948468D01*
X112641852Y-84946808D01*
X112719766Y-84945587D01*
X112760663Y-84963840D01*
X112785226Y-85012068D01*
X112788323Y-85021162D01*
X112798971Y-85089940D01*
X112770496Y-85131702D01*
X112696275Y-85151605D01*
X112616099Y-85155286D01*
X112471821Y-85128000D01*
X112397134Y-85089032D01*
X112304894Y-84997490D01*
X112255974Y-84885124D01*
X112251585Y-84766393D01*
X112292932Y-84655753D01*
X112355128Y-84586422D01*
X112417225Y-84547607D01*
X112514826Y-84498467D01*
X112628563Y-84448634D01*
X112647521Y-84441019D01*
X112772452Y-84385887D01*
X112844470Y-84337296D01*
X112867631Y-84288989D01*
X112845995Y-84234712D01*
X112808851Y-84192285D01*
X112721058Y-84140044D01*
X112624461Y-84136126D01*
X112535875Y-84176383D01*
X112472117Y-84256668D01*
X112463748Y-84277382D01*
X112415027Y-84353567D01*
X112343896Y-84410127D01*
X112254138Y-84456543D01*
X112254138Y-84324926D01*
X112259421Y-84244510D01*
X112282073Y-84181128D01*
X112332298Y-84113505D01*
X112380513Y-84061418D01*
X112455485Y-83987664D01*
X112513737Y-83948044D01*
X112576303Y-83932152D01*
X112647124Y-83929526D01*
X112802337Y-83952498D01*
G37*
%TD.AperFunction*%
X108733172Y-74471734D02*
X108891164Y-74472599D01*
X109005505Y-74474941D01*
X109083565Y-74479498D01*
X109132712Y-74487006D01*
X109160317Y-74498202D01*
X109173750Y-74513824D01*
X109180379Y-74534609D01*
X109181023Y-74537299D01*
X109191093Y-74585849D01*
X109209733Y-74681641D01*
X109235003Y-74814479D01*
X109264965Y-74974167D01*
X109297680Y-75150510D01*
X109298822Y-75156703D01*
X109331591Y-75329518D01*
X109362251Y-75482205D01*
X109388822Y-75605607D01*
X109409325Y-75690567D01*
X109421784Y-75727926D01*
X109422378Y-75728588D01*
X109459077Y-75746831D01*
X109534744Y-75777233D01*
X109633036Y-75813229D01*
X109633583Y-75813421D01*
X109757391Y-75859958D01*
X109903354Y-75919240D01*
X110040939Y-75978845D01*
X110047451Y-75981792D01*
X110271548Y-76083501D01*
X110767777Y-75744633D01*
X110920004Y-75641328D01*
X111057899Y-75548973D01*
X111173473Y-75472820D01*
X111258737Y-75418121D01*
X111305702Y-75390129D01*
X111310162Y-75388053D01*
X111344292Y-75397296D01*
X111408039Y-75441892D01*
X111503889Y-75523945D01*
X111634327Y-75645557D01*
X111767486Y-75774941D01*
X111895852Y-75902438D01*
X112010739Y-76018782D01*
X112105231Y-76116788D01*
X112172411Y-76189272D01*
X112205364Y-76229049D01*
X112206590Y-76231097D01*
X112210232Y-76258392D01*
X112196508Y-76302970D01*
X112162027Y-76370848D01*
X112103397Y-76468047D01*
X112017228Y-76600587D01*
X111902358Y-76771212D01*
X111800412Y-76921391D01*
X111709281Y-77056086D01*
X111634231Y-77167476D01*
X111580527Y-77247741D01*
X111553438Y-77289061D01*
X111551732Y-77291866D01*
X111555040Y-77331457D01*
X111580111Y-77408405D01*
X111621956Y-77508168D01*
X111636870Y-77540027D01*
X111701944Y-77681962D01*
X111771370Y-77843009D01*
X111827767Y-77982357D01*
X111868405Y-78085780D01*
X111900684Y-78164378D01*
X111919336Y-78205456D01*
X111921655Y-78208621D01*
X111955961Y-78213864D01*
X112036827Y-78228230D01*
X112153501Y-78249673D01*
X112295233Y-78276149D01*
X112451268Y-78305613D01*
X112610856Y-78336019D01*
X112763243Y-78365324D01*
X112897679Y-78391481D01*
X113003410Y-78412446D01*
X113069684Y-78426175D01*
X113085940Y-78430056D01*
X113102731Y-78439636D01*
X113115407Y-78461272D01*
X113124536Y-78502267D01*
X113130689Y-78569925D01*
X113134438Y-78671548D01*
X113136350Y-78814439D01*
X113136998Y-79005901D01*
X113137032Y-79084381D01*
X113137032Y-79722642D01*
X112983756Y-79752896D01*
X112898480Y-79769300D01*
X112771228Y-79793245D01*
X112617473Y-79821843D01*
X112452692Y-79852203D01*
X112407147Y-79860542D01*
X112255090Y-79890106D01*
X112122626Y-79919178D01*
X112020872Y-79945065D01*
X111960946Y-79965073D01*
X111950963Y-79971037D01*
X111926451Y-80013270D01*
X111891306Y-80095106D01*
X111852331Y-80200419D01*
X111844600Y-80223104D01*
X111793518Y-80363754D01*
X111730112Y-80522450D01*
X111668062Y-80664961D01*
X111667756Y-80665622D01*
X111564425Y-80889176D01*
X112244119Y-81888968D01*
X111807779Y-82326036D01*
X111675807Y-82456117D01*
X111555437Y-82570784D01*
X111453431Y-82663917D01*
X111376549Y-82729394D01*
X111331551Y-82761093D01*
X111325096Y-82763104D01*
X111287198Y-82747265D01*
X111209866Y-82703232D01*
X111101547Y-82636226D01*
X110970690Y-82551470D01*
X110829210Y-82456552D01*
X110685619Y-82359734D01*
X110557593Y-82275487D01*
X110453263Y-82208994D01*
X110380758Y-82165438D01*
X110348316Y-82150000D01*
X110308734Y-82163064D01*
X110233677Y-82197486D01*
X110138626Y-82246116D01*
X110128550Y-82251521D01*
X110000549Y-82315716D01*
X109912776Y-82347199D01*
X109858186Y-82347534D01*
X109829733Y-82318284D01*
X109829568Y-82317874D01*
X109815346Y-82283234D01*
X109781427Y-82201005D01*
X109730442Y-82077550D01*
X109665020Y-81919234D01*
X109587792Y-81732422D01*
X109501387Y-81523478D01*
X109417709Y-81321182D01*
X109325746Y-81097936D01*
X109241308Y-80891128D01*
X109166927Y-80707098D01*
X109105132Y-80552187D01*
X109058455Y-80432732D01*
X109029426Y-80355075D01*
X109020480Y-80326092D01*
X109042914Y-80292846D01*
X109101597Y-80239859D01*
X109179847Y-80181440D01*
X109402692Y-79996688D01*
X109576876Y-79784918D01*
X109700312Y-79550592D01*
X109770912Y-79298170D01*
X109786589Y-79032113D01*
X109775194Y-78909311D01*
X109713108Y-78654529D01*
X109606181Y-78429537D01*
X109461047Y-78236553D01*
X109284336Y-78077797D01*
X109082680Y-77955486D01*
X108862712Y-77871841D01*
X108631064Y-77829080D01*
X108394367Y-77829423D01*
X108159253Y-77875088D01*
X107932354Y-77968295D01*
X107720302Y-78111263D01*
X107631794Y-78192119D01*
X107462047Y-78399743D01*
X107343857Y-78626631D01*
X107276436Y-78866169D01*
X107258998Y-79111743D01*
X107290756Y-79356739D01*
X107370923Y-79594544D01*
X107498713Y-79818543D01*
X107673338Y-80022123D01*
X107868470Y-80181440D01*
X107949749Y-80242338D01*
X108007167Y-80294751D01*
X108027836Y-80326142D01*
X108017014Y-80360375D01*
X107986235Y-80442155D01*
X107938032Y-80565143D01*
X107874936Y-80722999D01*
X107799480Y-80909385D01*
X107714196Y-81117962D01*
X107630377Y-81321232D01*
X107537903Y-81544669D01*
X107452247Y-81751720D01*
X107376040Y-81936022D01*
X107311911Y-82091211D01*
X107262490Y-82210924D01*
X107230406Y-82288797D01*
X107218517Y-82317874D01*
X107190432Y-82347413D01*
X107136107Y-82347327D01*
X107048553Y-82316062D01*
X106920777Y-82252065D01*
X106919766Y-82251521D01*
X106823560Y-82201857D01*
X106745789Y-82165681D01*
X106701935Y-82150144D01*
X106700000Y-82150000D01*
X106666987Y-82165760D01*
X106594104Y-82209586D01*
X106489480Y-82276293D01*
X106361248Y-82360700D01*
X106219106Y-82456552D01*
X106074391Y-82553603D01*
X105943962Y-82638006D01*
X105836268Y-82704537D01*
X105759756Y-82747974D01*
X105723220Y-82763104D01*
X105689576Y-82743218D01*
X105621934Y-82687639D01*
X105527051Y-82602490D01*
X105411688Y-82493889D01*
X105282603Y-82367957D01*
X105240387Y-82325885D01*
X104803897Y-81888667D01*
X105136135Y-81401076D01*
X105237104Y-81251341D01*
X105325720Y-81116956D01*
X105397012Y-81005705D01*
X105446008Y-80925375D01*
X105467736Y-80883750D01*
X105468373Y-80880789D01*
X105456918Y-80841554D01*
X105426107Y-80762631D01*
X105381274Y-80657245D01*
X105349805Y-80586690D01*
X105290966Y-80451612D01*
X105235554Y-80315145D01*
X105192594Y-80199839D01*
X105180924Y-80164713D01*
X105147769Y-80070910D01*
X105115359Y-79998430D01*
X105097557Y-79971037D01*
X105058272Y-79954272D01*
X104972532Y-79930506D01*
X104851461Y-79902433D01*
X104706185Y-79872745D01*
X104641170Y-79860542D01*
X104476071Y-79830204D01*
X104317710Y-79800829D01*
X104181562Y-79775305D01*
X104083101Y-79756521D01*
X104064560Y-79752896D01*
X103911285Y-79722642D01*
X103911285Y-79084381D01*
X103911629Y-78874506D01*
X103913042Y-78715716D01*
X103916094Y-78600709D01*
X103921355Y-78522182D01*
X103929395Y-78472832D01*
X103940785Y-78445355D01*
X103956095Y-78432449D01*
X103962376Y-78430056D01*
X104000262Y-78421569D01*
X104083963Y-78404636D01*
X104202725Y-78381302D01*
X104345797Y-78353611D01*
X104502426Y-78323609D01*
X104661861Y-78293340D01*
X104813349Y-78264851D01*
X104946139Y-78240185D01*
X105049477Y-78221387D01*
X105112613Y-78210503D01*
X105126661Y-78208621D01*
X105139388Y-78183440D01*
X105167558Y-78116358D01*
X105205906Y-78020069D01*
X105220549Y-77982357D01*
X105279610Y-77836657D01*
X105349158Y-77675687D01*
X105411446Y-77540027D01*
X105457279Y-77436297D01*
X105487771Y-77351062D01*
X105497950Y-77298862D01*
X105496327Y-77291866D01*
X105474815Y-77258838D01*
X105425693Y-77185379D01*
X105354235Y-77079313D01*
X105265713Y-76948462D01*
X105165399Y-76800648D01*
X105145564Y-76771470D01*
X105029170Y-76598599D01*
X104943610Y-76466962D01*
X104885474Y-76370497D01*
X104851350Y-76303144D01*
X104837827Y-76258842D01*
X104841494Y-76231530D01*
X104841588Y-76231356D01*
X104870451Y-76195482D01*
X104934291Y-76126127D01*
X105026189Y-76030481D01*
X105139225Y-75915735D01*
X105266479Y-75789077D01*
X105280830Y-75774941D01*
X105441201Y-75619639D01*
X105564963Y-75505606D01*
X105654603Y-75430738D01*
X105712606Y-75392932D01*
X105738154Y-75388053D01*
X105775440Y-75409339D01*
X105852815Y-75458509D01*
X105962291Y-75530311D01*
X106095878Y-75619491D01*
X106245588Y-75720799D01*
X106280540Y-75744633D01*
X106776768Y-76083501D01*
X107000865Y-75981792D01*
X107137147Y-75922519D01*
X107283434Y-75862906D01*
X107409193Y-75815376D01*
X107414733Y-75813421D01*
X107513101Y-75777413D01*
X107588929Y-75746965D01*
X107625876Y-75728641D01*
X107625938Y-75728588D01*
X107637662Y-75695465D01*
X107657590Y-75614003D01*
X107683745Y-75493361D01*
X107714148Y-75342695D01*
X107746821Y-75171164D01*
X107749494Y-75156703D01*
X107782268Y-74979971D01*
X107812356Y-74819546D01*
X107837819Y-74685624D01*
X107856717Y-74588399D01*
X107867111Y-74538068D01*
X107867293Y-74537299D01*
X107873619Y-74515889D01*
X107885919Y-74499724D01*
X107911564Y-74488067D01*
X107957923Y-74480181D01*
X108032366Y-74475329D01*
X108142263Y-74472775D01*
X108294983Y-74471781D01*
X108497896Y-74471610D01*
X108524158Y-74471610D01*
X108733172Y-74471734D01*
%TA.AperFunction,EtchedComponent*%
G36*
X108733172Y-74471734D02*
G01*
X108891164Y-74472599D01*
X109005505Y-74474941D01*
X109083565Y-74479498D01*
X109132712Y-74487006D01*
X109160317Y-74498202D01*
X109173750Y-74513824D01*
X109180379Y-74534609D01*
X109181023Y-74537299D01*
X109191093Y-74585849D01*
X109209733Y-74681641D01*
X109235003Y-74814479D01*
X109264965Y-74974167D01*
X109297680Y-75150510D01*
X109298822Y-75156703D01*
X109331591Y-75329518D01*
X109362251Y-75482205D01*
X109388822Y-75605607D01*
X109409325Y-75690567D01*
X109421784Y-75727926D01*
X109422378Y-75728588D01*
X109459077Y-75746831D01*
X109534744Y-75777233D01*
X109633036Y-75813229D01*
X109633583Y-75813421D01*
X109757391Y-75859958D01*
X109903354Y-75919240D01*
X110040939Y-75978845D01*
X110047451Y-75981792D01*
X110271548Y-76083501D01*
X110767777Y-75744633D01*
X110920004Y-75641328D01*
X111057899Y-75548973D01*
X111173473Y-75472820D01*
X111258737Y-75418121D01*
X111305702Y-75390129D01*
X111310162Y-75388053D01*
X111344292Y-75397296D01*
X111408039Y-75441892D01*
X111503889Y-75523945D01*
X111634327Y-75645557D01*
X111767486Y-75774941D01*
X111895852Y-75902438D01*
X112010739Y-76018782D01*
X112105231Y-76116788D01*
X112172411Y-76189272D01*
X112205364Y-76229049D01*
X112206590Y-76231097D01*
X112210232Y-76258392D01*
X112196508Y-76302970D01*
X112162027Y-76370848D01*
X112103397Y-76468047D01*
X112017228Y-76600587D01*
X111902358Y-76771212D01*
X111800412Y-76921391D01*
X111709281Y-77056086D01*
X111634231Y-77167476D01*
X111580527Y-77247741D01*
X111553438Y-77289061D01*
X111551732Y-77291866D01*
X111555040Y-77331457D01*
X111580111Y-77408405D01*
X111621956Y-77508168D01*
X111636870Y-77540027D01*
X111701944Y-77681962D01*
X111771370Y-77843009D01*
X111827767Y-77982357D01*
X111868405Y-78085780D01*
X111900684Y-78164378D01*
X111919336Y-78205456D01*
X111921655Y-78208621D01*
X111955961Y-78213864D01*
X112036827Y-78228230D01*
X112153501Y-78249673D01*
X112295233Y-78276149D01*
X112451268Y-78305613D01*
X112610856Y-78336019D01*
X112763243Y-78365324D01*
X112897679Y-78391481D01*
X113003410Y-78412446D01*
X113069684Y-78426175D01*
X113085940Y-78430056D01*
X113102731Y-78439636D01*
X113115407Y-78461272D01*
X113124536Y-78502267D01*
X113130689Y-78569925D01*
X113134438Y-78671548D01*
X113136350Y-78814439D01*
X113136998Y-79005901D01*
X113137032Y-79084381D01*
X113137032Y-79722642D01*
X112983756Y-79752896D01*
X112898480Y-79769300D01*
X112771228Y-79793245D01*
X112617473Y-79821843D01*
X112452692Y-79852203D01*
X112407147Y-79860542D01*
X112255090Y-79890106D01*
X112122626Y-79919178D01*
X112020872Y-79945065D01*
X111960946Y-79965073D01*
X111950963Y-79971037D01*
X111926451Y-80013270D01*
X111891306Y-80095106D01*
X111852331Y-80200419D01*
X111844600Y-80223104D01*
X111793518Y-80363754D01*
X111730112Y-80522450D01*
X111668062Y-80664961D01*
X111667756Y-80665622D01*
X111564425Y-80889176D01*
X112244119Y-81888968D01*
X111807779Y-82326036D01*
X111675807Y-82456117D01*
X111555437Y-82570784D01*
X111453431Y-82663917D01*
X111376549Y-82729394D01*
X111331551Y-82761093D01*
X111325096Y-82763104D01*
X111287198Y-82747265D01*
X111209866Y-82703232D01*
X111101547Y-82636226D01*
X110970690Y-82551470D01*
X110829210Y-82456552D01*
X110685619Y-82359734D01*
X110557593Y-82275487D01*
X110453263Y-82208994D01*
X110380758Y-82165438D01*
X110348316Y-82150000D01*
X110308734Y-82163064D01*
X110233677Y-82197486D01*
X110138626Y-82246116D01*
X110128550Y-82251521D01*
X110000549Y-82315716D01*
X109912776Y-82347199D01*
X109858186Y-82347534D01*
X109829733Y-82318284D01*
X109829568Y-82317874D01*
X109815346Y-82283234D01*
X109781427Y-82201005D01*
X109730442Y-82077550D01*
X109665020Y-81919234D01*
X109587792Y-81732422D01*
X109501387Y-81523478D01*
X109417709Y-81321182D01*
X109325746Y-81097936D01*
X109241308Y-80891128D01*
X109166927Y-80707098D01*
X109105132Y-80552187D01*
X109058455Y-80432732D01*
X109029426Y-80355075D01*
X109020480Y-80326092D01*
X109042914Y-80292846D01*
X109101597Y-80239859D01*
X109179847Y-80181440D01*
X109402692Y-79996688D01*
X109576876Y-79784918D01*
X109700312Y-79550592D01*
X109770912Y-79298170D01*
X109786589Y-79032113D01*
X109775194Y-78909311D01*
X109713108Y-78654529D01*
X109606181Y-78429537D01*
X109461047Y-78236553D01*
X109284336Y-78077797D01*
X109082680Y-77955486D01*
X108862712Y-77871841D01*
X108631064Y-77829080D01*
X108394367Y-77829423D01*
X108159253Y-77875088D01*
X107932354Y-77968295D01*
X107720302Y-78111263D01*
X107631794Y-78192119D01*
X107462047Y-78399743D01*
X107343857Y-78626631D01*
X107276436Y-78866169D01*
X107258998Y-79111743D01*
X107290756Y-79356739D01*
X107370923Y-79594544D01*
X107498713Y-79818543D01*
X107673338Y-80022123D01*
X107868470Y-80181440D01*
X107949749Y-80242338D01*
X108007167Y-80294751D01*
X108027836Y-80326142D01*
X108017014Y-80360375D01*
X107986235Y-80442155D01*
X107938032Y-80565143D01*
X107874936Y-80722999D01*
X107799480Y-80909385D01*
X107714196Y-81117962D01*
X107630377Y-81321232D01*
X107537903Y-81544669D01*
X107452247Y-81751720D01*
X107376040Y-81936022D01*
X107311911Y-82091211D01*
X107262490Y-82210924D01*
X107230406Y-82288797D01*
X107218517Y-82317874D01*
X107190432Y-82347413D01*
X107136107Y-82347327D01*
X107048553Y-82316062D01*
X106920777Y-82252065D01*
X106919766Y-82251521D01*
X106823560Y-82201857D01*
X106745789Y-82165681D01*
X106701935Y-82150144D01*
X106700000Y-82150000D01*
X106666987Y-82165760D01*
X106594104Y-82209586D01*
X106489480Y-82276293D01*
X106361248Y-82360700D01*
X106219106Y-82456552D01*
X106074391Y-82553603D01*
X105943962Y-82638006D01*
X105836268Y-82704537D01*
X105759756Y-82747974D01*
X105723220Y-82763104D01*
X105689576Y-82743218D01*
X105621934Y-82687639D01*
X105527051Y-82602490D01*
X105411688Y-82493889D01*
X105282603Y-82367957D01*
X105240387Y-82325885D01*
X104803897Y-81888667D01*
X105136135Y-81401076D01*
X105237104Y-81251341D01*
X105325720Y-81116956D01*
X105397012Y-81005705D01*
X105446008Y-80925375D01*
X105467736Y-80883750D01*
X105468373Y-80880789D01*
X105456918Y-80841554D01*
X105426107Y-80762631D01*
X105381274Y-80657245D01*
X105349805Y-80586690D01*
X105290966Y-80451612D01*
X105235554Y-80315145D01*
X105192594Y-80199839D01*
X105180924Y-80164713D01*
X105147769Y-80070910D01*
X105115359Y-79998430D01*
X105097557Y-79971037D01*
X105058272Y-79954272D01*
X104972532Y-79930506D01*
X104851461Y-79902433D01*
X104706185Y-79872745D01*
X104641170Y-79860542D01*
X104476071Y-79830204D01*
X104317710Y-79800829D01*
X104181562Y-79775305D01*
X104083101Y-79756521D01*
X104064560Y-79752896D01*
X103911285Y-79722642D01*
X103911285Y-79084381D01*
X103911629Y-78874506D01*
X103913042Y-78715716D01*
X103916094Y-78600709D01*
X103921355Y-78522182D01*
X103929395Y-78472832D01*
X103940785Y-78445355D01*
X103956095Y-78432449D01*
X103962376Y-78430056D01*
X104000262Y-78421569D01*
X104083963Y-78404636D01*
X104202725Y-78381302D01*
X104345797Y-78353611D01*
X104502426Y-78323609D01*
X104661861Y-78293340D01*
X104813349Y-78264851D01*
X104946139Y-78240185D01*
X105049477Y-78221387D01*
X105112613Y-78210503D01*
X105126661Y-78208621D01*
X105139388Y-78183440D01*
X105167558Y-78116358D01*
X105205906Y-78020069D01*
X105220549Y-77982357D01*
X105279610Y-77836657D01*
X105349158Y-77675687D01*
X105411446Y-77540027D01*
X105457279Y-77436297D01*
X105487771Y-77351062D01*
X105497950Y-77298862D01*
X105496327Y-77291866D01*
X105474815Y-77258838D01*
X105425693Y-77185379D01*
X105354235Y-77079313D01*
X105265713Y-76948462D01*
X105165399Y-76800648D01*
X105145564Y-76771470D01*
X105029170Y-76598599D01*
X104943610Y-76466962D01*
X104885474Y-76370497D01*
X104851350Y-76303144D01*
X104837827Y-76258842D01*
X104841494Y-76231530D01*
X104841588Y-76231356D01*
X104870451Y-76195482D01*
X104934291Y-76126127D01*
X105026189Y-76030481D01*
X105139225Y-75915735D01*
X105266479Y-75789077D01*
X105280830Y-75774941D01*
X105441201Y-75619639D01*
X105564963Y-75505606D01*
X105654603Y-75430738D01*
X105712606Y-75392932D01*
X105738154Y-75388053D01*
X105775440Y-75409339D01*
X105852815Y-75458509D01*
X105962291Y-75530311D01*
X106095878Y-75619491D01*
X106245588Y-75720799D01*
X106280540Y-75744633D01*
X106776768Y-76083501D01*
X107000865Y-75981792D01*
X107137147Y-75922519D01*
X107283434Y-75862906D01*
X107409193Y-75815376D01*
X107414733Y-75813421D01*
X107513101Y-75777413D01*
X107588929Y-75746965D01*
X107625876Y-75728641D01*
X107625938Y-75728588D01*
X107637662Y-75695465D01*
X107657590Y-75614003D01*
X107683745Y-75493361D01*
X107714148Y-75342695D01*
X107746821Y-75171164D01*
X107749494Y-75156703D01*
X107782268Y-74979971D01*
X107812356Y-74819546D01*
X107837819Y-74685624D01*
X107856717Y-74588399D01*
X107867111Y-74538068D01*
X107867293Y-74537299D01*
X107873619Y-74515889D01*
X107885919Y-74499724D01*
X107911564Y-74488067D01*
X107957923Y-74480181D01*
X108032366Y-74475329D01*
X108142263Y-74472775D01*
X108294983Y-74471781D01*
X108497896Y-74471610D01*
X108524158Y-74471610D01*
X108733172Y-74471734D01*
G37*
%TD.AperFunction*%
%TD*%
D11*
%TO.P,C1,1*%
%TO.N,+5V*%
X91440000Y-27940000D03*
%TO.P,C1,2*%
%TO.N,GND*%
X86440000Y-27940000D03*
%TD*%
D12*
%TO.P,U5,1,G*%
%TO.N,~{IORQ}*%
X117485000Y-63373000D03*
D13*
%TO.P,U5,2,P0*%
%TO.N,A0*%
X117485000Y-65913000D03*
%TO.P,U5,3,R0*%
%TO.N,GND*%
X117485000Y-68453000D03*
%TO.P,U5,4,P1*%
%TO.N,A1*%
X117485000Y-70993000D03*
%TO.P,U5,5,R1*%
%TO.N,GND*%
X117485000Y-73533000D03*
%TO.P,U5,6,P2*%
%TO.N,A2*%
X117485000Y-76073000D03*
%TO.P,U5,7,R2*%
%TO.N,+5V*%
X117485000Y-78613000D03*
%TO.P,U5,8,P3*%
%TO.N,A3*%
X117485000Y-81153000D03*
%TO.P,U5,9,R3*%
%TO.N,GND*%
X117485000Y-83693000D03*
%TO.P,U5,10,GND*%
X117485000Y-86233000D03*
%TO.P,U5,11,P4*%
%TO.N,A4*%
X125105000Y-86233000D03*
%TO.P,U5,12,R4*%
%TO.N,+5V*%
X125105000Y-83693000D03*
%TO.P,U5,13,P5*%
%TO.N,A5*%
X125105000Y-81153000D03*
%TO.P,U5,14,R5*%
%TO.N,GND*%
X125105000Y-78613000D03*
%TO.P,U5,15,P6*%
%TO.N,A6*%
X125105000Y-76073000D03*
%TO.P,U5,16,R6*%
%TO.N,GND*%
X125105000Y-73533000D03*
%TO.P,U5,17,P7*%
%TO.N,A7*%
X125105000Y-70993000D03*
%TO.P,U5,18,R7*%
%TO.N,+5V*%
X125105000Y-68453000D03*
%TO.P,U5,19,P=R*%
%TO.N,~{P=Q}*%
X125105000Y-65913000D03*
%TO.P,U5,20,VCC*%
%TO.N,+5V*%
X125105000Y-63373000D03*
%TD*%
D11*
%TO.P,C9,1*%
%TO.N,+5V*%
X74930000Y-27940000D03*
%TO.P,C9,2*%
%TO.N,GND*%
X69930000Y-27940000D03*
%TD*%
D12*
%TO.P,D1,1,K*%
%TO.N,+5V*%
X26520000Y-54620000D03*
D13*
%TO.P,D1,2,A*%
%TO.N,VCC*%
X26520000Y-47000000D03*
%TD*%
D11*
%TO.P,C5,1*%
%TO.N,+5V*%
X58420000Y-25400000D03*
%TO.P,C5,2*%
%TO.N,GND*%
X53420000Y-25400000D03*
%TD*%
%TO.P,C10,1*%
%TO.N,+5V*%
X123825000Y-24130000D03*
%TO.P,C10,2*%
%TO.N,GND*%
X118825000Y-24130000D03*
%TD*%
%TO.P,C6,1*%
%TO.N,+5V*%
X72390000Y-59730000D03*
%TO.P,C6,2*%
%TO.N,GND*%
X72390000Y-64730000D03*
%TD*%
D12*
%TO.P,U9,1,S*%
%TO.N,EO*%
X35570000Y-30470000D03*
D13*
%TO.P,U9,2,I0a*%
%TO.N,A13*%
X35570000Y-33010000D03*
%TO.P,U9,3,I1a*%
%TO.N,S0*%
X35570000Y-35550000D03*
%TO.P,U9,4,Za*%
%TO.N,A13_1*%
X35570000Y-38090000D03*
%TO.P,U9,5,I0b*%
%TO.N,GND*%
X35570000Y-40630000D03*
%TO.P,U9,6,I1b*%
%TO.N,+5V*%
X35570000Y-43170000D03*
%TO.P,U9,7,Zb*%
%TO.N,A14_1*%
X35570000Y-45710000D03*
%TO.P,U9,8,GND*%
%TO.N,GND*%
X35570000Y-48250000D03*
%TO.P,U9,9,Zc*%
%TO.N,A13_2*%
X43190000Y-48250000D03*
%TO.P,U9,10,I1c*%
%TO.N,S0*%
X43190000Y-45710000D03*
%TO.P,U9,11,I0c*%
X43190000Y-43170000D03*
%TO.P,U9,12,Zd*%
%TO.N,A14_2*%
X43190000Y-40630000D03*
%TO.P,U9,13,I1d*%
%TO.N,S2*%
X43190000Y-38090000D03*
%TO.P,U9,14,I0d*%
X43190000Y-35550000D03*
%TO.P,U9,15,E*%
%TO.N,GND*%
X43190000Y-33010000D03*
%TO.P,U9,16,VCC*%
%TO.N,+5V*%
X43190000Y-30470000D03*
%TD*%
D12*
%TO.P,U1,1*%
%TO.N,~{RES}*%
X68590000Y-33020000D03*
D13*
%TO.P,U1,2*%
%TO.N,RES*%
X68590000Y-35560000D03*
%TO.P,U1,3*%
%TO.N,Net-(U1-Pad3)*%
X68590000Y-38100000D03*
%TO.P,U1,4*%
%TO.N,Net-(U1-Pad4)*%
X68590000Y-40640000D03*
%TO.P,U1,5*%
%TO.N,Net-(U1-Pad5)*%
X68590000Y-43180000D03*
%TO.P,U1,6*%
%TO.N,EO*%
X68590000Y-45720000D03*
%TO.P,U1,7,GND*%
%TO.N,GND*%
X68590000Y-48260000D03*
%TO.P,U1,8*%
%TO.N,unconnected-(U1-Pad8)*%
X76210000Y-48260000D03*
%TO.P,U1,9*%
%TO.N,GND*%
X76210000Y-45720000D03*
%TO.P,U1,10*%
%TO.N,Net-(U1-Pad10)*%
X76210000Y-43180000D03*
%TO.P,U1,11*%
%TO.N,~{REN}*%
X76210000Y-40640000D03*
%TO.P,U1,12*%
%TO.N,Net-(U1-Pad12)*%
X76210000Y-38100000D03*
%TO.P,U1,13*%
%TO.N,~{MRQ}*%
X76210000Y-35560000D03*
%TO.P,U1,14,VCC*%
%TO.N,+5V*%
X76210000Y-33020000D03*
%TD*%
D11*
%TO.P,C7,1*%
%TO.N,+5V*%
X26670000Y-59868000D03*
%TO.P,C7,2*%
%TO.N,GND*%
X26670000Y-64868000D03*
%TD*%
D12*
%TO.P,U8,1,A->B*%
%TO.N,+5V*%
X117485000Y-29215000D03*
D13*
%TO.P,U8,2,A0*%
%TO.N,S0*%
X117485000Y-31755000D03*
%TO.P,U8,3,A1*%
%TO.N,S1*%
X117485000Y-34295000D03*
%TO.P,U8,4,A2*%
%TO.N,S2*%
X117485000Y-36835000D03*
%TO.P,U8,5,A3*%
%TO.N,S3*%
X117485000Y-39375000D03*
%TO.P,U8,6,A4*%
%TO.N,GND*%
X117485000Y-41915000D03*
%TO.P,U8,7,A5*%
X117485000Y-44455000D03*
%TO.P,U8,8,A6*%
X117485000Y-46995000D03*
%TO.P,U8,9,A7*%
X117485000Y-49535000D03*
%TO.P,U8,10,GND*%
X117485000Y-52075000D03*
%TO.P,U8,11,B7*%
%TO.N,D7*%
X125105000Y-52075000D03*
%TO.P,U8,12,B6*%
%TO.N,D6*%
X125105000Y-49535000D03*
%TO.P,U8,13,B5*%
%TO.N,D5*%
X125105000Y-46995000D03*
%TO.P,U8,14,B4*%
%TO.N,D4*%
X125105000Y-44455000D03*
%TO.P,U8,15,B3*%
%TO.N,D3*%
X125105000Y-41915000D03*
%TO.P,U8,16,B2*%
%TO.N,D2*%
X125105000Y-39375000D03*
%TO.P,U8,17,B1*%
%TO.N,D1*%
X125105000Y-36835000D03*
%TO.P,U8,18,B0*%
%TO.N,D0*%
X125105000Y-34295000D03*
%TO.P,U8,19,CE*%
%TO.N,Net-(U6-Pad11)*%
X125105000Y-31755000D03*
%TO.P,U8,20,VCC*%
%TO.N,+5V*%
X125105000Y-29215000D03*
%TD*%
D12*
%TO.P,C3,1*%
%TO.N,+5V*%
X25400000Y-80010000D03*
D11*
%TO.P,C3,2*%
%TO.N,GND*%
X27900000Y-80010000D03*
%TD*%
%TO.P,C4,1*%
%TO.N,+5V*%
X107910000Y-27940000D03*
%TO.P,C4,2*%
%TO.N,GND*%
X102910000Y-27940000D03*
%TD*%
%TO.P,C2,1*%
%TO.N,+5V*%
X41870000Y-25400000D03*
%TO.P,C2,2*%
%TO.N,GND*%
X36870000Y-25400000D03*
%TD*%
D12*
%TO.P,U4,1,A14*%
%TO.N,A14_2*%
X77470000Y-69850000D03*
D13*
%TO.P,U4,2,A12*%
%TO.N,A12*%
X80010000Y-69850000D03*
%TO.P,U4,3,A7*%
%TO.N,A7*%
X82550000Y-69850000D03*
%TO.P,U4,4,A6*%
%TO.N,A6*%
X85090000Y-69850000D03*
%TO.P,U4,5,A5*%
%TO.N,A5*%
X87630000Y-69850000D03*
%TO.P,U4,6,A4*%
%TO.N,A4*%
X90170000Y-69850000D03*
%TO.P,U4,7,A3*%
%TO.N,A3*%
X92710000Y-69850000D03*
%TO.P,U4,8,A2*%
%TO.N,A2*%
X95250000Y-69850000D03*
%TO.P,U4,9,A1*%
%TO.N,A1*%
X97790000Y-69850000D03*
%TO.P,U4,10,A0*%
%TO.N,A0*%
X100330000Y-69850000D03*
%TO.P,U4,11,Q0*%
%TO.N,D0*%
X102870000Y-69850000D03*
%TO.P,U4,12,Q1*%
%TO.N,D1*%
X105410000Y-69850000D03*
%TO.P,U4,13,Q2*%
%TO.N,D2*%
X107950000Y-69850000D03*
%TO.P,U4,14,GND*%
%TO.N,GND*%
X110490000Y-69850000D03*
%TO.P,U4,15,Q3*%
%TO.N,D3*%
X110490000Y-54610000D03*
%TO.P,U4,16,Q4*%
%TO.N,D4*%
X107950000Y-54610000D03*
%TO.P,U4,17,Q5*%
%TO.N,D5*%
X105410000Y-54610000D03*
%TO.P,U4,18,Q6*%
%TO.N,D6*%
X102870000Y-54610000D03*
%TO.P,U4,19,Q7*%
%TO.N,D7*%
X100330000Y-54610000D03*
%TO.P,U4,20,~{CS}*%
%TO.N,~{CS2}*%
X97790000Y-54610000D03*
%TO.P,U4,21,A10*%
%TO.N,A10*%
X95250000Y-54610000D03*
%TO.P,U4,22,~{OE}*%
%TO.N,~{RD}*%
X92710000Y-54610000D03*
%TO.P,U4,23,A11*%
%TO.N,A11*%
X90170000Y-54610000D03*
%TO.P,U4,24,A9*%
%TO.N,A9*%
X87630000Y-54610000D03*
%TO.P,U4,25,A8*%
%TO.N,A8*%
X85090000Y-54610000D03*
%TO.P,U4,26,A13*%
%TO.N,A13_2*%
X82550000Y-54610000D03*
%TO.P,U4,27,~{WE}*%
%TO.N,~{WR}*%
X80010000Y-54610000D03*
%TO.P,U4,28,VCC*%
%TO.N,+5V*%
X77470000Y-54610000D03*
%TD*%
D14*
%TO.P,J2,1,Pin_1*%
%TO.N,GND*%
X26520000Y-39380000D03*
D15*
%TO.P,J2,2,Pin_2*%
%TO.N,VCC*%
X26520000Y-41920000D03*
%TD*%
D12*
%TO.P,U6,1*%
%TO.N,Net-(U3-Pad3)*%
X85100000Y-33015000D03*
D13*
%TO.P,U6,2*%
%TO.N,~{REN}*%
X85100000Y-35555000D03*
%TO.P,U6,3*%
%TO.N,~{CS2}*%
X85100000Y-38095000D03*
%TO.P,U6,4*%
%TO.N,~{P=Q}*%
X85100000Y-40635000D03*
%TO.P,U6,5*%
%TO.N,~{WR}*%
X85100000Y-43175000D03*
%TO.P,U6,6*%
%TO.N,Net-(U1-Pad3)*%
X85100000Y-45715000D03*
%TO.P,U6,7,GND*%
%TO.N,GND*%
X85100000Y-48255000D03*
%TO.P,U6,8*%
%TO.N,Net-(U3-Pad1)*%
X92720000Y-48255000D03*
%TO.P,U6,9*%
%TO.N,S1*%
X92720000Y-45715000D03*
%TO.P,U6,10*%
%TO.N,S2*%
X92720000Y-43175000D03*
%TO.P,U6,11*%
%TO.N,Net-(U6-Pad11)*%
X92720000Y-40635000D03*
%TO.P,U6,12*%
%TO.N,~{RD}*%
X92720000Y-38095000D03*
%TO.P,U6,13*%
%TO.N,~{P=Q}*%
X92720000Y-35555000D03*
%TO.P,U6,14,VCC*%
%TO.N,+5V*%
X92720000Y-33015000D03*
%TD*%
D12*
%TO.P,U7,1,Oe1*%
%TO.N,GND*%
X52080000Y-30470000D03*
D13*
%TO.P,U7,2,Oe2*%
X52080000Y-33010000D03*
%TO.P,U7,3,Q0*%
%TO.N,S0*%
X52080000Y-35550000D03*
%TO.P,U7,4,Q1*%
%TO.N,S1*%
X52080000Y-38090000D03*
%TO.P,U7,5,Q2*%
%TO.N,S2*%
X52080000Y-40630000D03*
%TO.P,U7,6,Q3*%
%TO.N,S3*%
X52080000Y-43170000D03*
%TO.P,U7,7,Cp*%
%TO.N,Net-(U1-Pad4)*%
X52080000Y-45710000D03*
%TO.P,U7,8,GND*%
%TO.N,GND*%
X52080000Y-48250000D03*
%TO.P,U7,9,E1*%
X59700000Y-48250000D03*
%TO.P,U7,10,E2*%
X59700000Y-45710000D03*
%TO.P,U7,11,D3*%
%TO.N,D3*%
X59700000Y-43170000D03*
%TO.P,U7,12,D2*%
%TO.N,D2*%
X59700000Y-40630000D03*
%TO.P,U7,13,D1*%
%TO.N,D1*%
X59700000Y-38090000D03*
%TO.P,U7,14,D0*%
%TO.N,D0*%
X59700000Y-35550000D03*
%TO.P,U7,15,Mr*%
%TO.N,RES*%
X59700000Y-33010000D03*
%TO.P,U7,16,VCC*%
%TO.N,+5V*%
X59700000Y-30470000D03*
%TD*%
D11*
%TO.P,C8,1*%
%TO.N,+5V*%
X123785000Y-58420000D03*
%TO.P,C8,2*%
%TO.N,GND*%
X118785000Y-58420000D03*
%TD*%
D12*
%TO.P,U2,1,A14*%
%TO.N,A14_1*%
X31750000Y-70104000D03*
D13*
%TO.P,U2,2,A12*%
%TO.N,A12*%
X34290000Y-70104000D03*
%TO.P,U2,3,A7*%
%TO.N,A7*%
X36830000Y-70104000D03*
%TO.P,U2,4,A6*%
%TO.N,A6*%
X39370000Y-70104000D03*
%TO.P,U2,5,A5*%
%TO.N,A5*%
X41910000Y-70104000D03*
%TO.P,U2,6,A4*%
%TO.N,A4*%
X44450000Y-70104000D03*
%TO.P,U2,7,A3*%
%TO.N,A3*%
X46990000Y-70104000D03*
%TO.P,U2,8,A2*%
%TO.N,A2*%
X49530000Y-70104000D03*
%TO.P,U2,9,A1*%
%TO.N,A1*%
X52070000Y-70104000D03*
%TO.P,U2,10,A0*%
%TO.N,A0*%
X54610000Y-70104000D03*
%TO.P,U2,11,Q0*%
%TO.N,D0*%
X57150000Y-70104000D03*
%TO.P,U2,12,Q1*%
%TO.N,D1*%
X59690000Y-70104000D03*
%TO.P,U2,13,Q2*%
%TO.N,D2*%
X62230000Y-70104000D03*
%TO.P,U2,14,GND*%
%TO.N,GND*%
X64770000Y-70104000D03*
%TO.P,U2,15,Q3*%
%TO.N,D3*%
X64770000Y-54864000D03*
%TO.P,U2,16,Q4*%
%TO.N,D4*%
X62230000Y-54864000D03*
%TO.P,U2,17,Q5*%
%TO.N,D5*%
X59690000Y-54864000D03*
%TO.P,U2,18,Q6*%
%TO.N,D6*%
X57150000Y-54864000D03*
%TO.P,U2,19,Q7*%
%TO.N,D7*%
X54610000Y-54864000D03*
%TO.P,U2,20,~{CS}*%
%TO.N,~{CS1}*%
X52070000Y-54864000D03*
%TO.P,U2,21,A10*%
%TO.N,A10*%
X49530000Y-54864000D03*
%TO.P,U2,22,~{OE}*%
%TO.N,~{RD}*%
X46990000Y-54864000D03*
%TO.P,U2,23,A11*%
%TO.N,A11*%
X44450000Y-54864000D03*
%TO.P,U2,24,A9*%
%TO.N,A9*%
X41910000Y-54864000D03*
%TO.P,U2,25,A8*%
%TO.N,A8*%
X39370000Y-54864000D03*
%TO.P,U2,26,A13*%
%TO.N,A13_1*%
X36830000Y-54864000D03*
%TO.P,U2,27,~{WE}*%
%TO.N,~{WR}*%
X34290000Y-54864000D03*
%TO.P,U2,28,VCC*%
%TO.N,+5V*%
X31750000Y-54864000D03*
%TD*%
D16*
%TO.P,J3,2,Pin_2*%
%TO.N,VCC*%
X26520000Y-31252000D03*
D17*
%TO.P,J3,1,Pin_1*%
%TO.N,GND*%
X26520000Y-26172000D03*
%TD*%
D12*
%TO.P,U3,1*%
%TO.N,Net-(U3-Pad1)*%
X101610000Y-33015000D03*
D13*
%TO.P,U3,2*%
%TO.N,EO*%
X101610000Y-35555000D03*
%TO.P,U3,3*%
%TO.N,Net-(U3-Pad3)*%
X101610000Y-38095000D03*
%TO.P,U3,4*%
X101610000Y-40635000D03*
%TO.P,U3,5*%
%TO.N,Net-(U1-Pad10)*%
X101610000Y-43175000D03*
%TO.P,U3,6*%
%TO.N,~{CS1}*%
X101610000Y-45715000D03*
%TO.P,U3,7,GND*%
%TO.N,GND*%
X101610000Y-48255000D03*
%TO.P,U3,8*%
%TO.N,Net-(U1-Pad5)*%
X109230000Y-48255000D03*
%TO.P,U3,9*%
%TO.N,A13*%
X109230000Y-45715000D03*
%TO.P,U3,10*%
%TO.N,A14*%
X109230000Y-43175000D03*
%TO.P,U3,11*%
%TO.N,~{REN}*%
X109230000Y-40635000D03*
%TO.P,U3,12*%
%TO.N,Net-(U1-Pad12)*%
X109230000Y-38095000D03*
%TO.P,U3,13*%
%TO.N,RAMS2*%
X109230000Y-35555000D03*
%TO.P,U3,14,VCC*%
%TO.N,+5V*%
X109230000Y-33015000D03*
%TD*%
D14*
%TO.P,J1,1,Pin_1*%
%TO.N,GND*%
X99055000Y-80518000D03*
D15*
%TO.P,J1,2,Pin_2*%
%TO.N,unconnected-(J1-Pad2)*%
X99055000Y-77978000D03*
%TO.P,J1,3,Pin_3*%
%TO.N,D0*%
X96515000Y-80518000D03*
%TO.P,J1,4,Pin_4*%
%TO.N,D1*%
X96515000Y-77978000D03*
%TO.P,J1,5,Pin_5*%
%TO.N,D2*%
X93975000Y-80518000D03*
%TO.P,J1,6,Pin_6*%
%TO.N,D3*%
X93975000Y-77978000D03*
%TO.P,J1,7,Pin_7*%
%TO.N,D4*%
X91435000Y-80518000D03*
%TO.P,J1,8,Pin_8*%
%TO.N,D5*%
X91435000Y-77978000D03*
%TO.P,J1,9,Pin_9*%
%TO.N,D6*%
X88895000Y-80518000D03*
%TO.P,J1,10,Pin_10*%
%TO.N,D7*%
X88895000Y-77978000D03*
%TO.P,J1,11,Pin_11*%
%TO.N,A0*%
X86355000Y-80518000D03*
%TO.P,J1,12,Pin_12*%
%TO.N,A1*%
X86355000Y-77978000D03*
%TO.P,J1,13,Pin_13*%
%TO.N,A2*%
X83815000Y-80518000D03*
%TO.P,J1,14,Pin_14*%
%TO.N,A3*%
X83815000Y-77978000D03*
%TO.P,J1,15,Pin_15*%
%TO.N,A4*%
X81275000Y-80518000D03*
%TO.P,J1,16,Pin_16*%
%TO.N,A5*%
X81275000Y-77978000D03*
%TO.P,J1,17,Pin_17*%
%TO.N,A6*%
X78735000Y-80518000D03*
%TO.P,J1,18,Pin_18*%
%TO.N,A7*%
X78735000Y-77978000D03*
%TO.P,J1,19,Pin_19*%
%TO.N,A8*%
X76195000Y-80518000D03*
%TO.P,J1,20,Pin_20*%
%TO.N,A9*%
X76195000Y-77978000D03*
%TO.P,J1,21,Pin_21*%
%TO.N,A10*%
X73655000Y-80518000D03*
%TO.P,J1,22,Pin_22*%
%TO.N,A11*%
X73655000Y-77978000D03*
%TO.P,J1,23,Pin_23*%
%TO.N,A12*%
X71115000Y-80518000D03*
%TO.P,J1,24,Pin_24*%
%TO.N,A13*%
X71115000Y-77978000D03*
%TO.P,J1,25,Pin_25*%
%TO.N,A14*%
X68575000Y-80518000D03*
%TO.P,J1,26,Pin_26*%
%TO.N,RAMS2*%
X68575000Y-77978000D03*
%TO.P,J1,27,Pin_27*%
%TO.N,~{MRQ}*%
X66035000Y-80518000D03*
%TO.P,J1,28,Pin_28*%
%TO.N,~{RD}*%
X66035000Y-77978000D03*
%TO.P,J1,29,Pin_29*%
%TO.N,unconnected-(J1-Pad29)*%
X63495000Y-80518000D03*
%TO.P,J1,30,Pin_30*%
%TO.N,~{WR}*%
X63495000Y-77978000D03*
%TO.P,J1,31,Pin_31*%
%TO.N,~{IORQ}*%
X60955000Y-80518000D03*
%TO.P,J1,32,Pin_32*%
%TO.N,unconnected-(J1-Pad32)*%
X60955000Y-77978000D03*
%TO.P,J1,33,Pin_33*%
%TO.N,unconnected-(J1-Pad33)*%
X58415000Y-80518000D03*
%TO.P,J1,34,Pin_34*%
%TO.N,~{RES}*%
X58415000Y-77978000D03*
%TO.P,J1,35,Pin_35*%
%TO.N,unconnected-(J1-Pad35)*%
X55875000Y-80518000D03*
%TO.P,J1,36,Pin_36*%
%TO.N,unconnected-(J1-Pad36)*%
X55875000Y-77978000D03*
%TO.P,J1,37,Pin_37*%
%TO.N,unconnected-(J1-Pad37)*%
X53335000Y-80518000D03*
%TO.P,J1,38,Pin_38*%
%TO.N,unconnected-(J1-Pad38)*%
X53335000Y-77978000D03*
%TO.P,J1,39,Pin_39*%
%TO.N,unconnected-(J1-Pad39)*%
X50795000Y-80518000D03*
%TO.P,J1,40,Pin_40*%
%TO.N,unconnected-(J1-Pad40)*%
X50795000Y-77978000D03*
%TD*%
D18*
%TO.N,D0*%
X60699800Y-57926300D03*
%TO.N,D1*%
X63119600Y-57483600D03*
%TO.N,D2*%
X63845000Y-56755700D03*
%TO.N,D3*%
X72901800Y-66138100D03*
X107225300Y-65719800D03*
%TO.N,D4*%
X107950000Y-62037700D03*
X79282400Y-56887700D03*
%TO.N,D5*%
X74407800Y-60581100D03*
X102855300Y-60581100D03*
%TO.N,D7*%
X96005600Y-58837800D03*
%TO.N,A4*%
X115272900Y-81592300D03*
%TO.N,A5*%
X119687300Y-81244800D03*
%TO.N,A10*%
X58530700Y-60598500D03*
X84723000Y-63540400D03*
%TO.N,A11*%
X60674300Y-53697900D03*
%TO.N,A13*%
X89175900Y-68802200D03*
X59108700Y-51116200D03*
%TO.N,A14*%
X76879900Y-71862800D03*
X91966500Y-55988900D03*
%TO.N,RAMS2*%
X91509700Y-68368400D03*
%TO.N,~{MRQ}*%
X65850500Y-57946800D03*
%TO.N,~{RD}*%
X76892000Y-67937700D03*
X56420000Y-72031000D03*
X94179400Y-45032300D03*
%TO.N,~{WR}*%
X53752800Y-73436200D03*
%TO.N,~{RES}*%
X61700200Y-57946800D03*
%TO.N,A14_2*%
X77911100Y-63860500D03*
X57971000Y-61617100D03*
%TO.N,~{CS2}*%
X87745300Y-42926600D03*
%TO.N,A13_2*%
X79551500Y-51359100D03*
%TO.N,S1*%
X82569600Y-50363500D03*
%TO.N,S2*%
X73646700Y-35167200D03*
X87217300Y-36855600D03*
%TO.N,Net-(U3-Pad3)*%
X89891800Y-33690000D03*
%TO.N,~{P=Q}*%
X127193100Y-57404000D03*
X89879300Y-40562500D03*
%TO.N,~{CS1}*%
X93989900Y-52396100D03*
%TO.N,S3*%
X101468800Y-51495500D03*
%TO.N,Net-(U1-Pad3)*%
X73118100Y-39230900D03*
%TO.N,EO*%
X57041000Y-33763600D03*
%TD*%
D19*
%TO.N,A2*%
X96375300Y-69850000D02*
X95250000Y-69850000D01*
X96375300Y-70131300D02*
X96375300Y-69850000D01*
X103227208Y-74750000D02*
X100994000Y-74750000D01*
X105377208Y-72600000D02*
X103227208Y-74750000D01*
X111736396Y-72600000D02*
X105377208Y-72600000D01*
X115209396Y-76073000D02*
X111736396Y-72600000D01*
X100994000Y-74750000D02*
X96375300Y-70131300D01*
X117485000Y-76073000D02*
X115209396Y-76073000D01*
%TO.N,A3*%
X93835300Y-69850000D02*
X92710000Y-69850000D01*
X93835300Y-70131300D02*
X93835300Y-69850000D01*
X99754000Y-76050000D02*
X93835300Y-70131300D01*
X102563604Y-76050000D02*
X99754000Y-76050000D01*
X105563604Y-73050000D02*
X102563604Y-76050000D01*
X111550000Y-73050000D02*
X105563604Y-73050000D01*
X115722900Y-77222900D02*
X111550000Y-73050000D01*
X115722900Y-80722900D02*
X115722900Y-77222900D01*
X116153000Y-81153000D02*
X115722900Y-80722900D01*
X117485000Y-81153000D02*
X116153000Y-81153000D01*
%TO.N,A4*%
X91295300Y-69850000D02*
X90170000Y-69850000D01*
X96175500Y-74948100D02*
X91295300Y-70067900D01*
X96448100Y-74948100D02*
X96175500Y-74948100D01*
X98000000Y-76500000D02*
X96448100Y-74948100D01*
X102750000Y-76500000D02*
X98000000Y-76500000D01*
X91295300Y-70067900D02*
X91295300Y-69850000D01*
X105750000Y-73500000D02*
X102750000Y-76500000D01*
X111250000Y-73500000D02*
X105750000Y-73500000D01*
X115272900Y-77522900D02*
X111250000Y-73500000D01*
X115272900Y-81592300D02*
X115272900Y-77522900D01*
%TO.N,A5*%
X98639100Y-79250000D02*
X98444550Y-79055450D01*
X100250000Y-79250000D02*
X98639100Y-79250000D01*
X100750000Y-79750000D02*
X100250000Y-79250000D01*
X100750000Y-85500000D02*
X100750000Y-79750000D01*
X102000000Y-86750000D02*
X100750000Y-85500000D01*
X114750000Y-86750000D02*
X102000000Y-86750000D01*
X115750000Y-85750000D02*
X114750000Y-86750000D01*
X115750000Y-83500000D02*
X115750000Y-85750000D01*
X116920400Y-82329600D02*
X115750000Y-83500000D01*
X118602500Y-82329600D02*
X116920400Y-82329600D01*
X119687300Y-81244800D02*
X118602500Y-82329600D01*
X97879700Y-78490600D02*
X98444550Y-79055450D01*
%TO.N,A14_1*%
X35387600Y-46835300D02*
X35570000Y-46835300D01*
X32875300Y-67853400D02*
X32875300Y-49347600D01*
X31750000Y-70104000D02*
X31750000Y-68978700D01*
X32875300Y-49347600D02*
X35387600Y-46835300D01*
X31750000Y-68978700D02*
X32875300Y-67853400D01*
X35570000Y-45710000D02*
X35570000Y-46835300D01*
%TO.N,D0*%
X102870000Y-69850000D02*
X103995300Y-69850000D01*
X122628900Y-37615100D02*
X122628900Y-51345100D01*
X125105000Y-35420300D02*
X124823700Y-35420300D01*
X124823700Y-35420300D02*
X122628900Y-37615100D01*
X103995300Y-69432600D02*
X103995300Y-69850000D01*
X125105000Y-34295000D02*
X125105000Y-35420300D01*
X107528900Y-66445100D02*
X106982800Y-66445100D01*
X57150000Y-71229300D02*
X57532300Y-71229300D01*
X106982800Y-66445100D02*
X103995300Y-69432600D01*
X57599200Y-63461200D02*
X60699800Y-60360600D01*
X122628900Y-51345100D02*
X107528900Y-66445100D01*
X57599200Y-71162400D02*
X57599200Y-63461200D01*
X57150000Y-70104000D02*
X57150000Y-71229300D01*
X60699800Y-60360600D02*
X60699800Y-57926300D01*
X57532300Y-71229300D02*
X57599200Y-71162400D01*
%TO.N,D1*%
X59690000Y-68978700D02*
X63119600Y-65549100D01*
X124823700Y-37960300D02*
X125105000Y-37960300D01*
X105410000Y-68724700D02*
X105964200Y-68724700D01*
X123304200Y-51384700D02*
X123304200Y-39479800D01*
X63119600Y-65549100D02*
X63119600Y-57483600D01*
X105964200Y-68724700D02*
X123304200Y-51384700D01*
X59690000Y-70104000D02*
X59690000Y-68978700D01*
X123304200Y-39479800D02*
X124823700Y-37960300D01*
X105410000Y-69850000D02*
X105410000Y-68724700D01*
X125105000Y-36835000D02*
X125105000Y-37960300D01*
%TO.N,D2*%
X107950000Y-67375800D02*
X123979700Y-51346100D01*
X123979700Y-41432800D02*
X124912200Y-40500300D01*
X62230000Y-68978700D02*
X63845000Y-67363700D01*
X124912200Y-40500300D02*
X125105000Y-40500300D01*
X107950000Y-69850000D02*
X107950000Y-68724700D01*
X125105000Y-39375000D02*
X125105000Y-40500300D01*
X123979700Y-51346100D02*
X123979700Y-41432800D01*
X107950000Y-68724700D02*
X107950000Y-67375800D01*
X63845000Y-67363700D02*
X63845000Y-56755700D01*
X62230000Y-70104000D02*
X62230000Y-68978700D01*
%TO.N,D3*%
X73515400Y-65524500D02*
X73515400Y-62919200D01*
X110490000Y-54610000D02*
X110490000Y-55735300D01*
X75148400Y-60160200D02*
X69852200Y-54864000D01*
X110490000Y-62455100D02*
X110490000Y-55735300D01*
X72901800Y-66138100D02*
X73515400Y-65524500D01*
X69852200Y-54864000D02*
X64770000Y-54864000D01*
X107225300Y-65719800D02*
X110490000Y-62455100D01*
X75148400Y-61286200D02*
X75148400Y-60160200D01*
X73515400Y-62919200D02*
X75148400Y-61286200D01*
%TO.N,D4*%
X63355300Y-54582600D02*
X63355300Y-54864000D01*
X72582800Y-53738700D02*
X64199200Y-53738700D01*
X64199200Y-53738700D02*
X63355300Y-54582600D01*
X107950000Y-54610000D02*
X107950000Y-62037700D01*
X75731800Y-56887700D02*
X72582800Y-53738700D01*
X79282400Y-56887700D02*
X75731800Y-56887700D01*
X62230000Y-54864000D02*
X63355300Y-54864000D01*
%TO.N,D5*%
X60815300Y-55145400D02*
X61659200Y-55989300D01*
X70305400Y-55989300D02*
X74407700Y-60091600D01*
X102855300Y-58290000D02*
X102855300Y-60581100D01*
X60815300Y-54864000D02*
X60815300Y-55145400D01*
X59690000Y-54864000D02*
X60815300Y-54864000D01*
X105410000Y-55735300D02*
X102855300Y-58290000D01*
X105410000Y-54610000D02*
X105410000Y-55735300D01*
X61659200Y-55989300D02*
X70305400Y-55989300D01*
X74407700Y-60091600D02*
X74407700Y-60581100D01*
X74407700Y-60581100D02*
X74407800Y-60581100D01*
%TO.N,D6*%
X94568600Y-53480100D02*
X94477000Y-53571700D01*
X101744700Y-54891300D02*
X101744700Y-54610000D01*
X94477000Y-53571700D02*
X93502900Y-53571700D01*
X57150000Y-54864000D02*
X58275300Y-54864000D01*
X58275300Y-54582700D02*
X58275300Y-54864000D01*
X59950800Y-53361800D02*
X59496200Y-53361800D01*
X88895000Y-80518000D02*
X88895000Y-79342700D01*
X87719700Y-78534800D02*
X87719700Y-77239400D01*
X77896700Y-52804600D02*
X60508000Y-52804600D01*
X100893100Y-55742900D02*
X101744700Y-54891300D01*
X96375400Y-55742900D02*
X100893100Y-55742900D01*
X88527600Y-79342700D02*
X87719700Y-78534800D01*
X102870000Y-54610000D02*
X101744700Y-54610000D01*
X92952800Y-53021600D02*
X78113700Y-53021600D01*
X96375400Y-54097800D02*
X95757700Y-53480100D01*
X96375400Y-55742900D02*
X96375400Y-54097800D01*
X83938900Y-68179400D02*
X96375400Y-55742900D01*
X95757700Y-53480100D02*
X94568600Y-53480100D01*
X93502900Y-53571700D02*
X92952800Y-53021600D01*
X83938900Y-73458600D02*
X83938900Y-68179400D01*
X60508000Y-52804600D02*
X59950800Y-53361800D01*
X59496200Y-53361800D02*
X58275300Y-54582700D01*
X88895000Y-79342700D02*
X88527600Y-79342700D01*
X87719700Y-77239400D02*
X83938900Y-73458600D01*
X78113700Y-53021600D02*
X77896700Y-52804600D01*
%TO.N,D7*%
X88895000Y-76802700D02*
X86498000Y-74405700D01*
X94290400Y-53121400D02*
X94382100Y-53029700D01*
X86498000Y-74405700D02*
X86498000Y-68345400D01*
X100330000Y-54610000D02*
X99204700Y-54610000D01*
X86498000Y-68345400D02*
X96005600Y-58837800D01*
X57471300Y-52911500D02*
X59764100Y-52911500D01*
X93139400Y-52571300D02*
X93689500Y-53121400D01*
X78300300Y-52571300D02*
X93139400Y-52571300D01*
X99204700Y-54328700D02*
X99204700Y-54610000D01*
X78083300Y-52354300D02*
X78300300Y-52571300D01*
X55735300Y-54647500D02*
X57471300Y-52911500D01*
X54610000Y-54864000D02*
X55735300Y-54864000D01*
X94382100Y-53029700D02*
X97905700Y-53029700D01*
X59764100Y-52911500D02*
X60321300Y-52354300D01*
X88895000Y-77978000D02*
X88895000Y-76802700D01*
X55735300Y-54864000D02*
X55735300Y-54647500D01*
X97905700Y-53029700D02*
X99204700Y-54328700D01*
X60321300Y-52354300D02*
X78083300Y-52354300D01*
X93689500Y-53121400D02*
X94290400Y-53121400D01*
%TO.N,A0*%
X101455300Y-69850000D02*
X101455300Y-70131300D01*
X109220000Y-70208900D02*
X109220000Y-69466700D01*
X108436000Y-70992900D02*
X109220000Y-70208900D01*
X101455300Y-70131300D02*
X102316900Y-70992900D01*
X102316900Y-70992900D02*
X108436000Y-70992900D01*
X100330000Y-69850000D02*
X101455300Y-69850000D01*
X109220000Y-69466700D02*
X112773700Y-65913000D01*
X112773700Y-65913000D02*
X117485000Y-65913000D01*
%TO.N,A1*%
X117485000Y-70993000D02*
X116359700Y-70993000D01*
X115909400Y-71443300D02*
X116359700Y-70993000D01*
X97790000Y-69850000D02*
X98915300Y-69850000D01*
X98915300Y-70131300D02*
X100227300Y-71443300D01*
X98915300Y-69850000D02*
X98915300Y-70131300D01*
X100227300Y-71443300D02*
X115909400Y-71443300D01*
%TO.N,A4*%
X52065000Y-77488100D02*
X52065000Y-78409000D01*
X53634600Y-79153400D02*
X54699700Y-80218500D01*
X54699700Y-80218500D02*
X54699700Y-81037900D01*
X52809400Y-79153400D02*
X53634600Y-79153400D01*
X81275000Y-80518000D02*
X80099700Y-80518000D01*
X45575300Y-70998400D02*
X52065000Y-77488100D01*
X56269300Y-82607500D02*
X78376700Y-82607500D01*
X78376700Y-82607500D02*
X80099700Y-80884500D01*
X80099700Y-80884500D02*
X80099700Y-80518000D01*
X44450000Y-70104000D02*
X45575300Y-70104000D01*
X45575300Y-70104000D02*
X45575300Y-70998400D01*
X54699700Y-81037900D02*
X56269300Y-82607500D01*
X52065000Y-78409000D02*
X52809400Y-79153400D01*
%TO.N,A5*%
X97879700Y-77652400D02*
X97879700Y-78490600D01*
X81275000Y-77978000D02*
X81275000Y-79153300D01*
X82457200Y-79968200D02*
X82457200Y-80998900D01*
X80379000Y-83077100D02*
X51655200Y-83077100D01*
X88755300Y-69850000D02*
X88755300Y-70131400D01*
X81275000Y-79153300D02*
X81642300Y-79153300D01*
X82457200Y-80998900D02*
X80379000Y-83077100D01*
X87630000Y-69850000D02*
X88755300Y-69850000D01*
X81642300Y-79153300D02*
X82457200Y-79968200D01*
X88755300Y-70131400D02*
X89972400Y-71348500D01*
X51655200Y-83077100D02*
X41910000Y-73331900D01*
X89972400Y-71348500D02*
X91575800Y-71348500D01*
X41910000Y-73331900D02*
X41910000Y-70104000D01*
X91575800Y-71348500D02*
X97879700Y-77652400D01*
%TO.N,A7*%
X51107000Y-83537000D02*
X37955300Y-70385300D01*
X83515400Y-79342600D02*
X84340600Y-79342600D01*
X79910300Y-77978000D02*
X79910300Y-77610700D01*
X36830000Y-70104000D02*
X37955300Y-70104000D01*
X84991900Y-81114300D02*
X82569200Y-83537000D01*
X82569200Y-83537000D02*
X51107000Y-83537000D01*
X84991900Y-79993900D02*
X84991900Y-81114300D01*
X81803500Y-76791600D02*
X82450400Y-77438500D01*
X82550000Y-69850000D02*
X82550000Y-70975300D01*
X81803500Y-71721800D02*
X82550000Y-70975300D01*
X82450400Y-77438500D02*
X82450400Y-78277600D01*
X81803500Y-76791600D02*
X81803500Y-71721800D01*
X84340600Y-79342600D02*
X84991900Y-79993900D01*
X37955300Y-70385300D02*
X37955300Y-70104000D01*
X79910300Y-77610700D02*
X80729400Y-76791600D01*
X78735000Y-77978000D02*
X79910300Y-77978000D01*
X82450400Y-78277600D02*
X83515400Y-79342600D01*
X80729400Y-76791600D02*
X81803500Y-76791600D01*
%TO.N,A8*%
X53340000Y-71967300D02*
X53340000Y-69678000D01*
X74980300Y-78495300D02*
X74227600Y-79248000D01*
X67240700Y-80116900D02*
X67240700Y-80993600D01*
X74980300Y-78495300D02*
X75827700Y-79342700D01*
X83964700Y-54610000D02*
X83964700Y-55326000D01*
X57889400Y-79153400D02*
X57145000Y-78409000D01*
X67240700Y-80993600D02*
X66531000Y-81703300D01*
X62130400Y-80816000D02*
X62130400Y-79933900D01*
X61349900Y-79153400D02*
X57889400Y-79153400D01*
X57145000Y-78409000D02*
X57145000Y-75772300D01*
X85090000Y-54610000D02*
X83964700Y-54610000D01*
X66531000Y-81703300D02*
X63017700Y-81703300D01*
X75827700Y-79342700D02*
X76195000Y-79342700D01*
X39370000Y-54864000D02*
X39370000Y-55989300D01*
X57145000Y-75772300D02*
X53340000Y-71967300D01*
X74980300Y-64310400D02*
X74980300Y-78495300D01*
X76195000Y-80518000D02*
X76195000Y-79342700D01*
X63017700Y-81703300D02*
X62130400Y-80816000D01*
X53340000Y-69678000D02*
X39651300Y-55989300D01*
X39651300Y-55989300D02*
X39370000Y-55989300D01*
X62130400Y-79933900D02*
X61349900Y-79153400D01*
X83964700Y-55326000D02*
X74980300Y-64310400D01*
X74227600Y-79248000D02*
X68109600Y-79248000D01*
X68109600Y-79248000D02*
X67240700Y-80116900D01*
%TO.N,A9*%
X86504700Y-54610000D02*
X86504700Y-54891400D01*
X87630000Y-54610000D02*
X86504700Y-54610000D01*
X86504700Y-54891400D02*
X85660800Y-55735300D01*
X76141200Y-63939900D02*
X76141200Y-76748900D01*
X85660800Y-55735300D02*
X84345800Y-55735300D01*
X76195000Y-77978000D02*
X76195000Y-76802700D01*
X84345800Y-55735300D02*
X76141200Y-63939900D01*
X76141200Y-76748900D02*
X76195000Y-76802700D01*
%TO.N,A10*%
X49530000Y-54864000D02*
X50655300Y-54864000D01*
X56108500Y-60598500D02*
X50655300Y-55145300D01*
X81280000Y-71892200D02*
X81280000Y-66983400D01*
X50655300Y-55145300D02*
X50655300Y-54864000D01*
X85452900Y-63540400D02*
X94124700Y-54868600D01*
X94124700Y-54868600D02*
X94124700Y-54610000D01*
X77465000Y-80973700D02*
X77465000Y-75707200D01*
X74830300Y-80885300D02*
X75708100Y-81763100D01*
X74830300Y-80518000D02*
X74830300Y-80885300D01*
X58530700Y-60598500D02*
X56108500Y-60598500D01*
X76675600Y-81763100D02*
X77465000Y-80973700D01*
X75708100Y-81763100D02*
X76675600Y-81763100D01*
X73655000Y-80518000D02*
X74830300Y-80518000D01*
X95250000Y-54610000D02*
X94124700Y-54610000D01*
X77465000Y-75707200D02*
X81280000Y-71892200D01*
X81280000Y-66983400D02*
X84723000Y-63540400D01*
X84723000Y-63540400D02*
X85452900Y-63540400D01*
%TO.N,A11*%
X73655000Y-77978000D02*
X73655000Y-76802700D01*
X77166500Y-53254900D02*
X61117300Y-53254900D01*
X81155300Y-53484800D02*
X81155100Y-53484600D01*
X61117300Y-53254900D02*
X60674300Y-53697900D01*
X74416000Y-76041700D02*
X74416000Y-63893400D01*
X77396200Y-53484600D02*
X77166500Y-53254900D01*
X81155300Y-57154100D02*
X81155300Y-53484800D01*
X81155100Y-53484600D02*
X77396200Y-53484600D01*
X88143500Y-53471900D02*
X89044700Y-54373100D01*
X74416000Y-63893400D02*
X81155300Y-57154100D01*
X90170000Y-54610000D02*
X89044700Y-54610000D01*
X73655000Y-76802700D02*
X74416000Y-76041700D01*
X81168200Y-53471900D02*
X88143500Y-53471900D01*
X81155300Y-53484800D02*
X81168200Y-53471900D01*
X89044700Y-54373100D02*
X89044700Y-54610000D01*
%TO.N,A12*%
X48260000Y-71176700D02*
X48260000Y-69760000D01*
X56174600Y-79153400D02*
X55349400Y-79153400D01*
X55349400Y-79153400D02*
X54605000Y-78409000D01*
X58369000Y-82157200D02*
X57239700Y-81027900D01*
X54605000Y-78409000D02*
X54605000Y-77521700D01*
X36259200Y-68978700D02*
X35415300Y-69822600D01*
X47478700Y-68978700D02*
X36259200Y-68978700D01*
X48260000Y-69760000D02*
X47478700Y-68978700D01*
X54605000Y-77521700D02*
X48260000Y-71176700D01*
X69939700Y-80518000D02*
X69939700Y-80885400D01*
X68667900Y-82157200D02*
X58369000Y-82157200D01*
X71115000Y-80518000D02*
X69939700Y-80518000D01*
X35415300Y-69822600D02*
X35415300Y-70104000D01*
X57239700Y-81027900D02*
X57239700Y-80218500D01*
X69939700Y-80885400D02*
X68667900Y-82157200D01*
X57239700Y-80218500D02*
X56174600Y-79153400D01*
X34290000Y-70104000D02*
X35415300Y-70104000D01*
%TO.N,A13*%
X109230000Y-45715000D02*
X109230000Y-46840300D01*
X104022200Y-52248900D02*
X101196500Y-52248900D01*
X109230000Y-46840300D02*
X109511300Y-46840300D01*
X80187600Y-50609400D02*
X77877500Y-50609400D01*
X101196500Y-52248900D02*
X100618300Y-51670700D01*
X77877500Y-50609400D02*
X77483600Y-51003300D01*
X81248900Y-51670700D02*
X80187600Y-50609400D01*
X104022200Y-55050700D02*
X104022200Y-52248900D01*
X110362700Y-47691700D02*
X110362700Y-48715200D01*
X77483600Y-51003300D02*
X59221600Y-51003300D01*
X103197600Y-55875300D02*
X104022200Y-55050700D01*
X110362700Y-48715200D02*
X106829000Y-52248900D01*
X59221600Y-51003300D02*
X59108700Y-51116200D01*
X109511300Y-46840300D02*
X110362700Y-47691700D01*
X89175900Y-68802200D02*
X102102800Y-55875300D01*
X106829000Y-52248900D02*
X104022200Y-52248900D01*
X102102800Y-55875300D02*
X103197600Y-55875300D01*
X100618300Y-51670700D02*
X81248900Y-51670700D01*
%TO.N,A14*%
X91213500Y-55988900D02*
X91966500Y-55988900D01*
X78595400Y-70790600D02*
X78595400Y-68607000D01*
X78595400Y-68607000D02*
X91213500Y-55988900D01*
X76879900Y-71862800D02*
X77523200Y-71862800D01*
X77523200Y-71862800D02*
X78595400Y-70790600D01*
%TO.N,RAMS2*%
X106535400Y-57995700D02*
X96162700Y-68368400D01*
X109511300Y-36680300D02*
X110859600Y-38028600D01*
X96162700Y-68368400D02*
X91509700Y-68368400D01*
X106535400Y-54216500D02*
X106535400Y-57995700D01*
X110859600Y-49892300D02*
X106535400Y-54216500D01*
X109230000Y-35555000D02*
X109230000Y-36680300D01*
X109230000Y-36680300D02*
X109511300Y-36680300D01*
X110859600Y-38028600D02*
X110859600Y-49892300D01*
%TO.N,~{MRQ}*%
X64859700Y-80518000D02*
X64859700Y-80150600D01*
X63194900Y-79342700D02*
X62312200Y-78460000D01*
X66035000Y-80518000D02*
X64859700Y-80518000D01*
X62312200Y-71822000D02*
X63355400Y-70778800D01*
X64051800Y-79342700D02*
X63194900Y-79342700D01*
X64859700Y-80150600D02*
X64051800Y-79342700D01*
X63355400Y-69708900D02*
X65850500Y-67213800D01*
X63355400Y-70778800D02*
X63355400Y-69708900D01*
X65850500Y-67213800D02*
X65850500Y-57946800D01*
X62312200Y-78460000D02*
X62312200Y-71822000D01*
%TO.N,~{RD}*%
X46990000Y-54864000D02*
X46990000Y-55989300D01*
X94179400Y-40398400D02*
X94179400Y-45032300D01*
X55880000Y-64879300D02*
X46990000Y-55989300D01*
X92720000Y-39220300D02*
X93001300Y-39220300D01*
X80853300Y-59878600D02*
X76892000Y-63839900D01*
X55880000Y-71491000D02*
X55880000Y-64879300D01*
X92710000Y-54610000D02*
X91584700Y-54610000D01*
X86498200Y-59878600D02*
X80853300Y-59878600D01*
X91584700Y-54610000D02*
X91584700Y-54792100D01*
X92720000Y-38095000D02*
X92720000Y-39220300D01*
X93001300Y-39220300D02*
X94179400Y-40398400D01*
X91584700Y-54792100D02*
X86498200Y-59878600D01*
X56420000Y-72031000D02*
X55880000Y-71491000D01*
X76892000Y-63839900D02*
X76892000Y-67937700D01*
%TO.N,~{WR}*%
X80010000Y-57189500D02*
X80010000Y-55735300D01*
X73965700Y-63233800D02*
X80010000Y-57189500D01*
X37075200Y-55989300D02*
X36259200Y-55989300D01*
X35415300Y-55145400D02*
X35415300Y-54864000D01*
X80010000Y-54610000D02*
X80010000Y-55735300D01*
X53752800Y-73436200D02*
X50800000Y-70483400D01*
X50800000Y-70483400D02*
X50800000Y-69714100D01*
X63495000Y-77978000D02*
X63495000Y-76802700D01*
X63495000Y-76802700D02*
X73965700Y-66332000D01*
X36259200Y-55989300D02*
X35415300Y-55145400D01*
X34290000Y-54864000D02*
X35415300Y-54864000D01*
X73965700Y-66332000D02*
X73965700Y-63233800D01*
X50800000Y-69714100D02*
X37075200Y-55989300D01*
%TO.N,~{RES}*%
X61700200Y-62252100D02*
X61700200Y-57946800D01*
X58415000Y-77978000D02*
X58415000Y-65537300D01*
X58415000Y-65537300D02*
X61700200Y-62252100D01*
%TO.N,A14_2*%
X44596100Y-51294300D02*
X42064700Y-48762900D01*
X42908600Y-41755300D02*
X43190000Y-41755300D01*
X54637200Y-61617100D02*
X48260000Y-55239900D01*
X77470000Y-69850000D02*
X77470000Y-68724700D01*
X77470000Y-68724700D02*
X77911100Y-68283600D01*
X42064700Y-48762900D02*
X42064700Y-42599200D01*
X43190000Y-40630000D02*
X43190000Y-41755300D01*
X57971000Y-61617100D02*
X54637200Y-61617100D01*
X48260000Y-54489300D02*
X45065000Y-51294300D01*
X45065000Y-51294300D02*
X44596100Y-51294300D01*
X77911100Y-68283600D02*
X77911100Y-63860500D01*
X48260000Y-55239900D02*
X48260000Y-54489300D01*
X42064700Y-42599200D02*
X42908600Y-41755300D01*
%TO.N,~{CS2}*%
X85381400Y-39220300D02*
X87745300Y-41584200D01*
X85100000Y-38095000D02*
X85100000Y-39220300D01*
X85100000Y-39220300D02*
X85381400Y-39220300D01*
X87745300Y-41584200D02*
X87745300Y-42926600D01*
D20*
%TO.N,GND*%
X102108000Y-24130000D02*
X118825000Y-24130000D01*
D19*
X121412000Y-73235500D02*
X118907800Y-73235500D01*
D20*
X128524000Y-56134000D02*
X128524000Y-56388000D01*
D19*
X35570000Y-40630000D02*
X39370000Y-40630000D01*
X39370000Y-26416000D02*
X38354000Y-25400000D01*
X39370000Y-40630000D02*
X39370000Y-33010000D01*
X75012400Y-45792300D02*
X75084700Y-45720000D01*
D20*
X26670000Y-64868000D02*
X22860000Y-61058000D01*
X67350000Y-23916000D02*
X69930000Y-26496000D01*
D19*
X71882000Y-48260000D02*
X72390000Y-47752000D01*
D20*
X120817000Y-56388000D02*
X118785000Y-58420000D01*
X128524000Y-73533000D02*
X128524000Y-78613000D01*
D19*
X72390000Y-45792300D02*
X72390000Y-28448000D01*
D20*
X67350000Y-23916000D02*
X85638000Y-23916000D01*
X122408000Y-22880000D02*
X127274000Y-22880000D01*
D19*
X55636000Y-48250000D02*
X55880000Y-48006000D01*
D20*
X51602000Y-23916000D02*
X51936000Y-23916000D01*
X118364000Y-88900000D02*
X100584000Y-88900000D01*
D19*
X118865100Y-68707800D02*
X118610300Y-68453000D01*
D20*
X22098000Y-40132000D02*
X22098000Y-27432000D01*
X121412000Y-68707800D02*
X121412000Y-59690000D01*
D19*
X121412000Y-68707800D02*
X118865100Y-68707800D01*
X72390000Y-47752000D02*
X72390000Y-45792300D01*
D20*
X121158000Y-24130000D02*
X122408000Y-22880000D01*
D19*
X55682400Y-30532900D02*
X53205300Y-33010000D01*
D20*
X38354000Y-23916000D02*
X51602000Y-23916000D01*
D19*
X117485000Y-52075000D02*
X120899000Y-52075000D01*
X121412000Y-51562000D02*
X121412000Y-25654000D01*
D20*
X36098000Y-26172000D02*
X36870000Y-25400000D01*
D19*
X38354000Y-25400000D02*
X36870000Y-25400000D01*
X117485000Y-41915000D02*
X117485000Y-44455000D01*
X117485000Y-44455000D02*
X117485000Y-46995000D01*
X118907800Y-73235500D02*
X118610300Y-73533000D01*
D20*
X28956000Y-88900000D02*
X27900000Y-87844000D01*
X22098000Y-27432000D02*
X23358000Y-26172000D01*
D19*
X59700000Y-45710000D02*
X58574700Y-45710000D01*
D20*
X85638000Y-23916000D02*
X86440000Y-24718000D01*
X27900000Y-80010000D02*
X27900000Y-66098000D01*
X51602000Y-23916000D02*
X51936000Y-23916000D01*
D19*
X39370000Y-33010000D02*
X39370000Y-26416000D01*
D20*
X121412000Y-73235500D02*
X121412000Y-68707800D01*
D19*
X105156000Y-48006000D02*
X105156000Y-28702000D01*
D20*
X120142000Y-58420000D02*
X118785000Y-58420000D01*
X36870000Y-25400000D02*
X38354000Y-23916000D01*
D19*
X117485000Y-73533000D02*
X118610300Y-73533000D01*
X55880000Y-30532900D02*
X55880000Y-26416000D01*
D20*
X69930000Y-26496000D02*
X69930000Y-27940000D01*
D19*
X120899000Y-52075000D02*
X121412000Y-51562000D01*
X55880000Y-30532900D02*
X55682400Y-30532900D01*
D20*
X26520000Y-26172000D02*
X36098000Y-26172000D01*
X22860000Y-40894000D02*
X22098000Y-40132000D01*
X128524000Y-78613000D02*
X128524000Y-88138000D01*
D19*
X88138000Y-27940000D02*
X86440000Y-27940000D01*
X58409100Y-45875600D02*
X58574700Y-45710000D01*
D20*
X102910000Y-24932000D02*
X102910000Y-27940000D01*
D19*
X39370000Y-33010000D02*
X43190000Y-33010000D01*
X55880000Y-26416000D02*
X54864000Y-25400000D01*
D20*
X27900000Y-66098000D02*
X26670000Y-64868000D01*
D19*
X76210000Y-45720000D02*
X75084700Y-45720000D01*
D20*
X101894000Y-23916000D02*
X102108000Y-24130000D01*
X51936000Y-23916000D02*
X67350000Y-23916000D01*
D19*
X89154000Y-28956000D02*
X88138000Y-27940000D01*
X101610000Y-48255000D02*
X104907000Y-48255000D01*
D20*
X100330000Y-88900000D02*
X28956000Y-88900000D01*
X99055000Y-87625000D02*
X99055000Y-80518000D01*
X128524000Y-56388000D02*
X128524000Y-73533000D01*
X100330000Y-88900000D02*
X99055000Y-87625000D01*
X119888000Y-24130000D02*
X121158000Y-24130000D01*
X27900000Y-87844000D02*
X27900000Y-80010000D01*
X127274000Y-22880000D02*
X128524000Y-24130000D01*
D19*
X68590000Y-48260000D02*
X71882000Y-48260000D01*
D20*
X120777000Y-86233000D02*
X121412000Y-85598000D01*
D19*
X55880000Y-45875600D02*
X55880000Y-30532900D01*
X128524000Y-73533000D02*
X125105000Y-73533000D01*
X117485000Y-68453000D02*
X118610300Y-68453000D01*
D20*
X127762000Y-88900000D02*
X118618000Y-88900000D01*
X85638000Y-23916000D02*
X101894000Y-23916000D01*
X118618000Y-88900000D02*
X118364000Y-88900000D01*
D19*
X52080000Y-33010000D02*
X53205300Y-33010000D01*
D20*
X128524000Y-88138000D02*
X127762000Y-88900000D01*
X128524000Y-24130000D02*
X128524000Y-56134000D01*
X22860000Y-61058000D02*
X22860000Y-40894000D01*
X128524000Y-56134000D02*
X128524000Y-56388000D01*
X100584000Y-88900000D02*
X100330000Y-88900000D01*
X23358000Y-26172000D02*
X26520000Y-26172000D01*
D19*
X35570000Y-48250000D02*
X38872000Y-48250000D01*
X104907000Y-48255000D02*
X105156000Y-48006000D01*
D20*
X117485000Y-86233000D02*
X120777000Y-86233000D01*
D19*
X128524000Y-78613000D02*
X125105000Y-78613000D01*
X72390000Y-45792300D02*
X75012400Y-45792300D01*
D20*
X101894000Y-23916000D02*
X102108000Y-24130000D01*
D19*
X105156000Y-28702000D02*
X104394000Y-27940000D01*
D20*
X51936000Y-23916000D02*
X53420000Y-25400000D01*
D19*
X39370000Y-47752000D02*
X39370000Y-40630000D01*
X104394000Y-27940000D02*
X102910000Y-27940000D01*
X85100000Y-48255000D02*
X88905000Y-48255000D01*
X121412000Y-25654000D02*
X119888000Y-24130000D01*
X52080000Y-48250000D02*
X55636000Y-48250000D01*
D20*
X86440000Y-24718000D02*
X86440000Y-27940000D01*
D19*
X55880000Y-45875600D02*
X58409100Y-45875600D01*
D20*
X118618000Y-88900000D02*
X118364000Y-88900000D01*
X121412000Y-85598000D02*
X121412000Y-73235500D01*
D19*
X72390000Y-28448000D02*
X71882000Y-27940000D01*
D20*
X118825000Y-24130000D02*
X119888000Y-24130000D01*
D19*
X88905000Y-48255000D02*
X89154000Y-48006000D01*
D20*
X102108000Y-24130000D02*
X102910000Y-24932000D01*
D19*
X38872000Y-48250000D02*
X39370000Y-47752000D01*
X71882000Y-27940000D02*
X69930000Y-27940000D01*
D20*
X24374000Y-39380000D02*
X26520000Y-39380000D01*
X128524000Y-56388000D02*
X120817000Y-56388000D01*
X22860000Y-40894000D02*
X24374000Y-39380000D01*
D19*
X55880000Y-48006000D02*
X55880000Y-45875600D01*
D20*
X121412000Y-59690000D02*
X120142000Y-58420000D01*
D19*
X54864000Y-25400000D02*
X53420000Y-25400000D01*
X89154000Y-48006000D02*
X89154000Y-28956000D01*
D20*
X100584000Y-88900000D02*
X100330000Y-88900000D01*
D19*
%TO.N,A13_2*%
X47931400Y-51866100D02*
X44315300Y-48250000D01*
X43190000Y-48250000D02*
X44315300Y-48250000D01*
X59462400Y-51866100D02*
X47931400Y-51866100D01*
X79551500Y-51359100D02*
X79457000Y-51453600D01*
X59874900Y-51453600D02*
X59462400Y-51866100D01*
X79457000Y-51453600D02*
X59874900Y-51453600D01*
%TO.N,S1*%
X77747200Y-50102800D02*
X82308900Y-50102800D01*
X50009700Y-49131200D02*
X51262700Y-50384200D01*
X91577600Y-47701400D02*
X92438700Y-46840300D01*
X50009700Y-41004300D02*
X50009700Y-49131200D01*
X117485000Y-34295000D02*
X108886100Y-34295000D01*
X92720000Y-45715000D02*
X92720000Y-46840300D01*
X108886100Y-34295000D02*
X105606400Y-37574700D01*
X82308900Y-50102800D02*
X82569600Y-50363500D01*
X105606400Y-37574700D02*
X105606400Y-48195700D01*
X92438700Y-46840300D02*
X92720000Y-46840300D01*
X92281200Y-49419100D02*
X91577600Y-48715500D01*
X91577600Y-48715500D02*
X91577600Y-47701400D01*
X52080000Y-38090000D02*
X52080000Y-39215300D01*
X52080000Y-39215300D02*
X51798700Y-39215300D01*
X105606400Y-48195700D02*
X104383000Y-49419100D01*
X77465800Y-50384200D02*
X77747200Y-50102800D01*
X51262700Y-50384200D02*
X77465800Y-50384200D01*
X104383000Y-49419100D02*
X92281200Y-49419100D01*
X51798700Y-39215300D02*
X50009700Y-41004300D01*
%TO.N,S2*%
X73646700Y-35167200D02*
X75335100Y-36855600D01*
X43190000Y-35550000D02*
X43190000Y-38090000D01*
X75335100Y-36855600D02*
X87217300Y-36855600D01*
%TO.N,Net-(U3-Pad3)*%
X96674700Y-34285000D02*
X100484700Y-38095000D01*
X90486800Y-34285000D02*
X96674700Y-34285000D01*
X101610000Y-38095000D02*
X100484700Y-38095000D01*
X89891800Y-33690000D02*
X90486800Y-34285000D01*
%TO.N,+5V*%
X35288700Y-44295300D02*
X35570000Y-44295300D01*
X31750000Y-47834000D02*
X35288700Y-44295300D01*
X31750000Y-54864000D02*
X31750000Y-47834000D01*
X35570000Y-43170000D02*
X35570000Y-44295300D01*
%TO.N,~{P=Q}*%
X127193100Y-57404000D02*
X127193100Y-62980900D01*
X89879300Y-39239700D02*
X89879300Y-40562500D01*
X127193100Y-62980900D02*
X125386300Y-64787700D01*
X92720000Y-36680300D02*
X92438700Y-36680300D01*
X125105000Y-65913000D02*
X125105000Y-64787700D01*
X125386300Y-64787700D02*
X125105000Y-64787700D01*
X92720000Y-35555000D02*
X92720000Y-36680300D01*
X92438700Y-36680300D02*
X89879300Y-39239700D01*
%TO.N,RES*%
X59700000Y-33010000D02*
X64914700Y-33010000D01*
X64914700Y-33010000D02*
X67464700Y-35560000D01*
X68590000Y-35560000D02*
X67464700Y-35560000D01*
%TO.N,~{CS1}*%
X78486900Y-52121000D02*
X93714800Y-52121000D01*
X59511300Y-52454100D02*
X60061400Y-51904000D01*
X55323900Y-52454100D02*
X59511300Y-52454100D01*
X53195300Y-54864000D02*
X53195300Y-54582700D01*
X52070000Y-54864000D02*
X53195300Y-54864000D01*
X60061400Y-51904000D02*
X78269900Y-51904000D01*
X93714800Y-52121000D02*
X93989900Y-52396100D01*
X78269900Y-51904000D02*
X78486900Y-52121000D01*
X53195300Y-54582700D02*
X55323900Y-52454100D01*
%TO.N,~{REN}*%
X108104700Y-46972500D02*
X104757400Y-50319800D01*
X109230000Y-41760300D02*
X108948600Y-41760300D01*
X109230000Y-40635000D02*
X109230000Y-41760300D01*
X104757400Y-50319800D02*
X84869400Y-50319800D01*
X77335300Y-42785700D02*
X77335300Y-42658000D01*
X108104700Y-42604200D02*
X108104700Y-46972500D01*
X108948600Y-41760300D02*
X108104700Y-42604200D01*
X77335300Y-42658000D02*
X76442600Y-41765300D01*
X76210000Y-40640000D02*
X76210000Y-41765300D01*
X76442600Y-41765300D02*
X76210000Y-41765300D01*
X84869400Y-50319800D02*
X77335300Y-42785700D01*
%TO.N,Net-(U1-Pad5)*%
X83068200Y-49162900D02*
X84675400Y-50770100D01*
X105589600Y-50770100D02*
X108104700Y-48255000D01*
X77188000Y-49162900D02*
X83068200Y-49162900D01*
X76923600Y-49427300D02*
X77188000Y-49162900D01*
X109230000Y-48255000D02*
X108104700Y-48255000D01*
X68590000Y-43180000D02*
X67437300Y-44332700D01*
X67437300Y-44332700D02*
X67437300Y-48735600D01*
X84675400Y-50770100D02*
X105589600Y-50770100D01*
X67437300Y-48735600D02*
X68129000Y-49427300D01*
X68129000Y-49427300D02*
X76923600Y-49427300D01*
%TO.N,Net-(U3-Pad1)*%
X101276400Y-39365000D02*
X92720000Y-47921400D01*
X102748000Y-34997000D02*
X102748000Y-38566300D01*
X101610000Y-33015000D02*
X101610000Y-34140300D01*
X101949300Y-39365000D02*
X101276400Y-39365000D01*
X92720000Y-47921400D02*
X92720000Y-48255000D01*
X101891300Y-34140300D02*
X102748000Y-34997000D01*
X101610000Y-34140300D02*
X101891300Y-34140300D01*
X102748000Y-38566300D02*
X101949300Y-39365000D01*
%TO.N,S3*%
X77374500Y-49613300D02*
X82880800Y-49613300D01*
X82880800Y-49613300D02*
X84487900Y-51220400D01*
X50460000Y-48944600D02*
X51393100Y-49877700D01*
X52080000Y-44295300D02*
X51798600Y-44295300D01*
X51798600Y-44295300D02*
X50460000Y-45633900D01*
X101193700Y-51220400D02*
X101468800Y-51495500D01*
X50460000Y-45633900D02*
X50460000Y-48944600D01*
X84487900Y-51220400D02*
X101193700Y-51220400D01*
X77110100Y-49877700D02*
X77374500Y-49613300D01*
X51393100Y-49877700D02*
X77110100Y-49877700D01*
X52080000Y-43170000D02*
X52080000Y-44295300D01*
%TO.N,S0*%
X52080000Y-35550000D02*
X50954700Y-35550000D01*
X50954700Y-35550000D02*
X44315300Y-42189400D01*
X43190000Y-43170000D02*
X44315300Y-43170000D01*
X44315300Y-42189400D02*
X44315300Y-43170000D01*
%TO.N,Net-(U1-Pad12)*%
X83680300Y-44445000D02*
X77335300Y-38100000D01*
X83962000Y-48768300D02*
X83962000Y-47754400D01*
X106615700Y-47823300D02*
X104569500Y-49869500D01*
X108948700Y-39220300D02*
X106615700Y-41553300D01*
X104569500Y-49869500D02*
X85063200Y-49869500D01*
X85494300Y-46985000D02*
X86276300Y-46203000D01*
X109230000Y-38095000D02*
X109230000Y-39220300D01*
X85447600Y-44445000D02*
X83680300Y-44445000D01*
X86276300Y-46203000D02*
X86276300Y-45273700D01*
X76210000Y-38100000D02*
X77335300Y-38100000D01*
X86276300Y-45273700D02*
X85447600Y-44445000D01*
X83962000Y-47754400D02*
X84731400Y-46985000D01*
X85063200Y-49869500D02*
X83962000Y-48768300D01*
X84731400Y-46985000D02*
X85494300Y-46985000D01*
X106615700Y-41553300D02*
X106615700Y-47823300D01*
X109230000Y-39220300D02*
X108948700Y-39220300D01*
%TO.N,Net-(U1-Pad3)*%
X76601100Y-39230900D02*
X73118100Y-39230900D01*
X83085200Y-45715000D02*
X76601100Y-39230900D01*
X85100000Y-45715000D02*
X83085200Y-45715000D01*
%TO.N,Net-(U1-Pad4)*%
X61124700Y-46980000D02*
X67464700Y-40640000D01*
X68590000Y-40640000D02*
X67464700Y-40640000D01*
X51610500Y-49396100D02*
X55444600Y-49396100D01*
X57860700Y-46980000D02*
X61124700Y-46980000D01*
X55444600Y-49396100D02*
X57860700Y-46980000D01*
X52080000Y-45710000D02*
X52080000Y-46835300D01*
X52080000Y-46835300D02*
X51842800Y-46835300D01*
X51842800Y-46835300D02*
X50954700Y-47723400D01*
X50954700Y-47723400D02*
X50954700Y-48740300D01*
X50954700Y-48740300D02*
X51610500Y-49396100D01*
%TO.N,EO*%
X68590000Y-45720000D02*
X68590000Y-44594700D01*
X68917500Y-39370000D02*
X66055300Y-39370000D01*
X68871300Y-44594700D02*
X69715400Y-43750600D01*
X60820700Y-34135400D02*
X57412800Y-34135400D01*
X68590000Y-44594700D02*
X68871300Y-44594700D01*
X66055300Y-39370000D02*
X60820700Y-34135400D01*
X69715400Y-43750600D02*
X69715400Y-40167900D01*
X69715400Y-40167900D02*
X68917500Y-39370000D01*
X57412800Y-34135400D02*
X57041000Y-33763600D01*
%TD*%
M02*
