%TF.GenerationSoftware,KiCad,Pcbnew,(6.0.9)*%
%TF.CreationDate,2023-11-03T09:01:54+01:00*%
%TF.ProjectId,p2000t-ram-expansion-board,70323030-3074-42d7-9261-6d2d65787061,rev?*%
%TF.SameCoordinates,Original*%
%TF.FileFunction,Copper,L2,Bot*%
%TF.FilePolarity,Positive*%
%FSLAX46Y46*%
G04 Gerber Fmt 4.6, Leading zero omitted, Abs format (unit mm)*
G04 Created by KiCad (PCBNEW (6.0.9)) date 2023-11-03 09:01:54*
%MOMM*%
%LPD*%
G01*
G04 APERTURE LIST*
%TA.AperFunction,ComponentPad*%
%ADD10C,1.600000*%
%TD*%
%TA.AperFunction,ComponentPad*%
%ADD11R,1.600000X1.600000*%
%TD*%
%TA.AperFunction,ComponentPad*%
%ADD12O,1.600000X1.600000*%
%TD*%
%TA.AperFunction,ComponentPad*%
%ADD13R,1.700000X1.700000*%
%TD*%
%TA.AperFunction,ComponentPad*%
%ADD14O,1.700000X1.700000*%
%TD*%
%TA.AperFunction,ComponentPad*%
%ADD15R,3.000000X3.000000*%
%TD*%
%TA.AperFunction,ComponentPad*%
%ADD16C,3.000000*%
%TD*%
%TA.AperFunction,ViaPad*%
%ADD17C,0.800000*%
%TD*%
%TA.AperFunction,Conductor*%
%ADD18C,0.250000*%
%TD*%
%TA.AperFunction,Conductor*%
%ADD19C,0.500000*%
%TD*%
G04 APERTURE END LIST*
D10*
%TO.P,C1,1*%
%TO.N,+5V*%
X91440000Y-27940000D03*
%TO.P,C1,2*%
%TO.N,GND*%
X86440000Y-27940000D03*
%TD*%
D11*
%TO.P,U5,1,G*%
%TO.N,~{IORQ}*%
X118120000Y-54864000D03*
D12*
%TO.P,U5,2,P0*%
%TO.N,A0*%
X118120000Y-57404000D03*
%TO.P,U5,3,R0*%
%TO.N,GND*%
X118120000Y-59944000D03*
%TO.P,U5,4,P1*%
%TO.N,A1*%
X118120000Y-62484000D03*
%TO.P,U5,5,R1*%
%TO.N,GND*%
X118120000Y-65024000D03*
%TO.P,U5,6,P2*%
%TO.N,A2*%
X118120000Y-67564000D03*
%TO.P,U5,7,R2*%
%TO.N,+5V*%
X118120000Y-70104000D03*
%TO.P,U5,8,P3*%
%TO.N,A3*%
X118120000Y-72644000D03*
%TO.P,U5,9,R3*%
%TO.N,GND*%
X118120000Y-75184000D03*
%TO.P,U5,10,GND*%
X118120000Y-77724000D03*
%TO.P,U5,11,P4*%
%TO.N,A4*%
X125740000Y-77724000D03*
%TO.P,U5,12,R4*%
%TO.N,+5V*%
X125740000Y-75184000D03*
%TO.P,U5,13,P5*%
%TO.N,A5*%
X125740000Y-72644000D03*
%TO.P,U5,14,R5*%
%TO.N,GND*%
X125740000Y-70104000D03*
%TO.P,U5,15,P6*%
%TO.N,A6*%
X125740000Y-67564000D03*
%TO.P,U5,16,R6*%
%TO.N,GND*%
X125740000Y-65024000D03*
%TO.P,U5,17,P7*%
%TO.N,A7*%
X125740000Y-62484000D03*
%TO.P,U5,18,R7*%
%TO.N,+5V*%
X125740000Y-59944000D03*
%TO.P,U5,19,P=R*%
%TO.N,Net-(U5-Pad19)*%
X125740000Y-57404000D03*
%TO.P,U5,20,VCC*%
%TO.N,+5V*%
X125740000Y-54864000D03*
%TD*%
D10*
%TO.P,C9,1*%
%TO.N,+5V*%
X74930000Y-27940000D03*
%TO.P,C9,2*%
%TO.N,GND*%
X69930000Y-27940000D03*
%TD*%
D11*
%TO.P,D1,1,K*%
%TO.N,+5V*%
X26520000Y-54620000D03*
D12*
%TO.P,D1,2,A*%
%TO.N,VCC*%
X26520000Y-47000000D03*
%TD*%
D10*
%TO.P,C5,1*%
%TO.N,+5V*%
X58420000Y-25400000D03*
%TO.P,C5,2*%
%TO.N,GND*%
X53420000Y-25400000D03*
%TD*%
%TO.P,C6,1*%
%TO.N,+5V*%
X72390000Y-59730000D03*
%TO.P,C6,2*%
%TO.N,GND*%
X72390000Y-64730000D03*
%TD*%
D11*
%TO.P,U1,1*%
%TO.N,~{RES}*%
X68590000Y-33020000D03*
D12*
%TO.P,U1,2*%
%TO.N,RES*%
X68590000Y-35560000D03*
%TO.P,U1,3*%
%TO.N,Net-(U1-Pad3)*%
X68590000Y-38100000D03*
%TO.P,U1,4*%
%TO.N,Net-(U1-Pad4)*%
X68590000Y-40640000D03*
%TO.P,U1,5*%
%TO.N,Net-(U1-Pad5)*%
X68590000Y-43180000D03*
%TO.P,U1,6*%
%TO.N,EO*%
X68590000Y-45720000D03*
%TO.P,U1,7,GND*%
%TO.N,GND*%
X68590000Y-48260000D03*
%TO.P,U1,8*%
%TO.N,unconnected-(U1-Pad8)*%
X76210000Y-48260000D03*
%TO.P,U1,9*%
%TO.N,GND*%
X76210000Y-45720000D03*
%TO.P,U1,10*%
%TO.N,Net-(U1-Pad10)*%
X76210000Y-43180000D03*
%TO.P,U1,11*%
%TO.N,Net-(U1-Pad11)*%
X76210000Y-40640000D03*
%TO.P,U1,12*%
%TO.N,Net-(U1-Pad12)*%
X76210000Y-38100000D03*
%TO.P,U1,13*%
%TO.N,~{MRQ}*%
X76210000Y-35560000D03*
%TO.P,U1,14,VCC*%
%TO.N,+5V*%
X76210000Y-33020000D03*
%TD*%
D10*
%TO.P,C7,1*%
%TO.N,+5V*%
X26670000Y-59868000D03*
%TO.P,C7,2*%
%TO.N,GND*%
X26670000Y-64868000D03*
%TD*%
D11*
%TO.P,U8,1,S*%
%TO.N,EO*%
X35570000Y-30470000D03*
D12*
%TO.P,U8,2,I0a*%
%TO.N,GND*%
X35570000Y-33010000D03*
%TO.P,U8,3,I1a*%
%TO.N,S0*%
X35570000Y-35550000D03*
%TO.P,U8,4,Za*%
%TO.N,A13_1*%
X35570000Y-38090000D03*
%TO.P,U8,5,I0b*%
%TO.N,GND*%
X35570000Y-40630000D03*
%TO.P,U8,6,I1b*%
%TO.N,+5V*%
X35570000Y-43170000D03*
%TO.P,U8,7,Zb*%
%TO.N,A14_1*%
X35570000Y-45710000D03*
%TO.P,U8,8,GND*%
%TO.N,GND*%
X35570000Y-48250000D03*
%TO.P,U8,9,Zc*%
%TO.N,A13_2*%
X43190000Y-48250000D03*
%TO.P,U8,10,I1c*%
%TO.N,S0*%
X43190000Y-45710000D03*
%TO.P,U8,11,I0c*%
X43190000Y-43170000D03*
%TO.P,U8,12,Zd*%
%TO.N,A14_2*%
X43190000Y-40630000D03*
%TO.P,U8,13,I1d*%
%TO.N,S2*%
X43190000Y-38090000D03*
%TO.P,U8,14,I0d*%
X43190000Y-35550000D03*
%TO.P,U8,15,E*%
%TO.N,GND*%
X43190000Y-33010000D03*
%TO.P,U8,16,VCC*%
%TO.N,+5V*%
X43190000Y-30470000D03*
%TD*%
D11*
%TO.P,C3,1*%
%TO.N,+5V*%
X25400000Y-80010000D03*
D10*
%TO.P,C3,2*%
%TO.N,GND*%
X27900000Y-80010000D03*
%TD*%
%TO.P,C4,1*%
%TO.N,+5V*%
X107910000Y-27940000D03*
%TO.P,C4,2*%
%TO.N,GND*%
X102910000Y-27940000D03*
%TD*%
%TO.P,C2,1*%
%TO.N,+5V*%
X41870000Y-25400000D03*
%TO.P,C2,2*%
%TO.N,GND*%
X36870000Y-25400000D03*
%TD*%
D11*
%TO.P,U4,1,A14*%
%TO.N,A14_2*%
X31750000Y-69993000D03*
D12*
%TO.P,U4,2,A12*%
%TO.N,A12*%
X34290000Y-69993000D03*
%TO.P,U4,3,A7*%
%TO.N,A7*%
X36830000Y-69993000D03*
%TO.P,U4,4,A6*%
%TO.N,A6*%
X39370000Y-69993000D03*
%TO.P,U4,5,A5*%
%TO.N,A5*%
X41910000Y-69993000D03*
%TO.P,U4,6,A4*%
%TO.N,A4*%
X44450000Y-69993000D03*
%TO.P,U4,7,A3*%
%TO.N,A3*%
X46990000Y-69993000D03*
%TO.P,U4,8,A2*%
%TO.N,A2*%
X49530000Y-69993000D03*
%TO.P,U4,9,A1*%
%TO.N,A1*%
X52070000Y-69993000D03*
%TO.P,U4,10,A0*%
%TO.N,A0*%
X54610000Y-69993000D03*
%TO.P,U4,11,Q0*%
%TO.N,D0*%
X57150000Y-69993000D03*
%TO.P,U4,12,Q1*%
%TO.N,D1*%
X59690000Y-69993000D03*
%TO.P,U4,13,Q2*%
%TO.N,D2*%
X62230000Y-69993000D03*
%TO.P,U4,14,GND*%
%TO.N,GND*%
X64770000Y-69993000D03*
%TO.P,U4,15,Q3*%
%TO.N,D3*%
X64770000Y-54753000D03*
%TO.P,U4,16,Q4*%
%TO.N,D4*%
X62230000Y-54753000D03*
%TO.P,U4,17,Q5*%
%TO.N,D5*%
X59690000Y-54753000D03*
%TO.P,U4,18,Q6*%
%TO.N,D6*%
X57150000Y-54753000D03*
%TO.P,U4,19,Q7*%
%TO.N,D7*%
X54610000Y-54753000D03*
%TO.P,U4,20,~{CS}*%
%TO.N,~{CS2}*%
X52070000Y-54753000D03*
%TO.P,U4,21,A10*%
%TO.N,A10*%
X49530000Y-54753000D03*
%TO.P,U4,22,~{OE}*%
%TO.N,~{RD}*%
X46990000Y-54753000D03*
%TO.P,U4,23,A11*%
%TO.N,A11*%
X44450000Y-54753000D03*
%TO.P,U4,24,A9*%
%TO.N,A9*%
X41910000Y-54753000D03*
%TO.P,U4,25,A8*%
%TO.N,A8*%
X39370000Y-54753000D03*
%TO.P,U4,26,A13*%
%TO.N,A13_2*%
X36830000Y-54753000D03*
%TO.P,U4,27,~{WE}*%
%TO.N,~{WR}*%
X34290000Y-54753000D03*
%TO.P,U4,28,VCC*%
%TO.N,+5V*%
X31750000Y-54753000D03*
%TD*%
D13*
%TO.P,J2,1,Pin_1*%
%TO.N,GND*%
X26520000Y-39380000D03*
D14*
%TO.P,J2,2,Pin_2*%
%TO.N,VCC*%
X26520000Y-41920000D03*
%TD*%
D11*
%TO.P,U6,1*%
%TO.N,Net-(U1-Pad11)*%
X85100000Y-33015000D03*
D12*
%TO.P,U6,2*%
%TO.N,~{REN}*%
X85100000Y-35555000D03*
%TO.P,U6,3*%
%TO.N,~{CS2}*%
X85100000Y-38095000D03*
%TO.P,U6,4*%
%TO.N,Net-(U5-Pad19)*%
X85100000Y-40635000D03*
%TO.P,U6,5*%
%TO.N,~{WR}*%
X85100000Y-43175000D03*
%TO.P,U6,6*%
%TO.N,Net-(U1-Pad3)*%
X85100000Y-45715000D03*
%TO.P,U6,7,GND*%
%TO.N,GND*%
X85100000Y-48255000D03*
%TO.P,U6,8*%
%TO.N,Net-(U3-Pad1)*%
X92720000Y-48255000D03*
%TO.P,U6,9*%
%TO.N,S1*%
X92720000Y-45715000D03*
%TO.P,U6,10*%
%TO.N,S2*%
X92720000Y-43175000D03*
%TO.P,U6,11*%
%TO.N,~{CS1}*%
X92720000Y-40635000D03*
%TO.P,U6,12*%
%TO.N,Net-(U1-Pad10)*%
X92720000Y-38095000D03*
%TO.P,U6,13*%
%TO.N,~{REN}*%
X92720000Y-35555000D03*
%TO.P,U6,14,VCC*%
%TO.N,+5V*%
X92720000Y-33015000D03*
%TD*%
D11*
%TO.P,U7,1,Oe1*%
%TO.N,GND*%
X52080000Y-30470000D03*
D12*
%TO.P,U7,2,Oe2*%
X52080000Y-33010000D03*
%TO.P,U7,3,Q0*%
%TO.N,S0*%
X52080000Y-35550000D03*
%TO.P,U7,4,Q1*%
%TO.N,S1*%
X52080000Y-38090000D03*
%TO.P,U7,5,Q2*%
%TO.N,S2*%
X52080000Y-40630000D03*
%TO.P,U7,6,Q3*%
%TO.N,unconnected-(U7-Pad6)*%
X52080000Y-43170000D03*
%TO.P,U7,7,Cp*%
%TO.N,Net-(U1-Pad4)*%
X52080000Y-45710000D03*
%TO.P,U7,8,GND*%
%TO.N,GND*%
X52080000Y-48250000D03*
%TO.P,U7,9,E1*%
X59700000Y-48250000D03*
%TO.P,U7,10,E2*%
X59700000Y-45710000D03*
%TO.P,U7,11,D3*%
%TO.N,D3*%
X59700000Y-43170000D03*
%TO.P,U7,12,D2*%
%TO.N,D2*%
X59700000Y-40630000D03*
%TO.P,U7,13,D1*%
%TO.N,D1*%
X59700000Y-38090000D03*
%TO.P,U7,14,D0*%
%TO.N,D0*%
X59700000Y-35550000D03*
%TO.P,U7,15,Mr*%
%TO.N,RES*%
X59700000Y-33010000D03*
%TO.P,U7,16,VCC*%
%TO.N,+5V*%
X59700000Y-30470000D03*
%TD*%
D10*
%TO.P,C8,1*%
%TO.N,+5V*%
X124420000Y-49276000D03*
%TO.P,C8,2*%
%TO.N,GND*%
X119420000Y-49276000D03*
%TD*%
D11*
%TO.P,U2,1,A14*%
%TO.N,A14_1*%
X77495000Y-69855000D03*
D12*
%TO.P,U2,2,A12*%
%TO.N,A12*%
X80035000Y-69855000D03*
%TO.P,U2,3,A7*%
%TO.N,A7*%
X82575000Y-69855000D03*
%TO.P,U2,4,A6*%
%TO.N,A6*%
X85115000Y-69855000D03*
%TO.P,U2,5,A5*%
%TO.N,A5*%
X87655000Y-69855000D03*
%TO.P,U2,6,A4*%
%TO.N,A4*%
X90195000Y-69855000D03*
%TO.P,U2,7,A3*%
%TO.N,A3*%
X92735000Y-69855000D03*
%TO.P,U2,8,A2*%
%TO.N,A2*%
X95275000Y-69855000D03*
%TO.P,U2,9,A1*%
%TO.N,A1*%
X97815000Y-69855000D03*
%TO.P,U2,10,A0*%
%TO.N,A0*%
X100355000Y-69855000D03*
%TO.P,U2,11,Q0*%
%TO.N,D0*%
X102895000Y-69855000D03*
%TO.P,U2,12,Q1*%
%TO.N,D1*%
X105435000Y-69855000D03*
%TO.P,U2,13,Q2*%
%TO.N,D2*%
X107975000Y-69855000D03*
%TO.P,U2,14,GND*%
%TO.N,GND*%
X110515000Y-69855000D03*
%TO.P,U2,15,Q3*%
%TO.N,D3*%
X110515000Y-54615000D03*
%TO.P,U2,16,Q4*%
%TO.N,D4*%
X107975000Y-54615000D03*
%TO.P,U2,17,Q5*%
%TO.N,D5*%
X105435000Y-54615000D03*
%TO.P,U2,18,Q6*%
%TO.N,D6*%
X102895000Y-54615000D03*
%TO.P,U2,19,Q7*%
%TO.N,D7*%
X100355000Y-54615000D03*
%TO.P,U2,20,~{CS}*%
%TO.N,~{CS1}*%
X97815000Y-54615000D03*
%TO.P,U2,21,A10*%
%TO.N,A10*%
X95275000Y-54615000D03*
%TO.P,U2,22,~{OE}*%
%TO.N,~{RD}*%
X92735000Y-54615000D03*
%TO.P,U2,23,A11*%
%TO.N,A11*%
X90195000Y-54615000D03*
%TO.P,U2,24,A9*%
%TO.N,A9*%
X87655000Y-54615000D03*
%TO.P,U2,25,A8*%
%TO.N,A8*%
X85115000Y-54615000D03*
%TO.P,U2,26,A13*%
%TO.N,A13_1*%
X82575000Y-54615000D03*
%TO.P,U2,27,~{WE}*%
%TO.N,~{WR}*%
X80035000Y-54615000D03*
%TO.P,U2,28,VCC*%
%TO.N,+5V*%
X77495000Y-54615000D03*
%TD*%
D15*
%TO.P,J3,1,Pin_1*%
%TO.N,GND*%
X26520000Y-26172000D03*
D16*
%TO.P,J3,2,Pin_2*%
%TO.N,VCC*%
X26520000Y-31252000D03*
%TD*%
D11*
%TO.P,U3,1*%
%TO.N,Net-(U3-Pad1)*%
X101610000Y-33015000D03*
D12*
%TO.P,U3,2*%
%TO.N,EO*%
X101610000Y-35555000D03*
%TO.P,U3,3*%
%TO.N,Net-(U1-Pad11)*%
X101610000Y-38095000D03*
%TO.P,U3,4*%
%TO.N,GND*%
X101610000Y-40635000D03*
%TO.P,U3,5*%
X101610000Y-43175000D03*
%TO.P,U3,6*%
%TO.N,unconnected-(U3-Pad6)*%
X101610000Y-45715000D03*
%TO.P,U3,7,GND*%
%TO.N,GND*%
X101610000Y-48255000D03*
%TO.P,U3,8*%
%TO.N,Net-(U1-Pad5)*%
X109230000Y-48255000D03*
%TO.P,U3,9*%
%TO.N,A13*%
X109230000Y-45715000D03*
%TO.P,U3,10*%
%TO.N,A14*%
X109230000Y-43175000D03*
%TO.P,U3,11*%
%TO.N,~{REN}*%
X109230000Y-40635000D03*
%TO.P,U3,12*%
%TO.N,Net-(U1-Pad12)*%
X109230000Y-38095000D03*
%TO.P,U3,13*%
%TO.N,RAMS2*%
X109230000Y-35555000D03*
%TO.P,U3,14,VCC*%
%TO.N,+5V*%
X109230000Y-33015000D03*
%TD*%
D13*
%TO.P,J1,1,Pin_1*%
%TO.N,GND*%
X99055000Y-80518000D03*
D14*
%TO.P,J1,2,Pin_2*%
%TO.N,unconnected-(J1-Pad2)*%
X99055000Y-77978000D03*
%TO.P,J1,3,Pin_3*%
%TO.N,D0*%
X96515000Y-80518000D03*
%TO.P,J1,4,Pin_4*%
%TO.N,D1*%
X96515000Y-77978000D03*
%TO.P,J1,5,Pin_5*%
%TO.N,D2*%
X93975000Y-80518000D03*
%TO.P,J1,6,Pin_6*%
%TO.N,D3*%
X93975000Y-77978000D03*
%TO.P,J1,7,Pin_7*%
%TO.N,D4*%
X91435000Y-80518000D03*
%TO.P,J1,8,Pin_8*%
%TO.N,D5*%
X91435000Y-77978000D03*
%TO.P,J1,9,Pin_9*%
%TO.N,D6*%
X88895000Y-80518000D03*
%TO.P,J1,10,Pin_10*%
%TO.N,D7*%
X88895000Y-77978000D03*
%TO.P,J1,11,Pin_11*%
%TO.N,A0*%
X86355000Y-80518000D03*
%TO.P,J1,12,Pin_12*%
%TO.N,A1*%
X86355000Y-77978000D03*
%TO.P,J1,13,Pin_13*%
%TO.N,A2*%
X83815000Y-80518000D03*
%TO.P,J1,14,Pin_14*%
%TO.N,A3*%
X83815000Y-77978000D03*
%TO.P,J1,15,Pin_15*%
%TO.N,A4*%
X81275000Y-80518000D03*
%TO.P,J1,16,Pin_16*%
%TO.N,A5*%
X81275000Y-77978000D03*
%TO.P,J1,17,Pin_17*%
%TO.N,A6*%
X78735000Y-80518000D03*
%TO.P,J1,18,Pin_18*%
%TO.N,A7*%
X78735000Y-77978000D03*
%TO.P,J1,19,Pin_19*%
%TO.N,A8*%
X76195000Y-80518000D03*
%TO.P,J1,20,Pin_20*%
%TO.N,A9*%
X76195000Y-77978000D03*
%TO.P,J1,21,Pin_21*%
%TO.N,A10*%
X73655000Y-80518000D03*
%TO.P,J1,22,Pin_22*%
%TO.N,A11*%
X73655000Y-77978000D03*
%TO.P,J1,23,Pin_23*%
%TO.N,A12*%
X71115000Y-80518000D03*
%TO.P,J1,24,Pin_24*%
%TO.N,A13*%
X71115000Y-77978000D03*
%TO.P,J1,25,Pin_25*%
%TO.N,A14*%
X68575000Y-80518000D03*
%TO.P,J1,26,Pin_26*%
%TO.N,RAMS2*%
X68575000Y-77978000D03*
%TO.P,J1,27,Pin_27*%
%TO.N,~{MRQ}*%
X66035000Y-80518000D03*
%TO.P,J1,28,Pin_28*%
%TO.N,~{RD}*%
X66035000Y-77978000D03*
%TO.P,J1,29,Pin_29*%
%TO.N,unconnected-(J1-Pad29)*%
X63495000Y-80518000D03*
%TO.P,J1,30,Pin_30*%
%TO.N,~{WR}*%
X63495000Y-77978000D03*
%TO.P,J1,31,Pin_31*%
%TO.N,~{IORQ}*%
X60955000Y-80518000D03*
%TO.P,J1,32,Pin_32*%
%TO.N,unconnected-(J1-Pad32)*%
X60955000Y-77978000D03*
%TO.P,J1,33,Pin_33*%
%TO.N,unconnected-(J1-Pad33)*%
X58415000Y-80518000D03*
%TO.P,J1,34,Pin_34*%
%TO.N,~{RES}*%
X58415000Y-77978000D03*
%TO.P,J1,35,Pin_35*%
%TO.N,unconnected-(J1-Pad35)*%
X55875000Y-80518000D03*
%TO.P,J1,36,Pin_36*%
%TO.N,unconnected-(J1-Pad36)*%
X55875000Y-77978000D03*
%TO.P,J1,37,Pin_37*%
%TO.N,unconnected-(J1-Pad37)*%
X53335000Y-80518000D03*
%TO.P,J1,38,Pin_38*%
%TO.N,unconnected-(J1-Pad38)*%
X53335000Y-77978000D03*
%TO.P,J1,39,Pin_39*%
%TO.N,unconnected-(J1-Pad39)*%
X50795000Y-80518000D03*
%TO.P,J1,40,Pin_40*%
%TO.N,unconnected-(J1-Pad40)*%
X50795000Y-77978000D03*
%TD*%
D17*
%TO.N,A14_1*%
X67038300Y-68826100D03*
%TO.N,D3*%
X97439400Y-64812200D03*
X65802200Y-63447100D03*
%TO.N,D4*%
X65988600Y-64772400D03*
X91609600Y-65873700D03*
%TO.N,D5*%
X88819000Y-65853800D03*
X65843300Y-65973300D03*
%TO.N,D6*%
X108952400Y-60918500D03*
X76422100Y-56936300D03*
X68968700Y-56323400D03*
%TO.N,D7*%
X83522600Y-66728700D03*
X69024600Y-58975100D03*
X71830900Y-67566700D03*
%TO.N,A0*%
X107117000Y-61620500D03*
%TO.N,A1*%
X61490400Y-71927600D03*
%TO.N,A3*%
X85252000Y-83261900D03*
%TO.N,A4*%
X88728700Y-84264200D03*
%TO.N,A9*%
X60132500Y-73562500D03*
X69534900Y-73651100D03*
%TO.N,A10*%
X57391900Y-71865300D03*
X68277800Y-76063200D03*
%TO.N,A11*%
X83554800Y-50409000D03*
X68795800Y-74461600D03*
%TO.N,~{RD}*%
X55028600Y-71849600D03*
%TO.N,~{WR}*%
X70036400Y-60020000D03*
%TO.N,~{IORQ}*%
X75013700Y-79536200D03*
%TO.N,A13_1*%
X74223600Y-48500400D03*
%TO.N,~{CS2}*%
X74974100Y-53627700D03*
%TO.N,S2*%
X88257600Y-37696100D03*
%TO.N,Net-(U5-Pad19)*%
X95394700Y-53165200D03*
%TO.N,Net-(U1-Pad10)*%
X81144000Y-42703700D03*
%TO.N,Net-(U1-Pad3)*%
X78225000Y-43639300D03*
%TO.N,Net-(U1-Pad11)*%
X81133900Y-40035800D03*
%TD*%
D18*
%TO.N,A14_1*%
X35570000Y-45710000D02*
X36695300Y-45710000D01*
X44191800Y-46835300D02*
X37820600Y-46835300D01*
X51667100Y-39360000D02*
X44191800Y-46835300D01*
X67038300Y-68826100D02*
X67171600Y-68692800D01*
X66993300Y-45713900D02*
X61894200Y-40614800D01*
X66993300Y-62993400D02*
X66993300Y-45713900D01*
X60178000Y-34419600D02*
X57393400Y-34419600D01*
X37820600Y-46835300D02*
X36695300Y-45710000D01*
X52453000Y-39360000D02*
X51667100Y-39360000D01*
X61894200Y-36135800D02*
X60178000Y-34419600D01*
X61894200Y-40614800D02*
X61894200Y-36135800D01*
X67171600Y-68692800D02*
X67171600Y-63171700D01*
X67171600Y-63171700D02*
X66993300Y-62993400D01*
X57393400Y-34419600D02*
X52453000Y-39360000D01*
%TO.N,D0*%
X55958000Y-59126500D02*
X57150000Y-60318500D01*
X96835600Y-79342700D02*
X97785000Y-78393300D01*
X59418600Y-36675300D02*
X55958000Y-40135900D01*
X96515000Y-80518000D02*
X96515000Y-79342700D01*
X97785000Y-78393300D02*
X97785000Y-76090300D01*
X96515000Y-79342700D02*
X96835600Y-79342700D01*
X57150000Y-60318500D02*
X57150000Y-68867700D01*
X57150000Y-69993000D02*
X57150000Y-68867700D01*
X59700000Y-36675300D02*
X59418600Y-36675300D01*
X97785000Y-76090300D02*
X102895000Y-70980300D01*
X102895000Y-69855000D02*
X102895000Y-70980300D01*
X59700000Y-35550000D02*
X59700000Y-36675300D01*
X55958000Y-40135900D02*
X55958000Y-59126500D01*
%TO.N,D1*%
X58558500Y-67736200D02*
X58558500Y-40075500D01*
X59690000Y-69993000D02*
X59690000Y-68867700D01*
X58558500Y-40075500D02*
X59418700Y-39215300D01*
X59700000Y-38090000D02*
X59700000Y-39215300D01*
X59690000Y-68867700D02*
X58558500Y-67736200D01*
X59418700Y-39215300D02*
X59700000Y-39215300D01*
%TO.N,D2*%
X66718300Y-66124100D02*
X66718300Y-63355300D01*
X59700000Y-40630000D02*
X59700000Y-41755300D01*
X63355300Y-69993000D02*
X63355300Y-69487100D01*
X97879700Y-80838200D02*
X97879700Y-79533200D01*
X93975000Y-80518000D02*
X95150300Y-80518000D01*
X97012900Y-81705000D02*
X97879700Y-80838200D01*
X95150300Y-80885300D02*
X95970000Y-81705000D01*
X99612700Y-79342600D02*
X107975000Y-70980300D01*
X95970000Y-81705000D02*
X97012900Y-81705000D01*
X98070300Y-79342600D02*
X99612700Y-79342600D01*
X95150300Y-80518000D02*
X95150300Y-80885300D01*
X66543000Y-48393800D02*
X59904500Y-41755300D01*
X62230000Y-69993000D02*
X63355300Y-69993000D01*
X107975000Y-69855000D02*
X107975000Y-70980300D01*
X59904500Y-41755300D02*
X59700000Y-41755300D01*
X66543000Y-63180000D02*
X66543000Y-48393800D01*
X66718300Y-63355300D02*
X66543000Y-63180000D01*
X63355300Y-69487100D02*
X66718300Y-66124100D01*
X97879700Y-79533200D02*
X98070300Y-79342600D01*
%TO.N,D3*%
X105793300Y-56458300D02*
X107827700Y-56458300D01*
X59700000Y-43170000D02*
X59700000Y-44295300D01*
X110515000Y-54615000D02*
X109389700Y-54615000D01*
X64770000Y-54753000D02*
X64770000Y-62414900D01*
X59904500Y-44295300D02*
X64770000Y-49160800D01*
X59700000Y-44295300D02*
X59904500Y-44295300D01*
X64770000Y-49160800D02*
X64770000Y-54753000D01*
X107827700Y-56458300D02*
X109389700Y-54896300D01*
X97439400Y-64812200D02*
X105793300Y-56458300D01*
X64770000Y-62414900D02*
X65802200Y-63447100D01*
X109389700Y-54896300D02*
X109389700Y-54615000D01*
%TO.N,D4*%
X62230000Y-61013800D02*
X62230000Y-54753000D01*
X106849700Y-54615000D02*
X106849700Y-54791900D01*
X105847300Y-55794300D02*
X104892600Y-55794300D01*
X104892600Y-55794300D02*
X94813200Y-65873700D01*
X106849700Y-54791900D02*
X105847300Y-55794300D01*
X94813200Y-65873700D02*
X91609600Y-65873700D01*
X107975000Y-54615000D02*
X106849700Y-54615000D01*
X65988600Y-64772400D02*
X62230000Y-61013800D01*
%TO.N,D5*%
X65843300Y-65973300D02*
X59690000Y-59820000D01*
X88819000Y-65853800D02*
X94625600Y-60047200D01*
X100002800Y-60047200D02*
X105435000Y-54615000D01*
X94625600Y-60047200D02*
X100002800Y-60047200D01*
X59690000Y-59820000D02*
X59690000Y-54753000D01*
%TO.N,D6*%
X91771300Y-79342700D02*
X92705000Y-78409000D01*
X90878200Y-79342700D02*
X91771300Y-79342700D01*
X92705000Y-78409000D02*
X92705000Y-77566800D01*
X92705000Y-77566800D02*
X99151500Y-71120300D01*
X101625000Y-70179700D02*
X101625000Y-68245900D01*
X99151500Y-71120300D02*
X100684400Y-71120300D01*
X90070300Y-80518000D02*
X90070300Y-80150600D01*
X76422100Y-56936300D02*
X69581600Y-56936300D01*
X101625000Y-68245900D02*
X108952400Y-60918500D01*
X100684400Y-71120300D02*
X101625000Y-70179700D01*
X88895000Y-80518000D02*
X90070300Y-80518000D01*
X90070300Y-80150600D02*
X90878200Y-79342700D01*
X69581600Y-56936300D02*
X68968700Y-56323400D01*
%TO.N,D7*%
X69024600Y-64760400D02*
X69024600Y-58975100D01*
X93049000Y-57202300D02*
X83522600Y-66728700D01*
X100355000Y-54615000D02*
X97767700Y-57202300D01*
X97767700Y-57202300D02*
X93049000Y-57202300D01*
X71830900Y-67566700D02*
X69024600Y-64760400D01*
%TO.N,A0*%
X90070400Y-77678300D02*
X90070400Y-78503600D01*
X88338200Y-79342700D02*
X87530300Y-80150600D01*
X100355000Y-69726700D02*
X100355000Y-68729700D01*
X89231300Y-79342700D02*
X88338200Y-79342700D01*
X100355000Y-68729700D02*
X107117000Y-61967700D01*
X86355000Y-80518000D02*
X87530300Y-80518000D01*
X100355000Y-69726700D02*
X99908200Y-69726700D01*
X90070400Y-78503600D02*
X89231300Y-79342700D01*
X94430100Y-75204800D02*
X92543900Y-75204800D01*
X100355000Y-69855000D02*
X100355000Y-69726700D01*
X92543900Y-75204800D02*
X90070400Y-77678300D01*
X107117000Y-61967700D02*
X107117000Y-61620500D01*
X99908200Y-69726700D02*
X94430100Y-75204800D01*
X87530300Y-80150600D02*
X87530300Y-80518000D01*
%TO.N,A1*%
X107529700Y-60140300D02*
X114651000Y-60140300D01*
X54676700Y-72599700D02*
X60818300Y-72599700D01*
X118120000Y-62484000D02*
X116994700Y-62484000D01*
X95845800Y-70980300D02*
X96689700Y-70136400D01*
X98940300Y-68729700D02*
X107529700Y-60140300D01*
X98940300Y-69855000D02*
X98940300Y-68729700D01*
X60818300Y-72599700D02*
X61490400Y-71927600D01*
X87530300Y-77978000D02*
X87530300Y-77610700D01*
X97815000Y-69855000D02*
X96689700Y-69855000D01*
X52070000Y-69993000D02*
X54676700Y-72599700D01*
X94160700Y-70980300D02*
X95845800Y-70980300D01*
X96689700Y-70136400D02*
X96689700Y-69855000D01*
X86355000Y-77978000D02*
X87530300Y-77978000D01*
X114651000Y-60140300D02*
X116994700Y-62484000D01*
X97815000Y-69855000D02*
X98940300Y-69855000D01*
X87530300Y-77610700D02*
X94160700Y-70980300D01*
%TO.N,A2*%
X94149700Y-69855000D02*
X94149700Y-70136400D01*
X93305800Y-70980300D02*
X91675000Y-70980300D01*
X91675000Y-70980300D02*
X84990300Y-77665000D01*
X84990300Y-80885300D02*
X86264400Y-82159400D01*
X95275000Y-69855000D02*
X94149700Y-69855000D01*
X102399300Y-82159400D02*
X116994700Y-67564000D01*
X84990300Y-77665000D02*
X84990300Y-80518000D01*
X84990300Y-80518000D02*
X84990300Y-80885300D01*
X83815000Y-80518000D02*
X84990300Y-80518000D01*
X86264400Y-82159400D02*
X102399300Y-82159400D01*
X94149700Y-70136400D02*
X93305800Y-70980300D01*
X118120000Y-67564000D02*
X116994700Y-67564000D01*
%TO.N,A3*%
X118120000Y-72644000D02*
X116994700Y-72644000D01*
X83447600Y-79153300D02*
X83815000Y-79153300D01*
X85252000Y-83261900D02*
X84845700Y-83261900D01*
X91609700Y-70347900D02*
X91609700Y-69855000D01*
X83815000Y-78250000D02*
X83815000Y-79153300D01*
X84845700Y-83261900D02*
X82639700Y-81055900D01*
X106376800Y-83261900D02*
X85252000Y-83261900D01*
X82639700Y-81055900D02*
X82639700Y-79961200D01*
X116994700Y-72644000D02*
X106376800Y-83261900D01*
X83815000Y-78250000D02*
X83815000Y-78142600D01*
X83815000Y-77978000D02*
X83815000Y-78250000D01*
X83815000Y-78142600D02*
X91609700Y-70347900D01*
X92735000Y-69855000D02*
X91609700Y-69855000D01*
X82639700Y-79961200D02*
X83447600Y-79153300D01*
%TO.N,A4*%
X84846100Y-84089100D02*
X88728700Y-84089100D01*
X89069700Y-70980300D02*
X82450300Y-77599700D01*
X118249600Y-84089100D02*
X88728700Y-84089100D01*
X90195000Y-69855000D02*
X90195000Y-70980300D01*
X90195000Y-70980300D02*
X89069700Y-70980300D01*
X81275000Y-80518000D02*
X84846100Y-84089100D01*
X82450300Y-78534800D02*
X81642400Y-79342700D01*
X81275000Y-80518000D02*
X81275000Y-79342700D01*
X124614700Y-77724000D02*
X118249600Y-84089100D01*
X82450300Y-77599700D02*
X82450300Y-78534800D01*
X125740000Y-77724000D02*
X124614700Y-77724000D01*
X81642400Y-79342700D02*
X81275000Y-79342700D01*
X88728700Y-84089100D02*
X88728700Y-84264200D01*
%TO.N,A5*%
X80081000Y-82186000D02*
X82927500Y-85032500D01*
X51306500Y-79294200D02*
X52065000Y-80052700D01*
X120030500Y-85032500D02*
X126865300Y-78197700D01*
X50085900Y-79294200D02*
X51306500Y-79294200D01*
X79630700Y-82636300D02*
X80081000Y-82186000D01*
X41910000Y-69993000D02*
X41910000Y-71118300D01*
X87655000Y-69855000D02*
X87655000Y-70980300D01*
X41910000Y-71118300D02*
X50085900Y-79294200D01*
X81275000Y-77978000D02*
X81275000Y-76802700D01*
X82927500Y-85032500D02*
X120030500Y-85032500D01*
X81275000Y-76802700D02*
X87097400Y-70980300D01*
X80081000Y-82186000D02*
X80081000Y-79172000D01*
X126865300Y-74613200D02*
X126021400Y-73769300D01*
X53718800Y-82636300D02*
X79630700Y-82636300D01*
X80081000Y-79172000D02*
X81275000Y-77978000D01*
X52065000Y-80982500D02*
X53718800Y-82636300D01*
X126865300Y-78197700D02*
X126865300Y-74613200D01*
X125740000Y-72644000D02*
X125740000Y-73769300D01*
X126021400Y-73769300D02*
X125740000Y-73769300D01*
X87097400Y-70980300D02*
X87655000Y-70980300D01*
X52065000Y-80052700D02*
X52065000Y-80982500D01*
%TO.N,A6*%
X106909900Y-58817200D02*
X118596200Y-58817200D01*
X125458600Y-66438700D02*
X125740000Y-66438700D01*
X78735000Y-80518000D02*
X77559700Y-80518000D01*
X124614700Y-64835700D02*
X124614700Y-65594800D01*
X44976000Y-72116500D02*
X49177000Y-72116500D01*
X54605000Y-77544500D02*
X54605000Y-80910300D01*
X54605000Y-80910300D02*
X55880700Y-82186000D01*
X55880700Y-82186000D02*
X76259000Y-82186000D01*
X76259000Y-82186000D02*
X77559700Y-80885300D01*
X40495300Y-69711600D02*
X41339200Y-68867700D01*
X43180000Y-69671200D02*
X43180000Y-70320500D01*
X85115000Y-69855000D02*
X85115000Y-70980300D01*
X77559700Y-80885300D02*
X77559700Y-80518000D01*
X86240300Y-69573600D02*
X87084200Y-68729700D01*
X80089200Y-76006100D02*
X80089200Y-78355800D01*
X125740000Y-67564000D02*
X125740000Y-66438700D01*
X118596200Y-58817200D02*
X124614700Y-64835700D01*
X41339200Y-68867700D02*
X42376500Y-68867700D01*
X96997400Y-68729700D02*
X106909900Y-58817200D01*
X40495300Y-69993000D02*
X40495300Y-69711600D01*
X43180000Y-70320500D02*
X44976000Y-72116500D01*
X39370000Y-69993000D02*
X40495300Y-69993000D01*
X42376500Y-68867700D02*
X43180000Y-69671200D01*
X87084200Y-68729700D02*
X96997400Y-68729700D01*
X85115000Y-69855000D02*
X86240300Y-69855000D01*
X80089200Y-78355800D02*
X79102300Y-79342700D01*
X49177000Y-72116500D02*
X54605000Y-77544500D01*
X124614700Y-65594800D02*
X125458600Y-66438700D01*
X79102300Y-79342700D02*
X78735000Y-79342700D01*
X78735000Y-80518000D02*
X78735000Y-79342700D01*
X85115000Y-70980300D02*
X80089200Y-76006100D01*
X86240300Y-69855000D02*
X86240300Y-69573600D01*
%TO.N,A7*%
X83700300Y-69624300D02*
X85495700Y-67828900D01*
X82575000Y-69855000D02*
X83700300Y-69855000D01*
X118686700Y-56274700D02*
X124614700Y-62202700D01*
X124614700Y-62202700D02*
X124614700Y-62484000D01*
X83700300Y-69855000D02*
X83700300Y-69624300D01*
X78735000Y-74820300D02*
X82575000Y-70980300D01*
X107099500Y-57990700D02*
X113787200Y-57990700D01*
X97261300Y-67828900D02*
X107099500Y-57990700D01*
X85495700Y-67828900D02*
X97261300Y-67828900D01*
X115503200Y-56274700D02*
X118686700Y-56274700D01*
X113787200Y-57990700D02*
X115503200Y-56274700D01*
X82575000Y-69855000D02*
X82575000Y-70980300D01*
X78735000Y-77978000D02*
X78735000Y-74820300D01*
X125740000Y-62484000D02*
X124614700Y-62484000D01*
%TO.N,A8*%
X66432500Y-79214600D02*
X65543400Y-79214600D01*
X49390500Y-71521500D02*
X48260000Y-70391000D01*
X60497900Y-81735600D02*
X59590400Y-80828100D01*
X65543400Y-79214600D02*
X64841800Y-78513000D01*
X85115000Y-54615000D02*
X85115000Y-55740300D01*
X59590400Y-80828100D02*
X59590400Y-79992400D01*
X67250500Y-80032600D02*
X66432500Y-79214600D01*
X67250500Y-81735600D02*
X60497900Y-81735600D01*
X85115000Y-55945300D02*
X85115000Y-55740300D01*
X64841800Y-78513000D02*
X64841800Y-76218500D01*
X75019700Y-80885300D02*
X74169400Y-81735600D01*
X48260000Y-70391000D02*
X48260000Y-64768300D01*
X39370000Y-54753000D02*
X39370000Y-55878300D01*
X51189700Y-71521500D02*
X49390500Y-71521500D01*
X74169400Y-81735600D02*
X67250500Y-81735600D01*
X59590400Y-79992400D02*
X58751400Y-79153400D01*
X67250500Y-81735600D02*
X67250500Y-80032600D01*
X57145000Y-78409000D02*
X57145000Y-77476800D01*
X75019700Y-80518000D02*
X75019700Y-80885300D01*
X58751400Y-79153400D02*
X57889400Y-79153400D01*
X48260000Y-64768300D02*
X39370000Y-55878300D01*
X57889400Y-79153400D02*
X57145000Y-78409000D01*
X57145000Y-77476800D02*
X51189700Y-71521500D01*
X64841800Y-76218500D02*
X85115000Y-55945300D01*
X76195000Y-80518000D02*
X75019700Y-80518000D01*
%TO.N,A9*%
X50865900Y-70380500D02*
X54047900Y-73562500D01*
X54047900Y-73562500D02*
X60132500Y-73562500D01*
X41910000Y-55878300D02*
X50865900Y-64834200D01*
X87655000Y-55740300D02*
X86861600Y-55740300D01*
X87655000Y-54615000D02*
X87655000Y-55740300D01*
X69534900Y-73067000D02*
X69534900Y-73651100D01*
X41910000Y-54753000D02*
X41910000Y-55878300D01*
X86861600Y-55740300D02*
X69534900Y-73067000D01*
X50865900Y-64834200D02*
X50865900Y-70380500D01*
%TO.N,A10*%
X95275000Y-54615000D02*
X94149700Y-54615000D01*
X68921600Y-76063200D02*
X71160800Y-73824000D01*
X68277800Y-76063200D02*
X68921600Y-76063200D01*
X94149700Y-54881600D02*
X94149700Y-54615000D01*
X55880000Y-70353400D02*
X57391900Y-71865300D01*
X92285800Y-55740400D02*
X93290900Y-55740400D01*
X55880000Y-62228300D02*
X55880000Y-70353400D01*
X93290900Y-55740400D02*
X94149700Y-54881600D01*
X49530000Y-54753000D02*
X49530000Y-55878300D01*
X49530000Y-55878300D02*
X55880000Y-62228300D01*
X77993800Y-65961800D02*
X82064400Y-65961800D01*
X71160800Y-73824000D02*
X71160800Y-72794800D01*
X82064400Y-65961800D02*
X92285800Y-55740400D01*
X71160800Y-72794800D02*
X77993800Y-65961800D01*
%TO.N,A11*%
X83554800Y-50409000D02*
X86912000Y-53766200D01*
X86912000Y-53766200D02*
X87188500Y-53489700D01*
X86385000Y-54293200D02*
X86385000Y-55483600D01*
X86385000Y-55483600D02*
X68795800Y-73072800D01*
X86912000Y-53766200D02*
X86385000Y-54293200D01*
X87188500Y-53489700D02*
X88225800Y-53489700D01*
X89069700Y-54333600D02*
X89069700Y-54615000D01*
X90195000Y-54615000D02*
X89069700Y-54615000D01*
X68795800Y-73072800D02*
X68795800Y-74461600D01*
X88225800Y-53489700D02*
X89069700Y-54333600D01*
%TO.N,A12*%
X80035000Y-69855000D02*
X80035000Y-70980300D01*
X71115000Y-80518000D02*
X71115000Y-79342700D01*
X72290300Y-78534800D02*
X72290300Y-77649300D01*
X79091800Y-71923500D02*
X80035000Y-70980300D01*
X71115000Y-79342700D02*
X71482400Y-79342700D01*
X72290300Y-77649300D02*
X78016100Y-71923500D01*
X71482400Y-79342700D02*
X72290300Y-78534800D01*
X78016100Y-71923500D02*
X79091800Y-71923500D01*
%TO.N,A13*%
X71115000Y-77978000D02*
X71115000Y-76802700D01*
X109230000Y-45715000D02*
X109230000Y-46840300D01*
X104165000Y-54986500D02*
X104165000Y-51624000D01*
X93889500Y-58103100D02*
X101048400Y-58103100D01*
X101048400Y-58103100D02*
X104165000Y-54986500D01*
X76937400Y-70980300D02*
X78429800Y-70980300D01*
X78794400Y-70615700D02*
X78794400Y-69449900D01*
X78429800Y-70980300D02*
X78794400Y-70615700D01*
X108948700Y-46840300D02*
X109230000Y-46840300D01*
X78794400Y-69449900D02*
X80340000Y-67904300D01*
X80340000Y-67904300D02*
X84088300Y-67904300D01*
X84088300Y-67904300D02*
X93889500Y-58103100D01*
X104165000Y-51624000D02*
X108948700Y-46840300D01*
X71115000Y-76802700D02*
X76937400Y-70980300D01*
%TO.N,A14*%
X101625000Y-55011000D02*
X101625000Y-51723800D01*
X68942400Y-79342700D02*
X69750300Y-78534800D01*
X98983300Y-57652700D02*
X101625000Y-55011000D01*
X68575000Y-79342700D02*
X68942400Y-79342700D01*
X69750300Y-78534800D02*
X69750300Y-77530500D01*
X76275400Y-71005400D02*
X76275400Y-68954000D01*
X93682600Y-57652700D02*
X98983300Y-57652700D01*
X101625000Y-51723800D02*
X109048500Y-44300300D01*
X109230000Y-43175000D02*
X109230000Y-44300300D01*
X76275400Y-68954000D02*
X77775400Y-67454000D01*
X83881300Y-67454000D02*
X93682600Y-57652700D01*
X109048500Y-44300300D02*
X109230000Y-44300300D01*
X68575000Y-80518000D02*
X68575000Y-79342700D01*
X77775400Y-67454000D02*
X83881300Y-67454000D01*
X69750300Y-77530500D02*
X76275400Y-71005400D01*
%TO.N,RAMS2*%
X82251000Y-66412100D02*
X92361200Y-56301900D01*
X109230000Y-35555000D02*
X109230000Y-36680300D01*
X98940400Y-53767000D02*
X108104700Y-44602700D01*
X75661800Y-69995200D02*
X75661800Y-68930700D01*
X97751000Y-56301900D02*
X98940400Y-55112500D01*
X68575000Y-76802700D02*
X68854300Y-76802700D01*
X75661800Y-68930700D02*
X78180400Y-66412100D01*
X108948600Y-36680300D02*
X109230000Y-36680300D01*
X108104700Y-37524200D02*
X108948600Y-36680300D01*
X68854300Y-76802700D02*
X75661800Y-69995200D01*
X68575000Y-77978000D02*
X68575000Y-76802700D01*
X78180400Y-66412100D02*
X82251000Y-66412100D01*
X92361200Y-56301900D02*
X97751000Y-56301900D01*
X98940400Y-55112500D02*
X98940400Y-53767000D01*
X108104700Y-44602700D02*
X108104700Y-37524200D01*
%TO.N,~{MRQ}*%
X64051800Y-79342700D02*
X63158700Y-79342700D01*
X64859700Y-80518000D02*
X64859700Y-80150600D01*
X62318000Y-78502000D02*
X62318000Y-76736100D01*
X76210000Y-35560000D02*
X76210000Y-36685300D01*
X75084700Y-46613500D02*
X75084700Y-37529200D01*
X68268400Y-70785700D02*
X68268400Y-56648800D01*
X75084700Y-37529200D02*
X75928600Y-36685300D01*
X63158700Y-79342700D02*
X62318000Y-78502000D01*
X64859700Y-80150600D02*
X64051800Y-79342700D01*
X66035000Y-80518000D02*
X64859700Y-80518000D01*
X68211900Y-53486300D02*
X75084700Y-46613500D01*
X62318000Y-76736100D02*
X68268400Y-70785700D01*
X68268400Y-56648800D02*
X68211900Y-56592300D01*
X68211900Y-56592300D02*
X68211900Y-53486300D01*
X75928600Y-36685300D02*
X76210000Y-36685300D01*
%TO.N,~{RD}*%
X87842900Y-58663100D02*
X91609700Y-54896300D01*
X69080200Y-75210300D02*
X70485400Y-73805100D01*
X53340000Y-62228300D02*
X53340000Y-70316200D01*
X53340000Y-70316200D02*
X54873400Y-71849600D01*
X92735000Y-54615000D02*
X91609700Y-54615000D01*
X70485400Y-73805100D02*
X70485400Y-72753400D01*
X54873400Y-71849600D02*
X55028600Y-71849600D01*
X46990000Y-55878300D02*
X53340000Y-62228300D01*
X66035000Y-77978000D02*
X66035000Y-76802700D01*
X67627400Y-75210300D02*
X69080200Y-75210300D01*
X91609700Y-54896300D02*
X91609700Y-54615000D01*
X66035000Y-76802700D02*
X67627400Y-75210300D01*
X70485400Y-72753400D02*
X84575700Y-58663100D01*
X46990000Y-54753000D02*
X46990000Y-55878300D01*
X84575700Y-58663100D02*
X87842900Y-58663100D01*
%TO.N,~{WR}*%
X85100000Y-43175000D02*
X85100000Y-44300300D01*
X73524500Y-62760600D02*
X76067100Y-62760600D01*
X63495000Y-77978000D02*
X63495000Y-76802700D01*
X73524500Y-62760600D02*
X72777000Y-62760600D01*
X82889500Y-50048600D02*
X82829500Y-50108600D01*
X72777000Y-62760600D02*
X70036400Y-60020000D01*
X84818700Y-44300300D02*
X82889500Y-46229500D01*
X85100000Y-44300300D02*
X84818700Y-44300300D01*
X73524500Y-66898900D02*
X73524500Y-62760600D01*
X83719200Y-54146600D02*
X83009600Y-53437000D01*
X82829500Y-50108600D02*
X82829500Y-53437000D01*
X76067100Y-62760600D02*
X83719200Y-55108500D01*
X63620700Y-76802700D02*
X73524500Y-66898900D01*
X81213000Y-53437000D02*
X80035000Y-54615000D01*
X63495000Y-76802700D02*
X63620700Y-76802700D01*
X82829500Y-53437000D02*
X81213000Y-53437000D01*
X83719200Y-55108500D02*
X83719200Y-54146600D01*
X82889500Y-46229500D02*
X82889500Y-50048600D01*
X83009600Y-53437000D02*
X82829500Y-53437000D01*
%TO.N,~{IORQ}*%
X84274900Y-68354600D02*
X86024500Y-66605000D01*
X110556300Y-56908700D02*
X112601000Y-54864000D01*
X97211400Y-66605000D02*
X106907700Y-56908700D01*
X75013700Y-77471900D02*
X81160400Y-71325200D01*
X75013700Y-79536200D02*
X75013700Y-77471900D01*
X106907700Y-56908700D02*
X110556300Y-56908700D01*
X86024500Y-66605000D02*
X97211400Y-66605000D01*
X112601000Y-54864000D02*
X118120000Y-54864000D01*
X81160400Y-71325200D02*
X81160400Y-69667800D01*
X81160400Y-69667800D02*
X82473600Y-68354600D01*
X82473600Y-68354600D02*
X84274900Y-68354600D01*
%TO.N,~{RES}*%
X59590300Y-77481900D02*
X67763700Y-69308500D01*
X68308700Y-34145300D02*
X68590000Y-34145300D01*
X67763700Y-69308500D02*
X67763700Y-62878600D01*
X68590000Y-33020000D02*
X68590000Y-34145300D01*
X66998900Y-44683300D02*
X66998900Y-35455100D01*
X66998900Y-35455100D02*
X68308700Y-34145300D01*
X67763700Y-62878600D02*
X67464600Y-62579500D01*
X67464600Y-62579500D02*
X67464600Y-45149000D01*
X59590300Y-77978000D02*
X59590300Y-77481900D01*
X58415000Y-77978000D02*
X59590300Y-77978000D01*
X67464600Y-45149000D02*
X66998900Y-44683300D01*
%TO.N,A13_1*%
X74223600Y-53931500D02*
X74223600Y-48500400D01*
X82575000Y-54615000D02*
X81449700Y-54615000D01*
X81449700Y-54615000D02*
X81449700Y-54853700D01*
X81449700Y-54853700D02*
X80102700Y-56200700D01*
X76492800Y-56200700D02*
X74223600Y-53931500D01*
X80102700Y-56200700D02*
X76492800Y-56200700D01*
%TO.N,A14_2*%
X38180800Y-44513900D02*
X42064700Y-40630000D01*
X43190000Y-40630000D02*
X42064700Y-40630000D01*
X31750000Y-69993000D02*
X31750000Y-68867700D01*
X32875300Y-46730000D02*
X35091400Y-44513900D01*
X32875300Y-67742400D02*
X32875300Y-46730000D01*
X31750000Y-68867700D02*
X32875300Y-67742400D01*
X35091400Y-44513900D02*
X38180800Y-44513900D01*
%TO.N,~{CS2}*%
X78909600Y-53391600D02*
X78909600Y-54804400D01*
X77963800Y-55750200D02*
X76996100Y-55750200D01*
X85100000Y-39220300D02*
X84818700Y-39220300D01*
X82439100Y-41599900D02*
X82439100Y-49862100D01*
X82439100Y-49862100D02*
X78909600Y-53391600D01*
X76996100Y-55750200D02*
X74974100Y-53728200D01*
X85100000Y-38095000D02*
X85100000Y-39220300D01*
X78909600Y-54804400D02*
X77963800Y-55750200D01*
X74974100Y-53728200D02*
X74974100Y-53627700D01*
X84818700Y-39220300D02*
X82439100Y-41599900D01*
%TO.N,GND*%
X118120000Y-63898700D02*
X118401300Y-63898700D01*
X52080000Y-29344700D02*
X53420000Y-28004700D01*
X59700000Y-48250000D02*
X59700000Y-45710000D01*
X118401300Y-63898700D02*
X119245300Y-63054700D01*
X102735300Y-45144200D02*
X101891400Y-44300300D01*
X34444700Y-34979300D02*
X34444700Y-38660800D01*
X53420000Y-28004700D02*
X53420000Y-25400000D01*
X35288600Y-39504700D02*
X35570000Y-39504700D01*
X101891300Y-47129700D02*
X102735300Y-46285700D01*
X118120000Y-65024000D02*
X118120000Y-63898700D01*
X52080000Y-30470000D02*
X52080000Y-29344700D01*
X35570000Y-40630000D02*
X35570000Y-39504700D01*
X35570000Y-34135300D02*
X35288700Y-34135300D01*
X35570000Y-33010000D02*
X35570000Y-34135300D01*
X119245300Y-63054700D02*
X119245300Y-61913200D01*
X118401400Y-61069300D02*
X118120000Y-61069300D01*
X118120000Y-77724000D02*
X118120000Y-75184000D01*
X101891400Y-44300300D02*
X101610000Y-44300300D01*
X101610000Y-48255000D02*
X101610000Y-47129700D01*
X102735300Y-46285700D02*
X102735300Y-45144200D01*
X34444700Y-38660800D02*
X35288600Y-39504700D01*
X119245300Y-61913200D02*
X118401400Y-61069300D01*
X101610000Y-43175000D02*
X101610000Y-44300300D01*
X118120000Y-59944000D02*
X118120000Y-61069300D01*
X35288700Y-34135300D02*
X34444700Y-34979300D01*
X101610000Y-40635000D02*
X101610000Y-43175000D01*
X101610000Y-47129700D02*
X101891300Y-47129700D01*
X52080000Y-33010000D02*
X52080000Y-30470000D01*
%TO.N,A13_2*%
X43190000Y-48250000D02*
X42064700Y-48250000D01*
X42064700Y-48393000D02*
X42064700Y-48250000D01*
X36830000Y-53627700D02*
X42064700Y-48393000D01*
X36830000Y-54753000D02*
X36830000Y-53627700D01*
%TO.N,S2*%
X93147600Y-39459200D02*
X90020700Y-39459200D01*
X93853700Y-40165300D02*
X93147600Y-39459200D01*
X92720000Y-43175000D02*
X92720000Y-42049700D01*
X43190000Y-35550000D02*
X43190000Y-38090000D01*
X93853700Y-41197300D02*
X93853700Y-40165300D01*
X90020700Y-39459200D02*
X88257600Y-37696100D01*
X93001300Y-42049700D02*
X93853700Y-41197300D01*
X92720000Y-42049700D02*
X93001300Y-42049700D01*
%TO.N,+5V*%
X124614700Y-75184000D02*
X119534700Y-70104000D01*
D19*
X22860000Y-25908000D02*
X24892000Y-23876000D01*
X24892000Y-23876000D02*
X40346000Y-23876000D01*
D18*
X126865300Y-57974800D02*
X126021400Y-58818700D01*
X126021300Y-55989300D02*
X126865300Y-56833300D01*
X31683500Y-54686500D02*
X31683500Y-47056500D01*
D19*
X77495000Y-53061000D02*
X77495000Y-54615000D01*
D18*
X125740000Y-54864000D02*
X125740000Y-55989300D01*
X119534700Y-70104000D02*
X118120000Y-70104000D01*
D19*
X25400000Y-61138000D02*
X26670000Y-59868000D01*
X26520000Y-54620000D02*
X22860000Y-50960000D01*
X26670000Y-54770000D02*
X26520000Y-54620000D01*
D18*
X125740000Y-55989300D02*
X126021300Y-55989300D01*
X126021400Y-58818700D02*
X125740000Y-58818700D01*
D19*
X91440000Y-27940000D02*
X90190000Y-26690000D01*
X25400000Y-80010000D02*
X25400000Y-61138000D01*
D18*
X31683500Y-47056500D02*
X35570000Y-43170000D01*
D19*
X90190000Y-26690000D02*
X82022000Y-26690000D01*
X80264000Y-50292000D02*
X77495000Y-53061000D01*
X22860000Y-50960000D02*
X22860000Y-25908000D01*
D18*
X125740000Y-75184000D02*
X124614700Y-75184000D01*
X125740000Y-59944000D02*
X125740000Y-58818700D01*
D19*
X40346000Y-23876000D02*
X41870000Y-25400000D01*
X82022000Y-26690000D02*
X80264000Y-28448000D01*
X80264000Y-28448000D02*
X80264000Y-50292000D01*
D18*
X126865300Y-56833300D02*
X126865300Y-57974800D01*
D19*
X26670000Y-59868000D02*
X26670000Y-54770000D01*
D18*
%TO.N,~{CS1}*%
X91577000Y-41778000D02*
X92720000Y-40635000D01*
X97815000Y-54615000D02*
X97815000Y-53489700D01*
X91577000Y-48703900D02*
X91577000Y-41778000D01*
X95203500Y-52330400D02*
X91577000Y-48703900D01*
X97815000Y-53489700D02*
X96655700Y-52330400D01*
X96655700Y-52330400D02*
X95203500Y-52330400D01*
%TO.N,~{REN}*%
X92720000Y-35555000D02*
X85100000Y-35555000D01*
%TO.N,Net-(U3-Pad1)*%
X101610000Y-34140300D02*
X101891300Y-34140300D01*
X102750300Y-34999300D02*
X102750300Y-36066500D01*
X102750300Y-36066500D02*
X101991800Y-36825000D01*
X101238200Y-36825000D02*
X93845300Y-44217900D01*
X92720000Y-48255000D02*
X92720000Y-47129700D01*
X93845300Y-44217900D02*
X93845300Y-46285800D01*
X93845300Y-46285800D02*
X93001400Y-47129700D01*
X101891300Y-34140300D02*
X102750300Y-34999300D01*
X101991800Y-36825000D02*
X101238200Y-36825000D01*
X101610000Y-33015000D02*
X101610000Y-34140300D01*
X93001400Y-47129700D02*
X92720000Y-47129700D01*
%TO.N,S0*%
X52080000Y-35550000D02*
X50954700Y-35550000D01*
X50954700Y-35550000D02*
X44315300Y-42189400D01*
X43190000Y-43170000D02*
X43190000Y-45710000D01*
X44315300Y-42189400D02*
X44315300Y-43170000D01*
X43190000Y-43170000D02*
X44315300Y-43170000D01*
%TO.N,Net-(U5-Pad19)*%
X86225300Y-42604200D02*
X86225300Y-43995800D01*
X85100000Y-41760300D02*
X85381400Y-41760300D01*
X86225300Y-43995800D02*
X95394700Y-53165200D01*
X85381400Y-41760300D02*
X86225300Y-42604200D01*
X85100000Y-40635000D02*
X85100000Y-41760300D01*
%TO.N,Net-(U1-Pad10)*%
X81988700Y-41859000D02*
X81144000Y-42703700D01*
X91594700Y-38095000D02*
X90465400Y-36965700D01*
X92720000Y-38095000D02*
X91594700Y-38095000D01*
X84632700Y-36965700D02*
X81988700Y-39609700D01*
X90465400Y-36965700D02*
X84632700Y-36965700D01*
X81988700Y-39609700D02*
X81988700Y-41859000D01*
%TO.N,Net-(U1-Pad3)*%
X68590000Y-38100000D02*
X69715300Y-38100000D01*
X78225000Y-43639300D02*
X78225000Y-35906000D01*
X78225000Y-35906000D02*
X76717500Y-34398500D01*
X76717500Y-34398500D02*
X73416800Y-34398500D01*
X73416800Y-34398500D02*
X69715300Y-38100000D01*
%TO.N,EO*%
X79630000Y-26111600D02*
X73649500Y-32092100D01*
X100484700Y-35273700D02*
X91322600Y-26111600D01*
X68911600Y-36830000D02*
X68188900Y-36830000D01*
X68188900Y-36830000D02*
X67449300Y-37569600D01*
X101610000Y-35555000D02*
X100484700Y-35555000D01*
X68397100Y-44594700D02*
X68590000Y-44594700D01*
X73649500Y-32092100D02*
X69747300Y-32092100D01*
X69490600Y-31835400D02*
X69747300Y-32092100D01*
X67449300Y-37569600D02*
X67449300Y-43646900D01*
X55877500Y-34143400D02*
X58185500Y-31835400D01*
X100484700Y-35555000D02*
X100484700Y-35273700D01*
X69747300Y-32092100D02*
X69747300Y-35994300D01*
X35570000Y-30470000D02*
X36695300Y-30470000D01*
X67449300Y-43646900D02*
X68397100Y-44594700D01*
X36695300Y-30470000D02*
X40368700Y-34143400D01*
X40368700Y-34143400D02*
X55877500Y-34143400D01*
X69747300Y-35994300D02*
X68911600Y-36830000D01*
X68590000Y-45720000D02*
X68590000Y-44594700D01*
X58185500Y-31835400D02*
X69490600Y-31835400D01*
X91322600Y-26111600D02*
X79630000Y-26111600D01*
%TO.N,Net-(U1-Pad11)*%
X85100000Y-33015000D02*
X85100000Y-34140300D01*
X85100000Y-34140300D02*
X84818700Y-34140300D01*
X84818700Y-34140300D02*
X81133900Y-37825100D01*
X81133900Y-37825100D02*
X81133900Y-40035800D01*
%TD*%
M02*
