%TF.GenerationSoftware,KiCad,Pcbnew,9.0.0*%
%TF.CreationDate,2025-03-29T21:15:17+01:00*%
%TF.ProjectId,p2000t-ram-expansion-board-128kb-smd-cpld,70323030-3074-42d7-9261-6d2d65787061,4*%
%TF.SameCoordinates,Original*%
%TF.FileFunction,Legend,Top*%
%TF.FilePolarity,Positive*%
%FSLAX46Y46*%
G04 Gerber Fmt 4.6, Leading zero omitted, Abs format (unit mm)*
G04 Created by KiCad (PCBNEW 9.0.0) date 2025-03-29 21:15:17*
%MOMM*%
%LPD*%
G01*
G04 APERTURE LIST*
%ADD10C,0.150000*%
%ADD11C,0.300000*%
%ADD12C,0.100000*%
%ADD13C,0.120000*%
G04 APERTURE END LIST*
D10*
X103250000Y-72500000D02*
X110750000Y-72500000D01*
X110750000Y-88000000D01*
X103250000Y-88000000D01*
X103250000Y-72500000D01*
X105039987Y-85301065D02*
X104039987Y-85301065D01*
X104039987Y-85301065D02*
X104039987Y-84920113D01*
X104039987Y-84920113D02*
X104087606Y-84824875D01*
X104087606Y-84824875D02*
X104135225Y-84777256D01*
X104135225Y-84777256D02*
X104230463Y-84729637D01*
X104230463Y-84729637D02*
X104373320Y-84729637D01*
X104373320Y-84729637D02*
X104468558Y-84777256D01*
X104468558Y-84777256D02*
X104516177Y-84824875D01*
X104516177Y-84824875D02*
X104563796Y-84920113D01*
X104563796Y-84920113D02*
X104563796Y-85301065D01*
X105039987Y-84301065D02*
X104039987Y-84301065D01*
X105039987Y-83872494D02*
X104516177Y-83872494D01*
X104516177Y-83872494D02*
X104420939Y-83920113D01*
X104420939Y-83920113D02*
X104373320Y-84015351D01*
X104373320Y-84015351D02*
X104373320Y-84158208D01*
X104373320Y-84158208D02*
X104420939Y-84253446D01*
X104420939Y-84253446D02*
X104468558Y-84301065D01*
X105039987Y-83396303D02*
X104373320Y-83396303D01*
X104039987Y-83396303D02*
X104087606Y-83443922D01*
X104087606Y-83443922D02*
X104135225Y-83396303D01*
X104135225Y-83396303D02*
X104087606Y-83348684D01*
X104087606Y-83348684D02*
X104039987Y-83396303D01*
X104039987Y-83396303D02*
X104135225Y-83396303D01*
X105039987Y-82777256D02*
X104992368Y-82872494D01*
X104992368Y-82872494D02*
X104897129Y-82920113D01*
X104897129Y-82920113D02*
X104039987Y-82920113D01*
X105039987Y-82396303D02*
X104373320Y-82396303D01*
X104039987Y-82396303D02*
X104087606Y-82443922D01*
X104087606Y-82443922D02*
X104135225Y-82396303D01*
X104135225Y-82396303D02*
X104087606Y-82348684D01*
X104087606Y-82348684D02*
X104039987Y-82396303D01*
X104039987Y-82396303D02*
X104135225Y-82396303D01*
X104373320Y-81920113D02*
X105373320Y-81920113D01*
X104420939Y-81920113D02*
X104373320Y-81824875D01*
X104373320Y-81824875D02*
X104373320Y-81634399D01*
X104373320Y-81634399D02*
X104420939Y-81539161D01*
X104420939Y-81539161D02*
X104468558Y-81491542D01*
X104468558Y-81491542D02*
X104563796Y-81443923D01*
X104563796Y-81443923D02*
X104849510Y-81443923D01*
X104849510Y-81443923D02*
X104944748Y-81491542D01*
X104944748Y-81491542D02*
X104992368Y-81539161D01*
X104992368Y-81539161D02*
X105039987Y-81634399D01*
X105039987Y-81634399D02*
X105039987Y-81824875D01*
X105039987Y-81824875D02*
X104992368Y-81920113D01*
X104992368Y-81062970D02*
X105039987Y-80967732D01*
X105039987Y-80967732D02*
X105039987Y-80777256D01*
X105039987Y-80777256D02*
X104992368Y-80682018D01*
X104992368Y-80682018D02*
X104897129Y-80634399D01*
X104897129Y-80634399D02*
X104849510Y-80634399D01*
X104849510Y-80634399D02*
X104754272Y-80682018D01*
X104754272Y-80682018D02*
X104706653Y-80777256D01*
X104706653Y-80777256D02*
X104706653Y-80920113D01*
X104706653Y-80920113D02*
X104659034Y-81015351D01*
X104659034Y-81015351D02*
X104563796Y-81062970D01*
X104563796Y-81062970D02*
X104516177Y-81062970D01*
X104516177Y-81062970D02*
X104420939Y-81015351D01*
X104420939Y-81015351D02*
X104373320Y-80920113D01*
X104373320Y-80920113D02*
X104373320Y-80777256D01*
X104373320Y-80777256D02*
X104420939Y-80682018D01*
X105039987Y-79443922D02*
X104039987Y-79443922D01*
X104039987Y-79443922D02*
X104039987Y-79062970D01*
X104039987Y-79062970D02*
X104087606Y-78967732D01*
X104087606Y-78967732D02*
X104135225Y-78920113D01*
X104135225Y-78920113D02*
X104230463Y-78872494D01*
X104230463Y-78872494D02*
X104373320Y-78872494D01*
X104373320Y-78872494D02*
X104468558Y-78920113D01*
X104468558Y-78920113D02*
X104516177Y-78967732D01*
X104516177Y-78967732D02*
X104563796Y-79062970D01*
X104563796Y-79062970D02*
X104563796Y-79443922D01*
X104135225Y-78491541D02*
X104087606Y-78443922D01*
X104087606Y-78443922D02*
X104039987Y-78348684D01*
X104039987Y-78348684D02*
X104039987Y-78110589D01*
X104039987Y-78110589D02*
X104087606Y-78015351D01*
X104087606Y-78015351D02*
X104135225Y-77967732D01*
X104135225Y-77967732D02*
X104230463Y-77920113D01*
X104230463Y-77920113D02*
X104325701Y-77920113D01*
X104325701Y-77920113D02*
X104468558Y-77967732D01*
X104468558Y-77967732D02*
X105039987Y-78539160D01*
X105039987Y-78539160D02*
X105039987Y-77920113D01*
X104039987Y-77301065D02*
X104039987Y-77205827D01*
X104039987Y-77205827D02*
X104087606Y-77110589D01*
X104087606Y-77110589D02*
X104135225Y-77062970D01*
X104135225Y-77062970D02*
X104230463Y-77015351D01*
X104230463Y-77015351D02*
X104420939Y-76967732D01*
X104420939Y-76967732D02*
X104659034Y-76967732D01*
X104659034Y-76967732D02*
X104849510Y-77015351D01*
X104849510Y-77015351D02*
X104944748Y-77062970D01*
X104944748Y-77062970D02*
X104992368Y-77110589D01*
X104992368Y-77110589D02*
X105039987Y-77205827D01*
X105039987Y-77205827D02*
X105039987Y-77301065D01*
X105039987Y-77301065D02*
X104992368Y-77396303D01*
X104992368Y-77396303D02*
X104944748Y-77443922D01*
X104944748Y-77443922D02*
X104849510Y-77491541D01*
X104849510Y-77491541D02*
X104659034Y-77539160D01*
X104659034Y-77539160D02*
X104420939Y-77539160D01*
X104420939Y-77539160D02*
X104230463Y-77491541D01*
X104230463Y-77491541D02*
X104135225Y-77443922D01*
X104135225Y-77443922D02*
X104087606Y-77396303D01*
X104087606Y-77396303D02*
X104039987Y-77301065D01*
X104039987Y-76348684D02*
X104039987Y-76253446D01*
X104039987Y-76253446D02*
X104087606Y-76158208D01*
X104087606Y-76158208D02*
X104135225Y-76110589D01*
X104135225Y-76110589D02*
X104230463Y-76062970D01*
X104230463Y-76062970D02*
X104420939Y-76015351D01*
X104420939Y-76015351D02*
X104659034Y-76015351D01*
X104659034Y-76015351D02*
X104849510Y-76062970D01*
X104849510Y-76062970D02*
X104944748Y-76110589D01*
X104944748Y-76110589D02*
X104992368Y-76158208D01*
X104992368Y-76158208D02*
X105039987Y-76253446D01*
X105039987Y-76253446D02*
X105039987Y-76348684D01*
X105039987Y-76348684D02*
X104992368Y-76443922D01*
X104992368Y-76443922D02*
X104944748Y-76491541D01*
X104944748Y-76491541D02*
X104849510Y-76539160D01*
X104849510Y-76539160D02*
X104659034Y-76586779D01*
X104659034Y-76586779D02*
X104420939Y-76586779D01*
X104420939Y-76586779D02*
X104230463Y-76539160D01*
X104230463Y-76539160D02*
X104135225Y-76491541D01*
X104135225Y-76491541D02*
X104087606Y-76443922D01*
X104087606Y-76443922D02*
X104039987Y-76348684D01*
X104039987Y-75396303D02*
X104039987Y-75301065D01*
X104039987Y-75301065D02*
X104087606Y-75205827D01*
X104087606Y-75205827D02*
X104135225Y-75158208D01*
X104135225Y-75158208D02*
X104230463Y-75110589D01*
X104230463Y-75110589D02*
X104420939Y-75062970D01*
X104420939Y-75062970D02*
X104659034Y-75062970D01*
X104659034Y-75062970D02*
X104849510Y-75110589D01*
X104849510Y-75110589D02*
X104944748Y-75158208D01*
X104944748Y-75158208D02*
X104992368Y-75205827D01*
X104992368Y-75205827D02*
X105039987Y-75301065D01*
X105039987Y-75301065D02*
X105039987Y-75396303D01*
X105039987Y-75396303D02*
X104992368Y-75491541D01*
X104992368Y-75491541D02*
X104944748Y-75539160D01*
X104944748Y-75539160D02*
X104849510Y-75586779D01*
X104849510Y-75586779D02*
X104659034Y-75634398D01*
X104659034Y-75634398D02*
X104420939Y-75634398D01*
X104420939Y-75634398D02*
X104230463Y-75586779D01*
X104230463Y-75586779D02*
X104135225Y-75539160D01*
X104135225Y-75539160D02*
X104087606Y-75491541D01*
X104087606Y-75491541D02*
X104039987Y-75396303D01*
X104039987Y-74777255D02*
X104039987Y-74205827D01*
X105039987Y-74491541D02*
X104039987Y-74491541D01*
X106649931Y-84586779D02*
X106173740Y-84920112D01*
X106649931Y-85158207D02*
X105649931Y-85158207D01*
X105649931Y-85158207D02*
X105649931Y-84777255D01*
X105649931Y-84777255D02*
X105697550Y-84682017D01*
X105697550Y-84682017D02*
X105745169Y-84634398D01*
X105745169Y-84634398D02*
X105840407Y-84586779D01*
X105840407Y-84586779D02*
X105983264Y-84586779D01*
X105983264Y-84586779D02*
X106078502Y-84634398D01*
X106078502Y-84634398D02*
X106126121Y-84682017D01*
X106126121Y-84682017D02*
X106173740Y-84777255D01*
X106173740Y-84777255D02*
X106173740Y-85158207D01*
X106364216Y-84205826D02*
X106364216Y-83729636D01*
X106649931Y-84301064D02*
X105649931Y-83967731D01*
X105649931Y-83967731D02*
X106649931Y-83634398D01*
X106649931Y-83301064D02*
X105649931Y-83301064D01*
X105649931Y-83301064D02*
X106364216Y-82967731D01*
X106364216Y-82967731D02*
X105649931Y-82634398D01*
X105649931Y-82634398D02*
X106649931Y-82634398D01*
X106126121Y-81396302D02*
X106126121Y-81062969D01*
X106649931Y-80920112D02*
X106649931Y-81396302D01*
X106649931Y-81396302D02*
X105649931Y-81396302D01*
X105649931Y-81396302D02*
X105649931Y-80920112D01*
X105649931Y-80586778D02*
X106649931Y-79920112D01*
X105649931Y-79920112D02*
X106649931Y-80586778D01*
X106649931Y-79539159D02*
X105649931Y-79539159D01*
X105649931Y-79539159D02*
X105649931Y-79158207D01*
X105649931Y-79158207D02*
X105697550Y-79062969D01*
X105697550Y-79062969D02*
X105745169Y-79015350D01*
X105745169Y-79015350D02*
X105840407Y-78967731D01*
X105840407Y-78967731D02*
X105983264Y-78967731D01*
X105983264Y-78967731D02*
X106078502Y-79015350D01*
X106078502Y-79015350D02*
X106126121Y-79062969D01*
X106126121Y-79062969D02*
X106173740Y-79158207D01*
X106173740Y-79158207D02*
X106173740Y-79539159D01*
X106364216Y-78586778D02*
X106364216Y-78110588D01*
X106649931Y-78682016D02*
X105649931Y-78348683D01*
X105649931Y-78348683D02*
X106649931Y-78015350D01*
X106649931Y-77682016D02*
X105649931Y-77682016D01*
X105649931Y-77682016D02*
X106649931Y-77110588D01*
X106649931Y-77110588D02*
X105649931Y-77110588D01*
X106602312Y-76682016D02*
X106649931Y-76539159D01*
X106649931Y-76539159D02*
X106649931Y-76301064D01*
X106649931Y-76301064D02*
X106602312Y-76205826D01*
X106602312Y-76205826D02*
X106554692Y-76158207D01*
X106554692Y-76158207D02*
X106459454Y-76110588D01*
X106459454Y-76110588D02*
X106364216Y-76110588D01*
X106364216Y-76110588D02*
X106268978Y-76158207D01*
X106268978Y-76158207D02*
X106221359Y-76205826D01*
X106221359Y-76205826D02*
X106173740Y-76301064D01*
X106173740Y-76301064D02*
X106126121Y-76491540D01*
X106126121Y-76491540D02*
X106078502Y-76586778D01*
X106078502Y-76586778D02*
X106030883Y-76634397D01*
X106030883Y-76634397D02*
X105935645Y-76682016D01*
X105935645Y-76682016D02*
X105840407Y-76682016D01*
X105840407Y-76682016D02*
X105745169Y-76634397D01*
X105745169Y-76634397D02*
X105697550Y-76586778D01*
X105697550Y-76586778D02*
X105649931Y-76491540D01*
X105649931Y-76491540D02*
X105649931Y-76253445D01*
X105649931Y-76253445D02*
X105697550Y-76110588D01*
X106649931Y-75682016D02*
X105649931Y-75682016D01*
X105649931Y-75015350D02*
X105649931Y-74824874D01*
X105649931Y-74824874D02*
X105697550Y-74729636D01*
X105697550Y-74729636D02*
X105792788Y-74634398D01*
X105792788Y-74634398D02*
X105983264Y-74586779D01*
X105983264Y-74586779D02*
X106316597Y-74586779D01*
X106316597Y-74586779D02*
X106507073Y-74634398D01*
X106507073Y-74634398D02*
X106602312Y-74729636D01*
X106602312Y-74729636D02*
X106649931Y-74824874D01*
X106649931Y-74824874D02*
X106649931Y-75015350D01*
X106649931Y-75015350D02*
X106602312Y-75110588D01*
X106602312Y-75110588D02*
X106507073Y-75205826D01*
X106507073Y-75205826D02*
X106316597Y-75253445D01*
X106316597Y-75253445D02*
X105983264Y-75253445D01*
X105983264Y-75253445D02*
X105792788Y-75205826D01*
X105792788Y-75205826D02*
X105697550Y-75110588D01*
X105697550Y-75110588D02*
X105649931Y-75015350D01*
X106649931Y-74158207D02*
X105649931Y-74158207D01*
X105649931Y-74158207D02*
X106649931Y-73586779D01*
X106649931Y-73586779D02*
X105649931Y-73586779D01*
X108259875Y-79443922D02*
X108259875Y-80015350D01*
X108259875Y-79729636D02*
X107259875Y-79729636D01*
X107259875Y-79729636D02*
X107402732Y-79824874D01*
X107402732Y-79824874D02*
X107497970Y-79920112D01*
X107497970Y-79920112D02*
X107545589Y-80015350D01*
X107355113Y-79062969D02*
X107307494Y-79015350D01*
X107307494Y-79015350D02*
X107259875Y-78920112D01*
X107259875Y-78920112D02*
X107259875Y-78682017D01*
X107259875Y-78682017D02*
X107307494Y-78586779D01*
X107307494Y-78586779D02*
X107355113Y-78539160D01*
X107355113Y-78539160D02*
X107450351Y-78491541D01*
X107450351Y-78491541D02*
X107545589Y-78491541D01*
X107545589Y-78491541D02*
X107688446Y-78539160D01*
X107688446Y-78539160D02*
X108259875Y-79110588D01*
X108259875Y-79110588D02*
X108259875Y-78491541D01*
X107688446Y-77920112D02*
X107640827Y-78015350D01*
X107640827Y-78015350D02*
X107593208Y-78062969D01*
X107593208Y-78062969D02*
X107497970Y-78110588D01*
X107497970Y-78110588D02*
X107450351Y-78110588D01*
X107450351Y-78110588D02*
X107355113Y-78062969D01*
X107355113Y-78062969D02*
X107307494Y-78015350D01*
X107307494Y-78015350D02*
X107259875Y-77920112D01*
X107259875Y-77920112D02*
X107259875Y-77729636D01*
X107259875Y-77729636D02*
X107307494Y-77634398D01*
X107307494Y-77634398D02*
X107355113Y-77586779D01*
X107355113Y-77586779D02*
X107450351Y-77539160D01*
X107450351Y-77539160D02*
X107497970Y-77539160D01*
X107497970Y-77539160D02*
X107593208Y-77586779D01*
X107593208Y-77586779D02*
X107640827Y-77634398D01*
X107640827Y-77634398D02*
X107688446Y-77729636D01*
X107688446Y-77729636D02*
X107688446Y-77920112D01*
X107688446Y-77920112D02*
X107736065Y-78015350D01*
X107736065Y-78015350D02*
X107783684Y-78062969D01*
X107783684Y-78062969D02*
X107878922Y-78110588D01*
X107878922Y-78110588D02*
X108069398Y-78110588D01*
X108069398Y-78110588D02*
X108164636Y-78062969D01*
X108164636Y-78062969D02*
X108212256Y-78015350D01*
X108212256Y-78015350D02*
X108259875Y-77920112D01*
X108259875Y-77920112D02*
X108259875Y-77729636D01*
X108259875Y-77729636D02*
X108212256Y-77634398D01*
X108212256Y-77634398D02*
X108164636Y-77586779D01*
X108164636Y-77586779D02*
X108069398Y-77539160D01*
X108069398Y-77539160D02*
X107878922Y-77539160D01*
X107878922Y-77539160D02*
X107783684Y-77586779D01*
X107783684Y-77586779D02*
X107736065Y-77634398D01*
X107736065Y-77634398D02*
X107688446Y-77729636D01*
X108259875Y-76348683D02*
X107259875Y-76348683D01*
X108259875Y-75777255D02*
X107688446Y-76205826D01*
X107259875Y-75777255D02*
X107831303Y-76348683D01*
X108259875Y-75348683D02*
X107593208Y-75348683D01*
X107259875Y-75348683D02*
X107307494Y-75396302D01*
X107307494Y-75396302D02*
X107355113Y-75348683D01*
X107355113Y-75348683D02*
X107307494Y-75301064D01*
X107307494Y-75301064D02*
X107259875Y-75348683D01*
X107259875Y-75348683D02*
X107355113Y-75348683D01*
X107736065Y-74539160D02*
X107783684Y-74396303D01*
X107783684Y-74396303D02*
X107831303Y-74348684D01*
X107831303Y-74348684D02*
X107926541Y-74301065D01*
X107926541Y-74301065D02*
X108069398Y-74301065D01*
X108069398Y-74301065D02*
X108164636Y-74348684D01*
X108164636Y-74348684D02*
X108212256Y-74396303D01*
X108212256Y-74396303D02*
X108259875Y-74491541D01*
X108259875Y-74491541D02*
X108259875Y-74872493D01*
X108259875Y-74872493D02*
X107259875Y-74872493D01*
X107259875Y-74872493D02*
X107259875Y-74539160D01*
X107259875Y-74539160D02*
X107307494Y-74443922D01*
X107307494Y-74443922D02*
X107355113Y-74396303D01*
X107355113Y-74396303D02*
X107450351Y-74348684D01*
X107450351Y-74348684D02*
X107545589Y-74348684D01*
X107545589Y-74348684D02*
X107640827Y-74396303D01*
X107640827Y-74396303D02*
X107688446Y-74443922D01*
X107688446Y-74443922D02*
X107736065Y-74539160D01*
X107736065Y-74539160D02*
X107736065Y-74872493D01*
X109822200Y-87205827D02*
X109869819Y-87062970D01*
X109869819Y-87062970D02*
X109869819Y-86824875D01*
X109869819Y-86824875D02*
X109822200Y-86729637D01*
X109822200Y-86729637D02*
X109774580Y-86682018D01*
X109774580Y-86682018D02*
X109679342Y-86634399D01*
X109679342Y-86634399D02*
X109584104Y-86634399D01*
X109584104Y-86634399D02*
X109488866Y-86682018D01*
X109488866Y-86682018D02*
X109441247Y-86729637D01*
X109441247Y-86729637D02*
X109393628Y-86824875D01*
X109393628Y-86824875D02*
X109346009Y-87015351D01*
X109346009Y-87015351D02*
X109298390Y-87110589D01*
X109298390Y-87110589D02*
X109250771Y-87158208D01*
X109250771Y-87158208D02*
X109155533Y-87205827D01*
X109155533Y-87205827D02*
X109060295Y-87205827D01*
X109060295Y-87205827D02*
X108965057Y-87158208D01*
X108965057Y-87158208D02*
X108917438Y-87110589D01*
X108917438Y-87110589D02*
X108869819Y-87015351D01*
X108869819Y-87015351D02*
X108869819Y-86777256D01*
X108869819Y-86777256D02*
X108917438Y-86634399D01*
X109869819Y-86205827D02*
X108869819Y-86205827D01*
X108869819Y-86205827D02*
X109584104Y-85872494D01*
X109584104Y-85872494D02*
X108869819Y-85539161D01*
X108869819Y-85539161D02*
X109869819Y-85539161D01*
X109869819Y-85062970D02*
X108869819Y-85062970D01*
X108869819Y-85062970D02*
X108869819Y-84824875D01*
X108869819Y-84824875D02*
X108917438Y-84682018D01*
X108917438Y-84682018D02*
X109012676Y-84586780D01*
X109012676Y-84586780D02*
X109107914Y-84539161D01*
X109107914Y-84539161D02*
X109298390Y-84491542D01*
X109298390Y-84491542D02*
X109441247Y-84491542D01*
X109441247Y-84491542D02*
X109631723Y-84539161D01*
X109631723Y-84539161D02*
X109726961Y-84586780D01*
X109726961Y-84586780D02*
X109822200Y-84682018D01*
X109822200Y-84682018D02*
X109869819Y-84824875D01*
X109869819Y-84824875D02*
X109869819Y-85062970D01*
X108822200Y-83348685D02*
X110107914Y-84205827D01*
X109774580Y-82443923D02*
X109822200Y-82491542D01*
X109822200Y-82491542D02*
X109869819Y-82634399D01*
X109869819Y-82634399D02*
X109869819Y-82729637D01*
X109869819Y-82729637D02*
X109822200Y-82872494D01*
X109822200Y-82872494D02*
X109726961Y-82967732D01*
X109726961Y-82967732D02*
X109631723Y-83015351D01*
X109631723Y-83015351D02*
X109441247Y-83062970D01*
X109441247Y-83062970D02*
X109298390Y-83062970D01*
X109298390Y-83062970D02*
X109107914Y-83015351D01*
X109107914Y-83015351D02*
X109012676Y-82967732D01*
X109012676Y-82967732D02*
X108917438Y-82872494D01*
X108917438Y-82872494D02*
X108869819Y-82729637D01*
X108869819Y-82729637D02*
X108869819Y-82634399D01*
X108869819Y-82634399D02*
X108917438Y-82491542D01*
X108917438Y-82491542D02*
X108965057Y-82443923D01*
X109869819Y-82015351D02*
X108869819Y-82015351D01*
X108869819Y-82015351D02*
X108869819Y-81634399D01*
X108869819Y-81634399D02*
X108917438Y-81539161D01*
X108917438Y-81539161D02*
X108965057Y-81491542D01*
X108965057Y-81491542D02*
X109060295Y-81443923D01*
X109060295Y-81443923D02*
X109203152Y-81443923D01*
X109203152Y-81443923D02*
X109298390Y-81491542D01*
X109298390Y-81491542D02*
X109346009Y-81539161D01*
X109346009Y-81539161D02*
X109393628Y-81634399D01*
X109393628Y-81634399D02*
X109393628Y-82015351D01*
X109869819Y-80539161D02*
X109869819Y-81015351D01*
X109869819Y-81015351D02*
X108869819Y-81015351D01*
X109869819Y-80205827D02*
X108869819Y-80205827D01*
X108869819Y-80205827D02*
X108869819Y-79967732D01*
X108869819Y-79967732D02*
X108917438Y-79824875D01*
X108917438Y-79824875D02*
X109012676Y-79729637D01*
X109012676Y-79729637D02*
X109107914Y-79682018D01*
X109107914Y-79682018D02*
X109298390Y-79634399D01*
X109298390Y-79634399D02*
X109441247Y-79634399D01*
X109441247Y-79634399D02*
X109631723Y-79682018D01*
X109631723Y-79682018D02*
X109726961Y-79729637D01*
X109726961Y-79729637D02*
X109822200Y-79824875D01*
X109822200Y-79824875D02*
X109869819Y-79967732D01*
X109869819Y-79967732D02*
X109869819Y-80205827D01*
X109203152Y-78539160D02*
X109869819Y-78301065D01*
X109869819Y-78301065D02*
X109203152Y-78062970D01*
X109822200Y-77301065D02*
X109869819Y-77396303D01*
X109869819Y-77396303D02*
X109869819Y-77586779D01*
X109869819Y-77586779D02*
X109822200Y-77682017D01*
X109822200Y-77682017D02*
X109726961Y-77729636D01*
X109726961Y-77729636D02*
X109346009Y-77729636D01*
X109346009Y-77729636D02*
X109250771Y-77682017D01*
X109250771Y-77682017D02*
X109203152Y-77586779D01*
X109203152Y-77586779D02*
X109203152Y-77396303D01*
X109203152Y-77396303D02*
X109250771Y-77301065D01*
X109250771Y-77301065D02*
X109346009Y-77253446D01*
X109346009Y-77253446D02*
X109441247Y-77253446D01*
X109441247Y-77253446D02*
X109536485Y-77729636D01*
X109869819Y-76824874D02*
X109203152Y-76824874D01*
X109393628Y-76824874D02*
X109298390Y-76777255D01*
X109298390Y-76777255D02*
X109250771Y-76729636D01*
X109250771Y-76729636D02*
X109203152Y-76634398D01*
X109203152Y-76634398D02*
X109203152Y-76539160D01*
X109822200Y-76253445D02*
X109869819Y-76158207D01*
X109869819Y-76158207D02*
X109869819Y-75967731D01*
X109869819Y-75967731D02*
X109822200Y-75872493D01*
X109822200Y-75872493D02*
X109726961Y-75824874D01*
X109726961Y-75824874D02*
X109679342Y-75824874D01*
X109679342Y-75824874D02*
X109584104Y-75872493D01*
X109584104Y-75872493D02*
X109536485Y-75967731D01*
X109536485Y-75967731D02*
X109536485Y-76110588D01*
X109536485Y-76110588D02*
X109488866Y-76205826D01*
X109488866Y-76205826D02*
X109393628Y-76253445D01*
X109393628Y-76253445D02*
X109346009Y-76253445D01*
X109346009Y-76253445D02*
X109250771Y-76205826D01*
X109250771Y-76205826D02*
X109203152Y-76110588D01*
X109203152Y-76110588D02*
X109203152Y-75967731D01*
X109203152Y-75967731D02*
X109250771Y-75872493D01*
X109869819Y-75396302D02*
X109203152Y-75396302D01*
X108869819Y-75396302D02*
X108917438Y-75443921D01*
X108917438Y-75443921D02*
X108965057Y-75396302D01*
X108965057Y-75396302D02*
X108917438Y-75348683D01*
X108917438Y-75348683D02*
X108869819Y-75396302D01*
X108869819Y-75396302D02*
X108965057Y-75396302D01*
X109869819Y-74777255D02*
X109822200Y-74872493D01*
X109822200Y-74872493D02*
X109774580Y-74920112D01*
X109774580Y-74920112D02*
X109679342Y-74967731D01*
X109679342Y-74967731D02*
X109393628Y-74967731D01*
X109393628Y-74967731D02*
X109298390Y-74920112D01*
X109298390Y-74920112D02*
X109250771Y-74872493D01*
X109250771Y-74872493D02*
X109203152Y-74777255D01*
X109203152Y-74777255D02*
X109203152Y-74634398D01*
X109203152Y-74634398D02*
X109250771Y-74539160D01*
X109250771Y-74539160D02*
X109298390Y-74491541D01*
X109298390Y-74491541D02*
X109393628Y-74443922D01*
X109393628Y-74443922D02*
X109679342Y-74443922D01*
X109679342Y-74443922D02*
X109774580Y-74491541D01*
X109774580Y-74491541D02*
X109822200Y-74539160D01*
X109822200Y-74539160D02*
X109869819Y-74634398D01*
X109869819Y-74634398D02*
X109869819Y-74777255D01*
X109203152Y-74015350D02*
X109869819Y-74015350D01*
X109298390Y-74015350D02*
X109250771Y-73967731D01*
X109250771Y-73967731D02*
X109203152Y-73872493D01*
X109203152Y-73872493D02*
X109203152Y-73729636D01*
X109203152Y-73729636D02*
X109250771Y-73634398D01*
X109250771Y-73634398D02*
X109346009Y-73586779D01*
X109346009Y-73586779D02*
X109869819Y-73586779D01*
X61453152Y-62913220D02*
X62310295Y-62913220D01*
X62310295Y-62913220D02*
X62405533Y-62960839D01*
X62405533Y-62960839D02*
X62453152Y-63056077D01*
X62453152Y-63056077D02*
X62453152Y-63103696D01*
X61119819Y-62913220D02*
X61167438Y-62960839D01*
X61167438Y-62960839D02*
X61215057Y-62913220D01*
X61215057Y-62913220D02*
X61167438Y-62865601D01*
X61167438Y-62865601D02*
X61119819Y-62913220D01*
X61119819Y-62913220D02*
X61215057Y-62913220D01*
X62119819Y-62294173D02*
X62072200Y-62389411D01*
X62072200Y-62389411D02*
X61976961Y-62437030D01*
X61976961Y-62437030D02*
X61119819Y-62437030D01*
X62072200Y-61484649D02*
X62119819Y-61579887D01*
X62119819Y-61579887D02*
X62119819Y-61770363D01*
X62119819Y-61770363D02*
X62072200Y-61865601D01*
X62072200Y-61865601D02*
X62024580Y-61913220D01*
X62024580Y-61913220D02*
X61929342Y-61960839D01*
X61929342Y-61960839D02*
X61643628Y-61960839D01*
X61643628Y-61960839D02*
X61548390Y-61913220D01*
X61548390Y-61913220D02*
X61500771Y-61865601D01*
X61500771Y-61865601D02*
X61453152Y-61770363D01*
X61453152Y-61770363D02*
X61453152Y-61579887D01*
X61453152Y-61579887D02*
X61500771Y-61484649D01*
X61453152Y-61056077D02*
X62310295Y-61056077D01*
X62310295Y-61056077D02*
X62405533Y-61103696D01*
X62405533Y-61103696D02*
X62453152Y-61198934D01*
X62453152Y-61198934D02*
X62453152Y-61246553D01*
X61119819Y-61056077D02*
X61167438Y-61103696D01*
X61167438Y-61103696D02*
X61215057Y-61056077D01*
X61215057Y-61056077D02*
X61167438Y-61008458D01*
X61167438Y-61008458D02*
X61119819Y-61056077D01*
X61119819Y-61056077D02*
X61215057Y-61056077D01*
X62119819Y-60437030D02*
X62072200Y-60532268D01*
X62072200Y-60532268D02*
X61976961Y-60579887D01*
X61976961Y-60579887D02*
X61119819Y-60579887D01*
X62072200Y-59627506D02*
X62119819Y-59722744D01*
X62119819Y-59722744D02*
X62119819Y-59913220D01*
X62119819Y-59913220D02*
X62072200Y-60008458D01*
X62072200Y-60008458D02*
X62024580Y-60056077D01*
X62024580Y-60056077D02*
X61929342Y-60103696D01*
X61929342Y-60103696D02*
X61643628Y-60103696D01*
X61643628Y-60103696D02*
X61548390Y-60056077D01*
X61548390Y-60056077D02*
X61500771Y-60008458D01*
X61500771Y-60008458D02*
X61453152Y-59913220D01*
X61453152Y-59913220D02*
X61453152Y-59722744D01*
X61453152Y-59722744D02*
X61500771Y-59627506D01*
X61453152Y-59198934D02*
X62310295Y-59198934D01*
X62310295Y-59198934D02*
X62405533Y-59246553D01*
X62405533Y-59246553D02*
X62453152Y-59341791D01*
X62453152Y-59341791D02*
X62453152Y-59389410D01*
X61119819Y-59198934D02*
X61167438Y-59246553D01*
X61167438Y-59246553D02*
X61215057Y-59198934D01*
X61215057Y-59198934D02*
X61167438Y-59151315D01*
X61167438Y-59151315D02*
X61119819Y-59198934D01*
X61119819Y-59198934D02*
X61215057Y-59198934D01*
X62119819Y-58579887D02*
X62072200Y-58675125D01*
X62072200Y-58675125D02*
X61976961Y-58722744D01*
X61976961Y-58722744D02*
X61119819Y-58722744D01*
X62072200Y-57770363D02*
X62119819Y-57865601D01*
X62119819Y-57865601D02*
X62119819Y-58056077D01*
X62119819Y-58056077D02*
X62072200Y-58151315D01*
X62072200Y-58151315D02*
X62024580Y-58198934D01*
X62024580Y-58198934D02*
X61929342Y-58246553D01*
X61929342Y-58246553D02*
X61643628Y-58246553D01*
X61643628Y-58246553D02*
X61548390Y-58198934D01*
X61548390Y-58198934D02*
X61500771Y-58151315D01*
X61500771Y-58151315D02*
X61453152Y-58056077D01*
X61453152Y-58056077D02*
X61453152Y-57865601D01*
X61453152Y-57865601D02*
X61500771Y-57770363D01*
X61453152Y-57341791D02*
X62310295Y-57341791D01*
X62310295Y-57341791D02*
X62405533Y-57389410D01*
X62405533Y-57389410D02*
X62453152Y-57484648D01*
X62453152Y-57484648D02*
X62453152Y-57532267D01*
X61119819Y-57341791D02*
X61167438Y-57389410D01*
X61167438Y-57389410D02*
X61215057Y-57341791D01*
X61215057Y-57341791D02*
X61167438Y-57294172D01*
X61167438Y-57294172D02*
X61119819Y-57341791D01*
X61119819Y-57341791D02*
X61215057Y-57341791D01*
X62119819Y-56722744D02*
X62072200Y-56817982D01*
X62072200Y-56817982D02*
X61976961Y-56865601D01*
X61976961Y-56865601D02*
X61119819Y-56865601D01*
X62072200Y-55913220D02*
X62119819Y-56008458D01*
X62119819Y-56008458D02*
X62119819Y-56198934D01*
X62119819Y-56198934D02*
X62072200Y-56294172D01*
X62072200Y-56294172D02*
X62024580Y-56341791D01*
X62024580Y-56341791D02*
X61929342Y-56389410D01*
X61929342Y-56389410D02*
X61643628Y-56389410D01*
X61643628Y-56389410D02*
X61548390Y-56341791D01*
X61548390Y-56341791D02*
X61500771Y-56294172D01*
X61500771Y-56294172D02*
X61453152Y-56198934D01*
X61453152Y-56198934D02*
X61453152Y-56008458D01*
X61453152Y-56008458D02*
X61500771Y-55913220D01*
X99119819Y-67837506D02*
X99834104Y-67837506D01*
X99834104Y-67837506D02*
X99976961Y-67885125D01*
X99976961Y-67885125D02*
X100072200Y-67980363D01*
X100072200Y-67980363D02*
X100119819Y-68123220D01*
X100119819Y-68123220D02*
X100119819Y-68218458D01*
X99119819Y-67504172D02*
X99119819Y-66932744D01*
X100119819Y-67218458D02*
X99119819Y-67218458D01*
X99834104Y-66647029D02*
X99834104Y-66170839D01*
X100119819Y-66742267D02*
X99119819Y-66408934D01*
X99119819Y-66408934D02*
X100119819Y-66075601D01*
X99167438Y-65218458D02*
X99119819Y-65313696D01*
X99119819Y-65313696D02*
X99119819Y-65456553D01*
X99119819Y-65456553D02*
X99167438Y-65599410D01*
X99167438Y-65599410D02*
X99262676Y-65694648D01*
X99262676Y-65694648D02*
X99357914Y-65742267D01*
X99357914Y-65742267D02*
X99548390Y-65789886D01*
X99548390Y-65789886D02*
X99691247Y-65789886D01*
X99691247Y-65789886D02*
X99881723Y-65742267D01*
X99881723Y-65742267D02*
X99976961Y-65694648D01*
X99976961Y-65694648D02*
X100072200Y-65599410D01*
X100072200Y-65599410D02*
X100119819Y-65456553D01*
X100119819Y-65456553D02*
X100119819Y-65361315D01*
X100119819Y-65361315D02*
X100072200Y-65218458D01*
X100072200Y-65218458D02*
X100024580Y-65170839D01*
X100024580Y-65170839D02*
X99691247Y-65170839D01*
X99691247Y-65170839D02*
X99691247Y-65361315D01*
X100119819Y-63980362D02*
X99119819Y-63980362D01*
X99119819Y-63980362D02*
X99119819Y-63599410D01*
X99119819Y-63599410D02*
X99167438Y-63504172D01*
X99167438Y-63504172D02*
X99215057Y-63456553D01*
X99215057Y-63456553D02*
X99310295Y-63408934D01*
X99310295Y-63408934D02*
X99453152Y-63408934D01*
X99453152Y-63408934D02*
X99548390Y-63456553D01*
X99548390Y-63456553D02*
X99596009Y-63504172D01*
X99596009Y-63504172D02*
X99643628Y-63599410D01*
X99643628Y-63599410D02*
X99643628Y-63980362D01*
X100119819Y-62408934D02*
X99643628Y-62742267D01*
X100119819Y-62980362D02*
X99119819Y-62980362D01*
X99119819Y-62980362D02*
X99119819Y-62599410D01*
X99119819Y-62599410D02*
X99167438Y-62504172D01*
X99167438Y-62504172D02*
X99215057Y-62456553D01*
X99215057Y-62456553D02*
X99310295Y-62408934D01*
X99310295Y-62408934D02*
X99453152Y-62408934D01*
X99453152Y-62408934D02*
X99548390Y-62456553D01*
X99548390Y-62456553D02*
X99596009Y-62504172D01*
X99596009Y-62504172D02*
X99643628Y-62599410D01*
X99643628Y-62599410D02*
X99643628Y-62980362D01*
X99119819Y-61789886D02*
X99119819Y-61599410D01*
X99119819Y-61599410D02*
X99167438Y-61504172D01*
X99167438Y-61504172D02*
X99262676Y-61408934D01*
X99262676Y-61408934D02*
X99453152Y-61361315D01*
X99453152Y-61361315D02*
X99786485Y-61361315D01*
X99786485Y-61361315D02*
X99976961Y-61408934D01*
X99976961Y-61408934D02*
X100072200Y-61504172D01*
X100072200Y-61504172D02*
X100119819Y-61599410D01*
X100119819Y-61599410D02*
X100119819Y-61789886D01*
X100119819Y-61789886D02*
X100072200Y-61885124D01*
X100072200Y-61885124D02*
X99976961Y-61980362D01*
X99976961Y-61980362D02*
X99786485Y-62027981D01*
X99786485Y-62027981D02*
X99453152Y-62027981D01*
X99453152Y-62027981D02*
X99262676Y-61980362D01*
X99262676Y-61980362D02*
X99167438Y-61885124D01*
X99167438Y-61885124D02*
X99119819Y-61789886D01*
X99167438Y-60408934D02*
X99119819Y-60504172D01*
X99119819Y-60504172D02*
X99119819Y-60647029D01*
X99119819Y-60647029D02*
X99167438Y-60789886D01*
X99167438Y-60789886D02*
X99262676Y-60885124D01*
X99262676Y-60885124D02*
X99357914Y-60932743D01*
X99357914Y-60932743D02*
X99548390Y-60980362D01*
X99548390Y-60980362D02*
X99691247Y-60980362D01*
X99691247Y-60980362D02*
X99881723Y-60932743D01*
X99881723Y-60932743D02*
X99976961Y-60885124D01*
X99976961Y-60885124D02*
X100072200Y-60789886D01*
X100072200Y-60789886D02*
X100119819Y-60647029D01*
X100119819Y-60647029D02*
X100119819Y-60551791D01*
X100119819Y-60551791D02*
X100072200Y-60408934D01*
X100072200Y-60408934D02*
X100024580Y-60361315D01*
X100024580Y-60361315D02*
X99691247Y-60361315D01*
X99691247Y-60361315D02*
X99691247Y-60551791D01*
X100119819Y-59361315D02*
X99643628Y-59694648D01*
X100119819Y-59932743D02*
X99119819Y-59932743D01*
X99119819Y-59932743D02*
X99119819Y-59551791D01*
X99119819Y-59551791D02*
X99167438Y-59456553D01*
X99167438Y-59456553D02*
X99215057Y-59408934D01*
X99215057Y-59408934D02*
X99310295Y-59361315D01*
X99310295Y-59361315D02*
X99453152Y-59361315D01*
X99453152Y-59361315D02*
X99548390Y-59408934D01*
X99548390Y-59408934D02*
X99596009Y-59456553D01*
X99596009Y-59456553D02*
X99643628Y-59551791D01*
X99643628Y-59551791D02*
X99643628Y-59932743D01*
X97663000Y-82397600D02*
X100457000Y-82397600D01*
X100457000Y-82651600D01*
X97663000Y-82651600D01*
X97663000Y-82397600D01*
G36*
X97663000Y-82397600D02*
G01*
X100457000Y-82397600D01*
X100457000Y-82651600D01*
X97663000Y-82651600D01*
X97663000Y-82397600D01*
G37*
X101092000Y-79171800D02*
X101346000Y-79171800D01*
X101346000Y-81965800D01*
X101092000Y-81965800D01*
X101092000Y-79171800D01*
G36*
X101092000Y-79171800D02*
G01*
X101346000Y-79171800D01*
X101346000Y-81965800D01*
X101092000Y-81965800D01*
X101092000Y-79171800D01*
G37*
X48938000Y-76200000D02*
X101008000Y-76200000D01*
X101008000Y-82296000D01*
X48938000Y-82296000D01*
X48938000Y-76200000D01*
X66410819Y-75037792D02*
X65934628Y-75371125D01*
X66410819Y-75609220D02*
X65410819Y-75609220D01*
X65410819Y-75609220D02*
X65410819Y-75228268D01*
X65410819Y-75228268D02*
X65458438Y-75133030D01*
X65458438Y-75133030D02*
X65506057Y-75085411D01*
X65506057Y-75085411D02*
X65601295Y-75037792D01*
X65601295Y-75037792D02*
X65744152Y-75037792D01*
X65744152Y-75037792D02*
X65839390Y-75085411D01*
X65839390Y-75085411D02*
X65887009Y-75133030D01*
X65887009Y-75133030D02*
X65934628Y-75228268D01*
X65934628Y-75228268D02*
X65934628Y-75609220D01*
X66410819Y-74609220D02*
X65410819Y-74609220D01*
X65410819Y-74609220D02*
X65410819Y-74371125D01*
X65410819Y-74371125D02*
X65458438Y-74228268D01*
X65458438Y-74228268D02*
X65553676Y-74133030D01*
X65553676Y-74133030D02*
X65648914Y-74085411D01*
X65648914Y-74085411D02*
X65839390Y-74037792D01*
X65839390Y-74037792D02*
X65982247Y-74037792D01*
X65982247Y-74037792D02*
X66172723Y-74085411D01*
X66172723Y-74085411D02*
X66267961Y-74133030D01*
X66267961Y-74133030D02*
X66363200Y-74228268D01*
X66363200Y-74228268D02*
X66410819Y-74371125D01*
X66410819Y-74371125D02*
X66410819Y-74609220D01*
X65133200Y-75747316D02*
X65133200Y-73947316D01*
X63124819Y-75704458D02*
X64124819Y-75466363D01*
X64124819Y-75466363D02*
X63410533Y-75275887D01*
X63410533Y-75275887D02*
X64124819Y-75085411D01*
X64124819Y-75085411D02*
X63124819Y-74847316D01*
X64124819Y-73894935D02*
X63648628Y-74228268D01*
X64124819Y-74466363D02*
X63124819Y-74466363D01*
X63124819Y-74466363D02*
X63124819Y-74085411D01*
X63124819Y-74085411D02*
X63172438Y-73990173D01*
X63172438Y-73990173D02*
X63220057Y-73942554D01*
X63220057Y-73942554D02*
X63315295Y-73894935D01*
X63315295Y-73894935D02*
X63458152Y-73894935D01*
X63458152Y-73894935D02*
X63553390Y-73942554D01*
X63553390Y-73942554D02*
X63601009Y-73990173D01*
X63601009Y-73990173D02*
X63648628Y-74085411D01*
X63648628Y-74085411D02*
X63648628Y-74466363D01*
X62847200Y-75747316D02*
X62847200Y-73804459D01*
X79079104Y-84521731D02*
X79079104Y-84045541D01*
X79364819Y-84616969D02*
X78364819Y-84283636D01*
X78364819Y-84283636D02*
X79364819Y-83950303D01*
X78364819Y-83188398D02*
X78364819Y-83378874D01*
X78364819Y-83378874D02*
X78412438Y-83474112D01*
X78412438Y-83474112D02*
X78460057Y-83521731D01*
X78460057Y-83521731D02*
X78602914Y-83616969D01*
X78602914Y-83616969D02*
X78793390Y-83664588D01*
X78793390Y-83664588D02*
X79174342Y-83664588D01*
X79174342Y-83664588D02*
X79269580Y-83616969D01*
X79269580Y-83616969D02*
X79317200Y-83569350D01*
X79317200Y-83569350D02*
X79364819Y-83474112D01*
X79364819Y-83474112D02*
X79364819Y-83283636D01*
X79364819Y-83283636D02*
X79317200Y-83188398D01*
X79317200Y-83188398D02*
X79269580Y-83140779D01*
X79269580Y-83140779D02*
X79174342Y-83093160D01*
X79174342Y-83093160D02*
X78936247Y-83093160D01*
X78936247Y-83093160D02*
X78841009Y-83140779D01*
X78841009Y-83140779D02*
X78793390Y-83188398D01*
X78793390Y-83188398D02*
X78745771Y-83283636D01*
X78745771Y-83283636D02*
X78745771Y-83474112D01*
X78745771Y-83474112D02*
X78793390Y-83569350D01*
X78793390Y-83569350D02*
X78841009Y-83616969D01*
X78841009Y-83616969D02*
X78936247Y-83664588D01*
X73745104Y-75656839D02*
X73745104Y-75180649D01*
X74030819Y-75752077D02*
X73030819Y-75418744D01*
X73030819Y-75418744D02*
X74030819Y-75085411D01*
X74030819Y-74228268D02*
X74030819Y-74799696D01*
X74030819Y-74513982D02*
X73030819Y-74513982D01*
X73030819Y-74513982D02*
X73173676Y-74609220D01*
X73173676Y-74609220D02*
X73268914Y-74704458D01*
X73268914Y-74704458D02*
X73316533Y-74799696D01*
X74030819Y-73275887D02*
X74030819Y-73847315D01*
X74030819Y-73561601D02*
X73030819Y-73561601D01*
X73030819Y-73561601D02*
X73173676Y-73656839D01*
X73173676Y-73656839D02*
X73268914Y-73752077D01*
X73268914Y-73752077D02*
X73316533Y-73847315D01*
X61330819Y-86236016D02*
X60330819Y-86236016D01*
X60330819Y-85569350D02*
X60330819Y-85378874D01*
X60330819Y-85378874D02*
X60378438Y-85283636D01*
X60378438Y-85283636D02*
X60473676Y-85188398D01*
X60473676Y-85188398D02*
X60664152Y-85140779D01*
X60664152Y-85140779D02*
X60997485Y-85140779D01*
X60997485Y-85140779D02*
X61187961Y-85188398D01*
X61187961Y-85188398D02*
X61283200Y-85283636D01*
X61283200Y-85283636D02*
X61330819Y-85378874D01*
X61330819Y-85378874D02*
X61330819Y-85569350D01*
X61330819Y-85569350D02*
X61283200Y-85664588D01*
X61283200Y-85664588D02*
X61187961Y-85759826D01*
X61187961Y-85759826D02*
X60997485Y-85807445D01*
X60997485Y-85807445D02*
X60664152Y-85807445D01*
X60664152Y-85807445D02*
X60473676Y-85759826D01*
X60473676Y-85759826D02*
X60378438Y-85664588D01*
X60378438Y-85664588D02*
X60330819Y-85569350D01*
X61330819Y-84140779D02*
X60854628Y-84474112D01*
X61330819Y-84712207D02*
X60330819Y-84712207D01*
X60330819Y-84712207D02*
X60330819Y-84331255D01*
X60330819Y-84331255D02*
X60378438Y-84236017D01*
X60378438Y-84236017D02*
X60426057Y-84188398D01*
X60426057Y-84188398D02*
X60521295Y-84140779D01*
X60521295Y-84140779D02*
X60664152Y-84140779D01*
X60664152Y-84140779D02*
X60759390Y-84188398D01*
X60759390Y-84188398D02*
X60807009Y-84236017D01*
X60807009Y-84236017D02*
X60854628Y-84331255D01*
X60854628Y-84331255D02*
X60854628Y-84712207D01*
X61426057Y-83045541D02*
X61378438Y-83140779D01*
X61378438Y-83140779D02*
X61283200Y-83236017D01*
X61283200Y-83236017D02*
X61140342Y-83378874D01*
X61140342Y-83378874D02*
X61092723Y-83474112D01*
X61092723Y-83474112D02*
X61092723Y-83569350D01*
X61330819Y-83521731D02*
X61283200Y-83616969D01*
X61283200Y-83616969D02*
X61187961Y-83712207D01*
X61187961Y-83712207D02*
X60997485Y-83759826D01*
X60997485Y-83759826D02*
X60664152Y-83759826D01*
X60664152Y-83759826D02*
X60473676Y-83712207D01*
X60473676Y-83712207D02*
X60378438Y-83616969D01*
X60378438Y-83616969D02*
X60330819Y-83521731D01*
X60330819Y-83521731D02*
X60330819Y-83331255D01*
X60330819Y-83331255D02*
X60378438Y-83236017D01*
X60378438Y-83236017D02*
X60473676Y-83140779D01*
X60473676Y-83140779D02*
X60664152Y-83093160D01*
X60664152Y-83093160D02*
X60997485Y-83093160D01*
X60997485Y-83093160D02*
X61187961Y-83140779D01*
X61187961Y-83140779D02*
X61283200Y-83236017D01*
X61283200Y-83236017D02*
X61330819Y-83331255D01*
X61330819Y-83331255D02*
X61330819Y-83521731D01*
X60053200Y-86374112D02*
X60053200Y-83002684D01*
X86699104Y-84521731D02*
X86699104Y-84045541D01*
X86984819Y-84616969D02*
X85984819Y-84283636D01*
X85984819Y-84283636D02*
X86984819Y-83950303D01*
X85984819Y-83426493D02*
X85984819Y-83331255D01*
X85984819Y-83331255D02*
X86032438Y-83236017D01*
X86032438Y-83236017D02*
X86080057Y-83188398D01*
X86080057Y-83188398D02*
X86175295Y-83140779D01*
X86175295Y-83140779D02*
X86365771Y-83093160D01*
X86365771Y-83093160D02*
X86603866Y-83093160D01*
X86603866Y-83093160D02*
X86794342Y-83140779D01*
X86794342Y-83140779D02*
X86889580Y-83188398D01*
X86889580Y-83188398D02*
X86937200Y-83236017D01*
X86937200Y-83236017D02*
X86984819Y-83331255D01*
X86984819Y-83331255D02*
X86984819Y-83426493D01*
X86984819Y-83426493D02*
X86937200Y-83521731D01*
X86937200Y-83521731D02*
X86889580Y-83569350D01*
X86889580Y-83569350D02*
X86794342Y-83616969D01*
X86794342Y-83616969D02*
X86603866Y-83664588D01*
X86603866Y-83664588D02*
X86365771Y-83664588D01*
X86365771Y-83664588D02*
X86175295Y-83616969D01*
X86175295Y-83616969D02*
X86080057Y-83569350D01*
X86080057Y-83569350D02*
X86032438Y-83521731D01*
X86032438Y-83521731D02*
X85984819Y-83426493D01*
X96890819Y-75609220D02*
X95890819Y-75609220D01*
X95890819Y-75609220D02*
X95890819Y-75371125D01*
X95890819Y-75371125D02*
X95938438Y-75228268D01*
X95938438Y-75228268D02*
X96033676Y-75133030D01*
X96033676Y-75133030D02*
X96128914Y-75085411D01*
X96128914Y-75085411D02*
X96319390Y-75037792D01*
X96319390Y-75037792D02*
X96462247Y-75037792D01*
X96462247Y-75037792D02*
X96652723Y-75085411D01*
X96652723Y-75085411D02*
X96747961Y-75133030D01*
X96747961Y-75133030D02*
X96843200Y-75228268D01*
X96843200Y-75228268D02*
X96890819Y-75371125D01*
X96890819Y-75371125D02*
X96890819Y-75609220D01*
X96890819Y-74085411D02*
X96890819Y-74656839D01*
X96890819Y-74371125D02*
X95890819Y-74371125D01*
X95890819Y-74371125D02*
X96033676Y-74466363D01*
X96033676Y-74466363D02*
X96128914Y-74561601D01*
X96128914Y-74561601D02*
X96176533Y-74656839D01*
X71205104Y-85474112D02*
X71205104Y-84997922D01*
X71490819Y-85569350D02*
X70490819Y-85236017D01*
X70490819Y-85236017D02*
X71490819Y-84902684D01*
X71490819Y-84045541D02*
X71490819Y-84616969D01*
X71490819Y-84331255D02*
X70490819Y-84331255D01*
X70490819Y-84331255D02*
X70633676Y-84426493D01*
X70633676Y-84426493D02*
X70728914Y-84521731D01*
X70728914Y-84521731D02*
X70776533Y-84616969D01*
X70586057Y-83664588D02*
X70538438Y-83616969D01*
X70538438Y-83616969D02*
X70490819Y-83521731D01*
X70490819Y-83521731D02*
X70490819Y-83283636D01*
X70490819Y-83283636D02*
X70538438Y-83188398D01*
X70538438Y-83188398D02*
X70586057Y-83140779D01*
X70586057Y-83140779D02*
X70681295Y-83093160D01*
X70681295Y-83093160D02*
X70776533Y-83093160D01*
X70776533Y-83093160D02*
X70919390Y-83140779D01*
X70919390Y-83140779D02*
X71490819Y-83712207D01*
X71490819Y-83712207D02*
X71490819Y-83093160D01*
X89524819Y-84616969D02*
X88524819Y-84616969D01*
X88524819Y-84616969D02*
X88524819Y-84378874D01*
X88524819Y-84378874D02*
X88572438Y-84236017D01*
X88572438Y-84236017D02*
X88667676Y-84140779D01*
X88667676Y-84140779D02*
X88762914Y-84093160D01*
X88762914Y-84093160D02*
X88953390Y-84045541D01*
X88953390Y-84045541D02*
X89096247Y-84045541D01*
X89096247Y-84045541D02*
X89286723Y-84093160D01*
X89286723Y-84093160D02*
X89381961Y-84140779D01*
X89381961Y-84140779D02*
X89477200Y-84236017D01*
X89477200Y-84236017D02*
X89524819Y-84378874D01*
X89524819Y-84378874D02*
X89524819Y-84616969D01*
X88524819Y-83188398D02*
X88524819Y-83378874D01*
X88524819Y-83378874D02*
X88572438Y-83474112D01*
X88572438Y-83474112D02*
X88620057Y-83521731D01*
X88620057Y-83521731D02*
X88762914Y-83616969D01*
X88762914Y-83616969D02*
X88953390Y-83664588D01*
X88953390Y-83664588D02*
X89334342Y-83664588D01*
X89334342Y-83664588D02*
X89429580Y-83616969D01*
X89429580Y-83616969D02*
X89477200Y-83569350D01*
X89477200Y-83569350D02*
X89524819Y-83474112D01*
X89524819Y-83474112D02*
X89524819Y-83283636D01*
X89524819Y-83283636D02*
X89477200Y-83188398D01*
X89477200Y-83188398D02*
X89429580Y-83140779D01*
X89429580Y-83140779D02*
X89334342Y-83093160D01*
X89334342Y-83093160D02*
X89096247Y-83093160D01*
X89096247Y-83093160D02*
X89001009Y-83140779D01*
X89001009Y-83140779D02*
X88953390Y-83188398D01*
X88953390Y-83188398D02*
X88905771Y-83283636D01*
X88905771Y-83283636D02*
X88905771Y-83474112D01*
X88905771Y-83474112D02*
X88953390Y-83569350D01*
X88953390Y-83569350D02*
X89001009Y-83616969D01*
X89001009Y-83616969D02*
X89096247Y-83664588D01*
X81619104Y-84521731D02*
X81619104Y-84045541D01*
X81904819Y-84616969D02*
X80904819Y-84283636D01*
X80904819Y-84283636D02*
X81904819Y-83950303D01*
X81238152Y-83188398D02*
X81904819Y-83188398D01*
X80857200Y-83426493D02*
X81571485Y-83664588D01*
X81571485Y-83664588D02*
X81571485Y-83045541D01*
D11*
X44228558Y-64509733D02*
X45752368Y-64509733D01*
D10*
X83905104Y-75656839D02*
X83905104Y-75180649D01*
X84190819Y-75752077D02*
X83190819Y-75418744D01*
X83190819Y-75418744D02*
X84190819Y-75085411D01*
X83190819Y-74847315D02*
X83190819Y-74228268D01*
X83190819Y-74228268D02*
X83571771Y-74561601D01*
X83571771Y-74561601D02*
X83571771Y-74418744D01*
X83571771Y-74418744D02*
X83619390Y-74323506D01*
X83619390Y-74323506D02*
X83667009Y-74275887D01*
X83667009Y-74275887D02*
X83762247Y-74228268D01*
X83762247Y-74228268D02*
X84000342Y-74228268D01*
X84000342Y-74228268D02*
X84095580Y-74275887D01*
X84095580Y-74275887D02*
X84143200Y-74323506D01*
X84143200Y-74323506D02*
X84190819Y-74418744D01*
X84190819Y-74418744D02*
X84190819Y-74704458D01*
X84190819Y-74704458D02*
X84143200Y-74799696D01*
X84143200Y-74799696D02*
X84095580Y-74847315D01*
X69204819Y-75037792D02*
X68728628Y-75371125D01*
X69204819Y-75609220D02*
X68204819Y-75609220D01*
X68204819Y-75609220D02*
X68204819Y-75228268D01*
X68204819Y-75228268D02*
X68252438Y-75133030D01*
X68252438Y-75133030D02*
X68300057Y-75085411D01*
X68300057Y-75085411D02*
X68395295Y-75037792D01*
X68395295Y-75037792D02*
X68538152Y-75037792D01*
X68538152Y-75037792D02*
X68633390Y-75085411D01*
X68633390Y-75085411D02*
X68681009Y-75133030D01*
X68681009Y-75133030D02*
X68728628Y-75228268D01*
X68728628Y-75228268D02*
X68728628Y-75609220D01*
X68919104Y-74656839D02*
X68919104Y-74180649D01*
X69204819Y-74752077D02*
X68204819Y-74418744D01*
X68204819Y-74418744D02*
X69204819Y-74085411D01*
X69204819Y-73752077D02*
X68204819Y-73752077D01*
X68204819Y-73752077D02*
X68919104Y-73418744D01*
X68919104Y-73418744D02*
X68204819Y-73085411D01*
X68204819Y-73085411D02*
X69204819Y-73085411D01*
X69157200Y-72656839D02*
X69204819Y-72513982D01*
X69204819Y-72513982D02*
X69204819Y-72275887D01*
X69204819Y-72275887D02*
X69157200Y-72180649D01*
X69157200Y-72180649D02*
X69109580Y-72133030D01*
X69109580Y-72133030D02*
X69014342Y-72085411D01*
X69014342Y-72085411D02*
X68919104Y-72085411D01*
X68919104Y-72085411D02*
X68823866Y-72133030D01*
X68823866Y-72133030D02*
X68776247Y-72180649D01*
X68776247Y-72180649D02*
X68728628Y-72275887D01*
X68728628Y-72275887D02*
X68681009Y-72466363D01*
X68681009Y-72466363D02*
X68633390Y-72561601D01*
X68633390Y-72561601D02*
X68585771Y-72609220D01*
X68585771Y-72609220D02*
X68490533Y-72656839D01*
X68490533Y-72656839D02*
X68395295Y-72656839D01*
X68395295Y-72656839D02*
X68300057Y-72609220D01*
X68300057Y-72609220D02*
X68252438Y-72561601D01*
X68252438Y-72561601D02*
X68204819Y-72466363D01*
X68204819Y-72466363D02*
X68204819Y-72228268D01*
X68204819Y-72228268D02*
X68252438Y-72085411D01*
X68300057Y-71704458D02*
X68252438Y-71656839D01*
X68252438Y-71656839D02*
X68204819Y-71561601D01*
X68204819Y-71561601D02*
X68204819Y-71323506D01*
X68204819Y-71323506D02*
X68252438Y-71228268D01*
X68252438Y-71228268D02*
X68300057Y-71180649D01*
X68300057Y-71180649D02*
X68395295Y-71133030D01*
X68395295Y-71133030D02*
X68490533Y-71133030D01*
X68490533Y-71133030D02*
X68633390Y-71180649D01*
X68633390Y-71180649D02*
X69204819Y-71752077D01*
X69204819Y-71752077D02*
X69204819Y-71133030D01*
X92064819Y-84616969D02*
X91064819Y-84616969D01*
X91064819Y-84616969D02*
X91064819Y-84378874D01*
X91064819Y-84378874D02*
X91112438Y-84236017D01*
X91112438Y-84236017D02*
X91207676Y-84140779D01*
X91207676Y-84140779D02*
X91302914Y-84093160D01*
X91302914Y-84093160D02*
X91493390Y-84045541D01*
X91493390Y-84045541D02*
X91636247Y-84045541D01*
X91636247Y-84045541D02*
X91826723Y-84093160D01*
X91826723Y-84093160D02*
X91921961Y-84140779D01*
X91921961Y-84140779D02*
X92017200Y-84236017D01*
X92017200Y-84236017D02*
X92064819Y-84378874D01*
X92064819Y-84378874D02*
X92064819Y-84616969D01*
X91398152Y-83188398D02*
X92064819Y-83188398D01*
X91017200Y-83426493D02*
X91731485Y-83664588D01*
X91731485Y-83664588D02*
X91731485Y-83045541D01*
D11*
X46641558Y-54603733D02*
X48165368Y-54603733D01*
X47403463Y-55365638D02*
X47403463Y-53841828D01*
D10*
X76539104Y-84521731D02*
X76539104Y-84045541D01*
X76824819Y-84616969D02*
X75824819Y-84283636D01*
X75824819Y-84283636D02*
X76824819Y-83950303D01*
X76253390Y-83474112D02*
X76205771Y-83569350D01*
X76205771Y-83569350D02*
X76158152Y-83616969D01*
X76158152Y-83616969D02*
X76062914Y-83664588D01*
X76062914Y-83664588D02*
X76015295Y-83664588D01*
X76015295Y-83664588D02*
X75920057Y-83616969D01*
X75920057Y-83616969D02*
X75872438Y-83569350D01*
X75872438Y-83569350D02*
X75824819Y-83474112D01*
X75824819Y-83474112D02*
X75824819Y-83283636D01*
X75824819Y-83283636D02*
X75872438Y-83188398D01*
X75872438Y-83188398D02*
X75920057Y-83140779D01*
X75920057Y-83140779D02*
X76015295Y-83093160D01*
X76015295Y-83093160D02*
X76062914Y-83093160D01*
X76062914Y-83093160D02*
X76158152Y-83140779D01*
X76158152Y-83140779D02*
X76205771Y-83188398D01*
X76205771Y-83188398D02*
X76253390Y-83283636D01*
X76253390Y-83283636D02*
X76253390Y-83474112D01*
X76253390Y-83474112D02*
X76301009Y-83569350D01*
X76301009Y-83569350D02*
X76348628Y-83616969D01*
X76348628Y-83616969D02*
X76443866Y-83664588D01*
X76443866Y-83664588D02*
X76634342Y-83664588D01*
X76634342Y-83664588D02*
X76729580Y-83616969D01*
X76729580Y-83616969D02*
X76777200Y-83569350D01*
X76777200Y-83569350D02*
X76824819Y-83474112D01*
X76824819Y-83474112D02*
X76824819Y-83283636D01*
X76824819Y-83283636D02*
X76777200Y-83188398D01*
X76777200Y-83188398D02*
X76729580Y-83140779D01*
X76729580Y-83140779D02*
X76634342Y-83093160D01*
X76634342Y-83093160D02*
X76443866Y-83093160D01*
X76443866Y-83093160D02*
X76348628Y-83140779D01*
X76348628Y-83140779D02*
X76301009Y-83188398D01*
X76301009Y-83188398D02*
X76253390Y-83283636D01*
X66410819Y-85855064D02*
X65410819Y-85855064D01*
X65410819Y-85855064D02*
X66125104Y-85521731D01*
X66125104Y-85521731D02*
X65410819Y-85188398D01*
X65410819Y-85188398D02*
X66410819Y-85188398D01*
X66410819Y-84140779D02*
X65934628Y-84474112D01*
X66410819Y-84712207D02*
X65410819Y-84712207D01*
X65410819Y-84712207D02*
X65410819Y-84331255D01*
X65410819Y-84331255D02*
X65458438Y-84236017D01*
X65458438Y-84236017D02*
X65506057Y-84188398D01*
X65506057Y-84188398D02*
X65601295Y-84140779D01*
X65601295Y-84140779D02*
X65744152Y-84140779D01*
X65744152Y-84140779D02*
X65839390Y-84188398D01*
X65839390Y-84188398D02*
X65887009Y-84236017D01*
X65887009Y-84236017D02*
X65934628Y-84331255D01*
X65934628Y-84331255D02*
X65934628Y-84712207D01*
X66506057Y-83045541D02*
X66458438Y-83140779D01*
X66458438Y-83140779D02*
X66363200Y-83236017D01*
X66363200Y-83236017D02*
X66220342Y-83378874D01*
X66220342Y-83378874D02*
X66172723Y-83474112D01*
X66172723Y-83474112D02*
X66172723Y-83569350D01*
X66410819Y-83521731D02*
X66363200Y-83616969D01*
X66363200Y-83616969D02*
X66267961Y-83712207D01*
X66267961Y-83712207D02*
X66077485Y-83759826D01*
X66077485Y-83759826D02*
X65744152Y-83759826D01*
X65744152Y-83759826D02*
X65553676Y-83712207D01*
X65553676Y-83712207D02*
X65458438Y-83616969D01*
X65458438Y-83616969D02*
X65410819Y-83521731D01*
X65410819Y-83521731D02*
X65410819Y-83331255D01*
X65410819Y-83331255D02*
X65458438Y-83236017D01*
X65458438Y-83236017D02*
X65553676Y-83140779D01*
X65553676Y-83140779D02*
X65744152Y-83093160D01*
X65744152Y-83093160D02*
X66077485Y-83093160D01*
X66077485Y-83093160D02*
X66267961Y-83140779D01*
X66267961Y-83140779D02*
X66363200Y-83236017D01*
X66363200Y-83236017D02*
X66410819Y-83331255D01*
X66410819Y-83331255D02*
X66410819Y-83521731D01*
X65133200Y-85993160D02*
X65133200Y-83002684D01*
X78825104Y-75656839D02*
X78825104Y-75180649D01*
X79110819Y-75752077D02*
X78110819Y-75418744D01*
X78110819Y-75418744D02*
X79110819Y-75085411D01*
X78110819Y-74847315D02*
X78110819Y-74180649D01*
X78110819Y-74180649D02*
X79110819Y-74609220D01*
X89270819Y-75609220D02*
X88270819Y-75609220D01*
X88270819Y-75609220D02*
X88270819Y-75371125D01*
X88270819Y-75371125D02*
X88318438Y-75228268D01*
X88318438Y-75228268D02*
X88413676Y-75133030D01*
X88413676Y-75133030D02*
X88508914Y-75085411D01*
X88508914Y-75085411D02*
X88699390Y-75037792D01*
X88699390Y-75037792D02*
X88842247Y-75037792D01*
X88842247Y-75037792D02*
X89032723Y-75085411D01*
X89032723Y-75085411D02*
X89127961Y-75133030D01*
X89127961Y-75133030D02*
X89223200Y-75228268D01*
X89223200Y-75228268D02*
X89270819Y-75371125D01*
X89270819Y-75371125D02*
X89270819Y-75609220D01*
X88270819Y-74704458D02*
X88270819Y-74037792D01*
X88270819Y-74037792D02*
X89270819Y-74466363D01*
X91810819Y-75609220D02*
X90810819Y-75609220D01*
X90810819Y-75609220D02*
X90810819Y-75371125D01*
X90810819Y-75371125D02*
X90858438Y-75228268D01*
X90858438Y-75228268D02*
X90953676Y-75133030D01*
X90953676Y-75133030D02*
X91048914Y-75085411D01*
X91048914Y-75085411D02*
X91239390Y-75037792D01*
X91239390Y-75037792D02*
X91382247Y-75037792D01*
X91382247Y-75037792D02*
X91572723Y-75085411D01*
X91572723Y-75085411D02*
X91667961Y-75133030D01*
X91667961Y-75133030D02*
X91763200Y-75228268D01*
X91763200Y-75228268D02*
X91810819Y-75371125D01*
X91810819Y-75371125D02*
X91810819Y-75609220D01*
X90810819Y-74133030D02*
X90810819Y-74609220D01*
X90810819Y-74609220D02*
X91287009Y-74656839D01*
X91287009Y-74656839D02*
X91239390Y-74609220D01*
X91239390Y-74609220D02*
X91191771Y-74513982D01*
X91191771Y-74513982D02*
X91191771Y-74275887D01*
X91191771Y-74275887D02*
X91239390Y-74180649D01*
X91239390Y-74180649D02*
X91287009Y-74133030D01*
X91287009Y-74133030D02*
X91382247Y-74085411D01*
X91382247Y-74085411D02*
X91620342Y-74085411D01*
X91620342Y-74085411D02*
X91715580Y-74133030D01*
X91715580Y-74133030D02*
X91763200Y-74180649D01*
X91763200Y-74180649D02*
X91810819Y-74275887D01*
X91810819Y-74275887D02*
X91810819Y-74513982D01*
X91810819Y-74513982D02*
X91763200Y-74609220D01*
X91763200Y-74609220D02*
X91715580Y-74656839D01*
X59044819Y-75037792D02*
X58568628Y-75371125D01*
X59044819Y-75609220D02*
X58044819Y-75609220D01*
X58044819Y-75609220D02*
X58044819Y-75228268D01*
X58044819Y-75228268D02*
X58092438Y-75133030D01*
X58092438Y-75133030D02*
X58140057Y-75085411D01*
X58140057Y-75085411D02*
X58235295Y-75037792D01*
X58235295Y-75037792D02*
X58378152Y-75037792D01*
X58378152Y-75037792D02*
X58473390Y-75085411D01*
X58473390Y-75085411D02*
X58521009Y-75133030D01*
X58521009Y-75133030D02*
X58568628Y-75228268D01*
X58568628Y-75228268D02*
X58568628Y-75609220D01*
X58521009Y-74609220D02*
X58521009Y-74275887D01*
X59044819Y-74133030D02*
X59044819Y-74609220D01*
X59044819Y-74609220D02*
X58044819Y-74609220D01*
X58044819Y-74609220D02*
X58044819Y-74133030D01*
X58997200Y-73752077D02*
X59044819Y-73609220D01*
X59044819Y-73609220D02*
X59044819Y-73371125D01*
X59044819Y-73371125D02*
X58997200Y-73275887D01*
X58997200Y-73275887D02*
X58949580Y-73228268D01*
X58949580Y-73228268D02*
X58854342Y-73180649D01*
X58854342Y-73180649D02*
X58759104Y-73180649D01*
X58759104Y-73180649D02*
X58663866Y-73228268D01*
X58663866Y-73228268D02*
X58616247Y-73275887D01*
X58616247Y-73275887D02*
X58568628Y-73371125D01*
X58568628Y-73371125D02*
X58521009Y-73561601D01*
X58521009Y-73561601D02*
X58473390Y-73656839D01*
X58473390Y-73656839D02*
X58425771Y-73704458D01*
X58425771Y-73704458D02*
X58330533Y-73752077D01*
X58330533Y-73752077D02*
X58235295Y-73752077D01*
X58235295Y-73752077D02*
X58140057Y-73704458D01*
X58140057Y-73704458D02*
X58092438Y-73656839D01*
X58092438Y-73656839D02*
X58044819Y-73561601D01*
X58044819Y-73561601D02*
X58044819Y-73323506D01*
X58044819Y-73323506D02*
X58092438Y-73180649D01*
X57767200Y-75747316D02*
X57767200Y-73090173D01*
X94350819Y-75609220D02*
X93350819Y-75609220D01*
X93350819Y-75609220D02*
X93350819Y-75371125D01*
X93350819Y-75371125D02*
X93398438Y-75228268D01*
X93398438Y-75228268D02*
X93493676Y-75133030D01*
X93493676Y-75133030D02*
X93588914Y-75085411D01*
X93588914Y-75085411D02*
X93779390Y-75037792D01*
X93779390Y-75037792D02*
X93922247Y-75037792D01*
X93922247Y-75037792D02*
X94112723Y-75085411D01*
X94112723Y-75085411D02*
X94207961Y-75133030D01*
X94207961Y-75133030D02*
X94303200Y-75228268D01*
X94303200Y-75228268D02*
X94350819Y-75371125D01*
X94350819Y-75371125D02*
X94350819Y-75609220D01*
X93350819Y-74704458D02*
X93350819Y-74085411D01*
X93350819Y-74085411D02*
X93731771Y-74418744D01*
X93731771Y-74418744D02*
X93731771Y-74275887D01*
X93731771Y-74275887D02*
X93779390Y-74180649D01*
X93779390Y-74180649D02*
X93827009Y-74133030D01*
X93827009Y-74133030D02*
X93922247Y-74085411D01*
X93922247Y-74085411D02*
X94160342Y-74085411D01*
X94160342Y-74085411D02*
X94255580Y-74133030D01*
X94255580Y-74133030D02*
X94303200Y-74180649D01*
X94303200Y-74180649D02*
X94350819Y-74275887D01*
X94350819Y-74275887D02*
X94350819Y-74561601D01*
X94350819Y-74561601D02*
X94303200Y-74656839D01*
X94303200Y-74656839D02*
X94255580Y-74704458D01*
X73745104Y-85474112D02*
X73745104Y-84997922D01*
X74030819Y-85569350D02*
X73030819Y-85236017D01*
X73030819Y-85236017D02*
X74030819Y-84902684D01*
X74030819Y-84045541D02*
X74030819Y-84616969D01*
X74030819Y-84331255D02*
X73030819Y-84331255D01*
X73030819Y-84331255D02*
X73173676Y-84426493D01*
X73173676Y-84426493D02*
X73268914Y-84521731D01*
X73268914Y-84521731D02*
X73316533Y-84616969D01*
X73030819Y-83426493D02*
X73030819Y-83331255D01*
X73030819Y-83331255D02*
X73078438Y-83236017D01*
X73078438Y-83236017D02*
X73126057Y-83188398D01*
X73126057Y-83188398D02*
X73221295Y-83140779D01*
X73221295Y-83140779D02*
X73411771Y-83093160D01*
X73411771Y-83093160D02*
X73649866Y-83093160D01*
X73649866Y-83093160D02*
X73840342Y-83140779D01*
X73840342Y-83140779D02*
X73935580Y-83188398D01*
X73935580Y-83188398D02*
X73983200Y-83236017D01*
X73983200Y-83236017D02*
X74030819Y-83331255D01*
X74030819Y-83331255D02*
X74030819Y-83426493D01*
X74030819Y-83426493D02*
X73983200Y-83521731D01*
X73983200Y-83521731D02*
X73935580Y-83569350D01*
X73935580Y-83569350D02*
X73840342Y-83616969D01*
X73840342Y-83616969D02*
X73649866Y-83664588D01*
X73649866Y-83664588D02*
X73411771Y-83664588D01*
X73411771Y-83664588D02*
X73221295Y-83616969D01*
X73221295Y-83616969D02*
X73126057Y-83569350D01*
X73126057Y-83569350D02*
X73078438Y-83521731D01*
X73078438Y-83521731D02*
X73030819Y-83426493D01*
X97144819Y-84616969D02*
X96144819Y-84616969D01*
X96144819Y-84616969D02*
X96144819Y-84378874D01*
X96144819Y-84378874D02*
X96192438Y-84236017D01*
X96192438Y-84236017D02*
X96287676Y-84140779D01*
X96287676Y-84140779D02*
X96382914Y-84093160D01*
X96382914Y-84093160D02*
X96573390Y-84045541D01*
X96573390Y-84045541D02*
X96716247Y-84045541D01*
X96716247Y-84045541D02*
X96906723Y-84093160D01*
X96906723Y-84093160D02*
X97001961Y-84140779D01*
X97001961Y-84140779D02*
X97097200Y-84236017D01*
X97097200Y-84236017D02*
X97144819Y-84378874D01*
X97144819Y-84378874D02*
X97144819Y-84616969D01*
X96144819Y-83426493D02*
X96144819Y-83331255D01*
X96144819Y-83331255D02*
X96192438Y-83236017D01*
X96192438Y-83236017D02*
X96240057Y-83188398D01*
X96240057Y-83188398D02*
X96335295Y-83140779D01*
X96335295Y-83140779D02*
X96525771Y-83093160D01*
X96525771Y-83093160D02*
X96763866Y-83093160D01*
X96763866Y-83093160D02*
X96954342Y-83140779D01*
X96954342Y-83140779D02*
X97049580Y-83188398D01*
X97049580Y-83188398D02*
X97097200Y-83236017D01*
X97097200Y-83236017D02*
X97144819Y-83331255D01*
X97144819Y-83331255D02*
X97144819Y-83426493D01*
X97144819Y-83426493D02*
X97097200Y-83521731D01*
X97097200Y-83521731D02*
X97049580Y-83569350D01*
X97049580Y-83569350D02*
X96954342Y-83616969D01*
X96954342Y-83616969D02*
X96763866Y-83664588D01*
X96763866Y-83664588D02*
X96525771Y-83664588D01*
X96525771Y-83664588D02*
X96335295Y-83616969D01*
X96335295Y-83616969D02*
X96240057Y-83569350D01*
X96240057Y-83569350D02*
X96192438Y-83521731D01*
X96192438Y-83521731D02*
X96144819Y-83426493D01*
X84159104Y-84521731D02*
X84159104Y-84045541D01*
X84444819Y-84616969D02*
X83444819Y-84283636D01*
X83444819Y-84283636D02*
X84444819Y-83950303D01*
X83540057Y-83664588D02*
X83492438Y-83616969D01*
X83492438Y-83616969D02*
X83444819Y-83521731D01*
X83444819Y-83521731D02*
X83444819Y-83283636D01*
X83444819Y-83283636D02*
X83492438Y-83188398D01*
X83492438Y-83188398D02*
X83540057Y-83140779D01*
X83540057Y-83140779D02*
X83635295Y-83093160D01*
X83635295Y-83093160D02*
X83730533Y-83093160D01*
X83730533Y-83093160D02*
X83873390Y-83140779D01*
X83873390Y-83140779D02*
X84444819Y-83712207D01*
X84444819Y-83712207D02*
X84444819Y-83093160D01*
D11*
X44228558Y-67303733D02*
X45752368Y-67303733D01*
X44990463Y-68065638D02*
X44990463Y-66541828D01*
D10*
X98432438Y-84934398D02*
X98384819Y-85029636D01*
X98384819Y-85029636D02*
X98384819Y-85172493D01*
X98384819Y-85172493D02*
X98432438Y-85315350D01*
X98432438Y-85315350D02*
X98527676Y-85410588D01*
X98527676Y-85410588D02*
X98622914Y-85458207D01*
X98622914Y-85458207D02*
X98813390Y-85505826D01*
X98813390Y-85505826D02*
X98956247Y-85505826D01*
X98956247Y-85505826D02*
X99146723Y-85458207D01*
X99146723Y-85458207D02*
X99241961Y-85410588D01*
X99241961Y-85410588D02*
X99337200Y-85315350D01*
X99337200Y-85315350D02*
X99384819Y-85172493D01*
X99384819Y-85172493D02*
X99384819Y-85077255D01*
X99384819Y-85077255D02*
X99337200Y-84934398D01*
X99337200Y-84934398D02*
X99289580Y-84886779D01*
X99289580Y-84886779D02*
X98956247Y-84886779D01*
X98956247Y-84886779D02*
X98956247Y-85077255D01*
X99384819Y-84458207D02*
X98384819Y-84458207D01*
X98384819Y-84458207D02*
X99384819Y-83886779D01*
X99384819Y-83886779D02*
X98384819Y-83886779D01*
X99384819Y-83410588D02*
X98384819Y-83410588D01*
X98384819Y-83410588D02*
X98384819Y-83172493D01*
X98384819Y-83172493D02*
X98432438Y-83029636D01*
X98432438Y-83029636D02*
X98527676Y-82934398D01*
X98527676Y-82934398D02*
X98622914Y-82886779D01*
X98622914Y-82886779D02*
X98813390Y-82839160D01*
X98813390Y-82839160D02*
X98956247Y-82839160D01*
X98956247Y-82839160D02*
X99146723Y-82886779D01*
X99146723Y-82886779D02*
X99241961Y-82934398D01*
X99241961Y-82934398D02*
X99337200Y-83029636D01*
X99337200Y-83029636D02*
X99384819Y-83172493D01*
X99384819Y-83172493D02*
X99384819Y-83410588D01*
D11*
X46641558Y-49523733D02*
X48165368Y-49523733D01*
D10*
X68665104Y-85474112D02*
X68665104Y-84997922D01*
X68950819Y-85569350D02*
X67950819Y-85236017D01*
X67950819Y-85236017D02*
X68950819Y-84902684D01*
X68950819Y-84045541D02*
X68950819Y-84616969D01*
X68950819Y-84331255D02*
X67950819Y-84331255D01*
X67950819Y-84331255D02*
X68093676Y-84426493D01*
X68093676Y-84426493D02*
X68188914Y-84521731D01*
X68188914Y-84521731D02*
X68236533Y-84616969D01*
X68284152Y-83188398D02*
X68950819Y-83188398D01*
X67903200Y-83426493D02*
X68617485Y-83664588D01*
X68617485Y-83664588D02*
X68617485Y-83045541D01*
X86445104Y-75656839D02*
X86445104Y-75180649D01*
X86730819Y-75752077D02*
X85730819Y-75418744D01*
X85730819Y-75418744D02*
X86730819Y-75085411D01*
X86730819Y-74228268D02*
X86730819Y-74799696D01*
X86730819Y-74513982D02*
X85730819Y-74513982D01*
X85730819Y-74513982D02*
X85873676Y-74609220D01*
X85873676Y-74609220D02*
X85968914Y-74704458D01*
X85968914Y-74704458D02*
X86016533Y-74799696D01*
X81365104Y-75656839D02*
X81365104Y-75180649D01*
X81650819Y-75752077D02*
X80650819Y-75418744D01*
X80650819Y-75418744D02*
X81650819Y-75085411D01*
X80650819Y-74275887D02*
X80650819Y-74752077D01*
X80650819Y-74752077D02*
X81127009Y-74799696D01*
X81127009Y-74799696D02*
X81079390Y-74752077D01*
X81079390Y-74752077D02*
X81031771Y-74656839D01*
X81031771Y-74656839D02*
X81031771Y-74418744D01*
X81031771Y-74418744D02*
X81079390Y-74323506D01*
X81079390Y-74323506D02*
X81127009Y-74275887D01*
X81127009Y-74275887D02*
X81222247Y-74228268D01*
X81222247Y-74228268D02*
X81460342Y-74228268D01*
X81460342Y-74228268D02*
X81555580Y-74275887D01*
X81555580Y-74275887D02*
X81603200Y-74323506D01*
X81603200Y-74323506D02*
X81650819Y-74418744D01*
X81650819Y-74418744D02*
X81650819Y-74656839D01*
X81650819Y-74656839D02*
X81603200Y-74752077D01*
X81603200Y-74752077D02*
X81555580Y-74799696D01*
X76285104Y-75656839D02*
X76285104Y-75180649D01*
X76570819Y-75752077D02*
X75570819Y-75418744D01*
X75570819Y-75418744D02*
X76570819Y-75085411D01*
X76570819Y-74704458D02*
X76570819Y-74513982D01*
X76570819Y-74513982D02*
X76523200Y-74418744D01*
X76523200Y-74418744D02*
X76475580Y-74371125D01*
X76475580Y-74371125D02*
X76332723Y-74275887D01*
X76332723Y-74275887D02*
X76142247Y-74228268D01*
X76142247Y-74228268D02*
X75761295Y-74228268D01*
X75761295Y-74228268D02*
X75666057Y-74275887D01*
X75666057Y-74275887D02*
X75618438Y-74323506D01*
X75618438Y-74323506D02*
X75570819Y-74418744D01*
X75570819Y-74418744D02*
X75570819Y-74609220D01*
X75570819Y-74609220D02*
X75618438Y-74704458D01*
X75618438Y-74704458D02*
X75666057Y-74752077D01*
X75666057Y-74752077D02*
X75761295Y-74799696D01*
X75761295Y-74799696D02*
X75999390Y-74799696D01*
X75999390Y-74799696D02*
X76094628Y-74752077D01*
X76094628Y-74752077D02*
X76142247Y-74704458D01*
X76142247Y-74704458D02*
X76189866Y-74609220D01*
X76189866Y-74609220D02*
X76189866Y-74418744D01*
X76189866Y-74418744D02*
X76142247Y-74323506D01*
X76142247Y-74323506D02*
X76094628Y-74275887D01*
X76094628Y-74275887D02*
X75999390Y-74228268D01*
X94604819Y-84616969D02*
X93604819Y-84616969D01*
X93604819Y-84616969D02*
X93604819Y-84378874D01*
X93604819Y-84378874D02*
X93652438Y-84236017D01*
X93652438Y-84236017D02*
X93747676Y-84140779D01*
X93747676Y-84140779D02*
X93842914Y-84093160D01*
X93842914Y-84093160D02*
X94033390Y-84045541D01*
X94033390Y-84045541D02*
X94176247Y-84045541D01*
X94176247Y-84045541D02*
X94366723Y-84093160D01*
X94366723Y-84093160D02*
X94461961Y-84140779D01*
X94461961Y-84140779D02*
X94557200Y-84236017D01*
X94557200Y-84236017D02*
X94604819Y-84378874D01*
X94604819Y-84378874D02*
X94604819Y-84616969D01*
X93700057Y-83664588D02*
X93652438Y-83616969D01*
X93652438Y-83616969D02*
X93604819Y-83521731D01*
X93604819Y-83521731D02*
X93604819Y-83283636D01*
X93604819Y-83283636D02*
X93652438Y-83188398D01*
X93652438Y-83188398D02*
X93700057Y-83140779D01*
X93700057Y-83140779D02*
X93795295Y-83093160D01*
X93795295Y-83093160D02*
X93890533Y-83093160D01*
X93890533Y-83093160D02*
X94033390Y-83140779D01*
X94033390Y-83140779D02*
X94604819Y-83712207D01*
X94604819Y-83712207D02*
X94604819Y-83093160D01*
D12*
X46166666Y-84441672D02*
X45766666Y-84441672D01*
X45966666Y-84441672D02*
X45966666Y-83741672D01*
X45966666Y-83741672D02*
X45899999Y-83841672D01*
X45899999Y-83841672D02*
X45833333Y-83908339D01*
X45833333Y-83908339D02*
X45766666Y-83941672D01*
X46600000Y-83741672D02*
X46666666Y-83741672D01*
X46666666Y-83741672D02*
X46733333Y-83775005D01*
X46733333Y-83775005D02*
X46766666Y-83808339D01*
X46766666Y-83808339D02*
X46800000Y-83875005D01*
X46800000Y-83875005D02*
X46833333Y-84008339D01*
X46833333Y-84008339D02*
X46833333Y-84175005D01*
X46833333Y-84175005D02*
X46800000Y-84308339D01*
X46800000Y-84308339D02*
X46766666Y-84375005D01*
X46766666Y-84375005D02*
X46733333Y-84408339D01*
X46733333Y-84408339D02*
X46666666Y-84441672D01*
X46666666Y-84441672D02*
X46600000Y-84441672D01*
X46600000Y-84441672D02*
X46533333Y-84408339D01*
X46533333Y-84408339D02*
X46500000Y-84375005D01*
X46500000Y-84375005D02*
X46466666Y-84308339D01*
X46466666Y-84308339D02*
X46433333Y-84175005D01*
X46433333Y-84175005D02*
X46433333Y-84008339D01*
X46433333Y-84008339D02*
X46466666Y-83875005D01*
X46466666Y-83875005D02*
X46500000Y-83808339D01*
X46500000Y-83808339D02*
X46533333Y-83775005D01*
X46533333Y-83775005D02*
X46600000Y-83741672D01*
X47266667Y-83741672D02*
X47333333Y-83741672D01*
X47333333Y-83741672D02*
X47400000Y-83775005D01*
X47400000Y-83775005D02*
X47433333Y-83808339D01*
X47433333Y-83808339D02*
X47466667Y-83875005D01*
X47466667Y-83875005D02*
X47500000Y-84008339D01*
X47500000Y-84008339D02*
X47500000Y-84175005D01*
X47500000Y-84175005D02*
X47466667Y-84308339D01*
X47466667Y-84308339D02*
X47433333Y-84375005D01*
X47433333Y-84375005D02*
X47400000Y-84408339D01*
X47400000Y-84408339D02*
X47333333Y-84441672D01*
X47333333Y-84441672D02*
X47266667Y-84441672D01*
X47266667Y-84441672D02*
X47200000Y-84408339D01*
X47200000Y-84408339D02*
X47166667Y-84375005D01*
X47166667Y-84375005D02*
X47133333Y-84308339D01*
X47133333Y-84308339D02*
X47100000Y-84175005D01*
X47100000Y-84175005D02*
X47100000Y-84008339D01*
X47100000Y-84008339D02*
X47133333Y-83875005D01*
X47133333Y-83875005D02*
X47166667Y-83808339D01*
X47166667Y-83808339D02*
X47200000Y-83775005D01*
X47200000Y-83775005D02*
X47266667Y-83741672D01*
X48100000Y-83975005D02*
X48100000Y-84441672D01*
X47800000Y-83975005D02*
X47800000Y-84341672D01*
X47800000Y-84341672D02*
X47833334Y-84408339D01*
X47833334Y-84408339D02*
X47900000Y-84441672D01*
X47900000Y-84441672D02*
X48000000Y-84441672D01*
X48000000Y-84441672D02*
X48066667Y-84408339D01*
X48066667Y-84408339D02*
X48100000Y-84375005D01*
X48666667Y-84075005D02*
X48433333Y-84075005D01*
X48433333Y-84441672D02*
X48433333Y-83741672D01*
X48433333Y-83741672D02*
X48766667Y-83741672D01*
X45883334Y-85101966D02*
X46016667Y-85568633D01*
X46016667Y-85568633D02*
X46150000Y-85235300D01*
X46150000Y-85235300D02*
X46283334Y-85568633D01*
X46283334Y-85568633D02*
X46416667Y-85101966D01*
X46783333Y-85568633D02*
X46716667Y-85535300D01*
X46716667Y-85535300D02*
X46683333Y-85501966D01*
X46683333Y-85501966D02*
X46650000Y-85435300D01*
X46650000Y-85435300D02*
X46650000Y-85235300D01*
X46650000Y-85235300D02*
X46683333Y-85168633D01*
X46683333Y-85168633D02*
X46716667Y-85135300D01*
X46716667Y-85135300D02*
X46783333Y-85101966D01*
X46783333Y-85101966D02*
X46883333Y-85101966D01*
X46883333Y-85101966D02*
X46950000Y-85135300D01*
X46950000Y-85135300D02*
X46983333Y-85168633D01*
X46983333Y-85168633D02*
X47016667Y-85235300D01*
X47016667Y-85235300D02*
X47016667Y-85435300D01*
X47016667Y-85435300D02*
X46983333Y-85501966D01*
X46983333Y-85501966D02*
X46950000Y-85535300D01*
X46950000Y-85535300D02*
X46883333Y-85568633D01*
X46883333Y-85568633D02*
X46783333Y-85568633D01*
X47316666Y-85568633D02*
X47316666Y-85101966D01*
X47316666Y-85235300D02*
X47350000Y-85168633D01*
X47350000Y-85168633D02*
X47383333Y-85135300D01*
X47383333Y-85135300D02*
X47450000Y-85101966D01*
X47450000Y-85101966D02*
X47516666Y-85101966D01*
X47749999Y-85568633D02*
X47749999Y-84868633D01*
X47816666Y-85301966D02*
X48016666Y-85568633D01*
X48016666Y-85101966D02*
X47749999Y-85368633D01*
X48283333Y-85535300D02*
X48350000Y-85568633D01*
X48350000Y-85568633D02*
X48483333Y-85568633D01*
X48483333Y-85568633D02*
X48550000Y-85535300D01*
X48550000Y-85535300D02*
X48583333Y-85468633D01*
X48583333Y-85468633D02*
X48583333Y-85435300D01*
X48583333Y-85435300D02*
X48550000Y-85368633D01*
X48550000Y-85368633D02*
X48483333Y-85335300D01*
X48483333Y-85335300D02*
X48383333Y-85335300D01*
X48383333Y-85335300D02*
X48316666Y-85301966D01*
X48316666Y-85301966D02*
X48283333Y-85235300D01*
X48283333Y-85235300D02*
X48283333Y-85201966D01*
X48283333Y-85201966D02*
X48316666Y-85135300D01*
X48316666Y-85135300D02*
X48383333Y-85101966D01*
X48383333Y-85101966D02*
X48483333Y-85101966D01*
X48483333Y-85101966D02*
X48550000Y-85135300D01*
X45816666Y-86695594D02*
X45816666Y-86328927D01*
X45816666Y-86328927D02*
X45783333Y-86262261D01*
X45783333Y-86262261D02*
X45716666Y-86228927D01*
X45716666Y-86228927D02*
X45583333Y-86228927D01*
X45583333Y-86228927D02*
X45516666Y-86262261D01*
X45816666Y-86662261D02*
X45750000Y-86695594D01*
X45750000Y-86695594D02*
X45583333Y-86695594D01*
X45583333Y-86695594D02*
X45516666Y-86662261D01*
X45516666Y-86662261D02*
X45483333Y-86595594D01*
X45483333Y-86595594D02*
X45483333Y-86528927D01*
X45483333Y-86528927D02*
X45516666Y-86462261D01*
X45516666Y-86462261D02*
X45583333Y-86428927D01*
X45583333Y-86428927D02*
X45750000Y-86428927D01*
X45750000Y-86428927D02*
X45816666Y-86395594D01*
X46116666Y-86662261D02*
X46183333Y-86695594D01*
X46183333Y-86695594D02*
X46316666Y-86695594D01*
X46316666Y-86695594D02*
X46383333Y-86662261D01*
X46383333Y-86662261D02*
X46416666Y-86595594D01*
X46416666Y-86595594D02*
X46416666Y-86562261D01*
X46416666Y-86562261D02*
X46383333Y-86495594D01*
X46383333Y-86495594D02*
X46316666Y-86462261D01*
X46316666Y-86462261D02*
X46216666Y-86462261D01*
X46216666Y-86462261D02*
X46149999Y-86428927D01*
X46149999Y-86428927D02*
X46116666Y-86362261D01*
X46116666Y-86362261D02*
X46116666Y-86328927D01*
X46116666Y-86328927D02*
X46149999Y-86262261D01*
X46149999Y-86262261D02*
X46216666Y-86228927D01*
X46216666Y-86228927D02*
X46316666Y-86228927D01*
X46316666Y-86228927D02*
X46383333Y-86262261D01*
X47183333Y-86228927D02*
X47316666Y-86695594D01*
X47316666Y-86695594D02*
X47449999Y-86362261D01*
X47449999Y-86362261D02*
X47583333Y-86695594D01*
X47583333Y-86695594D02*
X47716666Y-86228927D01*
X48249999Y-86662261D02*
X48183332Y-86695594D01*
X48183332Y-86695594D02*
X48049999Y-86695594D01*
X48049999Y-86695594D02*
X47983332Y-86662261D01*
X47983332Y-86662261D02*
X47949999Y-86595594D01*
X47949999Y-86595594D02*
X47949999Y-86328927D01*
X47949999Y-86328927D02*
X47983332Y-86262261D01*
X47983332Y-86262261D02*
X48049999Y-86228927D01*
X48049999Y-86228927D02*
X48183332Y-86228927D01*
X48183332Y-86228927D02*
X48249999Y-86262261D01*
X48249999Y-86262261D02*
X48283332Y-86328927D01*
X48283332Y-86328927D02*
X48283332Y-86395594D01*
X48283332Y-86395594D02*
X47949999Y-86462261D01*
X48683332Y-86695594D02*
X48616666Y-86662261D01*
X48616666Y-86662261D02*
X48583332Y-86595594D01*
X48583332Y-86595594D02*
X48583332Y-85995594D01*
X49049999Y-86695594D02*
X48983333Y-86662261D01*
X48983333Y-86662261D02*
X48949999Y-86595594D01*
X48949999Y-86595594D02*
X48949999Y-85995594D01*
D10*
X71459104Y-75656839D02*
X71459104Y-75180649D01*
X71744819Y-75752077D02*
X70744819Y-75418744D01*
X70744819Y-75418744D02*
X71744819Y-75085411D01*
X71744819Y-74228268D02*
X71744819Y-74799696D01*
X71744819Y-74513982D02*
X70744819Y-74513982D01*
X70744819Y-74513982D02*
X70887676Y-74609220D01*
X70887676Y-74609220D02*
X70982914Y-74704458D01*
X70982914Y-74704458D02*
X71030533Y-74799696D01*
X70744819Y-73894934D02*
X70744819Y-73275887D01*
X70744819Y-73275887D02*
X71125771Y-73609220D01*
X71125771Y-73609220D02*
X71125771Y-73466363D01*
X71125771Y-73466363D02*
X71173390Y-73371125D01*
X71173390Y-73371125D02*
X71221009Y-73323506D01*
X71221009Y-73323506D02*
X71316247Y-73275887D01*
X71316247Y-73275887D02*
X71554342Y-73275887D01*
X71554342Y-73275887D02*
X71649580Y-73323506D01*
X71649580Y-73323506D02*
X71697200Y-73371125D01*
X71697200Y-73371125D02*
X71744819Y-73466363D01*
X71744819Y-73466363D02*
X71744819Y-73752077D01*
X71744819Y-73752077D02*
X71697200Y-73847315D01*
X71697200Y-73847315D02*
X71649580Y-73894934D01*
X76194448Y-67439850D02*
X76127104Y-67439850D01*
X76127104Y-67439850D02*
X75992417Y-67372506D01*
X75992417Y-67372506D02*
X75925074Y-67305163D01*
X75925074Y-67305163D02*
X75857730Y-67170476D01*
X75857730Y-67170476D02*
X75857730Y-67035789D01*
X75857730Y-67035789D02*
X75891402Y-66934774D01*
X75891402Y-66934774D02*
X75992417Y-66766415D01*
X75992417Y-66766415D02*
X76093432Y-66665400D01*
X76093432Y-66665400D02*
X76261791Y-66564384D01*
X76261791Y-66564384D02*
X76362806Y-66530713D01*
X76362806Y-66530713D02*
X76497493Y-66530713D01*
X76497493Y-66530713D02*
X76632180Y-66598056D01*
X76632180Y-66598056D02*
X76699524Y-66665400D01*
X76699524Y-66665400D02*
X76766867Y-66800087D01*
X76766867Y-66800087D02*
X76766867Y-66867430D01*
X77069913Y-67035789D02*
X77541318Y-67507193D01*
X77541318Y-67507193D02*
X76531165Y-67911254D01*
X91619509Y-68021898D02*
X91619509Y-68089242D01*
X91619509Y-68089242D02*
X91552165Y-68223929D01*
X91552165Y-68223929D02*
X91484822Y-68291272D01*
X91484822Y-68291272D02*
X91350135Y-68358616D01*
X91350135Y-68358616D02*
X91215448Y-68358616D01*
X91215448Y-68358616D02*
X91114433Y-68324944D01*
X91114433Y-68324944D02*
X90946074Y-68223929D01*
X90946074Y-68223929D02*
X90845059Y-68122914D01*
X90845059Y-68122914D02*
X90744043Y-67954555D01*
X90744043Y-67954555D02*
X90710372Y-67853540D01*
X90710372Y-67853540D02*
X90710372Y-67718853D01*
X90710372Y-67718853D02*
X90777715Y-67584166D01*
X90777715Y-67584166D02*
X90845059Y-67516822D01*
X90845059Y-67516822D02*
X90979746Y-67449479D01*
X90979746Y-67449479D02*
X91047089Y-67449479D01*
X92360287Y-67415807D02*
X91956226Y-67819868D01*
X92158257Y-67617837D02*
X91451150Y-66910731D01*
X91451150Y-66910731D02*
X91484822Y-67079089D01*
X91484822Y-67079089D02*
X91484822Y-67213776D01*
X91484822Y-67213776D02*
X91451150Y-67314792D01*
X46834819Y-67048094D02*
X45834819Y-67048094D01*
X45834819Y-67048094D02*
X45834819Y-66809999D01*
X45834819Y-66809999D02*
X45882438Y-66667142D01*
X45882438Y-66667142D02*
X45977676Y-66571904D01*
X45977676Y-66571904D02*
X46072914Y-66524285D01*
X46072914Y-66524285D02*
X46263390Y-66476666D01*
X46263390Y-66476666D02*
X46406247Y-66476666D01*
X46406247Y-66476666D02*
X46596723Y-66524285D01*
X46596723Y-66524285D02*
X46691961Y-66571904D01*
X46691961Y-66571904D02*
X46787200Y-66667142D01*
X46787200Y-66667142D02*
X46834819Y-66809999D01*
X46834819Y-66809999D02*
X46834819Y-67048094D01*
X46834819Y-65524285D02*
X46834819Y-66095713D01*
X46834819Y-65809999D02*
X45834819Y-65809999D01*
X45834819Y-65809999D02*
X45977676Y-65905237D01*
X45977676Y-65905237D02*
X46072914Y-66000475D01*
X46072914Y-66000475D02*
X46120533Y-66095713D01*
X51074819Y-68452857D02*
X51074819Y-69024285D01*
X51074819Y-68738571D02*
X50074819Y-68738571D01*
X50074819Y-68738571D02*
X50217676Y-68833809D01*
X50217676Y-68833809D02*
X50312914Y-68929047D01*
X50312914Y-68929047D02*
X50360533Y-69024285D01*
X51074819Y-68024285D02*
X50074819Y-68024285D01*
X50074819Y-68024285D02*
X51074819Y-67452857D01*
X51074819Y-67452857D02*
X50074819Y-67452857D01*
X50408152Y-66548095D02*
X51074819Y-66548095D01*
X50027200Y-66786190D02*
X50741485Y-67024285D01*
X50741485Y-67024285D02*
X50741485Y-66405238D01*
X51074819Y-65500476D02*
X51074819Y-66071904D01*
X51074819Y-65786190D02*
X50074819Y-65786190D01*
X50074819Y-65786190D02*
X50217676Y-65881428D01*
X50217676Y-65881428D02*
X50312914Y-65976666D01*
X50312914Y-65976666D02*
X50360533Y-66071904D01*
X50408152Y-64643333D02*
X51074819Y-64643333D01*
X50027200Y-64881428D02*
X50741485Y-65119523D01*
X50741485Y-65119523D02*
X50741485Y-64500476D01*
X50503390Y-63976666D02*
X50455771Y-64071904D01*
X50455771Y-64071904D02*
X50408152Y-64119523D01*
X50408152Y-64119523D02*
X50312914Y-64167142D01*
X50312914Y-64167142D02*
X50265295Y-64167142D01*
X50265295Y-64167142D02*
X50170057Y-64119523D01*
X50170057Y-64119523D02*
X50122438Y-64071904D01*
X50122438Y-64071904D02*
X50074819Y-63976666D01*
X50074819Y-63976666D02*
X50074819Y-63786190D01*
X50074819Y-63786190D02*
X50122438Y-63690952D01*
X50122438Y-63690952D02*
X50170057Y-63643333D01*
X50170057Y-63643333D02*
X50265295Y-63595714D01*
X50265295Y-63595714D02*
X50312914Y-63595714D01*
X50312914Y-63595714D02*
X50408152Y-63643333D01*
X50408152Y-63643333D02*
X50455771Y-63690952D01*
X50455771Y-63690952D02*
X50503390Y-63786190D01*
X50503390Y-63786190D02*
X50503390Y-63976666D01*
X50503390Y-63976666D02*
X50551009Y-64071904D01*
X50551009Y-64071904D02*
X50598628Y-64119523D01*
X50598628Y-64119523D02*
X50693866Y-64167142D01*
X50693866Y-64167142D02*
X50884342Y-64167142D01*
X50884342Y-64167142D02*
X50979580Y-64119523D01*
X50979580Y-64119523D02*
X51027200Y-64071904D01*
X51027200Y-64071904D02*
X51074819Y-63976666D01*
X51074819Y-63976666D02*
X51074819Y-63786190D01*
X51074819Y-63786190D02*
X51027200Y-63690952D01*
X51027200Y-63690952D02*
X50979580Y-63643333D01*
X50979580Y-63643333D02*
X50884342Y-63595714D01*
X50884342Y-63595714D02*
X50693866Y-63595714D01*
X50693866Y-63595714D02*
X50598628Y-63643333D01*
X50598628Y-63643333D02*
X50551009Y-63690952D01*
X50551009Y-63690952D02*
X50503390Y-63786190D01*
X47154819Y-70381904D02*
X46154819Y-70381904D01*
X47154819Y-69810476D02*
X46583390Y-70239047D01*
X46154819Y-69810476D02*
X46726247Y-70381904D01*
X64185580Y-47710666D02*
X64233200Y-47758285D01*
X64233200Y-47758285D02*
X64280819Y-47901142D01*
X64280819Y-47901142D02*
X64280819Y-47996380D01*
X64280819Y-47996380D02*
X64233200Y-48139237D01*
X64233200Y-48139237D02*
X64137961Y-48234475D01*
X64137961Y-48234475D02*
X64042723Y-48282094D01*
X64042723Y-48282094D02*
X63852247Y-48329713D01*
X63852247Y-48329713D02*
X63709390Y-48329713D01*
X63709390Y-48329713D02*
X63518914Y-48282094D01*
X63518914Y-48282094D02*
X63423676Y-48234475D01*
X63423676Y-48234475D02*
X63328438Y-48139237D01*
X63328438Y-48139237D02*
X63280819Y-47996380D01*
X63280819Y-47996380D02*
X63280819Y-47901142D01*
X63280819Y-47901142D02*
X63328438Y-47758285D01*
X63328438Y-47758285D02*
X63376057Y-47710666D01*
X63280819Y-46805904D02*
X63280819Y-47282094D01*
X63280819Y-47282094D02*
X63757009Y-47329713D01*
X63757009Y-47329713D02*
X63709390Y-47282094D01*
X63709390Y-47282094D02*
X63661771Y-47186856D01*
X63661771Y-47186856D02*
X63661771Y-46948761D01*
X63661771Y-46948761D02*
X63709390Y-46853523D01*
X63709390Y-46853523D02*
X63757009Y-46805904D01*
X63757009Y-46805904D02*
X63852247Y-46758285D01*
X63852247Y-46758285D02*
X64090342Y-46758285D01*
X64090342Y-46758285D02*
X64185580Y-46805904D01*
X64185580Y-46805904D02*
X64233200Y-46853523D01*
X64233200Y-46853523D02*
X64280819Y-46948761D01*
X64280819Y-46948761D02*
X64280819Y-47186856D01*
X64280819Y-47186856D02*
X64233200Y-47282094D01*
X64233200Y-47282094D02*
X64185580Y-47329713D01*
X99454819Y-49513333D02*
X100169104Y-49513333D01*
X100169104Y-49513333D02*
X100311961Y-49560952D01*
X100311961Y-49560952D02*
X100407200Y-49656190D01*
X100407200Y-49656190D02*
X100454819Y-49799047D01*
X100454819Y-49799047D02*
X100454819Y-49894285D01*
X99788152Y-48608571D02*
X100454819Y-48608571D01*
X99407200Y-48846666D02*
X100121485Y-49084761D01*
X100121485Y-49084761D02*
X100121485Y-48465714D01*
X41824666Y-61454819D02*
X41824666Y-62169104D01*
X41824666Y-62169104D02*
X41777047Y-62311961D01*
X41777047Y-62311961D02*
X41681809Y-62407200D01*
X41681809Y-62407200D02*
X41538952Y-62454819D01*
X41538952Y-62454819D02*
X41443714Y-62454819D01*
X42253238Y-61550057D02*
X42300857Y-61502438D01*
X42300857Y-61502438D02*
X42396095Y-61454819D01*
X42396095Y-61454819D02*
X42634190Y-61454819D01*
X42634190Y-61454819D02*
X42729428Y-61502438D01*
X42729428Y-61502438D02*
X42777047Y-61550057D01*
X42777047Y-61550057D02*
X42824666Y-61645295D01*
X42824666Y-61645295D02*
X42824666Y-61740533D01*
X42824666Y-61740533D02*
X42777047Y-61883390D01*
X42777047Y-61883390D02*
X42205619Y-62454819D01*
X42205619Y-62454819D02*
X42824666Y-62454819D01*
X75321133Y-54530465D02*
X75253789Y-54530465D01*
X75253789Y-54530465D02*
X75119102Y-54463121D01*
X75119102Y-54463121D02*
X75051759Y-54395778D01*
X75051759Y-54395778D02*
X74984415Y-54261091D01*
X74984415Y-54261091D02*
X74984415Y-54126404D01*
X74984415Y-54126404D02*
X75018087Y-54025389D01*
X75018087Y-54025389D02*
X75119102Y-53857030D01*
X75119102Y-53857030D02*
X75220117Y-53756015D01*
X75220117Y-53756015D02*
X75388476Y-53654999D01*
X75388476Y-53654999D02*
X75489491Y-53621328D01*
X75489491Y-53621328D02*
X75624178Y-53621328D01*
X75624178Y-53621328D02*
X75758865Y-53688671D01*
X75758865Y-53688671D02*
X75826209Y-53756015D01*
X75826209Y-53756015D02*
X75893552Y-53890702D01*
X75893552Y-53890702D02*
X75893552Y-53958045D01*
X76566987Y-54496793D02*
X76432300Y-54362106D01*
X76432300Y-54362106D02*
X76331285Y-54328434D01*
X76331285Y-54328434D02*
X76263942Y-54328434D01*
X76263942Y-54328434D02*
X76095583Y-54362106D01*
X76095583Y-54362106D02*
X75927224Y-54463121D01*
X75927224Y-54463121D02*
X75657850Y-54732495D01*
X75657850Y-54732495D02*
X75624178Y-54833511D01*
X75624178Y-54833511D02*
X75624178Y-54900854D01*
X75624178Y-54900854D02*
X75657850Y-55001869D01*
X75657850Y-55001869D02*
X75792537Y-55136556D01*
X75792537Y-55136556D02*
X75893552Y-55170228D01*
X75893552Y-55170228D02*
X75960896Y-55170228D01*
X75960896Y-55170228D02*
X76061911Y-55136556D01*
X76061911Y-55136556D02*
X76230270Y-54968198D01*
X76230270Y-54968198D02*
X76263942Y-54867182D01*
X76263942Y-54867182D02*
X76263942Y-54799839D01*
X76263942Y-54799839D02*
X76230270Y-54698824D01*
X76230270Y-54698824D02*
X76095583Y-54564137D01*
X76095583Y-54564137D02*
X75994568Y-54530465D01*
X75994568Y-54530465D02*
X75927224Y-54530465D01*
X75927224Y-54530465D02*
X75826209Y-54564137D01*
X77895904Y-54284400D02*
X78468324Y-54856820D01*
X78468324Y-54856820D02*
X78569339Y-54890492D01*
X78569339Y-54890492D02*
X78636683Y-54890492D01*
X78636683Y-54890492D02*
X78737698Y-54856820D01*
X78737698Y-54856820D02*
X78872385Y-54722133D01*
X78872385Y-54722133D02*
X78906057Y-54621118D01*
X78906057Y-54621118D02*
X78906057Y-54553774D01*
X78906057Y-54553774D02*
X78872385Y-54452759D01*
X78872385Y-54452759D02*
X78299965Y-53880339D01*
X79714179Y-53880339D02*
X79310118Y-54284400D01*
X79512148Y-54082370D02*
X78805042Y-53375263D01*
X78805042Y-53375263D02*
X78838713Y-53543622D01*
X78838713Y-53543622D02*
X78838713Y-53678309D01*
X78838713Y-53678309D02*
X78805042Y-53779324D01*
X86445163Y-67817079D02*
X86781880Y-67480361D01*
X86579850Y-68086453D02*
X86108445Y-67143644D01*
X86108445Y-67143644D02*
X87051254Y-67615048D01*
X86478834Y-66773254D02*
X86882895Y-66369193D01*
X87387972Y-67278331D02*
X86680865Y-66571224D01*
X87691018Y-66234506D02*
X87455315Y-66470208D01*
X87825705Y-66840598D02*
X87118598Y-66133491D01*
X87118598Y-66133491D02*
X87455315Y-65796773D01*
X88802186Y-65864117D02*
X88398125Y-66268178D01*
X88600155Y-66066147D02*
X87893048Y-65359040D01*
X87893048Y-65359040D02*
X87926720Y-65527399D01*
X87926720Y-65527399D02*
X87926720Y-65662086D01*
X87926720Y-65662086D02*
X87893048Y-65763101D01*
X88734842Y-64517247D02*
X88398125Y-64853964D01*
X88398125Y-64853964D02*
X88701170Y-65224353D01*
X88701170Y-65224353D02*
X88701170Y-65157010D01*
X88701170Y-65157010D02*
X88734842Y-65055995D01*
X88734842Y-65055995D02*
X88903201Y-64887636D01*
X88903201Y-64887636D02*
X89004216Y-64853964D01*
X89004216Y-64853964D02*
X89071560Y-64853964D01*
X89071560Y-64853964D02*
X89172575Y-64887636D01*
X89172575Y-64887636D02*
X89340934Y-65055995D01*
X89340934Y-65055995D02*
X89374605Y-65157010D01*
X89374605Y-65157010D02*
X89374605Y-65224353D01*
X89374605Y-65224353D02*
X89340934Y-65325369D01*
X89340934Y-65325369D02*
X89172575Y-65493727D01*
X89172575Y-65493727D02*
X89071560Y-65527399D01*
X89071560Y-65527399D02*
X89004216Y-65527399D01*
X89206247Y-64045842D02*
X89273590Y-63978499D01*
X89273590Y-63978499D02*
X89374605Y-63944827D01*
X89374605Y-63944827D02*
X89441949Y-63944827D01*
X89441949Y-63944827D02*
X89542964Y-63978499D01*
X89542964Y-63978499D02*
X89711323Y-64079514D01*
X89711323Y-64079514D02*
X89879682Y-64247873D01*
X89879682Y-64247873D02*
X89980697Y-64416231D01*
X89980697Y-64416231D02*
X90014369Y-64517247D01*
X90014369Y-64517247D02*
X90014369Y-64584590D01*
X90014369Y-64584590D02*
X89980697Y-64685605D01*
X89980697Y-64685605D02*
X89913353Y-64752949D01*
X89913353Y-64752949D02*
X89812338Y-64786621D01*
X89812338Y-64786621D02*
X89744995Y-64786621D01*
X89744995Y-64786621D02*
X89643979Y-64752949D01*
X89643979Y-64752949D02*
X89475621Y-64651934D01*
X89475621Y-64651934D02*
X89307262Y-64483575D01*
X89307262Y-64483575D02*
X89206247Y-64315216D01*
X89206247Y-64315216D02*
X89172575Y-64214201D01*
X89172575Y-64214201D02*
X89172575Y-64146857D01*
X89172575Y-64146857D02*
X89206247Y-64045842D01*
X89778666Y-63608109D02*
X89778666Y-63540766D01*
X89778666Y-63540766D02*
X89812338Y-63439750D01*
X89812338Y-63439750D02*
X89980697Y-63271392D01*
X89980697Y-63271392D02*
X90081712Y-63237720D01*
X90081712Y-63237720D02*
X90149056Y-63237720D01*
X90149056Y-63237720D02*
X90250071Y-63271392D01*
X90250071Y-63271392D02*
X90317415Y-63338735D01*
X90317415Y-63338735D02*
X90384758Y-63473422D01*
X90384758Y-63473422D02*
X90384758Y-64281544D01*
X90384758Y-64281544D02*
X90822491Y-63843811D01*
X90889834Y-63372407D02*
X91226552Y-63035689D01*
X91024521Y-63641781D02*
X90553117Y-62698972D01*
X90553117Y-62698972D02*
X91495926Y-63170376D01*
X91664285Y-62934674D02*
X91798972Y-62867331D01*
X91798972Y-62867331D02*
X91967330Y-62698972D01*
X91967330Y-62698972D02*
X92001002Y-62597957D01*
X92001002Y-62597957D02*
X92001002Y-62530613D01*
X92001002Y-62530613D02*
X91967330Y-62429598D01*
X91967330Y-62429598D02*
X91899987Y-62362254D01*
X91899987Y-62362254D02*
X91798972Y-62328583D01*
X91798972Y-62328583D02*
X91731628Y-62328583D01*
X91731628Y-62328583D02*
X91630613Y-62362254D01*
X91630613Y-62362254D02*
X91462254Y-62463270D01*
X91462254Y-62463270D02*
X91361239Y-62496941D01*
X91361239Y-62496941D02*
X91293895Y-62496941D01*
X91293895Y-62496941D02*
X91192880Y-62463270D01*
X91192880Y-62463270D02*
X91125537Y-62395926D01*
X91125537Y-62395926D02*
X91091865Y-62294911D01*
X91091865Y-62294911D02*
X91091865Y-62227567D01*
X91091865Y-62227567D02*
X91125537Y-62126552D01*
X91125537Y-62126552D02*
X91293895Y-61958193D01*
X91293895Y-61958193D02*
X91428582Y-61890850D01*
X91596941Y-61655147D02*
X92539750Y-62126552D01*
X92539750Y-62126552D02*
X92068346Y-61183743D01*
X52612819Y-50591904D02*
X53422342Y-50591904D01*
X53422342Y-50591904D02*
X53517580Y-50544285D01*
X53517580Y-50544285D02*
X53565200Y-50496666D01*
X53565200Y-50496666D02*
X53612819Y-50401428D01*
X53612819Y-50401428D02*
X53612819Y-50210952D01*
X53612819Y-50210952D02*
X53565200Y-50115714D01*
X53565200Y-50115714D02*
X53517580Y-50068095D01*
X53517580Y-50068095D02*
X53422342Y-50020476D01*
X53422342Y-50020476D02*
X52612819Y-50020476D01*
X52708057Y-49591904D02*
X52660438Y-49544285D01*
X52660438Y-49544285D02*
X52612819Y-49449047D01*
X52612819Y-49449047D02*
X52612819Y-49210952D01*
X52612819Y-49210952D02*
X52660438Y-49115714D01*
X52660438Y-49115714D02*
X52708057Y-49068095D01*
X52708057Y-49068095D02*
X52803295Y-49020476D01*
X52803295Y-49020476D02*
X52898533Y-49020476D01*
X52898533Y-49020476D02*
X53041390Y-49068095D01*
X53041390Y-49068095D02*
X53612819Y-49639523D01*
X53612819Y-49639523D02*
X53612819Y-49020476D01*
X59825714Y-69969819D02*
X59635238Y-69969819D01*
X59635238Y-69969819D02*
X59540000Y-70017438D01*
X59540000Y-70017438D02*
X59492381Y-70065057D01*
X59492381Y-70065057D02*
X59397143Y-70207914D01*
X59397143Y-70207914D02*
X59349524Y-70398390D01*
X59349524Y-70398390D02*
X59349524Y-70779342D01*
X59349524Y-70779342D02*
X59397143Y-70874580D01*
X59397143Y-70874580D02*
X59444762Y-70922200D01*
X59444762Y-70922200D02*
X59540000Y-70969819D01*
X59540000Y-70969819D02*
X59730476Y-70969819D01*
X59730476Y-70969819D02*
X59825714Y-70922200D01*
X59825714Y-70922200D02*
X59873333Y-70874580D01*
X59873333Y-70874580D02*
X59920952Y-70779342D01*
X59920952Y-70779342D02*
X59920952Y-70541247D01*
X59920952Y-70541247D02*
X59873333Y-70446009D01*
X59873333Y-70446009D02*
X59825714Y-70398390D01*
X59825714Y-70398390D02*
X59730476Y-70350771D01*
X59730476Y-70350771D02*
X59540000Y-70350771D01*
X59540000Y-70350771D02*
X59444762Y-70398390D01*
X59444762Y-70398390D02*
X59397143Y-70446009D01*
X59397143Y-70446009D02*
X59349524Y-70541247D01*
X60301905Y-70065057D02*
X60349524Y-70017438D01*
X60349524Y-70017438D02*
X60444762Y-69969819D01*
X60444762Y-69969819D02*
X60682857Y-69969819D01*
X60682857Y-69969819D02*
X60778095Y-70017438D01*
X60778095Y-70017438D02*
X60825714Y-70065057D01*
X60825714Y-70065057D02*
X60873333Y-70160295D01*
X60873333Y-70160295D02*
X60873333Y-70255533D01*
X60873333Y-70255533D02*
X60825714Y-70398390D01*
X60825714Y-70398390D02*
X60254286Y-70969819D01*
X60254286Y-70969819D02*
X60873333Y-70969819D01*
X61825714Y-70969819D02*
X61254286Y-70969819D01*
X61540000Y-70969819D02*
X61540000Y-69969819D01*
X61540000Y-69969819D02*
X61444762Y-70112676D01*
X61444762Y-70112676D02*
X61349524Y-70207914D01*
X61349524Y-70207914D02*
X61254286Y-70255533D01*
X62206667Y-70065057D02*
X62254286Y-70017438D01*
X62254286Y-70017438D02*
X62349524Y-69969819D01*
X62349524Y-69969819D02*
X62587619Y-69969819D01*
X62587619Y-69969819D02*
X62682857Y-70017438D01*
X62682857Y-70017438D02*
X62730476Y-70065057D01*
X62730476Y-70065057D02*
X62778095Y-70160295D01*
X62778095Y-70160295D02*
X62778095Y-70255533D01*
X62778095Y-70255533D02*
X62730476Y-70398390D01*
X62730476Y-70398390D02*
X62159048Y-70969819D01*
X62159048Y-70969819D02*
X62778095Y-70969819D01*
X63349524Y-70398390D02*
X63254286Y-70350771D01*
X63254286Y-70350771D02*
X63206667Y-70303152D01*
X63206667Y-70303152D02*
X63159048Y-70207914D01*
X63159048Y-70207914D02*
X63159048Y-70160295D01*
X63159048Y-70160295D02*
X63206667Y-70065057D01*
X63206667Y-70065057D02*
X63254286Y-70017438D01*
X63254286Y-70017438D02*
X63349524Y-69969819D01*
X63349524Y-69969819D02*
X63540000Y-69969819D01*
X63540000Y-69969819D02*
X63635238Y-70017438D01*
X63635238Y-70017438D02*
X63682857Y-70065057D01*
X63682857Y-70065057D02*
X63730476Y-70160295D01*
X63730476Y-70160295D02*
X63730476Y-70207914D01*
X63730476Y-70207914D02*
X63682857Y-70303152D01*
X63682857Y-70303152D02*
X63635238Y-70350771D01*
X63635238Y-70350771D02*
X63540000Y-70398390D01*
X63540000Y-70398390D02*
X63349524Y-70398390D01*
X63349524Y-70398390D02*
X63254286Y-70446009D01*
X63254286Y-70446009D02*
X63206667Y-70493628D01*
X63206667Y-70493628D02*
X63159048Y-70588866D01*
X63159048Y-70588866D02*
X63159048Y-70779342D01*
X63159048Y-70779342D02*
X63206667Y-70874580D01*
X63206667Y-70874580D02*
X63254286Y-70922200D01*
X63254286Y-70922200D02*
X63349524Y-70969819D01*
X63349524Y-70969819D02*
X63540000Y-70969819D01*
X63540000Y-70969819D02*
X63635238Y-70922200D01*
X63635238Y-70922200D02*
X63682857Y-70874580D01*
X63682857Y-70874580D02*
X63730476Y-70779342D01*
X63730476Y-70779342D02*
X63730476Y-70588866D01*
X63730476Y-70588866D02*
X63682857Y-70493628D01*
X63682857Y-70493628D02*
X63635238Y-70446009D01*
X63635238Y-70446009D02*
X63540000Y-70398390D01*
X41583333Y-79709580D02*
X41535714Y-79757200D01*
X41535714Y-79757200D02*
X41392857Y-79804819D01*
X41392857Y-79804819D02*
X41297619Y-79804819D01*
X41297619Y-79804819D02*
X41154762Y-79757200D01*
X41154762Y-79757200D02*
X41059524Y-79661961D01*
X41059524Y-79661961D02*
X41011905Y-79566723D01*
X41011905Y-79566723D02*
X40964286Y-79376247D01*
X40964286Y-79376247D02*
X40964286Y-79233390D01*
X40964286Y-79233390D02*
X41011905Y-79042914D01*
X41011905Y-79042914D02*
X41059524Y-78947676D01*
X41059524Y-78947676D02*
X41154762Y-78852438D01*
X41154762Y-78852438D02*
X41297619Y-78804819D01*
X41297619Y-78804819D02*
X41392857Y-78804819D01*
X41392857Y-78804819D02*
X41535714Y-78852438D01*
X41535714Y-78852438D02*
X41583333Y-78900057D01*
X41916667Y-78804819D02*
X42535714Y-78804819D01*
X42535714Y-78804819D02*
X42202381Y-79185771D01*
X42202381Y-79185771D02*
X42345238Y-79185771D01*
X42345238Y-79185771D02*
X42440476Y-79233390D01*
X42440476Y-79233390D02*
X42488095Y-79281009D01*
X42488095Y-79281009D02*
X42535714Y-79376247D01*
X42535714Y-79376247D02*
X42535714Y-79614342D01*
X42535714Y-79614342D02*
X42488095Y-79709580D01*
X42488095Y-79709580D02*
X42440476Y-79757200D01*
X42440476Y-79757200D02*
X42345238Y-79804819D01*
X42345238Y-79804819D02*
X42059524Y-79804819D01*
X42059524Y-79804819D02*
X41964286Y-79757200D01*
X41964286Y-79757200D02*
X41916667Y-79709580D01*
X39650952Y-88126057D02*
X39698571Y-88078438D01*
X39698571Y-88078438D02*
X39793809Y-88030819D01*
X39793809Y-88030819D02*
X40031904Y-88030819D01*
X40031904Y-88030819D02*
X40127142Y-88078438D01*
X40127142Y-88078438D02*
X40174761Y-88126057D01*
X40174761Y-88126057D02*
X40222380Y-88221295D01*
X40222380Y-88221295D02*
X40222380Y-88316533D01*
X40222380Y-88316533D02*
X40174761Y-88459390D01*
X40174761Y-88459390D02*
X39603333Y-89030819D01*
X39603333Y-89030819D02*
X40222380Y-89030819D01*
X40603333Y-88126057D02*
X40650952Y-88078438D01*
X40650952Y-88078438D02*
X40746190Y-88030819D01*
X40746190Y-88030819D02*
X40984285Y-88030819D01*
X40984285Y-88030819D02*
X41079523Y-88078438D01*
X41079523Y-88078438D02*
X41127142Y-88126057D01*
X41127142Y-88126057D02*
X41174761Y-88221295D01*
X41174761Y-88221295D02*
X41174761Y-88316533D01*
X41174761Y-88316533D02*
X41127142Y-88459390D01*
X41127142Y-88459390D02*
X40555714Y-89030819D01*
X40555714Y-89030819D02*
X41174761Y-89030819D01*
X41793809Y-88030819D02*
X41889047Y-88030819D01*
X41889047Y-88030819D02*
X41984285Y-88078438D01*
X41984285Y-88078438D02*
X42031904Y-88126057D01*
X42031904Y-88126057D02*
X42079523Y-88221295D01*
X42079523Y-88221295D02*
X42127142Y-88411771D01*
X42127142Y-88411771D02*
X42127142Y-88649866D01*
X42127142Y-88649866D02*
X42079523Y-88840342D01*
X42079523Y-88840342D02*
X42031904Y-88935580D01*
X42031904Y-88935580D02*
X41984285Y-88983200D01*
X41984285Y-88983200D02*
X41889047Y-89030819D01*
X41889047Y-89030819D02*
X41793809Y-89030819D01*
X41793809Y-89030819D02*
X41698571Y-88983200D01*
X41698571Y-88983200D02*
X41650952Y-88935580D01*
X41650952Y-88935580D02*
X41603333Y-88840342D01*
X41603333Y-88840342D02*
X41555714Y-88649866D01*
X41555714Y-88649866D02*
X41555714Y-88411771D01*
X41555714Y-88411771D02*
X41603333Y-88221295D01*
X41603333Y-88221295D02*
X41650952Y-88126057D01*
X41650952Y-88126057D02*
X41698571Y-88078438D01*
X41698571Y-88078438D02*
X41793809Y-88030819D01*
X42984285Y-88364152D02*
X42984285Y-89030819D01*
X42555714Y-88364152D02*
X42555714Y-88887961D01*
X42555714Y-88887961D02*
X42603333Y-88983200D01*
X42603333Y-88983200D02*
X42698571Y-89030819D01*
X42698571Y-89030819D02*
X42841428Y-89030819D01*
X42841428Y-89030819D02*
X42936666Y-88983200D01*
X42936666Y-88983200D02*
X42984285Y-88935580D01*
X43793809Y-88507009D02*
X43460476Y-88507009D01*
X43460476Y-89030819D02*
X43460476Y-88030819D01*
X43460476Y-88030819D02*
X43936666Y-88030819D01*
X41824666Y-57874819D02*
X41824666Y-58589104D01*
X41824666Y-58589104D02*
X41777047Y-58731961D01*
X41777047Y-58731961D02*
X41681809Y-58827200D01*
X41681809Y-58827200D02*
X41538952Y-58874819D01*
X41538952Y-58874819D02*
X41443714Y-58874819D01*
X42205619Y-57874819D02*
X42824666Y-57874819D01*
X42824666Y-57874819D02*
X42491333Y-58255771D01*
X42491333Y-58255771D02*
X42634190Y-58255771D01*
X42634190Y-58255771D02*
X42729428Y-58303390D01*
X42729428Y-58303390D02*
X42777047Y-58351009D01*
X42777047Y-58351009D02*
X42824666Y-58446247D01*
X42824666Y-58446247D02*
X42824666Y-58684342D01*
X42824666Y-58684342D02*
X42777047Y-58779580D01*
X42777047Y-58779580D02*
X42729428Y-58827200D01*
X42729428Y-58827200D02*
X42634190Y-58874819D01*
X42634190Y-58874819D02*
X42348476Y-58874819D01*
X42348476Y-58874819D02*
X42253238Y-58827200D01*
X42253238Y-58827200D02*
X42205619Y-58779580D01*
X92570326Y-52563972D02*
X92502982Y-52563972D01*
X92502982Y-52563972D02*
X92368295Y-52496628D01*
X92368295Y-52496628D02*
X92300952Y-52429285D01*
X92300952Y-52429285D02*
X92233608Y-52294598D01*
X92233608Y-52294598D02*
X92233608Y-52159911D01*
X92233608Y-52159911D02*
X92267280Y-52058896D01*
X92267280Y-52058896D02*
X92368295Y-51890537D01*
X92368295Y-51890537D02*
X92469310Y-51789522D01*
X92469310Y-51789522D02*
X92637669Y-51688506D01*
X92637669Y-51688506D02*
X92738684Y-51654835D01*
X92738684Y-51654835D02*
X92873371Y-51654835D01*
X92873371Y-51654835D02*
X93008058Y-51722178D01*
X93008058Y-51722178D02*
X93075402Y-51789522D01*
X93075402Y-51789522D02*
X93142745Y-51924209D01*
X93142745Y-51924209D02*
X93142745Y-51991552D01*
X93311104Y-52631315D02*
X93277432Y-52530300D01*
X93277432Y-52530300D02*
X93277432Y-52462957D01*
X93277432Y-52462957D02*
X93311104Y-52361941D01*
X93311104Y-52361941D02*
X93344776Y-52328270D01*
X93344776Y-52328270D02*
X93445791Y-52294598D01*
X93445791Y-52294598D02*
X93513135Y-52294598D01*
X93513135Y-52294598D02*
X93614150Y-52328270D01*
X93614150Y-52328270D02*
X93748837Y-52462957D01*
X93748837Y-52462957D02*
X93782509Y-52563972D01*
X93782509Y-52563972D02*
X93782509Y-52631315D01*
X93782509Y-52631315D02*
X93748837Y-52732331D01*
X93748837Y-52732331D02*
X93715165Y-52766002D01*
X93715165Y-52766002D02*
X93614150Y-52799674D01*
X93614150Y-52799674D02*
X93546806Y-52799674D01*
X93546806Y-52799674D02*
X93445791Y-52766002D01*
X93445791Y-52766002D02*
X93311104Y-52631315D01*
X93311104Y-52631315D02*
X93210089Y-52597644D01*
X93210089Y-52597644D02*
X93142745Y-52597644D01*
X93142745Y-52597644D02*
X93041730Y-52631315D01*
X93041730Y-52631315D02*
X92907043Y-52766002D01*
X92907043Y-52766002D02*
X92873371Y-52867018D01*
X92873371Y-52867018D02*
X92873371Y-52934361D01*
X92873371Y-52934361D02*
X92907043Y-53035376D01*
X92907043Y-53035376D02*
X93041730Y-53170063D01*
X93041730Y-53170063D02*
X93142745Y-53203735D01*
X93142745Y-53203735D02*
X93210089Y-53203735D01*
X93210089Y-53203735D02*
X93311104Y-53170063D01*
X93311104Y-53170063D02*
X93445791Y-53035376D01*
X93445791Y-53035376D02*
X93479463Y-52934361D01*
X93479463Y-52934361D02*
X93479463Y-52867018D01*
X93479463Y-52867018D02*
X93445791Y-52766002D01*
X101732819Y-77295333D02*
X102447104Y-77295333D01*
X102447104Y-77295333D02*
X102589961Y-77342952D01*
X102589961Y-77342952D02*
X102685200Y-77438190D01*
X102685200Y-77438190D02*
X102732819Y-77581047D01*
X102732819Y-77581047D02*
X102732819Y-77676285D01*
X102732819Y-76295333D02*
X102732819Y-76866761D01*
X102732819Y-76581047D02*
X101732819Y-76581047D01*
X101732819Y-76581047D02*
X101875676Y-76676285D01*
X101875676Y-76676285D02*
X101970914Y-76771523D01*
X101970914Y-76771523D02*
X102018533Y-76866761D01*
X43011905Y-74931009D02*
X43345238Y-74931009D01*
X43488095Y-75454819D02*
X43011905Y-75454819D01*
X43011905Y-75454819D02*
X43011905Y-74454819D01*
X43011905Y-74454819D02*
X43488095Y-74454819D01*
X43821429Y-74454819D02*
X44488095Y-75454819D01*
X44488095Y-74454819D02*
X43821429Y-75454819D01*
X44869048Y-75454819D02*
X44869048Y-74454819D01*
X44869048Y-74454819D02*
X45250000Y-74454819D01*
X45250000Y-74454819D02*
X45345238Y-74502438D01*
X45345238Y-74502438D02*
X45392857Y-74550057D01*
X45392857Y-74550057D02*
X45440476Y-74645295D01*
X45440476Y-74645295D02*
X45440476Y-74788152D01*
X45440476Y-74788152D02*
X45392857Y-74883390D01*
X45392857Y-74883390D02*
X45345238Y-74931009D01*
X45345238Y-74931009D02*
X45250000Y-74978628D01*
X45250000Y-74978628D02*
X44869048Y-74978628D01*
X45821429Y-75169104D02*
X46297619Y-75169104D01*
X45726191Y-75454819D02*
X46059524Y-74454819D01*
X46059524Y-74454819D02*
X46392857Y-75454819D01*
X46726191Y-75454819D02*
X46726191Y-74454819D01*
X46726191Y-74454819D02*
X47297619Y-75454819D01*
X47297619Y-75454819D02*
X47297619Y-74454819D01*
X47726191Y-75407200D02*
X47869048Y-75454819D01*
X47869048Y-75454819D02*
X48107143Y-75454819D01*
X48107143Y-75454819D02*
X48202381Y-75407200D01*
X48202381Y-75407200D02*
X48250000Y-75359580D01*
X48250000Y-75359580D02*
X48297619Y-75264342D01*
X48297619Y-75264342D02*
X48297619Y-75169104D01*
X48297619Y-75169104D02*
X48250000Y-75073866D01*
X48250000Y-75073866D02*
X48202381Y-75026247D01*
X48202381Y-75026247D02*
X48107143Y-74978628D01*
X48107143Y-74978628D02*
X47916667Y-74931009D01*
X47916667Y-74931009D02*
X47821429Y-74883390D01*
X47821429Y-74883390D02*
X47773810Y-74835771D01*
X47773810Y-74835771D02*
X47726191Y-74740533D01*
X47726191Y-74740533D02*
X47726191Y-74645295D01*
X47726191Y-74645295D02*
X47773810Y-74550057D01*
X47773810Y-74550057D02*
X47821429Y-74502438D01*
X47821429Y-74502438D02*
X47916667Y-74454819D01*
X47916667Y-74454819D02*
X48154762Y-74454819D01*
X48154762Y-74454819D02*
X48297619Y-74502438D01*
X48726191Y-75454819D02*
X48726191Y-74454819D01*
X49392857Y-74454819D02*
X49583333Y-74454819D01*
X49583333Y-74454819D02*
X49678571Y-74502438D01*
X49678571Y-74502438D02*
X49773809Y-74597676D01*
X49773809Y-74597676D02*
X49821428Y-74788152D01*
X49821428Y-74788152D02*
X49821428Y-75121485D01*
X49821428Y-75121485D02*
X49773809Y-75311961D01*
X49773809Y-75311961D02*
X49678571Y-75407200D01*
X49678571Y-75407200D02*
X49583333Y-75454819D01*
X49583333Y-75454819D02*
X49392857Y-75454819D01*
X49392857Y-75454819D02*
X49297619Y-75407200D01*
X49297619Y-75407200D02*
X49202381Y-75311961D01*
X49202381Y-75311961D02*
X49154762Y-75121485D01*
X49154762Y-75121485D02*
X49154762Y-74788152D01*
X49154762Y-74788152D02*
X49202381Y-74597676D01*
X49202381Y-74597676D02*
X49297619Y-74502438D01*
X49297619Y-74502438D02*
X49392857Y-74454819D01*
X50250000Y-75454819D02*
X50250000Y-74454819D01*
X50250000Y-74454819D02*
X50821428Y-75454819D01*
X50821428Y-75454819D02*
X50821428Y-74454819D01*
X52392857Y-74931009D02*
X52535714Y-74978628D01*
X52535714Y-74978628D02*
X52583333Y-75026247D01*
X52583333Y-75026247D02*
X52630952Y-75121485D01*
X52630952Y-75121485D02*
X52630952Y-75264342D01*
X52630952Y-75264342D02*
X52583333Y-75359580D01*
X52583333Y-75359580D02*
X52535714Y-75407200D01*
X52535714Y-75407200D02*
X52440476Y-75454819D01*
X52440476Y-75454819D02*
X52059524Y-75454819D01*
X52059524Y-75454819D02*
X52059524Y-74454819D01*
X52059524Y-74454819D02*
X52392857Y-74454819D01*
X52392857Y-74454819D02*
X52488095Y-74502438D01*
X52488095Y-74502438D02*
X52535714Y-74550057D01*
X52535714Y-74550057D02*
X52583333Y-74645295D01*
X52583333Y-74645295D02*
X52583333Y-74740533D01*
X52583333Y-74740533D02*
X52535714Y-74835771D01*
X52535714Y-74835771D02*
X52488095Y-74883390D01*
X52488095Y-74883390D02*
X52392857Y-74931009D01*
X52392857Y-74931009D02*
X52059524Y-74931009D01*
X53250000Y-74454819D02*
X53440476Y-74454819D01*
X53440476Y-74454819D02*
X53535714Y-74502438D01*
X53535714Y-74502438D02*
X53630952Y-74597676D01*
X53630952Y-74597676D02*
X53678571Y-74788152D01*
X53678571Y-74788152D02*
X53678571Y-75121485D01*
X53678571Y-75121485D02*
X53630952Y-75311961D01*
X53630952Y-75311961D02*
X53535714Y-75407200D01*
X53535714Y-75407200D02*
X53440476Y-75454819D01*
X53440476Y-75454819D02*
X53250000Y-75454819D01*
X53250000Y-75454819D02*
X53154762Y-75407200D01*
X53154762Y-75407200D02*
X53059524Y-75311961D01*
X53059524Y-75311961D02*
X53011905Y-75121485D01*
X53011905Y-75121485D02*
X53011905Y-74788152D01*
X53011905Y-74788152D02*
X53059524Y-74597676D01*
X53059524Y-74597676D02*
X53154762Y-74502438D01*
X53154762Y-74502438D02*
X53250000Y-74454819D01*
X54059524Y-75169104D02*
X54535714Y-75169104D01*
X53964286Y-75454819D02*
X54297619Y-74454819D01*
X54297619Y-74454819D02*
X54630952Y-75454819D01*
X55535714Y-75454819D02*
X55202381Y-74978628D01*
X54964286Y-75454819D02*
X54964286Y-74454819D01*
X54964286Y-74454819D02*
X55345238Y-74454819D01*
X55345238Y-74454819D02*
X55440476Y-74502438D01*
X55440476Y-74502438D02*
X55488095Y-74550057D01*
X55488095Y-74550057D02*
X55535714Y-74645295D01*
X55535714Y-74645295D02*
X55535714Y-74788152D01*
X55535714Y-74788152D02*
X55488095Y-74883390D01*
X55488095Y-74883390D02*
X55440476Y-74931009D01*
X55440476Y-74931009D02*
X55345238Y-74978628D01*
X55345238Y-74978628D02*
X54964286Y-74978628D01*
X55964286Y-75454819D02*
X55964286Y-74454819D01*
X55964286Y-74454819D02*
X56202381Y-74454819D01*
X56202381Y-74454819D02*
X56345238Y-74502438D01*
X56345238Y-74502438D02*
X56440476Y-74597676D01*
X56440476Y-74597676D02*
X56488095Y-74692914D01*
X56488095Y-74692914D02*
X56535714Y-74883390D01*
X56535714Y-74883390D02*
X56535714Y-75026247D01*
X56535714Y-75026247D02*
X56488095Y-75216723D01*
X56488095Y-75216723D02*
X56440476Y-75311961D01*
X56440476Y-75311961D02*
X56345238Y-75407200D01*
X56345238Y-75407200D02*
X56202381Y-75454819D01*
X56202381Y-75454819D02*
X55964286Y-75454819D01*
D13*
%TO.C,C7*%
X78458957Y-65780510D02*
X78089490Y-65411043D01*
X77419510Y-66819957D02*
X77050043Y-66450490D01*
%TO.C,C1*%
X89919510Y-65628343D02*
X89550043Y-65997810D01*
X90958957Y-66667790D02*
X90589490Y-67037257D01*
%TO.C,D1*%
X47380000Y-64190000D02*
X47380000Y-68430000D01*
X47380000Y-67590000D02*
X49620000Y-67590000D01*
X47380000Y-67710000D02*
X49620000Y-67710000D01*
X47380000Y-67830000D02*
X49620000Y-67830000D01*
X47380000Y-68430000D02*
X49620000Y-68430000D01*
X48500000Y-63540000D02*
X48500000Y-64190000D01*
X48500000Y-69080000D02*
X48500000Y-68430000D01*
X49620000Y-64190000D02*
X47380000Y-64190000D01*
X49620000Y-68430000D02*
X49620000Y-64190000D01*
%TO.C,C5*%
X61568752Y-46809000D02*
X61046248Y-46809000D01*
X61568752Y-48279000D02*
X61046248Y-48279000D01*
%TO.C,J4*%
X99530000Y-52590000D02*
X99530000Y-53590000D01*
X99530000Y-53590000D02*
X100530000Y-53090000D01*
X100530000Y-53090000D02*
X99530000Y-52590000D01*
X100920000Y-47880000D02*
X110040000Y-47880000D01*
X100920000Y-56120000D02*
X102230000Y-56120000D01*
X100920000Y-68460000D02*
X100920000Y-47880000D01*
X102230000Y-49180000D02*
X108730000Y-49180000D01*
X102230000Y-56120000D02*
X102230000Y-49180000D01*
X102230000Y-60220000D02*
X100920000Y-60220000D01*
X102230000Y-60220000D02*
X102230000Y-60220000D01*
X102230000Y-67160000D02*
X102230000Y-60220000D01*
X108730000Y-49180000D02*
X108730000Y-67160000D01*
X108730000Y-67160000D02*
X102230000Y-67160000D01*
X110040000Y-47880000D02*
X110040000Y-68460000D01*
X110040000Y-68460000D02*
X100920000Y-68460000D01*
%TO.C,J2*%
X40828000Y-66040000D02*
X40828000Y-68640000D01*
X40828000Y-66040000D02*
X43488000Y-66040000D01*
X40828000Y-68640000D02*
X43488000Y-68640000D01*
X42158000Y-63440000D02*
X43488000Y-63440000D01*
X43488000Y-63440000D02*
X43488000Y-64770000D01*
X43488000Y-66040000D02*
X43488000Y-68640000D01*
%TO.C,C6*%
X76800043Y-52247810D02*
X77169510Y-51878343D01*
X77839490Y-53287257D02*
X78208957Y-52917790D01*
%TO.C,U1*%
X76734189Y-60332481D02*
X76161433Y-60240557D01*
X76642266Y-59759724D01*
X76734189Y-60332481D01*
G36*
X76734189Y-60332481D02*
G01*
X76161433Y-60240557D01*
X76642266Y-59759724D01*
X76734189Y-60332481D01*
G37*
D10*
X91406655Y-59399100D02*
X90929358Y-58921803D01*
X91406655Y-59399100D02*
X90929358Y-59876397D01*
X84088100Y-52080545D02*
X84565397Y-52557842D01*
X84088100Y-52080545D02*
X83610803Y-52557842D01*
X84088100Y-66717655D02*
X84565397Y-66240358D01*
X84088100Y-66717655D02*
X83610803Y-66240358D01*
X76769545Y-59399100D02*
X77246842Y-58921803D01*
X76769545Y-59399100D02*
X77204415Y-59833971D01*
D13*
%TO.C,U2*%
X55777500Y-48957500D02*
X55777500Y-49230000D01*
X55777500Y-69672500D02*
X55777500Y-69400000D01*
X61540000Y-48957500D02*
X55777500Y-48957500D01*
X61540000Y-48957500D02*
X67302500Y-48957500D01*
X61540000Y-69672500D02*
X55777500Y-69672500D01*
X61540000Y-69672500D02*
X67302500Y-69672500D01*
X67302500Y-48957500D02*
X67302500Y-49230000D01*
X67302500Y-69672500D02*
X67302500Y-69400000D01*
X54926250Y-49230000D02*
X54586250Y-48760000D01*
X55266250Y-48760000D01*
X54926250Y-49230000D01*
G36*
X54926250Y-49230000D02*
G01*
X54586250Y-48760000D01*
X55266250Y-48760000D01*
X54926250Y-49230000D01*
G37*
%TO.C,C3*%
X38249759Y-81911000D02*
X38879759Y-81911000D01*
X38564759Y-81596000D02*
X38564759Y-82226000D01*
X41750000Y-80520000D02*
X41750000Y-86980000D01*
X41790000Y-80520000D02*
X41790000Y-86980000D01*
X41830000Y-80520000D02*
X41830000Y-86980000D01*
X41870000Y-80522000D02*
X41870000Y-86978000D01*
X41910000Y-80523000D02*
X41910000Y-86977000D01*
X41950000Y-80526000D02*
X41950000Y-86974000D01*
X41990000Y-80528000D02*
X41990000Y-82710000D01*
X41990000Y-84790000D02*
X41990000Y-86972000D01*
X42030000Y-80532000D02*
X42030000Y-82710000D01*
X42030000Y-84790000D02*
X42030000Y-86968000D01*
X42070000Y-80535000D02*
X42070000Y-82710000D01*
X42070000Y-84790000D02*
X42070000Y-86965000D01*
X42110000Y-80539000D02*
X42110000Y-82710000D01*
X42110000Y-84790000D02*
X42110000Y-86961000D01*
X42150000Y-80544000D02*
X42150000Y-82710000D01*
X42150000Y-84790000D02*
X42150000Y-86956000D01*
X42190000Y-80549000D02*
X42190000Y-82710000D01*
X42190000Y-84790000D02*
X42190000Y-86951000D01*
X42230000Y-80555000D02*
X42230000Y-82710000D01*
X42230000Y-84790000D02*
X42230000Y-86945000D01*
X42270000Y-80561000D02*
X42270000Y-82710000D01*
X42270000Y-84790000D02*
X42270000Y-86939000D01*
X42310000Y-80568000D02*
X42310000Y-82710000D01*
X42310000Y-84790000D02*
X42310000Y-86932000D01*
X42350000Y-80575000D02*
X42350000Y-82710000D01*
X42350000Y-84790000D02*
X42350000Y-86925000D01*
X42390000Y-80583000D02*
X42390000Y-82710000D01*
X42390000Y-84790000D02*
X42390000Y-86917000D01*
X42430000Y-80591000D02*
X42430000Y-82710000D01*
X42430000Y-84790000D02*
X42430000Y-86909000D01*
X42471000Y-80600000D02*
X42471000Y-82710000D01*
X42471000Y-84790000D02*
X42471000Y-86900000D01*
X42511000Y-80609000D02*
X42511000Y-82710000D01*
X42511000Y-84790000D02*
X42511000Y-86891000D01*
X42551000Y-80619000D02*
X42551000Y-82710000D01*
X42551000Y-84790000D02*
X42551000Y-86881000D01*
X42591000Y-80629000D02*
X42591000Y-82710000D01*
X42591000Y-84790000D02*
X42591000Y-86871000D01*
X42631000Y-80640000D02*
X42631000Y-82710000D01*
X42631000Y-84790000D02*
X42631000Y-86860000D01*
X42671000Y-80652000D02*
X42671000Y-82710000D01*
X42671000Y-84790000D02*
X42671000Y-86848000D01*
X42711000Y-80664000D02*
X42711000Y-82710000D01*
X42711000Y-84790000D02*
X42711000Y-86836000D01*
X42751000Y-80676000D02*
X42751000Y-82710000D01*
X42751000Y-84790000D02*
X42751000Y-86824000D01*
X42791000Y-80689000D02*
X42791000Y-82710000D01*
X42791000Y-84790000D02*
X42791000Y-86811000D01*
X42831000Y-80703000D02*
X42831000Y-82710000D01*
X42831000Y-84790000D02*
X42831000Y-86797000D01*
X42871000Y-80717000D02*
X42871000Y-82710000D01*
X42871000Y-84790000D02*
X42871000Y-86783000D01*
X42911000Y-80732000D02*
X42911000Y-82710000D01*
X42911000Y-84790000D02*
X42911000Y-86768000D01*
X42951000Y-80748000D02*
X42951000Y-82710000D01*
X42951000Y-84790000D02*
X42951000Y-86752000D01*
X42991000Y-80764000D02*
X42991000Y-82710000D01*
X42991000Y-84790000D02*
X42991000Y-86736000D01*
X43031000Y-80780000D02*
X43031000Y-82710000D01*
X43031000Y-84790000D02*
X43031000Y-86720000D01*
X43071000Y-80798000D02*
X43071000Y-82710000D01*
X43071000Y-84790000D02*
X43071000Y-86702000D01*
X43111000Y-80816000D02*
X43111000Y-82710000D01*
X43111000Y-84790000D02*
X43111000Y-86684000D01*
X43151000Y-80834000D02*
X43151000Y-82710000D01*
X43151000Y-84790000D02*
X43151000Y-86666000D01*
X43191000Y-80854000D02*
X43191000Y-82710000D01*
X43191000Y-84790000D02*
X43191000Y-86646000D01*
X43231000Y-80874000D02*
X43231000Y-82710000D01*
X43231000Y-84790000D02*
X43231000Y-86626000D01*
X43271000Y-80894000D02*
X43271000Y-82710000D01*
X43271000Y-84790000D02*
X43271000Y-86606000D01*
X43311000Y-80916000D02*
X43311000Y-82710000D01*
X43311000Y-84790000D02*
X43311000Y-86584000D01*
X43351000Y-80938000D02*
X43351000Y-82710000D01*
X43351000Y-84790000D02*
X43351000Y-86562000D01*
X43391000Y-80960000D02*
X43391000Y-82710000D01*
X43391000Y-84790000D02*
X43391000Y-86540000D01*
X43431000Y-80984000D02*
X43431000Y-82710000D01*
X43431000Y-84790000D02*
X43431000Y-86516000D01*
X43471000Y-81008000D02*
X43471000Y-82710000D01*
X43471000Y-84790000D02*
X43471000Y-86492000D01*
X43511000Y-81034000D02*
X43511000Y-82710000D01*
X43511000Y-84790000D02*
X43511000Y-86466000D01*
X43551000Y-81060000D02*
X43551000Y-82710000D01*
X43551000Y-84790000D02*
X43551000Y-86440000D01*
X43591000Y-81086000D02*
X43591000Y-82710000D01*
X43591000Y-84790000D02*
X43591000Y-86414000D01*
X43631000Y-81114000D02*
X43631000Y-82710000D01*
X43631000Y-84790000D02*
X43631000Y-86386000D01*
X43671000Y-81143000D02*
X43671000Y-82710000D01*
X43671000Y-84790000D02*
X43671000Y-86357000D01*
X43711000Y-81172000D02*
X43711000Y-82710000D01*
X43711000Y-84790000D02*
X43711000Y-86328000D01*
X43751000Y-81202000D02*
X43751000Y-82710000D01*
X43751000Y-84790000D02*
X43751000Y-86298000D01*
X43791000Y-81234000D02*
X43791000Y-82710000D01*
X43791000Y-84790000D02*
X43791000Y-86266000D01*
X43831000Y-81266000D02*
X43831000Y-82710000D01*
X43831000Y-84790000D02*
X43831000Y-86234000D01*
X43871000Y-81300000D02*
X43871000Y-82710000D01*
X43871000Y-84790000D02*
X43871000Y-86200000D01*
X43911000Y-81334000D02*
X43911000Y-82710000D01*
X43911000Y-84790000D02*
X43911000Y-86166000D01*
X43951000Y-81370000D02*
X43951000Y-82710000D01*
X43951000Y-84790000D02*
X43951000Y-86130000D01*
X43991000Y-81407000D02*
X43991000Y-82710000D01*
X43991000Y-84790000D02*
X43991000Y-86093000D01*
X44031000Y-81445000D02*
X44031000Y-82710000D01*
X44031000Y-84790000D02*
X44031000Y-86055000D01*
X44071000Y-81485000D02*
X44071000Y-86015000D01*
X44111000Y-81526000D02*
X44111000Y-85974000D01*
X44151000Y-81568000D02*
X44151000Y-85932000D01*
X44191000Y-81613000D02*
X44191000Y-85887000D01*
X44231000Y-81658000D02*
X44231000Y-85842000D01*
X44271000Y-81706000D02*
X44271000Y-85794000D01*
X44311000Y-81755000D02*
X44311000Y-85745000D01*
X44351000Y-81806000D02*
X44351000Y-85694000D01*
X44391000Y-81860000D02*
X44391000Y-85640000D01*
X44431000Y-81916000D02*
X44431000Y-85584000D01*
X44471000Y-81974000D02*
X44471000Y-85526000D01*
X44511000Y-82036000D02*
X44511000Y-85464000D01*
X44551000Y-82100000D02*
X44551000Y-85400000D01*
X44591000Y-82169000D02*
X44591000Y-85331000D01*
X44631000Y-82241000D02*
X44631000Y-85259000D01*
X44671000Y-82318000D02*
X44671000Y-85182000D01*
X44711000Y-82400000D02*
X44711000Y-85100000D01*
X44751000Y-82488000D02*
X44751000Y-85012000D01*
X44791000Y-82585000D02*
X44791000Y-84915000D01*
X44831000Y-82691000D02*
X44831000Y-84809000D01*
X44871000Y-82810000D02*
X44871000Y-84690000D01*
X44911000Y-82948000D02*
X44911000Y-84552000D01*
X44951000Y-83117000D02*
X44951000Y-84383000D01*
X44991000Y-83348000D02*
X44991000Y-84152000D01*
X45020000Y-83750000D02*
G75*
G02*
X38480000Y-83750000I-3270000J0D01*
G01*
X38480000Y-83750000D02*
G75*
G02*
X45020000Y-83750000I3270000J0D01*
G01*
%TO.C,J3*%
X38348000Y-46990000D02*
X38348000Y-57150000D01*
X38348000Y-57150000D02*
X45968000Y-57150000D01*
X39618000Y-57150000D02*
X39618000Y-46990000D01*
X45968000Y-46990000D02*
X38348000Y-46990000D01*
X45968000Y-57150000D02*
X45968000Y-46990000D01*
%TO.C,C8*%
X91050043Y-53950490D02*
X91419510Y-54319957D01*
X92089490Y-52911043D02*
X92458957Y-53280510D01*
%TD*%
M02*
