%TF.GenerationSoftware,KiCad,Pcbnew,7.0.10*%
%TF.CreationDate,2024-01-06T13:40:11+01:00*%
%TF.ProjectId,p2000t-ram-expansion-board-smd,70323030-3074-42d7-9261-6d2d65787061,rev?*%
%TF.SameCoordinates,Original*%
%TF.FileFunction,Legend,Top*%
%TF.FilePolarity,Positive*%
%FSLAX46Y46*%
G04 Gerber Fmt 4.6, Leading zero omitted, Abs format (unit mm)*
G04 Created by KiCad (PCBNEW 7.0.10) date 2024-01-06 13:40:11*
%MOMM*%
%LPD*%
G01*
G04 APERTURE LIST*
%ADD10C,0.329000*%
%ADD11C,0.150000*%
%ADD12C,0.120000*%
G04 APERTURE END LIST*
D10*
X34454500Y-85775800D02*
G75*
G03*
X34125500Y-85775800I-164500J0D01*
G01*
X34125500Y-85775800D02*
G75*
G03*
X34454500Y-85775800I164500J0D01*
G01*
X110654500Y-85775800D02*
G75*
G03*
X110325500Y-85775800I-164500J0D01*
G01*
X110325500Y-85775800D02*
G75*
G03*
X110654500Y-85775800I164500J0D01*
G01*
X118477700Y-60452000D02*
G75*
G03*
X118148700Y-60452000I-164500J0D01*
G01*
X118148700Y-60452000D02*
G75*
G03*
X118477700Y-60452000I164500J0D01*
G01*
X108470100Y-60477400D02*
G75*
G03*
X108141100Y-60477400I-164500J0D01*
G01*
X108141100Y-60477400D02*
G75*
G03*
X108470100Y-60477400I164500J0D01*
G01*
X98462500Y-60452000D02*
G75*
G03*
X98133500Y-60452000I-164500J0D01*
G01*
X98133500Y-60452000D02*
G75*
G03*
X98462500Y-60452000I164500J0D01*
G01*
X88454900Y-59182000D02*
G75*
G03*
X88125900Y-59182000I-164500J0D01*
G01*
X88125900Y-59182000D02*
G75*
G03*
X88454900Y-59182000I164500J0D01*
G01*
X78447300Y-59207400D02*
G75*
G03*
X78118300Y-59207400I-164500J0D01*
G01*
X78118300Y-59207400D02*
G75*
G03*
X78447300Y-59207400I164500J0D01*
G01*
X58559100Y-60934600D02*
G75*
G03*
X58230100Y-60934600I-164500J0D01*
G01*
X58230100Y-60934600D02*
G75*
G03*
X58559100Y-60934600I164500J0D01*
G01*
X35622900Y-60909200D02*
G75*
G03*
X35293900Y-60909200I-164500J0D01*
G01*
X35293900Y-60909200D02*
G75*
G03*
X35622900Y-60909200I164500J0D01*
G01*
D11*
X101516000Y-79756000D02*
X103040000Y-79756000D01*
X103040000Y-81280000D01*
X101516000Y-81280000D01*
X101516000Y-79756000D01*
G36*
X101516000Y-79756000D02*
G01*
X103040000Y-79756000D01*
X103040000Y-81280000D01*
X101516000Y-81280000D01*
X101516000Y-79756000D01*
G37*
X21844000Y-52959000D02*
X73152000Y-52959000D01*
X73152000Y-55499000D01*
X21844000Y-55499000D01*
X21844000Y-52959000D01*
X48938000Y-76200000D02*
X101008000Y-76200000D01*
X101008000Y-82296000D01*
X48938000Y-82296000D01*
X48938000Y-76200000D01*
X66410819Y-75037792D02*
X65934628Y-75371125D01*
X66410819Y-75609220D02*
X65410819Y-75609220D01*
X65410819Y-75609220D02*
X65410819Y-75228268D01*
X65410819Y-75228268D02*
X65458438Y-75133030D01*
X65458438Y-75133030D02*
X65506057Y-75085411D01*
X65506057Y-75085411D02*
X65601295Y-75037792D01*
X65601295Y-75037792D02*
X65744152Y-75037792D01*
X65744152Y-75037792D02*
X65839390Y-75085411D01*
X65839390Y-75085411D02*
X65887009Y-75133030D01*
X65887009Y-75133030D02*
X65934628Y-75228268D01*
X65934628Y-75228268D02*
X65934628Y-75609220D01*
X66410819Y-74609220D02*
X65410819Y-74609220D01*
X65410819Y-74609220D02*
X65410819Y-74371125D01*
X65410819Y-74371125D02*
X65458438Y-74228268D01*
X65458438Y-74228268D02*
X65553676Y-74133030D01*
X65553676Y-74133030D02*
X65648914Y-74085411D01*
X65648914Y-74085411D02*
X65839390Y-74037792D01*
X65839390Y-74037792D02*
X65982247Y-74037792D01*
X65982247Y-74037792D02*
X66172723Y-74085411D01*
X66172723Y-74085411D02*
X66267961Y-74133030D01*
X66267961Y-74133030D02*
X66363200Y-74228268D01*
X66363200Y-74228268D02*
X66410819Y-74371125D01*
X66410819Y-74371125D02*
X66410819Y-74609220D01*
X65133200Y-75747316D02*
X65133200Y-73947316D01*
X63124819Y-75704458D02*
X64124819Y-75466363D01*
X64124819Y-75466363D02*
X63410533Y-75275887D01*
X63410533Y-75275887D02*
X64124819Y-75085411D01*
X64124819Y-75085411D02*
X63124819Y-74847316D01*
X64124819Y-73894935D02*
X63648628Y-74228268D01*
X64124819Y-74466363D02*
X63124819Y-74466363D01*
X63124819Y-74466363D02*
X63124819Y-74085411D01*
X63124819Y-74085411D02*
X63172438Y-73990173D01*
X63172438Y-73990173D02*
X63220057Y-73942554D01*
X63220057Y-73942554D02*
X63315295Y-73894935D01*
X63315295Y-73894935D02*
X63458152Y-73894935D01*
X63458152Y-73894935D02*
X63553390Y-73942554D01*
X63553390Y-73942554D02*
X63601009Y-73990173D01*
X63601009Y-73990173D02*
X63648628Y-74085411D01*
X63648628Y-74085411D02*
X63648628Y-74466363D01*
X62847200Y-75747316D02*
X62847200Y-73804459D01*
X79079104Y-84521731D02*
X79079104Y-84045541D01*
X79364819Y-84616969D02*
X78364819Y-84283636D01*
X78364819Y-84283636D02*
X79364819Y-83950303D01*
X78364819Y-83188398D02*
X78364819Y-83378874D01*
X78364819Y-83378874D02*
X78412438Y-83474112D01*
X78412438Y-83474112D02*
X78460057Y-83521731D01*
X78460057Y-83521731D02*
X78602914Y-83616969D01*
X78602914Y-83616969D02*
X78793390Y-83664588D01*
X78793390Y-83664588D02*
X79174342Y-83664588D01*
X79174342Y-83664588D02*
X79269580Y-83616969D01*
X79269580Y-83616969D02*
X79317200Y-83569350D01*
X79317200Y-83569350D02*
X79364819Y-83474112D01*
X79364819Y-83474112D02*
X79364819Y-83283636D01*
X79364819Y-83283636D02*
X79317200Y-83188398D01*
X79317200Y-83188398D02*
X79269580Y-83140779D01*
X79269580Y-83140779D02*
X79174342Y-83093160D01*
X79174342Y-83093160D02*
X78936247Y-83093160D01*
X78936247Y-83093160D02*
X78841009Y-83140779D01*
X78841009Y-83140779D02*
X78793390Y-83188398D01*
X78793390Y-83188398D02*
X78745771Y-83283636D01*
X78745771Y-83283636D02*
X78745771Y-83474112D01*
X78745771Y-83474112D02*
X78793390Y-83569350D01*
X78793390Y-83569350D02*
X78841009Y-83616969D01*
X78841009Y-83616969D02*
X78936247Y-83664588D01*
X30696819Y-67754476D02*
X30696819Y-68230666D01*
X30696819Y-68230666D02*
X31173009Y-68278285D01*
X31173009Y-68278285D02*
X31125390Y-68230666D01*
X31125390Y-68230666D02*
X31077771Y-68135428D01*
X31077771Y-68135428D02*
X31077771Y-67897333D01*
X31077771Y-67897333D02*
X31125390Y-67802095D01*
X31125390Y-67802095D02*
X31173009Y-67754476D01*
X31173009Y-67754476D02*
X31268247Y-67706857D01*
X31268247Y-67706857D02*
X31506342Y-67706857D01*
X31506342Y-67706857D02*
X31601580Y-67754476D01*
X31601580Y-67754476D02*
X31649200Y-67802095D01*
X31649200Y-67802095D02*
X31696819Y-67897333D01*
X31696819Y-67897333D02*
X31696819Y-68135428D01*
X31696819Y-68135428D02*
X31649200Y-68230666D01*
X31649200Y-68230666D02*
X31601580Y-68278285D01*
X30696819Y-67421142D02*
X31696819Y-67087809D01*
X31696819Y-67087809D02*
X30696819Y-66754476D01*
X73745104Y-75656839D02*
X73745104Y-75180649D01*
X74030819Y-75752077D02*
X73030819Y-75418744D01*
X73030819Y-75418744D02*
X74030819Y-75085411D01*
X74030819Y-74228268D02*
X74030819Y-74799696D01*
X74030819Y-74513982D02*
X73030819Y-74513982D01*
X73030819Y-74513982D02*
X73173676Y-74609220D01*
X73173676Y-74609220D02*
X73268914Y-74704458D01*
X73268914Y-74704458D02*
X73316533Y-74799696D01*
X74030819Y-73275887D02*
X74030819Y-73847315D01*
X74030819Y-73561601D02*
X73030819Y-73561601D01*
X73030819Y-73561601D02*
X73173676Y-73656839D01*
X73173676Y-73656839D02*
X73268914Y-73752077D01*
X73268914Y-73752077D02*
X73316533Y-73847315D01*
X61330819Y-86236016D02*
X60330819Y-86236016D01*
X60330819Y-85569350D02*
X60330819Y-85378874D01*
X60330819Y-85378874D02*
X60378438Y-85283636D01*
X60378438Y-85283636D02*
X60473676Y-85188398D01*
X60473676Y-85188398D02*
X60664152Y-85140779D01*
X60664152Y-85140779D02*
X60997485Y-85140779D01*
X60997485Y-85140779D02*
X61187961Y-85188398D01*
X61187961Y-85188398D02*
X61283200Y-85283636D01*
X61283200Y-85283636D02*
X61330819Y-85378874D01*
X61330819Y-85378874D02*
X61330819Y-85569350D01*
X61330819Y-85569350D02*
X61283200Y-85664588D01*
X61283200Y-85664588D02*
X61187961Y-85759826D01*
X61187961Y-85759826D02*
X60997485Y-85807445D01*
X60997485Y-85807445D02*
X60664152Y-85807445D01*
X60664152Y-85807445D02*
X60473676Y-85759826D01*
X60473676Y-85759826D02*
X60378438Y-85664588D01*
X60378438Y-85664588D02*
X60330819Y-85569350D01*
X61330819Y-84140779D02*
X60854628Y-84474112D01*
X61330819Y-84712207D02*
X60330819Y-84712207D01*
X60330819Y-84712207D02*
X60330819Y-84331255D01*
X60330819Y-84331255D02*
X60378438Y-84236017D01*
X60378438Y-84236017D02*
X60426057Y-84188398D01*
X60426057Y-84188398D02*
X60521295Y-84140779D01*
X60521295Y-84140779D02*
X60664152Y-84140779D01*
X60664152Y-84140779D02*
X60759390Y-84188398D01*
X60759390Y-84188398D02*
X60807009Y-84236017D01*
X60807009Y-84236017D02*
X60854628Y-84331255D01*
X60854628Y-84331255D02*
X60854628Y-84712207D01*
X61426057Y-83045541D02*
X61378438Y-83140779D01*
X61378438Y-83140779D02*
X61283200Y-83236017D01*
X61283200Y-83236017D02*
X61140342Y-83378874D01*
X61140342Y-83378874D02*
X61092723Y-83474112D01*
X61092723Y-83474112D02*
X61092723Y-83569350D01*
X61330819Y-83521731D02*
X61283200Y-83616969D01*
X61283200Y-83616969D02*
X61187961Y-83712207D01*
X61187961Y-83712207D02*
X60997485Y-83759826D01*
X60997485Y-83759826D02*
X60664152Y-83759826D01*
X60664152Y-83759826D02*
X60473676Y-83712207D01*
X60473676Y-83712207D02*
X60378438Y-83616969D01*
X60378438Y-83616969D02*
X60330819Y-83521731D01*
X60330819Y-83521731D02*
X60330819Y-83331255D01*
X60330819Y-83331255D02*
X60378438Y-83236017D01*
X60378438Y-83236017D02*
X60473676Y-83140779D01*
X60473676Y-83140779D02*
X60664152Y-83093160D01*
X60664152Y-83093160D02*
X60997485Y-83093160D01*
X60997485Y-83093160D02*
X61187961Y-83140779D01*
X61187961Y-83140779D02*
X61283200Y-83236017D01*
X61283200Y-83236017D02*
X61330819Y-83331255D01*
X61330819Y-83331255D02*
X61330819Y-83521731D01*
X60053200Y-86374112D02*
X60053200Y-83002684D01*
X86699104Y-84521731D02*
X86699104Y-84045541D01*
X86984819Y-84616969D02*
X85984819Y-84283636D01*
X85984819Y-84283636D02*
X86984819Y-83950303D01*
X85984819Y-83426493D02*
X85984819Y-83331255D01*
X85984819Y-83331255D02*
X86032438Y-83236017D01*
X86032438Y-83236017D02*
X86080057Y-83188398D01*
X86080057Y-83188398D02*
X86175295Y-83140779D01*
X86175295Y-83140779D02*
X86365771Y-83093160D01*
X86365771Y-83093160D02*
X86603866Y-83093160D01*
X86603866Y-83093160D02*
X86794342Y-83140779D01*
X86794342Y-83140779D02*
X86889580Y-83188398D01*
X86889580Y-83188398D02*
X86937200Y-83236017D01*
X86937200Y-83236017D02*
X86984819Y-83331255D01*
X86984819Y-83331255D02*
X86984819Y-83426493D01*
X86984819Y-83426493D02*
X86937200Y-83521731D01*
X86937200Y-83521731D02*
X86889580Y-83569350D01*
X86889580Y-83569350D02*
X86794342Y-83616969D01*
X86794342Y-83616969D02*
X86603866Y-83664588D01*
X86603866Y-83664588D02*
X86365771Y-83664588D01*
X86365771Y-83664588D02*
X86175295Y-83616969D01*
X86175295Y-83616969D02*
X86080057Y-83569350D01*
X86080057Y-83569350D02*
X86032438Y-83521731D01*
X86032438Y-83521731D02*
X85984819Y-83426493D01*
X96890819Y-75609220D02*
X95890819Y-75609220D01*
X95890819Y-75609220D02*
X95890819Y-75371125D01*
X95890819Y-75371125D02*
X95938438Y-75228268D01*
X95938438Y-75228268D02*
X96033676Y-75133030D01*
X96033676Y-75133030D02*
X96128914Y-75085411D01*
X96128914Y-75085411D02*
X96319390Y-75037792D01*
X96319390Y-75037792D02*
X96462247Y-75037792D01*
X96462247Y-75037792D02*
X96652723Y-75085411D01*
X96652723Y-75085411D02*
X96747961Y-75133030D01*
X96747961Y-75133030D02*
X96843200Y-75228268D01*
X96843200Y-75228268D02*
X96890819Y-75371125D01*
X96890819Y-75371125D02*
X96890819Y-75609220D01*
X96890819Y-74085411D02*
X96890819Y-74656839D01*
X96890819Y-74371125D02*
X95890819Y-74371125D01*
X95890819Y-74371125D02*
X96033676Y-74466363D01*
X96033676Y-74466363D02*
X96128914Y-74561601D01*
X96128914Y-74561601D02*
X96176533Y-74656839D01*
X71205104Y-85474112D02*
X71205104Y-84997922D01*
X71490819Y-85569350D02*
X70490819Y-85236017D01*
X70490819Y-85236017D02*
X71490819Y-84902684D01*
X71490819Y-84045541D02*
X71490819Y-84616969D01*
X71490819Y-84331255D02*
X70490819Y-84331255D01*
X70490819Y-84331255D02*
X70633676Y-84426493D01*
X70633676Y-84426493D02*
X70728914Y-84521731D01*
X70728914Y-84521731D02*
X70776533Y-84616969D01*
X70586057Y-83664588D02*
X70538438Y-83616969D01*
X70538438Y-83616969D02*
X70490819Y-83521731D01*
X70490819Y-83521731D02*
X70490819Y-83283636D01*
X70490819Y-83283636D02*
X70538438Y-83188398D01*
X70538438Y-83188398D02*
X70586057Y-83140779D01*
X70586057Y-83140779D02*
X70681295Y-83093160D01*
X70681295Y-83093160D02*
X70776533Y-83093160D01*
X70776533Y-83093160D02*
X70919390Y-83140779D01*
X70919390Y-83140779D02*
X71490819Y-83712207D01*
X71490819Y-83712207D02*
X71490819Y-83093160D01*
X89524819Y-84616969D02*
X88524819Y-84616969D01*
X88524819Y-84616969D02*
X88524819Y-84378874D01*
X88524819Y-84378874D02*
X88572438Y-84236017D01*
X88572438Y-84236017D02*
X88667676Y-84140779D01*
X88667676Y-84140779D02*
X88762914Y-84093160D01*
X88762914Y-84093160D02*
X88953390Y-84045541D01*
X88953390Y-84045541D02*
X89096247Y-84045541D01*
X89096247Y-84045541D02*
X89286723Y-84093160D01*
X89286723Y-84093160D02*
X89381961Y-84140779D01*
X89381961Y-84140779D02*
X89477200Y-84236017D01*
X89477200Y-84236017D02*
X89524819Y-84378874D01*
X89524819Y-84378874D02*
X89524819Y-84616969D01*
X88524819Y-83188398D02*
X88524819Y-83378874D01*
X88524819Y-83378874D02*
X88572438Y-83474112D01*
X88572438Y-83474112D02*
X88620057Y-83521731D01*
X88620057Y-83521731D02*
X88762914Y-83616969D01*
X88762914Y-83616969D02*
X88953390Y-83664588D01*
X88953390Y-83664588D02*
X89334342Y-83664588D01*
X89334342Y-83664588D02*
X89429580Y-83616969D01*
X89429580Y-83616969D02*
X89477200Y-83569350D01*
X89477200Y-83569350D02*
X89524819Y-83474112D01*
X89524819Y-83474112D02*
X89524819Y-83283636D01*
X89524819Y-83283636D02*
X89477200Y-83188398D01*
X89477200Y-83188398D02*
X89429580Y-83140779D01*
X89429580Y-83140779D02*
X89334342Y-83093160D01*
X89334342Y-83093160D02*
X89096247Y-83093160D01*
X89096247Y-83093160D02*
X89001009Y-83140779D01*
X89001009Y-83140779D02*
X88953390Y-83188398D01*
X88953390Y-83188398D02*
X88905771Y-83283636D01*
X88905771Y-83283636D02*
X88905771Y-83474112D01*
X88905771Y-83474112D02*
X88953390Y-83569350D01*
X88953390Y-83569350D02*
X89001009Y-83616969D01*
X89001009Y-83616969D02*
X89096247Y-83664588D01*
X21298819Y-67754476D02*
X21298819Y-68230666D01*
X21298819Y-68230666D02*
X21775009Y-68278285D01*
X21775009Y-68278285D02*
X21727390Y-68230666D01*
X21727390Y-68230666D02*
X21679771Y-68135428D01*
X21679771Y-68135428D02*
X21679771Y-67897333D01*
X21679771Y-67897333D02*
X21727390Y-67802095D01*
X21727390Y-67802095D02*
X21775009Y-67754476D01*
X21775009Y-67754476D02*
X21870247Y-67706857D01*
X21870247Y-67706857D02*
X22108342Y-67706857D01*
X22108342Y-67706857D02*
X22203580Y-67754476D01*
X22203580Y-67754476D02*
X22251200Y-67802095D01*
X22251200Y-67802095D02*
X22298819Y-67897333D01*
X22298819Y-67897333D02*
X22298819Y-68135428D01*
X22298819Y-68135428D02*
X22251200Y-68230666D01*
X22251200Y-68230666D02*
X22203580Y-68278285D01*
X21298819Y-67421142D02*
X22298819Y-67087809D01*
X22298819Y-67087809D02*
X21298819Y-66754476D01*
X42126819Y-78874809D02*
X42126819Y-78684333D01*
X42126819Y-78684333D02*
X42174438Y-78589095D01*
X42174438Y-78589095D02*
X42269676Y-78493857D01*
X42269676Y-78493857D02*
X42460152Y-78446238D01*
X42460152Y-78446238D02*
X42793485Y-78446238D01*
X42793485Y-78446238D02*
X42983961Y-78493857D01*
X42983961Y-78493857D02*
X43079200Y-78589095D01*
X43079200Y-78589095D02*
X43126819Y-78684333D01*
X43126819Y-78684333D02*
X43126819Y-78874809D01*
X43126819Y-78874809D02*
X43079200Y-78970047D01*
X43079200Y-78970047D02*
X42983961Y-79065285D01*
X42983961Y-79065285D02*
X42793485Y-79112904D01*
X42793485Y-79112904D02*
X42460152Y-79112904D01*
X42460152Y-79112904D02*
X42269676Y-79065285D01*
X42269676Y-79065285D02*
X42174438Y-78970047D01*
X42174438Y-78970047D02*
X42126819Y-78874809D01*
X43126819Y-78017666D02*
X42126819Y-78017666D01*
X43126819Y-77446238D02*
X42555390Y-77874809D01*
X42126819Y-77446238D02*
X42698247Y-78017666D01*
X43031580Y-76874809D02*
X43079200Y-76827190D01*
X43079200Y-76827190D02*
X43126819Y-76874809D01*
X43126819Y-76874809D02*
X43079200Y-76922428D01*
X43079200Y-76922428D02*
X43031580Y-76874809D01*
X43031580Y-76874809D02*
X43126819Y-76874809D01*
X42174438Y-77065285D02*
X42126819Y-76970047D01*
X42126819Y-76970047D02*
X42126819Y-76731952D01*
X42126819Y-76731952D02*
X42174438Y-76636714D01*
X42174438Y-76636714D02*
X42269676Y-76589095D01*
X42269676Y-76589095D02*
X42364914Y-76589095D01*
X42364914Y-76589095D02*
X42460152Y-76636714D01*
X42460152Y-76636714D02*
X42507771Y-76684333D01*
X42507771Y-76684333D02*
X42555390Y-76779571D01*
X42555390Y-76779571D02*
X42603009Y-76827190D01*
X42603009Y-76827190D02*
X42698247Y-76874809D01*
X42698247Y-76874809D02*
X42745866Y-76874809D01*
X81619104Y-84521731D02*
X81619104Y-84045541D01*
X81904819Y-84616969D02*
X80904819Y-84283636D01*
X80904819Y-84283636D02*
X81904819Y-83950303D01*
X81238152Y-83188398D02*
X81904819Y-83188398D01*
X80857200Y-83426493D02*
X81571485Y-83664588D01*
X81571485Y-83664588D02*
X81571485Y-83045541D01*
X21346438Y-63245904D02*
X21298819Y-63341142D01*
X21298819Y-63341142D02*
X21298819Y-63483999D01*
X21298819Y-63483999D02*
X21346438Y-63626856D01*
X21346438Y-63626856D02*
X21441676Y-63722094D01*
X21441676Y-63722094D02*
X21536914Y-63769713D01*
X21536914Y-63769713D02*
X21727390Y-63817332D01*
X21727390Y-63817332D02*
X21870247Y-63817332D01*
X21870247Y-63817332D02*
X22060723Y-63769713D01*
X22060723Y-63769713D02*
X22155961Y-63722094D01*
X22155961Y-63722094D02*
X22251200Y-63626856D01*
X22251200Y-63626856D02*
X22298819Y-63483999D01*
X22298819Y-63483999D02*
X22298819Y-63388761D01*
X22298819Y-63388761D02*
X22251200Y-63245904D01*
X22251200Y-63245904D02*
X22203580Y-63198285D01*
X22203580Y-63198285D02*
X21870247Y-63198285D01*
X21870247Y-63198285D02*
X21870247Y-63388761D01*
X22298819Y-62769713D02*
X21298819Y-62769713D01*
X21298819Y-62769713D02*
X22298819Y-62198285D01*
X22298819Y-62198285D02*
X21298819Y-62198285D01*
X22298819Y-61722094D02*
X21298819Y-61722094D01*
X21298819Y-61722094D02*
X21298819Y-61483999D01*
X21298819Y-61483999D02*
X21346438Y-61341142D01*
X21346438Y-61341142D02*
X21441676Y-61245904D01*
X21441676Y-61245904D02*
X21536914Y-61198285D01*
X21536914Y-61198285D02*
X21727390Y-61150666D01*
X21727390Y-61150666D02*
X21870247Y-61150666D01*
X21870247Y-61150666D02*
X22060723Y-61198285D01*
X22060723Y-61198285D02*
X22155961Y-61245904D01*
X22155961Y-61245904D02*
X22251200Y-61341142D01*
X22251200Y-61341142D02*
X22298819Y-61483999D01*
X22298819Y-61483999D02*
X22298819Y-61722094D01*
X30744438Y-63245904D02*
X30696819Y-63341142D01*
X30696819Y-63341142D02*
X30696819Y-63483999D01*
X30696819Y-63483999D02*
X30744438Y-63626856D01*
X30744438Y-63626856D02*
X30839676Y-63722094D01*
X30839676Y-63722094D02*
X30934914Y-63769713D01*
X30934914Y-63769713D02*
X31125390Y-63817332D01*
X31125390Y-63817332D02*
X31268247Y-63817332D01*
X31268247Y-63817332D02*
X31458723Y-63769713D01*
X31458723Y-63769713D02*
X31553961Y-63722094D01*
X31553961Y-63722094D02*
X31649200Y-63626856D01*
X31649200Y-63626856D02*
X31696819Y-63483999D01*
X31696819Y-63483999D02*
X31696819Y-63388761D01*
X31696819Y-63388761D02*
X31649200Y-63245904D01*
X31649200Y-63245904D02*
X31601580Y-63198285D01*
X31601580Y-63198285D02*
X31268247Y-63198285D01*
X31268247Y-63198285D02*
X31268247Y-63388761D01*
X31696819Y-62769713D02*
X30696819Y-62769713D01*
X30696819Y-62769713D02*
X31696819Y-62198285D01*
X31696819Y-62198285D02*
X30696819Y-62198285D01*
X31696819Y-61722094D02*
X30696819Y-61722094D01*
X30696819Y-61722094D02*
X30696819Y-61483999D01*
X30696819Y-61483999D02*
X30744438Y-61341142D01*
X30744438Y-61341142D02*
X30839676Y-61245904D01*
X30839676Y-61245904D02*
X30934914Y-61198285D01*
X30934914Y-61198285D02*
X31125390Y-61150666D01*
X31125390Y-61150666D02*
X31268247Y-61150666D01*
X31268247Y-61150666D02*
X31458723Y-61198285D01*
X31458723Y-61198285D02*
X31553961Y-61245904D01*
X31553961Y-61245904D02*
X31649200Y-61341142D01*
X31649200Y-61341142D02*
X31696819Y-61483999D01*
X31696819Y-61483999D02*
X31696819Y-61722094D01*
X83767142Y-88084819D02*
X83767142Y-87084819D01*
X84195713Y-88084819D02*
X84195713Y-87561009D01*
X84195713Y-87561009D02*
X84148094Y-87465771D01*
X84148094Y-87465771D02*
X84052856Y-87418152D01*
X84052856Y-87418152D02*
X83909999Y-87418152D01*
X83909999Y-87418152D02*
X83814761Y-87465771D01*
X83814761Y-87465771D02*
X83767142Y-87513390D01*
X84529047Y-87418152D02*
X84909999Y-87418152D01*
X84671904Y-87084819D02*
X84671904Y-87941961D01*
X84671904Y-87941961D02*
X84719523Y-88037200D01*
X84719523Y-88037200D02*
X84814761Y-88084819D01*
X84814761Y-88084819D02*
X84909999Y-88084819D01*
X85100476Y-87418152D02*
X85481428Y-87418152D01*
X85243333Y-87084819D02*
X85243333Y-87941961D01*
X85243333Y-87941961D02*
X85290952Y-88037200D01*
X85290952Y-88037200D02*
X85386190Y-88084819D01*
X85386190Y-88084819D02*
X85481428Y-88084819D01*
X85814762Y-87418152D02*
X85814762Y-88418152D01*
X85814762Y-87465771D02*
X85910000Y-87418152D01*
X85910000Y-87418152D02*
X86100476Y-87418152D01*
X86100476Y-87418152D02*
X86195714Y-87465771D01*
X86195714Y-87465771D02*
X86243333Y-87513390D01*
X86243333Y-87513390D02*
X86290952Y-87608628D01*
X86290952Y-87608628D02*
X86290952Y-87894342D01*
X86290952Y-87894342D02*
X86243333Y-87989580D01*
X86243333Y-87989580D02*
X86195714Y-88037200D01*
X86195714Y-88037200D02*
X86100476Y-88084819D01*
X86100476Y-88084819D02*
X85910000Y-88084819D01*
X85910000Y-88084819D02*
X85814762Y-88037200D01*
X86671905Y-88037200D02*
X86767143Y-88084819D01*
X86767143Y-88084819D02*
X86957619Y-88084819D01*
X86957619Y-88084819D02*
X87052857Y-88037200D01*
X87052857Y-88037200D02*
X87100476Y-87941961D01*
X87100476Y-87941961D02*
X87100476Y-87894342D01*
X87100476Y-87894342D02*
X87052857Y-87799104D01*
X87052857Y-87799104D02*
X86957619Y-87751485D01*
X86957619Y-87751485D02*
X86814762Y-87751485D01*
X86814762Y-87751485D02*
X86719524Y-87703866D01*
X86719524Y-87703866D02*
X86671905Y-87608628D01*
X86671905Y-87608628D02*
X86671905Y-87561009D01*
X86671905Y-87561009D02*
X86719524Y-87465771D01*
X86719524Y-87465771D02*
X86814762Y-87418152D01*
X86814762Y-87418152D02*
X86957619Y-87418152D01*
X86957619Y-87418152D02*
X87052857Y-87465771D01*
X87529048Y-87989580D02*
X87576667Y-88037200D01*
X87576667Y-88037200D02*
X87529048Y-88084819D01*
X87529048Y-88084819D02*
X87481429Y-88037200D01*
X87481429Y-88037200D02*
X87529048Y-87989580D01*
X87529048Y-87989580D02*
X87529048Y-88084819D01*
X87529048Y-87465771D02*
X87576667Y-87513390D01*
X87576667Y-87513390D02*
X87529048Y-87561009D01*
X87529048Y-87561009D02*
X87481429Y-87513390D01*
X87481429Y-87513390D02*
X87529048Y-87465771D01*
X87529048Y-87465771D02*
X87529048Y-87561009D01*
X88719523Y-87037200D02*
X87862381Y-88322914D01*
X89767142Y-87037200D02*
X88910000Y-88322914D01*
X90529047Y-87418152D02*
X90529047Y-88227676D01*
X90529047Y-88227676D02*
X90481428Y-88322914D01*
X90481428Y-88322914D02*
X90433809Y-88370533D01*
X90433809Y-88370533D02*
X90338571Y-88418152D01*
X90338571Y-88418152D02*
X90195714Y-88418152D01*
X90195714Y-88418152D02*
X90100476Y-88370533D01*
X90529047Y-88037200D02*
X90433809Y-88084819D01*
X90433809Y-88084819D02*
X90243333Y-88084819D01*
X90243333Y-88084819D02*
X90148095Y-88037200D01*
X90148095Y-88037200D02*
X90100476Y-87989580D01*
X90100476Y-87989580D02*
X90052857Y-87894342D01*
X90052857Y-87894342D02*
X90052857Y-87608628D01*
X90052857Y-87608628D02*
X90100476Y-87513390D01*
X90100476Y-87513390D02*
X90148095Y-87465771D01*
X90148095Y-87465771D02*
X90243333Y-87418152D01*
X90243333Y-87418152D02*
X90433809Y-87418152D01*
X90433809Y-87418152D02*
X90529047Y-87465771D01*
X91005238Y-88084819D02*
X91005238Y-87418152D01*
X91005238Y-87084819D02*
X90957619Y-87132438D01*
X90957619Y-87132438D02*
X91005238Y-87180057D01*
X91005238Y-87180057D02*
X91052857Y-87132438D01*
X91052857Y-87132438D02*
X91005238Y-87084819D01*
X91005238Y-87084819D02*
X91005238Y-87180057D01*
X91338571Y-87418152D02*
X91719523Y-87418152D01*
X91481428Y-87084819D02*
X91481428Y-87941961D01*
X91481428Y-87941961D02*
X91529047Y-88037200D01*
X91529047Y-88037200D02*
X91624285Y-88084819D01*
X91624285Y-88084819D02*
X91719523Y-88084819D01*
X92052857Y-88084819D02*
X92052857Y-87084819D01*
X92481428Y-88084819D02*
X92481428Y-87561009D01*
X92481428Y-87561009D02*
X92433809Y-87465771D01*
X92433809Y-87465771D02*
X92338571Y-87418152D01*
X92338571Y-87418152D02*
X92195714Y-87418152D01*
X92195714Y-87418152D02*
X92100476Y-87465771D01*
X92100476Y-87465771D02*
X92052857Y-87513390D01*
X93386190Y-87418152D02*
X93386190Y-88084819D01*
X92957619Y-87418152D02*
X92957619Y-87941961D01*
X92957619Y-87941961D02*
X93005238Y-88037200D01*
X93005238Y-88037200D02*
X93100476Y-88084819D01*
X93100476Y-88084819D02*
X93243333Y-88084819D01*
X93243333Y-88084819D02*
X93338571Y-88037200D01*
X93338571Y-88037200D02*
X93386190Y-87989580D01*
X93862381Y-88084819D02*
X93862381Y-87084819D01*
X93862381Y-87465771D02*
X93957619Y-87418152D01*
X93957619Y-87418152D02*
X94148095Y-87418152D01*
X94148095Y-87418152D02*
X94243333Y-87465771D01*
X94243333Y-87465771D02*
X94290952Y-87513390D01*
X94290952Y-87513390D02*
X94338571Y-87608628D01*
X94338571Y-87608628D02*
X94338571Y-87894342D01*
X94338571Y-87894342D02*
X94290952Y-87989580D01*
X94290952Y-87989580D02*
X94243333Y-88037200D01*
X94243333Y-88037200D02*
X94148095Y-88084819D01*
X94148095Y-88084819D02*
X93957619Y-88084819D01*
X93957619Y-88084819D02*
X93862381Y-88037200D01*
X94767143Y-87989580D02*
X94814762Y-88037200D01*
X94814762Y-88037200D02*
X94767143Y-88084819D01*
X94767143Y-88084819D02*
X94719524Y-88037200D01*
X94719524Y-88037200D02*
X94767143Y-87989580D01*
X94767143Y-87989580D02*
X94767143Y-88084819D01*
X95671904Y-88037200D02*
X95576666Y-88084819D01*
X95576666Y-88084819D02*
X95386190Y-88084819D01*
X95386190Y-88084819D02*
X95290952Y-88037200D01*
X95290952Y-88037200D02*
X95243333Y-87989580D01*
X95243333Y-87989580D02*
X95195714Y-87894342D01*
X95195714Y-87894342D02*
X95195714Y-87608628D01*
X95195714Y-87608628D02*
X95243333Y-87513390D01*
X95243333Y-87513390D02*
X95290952Y-87465771D01*
X95290952Y-87465771D02*
X95386190Y-87418152D01*
X95386190Y-87418152D02*
X95576666Y-87418152D01*
X95576666Y-87418152D02*
X95671904Y-87465771D01*
X96243333Y-88084819D02*
X96148095Y-88037200D01*
X96148095Y-88037200D02*
X96100476Y-87989580D01*
X96100476Y-87989580D02*
X96052857Y-87894342D01*
X96052857Y-87894342D02*
X96052857Y-87608628D01*
X96052857Y-87608628D02*
X96100476Y-87513390D01*
X96100476Y-87513390D02*
X96148095Y-87465771D01*
X96148095Y-87465771D02*
X96243333Y-87418152D01*
X96243333Y-87418152D02*
X96386190Y-87418152D01*
X96386190Y-87418152D02*
X96481428Y-87465771D01*
X96481428Y-87465771D02*
X96529047Y-87513390D01*
X96529047Y-87513390D02*
X96576666Y-87608628D01*
X96576666Y-87608628D02*
X96576666Y-87894342D01*
X96576666Y-87894342D02*
X96529047Y-87989580D01*
X96529047Y-87989580D02*
X96481428Y-88037200D01*
X96481428Y-88037200D02*
X96386190Y-88084819D01*
X96386190Y-88084819D02*
X96243333Y-88084819D01*
X97005238Y-88084819D02*
X97005238Y-87418152D01*
X97005238Y-87513390D02*
X97052857Y-87465771D01*
X97052857Y-87465771D02*
X97148095Y-87418152D01*
X97148095Y-87418152D02*
X97290952Y-87418152D01*
X97290952Y-87418152D02*
X97386190Y-87465771D01*
X97386190Y-87465771D02*
X97433809Y-87561009D01*
X97433809Y-87561009D02*
X97433809Y-88084819D01*
X97433809Y-87561009D02*
X97481428Y-87465771D01*
X97481428Y-87465771D02*
X97576666Y-87418152D01*
X97576666Y-87418152D02*
X97719523Y-87418152D01*
X97719523Y-87418152D02*
X97814762Y-87465771D01*
X97814762Y-87465771D02*
X97862381Y-87561009D01*
X97862381Y-87561009D02*
X97862381Y-88084819D01*
X99052856Y-87037200D02*
X98195714Y-88322914D01*
X99386190Y-88084819D02*
X99386190Y-87418152D01*
X99386190Y-87084819D02*
X99338571Y-87132438D01*
X99338571Y-87132438D02*
X99386190Y-87180057D01*
X99386190Y-87180057D02*
X99433809Y-87132438D01*
X99433809Y-87132438D02*
X99386190Y-87084819D01*
X99386190Y-87084819D02*
X99386190Y-87180057D01*
X99719523Y-87418152D02*
X100100475Y-87418152D01*
X99862380Y-88084819D02*
X99862380Y-87227676D01*
X99862380Y-87227676D02*
X99909999Y-87132438D01*
X99909999Y-87132438D02*
X100005237Y-87084819D01*
X100005237Y-87084819D02*
X100100475Y-87084819D01*
X100433809Y-88084819D02*
X100433809Y-87418152D01*
X100433809Y-87084819D02*
X100386190Y-87132438D01*
X100386190Y-87132438D02*
X100433809Y-87180057D01*
X100433809Y-87180057D02*
X100481428Y-87132438D01*
X100481428Y-87132438D02*
X100433809Y-87084819D01*
X100433809Y-87084819D02*
X100433809Y-87180057D01*
X101052856Y-88084819D02*
X100957618Y-88037200D01*
X100957618Y-88037200D02*
X100909999Y-87941961D01*
X100909999Y-87941961D02*
X100909999Y-87084819D01*
X101576666Y-88084819D02*
X101481428Y-88037200D01*
X101481428Y-88037200D02*
X101433809Y-87989580D01*
X101433809Y-87989580D02*
X101386190Y-87894342D01*
X101386190Y-87894342D02*
X101386190Y-87608628D01*
X101386190Y-87608628D02*
X101433809Y-87513390D01*
X101433809Y-87513390D02*
X101481428Y-87465771D01*
X101481428Y-87465771D02*
X101576666Y-87418152D01*
X101576666Y-87418152D02*
X101719523Y-87418152D01*
X101719523Y-87418152D02*
X101814761Y-87465771D01*
X101814761Y-87465771D02*
X101862380Y-87513390D01*
X101862380Y-87513390D02*
X101909999Y-87608628D01*
X101909999Y-87608628D02*
X101909999Y-87894342D01*
X101909999Y-87894342D02*
X101862380Y-87989580D01*
X101862380Y-87989580D02*
X101814761Y-88037200D01*
X101814761Y-88037200D02*
X101719523Y-88084819D01*
X101719523Y-88084819D02*
X101576666Y-88084819D01*
X102195714Y-87418152D02*
X102576666Y-87418152D01*
X102338571Y-87084819D02*
X102338571Y-87941961D01*
X102338571Y-87941961D02*
X102386190Y-88037200D01*
X102386190Y-88037200D02*
X102481428Y-88084819D01*
X102481428Y-88084819D02*
X102576666Y-88084819D01*
X103624285Y-87037200D02*
X102767143Y-88322914D01*
X103957619Y-87418152D02*
X103957619Y-88418152D01*
X103957619Y-87465771D02*
X104052857Y-87418152D01*
X104052857Y-87418152D02*
X104243333Y-87418152D01*
X104243333Y-87418152D02*
X104338571Y-87465771D01*
X104338571Y-87465771D02*
X104386190Y-87513390D01*
X104386190Y-87513390D02*
X104433809Y-87608628D01*
X104433809Y-87608628D02*
X104433809Y-87894342D01*
X104433809Y-87894342D02*
X104386190Y-87989580D01*
X104386190Y-87989580D02*
X104338571Y-88037200D01*
X104338571Y-88037200D02*
X104243333Y-88084819D01*
X104243333Y-88084819D02*
X104052857Y-88084819D01*
X104052857Y-88084819D02*
X103957619Y-88037200D01*
X104814762Y-87180057D02*
X104862381Y-87132438D01*
X104862381Y-87132438D02*
X104957619Y-87084819D01*
X104957619Y-87084819D02*
X105195714Y-87084819D01*
X105195714Y-87084819D02*
X105290952Y-87132438D01*
X105290952Y-87132438D02*
X105338571Y-87180057D01*
X105338571Y-87180057D02*
X105386190Y-87275295D01*
X105386190Y-87275295D02*
X105386190Y-87370533D01*
X105386190Y-87370533D02*
X105338571Y-87513390D01*
X105338571Y-87513390D02*
X104767143Y-88084819D01*
X104767143Y-88084819D02*
X105386190Y-88084819D01*
X106005238Y-87084819D02*
X106100476Y-87084819D01*
X106100476Y-87084819D02*
X106195714Y-87132438D01*
X106195714Y-87132438D02*
X106243333Y-87180057D01*
X106243333Y-87180057D02*
X106290952Y-87275295D01*
X106290952Y-87275295D02*
X106338571Y-87465771D01*
X106338571Y-87465771D02*
X106338571Y-87703866D01*
X106338571Y-87703866D02*
X106290952Y-87894342D01*
X106290952Y-87894342D02*
X106243333Y-87989580D01*
X106243333Y-87989580D02*
X106195714Y-88037200D01*
X106195714Y-88037200D02*
X106100476Y-88084819D01*
X106100476Y-88084819D02*
X106005238Y-88084819D01*
X106005238Y-88084819D02*
X105910000Y-88037200D01*
X105910000Y-88037200D02*
X105862381Y-87989580D01*
X105862381Y-87989580D02*
X105814762Y-87894342D01*
X105814762Y-87894342D02*
X105767143Y-87703866D01*
X105767143Y-87703866D02*
X105767143Y-87465771D01*
X105767143Y-87465771D02*
X105814762Y-87275295D01*
X105814762Y-87275295D02*
X105862381Y-87180057D01*
X105862381Y-87180057D02*
X105910000Y-87132438D01*
X105910000Y-87132438D02*
X106005238Y-87084819D01*
X106957619Y-87084819D02*
X107052857Y-87084819D01*
X107052857Y-87084819D02*
X107148095Y-87132438D01*
X107148095Y-87132438D02*
X107195714Y-87180057D01*
X107195714Y-87180057D02*
X107243333Y-87275295D01*
X107243333Y-87275295D02*
X107290952Y-87465771D01*
X107290952Y-87465771D02*
X107290952Y-87703866D01*
X107290952Y-87703866D02*
X107243333Y-87894342D01*
X107243333Y-87894342D02*
X107195714Y-87989580D01*
X107195714Y-87989580D02*
X107148095Y-88037200D01*
X107148095Y-88037200D02*
X107052857Y-88084819D01*
X107052857Y-88084819D02*
X106957619Y-88084819D01*
X106957619Y-88084819D02*
X106862381Y-88037200D01*
X106862381Y-88037200D02*
X106814762Y-87989580D01*
X106814762Y-87989580D02*
X106767143Y-87894342D01*
X106767143Y-87894342D02*
X106719524Y-87703866D01*
X106719524Y-87703866D02*
X106719524Y-87465771D01*
X106719524Y-87465771D02*
X106767143Y-87275295D01*
X106767143Y-87275295D02*
X106814762Y-87180057D01*
X106814762Y-87180057D02*
X106862381Y-87132438D01*
X106862381Y-87132438D02*
X106957619Y-87084819D01*
X107910000Y-87084819D02*
X108005238Y-87084819D01*
X108005238Y-87084819D02*
X108100476Y-87132438D01*
X108100476Y-87132438D02*
X108148095Y-87180057D01*
X108148095Y-87180057D02*
X108195714Y-87275295D01*
X108195714Y-87275295D02*
X108243333Y-87465771D01*
X108243333Y-87465771D02*
X108243333Y-87703866D01*
X108243333Y-87703866D02*
X108195714Y-87894342D01*
X108195714Y-87894342D02*
X108148095Y-87989580D01*
X108148095Y-87989580D02*
X108100476Y-88037200D01*
X108100476Y-88037200D02*
X108005238Y-88084819D01*
X108005238Y-88084819D02*
X107910000Y-88084819D01*
X107910000Y-88084819D02*
X107814762Y-88037200D01*
X107814762Y-88037200D02*
X107767143Y-87989580D01*
X107767143Y-87989580D02*
X107719524Y-87894342D01*
X107719524Y-87894342D02*
X107671905Y-87703866D01*
X107671905Y-87703866D02*
X107671905Y-87465771D01*
X107671905Y-87465771D02*
X107719524Y-87275295D01*
X107719524Y-87275295D02*
X107767143Y-87180057D01*
X107767143Y-87180057D02*
X107814762Y-87132438D01*
X107814762Y-87132438D02*
X107910000Y-87084819D01*
X108529048Y-87418152D02*
X108910000Y-87418152D01*
X108671905Y-87084819D02*
X108671905Y-87941961D01*
X108671905Y-87941961D02*
X108719524Y-88037200D01*
X108719524Y-88037200D02*
X108814762Y-88084819D01*
X108814762Y-88084819D02*
X108910000Y-88084819D01*
X109243334Y-87703866D02*
X110005239Y-87703866D01*
X110481429Y-88084819D02*
X110481429Y-87418152D01*
X110481429Y-87608628D02*
X110529048Y-87513390D01*
X110529048Y-87513390D02*
X110576667Y-87465771D01*
X110576667Y-87465771D02*
X110671905Y-87418152D01*
X110671905Y-87418152D02*
X110767143Y-87418152D01*
X111529048Y-88084819D02*
X111529048Y-87561009D01*
X111529048Y-87561009D02*
X111481429Y-87465771D01*
X111481429Y-87465771D02*
X111386191Y-87418152D01*
X111386191Y-87418152D02*
X111195715Y-87418152D01*
X111195715Y-87418152D02*
X111100477Y-87465771D01*
X111529048Y-88037200D02*
X111433810Y-88084819D01*
X111433810Y-88084819D02*
X111195715Y-88084819D01*
X111195715Y-88084819D02*
X111100477Y-88037200D01*
X111100477Y-88037200D02*
X111052858Y-87941961D01*
X111052858Y-87941961D02*
X111052858Y-87846723D01*
X111052858Y-87846723D02*
X111100477Y-87751485D01*
X111100477Y-87751485D02*
X111195715Y-87703866D01*
X111195715Y-87703866D02*
X111433810Y-87703866D01*
X111433810Y-87703866D02*
X111529048Y-87656247D01*
X112005239Y-88084819D02*
X112005239Y-87418152D01*
X112005239Y-87513390D02*
X112052858Y-87465771D01*
X112052858Y-87465771D02*
X112148096Y-87418152D01*
X112148096Y-87418152D02*
X112290953Y-87418152D01*
X112290953Y-87418152D02*
X112386191Y-87465771D01*
X112386191Y-87465771D02*
X112433810Y-87561009D01*
X112433810Y-87561009D02*
X112433810Y-88084819D01*
X112433810Y-87561009D02*
X112481429Y-87465771D01*
X112481429Y-87465771D02*
X112576667Y-87418152D01*
X112576667Y-87418152D02*
X112719524Y-87418152D01*
X112719524Y-87418152D02*
X112814763Y-87465771D01*
X112814763Y-87465771D02*
X112862382Y-87561009D01*
X112862382Y-87561009D02*
X112862382Y-88084819D01*
X113338572Y-87703866D02*
X114100477Y-87703866D01*
X114957619Y-88037200D02*
X114862381Y-88084819D01*
X114862381Y-88084819D02*
X114671905Y-88084819D01*
X114671905Y-88084819D02*
X114576667Y-88037200D01*
X114576667Y-88037200D02*
X114529048Y-87941961D01*
X114529048Y-87941961D02*
X114529048Y-87561009D01*
X114529048Y-87561009D02*
X114576667Y-87465771D01*
X114576667Y-87465771D02*
X114671905Y-87418152D01*
X114671905Y-87418152D02*
X114862381Y-87418152D01*
X114862381Y-87418152D02*
X114957619Y-87465771D01*
X114957619Y-87465771D02*
X115005238Y-87561009D01*
X115005238Y-87561009D02*
X115005238Y-87656247D01*
X115005238Y-87656247D02*
X114529048Y-87751485D01*
X115338572Y-88084819D02*
X115862381Y-87418152D01*
X115338572Y-87418152D02*
X115862381Y-88084819D01*
X116243334Y-87418152D02*
X116243334Y-88418152D01*
X116243334Y-87465771D02*
X116338572Y-87418152D01*
X116338572Y-87418152D02*
X116529048Y-87418152D01*
X116529048Y-87418152D02*
X116624286Y-87465771D01*
X116624286Y-87465771D02*
X116671905Y-87513390D01*
X116671905Y-87513390D02*
X116719524Y-87608628D01*
X116719524Y-87608628D02*
X116719524Y-87894342D01*
X116719524Y-87894342D02*
X116671905Y-87989580D01*
X116671905Y-87989580D02*
X116624286Y-88037200D01*
X116624286Y-88037200D02*
X116529048Y-88084819D01*
X116529048Y-88084819D02*
X116338572Y-88084819D01*
X116338572Y-88084819D02*
X116243334Y-88037200D01*
X117576667Y-88084819D02*
X117576667Y-87561009D01*
X117576667Y-87561009D02*
X117529048Y-87465771D01*
X117529048Y-87465771D02*
X117433810Y-87418152D01*
X117433810Y-87418152D02*
X117243334Y-87418152D01*
X117243334Y-87418152D02*
X117148096Y-87465771D01*
X117576667Y-88037200D02*
X117481429Y-88084819D01*
X117481429Y-88084819D02*
X117243334Y-88084819D01*
X117243334Y-88084819D02*
X117148096Y-88037200D01*
X117148096Y-88037200D02*
X117100477Y-87941961D01*
X117100477Y-87941961D02*
X117100477Y-87846723D01*
X117100477Y-87846723D02*
X117148096Y-87751485D01*
X117148096Y-87751485D02*
X117243334Y-87703866D01*
X117243334Y-87703866D02*
X117481429Y-87703866D01*
X117481429Y-87703866D02*
X117576667Y-87656247D01*
X118052858Y-87418152D02*
X118052858Y-88084819D01*
X118052858Y-87513390D02*
X118100477Y-87465771D01*
X118100477Y-87465771D02*
X118195715Y-87418152D01*
X118195715Y-87418152D02*
X118338572Y-87418152D01*
X118338572Y-87418152D02*
X118433810Y-87465771D01*
X118433810Y-87465771D02*
X118481429Y-87561009D01*
X118481429Y-87561009D02*
X118481429Y-88084819D01*
X118910001Y-88037200D02*
X119005239Y-88084819D01*
X119005239Y-88084819D02*
X119195715Y-88084819D01*
X119195715Y-88084819D02*
X119290953Y-88037200D01*
X119290953Y-88037200D02*
X119338572Y-87941961D01*
X119338572Y-87941961D02*
X119338572Y-87894342D01*
X119338572Y-87894342D02*
X119290953Y-87799104D01*
X119290953Y-87799104D02*
X119195715Y-87751485D01*
X119195715Y-87751485D02*
X119052858Y-87751485D01*
X119052858Y-87751485D02*
X118957620Y-87703866D01*
X118957620Y-87703866D02*
X118910001Y-87608628D01*
X118910001Y-87608628D02*
X118910001Y-87561009D01*
X118910001Y-87561009D02*
X118957620Y-87465771D01*
X118957620Y-87465771D02*
X119052858Y-87418152D01*
X119052858Y-87418152D02*
X119195715Y-87418152D01*
X119195715Y-87418152D02*
X119290953Y-87465771D01*
X119767144Y-88084819D02*
X119767144Y-87418152D01*
X119767144Y-87084819D02*
X119719525Y-87132438D01*
X119719525Y-87132438D02*
X119767144Y-87180057D01*
X119767144Y-87180057D02*
X119814763Y-87132438D01*
X119814763Y-87132438D02*
X119767144Y-87084819D01*
X119767144Y-87084819D02*
X119767144Y-87180057D01*
X120386191Y-88084819D02*
X120290953Y-88037200D01*
X120290953Y-88037200D02*
X120243334Y-87989580D01*
X120243334Y-87989580D02*
X120195715Y-87894342D01*
X120195715Y-87894342D02*
X120195715Y-87608628D01*
X120195715Y-87608628D02*
X120243334Y-87513390D01*
X120243334Y-87513390D02*
X120290953Y-87465771D01*
X120290953Y-87465771D02*
X120386191Y-87418152D01*
X120386191Y-87418152D02*
X120529048Y-87418152D01*
X120529048Y-87418152D02*
X120624286Y-87465771D01*
X120624286Y-87465771D02*
X120671905Y-87513390D01*
X120671905Y-87513390D02*
X120719524Y-87608628D01*
X120719524Y-87608628D02*
X120719524Y-87894342D01*
X120719524Y-87894342D02*
X120671905Y-87989580D01*
X120671905Y-87989580D02*
X120624286Y-88037200D01*
X120624286Y-88037200D02*
X120529048Y-88084819D01*
X120529048Y-88084819D02*
X120386191Y-88084819D01*
X121148096Y-87418152D02*
X121148096Y-88084819D01*
X121148096Y-87513390D02*
X121195715Y-87465771D01*
X121195715Y-87465771D02*
X121290953Y-87418152D01*
X121290953Y-87418152D02*
X121433810Y-87418152D01*
X121433810Y-87418152D02*
X121529048Y-87465771D01*
X121529048Y-87465771D02*
X121576667Y-87561009D01*
X121576667Y-87561009D02*
X121576667Y-88084819D01*
X122052858Y-87703866D02*
X122814763Y-87703866D01*
X123290953Y-88084819D02*
X123290953Y-87084819D01*
X123290953Y-87465771D02*
X123386191Y-87418152D01*
X123386191Y-87418152D02*
X123576667Y-87418152D01*
X123576667Y-87418152D02*
X123671905Y-87465771D01*
X123671905Y-87465771D02*
X123719524Y-87513390D01*
X123719524Y-87513390D02*
X123767143Y-87608628D01*
X123767143Y-87608628D02*
X123767143Y-87894342D01*
X123767143Y-87894342D02*
X123719524Y-87989580D01*
X123719524Y-87989580D02*
X123671905Y-88037200D01*
X123671905Y-88037200D02*
X123576667Y-88084819D01*
X123576667Y-88084819D02*
X123386191Y-88084819D01*
X123386191Y-88084819D02*
X123290953Y-88037200D01*
X124338572Y-88084819D02*
X124243334Y-88037200D01*
X124243334Y-88037200D02*
X124195715Y-87989580D01*
X124195715Y-87989580D02*
X124148096Y-87894342D01*
X124148096Y-87894342D02*
X124148096Y-87608628D01*
X124148096Y-87608628D02*
X124195715Y-87513390D01*
X124195715Y-87513390D02*
X124243334Y-87465771D01*
X124243334Y-87465771D02*
X124338572Y-87418152D01*
X124338572Y-87418152D02*
X124481429Y-87418152D01*
X124481429Y-87418152D02*
X124576667Y-87465771D01*
X124576667Y-87465771D02*
X124624286Y-87513390D01*
X124624286Y-87513390D02*
X124671905Y-87608628D01*
X124671905Y-87608628D02*
X124671905Y-87894342D01*
X124671905Y-87894342D02*
X124624286Y-87989580D01*
X124624286Y-87989580D02*
X124576667Y-88037200D01*
X124576667Y-88037200D02*
X124481429Y-88084819D01*
X124481429Y-88084819D02*
X124338572Y-88084819D01*
X125529048Y-88084819D02*
X125529048Y-87561009D01*
X125529048Y-87561009D02*
X125481429Y-87465771D01*
X125481429Y-87465771D02*
X125386191Y-87418152D01*
X125386191Y-87418152D02*
X125195715Y-87418152D01*
X125195715Y-87418152D02*
X125100477Y-87465771D01*
X125529048Y-88037200D02*
X125433810Y-88084819D01*
X125433810Y-88084819D02*
X125195715Y-88084819D01*
X125195715Y-88084819D02*
X125100477Y-88037200D01*
X125100477Y-88037200D02*
X125052858Y-87941961D01*
X125052858Y-87941961D02*
X125052858Y-87846723D01*
X125052858Y-87846723D02*
X125100477Y-87751485D01*
X125100477Y-87751485D02*
X125195715Y-87703866D01*
X125195715Y-87703866D02*
X125433810Y-87703866D01*
X125433810Y-87703866D02*
X125529048Y-87656247D01*
X126005239Y-88084819D02*
X126005239Y-87418152D01*
X126005239Y-87608628D02*
X126052858Y-87513390D01*
X126052858Y-87513390D02*
X126100477Y-87465771D01*
X126100477Y-87465771D02*
X126195715Y-87418152D01*
X126195715Y-87418152D02*
X126290953Y-87418152D01*
X127052858Y-88084819D02*
X127052858Y-87084819D01*
X127052858Y-88037200D02*
X126957620Y-88084819D01*
X126957620Y-88084819D02*
X126767144Y-88084819D01*
X126767144Y-88084819D02*
X126671906Y-88037200D01*
X126671906Y-88037200D02*
X126624287Y-87989580D01*
X126624287Y-87989580D02*
X126576668Y-87894342D01*
X126576668Y-87894342D02*
X126576668Y-87608628D01*
X126576668Y-87608628D02*
X126624287Y-87513390D01*
X126624287Y-87513390D02*
X126671906Y-87465771D01*
X126671906Y-87465771D02*
X126767144Y-87418152D01*
X126767144Y-87418152D02*
X126957620Y-87418152D01*
X126957620Y-87418152D02*
X127052858Y-87465771D01*
X83905104Y-75656839D02*
X83905104Y-75180649D01*
X84190819Y-75752077D02*
X83190819Y-75418744D01*
X83190819Y-75418744D02*
X84190819Y-75085411D01*
X83190819Y-74847315D02*
X83190819Y-74228268D01*
X83190819Y-74228268D02*
X83571771Y-74561601D01*
X83571771Y-74561601D02*
X83571771Y-74418744D01*
X83571771Y-74418744D02*
X83619390Y-74323506D01*
X83619390Y-74323506D02*
X83667009Y-74275887D01*
X83667009Y-74275887D02*
X83762247Y-74228268D01*
X83762247Y-74228268D02*
X84000342Y-74228268D01*
X84000342Y-74228268D02*
X84095580Y-74275887D01*
X84095580Y-74275887D02*
X84143200Y-74323506D01*
X84143200Y-74323506D02*
X84190819Y-74418744D01*
X84190819Y-74418744D02*
X84190819Y-74704458D01*
X84190819Y-74704458D02*
X84143200Y-74799696D01*
X84143200Y-74799696D02*
X84095580Y-74847315D01*
X69204819Y-75037792D02*
X68728628Y-75371125D01*
X69204819Y-75609220D02*
X68204819Y-75609220D01*
X68204819Y-75609220D02*
X68204819Y-75228268D01*
X68204819Y-75228268D02*
X68252438Y-75133030D01*
X68252438Y-75133030D02*
X68300057Y-75085411D01*
X68300057Y-75085411D02*
X68395295Y-75037792D01*
X68395295Y-75037792D02*
X68538152Y-75037792D01*
X68538152Y-75037792D02*
X68633390Y-75085411D01*
X68633390Y-75085411D02*
X68681009Y-75133030D01*
X68681009Y-75133030D02*
X68728628Y-75228268D01*
X68728628Y-75228268D02*
X68728628Y-75609220D01*
X68919104Y-74656839D02*
X68919104Y-74180649D01*
X69204819Y-74752077D02*
X68204819Y-74418744D01*
X68204819Y-74418744D02*
X69204819Y-74085411D01*
X69204819Y-73752077D02*
X68204819Y-73752077D01*
X68204819Y-73752077D02*
X68919104Y-73418744D01*
X68919104Y-73418744D02*
X68204819Y-73085411D01*
X68204819Y-73085411D02*
X69204819Y-73085411D01*
X69157200Y-72656839D02*
X69204819Y-72513982D01*
X69204819Y-72513982D02*
X69204819Y-72275887D01*
X69204819Y-72275887D02*
X69157200Y-72180649D01*
X69157200Y-72180649D02*
X69109580Y-72133030D01*
X69109580Y-72133030D02*
X69014342Y-72085411D01*
X69014342Y-72085411D02*
X68919104Y-72085411D01*
X68919104Y-72085411D02*
X68823866Y-72133030D01*
X68823866Y-72133030D02*
X68776247Y-72180649D01*
X68776247Y-72180649D02*
X68728628Y-72275887D01*
X68728628Y-72275887D02*
X68681009Y-72466363D01*
X68681009Y-72466363D02*
X68633390Y-72561601D01*
X68633390Y-72561601D02*
X68585771Y-72609220D01*
X68585771Y-72609220D02*
X68490533Y-72656839D01*
X68490533Y-72656839D02*
X68395295Y-72656839D01*
X68395295Y-72656839D02*
X68300057Y-72609220D01*
X68300057Y-72609220D02*
X68252438Y-72561601D01*
X68252438Y-72561601D02*
X68204819Y-72466363D01*
X68204819Y-72466363D02*
X68204819Y-72228268D01*
X68204819Y-72228268D02*
X68252438Y-72085411D01*
X68300057Y-71704458D02*
X68252438Y-71656839D01*
X68252438Y-71656839D02*
X68204819Y-71561601D01*
X68204819Y-71561601D02*
X68204819Y-71323506D01*
X68204819Y-71323506D02*
X68252438Y-71228268D01*
X68252438Y-71228268D02*
X68300057Y-71180649D01*
X68300057Y-71180649D02*
X68395295Y-71133030D01*
X68395295Y-71133030D02*
X68490533Y-71133030D01*
X68490533Y-71133030D02*
X68633390Y-71180649D01*
X68633390Y-71180649D02*
X69204819Y-71752077D01*
X69204819Y-71752077D02*
X69204819Y-71133030D01*
X92064819Y-84616969D02*
X91064819Y-84616969D01*
X91064819Y-84616969D02*
X91064819Y-84378874D01*
X91064819Y-84378874D02*
X91112438Y-84236017D01*
X91112438Y-84236017D02*
X91207676Y-84140779D01*
X91207676Y-84140779D02*
X91302914Y-84093160D01*
X91302914Y-84093160D02*
X91493390Y-84045541D01*
X91493390Y-84045541D02*
X91636247Y-84045541D01*
X91636247Y-84045541D02*
X91826723Y-84093160D01*
X91826723Y-84093160D02*
X91921961Y-84140779D01*
X91921961Y-84140779D02*
X92017200Y-84236017D01*
X92017200Y-84236017D02*
X92064819Y-84378874D01*
X92064819Y-84378874D02*
X92064819Y-84616969D01*
X91398152Y-83188398D02*
X92064819Y-83188398D01*
X91017200Y-83426493D02*
X91731485Y-83664588D01*
X91731485Y-83664588D02*
X91731485Y-83045541D01*
X76539104Y-84521731D02*
X76539104Y-84045541D01*
X76824819Y-84616969D02*
X75824819Y-84283636D01*
X75824819Y-84283636D02*
X76824819Y-83950303D01*
X76253390Y-83474112D02*
X76205771Y-83569350D01*
X76205771Y-83569350D02*
X76158152Y-83616969D01*
X76158152Y-83616969D02*
X76062914Y-83664588D01*
X76062914Y-83664588D02*
X76015295Y-83664588D01*
X76015295Y-83664588D02*
X75920057Y-83616969D01*
X75920057Y-83616969D02*
X75872438Y-83569350D01*
X75872438Y-83569350D02*
X75824819Y-83474112D01*
X75824819Y-83474112D02*
X75824819Y-83283636D01*
X75824819Y-83283636D02*
X75872438Y-83188398D01*
X75872438Y-83188398D02*
X75920057Y-83140779D01*
X75920057Y-83140779D02*
X76015295Y-83093160D01*
X76015295Y-83093160D02*
X76062914Y-83093160D01*
X76062914Y-83093160D02*
X76158152Y-83140779D01*
X76158152Y-83140779D02*
X76205771Y-83188398D01*
X76205771Y-83188398D02*
X76253390Y-83283636D01*
X76253390Y-83283636D02*
X76253390Y-83474112D01*
X76253390Y-83474112D02*
X76301009Y-83569350D01*
X76301009Y-83569350D02*
X76348628Y-83616969D01*
X76348628Y-83616969D02*
X76443866Y-83664588D01*
X76443866Y-83664588D02*
X76634342Y-83664588D01*
X76634342Y-83664588D02*
X76729580Y-83616969D01*
X76729580Y-83616969D02*
X76777200Y-83569350D01*
X76777200Y-83569350D02*
X76824819Y-83474112D01*
X76824819Y-83474112D02*
X76824819Y-83283636D01*
X76824819Y-83283636D02*
X76777200Y-83188398D01*
X76777200Y-83188398D02*
X76729580Y-83140779D01*
X76729580Y-83140779D02*
X76634342Y-83093160D01*
X76634342Y-83093160D02*
X76443866Y-83093160D01*
X76443866Y-83093160D02*
X76348628Y-83140779D01*
X76348628Y-83140779D02*
X76301009Y-83188398D01*
X76301009Y-83188398D02*
X76253390Y-83283636D01*
X66410819Y-85855064D02*
X65410819Y-85855064D01*
X65410819Y-85855064D02*
X66125104Y-85521731D01*
X66125104Y-85521731D02*
X65410819Y-85188398D01*
X65410819Y-85188398D02*
X66410819Y-85188398D01*
X66410819Y-84140779D02*
X65934628Y-84474112D01*
X66410819Y-84712207D02*
X65410819Y-84712207D01*
X65410819Y-84712207D02*
X65410819Y-84331255D01*
X65410819Y-84331255D02*
X65458438Y-84236017D01*
X65458438Y-84236017D02*
X65506057Y-84188398D01*
X65506057Y-84188398D02*
X65601295Y-84140779D01*
X65601295Y-84140779D02*
X65744152Y-84140779D01*
X65744152Y-84140779D02*
X65839390Y-84188398D01*
X65839390Y-84188398D02*
X65887009Y-84236017D01*
X65887009Y-84236017D02*
X65934628Y-84331255D01*
X65934628Y-84331255D02*
X65934628Y-84712207D01*
X66506057Y-83045541D02*
X66458438Y-83140779D01*
X66458438Y-83140779D02*
X66363200Y-83236017D01*
X66363200Y-83236017D02*
X66220342Y-83378874D01*
X66220342Y-83378874D02*
X66172723Y-83474112D01*
X66172723Y-83474112D02*
X66172723Y-83569350D01*
X66410819Y-83521731D02*
X66363200Y-83616969D01*
X66363200Y-83616969D02*
X66267961Y-83712207D01*
X66267961Y-83712207D02*
X66077485Y-83759826D01*
X66077485Y-83759826D02*
X65744152Y-83759826D01*
X65744152Y-83759826D02*
X65553676Y-83712207D01*
X65553676Y-83712207D02*
X65458438Y-83616969D01*
X65458438Y-83616969D02*
X65410819Y-83521731D01*
X65410819Y-83521731D02*
X65410819Y-83331255D01*
X65410819Y-83331255D02*
X65458438Y-83236017D01*
X65458438Y-83236017D02*
X65553676Y-83140779D01*
X65553676Y-83140779D02*
X65744152Y-83093160D01*
X65744152Y-83093160D02*
X66077485Y-83093160D01*
X66077485Y-83093160D02*
X66267961Y-83140779D01*
X66267961Y-83140779D02*
X66363200Y-83236017D01*
X66363200Y-83236017D02*
X66410819Y-83331255D01*
X66410819Y-83331255D02*
X66410819Y-83521731D01*
X65133200Y-85993160D02*
X65133200Y-83002684D01*
X78825104Y-75656839D02*
X78825104Y-75180649D01*
X79110819Y-75752077D02*
X78110819Y-75418744D01*
X78110819Y-75418744D02*
X79110819Y-75085411D01*
X78110819Y-74847315D02*
X78110819Y-74180649D01*
X78110819Y-74180649D02*
X79110819Y-74609220D01*
X89270819Y-75609220D02*
X88270819Y-75609220D01*
X88270819Y-75609220D02*
X88270819Y-75371125D01*
X88270819Y-75371125D02*
X88318438Y-75228268D01*
X88318438Y-75228268D02*
X88413676Y-75133030D01*
X88413676Y-75133030D02*
X88508914Y-75085411D01*
X88508914Y-75085411D02*
X88699390Y-75037792D01*
X88699390Y-75037792D02*
X88842247Y-75037792D01*
X88842247Y-75037792D02*
X89032723Y-75085411D01*
X89032723Y-75085411D02*
X89127961Y-75133030D01*
X89127961Y-75133030D02*
X89223200Y-75228268D01*
X89223200Y-75228268D02*
X89270819Y-75371125D01*
X89270819Y-75371125D02*
X89270819Y-75609220D01*
X88270819Y-74704458D02*
X88270819Y-74037792D01*
X88270819Y-74037792D02*
X89270819Y-74466363D01*
X91810819Y-75609220D02*
X90810819Y-75609220D01*
X90810819Y-75609220D02*
X90810819Y-75371125D01*
X90810819Y-75371125D02*
X90858438Y-75228268D01*
X90858438Y-75228268D02*
X90953676Y-75133030D01*
X90953676Y-75133030D02*
X91048914Y-75085411D01*
X91048914Y-75085411D02*
X91239390Y-75037792D01*
X91239390Y-75037792D02*
X91382247Y-75037792D01*
X91382247Y-75037792D02*
X91572723Y-75085411D01*
X91572723Y-75085411D02*
X91667961Y-75133030D01*
X91667961Y-75133030D02*
X91763200Y-75228268D01*
X91763200Y-75228268D02*
X91810819Y-75371125D01*
X91810819Y-75371125D02*
X91810819Y-75609220D01*
X90810819Y-74133030D02*
X90810819Y-74609220D01*
X90810819Y-74609220D02*
X91287009Y-74656839D01*
X91287009Y-74656839D02*
X91239390Y-74609220D01*
X91239390Y-74609220D02*
X91191771Y-74513982D01*
X91191771Y-74513982D02*
X91191771Y-74275887D01*
X91191771Y-74275887D02*
X91239390Y-74180649D01*
X91239390Y-74180649D02*
X91287009Y-74133030D01*
X91287009Y-74133030D02*
X91382247Y-74085411D01*
X91382247Y-74085411D02*
X91620342Y-74085411D01*
X91620342Y-74085411D02*
X91715580Y-74133030D01*
X91715580Y-74133030D02*
X91763200Y-74180649D01*
X91763200Y-74180649D02*
X91810819Y-74275887D01*
X91810819Y-74275887D02*
X91810819Y-74513982D01*
X91810819Y-74513982D02*
X91763200Y-74609220D01*
X91763200Y-74609220D02*
X91715580Y-74656839D01*
X59044819Y-75037792D02*
X58568628Y-75371125D01*
X59044819Y-75609220D02*
X58044819Y-75609220D01*
X58044819Y-75609220D02*
X58044819Y-75228268D01*
X58044819Y-75228268D02*
X58092438Y-75133030D01*
X58092438Y-75133030D02*
X58140057Y-75085411D01*
X58140057Y-75085411D02*
X58235295Y-75037792D01*
X58235295Y-75037792D02*
X58378152Y-75037792D01*
X58378152Y-75037792D02*
X58473390Y-75085411D01*
X58473390Y-75085411D02*
X58521009Y-75133030D01*
X58521009Y-75133030D02*
X58568628Y-75228268D01*
X58568628Y-75228268D02*
X58568628Y-75609220D01*
X58521009Y-74609220D02*
X58521009Y-74275887D01*
X59044819Y-74133030D02*
X59044819Y-74609220D01*
X59044819Y-74609220D02*
X58044819Y-74609220D01*
X58044819Y-74609220D02*
X58044819Y-74133030D01*
X58997200Y-73752077D02*
X59044819Y-73609220D01*
X59044819Y-73609220D02*
X59044819Y-73371125D01*
X59044819Y-73371125D02*
X58997200Y-73275887D01*
X58997200Y-73275887D02*
X58949580Y-73228268D01*
X58949580Y-73228268D02*
X58854342Y-73180649D01*
X58854342Y-73180649D02*
X58759104Y-73180649D01*
X58759104Y-73180649D02*
X58663866Y-73228268D01*
X58663866Y-73228268D02*
X58616247Y-73275887D01*
X58616247Y-73275887D02*
X58568628Y-73371125D01*
X58568628Y-73371125D02*
X58521009Y-73561601D01*
X58521009Y-73561601D02*
X58473390Y-73656839D01*
X58473390Y-73656839D02*
X58425771Y-73704458D01*
X58425771Y-73704458D02*
X58330533Y-73752077D01*
X58330533Y-73752077D02*
X58235295Y-73752077D01*
X58235295Y-73752077D02*
X58140057Y-73704458D01*
X58140057Y-73704458D02*
X58092438Y-73656839D01*
X58092438Y-73656839D02*
X58044819Y-73561601D01*
X58044819Y-73561601D02*
X58044819Y-73323506D01*
X58044819Y-73323506D02*
X58092438Y-73180649D01*
X57767200Y-75747316D02*
X57767200Y-73090173D01*
X94350819Y-75609220D02*
X93350819Y-75609220D01*
X93350819Y-75609220D02*
X93350819Y-75371125D01*
X93350819Y-75371125D02*
X93398438Y-75228268D01*
X93398438Y-75228268D02*
X93493676Y-75133030D01*
X93493676Y-75133030D02*
X93588914Y-75085411D01*
X93588914Y-75085411D02*
X93779390Y-75037792D01*
X93779390Y-75037792D02*
X93922247Y-75037792D01*
X93922247Y-75037792D02*
X94112723Y-75085411D01*
X94112723Y-75085411D02*
X94207961Y-75133030D01*
X94207961Y-75133030D02*
X94303200Y-75228268D01*
X94303200Y-75228268D02*
X94350819Y-75371125D01*
X94350819Y-75371125D02*
X94350819Y-75609220D01*
X93350819Y-74704458D02*
X93350819Y-74085411D01*
X93350819Y-74085411D02*
X93731771Y-74418744D01*
X93731771Y-74418744D02*
X93731771Y-74275887D01*
X93731771Y-74275887D02*
X93779390Y-74180649D01*
X93779390Y-74180649D02*
X93827009Y-74133030D01*
X93827009Y-74133030D02*
X93922247Y-74085411D01*
X93922247Y-74085411D02*
X94160342Y-74085411D01*
X94160342Y-74085411D02*
X94255580Y-74133030D01*
X94255580Y-74133030D02*
X94303200Y-74180649D01*
X94303200Y-74180649D02*
X94350819Y-74275887D01*
X94350819Y-74275887D02*
X94350819Y-74561601D01*
X94350819Y-74561601D02*
X94303200Y-74656839D01*
X94303200Y-74656839D02*
X94255580Y-74704458D01*
X73745104Y-85474112D02*
X73745104Y-84997922D01*
X74030819Y-85569350D02*
X73030819Y-85236017D01*
X73030819Y-85236017D02*
X74030819Y-84902684D01*
X74030819Y-84045541D02*
X74030819Y-84616969D01*
X74030819Y-84331255D02*
X73030819Y-84331255D01*
X73030819Y-84331255D02*
X73173676Y-84426493D01*
X73173676Y-84426493D02*
X73268914Y-84521731D01*
X73268914Y-84521731D02*
X73316533Y-84616969D01*
X73030819Y-83426493D02*
X73030819Y-83331255D01*
X73030819Y-83331255D02*
X73078438Y-83236017D01*
X73078438Y-83236017D02*
X73126057Y-83188398D01*
X73126057Y-83188398D02*
X73221295Y-83140779D01*
X73221295Y-83140779D02*
X73411771Y-83093160D01*
X73411771Y-83093160D02*
X73649866Y-83093160D01*
X73649866Y-83093160D02*
X73840342Y-83140779D01*
X73840342Y-83140779D02*
X73935580Y-83188398D01*
X73935580Y-83188398D02*
X73983200Y-83236017D01*
X73983200Y-83236017D02*
X74030819Y-83331255D01*
X74030819Y-83331255D02*
X74030819Y-83426493D01*
X74030819Y-83426493D02*
X73983200Y-83521731D01*
X73983200Y-83521731D02*
X73935580Y-83569350D01*
X73935580Y-83569350D02*
X73840342Y-83616969D01*
X73840342Y-83616969D02*
X73649866Y-83664588D01*
X73649866Y-83664588D02*
X73411771Y-83664588D01*
X73411771Y-83664588D02*
X73221295Y-83616969D01*
X73221295Y-83616969D02*
X73126057Y-83569350D01*
X73126057Y-83569350D02*
X73078438Y-83521731D01*
X73078438Y-83521731D02*
X73030819Y-83426493D01*
X97144819Y-84616969D02*
X96144819Y-84616969D01*
X96144819Y-84616969D02*
X96144819Y-84378874D01*
X96144819Y-84378874D02*
X96192438Y-84236017D01*
X96192438Y-84236017D02*
X96287676Y-84140779D01*
X96287676Y-84140779D02*
X96382914Y-84093160D01*
X96382914Y-84093160D02*
X96573390Y-84045541D01*
X96573390Y-84045541D02*
X96716247Y-84045541D01*
X96716247Y-84045541D02*
X96906723Y-84093160D01*
X96906723Y-84093160D02*
X97001961Y-84140779D01*
X97001961Y-84140779D02*
X97097200Y-84236017D01*
X97097200Y-84236017D02*
X97144819Y-84378874D01*
X97144819Y-84378874D02*
X97144819Y-84616969D01*
X96144819Y-83426493D02*
X96144819Y-83331255D01*
X96144819Y-83331255D02*
X96192438Y-83236017D01*
X96192438Y-83236017D02*
X96240057Y-83188398D01*
X96240057Y-83188398D02*
X96335295Y-83140779D01*
X96335295Y-83140779D02*
X96525771Y-83093160D01*
X96525771Y-83093160D02*
X96763866Y-83093160D01*
X96763866Y-83093160D02*
X96954342Y-83140779D01*
X96954342Y-83140779D02*
X97049580Y-83188398D01*
X97049580Y-83188398D02*
X97097200Y-83236017D01*
X97097200Y-83236017D02*
X97144819Y-83331255D01*
X97144819Y-83331255D02*
X97144819Y-83426493D01*
X97144819Y-83426493D02*
X97097200Y-83521731D01*
X97097200Y-83521731D02*
X97049580Y-83569350D01*
X97049580Y-83569350D02*
X96954342Y-83616969D01*
X96954342Y-83616969D02*
X96763866Y-83664588D01*
X96763866Y-83664588D02*
X96525771Y-83664588D01*
X96525771Y-83664588D02*
X96335295Y-83616969D01*
X96335295Y-83616969D02*
X96240057Y-83569350D01*
X96240057Y-83569350D02*
X96192438Y-83521731D01*
X96192438Y-83521731D02*
X96144819Y-83426493D01*
X84159104Y-84521731D02*
X84159104Y-84045541D01*
X84444819Y-84616969D02*
X83444819Y-84283636D01*
X83444819Y-84283636D02*
X84444819Y-83950303D01*
X83540057Y-83664588D02*
X83492438Y-83616969D01*
X83492438Y-83616969D02*
X83444819Y-83521731D01*
X83444819Y-83521731D02*
X83444819Y-83283636D01*
X83444819Y-83283636D02*
X83492438Y-83188398D01*
X83492438Y-83188398D02*
X83540057Y-83140779D01*
X83540057Y-83140779D02*
X83635295Y-83093160D01*
X83635295Y-83093160D02*
X83730533Y-83093160D01*
X83730533Y-83093160D02*
X83873390Y-83140779D01*
X83873390Y-83140779D02*
X84444819Y-83712207D01*
X84444819Y-83712207D02*
X84444819Y-83093160D01*
X98432438Y-84934398D02*
X98384819Y-85029636D01*
X98384819Y-85029636D02*
X98384819Y-85172493D01*
X98384819Y-85172493D02*
X98432438Y-85315350D01*
X98432438Y-85315350D02*
X98527676Y-85410588D01*
X98527676Y-85410588D02*
X98622914Y-85458207D01*
X98622914Y-85458207D02*
X98813390Y-85505826D01*
X98813390Y-85505826D02*
X98956247Y-85505826D01*
X98956247Y-85505826D02*
X99146723Y-85458207D01*
X99146723Y-85458207D02*
X99241961Y-85410588D01*
X99241961Y-85410588D02*
X99337200Y-85315350D01*
X99337200Y-85315350D02*
X99384819Y-85172493D01*
X99384819Y-85172493D02*
X99384819Y-85077255D01*
X99384819Y-85077255D02*
X99337200Y-84934398D01*
X99337200Y-84934398D02*
X99289580Y-84886779D01*
X99289580Y-84886779D02*
X98956247Y-84886779D01*
X98956247Y-84886779D02*
X98956247Y-85077255D01*
X99384819Y-84458207D02*
X98384819Y-84458207D01*
X98384819Y-84458207D02*
X99384819Y-83886779D01*
X99384819Y-83886779D02*
X98384819Y-83886779D01*
X99384819Y-83410588D02*
X98384819Y-83410588D01*
X98384819Y-83410588D02*
X98384819Y-83172493D01*
X98384819Y-83172493D02*
X98432438Y-83029636D01*
X98432438Y-83029636D02*
X98527676Y-82934398D01*
X98527676Y-82934398D02*
X98622914Y-82886779D01*
X98622914Y-82886779D02*
X98813390Y-82839160D01*
X98813390Y-82839160D02*
X98956247Y-82839160D01*
X98956247Y-82839160D02*
X99146723Y-82886779D01*
X99146723Y-82886779D02*
X99241961Y-82934398D01*
X99241961Y-82934398D02*
X99337200Y-83029636D01*
X99337200Y-83029636D02*
X99384819Y-83172493D01*
X99384819Y-83172493D02*
X99384819Y-83410588D01*
X68665104Y-85474112D02*
X68665104Y-84997922D01*
X68950819Y-85569350D02*
X67950819Y-85236017D01*
X67950819Y-85236017D02*
X68950819Y-84902684D01*
X68950819Y-84045541D02*
X68950819Y-84616969D01*
X68950819Y-84331255D02*
X67950819Y-84331255D01*
X67950819Y-84331255D02*
X68093676Y-84426493D01*
X68093676Y-84426493D02*
X68188914Y-84521731D01*
X68188914Y-84521731D02*
X68236533Y-84616969D01*
X68284152Y-83188398D02*
X68950819Y-83188398D01*
X67903200Y-83426493D02*
X68617485Y-83664588D01*
X68617485Y-83664588D02*
X68617485Y-83045541D01*
X86445104Y-75656839D02*
X86445104Y-75180649D01*
X86730819Y-75752077D02*
X85730819Y-75418744D01*
X85730819Y-75418744D02*
X86730819Y-75085411D01*
X86730819Y-74228268D02*
X86730819Y-74799696D01*
X86730819Y-74513982D02*
X85730819Y-74513982D01*
X85730819Y-74513982D02*
X85873676Y-74609220D01*
X85873676Y-74609220D02*
X85968914Y-74704458D01*
X85968914Y-74704458D02*
X86016533Y-74799696D01*
X81365104Y-75656839D02*
X81365104Y-75180649D01*
X81650819Y-75752077D02*
X80650819Y-75418744D01*
X80650819Y-75418744D02*
X81650819Y-75085411D01*
X80650819Y-74275887D02*
X80650819Y-74752077D01*
X80650819Y-74752077D02*
X81127009Y-74799696D01*
X81127009Y-74799696D02*
X81079390Y-74752077D01*
X81079390Y-74752077D02*
X81031771Y-74656839D01*
X81031771Y-74656839D02*
X81031771Y-74418744D01*
X81031771Y-74418744D02*
X81079390Y-74323506D01*
X81079390Y-74323506D02*
X81127009Y-74275887D01*
X81127009Y-74275887D02*
X81222247Y-74228268D01*
X81222247Y-74228268D02*
X81460342Y-74228268D01*
X81460342Y-74228268D02*
X81555580Y-74275887D01*
X81555580Y-74275887D02*
X81603200Y-74323506D01*
X81603200Y-74323506D02*
X81650819Y-74418744D01*
X81650819Y-74418744D02*
X81650819Y-74656839D01*
X81650819Y-74656839D02*
X81603200Y-74752077D01*
X81603200Y-74752077D02*
X81555580Y-74799696D01*
X76285104Y-75656839D02*
X76285104Y-75180649D01*
X76570819Y-75752077D02*
X75570819Y-75418744D01*
X75570819Y-75418744D02*
X76570819Y-75085411D01*
X76570819Y-74704458D02*
X76570819Y-74513982D01*
X76570819Y-74513982D02*
X76523200Y-74418744D01*
X76523200Y-74418744D02*
X76475580Y-74371125D01*
X76475580Y-74371125D02*
X76332723Y-74275887D01*
X76332723Y-74275887D02*
X76142247Y-74228268D01*
X76142247Y-74228268D02*
X75761295Y-74228268D01*
X75761295Y-74228268D02*
X75666057Y-74275887D01*
X75666057Y-74275887D02*
X75618438Y-74323506D01*
X75618438Y-74323506D02*
X75570819Y-74418744D01*
X75570819Y-74418744D02*
X75570819Y-74609220D01*
X75570819Y-74609220D02*
X75618438Y-74704458D01*
X75618438Y-74704458D02*
X75666057Y-74752077D01*
X75666057Y-74752077D02*
X75761295Y-74799696D01*
X75761295Y-74799696D02*
X75999390Y-74799696D01*
X75999390Y-74799696D02*
X76094628Y-74752077D01*
X76094628Y-74752077D02*
X76142247Y-74704458D01*
X76142247Y-74704458D02*
X76189866Y-74609220D01*
X76189866Y-74609220D02*
X76189866Y-74418744D01*
X76189866Y-74418744D02*
X76142247Y-74323506D01*
X76142247Y-74323506D02*
X76094628Y-74275887D01*
X76094628Y-74275887D02*
X75999390Y-74228268D01*
X94604819Y-84616969D02*
X93604819Y-84616969D01*
X93604819Y-84616969D02*
X93604819Y-84378874D01*
X93604819Y-84378874D02*
X93652438Y-84236017D01*
X93652438Y-84236017D02*
X93747676Y-84140779D01*
X93747676Y-84140779D02*
X93842914Y-84093160D01*
X93842914Y-84093160D02*
X94033390Y-84045541D01*
X94033390Y-84045541D02*
X94176247Y-84045541D01*
X94176247Y-84045541D02*
X94366723Y-84093160D01*
X94366723Y-84093160D02*
X94461961Y-84140779D01*
X94461961Y-84140779D02*
X94557200Y-84236017D01*
X94557200Y-84236017D02*
X94604819Y-84378874D01*
X94604819Y-84378874D02*
X94604819Y-84616969D01*
X93700057Y-83664588D02*
X93652438Y-83616969D01*
X93652438Y-83616969D02*
X93604819Y-83521731D01*
X93604819Y-83521731D02*
X93604819Y-83283636D01*
X93604819Y-83283636D02*
X93652438Y-83188398D01*
X93652438Y-83188398D02*
X93700057Y-83140779D01*
X93700057Y-83140779D02*
X93795295Y-83093160D01*
X93795295Y-83093160D02*
X93890533Y-83093160D01*
X93890533Y-83093160D02*
X94033390Y-83140779D01*
X94033390Y-83140779D02*
X94604819Y-83712207D01*
X94604819Y-83712207D02*
X94604819Y-83093160D01*
X69762857Y-54556819D02*
X69762857Y-53890152D01*
X69762857Y-54080628D02*
X69810476Y-53985390D01*
X69810476Y-53985390D02*
X69858095Y-53937771D01*
X69858095Y-53937771D02*
X69953333Y-53890152D01*
X69953333Y-53890152D02*
X70048571Y-53890152D01*
X70762857Y-54509200D02*
X70667619Y-54556819D01*
X70667619Y-54556819D02*
X70477143Y-54556819D01*
X70477143Y-54556819D02*
X70381905Y-54509200D01*
X70381905Y-54509200D02*
X70334286Y-54413961D01*
X70334286Y-54413961D02*
X70334286Y-54033009D01*
X70334286Y-54033009D02*
X70381905Y-53937771D01*
X70381905Y-53937771D02*
X70477143Y-53890152D01*
X70477143Y-53890152D02*
X70667619Y-53890152D01*
X70667619Y-53890152D02*
X70762857Y-53937771D01*
X70762857Y-53937771D02*
X70810476Y-54033009D01*
X70810476Y-54033009D02*
X70810476Y-54128247D01*
X70810476Y-54128247D02*
X70334286Y-54223485D01*
X71143810Y-53890152D02*
X71381905Y-54556819D01*
X71381905Y-54556819D02*
X71620000Y-53890152D01*
X71905715Y-53556819D02*
X72524762Y-53556819D01*
X72524762Y-53556819D02*
X72191429Y-53937771D01*
X72191429Y-53937771D02*
X72334286Y-53937771D01*
X72334286Y-53937771D02*
X72429524Y-53985390D01*
X72429524Y-53985390D02*
X72477143Y-54033009D01*
X72477143Y-54033009D02*
X72524762Y-54128247D01*
X72524762Y-54128247D02*
X72524762Y-54366342D01*
X72524762Y-54366342D02*
X72477143Y-54461580D01*
X72477143Y-54461580D02*
X72429524Y-54509200D01*
X72429524Y-54509200D02*
X72334286Y-54556819D01*
X72334286Y-54556819D02*
X72048572Y-54556819D01*
X72048572Y-54556819D02*
X71953334Y-54509200D01*
X71953334Y-54509200D02*
X71905715Y-54461580D01*
X22561779Y-54556819D02*
X22561779Y-53556819D01*
X22561779Y-53556819D02*
X22942731Y-53556819D01*
X22942731Y-53556819D02*
X23037969Y-53604438D01*
X23037969Y-53604438D02*
X23085588Y-53652057D01*
X23085588Y-53652057D02*
X23133207Y-53747295D01*
X23133207Y-53747295D02*
X23133207Y-53890152D01*
X23133207Y-53890152D02*
X23085588Y-53985390D01*
X23085588Y-53985390D02*
X23037969Y-54033009D01*
X23037969Y-54033009D02*
X22942731Y-54080628D01*
X22942731Y-54080628D02*
X22561779Y-54080628D01*
X23514160Y-53652057D02*
X23561779Y-53604438D01*
X23561779Y-53604438D02*
X23657017Y-53556819D01*
X23657017Y-53556819D02*
X23895112Y-53556819D01*
X23895112Y-53556819D02*
X23990350Y-53604438D01*
X23990350Y-53604438D02*
X24037969Y-53652057D01*
X24037969Y-53652057D02*
X24085588Y-53747295D01*
X24085588Y-53747295D02*
X24085588Y-53842533D01*
X24085588Y-53842533D02*
X24037969Y-53985390D01*
X24037969Y-53985390D02*
X23466541Y-54556819D01*
X23466541Y-54556819D02*
X24085588Y-54556819D01*
X24704636Y-53556819D02*
X24799874Y-53556819D01*
X24799874Y-53556819D02*
X24895112Y-53604438D01*
X24895112Y-53604438D02*
X24942731Y-53652057D01*
X24942731Y-53652057D02*
X24990350Y-53747295D01*
X24990350Y-53747295D02*
X25037969Y-53937771D01*
X25037969Y-53937771D02*
X25037969Y-54175866D01*
X25037969Y-54175866D02*
X24990350Y-54366342D01*
X24990350Y-54366342D02*
X24942731Y-54461580D01*
X24942731Y-54461580D02*
X24895112Y-54509200D01*
X24895112Y-54509200D02*
X24799874Y-54556819D01*
X24799874Y-54556819D02*
X24704636Y-54556819D01*
X24704636Y-54556819D02*
X24609398Y-54509200D01*
X24609398Y-54509200D02*
X24561779Y-54461580D01*
X24561779Y-54461580D02*
X24514160Y-54366342D01*
X24514160Y-54366342D02*
X24466541Y-54175866D01*
X24466541Y-54175866D02*
X24466541Y-53937771D01*
X24466541Y-53937771D02*
X24514160Y-53747295D01*
X24514160Y-53747295D02*
X24561779Y-53652057D01*
X24561779Y-53652057D02*
X24609398Y-53604438D01*
X24609398Y-53604438D02*
X24704636Y-53556819D01*
X25657017Y-53556819D02*
X25752255Y-53556819D01*
X25752255Y-53556819D02*
X25847493Y-53604438D01*
X25847493Y-53604438D02*
X25895112Y-53652057D01*
X25895112Y-53652057D02*
X25942731Y-53747295D01*
X25942731Y-53747295D02*
X25990350Y-53937771D01*
X25990350Y-53937771D02*
X25990350Y-54175866D01*
X25990350Y-54175866D02*
X25942731Y-54366342D01*
X25942731Y-54366342D02*
X25895112Y-54461580D01*
X25895112Y-54461580D02*
X25847493Y-54509200D01*
X25847493Y-54509200D02*
X25752255Y-54556819D01*
X25752255Y-54556819D02*
X25657017Y-54556819D01*
X25657017Y-54556819D02*
X25561779Y-54509200D01*
X25561779Y-54509200D02*
X25514160Y-54461580D01*
X25514160Y-54461580D02*
X25466541Y-54366342D01*
X25466541Y-54366342D02*
X25418922Y-54175866D01*
X25418922Y-54175866D02*
X25418922Y-53937771D01*
X25418922Y-53937771D02*
X25466541Y-53747295D01*
X25466541Y-53747295D02*
X25514160Y-53652057D01*
X25514160Y-53652057D02*
X25561779Y-53604438D01*
X25561779Y-53604438D02*
X25657017Y-53556819D01*
X26609398Y-53556819D02*
X26704636Y-53556819D01*
X26704636Y-53556819D02*
X26799874Y-53604438D01*
X26799874Y-53604438D02*
X26847493Y-53652057D01*
X26847493Y-53652057D02*
X26895112Y-53747295D01*
X26895112Y-53747295D02*
X26942731Y-53937771D01*
X26942731Y-53937771D02*
X26942731Y-54175866D01*
X26942731Y-54175866D02*
X26895112Y-54366342D01*
X26895112Y-54366342D02*
X26847493Y-54461580D01*
X26847493Y-54461580D02*
X26799874Y-54509200D01*
X26799874Y-54509200D02*
X26704636Y-54556819D01*
X26704636Y-54556819D02*
X26609398Y-54556819D01*
X26609398Y-54556819D02*
X26514160Y-54509200D01*
X26514160Y-54509200D02*
X26466541Y-54461580D01*
X26466541Y-54461580D02*
X26418922Y-54366342D01*
X26418922Y-54366342D02*
X26371303Y-54175866D01*
X26371303Y-54175866D02*
X26371303Y-53937771D01*
X26371303Y-53937771D02*
X26418922Y-53747295D01*
X26418922Y-53747295D02*
X26466541Y-53652057D01*
X26466541Y-53652057D02*
X26514160Y-53604438D01*
X26514160Y-53604438D02*
X26609398Y-53556819D01*
X27228446Y-53556819D02*
X27799874Y-53556819D01*
X27514160Y-54556819D02*
X27514160Y-53556819D01*
X29466541Y-54556819D02*
X29133208Y-54080628D01*
X28895113Y-54556819D02*
X28895113Y-53556819D01*
X28895113Y-53556819D02*
X29276065Y-53556819D01*
X29276065Y-53556819D02*
X29371303Y-53604438D01*
X29371303Y-53604438D02*
X29418922Y-53652057D01*
X29418922Y-53652057D02*
X29466541Y-53747295D01*
X29466541Y-53747295D02*
X29466541Y-53890152D01*
X29466541Y-53890152D02*
X29418922Y-53985390D01*
X29418922Y-53985390D02*
X29371303Y-54033009D01*
X29371303Y-54033009D02*
X29276065Y-54080628D01*
X29276065Y-54080628D02*
X28895113Y-54080628D01*
X29847494Y-54271104D02*
X30323684Y-54271104D01*
X29752256Y-54556819D02*
X30085589Y-53556819D01*
X30085589Y-53556819D02*
X30418922Y-54556819D01*
X30752256Y-54556819D02*
X30752256Y-53556819D01*
X30752256Y-53556819D02*
X31085589Y-54271104D01*
X31085589Y-54271104D02*
X31418922Y-53556819D01*
X31418922Y-53556819D02*
X31418922Y-54556819D01*
X32657018Y-54033009D02*
X32990351Y-54033009D01*
X33133208Y-54556819D02*
X32657018Y-54556819D01*
X32657018Y-54556819D02*
X32657018Y-53556819D01*
X32657018Y-53556819D02*
X33133208Y-53556819D01*
X33466542Y-53556819D02*
X34133208Y-54556819D01*
X34133208Y-53556819D02*
X33466542Y-54556819D01*
X34514161Y-54556819D02*
X34514161Y-53556819D01*
X34514161Y-53556819D02*
X34895113Y-53556819D01*
X34895113Y-53556819D02*
X34990351Y-53604438D01*
X34990351Y-53604438D02*
X35037970Y-53652057D01*
X35037970Y-53652057D02*
X35085589Y-53747295D01*
X35085589Y-53747295D02*
X35085589Y-53890152D01*
X35085589Y-53890152D02*
X35037970Y-53985390D01*
X35037970Y-53985390D02*
X34990351Y-54033009D01*
X34990351Y-54033009D02*
X34895113Y-54080628D01*
X34895113Y-54080628D02*
X34514161Y-54080628D01*
X35466542Y-54271104D02*
X35942732Y-54271104D01*
X35371304Y-54556819D02*
X35704637Y-53556819D01*
X35704637Y-53556819D02*
X36037970Y-54556819D01*
X36371304Y-54556819D02*
X36371304Y-53556819D01*
X36371304Y-53556819D02*
X36942732Y-54556819D01*
X36942732Y-54556819D02*
X36942732Y-53556819D01*
X37371304Y-54509200D02*
X37514161Y-54556819D01*
X37514161Y-54556819D02*
X37752256Y-54556819D01*
X37752256Y-54556819D02*
X37847494Y-54509200D01*
X37847494Y-54509200D02*
X37895113Y-54461580D01*
X37895113Y-54461580D02*
X37942732Y-54366342D01*
X37942732Y-54366342D02*
X37942732Y-54271104D01*
X37942732Y-54271104D02*
X37895113Y-54175866D01*
X37895113Y-54175866D02*
X37847494Y-54128247D01*
X37847494Y-54128247D02*
X37752256Y-54080628D01*
X37752256Y-54080628D02*
X37561780Y-54033009D01*
X37561780Y-54033009D02*
X37466542Y-53985390D01*
X37466542Y-53985390D02*
X37418923Y-53937771D01*
X37418923Y-53937771D02*
X37371304Y-53842533D01*
X37371304Y-53842533D02*
X37371304Y-53747295D01*
X37371304Y-53747295D02*
X37418923Y-53652057D01*
X37418923Y-53652057D02*
X37466542Y-53604438D01*
X37466542Y-53604438D02*
X37561780Y-53556819D01*
X37561780Y-53556819D02*
X37799875Y-53556819D01*
X37799875Y-53556819D02*
X37942732Y-53604438D01*
X38371304Y-54556819D02*
X38371304Y-53556819D01*
X39037970Y-53556819D02*
X39228446Y-53556819D01*
X39228446Y-53556819D02*
X39323684Y-53604438D01*
X39323684Y-53604438D02*
X39418922Y-53699676D01*
X39418922Y-53699676D02*
X39466541Y-53890152D01*
X39466541Y-53890152D02*
X39466541Y-54223485D01*
X39466541Y-54223485D02*
X39418922Y-54413961D01*
X39418922Y-54413961D02*
X39323684Y-54509200D01*
X39323684Y-54509200D02*
X39228446Y-54556819D01*
X39228446Y-54556819D02*
X39037970Y-54556819D01*
X39037970Y-54556819D02*
X38942732Y-54509200D01*
X38942732Y-54509200D02*
X38847494Y-54413961D01*
X38847494Y-54413961D02*
X38799875Y-54223485D01*
X38799875Y-54223485D02*
X38799875Y-53890152D01*
X38799875Y-53890152D02*
X38847494Y-53699676D01*
X38847494Y-53699676D02*
X38942732Y-53604438D01*
X38942732Y-53604438D02*
X39037970Y-53556819D01*
X39895113Y-54556819D02*
X39895113Y-53556819D01*
X39895113Y-53556819D02*
X40466541Y-54556819D01*
X40466541Y-54556819D02*
X40466541Y-53556819D01*
X42037970Y-54033009D02*
X42180827Y-54080628D01*
X42180827Y-54080628D02*
X42228446Y-54128247D01*
X42228446Y-54128247D02*
X42276065Y-54223485D01*
X42276065Y-54223485D02*
X42276065Y-54366342D01*
X42276065Y-54366342D02*
X42228446Y-54461580D01*
X42228446Y-54461580D02*
X42180827Y-54509200D01*
X42180827Y-54509200D02*
X42085589Y-54556819D01*
X42085589Y-54556819D02*
X41704637Y-54556819D01*
X41704637Y-54556819D02*
X41704637Y-53556819D01*
X41704637Y-53556819D02*
X42037970Y-53556819D01*
X42037970Y-53556819D02*
X42133208Y-53604438D01*
X42133208Y-53604438D02*
X42180827Y-53652057D01*
X42180827Y-53652057D02*
X42228446Y-53747295D01*
X42228446Y-53747295D02*
X42228446Y-53842533D01*
X42228446Y-53842533D02*
X42180827Y-53937771D01*
X42180827Y-53937771D02*
X42133208Y-53985390D01*
X42133208Y-53985390D02*
X42037970Y-54033009D01*
X42037970Y-54033009D02*
X41704637Y-54033009D01*
X42895113Y-53556819D02*
X43085589Y-53556819D01*
X43085589Y-53556819D02*
X43180827Y-53604438D01*
X43180827Y-53604438D02*
X43276065Y-53699676D01*
X43276065Y-53699676D02*
X43323684Y-53890152D01*
X43323684Y-53890152D02*
X43323684Y-54223485D01*
X43323684Y-54223485D02*
X43276065Y-54413961D01*
X43276065Y-54413961D02*
X43180827Y-54509200D01*
X43180827Y-54509200D02*
X43085589Y-54556819D01*
X43085589Y-54556819D02*
X42895113Y-54556819D01*
X42895113Y-54556819D02*
X42799875Y-54509200D01*
X42799875Y-54509200D02*
X42704637Y-54413961D01*
X42704637Y-54413961D02*
X42657018Y-54223485D01*
X42657018Y-54223485D02*
X42657018Y-53890152D01*
X42657018Y-53890152D02*
X42704637Y-53699676D01*
X42704637Y-53699676D02*
X42799875Y-53604438D01*
X42799875Y-53604438D02*
X42895113Y-53556819D01*
X43704637Y-54271104D02*
X44180827Y-54271104D01*
X43609399Y-54556819D02*
X43942732Y-53556819D01*
X43942732Y-53556819D02*
X44276065Y-54556819D01*
X45180827Y-54556819D02*
X44847494Y-54080628D01*
X44609399Y-54556819D02*
X44609399Y-53556819D01*
X44609399Y-53556819D02*
X44990351Y-53556819D01*
X44990351Y-53556819D02*
X45085589Y-53604438D01*
X45085589Y-53604438D02*
X45133208Y-53652057D01*
X45133208Y-53652057D02*
X45180827Y-53747295D01*
X45180827Y-53747295D02*
X45180827Y-53890152D01*
X45180827Y-53890152D02*
X45133208Y-53985390D01*
X45133208Y-53985390D02*
X45085589Y-54033009D01*
X45085589Y-54033009D02*
X44990351Y-54080628D01*
X44990351Y-54080628D02*
X44609399Y-54080628D01*
X45609399Y-54556819D02*
X45609399Y-53556819D01*
X45609399Y-53556819D02*
X45847494Y-53556819D01*
X45847494Y-53556819D02*
X45990351Y-53604438D01*
X45990351Y-53604438D02*
X46085589Y-53699676D01*
X46085589Y-53699676D02*
X46133208Y-53794914D01*
X46133208Y-53794914D02*
X46180827Y-53985390D01*
X46180827Y-53985390D02*
X46180827Y-54128247D01*
X46180827Y-54128247D02*
X46133208Y-54318723D01*
X46133208Y-54318723D02*
X46085589Y-54413961D01*
X46085589Y-54413961D02*
X45990351Y-54509200D01*
X45990351Y-54509200D02*
X45847494Y-54556819D01*
X45847494Y-54556819D02*
X45609399Y-54556819D01*
X47657018Y-54890152D02*
X47418923Y-54890152D01*
X47418923Y-54890152D02*
X47418923Y-53461580D01*
X47418923Y-53461580D02*
X47657018Y-53461580D01*
X48466542Y-53556819D02*
X48276066Y-53556819D01*
X48276066Y-53556819D02*
X48180828Y-53604438D01*
X48180828Y-53604438D02*
X48133209Y-53652057D01*
X48133209Y-53652057D02*
X48037971Y-53794914D01*
X48037971Y-53794914D02*
X47990352Y-53985390D01*
X47990352Y-53985390D02*
X47990352Y-54366342D01*
X47990352Y-54366342D02*
X48037971Y-54461580D01*
X48037971Y-54461580D02*
X48085590Y-54509200D01*
X48085590Y-54509200D02*
X48180828Y-54556819D01*
X48180828Y-54556819D02*
X48371304Y-54556819D01*
X48371304Y-54556819D02*
X48466542Y-54509200D01*
X48466542Y-54509200D02*
X48514161Y-54461580D01*
X48514161Y-54461580D02*
X48561780Y-54366342D01*
X48561780Y-54366342D02*
X48561780Y-54128247D01*
X48561780Y-54128247D02*
X48514161Y-54033009D01*
X48514161Y-54033009D02*
X48466542Y-53985390D01*
X48466542Y-53985390D02*
X48371304Y-53937771D01*
X48371304Y-53937771D02*
X48180828Y-53937771D01*
X48180828Y-53937771D02*
X48085590Y-53985390D01*
X48085590Y-53985390D02*
X48037971Y-54033009D01*
X48037971Y-54033009D02*
X47990352Y-54128247D01*
X49418923Y-53890152D02*
X49418923Y-54556819D01*
X49180828Y-53509200D02*
X48942733Y-54223485D01*
X48942733Y-54223485D02*
X49561780Y-54223485D01*
X49942733Y-54556819D02*
X49942733Y-53556819D01*
X50037971Y-54175866D02*
X50323685Y-54556819D01*
X50323685Y-53890152D02*
X49942733Y-54271104D01*
X50752257Y-54556819D02*
X50752257Y-53556819D01*
X50752257Y-53937771D02*
X50847495Y-53890152D01*
X50847495Y-53890152D02*
X51037971Y-53890152D01*
X51037971Y-53890152D02*
X51133209Y-53937771D01*
X51133209Y-53937771D02*
X51180828Y-53985390D01*
X51180828Y-53985390D02*
X51228447Y-54080628D01*
X51228447Y-54080628D02*
X51228447Y-54366342D01*
X51228447Y-54366342D02*
X51180828Y-54461580D01*
X51180828Y-54461580D02*
X51133209Y-54509200D01*
X51133209Y-54509200D02*
X51037971Y-54556819D01*
X51037971Y-54556819D02*
X50847495Y-54556819D01*
X50847495Y-54556819D02*
X50752257Y-54509200D01*
X52704638Y-54937771D02*
X52657019Y-54890152D01*
X52657019Y-54890152D02*
X52561781Y-54747295D01*
X52561781Y-54747295D02*
X52514162Y-54652057D01*
X52514162Y-54652057D02*
X52466543Y-54509200D01*
X52466543Y-54509200D02*
X52418924Y-54271104D01*
X52418924Y-54271104D02*
X52418924Y-54080628D01*
X52418924Y-54080628D02*
X52466543Y-53842533D01*
X52466543Y-53842533D02*
X52514162Y-53699676D01*
X52514162Y-53699676D02*
X52561781Y-53604438D01*
X52561781Y-53604438D02*
X52657019Y-53461580D01*
X52657019Y-53461580D02*
X52704638Y-53413961D01*
X53276067Y-53556819D02*
X53371305Y-53556819D01*
X53371305Y-53556819D02*
X53466543Y-53604438D01*
X53466543Y-53604438D02*
X53514162Y-53652057D01*
X53514162Y-53652057D02*
X53561781Y-53747295D01*
X53561781Y-53747295D02*
X53609400Y-53937771D01*
X53609400Y-53937771D02*
X53609400Y-54175866D01*
X53609400Y-54175866D02*
X53561781Y-54366342D01*
X53561781Y-54366342D02*
X53514162Y-54461580D01*
X53514162Y-54461580D02*
X53466543Y-54509200D01*
X53466543Y-54509200D02*
X53371305Y-54556819D01*
X53371305Y-54556819D02*
X53276067Y-54556819D01*
X53276067Y-54556819D02*
X53180829Y-54509200D01*
X53180829Y-54509200D02*
X53133210Y-54461580D01*
X53133210Y-54461580D02*
X53085591Y-54366342D01*
X53085591Y-54366342D02*
X53037972Y-54175866D01*
X53037972Y-54175866D02*
X53037972Y-53937771D01*
X53037972Y-53937771D02*
X53085591Y-53747295D01*
X53085591Y-53747295D02*
X53133210Y-53652057D01*
X53133210Y-53652057D02*
X53180829Y-53604438D01*
X53180829Y-53604438D02*
X53276067Y-53556819D01*
X54037972Y-54175866D02*
X54799877Y-54175866D01*
X55752257Y-53556819D02*
X55276067Y-53556819D01*
X55276067Y-53556819D02*
X55228448Y-54033009D01*
X55228448Y-54033009D02*
X55276067Y-53985390D01*
X55276067Y-53985390D02*
X55371305Y-53937771D01*
X55371305Y-53937771D02*
X55609400Y-53937771D01*
X55609400Y-53937771D02*
X55704638Y-53985390D01*
X55704638Y-53985390D02*
X55752257Y-54033009D01*
X55752257Y-54033009D02*
X55799876Y-54128247D01*
X55799876Y-54128247D02*
X55799876Y-54366342D01*
X55799876Y-54366342D02*
X55752257Y-54461580D01*
X55752257Y-54461580D02*
X55704638Y-54509200D01*
X55704638Y-54509200D02*
X55609400Y-54556819D01*
X55609400Y-54556819D02*
X55371305Y-54556819D01*
X55371305Y-54556819D02*
X55276067Y-54509200D01*
X55276067Y-54509200D02*
X55228448Y-54461580D01*
X56990353Y-54556819D02*
X56990353Y-53556819D01*
X56990353Y-53937771D02*
X57085591Y-53890152D01*
X57085591Y-53890152D02*
X57276067Y-53890152D01*
X57276067Y-53890152D02*
X57371305Y-53937771D01*
X57371305Y-53937771D02*
X57418924Y-53985390D01*
X57418924Y-53985390D02*
X57466543Y-54080628D01*
X57466543Y-54080628D02*
X57466543Y-54366342D01*
X57466543Y-54366342D02*
X57418924Y-54461580D01*
X57418924Y-54461580D02*
X57371305Y-54509200D01*
X57371305Y-54509200D02*
X57276067Y-54556819D01*
X57276067Y-54556819D02*
X57085591Y-54556819D01*
X57085591Y-54556819D02*
X56990353Y-54509200D01*
X58323686Y-54556819D02*
X58323686Y-54033009D01*
X58323686Y-54033009D02*
X58276067Y-53937771D01*
X58276067Y-53937771D02*
X58180829Y-53890152D01*
X58180829Y-53890152D02*
X57990353Y-53890152D01*
X57990353Y-53890152D02*
X57895115Y-53937771D01*
X58323686Y-54509200D02*
X58228448Y-54556819D01*
X58228448Y-54556819D02*
X57990353Y-54556819D01*
X57990353Y-54556819D02*
X57895115Y-54509200D01*
X57895115Y-54509200D02*
X57847496Y-54413961D01*
X57847496Y-54413961D02*
X57847496Y-54318723D01*
X57847496Y-54318723D02*
X57895115Y-54223485D01*
X57895115Y-54223485D02*
X57990353Y-54175866D01*
X57990353Y-54175866D02*
X58228448Y-54175866D01*
X58228448Y-54175866D02*
X58323686Y-54128247D01*
X58799877Y-53890152D02*
X58799877Y-54556819D01*
X58799877Y-53985390D02*
X58847496Y-53937771D01*
X58847496Y-53937771D02*
X58942734Y-53890152D01*
X58942734Y-53890152D02*
X59085591Y-53890152D01*
X59085591Y-53890152D02*
X59180829Y-53937771D01*
X59180829Y-53937771D02*
X59228448Y-54033009D01*
X59228448Y-54033009D02*
X59228448Y-54556819D01*
X59704639Y-54556819D02*
X59704639Y-53556819D01*
X59799877Y-54175866D02*
X60085591Y-54556819D01*
X60085591Y-53890152D02*
X59704639Y-54271104D01*
X61228449Y-54509200D02*
X61323687Y-54556819D01*
X61323687Y-54556819D02*
X61514163Y-54556819D01*
X61514163Y-54556819D02*
X61609401Y-54509200D01*
X61609401Y-54509200D02*
X61657020Y-54413961D01*
X61657020Y-54413961D02*
X61657020Y-54366342D01*
X61657020Y-54366342D02*
X61609401Y-54271104D01*
X61609401Y-54271104D02*
X61514163Y-54223485D01*
X61514163Y-54223485D02*
X61371306Y-54223485D01*
X61371306Y-54223485D02*
X61276068Y-54175866D01*
X61276068Y-54175866D02*
X61228449Y-54080628D01*
X61228449Y-54080628D02*
X61228449Y-54033009D01*
X61228449Y-54033009D02*
X61276068Y-53937771D01*
X61276068Y-53937771D02*
X61371306Y-53890152D01*
X61371306Y-53890152D02*
X61514163Y-53890152D01*
X61514163Y-53890152D02*
X61609401Y-53937771D01*
X61990354Y-53890152D02*
X62180830Y-54556819D01*
X62180830Y-54556819D02*
X62371306Y-54080628D01*
X62371306Y-54080628D02*
X62561782Y-54556819D01*
X62561782Y-54556819D02*
X62752258Y-53890152D01*
X63133211Y-54556819D02*
X63133211Y-53890152D01*
X63133211Y-53556819D02*
X63085592Y-53604438D01*
X63085592Y-53604438D02*
X63133211Y-53652057D01*
X63133211Y-53652057D02*
X63180830Y-53604438D01*
X63180830Y-53604438D02*
X63133211Y-53556819D01*
X63133211Y-53556819D02*
X63133211Y-53652057D01*
X63466544Y-53890152D02*
X63847496Y-53890152D01*
X63609401Y-53556819D02*
X63609401Y-54413961D01*
X63609401Y-54413961D02*
X63657020Y-54509200D01*
X63657020Y-54509200D02*
X63752258Y-54556819D01*
X63752258Y-54556819D02*
X63847496Y-54556819D01*
X64609401Y-54509200D02*
X64514163Y-54556819D01*
X64514163Y-54556819D02*
X64323687Y-54556819D01*
X64323687Y-54556819D02*
X64228449Y-54509200D01*
X64228449Y-54509200D02*
X64180830Y-54461580D01*
X64180830Y-54461580D02*
X64133211Y-54366342D01*
X64133211Y-54366342D02*
X64133211Y-54080628D01*
X64133211Y-54080628D02*
X64180830Y-53985390D01*
X64180830Y-53985390D02*
X64228449Y-53937771D01*
X64228449Y-53937771D02*
X64323687Y-53890152D01*
X64323687Y-53890152D02*
X64514163Y-53890152D01*
X64514163Y-53890152D02*
X64609401Y-53937771D01*
X65037973Y-54556819D02*
X65037973Y-53556819D01*
X65466544Y-54556819D02*
X65466544Y-54033009D01*
X65466544Y-54033009D02*
X65418925Y-53937771D01*
X65418925Y-53937771D02*
X65323687Y-53890152D01*
X65323687Y-53890152D02*
X65180830Y-53890152D01*
X65180830Y-53890152D02*
X65085592Y-53937771D01*
X65085592Y-53937771D02*
X65037973Y-53985390D01*
X65942735Y-54556819D02*
X65942735Y-53890152D01*
X65942735Y-53556819D02*
X65895116Y-53604438D01*
X65895116Y-53604438D02*
X65942735Y-53652057D01*
X65942735Y-53652057D02*
X65990354Y-53604438D01*
X65990354Y-53604438D02*
X65942735Y-53556819D01*
X65942735Y-53556819D02*
X65942735Y-53652057D01*
X66418925Y-53890152D02*
X66418925Y-54556819D01*
X66418925Y-53985390D02*
X66466544Y-53937771D01*
X66466544Y-53937771D02*
X66561782Y-53890152D01*
X66561782Y-53890152D02*
X66704639Y-53890152D01*
X66704639Y-53890152D02*
X66799877Y-53937771D01*
X66799877Y-53937771D02*
X66847496Y-54033009D01*
X66847496Y-54033009D02*
X66847496Y-54556819D01*
X67752258Y-53890152D02*
X67752258Y-54699676D01*
X67752258Y-54699676D02*
X67704639Y-54794914D01*
X67704639Y-54794914D02*
X67657020Y-54842533D01*
X67657020Y-54842533D02*
X67561782Y-54890152D01*
X67561782Y-54890152D02*
X67418925Y-54890152D01*
X67418925Y-54890152D02*
X67323687Y-54842533D01*
X67752258Y-54509200D02*
X67657020Y-54556819D01*
X67657020Y-54556819D02*
X67466544Y-54556819D01*
X67466544Y-54556819D02*
X67371306Y-54509200D01*
X67371306Y-54509200D02*
X67323687Y-54461580D01*
X67323687Y-54461580D02*
X67276068Y-54366342D01*
X67276068Y-54366342D02*
X67276068Y-54080628D01*
X67276068Y-54080628D02*
X67323687Y-53985390D01*
X67323687Y-53985390D02*
X67371306Y-53937771D01*
X67371306Y-53937771D02*
X67466544Y-53890152D01*
X67466544Y-53890152D02*
X67657020Y-53890152D01*
X67657020Y-53890152D02*
X67752258Y-53937771D01*
X68133211Y-54937771D02*
X68180830Y-54890152D01*
X68180830Y-54890152D02*
X68276068Y-54747295D01*
X68276068Y-54747295D02*
X68323687Y-54652057D01*
X68323687Y-54652057D02*
X68371306Y-54509200D01*
X68371306Y-54509200D02*
X68418925Y-54271104D01*
X68418925Y-54271104D02*
X68418925Y-54080628D01*
X68418925Y-54080628D02*
X68371306Y-53842533D01*
X68371306Y-53842533D02*
X68323687Y-53699676D01*
X68323687Y-53699676D02*
X68276068Y-53604438D01*
X68276068Y-53604438D02*
X68180830Y-53461580D01*
X68180830Y-53461580D02*
X68133211Y-53413961D01*
X68799878Y-54890152D02*
X69037973Y-54890152D01*
X69037973Y-54890152D02*
X69037973Y-53461580D01*
X69037973Y-53461580D02*
X68799878Y-53461580D01*
X71459104Y-75656839D02*
X71459104Y-75180649D01*
X71744819Y-75752077D02*
X70744819Y-75418744D01*
X70744819Y-75418744D02*
X71744819Y-75085411D01*
X71744819Y-74228268D02*
X71744819Y-74799696D01*
X71744819Y-74513982D02*
X70744819Y-74513982D01*
X70744819Y-74513982D02*
X70887676Y-74609220D01*
X70887676Y-74609220D02*
X70982914Y-74704458D01*
X70982914Y-74704458D02*
X71030533Y-74799696D01*
X70744819Y-73894934D02*
X70744819Y-73275887D01*
X70744819Y-73275887D02*
X71125771Y-73609220D01*
X71125771Y-73609220D02*
X71125771Y-73466363D01*
X71125771Y-73466363D02*
X71173390Y-73371125D01*
X71173390Y-73371125D02*
X71221009Y-73323506D01*
X71221009Y-73323506D02*
X71316247Y-73275887D01*
X71316247Y-73275887D02*
X71554342Y-73275887D01*
X71554342Y-73275887D02*
X71649580Y-73323506D01*
X71649580Y-73323506D02*
X71697200Y-73371125D01*
X71697200Y-73371125D02*
X71744819Y-73466363D01*
X71744819Y-73466363D02*
X71744819Y-73752077D01*
X71744819Y-73752077D02*
X71697200Y-73847315D01*
X71697200Y-73847315D02*
X71649580Y-73894934D01*
X99927580Y-58078666D02*
X99975200Y-58126285D01*
X99975200Y-58126285D02*
X100022819Y-58269142D01*
X100022819Y-58269142D02*
X100022819Y-58364380D01*
X100022819Y-58364380D02*
X99975200Y-58507237D01*
X99975200Y-58507237D02*
X99879961Y-58602475D01*
X99879961Y-58602475D02*
X99784723Y-58650094D01*
X99784723Y-58650094D02*
X99594247Y-58697713D01*
X99594247Y-58697713D02*
X99451390Y-58697713D01*
X99451390Y-58697713D02*
X99260914Y-58650094D01*
X99260914Y-58650094D02*
X99165676Y-58602475D01*
X99165676Y-58602475D02*
X99070438Y-58507237D01*
X99070438Y-58507237D02*
X99022819Y-58364380D01*
X99022819Y-58364380D02*
X99022819Y-58269142D01*
X99022819Y-58269142D02*
X99070438Y-58126285D01*
X99070438Y-58126285D02*
X99118057Y-58078666D01*
X100022819Y-57126285D02*
X100022819Y-57697713D01*
X100022819Y-57411999D02*
X99022819Y-57411999D01*
X99022819Y-57411999D02*
X99165676Y-57507237D01*
X99165676Y-57507237D02*
X99260914Y-57602475D01*
X99260914Y-57602475D02*
X99308533Y-57697713D01*
X108309819Y-75691904D02*
X109119342Y-75691904D01*
X109119342Y-75691904D02*
X109214580Y-75644285D01*
X109214580Y-75644285D02*
X109262200Y-75596666D01*
X109262200Y-75596666D02*
X109309819Y-75501428D01*
X109309819Y-75501428D02*
X109309819Y-75310952D01*
X109309819Y-75310952D02*
X109262200Y-75215714D01*
X109262200Y-75215714D02*
X109214580Y-75168095D01*
X109214580Y-75168095D02*
X109119342Y-75120476D01*
X109119342Y-75120476D02*
X108309819Y-75120476D01*
X108309819Y-74168095D02*
X108309819Y-74644285D01*
X108309819Y-74644285D02*
X108786009Y-74691904D01*
X108786009Y-74691904D02*
X108738390Y-74644285D01*
X108738390Y-74644285D02*
X108690771Y-74549047D01*
X108690771Y-74549047D02*
X108690771Y-74310952D01*
X108690771Y-74310952D02*
X108738390Y-74215714D01*
X108738390Y-74215714D02*
X108786009Y-74168095D01*
X108786009Y-74168095D02*
X108881247Y-74120476D01*
X108881247Y-74120476D02*
X109119342Y-74120476D01*
X109119342Y-74120476D02*
X109214580Y-74168095D01*
X109214580Y-74168095D02*
X109262200Y-74215714D01*
X109262200Y-74215714D02*
X109309819Y-74310952D01*
X109309819Y-74310952D02*
X109309819Y-74549047D01*
X109309819Y-74549047D02*
X109262200Y-74644285D01*
X109262200Y-74644285D02*
X109214580Y-74691904D01*
X123009819Y-82841904D02*
X123009819Y-82175238D01*
X123009819Y-82175238D02*
X124009819Y-82603809D01*
X123343152Y-81365714D02*
X124009819Y-81365714D01*
X122962200Y-81603809D02*
X123676485Y-81841904D01*
X123676485Y-81841904D02*
X123676485Y-81222857D01*
X124009819Y-80841904D02*
X123009819Y-80841904D01*
X123486009Y-80841904D02*
X123486009Y-80270476D01*
X124009819Y-80270476D02*
X123009819Y-80270476D01*
X123914580Y-79222857D02*
X123962200Y-79270476D01*
X123962200Y-79270476D02*
X124009819Y-79413333D01*
X124009819Y-79413333D02*
X124009819Y-79508571D01*
X124009819Y-79508571D02*
X123962200Y-79651428D01*
X123962200Y-79651428D02*
X123866961Y-79746666D01*
X123866961Y-79746666D02*
X123771723Y-79794285D01*
X123771723Y-79794285D02*
X123581247Y-79841904D01*
X123581247Y-79841904D02*
X123438390Y-79841904D01*
X123438390Y-79841904D02*
X123247914Y-79794285D01*
X123247914Y-79794285D02*
X123152676Y-79746666D01*
X123152676Y-79746666D02*
X123057438Y-79651428D01*
X123057438Y-79651428D02*
X123009819Y-79508571D01*
X123009819Y-79508571D02*
X123009819Y-79413333D01*
X123009819Y-79413333D02*
X123057438Y-79270476D01*
X123057438Y-79270476D02*
X123105057Y-79222857D01*
X123009819Y-78365714D02*
X123009819Y-78556190D01*
X123009819Y-78556190D02*
X123057438Y-78651428D01*
X123057438Y-78651428D02*
X123105057Y-78699047D01*
X123105057Y-78699047D02*
X123247914Y-78794285D01*
X123247914Y-78794285D02*
X123438390Y-78841904D01*
X123438390Y-78841904D02*
X123819342Y-78841904D01*
X123819342Y-78841904D02*
X123914580Y-78794285D01*
X123914580Y-78794285D02*
X123962200Y-78746666D01*
X123962200Y-78746666D02*
X124009819Y-78651428D01*
X124009819Y-78651428D02*
X124009819Y-78460952D01*
X124009819Y-78460952D02*
X123962200Y-78365714D01*
X123962200Y-78365714D02*
X123914580Y-78318095D01*
X123914580Y-78318095D02*
X123819342Y-78270476D01*
X123819342Y-78270476D02*
X123581247Y-78270476D01*
X123581247Y-78270476D02*
X123486009Y-78318095D01*
X123486009Y-78318095D02*
X123438390Y-78365714D01*
X123438390Y-78365714D02*
X123390771Y-78460952D01*
X123390771Y-78460952D02*
X123390771Y-78651428D01*
X123390771Y-78651428D02*
X123438390Y-78746666D01*
X123438390Y-78746666D02*
X123486009Y-78794285D01*
X123486009Y-78794285D02*
X123581247Y-78841904D01*
X123438390Y-77699047D02*
X123390771Y-77794285D01*
X123390771Y-77794285D02*
X123343152Y-77841904D01*
X123343152Y-77841904D02*
X123247914Y-77889523D01*
X123247914Y-77889523D02*
X123200295Y-77889523D01*
X123200295Y-77889523D02*
X123105057Y-77841904D01*
X123105057Y-77841904D02*
X123057438Y-77794285D01*
X123057438Y-77794285D02*
X123009819Y-77699047D01*
X123009819Y-77699047D02*
X123009819Y-77508571D01*
X123009819Y-77508571D02*
X123057438Y-77413333D01*
X123057438Y-77413333D02*
X123105057Y-77365714D01*
X123105057Y-77365714D02*
X123200295Y-77318095D01*
X123200295Y-77318095D02*
X123247914Y-77318095D01*
X123247914Y-77318095D02*
X123343152Y-77365714D01*
X123343152Y-77365714D02*
X123390771Y-77413333D01*
X123390771Y-77413333D02*
X123438390Y-77508571D01*
X123438390Y-77508571D02*
X123438390Y-77699047D01*
X123438390Y-77699047D02*
X123486009Y-77794285D01*
X123486009Y-77794285D02*
X123533628Y-77841904D01*
X123533628Y-77841904D02*
X123628866Y-77889523D01*
X123628866Y-77889523D02*
X123819342Y-77889523D01*
X123819342Y-77889523D02*
X123914580Y-77841904D01*
X123914580Y-77841904D02*
X123962200Y-77794285D01*
X123962200Y-77794285D02*
X124009819Y-77699047D01*
X124009819Y-77699047D02*
X124009819Y-77508571D01*
X124009819Y-77508571D02*
X123962200Y-77413333D01*
X123962200Y-77413333D02*
X123914580Y-77365714D01*
X123914580Y-77365714D02*
X123819342Y-77318095D01*
X123819342Y-77318095D02*
X123628866Y-77318095D01*
X123628866Y-77318095D02*
X123533628Y-77365714D01*
X123533628Y-77365714D02*
X123486009Y-77413333D01*
X123486009Y-77413333D02*
X123438390Y-77508571D01*
X123438390Y-76746666D02*
X123390771Y-76841904D01*
X123390771Y-76841904D02*
X123343152Y-76889523D01*
X123343152Y-76889523D02*
X123247914Y-76937142D01*
X123247914Y-76937142D02*
X123200295Y-76937142D01*
X123200295Y-76937142D02*
X123105057Y-76889523D01*
X123105057Y-76889523D02*
X123057438Y-76841904D01*
X123057438Y-76841904D02*
X123009819Y-76746666D01*
X123009819Y-76746666D02*
X123009819Y-76556190D01*
X123009819Y-76556190D02*
X123057438Y-76460952D01*
X123057438Y-76460952D02*
X123105057Y-76413333D01*
X123105057Y-76413333D02*
X123200295Y-76365714D01*
X123200295Y-76365714D02*
X123247914Y-76365714D01*
X123247914Y-76365714D02*
X123343152Y-76413333D01*
X123343152Y-76413333D02*
X123390771Y-76460952D01*
X123390771Y-76460952D02*
X123438390Y-76556190D01*
X123438390Y-76556190D02*
X123438390Y-76746666D01*
X123438390Y-76746666D02*
X123486009Y-76841904D01*
X123486009Y-76841904D02*
X123533628Y-76889523D01*
X123533628Y-76889523D02*
X123628866Y-76937142D01*
X123628866Y-76937142D02*
X123819342Y-76937142D01*
X123819342Y-76937142D02*
X123914580Y-76889523D01*
X123914580Y-76889523D02*
X123962200Y-76841904D01*
X123962200Y-76841904D02*
X124009819Y-76746666D01*
X124009819Y-76746666D02*
X124009819Y-76556190D01*
X124009819Y-76556190D02*
X123962200Y-76460952D01*
X123962200Y-76460952D02*
X123914580Y-76413333D01*
X123914580Y-76413333D02*
X123819342Y-76365714D01*
X123819342Y-76365714D02*
X123628866Y-76365714D01*
X123628866Y-76365714D02*
X123533628Y-76413333D01*
X123533628Y-76413333D02*
X123486009Y-76460952D01*
X123486009Y-76460952D02*
X123438390Y-76556190D01*
X79861580Y-56808666D02*
X79909200Y-56856285D01*
X79909200Y-56856285D02*
X79956819Y-56999142D01*
X79956819Y-56999142D02*
X79956819Y-57094380D01*
X79956819Y-57094380D02*
X79909200Y-57237237D01*
X79909200Y-57237237D02*
X79813961Y-57332475D01*
X79813961Y-57332475D02*
X79718723Y-57380094D01*
X79718723Y-57380094D02*
X79528247Y-57427713D01*
X79528247Y-57427713D02*
X79385390Y-57427713D01*
X79385390Y-57427713D02*
X79194914Y-57380094D01*
X79194914Y-57380094D02*
X79099676Y-57332475D01*
X79099676Y-57332475D02*
X79004438Y-57237237D01*
X79004438Y-57237237D02*
X78956819Y-57094380D01*
X78956819Y-57094380D02*
X78956819Y-56999142D01*
X78956819Y-56999142D02*
X79004438Y-56856285D01*
X79004438Y-56856285D02*
X79052057Y-56808666D01*
X79956819Y-56332475D02*
X79956819Y-56141999D01*
X79956819Y-56141999D02*
X79909200Y-56046761D01*
X79909200Y-56046761D02*
X79861580Y-55999142D01*
X79861580Y-55999142D02*
X79718723Y-55903904D01*
X79718723Y-55903904D02*
X79528247Y-55856285D01*
X79528247Y-55856285D02*
X79147295Y-55856285D01*
X79147295Y-55856285D02*
X79052057Y-55903904D01*
X79052057Y-55903904D02*
X79004438Y-55951523D01*
X79004438Y-55951523D02*
X78956819Y-56046761D01*
X78956819Y-56046761D02*
X78956819Y-56237237D01*
X78956819Y-56237237D02*
X79004438Y-56332475D01*
X79004438Y-56332475D02*
X79052057Y-56380094D01*
X79052057Y-56380094D02*
X79147295Y-56427713D01*
X79147295Y-56427713D02*
X79385390Y-56427713D01*
X79385390Y-56427713D02*
X79480628Y-56380094D01*
X79480628Y-56380094D02*
X79528247Y-56332475D01*
X79528247Y-56332475D02*
X79575866Y-56237237D01*
X79575866Y-56237237D02*
X79575866Y-56046761D01*
X79575866Y-56046761D02*
X79528247Y-55951523D01*
X79528247Y-55951523D02*
X79480628Y-55903904D01*
X79480628Y-55903904D02*
X79385390Y-55856285D01*
X24870819Y-77066094D02*
X23870819Y-77066094D01*
X23870819Y-77066094D02*
X23870819Y-76827999D01*
X23870819Y-76827999D02*
X23918438Y-76685142D01*
X23918438Y-76685142D02*
X24013676Y-76589904D01*
X24013676Y-76589904D02*
X24108914Y-76542285D01*
X24108914Y-76542285D02*
X24299390Y-76494666D01*
X24299390Y-76494666D02*
X24442247Y-76494666D01*
X24442247Y-76494666D02*
X24632723Y-76542285D01*
X24632723Y-76542285D02*
X24727961Y-76589904D01*
X24727961Y-76589904D02*
X24823200Y-76685142D01*
X24823200Y-76685142D02*
X24870819Y-76827999D01*
X24870819Y-76827999D02*
X24870819Y-77066094D01*
X24870819Y-75542285D02*
X24870819Y-76113713D01*
X24870819Y-75827999D02*
X23870819Y-75827999D01*
X23870819Y-75827999D02*
X24013676Y-75923237D01*
X24013676Y-75923237D02*
X24108914Y-76018475D01*
X24108914Y-76018475D02*
X24156533Y-76113713D01*
X106912580Y-80420357D02*
X106960200Y-80467976D01*
X106960200Y-80467976D02*
X107007819Y-80610833D01*
X107007819Y-80610833D02*
X107007819Y-80706071D01*
X107007819Y-80706071D02*
X106960200Y-80848928D01*
X106960200Y-80848928D02*
X106864961Y-80944166D01*
X106864961Y-80944166D02*
X106769723Y-80991785D01*
X106769723Y-80991785D02*
X106579247Y-81039404D01*
X106579247Y-81039404D02*
X106436390Y-81039404D01*
X106436390Y-81039404D02*
X106245914Y-80991785D01*
X106245914Y-80991785D02*
X106150676Y-80944166D01*
X106150676Y-80944166D02*
X106055438Y-80848928D01*
X106055438Y-80848928D02*
X106007819Y-80706071D01*
X106007819Y-80706071D02*
X106007819Y-80610833D01*
X106007819Y-80610833D02*
X106055438Y-80467976D01*
X106055438Y-80467976D02*
X106103057Y-80420357D01*
X107007819Y-79467976D02*
X107007819Y-80039404D01*
X107007819Y-79753690D02*
X106007819Y-79753690D01*
X106007819Y-79753690D02*
X106150676Y-79848928D01*
X106150676Y-79848928D02*
X106245914Y-79944166D01*
X106245914Y-79944166D02*
X106293533Y-80039404D01*
X106007819Y-78848928D02*
X106007819Y-78753690D01*
X106007819Y-78753690D02*
X106055438Y-78658452D01*
X106055438Y-78658452D02*
X106103057Y-78610833D01*
X106103057Y-78610833D02*
X106198295Y-78563214D01*
X106198295Y-78563214D02*
X106388771Y-78515595D01*
X106388771Y-78515595D02*
X106626866Y-78515595D01*
X106626866Y-78515595D02*
X106817342Y-78563214D01*
X106817342Y-78563214D02*
X106912580Y-78610833D01*
X106912580Y-78610833D02*
X106960200Y-78658452D01*
X106960200Y-78658452D02*
X107007819Y-78753690D01*
X107007819Y-78753690D02*
X107007819Y-78848928D01*
X107007819Y-78848928D02*
X106960200Y-78944166D01*
X106960200Y-78944166D02*
X106912580Y-78991785D01*
X106912580Y-78991785D02*
X106817342Y-79039404D01*
X106817342Y-79039404D02*
X106626866Y-79087023D01*
X106626866Y-79087023D02*
X106388771Y-79087023D01*
X106388771Y-79087023D02*
X106198295Y-79039404D01*
X106198295Y-79039404D02*
X106103057Y-78991785D01*
X106103057Y-78991785D02*
X106055438Y-78944166D01*
X106055438Y-78944166D02*
X106007819Y-78848928D01*
X65953333Y-57255580D02*
X65905714Y-57303200D01*
X65905714Y-57303200D02*
X65762857Y-57350819D01*
X65762857Y-57350819D02*
X65667619Y-57350819D01*
X65667619Y-57350819D02*
X65524762Y-57303200D01*
X65524762Y-57303200D02*
X65429524Y-57207961D01*
X65429524Y-57207961D02*
X65381905Y-57112723D01*
X65381905Y-57112723D02*
X65334286Y-56922247D01*
X65334286Y-56922247D02*
X65334286Y-56779390D01*
X65334286Y-56779390D02*
X65381905Y-56588914D01*
X65381905Y-56588914D02*
X65429524Y-56493676D01*
X65429524Y-56493676D02*
X65524762Y-56398438D01*
X65524762Y-56398438D02*
X65667619Y-56350819D01*
X65667619Y-56350819D02*
X65762857Y-56350819D01*
X65762857Y-56350819D02*
X65905714Y-56398438D01*
X65905714Y-56398438D02*
X65953333Y-56446057D01*
X66810476Y-56350819D02*
X66620000Y-56350819D01*
X66620000Y-56350819D02*
X66524762Y-56398438D01*
X66524762Y-56398438D02*
X66477143Y-56446057D01*
X66477143Y-56446057D02*
X66381905Y-56588914D01*
X66381905Y-56588914D02*
X66334286Y-56779390D01*
X66334286Y-56779390D02*
X66334286Y-57160342D01*
X66334286Y-57160342D02*
X66381905Y-57255580D01*
X66381905Y-57255580D02*
X66429524Y-57303200D01*
X66429524Y-57303200D02*
X66524762Y-57350819D01*
X66524762Y-57350819D02*
X66715238Y-57350819D01*
X66715238Y-57350819D02*
X66810476Y-57303200D01*
X66810476Y-57303200D02*
X66858095Y-57255580D01*
X66858095Y-57255580D02*
X66905714Y-57160342D01*
X66905714Y-57160342D02*
X66905714Y-56922247D01*
X66905714Y-56922247D02*
X66858095Y-56827009D01*
X66858095Y-56827009D02*
X66810476Y-56779390D01*
X66810476Y-56779390D02*
X66715238Y-56731771D01*
X66715238Y-56731771D02*
X66524762Y-56731771D01*
X66524762Y-56731771D02*
X66429524Y-56779390D01*
X66429524Y-56779390D02*
X66381905Y-56827009D01*
X66381905Y-56827009D02*
X66334286Y-56922247D01*
X84328062Y-57199819D02*
X84328062Y-58009342D01*
X84328062Y-58009342D02*
X84375681Y-58104580D01*
X84375681Y-58104580D02*
X84423300Y-58152200D01*
X84423300Y-58152200D02*
X84518538Y-58199819D01*
X84518538Y-58199819D02*
X84709014Y-58199819D01*
X84709014Y-58199819D02*
X84804252Y-58152200D01*
X84804252Y-58152200D02*
X84851871Y-58104580D01*
X84851871Y-58104580D02*
X84899490Y-58009342D01*
X84899490Y-58009342D02*
X84899490Y-57199819D01*
X85423300Y-58199819D02*
X85613776Y-58199819D01*
X85613776Y-58199819D02*
X85709014Y-58152200D01*
X85709014Y-58152200D02*
X85756633Y-58104580D01*
X85756633Y-58104580D02*
X85851871Y-57961723D01*
X85851871Y-57961723D02*
X85899490Y-57771247D01*
X85899490Y-57771247D02*
X85899490Y-57390295D01*
X85899490Y-57390295D02*
X85851871Y-57295057D01*
X85851871Y-57295057D02*
X85804252Y-57247438D01*
X85804252Y-57247438D02*
X85709014Y-57199819D01*
X85709014Y-57199819D02*
X85518538Y-57199819D01*
X85518538Y-57199819D02*
X85423300Y-57247438D01*
X85423300Y-57247438D02*
X85375681Y-57295057D01*
X85375681Y-57295057D02*
X85328062Y-57390295D01*
X85328062Y-57390295D02*
X85328062Y-57628390D01*
X85328062Y-57628390D02*
X85375681Y-57723628D01*
X85375681Y-57723628D02*
X85423300Y-57771247D01*
X85423300Y-57771247D02*
X85518538Y-57818866D01*
X85518538Y-57818866D02*
X85709014Y-57818866D01*
X85709014Y-57818866D02*
X85804252Y-57771247D01*
X85804252Y-57771247D02*
X85851871Y-57723628D01*
X85851871Y-57723628D02*
X85899490Y-57628390D01*
X79002895Y-68999819D02*
X79669561Y-68999819D01*
X79669561Y-68999819D02*
X79240990Y-69999819D01*
X80479085Y-69333152D02*
X80479085Y-69999819D01*
X80240990Y-68952200D02*
X80002895Y-69666485D01*
X80002895Y-69666485D02*
X80621942Y-69666485D01*
X81002895Y-69999819D02*
X81002895Y-68999819D01*
X81002895Y-69476009D02*
X81574323Y-69476009D01*
X81574323Y-69999819D02*
X81574323Y-68999819D01*
X82621942Y-69904580D02*
X82574323Y-69952200D01*
X82574323Y-69952200D02*
X82431466Y-69999819D01*
X82431466Y-69999819D02*
X82336228Y-69999819D01*
X82336228Y-69999819D02*
X82193371Y-69952200D01*
X82193371Y-69952200D02*
X82098133Y-69856961D01*
X82098133Y-69856961D02*
X82050514Y-69761723D01*
X82050514Y-69761723D02*
X82002895Y-69571247D01*
X82002895Y-69571247D02*
X82002895Y-69428390D01*
X82002895Y-69428390D02*
X82050514Y-69237914D01*
X82050514Y-69237914D02*
X82098133Y-69142676D01*
X82098133Y-69142676D02*
X82193371Y-69047438D01*
X82193371Y-69047438D02*
X82336228Y-68999819D01*
X82336228Y-68999819D02*
X82431466Y-68999819D01*
X82431466Y-68999819D02*
X82574323Y-69047438D01*
X82574323Y-69047438D02*
X82621942Y-69095057D01*
X83574323Y-69999819D02*
X83002895Y-69999819D01*
X83288609Y-69999819D02*
X83288609Y-68999819D01*
X83288609Y-68999819D02*
X83193371Y-69142676D01*
X83193371Y-69142676D02*
X83098133Y-69237914D01*
X83098133Y-69237914D02*
X83002895Y-69285533D01*
X84479085Y-68999819D02*
X84002895Y-68999819D01*
X84002895Y-68999819D02*
X83955276Y-69476009D01*
X83955276Y-69476009D02*
X84002895Y-69428390D01*
X84002895Y-69428390D02*
X84098133Y-69380771D01*
X84098133Y-69380771D02*
X84336228Y-69380771D01*
X84336228Y-69380771D02*
X84431466Y-69428390D01*
X84431466Y-69428390D02*
X84479085Y-69476009D01*
X84479085Y-69476009D02*
X84526704Y-69571247D01*
X84526704Y-69571247D02*
X84526704Y-69809342D01*
X84526704Y-69809342D02*
X84479085Y-69904580D01*
X84479085Y-69904580D02*
X84431466Y-69952200D01*
X84431466Y-69952200D02*
X84336228Y-69999819D01*
X84336228Y-69999819D02*
X84098133Y-69999819D01*
X84098133Y-69999819D02*
X84002895Y-69952200D01*
X84002895Y-69952200D02*
X83955276Y-69904580D01*
X84860038Y-68999819D02*
X85526704Y-68999819D01*
X85526704Y-68999819D02*
X85098133Y-69999819D01*
X104394096Y-58382819D02*
X104394096Y-59192342D01*
X104394096Y-59192342D02*
X104441715Y-59287580D01*
X104441715Y-59287580D02*
X104489334Y-59335200D01*
X104489334Y-59335200D02*
X104584572Y-59382819D01*
X104584572Y-59382819D02*
X104775048Y-59382819D01*
X104775048Y-59382819D02*
X104870286Y-59335200D01*
X104870286Y-59335200D02*
X104917905Y-59287580D01*
X104917905Y-59287580D02*
X104965524Y-59192342D01*
X104965524Y-59192342D02*
X104965524Y-58382819D01*
X105965524Y-59382819D02*
X105394096Y-59382819D01*
X105679810Y-59382819D02*
X105679810Y-58382819D01*
X105679810Y-58382819D02*
X105584572Y-58525676D01*
X105584572Y-58525676D02*
X105489334Y-58620914D01*
X105489334Y-58620914D02*
X105394096Y-58668533D01*
X99488786Y-68999819D02*
X100155452Y-68999819D01*
X100155452Y-68999819D02*
X99726881Y-69999819D01*
X100964976Y-69333152D02*
X100964976Y-69999819D01*
X100726881Y-68952200D02*
X100488786Y-69666485D01*
X100488786Y-69666485D02*
X101107833Y-69666485D01*
X101488786Y-69999819D02*
X101488786Y-68999819D01*
X101488786Y-69476009D02*
X102060214Y-69476009D01*
X102060214Y-69999819D02*
X102060214Y-68999819D01*
X103107833Y-69904580D02*
X103060214Y-69952200D01*
X103060214Y-69952200D02*
X102917357Y-69999819D01*
X102917357Y-69999819D02*
X102822119Y-69999819D01*
X102822119Y-69999819D02*
X102679262Y-69952200D01*
X102679262Y-69952200D02*
X102584024Y-69856961D01*
X102584024Y-69856961D02*
X102536405Y-69761723D01*
X102536405Y-69761723D02*
X102488786Y-69571247D01*
X102488786Y-69571247D02*
X102488786Y-69428390D01*
X102488786Y-69428390D02*
X102536405Y-69237914D01*
X102536405Y-69237914D02*
X102584024Y-69142676D01*
X102584024Y-69142676D02*
X102679262Y-69047438D01*
X102679262Y-69047438D02*
X102822119Y-68999819D01*
X102822119Y-68999819D02*
X102917357Y-68999819D01*
X102917357Y-68999819D02*
X103060214Y-69047438D01*
X103060214Y-69047438D02*
X103107833Y-69095057D01*
X103726881Y-68999819D02*
X103822119Y-68999819D01*
X103822119Y-68999819D02*
X103917357Y-69047438D01*
X103917357Y-69047438D02*
X103964976Y-69095057D01*
X103964976Y-69095057D02*
X104012595Y-69190295D01*
X104012595Y-69190295D02*
X104060214Y-69380771D01*
X104060214Y-69380771D02*
X104060214Y-69618866D01*
X104060214Y-69618866D02*
X104012595Y-69809342D01*
X104012595Y-69809342D02*
X103964976Y-69904580D01*
X103964976Y-69904580D02*
X103917357Y-69952200D01*
X103917357Y-69952200D02*
X103822119Y-69999819D01*
X103822119Y-69999819D02*
X103726881Y-69999819D01*
X103726881Y-69999819D02*
X103631643Y-69952200D01*
X103631643Y-69952200D02*
X103584024Y-69904580D01*
X103584024Y-69904580D02*
X103536405Y-69809342D01*
X103536405Y-69809342D02*
X103488786Y-69618866D01*
X103488786Y-69618866D02*
X103488786Y-69380771D01*
X103488786Y-69380771D02*
X103536405Y-69190295D01*
X103536405Y-69190295D02*
X103584024Y-69095057D01*
X103584024Y-69095057D02*
X103631643Y-69047438D01*
X103631643Y-69047438D02*
X103726881Y-68999819D01*
X104917357Y-69333152D02*
X104917357Y-69999819D01*
X104679262Y-68952200D02*
X104441167Y-69666485D01*
X104441167Y-69666485D02*
X105060214Y-69666485D01*
X43013333Y-57255580D02*
X42965714Y-57303200D01*
X42965714Y-57303200D02*
X42822857Y-57350819D01*
X42822857Y-57350819D02*
X42727619Y-57350819D01*
X42727619Y-57350819D02*
X42584762Y-57303200D01*
X42584762Y-57303200D02*
X42489524Y-57207961D01*
X42489524Y-57207961D02*
X42441905Y-57112723D01*
X42441905Y-57112723D02*
X42394286Y-56922247D01*
X42394286Y-56922247D02*
X42394286Y-56779390D01*
X42394286Y-56779390D02*
X42441905Y-56588914D01*
X42441905Y-56588914D02*
X42489524Y-56493676D01*
X42489524Y-56493676D02*
X42584762Y-56398438D01*
X42584762Y-56398438D02*
X42727619Y-56350819D01*
X42727619Y-56350819D02*
X42822857Y-56350819D01*
X42822857Y-56350819D02*
X42965714Y-56398438D01*
X42965714Y-56398438D02*
X43013333Y-56446057D01*
X43346667Y-56350819D02*
X44013333Y-56350819D01*
X44013333Y-56350819D02*
X43584762Y-57350819D01*
X90021614Y-56808666D02*
X90069234Y-56856285D01*
X90069234Y-56856285D02*
X90116853Y-56999142D01*
X90116853Y-56999142D02*
X90116853Y-57094380D01*
X90116853Y-57094380D02*
X90069234Y-57237237D01*
X90069234Y-57237237D02*
X89973995Y-57332475D01*
X89973995Y-57332475D02*
X89878757Y-57380094D01*
X89878757Y-57380094D02*
X89688281Y-57427713D01*
X89688281Y-57427713D02*
X89545424Y-57427713D01*
X89545424Y-57427713D02*
X89354948Y-57380094D01*
X89354948Y-57380094D02*
X89259710Y-57332475D01*
X89259710Y-57332475D02*
X89164472Y-57237237D01*
X89164472Y-57237237D02*
X89116853Y-57094380D01*
X89116853Y-57094380D02*
X89116853Y-56999142D01*
X89116853Y-56999142D02*
X89164472Y-56856285D01*
X89164472Y-56856285D02*
X89212091Y-56808666D01*
X89116853Y-55903904D02*
X89116853Y-56380094D01*
X89116853Y-56380094D02*
X89593043Y-56427713D01*
X89593043Y-56427713D02*
X89545424Y-56380094D01*
X89545424Y-56380094D02*
X89497805Y-56284856D01*
X89497805Y-56284856D02*
X89497805Y-56046761D01*
X89497805Y-56046761D02*
X89545424Y-55951523D01*
X89545424Y-55951523D02*
X89593043Y-55903904D01*
X89593043Y-55903904D02*
X89688281Y-55856285D01*
X89688281Y-55856285D02*
X89926376Y-55856285D01*
X89926376Y-55856285D02*
X90021614Y-55903904D01*
X90021614Y-55903904D02*
X90069234Y-55951523D01*
X90069234Y-55951523D02*
X90116853Y-56046761D01*
X90116853Y-56046761D02*
X90116853Y-56284856D01*
X90116853Y-56284856D02*
X90069234Y-56380094D01*
X90069234Y-56380094D02*
X90021614Y-56427713D01*
X31966819Y-75691904D02*
X32776342Y-75691904D01*
X32776342Y-75691904D02*
X32871580Y-75644285D01*
X32871580Y-75644285D02*
X32919200Y-75596666D01*
X32919200Y-75596666D02*
X32966819Y-75501428D01*
X32966819Y-75501428D02*
X32966819Y-75310952D01*
X32966819Y-75310952D02*
X32919200Y-75215714D01*
X32919200Y-75215714D02*
X32871580Y-75168095D01*
X32871580Y-75168095D02*
X32776342Y-75120476D01*
X32776342Y-75120476D02*
X31966819Y-75120476D01*
X32395390Y-74501428D02*
X32347771Y-74596666D01*
X32347771Y-74596666D02*
X32300152Y-74644285D01*
X32300152Y-74644285D02*
X32204914Y-74691904D01*
X32204914Y-74691904D02*
X32157295Y-74691904D01*
X32157295Y-74691904D02*
X32062057Y-74644285D01*
X32062057Y-74644285D02*
X32014438Y-74596666D01*
X32014438Y-74596666D02*
X31966819Y-74501428D01*
X31966819Y-74501428D02*
X31966819Y-74310952D01*
X31966819Y-74310952D02*
X32014438Y-74215714D01*
X32014438Y-74215714D02*
X32062057Y-74168095D01*
X32062057Y-74168095D02*
X32157295Y-74120476D01*
X32157295Y-74120476D02*
X32204914Y-74120476D01*
X32204914Y-74120476D02*
X32300152Y-74168095D01*
X32300152Y-74168095D02*
X32347771Y-74215714D01*
X32347771Y-74215714D02*
X32395390Y-74310952D01*
X32395390Y-74310952D02*
X32395390Y-74501428D01*
X32395390Y-74501428D02*
X32443009Y-74596666D01*
X32443009Y-74596666D02*
X32490628Y-74644285D01*
X32490628Y-74644285D02*
X32585866Y-74691904D01*
X32585866Y-74691904D02*
X32776342Y-74691904D01*
X32776342Y-74691904D02*
X32871580Y-74644285D01*
X32871580Y-74644285D02*
X32919200Y-74596666D01*
X32919200Y-74596666D02*
X32966819Y-74501428D01*
X32966819Y-74501428D02*
X32966819Y-74310952D01*
X32966819Y-74310952D02*
X32919200Y-74215714D01*
X32919200Y-74215714D02*
X32871580Y-74168095D01*
X32871580Y-74168095D02*
X32776342Y-74120476D01*
X32776342Y-74120476D02*
X32585866Y-74120476D01*
X32585866Y-74120476D02*
X32490628Y-74168095D01*
X32490628Y-74168095D02*
X32443009Y-74215714D01*
X32443009Y-74215714D02*
X32395390Y-74310952D01*
X46809819Y-82841904D02*
X46809819Y-82175238D01*
X46809819Y-82175238D02*
X47809819Y-82603809D01*
X47143152Y-81365714D02*
X47809819Y-81365714D01*
X46762200Y-81603809D02*
X47476485Y-81841904D01*
X47476485Y-81841904D02*
X47476485Y-81222857D01*
X47809819Y-80841904D02*
X46809819Y-80841904D01*
X47286009Y-80841904D02*
X47286009Y-80270476D01*
X47809819Y-80270476D02*
X46809819Y-80270476D01*
X47714580Y-79222857D02*
X47762200Y-79270476D01*
X47762200Y-79270476D02*
X47809819Y-79413333D01*
X47809819Y-79413333D02*
X47809819Y-79508571D01*
X47809819Y-79508571D02*
X47762200Y-79651428D01*
X47762200Y-79651428D02*
X47666961Y-79746666D01*
X47666961Y-79746666D02*
X47571723Y-79794285D01*
X47571723Y-79794285D02*
X47381247Y-79841904D01*
X47381247Y-79841904D02*
X47238390Y-79841904D01*
X47238390Y-79841904D02*
X47047914Y-79794285D01*
X47047914Y-79794285D02*
X46952676Y-79746666D01*
X46952676Y-79746666D02*
X46857438Y-79651428D01*
X46857438Y-79651428D02*
X46809819Y-79508571D01*
X46809819Y-79508571D02*
X46809819Y-79413333D01*
X46809819Y-79413333D02*
X46857438Y-79270476D01*
X46857438Y-79270476D02*
X46905057Y-79222857D01*
X46905057Y-78841904D02*
X46857438Y-78794285D01*
X46857438Y-78794285D02*
X46809819Y-78699047D01*
X46809819Y-78699047D02*
X46809819Y-78460952D01*
X46809819Y-78460952D02*
X46857438Y-78365714D01*
X46857438Y-78365714D02*
X46905057Y-78318095D01*
X46905057Y-78318095D02*
X47000295Y-78270476D01*
X47000295Y-78270476D02*
X47095533Y-78270476D01*
X47095533Y-78270476D02*
X47238390Y-78318095D01*
X47238390Y-78318095D02*
X47809819Y-78889523D01*
X47809819Y-78889523D02*
X47809819Y-78270476D01*
X47143152Y-77413333D02*
X47809819Y-77413333D01*
X46762200Y-77651428D02*
X47476485Y-77889523D01*
X47476485Y-77889523D02*
X47476485Y-77270476D01*
X46809819Y-76413333D02*
X46809819Y-76889523D01*
X46809819Y-76889523D02*
X47286009Y-76937142D01*
X47286009Y-76937142D02*
X47238390Y-76889523D01*
X47238390Y-76889523D02*
X47190771Y-76794285D01*
X47190771Y-76794285D02*
X47190771Y-76556190D01*
X47190771Y-76556190D02*
X47238390Y-76460952D01*
X47238390Y-76460952D02*
X47286009Y-76413333D01*
X47286009Y-76413333D02*
X47381247Y-76365714D01*
X47381247Y-76365714D02*
X47619342Y-76365714D01*
X47619342Y-76365714D02*
X47714580Y-76413333D01*
X47714580Y-76413333D02*
X47762200Y-76460952D01*
X47762200Y-76460952D02*
X47809819Y-76556190D01*
X47809819Y-76556190D02*
X47809819Y-76794285D01*
X47809819Y-76794285D02*
X47762200Y-76889523D01*
X47762200Y-76889523D02*
X47714580Y-76937142D01*
X24425580Y-83224666D02*
X24473200Y-83272285D01*
X24473200Y-83272285D02*
X24520819Y-83415142D01*
X24520819Y-83415142D02*
X24520819Y-83510380D01*
X24520819Y-83510380D02*
X24473200Y-83653237D01*
X24473200Y-83653237D02*
X24377961Y-83748475D01*
X24377961Y-83748475D02*
X24282723Y-83796094D01*
X24282723Y-83796094D02*
X24092247Y-83843713D01*
X24092247Y-83843713D02*
X23949390Y-83843713D01*
X23949390Y-83843713D02*
X23758914Y-83796094D01*
X23758914Y-83796094D02*
X23663676Y-83748475D01*
X23663676Y-83748475D02*
X23568438Y-83653237D01*
X23568438Y-83653237D02*
X23520819Y-83510380D01*
X23520819Y-83510380D02*
X23520819Y-83415142D01*
X23520819Y-83415142D02*
X23568438Y-83272285D01*
X23568438Y-83272285D02*
X23616057Y-83224666D01*
X23520819Y-82891332D02*
X23520819Y-82272285D01*
X23520819Y-82272285D02*
X23901771Y-82605618D01*
X23901771Y-82605618D02*
X23901771Y-82462761D01*
X23901771Y-82462761D02*
X23949390Y-82367523D01*
X23949390Y-82367523D02*
X23997009Y-82319904D01*
X23997009Y-82319904D02*
X24092247Y-82272285D01*
X24092247Y-82272285D02*
X24330342Y-82272285D01*
X24330342Y-82272285D02*
X24425580Y-82319904D01*
X24425580Y-82319904D02*
X24473200Y-82367523D01*
X24473200Y-82367523D02*
X24520819Y-82462761D01*
X24520819Y-82462761D02*
X24520819Y-82748475D01*
X24520819Y-82748475D02*
X24473200Y-82843713D01*
X24473200Y-82843713D02*
X24425580Y-82891332D01*
X29220819Y-84605619D02*
X29220819Y-85177047D01*
X29220819Y-84891333D02*
X28220819Y-84891333D01*
X28220819Y-84891333D02*
X28363676Y-84986571D01*
X28363676Y-84986571D02*
X28458914Y-85081809D01*
X28458914Y-85081809D02*
X28506533Y-85177047D01*
X28220819Y-83986571D02*
X28220819Y-83891333D01*
X28220819Y-83891333D02*
X28268438Y-83796095D01*
X28268438Y-83796095D02*
X28316057Y-83748476D01*
X28316057Y-83748476D02*
X28411295Y-83700857D01*
X28411295Y-83700857D02*
X28601771Y-83653238D01*
X28601771Y-83653238D02*
X28839866Y-83653238D01*
X28839866Y-83653238D02*
X29030342Y-83700857D01*
X29030342Y-83700857D02*
X29125580Y-83748476D01*
X29125580Y-83748476D02*
X29173200Y-83796095D01*
X29173200Y-83796095D02*
X29220819Y-83891333D01*
X29220819Y-83891333D02*
X29220819Y-83986571D01*
X29220819Y-83986571D02*
X29173200Y-84081809D01*
X29173200Y-84081809D02*
X29125580Y-84129428D01*
X29125580Y-84129428D02*
X29030342Y-84177047D01*
X29030342Y-84177047D02*
X28839866Y-84224666D01*
X28839866Y-84224666D02*
X28601771Y-84224666D01*
X28601771Y-84224666D02*
X28411295Y-84177047D01*
X28411295Y-84177047D02*
X28316057Y-84129428D01*
X28316057Y-84129428D02*
X28268438Y-84081809D01*
X28268438Y-84081809D02*
X28220819Y-83986571D01*
X28220819Y-83034190D02*
X28220819Y-82938952D01*
X28220819Y-82938952D02*
X28268438Y-82843714D01*
X28268438Y-82843714D02*
X28316057Y-82796095D01*
X28316057Y-82796095D02*
X28411295Y-82748476D01*
X28411295Y-82748476D02*
X28601771Y-82700857D01*
X28601771Y-82700857D02*
X28839866Y-82700857D01*
X28839866Y-82700857D02*
X29030342Y-82748476D01*
X29030342Y-82748476D02*
X29125580Y-82796095D01*
X29125580Y-82796095D02*
X29173200Y-82843714D01*
X29173200Y-82843714D02*
X29220819Y-82938952D01*
X29220819Y-82938952D02*
X29220819Y-83034190D01*
X29220819Y-83034190D02*
X29173200Y-83129428D01*
X29173200Y-83129428D02*
X29125580Y-83177047D01*
X29125580Y-83177047D02*
X29030342Y-83224666D01*
X29030342Y-83224666D02*
X28839866Y-83272285D01*
X28839866Y-83272285D02*
X28601771Y-83272285D01*
X28601771Y-83272285D02*
X28411295Y-83224666D01*
X28411295Y-83224666D02*
X28316057Y-83177047D01*
X28316057Y-83177047D02*
X28268438Y-83129428D01*
X28268438Y-83129428D02*
X28220819Y-83034190D01*
X28554152Y-81843714D02*
X29220819Y-81843714D01*
X28554152Y-82272285D02*
X29077961Y-82272285D01*
X29077961Y-82272285D02*
X29173200Y-82224666D01*
X29173200Y-82224666D02*
X29220819Y-82129428D01*
X29220819Y-82129428D02*
X29220819Y-81986571D01*
X29220819Y-81986571D02*
X29173200Y-81891333D01*
X29173200Y-81891333D02*
X29125580Y-81843714D01*
X28697009Y-81034190D02*
X28697009Y-81367523D01*
X29220819Y-81367523D02*
X28220819Y-81367523D01*
X28220819Y-81367523D02*
X28220819Y-80891333D01*
X110087580Y-58078666D02*
X110135200Y-58126285D01*
X110135200Y-58126285D02*
X110182819Y-58269142D01*
X110182819Y-58269142D02*
X110182819Y-58364380D01*
X110182819Y-58364380D02*
X110135200Y-58507237D01*
X110135200Y-58507237D02*
X110039961Y-58602475D01*
X110039961Y-58602475D02*
X109944723Y-58650094D01*
X109944723Y-58650094D02*
X109754247Y-58697713D01*
X109754247Y-58697713D02*
X109611390Y-58697713D01*
X109611390Y-58697713D02*
X109420914Y-58650094D01*
X109420914Y-58650094D02*
X109325676Y-58602475D01*
X109325676Y-58602475D02*
X109230438Y-58507237D01*
X109230438Y-58507237D02*
X109182819Y-58364380D01*
X109182819Y-58364380D02*
X109182819Y-58269142D01*
X109182819Y-58269142D02*
X109230438Y-58126285D01*
X109230438Y-58126285D02*
X109278057Y-58078666D01*
X109516152Y-57221523D02*
X110182819Y-57221523D01*
X109135200Y-57459618D02*
X109849485Y-57697713D01*
X109849485Y-57697713D02*
X109849485Y-57078666D01*
X30585580Y-79922666D02*
X30633200Y-79970285D01*
X30633200Y-79970285D02*
X30680819Y-80113142D01*
X30680819Y-80113142D02*
X30680819Y-80208380D01*
X30680819Y-80208380D02*
X30633200Y-80351237D01*
X30633200Y-80351237D02*
X30537961Y-80446475D01*
X30537961Y-80446475D02*
X30442723Y-80494094D01*
X30442723Y-80494094D02*
X30252247Y-80541713D01*
X30252247Y-80541713D02*
X30109390Y-80541713D01*
X30109390Y-80541713D02*
X29918914Y-80494094D01*
X29918914Y-80494094D02*
X29823676Y-80446475D01*
X29823676Y-80446475D02*
X29728438Y-80351237D01*
X29728438Y-80351237D02*
X29680819Y-80208380D01*
X29680819Y-80208380D02*
X29680819Y-80113142D01*
X29680819Y-80113142D02*
X29728438Y-79970285D01*
X29728438Y-79970285D02*
X29776057Y-79922666D01*
X29776057Y-79541713D02*
X29728438Y-79494094D01*
X29728438Y-79494094D02*
X29680819Y-79398856D01*
X29680819Y-79398856D02*
X29680819Y-79160761D01*
X29680819Y-79160761D02*
X29728438Y-79065523D01*
X29728438Y-79065523D02*
X29776057Y-79017904D01*
X29776057Y-79017904D02*
X29871295Y-78970285D01*
X29871295Y-78970285D02*
X29966533Y-78970285D01*
X29966533Y-78970285D02*
X30109390Y-79017904D01*
X30109390Y-79017904D02*
X30680819Y-79589332D01*
X30680819Y-79589332D02*
X30680819Y-78970285D01*
X71788095Y-58890819D02*
X71788095Y-59700342D01*
X71788095Y-59700342D02*
X71835714Y-59795580D01*
X71835714Y-59795580D02*
X71883333Y-59843200D01*
X71883333Y-59843200D02*
X71978571Y-59890819D01*
X71978571Y-59890819D02*
X72169047Y-59890819D01*
X72169047Y-59890819D02*
X72264285Y-59843200D01*
X72264285Y-59843200D02*
X72311904Y-59795580D01*
X72311904Y-59795580D02*
X72359523Y-59700342D01*
X72359523Y-59700342D02*
X72359523Y-58890819D01*
X73264285Y-59224152D02*
X73264285Y-59890819D01*
X73026190Y-58843200D02*
X72788095Y-59557485D01*
X72788095Y-59557485D02*
X73407142Y-59557485D01*
X61048571Y-70554580D02*
X61000952Y-70602200D01*
X61000952Y-70602200D02*
X60858095Y-70649819D01*
X60858095Y-70649819D02*
X60762857Y-70649819D01*
X60762857Y-70649819D02*
X60620000Y-70602200D01*
X60620000Y-70602200D02*
X60524762Y-70506961D01*
X60524762Y-70506961D02*
X60477143Y-70411723D01*
X60477143Y-70411723D02*
X60429524Y-70221247D01*
X60429524Y-70221247D02*
X60429524Y-70078390D01*
X60429524Y-70078390D02*
X60477143Y-69887914D01*
X60477143Y-69887914D02*
X60524762Y-69792676D01*
X60524762Y-69792676D02*
X60620000Y-69697438D01*
X60620000Y-69697438D02*
X60762857Y-69649819D01*
X60762857Y-69649819D02*
X60858095Y-69649819D01*
X60858095Y-69649819D02*
X61000952Y-69697438D01*
X61000952Y-69697438D02*
X61048571Y-69745057D01*
X61667619Y-70173628D02*
X61667619Y-70649819D01*
X61334286Y-69649819D02*
X61667619Y-70173628D01*
X61667619Y-70173628D02*
X62000952Y-69649819D01*
X62762857Y-69649819D02*
X62572381Y-69649819D01*
X62572381Y-69649819D02*
X62477143Y-69697438D01*
X62477143Y-69697438D02*
X62429524Y-69745057D01*
X62429524Y-69745057D02*
X62334286Y-69887914D01*
X62334286Y-69887914D02*
X62286667Y-70078390D01*
X62286667Y-70078390D02*
X62286667Y-70459342D01*
X62286667Y-70459342D02*
X62334286Y-70554580D01*
X62334286Y-70554580D02*
X62381905Y-70602200D01*
X62381905Y-70602200D02*
X62477143Y-70649819D01*
X62477143Y-70649819D02*
X62667619Y-70649819D01*
X62667619Y-70649819D02*
X62762857Y-70602200D01*
X62762857Y-70602200D02*
X62810476Y-70554580D01*
X62810476Y-70554580D02*
X62858095Y-70459342D01*
X62858095Y-70459342D02*
X62858095Y-70221247D01*
X62858095Y-70221247D02*
X62810476Y-70126009D01*
X62810476Y-70126009D02*
X62762857Y-70078390D01*
X62762857Y-70078390D02*
X62667619Y-70030771D01*
X62667619Y-70030771D02*
X62477143Y-70030771D01*
X62477143Y-70030771D02*
X62381905Y-70078390D01*
X62381905Y-70078390D02*
X62334286Y-70126009D01*
X62334286Y-70126009D02*
X62286667Y-70221247D01*
X63239048Y-69745057D02*
X63286667Y-69697438D01*
X63286667Y-69697438D02*
X63381905Y-69649819D01*
X63381905Y-69649819D02*
X63620000Y-69649819D01*
X63620000Y-69649819D02*
X63715238Y-69697438D01*
X63715238Y-69697438D02*
X63762857Y-69745057D01*
X63762857Y-69745057D02*
X63810476Y-69840295D01*
X63810476Y-69840295D02*
X63810476Y-69935533D01*
X63810476Y-69935533D02*
X63762857Y-70078390D01*
X63762857Y-70078390D02*
X63191429Y-70649819D01*
X63191429Y-70649819D02*
X63810476Y-70649819D01*
X64191429Y-69745057D02*
X64239048Y-69697438D01*
X64239048Y-69697438D02*
X64334286Y-69649819D01*
X64334286Y-69649819D02*
X64572381Y-69649819D01*
X64572381Y-69649819D02*
X64667619Y-69697438D01*
X64667619Y-69697438D02*
X64715238Y-69745057D01*
X64715238Y-69745057D02*
X64762857Y-69840295D01*
X64762857Y-69840295D02*
X64762857Y-69935533D01*
X64762857Y-69935533D02*
X64715238Y-70078390D01*
X64715238Y-70078390D02*
X64143810Y-70649819D01*
X64143810Y-70649819D02*
X64762857Y-70649819D01*
X65667619Y-69649819D02*
X65191429Y-69649819D01*
X65191429Y-69649819D02*
X65143810Y-70126009D01*
X65143810Y-70126009D02*
X65191429Y-70078390D01*
X65191429Y-70078390D02*
X65286667Y-70030771D01*
X65286667Y-70030771D02*
X65524762Y-70030771D01*
X65524762Y-70030771D02*
X65620000Y-70078390D01*
X65620000Y-70078390D02*
X65667619Y-70126009D01*
X65667619Y-70126009D02*
X65715238Y-70221247D01*
X65715238Y-70221247D02*
X65715238Y-70459342D01*
X65715238Y-70459342D02*
X65667619Y-70554580D01*
X65667619Y-70554580D02*
X65620000Y-70602200D01*
X65620000Y-70602200D02*
X65524762Y-70649819D01*
X65524762Y-70649819D02*
X65286667Y-70649819D01*
X65286667Y-70649819D02*
X65191429Y-70602200D01*
X65191429Y-70602200D02*
X65143810Y-70554580D01*
X66572381Y-69649819D02*
X66381905Y-69649819D01*
X66381905Y-69649819D02*
X66286667Y-69697438D01*
X66286667Y-69697438D02*
X66239048Y-69745057D01*
X66239048Y-69745057D02*
X66143810Y-69887914D01*
X66143810Y-69887914D02*
X66096191Y-70078390D01*
X66096191Y-70078390D02*
X66096191Y-70459342D01*
X66096191Y-70459342D02*
X66143810Y-70554580D01*
X66143810Y-70554580D02*
X66191429Y-70602200D01*
X66191429Y-70602200D02*
X66286667Y-70649819D01*
X66286667Y-70649819D02*
X66477143Y-70649819D01*
X66477143Y-70649819D02*
X66572381Y-70602200D01*
X66572381Y-70602200D02*
X66620000Y-70554580D01*
X66620000Y-70554580D02*
X66667619Y-70459342D01*
X66667619Y-70459342D02*
X66667619Y-70221247D01*
X66667619Y-70221247D02*
X66620000Y-70126009D01*
X66620000Y-70126009D02*
X66572381Y-70078390D01*
X66572381Y-70078390D02*
X66477143Y-70030771D01*
X66477143Y-70030771D02*
X66286667Y-70030771D01*
X66286667Y-70030771D02*
X66191429Y-70078390D01*
X66191429Y-70078390D02*
X66143810Y-70126009D01*
X66143810Y-70126009D02*
X66096191Y-70221247D01*
X67096191Y-70268866D02*
X67858096Y-70268866D01*
X68239048Y-69649819D02*
X68905714Y-69649819D01*
X68905714Y-69649819D02*
X68477143Y-70649819D01*
X69477143Y-69649819D02*
X69572381Y-69649819D01*
X69572381Y-69649819D02*
X69667619Y-69697438D01*
X69667619Y-69697438D02*
X69715238Y-69745057D01*
X69715238Y-69745057D02*
X69762857Y-69840295D01*
X69762857Y-69840295D02*
X69810476Y-70030771D01*
X69810476Y-70030771D02*
X69810476Y-70268866D01*
X69810476Y-70268866D02*
X69762857Y-70459342D01*
X69762857Y-70459342D02*
X69715238Y-70554580D01*
X69715238Y-70554580D02*
X69667619Y-70602200D01*
X69667619Y-70602200D02*
X69572381Y-70649819D01*
X69572381Y-70649819D02*
X69477143Y-70649819D01*
X69477143Y-70649819D02*
X69381905Y-70602200D01*
X69381905Y-70602200D02*
X69334286Y-70554580D01*
X69334286Y-70554580D02*
X69286667Y-70459342D01*
X69286667Y-70459342D02*
X69239048Y-70268866D01*
X69239048Y-70268866D02*
X69239048Y-70030771D01*
X69239048Y-70030771D02*
X69286667Y-69840295D01*
X69286667Y-69840295D02*
X69334286Y-69745057D01*
X69334286Y-69745057D02*
X69381905Y-69697438D01*
X69381905Y-69697438D02*
X69477143Y-69649819D01*
X70239048Y-70649819D02*
X70239048Y-69649819D01*
X70239048Y-69649819D02*
X70620000Y-69649819D01*
X70620000Y-69649819D02*
X70715238Y-69697438D01*
X70715238Y-69697438D02*
X70762857Y-69745057D01*
X70762857Y-69745057D02*
X70810476Y-69840295D01*
X70810476Y-69840295D02*
X70810476Y-69983152D01*
X70810476Y-69983152D02*
X70762857Y-70078390D01*
X70762857Y-70078390D02*
X70715238Y-70126009D01*
X70715238Y-70126009D02*
X70620000Y-70173628D01*
X70620000Y-70173628D02*
X70239048Y-70173628D01*
X71810476Y-70554580D02*
X71762857Y-70602200D01*
X71762857Y-70602200D02*
X71620000Y-70649819D01*
X71620000Y-70649819D02*
X71524762Y-70649819D01*
X71524762Y-70649819D02*
X71381905Y-70602200D01*
X71381905Y-70602200D02*
X71286667Y-70506961D01*
X71286667Y-70506961D02*
X71239048Y-70411723D01*
X71239048Y-70411723D02*
X71191429Y-70221247D01*
X71191429Y-70221247D02*
X71191429Y-70078390D01*
X71191429Y-70078390D02*
X71239048Y-69887914D01*
X71239048Y-69887914D02*
X71286667Y-69792676D01*
X71286667Y-69792676D02*
X71381905Y-69697438D01*
X71381905Y-69697438D02*
X71524762Y-69649819D01*
X71524762Y-69649819D02*
X71620000Y-69649819D01*
X71620000Y-69649819D02*
X71762857Y-69697438D01*
X71762857Y-69697438D02*
X71810476Y-69745057D01*
X114300063Y-58382819D02*
X114300063Y-59192342D01*
X114300063Y-59192342D02*
X114347682Y-59287580D01*
X114347682Y-59287580D02*
X114395301Y-59335200D01*
X114395301Y-59335200D02*
X114490539Y-59382819D01*
X114490539Y-59382819D02*
X114681015Y-59382819D01*
X114681015Y-59382819D02*
X114776253Y-59335200D01*
X114776253Y-59335200D02*
X114823872Y-59287580D01*
X114823872Y-59287580D02*
X114871491Y-59192342D01*
X114871491Y-59192342D02*
X114871491Y-58382819D01*
X115776253Y-58382819D02*
X115585777Y-58382819D01*
X115585777Y-58382819D02*
X115490539Y-58430438D01*
X115490539Y-58430438D02*
X115442920Y-58478057D01*
X115442920Y-58478057D02*
X115347682Y-58620914D01*
X115347682Y-58620914D02*
X115300063Y-58811390D01*
X115300063Y-58811390D02*
X115300063Y-59192342D01*
X115300063Y-59192342D02*
X115347682Y-59287580D01*
X115347682Y-59287580D02*
X115395301Y-59335200D01*
X115395301Y-59335200D02*
X115490539Y-59382819D01*
X115490539Y-59382819D02*
X115681015Y-59382819D01*
X115681015Y-59382819D02*
X115776253Y-59335200D01*
X115776253Y-59335200D02*
X115823872Y-59287580D01*
X115823872Y-59287580D02*
X115871491Y-59192342D01*
X115871491Y-59192342D02*
X115871491Y-58954247D01*
X115871491Y-58954247D02*
X115823872Y-58859009D01*
X115823872Y-58859009D02*
X115776253Y-58811390D01*
X115776253Y-58811390D02*
X115681015Y-58763771D01*
X115681015Y-58763771D02*
X115490539Y-58763771D01*
X115490539Y-58763771D02*
X115395301Y-58811390D01*
X115395301Y-58811390D02*
X115347682Y-58859009D01*
X115347682Y-58859009D02*
X115300063Y-58954247D01*
X109493586Y-68999819D02*
X110160252Y-68999819D01*
X110160252Y-68999819D02*
X109731681Y-69999819D01*
X110969776Y-69333152D02*
X110969776Y-69999819D01*
X110731681Y-68952200D02*
X110493586Y-69666485D01*
X110493586Y-69666485D02*
X111112633Y-69666485D01*
X111493586Y-69999819D02*
X111493586Y-68999819D01*
X111493586Y-69476009D02*
X112065014Y-69476009D01*
X112065014Y-69999819D02*
X112065014Y-68999819D01*
X113112633Y-69904580D02*
X113065014Y-69952200D01*
X113065014Y-69952200D02*
X112922157Y-69999819D01*
X112922157Y-69999819D02*
X112826919Y-69999819D01*
X112826919Y-69999819D02*
X112684062Y-69952200D01*
X112684062Y-69952200D02*
X112588824Y-69856961D01*
X112588824Y-69856961D02*
X112541205Y-69761723D01*
X112541205Y-69761723D02*
X112493586Y-69571247D01*
X112493586Y-69571247D02*
X112493586Y-69428390D01*
X112493586Y-69428390D02*
X112541205Y-69237914D01*
X112541205Y-69237914D02*
X112588824Y-69142676D01*
X112588824Y-69142676D02*
X112684062Y-69047438D01*
X112684062Y-69047438D02*
X112826919Y-68999819D01*
X112826919Y-68999819D02*
X112922157Y-68999819D01*
X112922157Y-68999819D02*
X113065014Y-69047438D01*
X113065014Y-69047438D02*
X113112633Y-69095057D01*
X113445967Y-68999819D02*
X114065014Y-68999819D01*
X114065014Y-68999819D02*
X113731681Y-69380771D01*
X113731681Y-69380771D02*
X113874538Y-69380771D01*
X113874538Y-69380771D02*
X113969776Y-69428390D01*
X113969776Y-69428390D02*
X114017395Y-69476009D01*
X114017395Y-69476009D02*
X114065014Y-69571247D01*
X114065014Y-69571247D02*
X114065014Y-69809342D01*
X114065014Y-69809342D02*
X114017395Y-69904580D01*
X114017395Y-69904580D02*
X113969776Y-69952200D01*
X113969776Y-69952200D02*
X113874538Y-69999819D01*
X113874538Y-69999819D02*
X113588824Y-69999819D01*
X113588824Y-69999819D02*
X113493586Y-69952200D01*
X113493586Y-69952200D02*
X113445967Y-69904580D01*
X114445967Y-69095057D02*
X114493586Y-69047438D01*
X114493586Y-69047438D02*
X114588824Y-68999819D01*
X114588824Y-68999819D02*
X114826919Y-68999819D01*
X114826919Y-68999819D02*
X114922157Y-69047438D01*
X114922157Y-69047438D02*
X114969776Y-69095057D01*
X114969776Y-69095057D02*
X115017395Y-69190295D01*
X115017395Y-69190295D02*
X115017395Y-69285533D01*
X115017395Y-69285533D02*
X114969776Y-69428390D01*
X114969776Y-69428390D02*
X114398348Y-69999819D01*
X114398348Y-69999819D02*
X115017395Y-69999819D01*
X94488129Y-57199819D02*
X94488129Y-58009342D01*
X94488129Y-58009342D02*
X94535748Y-58104580D01*
X94535748Y-58104580D02*
X94583367Y-58152200D01*
X94583367Y-58152200D02*
X94678605Y-58199819D01*
X94678605Y-58199819D02*
X94869081Y-58199819D01*
X94869081Y-58199819D02*
X94964319Y-58152200D01*
X94964319Y-58152200D02*
X95011938Y-58104580D01*
X95011938Y-58104580D02*
X95059557Y-58009342D01*
X95059557Y-58009342D02*
X95059557Y-57199819D01*
X95440510Y-57199819D02*
X96107176Y-57199819D01*
X96107176Y-57199819D02*
X95678605Y-58199819D01*
X89007795Y-68999819D02*
X89674461Y-68999819D01*
X89674461Y-68999819D02*
X89245890Y-69999819D01*
X90483985Y-69333152D02*
X90483985Y-69999819D01*
X90245890Y-68952200D02*
X90007795Y-69666485D01*
X90007795Y-69666485D02*
X90626842Y-69666485D01*
X91007795Y-69999819D02*
X91007795Y-68999819D01*
X91007795Y-69476009D02*
X91579223Y-69476009D01*
X91579223Y-69999819D02*
X91579223Y-68999819D01*
X92626842Y-69904580D02*
X92579223Y-69952200D01*
X92579223Y-69952200D02*
X92436366Y-69999819D01*
X92436366Y-69999819D02*
X92341128Y-69999819D01*
X92341128Y-69999819D02*
X92198271Y-69952200D01*
X92198271Y-69952200D02*
X92103033Y-69856961D01*
X92103033Y-69856961D02*
X92055414Y-69761723D01*
X92055414Y-69761723D02*
X92007795Y-69571247D01*
X92007795Y-69571247D02*
X92007795Y-69428390D01*
X92007795Y-69428390D02*
X92055414Y-69237914D01*
X92055414Y-69237914D02*
X92103033Y-69142676D01*
X92103033Y-69142676D02*
X92198271Y-69047438D01*
X92198271Y-69047438D02*
X92341128Y-68999819D01*
X92341128Y-68999819D02*
X92436366Y-68999819D01*
X92436366Y-68999819D02*
X92579223Y-69047438D01*
X92579223Y-69047438D02*
X92626842Y-69095057D01*
X93579223Y-69999819D02*
X93007795Y-69999819D01*
X93293509Y-69999819D02*
X93293509Y-68999819D01*
X93293509Y-68999819D02*
X93198271Y-69142676D01*
X93198271Y-69142676D02*
X93103033Y-69237914D01*
X93103033Y-69237914D02*
X93007795Y-69285533D01*
X93912557Y-68999819D02*
X94579223Y-68999819D01*
X94579223Y-68999819D02*
X94150652Y-69999819D01*
X94864938Y-68999819D02*
X95483985Y-68999819D01*
X95483985Y-68999819D02*
X95150652Y-69380771D01*
X95150652Y-69380771D02*
X95293509Y-69380771D01*
X95293509Y-69380771D02*
X95388747Y-69428390D01*
X95388747Y-69428390D02*
X95436366Y-69476009D01*
X95436366Y-69476009D02*
X95483985Y-69571247D01*
X95483985Y-69571247D02*
X95483985Y-69809342D01*
X95483985Y-69809342D02*
X95436366Y-69904580D01*
X95436366Y-69904580D02*
X95388747Y-69952200D01*
X95388747Y-69952200D02*
X95293509Y-69999819D01*
X95293509Y-69999819D02*
X95007795Y-69999819D01*
X95007795Y-69999819D02*
X94912557Y-69952200D01*
X94912557Y-69952200D02*
X94864938Y-69904580D01*
X119993613Y-58078666D02*
X120041233Y-58126285D01*
X120041233Y-58126285D02*
X120088852Y-58269142D01*
X120088852Y-58269142D02*
X120088852Y-58364380D01*
X120088852Y-58364380D02*
X120041233Y-58507237D01*
X120041233Y-58507237D02*
X119945994Y-58602475D01*
X119945994Y-58602475D02*
X119850756Y-58650094D01*
X119850756Y-58650094D02*
X119660280Y-58697713D01*
X119660280Y-58697713D02*
X119517423Y-58697713D01*
X119517423Y-58697713D02*
X119326947Y-58650094D01*
X119326947Y-58650094D02*
X119231709Y-58602475D01*
X119231709Y-58602475D02*
X119136471Y-58507237D01*
X119136471Y-58507237D02*
X119088852Y-58364380D01*
X119088852Y-58364380D02*
X119088852Y-58269142D01*
X119088852Y-58269142D02*
X119136471Y-58126285D01*
X119136471Y-58126285D02*
X119184090Y-58078666D01*
X119517423Y-57507237D02*
X119469804Y-57602475D01*
X119469804Y-57602475D02*
X119422185Y-57650094D01*
X119422185Y-57650094D02*
X119326947Y-57697713D01*
X119326947Y-57697713D02*
X119279328Y-57697713D01*
X119279328Y-57697713D02*
X119184090Y-57650094D01*
X119184090Y-57650094D02*
X119136471Y-57602475D01*
X119136471Y-57602475D02*
X119088852Y-57507237D01*
X119088852Y-57507237D02*
X119088852Y-57316761D01*
X119088852Y-57316761D02*
X119136471Y-57221523D01*
X119136471Y-57221523D02*
X119184090Y-57173904D01*
X119184090Y-57173904D02*
X119279328Y-57126285D01*
X119279328Y-57126285D02*
X119326947Y-57126285D01*
X119326947Y-57126285D02*
X119422185Y-57173904D01*
X119422185Y-57173904D02*
X119469804Y-57221523D01*
X119469804Y-57221523D02*
X119517423Y-57316761D01*
X119517423Y-57316761D02*
X119517423Y-57507237D01*
X119517423Y-57507237D02*
X119565042Y-57602475D01*
X119565042Y-57602475D02*
X119612661Y-57650094D01*
X119612661Y-57650094D02*
X119707899Y-57697713D01*
X119707899Y-57697713D02*
X119898375Y-57697713D01*
X119898375Y-57697713D02*
X119993613Y-57650094D01*
X119993613Y-57650094D02*
X120041233Y-57602475D01*
X120041233Y-57602475D02*
X120088852Y-57507237D01*
X120088852Y-57507237D02*
X120088852Y-57316761D01*
X120088852Y-57316761D02*
X120041233Y-57221523D01*
X120041233Y-57221523D02*
X119993613Y-57173904D01*
X119993613Y-57173904D02*
X119898375Y-57126285D01*
X119898375Y-57126285D02*
X119707899Y-57126285D01*
X119707899Y-57126285D02*
X119612661Y-57173904D01*
X119612661Y-57173904D02*
X119565042Y-57221523D01*
X119565042Y-57221523D02*
X119517423Y-57316761D01*
X48592928Y-58890819D02*
X48592928Y-59700342D01*
X48592928Y-59700342D02*
X48640547Y-59795580D01*
X48640547Y-59795580D02*
X48688166Y-59843200D01*
X48688166Y-59843200D02*
X48783404Y-59890819D01*
X48783404Y-59890819D02*
X48973880Y-59890819D01*
X48973880Y-59890819D02*
X49069118Y-59843200D01*
X49069118Y-59843200D02*
X49116737Y-59795580D01*
X49116737Y-59795580D02*
X49164356Y-59700342D01*
X49164356Y-59700342D02*
X49164356Y-58890819D01*
X49592928Y-58986057D02*
X49640547Y-58938438D01*
X49640547Y-58938438D02*
X49735785Y-58890819D01*
X49735785Y-58890819D02*
X49973880Y-58890819D01*
X49973880Y-58890819D02*
X50069118Y-58938438D01*
X50069118Y-58938438D02*
X50116737Y-58986057D01*
X50116737Y-58986057D02*
X50164356Y-59081295D01*
X50164356Y-59081295D02*
X50164356Y-59176533D01*
X50164356Y-59176533D02*
X50116737Y-59319390D01*
X50116737Y-59319390D02*
X49545309Y-59890819D01*
X49545309Y-59890819D02*
X50164356Y-59890819D01*
X38108571Y-70554580D02*
X38060952Y-70602200D01*
X38060952Y-70602200D02*
X37918095Y-70649819D01*
X37918095Y-70649819D02*
X37822857Y-70649819D01*
X37822857Y-70649819D02*
X37680000Y-70602200D01*
X37680000Y-70602200D02*
X37584762Y-70506961D01*
X37584762Y-70506961D02*
X37537143Y-70411723D01*
X37537143Y-70411723D02*
X37489524Y-70221247D01*
X37489524Y-70221247D02*
X37489524Y-70078390D01*
X37489524Y-70078390D02*
X37537143Y-69887914D01*
X37537143Y-69887914D02*
X37584762Y-69792676D01*
X37584762Y-69792676D02*
X37680000Y-69697438D01*
X37680000Y-69697438D02*
X37822857Y-69649819D01*
X37822857Y-69649819D02*
X37918095Y-69649819D01*
X37918095Y-69649819D02*
X38060952Y-69697438D01*
X38060952Y-69697438D02*
X38108571Y-69745057D01*
X38727619Y-70173628D02*
X38727619Y-70649819D01*
X38394286Y-69649819D02*
X38727619Y-70173628D01*
X38727619Y-70173628D02*
X39060952Y-69649819D01*
X39822857Y-69649819D02*
X39632381Y-69649819D01*
X39632381Y-69649819D02*
X39537143Y-69697438D01*
X39537143Y-69697438D02*
X39489524Y-69745057D01*
X39489524Y-69745057D02*
X39394286Y-69887914D01*
X39394286Y-69887914D02*
X39346667Y-70078390D01*
X39346667Y-70078390D02*
X39346667Y-70459342D01*
X39346667Y-70459342D02*
X39394286Y-70554580D01*
X39394286Y-70554580D02*
X39441905Y-70602200D01*
X39441905Y-70602200D02*
X39537143Y-70649819D01*
X39537143Y-70649819D02*
X39727619Y-70649819D01*
X39727619Y-70649819D02*
X39822857Y-70602200D01*
X39822857Y-70602200D02*
X39870476Y-70554580D01*
X39870476Y-70554580D02*
X39918095Y-70459342D01*
X39918095Y-70459342D02*
X39918095Y-70221247D01*
X39918095Y-70221247D02*
X39870476Y-70126009D01*
X39870476Y-70126009D02*
X39822857Y-70078390D01*
X39822857Y-70078390D02*
X39727619Y-70030771D01*
X39727619Y-70030771D02*
X39537143Y-70030771D01*
X39537143Y-70030771D02*
X39441905Y-70078390D01*
X39441905Y-70078390D02*
X39394286Y-70126009D01*
X39394286Y-70126009D02*
X39346667Y-70221247D01*
X40299048Y-69745057D02*
X40346667Y-69697438D01*
X40346667Y-69697438D02*
X40441905Y-69649819D01*
X40441905Y-69649819D02*
X40680000Y-69649819D01*
X40680000Y-69649819D02*
X40775238Y-69697438D01*
X40775238Y-69697438D02*
X40822857Y-69745057D01*
X40822857Y-69745057D02*
X40870476Y-69840295D01*
X40870476Y-69840295D02*
X40870476Y-69935533D01*
X40870476Y-69935533D02*
X40822857Y-70078390D01*
X40822857Y-70078390D02*
X40251429Y-70649819D01*
X40251429Y-70649819D02*
X40870476Y-70649819D01*
X41251429Y-69745057D02*
X41299048Y-69697438D01*
X41299048Y-69697438D02*
X41394286Y-69649819D01*
X41394286Y-69649819D02*
X41632381Y-69649819D01*
X41632381Y-69649819D02*
X41727619Y-69697438D01*
X41727619Y-69697438D02*
X41775238Y-69745057D01*
X41775238Y-69745057D02*
X41822857Y-69840295D01*
X41822857Y-69840295D02*
X41822857Y-69935533D01*
X41822857Y-69935533D02*
X41775238Y-70078390D01*
X41775238Y-70078390D02*
X41203810Y-70649819D01*
X41203810Y-70649819D02*
X41822857Y-70649819D01*
X42727619Y-69649819D02*
X42251429Y-69649819D01*
X42251429Y-69649819D02*
X42203810Y-70126009D01*
X42203810Y-70126009D02*
X42251429Y-70078390D01*
X42251429Y-70078390D02*
X42346667Y-70030771D01*
X42346667Y-70030771D02*
X42584762Y-70030771D01*
X42584762Y-70030771D02*
X42680000Y-70078390D01*
X42680000Y-70078390D02*
X42727619Y-70126009D01*
X42727619Y-70126009D02*
X42775238Y-70221247D01*
X42775238Y-70221247D02*
X42775238Y-70459342D01*
X42775238Y-70459342D02*
X42727619Y-70554580D01*
X42727619Y-70554580D02*
X42680000Y-70602200D01*
X42680000Y-70602200D02*
X42584762Y-70649819D01*
X42584762Y-70649819D02*
X42346667Y-70649819D01*
X42346667Y-70649819D02*
X42251429Y-70602200D01*
X42251429Y-70602200D02*
X42203810Y-70554580D01*
X43632381Y-69649819D02*
X43441905Y-69649819D01*
X43441905Y-69649819D02*
X43346667Y-69697438D01*
X43346667Y-69697438D02*
X43299048Y-69745057D01*
X43299048Y-69745057D02*
X43203810Y-69887914D01*
X43203810Y-69887914D02*
X43156191Y-70078390D01*
X43156191Y-70078390D02*
X43156191Y-70459342D01*
X43156191Y-70459342D02*
X43203810Y-70554580D01*
X43203810Y-70554580D02*
X43251429Y-70602200D01*
X43251429Y-70602200D02*
X43346667Y-70649819D01*
X43346667Y-70649819D02*
X43537143Y-70649819D01*
X43537143Y-70649819D02*
X43632381Y-70602200D01*
X43632381Y-70602200D02*
X43680000Y-70554580D01*
X43680000Y-70554580D02*
X43727619Y-70459342D01*
X43727619Y-70459342D02*
X43727619Y-70221247D01*
X43727619Y-70221247D02*
X43680000Y-70126009D01*
X43680000Y-70126009D02*
X43632381Y-70078390D01*
X43632381Y-70078390D02*
X43537143Y-70030771D01*
X43537143Y-70030771D02*
X43346667Y-70030771D01*
X43346667Y-70030771D02*
X43251429Y-70078390D01*
X43251429Y-70078390D02*
X43203810Y-70126009D01*
X43203810Y-70126009D02*
X43156191Y-70221247D01*
X44156191Y-70268866D02*
X44918096Y-70268866D01*
X45299048Y-69649819D02*
X45965714Y-69649819D01*
X45965714Y-69649819D02*
X45537143Y-70649819D01*
X46537143Y-69649819D02*
X46632381Y-69649819D01*
X46632381Y-69649819D02*
X46727619Y-69697438D01*
X46727619Y-69697438D02*
X46775238Y-69745057D01*
X46775238Y-69745057D02*
X46822857Y-69840295D01*
X46822857Y-69840295D02*
X46870476Y-70030771D01*
X46870476Y-70030771D02*
X46870476Y-70268866D01*
X46870476Y-70268866D02*
X46822857Y-70459342D01*
X46822857Y-70459342D02*
X46775238Y-70554580D01*
X46775238Y-70554580D02*
X46727619Y-70602200D01*
X46727619Y-70602200D02*
X46632381Y-70649819D01*
X46632381Y-70649819D02*
X46537143Y-70649819D01*
X46537143Y-70649819D02*
X46441905Y-70602200D01*
X46441905Y-70602200D02*
X46394286Y-70554580D01*
X46394286Y-70554580D02*
X46346667Y-70459342D01*
X46346667Y-70459342D02*
X46299048Y-70268866D01*
X46299048Y-70268866D02*
X46299048Y-70030771D01*
X46299048Y-70030771D02*
X46346667Y-69840295D01*
X46346667Y-69840295D02*
X46394286Y-69745057D01*
X46394286Y-69745057D02*
X46441905Y-69697438D01*
X46441905Y-69697438D02*
X46537143Y-69649819D01*
X47299048Y-70649819D02*
X47299048Y-69649819D01*
X47299048Y-69649819D02*
X47680000Y-69649819D01*
X47680000Y-69649819D02*
X47775238Y-69697438D01*
X47775238Y-69697438D02*
X47822857Y-69745057D01*
X47822857Y-69745057D02*
X47870476Y-69840295D01*
X47870476Y-69840295D02*
X47870476Y-69983152D01*
X47870476Y-69983152D02*
X47822857Y-70078390D01*
X47822857Y-70078390D02*
X47775238Y-70126009D01*
X47775238Y-70126009D02*
X47680000Y-70173628D01*
X47680000Y-70173628D02*
X47299048Y-70173628D01*
X48870476Y-70554580D02*
X48822857Y-70602200D01*
X48822857Y-70602200D02*
X48680000Y-70649819D01*
X48680000Y-70649819D02*
X48584762Y-70649819D01*
X48584762Y-70649819D02*
X48441905Y-70602200D01*
X48441905Y-70602200D02*
X48346667Y-70506961D01*
X48346667Y-70506961D02*
X48299048Y-70411723D01*
X48299048Y-70411723D02*
X48251429Y-70221247D01*
X48251429Y-70221247D02*
X48251429Y-70078390D01*
X48251429Y-70078390D02*
X48299048Y-69887914D01*
X48299048Y-69887914D02*
X48346667Y-69792676D01*
X48346667Y-69792676D02*
X48441905Y-69697438D01*
X48441905Y-69697438D02*
X48584762Y-69649819D01*
X48584762Y-69649819D02*
X48680000Y-69649819D01*
X48680000Y-69649819D02*
X48822857Y-69697438D01*
X48822857Y-69697438D02*
X48870476Y-69745057D01*
X26082666Y-70828819D02*
X26082666Y-71543104D01*
X26082666Y-71543104D02*
X26035047Y-71685961D01*
X26035047Y-71685961D02*
X25939809Y-71781200D01*
X25939809Y-71781200D02*
X25796952Y-71828819D01*
X25796952Y-71828819D02*
X25701714Y-71828819D01*
X26463619Y-70828819D02*
X27082666Y-70828819D01*
X27082666Y-70828819D02*
X26749333Y-71209771D01*
X26749333Y-71209771D02*
X26892190Y-71209771D01*
X26892190Y-71209771D02*
X26987428Y-71257390D01*
X26987428Y-71257390D02*
X27035047Y-71305009D01*
X27035047Y-71305009D02*
X27082666Y-71400247D01*
X27082666Y-71400247D02*
X27082666Y-71638342D01*
X27082666Y-71638342D02*
X27035047Y-71733580D01*
X27035047Y-71733580D02*
X26987428Y-71781200D01*
X26987428Y-71781200D02*
X26892190Y-71828819D01*
X26892190Y-71828819D02*
X26606476Y-71828819D01*
X26606476Y-71828819D02*
X26511238Y-71781200D01*
X26511238Y-71781200D02*
X26463619Y-71733580D01*
X124460128Y-58439819D02*
X124460128Y-59249342D01*
X124460128Y-59249342D02*
X124507747Y-59344580D01*
X124507747Y-59344580D02*
X124555366Y-59392200D01*
X124555366Y-59392200D02*
X124650604Y-59439819D01*
X124650604Y-59439819D02*
X124841080Y-59439819D01*
X124841080Y-59439819D02*
X124936318Y-59392200D01*
X124936318Y-59392200D02*
X124983937Y-59344580D01*
X124983937Y-59344580D02*
X125031556Y-59249342D01*
X125031556Y-59249342D02*
X125031556Y-58439819D01*
X125412509Y-58439819D02*
X126031556Y-58439819D01*
X126031556Y-58439819D02*
X125698223Y-58820771D01*
X125698223Y-58820771D02*
X125841080Y-58820771D01*
X125841080Y-58820771D02*
X125936318Y-58868390D01*
X125936318Y-58868390D02*
X125983937Y-58916009D01*
X125983937Y-58916009D02*
X126031556Y-59011247D01*
X126031556Y-59011247D02*
X126031556Y-59249342D01*
X126031556Y-59249342D02*
X125983937Y-59344580D01*
X125983937Y-59344580D02*
X125936318Y-59392200D01*
X125936318Y-59392200D02*
X125841080Y-59439819D01*
X125841080Y-59439819D02*
X125555366Y-59439819D01*
X125555366Y-59439819D02*
X125460128Y-59392200D01*
X125460128Y-59392200D02*
X125412509Y-59344580D01*
X119498486Y-68999819D02*
X120165152Y-68999819D01*
X120165152Y-68999819D02*
X119736581Y-69999819D01*
X120974676Y-69333152D02*
X120974676Y-69999819D01*
X120736581Y-68952200D02*
X120498486Y-69666485D01*
X120498486Y-69666485D02*
X121117533Y-69666485D01*
X121498486Y-69999819D02*
X121498486Y-68999819D01*
X121498486Y-69476009D02*
X122069914Y-69476009D01*
X122069914Y-69999819D02*
X122069914Y-68999819D01*
X123117533Y-69904580D02*
X123069914Y-69952200D01*
X123069914Y-69952200D02*
X122927057Y-69999819D01*
X122927057Y-69999819D02*
X122831819Y-69999819D01*
X122831819Y-69999819D02*
X122688962Y-69952200D01*
X122688962Y-69952200D02*
X122593724Y-69856961D01*
X122593724Y-69856961D02*
X122546105Y-69761723D01*
X122546105Y-69761723D02*
X122498486Y-69571247D01*
X122498486Y-69571247D02*
X122498486Y-69428390D01*
X122498486Y-69428390D02*
X122546105Y-69237914D01*
X122546105Y-69237914D02*
X122593724Y-69142676D01*
X122593724Y-69142676D02*
X122688962Y-69047438D01*
X122688962Y-69047438D02*
X122831819Y-68999819D01*
X122831819Y-68999819D02*
X122927057Y-68999819D01*
X122927057Y-68999819D02*
X123069914Y-69047438D01*
X123069914Y-69047438D02*
X123117533Y-69095057D01*
X123736581Y-68999819D02*
X123831819Y-68999819D01*
X123831819Y-68999819D02*
X123927057Y-69047438D01*
X123927057Y-69047438D02*
X123974676Y-69095057D01*
X123974676Y-69095057D02*
X124022295Y-69190295D01*
X124022295Y-69190295D02*
X124069914Y-69380771D01*
X124069914Y-69380771D02*
X124069914Y-69618866D01*
X124069914Y-69618866D02*
X124022295Y-69809342D01*
X124022295Y-69809342D02*
X123974676Y-69904580D01*
X123974676Y-69904580D02*
X123927057Y-69952200D01*
X123927057Y-69952200D02*
X123831819Y-69999819D01*
X123831819Y-69999819D02*
X123736581Y-69999819D01*
X123736581Y-69999819D02*
X123641343Y-69952200D01*
X123641343Y-69952200D02*
X123593724Y-69904580D01*
X123593724Y-69904580D02*
X123546105Y-69809342D01*
X123546105Y-69809342D02*
X123498486Y-69618866D01*
X123498486Y-69618866D02*
X123498486Y-69380771D01*
X123498486Y-69380771D02*
X123546105Y-69190295D01*
X123546105Y-69190295D02*
X123593724Y-69095057D01*
X123593724Y-69095057D02*
X123641343Y-69047438D01*
X123641343Y-69047438D02*
X123736581Y-68999819D01*
X124688962Y-68999819D02*
X124784200Y-68999819D01*
X124784200Y-68999819D02*
X124879438Y-69047438D01*
X124879438Y-69047438D02*
X124927057Y-69095057D01*
X124927057Y-69095057D02*
X124974676Y-69190295D01*
X124974676Y-69190295D02*
X125022295Y-69380771D01*
X125022295Y-69380771D02*
X125022295Y-69618866D01*
X125022295Y-69618866D02*
X124974676Y-69809342D01*
X124974676Y-69809342D02*
X124927057Y-69904580D01*
X124927057Y-69904580D02*
X124879438Y-69952200D01*
X124879438Y-69952200D02*
X124784200Y-69999819D01*
X124784200Y-69999819D02*
X124688962Y-69999819D01*
X124688962Y-69999819D02*
X124593724Y-69952200D01*
X124593724Y-69952200D02*
X124546105Y-69904580D01*
X124546105Y-69904580D02*
X124498486Y-69809342D01*
X124498486Y-69809342D02*
X124450867Y-69618866D01*
X124450867Y-69618866D02*
X124450867Y-69380771D01*
X124450867Y-69380771D02*
X124498486Y-69190295D01*
X124498486Y-69190295D02*
X124546105Y-69095057D01*
X124546105Y-69095057D02*
X124593724Y-69047438D01*
X124593724Y-69047438D02*
X124688962Y-68999819D01*
X101732819Y-77295333D02*
X102447104Y-77295333D01*
X102447104Y-77295333D02*
X102589961Y-77342952D01*
X102589961Y-77342952D02*
X102685200Y-77438190D01*
X102685200Y-77438190D02*
X102732819Y-77581047D01*
X102732819Y-77581047D02*
X102732819Y-77676285D01*
X102732819Y-76295333D02*
X102732819Y-76866761D01*
X102732819Y-76581047D02*
X101732819Y-76581047D01*
X101732819Y-76581047D02*
X101875676Y-76676285D01*
X101875676Y-76676285D02*
X101970914Y-76771523D01*
X101970914Y-76771523D02*
X102018533Y-76866761D01*
D12*
%TO.C,C1*%
X102496252Y-58647000D02*
X101973748Y-58647000D01*
X102496252Y-57177000D02*
X101973748Y-57177000D01*
%TO.C,U5*%
X109695000Y-83440000D02*
X109930000Y-83440000D01*
X109930000Y-83440000D02*
X109930000Y-85255000D01*
X122715000Y-83440000D02*
X122480000Y-83440000D01*
X109695000Y-79580000D02*
X109695000Y-83440000D01*
X109695000Y-79580000D02*
X109695000Y-75720000D01*
X122715000Y-79580000D02*
X122715000Y-83440000D01*
X122715000Y-79580000D02*
X122715000Y-75720000D01*
X109695000Y-75720000D02*
X109930000Y-75720000D01*
X122715000Y-75720000D02*
X122480000Y-75720000D01*
%TO.C,C9*%
X82408752Y-57377000D02*
X81886248Y-57377000D01*
X82408752Y-55907000D02*
X81886248Y-55907000D01*
%TO.C,D1*%
X25416000Y-78688000D02*
X27416000Y-78688000D01*
X25416000Y-78688000D02*
X25416000Y-74678000D01*
X27416000Y-78688000D02*
X27416000Y-74678000D01*
%TO.C,C10*%
X108939000Y-79516248D02*
X108939000Y-80038752D01*
X107469000Y-79516248D02*
X107469000Y-80038752D01*
%TO.C,C6*%
X66381252Y-59155000D02*
X65858748Y-59155000D01*
X66381252Y-57685000D02*
X65858748Y-57685000D01*
%TO.C,U9*%
X82264800Y-58585000D02*
X78814800Y-58585000D01*
X82264800Y-58585000D02*
X84214800Y-58585000D01*
X82264800Y-68705000D02*
X80314800Y-68705000D01*
X82264800Y-68705000D02*
X84214800Y-68705000D01*
%TO.C,U1*%
X102274500Y-59830000D02*
X98824500Y-59830000D01*
X102274500Y-59830000D02*
X104224500Y-59830000D01*
X102274500Y-68700000D02*
X100324500Y-68700000D01*
X102274500Y-68700000D02*
X104224500Y-68700000D01*
%TO.C,C7*%
X43441252Y-59155000D02*
X42918748Y-59155000D01*
X43441252Y-57685000D02*
X42918748Y-57685000D01*
%TO.C,C5*%
X92530952Y-57377000D02*
X92008448Y-57377000D01*
X92530952Y-55907000D02*
X92008448Y-55907000D01*
%TO.C,U8*%
X33495000Y-83440000D02*
X33730000Y-83440000D01*
X33730000Y-83440000D02*
X33730000Y-85255000D01*
X46515000Y-83440000D02*
X46280000Y-83440000D01*
X33495000Y-79580000D02*
X33495000Y-83440000D01*
X33495000Y-79580000D02*
X33495000Y-75720000D01*
X46515000Y-79580000D02*
X46515000Y-83440000D01*
X46515000Y-79580000D02*
X46515000Y-75720000D01*
X33495000Y-75720000D02*
X33730000Y-75720000D01*
X46515000Y-75720000D02*
X46280000Y-75720000D01*
%TO.C,C3*%
X24906000Y-85693000D02*
X27926000Y-85693000D01*
X27926000Y-85693000D02*
X27926000Y-81308000D01*
X24906000Y-81308000D02*
X24906000Y-85693000D01*
%TO.C,C4*%
X112529252Y-58647000D02*
X112006748Y-58647000D01*
X112529252Y-57177000D02*
X112006748Y-57177000D01*
%TO.C,C2*%
X32739000Y-79516248D02*
X32739000Y-80038752D01*
X31269000Y-79516248D02*
X31269000Y-80038752D01*
%TO.C,U4*%
X58915000Y-60385000D02*
X72020000Y-60385000D01*
X60220000Y-68605000D02*
X72020000Y-68605000D01*
%TO.C,U6*%
X112279300Y-59830000D02*
X108829300Y-59830000D01*
X112279300Y-59830000D02*
X114229300Y-59830000D01*
X112279300Y-68700000D02*
X110329300Y-68700000D01*
X112279300Y-68700000D02*
X114229300Y-68700000D01*
%TO.C,U7*%
X92269700Y-58585000D02*
X88819700Y-58585000D01*
X92269700Y-58585000D02*
X94219700Y-58585000D01*
X92269700Y-68705000D02*
X90319700Y-68705000D01*
X92269700Y-68705000D02*
X94219700Y-68705000D01*
%TO.C,C8*%
X122545452Y-58647000D02*
X122022948Y-58647000D01*
X122545452Y-57177000D02*
X122022948Y-57177000D01*
%TO.C,U2*%
X35975000Y-60385000D02*
X49080000Y-60385000D01*
X37280000Y-68605000D02*
X49080000Y-68605000D01*
%TO.C,J3*%
X30226000Y-59944000D02*
X22606000Y-59944000D01*
X22606000Y-59944000D02*
X22606000Y-70104000D01*
X30226000Y-70104000D02*
X30226000Y-59944000D01*
X23876000Y-70104000D02*
X23876000Y-59944000D01*
X22606000Y-70104000D02*
X30226000Y-70104000D01*
%TO.C,U3*%
X122284200Y-59830000D02*
X118834200Y-59830000D01*
X122284200Y-59830000D02*
X124234200Y-59830000D01*
X122284200Y-68700000D02*
X120334200Y-68700000D01*
X122284200Y-68700000D02*
X124234200Y-68700000D01*
%TD*%
M02*
