%TF.GenerationSoftware,KiCad,Pcbnew,7.0.10*%
%TF.CreationDate,2024-01-06T13:40:11+01:00*%
%TF.ProjectId,p2000t-ram-expansion-board-smd,70323030-3074-42d7-9261-6d2d65787061,rev?*%
%TF.SameCoordinates,Original*%
%TF.FileFunction,Paste,Top*%
%TF.FilePolarity,Positive*%
%FSLAX46Y46*%
G04 Gerber Fmt 4.6, Leading zero omitted, Abs format (unit mm)*
G04 Created by KiCad (PCBNEW 7.0.10) date 2024-01-06 13:40:11*
%MOMM*%
%LPD*%
G01*
G04 APERTURE LIST*
G04 Aperture macros list*
%AMRoundRect*
0 Rectangle with rounded corners*
0 $1 Rounding radius*
0 $2 $3 $4 $5 $6 $7 $8 $9 X,Y pos of 4 corners*
0 Add a 4 corners polygon primitive as box body*
4,1,4,$2,$3,$4,$5,$6,$7,$8,$9,$2,$3,0*
0 Add four circle primitives for the rounded corners*
1,1,$1+$1,$2,$3*
1,1,$1+$1,$4,$5*
1,1,$1+$1,$6,$7*
1,1,$1+$1,$8,$9*
0 Add four rect primitives between the rounded corners*
20,1,$1+$1,$2,$3,$4,$5,0*
20,1,$1+$1,$4,$5,$6,$7,0*
20,1,$1+$1,$6,$7,$8,$9,0*
20,1,$1+$1,$8,$9,$2,$3,0*%
G04 Aperture macros list end*
%ADD10RoundRect,0.250000X0.337500X0.475000X-0.337500X0.475000X-0.337500X-0.475000X0.337500X-0.475000X0*%
%ADD11RoundRect,0.150000X0.150000X-0.875000X0.150000X0.875000X-0.150000X0.875000X-0.150000X-0.875000X0*%
%ADD12RoundRect,0.225000X0.375000X-0.225000X0.375000X0.225000X-0.375000X0.225000X-0.375000X-0.225000X0*%
%ADD13RoundRect,0.250000X-0.475000X0.337500X-0.475000X-0.337500X0.475000X-0.337500X0.475000X0.337500X0*%
%ADD14RoundRect,0.150000X-0.825000X-0.150000X0.825000X-0.150000X0.825000X0.150000X-0.825000X0.150000X0*%
%ADD15RoundRect,0.250001X0.924999X-0.499999X0.924999X0.499999X-0.924999X0.499999X-0.924999X-0.499999X0*%
%ADD16R,1.870000X0.380000*%
G04 APERTURE END LIST*
D10*
%TO.C,C1*%
X103272500Y-57912000D03*
X101197500Y-57912000D03*
%TD*%
D11*
%TO.C,U5*%
X110490000Y-84230000D03*
X111760000Y-84230000D03*
X113030000Y-84230000D03*
X114300000Y-84230000D03*
X115570000Y-84230000D03*
X116840000Y-84230000D03*
X118110000Y-84230000D03*
X119380000Y-84230000D03*
X120650000Y-84230000D03*
X121920000Y-84230000D03*
X121920000Y-74930000D03*
X120650000Y-74930000D03*
X119380000Y-74930000D03*
X118110000Y-74930000D03*
X116840000Y-74930000D03*
X115570000Y-74930000D03*
X114300000Y-74930000D03*
X113030000Y-74930000D03*
X111760000Y-74930000D03*
X110490000Y-74930000D03*
%TD*%
D10*
%TO.C,C9*%
X83185000Y-56642000D03*
X81110000Y-56642000D03*
%TD*%
D12*
%TO.C,D1*%
X26416000Y-77978000D03*
X26416000Y-74678000D03*
%TD*%
D13*
%TO.C,C10*%
X108204000Y-78740000D03*
X108204000Y-80815000D03*
%TD*%
D10*
%TO.C,C6*%
X67157500Y-58420000D03*
X65082500Y-58420000D03*
%TD*%
D14*
%TO.C,U9*%
X79789800Y-59200000D03*
X79789800Y-60470000D03*
X79789800Y-61740000D03*
X79789800Y-63010000D03*
X79789800Y-64280000D03*
X79789800Y-65550000D03*
X79789800Y-66820000D03*
X79789800Y-68090000D03*
X84739800Y-68090000D03*
X84739800Y-66820000D03*
X84739800Y-65550000D03*
X84739800Y-64280000D03*
X84739800Y-63010000D03*
X84739800Y-61740000D03*
X84739800Y-60470000D03*
X84739800Y-59200000D03*
%TD*%
%TO.C,U1*%
X99799500Y-60455000D03*
X99799500Y-61725000D03*
X99799500Y-62995000D03*
X99799500Y-64265000D03*
X99799500Y-65535000D03*
X99799500Y-66805000D03*
X99799500Y-68075000D03*
X104749500Y-68075000D03*
X104749500Y-66805000D03*
X104749500Y-65535000D03*
X104749500Y-64265000D03*
X104749500Y-62995000D03*
X104749500Y-61725000D03*
X104749500Y-60455000D03*
%TD*%
D10*
%TO.C,C7*%
X44217500Y-58420000D03*
X42142500Y-58420000D03*
%TD*%
%TO.C,C5*%
X93307200Y-56642000D03*
X91232200Y-56642000D03*
%TD*%
D11*
%TO.C,U8*%
X34290000Y-84230000D03*
X35560000Y-84230000D03*
X36830000Y-84230000D03*
X38100000Y-84230000D03*
X39370000Y-84230000D03*
X40640000Y-84230000D03*
X41910000Y-84230000D03*
X43180000Y-84230000D03*
X44450000Y-84230000D03*
X45720000Y-84230000D03*
X45720000Y-74930000D03*
X44450000Y-74930000D03*
X43180000Y-74930000D03*
X41910000Y-74930000D03*
X40640000Y-74930000D03*
X39370000Y-74930000D03*
X38100000Y-74930000D03*
X36830000Y-74930000D03*
X35560000Y-74930000D03*
X34290000Y-74930000D03*
%TD*%
D15*
%TO.C,C3*%
X26416000Y-84683000D03*
X26416000Y-81433000D03*
%TD*%
D10*
%TO.C,C4*%
X113305500Y-57912000D03*
X111230500Y-57912000D03*
%TD*%
D13*
%TO.C,C2*%
X32004000Y-78740000D03*
X32004000Y-80815000D03*
%TD*%
D16*
%TO.C,U4*%
X59850000Y-60920000D03*
X59850000Y-61470000D03*
X59850000Y-62020000D03*
X59850000Y-62570000D03*
X59850000Y-63120000D03*
X59850000Y-63670000D03*
X59850000Y-64220000D03*
X59850000Y-64770000D03*
X59850000Y-65320000D03*
X59850000Y-65870000D03*
X59850000Y-66420000D03*
X59850000Y-66970000D03*
X59850000Y-67520000D03*
X59850000Y-68070000D03*
X72390000Y-68070000D03*
X72390000Y-67520000D03*
X72390000Y-66970000D03*
X72390000Y-66420000D03*
X72390000Y-65870000D03*
X72390000Y-65320000D03*
X72390000Y-64770000D03*
X72390000Y-64220000D03*
X72390000Y-63670000D03*
X72390000Y-63120000D03*
X72390000Y-62570000D03*
X72390000Y-62020000D03*
X72390000Y-61470000D03*
X72390000Y-60920000D03*
%TD*%
D14*
%TO.C,U6*%
X109804300Y-60455000D03*
X109804300Y-61725000D03*
X109804300Y-62995000D03*
X109804300Y-64265000D03*
X109804300Y-65535000D03*
X109804300Y-66805000D03*
X109804300Y-68075000D03*
X114754300Y-68075000D03*
X114754300Y-66805000D03*
X114754300Y-65535000D03*
X114754300Y-64265000D03*
X114754300Y-62995000D03*
X114754300Y-61725000D03*
X114754300Y-60455000D03*
%TD*%
%TO.C,U7*%
X89794700Y-59200000D03*
X89794700Y-60470000D03*
X89794700Y-61740000D03*
X89794700Y-63010000D03*
X89794700Y-64280000D03*
X89794700Y-65550000D03*
X89794700Y-66820000D03*
X89794700Y-68090000D03*
X94744700Y-68090000D03*
X94744700Y-66820000D03*
X94744700Y-65550000D03*
X94744700Y-64280000D03*
X94744700Y-63010000D03*
X94744700Y-61740000D03*
X94744700Y-60470000D03*
X94744700Y-59200000D03*
%TD*%
D10*
%TO.C,C8*%
X123321700Y-57912000D03*
X121246700Y-57912000D03*
%TD*%
D16*
%TO.C,U2*%
X36910000Y-60920000D03*
X36910000Y-61470000D03*
X36910000Y-62020000D03*
X36910000Y-62570000D03*
X36910000Y-63120000D03*
X36910000Y-63670000D03*
X36910000Y-64220000D03*
X36910000Y-64770000D03*
X36910000Y-65320000D03*
X36910000Y-65870000D03*
X36910000Y-66420000D03*
X36910000Y-66970000D03*
X36910000Y-67520000D03*
X36910000Y-68070000D03*
X49450000Y-68070000D03*
X49450000Y-67520000D03*
X49450000Y-66970000D03*
X49450000Y-66420000D03*
X49450000Y-65870000D03*
X49450000Y-65320000D03*
X49450000Y-64770000D03*
X49450000Y-64220000D03*
X49450000Y-63670000D03*
X49450000Y-63120000D03*
X49450000Y-62570000D03*
X49450000Y-62020000D03*
X49450000Y-61470000D03*
X49450000Y-60920000D03*
%TD*%
D14*
%TO.C,U3*%
X119809200Y-60455000D03*
X119809200Y-61725000D03*
X119809200Y-62995000D03*
X119809200Y-64265000D03*
X119809200Y-65535000D03*
X119809200Y-66805000D03*
X119809200Y-68075000D03*
X124759200Y-68075000D03*
X124759200Y-66805000D03*
X124759200Y-65535000D03*
X124759200Y-64265000D03*
X124759200Y-62995000D03*
X124759200Y-61725000D03*
X124759200Y-60455000D03*
%TD*%
M02*
