%TF.GenerationSoftware,KiCad,Pcbnew,7.0.10*%
%TF.CreationDate,2024-01-06T13:40:11+01:00*%
%TF.ProjectId,p2000t-ram-expansion-board-smd,70323030-3074-42d7-9261-6d2d65787061,rev?*%
%TF.SameCoordinates,Original*%
%TF.FileFunction,Soldermask,Bot*%
%TF.FilePolarity,Negative*%
%FSLAX46Y46*%
G04 Gerber Fmt 4.6, Leading zero omitted, Abs format (unit mm)*
G04 Created by KiCad (PCBNEW 7.0.10) date 2024-01-06 13:40:11*
%MOMM*%
%LPD*%
G01*
G04 APERTURE LIST*
%ADD10R,3.000000X3.000000*%
%ADD11C,3.000000*%
%ADD12R,1.700000X1.700000*%
%ADD13O,1.700000X1.700000*%
G04 APERTURE END LIST*
D10*
%TO.C,J3*%
X26416000Y-62484000D03*
D11*
X26416000Y-67564000D03*
%TD*%
D12*
%TO.C,J1*%
X99055000Y-80518000D03*
D13*
X99055000Y-77978000D03*
X96515000Y-80518000D03*
X96515000Y-77978000D03*
X93975000Y-80518000D03*
X93975000Y-77978000D03*
X91435000Y-80518000D03*
X91435000Y-77978000D03*
X88895000Y-80518000D03*
X88895000Y-77978000D03*
X86355000Y-80518000D03*
X86355000Y-77978000D03*
X83815000Y-80518000D03*
X83815000Y-77978000D03*
X81275000Y-80518000D03*
X81275000Y-77978000D03*
X78735000Y-80518000D03*
X78735000Y-77978000D03*
X76195000Y-80518000D03*
X76195000Y-77978000D03*
X73655000Y-80518000D03*
X73655000Y-77978000D03*
X71115000Y-80518000D03*
X71115000Y-77978000D03*
X68575000Y-80518000D03*
X68575000Y-77978000D03*
X66035000Y-80518000D03*
X66035000Y-77978000D03*
X63495000Y-80518000D03*
X63495000Y-77978000D03*
X60955000Y-80518000D03*
X60955000Y-77978000D03*
X58415000Y-80518000D03*
X58415000Y-77978000D03*
X55875000Y-80518000D03*
X55875000Y-77978000D03*
X53335000Y-80518000D03*
X53335000Y-77978000D03*
X50795000Y-80518000D03*
X50795000Y-77978000D03*
%TD*%
M02*
