%TF.GenerationSoftware,KiCad,Pcbnew,7.0.10*%
%TF.CreationDate,2024-01-06T13:18:43+01:00*%
%TF.ProjectId,p2000t-ram-expansion-board-smd,70323030-3074-42d7-9261-6d2d65787061,rev?*%
%TF.SameCoordinates,Original*%
%TF.FileFunction,Drillmap*%
%TF.FilePolarity,Positive*%
%FSLAX45Y45*%
G04 Gerber Fmt 4.5, Leading zero omitted, Abs format (unit mm)*
G04 Created by KiCad (PCBNEW 7.0.10) date 2024-01-06 13:18:43*
%MOMM*%
%LPD*%
G01*
G04 APERTURE LIST*
%ADD10C,0.100000*%
%ADD11C,0.200000*%
%ADD12C,0.152000*%
G04 APERTURE END LIST*
D10*
X2133600Y-5196840D02*
G75*
G03*
X1996440Y-5334000I0J-137160D01*
G01*
X2133600Y-8996680D02*
X12857480Y-8996680D01*
X12994640Y-5334000D02*
G75*
G03*
X12857480Y-5196840I-137160J0D01*
G01*
X12994640Y-8859520D02*
X12994640Y-5334000D01*
X12857480Y-8996680D02*
G75*
G03*
X12994640Y-8859520I0J137160D01*
G01*
X1996440Y-8859520D02*
X1996440Y-5334000D01*
X1996440Y-8859520D02*
G75*
G03*
X2133600Y-8996680I137160J0D01*
G01*
X12857480Y-5196840D02*
X2133600Y-5196840D01*
D11*
D10*
X2113600Y-7752400D02*
X2153600Y-7792400D01*
X2153600Y-7752400D02*
X2113600Y-7792400D01*
X3155000Y-8413690D02*
X3195000Y-8453690D01*
X3195000Y-8413690D02*
X3155000Y-8453690D01*
X3180400Y-7701600D02*
X3220400Y-7741600D01*
X3220400Y-7701600D02*
X3180400Y-7741600D01*
X3515970Y-6493760D02*
X3555970Y-6533760D01*
X3555970Y-6493760D02*
X3515970Y-6533760D01*
X3517470Y-6600640D02*
X3557470Y-6640640D01*
X3557470Y-6600640D02*
X3517470Y-6640640D01*
X3546100Y-7306370D02*
X3586100Y-7346370D01*
X3586100Y-7306370D02*
X3546100Y-7346370D01*
X3648360Y-5979150D02*
X3688360Y-6019150D01*
X3688360Y-5979150D02*
X3648360Y-6019150D01*
X3656590Y-8568410D02*
X3696590Y-8608410D01*
X3696590Y-8568410D02*
X3656590Y-8608410D01*
X3825570Y-6480500D02*
X3865570Y-6520500D01*
X3865570Y-6480500D02*
X3825570Y-6520500D01*
X3826120Y-6677000D02*
X3866120Y-6717000D01*
X3866120Y-6677000D02*
X3826120Y-6717000D01*
X3849630Y-6175550D02*
X3889630Y-6215550D01*
X3889630Y-6175550D02*
X3849630Y-6215550D01*
X3889870Y-6567000D02*
X3929870Y-6607000D01*
X3929870Y-6567000D02*
X3889870Y-6607000D01*
X3962770Y-6445910D02*
X4002770Y-6485910D01*
X4002770Y-6445910D02*
X3962770Y-6485910D01*
X4058720Y-6493880D02*
X4098720Y-6533880D01*
X4098720Y-6493880D02*
X4058720Y-6533880D01*
X4117810Y-6397460D02*
X4157810Y-6437460D01*
X4157810Y-6397460D02*
X4117810Y-6437460D01*
X4120150Y-6067730D02*
X4160150Y-6107730D01*
X4160150Y-6067730D02*
X4120150Y-6107730D01*
X4425430Y-8156420D02*
X4465430Y-8196420D01*
X4465430Y-8156420D02*
X4425430Y-8196420D01*
X4534480Y-5822000D02*
X4574480Y-5862000D01*
X4574480Y-5822000D02*
X4534480Y-5862000D01*
X4655770Y-6824460D02*
X4695770Y-6864460D01*
X4695770Y-6824460D02*
X4655770Y-6864460D01*
X4750330Y-6439170D02*
X4790330Y-6479170D01*
X4790330Y-6439170D02*
X4750330Y-6479170D01*
X4756600Y-6860120D02*
X4796600Y-6900120D01*
X4796600Y-6860120D02*
X4756600Y-6900120D01*
X5097400Y-5954600D02*
X5137400Y-5994600D01*
X5137400Y-5954600D02*
X5097400Y-5994600D01*
X5124130Y-6444630D02*
X5164130Y-6484630D01*
X5164130Y-6444630D02*
X5124130Y-6484630D01*
X5139300Y-7904800D02*
X5179300Y-7944800D01*
X5179300Y-7904800D02*
X5139300Y-7944800D01*
X5226730Y-7538890D02*
X5266730Y-7578890D01*
X5266730Y-7538890D02*
X5226730Y-7578890D01*
X5447990Y-8182570D02*
X5487990Y-8222570D01*
X5487990Y-8182570D02*
X5447990Y-8222570D01*
X5623870Y-6570980D02*
X5663870Y-6610980D01*
X5663870Y-6570980D02*
X5623870Y-6610980D01*
X5635280Y-6380880D02*
X5675280Y-6420880D01*
X5675280Y-6380880D02*
X5635280Y-6420880D01*
X5649420Y-6716050D02*
X5689420Y-6756050D01*
X5689420Y-6716050D02*
X5649420Y-6756050D01*
X5742680Y-6357240D02*
X5782680Y-6397240D01*
X5782680Y-6357240D02*
X5742680Y-6397240D01*
X5749460Y-6713510D02*
X5789460Y-6753510D01*
X5789460Y-6713510D02*
X5749460Y-6753510D01*
X5801090Y-7312470D02*
X5841090Y-7352470D01*
X5841090Y-7312470D02*
X5801090Y-7352470D01*
X5845820Y-8224020D02*
X5885820Y-8264020D01*
X5885820Y-8224020D02*
X5845820Y-8264020D01*
X6174540Y-6485130D02*
X6214540Y-6525130D01*
X6214540Y-6485130D02*
X6174540Y-6525130D01*
X6176780Y-6175890D02*
X6216780Y-6215890D01*
X6216780Y-6175890D02*
X6176780Y-6215890D01*
X6214770Y-6592020D02*
X6254770Y-6632020D01*
X6254770Y-6592020D02*
X6214770Y-6632020D01*
X6341440Y-6426820D02*
X6381440Y-6466820D01*
X6381440Y-6426820D02*
X6341440Y-6466820D01*
X6357930Y-6102310D02*
X6397930Y-6142310D01*
X6397930Y-6102310D02*
X6357930Y-6142310D01*
X6414560Y-8274730D02*
X6454560Y-8314730D01*
X6454560Y-8274730D02*
X6414560Y-8314730D01*
X6415490Y-6502220D02*
X6455490Y-6542220D01*
X6455490Y-6502220D02*
X6415490Y-6542220D01*
X6609010Y-6793710D02*
X6649010Y-6833710D01*
X6649010Y-6793710D02*
X6609010Y-6833710D01*
X6616630Y-6998060D02*
X6656630Y-7038060D01*
X6656630Y-6998060D02*
X6616630Y-7038060D01*
X6668400Y-6563990D02*
X6708400Y-6603990D01*
X6708400Y-6563990D02*
X6668400Y-6603990D01*
X6803200Y-5822000D02*
X6843200Y-5862000D01*
X6843200Y-5822000D02*
X6803200Y-5862000D01*
X6812420Y-6715970D02*
X6852420Y-6755970D01*
X6852420Y-6715970D02*
X6812420Y-6755970D01*
X6967710Y-6434900D02*
X7007710Y-6474900D01*
X7007710Y-6434900D02*
X6967710Y-6474900D01*
X6976390Y-5913210D02*
X7016390Y-5953210D01*
X7016390Y-5913210D02*
X6976390Y-5953210D01*
X7374860Y-6443580D02*
X7414860Y-6483580D01*
X7414860Y-6443580D02*
X7374860Y-6483580D01*
X7614110Y-6440980D02*
X7654110Y-6480980D01*
X7654110Y-6440980D02*
X7614110Y-6480980D01*
X7686740Y-6922410D02*
X7726740Y-6962410D01*
X7726740Y-6922410D02*
X7686740Y-6962410D01*
X7710130Y-6777340D02*
X7750130Y-6817340D01*
X7750130Y-6777340D02*
X7710130Y-6817340D01*
X8081380Y-5811020D02*
X8121380Y-5851020D01*
X8121380Y-5811020D02*
X8081380Y-5851020D01*
X8128590Y-7289140D02*
X8168590Y-7329140D01*
X8168590Y-7289140D02*
X8128590Y-7329140D01*
X8214260Y-6916650D02*
X8254260Y-6956650D01*
X8254260Y-6916650D02*
X8214260Y-6956650D01*
X8231690Y-6199570D02*
X8271690Y-6239570D01*
X8271690Y-6199570D02*
X8231690Y-6239570D01*
X8359330Y-6948360D02*
X8399330Y-6988360D01*
X8399330Y-6948360D02*
X8359330Y-6988360D01*
X8438200Y-5644200D02*
X8478200Y-5684200D01*
X8478200Y-5644200D02*
X8438200Y-5684200D01*
X8459370Y-6942420D02*
X8499370Y-6982420D01*
X8499370Y-6942420D02*
X8459370Y-6982420D01*
X8759010Y-6438010D02*
X8799010Y-6478010D01*
X8799010Y-6438010D02*
X8759010Y-6478010D01*
X9127560Y-6091410D02*
X9167560Y-6131410D01*
X9167560Y-6091410D02*
X9127560Y-6131410D01*
X9236680Y-8202500D02*
X9276680Y-8242500D01*
X9276680Y-8202500D02*
X9236680Y-8242500D01*
X9284810Y-6559890D02*
X9324810Y-6599890D01*
X9324810Y-6559890D02*
X9284810Y-6599890D01*
X9287720Y-6404520D02*
X9327720Y-6444520D01*
X9327720Y-6404520D02*
X9287720Y-6444520D01*
X9293360Y-6275190D02*
X9333360Y-6315190D01*
X9333360Y-6275190D02*
X9293360Y-6315190D01*
X9454200Y-5644200D02*
X9494200Y-5684200D01*
X9494200Y-5644200D02*
X9454200Y-5684200D01*
X9523170Y-8140550D02*
X9563170Y-8180550D01*
X9563170Y-8140550D02*
X9523170Y-8180550D01*
X9596840Y-6725910D02*
X9636840Y-6765910D01*
X9636840Y-6725910D02*
X9596840Y-6765910D01*
X9799320Y-7497690D02*
X9839320Y-7537690D01*
X9839320Y-7497690D02*
X9799320Y-7537690D01*
X9810690Y-6336710D02*
X9850690Y-6376710D01*
X9850690Y-6336710D02*
X9810690Y-6376710D01*
X9818780Y-6596830D02*
X9858780Y-6636830D01*
X9858780Y-6596830D02*
X9818780Y-6636830D01*
X10040930Y-5919250D02*
X10080930Y-5959250D01*
X10080930Y-5919250D02*
X10040930Y-5959250D01*
X10294760Y-6533500D02*
X10334760Y-6573500D01*
X10334760Y-6533500D02*
X10294760Y-6573500D01*
X10305910Y-7735750D02*
X10345910Y-7775750D01*
X10345910Y-7735750D02*
X10305910Y-7775750D01*
X10385590Y-7165910D02*
X10425590Y-7205910D01*
X10425590Y-7165910D02*
X10385590Y-7205910D01*
X10444800Y-5771200D02*
X10484800Y-5811200D01*
X10484800Y-5771200D02*
X10444800Y-5811200D01*
X10613280Y-6279500D02*
X10653280Y-6319500D01*
X10653280Y-6279500D02*
X10613280Y-6319500D01*
X10786360Y-6652310D02*
X10826360Y-6692310D01*
X10826360Y-6652310D02*
X10786360Y-6692310D01*
X10887140Y-8438860D02*
X10927140Y-8478860D01*
X10927140Y-8438860D02*
X10887140Y-8478860D01*
X10888190Y-8542940D02*
X10928190Y-8582940D01*
X10928190Y-8542940D02*
X10888190Y-8582940D01*
X10950990Y-8245530D02*
X10990990Y-8285530D01*
X10990990Y-8245530D02*
X10950990Y-8285530D01*
X11133140Y-6271960D02*
X11173140Y-6311960D01*
X11173140Y-6271960D02*
X11133140Y-6311960D01*
X11133610Y-6422720D02*
X11173610Y-6462720D01*
X11173610Y-6422720D02*
X11133610Y-6462720D01*
X11134010Y-6081860D02*
X11174010Y-6121860D01*
X11174010Y-6081860D02*
X11134010Y-6121860D01*
X11135150Y-6942750D02*
X11175150Y-6982750D01*
X11175150Y-6942750D02*
X11135150Y-6982750D01*
X11159870Y-7635830D02*
X11199870Y-7675830D01*
X11199870Y-7635830D02*
X11159870Y-7675830D01*
X11290300Y-6294480D02*
X11330300Y-6334480D01*
X11330300Y-6294480D02*
X11290300Y-6334480D01*
X11435400Y-5771200D02*
X11475400Y-5811200D01*
X11475400Y-5771200D02*
X11435400Y-5811200D01*
X11539070Y-8217970D02*
X11579070Y-8257970D01*
X11579070Y-8217970D02*
X11539070Y-8257970D01*
X11614190Y-6397070D02*
X11654190Y-6437070D01*
X11654190Y-6397070D02*
X11614190Y-6437070D01*
X11615520Y-6138260D02*
X11655520Y-6178260D01*
X11655520Y-6138260D02*
X11615520Y-6178260D01*
X11615700Y-6636900D02*
X11655700Y-6676900D01*
X11655700Y-6636900D02*
X11615700Y-6676900D01*
X11689140Y-6209800D02*
X11729140Y-6249800D01*
X11729140Y-6209800D02*
X11689140Y-6249800D01*
X11689410Y-8141730D02*
X11729410Y-8181730D01*
X11729410Y-8141730D02*
X11689410Y-8181730D01*
X11704860Y-6039880D02*
X11744860Y-6079880D01*
X11744860Y-6039880D02*
X11704860Y-6079880D01*
X11802320Y-6617080D02*
X11842320Y-6657080D01*
X11842320Y-6617080D02*
X11802320Y-6657080D01*
X12476800Y-5745800D02*
X12516800Y-5785800D01*
X12516800Y-5745800D02*
X12476800Y-5785800D01*
X12612200Y-6458170D02*
X12652200Y-6498170D01*
X12652200Y-6458170D02*
X12612200Y-6498170D01*
X12614200Y-6279500D02*
X12654200Y-6319500D01*
X12654200Y-6279500D02*
X12614200Y-6319500D01*
X5129500Y-7797800D02*
G75*
G03*
X5029500Y-7797800I-50000J0D01*
G01*
X5029500Y-7797800D02*
G75*
G03*
X5129500Y-7797800I50000J0D01*
G01*
X5129500Y-8051800D02*
G75*
G03*
X5029500Y-8051800I-50000J0D01*
G01*
X5029500Y-8051800D02*
G75*
G03*
X5129500Y-8051800I50000J0D01*
G01*
X5383500Y-7797800D02*
G75*
G03*
X5283500Y-7797800I-50000J0D01*
G01*
X5283500Y-7797800D02*
G75*
G03*
X5383500Y-7797800I50000J0D01*
G01*
X5383500Y-8051800D02*
G75*
G03*
X5283500Y-8051800I-50000J0D01*
G01*
X5283500Y-8051800D02*
G75*
G03*
X5383500Y-8051800I50000J0D01*
G01*
X5637500Y-7797800D02*
G75*
G03*
X5537500Y-7797800I-50000J0D01*
G01*
X5537500Y-7797800D02*
G75*
G03*
X5637500Y-7797800I50000J0D01*
G01*
X5637500Y-8051800D02*
G75*
G03*
X5537500Y-8051800I-50000J0D01*
G01*
X5537500Y-8051800D02*
G75*
G03*
X5637500Y-8051800I50000J0D01*
G01*
X5891500Y-7797800D02*
G75*
G03*
X5791500Y-7797800I-50000J0D01*
G01*
X5791500Y-7797800D02*
G75*
G03*
X5891500Y-7797800I50000J0D01*
G01*
X5891500Y-8051800D02*
G75*
G03*
X5791500Y-8051800I-50000J0D01*
G01*
X5791500Y-8051800D02*
G75*
G03*
X5891500Y-8051800I50000J0D01*
G01*
X6145500Y-7797800D02*
G75*
G03*
X6045500Y-7797800I-50000J0D01*
G01*
X6045500Y-7797800D02*
G75*
G03*
X6145500Y-7797800I50000J0D01*
G01*
X6145500Y-8051800D02*
G75*
G03*
X6045500Y-8051800I-50000J0D01*
G01*
X6045500Y-8051800D02*
G75*
G03*
X6145500Y-8051800I50000J0D01*
G01*
X6399500Y-7797800D02*
G75*
G03*
X6299500Y-7797800I-50000J0D01*
G01*
X6299500Y-7797800D02*
G75*
G03*
X6399500Y-7797800I50000J0D01*
G01*
X6399500Y-8051800D02*
G75*
G03*
X6299500Y-8051800I-50000J0D01*
G01*
X6299500Y-8051800D02*
G75*
G03*
X6399500Y-8051800I50000J0D01*
G01*
X6653500Y-7797800D02*
G75*
G03*
X6553500Y-7797800I-50000J0D01*
G01*
X6553500Y-7797800D02*
G75*
G03*
X6653500Y-7797800I50000J0D01*
G01*
X6653500Y-8051800D02*
G75*
G03*
X6553500Y-8051800I-50000J0D01*
G01*
X6553500Y-8051800D02*
G75*
G03*
X6653500Y-8051800I50000J0D01*
G01*
X6907500Y-7797800D02*
G75*
G03*
X6807500Y-7797800I-50000J0D01*
G01*
X6807500Y-7797800D02*
G75*
G03*
X6907500Y-7797800I50000J0D01*
G01*
X6907500Y-8051800D02*
G75*
G03*
X6807500Y-8051800I-50000J0D01*
G01*
X6807500Y-8051800D02*
G75*
G03*
X6907500Y-8051800I50000J0D01*
G01*
X7161500Y-7797800D02*
G75*
G03*
X7061500Y-7797800I-50000J0D01*
G01*
X7061500Y-7797800D02*
G75*
G03*
X7161500Y-7797800I50000J0D01*
G01*
X7161500Y-8051800D02*
G75*
G03*
X7061500Y-8051800I-50000J0D01*
G01*
X7061500Y-8051800D02*
G75*
G03*
X7161500Y-8051800I50000J0D01*
G01*
X7415500Y-7797800D02*
G75*
G03*
X7315500Y-7797800I-50000J0D01*
G01*
X7315500Y-7797800D02*
G75*
G03*
X7415500Y-7797800I50000J0D01*
G01*
X7415500Y-8051800D02*
G75*
G03*
X7315500Y-8051800I-50000J0D01*
G01*
X7315500Y-8051800D02*
G75*
G03*
X7415500Y-8051800I50000J0D01*
G01*
X7669500Y-7797800D02*
G75*
G03*
X7569500Y-7797800I-50000J0D01*
G01*
X7569500Y-7797800D02*
G75*
G03*
X7669500Y-7797800I50000J0D01*
G01*
X7669500Y-8051800D02*
G75*
G03*
X7569500Y-8051800I-50000J0D01*
G01*
X7569500Y-8051800D02*
G75*
G03*
X7669500Y-8051800I50000J0D01*
G01*
X7923500Y-7797800D02*
G75*
G03*
X7823500Y-7797800I-50000J0D01*
G01*
X7823500Y-7797800D02*
G75*
G03*
X7923500Y-7797800I50000J0D01*
G01*
X7923500Y-8051800D02*
G75*
G03*
X7823500Y-8051800I-50000J0D01*
G01*
X7823500Y-8051800D02*
G75*
G03*
X7923500Y-8051800I50000J0D01*
G01*
X8177500Y-7797800D02*
G75*
G03*
X8077500Y-7797800I-50000J0D01*
G01*
X8077500Y-7797800D02*
G75*
G03*
X8177500Y-7797800I50000J0D01*
G01*
X8177500Y-8051800D02*
G75*
G03*
X8077500Y-8051800I-50000J0D01*
G01*
X8077500Y-8051800D02*
G75*
G03*
X8177500Y-8051800I50000J0D01*
G01*
X8431500Y-7797800D02*
G75*
G03*
X8331500Y-7797800I-50000J0D01*
G01*
X8331500Y-7797800D02*
G75*
G03*
X8431500Y-7797800I50000J0D01*
G01*
X8431500Y-8051800D02*
G75*
G03*
X8331500Y-8051800I-50000J0D01*
G01*
X8331500Y-8051800D02*
G75*
G03*
X8431500Y-8051800I50000J0D01*
G01*
X8685500Y-7797800D02*
G75*
G03*
X8585500Y-7797800I-50000J0D01*
G01*
X8585500Y-7797800D02*
G75*
G03*
X8685500Y-7797800I50000J0D01*
G01*
X8685500Y-8051800D02*
G75*
G03*
X8585500Y-8051800I-50000J0D01*
G01*
X8585500Y-8051800D02*
G75*
G03*
X8685500Y-8051800I50000J0D01*
G01*
X8939500Y-7797800D02*
G75*
G03*
X8839500Y-7797800I-50000J0D01*
G01*
X8839500Y-7797800D02*
G75*
G03*
X8939500Y-7797800I50000J0D01*
G01*
X8939500Y-8051800D02*
G75*
G03*
X8839500Y-8051800I-50000J0D01*
G01*
X8839500Y-8051800D02*
G75*
G03*
X8939500Y-8051800I50000J0D01*
G01*
X9193500Y-7797800D02*
G75*
G03*
X9093500Y-7797800I-50000J0D01*
G01*
X9093500Y-7797800D02*
G75*
G03*
X9193500Y-7797800I50000J0D01*
G01*
X9193500Y-8051800D02*
G75*
G03*
X9093500Y-8051800I-50000J0D01*
G01*
X9093500Y-8051800D02*
G75*
G03*
X9193500Y-8051800I50000J0D01*
G01*
X9447500Y-7797800D02*
G75*
G03*
X9347500Y-7797800I-50000J0D01*
G01*
X9347500Y-7797800D02*
G75*
G03*
X9447500Y-7797800I50000J0D01*
G01*
X9447500Y-8051800D02*
G75*
G03*
X9347500Y-8051800I-50000J0D01*
G01*
X9347500Y-8051800D02*
G75*
G03*
X9447500Y-8051800I50000J0D01*
G01*
X9701500Y-7797800D02*
G75*
G03*
X9601500Y-7797800I-50000J0D01*
G01*
X9601500Y-7797800D02*
G75*
G03*
X9701500Y-7797800I50000J0D01*
G01*
X9701500Y-8051800D02*
G75*
G03*
X9601500Y-8051800I-50000J0D01*
G01*
X9601500Y-8051800D02*
G75*
G03*
X9701500Y-8051800I50000J0D01*
G01*
X9955500Y-7797800D02*
G75*
G03*
X9855500Y-7797800I-50000J0D01*
G01*
X9855500Y-7797800D02*
G75*
G03*
X9955500Y-7797800I50000J0D01*
G01*
X9955500Y-8051800D02*
G75*
G03*
X9855500Y-8051800I-50000J0D01*
G01*
X9855500Y-8051800D02*
G75*
G03*
X9955500Y-8051800I50000J0D01*
G01*
D12*
X2641600Y-6172400D02*
X2641600Y-6324400D01*
X2565600Y-6248400D02*
X2717600Y-6248400D01*
X2641600Y-6680400D02*
X2641600Y-6832400D01*
X2565600Y-6756400D02*
X2717600Y-6756400D01*
D11*
X2252217Y-9313164D02*
X2252217Y-9113164D01*
X2252217Y-9113164D02*
X2299836Y-9113164D01*
X2299836Y-9113164D02*
X2328407Y-9122688D01*
X2328407Y-9122688D02*
X2347455Y-9141735D01*
X2347455Y-9141735D02*
X2356979Y-9160783D01*
X2356979Y-9160783D02*
X2366503Y-9198878D01*
X2366503Y-9198878D02*
X2366503Y-9227450D01*
X2366503Y-9227450D02*
X2356979Y-9265545D01*
X2356979Y-9265545D02*
X2347455Y-9284592D01*
X2347455Y-9284592D02*
X2328407Y-9303640D01*
X2328407Y-9303640D02*
X2299836Y-9313164D01*
X2299836Y-9313164D02*
X2252217Y-9313164D01*
X2452217Y-9313164D02*
X2452217Y-9179830D01*
X2452217Y-9217926D02*
X2461741Y-9198878D01*
X2461741Y-9198878D02*
X2471264Y-9189354D01*
X2471264Y-9189354D02*
X2490312Y-9179830D01*
X2490312Y-9179830D02*
X2509360Y-9179830D01*
X2576026Y-9313164D02*
X2576026Y-9179830D01*
X2576026Y-9113164D02*
X2566503Y-9122688D01*
X2566503Y-9122688D02*
X2576026Y-9132211D01*
X2576026Y-9132211D02*
X2585550Y-9122688D01*
X2585550Y-9122688D02*
X2576026Y-9113164D01*
X2576026Y-9113164D02*
X2576026Y-9132211D01*
X2699836Y-9313164D02*
X2680788Y-9303640D01*
X2680788Y-9303640D02*
X2671264Y-9284592D01*
X2671264Y-9284592D02*
X2671264Y-9113164D01*
X2804598Y-9313164D02*
X2785550Y-9303640D01*
X2785550Y-9303640D02*
X2776026Y-9284592D01*
X2776026Y-9284592D02*
X2776026Y-9113164D01*
X3033169Y-9313164D02*
X3033169Y-9113164D01*
X3033169Y-9113164D02*
X3099836Y-9256021D01*
X3099836Y-9256021D02*
X3166502Y-9113164D01*
X3166502Y-9113164D02*
X3166502Y-9313164D01*
X3347455Y-9313164D02*
X3347455Y-9208402D01*
X3347455Y-9208402D02*
X3337931Y-9189354D01*
X3337931Y-9189354D02*
X3318883Y-9179830D01*
X3318883Y-9179830D02*
X3280788Y-9179830D01*
X3280788Y-9179830D02*
X3261741Y-9189354D01*
X3347455Y-9303640D02*
X3328407Y-9313164D01*
X3328407Y-9313164D02*
X3280788Y-9313164D01*
X3280788Y-9313164D02*
X3261741Y-9303640D01*
X3261741Y-9303640D02*
X3252217Y-9284592D01*
X3252217Y-9284592D02*
X3252217Y-9265545D01*
X3252217Y-9265545D02*
X3261741Y-9246497D01*
X3261741Y-9246497D02*
X3280788Y-9236973D01*
X3280788Y-9236973D02*
X3328407Y-9236973D01*
X3328407Y-9236973D02*
X3347455Y-9227450D01*
X3442693Y-9179830D02*
X3442693Y-9379830D01*
X3442693Y-9189354D02*
X3461741Y-9179830D01*
X3461741Y-9179830D02*
X3499836Y-9179830D01*
X3499836Y-9179830D02*
X3518883Y-9189354D01*
X3518883Y-9189354D02*
X3528407Y-9198878D01*
X3528407Y-9198878D02*
X3537931Y-9217926D01*
X3537931Y-9217926D02*
X3537931Y-9275069D01*
X3537931Y-9275069D02*
X3528407Y-9294116D01*
X3528407Y-9294116D02*
X3518883Y-9303640D01*
X3518883Y-9303640D02*
X3499836Y-9313164D01*
X3499836Y-9313164D02*
X3461741Y-9313164D01*
X3461741Y-9313164D02*
X3442693Y-9303640D01*
X3623645Y-9294116D02*
X3633169Y-9303640D01*
X3633169Y-9303640D02*
X3623645Y-9313164D01*
X3623645Y-9313164D02*
X3614122Y-9303640D01*
X3614122Y-9303640D02*
X3623645Y-9294116D01*
X3623645Y-9294116D02*
X3623645Y-9313164D01*
X3623645Y-9189354D02*
X3633169Y-9198878D01*
X3633169Y-9198878D02*
X3623645Y-9208402D01*
X3623645Y-9208402D02*
X3614122Y-9198878D01*
X3614122Y-9198878D02*
X3623645Y-9189354D01*
X3623645Y-9189354D02*
X3623645Y-9208402D01*
D10*
X1951440Y-9621680D02*
X1991440Y-9661680D01*
X1991440Y-9621680D02*
X1951440Y-9661680D01*
D11*
X2290312Y-9533164D02*
X2309360Y-9533164D01*
X2309360Y-9533164D02*
X2328407Y-9542688D01*
X2328407Y-9542688D02*
X2337931Y-9552211D01*
X2337931Y-9552211D02*
X2347455Y-9571259D01*
X2347455Y-9571259D02*
X2356979Y-9609354D01*
X2356979Y-9609354D02*
X2356979Y-9656973D01*
X2356979Y-9656973D02*
X2347455Y-9695069D01*
X2347455Y-9695069D02*
X2337931Y-9714116D01*
X2337931Y-9714116D02*
X2328407Y-9723640D01*
X2328407Y-9723640D02*
X2309360Y-9733164D01*
X2309360Y-9733164D02*
X2290312Y-9733164D01*
X2290312Y-9733164D02*
X2271264Y-9723640D01*
X2271264Y-9723640D02*
X2261741Y-9714116D01*
X2261741Y-9714116D02*
X2252217Y-9695069D01*
X2252217Y-9695069D02*
X2242693Y-9656973D01*
X2242693Y-9656973D02*
X2242693Y-9609354D01*
X2242693Y-9609354D02*
X2252217Y-9571259D01*
X2252217Y-9571259D02*
X2261741Y-9552211D01*
X2261741Y-9552211D02*
X2271264Y-9542688D01*
X2271264Y-9542688D02*
X2290312Y-9533164D01*
X2442693Y-9714116D02*
X2452217Y-9723640D01*
X2452217Y-9723640D02*
X2442693Y-9733164D01*
X2442693Y-9733164D02*
X2433169Y-9723640D01*
X2433169Y-9723640D02*
X2442693Y-9714116D01*
X2442693Y-9714116D02*
X2442693Y-9733164D01*
X2623645Y-9599830D02*
X2623645Y-9733164D01*
X2576026Y-9523640D02*
X2528407Y-9666497D01*
X2528407Y-9666497D02*
X2652217Y-9666497D01*
X2766503Y-9533164D02*
X2785550Y-9533164D01*
X2785550Y-9533164D02*
X2804598Y-9542688D01*
X2804598Y-9542688D02*
X2814122Y-9552211D01*
X2814122Y-9552211D02*
X2823645Y-9571259D01*
X2823645Y-9571259D02*
X2833169Y-9609354D01*
X2833169Y-9609354D02*
X2833169Y-9656973D01*
X2833169Y-9656973D02*
X2823645Y-9695069D01*
X2823645Y-9695069D02*
X2814122Y-9714116D01*
X2814122Y-9714116D02*
X2804598Y-9723640D01*
X2804598Y-9723640D02*
X2785550Y-9733164D01*
X2785550Y-9733164D02*
X2766503Y-9733164D01*
X2766503Y-9733164D02*
X2747455Y-9723640D01*
X2747455Y-9723640D02*
X2737931Y-9714116D01*
X2737931Y-9714116D02*
X2728407Y-9695069D01*
X2728407Y-9695069D02*
X2718884Y-9656973D01*
X2718884Y-9656973D02*
X2718884Y-9609354D01*
X2718884Y-9609354D02*
X2728407Y-9571259D01*
X2728407Y-9571259D02*
X2737931Y-9552211D01*
X2737931Y-9552211D02*
X2747455Y-9542688D01*
X2747455Y-9542688D02*
X2766503Y-9533164D01*
X2956979Y-9533164D02*
X2976026Y-9533164D01*
X2976026Y-9533164D02*
X2995074Y-9542688D01*
X2995074Y-9542688D02*
X3004598Y-9552211D01*
X3004598Y-9552211D02*
X3014122Y-9571259D01*
X3014122Y-9571259D02*
X3023645Y-9609354D01*
X3023645Y-9609354D02*
X3023645Y-9656973D01*
X3023645Y-9656973D02*
X3014122Y-9695069D01*
X3014122Y-9695069D02*
X3004598Y-9714116D01*
X3004598Y-9714116D02*
X2995074Y-9723640D01*
X2995074Y-9723640D02*
X2976026Y-9733164D01*
X2976026Y-9733164D02*
X2956979Y-9733164D01*
X2956979Y-9733164D02*
X2937931Y-9723640D01*
X2937931Y-9723640D02*
X2928407Y-9714116D01*
X2928407Y-9714116D02*
X2918883Y-9695069D01*
X2918883Y-9695069D02*
X2909360Y-9656973D01*
X2909360Y-9656973D02*
X2909360Y-9609354D01*
X2909360Y-9609354D02*
X2918883Y-9571259D01*
X2918883Y-9571259D02*
X2928407Y-9552211D01*
X2928407Y-9552211D02*
X2937931Y-9542688D01*
X2937931Y-9542688D02*
X2956979Y-9533164D01*
X3109360Y-9733164D02*
X3109360Y-9599830D01*
X3109360Y-9618878D02*
X3118883Y-9609354D01*
X3118883Y-9609354D02*
X3137931Y-9599830D01*
X3137931Y-9599830D02*
X3166503Y-9599830D01*
X3166503Y-9599830D02*
X3185550Y-9609354D01*
X3185550Y-9609354D02*
X3195074Y-9628402D01*
X3195074Y-9628402D02*
X3195074Y-9733164D01*
X3195074Y-9628402D02*
X3204598Y-9609354D01*
X3204598Y-9609354D02*
X3223645Y-9599830D01*
X3223645Y-9599830D02*
X3252217Y-9599830D01*
X3252217Y-9599830D02*
X3271264Y-9609354D01*
X3271264Y-9609354D02*
X3280788Y-9628402D01*
X3280788Y-9628402D02*
X3280788Y-9733164D01*
X3376026Y-9733164D02*
X3376026Y-9599830D01*
X3376026Y-9618878D02*
X3385550Y-9609354D01*
X3385550Y-9609354D02*
X3404598Y-9599830D01*
X3404598Y-9599830D02*
X3433169Y-9599830D01*
X3433169Y-9599830D02*
X3452217Y-9609354D01*
X3452217Y-9609354D02*
X3461741Y-9628402D01*
X3461741Y-9628402D02*
X3461741Y-9733164D01*
X3461741Y-9628402D02*
X3471264Y-9609354D01*
X3471264Y-9609354D02*
X3490312Y-9599830D01*
X3490312Y-9599830D02*
X3518883Y-9599830D01*
X3518883Y-9599830D02*
X3537931Y-9609354D01*
X3537931Y-9609354D02*
X3547455Y-9628402D01*
X3547455Y-9628402D02*
X3547455Y-9733164D01*
X3937931Y-9523640D02*
X3766503Y-9780783D01*
X4195074Y-9533164D02*
X4214122Y-9533164D01*
X4214122Y-9533164D02*
X4233169Y-9542688D01*
X4233169Y-9542688D02*
X4242693Y-9552211D01*
X4242693Y-9552211D02*
X4252217Y-9571259D01*
X4252217Y-9571259D02*
X4261741Y-9609354D01*
X4261741Y-9609354D02*
X4261741Y-9656973D01*
X4261741Y-9656973D02*
X4252217Y-9695069D01*
X4252217Y-9695069D02*
X4242693Y-9714116D01*
X4242693Y-9714116D02*
X4233169Y-9723640D01*
X4233169Y-9723640D02*
X4214122Y-9733164D01*
X4214122Y-9733164D02*
X4195074Y-9733164D01*
X4195074Y-9733164D02*
X4176026Y-9723640D01*
X4176026Y-9723640D02*
X4166503Y-9714116D01*
X4166503Y-9714116D02*
X4156979Y-9695069D01*
X4156979Y-9695069D02*
X4147455Y-9656973D01*
X4147455Y-9656973D02*
X4147455Y-9609354D01*
X4147455Y-9609354D02*
X4156979Y-9571259D01*
X4156979Y-9571259D02*
X4166503Y-9552211D01*
X4166503Y-9552211D02*
X4176026Y-9542688D01*
X4176026Y-9542688D02*
X4195074Y-9533164D01*
X4347455Y-9714116D02*
X4356979Y-9723640D01*
X4356979Y-9723640D02*
X4347455Y-9733164D01*
X4347455Y-9733164D02*
X4337931Y-9723640D01*
X4337931Y-9723640D02*
X4347455Y-9714116D01*
X4347455Y-9714116D02*
X4347455Y-9733164D01*
X4480788Y-9533164D02*
X4499836Y-9533164D01*
X4499836Y-9533164D02*
X4518884Y-9542688D01*
X4518884Y-9542688D02*
X4528408Y-9552211D01*
X4528408Y-9552211D02*
X4537931Y-9571259D01*
X4537931Y-9571259D02*
X4547455Y-9609354D01*
X4547455Y-9609354D02*
X4547455Y-9656973D01*
X4547455Y-9656973D02*
X4537931Y-9695069D01*
X4537931Y-9695069D02*
X4528408Y-9714116D01*
X4528408Y-9714116D02*
X4518884Y-9723640D01*
X4518884Y-9723640D02*
X4499836Y-9733164D01*
X4499836Y-9733164D02*
X4480788Y-9733164D01*
X4480788Y-9733164D02*
X4461741Y-9723640D01*
X4461741Y-9723640D02*
X4452217Y-9714116D01*
X4452217Y-9714116D02*
X4442693Y-9695069D01*
X4442693Y-9695069D02*
X4433169Y-9656973D01*
X4433169Y-9656973D02*
X4433169Y-9609354D01*
X4433169Y-9609354D02*
X4442693Y-9571259D01*
X4442693Y-9571259D02*
X4452217Y-9552211D01*
X4452217Y-9552211D02*
X4461741Y-9542688D01*
X4461741Y-9542688D02*
X4480788Y-9533164D01*
X4737931Y-9733164D02*
X4623646Y-9733164D01*
X4680788Y-9733164D02*
X4680788Y-9533164D01*
X4680788Y-9533164D02*
X4661741Y-9561735D01*
X4661741Y-9561735D02*
X4642693Y-9580783D01*
X4642693Y-9580783D02*
X4623646Y-9590307D01*
X4918884Y-9533164D02*
X4823646Y-9533164D01*
X4823646Y-9533164D02*
X4814122Y-9628402D01*
X4814122Y-9628402D02*
X4823646Y-9618878D01*
X4823646Y-9618878D02*
X4842693Y-9609354D01*
X4842693Y-9609354D02*
X4890312Y-9609354D01*
X4890312Y-9609354D02*
X4909360Y-9618878D01*
X4909360Y-9618878D02*
X4918884Y-9628402D01*
X4918884Y-9628402D02*
X4928408Y-9647450D01*
X4928408Y-9647450D02*
X4928408Y-9695069D01*
X4928408Y-9695069D02*
X4918884Y-9714116D01*
X4918884Y-9714116D02*
X4909360Y-9723640D01*
X4909360Y-9723640D02*
X4890312Y-9733164D01*
X4890312Y-9733164D02*
X4842693Y-9733164D01*
X4842693Y-9733164D02*
X4823646Y-9723640D01*
X4823646Y-9723640D02*
X4814122Y-9714116D01*
X4995074Y-9533164D02*
X5128408Y-9533164D01*
X5128408Y-9533164D02*
X5042693Y-9733164D01*
X5195074Y-9533164D02*
X5195074Y-9571259D01*
X5271265Y-9533164D02*
X5271265Y-9571259D01*
X5566503Y-9809354D02*
X5556979Y-9799830D01*
X5556979Y-9799830D02*
X5537931Y-9771259D01*
X5537931Y-9771259D02*
X5528408Y-9752211D01*
X5528408Y-9752211D02*
X5518884Y-9723640D01*
X5518884Y-9723640D02*
X5509360Y-9676021D01*
X5509360Y-9676021D02*
X5509360Y-9637926D01*
X5509360Y-9637926D02*
X5518884Y-9590307D01*
X5518884Y-9590307D02*
X5528408Y-9561735D01*
X5528408Y-9561735D02*
X5537931Y-9542688D01*
X5537931Y-9542688D02*
X5556979Y-9514116D01*
X5556979Y-9514116D02*
X5566503Y-9504592D01*
X5652217Y-9733164D02*
X5690312Y-9733164D01*
X5690312Y-9733164D02*
X5709360Y-9723640D01*
X5709360Y-9723640D02*
X5718884Y-9714116D01*
X5718884Y-9714116D02*
X5737931Y-9685545D01*
X5737931Y-9685545D02*
X5747455Y-9647450D01*
X5747455Y-9647450D02*
X5747455Y-9571259D01*
X5747455Y-9571259D02*
X5737931Y-9552211D01*
X5737931Y-9552211D02*
X5728408Y-9542688D01*
X5728408Y-9542688D02*
X5709360Y-9533164D01*
X5709360Y-9533164D02*
X5671265Y-9533164D01*
X5671265Y-9533164D02*
X5652217Y-9542688D01*
X5652217Y-9542688D02*
X5642693Y-9552211D01*
X5642693Y-9552211D02*
X5633169Y-9571259D01*
X5633169Y-9571259D02*
X5633169Y-9618878D01*
X5633169Y-9618878D02*
X5642693Y-9637926D01*
X5642693Y-9637926D02*
X5652217Y-9647450D01*
X5652217Y-9647450D02*
X5671265Y-9656973D01*
X5671265Y-9656973D02*
X5709360Y-9656973D01*
X5709360Y-9656973D02*
X5728408Y-9647450D01*
X5728408Y-9647450D02*
X5737931Y-9637926D01*
X5737931Y-9637926D02*
X5747455Y-9618878D01*
X5861741Y-9618878D02*
X5842693Y-9609354D01*
X5842693Y-9609354D02*
X5833169Y-9599830D01*
X5833169Y-9599830D02*
X5823646Y-9580783D01*
X5823646Y-9580783D02*
X5823646Y-9571259D01*
X5823646Y-9571259D02*
X5833169Y-9552211D01*
X5833169Y-9552211D02*
X5842693Y-9542688D01*
X5842693Y-9542688D02*
X5861741Y-9533164D01*
X5861741Y-9533164D02*
X5899836Y-9533164D01*
X5899836Y-9533164D02*
X5918884Y-9542688D01*
X5918884Y-9542688D02*
X5928408Y-9552211D01*
X5928408Y-9552211D02*
X5937931Y-9571259D01*
X5937931Y-9571259D02*
X5937931Y-9580783D01*
X5937931Y-9580783D02*
X5928408Y-9599830D01*
X5928408Y-9599830D02*
X5918884Y-9609354D01*
X5918884Y-9609354D02*
X5899836Y-9618878D01*
X5899836Y-9618878D02*
X5861741Y-9618878D01*
X5861741Y-9618878D02*
X5842693Y-9628402D01*
X5842693Y-9628402D02*
X5833169Y-9637926D01*
X5833169Y-9637926D02*
X5823646Y-9656973D01*
X5823646Y-9656973D02*
X5823646Y-9695069D01*
X5823646Y-9695069D02*
X5833169Y-9714116D01*
X5833169Y-9714116D02*
X5842693Y-9723640D01*
X5842693Y-9723640D02*
X5861741Y-9733164D01*
X5861741Y-9733164D02*
X5899836Y-9733164D01*
X5899836Y-9733164D02*
X5918884Y-9723640D01*
X5918884Y-9723640D02*
X5928408Y-9714116D01*
X5928408Y-9714116D02*
X5937931Y-9695069D01*
X5937931Y-9695069D02*
X5937931Y-9656973D01*
X5937931Y-9656973D02*
X5928408Y-9637926D01*
X5928408Y-9637926D02*
X5918884Y-9628402D01*
X5918884Y-9628402D02*
X5899836Y-9618878D01*
X6176027Y-9733164D02*
X6176027Y-9533164D01*
X6261741Y-9733164D02*
X6261741Y-9628402D01*
X6261741Y-9628402D02*
X6252217Y-9609354D01*
X6252217Y-9609354D02*
X6233170Y-9599830D01*
X6233170Y-9599830D02*
X6204598Y-9599830D01*
X6204598Y-9599830D02*
X6185550Y-9609354D01*
X6185550Y-9609354D02*
X6176027Y-9618878D01*
X6385550Y-9733164D02*
X6366503Y-9723640D01*
X6366503Y-9723640D02*
X6356979Y-9714116D01*
X6356979Y-9714116D02*
X6347455Y-9695069D01*
X6347455Y-9695069D02*
X6347455Y-9637926D01*
X6347455Y-9637926D02*
X6356979Y-9618878D01*
X6356979Y-9618878D02*
X6366503Y-9609354D01*
X6366503Y-9609354D02*
X6385550Y-9599830D01*
X6385550Y-9599830D02*
X6414122Y-9599830D01*
X6414122Y-9599830D02*
X6433170Y-9609354D01*
X6433170Y-9609354D02*
X6442693Y-9618878D01*
X6442693Y-9618878D02*
X6452217Y-9637926D01*
X6452217Y-9637926D02*
X6452217Y-9695069D01*
X6452217Y-9695069D02*
X6442693Y-9714116D01*
X6442693Y-9714116D02*
X6433170Y-9723640D01*
X6433170Y-9723640D02*
X6414122Y-9733164D01*
X6414122Y-9733164D02*
X6385550Y-9733164D01*
X6566503Y-9733164D02*
X6547455Y-9723640D01*
X6547455Y-9723640D02*
X6537931Y-9704592D01*
X6537931Y-9704592D02*
X6537931Y-9533164D01*
X6718884Y-9723640D02*
X6699836Y-9733164D01*
X6699836Y-9733164D02*
X6661741Y-9733164D01*
X6661741Y-9733164D02*
X6642693Y-9723640D01*
X6642693Y-9723640D02*
X6633170Y-9704592D01*
X6633170Y-9704592D02*
X6633170Y-9628402D01*
X6633170Y-9628402D02*
X6642693Y-9609354D01*
X6642693Y-9609354D02*
X6661741Y-9599830D01*
X6661741Y-9599830D02*
X6699836Y-9599830D01*
X6699836Y-9599830D02*
X6718884Y-9609354D01*
X6718884Y-9609354D02*
X6728408Y-9628402D01*
X6728408Y-9628402D02*
X6728408Y-9647450D01*
X6728408Y-9647450D02*
X6633170Y-9666497D01*
X6804598Y-9723640D02*
X6823646Y-9733164D01*
X6823646Y-9733164D02*
X6861741Y-9733164D01*
X6861741Y-9733164D02*
X6880789Y-9723640D01*
X6880789Y-9723640D02*
X6890312Y-9704592D01*
X6890312Y-9704592D02*
X6890312Y-9695069D01*
X6890312Y-9695069D02*
X6880789Y-9676021D01*
X6880789Y-9676021D02*
X6861741Y-9666497D01*
X6861741Y-9666497D02*
X6833170Y-9666497D01*
X6833170Y-9666497D02*
X6814122Y-9656973D01*
X6814122Y-9656973D02*
X6804598Y-9637926D01*
X6804598Y-9637926D02*
X6804598Y-9628402D01*
X6804598Y-9628402D02*
X6814122Y-9609354D01*
X6814122Y-9609354D02*
X6833170Y-9599830D01*
X6833170Y-9599830D02*
X6861741Y-9599830D01*
X6861741Y-9599830D02*
X6880789Y-9609354D01*
X6956979Y-9809354D02*
X6966503Y-9799830D01*
X6966503Y-9799830D02*
X6985551Y-9771259D01*
X6985551Y-9771259D02*
X6995074Y-9752211D01*
X6995074Y-9752211D02*
X7004598Y-9723640D01*
X7004598Y-9723640D02*
X7014122Y-9676021D01*
X7014122Y-9676021D02*
X7014122Y-9637926D01*
X7014122Y-9637926D02*
X7004598Y-9590307D01*
X7004598Y-9590307D02*
X6995074Y-9561735D01*
X6995074Y-9561735D02*
X6985551Y-9542688D01*
X6985551Y-9542688D02*
X6966503Y-9514116D01*
X6966503Y-9514116D02*
X6956979Y-9504592D01*
D10*
X1991440Y-9905680D02*
G75*
G03*
X1891440Y-9905680I-50000J0D01*
G01*
X1891440Y-9905680D02*
G75*
G03*
X1991440Y-9905680I50000J0D01*
G01*
D11*
X2356979Y-9997164D02*
X2242693Y-9997164D01*
X2299836Y-9997164D02*
X2299836Y-9797164D01*
X2299836Y-9797164D02*
X2280788Y-9825735D01*
X2280788Y-9825735D02*
X2261741Y-9844783D01*
X2261741Y-9844783D02*
X2242693Y-9854307D01*
X2442693Y-9978116D02*
X2452217Y-9987640D01*
X2452217Y-9987640D02*
X2442693Y-9997164D01*
X2442693Y-9997164D02*
X2433169Y-9987640D01*
X2433169Y-9987640D02*
X2442693Y-9978116D01*
X2442693Y-9978116D02*
X2442693Y-9997164D01*
X2576026Y-9797164D02*
X2595074Y-9797164D01*
X2595074Y-9797164D02*
X2614122Y-9806688D01*
X2614122Y-9806688D02*
X2623645Y-9816211D01*
X2623645Y-9816211D02*
X2633169Y-9835259D01*
X2633169Y-9835259D02*
X2642693Y-9873354D01*
X2642693Y-9873354D02*
X2642693Y-9920973D01*
X2642693Y-9920973D02*
X2633169Y-9959069D01*
X2633169Y-9959069D02*
X2623645Y-9978116D01*
X2623645Y-9978116D02*
X2614122Y-9987640D01*
X2614122Y-9987640D02*
X2595074Y-9997164D01*
X2595074Y-9997164D02*
X2576026Y-9997164D01*
X2576026Y-9997164D02*
X2556979Y-9987640D01*
X2556979Y-9987640D02*
X2547455Y-9978116D01*
X2547455Y-9978116D02*
X2537931Y-9959069D01*
X2537931Y-9959069D02*
X2528407Y-9920973D01*
X2528407Y-9920973D02*
X2528407Y-9873354D01*
X2528407Y-9873354D02*
X2537931Y-9835259D01*
X2537931Y-9835259D02*
X2547455Y-9816211D01*
X2547455Y-9816211D02*
X2556979Y-9806688D01*
X2556979Y-9806688D02*
X2576026Y-9797164D01*
X2766503Y-9797164D02*
X2785550Y-9797164D01*
X2785550Y-9797164D02*
X2804598Y-9806688D01*
X2804598Y-9806688D02*
X2814122Y-9816211D01*
X2814122Y-9816211D02*
X2823645Y-9835259D01*
X2823645Y-9835259D02*
X2833169Y-9873354D01*
X2833169Y-9873354D02*
X2833169Y-9920973D01*
X2833169Y-9920973D02*
X2823645Y-9959069D01*
X2823645Y-9959069D02*
X2814122Y-9978116D01*
X2814122Y-9978116D02*
X2804598Y-9987640D01*
X2804598Y-9987640D02*
X2785550Y-9997164D01*
X2785550Y-9997164D02*
X2766503Y-9997164D01*
X2766503Y-9997164D02*
X2747455Y-9987640D01*
X2747455Y-9987640D02*
X2737931Y-9978116D01*
X2737931Y-9978116D02*
X2728407Y-9959069D01*
X2728407Y-9959069D02*
X2718884Y-9920973D01*
X2718884Y-9920973D02*
X2718884Y-9873354D01*
X2718884Y-9873354D02*
X2728407Y-9835259D01*
X2728407Y-9835259D02*
X2737931Y-9816211D01*
X2737931Y-9816211D02*
X2747455Y-9806688D01*
X2747455Y-9806688D02*
X2766503Y-9797164D01*
X2956979Y-9797164D02*
X2976026Y-9797164D01*
X2976026Y-9797164D02*
X2995074Y-9806688D01*
X2995074Y-9806688D02*
X3004598Y-9816211D01*
X3004598Y-9816211D02*
X3014122Y-9835259D01*
X3014122Y-9835259D02*
X3023645Y-9873354D01*
X3023645Y-9873354D02*
X3023645Y-9920973D01*
X3023645Y-9920973D02*
X3014122Y-9959069D01*
X3014122Y-9959069D02*
X3004598Y-9978116D01*
X3004598Y-9978116D02*
X2995074Y-9987640D01*
X2995074Y-9987640D02*
X2976026Y-9997164D01*
X2976026Y-9997164D02*
X2956979Y-9997164D01*
X2956979Y-9997164D02*
X2937931Y-9987640D01*
X2937931Y-9987640D02*
X2928407Y-9978116D01*
X2928407Y-9978116D02*
X2918883Y-9959069D01*
X2918883Y-9959069D02*
X2909360Y-9920973D01*
X2909360Y-9920973D02*
X2909360Y-9873354D01*
X2909360Y-9873354D02*
X2918883Y-9835259D01*
X2918883Y-9835259D02*
X2928407Y-9816211D01*
X2928407Y-9816211D02*
X2937931Y-9806688D01*
X2937931Y-9806688D02*
X2956979Y-9797164D01*
X3109360Y-9997164D02*
X3109360Y-9863830D01*
X3109360Y-9882878D02*
X3118883Y-9873354D01*
X3118883Y-9873354D02*
X3137931Y-9863830D01*
X3137931Y-9863830D02*
X3166503Y-9863830D01*
X3166503Y-9863830D02*
X3185550Y-9873354D01*
X3185550Y-9873354D02*
X3195074Y-9892402D01*
X3195074Y-9892402D02*
X3195074Y-9997164D01*
X3195074Y-9892402D02*
X3204598Y-9873354D01*
X3204598Y-9873354D02*
X3223645Y-9863830D01*
X3223645Y-9863830D02*
X3252217Y-9863830D01*
X3252217Y-9863830D02*
X3271264Y-9873354D01*
X3271264Y-9873354D02*
X3280788Y-9892402D01*
X3280788Y-9892402D02*
X3280788Y-9997164D01*
X3376026Y-9997164D02*
X3376026Y-9863830D01*
X3376026Y-9882878D02*
X3385550Y-9873354D01*
X3385550Y-9873354D02*
X3404598Y-9863830D01*
X3404598Y-9863830D02*
X3433169Y-9863830D01*
X3433169Y-9863830D02*
X3452217Y-9873354D01*
X3452217Y-9873354D02*
X3461741Y-9892402D01*
X3461741Y-9892402D02*
X3461741Y-9997164D01*
X3461741Y-9892402D02*
X3471264Y-9873354D01*
X3471264Y-9873354D02*
X3490312Y-9863830D01*
X3490312Y-9863830D02*
X3518883Y-9863830D01*
X3518883Y-9863830D02*
X3537931Y-9873354D01*
X3537931Y-9873354D02*
X3547455Y-9892402D01*
X3547455Y-9892402D02*
X3547455Y-9997164D01*
X3937931Y-9787640D02*
X3766503Y-10044783D01*
X4195074Y-9797164D02*
X4214122Y-9797164D01*
X4214122Y-9797164D02*
X4233169Y-9806688D01*
X4233169Y-9806688D02*
X4242693Y-9816211D01*
X4242693Y-9816211D02*
X4252217Y-9835259D01*
X4252217Y-9835259D02*
X4261741Y-9873354D01*
X4261741Y-9873354D02*
X4261741Y-9920973D01*
X4261741Y-9920973D02*
X4252217Y-9959069D01*
X4252217Y-9959069D02*
X4242693Y-9978116D01*
X4242693Y-9978116D02*
X4233169Y-9987640D01*
X4233169Y-9987640D02*
X4214122Y-9997164D01*
X4214122Y-9997164D02*
X4195074Y-9997164D01*
X4195074Y-9997164D02*
X4176026Y-9987640D01*
X4176026Y-9987640D02*
X4166503Y-9978116D01*
X4166503Y-9978116D02*
X4156979Y-9959069D01*
X4156979Y-9959069D02*
X4147455Y-9920973D01*
X4147455Y-9920973D02*
X4147455Y-9873354D01*
X4147455Y-9873354D02*
X4156979Y-9835259D01*
X4156979Y-9835259D02*
X4166503Y-9816211D01*
X4166503Y-9816211D02*
X4176026Y-9806688D01*
X4176026Y-9806688D02*
X4195074Y-9797164D01*
X4347455Y-9978116D02*
X4356979Y-9987640D01*
X4356979Y-9987640D02*
X4347455Y-9997164D01*
X4347455Y-9997164D02*
X4337931Y-9987640D01*
X4337931Y-9987640D02*
X4347455Y-9978116D01*
X4347455Y-9978116D02*
X4347455Y-9997164D01*
X4480788Y-9797164D02*
X4499836Y-9797164D01*
X4499836Y-9797164D02*
X4518884Y-9806688D01*
X4518884Y-9806688D02*
X4528408Y-9816211D01*
X4528408Y-9816211D02*
X4537931Y-9835259D01*
X4537931Y-9835259D02*
X4547455Y-9873354D01*
X4547455Y-9873354D02*
X4547455Y-9920973D01*
X4547455Y-9920973D02*
X4537931Y-9959069D01*
X4537931Y-9959069D02*
X4528408Y-9978116D01*
X4528408Y-9978116D02*
X4518884Y-9987640D01*
X4518884Y-9987640D02*
X4499836Y-9997164D01*
X4499836Y-9997164D02*
X4480788Y-9997164D01*
X4480788Y-9997164D02*
X4461741Y-9987640D01*
X4461741Y-9987640D02*
X4452217Y-9978116D01*
X4452217Y-9978116D02*
X4442693Y-9959069D01*
X4442693Y-9959069D02*
X4433169Y-9920973D01*
X4433169Y-9920973D02*
X4433169Y-9873354D01*
X4433169Y-9873354D02*
X4442693Y-9835259D01*
X4442693Y-9835259D02*
X4452217Y-9816211D01*
X4452217Y-9816211D02*
X4461741Y-9806688D01*
X4461741Y-9806688D02*
X4480788Y-9797164D01*
X4614122Y-9797164D02*
X4737931Y-9797164D01*
X4737931Y-9797164D02*
X4671265Y-9873354D01*
X4671265Y-9873354D02*
X4699836Y-9873354D01*
X4699836Y-9873354D02*
X4718884Y-9882878D01*
X4718884Y-9882878D02*
X4728408Y-9892402D01*
X4728408Y-9892402D02*
X4737931Y-9911450D01*
X4737931Y-9911450D02*
X4737931Y-9959069D01*
X4737931Y-9959069D02*
X4728408Y-9978116D01*
X4728408Y-9978116D02*
X4718884Y-9987640D01*
X4718884Y-9987640D02*
X4699836Y-9997164D01*
X4699836Y-9997164D02*
X4642693Y-9997164D01*
X4642693Y-9997164D02*
X4623646Y-9987640D01*
X4623646Y-9987640D02*
X4614122Y-9978116D01*
X4833169Y-9997164D02*
X4871265Y-9997164D01*
X4871265Y-9997164D02*
X4890312Y-9987640D01*
X4890312Y-9987640D02*
X4899836Y-9978116D01*
X4899836Y-9978116D02*
X4918884Y-9949545D01*
X4918884Y-9949545D02*
X4928408Y-9911450D01*
X4928408Y-9911450D02*
X4928408Y-9835259D01*
X4928408Y-9835259D02*
X4918884Y-9816211D01*
X4918884Y-9816211D02*
X4909360Y-9806688D01*
X4909360Y-9806688D02*
X4890312Y-9797164D01*
X4890312Y-9797164D02*
X4852217Y-9797164D01*
X4852217Y-9797164D02*
X4833169Y-9806688D01*
X4833169Y-9806688D02*
X4823646Y-9816211D01*
X4823646Y-9816211D02*
X4814122Y-9835259D01*
X4814122Y-9835259D02*
X4814122Y-9882878D01*
X4814122Y-9882878D02*
X4823646Y-9901926D01*
X4823646Y-9901926D02*
X4833169Y-9911450D01*
X4833169Y-9911450D02*
X4852217Y-9920973D01*
X4852217Y-9920973D02*
X4890312Y-9920973D01*
X4890312Y-9920973D02*
X4909360Y-9911450D01*
X4909360Y-9911450D02*
X4918884Y-9901926D01*
X4918884Y-9901926D02*
X4928408Y-9882878D01*
X5099836Y-9863830D02*
X5099836Y-9997164D01*
X5052217Y-9787640D02*
X5004598Y-9930497D01*
X5004598Y-9930497D02*
X5128408Y-9930497D01*
X5195074Y-9797164D02*
X5195074Y-9835259D01*
X5271265Y-9797164D02*
X5271265Y-9835259D01*
X5566503Y-10073354D02*
X5556979Y-10063830D01*
X5556979Y-10063830D02*
X5537931Y-10035259D01*
X5537931Y-10035259D02*
X5528408Y-10016211D01*
X5528408Y-10016211D02*
X5518884Y-9987640D01*
X5518884Y-9987640D02*
X5509360Y-9940021D01*
X5509360Y-9940021D02*
X5509360Y-9901926D01*
X5509360Y-9901926D02*
X5518884Y-9854307D01*
X5518884Y-9854307D02*
X5528408Y-9825735D01*
X5528408Y-9825735D02*
X5537931Y-9806688D01*
X5537931Y-9806688D02*
X5556979Y-9778116D01*
X5556979Y-9778116D02*
X5566503Y-9768592D01*
X5728408Y-9863830D02*
X5728408Y-9997164D01*
X5680788Y-9787640D02*
X5633169Y-9930497D01*
X5633169Y-9930497D02*
X5756979Y-9930497D01*
X5871265Y-9797164D02*
X5890312Y-9797164D01*
X5890312Y-9797164D02*
X5909360Y-9806688D01*
X5909360Y-9806688D02*
X5918884Y-9816211D01*
X5918884Y-9816211D02*
X5928408Y-9835259D01*
X5928408Y-9835259D02*
X5937931Y-9873354D01*
X5937931Y-9873354D02*
X5937931Y-9920973D01*
X5937931Y-9920973D02*
X5928408Y-9959069D01*
X5928408Y-9959069D02*
X5918884Y-9978116D01*
X5918884Y-9978116D02*
X5909360Y-9987640D01*
X5909360Y-9987640D02*
X5890312Y-9997164D01*
X5890312Y-9997164D02*
X5871265Y-9997164D01*
X5871265Y-9997164D02*
X5852217Y-9987640D01*
X5852217Y-9987640D02*
X5842693Y-9978116D01*
X5842693Y-9978116D02*
X5833169Y-9959069D01*
X5833169Y-9959069D02*
X5823646Y-9920973D01*
X5823646Y-9920973D02*
X5823646Y-9873354D01*
X5823646Y-9873354D02*
X5833169Y-9835259D01*
X5833169Y-9835259D02*
X5842693Y-9816211D01*
X5842693Y-9816211D02*
X5852217Y-9806688D01*
X5852217Y-9806688D02*
X5871265Y-9797164D01*
X6176027Y-9997164D02*
X6176027Y-9797164D01*
X6261741Y-9997164D02*
X6261741Y-9892402D01*
X6261741Y-9892402D02*
X6252217Y-9873354D01*
X6252217Y-9873354D02*
X6233170Y-9863830D01*
X6233170Y-9863830D02*
X6204598Y-9863830D01*
X6204598Y-9863830D02*
X6185550Y-9873354D01*
X6185550Y-9873354D02*
X6176027Y-9882878D01*
X6385550Y-9997164D02*
X6366503Y-9987640D01*
X6366503Y-9987640D02*
X6356979Y-9978116D01*
X6356979Y-9978116D02*
X6347455Y-9959069D01*
X6347455Y-9959069D02*
X6347455Y-9901926D01*
X6347455Y-9901926D02*
X6356979Y-9882878D01*
X6356979Y-9882878D02*
X6366503Y-9873354D01*
X6366503Y-9873354D02*
X6385550Y-9863830D01*
X6385550Y-9863830D02*
X6414122Y-9863830D01*
X6414122Y-9863830D02*
X6433170Y-9873354D01*
X6433170Y-9873354D02*
X6442693Y-9882878D01*
X6442693Y-9882878D02*
X6452217Y-9901926D01*
X6452217Y-9901926D02*
X6452217Y-9959069D01*
X6452217Y-9959069D02*
X6442693Y-9978116D01*
X6442693Y-9978116D02*
X6433170Y-9987640D01*
X6433170Y-9987640D02*
X6414122Y-9997164D01*
X6414122Y-9997164D02*
X6385550Y-9997164D01*
X6566503Y-9997164D02*
X6547455Y-9987640D01*
X6547455Y-9987640D02*
X6537931Y-9968592D01*
X6537931Y-9968592D02*
X6537931Y-9797164D01*
X6718884Y-9987640D02*
X6699836Y-9997164D01*
X6699836Y-9997164D02*
X6661741Y-9997164D01*
X6661741Y-9997164D02*
X6642693Y-9987640D01*
X6642693Y-9987640D02*
X6633170Y-9968592D01*
X6633170Y-9968592D02*
X6633170Y-9892402D01*
X6633170Y-9892402D02*
X6642693Y-9873354D01*
X6642693Y-9873354D02*
X6661741Y-9863830D01*
X6661741Y-9863830D02*
X6699836Y-9863830D01*
X6699836Y-9863830D02*
X6718884Y-9873354D01*
X6718884Y-9873354D02*
X6728408Y-9892402D01*
X6728408Y-9892402D02*
X6728408Y-9911450D01*
X6728408Y-9911450D02*
X6633170Y-9930497D01*
X6804598Y-9987640D02*
X6823646Y-9997164D01*
X6823646Y-9997164D02*
X6861741Y-9997164D01*
X6861741Y-9997164D02*
X6880789Y-9987640D01*
X6880789Y-9987640D02*
X6890312Y-9968592D01*
X6890312Y-9968592D02*
X6890312Y-9959069D01*
X6890312Y-9959069D02*
X6880789Y-9940021D01*
X6880789Y-9940021D02*
X6861741Y-9930497D01*
X6861741Y-9930497D02*
X6833170Y-9930497D01*
X6833170Y-9930497D02*
X6814122Y-9920973D01*
X6814122Y-9920973D02*
X6804598Y-9901926D01*
X6804598Y-9901926D02*
X6804598Y-9892402D01*
X6804598Y-9892402D02*
X6814122Y-9873354D01*
X6814122Y-9873354D02*
X6833170Y-9863830D01*
X6833170Y-9863830D02*
X6861741Y-9863830D01*
X6861741Y-9863830D02*
X6880789Y-9873354D01*
X6956979Y-10073354D02*
X6966503Y-10063830D01*
X6966503Y-10063830D02*
X6985551Y-10035259D01*
X6985551Y-10035259D02*
X6995074Y-10016211D01*
X6995074Y-10016211D02*
X7004598Y-9987640D01*
X7004598Y-9987640D02*
X7014122Y-9940021D01*
X7014122Y-9940021D02*
X7014122Y-9901926D01*
X7014122Y-9901926D02*
X7004598Y-9854307D01*
X7004598Y-9854307D02*
X6995074Y-9825735D01*
X6995074Y-9825735D02*
X6985551Y-9806688D01*
X6985551Y-9806688D02*
X6966503Y-9778116D01*
X6966503Y-9778116D02*
X6956979Y-9768592D01*
D12*
X1915440Y-10093680D02*
X1915440Y-10245680D01*
X1839440Y-10169680D02*
X1991440Y-10169680D01*
D11*
X2356979Y-10261164D02*
X2242693Y-10261164D01*
X2299836Y-10261164D02*
X2299836Y-10061164D01*
X2299836Y-10061164D02*
X2280788Y-10089735D01*
X2280788Y-10089735D02*
X2261741Y-10108783D01*
X2261741Y-10108783D02*
X2242693Y-10118307D01*
X2442693Y-10242116D02*
X2452217Y-10251640D01*
X2452217Y-10251640D02*
X2442693Y-10261164D01*
X2442693Y-10261164D02*
X2433169Y-10251640D01*
X2433169Y-10251640D02*
X2442693Y-10242116D01*
X2442693Y-10242116D02*
X2442693Y-10261164D01*
X2633169Y-10061164D02*
X2537931Y-10061164D01*
X2537931Y-10061164D02*
X2528407Y-10156402D01*
X2528407Y-10156402D02*
X2537931Y-10146878D01*
X2537931Y-10146878D02*
X2556979Y-10137354D01*
X2556979Y-10137354D02*
X2604598Y-10137354D01*
X2604598Y-10137354D02*
X2623645Y-10146878D01*
X2623645Y-10146878D02*
X2633169Y-10156402D01*
X2633169Y-10156402D02*
X2642693Y-10175450D01*
X2642693Y-10175450D02*
X2642693Y-10223069D01*
X2642693Y-10223069D02*
X2633169Y-10242116D01*
X2633169Y-10242116D02*
X2623645Y-10251640D01*
X2623645Y-10251640D02*
X2604598Y-10261164D01*
X2604598Y-10261164D02*
X2556979Y-10261164D01*
X2556979Y-10261164D02*
X2537931Y-10251640D01*
X2537931Y-10251640D02*
X2528407Y-10242116D01*
X2718884Y-10080211D02*
X2728407Y-10070688D01*
X2728407Y-10070688D02*
X2747455Y-10061164D01*
X2747455Y-10061164D02*
X2795074Y-10061164D01*
X2795074Y-10061164D02*
X2814122Y-10070688D01*
X2814122Y-10070688D02*
X2823645Y-10080211D01*
X2823645Y-10080211D02*
X2833169Y-10099259D01*
X2833169Y-10099259D02*
X2833169Y-10118307D01*
X2833169Y-10118307D02*
X2823645Y-10146878D01*
X2823645Y-10146878D02*
X2709360Y-10261164D01*
X2709360Y-10261164D02*
X2833169Y-10261164D01*
X2956979Y-10061164D02*
X2976026Y-10061164D01*
X2976026Y-10061164D02*
X2995074Y-10070688D01*
X2995074Y-10070688D02*
X3004598Y-10080211D01*
X3004598Y-10080211D02*
X3014122Y-10099259D01*
X3014122Y-10099259D02*
X3023645Y-10137354D01*
X3023645Y-10137354D02*
X3023645Y-10184973D01*
X3023645Y-10184973D02*
X3014122Y-10223069D01*
X3014122Y-10223069D02*
X3004598Y-10242116D01*
X3004598Y-10242116D02*
X2995074Y-10251640D01*
X2995074Y-10251640D02*
X2976026Y-10261164D01*
X2976026Y-10261164D02*
X2956979Y-10261164D01*
X2956979Y-10261164D02*
X2937931Y-10251640D01*
X2937931Y-10251640D02*
X2928407Y-10242116D01*
X2928407Y-10242116D02*
X2918883Y-10223069D01*
X2918883Y-10223069D02*
X2909360Y-10184973D01*
X2909360Y-10184973D02*
X2909360Y-10137354D01*
X2909360Y-10137354D02*
X2918883Y-10099259D01*
X2918883Y-10099259D02*
X2928407Y-10080211D01*
X2928407Y-10080211D02*
X2937931Y-10070688D01*
X2937931Y-10070688D02*
X2956979Y-10061164D01*
X3109360Y-10261164D02*
X3109360Y-10127830D01*
X3109360Y-10146878D02*
X3118883Y-10137354D01*
X3118883Y-10137354D02*
X3137931Y-10127830D01*
X3137931Y-10127830D02*
X3166503Y-10127830D01*
X3166503Y-10127830D02*
X3185550Y-10137354D01*
X3185550Y-10137354D02*
X3195074Y-10156402D01*
X3195074Y-10156402D02*
X3195074Y-10261164D01*
X3195074Y-10156402D02*
X3204598Y-10137354D01*
X3204598Y-10137354D02*
X3223645Y-10127830D01*
X3223645Y-10127830D02*
X3252217Y-10127830D01*
X3252217Y-10127830D02*
X3271264Y-10137354D01*
X3271264Y-10137354D02*
X3280788Y-10156402D01*
X3280788Y-10156402D02*
X3280788Y-10261164D01*
X3376026Y-10261164D02*
X3376026Y-10127830D01*
X3376026Y-10146878D02*
X3385550Y-10137354D01*
X3385550Y-10137354D02*
X3404598Y-10127830D01*
X3404598Y-10127830D02*
X3433169Y-10127830D01*
X3433169Y-10127830D02*
X3452217Y-10137354D01*
X3452217Y-10137354D02*
X3461741Y-10156402D01*
X3461741Y-10156402D02*
X3461741Y-10261164D01*
X3461741Y-10156402D02*
X3471264Y-10137354D01*
X3471264Y-10137354D02*
X3490312Y-10127830D01*
X3490312Y-10127830D02*
X3518883Y-10127830D01*
X3518883Y-10127830D02*
X3537931Y-10137354D01*
X3537931Y-10137354D02*
X3547455Y-10156402D01*
X3547455Y-10156402D02*
X3547455Y-10261164D01*
X3937931Y-10051640D02*
X3766503Y-10308783D01*
X4195074Y-10061164D02*
X4214122Y-10061164D01*
X4214122Y-10061164D02*
X4233169Y-10070688D01*
X4233169Y-10070688D02*
X4242693Y-10080211D01*
X4242693Y-10080211D02*
X4252217Y-10099259D01*
X4252217Y-10099259D02*
X4261741Y-10137354D01*
X4261741Y-10137354D02*
X4261741Y-10184973D01*
X4261741Y-10184973D02*
X4252217Y-10223069D01*
X4252217Y-10223069D02*
X4242693Y-10242116D01*
X4242693Y-10242116D02*
X4233169Y-10251640D01*
X4233169Y-10251640D02*
X4214122Y-10261164D01*
X4214122Y-10261164D02*
X4195074Y-10261164D01*
X4195074Y-10261164D02*
X4176026Y-10251640D01*
X4176026Y-10251640D02*
X4166503Y-10242116D01*
X4166503Y-10242116D02*
X4156979Y-10223069D01*
X4156979Y-10223069D02*
X4147455Y-10184973D01*
X4147455Y-10184973D02*
X4147455Y-10137354D01*
X4147455Y-10137354D02*
X4156979Y-10099259D01*
X4156979Y-10099259D02*
X4166503Y-10080211D01*
X4166503Y-10080211D02*
X4176026Y-10070688D01*
X4176026Y-10070688D02*
X4195074Y-10061164D01*
X4347455Y-10242116D02*
X4356979Y-10251640D01*
X4356979Y-10251640D02*
X4347455Y-10261164D01*
X4347455Y-10261164D02*
X4337931Y-10251640D01*
X4337931Y-10251640D02*
X4347455Y-10242116D01*
X4347455Y-10242116D02*
X4347455Y-10261164D01*
X4480788Y-10061164D02*
X4499836Y-10061164D01*
X4499836Y-10061164D02*
X4518884Y-10070688D01*
X4518884Y-10070688D02*
X4528408Y-10080211D01*
X4528408Y-10080211D02*
X4537931Y-10099259D01*
X4537931Y-10099259D02*
X4547455Y-10137354D01*
X4547455Y-10137354D02*
X4547455Y-10184973D01*
X4547455Y-10184973D02*
X4537931Y-10223069D01*
X4537931Y-10223069D02*
X4528408Y-10242116D01*
X4528408Y-10242116D02*
X4518884Y-10251640D01*
X4518884Y-10251640D02*
X4499836Y-10261164D01*
X4499836Y-10261164D02*
X4480788Y-10261164D01*
X4480788Y-10261164D02*
X4461741Y-10251640D01*
X4461741Y-10251640D02*
X4452217Y-10242116D01*
X4452217Y-10242116D02*
X4442693Y-10223069D01*
X4442693Y-10223069D02*
X4433169Y-10184973D01*
X4433169Y-10184973D02*
X4433169Y-10137354D01*
X4433169Y-10137354D02*
X4442693Y-10099259D01*
X4442693Y-10099259D02*
X4452217Y-10080211D01*
X4452217Y-10080211D02*
X4461741Y-10070688D01*
X4461741Y-10070688D02*
X4480788Y-10061164D01*
X4728408Y-10061164D02*
X4633169Y-10061164D01*
X4633169Y-10061164D02*
X4623646Y-10156402D01*
X4623646Y-10156402D02*
X4633169Y-10146878D01*
X4633169Y-10146878D02*
X4652217Y-10137354D01*
X4652217Y-10137354D02*
X4699836Y-10137354D01*
X4699836Y-10137354D02*
X4718884Y-10146878D01*
X4718884Y-10146878D02*
X4728408Y-10156402D01*
X4728408Y-10156402D02*
X4737931Y-10175450D01*
X4737931Y-10175450D02*
X4737931Y-10223069D01*
X4737931Y-10223069D02*
X4728408Y-10242116D01*
X4728408Y-10242116D02*
X4718884Y-10251640D01*
X4718884Y-10251640D02*
X4699836Y-10261164D01*
X4699836Y-10261164D02*
X4652217Y-10261164D01*
X4652217Y-10261164D02*
X4633169Y-10251640D01*
X4633169Y-10251640D02*
X4623646Y-10242116D01*
X4833169Y-10261164D02*
X4871265Y-10261164D01*
X4871265Y-10261164D02*
X4890312Y-10251640D01*
X4890312Y-10251640D02*
X4899836Y-10242116D01*
X4899836Y-10242116D02*
X4918884Y-10213545D01*
X4918884Y-10213545D02*
X4928408Y-10175450D01*
X4928408Y-10175450D02*
X4928408Y-10099259D01*
X4928408Y-10099259D02*
X4918884Y-10080211D01*
X4918884Y-10080211D02*
X4909360Y-10070688D01*
X4909360Y-10070688D02*
X4890312Y-10061164D01*
X4890312Y-10061164D02*
X4852217Y-10061164D01*
X4852217Y-10061164D02*
X4833169Y-10070688D01*
X4833169Y-10070688D02*
X4823646Y-10080211D01*
X4823646Y-10080211D02*
X4814122Y-10099259D01*
X4814122Y-10099259D02*
X4814122Y-10146878D01*
X4814122Y-10146878D02*
X4823646Y-10165926D01*
X4823646Y-10165926D02*
X4833169Y-10175450D01*
X4833169Y-10175450D02*
X4852217Y-10184973D01*
X4852217Y-10184973D02*
X4890312Y-10184973D01*
X4890312Y-10184973D02*
X4909360Y-10175450D01*
X4909360Y-10175450D02*
X4918884Y-10165926D01*
X4918884Y-10165926D02*
X4928408Y-10146878D01*
X5042693Y-10146878D02*
X5023646Y-10137354D01*
X5023646Y-10137354D02*
X5014122Y-10127830D01*
X5014122Y-10127830D02*
X5004598Y-10108783D01*
X5004598Y-10108783D02*
X5004598Y-10099259D01*
X5004598Y-10099259D02*
X5014122Y-10080211D01*
X5014122Y-10080211D02*
X5023646Y-10070688D01*
X5023646Y-10070688D02*
X5042693Y-10061164D01*
X5042693Y-10061164D02*
X5080789Y-10061164D01*
X5080789Y-10061164D02*
X5099836Y-10070688D01*
X5099836Y-10070688D02*
X5109360Y-10080211D01*
X5109360Y-10080211D02*
X5118884Y-10099259D01*
X5118884Y-10099259D02*
X5118884Y-10108783D01*
X5118884Y-10108783D02*
X5109360Y-10127830D01*
X5109360Y-10127830D02*
X5099836Y-10137354D01*
X5099836Y-10137354D02*
X5080789Y-10146878D01*
X5080789Y-10146878D02*
X5042693Y-10146878D01*
X5042693Y-10146878D02*
X5023646Y-10156402D01*
X5023646Y-10156402D02*
X5014122Y-10165926D01*
X5014122Y-10165926D02*
X5004598Y-10184973D01*
X5004598Y-10184973D02*
X5004598Y-10223069D01*
X5004598Y-10223069D02*
X5014122Y-10242116D01*
X5014122Y-10242116D02*
X5023646Y-10251640D01*
X5023646Y-10251640D02*
X5042693Y-10261164D01*
X5042693Y-10261164D02*
X5080789Y-10261164D01*
X5080789Y-10261164D02*
X5099836Y-10251640D01*
X5099836Y-10251640D02*
X5109360Y-10242116D01*
X5109360Y-10242116D02*
X5118884Y-10223069D01*
X5118884Y-10223069D02*
X5118884Y-10184973D01*
X5118884Y-10184973D02*
X5109360Y-10165926D01*
X5109360Y-10165926D02*
X5099836Y-10156402D01*
X5099836Y-10156402D02*
X5080789Y-10146878D01*
X5195074Y-10061164D02*
X5195074Y-10099259D01*
X5271265Y-10061164D02*
X5271265Y-10099259D01*
X5566503Y-10337354D02*
X5556979Y-10327830D01*
X5556979Y-10327830D02*
X5537931Y-10299259D01*
X5537931Y-10299259D02*
X5528408Y-10280211D01*
X5528408Y-10280211D02*
X5518884Y-10251640D01*
X5518884Y-10251640D02*
X5509360Y-10204021D01*
X5509360Y-10204021D02*
X5509360Y-10165926D01*
X5509360Y-10165926D02*
X5518884Y-10118307D01*
X5518884Y-10118307D02*
X5528408Y-10089735D01*
X5528408Y-10089735D02*
X5537931Y-10070688D01*
X5537931Y-10070688D02*
X5556979Y-10042116D01*
X5556979Y-10042116D02*
X5566503Y-10032592D01*
X5633169Y-10080211D02*
X5642693Y-10070688D01*
X5642693Y-10070688D02*
X5661741Y-10061164D01*
X5661741Y-10061164D02*
X5709360Y-10061164D01*
X5709360Y-10061164D02*
X5728408Y-10070688D01*
X5728408Y-10070688D02*
X5737931Y-10080211D01*
X5737931Y-10080211D02*
X5747455Y-10099259D01*
X5747455Y-10099259D02*
X5747455Y-10118307D01*
X5747455Y-10118307D02*
X5737931Y-10146878D01*
X5737931Y-10146878D02*
X5623646Y-10261164D01*
X5623646Y-10261164D02*
X5747455Y-10261164D01*
X5985550Y-10261164D02*
X5985550Y-10061164D01*
X6071265Y-10261164D02*
X6071265Y-10156402D01*
X6071265Y-10156402D02*
X6061741Y-10137354D01*
X6061741Y-10137354D02*
X6042693Y-10127830D01*
X6042693Y-10127830D02*
X6014122Y-10127830D01*
X6014122Y-10127830D02*
X5995074Y-10137354D01*
X5995074Y-10137354D02*
X5985550Y-10146878D01*
X6195074Y-10261164D02*
X6176027Y-10251640D01*
X6176027Y-10251640D02*
X6166503Y-10242116D01*
X6166503Y-10242116D02*
X6156979Y-10223069D01*
X6156979Y-10223069D02*
X6156979Y-10165926D01*
X6156979Y-10165926D02*
X6166503Y-10146878D01*
X6166503Y-10146878D02*
X6176027Y-10137354D01*
X6176027Y-10137354D02*
X6195074Y-10127830D01*
X6195074Y-10127830D02*
X6223646Y-10127830D01*
X6223646Y-10127830D02*
X6242693Y-10137354D01*
X6242693Y-10137354D02*
X6252217Y-10146878D01*
X6252217Y-10146878D02*
X6261741Y-10165926D01*
X6261741Y-10165926D02*
X6261741Y-10223069D01*
X6261741Y-10223069D02*
X6252217Y-10242116D01*
X6252217Y-10242116D02*
X6242693Y-10251640D01*
X6242693Y-10251640D02*
X6223646Y-10261164D01*
X6223646Y-10261164D02*
X6195074Y-10261164D01*
X6376027Y-10261164D02*
X6356979Y-10251640D01*
X6356979Y-10251640D02*
X6347455Y-10232592D01*
X6347455Y-10232592D02*
X6347455Y-10061164D01*
X6528408Y-10251640D02*
X6509360Y-10261164D01*
X6509360Y-10261164D02*
X6471265Y-10261164D01*
X6471265Y-10261164D02*
X6452217Y-10251640D01*
X6452217Y-10251640D02*
X6442693Y-10232592D01*
X6442693Y-10232592D02*
X6442693Y-10156402D01*
X6442693Y-10156402D02*
X6452217Y-10137354D01*
X6452217Y-10137354D02*
X6471265Y-10127830D01*
X6471265Y-10127830D02*
X6509360Y-10127830D01*
X6509360Y-10127830D02*
X6528408Y-10137354D01*
X6528408Y-10137354D02*
X6537931Y-10156402D01*
X6537931Y-10156402D02*
X6537931Y-10175450D01*
X6537931Y-10175450D02*
X6442693Y-10194497D01*
X6614122Y-10251640D02*
X6633170Y-10261164D01*
X6633170Y-10261164D02*
X6671265Y-10261164D01*
X6671265Y-10261164D02*
X6690312Y-10251640D01*
X6690312Y-10251640D02*
X6699836Y-10232592D01*
X6699836Y-10232592D02*
X6699836Y-10223069D01*
X6699836Y-10223069D02*
X6690312Y-10204021D01*
X6690312Y-10204021D02*
X6671265Y-10194497D01*
X6671265Y-10194497D02*
X6642693Y-10194497D01*
X6642693Y-10194497D02*
X6623646Y-10184973D01*
X6623646Y-10184973D02*
X6614122Y-10165926D01*
X6614122Y-10165926D02*
X6614122Y-10156402D01*
X6614122Y-10156402D02*
X6623646Y-10137354D01*
X6623646Y-10137354D02*
X6642693Y-10127830D01*
X6642693Y-10127830D02*
X6671265Y-10127830D01*
X6671265Y-10127830D02*
X6690312Y-10137354D01*
X6766503Y-10337354D02*
X6776027Y-10327830D01*
X6776027Y-10327830D02*
X6795074Y-10299259D01*
X6795074Y-10299259D02*
X6804598Y-10280211D01*
X6804598Y-10280211D02*
X6814122Y-10251640D01*
X6814122Y-10251640D02*
X6823646Y-10204021D01*
X6823646Y-10204021D02*
X6823646Y-10165926D01*
X6823646Y-10165926D02*
X6814122Y-10118307D01*
X6814122Y-10118307D02*
X6804598Y-10089735D01*
X6804598Y-10089735D02*
X6795074Y-10070688D01*
X6795074Y-10070688D02*
X6776027Y-10042116D01*
X6776027Y-10042116D02*
X6766503Y-10032592D01*
M02*
