%TF.GenerationSoftware,KiCad,Pcbnew,7.0.10*%
%TF.CreationDate,2024-01-06T13:40:11+01:00*%
%TF.ProjectId,p2000t-ram-expansion-board-smd,70323030-3074-42d7-9261-6d2d65787061,rev?*%
%TF.SameCoordinates,Original*%
%TF.FileFunction,Copper,L2,Bot*%
%TF.FilePolarity,Positive*%
%FSLAX46Y46*%
G04 Gerber Fmt 4.6, Leading zero omitted, Abs format (unit mm)*
G04 Created by KiCad (PCBNEW 7.0.10) date 2024-01-06 13:40:11*
%MOMM*%
%LPD*%
G01*
G04 APERTURE LIST*
%TA.AperFunction,ComponentPad*%
%ADD10R,3.000000X3.000000*%
%TD*%
%TA.AperFunction,ComponentPad*%
%ADD11C,3.000000*%
%TD*%
%TA.AperFunction,ComponentPad*%
%ADD12R,1.700000X1.700000*%
%TD*%
%TA.AperFunction,ComponentPad*%
%ADD13O,1.700000X1.700000*%
%TD*%
%TA.AperFunction,ViaPad*%
%ADD14C,0.800000*%
%TD*%
%TA.AperFunction,Conductor*%
%ADD15C,0.250000*%
%TD*%
%TA.AperFunction,Conductor*%
%ADD16C,0.500000*%
%TD*%
G04 APERTURE END LIST*
D10*
%TO.P,J3,1,Pin_1*%
%TO.N,GND*%
X26416000Y-62484000D03*
D11*
%TO.P,J3,2,Pin_2*%
%TO.N,VCC*%
X26416000Y-67564000D03*
%TD*%
D12*
%TO.P,J1,1,Pin_1*%
%TO.N,GND*%
X99055000Y-80518000D03*
D13*
%TO.P,J1,2,Pin_2*%
%TO.N,unconnected-(J1-Pin_2-Pad2)*%
X99055000Y-77978000D03*
%TO.P,J1,3,Pin_3*%
%TO.N,D0*%
X96515000Y-80518000D03*
%TO.P,J1,4,Pin_4*%
%TO.N,D1*%
X96515000Y-77978000D03*
%TO.P,J1,5,Pin_5*%
%TO.N,D2*%
X93975000Y-80518000D03*
%TO.P,J1,6,Pin_6*%
%TO.N,D3*%
X93975000Y-77978000D03*
%TO.P,J1,7,Pin_7*%
%TO.N,D4*%
X91435000Y-80518000D03*
%TO.P,J1,8,Pin_8*%
%TO.N,D5*%
X91435000Y-77978000D03*
%TO.P,J1,9,Pin_9*%
%TO.N,D6*%
X88895000Y-80518000D03*
%TO.P,J1,10,Pin_10*%
%TO.N,D7*%
X88895000Y-77978000D03*
%TO.P,J1,11,Pin_11*%
%TO.N,A0*%
X86355000Y-80518000D03*
%TO.P,J1,12,Pin_12*%
%TO.N,A1*%
X86355000Y-77978000D03*
%TO.P,J1,13,Pin_13*%
%TO.N,A2*%
X83815000Y-80518000D03*
%TO.P,J1,14,Pin_14*%
%TO.N,A3*%
X83815000Y-77978000D03*
%TO.P,J1,15,Pin_15*%
%TO.N,A4*%
X81275000Y-80518000D03*
%TO.P,J1,16,Pin_16*%
%TO.N,A5*%
X81275000Y-77978000D03*
%TO.P,J1,17,Pin_17*%
%TO.N,A6*%
X78735000Y-80518000D03*
%TO.P,J1,18,Pin_18*%
%TO.N,A7*%
X78735000Y-77978000D03*
%TO.P,J1,19,Pin_19*%
%TO.N,A8*%
X76195000Y-80518000D03*
%TO.P,J1,20,Pin_20*%
%TO.N,A9*%
X76195000Y-77978000D03*
%TO.P,J1,21,Pin_21*%
%TO.N,A10*%
X73655000Y-80518000D03*
%TO.P,J1,22,Pin_22*%
%TO.N,A11*%
X73655000Y-77978000D03*
%TO.P,J1,23,Pin_23*%
%TO.N,A12*%
X71115000Y-80518000D03*
%TO.P,J1,24,Pin_24*%
%TO.N,A13*%
X71115000Y-77978000D03*
%TO.P,J1,25,Pin_25*%
%TO.N,A14*%
X68575000Y-80518000D03*
%TO.P,J1,26,Pin_26*%
%TO.N,RAMS2*%
X68575000Y-77978000D03*
%TO.P,J1,27,Pin_27*%
%TO.N,~{MRQ}*%
X66035000Y-80518000D03*
%TO.P,J1,28,Pin_28*%
%TO.N,~{RD}*%
X66035000Y-77978000D03*
%TO.P,J1,29,Pin_29*%
%TO.N,unconnected-(J1-Pin_29-Pad29)*%
X63495000Y-80518000D03*
%TO.P,J1,30,Pin_30*%
%TO.N,~{WR}*%
X63495000Y-77978000D03*
%TO.P,J1,31,Pin_31*%
%TO.N,~{IORQ}*%
X60955000Y-80518000D03*
%TO.P,J1,32,Pin_32*%
%TO.N,unconnected-(J1-Pin_32-Pad32)*%
X60955000Y-77978000D03*
%TO.P,J1,33,Pin_33*%
%TO.N,unconnected-(J1-Pin_33-Pad33)*%
X58415000Y-80518000D03*
%TO.P,J1,34,Pin_34*%
%TO.N,~{RES}*%
X58415000Y-77978000D03*
%TO.P,J1,35,Pin_35*%
%TO.N,unconnected-(J1-Pin_35-Pad35)*%
X55875000Y-80518000D03*
%TO.P,J1,36,Pin_36*%
%TO.N,unconnected-(J1-Pin_36-Pad36)*%
X55875000Y-77978000D03*
%TO.P,J1,37,Pin_37*%
%TO.N,unconnected-(J1-Pin_37-Pad37)*%
X53335000Y-80518000D03*
%TO.P,J1,38,Pin_38*%
%TO.N,unconnected-(J1-Pin_38-Pad38)*%
X53335000Y-77978000D03*
%TO.P,J1,39,Pin_39*%
%TO.N,unconnected-(J1-Pin_39-Pad39)*%
X50795000Y-80518000D03*
%TO.P,J1,40,Pin_40*%
%TO.N,unconnected-(J1-Pin_40-Pad40)*%
X50795000Y-77978000D03*
%TD*%
D14*
%TO.N,A14_1*%
X41401500Y-60877300D03*
X69963900Y-59332100D03*
%TO.N,D0*%
X61945400Y-65051300D03*
X93133600Y-62951900D03*
X35374700Y-66206400D03*
%TO.N,D1*%
X93077200Y-64245200D03*
X62347700Y-66120200D03*
X38461200Y-66970000D03*
%TO.N,D2*%
X96168400Y-67459100D03*
%TO.N,D3*%
X84793700Y-69624200D03*
X58210900Y-73324700D03*
X93048100Y-65798900D03*
X47766000Y-68801200D03*
%TO.N,D5*%
X83793300Y-69683600D03*
%TO.N,D6*%
X77067400Y-69424100D03*
%TO.N,D7*%
X82342600Y-69366500D03*
%TO.N,A0*%
X64345600Y-82947300D03*
X109081900Y-85629400D03*
X57694600Y-67335100D03*
X39098700Y-65870000D03*
%TO.N,A1*%
X38455700Y-65005000D03*
X63614400Y-64468200D03*
X109709900Y-82655300D03*
%TO.N,A2*%
X58658200Y-82440200D03*
X56694200Y-67360500D03*
X115590700Y-82379700D03*
X35359700Y-65137600D03*
%TO.N,A3*%
X117094100Y-81617300D03*
X39827700Y-64659100D03*
X64354900Y-65222200D03*
%TO.N,A4*%
X56438700Y-65909800D03*
X40787200Y-65138800D03*
%TO.N,A5*%
X57626800Y-63772400D03*
X41378100Y-64174600D03*
%TO.N,A6*%
X56552800Y-64008800D03*
%TO.N,A7*%
X98193200Y-75176900D03*
X38696300Y-61955500D03*
X103259100Y-77557500D03*
X61967800Y-61958900D03*
%TO.N,A8*%
X66290100Y-68137100D03*
%TO.N,A9*%
X69877100Y-64549000D03*
%TO.N,A10*%
X66366300Y-70180600D03*
%TO.N,A11*%
X68324200Y-67359700D03*
%TO.N,A12*%
X36683600Y-59991500D03*
X54679900Y-82025700D03*
X51174000Y-59746000D03*
%TO.N,A13*%
X76341100Y-64609800D03*
%TO.N,~{RD}*%
X73948600Y-64635800D03*
X51441300Y-64646300D03*
%TO.N,~{WR}*%
X47703300Y-64591700D03*
X66884000Y-65839900D03*
%TO.N,~{IORQ}*%
X109071400Y-84588600D03*
%TO.N,A14_2*%
X82516900Y-62195700D03*
X63779300Y-61223100D03*
%TO.N,~{CS2}*%
X81485900Y-73091400D03*
X77301300Y-67973400D03*
%TO.N,S1*%
X95431700Y-81605500D03*
X91475600Y-61114100D03*
X111551500Y-69627500D03*
%TO.N,S2*%
X116357000Y-66569000D03*
X87790100Y-64580100D03*
X92566800Y-82225000D03*
%TO.N,Net-(U3-Pad3)*%
X117091400Y-62298000D03*
X111540100Y-61018600D03*
%TO.N,+5V*%
X68232000Y-58420000D03*
X31750000Y-84336900D03*
X94742000Y-56642000D03*
X21336000Y-77724000D03*
X124968000Y-57658000D03*
X84582000Y-56642000D03*
X32004000Y-77216000D03*
X114554000Y-57912000D03*
X45544800Y-58420000D03*
X104648000Y-57912000D03*
%TO.N,~{P=Q}*%
X113103000Y-63144800D03*
X111798700Y-76558300D03*
X111536100Y-64427200D03*
%TO.N,~{CS1}*%
X118223200Y-66370800D03*
X46757700Y-68444600D03*
%TO.N,~{REN}*%
X111531400Y-62919600D03*
X126322000Y-64781700D03*
%TO.N,Net-(U1-Pad5)*%
X98387800Y-66168300D03*
X104055900Y-71859100D03*
%TO.N,S3*%
X44454300Y-81764200D03*
X51593000Y-79248000D03*
%TO.N,S0*%
X36765900Y-85884100D03*
X52467300Y-75588900D03*
%TO.N,Net-(U1-Pad10)*%
X103147600Y-65535000D03*
X116341900Y-64170700D03*
%TO.N,Net-(U1-Pad12)*%
X106332800Y-62995000D03*
X126342000Y-62995000D03*
%TO.N,Net-(U1-Pad3)*%
X98306900Y-63567100D03*
X108063600Y-66723100D03*
%TO.N,EO*%
X117248600Y-60598800D03*
X100609300Y-59392500D03*
X81013800Y-58310200D03*
%TO.N,Net-(U8-CE)*%
X116355200Y-61582600D03*
X35661000Y-73263700D03*
%TD*%
D15*
%TO.N,A14_1*%
X52811700Y-59771000D02*
X69525000Y-59771000D01*
X69525000Y-59771000D02*
X69963900Y-59332100D01*
X51661100Y-60921600D02*
X52811700Y-59771000D01*
X41401500Y-60877300D02*
X41445800Y-60921600D01*
X41445800Y-60921600D02*
X51661100Y-60921600D01*
%TO.N,D0*%
X97694900Y-78530100D02*
X96882300Y-79342700D01*
X97694900Y-76031400D02*
X97694900Y-78530100D01*
X52374200Y-61482300D02*
X52034300Y-61822200D01*
X46038800Y-62053000D02*
X39624600Y-62053000D01*
X46269600Y-61822200D02*
X46038800Y-62053000D01*
X97467900Y-67039500D02*
X97467900Y-75804400D01*
X96515000Y-80518000D02*
X96515000Y-79342700D01*
X35471200Y-66206400D02*
X35374700Y-66206400D01*
X93380300Y-62951900D02*
X97467900Y-67039500D01*
X93133600Y-62951900D02*
X93380300Y-62951900D01*
X65604600Y-61182700D02*
X63789500Y-62997800D01*
X61945400Y-63414700D02*
X61945400Y-65051300D01*
X61945400Y-63414700D02*
X60013000Y-61482300D01*
X52034300Y-61822200D02*
X46269600Y-61822200D01*
X39624600Y-62053000D02*
X35471200Y-66206400D01*
X77780200Y-61182700D02*
X65604600Y-61182700D01*
X93133600Y-62951900D02*
X79549400Y-62951900D01*
X96882300Y-79342700D02*
X96515000Y-79342700D01*
X62362300Y-62997800D02*
X61945400Y-63414700D01*
X97467900Y-75804400D02*
X97694900Y-76031400D01*
X60013000Y-61482300D02*
X52374200Y-61482300D01*
X63789500Y-62997800D02*
X62362300Y-62997800D01*
X79549400Y-62951900D02*
X77780200Y-61182700D01*
%TO.N,D1*%
X96515000Y-76802700D02*
X96899700Y-76418000D01*
X96515000Y-77978000D02*
X96515000Y-76802700D01*
X63976100Y-63448100D02*
X63552700Y-63448100D01*
X58086600Y-61932600D02*
X61220100Y-65066100D01*
X39915400Y-62503300D02*
X46225400Y-62503300D01*
X96899700Y-67164400D02*
X93980500Y-64245200D01*
X65791200Y-61633000D02*
X63976100Y-63448100D01*
X77593600Y-61633000D02*
X65791200Y-61633000D01*
X46456200Y-62272500D02*
X52220900Y-62272500D01*
X79697400Y-63736800D02*
X77593600Y-61633000D01*
X63552700Y-63448100D02*
X62802400Y-64198400D01*
X96899700Y-76418000D02*
X96899700Y-67164400D01*
X52220900Y-62272500D02*
X52560800Y-61932600D01*
X61220100Y-65351700D02*
X61988600Y-66120200D01*
X61988600Y-66120200D02*
X62347700Y-66120200D01*
X62802400Y-65665500D02*
X62347700Y-66120200D01*
X37719700Y-66228500D02*
X37719700Y-64699000D01*
X37719700Y-64699000D02*
X39915400Y-62503300D01*
X93980500Y-64245200D02*
X93077200Y-64245200D01*
X61220100Y-65066100D02*
X61220100Y-65351700D01*
X62802400Y-64198400D02*
X62802400Y-65665500D01*
X52560800Y-61932600D02*
X58086600Y-61932600D01*
X46225400Y-62503300D02*
X46456200Y-62272500D01*
X92568800Y-63736800D02*
X79697400Y-63736800D01*
X93077200Y-64245200D02*
X92568800Y-63736800D01*
X38461200Y-66970000D02*
X37719700Y-66228500D01*
%TO.N,D2*%
X94342400Y-79342700D02*
X95150300Y-78534800D01*
X93975000Y-79342700D02*
X94342400Y-79342700D01*
X95150300Y-78534800D02*
X95150300Y-68477200D01*
X95150300Y-68477200D02*
X96168400Y-67459100D01*
X93975000Y-80518000D02*
X93975000Y-79342700D01*
%TO.N,D3*%
X93975000Y-76802700D02*
X93048100Y-75875800D01*
X93048100Y-69624200D02*
X93048100Y-65798900D01*
X93048100Y-69624200D02*
X84793700Y-69624200D01*
X93048100Y-75875800D02*
X93048100Y-69624200D01*
X53687400Y-68801200D02*
X58210900Y-73324700D01*
X93975000Y-77978000D02*
X93975000Y-76802700D01*
X47766000Y-68801200D02*
X53687400Y-68801200D01*
%TO.N,D5*%
X90912400Y-76802700D02*
X91435000Y-76802700D01*
X91435000Y-77978000D02*
X91435000Y-76802700D01*
X83793300Y-69683600D02*
X90912400Y-76802700D01*
%TO.N,D6*%
X81876800Y-74355800D02*
X81598200Y-74355800D01*
X85858500Y-81712700D02*
X85179600Y-81033800D01*
X81598200Y-74355800D02*
X77067400Y-69825000D01*
X77067400Y-69825000D02*
X77067400Y-69424100D01*
X85179600Y-77658600D02*
X81876800Y-74355800D01*
X87719700Y-80518000D02*
X87719700Y-80885300D01*
X85179600Y-81033800D02*
X85179600Y-77658600D01*
X86892300Y-81712700D02*
X85858500Y-81712700D01*
X88895000Y-80518000D02*
X87719700Y-80518000D01*
X87719700Y-80885300D02*
X86892300Y-81712700D01*
%TO.N,D7*%
X88895000Y-77978000D02*
X88895000Y-76802700D01*
X88895000Y-76802700D02*
X82617700Y-70525400D01*
X82617700Y-69641600D02*
X82342600Y-69366500D01*
X82617700Y-70525400D02*
X82617700Y-69641600D01*
%TO.N,A0*%
X39098700Y-65870000D02*
X39863900Y-66635200D01*
X109081900Y-85629400D02*
X67027700Y-85629400D01*
X67027700Y-85629400D02*
X64345600Y-82947300D01*
X39863900Y-66635200D02*
X56994700Y-66635200D01*
X56994700Y-66635200D02*
X57694600Y-67335100D01*
X61656600Y-82947300D02*
X59740000Y-81030700D01*
X64345600Y-82947300D02*
X61656600Y-82947300D01*
X59740000Y-81030700D02*
X59740000Y-69380500D01*
X59740000Y-69380500D02*
X57694600Y-67335100D01*
%TO.N,A1*%
X86355000Y-77390300D02*
X86355000Y-76802700D01*
X78936600Y-67078800D02*
X78936600Y-63612900D01*
X65999300Y-62083300D02*
X63614400Y-64468200D01*
X61121700Y-65936900D02*
X61121700Y-65915000D01*
X92133000Y-82954600D02*
X109410600Y-82954600D01*
X58802400Y-63285300D02*
X57900000Y-62382900D01*
X61121700Y-65915000D02*
X58802400Y-63595700D01*
X62648200Y-66845500D02*
X62030300Y-66845500D01*
X55879200Y-62382900D02*
X55539300Y-62722800D01*
X86355000Y-77978000D02*
X86355000Y-77390300D01*
X109410600Y-82954600D02*
X109709900Y-82655300D01*
X63614400Y-64468200D02*
X63614400Y-65879300D01*
X88338200Y-79153300D02*
X89228300Y-79153300D01*
X82127600Y-70269800D02*
X78936600Y-67078800D01*
X63614400Y-65879300D02*
X62648200Y-66845500D01*
X89228300Y-79153300D02*
X90165000Y-80090000D01*
X87530300Y-78345400D02*
X88338200Y-79153300D01*
X57900000Y-62382900D02*
X55879200Y-62382900D01*
X90165000Y-80090000D02*
X90165000Y-80986600D01*
X55539300Y-62722800D02*
X46642800Y-62722800D01*
X62030300Y-66845500D02*
X61121700Y-65936900D01*
X46642800Y-62722800D02*
X46412000Y-62953600D01*
X86355000Y-77978000D02*
X87530300Y-77978000D01*
X78936600Y-63612900D02*
X77407000Y-62083300D01*
X82127600Y-72575300D02*
X82127600Y-70269800D01*
X40507100Y-62953600D02*
X38455700Y-65005000D01*
X87530300Y-77978000D02*
X87530300Y-78345400D01*
X58802400Y-63595700D02*
X58802400Y-63285300D01*
X77407000Y-62083300D02*
X65999300Y-62083300D01*
X46412000Y-62953600D02*
X40507100Y-62953600D01*
X86355000Y-76802700D02*
X82127600Y-72575300D01*
X90165000Y-80986600D02*
X92133000Y-82954600D01*
%TO.N,A2*%
X114557500Y-83412900D02*
X115590700Y-82379700D01*
X86709900Y-83412900D02*
X114557500Y-83412900D01*
X34649300Y-66586200D02*
X35780100Y-67717000D01*
X56187400Y-67867300D02*
X56694200Y-67360500D01*
X83815000Y-80518000D02*
X86709900Y-83412900D01*
X58969100Y-74217300D02*
X57239600Y-75946800D01*
X35359700Y-65137600D02*
X34649300Y-65848000D01*
X34649300Y-65848000D02*
X34649300Y-66586200D01*
X58969100Y-70649100D02*
X58969100Y-74217300D01*
X57239600Y-81021600D02*
X58658200Y-82440200D01*
X35780100Y-67717000D02*
X56037000Y-67717000D01*
X56187400Y-67867300D02*
X58969100Y-70649100D01*
X56037000Y-67717000D02*
X56187400Y-67867300D01*
X57239600Y-75946800D02*
X57239600Y-81021600D01*
%TO.N,A3*%
X41082900Y-63403900D02*
X39827700Y-64659100D01*
X82639700Y-77485300D02*
X76342100Y-71187700D01*
X78486300Y-63799500D02*
X77220400Y-62533600D01*
X115166600Y-83863200D02*
X117094100Y-81935700D01*
X62834700Y-67295900D02*
X61843800Y-67295900D01*
X64354900Y-65222200D02*
X64354900Y-65775700D01*
X57713400Y-62833200D02*
X56065800Y-62833200D01*
X77220400Y-62533600D02*
X67043500Y-62533600D01*
X76342100Y-71187700D02*
X76342100Y-67906700D01*
X83815000Y-77978000D02*
X82639700Y-77978000D01*
X82639700Y-77978000D02*
X82639700Y-77485300D01*
X67043500Y-62533600D02*
X64354900Y-65222200D01*
X56065800Y-62833200D02*
X55725900Y-63173100D01*
X60671400Y-66123500D02*
X60671400Y-66101600D01*
X82639700Y-77978000D02*
X82639700Y-81047000D01*
X60671400Y-66101600D02*
X58352100Y-63782300D01*
X55725900Y-63173100D02*
X47054700Y-63173100D01*
X58352100Y-63782300D02*
X58352100Y-63471900D01*
X82639700Y-81047000D02*
X85455900Y-83863200D01*
X76342100Y-67906700D02*
X78486300Y-65762500D01*
X78486300Y-65762500D02*
X78486300Y-63799500D01*
X47054700Y-63173100D02*
X46823900Y-63403900D01*
X61843800Y-67295900D02*
X60671400Y-66123500D01*
X64354900Y-65775700D02*
X62834700Y-67295900D01*
X117094100Y-81935700D02*
X117094100Y-81617300D01*
X58352100Y-63471900D02*
X57713400Y-62833200D01*
X85455900Y-83863200D02*
X115166600Y-83863200D01*
X46823900Y-63403900D02*
X41082900Y-63403900D01*
%TO.N,A4*%
X40787200Y-65138800D02*
X41558200Y-65909800D01*
X57447100Y-66061800D02*
X56590700Y-66061800D01*
X78805700Y-82179300D02*
X66003600Y-82179300D01*
X64670400Y-80846100D02*
X64670400Y-79992400D01*
X62290900Y-71197000D02*
X58419900Y-67326000D01*
X62969400Y-79153400D02*
X62290900Y-78474900D01*
X81275000Y-80518000D02*
X80099700Y-80518000D01*
X56590700Y-66061800D02*
X56438700Y-65909800D01*
X80099700Y-80885300D02*
X78805700Y-82179300D01*
X63831400Y-79153400D02*
X62969400Y-79153400D01*
X66003600Y-82179300D02*
X64670400Y-80846100D01*
X41558200Y-65909800D02*
X56438700Y-65909800D01*
X58419900Y-67034600D02*
X57447100Y-66061800D01*
X62290900Y-78474900D02*
X62290900Y-71197000D01*
X64670400Y-79992400D02*
X63831400Y-79153400D01*
X58419900Y-67326000D02*
X58419900Y-67034600D01*
X80099700Y-80518000D02*
X80099700Y-80885300D01*
%TO.N,A5*%
X75889000Y-67722900D02*
X78036000Y-65575900D01*
X61688900Y-67777900D02*
X60221100Y-66310100D01*
X60221100Y-66310100D02*
X60221100Y-66288200D01*
X75889000Y-71416700D02*
X75889000Y-67722900D01*
X81275000Y-76802700D02*
X75889000Y-71416700D01*
X78036000Y-65575900D02*
X78036000Y-63986100D01*
X62989600Y-67777900D02*
X61688900Y-67777900D01*
X67440500Y-62983900D02*
X65258100Y-65166300D01*
X65258100Y-65166300D02*
X65258100Y-65509400D01*
X60221100Y-66288200D02*
X57705300Y-63772400D01*
X41378100Y-64174600D02*
X47078800Y-64174600D01*
X55912500Y-63623400D02*
X56252400Y-63283500D01*
X65258100Y-65509400D02*
X62989600Y-67777900D01*
X47078800Y-64174600D02*
X47630000Y-63623400D01*
X56252400Y-63283500D02*
X57137900Y-63283500D01*
X57137900Y-63283500D02*
X57626800Y-63772400D01*
X57705300Y-63772400D02*
X57626800Y-63772400D01*
X81275000Y-77978000D02*
X81275000Y-76802700D01*
X78036000Y-63986100D02*
X77033800Y-62983900D01*
X47630000Y-63623400D02*
X55912500Y-63623400D01*
X77033800Y-62983900D02*
X67440500Y-62983900D01*
%TO.N,A6*%
X77585700Y-65389300D02*
X77585700Y-64172700D01*
X59770800Y-66474800D02*
X58006900Y-64710900D01*
X56552800Y-64008900D02*
X56552800Y-64008800D01*
X78735000Y-80518000D02*
X78735000Y-79342700D01*
X77559700Y-78534800D02*
X77559700Y-74854500D01*
X75438600Y-67536400D02*
X77585700Y-65389300D01*
X57539400Y-64710900D02*
X56837400Y-64008900D01*
X78735000Y-79342700D02*
X78367600Y-79342700D01*
X65708400Y-65352900D02*
X65708400Y-65696000D01*
X77559700Y-74854500D02*
X75438600Y-72733400D01*
X67627100Y-63434200D02*
X65708400Y-65352900D01*
X56837400Y-64008900D02*
X56552800Y-64008900D01*
X77585700Y-64172700D02*
X76847200Y-63434200D01*
X63130400Y-68274000D02*
X61548100Y-68274000D01*
X59770800Y-66496700D02*
X59770800Y-66474800D01*
X58006900Y-64710900D02*
X57539400Y-64710900D01*
X75438600Y-72733400D02*
X75438600Y-67536400D01*
X76847200Y-63434200D02*
X67627100Y-63434200D01*
X65708400Y-65696000D02*
X63130400Y-68274000D01*
X61548100Y-68274000D02*
X59770800Y-66496700D01*
X78367600Y-79342700D02*
X77559700Y-78534800D01*
%TO.N,A7*%
X61967800Y-61958900D02*
X63654700Y-60272000D01*
X87581400Y-62155100D02*
X93410200Y-62155100D01*
X42058700Y-61371900D02*
X51847700Y-61371900D01*
X94513100Y-63383500D02*
X98193200Y-67063600D01*
X94513100Y-63258000D02*
X94513100Y-63383500D01*
X98193200Y-67063600D02*
X98193200Y-75176900D01*
X63654700Y-60272000D02*
X79537400Y-60272000D01*
X79891700Y-60626300D02*
X86052600Y-60626300D01*
X38696300Y-61955500D02*
X39049200Y-61602600D01*
X103259100Y-77557500D02*
X100878500Y-75176900D01*
X86052600Y-60626300D02*
X87581400Y-62155100D01*
X79537400Y-60272000D02*
X79891700Y-60626300D01*
X41828000Y-61602600D02*
X42058700Y-61371900D01*
X39049200Y-61602600D02*
X41828000Y-61602600D01*
X93410200Y-62155100D02*
X94513100Y-63258000D01*
X51847700Y-61371900D02*
X52187600Y-61032000D01*
X61040900Y-61032000D02*
X61967800Y-61958900D01*
X100878500Y-75176900D02*
X98193200Y-75176900D01*
X52187600Y-61032000D02*
X61040900Y-61032000D01*
%TO.N,A8*%
X67220800Y-78324800D02*
X67220800Y-76802600D01*
X65640900Y-68786300D02*
X66290100Y-68137100D01*
X76195000Y-80518000D02*
X75019700Y-80518000D01*
X69939700Y-80218500D02*
X68874600Y-79153400D01*
X67220800Y-76802600D02*
X65640900Y-75222700D01*
X70659700Y-81728900D02*
X69939700Y-81008900D01*
X74176100Y-81728900D02*
X70659700Y-81728900D01*
X75019700Y-80518000D02*
X75019700Y-80885300D01*
X68874600Y-79153400D02*
X68049400Y-79153400D01*
X65640900Y-75222700D02*
X65640900Y-68786300D01*
X68049400Y-79153400D02*
X67220800Y-78324800D01*
X75019700Y-80885300D02*
X74176100Y-81728900D01*
X69939700Y-81008900D02*
X69939700Y-80218500D01*
%TO.N,A9*%
X70541600Y-63884500D02*
X69877100Y-64549000D01*
X76660600Y-63884500D02*
X70541600Y-63884500D01*
X74988200Y-67124900D02*
X77076000Y-65037100D01*
X76195000Y-77978000D02*
X76195000Y-76802700D01*
X77076000Y-65037100D02*
X77076000Y-64299900D01*
X74988200Y-75595900D02*
X74988200Y-67124900D01*
X77076000Y-64299900D02*
X76660600Y-63884500D01*
X76195000Y-76802700D02*
X74988200Y-75595900D01*
%TO.N,A10*%
X72479700Y-80518000D02*
X72479700Y-80150600D01*
X71671800Y-79342700D02*
X70749000Y-79342700D01*
X69845000Y-78438700D02*
X69845000Y-73659300D01*
X69845000Y-73659300D02*
X66366300Y-70180600D01*
X70749000Y-79342700D02*
X69845000Y-78438700D01*
X73655000Y-80518000D02*
X72479700Y-80518000D01*
X72479700Y-80150600D02*
X71671800Y-79342700D01*
%TO.N,A11*%
X73655000Y-77978000D02*
X73655000Y-72690500D01*
X73655000Y-72690500D02*
X68324200Y-67359700D01*
%TO.N,A12*%
X50092300Y-86613300D02*
X36436900Y-86613300D01*
X36988400Y-59686700D02*
X51114700Y-59686700D01*
X33733400Y-62941700D02*
X36683600Y-59991500D01*
X36683600Y-59991500D02*
X36988400Y-59686700D01*
X33733400Y-83909800D02*
X33733400Y-62941700D01*
X51114700Y-59686700D02*
X51174000Y-59746000D01*
X54679900Y-82025700D02*
X50092300Y-86613300D01*
X36436900Y-86613300D02*
X33733400Y-83909800D01*
%TO.N,A13*%
X68188600Y-66463900D02*
X74487000Y-66463900D01*
X71115000Y-77978000D02*
X71115000Y-71375900D01*
X67598200Y-67054300D02*
X68188600Y-66463900D01*
X71115000Y-71375900D02*
X67598200Y-67859100D01*
X74487000Y-66463900D02*
X76341100Y-64609800D01*
X67598200Y-67859100D02*
X67598200Y-67054300D01*
%TO.N,~{RD}*%
X65170900Y-75938600D02*
X66035000Y-76802700D01*
X63317000Y-68724300D02*
X61361500Y-68724300D01*
X67833500Y-65279500D02*
X67668600Y-65114600D01*
X61361500Y-68724300D02*
X59320500Y-66683300D01*
X57352800Y-65161200D02*
X56925800Y-64734200D01*
X73948600Y-64635800D02*
X73304900Y-65279500D01*
X67833500Y-65279500D02*
X67833500Y-65916500D01*
X56925800Y-64734200D02*
X51529200Y-64734200D01*
X66158700Y-65539500D02*
X66158700Y-65882600D01*
X57820300Y-65161200D02*
X57352800Y-65161200D01*
X65170900Y-68229500D02*
X65170900Y-75938600D01*
X67668600Y-65114600D02*
X66583600Y-65114600D01*
X66035000Y-77978000D02*
X66035000Y-76802700D01*
X59320500Y-66683300D02*
X59320500Y-66661400D01*
X59320500Y-66661400D02*
X57820300Y-65161200D01*
X66583600Y-65114600D02*
X66158700Y-65539500D01*
X66030500Y-67369900D02*
X65170900Y-68229500D01*
X73304900Y-65279500D02*
X67833500Y-65279500D01*
X66158700Y-65882600D02*
X63317000Y-68724300D01*
X67833500Y-65916500D02*
X66380100Y-67369900D01*
X51529200Y-64734200D02*
X51441300Y-64646300D01*
X66380100Y-67369900D02*
X66030500Y-67369900D01*
%TO.N,~{WR}*%
X55740300Y-65371600D02*
X55927400Y-65184500D01*
X63495000Y-69268500D02*
X63495000Y-76802700D01*
X66884000Y-65839900D02*
X66884000Y-65879600D01*
X56739200Y-65184500D02*
X57166200Y-65611500D01*
X47703300Y-64591700D02*
X48483200Y-65371600D01*
X66884000Y-65879600D02*
X66883900Y-65879600D01*
X66883900Y-65879600D02*
X63495000Y-69268500D01*
X48483200Y-65371600D02*
X55740300Y-65371600D01*
X63495000Y-77978000D02*
X63495000Y-76802700D01*
X58870200Y-66848000D02*
X58870200Y-66869900D01*
X57633700Y-65611500D02*
X58870200Y-66848000D01*
X57166200Y-65611500D02*
X57633700Y-65611500D01*
X58870200Y-66869900D02*
X61268800Y-69268500D01*
X55927400Y-65184500D02*
X56739200Y-65184500D01*
X61268800Y-69268500D02*
X63495000Y-69268500D01*
%TO.N,~{IORQ}*%
X60955000Y-80518000D02*
X62130300Y-80518000D01*
X62130300Y-80885300D02*
X63467000Y-82222000D01*
X64646100Y-82222000D02*
X67012700Y-84588600D01*
X67012700Y-84588600D02*
X109071400Y-84588600D01*
X62130300Y-80518000D02*
X62130300Y-80885300D01*
X63467000Y-82222000D02*
X64646100Y-82222000D01*
%TO.N,A14_2*%
X80506000Y-62195700D02*
X79042700Y-60732400D01*
X82516900Y-62195700D02*
X80506000Y-62195700D01*
X64270000Y-60732400D02*
X63779300Y-61223100D01*
X79042700Y-60732400D02*
X64270000Y-60732400D01*
%TO.N,~{CS2}*%
X81485900Y-72158000D02*
X77301300Y-67973400D01*
X81485900Y-73091400D02*
X81485900Y-72158000D01*
%TO.N,S1*%
X104824100Y-71565200D02*
X104824100Y-77036300D01*
X104824100Y-77036300D02*
X100167000Y-81693400D01*
X104824100Y-71565200D02*
X94373000Y-61114100D01*
X94373000Y-61114100D02*
X91475600Y-61114100D01*
X111551500Y-69627500D02*
X109613800Y-71565200D01*
X109613800Y-71565200D02*
X104824100Y-71565200D01*
X100167000Y-81693400D02*
X95519600Y-81693400D01*
X95519600Y-81693400D02*
X95431700Y-81605500D01*
%TO.N,S2*%
X90259600Y-77175500D02*
X90259600Y-78479500D01*
X91959600Y-79342600D02*
X92610400Y-79993400D01*
X92610400Y-82181400D02*
X92566800Y-82225000D01*
X83068000Y-69302200D02*
X83068000Y-69984000D01*
X92683200Y-82341400D02*
X107041400Y-82341400D01*
X92566800Y-82225000D02*
X92683200Y-82341400D01*
X87790100Y-64580100D02*
X83068000Y-69302200D01*
X91122700Y-79342600D02*
X91959600Y-79342600D01*
X83068000Y-69984000D02*
X90259500Y-77175500D01*
X90259600Y-78479500D02*
X91122700Y-79342600D01*
X92610400Y-79993400D02*
X92610400Y-82181400D01*
X90259500Y-77175500D02*
X90259600Y-77175500D01*
X116357000Y-73025800D02*
X116357000Y-66569000D01*
X107041400Y-82341400D02*
X116357000Y-73025800D01*
%TO.N,Net-(U3-Pad3)*%
X114713900Y-60967000D02*
X116054900Y-62308000D01*
X111540100Y-61018600D02*
X111591700Y-60967000D01*
X116054900Y-62308000D02*
X117081400Y-62308000D01*
X111591700Y-60967000D02*
X114713900Y-60967000D01*
X117081400Y-62308000D02*
X117091400Y-62298000D01*
D16*
%TO.N,+5V*%
X124206000Y-54102000D02*
X124968000Y-54864000D01*
X22606000Y-54102000D02*
X45720000Y-54102000D01*
X68580000Y-58072000D02*
X68232000Y-58420000D01*
X104902000Y-54102000D02*
X115062000Y-54102000D01*
X45720000Y-58244800D02*
X45544800Y-58420000D01*
X84836000Y-56388000D02*
X84582000Y-56642000D01*
X21844000Y-88392000D02*
X21844000Y-78232000D01*
X104902000Y-57658000D02*
X104648000Y-57912000D01*
X94996000Y-54102000D02*
X94996000Y-56388000D01*
X21844000Y-78232000D02*
X21336000Y-77724000D01*
X22098000Y-88646000D02*
X21844000Y-88392000D01*
X31750000Y-77470000D02*
X32004000Y-77216000D01*
X84836000Y-54102000D02*
X94996000Y-54102000D01*
X115062000Y-57404000D02*
X114554000Y-57912000D01*
X32004000Y-88646000D02*
X31750000Y-88392000D01*
X104902000Y-54102000D02*
X104902000Y-57658000D01*
X115062000Y-54102000D02*
X124206000Y-54102000D01*
X94996000Y-54102000D02*
X104902000Y-54102000D01*
X115062000Y-54102000D02*
X115062000Y-57404000D01*
X68580000Y-54102000D02*
X84836000Y-54102000D01*
X31750000Y-88392000D02*
X31750000Y-84336900D01*
X124206000Y-54102000D02*
X128270000Y-54102000D01*
X31750000Y-84336900D02*
X31750000Y-77470000D01*
X128778000Y-54610000D02*
X128778000Y-87884000D01*
X45720000Y-54102000D02*
X68580000Y-54102000D01*
X84836000Y-54102000D02*
X84836000Y-56388000D01*
X21336000Y-55372000D02*
X22606000Y-54102000D01*
X128778000Y-87884000D02*
X128016000Y-88646000D01*
X68580000Y-54102000D02*
X68580000Y-58072000D01*
X128016000Y-88646000D02*
X32004000Y-88646000D01*
X94996000Y-56388000D02*
X94742000Y-56642000D01*
X21336000Y-77724000D02*
X21336000Y-55372000D01*
X45720000Y-54102000D02*
X45720000Y-58244800D01*
X124968000Y-54864000D02*
X124968000Y-57658000D01*
X128270000Y-54102000D02*
X128778000Y-54610000D01*
X32004000Y-88646000D02*
X22098000Y-88646000D01*
D15*
%TO.N,~{P=Q}*%
X112285300Y-64427200D02*
X112285300Y-63962500D01*
X112285300Y-63962500D02*
X113103000Y-63144800D01*
X112285300Y-64427200D02*
X111536100Y-64427200D01*
X112285300Y-64427200D02*
X112285300Y-76071700D01*
X112285300Y-76071700D02*
X111798700Y-76558300D01*
%TO.N,~{CS1}*%
X118223200Y-81521500D02*
X113345300Y-86399400D01*
X60083300Y-86399400D02*
X54605000Y-80921100D01*
X54605000Y-76665900D02*
X46757700Y-68818600D01*
X118223200Y-66370800D02*
X118223200Y-81521500D01*
X113345300Y-86399400D02*
X60083300Y-86399400D01*
X54605000Y-80921100D02*
X54605000Y-76665900D01*
X46757700Y-68818600D02*
X46757700Y-68444600D01*
%TO.N,~{REN}*%
X113556500Y-62418100D02*
X116050900Y-64912500D01*
X112440200Y-62418100D02*
X113556500Y-62418100D01*
X111531400Y-62919600D02*
X111938700Y-62919600D01*
X126191200Y-64912500D02*
X126322000Y-64781700D01*
X111938700Y-62919600D02*
X112440200Y-62418100D01*
X116050900Y-64912500D02*
X126191200Y-64912500D01*
%TO.N,Net-(U1-Pad5)*%
X98387800Y-66191000D02*
X104055900Y-71859100D01*
X98387800Y-66168300D02*
X98387800Y-66191000D01*
%TO.N,S3*%
X46970500Y-79248000D02*
X44454300Y-81764200D01*
X51593000Y-79248000D02*
X46970500Y-79248000D01*
%TO.N,S0*%
X47061100Y-75588900D02*
X52467300Y-75588900D01*
X36765900Y-85884100D02*
X47061100Y-75588900D01*
%TO.N,Net-(U1-Pad10)*%
X110152500Y-62194200D02*
X112027200Y-62194200D01*
X103147600Y-65535000D02*
X106811700Y-65535000D01*
X106811700Y-65535000D02*
X110152500Y-62194200D01*
X112308600Y-61912800D02*
X113688100Y-61912800D01*
X113688100Y-61912800D02*
X115946000Y-64170700D01*
X115946000Y-64170700D02*
X116341900Y-64170700D01*
X112027200Y-62194200D02*
X112308600Y-61912800D01*
%TO.N,Net-(U1-Pad12)*%
X107583900Y-61743900D02*
X111840600Y-61743900D01*
X126284600Y-63052400D02*
X126342000Y-62995000D01*
X114180600Y-61462500D02*
X115770500Y-63052400D01*
X111840600Y-61743900D02*
X112122000Y-61462500D01*
X106332800Y-62995000D02*
X107583900Y-61743900D01*
X115770500Y-63052400D02*
X126284600Y-63052400D01*
X112122000Y-61462500D02*
X114180600Y-61462500D01*
%TO.N,Net-(U1-Pad3)*%
X101462900Y-66723100D02*
X98306900Y-63567100D01*
X108063600Y-66723100D02*
X101462900Y-66723100D01*
%TO.N,EO*%
X82096100Y-59392500D02*
X81013800Y-58310200D01*
X117248600Y-60598800D02*
X116042300Y-59392500D01*
X100609300Y-59392500D02*
X82096100Y-59392500D01*
X116042300Y-59392500D02*
X100609300Y-59392500D01*
%TO.N,Net-(U8-CE)*%
X114892100Y-60119500D02*
X116355200Y-61582600D01*
X52674500Y-59271300D02*
X68890600Y-59271300D01*
X34190600Y-65274200D02*
X39312800Y-60152000D01*
X68890600Y-59271300D02*
X69575900Y-58586000D01*
X35661000Y-73263700D02*
X34190600Y-71793300D01*
X34190600Y-71793300D02*
X34190600Y-65274200D01*
X51474500Y-60471300D02*
X52674500Y-59271300D01*
X69575900Y-58586000D02*
X80263900Y-58586000D01*
X50554300Y-60152000D02*
X50873600Y-60471300D01*
X39312800Y-60152000D02*
X50554300Y-60152000D01*
X50873600Y-60471300D02*
X51474500Y-60471300D01*
X80263900Y-58586000D02*
X81797400Y-60119500D01*
X81797400Y-60119500D02*
X114892100Y-60119500D01*
%TD*%
M02*
