%TF.GenerationSoftware,KiCad,Pcbnew,9.0.0*%
%TF.CreationDate,2025-03-29T21:15:17+01:00*%
%TF.ProjectId,p2000t-ram-expansion-board-128kb-smd-cpld,70323030-3074-42d7-9261-6d2d65787061,4*%
%TF.SameCoordinates,Original*%
%TF.FileFunction,Legend,Bot*%
%TF.FilePolarity,Positive*%
%FSLAX46Y46*%
G04 Gerber Fmt 4.6, Leading zero omitted, Abs format (unit mm)*
G04 Created by KiCad (PCBNEW 9.0.0) date 2025-03-29 21:15:17*
%MOMM*%
%LPD*%
G01*
G04 APERTURE LIST*
%ADD10C,0.150000*%
%ADD11C,0.000000*%
%ADD12C,0.120000*%
G04 APERTURE END LIST*
D10*
X98413220Y-75119819D02*
X98413220Y-74119819D01*
X97984649Y-75119819D02*
X97984649Y-74596009D01*
X97984649Y-74596009D02*
X98032268Y-74500771D01*
X98032268Y-74500771D02*
X98127506Y-74453152D01*
X98127506Y-74453152D02*
X98270363Y-74453152D01*
X98270363Y-74453152D02*
X98365601Y-74500771D01*
X98365601Y-74500771D02*
X98413220Y-74548390D01*
X97651315Y-74453152D02*
X97270363Y-74453152D01*
X97508458Y-74119819D02*
X97508458Y-74976961D01*
X97508458Y-74976961D02*
X97460839Y-75072200D01*
X97460839Y-75072200D02*
X97365601Y-75119819D01*
X97365601Y-75119819D02*
X97270363Y-75119819D01*
X97079886Y-74453152D02*
X96698934Y-74453152D01*
X96937029Y-74119819D02*
X96937029Y-74976961D01*
X96937029Y-74976961D02*
X96889410Y-75072200D01*
X96889410Y-75072200D02*
X96794172Y-75119819D01*
X96794172Y-75119819D02*
X96698934Y-75119819D01*
X96365600Y-74453152D02*
X96365600Y-75453152D01*
X96365600Y-74500771D02*
X96270362Y-74453152D01*
X96270362Y-74453152D02*
X96079886Y-74453152D01*
X96079886Y-74453152D02*
X95984648Y-74500771D01*
X95984648Y-74500771D02*
X95937029Y-74548390D01*
X95937029Y-74548390D02*
X95889410Y-74643628D01*
X95889410Y-74643628D02*
X95889410Y-74929342D01*
X95889410Y-74929342D02*
X95937029Y-75024580D01*
X95937029Y-75024580D02*
X95984648Y-75072200D01*
X95984648Y-75072200D02*
X96079886Y-75119819D01*
X96079886Y-75119819D02*
X96270362Y-75119819D01*
X96270362Y-75119819D02*
X96365600Y-75072200D01*
X95508457Y-75072200D02*
X95413219Y-75119819D01*
X95413219Y-75119819D02*
X95222743Y-75119819D01*
X95222743Y-75119819D02*
X95127505Y-75072200D01*
X95127505Y-75072200D02*
X95079886Y-74976961D01*
X95079886Y-74976961D02*
X95079886Y-74929342D01*
X95079886Y-74929342D02*
X95127505Y-74834104D01*
X95127505Y-74834104D02*
X95222743Y-74786485D01*
X95222743Y-74786485D02*
X95365600Y-74786485D01*
X95365600Y-74786485D02*
X95460838Y-74738866D01*
X95460838Y-74738866D02*
X95508457Y-74643628D01*
X95508457Y-74643628D02*
X95508457Y-74596009D01*
X95508457Y-74596009D02*
X95460838Y-74500771D01*
X95460838Y-74500771D02*
X95365600Y-74453152D01*
X95365600Y-74453152D02*
X95222743Y-74453152D01*
X95222743Y-74453152D02*
X95127505Y-74500771D01*
X94651314Y-75024580D02*
X94603695Y-75072200D01*
X94603695Y-75072200D02*
X94651314Y-75119819D01*
X94651314Y-75119819D02*
X94698933Y-75072200D01*
X94698933Y-75072200D02*
X94651314Y-75024580D01*
X94651314Y-75024580D02*
X94651314Y-75119819D01*
X94651314Y-74500771D02*
X94603695Y-74548390D01*
X94603695Y-74548390D02*
X94651314Y-74596009D01*
X94651314Y-74596009D02*
X94698933Y-74548390D01*
X94698933Y-74548390D02*
X94651314Y-74500771D01*
X94651314Y-74500771D02*
X94651314Y-74596009D01*
X93460839Y-74072200D02*
X94317981Y-75357914D01*
X92413220Y-74072200D02*
X93270362Y-75357914D01*
X91651315Y-74453152D02*
X91651315Y-75262676D01*
X91651315Y-75262676D02*
X91698934Y-75357914D01*
X91698934Y-75357914D02*
X91746553Y-75405533D01*
X91746553Y-75405533D02*
X91841791Y-75453152D01*
X91841791Y-75453152D02*
X91984648Y-75453152D01*
X91984648Y-75453152D02*
X92079886Y-75405533D01*
X91651315Y-75072200D02*
X91746553Y-75119819D01*
X91746553Y-75119819D02*
X91937029Y-75119819D01*
X91937029Y-75119819D02*
X92032267Y-75072200D01*
X92032267Y-75072200D02*
X92079886Y-75024580D01*
X92079886Y-75024580D02*
X92127505Y-74929342D01*
X92127505Y-74929342D02*
X92127505Y-74643628D01*
X92127505Y-74643628D02*
X92079886Y-74548390D01*
X92079886Y-74548390D02*
X92032267Y-74500771D01*
X92032267Y-74500771D02*
X91937029Y-74453152D01*
X91937029Y-74453152D02*
X91746553Y-74453152D01*
X91746553Y-74453152D02*
X91651315Y-74500771D01*
X91175124Y-75119819D02*
X91175124Y-74453152D01*
X91175124Y-74119819D02*
X91222743Y-74167438D01*
X91222743Y-74167438D02*
X91175124Y-74215057D01*
X91175124Y-74215057D02*
X91127505Y-74167438D01*
X91127505Y-74167438D02*
X91175124Y-74119819D01*
X91175124Y-74119819D02*
X91175124Y-74215057D01*
X90841791Y-74453152D02*
X90460839Y-74453152D01*
X90698934Y-74119819D02*
X90698934Y-74976961D01*
X90698934Y-74976961D02*
X90651315Y-75072200D01*
X90651315Y-75072200D02*
X90556077Y-75119819D01*
X90556077Y-75119819D02*
X90460839Y-75119819D01*
X90127505Y-75119819D02*
X90127505Y-74119819D01*
X89698934Y-75119819D02*
X89698934Y-74596009D01*
X89698934Y-74596009D02*
X89746553Y-74500771D01*
X89746553Y-74500771D02*
X89841791Y-74453152D01*
X89841791Y-74453152D02*
X89984648Y-74453152D01*
X89984648Y-74453152D02*
X90079886Y-74500771D01*
X90079886Y-74500771D02*
X90127505Y-74548390D01*
X88794172Y-74453152D02*
X88794172Y-75119819D01*
X89222743Y-74453152D02*
X89222743Y-74976961D01*
X89222743Y-74976961D02*
X89175124Y-75072200D01*
X89175124Y-75072200D02*
X89079886Y-75119819D01*
X89079886Y-75119819D02*
X88937029Y-75119819D01*
X88937029Y-75119819D02*
X88841791Y-75072200D01*
X88841791Y-75072200D02*
X88794172Y-75024580D01*
X88317981Y-75119819D02*
X88317981Y-74119819D01*
X88317981Y-74500771D02*
X88222743Y-74453152D01*
X88222743Y-74453152D02*
X88032267Y-74453152D01*
X88032267Y-74453152D02*
X87937029Y-74500771D01*
X87937029Y-74500771D02*
X87889410Y-74548390D01*
X87889410Y-74548390D02*
X87841791Y-74643628D01*
X87841791Y-74643628D02*
X87841791Y-74929342D01*
X87841791Y-74929342D02*
X87889410Y-75024580D01*
X87889410Y-75024580D02*
X87937029Y-75072200D01*
X87937029Y-75072200D02*
X88032267Y-75119819D01*
X88032267Y-75119819D02*
X88222743Y-75119819D01*
X88222743Y-75119819D02*
X88317981Y-75072200D01*
X87413219Y-75024580D02*
X87365600Y-75072200D01*
X87365600Y-75072200D02*
X87413219Y-75119819D01*
X87413219Y-75119819D02*
X87460838Y-75072200D01*
X87460838Y-75072200D02*
X87413219Y-75024580D01*
X87413219Y-75024580D02*
X87413219Y-75119819D01*
X86508458Y-75072200D02*
X86603696Y-75119819D01*
X86603696Y-75119819D02*
X86794172Y-75119819D01*
X86794172Y-75119819D02*
X86889410Y-75072200D01*
X86889410Y-75072200D02*
X86937029Y-75024580D01*
X86937029Y-75024580D02*
X86984648Y-74929342D01*
X86984648Y-74929342D02*
X86984648Y-74643628D01*
X86984648Y-74643628D02*
X86937029Y-74548390D01*
X86937029Y-74548390D02*
X86889410Y-74500771D01*
X86889410Y-74500771D02*
X86794172Y-74453152D01*
X86794172Y-74453152D02*
X86603696Y-74453152D01*
X86603696Y-74453152D02*
X86508458Y-74500771D01*
X85937029Y-75119819D02*
X86032267Y-75072200D01*
X86032267Y-75072200D02*
X86079886Y-75024580D01*
X86079886Y-75024580D02*
X86127505Y-74929342D01*
X86127505Y-74929342D02*
X86127505Y-74643628D01*
X86127505Y-74643628D02*
X86079886Y-74548390D01*
X86079886Y-74548390D02*
X86032267Y-74500771D01*
X86032267Y-74500771D02*
X85937029Y-74453152D01*
X85937029Y-74453152D02*
X85794172Y-74453152D01*
X85794172Y-74453152D02*
X85698934Y-74500771D01*
X85698934Y-74500771D02*
X85651315Y-74548390D01*
X85651315Y-74548390D02*
X85603696Y-74643628D01*
X85603696Y-74643628D02*
X85603696Y-74929342D01*
X85603696Y-74929342D02*
X85651315Y-75024580D01*
X85651315Y-75024580D02*
X85698934Y-75072200D01*
X85698934Y-75072200D02*
X85794172Y-75119819D01*
X85794172Y-75119819D02*
X85937029Y-75119819D01*
X85175124Y-75119819D02*
X85175124Y-74453152D01*
X85175124Y-74548390D02*
X85127505Y-74500771D01*
X85127505Y-74500771D02*
X85032267Y-74453152D01*
X85032267Y-74453152D02*
X84889410Y-74453152D01*
X84889410Y-74453152D02*
X84794172Y-74500771D01*
X84794172Y-74500771D02*
X84746553Y-74596009D01*
X84746553Y-74596009D02*
X84746553Y-75119819D01*
X84746553Y-74596009D02*
X84698934Y-74500771D01*
X84698934Y-74500771D02*
X84603696Y-74453152D01*
X84603696Y-74453152D02*
X84460839Y-74453152D01*
X84460839Y-74453152D02*
X84365600Y-74500771D01*
X84365600Y-74500771D02*
X84317981Y-74596009D01*
X84317981Y-74596009D02*
X84317981Y-75119819D01*
X83127506Y-74072200D02*
X83984648Y-75357914D01*
X82794172Y-75119819D02*
X82794172Y-74453152D01*
X82794172Y-74119819D02*
X82841791Y-74167438D01*
X82841791Y-74167438D02*
X82794172Y-74215057D01*
X82794172Y-74215057D02*
X82746553Y-74167438D01*
X82746553Y-74167438D02*
X82794172Y-74119819D01*
X82794172Y-74119819D02*
X82794172Y-74215057D01*
X82460839Y-74453152D02*
X82079887Y-74453152D01*
X82317982Y-75119819D02*
X82317982Y-74262676D01*
X82317982Y-74262676D02*
X82270363Y-74167438D01*
X82270363Y-74167438D02*
X82175125Y-74119819D01*
X82175125Y-74119819D02*
X82079887Y-74119819D01*
X81746553Y-75119819D02*
X81746553Y-74453152D01*
X81746553Y-74119819D02*
X81794172Y-74167438D01*
X81794172Y-74167438D02*
X81746553Y-74215057D01*
X81746553Y-74215057D02*
X81698934Y-74167438D01*
X81698934Y-74167438D02*
X81746553Y-74119819D01*
X81746553Y-74119819D02*
X81746553Y-74215057D01*
X81127506Y-75119819D02*
X81222744Y-75072200D01*
X81222744Y-75072200D02*
X81270363Y-74976961D01*
X81270363Y-74976961D02*
X81270363Y-74119819D01*
X80603696Y-75119819D02*
X80698934Y-75072200D01*
X80698934Y-75072200D02*
X80746553Y-75024580D01*
X80746553Y-75024580D02*
X80794172Y-74929342D01*
X80794172Y-74929342D02*
X80794172Y-74643628D01*
X80794172Y-74643628D02*
X80746553Y-74548390D01*
X80746553Y-74548390D02*
X80698934Y-74500771D01*
X80698934Y-74500771D02*
X80603696Y-74453152D01*
X80603696Y-74453152D02*
X80460839Y-74453152D01*
X80460839Y-74453152D02*
X80365601Y-74500771D01*
X80365601Y-74500771D02*
X80317982Y-74548390D01*
X80317982Y-74548390D02*
X80270363Y-74643628D01*
X80270363Y-74643628D02*
X80270363Y-74929342D01*
X80270363Y-74929342D02*
X80317982Y-75024580D01*
X80317982Y-75024580D02*
X80365601Y-75072200D01*
X80365601Y-75072200D02*
X80460839Y-75119819D01*
X80460839Y-75119819D02*
X80603696Y-75119819D01*
X79984648Y-74453152D02*
X79603696Y-74453152D01*
X79841791Y-74119819D02*
X79841791Y-74976961D01*
X79841791Y-74976961D02*
X79794172Y-75072200D01*
X79794172Y-75072200D02*
X79698934Y-75119819D01*
X79698934Y-75119819D02*
X79603696Y-75119819D01*
X78556077Y-74072200D02*
X79413219Y-75357914D01*
X78222743Y-74453152D02*
X78222743Y-75453152D01*
X78222743Y-74500771D02*
X78127505Y-74453152D01*
X78127505Y-74453152D02*
X77937029Y-74453152D01*
X77937029Y-74453152D02*
X77841791Y-74500771D01*
X77841791Y-74500771D02*
X77794172Y-74548390D01*
X77794172Y-74548390D02*
X77746553Y-74643628D01*
X77746553Y-74643628D02*
X77746553Y-74929342D01*
X77746553Y-74929342D02*
X77794172Y-75024580D01*
X77794172Y-75024580D02*
X77841791Y-75072200D01*
X77841791Y-75072200D02*
X77937029Y-75119819D01*
X77937029Y-75119819D02*
X78127505Y-75119819D01*
X78127505Y-75119819D02*
X78222743Y-75072200D01*
X77365600Y-74215057D02*
X77317981Y-74167438D01*
X77317981Y-74167438D02*
X77222743Y-74119819D01*
X77222743Y-74119819D02*
X76984648Y-74119819D01*
X76984648Y-74119819D02*
X76889410Y-74167438D01*
X76889410Y-74167438D02*
X76841791Y-74215057D01*
X76841791Y-74215057D02*
X76794172Y-74310295D01*
X76794172Y-74310295D02*
X76794172Y-74405533D01*
X76794172Y-74405533D02*
X76841791Y-74548390D01*
X76841791Y-74548390D02*
X77413219Y-75119819D01*
X77413219Y-75119819D02*
X76794172Y-75119819D01*
X76175124Y-74119819D02*
X76079886Y-74119819D01*
X76079886Y-74119819D02*
X75984648Y-74167438D01*
X75984648Y-74167438D02*
X75937029Y-74215057D01*
X75937029Y-74215057D02*
X75889410Y-74310295D01*
X75889410Y-74310295D02*
X75841791Y-74500771D01*
X75841791Y-74500771D02*
X75841791Y-74738866D01*
X75841791Y-74738866D02*
X75889410Y-74929342D01*
X75889410Y-74929342D02*
X75937029Y-75024580D01*
X75937029Y-75024580D02*
X75984648Y-75072200D01*
X75984648Y-75072200D02*
X76079886Y-75119819D01*
X76079886Y-75119819D02*
X76175124Y-75119819D01*
X76175124Y-75119819D02*
X76270362Y-75072200D01*
X76270362Y-75072200D02*
X76317981Y-75024580D01*
X76317981Y-75024580D02*
X76365600Y-74929342D01*
X76365600Y-74929342D02*
X76413219Y-74738866D01*
X76413219Y-74738866D02*
X76413219Y-74500771D01*
X76413219Y-74500771D02*
X76365600Y-74310295D01*
X76365600Y-74310295D02*
X76317981Y-74215057D01*
X76317981Y-74215057D02*
X76270362Y-74167438D01*
X76270362Y-74167438D02*
X76175124Y-74119819D01*
X75222743Y-74119819D02*
X75127505Y-74119819D01*
X75127505Y-74119819D02*
X75032267Y-74167438D01*
X75032267Y-74167438D02*
X74984648Y-74215057D01*
X74984648Y-74215057D02*
X74937029Y-74310295D01*
X74937029Y-74310295D02*
X74889410Y-74500771D01*
X74889410Y-74500771D02*
X74889410Y-74738866D01*
X74889410Y-74738866D02*
X74937029Y-74929342D01*
X74937029Y-74929342D02*
X74984648Y-75024580D01*
X74984648Y-75024580D02*
X75032267Y-75072200D01*
X75032267Y-75072200D02*
X75127505Y-75119819D01*
X75127505Y-75119819D02*
X75222743Y-75119819D01*
X75222743Y-75119819D02*
X75317981Y-75072200D01*
X75317981Y-75072200D02*
X75365600Y-75024580D01*
X75365600Y-75024580D02*
X75413219Y-74929342D01*
X75413219Y-74929342D02*
X75460838Y-74738866D01*
X75460838Y-74738866D02*
X75460838Y-74500771D01*
X75460838Y-74500771D02*
X75413219Y-74310295D01*
X75413219Y-74310295D02*
X75365600Y-74215057D01*
X75365600Y-74215057D02*
X75317981Y-74167438D01*
X75317981Y-74167438D02*
X75222743Y-74119819D01*
X74270362Y-74119819D02*
X74175124Y-74119819D01*
X74175124Y-74119819D02*
X74079886Y-74167438D01*
X74079886Y-74167438D02*
X74032267Y-74215057D01*
X74032267Y-74215057D02*
X73984648Y-74310295D01*
X73984648Y-74310295D02*
X73937029Y-74500771D01*
X73937029Y-74500771D02*
X73937029Y-74738866D01*
X73937029Y-74738866D02*
X73984648Y-74929342D01*
X73984648Y-74929342D02*
X74032267Y-75024580D01*
X74032267Y-75024580D02*
X74079886Y-75072200D01*
X74079886Y-75072200D02*
X74175124Y-75119819D01*
X74175124Y-75119819D02*
X74270362Y-75119819D01*
X74270362Y-75119819D02*
X74365600Y-75072200D01*
X74365600Y-75072200D02*
X74413219Y-75024580D01*
X74413219Y-75024580D02*
X74460838Y-74929342D01*
X74460838Y-74929342D02*
X74508457Y-74738866D01*
X74508457Y-74738866D02*
X74508457Y-74500771D01*
X74508457Y-74500771D02*
X74460838Y-74310295D01*
X74460838Y-74310295D02*
X74413219Y-74215057D01*
X74413219Y-74215057D02*
X74365600Y-74167438D01*
X74365600Y-74167438D02*
X74270362Y-74119819D01*
X73651314Y-74453152D02*
X73270362Y-74453152D01*
X73508457Y-74119819D02*
X73508457Y-74976961D01*
X73508457Y-74976961D02*
X73460838Y-75072200D01*
X73460838Y-75072200D02*
X73365600Y-75119819D01*
X73365600Y-75119819D02*
X73270362Y-75119819D01*
X72937028Y-74738866D02*
X72175124Y-74738866D01*
X71698933Y-75119819D02*
X71698933Y-74453152D01*
X71698933Y-74643628D02*
X71651314Y-74548390D01*
X71651314Y-74548390D02*
X71603695Y-74500771D01*
X71603695Y-74500771D02*
X71508457Y-74453152D01*
X71508457Y-74453152D02*
X71413219Y-74453152D01*
X70651314Y-75119819D02*
X70651314Y-74596009D01*
X70651314Y-74596009D02*
X70698933Y-74500771D01*
X70698933Y-74500771D02*
X70794171Y-74453152D01*
X70794171Y-74453152D02*
X70984647Y-74453152D01*
X70984647Y-74453152D02*
X71079885Y-74500771D01*
X70651314Y-75072200D02*
X70746552Y-75119819D01*
X70746552Y-75119819D02*
X70984647Y-75119819D01*
X70984647Y-75119819D02*
X71079885Y-75072200D01*
X71079885Y-75072200D02*
X71127504Y-74976961D01*
X71127504Y-74976961D02*
X71127504Y-74881723D01*
X71127504Y-74881723D02*
X71079885Y-74786485D01*
X71079885Y-74786485D02*
X70984647Y-74738866D01*
X70984647Y-74738866D02*
X70746552Y-74738866D01*
X70746552Y-74738866D02*
X70651314Y-74691247D01*
X70175123Y-75119819D02*
X70175123Y-74453152D01*
X70175123Y-74548390D02*
X70127504Y-74500771D01*
X70127504Y-74500771D02*
X70032266Y-74453152D01*
X70032266Y-74453152D02*
X69889409Y-74453152D01*
X69889409Y-74453152D02*
X69794171Y-74500771D01*
X69794171Y-74500771D02*
X69746552Y-74596009D01*
X69746552Y-74596009D02*
X69746552Y-75119819D01*
X69746552Y-74596009D02*
X69698933Y-74500771D01*
X69698933Y-74500771D02*
X69603695Y-74453152D01*
X69603695Y-74453152D02*
X69460838Y-74453152D01*
X69460838Y-74453152D02*
X69365599Y-74500771D01*
X69365599Y-74500771D02*
X69317980Y-74596009D01*
X69317980Y-74596009D02*
X69317980Y-75119819D01*
X68841790Y-74738866D02*
X68079886Y-74738866D01*
X67222743Y-75072200D02*
X67317981Y-75119819D01*
X67317981Y-75119819D02*
X67508457Y-75119819D01*
X67508457Y-75119819D02*
X67603695Y-75072200D01*
X67603695Y-75072200D02*
X67651314Y-74976961D01*
X67651314Y-74976961D02*
X67651314Y-74596009D01*
X67651314Y-74596009D02*
X67603695Y-74500771D01*
X67603695Y-74500771D02*
X67508457Y-74453152D01*
X67508457Y-74453152D02*
X67317981Y-74453152D01*
X67317981Y-74453152D02*
X67222743Y-74500771D01*
X67222743Y-74500771D02*
X67175124Y-74596009D01*
X67175124Y-74596009D02*
X67175124Y-74691247D01*
X67175124Y-74691247D02*
X67651314Y-74786485D01*
X66841790Y-75119819D02*
X66317981Y-74453152D01*
X66841790Y-74453152D02*
X66317981Y-75119819D01*
X65937028Y-74453152D02*
X65937028Y-75453152D01*
X65937028Y-74500771D02*
X65841790Y-74453152D01*
X65841790Y-74453152D02*
X65651314Y-74453152D01*
X65651314Y-74453152D02*
X65556076Y-74500771D01*
X65556076Y-74500771D02*
X65508457Y-74548390D01*
X65508457Y-74548390D02*
X65460838Y-74643628D01*
X65460838Y-74643628D02*
X65460838Y-74929342D01*
X65460838Y-74929342D02*
X65508457Y-75024580D01*
X65508457Y-75024580D02*
X65556076Y-75072200D01*
X65556076Y-75072200D02*
X65651314Y-75119819D01*
X65651314Y-75119819D02*
X65841790Y-75119819D01*
X65841790Y-75119819D02*
X65937028Y-75072200D01*
X64603695Y-75119819D02*
X64603695Y-74596009D01*
X64603695Y-74596009D02*
X64651314Y-74500771D01*
X64651314Y-74500771D02*
X64746552Y-74453152D01*
X64746552Y-74453152D02*
X64937028Y-74453152D01*
X64937028Y-74453152D02*
X65032266Y-74500771D01*
X64603695Y-75072200D02*
X64698933Y-75119819D01*
X64698933Y-75119819D02*
X64937028Y-75119819D01*
X64937028Y-75119819D02*
X65032266Y-75072200D01*
X65032266Y-75072200D02*
X65079885Y-74976961D01*
X65079885Y-74976961D02*
X65079885Y-74881723D01*
X65079885Y-74881723D02*
X65032266Y-74786485D01*
X65032266Y-74786485D02*
X64937028Y-74738866D01*
X64937028Y-74738866D02*
X64698933Y-74738866D01*
X64698933Y-74738866D02*
X64603695Y-74691247D01*
X64127504Y-74453152D02*
X64127504Y-75119819D01*
X64127504Y-74548390D02*
X64079885Y-74500771D01*
X64079885Y-74500771D02*
X63984647Y-74453152D01*
X63984647Y-74453152D02*
X63841790Y-74453152D01*
X63841790Y-74453152D02*
X63746552Y-74500771D01*
X63746552Y-74500771D02*
X63698933Y-74596009D01*
X63698933Y-74596009D02*
X63698933Y-75119819D01*
X63270361Y-75072200D02*
X63175123Y-75119819D01*
X63175123Y-75119819D02*
X62984647Y-75119819D01*
X62984647Y-75119819D02*
X62889409Y-75072200D01*
X62889409Y-75072200D02*
X62841790Y-74976961D01*
X62841790Y-74976961D02*
X62841790Y-74929342D01*
X62841790Y-74929342D02*
X62889409Y-74834104D01*
X62889409Y-74834104D02*
X62984647Y-74786485D01*
X62984647Y-74786485D02*
X63127504Y-74786485D01*
X63127504Y-74786485D02*
X63222742Y-74738866D01*
X63222742Y-74738866D02*
X63270361Y-74643628D01*
X63270361Y-74643628D02*
X63270361Y-74596009D01*
X63270361Y-74596009D02*
X63222742Y-74500771D01*
X63222742Y-74500771D02*
X63127504Y-74453152D01*
X63127504Y-74453152D02*
X62984647Y-74453152D01*
X62984647Y-74453152D02*
X62889409Y-74500771D01*
X62413218Y-75119819D02*
X62413218Y-74453152D01*
X62413218Y-74119819D02*
X62460837Y-74167438D01*
X62460837Y-74167438D02*
X62413218Y-74215057D01*
X62413218Y-74215057D02*
X62365599Y-74167438D01*
X62365599Y-74167438D02*
X62413218Y-74119819D01*
X62413218Y-74119819D02*
X62413218Y-74215057D01*
X61794171Y-75119819D02*
X61889409Y-75072200D01*
X61889409Y-75072200D02*
X61937028Y-75024580D01*
X61937028Y-75024580D02*
X61984647Y-74929342D01*
X61984647Y-74929342D02*
X61984647Y-74643628D01*
X61984647Y-74643628D02*
X61937028Y-74548390D01*
X61937028Y-74548390D02*
X61889409Y-74500771D01*
X61889409Y-74500771D02*
X61794171Y-74453152D01*
X61794171Y-74453152D02*
X61651314Y-74453152D01*
X61651314Y-74453152D02*
X61556076Y-74500771D01*
X61556076Y-74500771D02*
X61508457Y-74548390D01*
X61508457Y-74548390D02*
X61460838Y-74643628D01*
X61460838Y-74643628D02*
X61460838Y-74929342D01*
X61460838Y-74929342D02*
X61508457Y-75024580D01*
X61508457Y-75024580D02*
X61556076Y-75072200D01*
X61556076Y-75072200D02*
X61651314Y-75119819D01*
X61651314Y-75119819D02*
X61794171Y-75119819D01*
X61032266Y-74453152D02*
X61032266Y-75119819D01*
X61032266Y-74548390D02*
X60984647Y-74500771D01*
X60984647Y-74500771D02*
X60889409Y-74453152D01*
X60889409Y-74453152D02*
X60746552Y-74453152D01*
X60746552Y-74453152D02*
X60651314Y-74500771D01*
X60651314Y-74500771D02*
X60603695Y-74596009D01*
X60603695Y-74596009D02*
X60603695Y-75119819D01*
X60127504Y-74738866D02*
X59365600Y-74738866D01*
X58889409Y-75119819D02*
X58889409Y-74119819D01*
X58889409Y-74500771D02*
X58794171Y-74453152D01*
X58794171Y-74453152D02*
X58603695Y-74453152D01*
X58603695Y-74453152D02*
X58508457Y-74500771D01*
X58508457Y-74500771D02*
X58460838Y-74548390D01*
X58460838Y-74548390D02*
X58413219Y-74643628D01*
X58413219Y-74643628D02*
X58413219Y-74929342D01*
X58413219Y-74929342D02*
X58460838Y-75024580D01*
X58460838Y-75024580D02*
X58508457Y-75072200D01*
X58508457Y-75072200D02*
X58603695Y-75119819D01*
X58603695Y-75119819D02*
X58794171Y-75119819D01*
X58794171Y-75119819D02*
X58889409Y-75072200D01*
X57841790Y-75119819D02*
X57937028Y-75072200D01*
X57937028Y-75072200D02*
X57984647Y-75024580D01*
X57984647Y-75024580D02*
X58032266Y-74929342D01*
X58032266Y-74929342D02*
X58032266Y-74643628D01*
X58032266Y-74643628D02*
X57984647Y-74548390D01*
X57984647Y-74548390D02*
X57937028Y-74500771D01*
X57937028Y-74500771D02*
X57841790Y-74453152D01*
X57841790Y-74453152D02*
X57698933Y-74453152D01*
X57698933Y-74453152D02*
X57603695Y-74500771D01*
X57603695Y-74500771D02*
X57556076Y-74548390D01*
X57556076Y-74548390D02*
X57508457Y-74643628D01*
X57508457Y-74643628D02*
X57508457Y-74929342D01*
X57508457Y-74929342D02*
X57556076Y-75024580D01*
X57556076Y-75024580D02*
X57603695Y-75072200D01*
X57603695Y-75072200D02*
X57698933Y-75119819D01*
X57698933Y-75119819D02*
X57841790Y-75119819D01*
X56651314Y-75119819D02*
X56651314Y-74596009D01*
X56651314Y-74596009D02*
X56698933Y-74500771D01*
X56698933Y-74500771D02*
X56794171Y-74453152D01*
X56794171Y-74453152D02*
X56984647Y-74453152D01*
X56984647Y-74453152D02*
X57079885Y-74500771D01*
X56651314Y-75072200D02*
X56746552Y-75119819D01*
X56746552Y-75119819D02*
X56984647Y-75119819D01*
X56984647Y-75119819D02*
X57079885Y-75072200D01*
X57079885Y-75072200D02*
X57127504Y-74976961D01*
X57127504Y-74976961D02*
X57127504Y-74881723D01*
X57127504Y-74881723D02*
X57079885Y-74786485D01*
X57079885Y-74786485D02*
X56984647Y-74738866D01*
X56984647Y-74738866D02*
X56746552Y-74738866D01*
X56746552Y-74738866D02*
X56651314Y-74691247D01*
X56175123Y-75119819D02*
X56175123Y-74453152D01*
X56175123Y-74643628D02*
X56127504Y-74548390D01*
X56127504Y-74548390D02*
X56079885Y-74500771D01*
X56079885Y-74500771D02*
X55984647Y-74453152D01*
X55984647Y-74453152D02*
X55889409Y-74453152D01*
X55127504Y-75119819D02*
X55127504Y-74119819D01*
X55127504Y-75072200D02*
X55222742Y-75119819D01*
X55222742Y-75119819D02*
X55413218Y-75119819D01*
X55413218Y-75119819D02*
X55508456Y-75072200D01*
X55508456Y-75072200D02*
X55556075Y-75024580D01*
X55556075Y-75024580D02*
X55603694Y-74929342D01*
X55603694Y-74929342D02*
X55603694Y-74643628D01*
X55603694Y-74643628D02*
X55556075Y-74548390D01*
X55556075Y-74548390D02*
X55508456Y-74500771D01*
X55508456Y-74500771D02*
X55413218Y-74453152D01*
X55413218Y-74453152D02*
X55222742Y-74453152D01*
X55222742Y-74453152D02*
X55127504Y-74500771D01*
X68663220Y-61649931D02*
X68663220Y-60649931D01*
X68663220Y-60649931D02*
X68282268Y-60649931D01*
X68282268Y-60649931D02*
X68187030Y-60697550D01*
X68187030Y-60697550D02*
X68139411Y-60745169D01*
X68139411Y-60745169D02*
X68091792Y-60840407D01*
X68091792Y-60840407D02*
X68091792Y-60983264D01*
X68091792Y-60983264D02*
X68139411Y-61078502D01*
X68139411Y-61078502D02*
X68187030Y-61126121D01*
X68187030Y-61126121D02*
X68282268Y-61173740D01*
X68282268Y-61173740D02*
X68663220Y-61173740D01*
X67663220Y-61649931D02*
X67663220Y-60649931D01*
X67234649Y-61649931D02*
X67234649Y-61126121D01*
X67234649Y-61126121D02*
X67282268Y-61030883D01*
X67282268Y-61030883D02*
X67377506Y-60983264D01*
X67377506Y-60983264D02*
X67520363Y-60983264D01*
X67520363Y-60983264D02*
X67615601Y-61030883D01*
X67615601Y-61030883D02*
X67663220Y-61078502D01*
X66758458Y-61649931D02*
X66758458Y-60983264D01*
X66758458Y-60649931D02*
X66806077Y-60697550D01*
X66806077Y-60697550D02*
X66758458Y-60745169D01*
X66758458Y-60745169D02*
X66710839Y-60697550D01*
X66710839Y-60697550D02*
X66758458Y-60649931D01*
X66758458Y-60649931D02*
X66758458Y-60745169D01*
X66139411Y-61649931D02*
X66234649Y-61602312D01*
X66234649Y-61602312D02*
X66282268Y-61507073D01*
X66282268Y-61507073D02*
X66282268Y-60649931D01*
X65758458Y-61649931D02*
X65758458Y-60983264D01*
X65758458Y-60649931D02*
X65806077Y-60697550D01*
X65806077Y-60697550D02*
X65758458Y-60745169D01*
X65758458Y-60745169D02*
X65710839Y-60697550D01*
X65710839Y-60697550D02*
X65758458Y-60649931D01*
X65758458Y-60649931D02*
X65758458Y-60745169D01*
X65282268Y-60983264D02*
X65282268Y-61983264D01*
X65282268Y-61030883D02*
X65187030Y-60983264D01*
X65187030Y-60983264D02*
X64996554Y-60983264D01*
X64996554Y-60983264D02*
X64901316Y-61030883D01*
X64901316Y-61030883D02*
X64853697Y-61078502D01*
X64853697Y-61078502D02*
X64806078Y-61173740D01*
X64806078Y-61173740D02*
X64806078Y-61459454D01*
X64806078Y-61459454D02*
X64853697Y-61554692D01*
X64853697Y-61554692D02*
X64901316Y-61602312D01*
X64901316Y-61602312D02*
X64996554Y-61649931D01*
X64996554Y-61649931D02*
X65187030Y-61649931D01*
X65187030Y-61649931D02*
X65282268Y-61602312D01*
X64425125Y-61602312D02*
X64329887Y-61649931D01*
X64329887Y-61649931D02*
X64139411Y-61649931D01*
X64139411Y-61649931D02*
X64044173Y-61602312D01*
X64044173Y-61602312D02*
X63996554Y-61507073D01*
X63996554Y-61507073D02*
X63996554Y-61459454D01*
X63996554Y-61459454D02*
X64044173Y-61364216D01*
X64044173Y-61364216D02*
X64139411Y-61316597D01*
X64139411Y-61316597D02*
X64282268Y-61316597D01*
X64282268Y-61316597D02*
X64377506Y-61268978D01*
X64377506Y-61268978D02*
X64425125Y-61173740D01*
X64425125Y-61173740D02*
X64425125Y-61126121D01*
X64425125Y-61126121D02*
X64377506Y-61030883D01*
X64377506Y-61030883D02*
X64282268Y-60983264D01*
X64282268Y-60983264D02*
X64139411Y-60983264D01*
X64139411Y-60983264D02*
X64044173Y-61030883D01*
X62806077Y-61649931D02*
X62806077Y-60649931D01*
X62806077Y-60649931D02*
X62425125Y-60649931D01*
X62425125Y-60649931D02*
X62329887Y-60697550D01*
X62329887Y-60697550D02*
X62282268Y-60745169D01*
X62282268Y-60745169D02*
X62234649Y-60840407D01*
X62234649Y-60840407D02*
X62234649Y-60983264D01*
X62234649Y-60983264D02*
X62282268Y-61078502D01*
X62282268Y-61078502D02*
X62329887Y-61126121D01*
X62329887Y-61126121D02*
X62425125Y-61173740D01*
X62425125Y-61173740D02*
X62806077Y-61173740D01*
X61853696Y-60745169D02*
X61806077Y-60697550D01*
X61806077Y-60697550D02*
X61710839Y-60649931D01*
X61710839Y-60649931D02*
X61472744Y-60649931D01*
X61472744Y-60649931D02*
X61377506Y-60697550D01*
X61377506Y-60697550D02*
X61329887Y-60745169D01*
X61329887Y-60745169D02*
X61282268Y-60840407D01*
X61282268Y-60840407D02*
X61282268Y-60935645D01*
X61282268Y-60935645D02*
X61329887Y-61078502D01*
X61329887Y-61078502D02*
X61901315Y-61649931D01*
X61901315Y-61649931D02*
X61282268Y-61649931D01*
X60663220Y-60649931D02*
X60567982Y-60649931D01*
X60567982Y-60649931D02*
X60472744Y-60697550D01*
X60472744Y-60697550D02*
X60425125Y-60745169D01*
X60425125Y-60745169D02*
X60377506Y-60840407D01*
X60377506Y-60840407D02*
X60329887Y-61030883D01*
X60329887Y-61030883D02*
X60329887Y-61268978D01*
X60329887Y-61268978D02*
X60377506Y-61459454D01*
X60377506Y-61459454D02*
X60425125Y-61554692D01*
X60425125Y-61554692D02*
X60472744Y-61602312D01*
X60472744Y-61602312D02*
X60567982Y-61649931D01*
X60567982Y-61649931D02*
X60663220Y-61649931D01*
X60663220Y-61649931D02*
X60758458Y-61602312D01*
X60758458Y-61602312D02*
X60806077Y-61554692D01*
X60806077Y-61554692D02*
X60853696Y-61459454D01*
X60853696Y-61459454D02*
X60901315Y-61268978D01*
X60901315Y-61268978D02*
X60901315Y-61030883D01*
X60901315Y-61030883D02*
X60853696Y-60840407D01*
X60853696Y-60840407D02*
X60806077Y-60745169D01*
X60806077Y-60745169D02*
X60758458Y-60697550D01*
X60758458Y-60697550D02*
X60663220Y-60649931D01*
X59710839Y-60649931D02*
X59615601Y-60649931D01*
X59615601Y-60649931D02*
X59520363Y-60697550D01*
X59520363Y-60697550D02*
X59472744Y-60745169D01*
X59472744Y-60745169D02*
X59425125Y-60840407D01*
X59425125Y-60840407D02*
X59377506Y-61030883D01*
X59377506Y-61030883D02*
X59377506Y-61268978D01*
X59377506Y-61268978D02*
X59425125Y-61459454D01*
X59425125Y-61459454D02*
X59472744Y-61554692D01*
X59472744Y-61554692D02*
X59520363Y-61602312D01*
X59520363Y-61602312D02*
X59615601Y-61649931D01*
X59615601Y-61649931D02*
X59710839Y-61649931D01*
X59710839Y-61649931D02*
X59806077Y-61602312D01*
X59806077Y-61602312D02*
X59853696Y-61554692D01*
X59853696Y-61554692D02*
X59901315Y-61459454D01*
X59901315Y-61459454D02*
X59948934Y-61268978D01*
X59948934Y-61268978D02*
X59948934Y-61030883D01*
X59948934Y-61030883D02*
X59901315Y-60840407D01*
X59901315Y-60840407D02*
X59853696Y-60745169D01*
X59853696Y-60745169D02*
X59806077Y-60697550D01*
X59806077Y-60697550D02*
X59710839Y-60649931D01*
X58758458Y-60649931D02*
X58663220Y-60649931D01*
X58663220Y-60649931D02*
X58567982Y-60697550D01*
X58567982Y-60697550D02*
X58520363Y-60745169D01*
X58520363Y-60745169D02*
X58472744Y-60840407D01*
X58472744Y-60840407D02*
X58425125Y-61030883D01*
X58425125Y-61030883D02*
X58425125Y-61268978D01*
X58425125Y-61268978D02*
X58472744Y-61459454D01*
X58472744Y-61459454D02*
X58520363Y-61554692D01*
X58520363Y-61554692D02*
X58567982Y-61602312D01*
X58567982Y-61602312D02*
X58663220Y-61649931D01*
X58663220Y-61649931D02*
X58758458Y-61649931D01*
X58758458Y-61649931D02*
X58853696Y-61602312D01*
X58853696Y-61602312D02*
X58901315Y-61554692D01*
X58901315Y-61554692D02*
X58948934Y-61459454D01*
X58948934Y-61459454D02*
X58996553Y-61268978D01*
X58996553Y-61268978D02*
X58996553Y-61030883D01*
X58996553Y-61030883D02*
X58948934Y-60840407D01*
X58948934Y-60840407D02*
X58901315Y-60745169D01*
X58901315Y-60745169D02*
X58853696Y-60697550D01*
X58853696Y-60697550D02*
X58758458Y-60649931D01*
X58139410Y-60649931D02*
X57567982Y-60649931D01*
X57853696Y-61649931D02*
X57853696Y-60649931D01*
X68663220Y-63259875D02*
X68663220Y-62259875D01*
X68663220Y-62259875D02*
X68329887Y-62974160D01*
X68329887Y-62974160D02*
X67996554Y-62259875D01*
X67996554Y-62259875D02*
X67996554Y-63259875D01*
X67520363Y-62736065D02*
X67187030Y-62736065D01*
X67044173Y-63259875D02*
X67520363Y-63259875D01*
X67520363Y-63259875D02*
X67520363Y-62259875D01*
X67520363Y-62259875D02*
X67044173Y-62259875D01*
X66615601Y-63259875D02*
X66615601Y-62259875D01*
X66615601Y-62259875D02*
X66282268Y-62974160D01*
X66282268Y-62974160D02*
X65948935Y-62259875D01*
X65948935Y-62259875D02*
X65948935Y-63259875D01*
X65282268Y-62259875D02*
X65091792Y-62259875D01*
X65091792Y-62259875D02*
X64996554Y-62307494D01*
X64996554Y-62307494D02*
X64901316Y-62402732D01*
X64901316Y-62402732D02*
X64853697Y-62593208D01*
X64853697Y-62593208D02*
X64853697Y-62926541D01*
X64853697Y-62926541D02*
X64901316Y-63117017D01*
X64901316Y-63117017D02*
X64996554Y-63212256D01*
X64996554Y-63212256D02*
X65091792Y-63259875D01*
X65091792Y-63259875D02*
X65282268Y-63259875D01*
X65282268Y-63259875D02*
X65377506Y-63212256D01*
X65377506Y-63212256D02*
X65472744Y-63117017D01*
X65472744Y-63117017D02*
X65520363Y-62926541D01*
X65520363Y-62926541D02*
X65520363Y-62593208D01*
X65520363Y-62593208D02*
X65472744Y-62402732D01*
X65472744Y-62402732D02*
X65377506Y-62307494D01*
X65377506Y-62307494D02*
X65282268Y-62259875D01*
X63853697Y-63259875D02*
X64187030Y-62783684D01*
X64425125Y-63259875D02*
X64425125Y-62259875D01*
X64425125Y-62259875D02*
X64044173Y-62259875D01*
X64044173Y-62259875D02*
X63948935Y-62307494D01*
X63948935Y-62307494D02*
X63901316Y-62355113D01*
X63901316Y-62355113D02*
X63853697Y-62450351D01*
X63853697Y-62450351D02*
X63853697Y-62593208D01*
X63853697Y-62593208D02*
X63901316Y-62688446D01*
X63901316Y-62688446D02*
X63948935Y-62736065D01*
X63948935Y-62736065D02*
X64044173Y-62783684D01*
X64044173Y-62783684D02*
X64425125Y-62783684D01*
X63234649Y-62783684D02*
X63234649Y-63259875D01*
X63567982Y-62259875D02*
X63234649Y-62783684D01*
X63234649Y-62783684D02*
X62901316Y-62259875D01*
X61806077Y-62736065D02*
X61472744Y-62736065D01*
X61329887Y-63259875D02*
X61806077Y-63259875D01*
X61806077Y-63259875D02*
X61806077Y-62259875D01*
X61806077Y-62259875D02*
X61329887Y-62259875D01*
X60996553Y-62259875D02*
X60329887Y-63259875D01*
X60329887Y-62259875D02*
X60996553Y-63259875D01*
X59948934Y-63259875D02*
X59948934Y-62259875D01*
X59948934Y-62259875D02*
X59567982Y-62259875D01*
X59567982Y-62259875D02*
X59472744Y-62307494D01*
X59472744Y-62307494D02*
X59425125Y-62355113D01*
X59425125Y-62355113D02*
X59377506Y-62450351D01*
X59377506Y-62450351D02*
X59377506Y-62593208D01*
X59377506Y-62593208D02*
X59425125Y-62688446D01*
X59425125Y-62688446D02*
X59472744Y-62736065D01*
X59472744Y-62736065D02*
X59567982Y-62783684D01*
X59567982Y-62783684D02*
X59948934Y-62783684D01*
X58996553Y-62974160D02*
X58520363Y-62974160D01*
X59091791Y-63259875D02*
X58758458Y-62259875D01*
X58758458Y-62259875D02*
X58425125Y-63259875D01*
X58091791Y-63259875D02*
X58091791Y-62259875D01*
X58091791Y-62259875D02*
X57520363Y-63259875D01*
X57520363Y-63259875D02*
X57520363Y-62259875D01*
X57091791Y-63212256D02*
X56948934Y-63259875D01*
X56948934Y-63259875D02*
X56710839Y-63259875D01*
X56710839Y-63259875D02*
X56615601Y-63212256D01*
X56615601Y-63212256D02*
X56567982Y-63164636D01*
X56567982Y-63164636D02*
X56520363Y-63069398D01*
X56520363Y-63069398D02*
X56520363Y-62974160D01*
X56520363Y-62974160D02*
X56567982Y-62878922D01*
X56567982Y-62878922D02*
X56615601Y-62831303D01*
X56615601Y-62831303D02*
X56710839Y-62783684D01*
X56710839Y-62783684D02*
X56901315Y-62736065D01*
X56901315Y-62736065D02*
X56996553Y-62688446D01*
X56996553Y-62688446D02*
X57044172Y-62640827D01*
X57044172Y-62640827D02*
X57091791Y-62545589D01*
X57091791Y-62545589D02*
X57091791Y-62450351D01*
X57091791Y-62450351D02*
X57044172Y-62355113D01*
X57044172Y-62355113D02*
X56996553Y-62307494D01*
X56996553Y-62307494D02*
X56901315Y-62259875D01*
X56901315Y-62259875D02*
X56663220Y-62259875D01*
X56663220Y-62259875D02*
X56520363Y-62307494D01*
X56091791Y-63259875D02*
X56091791Y-62259875D01*
X55425125Y-62259875D02*
X55234649Y-62259875D01*
X55234649Y-62259875D02*
X55139411Y-62307494D01*
X55139411Y-62307494D02*
X55044173Y-62402732D01*
X55044173Y-62402732D02*
X54996554Y-62593208D01*
X54996554Y-62593208D02*
X54996554Y-62926541D01*
X54996554Y-62926541D02*
X55044173Y-63117017D01*
X55044173Y-63117017D02*
X55139411Y-63212256D01*
X55139411Y-63212256D02*
X55234649Y-63259875D01*
X55234649Y-63259875D02*
X55425125Y-63259875D01*
X55425125Y-63259875D02*
X55520363Y-63212256D01*
X55520363Y-63212256D02*
X55615601Y-63117017D01*
X55615601Y-63117017D02*
X55663220Y-62926541D01*
X55663220Y-62926541D02*
X55663220Y-62593208D01*
X55663220Y-62593208D02*
X55615601Y-62402732D01*
X55615601Y-62402732D02*
X55520363Y-62307494D01*
X55520363Y-62307494D02*
X55425125Y-62259875D01*
X54567982Y-63259875D02*
X54567982Y-62259875D01*
X54567982Y-62259875D02*
X53996554Y-63259875D01*
X53996554Y-63259875D02*
X53996554Y-62259875D01*
X68139411Y-64869819D02*
X68710839Y-64869819D01*
X68425125Y-64869819D02*
X68425125Y-63869819D01*
X68425125Y-63869819D02*
X68520363Y-64012676D01*
X68520363Y-64012676D02*
X68615601Y-64107914D01*
X68615601Y-64107914D02*
X68710839Y-64155533D01*
X67758458Y-63965057D02*
X67710839Y-63917438D01*
X67710839Y-63917438D02*
X67615601Y-63869819D01*
X67615601Y-63869819D02*
X67377506Y-63869819D01*
X67377506Y-63869819D02*
X67282268Y-63917438D01*
X67282268Y-63917438D02*
X67234649Y-63965057D01*
X67234649Y-63965057D02*
X67187030Y-64060295D01*
X67187030Y-64060295D02*
X67187030Y-64155533D01*
X67187030Y-64155533D02*
X67234649Y-64298390D01*
X67234649Y-64298390D02*
X67806077Y-64869819D01*
X67806077Y-64869819D02*
X67187030Y-64869819D01*
X66615601Y-64298390D02*
X66710839Y-64250771D01*
X66710839Y-64250771D02*
X66758458Y-64203152D01*
X66758458Y-64203152D02*
X66806077Y-64107914D01*
X66806077Y-64107914D02*
X66806077Y-64060295D01*
X66806077Y-64060295D02*
X66758458Y-63965057D01*
X66758458Y-63965057D02*
X66710839Y-63917438D01*
X66710839Y-63917438D02*
X66615601Y-63869819D01*
X66615601Y-63869819D02*
X66425125Y-63869819D01*
X66425125Y-63869819D02*
X66329887Y-63917438D01*
X66329887Y-63917438D02*
X66282268Y-63965057D01*
X66282268Y-63965057D02*
X66234649Y-64060295D01*
X66234649Y-64060295D02*
X66234649Y-64107914D01*
X66234649Y-64107914D02*
X66282268Y-64203152D01*
X66282268Y-64203152D02*
X66329887Y-64250771D01*
X66329887Y-64250771D02*
X66425125Y-64298390D01*
X66425125Y-64298390D02*
X66615601Y-64298390D01*
X66615601Y-64298390D02*
X66710839Y-64346009D01*
X66710839Y-64346009D02*
X66758458Y-64393628D01*
X66758458Y-64393628D02*
X66806077Y-64488866D01*
X66806077Y-64488866D02*
X66806077Y-64679342D01*
X66806077Y-64679342D02*
X66758458Y-64774580D01*
X66758458Y-64774580D02*
X66710839Y-64822200D01*
X66710839Y-64822200D02*
X66615601Y-64869819D01*
X66615601Y-64869819D02*
X66425125Y-64869819D01*
X66425125Y-64869819D02*
X66329887Y-64822200D01*
X66329887Y-64822200D02*
X66282268Y-64774580D01*
X66282268Y-64774580D02*
X66234649Y-64679342D01*
X66234649Y-64679342D02*
X66234649Y-64488866D01*
X66234649Y-64488866D02*
X66282268Y-64393628D01*
X66282268Y-64393628D02*
X66329887Y-64346009D01*
X66329887Y-64346009D02*
X66425125Y-64298390D01*
X65044172Y-64869819D02*
X65044172Y-63869819D01*
X64472744Y-64869819D02*
X64901315Y-64298390D01*
X64472744Y-63869819D02*
X65044172Y-64441247D01*
X64044172Y-64869819D02*
X64044172Y-64203152D01*
X64044172Y-63869819D02*
X64091791Y-63917438D01*
X64091791Y-63917438D02*
X64044172Y-63965057D01*
X64044172Y-63965057D02*
X63996553Y-63917438D01*
X63996553Y-63917438D02*
X64044172Y-63869819D01*
X64044172Y-63869819D02*
X64044172Y-63965057D01*
X63234649Y-64346009D02*
X63091792Y-64393628D01*
X63091792Y-64393628D02*
X63044173Y-64441247D01*
X63044173Y-64441247D02*
X62996554Y-64536485D01*
X62996554Y-64536485D02*
X62996554Y-64679342D01*
X62996554Y-64679342D02*
X63044173Y-64774580D01*
X63044173Y-64774580D02*
X63091792Y-64822200D01*
X63091792Y-64822200D02*
X63187030Y-64869819D01*
X63187030Y-64869819D02*
X63567982Y-64869819D01*
X63567982Y-64869819D02*
X63567982Y-63869819D01*
X63567982Y-63869819D02*
X63234649Y-63869819D01*
X63234649Y-63869819D02*
X63139411Y-63917438D01*
X63139411Y-63917438D02*
X63091792Y-63965057D01*
X63091792Y-63965057D02*
X63044173Y-64060295D01*
X63044173Y-64060295D02*
X63044173Y-64155533D01*
X63044173Y-64155533D02*
X63091792Y-64250771D01*
X63091792Y-64250771D02*
X63139411Y-64298390D01*
X63139411Y-64298390D02*
X63234649Y-64346009D01*
X63234649Y-64346009D02*
X63567982Y-64346009D01*
X61853696Y-64822200D02*
X61710839Y-64869819D01*
X61710839Y-64869819D02*
X61472744Y-64869819D01*
X61472744Y-64869819D02*
X61377506Y-64822200D01*
X61377506Y-64822200D02*
X61329887Y-64774580D01*
X61329887Y-64774580D02*
X61282268Y-64679342D01*
X61282268Y-64679342D02*
X61282268Y-64584104D01*
X61282268Y-64584104D02*
X61329887Y-64488866D01*
X61329887Y-64488866D02*
X61377506Y-64441247D01*
X61377506Y-64441247D02*
X61472744Y-64393628D01*
X61472744Y-64393628D02*
X61663220Y-64346009D01*
X61663220Y-64346009D02*
X61758458Y-64298390D01*
X61758458Y-64298390D02*
X61806077Y-64250771D01*
X61806077Y-64250771D02*
X61853696Y-64155533D01*
X61853696Y-64155533D02*
X61853696Y-64060295D01*
X61853696Y-64060295D02*
X61806077Y-63965057D01*
X61806077Y-63965057D02*
X61758458Y-63917438D01*
X61758458Y-63917438D02*
X61663220Y-63869819D01*
X61663220Y-63869819D02*
X61425125Y-63869819D01*
X61425125Y-63869819D02*
X61282268Y-63917438D01*
X60853696Y-64869819D02*
X60853696Y-63869819D01*
X60853696Y-63869819D02*
X60520363Y-64584104D01*
X60520363Y-64584104D02*
X60187030Y-63869819D01*
X60187030Y-63869819D02*
X60187030Y-64869819D01*
X59710839Y-64869819D02*
X59710839Y-63869819D01*
X59710839Y-63869819D02*
X59472744Y-63869819D01*
X59472744Y-63869819D02*
X59329887Y-63917438D01*
X59329887Y-63917438D02*
X59234649Y-64012676D01*
X59234649Y-64012676D02*
X59187030Y-64107914D01*
X59187030Y-64107914D02*
X59139411Y-64298390D01*
X59139411Y-64298390D02*
X59139411Y-64441247D01*
X59139411Y-64441247D02*
X59187030Y-64631723D01*
X59187030Y-64631723D02*
X59234649Y-64726961D01*
X59234649Y-64726961D02*
X59329887Y-64822200D01*
X59329887Y-64822200D02*
X59472744Y-64869819D01*
X59472744Y-64869819D02*
X59710839Y-64869819D01*
X57996554Y-63822200D02*
X58853696Y-65107914D01*
X57091792Y-64774580D02*
X57139411Y-64822200D01*
X57139411Y-64822200D02*
X57282268Y-64869819D01*
X57282268Y-64869819D02*
X57377506Y-64869819D01*
X57377506Y-64869819D02*
X57520363Y-64822200D01*
X57520363Y-64822200D02*
X57615601Y-64726961D01*
X57615601Y-64726961D02*
X57663220Y-64631723D01*
X57663220Y-64631723D02*
X57710839Y-64441247D01*
X57710839Y-64441247D02*
X57710839Y-64298390D01*
X57710839Y-64298390D02*
X57663220Y-64107914D01*
X57663220Y-64107914D02*
X57615601Y-64012676D01*
X57615601Y-64012676D02*
X57520363Y-63917438D01*
X57520363Y-63917438D02*
X57377506Y-63869819D01*
X57377506Y-63869819D02*
X57282268Y-63869819D01*
X57282268Y-63869819D02*
X57139411Y-63917438D01*
X57139411Y-63917438D02*
X57091792Y-63965057D01*
X56663220Y-64869819D02*
X56663220Y-63869819D01*
X56663220Y-63869819D02*
X56282268Y-63869819D01*
X56282268Y-63869819D02*
X56187030Y-63917438D01*
X56187030Y-63917438D02*
X56139411Y-63965057D01*
X56139411Y-63965057D02*
X56091792Y-64060295D01*
X56091792Y-64060295D02*
X56091792Y-64203152D01*
X56091792Y-64203152D02*
X56139411Y-64298390D01*
X56139411Y-64298390D02*
X56187030Y-64346009D01*
X56187030Y-64346009D02*
X56282268Y-64393628D01*
X56282268Y-64393628D02*
X56663220Y-64393628D01*
X55187030Y-64869819D02*
X55663220Y-64869819D01*
X55663220Y-64869819D02*
X55663220Y-63869819D01*
X54853696Y-64869819D02*
X54853696Y-63869819D01*
X54853696Y-63869819D02*
X54615601Y-63869819D01*
X54615601Y-63869819D02*
X54472744Y-63917438D01*
X54472744Y-63917438D02*
X54377506Y-64012676D01*
X54377506Y-64012676D02*
X54329887Y-64107914D01*
X54329887Y-64107914D02*
X54282268Y-64298390D01*
X54282268Y-64298390D02*
X54282268Y-64441247D01*
X54282268Y-64441247D02*
X54329887Y-64631723D01*
X54329887Y-64631723D02*
X54377506Y-64726961D01*
X54377506Y-64726961D02*
X54472744Y-64822200D01*
X54472744Y-64822200D02*
X54615601Y-64869819D01*
X54615601Y-64869819D02*
X54853696Y-64869819D01*
D11*
%TO.C,G\u002A\u002A\u002A*%
G36*
X58630673Y-56093585D02*
G01*
X58743804Y-56125023D01*
X58845735Y-56153356D01*
X58934515Y-56178043D01*
X59008193Y-56198541D01*
X59064818Y-56214309D01*
X59102440Y-56224803D01*
X59114956Y-56228300D01*
X59183146Y-56247313D01*
X59264660Y-56269998D01*
X59281152Y-56274581D01*
X59353235Y-56294612D01*
X59442603Y-56319413D01*
X59526498Y-56342661D01*
X59532738Y-56344389D01*
X59583063Y-56358348D01*
X59652104Y-56377527D01*
X59737940Y-56401391D01*
X59838649Y-56429405D01*
X59952311Y-56461033D01*
X59963717Y-56464208D01*
X60077002Y-56495743D01*
X60210803Y-56532998D01*
X60351792Y-56572263D01*
X60498048Y-56613005D01*
X60596981Y-56640570D01*
X60647648Y-56654687D01*
X60798673Y-56696776D01*
X60827211Y-56704730D01*
X60977424Y-56746588D01*
X61125435Y-56787819D01*
X61269367Y-56827902D01*
X61274231Y-56829256D01*
X61407347Y-56866314D01*
X61537501Y-56902535D01*
X61657954Y-56936043D01*
X61766831Y-56966317D01*
X61862259Y-56992835D01*
X61942363Y-57015075D01*
X61980174Y-57025559D01*
X62005269Y-57032517D01*
X62049101Y-57044639D01*
X62071797Y-57050905D01*
X62130919Y-57067263D01*
X62206635Y-57088243D01*
X62297156Y-57113349D01*
X62400694Y-57142083D01*
X62515462Y-57173949D01*
X62639671Y-57208448D01*
X62659971Y-57214088D01*
X62771534Y-57245084D01*
X62909262Y-57283359D01*
X63051068Y-57322776D01*
X63195164Y-57362839D01*
X63306279Y-57393738D01*
X63339762Y-57403049D01*
X63483073Y-57442910D01*
X63623310Y-57481924D01*
X63758685Y-57519594D01*
X63887410Y-57555423D01*
X64007697Y-57588914D01*
X64117759Y-57619569D01*
X64215806Y-57646891D01*
X64300051Y-57670383D01*
X64368707Y-57689548D01*
X64419985Y-57703888D01*
X64452098Y-57712907D01*
X64469373Y-57717765D01*
X64513568Y-57730134D01*
X64575390Y-57747388D01*
X64652765Y-57768952D01*
X64653056Y-57769033D01*
X64743617Y-57794246D01*
X64845870Y-57822695D01*
X64957450Y-57853721D01*
X65076282Y-57886745D01*
X65200289Y-57921191D01*
X65327397Y-57956481D01*
X65331565Y-57957638D01*
X65444230Y-57988915D01*
X65601880Y-58032692D01*
X65768581Y-58078994D01*
X65940047Y-58126630D01*
X66012123Y-58146658D01*
X66111989Y-58174408D01*
X66280123Y-58221138D01*
X66440161Y-58265628D01*
X66587817Y-58306687D01*
X66683439Y-58333287D01*
X66718805Y-58343125D01*
X66731516Y-58346661D01*
X66845647Y-58378345D01*
X66953508Y-58408173D01*
X67053264Y-58435646D01*
X67143082Y-58460264D01*
X67221127Y-58481527D01*
X67285565Y-58498935D01*
X67334562Y-58511988D01*
X67366284Y-58520187D01*
X67378896Y-58523031D01*
X67382655Y-58522284D01*
X67386897Y-58518656D01*
X67391832Y-58510336D01*
X67398024Y-58495514D01*
X67406036Y-58472383D01*
X67416433Y-58439133D01*
X67429778Y-58393958D01*
X67446635Y-58335047D01*
X67467568Y-58260594D01*
X67493139Y-58168789D01*
X67523914Y-58057825D01*
X67612132Y-57739408D01*
X67562192Y-57683863D01*
X67530530Y-57643710D01*
X67486187Y-57570197D01*
X67447988Y-57485978D01*
X67419228Y-57397646D01*
X67407411Y-57333522D01*
X67400481Y-57253984D01*
X67398648Y-57166918D01*
X67401856Y-57079179D01*
X67410046Y-56997623D01*
X67423161Y-56929105D01*
X67454837Y-56823986D01*
X67510280Y-56688678D01*
X67577856Y-56568435D01*
X67656756Y-56464283D01*
X67746169Y-56377246D01*
X67845286Y-56308348D01*
X67953296Y-56258614D01*
X68029409Y-56231605D01*
X68102414Y-55977382D01*
X68116606Y-55927632D01*
X68135594Y-55859938D01*
X68151846Y-55800655D01*
X68164525Y-55752899D01*
X68172792Y-55719787D01*
X68175809Y-55704435D01*
X68175787Y-55702753D01*
X68173019Y-55694533D01*
X68163669Y-55686771D01*
X68144826Y-55678354D01*
X68113579Y-55668169D01*
X68067016Y-55655101D01*
X68002226Y-55638037D01*
X68000747Y-55637649D01*
X67978172Y-55631552D01*
X67936635Y-55620181D01*
X67877890Y-55604020D01*
X67803694Y-55583554D01*
X67715803Y-55559270D01*
X67615971Y-55531653D01*
X67505956Y-55501188D01*
X67387512Y-55468360D01*
X67262396Y-55433655D01*
X67132363Y-55397559D01*
X67130387Y-55397010D01*
X66972169Y-55352968D01*
X66833846Y-55314230D01*
X66714320Y-55280471D01*
X66612497Y-55251363D01*
X66527278Y-55226579D01*
X66457568Y-55205792D01*
X66402270Y-55188676D01*
X66360289Y-55174903D01*
X66330526Y-55164148D01*
X66311887Y-55156082D01*
X66303275Y-55150379D01*
X66288788Y-55123225D01*
X66286151Y-55078462D01*
X66301146Y-55023529D01*
X66303021Y-55018714D01*
X66308059Y-55005242D01*
X66313172Y-54993743D01*
X66319753Y-54984470D01*
X66329197Y-54977671D01*
X66342896Y-54973598D01*
X66362244Y-54972502D01*
X66388634Y-54974633D01*
X66423461Y-54980242D01*
X66468116Y-54989580D01*
X66523994Y-55002898D01*
X66592489Y-55020446D01*
X66674993Y-55042476D01*
X66772900Y-55069237D01*
X66887603Y-55100982D01*
X67020496Y-55137959D01*
X67172973Y-55180421D01*
X67300511Y-55215903D01*
X67429596Y-55251792D01*
X67553743Y-55286285D01*
X67670951Y-55318828D01*
X67779218Y-55348865D01*
X67876543Y-55375841D01*
X67960925Y-55399202D01*
X68030362Y-55418392D01*
X68082852Y-55432857D01*
X68116396Y-55442041D01*
X68166268Y-55456138D01*
X68230760Y-55477248D01*
X68279479Y-55498280D01*
X68315951Y-55521188D01*
X68343702Y-55547924D01*
X68366257Y-55580442D01*
X68379571Y-55606246D01*
X68391480Y-55643247D01*
X68395437Y-55684773D01*
X68391342Y-55734713D01*
X68379094Y-55796954D01*
X68358590Y-55875385D01*
X68347908Y-55913507D01*
X68328540Y-55982880D01*
X68306675Y-56061427D01*
X68284270Y-56142110D01*
X68263285Y-56217894D01*
X68262484Y-56220791D01*
X68244918Y-56284278D01*
X68229186Y-56341037D01*
X68216278Y-56387509D01*
X68207181Y-56420136D01*
X68202883Y-56435360D01*
X68201122Y-56439086D01*
X68188936Y-56446663D01*
X68162932Y-56450789D01*
X68119186Y-56452254D01*
X68102245Y-56452532D01*
X68057292Y-56456130D01*
X68020356Y-56465646D01*
X67981066Y-56483419D01*
X67951889Y-56499939D01*
X67873077Y-56560021D01*
X67802015Y-56636759D01*
X67740172Y-56726959D01*
X67689014Y-56827430D01*
X67650007Y-56934979D01*
X67624618Y-57046412D01*
X67614314Y-57158537D01*
X67620561Y-57268163D01*
X67628808Y-57316878D01*
X67656122Y-57415102D01*
X67695168Y-57496789D01*
X67745464Y-57561066D01*
X67806532Y-57607061D01*
X67828927Y-57620727D01*
X67851793Y-57638622D01*
X67860717Y-57651492D01*
X67858867Y-57660853D01*
X67851806Y-57689285D01*
X67840139Y-57733926D01*
X67824588Y-57792169D01*
X67805874Y-57861407D01*
X67784718Y-57939035D01*
X67761840Y-58022446D01*
X67737963Y-58109033D01*
X67713805Y-58196189D01*
X67690090Y-58281310D01*
X67667537Y-58361787D01*
X67646867Y-58435016D01*
X67628802Y-58498388D01*
X67621115Y-58524939D01*
X67614062Y-58549298D01*
X67603368Y-58585140D01*
X67597442Y-58603307D01*
X67596108Y-58606640D01*
X67561815Y-58663013D01*
X67512083Y-58706128D01*
X67469604Y-58725197D01*
X67449960Y-58734015D01*
X67378495Y-58744705D01*
X67314279Y-58745933D01*
X67245340Y-58994794D01*
X67233356Y-59037532D01*
X67213487Y-59106160D01*
X67195104Y-59167015D01*
X67179243Y-59216789D01*
X67166939Y-59252175D01*
X67159227Y-59269864D01*
X67158212Y-59271364D01*
X67135924Y-59295476D01*
X67107307Y-59317259D01*
X67105101Y-59318557D01*
X67068813Y-59332660D01*
X67030385Y-59338487D01*
X67024708Y-59338212D01*
X67009831Y-59336198D01*
X66987937Y-59331964D01*
X66957867Y-59325200D01*
X66918462Y-59315598D01*
X66868565Y-59302847D01*
X66807017Y-59286638D01*
X66732658Y-59266659D01*
X66644331Y-59242603D01*
X66540876Y-59214159D01*
X66421135Y-59181017D01*
X66283950Y-59142868D01*
X66128162Y-59099401D01*
X65952611Y-59050307D01*
X65937377Y-59046044D01*
X65925278Y-59042664D01*
X66615842Y-59042664D01*
X66618291Y-59043735D01*
X66637242Y-59049831D01*
X66671744Y-59060124D01*
X66718049Y-59073507D01*
X66772407Y-59088876D01*
X66795561Y-59095307D01*
X66848964Y-59109746D01*
X66893949Y-59121369D01*
X66926355Y-59129117D01*
X66942017Y-59131935D01*
X66947750Y-59129660D01*
X66960990Y-59110553D01*
X66973892Y-59074850D01*
X66975337Y-59069729D01*
X66985364Y-59034225D01*
X66999316Y-58984845D01*
X67015545Y-58927421D01*
X67032404Y-58867787D01*
X67045544Y-58820786D01*
X67057628Y-58775011D01*
X67064334Y-58744246D01*
X67066182Y-58725197D01*
X67063689Y-58714568D01*
X67057373Y-58709064D01*
X67039702Y-58702175D01*
X67006423Y-58691508D01*
X66962869Y-58678709D01*
X66913488Y-58664959D01*
X66862728Y-58651441D01*
X66815037Y-58639336D01*
X66774864Y-58629828D01*
X66746655Y-58624099D01*
X66734859Y-58623332D01*
X66731719Y-58630683D01*
X66723486Y-58655690D01*
X66711587Y-58694588D01*
X66697116Y-58743516D01*
X66681169Y-58798615D01*
X66664842Y-58856026D01*
X66649230Y-58911889D01*
X66635429Y-58962343D01*
X66624533Y-59003531D01*
X66617639Y-59031591D01*
X66615842Y-59042664D01*
X65925278Y-59042664D01*
X65875777Y-59028836D01*
X65797366Y-59006960D01*
X65703784Y-58980873D01*
X65596675Y-58951032D01*
X65477680Y-58917894D01*
X65348440Y-58881915D01*
X65251306Y-58854880D01*
X65938742Y-58854880D01*
X65942024Y-58856126D01*
X65962359Y-58862420D01*
X65998041Y-58872929D01*
X66045380Y-58886575D01*
X66100685Y-58902276D01*
X66129168Y-58910258D01*
X66182103Y-58924819D01*
X66225883Y-58936501D01*
X66256591Y-58944270D01*
X66270311Y-58947089D01*
X66274917Y-58940376D01*
X66284421Y-58916055D01*
X66297179Y-58877627D01*
X66312117Y-58828947D01*
X66328165Y-58773870D01*
X66344250Y-58716250D01*
X66359300Y-58659943D01*
X66372243Y-58608804D01*
X66382007Y-58566687D01*
X66387520Y-58537447D01*
X66387710Y-58524939D01*
X66383719Y-58522850D01*
X66361997Y-58515011D01*
X66325071Y-58503222D01*
X66276762Y-58488683D01*
X66220890Y-58472593D01*
X66200324Y-58466844D01*
X66137018Y-58450111D01*
X66092509Y-58440232D01*
X66065441Y-58436941D01*
X66054455Y-58439973D01*
X66051895Y-58446438D01*
X66044004Y-58470987D01*
X66032474Y-58509473D01*
X66018386Y-58558029D01*
X66002817Y-58612786D01*
X65986846Y-58669874D01*
X65971554Y-58725425D01*
X65958018Y-58775570D01*
X65947319Y-58816440D01*
X65940533Y-58844166D01*
X65938742Y-58854880D01*
X65251306Y-58854880D01*
X65210598Y-58843550D01*
X65065795Y-58803258D01*
X64915673Y-58761494D01*
X64761873Y-58718715D01*
X64606039Y-58675377D01*
X64578976Y-58667852D01*
X65263211Y-58667852D01*
X65267410Y-58669418D01*
X65289160Y-58676126D01*
X65326080Y-58686960D01*
X65374486Y-58700844D01*
X65430693Y-58716705D01*
X65463503Y-58725861D01*
X65515849Y-58740315D01*
X65558391Y-58751868D01*
X65587420Y-58759515D01*
X65599229Y-58762255D01*
X65599240Y-58762255D01*
X65603499Y-58752203D01*
X65612169Y-58724935D01*
X65624208Y-58684260D01*
X65638573Y-58633986D01*
X65654221Y-58577924D01*
X65670109Y-58519881D01*
X65685196Y-58463668D01*
X65698437Y-58413092D01*
X65708791Y-58371964D01*
X65715214Y-58344093D01*
X65716663Y-58333287D01*
X65712952Y-58331428D01*
X65691487Y-58324138D01*
X65655917Y-58313806D01*
X65610625Y-58301535D01*
X65559997Y-58288424D01*
X65508415Y-58275575D01*
X65460264Y-58264089D01*
X65419930Y-58255065D01*
X65391795Y-58249606D01*
X65380244Y-58248812D01*
X65376864Y-58256228D01*
X65368372Y-58281367D01*
X65356371Y-58320346D01*
X65341938Y-58369309D01*
X65326148Y-58424402D01*
X65310079Y-58481771D01*
X65294806Y-58537562D01*
X65281406Y-58587920D01*
X65270956Y-58628990D01*
X65264533Y-58656919D01*
X65263211Y-58667852D01*
X64578976Y-58667852D01*
X64449811Y-58631937D01*
X64294831Y-58588851D01*
X64142741Y-58546575D01*
X63995183Y-58505568D01*
X63876638Y-58472629D01*
X64591381Y-58472629D01*
X64593838Y-58475385D01*
X64612737Y-58485154D01*
X64645613Y-58497163D01*
X64687281Y-58509424D01*
X64691993Y-58510672D01*
X64746866Y-58525452D01*
X64803951Y-58541180D01*
X64851616Y-58554655D01*
X64924937Y-58575820D01*
X64940839Y-58519524D01*
X64959512Y-58453184D01*
X64983004Y-58368973D01*
X65003326Y-58295228D01*
X65019914Y-58234036D01*
X65032204Y-58187485D01*
X65039631Y-58157663D01*
X65041630Y-58146658D01*
X65039291Y-58145617D01*
X65020696Y-58139686D01*
X64987335Y-58129894D01*
X64943621Y-58117456D01*
X64893967Y-58103592D01*
X64842789Y-58089518D01*
X64794498Y-58076453D01*
X64753510Y-58065613D01*
X64724237Y-58058216D01*
X64711094Y-58055479D01*
X64707693Y-58059695D01*
X64698702Y-58081137D01*
X64686168Y-58117295D01*
X64671199Y-58164304D01*
X64654903Y-58218301D01*
X64638391Y-58275421D01*
X64622770Y-58331800D01*
X64609149Y-58383574D01*
X64598638Y-58426880D01*
X64592346Y-58457853D01*
X64591381Y-58472629D01*
X63876638Y-58472629D01*
X63853799Y-58466283D01*
X63720230Y-58429179D01*
X63596119Y-58394712D01*
X63483107Y-58363338D01*
X63382835Y-58335513D01*
X63296947Y-58311695D01*
X63227082Y-58292340D01*
X63174885Y-58277903D01*
X63163752Y-58274836D01*
X63914696Y-58274836D01*
X63916278Y-58285554D01*
X63921141Y-58291422D01*
X63928821Y-58295260D01*
X63930352Y-58295873D01*
X63951868Y-58303057D01*
X63988915Y-58314309D01*
X64036720Y-58328209D01*
X64090508Y-58343337D01*
X64100919Y-58346209D01*
X64152114Y-58360087D01*
X64195125Y-58371354D01*
X64225702Y-58378915D01*
X64239596Y-58381678D01*
X64241866Y-58380891D01*
X64251766Y-58366886D01*
X64261372Y-58340903D01*
X64264601Y-58329225D01*
X64274093Y-58294928D01*
X64287362Y-58246998D01*
X64303118Y-58190096D01*
X64320070Y-58128883D01*
X64367501Y-57957638D01*
X64328249Y-57946778D01*
X64303674Y-57939943D01*
X64263074Y-57928610D01*
X64212779Y-57914545D01*
X64158519Y-57899349D01*
X64153455Y-57897931D01*
X64104393Y-57884345D01*
X64064123Y-57873456D01*
X64036689Y-57866342D01*
X64026135Y-57864081D01*
X64025896Y-57864583D01*
X64021437Y-57878768D01*
X64012203Y-57910102D01*
X63999105Y-57955431D01*
X63983058Y-58011600D01*
X63964973Y-58075453D01*
X63950455Y-58127002D01*
X63934274Y-58185349D01*
X63923229Y-58227555D01*
X63916858Y-58256444D01*
X63914696Y-58274836D01*
X63163752Y-58274836D01*
X63141995Y-58268842D01*
X63017081Y-58234592D01*
X63008835Y-58177297D01*
X63008396Y-58174352D01*
X62987076Y-58100498D01*
X63237812Y-58100498D01*
X63241705Y-58102470D01*
X63263302Y-58110130D01*
X63300123Y-58121756D01*
X63348336Y-58136158D01*
X63404110Y-58152146D01*
X63433322Y-58160336D01*
X63485264Y-58174772D01*
X63527507Y-58186347D01*
X63556310Y-58194041D01*
X63567930Y-58196832D01*
X63572177Y-58187292D01*
X63580843Y-58160436D01*
X63592854Y-58120077D01*
X63607171Y-58070031D01*
X63622753Y-58014115D01*
X63638559Y-57956144D01*
X63653550Y-57899934D01*
X63666685Y-57849302D01*
X63676924Y-57808064D01*
X63683227Y-57780036D01*
X63684552Y-57769033D01*
X63684474Y-57768975D01*
X63671846Y-57764455D01*
X63642855Y-57755760D01*
X63602055Y-57744127D01*
X63553999Y-57730794D01*
X63503242Y-57717000D01*
X63454337Y-57703982D01*
X63411838Y-57692979D01*
X63380299Y-57685227D01*
X63364273Y-57681966D01*
X63357128Y-57684937D01*
X63348724Y-57697232D01*
X63338513Y-57721233D01*
X63325623Y-57759287D01*
X63309187Y-57813741D01*
X63288334Y-57886943D01*
X63285601Y-57896738D01*
X63268585Y-57959544D01*
X63254521Y-58014609D01*
X63244186Y-58058647D01*
X63238357Y-58088372D01*
X63237812Y-58100498D01*
X62987076Y-58100498D01*
X62985656Y-58095578D01*
X62943892Y-58022601D01*
X62885623Y-57958894D01*
X62813367Y-57907927D01*
X62787808Y-57894517D01*
X62762574Y-57884585D01*
X62735035Y-57879027D01*
X62698713Y-57876603D01*
X62647132Y-57876070D01*
X62599905Y-57876480D01*
X62562405Y-57878651D01*
X62534292Y-57883839D01*
X62509070Y-57893298D01*
X62480245Y-57908282D01*
X62455689Y-57923683D01*
X62412538Y-57956893D01*
X62376079Y-57991669D01*
X62330068Y-58042845D01*
X62140655Y-57990243D01*
X62118659Y-57984132D01*
X62067433Y-57969895D01*
X61997126Y-57950350D01*
X61908885Y-57925815D01*
X61803857Y-57896610D01*
X61683189Y-57863054D01*
X61548026Y-57825466D01*
X61399517Y-57784163D01*
X61238807Y-57739467D01*
X61183909Y-57724198D01*
X61882731Y-57724198D01*
X61885582Y-57725670D01*
X61905492Y-57732667D01*
X61940858Y-57743711D01*
X61987822Y-57757619D01*
X62042526Y-57773208D01*
X62105281Y-57790702D01*
X62151739Y-57803255D01*
X62183356Y-57810914D01*
X62203214Y-57814183D01*
X62214392Y-57813564D01*
X62219973Y-57809561D01*
X62223035Y-57802676D01*
X62230615Y-57778503D01*
X62241688Y-57740198D01*
X62255206Y-57691695D01*
X62270136Y-57636889D01*
X62285445Y-57579674D01*
X62300101Y-57523942D01*
X62313069Y-57473589D01*
X62323318Y-57432508D01*
X62329813Y-57404593D01*
X62331523Y-57393738D01*
X62327124Y-57391865D01*
X62305114Y-57384697D01*
X62267969Y-57373462D01*
X62219357Y-57359259D01*
X62162944Y-57343187D01*
X61998654Y-57296925D01*
X61989055Y-57322171D01*
X61982670Y-57340736D01*
X61971323Y-57377722D01*
X61957606Y-57425303D01*
X61942561Y-57479541D01*
X61927230Y-57536497D01*
X61912653Y-57592232D01*
X61899874Y-57642808D01*
X61889933Y-57684287D01*
X61883871Y-57712730D01*
X61882731Y-57724198D01*
X61183909Y-57724198D01*
X61067043Y-57691694D01*
X60885372Y-57641165D01*
X60694940Y-57588198D01*
X60496895Y-57533113D01*
X60456640Y-57521916D01*
X61203623Y-57521916D01*
X61206290Y-57528233D01*
X61221273Y-57537781D01*
X61251174Y-57549795D01*
X61298081Y-57565089D01*
X61364084Y-57584479D01*
X61396837Y-57593770D01*
X61449396Y-57608520D01*
X61492285Y-57620356D01*
X61521760Y-57628248D01*
X61534077Y-57631168D01*
X61535079Y-57629712D01*
X61541285Y-57612967D01*
X61551778Y-57580535D01*
X61565442Y-57536230D01*
X61581161Y-57483868D01*
X61597819Y-57427262D01*
X61614300Y-57370227D01*
X61629486Y-57316578D01*
X61642263Y-57270129D01*
X61651514Y-57234694D01*
X61656122Y-57214088D01*
X61650712Y-57210434D01*
X61628252Y-57201585D01*
X61592266Y-57189309D01*
X61547001Y-57174868D01*
X61496702Y-57159528D01*
X61445617Y-57144551D01*
X61397992Y-57131202D01*
X61358074Y-57120745D01*
X61330110Y-57114443D01*
X61318346Y-57113560D01*
X61317532Y-57115405D01*
X61311850Y-57133186D01*
X61301952Y-57166543D01*
X61288942Y-57211542D01*
X61273926Y-57264247D01*
X61258010Y-57320722D01*
X61242299Y-57377033D01*
X61227899Y-57429243D01*
X61215916Y-57473418D01*
X61207456Y-57505620D01*
X61203623Y-57521916D01*
X60456640Y-57521916D01*
X60292382Y-57476227D01*
X60082549Y-57417860D01*
X59868542Y-57358331D01*
X59771327Y-57331289D01*
X60529330Y-57331289D01*
X60531259Y-57340166D01*
X60539415Y-57348223D01*
X60556758Y-57356725D01*
X60586252Y-57366937D01*
X60630859Y-57380125D01*
X60693542Y-57397554D01*
X60747698Y-57412373D01*
X60794907Y-57424867D01*
X60827054Y-57432348D01*
X60847334Y-57435234D01*
X60858939Y-57433941D01*
X60865066Y-57428889D01*
X60868908Y-57420494D01*
X60873744Y-57405891D01*
X60883482Y-57373492D01*
X60896344Y-57329006D01*
X60911190Y-57276556D01*
X60926879Y-57220267D01*
X60942272Y-57164262D01*
X60956229Y-57112664D01*
X60967610Y-57069599D01*
X60975274Y-57039189D01*
X60978082Y-57025559D01*
X60974188Y-57021870D01*
X60953373Y-57012637D01*
X60918401Y-57000408D01*
X60873606Y-56986385D01*
X60823321Y-56971773D01*
X60771880Y-56957775D01*
X60723616Y-56945595D01*
X60682863Y-56936436D01*
X60653955Y-56931502D01*
X60641225Y-56931997D01*
X60637162Y-56941339D01*
X60628105Y-56968541D01*
X60615617Y-57009265D01*
X60600858Y-57059401D01*
X60584987Y-57114834D01*
X60569168Y-57171453D01*
X60554558Y-57225144D01*
X60542321Y-57271794D01*
X60533615Y-57307291D01*
X60529603Y-57327523D01*
X60529330Y-57331289D01*
X59771327Y-57331289D01*
X59651507Y-57297959D01*
X59432592Y-57237063D01*
X59212943Y-57175961D01*
X59155197Y-57159897D01*
X59850536Y-57159897D01*
X59853253Y-57161210D01*
X59872834Y-57167848D01*
X59907902Y-57178594D01*
X59954638Y-57192294D01*
X60009222Y-57207797D01*
X60032593Y-57214293D01*
X60085741Y-57228709D01*
X60130317Y-57240310D01*
X60162209Y-57248044D01*
X60177304Y-57250856D01*
X60181600Y-57249108D01*
X60192993Y-57232710D01*
X60202740Y-57204645D01*
X60205022Y-57195525D01*
X60214002Y-57161316D01*
X60226927Y-57113366D01*
X60242428Y-57056723D01*
X60259138Y-56996440D01*
X60267945Y-56964411D01*
X60281674Y-56912248D01*
X60292043Y-56869864D01*
X60298163Y-56840965D01*
X60299148Y-56829256D01*
X60299050Y-56829167D01*
X60286064Y-56823947D01*
X60256708Y-56814643D01*
X60215533Y-56802503D01*
X60167087Y-56788780D01*
X60115919Y-56774723D01*
X60066580Y-56761583D01*
X60023617Y-56750610D01*
X59991581Y-56743055D01*
X59975021Y-56740167D01*
X59964999Y-56740917D01*
X59955993Y-56746021D01*
X59955977Y-56746234D01*
X59952833Y-56759629D01*
X59944863Y-56790402D01*
X59932950Y-56835218D01*
X59917983Y-56890744D01*
X59900845Y-56953644D01*
X59899369Y-56959040D01*
X59882678Y-57021295D01*
X59868644Y-57075807D01*
X59858073Y-57119277D01*
X59851769Y-57148407D01*
X59850536Y-57159897D01*
X59155197Y-57159897D01*
X58993707Y-57114973D01*
X58904469Y-57090150D01*
X58750934Y-57047452D01*
X58587480Y-57002005D01*
X58449689Y-56963701D01*
X59173116Y-56963701D01*
X59174590Y-56965768D01*
X59191487Y-56974439D01*
X59224286Y-56986713D01*
X59269245Y-57001261D01*
X59322624Y-57016758D01*
X59341154Y-57021865D01*
X59394719Y-57036634D01*
X59440372Y-57049228D01*
X59473761Y-57058447D01*
X59490535Y-57063091D01*
X59490771Y-57063157D01*
X59496704Y-57064562D01*
X59501891Y-57063542D01*
X59507164Y-57057783D01*
X59513354Y-57044971D01*
X59521292Y-57022795D01*
X59531809Y-56988940D01*
X59545735Y-56941095D01*
X59563902Y-56876945D01*
X59587141Y-56794178D01*
X59592273Y-56775622D01*
X59605614Y-56724416D01*
X59615412Y-56682202D01*
X59620800Y-56652934D01*
X59620906Y-56640570D01*
X59616349Y-56638369D01*
X59594538Y-56630857D01*
X59558927Y-56619825D01*
X59513845Y-56606494D01*
X59463621Y-56592082D01*
X59412585Y-56577809D01*
X59365065Y-56564894D01*
X59325391Y-56554556D01*
X59297892Y-56548016D01*
X59286897Y-56546492D01*
X59285082Y-56551113D01*
X59278268Y-56573289D01*
X59267623Y-56610178D01*
X59254220Y-56657854D01*
X59239129Y-56712388D01*
X59223421Y-56769854D01*
X59208168Y-56826324D01*
X59194439Y-56877871D01*
X59183307Y-56920568D01*
X59175843Y-56950487D01*
X59173116Y-56963701D01*
X58449689Y-56963701D01*
X58418518Y-56955036D01*
X58248456Y-56907769D01*
X58081706Y-56861430D01*
X57922677Y-56817245D01*
X57775778Y-56776440D01*
X57762666Y-56772799D01*
X58501176Y-56772799D01*
X58503280Y-56784941D01*
X58505647Y-56786029D01*
X58525628Y-56792862D01*
X58561144Y-56803744D01*
X58608018Y-56817420D01*
X58662072Y-56832635D01*
X58679194Y-56837381D01*
X58731483Y-56851980D01*
X58775333Y-56864378D01*
X58806568Y-56873387D01*
X58821009Y-56877819D01*
X58822594Y-56877597D01*
X58831322Y-56863887D01*
X58844006Y-56831199D01*
X58860014Y-56781299D01*
X58878717Y-56715956D01*
X58886825Y-56686473D01*
X58903531Y-56626498D01*
X58918818Y-56572586D01*
X58931268Y-56529713D01*
X58939461Y-56502857D01*
X58945232Y-56484615D01*
X58949394Y-56464208D01*
X58944623Y-56453828D01*
X58929750Y-56446721D01*
X58916412Y-56442052D01*
X58882506Y-56431522D01*
X58838551Y-56418839D01*
X58788969Y-56405170D01*
X58738181Y-56391678D01*
X58690609Y-56379530D01*
X58650673Y-56369892D01*
X58622796Y-56363927D01*
X58611398Y-56362803D01*
X58611150Y-56363169D01*
X58606130Y-56377117D01*
X58596410Y-56408338D01*
X58582965Y-56453554D01*
X58566773Y-56509488D01*
X58548810Y-56572863D01*
X58534798Y-56623595D01*
X58516805Y-56692733D01*
X58505641Y-56742265D01*
X58501176Y-56772799D01*
X57762666Y-56772799D01*
X57645420Y-56740241D01*
X57535433Y-56709649D01*
X57426915Y-56679355D01*
X57325873Y-56651036D01*
X57234233Y-56625238D01*
X57153923Y-56602506D01*
X57129293Y-56595483D01*
X57818228Y-56595483D01*
X57820822Y-56596651D01*
X57840108Y-56602967D01*
X57874910Y-56613445D01*
X57921441Y-56626960D01*
X57975917Y-56642386D01*
X57999288Y-56648882D01*
X58052436Y-56663298D01*
X58097014Y-56674899D01*
X58128907Y-56682633D01*
X58144003Y-56685445D01*
X58150186Y-56679076D01*
X58161373Y-56655012D01*
X58175360Y-56616677D01*
X58191083Y-56567951D01*
X58207477Y-56512711D01*
X58223476Y-56454837D01*
X58238018Y-56398208D01*
X58250035Y-56346703D01*
X58258465Y-56304201D01*
X58262243Y-56274581D01*
X58260303Y-56261722D01*
X58242889Y-56254177D01*
X58209781Y-56243324D01*
X58166150Y-56230722D01*
X58116483Y-56217485D01*
X58065268Y-56204728D01*
X58016992Y-56193567D01*
X57976140Y-56185116D01*
X57947202Y-56180490D01*
X57934663Y-56180804D01*
X57931825Y-56186657D01*
X57923563Y-56210346D01*
X57911697Y-56248236D01*
X57897322Y-56296436D01*
X57881530Y-56351051D01*
X57865413Y-56408190D01*
X57850066Y-56463959D01*
X57836581Y-56514466D01*
X57826051Y-56555817D01*
X57819569Y-56584120D01*
X57818228Y-56595483D01*
X57129293Y-56595483D01*
X57086868Y-56583386D01*
X57034995Y-56568423D01*
X57000229Y-56558161D01*
X56984499Y-56553147D01*
X56956970Y-56537221D01*
X56922878Y-56498285D01*
X56900137Y-56444515D01*
X56898249Y-56436605D01*
X56896278Y-56420637D01*
X56896924Y-56401299D01*
X57139812Y-56401299D01*
X57141314Y-56402873D01*
X57158253Y-56410342D01*
X57191053Y-56421677D01*
X57235986Y-56435638D01*
X57289319Y-56450985D01*
X57308006Y-56456173D01*
X57361452Y-56471016D01*
X57406922Y-56483653D01*
X57440090Y-56492878D01*
X57456628Y-56497492D01*
X57466284Y-56498765D01*
X57479796Y-56493392D01*
X57481999Y-56488733D01*
X57490355Y-56464859D01*
X57501947Y-56426677D01*
X57515753Y-56378101D01*
X57530755Y-56323045D01*
X57545930Y-56265422D01*
X57560258Y-56209147D01*
X57572719Y-56158133D01*
X57582292Y-56116294D01*
X57587957Y-56087545D01*
X57588692Y-56075798D01*
X57586386Y-56074294D01*
X57567035Y-56066680D01*
X57533019Y-56055847D01*
X57488778Y-56042968D01*
X57438753Y-56029213D01*
X57387383Y-56015756D01*
X57339109Y-56003767D01*
X57298371Y-55994418D01*
X57269610Y-55988882D01*
X57257265Y-55988331D01*
X57255793Y-55991214D01*
X57248930Y-56011011D01*
X57238017Y-56046059D01*
X57224179Y-56092407D01*
X57208540Y-56146104D01*
X57192223Y-56203198D01*
X57176352Y-56259736D01*
X57162051Y-56311767D01*
X57150445Y-56355339D01*
X57142657Y-56386500D01*
X57139812Y-56401299D01*
X56896924Y-56401299D01*
X56896931Y-56401076D01*
X56900789Y-56375042D01*
X56908434Y-56339656D01*
X56920446Y-56292038D01*
X56937409Y-56229309D01*
X56959903Y-56148590D01*
X56973855Y-56098685D01*
X56992297Y-56032049D01*
X57008049Y-55974329D01*
X57020304Y-55928525D01*
X57028250Y-55897640D01*
X57031079Y-55884677D01*
X57030627Y-55882915D01*
X57017980Y-55872106D01*
X56993377Y-55860684D01*
X56960148Y-55842675D01*
X56919774Y-55804581D01*
X56887139Y-55755548D01*
X56867089Y-55701681D01*
X56864131Y-55687329D01*
X56862347Y-55673148D01*
X56862209Y-55657056D01*
X56864181Y-55636936D01*
X56868728Y-55610674D01*
X56876317Y-55576154D01*
X56887412Y-55531260D01*
X56902478Y-55473878D01*
X56921980Y-55401891D01*
X56946384Y-55313185D01*
X56976154Y-55205645D01*
X56987421Y-55164996D01*
X57013660Y-55070381D01*
X57038337Y-54981471D01*
X57060744Y-54900807D01*
X57080176Y-54830932D01*
X57095924Y-54774389D01*
X57107282Y-54733718D01*
X57113544Y-54711464D01*
X57129180Y-54656618D01*
X57203205Y-54656618D01*
X57224711Y-54656027D01*
X57290716Y-54645366D01*
X57353202Y-54619904D01*
X57415884Y-54577787D01*
X57482477Y-54517161D01*
X57499670Y-54499090D01*
X57571568Y-54405810D01*
X57630937Y-54298015D01*
X57675951Y-54179513D01*
X57704781Y-54054110D01*
X57705287Y-54050854D01*
X57714043Y-53946668D01*
X57708818Y-53845667D01*
X57690598Y-53750688D01*
X57660372Y-53664564D01*
X57619126Y-53590133D01*
X57567848Y-53530230D01*
X57507527Y-53487690D01*
X57497003Y-53481965D01*
X57474838Y-53466826D01*
X57466010Y-53455640D01*
X57467004Y-53448878D01*
X57473105Y-53422425D01*
X57484011Y-53379933D01*
X57498854Y-53324456D01*
X57516767Y-53259048D01*
X57536882Y-53186766D01*
X57558330Y-53110663D01*
X57580244Y-53033794D01*
X57601755Y-52959214D01*
X57621996Y-52889978D01*
X57640099Y-52829141D01*
X57655194Y-52779757D01*
X57666415Y-52744881D01*
X57672894Y-52727568D01*
X57693815Y-52693758D01*
X57741403Y-52647137D01*
X57800665Y-52618017D01*
X57869035Y-52607962D01*
X57875586Y-52608289D01*
X57890098Y-52610182D01*
X57910709Y-52613971D01*
X57938294Y-52619890D01*
X57973723Y-52628175D01*
X58017870Y-52639062D01*
X58071608Y-52652786D01*
X58135807Y-52669582D01*
X58211341Y-52689687D01*
X58299083Y-52713336D01*
X58399903Y-52740764D01*
X58514676Y-52772207D01*
X58644273Y-52807901D01*
X58789567Y-52848081D01*
X58951430Y-52892982D01*
X59130735Y-52942841D01*
X59328353Y-52997893D01*
X59545157Y-53058373D01*
X59782021Y-53124517D01*
X59822961Y-53135948D01*
X59913143Y-53161097D01*
X60019031Y-53190595D01*
X60137216Y-53223494D01*
X60264287Y-53258844D01*
X60396835Y-53295698D01*
X60531449Y-53333106D01*
X60664719Y-53370121D01*
X60793236Y-53405794D01*
X60826344Y-53414982D01*
X60965873Y-53453717D01*
X61115305Y-53495224D01*
X61270231Y-53538276D01*
X61426244Y-53581649D01*
X61578935Y-53624116D01*
X61723895Y-53664452D01*
X61856715Y-53701430D01*
X61972988Y-53733825D01*
X61978514Y-53735365D01*
X62069352Y-53760674D01*
X62178491Y-53791065D01*
X62303451Y-53825848D01*
X62441752Y-53864332D01*
X62590913Y-53905828D01*
X62748453Y-53949646D01*
X62911891Y-53995096D01*
X63078747Y-54041488D01*
X63246540Y-54088131D01*
X63412789Y-54134337D01*
X63575014Y-54179414D01*
X63654348Y-54201479D01*
X63836563Y-54252353D01*
X64002036Y-54298841D01*
X64150293Y-54340806D01*
X64280860Y-54378110D01*
X64393263Y-54410617D01*
X64487029Y-54438187D01*
X64561683Y-54460684D01*
X64616752Y-54477969D01*
X64651761Y-54489906D01*
X64666238Y-54496357D01*
X64667864Y-54497853D01*
X64680200Y-54513936D01*
X64684302Y-54535517D01*
X64681822Y-54570437D01*
X64679166Y-54587811D01*
X64663537Y-54635876D01*
X64638694Y-54668431D01*
X64606492Y-54682713D01*
X64605783Y-54682699D01*
X64589318Y-54679281D01*
X64552902Y-54670270D01*
X64497393Y-54655902D01*
X64423650Y-54636414D01*
X64332531Y-54612041D01*
X64224893Y-54583019D01*
X64101595Y-54549585D01*
X63963495Y-54511974D01*
X63811450Y-54470421D01*
X63646319Y-54425164D01*
X63468959Y-54376438D01*
X63280230Y-54324479D01*
X63080988Y-54269522D01*
X62872092Y-54211805D01*
X62654399Y-54151562D01*
X62428769Y-54089030D01*
X62196059Y-54024444D01*
X61957126Y-53958041D01*
X61712829Y-53890057D01*
X61464027Y-53820727D01*
X61211576Y-53750287D01*
X60956336Y-53678974D01*
X60823292Y-53641783D01*
X60670481Y-53599084D01*
X60536401Y-53561643D01*
X60419811Y-53529112D01*
X60319472Y-53501147D01*
X60234144Y-53477401D01*
X60162586Y-53457528D01*
X60136865Y-53450391D01*
X60077283Y-53433848D01*
X60002878Y-53413177D01*
X59917561Y-53389467D01*
X59825240Y-53363804D01*
X59729827Y-53337275D01*
X59635231Y-53310965D01*
X59567167Y-53292034D01*
X59472747Y-53265776D01*
X59363369Y-53235361D01*
X59242224Y-53201677D01*
X59112504Y-53165611D01*
X58977400Y-53128050D01*
X58840104Y-53089882D01*
X58703807Y-53051993D01*
X58571700Y-53015272D01*
X58549403Y-53009079D01*
X58424050Y-52974478D01*
X58307630Y-52942699D01*
X58201643Y-52914133D01*
X58107586Y-52889171D01*
X58026957Y-52868203D01*
X57961254Y-52851619D01*
X57911974Y-52839809D01*
X57880617Y-52833165D01*
X57868680Y-52832075D01*
X57865140Y-52839982D01*
X57856177Y-52866695D01*
X57843145Y-52909200D01*
X57826928Y-52964529D01*
X57808407Y-53029715D01*
X57788466Y-53101788D01*
X57717434Y-53361839D01*
X57760788Y-53411092D01*
X57786343Y-53444270D01*
X57822562Y-53502833D01*
X57857346Y-53570623D01*
X57887222Y-53640709D01*
X57908717Y-53706164D01*
X57916565Y-53746830D01*
X57923147Y-53808685D01*
X57926984Y-53880441D01*
X57928008Y-53955829D01*
X57926149Y-54028580D01*
X57921338Y-54092425D01*
X57913507Y-54141096D01*
X57907471Y-54165379D01*
X57862244Y-54310140D01*
X57804927Y-54441138D01*
X57736406Y-54557223D01*
X57657567Y-54657243D01*
X57569295Y-54740050D01*
X57472477Y-54804493D01*
X57367997Y-54849422D01*
X57296363Y-54872494D01*
X57190585Y-55254333D01*
X57166620Y-55341206D01*
X57144358Y-55422612D01*
X57124704Y-55495205D01*
X57108305Y-55556559D01*
X57095810Y-55604248D01*
X57087867Y-55635844D01*
X57085126Y-55648921D01*
X57085021Y-55650411D01*
X57084611Y-55652772D01*
X57084991Y-55655045D01*
X57087422Y-55657598D01*
X57093162Y-55660803D01*
X57103474Y-55665029D01*
X57119615Y-55670647D01*
X57142846Y-55678027D01*
X57174427Y-55687539D01*
X57215618Y-55699553D01*
X57267679Y-55714440D01*
X57331869Y-55732570D01*
X57409450Y-55754313D01*
X57501680Y-55780039D01*
X57609819Y-55810119D01*
X57735128Y-55844922D01*
X57878867Y-55884819D01*
X58042295Y-55930181D01*
X58105168Y-55947635D01*
X58243589Y-55986068D01*
X58378615Y-56023566D01*
X58508293Y-56059585D01*
X58566650Y-56075798D01*
X58630673Y-56093585D01*
G37*
G36*
X66988112Y-57540623D02*
G01*
X67013840Y-57551019D01*
X67023630Y-57558955D01*
X67022298Y-57567179D01*
X67016263Y-57592026D01*
X67007004Y-57625462D01*
X66990379Y-57682653D01*
X66887829Y-57654267D01*
X66830579Y-57636452D01*
X66790088Y-57619396D01*
X66769270Y-57604187D01*
X66766723Y-57600868D01*
X66754415Y-57590716D01*
X66743019Y-57595285D01*
X66730351Y-57616669D01*
X66714228Y-57656962D01*
X66705728Y-57677666D01*
X66686529Y-57707255D01*
X66660783Y-57724741D01*
X66660582Y-57724830D01*
X66628647Y-57733588D01*
X66599572Y-57733657D01*
X66598096Y-57733303D01*
X66578635Y-57728175D01*
X66540751Y-57717918D01*
X66486562Y-57703111D01*
X66418180Y-57684338D01*
X66337722Y-57662178D01*
X66247302Y-57637214D01*
X66149034Y-57610028D01*
X66045034Y-57581199D01*
X65974312Y-57561513D01*
X65848782Y-57526171D01*
X65743382Y-57495884D01*
X65657481Y-57470460D01*
X65590447Y-57449706D01*
X65541646Y-57433428D01*
X65510448Y-57421434D01*
X65496221Y-57413530D01*
X65486369Y-57399173D01*
X65476198Y-57362591D01*
X65475143Y-57317145D01*
X65483822Y-57269986D01*
X65485728Y-57263160D01*
X65486620Y-57243155D01*
X65474243Y-57233063D01*
X65463023Y-57231300D01*
X65447588Y-57239037D01*
X65440531Y-57243425D01*
X65421458Y-57243349D01*
X65388049Y-57236815D01*
X65337234Y-57223390D01*
X65309378Y-57215482D01*
X65270421Y-57204116D01*
X65243098Y-57195741D01*
X65232072Y-57191759D01*
X65231789Y-57190628D01*
X65620976Y-57190628D01*
X65621973Y-57209448D01*
X65638372Y-57267532D01*
X65672979Y-57318299D01*
X65723300Y-57358808D01*
X65786842Y-57386120D01*
X65844937Y-57402612D01*
X65915594Y-57422583D01*
X65990933Y-57443808D01*
X66067295Y-57465260D01*
X66141023Y-57485915D01*
X66208458Y-57504749D01*
X66265942Y-57520736D01*
X66309817Y-57532852D01*
X66336425Y-57540072D01*
X66359427Y-57545854D01*
X66390643Y-57552656D01*
X66409178Y-57555308D01*
X66423960Y-57551379D01*
X66432854Y-57536080D01*
X66424168Y-57517092D01*
X66420446Y-57514910D01*
X66398121Y-57506276D01*
X66358667Y-57493161D01*
X66304760Y-57476386D01*
X66239077Y-57456773D01*
X66164295Y-57435146D01*
X66083091Y-57412325D01*
X66071448Y-57409097D01*
X65979915Y-57383523D01*
X65906766Y-57362587D01*
X65849625Y-57345481D01*
X65806116Y-57331396D01*
X65773864Y-57319525D01*
X65750491Y-57309060D01*
X65733623Y-57299190D01*
X65720883Y-57289110D01*
X65708230Y-57277374D01*
X65697400Y-57265650D01*
X65689094Y-57252687D01*
X65683588Y-57236841D01*
X65681154Y-57216469D01*
X65682067Y-57189928D01*
X65686601Y-57155576D01*
X65695030Y-57111769D01*
X65707628Y-57056864D01*
X65724668Y-56989219D01*
X65746425Y-56907191D01*
X65773173Y-56809136D01*
X65805186Y-56693411D01*
X65842737Y-56558374D01*
X65868822Y-56464423D01*
X65898264Y-56357875D01*
X65925453Y-56258930D01*
X65949875Y-56169495D01*
X65971014Y-56091473D01*
X65988353Y-56026771D01*
X66001376Y-55977295D01*
X66009569Y-55944949D01*
X66012414Y-55931639D01*
X66008234Y-55915288D01*
X65993146Y-55906087D01*
X65974270Y-55914874D01*
X65972572Y-55917839D01*
X65964686Y-55939018D01*
X65952098Y-55978057D01*
X65935432Y-56032701D01*
X65915313Y-56100692D01*
X65892365Y-56179776D01*
X65867215Y-56267695D01*
X65840485Y-56362193D01*
X65812802Y-56461015D01*
X65784790Y-56561903D01*
X65757074Y-56662602D01*
X65730279Y-56760856D01*
X65705029Y-56854407D01*
X65681950Y-56941001D01*
X65661665Y-57018380D01*
X65644801Y-57084288D01*
X65631981Y-57136470D01*
X65623832Y-57172669D01*
X65620976Y-57190628D01*
X65231789Y-57190628D01*
X65230905Y-57187099D01*
X65233583Y-57166542D01*
X65240934Y-57137058D01*
X65250724Y-57106093D01*
X65260723Y-57081097D01*
X65268698Y-57069519D01*
X65270110Y-57069173D01*
X65289137Y-57070591D01*
X65321721Y-57077165D01*
X65361704Y-57087692D01*
X65367067Y-57089251D01*
X65407807Y-57101085D01*
X65441247Y-57110783D01*
X65460595Y-57116376D01*
X65470629Y-57121616D01*
X65479623Y-57137419D01*
X65482742Y-57145850D01*
X65499096Y-57152997D01*
X65501422Y-57152848D01*
X65513699Y-57145127D01*
X65524965Y-57123085D01*
X65537191Y-57083109D01*
X65546861Y-57047730D01*
X65556265Y-57015143D01*
X65562340Y-56996214D01*
X65563364Y-56988962D01*
X65554772Y-56974955D01*
X65538608Y-56969194D01*
X65524562Y-56976686D01*
X65523040Y-56978193D01*
X65505502Y-56980007D01*
X65469519Y-56974060D01*
X65414208Y-56960220D01*
X65385771Y-56952381D01*
X65346485Y-56941277D01*
X65318794Y-56933094D01*
X65307400Y-56929198D01*
X65306886Y-56921798D01*
X65310298Y-56899163D01*
X65316742Y-56868480D01*
X65324532Y-56836989D01*
X65331978Y-56811932D01*
X65337394Y-56800547D01*
X65339570Y-56799874D01*
X65359470Y-56801692D01*
X65392511Y-56809660D01*
X65433122Y-56821895D01*
X65475736Y-56836512D01*
X65514781Y-56851627D01*
X65544691Y-56865357D01*
X65559894Y-56875817D01*
X65570300Y-56887364D01*
X65580494Y-56889035D01*
X65590533Y-56876312D01*
X65602087Y-56846927D01*
X65616829Y-56798613D01*
X65624550Y-56771528D01*
X65632301Y-56740865D01*
X65634093Y-56723150D01*
X65630129Y-56713492D01*
X65620611Y-56706997D01*
X65607085Y-56702106D01*
X65596692Y-56709367D01*
X65594177Y-56712406D01*
X65578900Y-56714270D01*
X65548163Y-56709328D01*
X65499476Y-56697271D01*
X65490584Y-56694885D01*
X65441336Y-56681428D01*
X65409417Y-56670644D01*
X65391740Y-56659542D01*
X65385216Y-56645132D01*
X65386757Y-56624423D01*
X65393274Y-56594423D01*
X65399801Y-56567912D01*
X65407575Y-56542885D01*
X65412956Y-56533219D01*
X65414722Y-56533275D01*
X65437261Y-56537303D01*
X65471048Y-56546409D01*
X65510719Y-56558763D01*
X65550911Y-56572538D01*
X65586260Y-56585907D01*
X65611403Y-56597041D01*
X65620976Y-56604112D01*
X65624999Y-56613018D01*
X65642587Y-56623321D01*
X65656303Y-56623738D01*
X65666691Y-56612257D01*
X65675975Y-56583814D01*
X65677369Y-56578495D01*
X65688684Y-56536616D01*
X65699682Y-56497532D01*
X65704706Y-56471117D01*
X65702064Y-56446761D01*
X65690808Y-56436521D01*
X65672704Y-56443911D01*
X65662418Y-56447203D01*
X65635435Y-56446374D01*
X65598753Y-56440281D01*
X65557565Y-56430382D01*
X65517066Y-56418133D01*
X65482450Y-56404994D01*
X65458911Y-56392421D01*
X65451644Y-56381873D01*
X65453217Y-56376256D01*
X65460182Y-56350355D01*
X65468812Y-56317395D01*
X65474306Y-56297090D01*
X65482558Y-56278933D01*
X65495582Y-56273967D01*
X65519535Y-56277327D01*
X65523321Y-56278051D01*
X65570885Y-56289087D01*
X65617527Y-56302944D01*
X65658160Y-56317779D01*
X65687698Y-56331753D01*
X65701055Y-56343025D01*
X65702706Y-56346986D01*
X65714821Y-56360337D01*
X65728951Y-56352928D01*
X65744444Y-56325460D01*
X65760653Y-56278635D01*
X65763790Y-56267812D01*
X65775965Y-56224120D01*
X65781845Y-56196707D01*
X65781492Y-56181799D01*
X65774966Y-56175621D01*
X65762329Y-56174401D01*
X65749699Y-56176233D01*
X65740582Y-56184190D01*
X65738223Y-56185419D01*
X65720509Y-56183953D01*
X65689927Y-56178217D01*
X65651830Y-56169544D01*
X65611576Y-56159268D01*
X65574519Y-56148719D01*
X65546016Y-56139232D01*
X65531422Y-56132139D01*
X65529735Y-56122198D01*
X65532998Y-56096494D01*
X65541242Y-56062032D01*
X65551028Y-56031653D01*
X65562695Y-56009226D01*
X65573959Y-56005094D01*
X65577928Y-56006449D01*
X65600949Y-56013251D01*
X65637026Y-56023245D01*
X65680279Y-56034788D01*
X65709793Y-56042907D01*
X65747201Y-56055527D01*
X65768513Y-56067251D01*
X65777172Y-56079673D01*
X65777500Y-56080884D01*
X65786956Y-56096219D01*
X65799782Y-56092137D01*
X65814225Y-56070259D01*
X65828529Y-56032205D01*
X65834189Y-56013214D01*
X65846914Y-55968767D01*
X65853636Y-55939936D01*
X65854771Y-55922884D01*
X65850738Y-55913774D01*
X65841952Y-55908770D01*
X65831292Y-55907015D01*
X65816088Y-55914424D01*
X65812555Y-55917493D01*
X65795985Y-55919310D01*
X65764712Y-55914457D01*
X65715855Y-55902593D01*
X65712900Y-55901812D01*
X65662278Y-55888266D01*
X65629295Y-55877689D01*
X65610813Y-55867285D01*
X65603695Y-55854257D01*
X65604801Y-55835808D01*
X65610993Y-55809140D01*
X65615877Y-55790399D01*
X65624787Y-55762032D01*
X65631658Y-55747119D01*
X65638139Y-55745195D01*
X65661622Y-55747310D01*
X65696374Y-55754558D01*
X65736969Y-55765332D01*
X65777985Y-55778028D01*
X65813997Y-55791038D01*
X65839582Y-55802756D01*
X65849315Y-55811576D01*
X65852884Y-55819933D01*
X65869852Y-55826455D01*
X65874730Y-55826024D01*
X65888913Y-55815189D01*
X65897834Y-55786763D01*
X65908227Y-55756139D01*
X65932751Y-55720423D01*
X65964543Y-55694870D01*
X65998060Y-55685103D01*
X66007718Y-55686075D01*
X66038523Y-55692003D01*
X66083311Y-55702416D01*
X66137707Y-55716273D01*
X66197334Y-55732533D01*
X66232800Y-55742508D01*
X66288465Y-55758123D01*
X66335556Y-55771281D01*
X66369955Y-55780832D01*
X66387543Y-55785627D01*
X66394407Y-55787475D01*
X66421099Y-55794778D01*
X66464494Y-55806712D01*
X66521928Y-55822541D01*
X66590734Y-55841531D01*
X66668246Y-55862946D01*
X66751798Y-55886052D01*
X66770132Y-55891127D01*
X66868392Y-55918543D01*
X66947948Y-55941428D01*
X67010774Y-55960716D01*
X67058844Y-55977343D01*
X67094134Y-55992243D01*
X67118618Y-56006349D01*
X67134269Y-56020597D01*
X67143063Y-56035920D01*
X67146974Y-56053253D01*
X67147976Y-56073530D01*
X67147983Y-56074648D01*
X67145568Y-56113594D01*
X67139497Y-56149936D01*
X67135315Y-56170435D01*
X67138228Y-56182591D01*
X67152340Y-56185274D01*
X67165250Y-56183632D01*
X67177668Y-56175966D01*
X67182904Y-56174547D01*
X67205181Y-56177103D01*
X67240616Y-56184633D01*
X67284589Y-56196260D01*
X67326541Y-56208387D01*
X67360541Y-56220371D01*
X67379067Y-56233342D01*
X67384996Y-56251420D01*
X67381207Y-56278726D01*
X67370578Y-56319380D01*
X67367334Y-56330391D01*
X67356481Y-56352023D01*
X67343480Y-56354964D01*
X67339193Y-56353497D01*
X67315562Y-56346488D01*
X67278993Y-56336332D01*
X67235411Y-56324690D01*
X67216946Y-56319584D01*
X67179202Y-56307240D01*
X67153029Y-56295917D01*
X67143236Y-56287551D01*
X67143208Y-56286728D01*
X67134763Y-56273255D01*
X67118758Y-56266277D01*
X67106119Y-56270741D01*
X67105563Y-56271817D01*
X67099538Y-56288783D01*
X67089979Y-56319914D01*
X67078687Y-56359391D01*
X67074955Y-56373332D01*
X67065904Y-56417949D01*
X67066751Y-56444095D01*
X67077690Y-56452583D01*
X67098916Y-56444226D01*
X67102993Y-56442361D01*
X67124181Y-56441084D01*
X67159916Y-56447277D01*
X67212974Y-56461356D01*
X67235520Y-56467995D01*
X67274657Y-56480074D01*
X67302772Y-56489506D01*
X67314907Y-56494673D01*
X67315490Y-56495799D01*
X67314732Y-56511623D01*
X67309310Y-56538853D01*
X67301184Y-56569845D01*
X67292316Y-56596957D01*
X67284665Y-56612546D01*
X67278120Y-56614380D01*
X67254644Y-56612036D01*
X67219917Y-56604594D01*
X67179357Y-56593673D01*
X67138380Y-56580890D01*
X67102404Y-56567864D01*
X67076846Y-56556213D01*
X67067123Y-56547556D01*
X67063991Y-56539793D01*
X67047591Y-56533219D01*
X67034743Y-56542713D01*
X67021163Y-56567449D01*
X67008482Y-56601573D01*
X66998283Y-56639233D01*
X66992150Y-56674575D01*
X66991669Y-56701745D01*
X66998422Y-56714891D01*
X67007394Y-56716430D01*
X67022473Y-56709064D01*
X67028942Y-56706158D01*
X67052417Y-56706886D01*
X67087283Y-56712882D01*
X67128073Y-56722639D01*
X67169318Y-56734655D01*
X67205549Y-56747424D01*
X67231298Y-56759443D01*
X67241096Y-56769206D01*
X67240605Y-56780385D01*
X67234712Y-56814443D01*
X67224139Y-56847026D01*
X67211406Y-56871442D01*
X67199030Y-56880996D01*
X67181825Y-56879316D01*
X67147813Y-56872296D01*
X67107805Y-56861433D01*
X67067233Y-56848498D01*
X67031528Y-56835261D01*
X67006123Y-56823493D01*
X66996447Y-56814964D01*
X66993865Y-56806795D01*
X66978079Y-56796375D01*
X66972782Y-56796307D01*
X66961857Y-56804600D01*
X66950681Y-56827380D01*
X66937304Y-56868075D01*
X66929282Y-56895213D01*
X66919013Y-56933998D01*
X66916582Y-56957626D01*
X66923013Y-56969833D01*
X66939326Y-56974352D01*
X66966545Y-56974918D01*
X67002188Y-56977946D01*
X67049219Y-56986542D01*
X67096155Y-56998790D01*
X67174116Y-57022920D01*
X67156873Y-57085240D01*
X67149026Y-57113280D01*
X67141584Y-57139077D01*
X67138129Y-57149958D01*
X67133073Y-57149413D01*
X67111005Y-57144480D01*
X67075544Y-57135611D01*
X67031199Y-57123903D01*
X67015612Y-57119596D01*
X66966701Y-57104186D01*
X66936253Y-57091026D01*
X66925771Y-57080731D01*
X66925380Y-57074780D01*
X66921223Y-57066010D01*
X66917521Y-57065368D01*
X66900840Y-57059934D01*
X66899095Y-57059628D01*
X66888055Y-57069131D01*
X66875820Y-57093505D01*
X66863943Y-57127105D01*
X66853977Y-57164285D01*
X66847475Y-57199401D01*
X66845990Y-57226807D01*
X66851074Y-57240858D01*
X66859123Y-57243640D01*
X66878580Y-57238540D01*
X66881930Y-57236712D01*
X66902711Y-57235752D01*
X66940182Y-57242432D01*
X66996072Y-57257024D01*
X67007669Y-57260343D01*
X67052734Y-57274227D01*
X67080284Y-57285164D01*
X67093408Y-57294619D01*
X67095194Y-57304057D01*
X67093747Y-57309208D01*
X67086805Y-57334976D01*
X67078225Y-57367744D01*
X67074598Y-57380566D01*
X67065594Y-57404472D01*
X67058331Y-57413955D01*
X67046321Y-57411525D01*
X67018700Y-57404701D01*
X66981369Y-57394998D01*
X66940085Y-57383937D01*
X66900605Y-57373040D01*
X66868686Y-57363829D01*
X66858641Y-57358454D01*
X66849658Y-57342546D01*
X66846258Y-57333911D01*
X66829525Y-57326969D01*
X66824498Y-57327616D01*
X66812868Y-57336763D01*
X66801991Y-57359737D01*
X66789795Y-57400364D01*
X66789729Y-57400613D01*
X66779213Y-57439332D01*
X66770441Y-57470452D01*
X66765307Y-57487259D01*
X66764786Y-57493520D01*
X66774503Y-57505364D01*
X66791310Y-57509837D01*
X66804956Y-57502897D01*
X66811615Y-57500758D01*
X66835085Y-57502447D01*
X66869933Y-57508678D01*
X66910695Y-57518052D01*
X66951909Y-57529167D01*
X66973755Y-57536080D01*
X66988112Y-57540623D01*
G37*
G36*
X64543106Y-56862030D02*
G01*
X64558904Y-56870122D01*
X64561439Y-56880695D01*
X64558968Y-56907822D01*
X64551200Y-56945047D01*
X64539120Y-56986575D01*
X64535477Y-56989581D01*
X64515565Y-56990369D01*
X64483184Y-56985219D01*
X64443498Y-56975614D01*
X64401669Y-56963033D01*
X64362861Y-56948960D01*
X64332235Y-56934874D01*
X64314955Y-56922257D01*
X64310221Y-56916664D01*
X64292469Y-56906276D01*
X64278480Y-56917215D01*
X64268431Y-56949377D01*
X64258798Y-56981935D01*
X64235092Y-57020883D01*
X64203567Y-57044355D01*
X64202378Y-57044841D01*
X64194300Y-57048279D01*
X64186733Y-57050937D01*
X64177888Y-57052394D01*
X64165977Y-57052229D01*
X64149211Y-57050020D01*
X64125803Y-57045347D01*
X64093963Y-57037787D01*
X64051904Y-57026920D01*
X63997837Y-57012324D01*
X63929974Y-56993578D01*
X63846528Y-56970260D01*
X63745708Y-56941950D01*
X63625728Y-56908226D01*
X63588522Y-56897811D01*
X63522605Y-56879462D01*
X63447110Y-56858536D01*
X63368714Y-56836884D01*
X63294092Y-56816354D01*
X63262766Y-56807752D01*
X63192199Y-56788224D01*
X63138844Y-56772895D01*
X63099961Y-56760630D01*
X63072815Y-56750294D01*
X63054667Y-56740752D01*
X63042781Y-56730869D01*
X63034418Y-56719510D01*
X63026843Y-56705540D01*
X63025519Y-56702949D01*
X63015779Y-56677866D01*
X63014531Y-56652270D01*
X63021135Y-56616161D01*
X63027329Y-56584461D01*
X63027396Y-56563850D01*
X63020159Y-56553667D01*
X63012618Y-56551080D01*
X62993573Y-56556214D01*
X62992372Y-56557044D01*
X62973190Y-56559280D01*
X62936220Y-56553537D01*
X62880309Y-56539646D01*
X62854720Y-56532524D01*
X62815375Y-56521075D01*
X62787361Y-56512263D01*
X62778656Y-56508812D01*
X63174486Y-56508812D01*
X63176794Y-56538394D01*
X63194889Y-56596344D01*
X63228256Y-56645649D01*
X63273651Y-56680683D01*
X63276737Y-56682062D01*
X63299830Y-56690186D01*
X63340164Y-56702942D01*
X63394852Y-56719470D01*
X63461009Y-56738906D01*
X63535749Y-56760389D01*
X63616185Y-56783055D01*
X63642379Y-56790366D01*
X63720379Y-56812162D01*
X63791206Y-56831992D01*
X63852104Y-56849080D01*
X63900317Y-56862654D01*
X63933092Y-56871939D01*
X63947673Y-56876162D01*
X63958335Y-56876871D01*
X63976045Y-56867980D01*
X63986248Y-56852176D01*
X63982519Y-56836731D01*
X63978743Y-56834718D01*
X63956675Y-56826682D01*
X63917527Y-56814061D01*
X63863916Y-56797649D01*
X63798460Y-56778241D01*
X63723774Y-56756628D01*
X63642476Y-56733606D01*
X63603818Y-56722736D01*
X63524440Y-56700179D01*
X63452414Y-56679397D01*
X63390460Y-56661192D01*
X63341301Y-56646371D01*
X63307659Y-56635737D01*
X63292254Y-56630095D01*
X63281138Y-56622480D01*
X63255332Y-56591915D01*
X63236321Y-56552093D01*
X63228893Y-56511942D01*
X63230863Y-56499111D01*
X63238204Y-56466098D01*
X63250488Y-56415781D01*
X63267194Y-56350144D01*
X63287805Y-56271172D01*
X63311800Y-56180848D01*
X63338663Y-56081158D01*
X63367873Y-55974084D01*
X63398912Y-55861612D01*
X63427015Y-55760224D01*
X63459545Y-55642262D01*
X63486704Y-55542647D01*
X63508802Y-55459905D01*
X63526147Y-55392562D01*
X63539048Y-55339143D01*
X63547813Y-55298173D01*
X63552751Y-55268178D01*
X63554171Y-55247684D01*
X63552381Y-55235215D01*
X63547690Y-55229297D01*
X63540406Y-55228456D01*
X63530838Y-55231217D01*
X63530726Y-55231268D01*
X63524055Y-55243611D01*
X63512315Y-55275570D01*
X63495933Y-55325761D01*
X63475333Y-55392801D01*
X63450940Y-55475306D01*
X63423180Y-55571895D01*
X63392478Y-55681184D01*
X63385653Y-55705724D01*
X63357044Y-55808531D01*
X63328590Y-55910704D01*
X63301236Y-56008856D01*
X63275926Y-56099600D01*
X63253604Y-56179550D01*
X63235215Y-56245321D01*
X63221703Y-56293524D01*
X63212967Y-56325433D01*
X63197744Y-56385378D01*
X63185539Y-56439189D01*
X63177429Y-56481966D01*
X63174486Y-56508812D01*
X62778656Y-56508812D01*
X62775520Y-56507569D01*
X62774931Y-56498584D01*
X62779539Y-56475107D01*
X62787972Y-56444539D01*
X62798055Y-56413950D01*
X62807611Y-56390411D01*
X62814466Y-56380993D01*
X62820915Y-56382022D01*
X62844079Y-56387645D01*
X62876216Y-56396532D01*
X62891004Y-56400775D01*
X62936071Y-56413368D01*
X62976049Y-56424134D01*
X62985225Y-56426775D01*
X63012214Y-56438940D01*
X63022260Y-56452089D01*
X63025624Y-56460873D01*
X63042301Y-56467979D01*
X63050832Y-56465721D01*
X63061548Y-56453274D01*
X63072587Y-56426711D01*
X63085794Y-56382403D01*
X63089161Y-56370046D01*
X63099399Y-56331482D01*
X63106555Y-56302979D01*
X63109247Y-56289981D01*
X63107105Y-56286180D01*
X63092881Y-56283132D01*
X63074749Y-56285945D01*
X63063941Y-56293699D01*
X63061173Y-56294739D01*
X63042471Y-56293257D01*
X63010832Y-56287762D01*
X62971712Y-56279512D01*
X62930566Y-56269768D01*
X62892846Y-56259789D01*
X62864008Y-56250836D01*
X62849506Y-56244168D01*
X62848882Y-56242663D01*
X62850412Y-56226437D01*
X62856511Y-56199218D01*
X62865116Y-56168537D01*
X62874166Y-56141929D01*
X62881599Y-56126926D01*
X62882404Y-56126220D01*
X62899402Y-56124218D01*
X62930380Y-56128563D01*
X62969781Y-56137661D01*
X63012051Y-56149919D01*
X63051632Y-56163742D01*
X63082968Y-56177539D01*
X63100505Y-56189714D01*
X63112231Y-56201520D01*
X63123961Y-56203606D01*
X63134984Y-56190806D01*
X63146985Y-56160979D01*
X63161646Y-56111985D01*
X63167744Y-56089188D01*
X63175131Y-56052018D01*
X63173494Y-56031205D01*
X63162165Y-56024100D01*
X63140477Y-56028052D01*
X63132990Y-56028874D01*
X63105594Y-56026274D01*
X63067132Y-56019258D01*
X63024035Y-56009370D01*
X62982737Y-55998150D01*
X62949667Y-55987142D01*
X62931260Y-55977887D01*
X62929787Y-55975241D01*
X62929058Y-55956216D01*
X62932863Y-55926809D01*
X62939646Y-55894822D01*
X62947850Y-55868058D01*
X62955916Y-55854321D01*
X62960450Y-55853983D01*
X62982421Y-55857444D01*
X63017569Y-55865410D01*
X63060838Y-55876798D01*
X63106674Y-55890892D01*
X63152268Y-55909734D01*
X63176461Y-55927568D01*
X63191069Y-55941801D01*
X63202050Y-55943869D01*
X63203464Y-55941714D01*
X63211008Y-55923003D01*
X63221775Y-55890445D01*
X63233928Y-55849483D01*
X63238511Y-55833081D01*
X63248106Y-55795751D01*
X63251613Y-55773360D01*
X63249397Y-55761561D01*
X63241828Y-55756004D01*
X63232649Y-55754530D01*
X63217203Y-55762472D01*
X63204360Y-55766298D01*
X63176895Y-55763942D01*
X63140070Y-55756647D01*
X63099008Y-55745897D01*
X63058833Y-55733176D01*
X63024669Y-55719970D01*
X63001639Y-55707763D01*
X62994867Y-55698040D01*
X62996755Y-55692599D01*
X63004208Y-55667425D01*
X63012874Y-55634773D01*
X63016913Y-55620886D01*
X63027374Y-55596884D01*
X63037143Y-55587508D01*
X63049516Y-55588885D01*
X63081149Y-55596011D01*
X63120685Y-55607456D01*
X63162337Y-55621255D01*
X63200317Y-55635443D01*
X63228835Y-55648053D01*
X63242105Y-55657120D01*
X63244475Y-55661049D01*
X63259940Y-55673324D01*
X63276043Y-55665033D01*
X63292181Y-55637158D01*
X63307752Y-55590681D01*
X63322153Y-55526586D01*
X63323376Y-55518273D01*
X63320656Y-55494541D01*
X63307942Y-55487591D01*
X63288112Y-55499697D01*
X63287286Y-55500238D01*
X63271116Y-55500581D01*
X63240712Y-55495999D01*
X63201765Y-55487879D01*
X63159964Y-55477603D01*
X63120999Y-55466557D01*
X63090560Y-55456124D01*
X63074336Y-55447688D01*
X63071803Y-55441782D01*
X63073203Y-55419659D01*
X63080973Y-55389752D01*
X63092554Y-55359356D01*
X63105386Y-55335768D01*
X63116911Y-55326284D01*
X63121300Y-55326419D01*
X63152207Y-55331125D01*
X63191748Y-55341086D01*
X63233953Y-55354298D01*
X63272850Y-55368758D01*
X63302471Y-55382460D01*
X63316843Y-55393400D01*
X63321414Y-55401088D01*
X63335448Y-55412841D01*
X63349351Y-55404984D01*
X63363774Y-55376831D01*
X63379373Y-55327695D01*
X63382689Y-55315512D01*
X63392951Y-55276650D01*
X63400126Y-55247654D01*
X63402825Y-55234062D01*
X63402636Y-55233268D01*
X63391079Y-55230305D01*
X63367112Y-55232704D01*
X63355570Y-55233243D01*
X63323962Y-55229973D01*
X63282708Y-55222660D01*
X63238041Y-55212739D01*
X63196193Y-55201649D01*
X63163399Y-55190825D01*
X63145889Y-55181705D01*
X63145382Y-55173100D01*
X63149712Y-55148664D01*
X63158434Y-55114977D01*
X63160292Y-55108681D01*
X63171824Y-55075940D01*
X63182423Y-55060488D01*
X63194416Y-55058684D01*
X63198388Y-55059804D01*
X63222285Y-55066514D01*
X63258961Y-55076791D01*
X63302247Y-55088908D01*
X63318788Y-55093752D01*
X63356205Y-55106546D01*
X63382208Y-55118160D01*
X63391952Y-55126559D01*
X63393971Y-55133305D01*
X63408610Y-55145504D01*
X63415249Y-55145947D01*
X63430044Y-55134231D01*
X63441634Y-55110141D01*
X63446318Y-55080091D01*
X63447058Y-55074578D01*
X63460155Y-55051150D01*
X63484285Y-55026853D01*
X63512470Y-55007795D01*
X63537730Y-55000086D01*
X63552796Y-55002153D01*
X63586598Y-55009392D01*
X63633940Y-55020900D01*
X63690838Y-55035706D01*
X63753314Y-55052833D01*
X63767960Y-55056944D01*
X63832071Y-55074886D01*
X63911328Y-55097002D01*
X64001189Y-55122028D01*
X64097116Y-55148702D01*
X64194566Y-55175758D01*
X64288998Y-55201933D01*
X64325266Y-55211994D01*
X64415488Y-55237263D01*
X64487705Y-55257993D01*
X64544155Y-55274937D01*
X64587074Y-55288844D01*
X64618701Y-55300465D01*
X64641272Y-55310550D01*
X64657027Y-55319850D01*
X64668201Y-55329115D01*
X64687778Y-55351559D01*
X64695282Y-55373685D01*
X64693359Y-55405635D01*
X64692221Y-55413701D01*
X64685971Y-55449555D01*
X64679464Y-55477315D01*
X64678775Y-55479631D01*
X64676067Y-55495341D01*
X64684474Y-55499814D01*
X64709047Y-55496290D01*
X64720069Y-55495631D01*
X64751960Y-55498576D01*
X64793582Y-55505697D01*
X64838683Y-55515564D01*
X64881005Y-55526747D01*
X64914296Y-55537815D01*
X64932299Y-55547338D01*
X64932950Y-55556205D01*
X64928728Y-55580885D01*
X64920030Y-55614725D01*
X64917653Y-55622750D01*
X64906259Y-55654735D01*
X64895733Y-55669688D01*
X64883686Y-55671329D01*
X64879701Y-55670222D01*
X64855696Y-55663561D01*
X64818922Y-55653359D01*
X64775578Y-55641335D01*
X64760893Y-55637092D01*
X64722219Y-55623990D01*
X64695710Y-55611988D01*
X64685873Y-55603011D01*
X64685821Y-55601888D01*
X64677279Y-55588360D01*
X64661503Y-55581033D01*
X64649141Y-55585101D01*
X64644770Y-55596869D01*
X64636616Y-55624234D01*
X64626839Y-55660389D01*
X64618105Y-55693264D01*
X64609178Y-55725057D01*
X64603492Y-55743153D01*
X64602730Y-55750256D01*
X64612185Y-55762981D01*
X64628869Y-55767877D01*
X64642802Y-55760532D01*
X64649010Y-55758321D01*
X64672071Y-55759805D01*
X64706617Y-55766027D01*
X64747168Y-55775543D01*
X64788246Y-55786909D01*
X64824371Y-55798684D01*
X64850064Y-55809425D01*
X64859846Y-55817688D01*
X64858246Y-55832040D01*
X64851853Y-55860578D01*
X64842778Y-55891817D01*
X64833410Y-55917763D01*
X64826140Y-55930423D01*
X64822011Y-55931507D01*
X64800680Y-55930213D01*
X64770392Y-55923981D01*
X64741516Y-55916346D01*
X64686514Y-55901142D01*
X64648676Y-55889279D01*
X64625164Y-55879677D01*
X64613138Y-55871258D01*
X64609760Y-55862943D01*
X64607171Y-55854721D01*
X64591896Y-55850123D01*
X64580948Y-55859519D01*
X64567560Y-55884134D01*
X64554585Y-55918016D01*
X64543698Y-55955335D01*
X64536575Y-55990258D01*
X64534893Y-56016955D01*
X64540325Y-56029592D01*
X64548381Y-56031075D01*
X64569124Y-56024703D01*
X64570565Y-56023896D01*
X64589847Y-56023138D01*
X64624695Y-56028387D01*
X64670857Y-56038711D01*
X64724078Y-56053180D01*
X64780104Y-56070863D01*
X64785515Y-56077891D01*
X64784297Y-56098704D01*
X64774668Y-56136192D01*
X64765880Y-56162972D01*
X64755439Y-56188042D01*
X64748046Y-56198039D01*
X64747106Y-56198104D01*
X64726408Y-56195638D01*
X64693782Y-56188188D01*
X64654736Y-56177449D01*
X64614779Y-56165114D01*
X64579419Y-56152877D01*
X64554163Y-56142431D01*
X64544521Y-56135469D01*
X64544127Y-56132244D01*
X64533146Y-56119035D01*
X64515201Y-56113480D01*
X64501288Y-56119612D01*
X64500926Y-56120251D01*
X64494559Y-56137360D01*
X64485058Y-56168718D01*
X64474339Y-56208045D01*
X64465820Y-56242695D01*
X64460976Y-56270582D01*
X64462179Y-56286265D01*
X64469146Y-56294463D01*
X64477060Y-56297484D01*
X64497324Y-56292569D01*
X64499484Y-56291214D01*
X64519065Y-56289324D01*
X64555378Y-56295067D01*
X64610141Y-56308690D01*
X64635137Y-56315623D01*
X64674372Y-56326978D01*
X64702282Y-56335687D01*
X64714021Y-56340277D01*
X64714178Y-56345578D01*
X64710261Y-56366381D01*
X64702966Y-56396076D01*
X64694235Y-56427427D01*
X64686009Y-56453202D01*
X64680230Y-56466165D01*
X64674909Y-56465965D01*
X64652483Y-56461293D01*
X64616846Y-56452339D01*
X64572612Y-56440216D01*
X64557310Y-56435772D01*
X64509024Y-56419832D01*
X64478838Y-56406279D01*
X64468408Y-56395819D01*
X64464489Y-56387280D01*
X64447080Y-56380993D01*
X64438089Y-56382577D01*
X64424702Y-56396161D01*
X64413849Y-56427205D01*
X64411834Y-56434929D01*
X64400987Y-56474445D01*
X64390910Y-56508542D01*
X64390193Y-56510894D01*
X64385043Y-56537615D01*
X64386727Y-56554753D01*
X64396197Y-56562862D01*
X64414403Y-56564856D01*
X64426727Y-56554980D01*
X64429491Y-56553910D01*
X64448183Y-56555325D01*
X64479802Y-56560752D01*
X64518887Y-56568937D01*
X64559978Y-56578624D01*
X64597612Y-56588557D01*
X64626329Y-56597483D01*
X64640668Y-56604146D01*
X64640438Y-56612218D01*
X64635411Y-56636081D01*
X64626416Y-56669556D01*
X64624623Y-56675710D01*
X64614578Y-56707347D01*
X64605656Y-56723100D01*
X64593700Y-56727385D01*
X64574552Y-56724615D01*
X64568617Y-56723405D01*
X64516650Y-56711002D01*
X64468719Y-56696658D01*
X64429138Y-56681955D01*
X64402225Y-56668475D01*
X64392295Y-56657802D01*
X64389173Y-56649220D01*
X64372822Y-56641952D01*
X64369246Y-56642324D01*
X64357341Y-56651109D01*
X64346036Y-56674260D01*
X64333414Y-56715347D01*
X64322757Y-56754490D01*
X64313597Y-56787968D01*
X64308125Y-56807770D01*
X64308575Y-56821693D01*
X64325145Y-56826798D01*
X64338919Y-56825088D01*
X64353439Y-56817217D01*
X64354088Y-56816661D01*
X64368760Y-56816620D01*
X64397644Y-56821547D01*
X64435131Y-56829995D01*
X64475610Y-56840521D01*
X64513472Y-56851681D01*
X64514889Y-56852176D01*
X64543106Y-56862030D01*
G37*
G36*
X62082362Y-56175794D02*
G01*
X62102045Y-56185837D01*
X62103528Y-56188451D01*
X62104362Y-56207572D01*
X62100491Y-56237100D01*
X62093512Y-56269234D01*
X62085022Y-56296172D01*
X62076616Y-56310112D01*
X62075642Y-56310553D01*
X62057852Y-56309865D01*
X62026217Y-56302974D01*
X61986315Y-56291685D01*
X61943729Y-56277803D01*
X61904040Y-56263133D01*
X61872829Y-56249481D01*
X61855677Y-56238651D01*
X61841716Y-56224873D01*
X61832086Y-56217894D01*
X61829103Y-56222083D01*
X61820733Y-56241762D01*
X61809934Y-56272122D01*
X61802696Y-56290642D01*
X61783906Y-56324962D01*
X61764101Y-56348235D01*
X61738089Y-56363577D01*
X61713728Y-56370120D01*
X61712696Y-56370039D01*
X61694906Y-56366272D01*
X61659030Y-56357363D01*
X61607501Y-56343985D01*
X61542755Y-56326811D01*
X61467225Y-56306513D01*
X61383345Y-56283763D01*
X61293550Y-56259234D01*
X61200274Y-56233599D01*
X61105951Y-56207530D01*
X61013016Y-56181698D01*
X60923902Y-56156778D01*
X60841044Y-56133441D01*
X60766875Y-56112360D01*
X60703831Y-56094207D01*
X60654345Y-56079654D01*
X60620851Y-56069375D01*
X60605785Y-56064042D01*
X60604912Y-56063560D01*
X60586776Y-56046527D01*
X60569487Y-56020537D01*
X60561109Y-56001313D01*
X60557692Y-55974856D01*
X60563938Y-55939931D01*
X60567981Y-55923620D01*
X60574336Y-55892110D01*
X60572820Y-55876009D01*
X60561997Y-55871282D01*
X60540432Y-55873896D01*
X60527698Y-55874282D01*
X60495848Y-55870734D01*
X60454629Y-55863391D01*
X60410219Y-55853650D01*
X60385839Y-55847327D01*
X60725398Y-55847327D01*
X60742207Y-55905950D01*
X60776998Y-55957070D01*
X60827905Y-55997982D01*
X60893066Y-56025984D01*
X60914049Y-56031935D01*
X60955259Y-56043476D01*
X61010913Y-56058974D01*
X61077480Y-56077448D01*
X61151429Y-56097916D01*
X61229226Y-56119396D01*
X61301119Y-56139115D01*
X61369355Y-56157619D01*
X61428125Y-56173334D01*
X61474557Y-56185501D01*
X61505780Y-56193359D01*
X61518923Y-56196147D01*
X61532509Y-56188296D01*
X61536761Y-56170561D01*
X61528558Y-56153795D01*
X61526757Y-56152747D01*
X61507792Y-56145577D01*
X61471359Y-56133712D01*
X61420196Y-56117984D01*
X61357043Y-56099222D01*
X61284639Y-56078257D01*
X61205724Y-56055919D01*
X61180185Y-56048770D01*
X61089388Y-56023319D01*
X61016707Y-56002768D01*
X60959881Y-55986331D01*
X60916649Y-55973220D01*
X60884750Y-55962651D01*
X60861925Y-55953836D01*
X60845912Y-55945988D01*
X60834451Y-55938322D01*
X60825280Y-55930050D01*
X60816139Y-55920387D01*
X60812065Y-55915925D01*
X60801166Y-55902311D01*
X60792943Y-55887459D01*
X60787695Y-55869580D01*
X60785722Y-55846885D01*
X60787323Y-55817586D01*
X60792798Y-55779895D01*
X60802445Y-55732023D01*
X60816565Y-55672181D01*
X60835455Y-55598582D01*
X60859417Y-55509437D01*
X60888748Y-55402957D01*
X60923748Y-55277354D01*
X60946177Y-55197073D01*
X60982000Y-55068746D01*
X61012565Y-54959034D01*
X61038264Y-54866445D01*
X61059490Y-54789489D01*
X61076635Y-54726673D01*
X61090091Y-54676505D01*
X61100250Y-54637495D01*
X61107505Y-54608149D01*
X61112248Y-54586978D01*
X61114871Y-54572489D01*
X61115767Y-54563190D01*
X61115328Y-54557590D01*
X61113947Y-54554198D01*
X61106676Y-54547545D01*
X61087329Y-54543857D01*
X61071970Y-54551911D01*
X61071556Y-54552863D01*
X61066349Y-54569305D01*
X61056144Y-54603950D01*
X61041571Y-54654533D01*
X61023262Y-54718790D01*
X61001847Y-54794458D01*
X60977958Y-54879273D01*
X60952225Y-54970971D01*
X60925279Y-55067287D01*
X60897751Y-55165959D01*
X60870272Y-55264723D01*
X60843473Y-55361313D01*
X60817985Y-55453468D01*
X60794438Y-55538922D01*
X60773465Y-55615411D01*
X60755695Y-55680673D01*
X60741759Y-55732443D01*
X60732289Y-55768457D01*
X60727915Y-55786452D01*
X60725398Y-55847327D01*
X60385839Y-55847327D01*
X60368793Y-55842906D01*
X60336527Y-55832555D01*
X60319597Y-55823992D01*
X60319382Y-55818851D01*
X60323118Y-55798166D01*
X60330213Y-55768504D01*
X60338762Y-55737127D01*
X60346859Y-55711295D01*
X60352597Y-55698268D01*
X60357877Y-55698594D01*
X60380254Y-55703348D01*
X60415897Y-55712239D01*
X60460215Y-55724164D01*
X60474564Y-55728231D01*
X60523827Y-55744087D01*
X60554399Y-55757565D01*
X60564897Y-55768083D01*
X60565299Y-55774181D01*
X60569445Y-55782962D01*
X60573147Y-55783605D01*
X60589827Y-55789039D01*
X60595974Y-55789119D01*
X60605533Y-55778489D01*
X60616192Y-55752194D01*
X60629340Y-55707368D01*
X60632989Y-55693402D01*
X60641973Y-55653752D01*
X60646759Y-55623696D01*
X60646372Y-55608868D01*
X60637096Y-55600995D01*
X60618908Y-55599122D01*
X60606578Y-55608975D01*
X60603858Y-55610017D01*
X60585233Y-55608594D01*
X60553661Y-55603188D01*
X60514611Y-55595051D01*
X60473551Y-55585431D01*
X60435950Y-55575578D01*
X60407277Y-55566742D01*
X60392999Y-55560172D01*
X60393328Y-55552572D01*
X60398397Y-55529143D01*
X60407363Y-55495989D01*
X60408473Y-55492193D01*
X60420572Y-55457304D01*
X60433864Y-55440079D01*
X60453453Y-55437151D01*
X60484443Y-55445153D01*
X60501757Y-55450501D01*
X60538283Y-55461246D01*
X60578489Y-55472640D01*
X60600331Y-55479385D01*
X60630506Y-55493031D01*
X60641010Y-55505997D01*
X60644541Y-55514965D01*
X60661435Y-55522003D01*
X60665691Y-55521601D01*
X60677554Y-55513531D01*
X60687986Y-55492007D01*
X60699196Y-55452985D01*
X60708095Y-55418661D01*
X60717252Y-55385618D01*
X60723393Y-55366090D01*
X60724473Y-55358142D01*
X60715944Y-55343816D01*
X60700068Y-55337866D01*
X60686112Y-55345427D01*
X60679377Y-55347687D01*
X60655817Y-55346011D01*
X60620909Y-55339622D01*
X60580109Y-55329962D01*
X60538871Y-55318475D01*
X60502652Y-55306604D01*
X60476908Y-55295792D01*
X60467093Y-55287483D01*
X60468227Y-55279324D01*
X60474146Y-55254026D01*
X60483439Y-55220634D01*
X60499841Y-55165403D01*
X60600327Y-55192495D01*
X60651399Y-55207766D01*
X60695745Y-55225825D01*
X60719255Y-55243033D01*
X60728300Y-55253063D01*
X60740411Y-55258177D01*
X60751309Y-55248206D01*
X60762746Y-55221055D01*
X60776474Y-55174631D01*
X60786364Y-55138976D01*
X60795229Y-55108301D01*
X60800453Y-55091792D01*
X60798970Y-55082976D01*
X60783499Y-55073345D01*
X60769783Y-55072273D01*
X60757723Y-55079442D01*
X60756995Y-55080299D01*
X60742381Y-55081248D01*
X60713565Y-55077486D01*
X60676085Y-55070275D01*
X60635478Y-55060877D01*
X60597282Y-55050552D01*
X60567033Y-55040564D01*
X60550271Y-55032174D01*
X60548026Y-55022658D01*
X60549428Y-54998411D01*
X60554161Y-54967074D01*
X60560869Y-54935831D01*
X60568195Y-54911865D01*
X60574782Y-54902361D01*
X60589959Y-54904413D01*
X60622335Y-54912317D01*
X60662639Y-54924325D01*
X60705089Y-54938482D01*
X60743900Y-54952831D01*
X60773286Y-54965417D01*
X60787464Y-54974283D01*
X60787604Y-54974472D01*
X60804551Y-54987941D01*
X60820739Y-54980726D01*
X60836489Y-54952474D01*
X60852122Y-54902832D01*
X60853136Y-54898892D01*
X60863027Y-54854543D01*
X60865362Y-54826956D01*
X60860445Y-54812859D01*
X60850850Y-54806794D01*
X60833654Y-54813280D01*
X60823703Y-54817440D01*
X60802453Y-54817121D01*
X60767836Y-54810427D01*
X60716305Y-54796862D01*
X60688171Y-54788933D01*
X60649328Y-54777856D01*
X60622175Y-54769943D01*
X60611340Y-54766532D01*
X60610803Y-54757053D01*
X60616482Y-54733723D01*
X60626400Y-54703597D01*
X60638065Y-54673558D01*
X60648988Y-54650487D01*
X60656675Y-54641267D01*
X60669165Y-54642571D01*
X60700391Y-54649647D01*
X60739660Y-54661124D01*
X60781160Y-54675013D01*
X60819075Y-54689320D01*
X60847594Y-54702055D01*
X60860901Y-54711225D01*
X60868374Y-54721634D01*
X60884681Y-54727797D01*
X60900274Y-54714189D01*
X60912955Y-54682042D01*
X60915140Y-54673636D01*
X60925621Y-54635686D01*
X60935121Y-54604306D01*
X60942227Y-54578604D01*
X60945462Y-54558095D01*
X60944187Y-54553356D01*
X60930924Y-54544849D01*
X60912412Y-54544180D01*
X60900157Y-54552715D01*
X60898077Y-54553639D01*
X60880565Y-54552142D01*
X60849893Y-54546216D01*
X60811544Y-54537263D01*
X60771002Y-54526687D01*
X60733751Y-54515889D01*
X60705276Y-54506273D01*
X60691060Y-54499240D01*
X60689440Y-54486916D01*
X60693918Y-54461969D01*
X60702648Y-54431418D01*
X60713428Y-54401982D01*
X60724057Y-54380376D01*
X60732334Y-54373318D01*
X60736901Y-54374832D01*
X60759837Y-54381536D01*
X60795851Y-54391557D01*
X60839448Y-54403356D01*
X60854506Y-54407519D01*
X60896648Y-54421081D01*
X60924517Y-54433259D01*
X60934589Y-54442600D01*
X60934914Y-54447720D01*
X60939136Y-54456421D01*
X60943550Y-54457264D01*
X60960883Y-54463021D01*
X60972621Y-54463979D01*
X60978321Y-54449430D01*
X60982822Y-54421738D01*
X61000006Y-54381922D01*
X61025346Y-54347300D01*
X61053800Y-54326105D01*
X61059746Y-54323946D01*
X61069641Y-54321914D01*
X61082654Y-54321553D01*
X61100569Y-54323282D01*
X61125166Y-54327522D01*
X61158229Y-54334691D01*
X61201540Y-54345210D01*
X61256880Y-54359497D01*
X61326032Y-54377972D01*
X61410778Y-54401055D01*
X61512900Y-54429165D01*
X61634180Y-54462722D01*
X61692988Y-54479014D01*
X61812919Y-54512318D01*
X61914135Y-54540751D01*
X61998189Y-54564990D01*
X62066632Y-54585715D01*
X62121016Y-54603605D01*
X62162893Y-54619339D01*
X62193814Y-54633596D01*
X62215330Y-54647055D01*
X62228995Y-54660394D01*
X62236358Y-54674294D01*
X62238973Y-54689432D01*
X62238390Y-54706488D01*
X62236162Y-54726141D01*
X62234195Y-54741021D01*
X62228607Y-54773678D01*
X62223221Y-54794808D01*
X62222070Y-54803084D01*
X62230938Y-54817162D01*
X62247444Y-54822292D01*
X62262024Y-54813794D01*
X62268493Y-54809565D01*
X62287116Y-54809435D01*
X62320045Y-54815885D01*
X62370340Y-54829356D01*
X62396081Y-54836835D01*
X62435587Y-54848893D01*
X62463882Y-54858298D01*
X62476092Y-54863478D01*
X62476673Y-54864555D01*
X62476054Y-54880331D01*
X62470734Y-54907572D01*
X62462660Y-54938625D01*
X62453781Y-54965839D01*
X62446043Y-54981562D01*
X62439582Y-54983493D01*
X62416134Y-54981375D01*
X62381409Y-54974123D01*
X62340832Y-54963344D01*
X62299829Y-54950645D01*
X62263824Y-54937634D01*
X62238243Y-54925918D01*
X62228510Y-54917105D01*
X62225547Y-54909173D01*
X62209395Y-54902226D01*
X62209288Y-54902227D01*
X62196882Y-54911937D01*
X62183520Y-54936780D01*
X62170822Y-54970916D01*
X62160408Y-55008507D01*
X62153898Y-55043713D01*
X62152912Y-55070695D01*
X62159070Y-55083614D01*
X62167653Y-55085033D01*
X62188205Y-55078065D01*
X62192263Y-55075835D01*
X62212128Y-55074613D01*
X62247019Y-55080708D01*
X62299518Y-55094500D01*
X62322951Y-55101278D01*
X62361952Y-55112964D01*
X62389766Y-55121850D01*
X62401516Y-55126409D01*
X62402055Y-55133698D01*
X62398706Y-55157124D01*
X62391624Y-55190307D01*
X62390929Y-55193186D01*
X62380049Y-55229026D01*
X62366283Y-55246664D01*
X62344348Y-55249274D01*
X62308964Y-55240035D01*
X62291710Y-55234706D01*
X62255199Y-55223964D01*
X62215011Y-55212575D01*
X62187375Y-55203511D01*
X62163369Y-55192008D01*
X62155208Y-55182582D01*
X62153841Y-55175339D01*
X62139466Y-55165879D01*
X62133690Y-55165724D01*
X62122958Y-55173976D01*
X62111955Y-55196603D01*
X62098691Y-55237082D01*
X62098139Y-55238940D01*
X62087108Y-55278563D01*
X62079268Y-55311282D01*
X62076284Y-55330175D01*
X62082594Y-55343509D01*
X62098679Y-55347857D01*
X62113619Y-55338326D01*
X62117269Y-55337477D01*
X62137352Y-55339852D01*
X62170028Y-55346392D01*
X62209858Y-55355722D01*
X62251403Y-55366469D01*
X62289225Y-55377259D01*
X62317884Y-55386717D01*
X62331941Y-55393471D01*
X62332743Y-55405051D01*
X62327495Y-55429503D01*
X62318199Y-55459829D01*
X62307165Y-55489279D01*
X62296703Y-55511108D01*
X62289122Y-55518566D01*
X62284624Y-55517130D01*
X62261809Y-55510643D01*
X62225872Y-55500867D01*
X62182299Y-55489305D01*
X62175410Y-55487474D01*
X62127643Y-55472951D01*
X62097594Y-55460091D01*
X62087158Y-55449680D01*
X62086771Y-55443783D01*
X62082610Y-55435017D01*
X62078908Y-55434375D01*
X62062227Y-55428941D01*
X62060482Y-55428634D01*
X62049442Y-55438138D01*
X62037207Y-55462512D01*
X62025330Y-55496112D01*
X62015364Y-55533292D01*
X62008862Y-55568408D01*
X62007377Y-55595814D01*
X62012461Y-55609865D01*
X62020616Y-55612648D01*
X62040085Y-55607448D01*
X62043426Y-55605583D01*
X62063696Y-55604449D01*
X62100094Y-55610927D01*
X62154619Y-55625331D01*
X62181444Y-55633126D01*
X62220394Y-55644792D01*
X62247834Y-55653470D01*
X62259055Y-55657702D01*
X62259167Y-55666405D01*
X62254038Y-55689538D01*
X62245257Y-55719820D01*
X62235059Y-55750192D01*
X62225683Y-55773593D01*
X62219365Y-55782962D01*
X62206800Y-55780368D01*
X62178922Y-55773435D01*
X62141544Y-55763688D01*
X62100433Y-55752655D01*
X62061354Y-55741861D01*
X62030073Y-55732835D01*
X62020028Y-55727461D01*
X62011045Y-55711553D01*
X62007684Y-55702945D01*
X61991004Y-55695976D01*
X61982472Y-55698234D01*
X61971757Y-55710682D01*
X61960718Y-55737244D01*
X61947511Y-55781552D01*
X61944144Y-55793909D01*
X61933906Y-55832474D01*
X61926750Y-55860976D01*
X61924058Y-55873975D01*
X61926082Y-55877588D01*
X61940234Y-55880773D01*
X61958442Y-55878276D01*
X61969364Y-55870875D01*
X61972247Y-55869928D01*
X61991142Y-55871573D01*
X62022922Y-55877092D01*
X62062112Y-55885244D01*
X62103237Y-55894789D01*
X62140821Y-55904487D01*
X62169390Y-55913096D01*
X62183468Y-55919378D01*
X62184732Y-55923767D01*
X62182161Y-55943979D01*
X62174637Y-55973176D01*
X62164479Y-56003943D01*
X62154009Y-56028866D01*
X62145547Y-56040532D01*
X62136298Y-56041756D01*
X62107332Y-56038326D01*
X62068073Y-56029210D01*
X62024754Y-56016342D01*
X61983612Y-56001655D01*
X61950882Y-55987084D01*
X61932800Y-55974560D01*
X61925929Y-55966785D01*
X61912851Y-55959556D01*
X61901307Y-55967769D01*
X61889522Y-55993416D01*
X61875717Y-56038485D01*
X61867179Y-56069089D01*
X61857615Y-56103076D01*
X61851523Y-56124360D01*
X61849575Y-56136293D01*
X61857370Y-56141199D01*
X61881037Y-56137881D01*
X61887493Y-56137136D01*
X61917657Y-56138624D01*
X61958727Y-56144644D01*
X62004202Y-56153786D01*
X62047581Y-56164640D01*
X62066044Y-56170561D01*
X62082362Y-56175794D01*
G37*
G36*
X59615037Y-55488812D02*
G01*
X59660082Y-55500467D01*
X59642630Y-55565602D01*
X59633173Y-55595972D01*
X59622365Y-55620990D01*
X59613894Y-55630508D01*
X59603089Y-55629311D01*
X59572197Y-55622189D01*
X59532707Y-55610450D01*
X59490536Y-55596155D01*
X59451602Y-55581363D01*
X59421823Y-55568135D01*
X59407118Y-55558530D01*
X59397974Y-55548980D01*
X59380384Y-55546500D01*
X59363951Y-55564398D01*
X59349860Y-55601779D01*
X59347737Y-55609275D01*
X59331095Y-55646100D01*
X59306471Y-55667928D01*
X59279326Y-55679136D01*
X59251481Y-55684667D01*
X59251144Y-55684662D01*
X59234948Y-55681544D01*
X59200433Y-55673181D01*
X59150046Y-55660252D01*
X59086233Y-55643435D01*
X59011442Y-55623406D01*
X58928119Y-55600843D01*
X58838712Y-55576424D01*
X58745668Y-55550826D01*
X58651433Y-55524727D01*
X58558454Y-55498805D01*
X58469179Y-55473737D01*
X58386053Y-55450200D01*
X58311525Y-55428872D01*
X58248042Y-55410431D01*
X58198049Y-55395554D01*
X58163994Y-55384920D01*
X58148324Y-55379204D01*
X58138286Y-55372529D01*
X58115561Y-55341522D01*
X58105766Y-55298183D01*
X58110286Y-55247309D01*
X58114288Y-55227431D01*
X58116003Y-55196965D01*
X58107608Y-55185123D01*
X58088896Y-55191363D01*
X58082579Y-55193921D01*
X58060428Y-55194494D01*
X58023987Y-55188070D01*
X57970263Y-55174215D01*
X57943947Y-55166713D01*
X57904239Y-55154773D01*
X57884462Y-55148256D01*
X58277894Y-55148256D01*
X58278079Y-55159594D01*
X58290887Y-55218127D01*
X58320879Y-55271192D01*
X58364383Y-55311844D01*
X58368588Y-55314044D01*
X58393113Y-55323490D01*
X58434720Y-55337423D01*
X58490562Y-55354960D01*
X58557797Y-55375222D01*
X58633580Y-55397329D01*
X58715067Y-55420400D01*
X58747346Y-55429370D01*
X58826552Y-55451097D01*
X58898805Y-55470523D01*
X58961313Y-55486921D01*
X59011281Y-55499566D01*
X59045915Y-55507731D01*
X59062421Y-55510690D01*
X59065037Y-55510703D01*
X59082151Y-55505718D01*
X59084168Y-55487764D01*
X59082394Y-55482353D01*
X59076220Y-55475432D01*
X59063723Y-55467893D01*
X59042807Y-55459018D01*
X59011375Y-55448088D01*
X58967330Y-55434387D01*
X58908574Y-55417197D01*
X58833011Y-55395799D01*
X58738543Y-55369477D01*
X58716526Y-55363365D01*
X58626519Y-55338260D01*
X58554694Y-55317877D01*
X58498745Y-55301411D01*
X58456367Y-55288055D01*
X58425252Y-55277004D01*
X58403096Y-55267451D01*
X58387591Y-55258591D01*
X58376432Y-55249617D01*
X58367313Y-55239723D01*
X58362968Y-55234246D01*
X58343116Y-55202082D01*
X58331631Y-55171874D01*
X58331746Y-55159785D01*
X58335730Y-55134160D01*
X58344035Y-55094774D01*
X58356918Y-55040613D01*
X58374637Y-54970661D01*
X58397450Y-54883904D01*
X58425614Y-54779325D01*
X58459388Y-54655911D01*
X58499028Y-54512645D01*
X58513754Y-54459599D01*
X58548978Y-54332168D01*
X58578680Y-54223725D01*
X58603211Y-54132880D01*
X58622918Y-54058240D01*
X58638150Y-53998414D01*
X58649256Y-53952012D01*
X58656585Y-53917641D01*
X58660486Y-53893911D01*
X58661306Y-53879429D01*
X58659396Y-53872806D01*
X58650411Y-53866900D01*
X58632787Y-53867199D01*
X58630871Y-53869967D01*
X58622713Y-53890470D01*
X58609911Y-53928819D01*
X58593081Y-53982784D01*
X58572843Y-54050131D01*
X58549815Y-54128630D01*
X58524616Y-54216047D01*
X58497862Y-54310150D01*
X58470174Y-54408709D01*
X58442169Y-54509490D01*
X58414465Y-54610262D01*
X58387681Y-54708792D01*
X58362436Y-54802849D01*
X58339347Y-54890201D01*
X58319033Y-54968615D01*
X58302113Y-55035860D01*
X58289204Y-55089703D01*
X58280925Y-55127912D01*
X58277894Y-55148256D01*
X57884462Y-55148256D01*
X57875752Y-55145386D01*
X57863372Y-55140113D01*
X57862415Y-55133872D01*
X57866462Y-55112370D01*
X57875146Y-55082970D01*
X57885999Y-55052923D01*
X57896549Y-55029480D01*
X57904327Y-55019892D01*
X57924726Y-55022049D01*
X57957659Y-55029191D01*
X57996942Y-55039683D01*
X58037073Y-55051852D01*
X58072550Y-55064025D01*
X58097871Y-55074528D01*
X58107534Y-55081689D01*
X58107673Y-55083291D01*
X58117195Y-55096705D01*
X58134080Y-55106017D01*
X58147606Y-55104991D01*
X58148378Y-55103684D01*
X58154262Y-55087176D01*
X58163610Y-55056383D01*
X58174784Y-55016631D01*
X58185369Y-54975409D01*
X58190430Y-54947455D01*
X58189461Y-54931614D01*
X58182845Y-54923477D01*
X58174924Y-54920471D01*
X58154960Y-54925221D01*
X58153759Y-54926051D01*
X58134577Y-54928287D01*
X58097607Y-54922544D01*
X58041696Y-54908653D01*
X58016107Y-54901530D01*
X57976762Y-54890082D01*
X57948748Y-54881270D01*
X57936907Y-54876576D01*
X57936318Y-54867590D01*
X57940926Y-54844114D01*
X57949359Y-54813546D01*
X57959442Y-54782957D01*
X57968998Y-54759418D01*
X57975853Y-54750000D01*
X57982302Y-54751028D01*
X58005466Y-54756652D01*
X58037603Y-54765539D01*
X58052391Y-54769782D01*
X58097458Y-54782375D01*
X58137436Y-54793141D01*
X58146612Y-54795782D01*
X58173601Y-54807947D01*
X58183647Y-54821095D01*
X58187209Y-54830020D01*
X58204146Y-54836986D01*
X58212910Y-54834842D01*
X58223616Y-54822912D01*
X58234415Y-54797150D01*
X58247261Y-54753787D01*
X58249951Y-54743669D01*
X58259094Y-54704876D01*
X58264183Y-54675540D01*
X58264177Y-54661364D01*
X58255804Y-54654580D01*
X58237715Y-54653201D01*
X58225328Y-54662706D01*
X58222560Y-54663746D01*
X58203858Y-54662264D01*
X58172219Y-54656769D01*
X58133099Y-54648519D01*
X58091953Y-54638775D01*
X58054233Y-54628796D01*
X58025395Y-54619843D01*
X58010893Y-54613175D01*
X58010259Y-54611656D01*
X58011783Y-54595394D01*
X58017908Y-54568145D01*
X58026566Y-54537434D01*
X58035687Y-54510784D01*
X58043201Y-54495718D01*
X58045497Y-54494280D01*
X58064900Y-54493570D01*
X58097436Y-54498706D01*
X58137508Y-54508114D01*
X58179518Y-54520221D01*
X58217869Y-54533453D01*
X58246962Y-54546237D01*
X58261201Y-54556999D01*
X58262421Y-54559212D01*
X58276582Y-54574688D01*
X58290379Y-54569817D01*
X58304253Y-54544139D01*
X58318646Y-54497196D01*
X58319808Y-54492675D01*
X58330331Y-54452721D01*
X58339183Y-54420717D01*
X58344554Y-54403234D01*
X58345676Y-54396518D01*
X58336963Y-54392195D01*
X58311583Y-54395358D01*
X58307697Y-54395902D01*
X58277969Y-54395204D01*
X58237044Y-54389642D01*
X58191485Y-54380650D01*
X58147856Y-54369666D01*
X58112722Y-54358125D01*
X58092647Y-54347464D01*
X58091233Y-54344899D01*
X58090420Y-54325793D01*
X58094180Y-54296236D01*
X58100952Y-54264074D01*
X58109180Y-54237156D01*
X58117303Y-54223328D01*
X58118522Y-54222805D01*
X58136817Y-54223627D01*
X58168835Y-54230637D01*
X58209016Y-54242034D01*
X58251800Y-54256017D01*
X58291629Y-54270788D01*
X58322941Y-54284546D01*
X58340179Y-54295490D01*
X58345759Y-54301254D01*
X58356388Y-54308904D01*
X58365170Y-54306273D01*
X58373947Y-54290673D01*
X58384559Y-54259416D01*
X58398849Y-54209813D01*
X58401516Y-54200256D01*
X58411052Y-54163510D01*
X58414408Y-54141880D01*
X58411851Y-54130668D01*
X58403648Y-54125177D01*
X58393992Y-54123653D01*
X58378489Y-54131642D01*
X58373929Y-54135409D01*
X58357458Y-54136847D01*
X58327170Y-54131649D01*
X58279760Y-54119406D01*
X58256782Y-54113029D01*
X58210416Y-54099791D01*
X58180763Y-54089101D01*
X58164884Y-54078189D01*
X58159837Y-54064281D01*
X58162684Y-54044608D01*
X58170485Y-54016397D01*
X58178837Y-53990679D01*
X58190237Y-53965849D01*
X58199587Y-53956250D01*
X58212043Y-53957559D01*
X58243202Y-53964645D01*
X58282418Y-53976132D01*
X58323875Y-53990028D01*
X58361757Y-54004335D01*
X58390250Y-54017060D01*
X58403538Y-54026208D01*
X58405908Y-54030137D01*
X58421354Y-54042358D01*
X58437447Y-54034024D01*
X58453580Y-54006125D01*
X58469147Y-53959651D01*
X58483540Y-53895593D01*
X58484765Y-53887263D01*
X58482038Y-53863540D01*
X58469322Y-53856598D01*
X58449499Y-53868713D01*
X58448766Y-53869205D01*
X58432881Y-53869525D01*
X58402685Y-53864898D01*
X58363855Y-53856717D01*
X58322068Y-53846372D01*
X58282999Y-53835258D01*
X58252326Y-53824765D01*
X58235723Y-53816285D01*
X58233149Y-53810438D01*
X58234577Y-53788473D01*
X58242377Y-53758668D01*
X58253979Y-53728330D01*
X58266809Y-53704769D01*
X58278298Y-53695291D01*
X58282687Y-53695426D01*
X58313594Y-53700132D01*
X58353135Y-53710093D01*
X58395340Y-53723305D01*
X58434237Y-53737765D01*
X58463858Y-53751467D01*
X58478230Y-53762407D01*
X58486230Y-53774210D01*
X58502280Y-53781390D01*
X58517404Y-53768236D01*
X58529882Y-53735638D01*
X58544359Y-53698186D01*
X58574799Y-53659177D01*
X58614334Y-53636489D01*
X58621725Y-53636599D01*
X58649943Y-53641580D01*
X58697331Y-53652269D01*
X58762842Y-53668400D01*
X58845429Y-53689705D01*
X58944046Y-53715918D01*
X59057646Y-53746772D01*
X59185182Y-53782000D01*
X59248990Y-53799749D01*
X59367036Y-53832647D01*
X59466468Y-53860658D01*
X59548850Y-53884469D01*
X59615747Y-53904765D01*
X59668723Y-53922234D01*
X59709342Y-53937560D01*
X59739168Y-53951431D01*
X59759767Y-53964532D01*
X59772702Y-53977549D01*
X59779538Y-53991170D01*
X59781838Y-54006079D01*
X59781169Y-54022964D01*
X59779092Y-54042510D01*
X59777471Y-54055923D01*
X59772046Y-54088501D01*
X59766402Y-54109791D01*
X59765106Y-54118037D01*
X59773681Y-54132164D01*
X59789808Y-54137744D01*
X59804048Y-54129768D01*
X59806817Y-54127428D01*
X59824698Y-54126055D01*
X59859285Y-54131941D01*
X59912380Y-54145345D01*
X59938580Y-54152647D01*
X59978069Y-54164184D01*
X60006228Y-54173113D01*
X60018213Y-54177945D01*
X60019948Y-54186118D01*
X60017244Y-54209429D01*
X60010338Y-54240091D01*
X60001183Y-54270905D01*
X59991735Y-54294673D01*
X59983946Y-54304195D01*
X59977289Y-54303218D01*
X59952608Y-54297698D01*
X59915948Y-54288573D01*
X59872940Y-54277301D01*
X59829212Y-54265338D01*
X59790396Y-54254138D01*
X59780698Y-54249083D01*
X59774086Y-54235575D01*
X59771802Y-54228189D01*
X59756016Y-54222646D01*
X59743692Y-54230951D01*
X59729361Y-54254521D01*
X59715572Y-54287588D01*
X59704120Y-54324339D01*
X59696797Y-54358965D01*
X59695396Y-54385655D01*
X59701712Y-54398599D01*
X59709711Y-54400091D01*
X59730511Y-54393817D01*
X59731691Y-54393041D01*
X59751529Y-54391206D01*
X59789795Y-54397721D01*
X59847260Y-54412712D01*
X59890072Y-54425308D01*
X59921939Y-54436184D01*
X59939621Y-54445335D01*
X59946773Y-54454722D01*
X59947045Y-54466306D01*
X59946161Y-54471724D01*
X59938687Y-54502591D01*
X59928226Y-54533528D01*
X59917443Y-54557457D01*
X59909005Y-54567301D01*
X59908422Y-54567333D01*
X59887717Y-54564799D01*
X59855098Y-54557279D01*
X59816066Y-54546475D01*
X59776128Y-54534090D01*
X59740786Y-54521827D01*
X59715544Y-54511388D01*
X59705908Y-54504476D01*
X59705788Y-54503060D01*
X59696270Y-54490112D01*
X59679291Y-54481036D01*
X59665836Y-54481995D01*
X59665064Y-54483302D01*
X59659180Y-54499810D01*
X59649831Y-54530604D01*
X59638658Y-54570355D01*
X59629274Y-54606675D01*
X59623400Y-54637136D01*
X59623770Y-54654551D01*
X59629988Y-54663134D01*
X59640133Y-54666107D01*
X59661587Y-54661007D01*
X59665664Y-54659142D01*
X59686852Y-54657865D01*
X59722588Y-54664058D01*
X59775645Y-54678137D01*
X59798475Y-54684823D01*
X59837085Y-54696488D01*
X59864427Y-54705236D01*
X59875677Y-54709553D01*
X59875912Y-54714288D01*
X59872358Y-54734552D01*
X59865491Y-54763905D01*
X59857200Y-54795007D01*
X59849373Y-54820519D01*
X59843897Y-54833101D01*
X59837905Y-54834319D01*
X59815122Y-54831069D01*
X59781015Y-54822726D01*
X59740989Y-54811011D01*
X59700449Y-54797647D01*
X59664800Y-54784355D01*
X59639447Y-54772858D01*
X59629795Y-54764879D01*
X59625875Y-54756309D01*
X59608467Y-54750000D01*
X59599476Y-54751584D01*
X59586089Y-54765167D01*
X59575236Y-54796211D01*
X59573221Y-54803936D01*
X59562374Y-54843452D01*
X59552297Y-54877549D01*
X59551580Y-54879901D01*
X59546430Y-54906621D01*
X59548113Y-54923760D01*
X59557584Y-54931869D01*
X59575790Y-54933863D01*
X59588114Y-54923987D01*
X59590814Y-54922957D01*
X59609409Y-54924384D01*
X59640960Y-54929780D01*
X59679995Y-54937897D01*
X59721042Y-54947489D01*
X59758629Y-54957307D01*
X59787285Y-54966106D01*
X59801538Y-54972637D01*
X59802178Y-54974756D01*
X59800213Y-54991994D01*
X59794057Y-55019795D01*
X59785690Y-55050641D01*
X59777093Y-55077011D01*
X59770248Y-55091386D01*
X59759424Y-55094015D01*
X59731671Y-55091276D01*
X59692895Y-55082532D01*
X59670100Y-55076308D01*
X59619666Y-55061995D01*
X59586004Y-55051139D01*
X59565916Y-55042450D01*
X59556207Y-55034642D01*
X59553682Y-55026426D01*
X59550539Y-55018038D01*
X59534150Y-55010959D01*
X59526015Y-55013216D01*
X59515475Y-55025934D01*
X59504615Y-55053003D01*
X59491710Y-55097955D01*
X59488165Y-55111946D01*
X59480022Y-55150282D01*
X59476416Y-55178296D01*
X59478122Y-55190710D01*
X59490228Y-55192844D01*
X59513976Y-55189810D01*
X59519207Y-55189132D01*
X59546083Y-55191056D01*
X59584471Y-55197709D01*
X59627768Y-55207498D01*
X59669371Y-55218831D01*
X59702676Y-55230115D01*
X59721079Y-55239758D01*
X59723215Y-55248516D01*
X59721577Y-55272944D01*
X59716026Y-55304857D01*
X59707970Y-55336607D01*
X59698819Y-55360545D01*
X59694328Y-55361449D01*
X59672837Y-55358727D01*
X59637976Y-55351441D01*
X59594481Y-55340499D01*
X59543187Y-55325158D01*
X59498910Y-55307117D01*
X59475437Y-55289929D01*
X59466392Y-55279899D01*
X59454281Y-55274785D01*
X59443383Y-55284756D01*
X59431945Y-55311907D01*
X59418218Y-55358331D01*
X59408328Y-55393987D01*
X59399458Y-55424672D01*
X59394229Y-55441196D01*
X59393832Y-55448227D01*
X59404219Y-55459167D01*
X59421259Y-55462732D01*
X59434909Y-55455414D01*
X59435179Y-55454996D01*
X59445874Y-55449165D01*
X59468191Y-55450680D01*
X59506455Y-55459806D01*
X59533290Y-55467087D01*
X59578347Y-55479157D01*
X59611054Y-55487764D01*
X59615037Y-55488812D01*
G37*
G36*
X65249961Y-54652255D02*
G01*
X65272976Y-54656271D01*
X65312230Y-54665266D01*
X65363992Y-54678206D01*
X65424529Y-54694057D01*
X65490111Y-54711786D01*
X65557006Y-54730360D01*
X65621482Y-54748746D01*
X65679807Y-54765908D01*
X65728251Y-54780815D01*
X65763081Y-54792432D01*
X65780566Y-54799727D01*
X65796241Y-54814534D01*
X65808276Y-54839437D01*
X65808689Y-54842448D01*
X65806733Y-54877832D01*
X65796203Y-54918801D01*
X65780108Y-54956246D01*
X65761461Y-54981057D01*
X65742197Y-54993613D01*
X65722596Y-55000086D01*
X65721086Y-54999954D01*
X65702303Y-54995976D01*
X65667014Y-54987197D01*
X65618850Y-54974617D01*
X65561441Y-54959239D01*
X65498416Y-54942064D01*
X65433405Y-54924095D01*
X65370039Y-54906333D01*
X65311947Y-54889781D01*
X65262759Y-54875439D01*
X65226105Y-54864310D01*
X65205614Y-54857396D01*
X65201042Y-54855384D01*
X65174294Y-54831312D01*
X65162906Y-54793622D01*
X65167653Y-54744621D01*
X65171292Y-54731626D01*
X65190917Y-54690189D01*
X65217564Y-54662333D01*
X65247698Y-54652140D01*
X65249961Y-54652255D01*
G37*
G36*
X56442414Y-53668274D02*
G01*
X56596147Y-53710947D01*
X56649579Y-53725778D01*
X56791123Y-53765077D01*
X56926267Y-53802610D01*
X56988670Y-53819946D01*
X57053556Y-53837972D01*
X57171533Y-53870760D01*
X57278744Y-53900567D01*
X57373733Y-53926990D01*
X57455044Y-53949623D01*
X57521221Y-53968061D01*
X57570811Y-53981900D01*
X57602356Y-53990735D01*
X57614401Y-53994162D01*
X57615848Y-53994817D01*
X57620689Y-54005417D01*
X57620236Y-54016273D01*
X57619658Y-54030138D01*
X57612682Y-54072368D01*
X57590981Y-54159861D01*
X57553164Y-54260596D01*
X57504637Y-54352434D01*
X57447407Y-54432203D01*
X57383480Y-54496735D01*
X57314865Y-54542856D01*
X57300564Y-54549753D01*
X57278844Y-54558133D01*
X57270291Y-54558087D01*
X57271414Y-54552725D01*
X57277245Y-54529775D01*
X57287027Y-54492821D01*
X57299602Y-54446111D01*
X57313810Y-54393896D01*
X57328495Y-54340426D01*
X57342496Y-54289949D01*
X57354657Y-54246717D01*
X57363818Y-54214979D01*
X57364642Y-54210144D01*
X57362213Y-54203308D01*
X57353221Y-54196250D01*
X57335257Y-54188076D01*
X57305913Y-54177889D01*
X57262781Y-54164792D01*
X57203452Y-54147889D01*
X57125519Y-54126283D01*
X57029676Y-54099877D01*
X57020829Y-54123205D01*
X57015974Y-54137844D01*
X57006202Y-54170318D01*
X56993310Y-54214872D01*
X56978438Y-54267384D01*
X56962727Y-54323731D01*
X56947315Y-54379791D01*
X56933344Y-54431440D01*
X56921953Y-54474555D01*
X56914283Y-54505013D01*
X56911473Y-54518692D01*
X56920153Y-54526463D01*
X56944655Y-54537361D01*
X56979431Y-54548611D01*
X57012917Y-54558232D01*
X57041148Y-54566943D01*
X57054736Y-54571932D01*
X57055607Y-54576032D01*
X57053029Y-54596390D01*
X57046308Y-54628422D01*
X57036854Y-54666254D01*
X57026079Y-54704009D01*
X57015392Y-54735813D01*
X57014385Y-54737911D01*
X57001816Y-54743526D01*
X56974564Y-54738321D01*
X56972805Y-54737809D01*
X56944837Y-54729829D01*
X56897454Y-54716478D01*
X56832053Y-54698145D01*
X56750030Y-54675220D01*
X56652782Y-54648093D01*
X56541705Y-54617153D01*
X56418197Y-54582789D01*
X56283652Y-54545392D01*
X56139469Y-54505351D01*
X56097600Y-54493728D01*
X55998943Y-54466339D01*
X55885894Y-54434952D01*
X55762852Y-54400790D01*
X55634215Y-54365073D01*
X55511911Y-54331114D01*
X56239234Y-54331114D01*
X56241271Y-54342944D01*
X56245160Y-54344200D01*
X56267361Y-54350784D01*
X56304720Y-54361563D01*
X56353196Y-54375376D01*
X56408751Y-54391063D01*
X56434576Y-54398305D01*
X56486228Y-54412666D01*
X56528329Y-54424204D01*
X56557087Y-54431885D01*
X56568713Y-54434675D01*
X56569911Y-54433849D01*
X56576558Y-54419810D01*
X56584831Y-54393900D01*
X56588140Y-54381934D01*
X56597676Y-54347474D01*
X56610982Y-54299409D01*
X56626773Y-54242381D01*
X56643762Y-54181034D01*
X56646855Y-54169814D01*
X56665585Y-54098615D01*
X56677161Y-54047546D01*
X56681652Y-54016273D01*
X56679124Y-54004462D01*
X56678695Y-54004307D01*
X56657005Y-53997379D01*
X56621493Y-53986965D01*
X56576501Y-53974243D01*
X56526372Y-53960390D01*
X56475450Y-53946584D01*
X56428077Y-53934003D01*
X56388595Y-53923825D01*
X56361348Y-53917227D01*
X56350680Y-53915388D01*
X56350368Y-53915975D01*
X56345513Y-53930635D01*
X56335922Y-53962426D01*
X56322532Y-54008148D01*
X56306283Y-54064602D01*
X56288113Y-54128590D01*
X56274935Y-54175973D01*
X56256020Y-54247841D01*
X56244135Y-54299484D01*
X56239234Y-54331114D01*
X55511911Y-54331114D01*
X55504384Y-54329024D01*
X55377757Y-54293862D01*
X55258733Y-54260811D01*
X55248555Y-54257983D01*
X55145811Y-54229226D01*
X55048848Y-54201726D01*
X54959835Y-54176122D01*
X54880944Y-54153054D01*
X54872152Y-54150428D01*
X55558019Y-54150428D01*
X55562349Y-54152278D01*
X55584268Y-54159425D01*
X55621334Y-54170642D01*
X55669875Y-54184827D01*
X55726218Y-54200880D01*
X55730119Y-54201978D01*
X55791569Y-54219011D01*
X55835503Y-54230366D01*
X55865069Y-54236563D01*
X55883417Y-54238122D01*
X55893696Y-54235562D01*
X55899054Y-54229402D01*
X55900385Y-54226441D01*
X55908158Y-54203974D01*
X55919335Y-54166956D01*
X55932876Y-54119328D01*
X55947746Y-54065032D01*
X55962908Y-54008009D01*
X55977324Y-53952201D01*
X55989957Y-53901549D01*
X55999771Y-53859995D01*
X56005727Y-53831480D01*
X56006790Y-53819946D01*
X55999955Y-53816644D01*
X55975318Y-53808240D01*
X55937472Y-53796733D01*
X55891097Y-53783408D01*
X55840876Y-53769548D01*
X55791492Y-53756438D01*
X55747625Y-53745363D01*
X55713959Y-53737608D01*
X55695174Y-53734456D01*
X55692904Y-53734400D01*
X55684154Y-53735873D01*
X55676280Y-53742135D01*
X55668184Y-53755885D01*
X55658768Y-53779821D01*
X55646932Y-53816642D01*
X55631579Y-53869048D01*
X55611609Y-53939737D01*
X55608831Y-53949665D01*
X55591633Y-54012204D01*
X55577129Y-54066788D01*
X55566143Y-54110178D01*
X55559499Y-54139137D01*
X55558019Y-54150428D01*
X54872152Y-54150428D01*
X54814346Y-54133163D01*
X54762212Y-54117089D01*
X54726712Y-54105473D01*
X54710017Y-54098955D01*
X54709668Y-54098755D01*
X54670809Y-54064557D01*
X54645602Y-54017485D01*
X54637402Y-53963779D01*
X54637581Y-53961616D01*
X54879914Y-53961616D01*
X54883215Y-53963021D01*
X54903635Y-53969599D01*
X54939409Y-53980308D01*
X54986815Y-53994044D01*
X55042134Y-54009705D01*
X55070268Y-54017541D01*
X55123087Y-54031996D01*
X55166710Y-54043595D01*
X55197231Y-54051309D01*
X55210742Y-54054110D01*
X55215302Y-54047131D01*
X55224755Y-54022568D01*
X55237535Y-53983979D01*
X55252558Y-53935210D01*
X55268742Y-53880110D01*
X55285004Y-53822526D01*
X55300259Y-53766306D01*
X55313426Y-53715297D01*
X55323421Y-53673347D01*
X55329160Y-53644305D01*
X55329562Y-53632016D01*
X55324983Y-53629791D01*
X55302530Y-53622036D01*
X55264961Y-53610395D01*
X55216034Y-53596016D01*
X55159505Y-53580048D01*
X55156355Y-53579176D01*
X55085426Y-53560386D01*
X55034597Y-53548818D01*
X55003500Y-53544400D01*
X54991763Y-53547059D01*
X54990709Y-53550145D01*
X54982951Y-53575354D01*
X54971674Y-53614412D01*
X54957920Y-53663455D01*
X54942733Y-53718617D01*
X54927156Y-53776033D01*
X54912231Y-53831836D01*
X54899001Y-53882162D01*
X54888510Y-53923144D01*
X54881800Y-53950917D01*
X54879914Y-53961616D01*
X54637581Y-53961616D01*
X54637950Y-53957164D01*
X54643247Y-53926557D01*
X54653404Y-53880257D01*
X54667518Y-53822042D01*
X54684687Y-53755688D01*
X54704008Y-53684973D01*
X54713009Y-53652808D01*
X54731076Y-53587724D01*
X54746594Y-53531115D01*
X54758722Y-53486093D01*
X54766616Y-53455772D01*
X54769435Y-53443264D01*
X54767844Y-53440153D01*
X54752789Y-53428042D01*
X54726994Y-53413122D01*
X54724175Y-53411657D01*
X54670610Y-53371731D01*
X54629927Y-53317809D01*
X54606479Y-53255580D01*
X54604608Y-53247042D01*
X54602096Y-53235772D01*
X54600367Y-53225033D01*
X54599838Y-53213034D01*
X54600925Y-53197983D01*
X54604048Y-53178091D01*
X54609622Y-53151564D01*
X54618066Y-53116614D01*
X54629798Y-53071449D01*
X54645234Y-53014277D01*
X54664792Y-52943308D01*
X54688889Y-52856751D01*
X54717944Y-52752815D01*
X54752374Y-52629709D01*
X54869384Y-52211087D01*
X54942004Y-52211067D01*
X55008967Y-52204210D01*
X55083453Y-52178454D01*
X55155745Y-52132740D01*
X55227572Y-52066194D01*
X55250504Y-52040902D01*
X55313113Y-51960392D01*
X55361575Y-51875843D01*
X55400874Y-51778996D01*
X55407130Y-51760207D01*
X55436791Y-51644183D01*
X55451053Y-51530533D01*
X55450263Y-51421727D01*
X55434766Y-51320231D01*
X55404909Y-51228517D01*
X55361038Y-51149053D01*
X55303499Y-51084308D01*
X55281580Y-51066407D01*
X55251699Y-51045903D01*
X55229737Y-51035346D01*
X55213574Y-51028247D01*
X55204366Y-51015790D01*
X55205832Y-51008268D01*
X55212454Y-50981560D01*
X55223793Y-50938269D01*
X55239166Y-50880930D01*
X55257893Y-50812081D01*
X55279291Y-50734257D01*
X55302679Y-50649995D01*
X55315314Y-50604880D01*
X55344176Y-50503768D01*
X55368532Y-50421725D01*
X55388860Y-50357276D01*
X55405636Y-50308944D01*
X55419337Y-50275254D01*
X55430440Y-50254730D01*
X55440201Y-50241837D01*
X55487442Y-50199612D01*
X55545064Y-50171613D01*
X55606220Y-50161473D01*
X55629194Y-50164400D01*
X55671890Y-50173166D01*
X55732687Y-50187426D01*
X55810198Y-50206831D01*
X55903035Y-50231035D01*
X56009814Y-50259689D01*
X56129145Y-50292448D01*
X56205157Y-50313524D01*
X56283606Y-50335286D01*
X56361367Y-50356868D01*
X56440103Y-50378733D01*
X56521479Y-50401344D01*
X56607159Y-50425164D01*
X56698807Y-50450658D01*
X56798088Y-50478287D01*
X56906666Y-50508516D01*
X57026206Y-50541806D01*
X57158371Y-50578623D01*
X57304826Y-50619427D01*
X57467236Y-50664684D01*
X57647264Y-50714855D01*
X57846575Y-50770405D01*
X57859560Y-50774024D01*
X57920529Y-50791006D01*
X57999077Y-50812873D01*
X58095462Y-50839696D01*
X58209945Y-50871549D01*
X58342785Y-50908503D01*
X58494242Y-50950631D01*
X58664574Y-50998004D01*
X58854042Y-51050696D01*
X59062906Y-51108777D01*
X59291424Y-51172320D01*
X59539856Y-51241398D01*
X59808463Y-51316082D01*
X60097502Y-51396445D01*
X60407235Y-51482559D01*
X60486460Y-51504587D01*
X60649803Y-51550005D01*
X60813644Y-51595565D01*
X60975837Y-51640672D01*
X61134238Y-51684729D01*
X61286701Y-51727138D01*
X61431082Y-51767303D01*
X61565236Y-51804628D01*
X61687017Y-51838515D01*
X61794281Y-51868368D01*
X61884883Y-51893591D01*
X61956678Y-51913586D01*
X61994438Y-51924151D01*
X62085818Y-51950109D01*
X62170176Y-51974612D01*
X62245185Y-51996950D01*
X62308519Y-52016413D01*
X62357851Y-52032292D01*
X62390854Y-52043875D01*
X62405201Y-52050454D01*
X62412234Y-52058799D01*
X62422766Y-52091260D01*
X62421222Y-52133969D01*
X62407498Y-52181154D01*
X62403956Y-52189383D01*
X62386649Y-52219557D01*
X62365841Y-52234172D01*
X62335360Y-52238104D01*
X62333147Y-52237881D01*
X62312406Y-52233460D01*
X62272812Y-52223714D01*
X62215989Y-52209083D01*
X62143562Y-52190011D01*
X62057154Y-52166939D01*
X61958388Y-52140309D01*
X61848889Y-52110565D01*
X61730281Y-52078147D01*
X61604188Y-52043498D01*
X61472234Y-52007061D01*
X61336041Y-51969277D01*
X61197236Y-51930588D01*
X61057440Y-51891437D01*
X60918279Y-51852266D01*
X60900622Y-51847295D01*
X60849012Y-51832837D01*
X60781950Y-51814117D01*
X60703198Y-51792182D01*
X60616517Y-51768079D01*
X60525670Y-51742856D01*
X60434418Y-51717559D01*
X60372106Y-51700286D01*
X60291944Y-51678044D01*
X60196479Y-51651540D01*
X60087438Y-51621253D01*
X59966548Y-51587666D01*
X59835535Y-51551257D01*
X59696125Y-51512507D01*
X59550046Y-51471896D01*
X59399023Y-51429904D01*
X59244782Y-51387012D01*
X59089051Y-51343700D01*
X58933555Y-51300447D01*
X58780021Y-51257735D01*
X58630176Y-51216043D01*
X58485746Y-51175852D01*
X58348456Y-51137642D01*
X58220035Y-51101893D01*
X58102207Y-51069085D01*
X57996700Y-51039699D01*
X57905240Y-51014214D01*
X57829554Y-50993111D01*
X57771367Y-50976871D01*
X57732406Y-50965973D01*
X57714121Y-50960853D01*
X57661692Y-50946214D01*
X57592905Y-50927043D01*
X57510874Y-50904208D01*
X57418715Y-50878575D01*
X57319544Y-50851011D01*
X57216477Y-50822383D01*
X57112628Y-50793557D01*
X57082510Y-50785199D01*
X56962059Y-50751759D01*
X56827494Y-50714383D01*
X56684169Y-50674558D01*
X56537438Y-50633774D01*
X56392654Y-50593517D01*
X56255171Y-50555276D01*
X56130343Y-50520539D01*
X56116079Y-50516571D01*
X56015001Y-50488646D01*
X55920629Y-50462893D01*
X55834995Y-50439846D01*
X55760131Y-50420038D01*
X55698070Y-50404001D01*
X55650843Y-50392268D01*
X55620482Y-50385373D01*
X55609019Y-50383846D01*
X55605738Y-50391878D01*
X55597162Y-50418521D01*
X55584402Y-50460915D01*
X55568312Y-50516164D01*
X55549744Y-50581369D01*
X55529552Y-50653632D01*
X55456676Y-50916828D01*
X55489573Y-50954296D01*
X55554179Y-51041185D01*
X55609476Y-51149589D01*
X55647260Y-51269592D01*
X55667187Y-51400068D01*
X55668913Y-51539892D01*
X55663334Y-51608252D01*
X55639096Y-51747426D01*
X55598914Y-51879282D01*
X55544034Y-52001936D01*
X55475702Y-52113503D01*
X55395165Y-52212096D01*
X55303669Y-52295832D01*
X55202462Y-52362825D01*
X55092788Y-52411190D01*
X55035830Y-52430473D01*
X54929723Y-52810078D01*
X54906188Y-52894913D01*
X54883933Y-52976426D01*
X54864408Y-53049276D01*
X54848254Y-53111012D01*
X54836111Y-53159182D01*
X54828622Y-53191334D01*
X54826427Y-53205017D01*
X54826601Y-53205513D01*
X54839417Y-53213414D01*
X54872391Y-53226108D01*
X54925721Y-53243658D01*
X54999603Y-53266126D01*
X55094231Y-53293573D01*
X55209803Y-53326062D01*
X55269502Y-53342643D01*
X55354083Y-53366131D01*
X55455352Y-53394251D01*
X55571059Y-53426378D01*
X55698952Y-53461886D01*
X55836779Y-53500150D01*
X55982291Y-53540546D01*
X56133234Y-53582449D01*
X56287359Y-53625233D01*
X56311795Y-53632016D01*
X56442414Y-53668274D01*
G37*
G36*
X64112823Y-52521026D02*
G01*
X64118502Y-52521434D01*
X64126077Y-52522484D01*
X64136551Y-52524449D01*
X64150927Y-52527604D01*
X64170206Y-52532222D01*
X64195392Y-52538576D01*
X64227488Y-52546942D01*
X64267495Y-52557592D01*
X64316418Y-52570799D01*
X64375258Y-52586839D01*
X64445018Y-52605984D01*
X64526701Y-52628509D01*
X64621309Y-52654686D01*
X64729846Y-52684790D01*
X64853314Y-52719094D01*
X64992715Y-52757872D01*
X65149052Y-52801399D01*
X65323329Y-52849946D01*
X65516547Y-52903790D01*
X65729709Y-52963202D01*
X65776640Y-52976434D01*
X65847476Y-52996988D01*
X65911197Y-53016163D01*
X65964334Y-53032884D01*
X66003417Y-53046076D01*
X66024978Y-53054665D01*
X66056819Y-53075672D01*
X66097653Y-53121349D01*
X66125413Y-53177897D01*
X66137766Y-53239937D01*
X66132377Y-53302092D01*
X66126813Y-53323533D01*
X66115685Y-53365060D01*
X66100565Y-53420729D01*
X66082468Y-53486870D01*
X66062409Y-53559807D01*
X66041402Y-53635870D01*
X66020461Y-53711384D01*
X66000602Y-53782677D01*
X65982840Y-53846077D01*
X65968188Y-53897910D01*
X65957663Y-53934503D01*
X65936969Y-54005180D01*
X65863241Y-54005239D01*
X65843992Y-54005734D01*
X65777116Y-54016279D01*
X65713681Y-54041907D01*
X65650097Y-54084413D01*
X65582772Y-54145596D01*
X65522711Y-54216330D01*
X65463781Y-54308320D01*
X65416285Y-54408074D01*
X65384131Y-54508456D01*
X65377950Y-54534247D01*
X65369632Y-54563905D01*
X65361964Y-54578639D01*
X65352370Y-54582428D01*
X65338271Y-54579252D01*
X65314397Y-54573788D01*
X65271147Y-54570044D01*
X65227368Y-54571834D01*
X65190353Y-54578691D01*
X65167394Y-54590150D01*
X65156335Y-54600811D01*
X65148383Y-54603373D01*
X65144901Y-54590150D01*
X65145465Y-54567209D01*
X65152925Y-54526080D01*
X65166312Y-54473683D01*
X65184201Y-54414678D01*
X65205166Y-54353729D01*
X65227778Y-54295498D01*
X65250613Y-54244647D01*
X65294663Y-54163490D01*
X65366856Y-54057471D01*
X65447275Y-53966921D01*
X65534262Y-53893396D01*
X65626156Y-53838450D01*
X65721299Y-53803638D01*
X65769731Y-53791443D01*
X65842143Y-53532778D01*
X65855969Y-53483240D01*
X65877306Y-53405787D01*
X65893259Y-53345989D01*
X65904302Y-53301755D01*
X65910909Y-53270992D01*
X65913556Y-53251609D01*
X65912716Y-53241513D01*
X65908864Y-53238613D01*
X65908811Y-53238608D01*
X65896898Y-53235521D01*
X65865482Y-53227000D01*
X65815949Y-53213430D01*
X65749689Y-53195194D01*
X65668088Y-53172677D01*
X65572535Y-53146265D01*
X65464417Y-53116341D01*
X65345123Y-53083291D01*
X65216041Y-53047499D01*
X65078557Y-53009351D01*
X64934061Y-52969229D01*
X64783939Y-52927520D01*
X64629581Y-52884607D01*
X64472373Y-52840876D01*
X64313704Y-52796712D01*
X64154961Y-52752498D01*
X64133919Y-52746472D01*
X64082856Y-52729117D01*
X64049521Y-52711147D01*
X64031061Y-52689714D01*
X64024622Y-52661967D01*
X64027353Y-52625057D01*
X64031524Y-52604102D01*
X64049557Y-52559819D01*
X64076389Y-52531161D01*
X64109765Y-52520976D01*
X64112823Y-52521026D01*
G37*
G36*
X63743965Y-53244950D02*
G01*
X63775077Y-53250477D01*
X63819745Y-53260348D01*
X63879185Y-53274866D01*
X63954614Y-53294334D01*
X64047249Y-53319056D01*
X64158304Y-53349335D01*
X64288998Y-53385475D01*
X64314524Y-53392580D01*
X64417771Y-53421533D01*
X64514676Y-53449035D01*
X64603148Y-53474473D01*
X64681097Y-53497232D01*
X64746435Y-53516699D01*
X64797069Y-53532257D01*
X64830912Y-53543294D01*
X64845872Y-53549194D01*
X64851631Y-53553124D01*
X64876530Y-53578615D01*
X64888222Y-53611865D01*
X64887323Y-53656469D01*
X64874448Y-53716021D01*
X64874334Y-53716439D01*
X64871388Y-53733537D01*
X64879224Y-53738590D01*
X64903015Y-53735043D01*
X64909112Y-53734330D01*
X64939016Y-53735790D01*
X64980053Y-53741798D01*
X65025678Y-53750936D01*
X65069343Y-53761788D01*
X65104503Y-53772940D01*
X65124611Y-53782974D01*
X65127560Y-53796102D01*
X65124110Y-53821533D01*
X65116022Y-53852315D01*
X65105392Y-53881753D01*
X65094316Y-53903156D01*
X65084889Y-53909830D01*
X65080189Y-53908311D01*
X65056860Y-53901622D01*
X65020515Y-53891693D01*
X64976734Y-53880059D01*
X64959616Y-53875377D01*
X64918902Y-53862331D01*
X64891578Y-53850539D01*
X64881592Y-53841597D01*
X64881539Y-53840452D01*
X64872990Y-53826894D01*
X64857222Y-53819554D01*
X64844860Y-53823628D01*
X64840489Y-53835396D01*
X64832335Y-53862762D01*
X64822558Y-53898917D01*
X64813824Y-53931791D01*
X64804897Y-53963584D01*
X64799211Y-53981680D01*
X64798449Y-53988853D01*
X64807936Y-54001541D01*
X64824637Y-54006361D01*
X64838593Y-53998945D01*
X64842881Y-53995855D01*
X64861499Y-53995287D01*
X64895842Y-54001830D01*
X64948195Y-54015837D01*
X64975760Y-54023856D01*
X65014862Y-54035615D01*
X65042450Y-54044412D01*
X65053815Y-54048780D01*
X65054085Y-54056141D01*
X65050683Y-54079672D01*
X65043930Y-54113069D01*
X65036515Y-54142985D01*
X65026585Y-54164089D01*
X65010680Y-54172061D01*
X64983913Y-54168994D01*
X64941396Y-54156983D01*
X64924601Y-54151942D01*
X64882032Y-54139517D01*
X64846254Y-54129498D01*
X64842413Y-54128408D01*
X64815525Y-54116181D01*
X64805479Y-54101823D01*
X64802706Y-54093009D01*
X64786773Y-54088737D01*
X64774648Y-54098043D01*
X64760377Y-54125920D01*
X64744557Y-54173803D01*
X64741686Y-54183977D01*
X64730856Y-54231888D01*
X64730067Y-54261048D01*
X64739398Y-54271956D01*
X64758928Y-54265113D01*
X64763905Y-54263212D01*
X64791284Y-54263205D01*
X64836732Y-54271158D01*
X64898757Y-54286762D01*
X64975872Y-54309713D01*
X64980202Y-54316434D01*
X64979062Y-54340813D01*
X64969806Y-54379895D01*
X64952997Y-54430704D01*
X64946532Y-54433076D01*
X64923641Y-54431387D01*
X64889508Y-54425163D01*
X64849573Y-54415819D01*
X64809273Y-54404767D01*
X64774046Y-54393421D01*
X64749328Y-54383193D01*
X64740559Y-54375497D01*
X64738273Y-54368372D01*
X64723609Y-54355556D01*
X64709862Y-54352272D01*
X64693135Y-54362468D01*
X64686040Y-54386696D01*
X64682505Y-54386596D01*
X64661209Y-54382200D01*
X64622707Y-54373022D01*
X64569368Y-54359698D01*
X64503559Y-54342862D01*
X64427648Y-54323149D01*
X64344004Y-54301193D01*
X64254995Y-54277630D01*
X64162989Y-54253093D01*
X64070353Y-54228218D01*
X63979456Y-54203638D01*
X63892667Y-54179990D01*
X63812352Y-54157906D01*
X63740881Y-54138022D01*
X63680621Y-54120973D01*
X63633941Y-54107393D01*
X63603208Y-54097917D01*
X63590790Y-54093179D01*
X63590757Y-54092967D01*
X63593609Y-54080088D01*
X63601541Y-54049279D01*
X63613831Y-54003222D01*
X63629756Y-53944601D01*
X63648594Y-53876100D01*
X63669622Y-53800401D01*
X63671337Y-53794250D01*
X63692446Y-53717804D01*
X63711419Y-53647739D01*
X63727497Y-53586965D01*
X63739921Y-53538389D01*
X63747932Y-53504919D01*
X63750771Y-53489463D01*
X63750759Y-53488599D01*
X63742892Y-53469301D01*
X63726335Y-53461857D01*
X63709758Y-53470317D01*
X63709596Y-53470548D01*
X63703897Y-53485197D01*
X63693436Y-53517839D01*
X63679052Y-53565627D01*
X63661587Y-53625714D01*
X63641883Y-53695256D01*
X63620780Y-53771404D01*
X63619385Y-53776489D01*
X63598428Y-53852047D01*
X63579002Y-53920608D01*
X63561932Y-53979371D01*
X63548043Y-54025537D01*
X63538160Y-54056305D01*
X63533109Y-54068875D01*
X63530877Y-54070350D01*
X63512180Y-54071298D01*
X63484335Y-54064970D01*
X63461904Y-54056174D01*
X63449284Y-54044287D01*
X63449102Y-54026284D01*
X63449532Y-54015278D01*
X63441534Y-53997792D01*
X63427114Y-53991413D01*
X63412998Y-54000876D01*
X63409260Y-54004132D01*
X63392929Y-54005938D01*
X63362290Y-54001079D01*
X63314270Y-53989192D01*
X63295417Y-53984137D01*
X63247578Y-53970919D01*
X63216759Y-53960143D01*
X63200015Y-53949031D01*
X63194406Y-53934808D01*
X63196987Y-53914695D01*
X63204817Y-53885918D01*
X63213131Y-53860183D01*
X63224320Y-53835479D01*
X63233360Y-53826036D01*
X63245653Y-53827420D01*
X63277170Y-53834563D01*
X63316613Y-53846025D01*
X63358191Y-53859837D01*
X63396113Y-53874025D01*
X63424588Y-53886619D01*
X63437824Y-53895647D01*
X63440194Y-53899577D01*
X63455659Y-53911851D01*
X63471762Y-53903560D01*
X63487900Y-53875685D01*
X63503471Y-53829209D01*
X63517872Y-53765114D01*
X63519096Y-53756801D01*
X63516375Y-53733068D01*
X63503661Y-53726118D01*
X63483831Y-53738224D01*
X63483005Y-53738766D01*
X63466835Y-53739108D01*
X63436431Y-53734527D01*
X63397484Y-53726406D01*
X63355683Y-53716131D01*
X63316718Y-53705084D01*
X63286279Y-53694651D01*
X63270055Y-53686216D01*
X63267954Y-53680098D01*
X63269927Y-53658137D01*
X63277284Y-53628293D01*
X63287709Y-53597886D01*
X63298887Y-53574236D01*
X63308502Y-53564665D01*
X63312000Y-53564986D01*
X63333878Y-53569245D01*
X63368977Y-53577424D01*
X63411561Y-53588212D01*
X63455148Y-53601001D01*
X63494233Y-53616982D01*
X63512522Y-53631852D01*
X63517144Y-53639620D01*
X63531183Y-53651358D01*
X63545081Y-53643498D01*
X63559499Y-53615349D01*
X63575092Y-53566222D01*
X63578402Y-53554061D01*
X63588667Y-53515163D01*
X63595844Y-53486106D01*
X63598545Y-53472440D01*
X63598465Y-53471895D01*
X63587770Y-53468616D01*
X63564536Y-53471035D01*
X63557805Y-53471728D01*
X63528187Y-53469884D01*
X63487533Y-53463639D01*
X63442367Y-53454417D01*
X63399211Y-53443642D01*
X63364586Y-53432737D01*
X63345015Y-53423124D01*
X63342307Y-53410031D01*
X63345960Y-53384636D01*
X63354133Y-53353843D01*
X63364728Y-53324351D01*
X63375648Y-53302859D01*
X63384795Y-53296067D01*
X63389433Y-53297561D01*
X63412599Y-53304186D01*
X63448814Y-53314066D01*
X63492530Y-53325678D01*
X63509647Y-53330359D01*
X63550362Y-53343405D01*
X63577686Y-53355197D01*
X63587671Y-53364139D01*
X63589679Y-53371316D01*
X63604329Y-53384031D01*
X63610539Y-53384499D01*
X63625380Y-53373172D01*
X63637209Y-53349755D01*
X63642038Y-53320921D01*
X63645741Y-53305688D01*
X63664054Y-53279343D01*
X63691561Y-53256483D01*
X63721340Y-53243834D01*
X63725193Y-53243462D01*
X63743965Y-53244950D01*
G37*
G36*
X61286967Y-52559000D02*
G01*
X61307352Y-52561872D01*
X61335182Y-52567487D01*
X61372148Y-52576225D01*
X61419940Y-52588467D01*
X61480246Y-52604593D01*
X61554756Y-52624984D01*
X61645161Y-52650020D01*
X61753149Y-52680083D01*
X61880409Y-52715552D01*
X61921558Y-52727026D01*
X62032876Y-52758199D01*
X62125574Y-52784437D01*
X62201432Y-52806311D01*
X62262230Y-52824388D01*
X62309750Y-52839238D01*
X62345771Y-52851430D01*
X62372075Y-52861534D01*
X62390441Y-52870118D01*
X62402650Y-52877751D01*
X62410482Y-52885004D01*
X62429055Y-52916340D01*
X62434216Y-52957222D01*
X62424368Y-53009790D01*
X62421508Y-53021749D01*
X62421733Y-53048113D01*
X62433787Y-53058845D01*
X62456022Y-53051760D01*
X62460099Y-53049896D01*
X62481287Y-53048619D01*
X62517022Y-53054811D01*
X62570080Y-53068890D01*
X62592626Y-53075529D01*
X62631763Y-53087608D01*
X62659878Y-53097040D01*
X62672013Y-53102207D01*
X62672597Y-53103333D01*
X62671839Y-53119159D01*
X62666416Y-53146390D01*
X62658288Y-53177384D01*
X62649416Y-53204499D01*
X62641762Y-53220090D01*
X62635302Y-53222020D01*
X62611853Y-53219903D01*
X62577128Y-53212651D01*
X62536552Y-53201872D01*
X62495548Y-53189173D01*
X62459543Y-53176161D01*
X62433962Y-53164446D01*
X62424229Y-53155632D01*
X62421266Y-53147700D01*
X62405114Y-53140753D01*
X62405080Y-53140754D01*
X62392390Y-53150365D01*
X62378932Y-53175179D01*
X62366296Y-53209344D01*
X62356070Y-53247011D01*
X62349844Y-53282327D01*
X62349207Y-53309444D01*
X62355748Y-53322510D01*
X62364547Y-53323912D01*
X62380077Y-53315793D01*
X62386419Y-53312848D01*
X62409788Y-53313519D01*
X62444568Y-53319591D01*
X62485290Y-53329524D01*
X62526484Y-53341783D01*
X62562681Y-53354827D01*
X62588410Y-53367121D01*
X62598202Y-53377124D01*
X62597688Y-53383411D01*
X62593251Y-53408706D01*
X62585744Y-53441556D01*
X62580301Y-53462105D01*
X62572067Y-53481374D01*
X62559912Y-53487471D01*
X62538461Y-53485378D01*
X62504653Y-53478615D01*
X62461679Y-53467425D01*
X62419810Y-53454342D01*
X62384059Y-53441089D01*
X62359442Y-53429390D01*
X62350974Y-53420967D01*
X62349584Y-53413802D01*
X62335185Y-53404406D01*
X62329410Y-53404252D01*
X62318677Y-53412503D01*
X62307674Y-53435130D01*
X62294410Y-53475609D01*
X62293799Y-53477669D01*
X62282795Y-53517044D01*
X62274978Y-53549268D01*
X62272003Y-53567539D01*
X62277652Y-53582876D01*
X62294807Y-53591236D01*
X62313676Y-53584030D01*
X62316010Y-53582303D01*
X62333567Y-53579836D01*
X62366307Y-53584592D01*
X62416776Y-53596890D01*
X62433268Y-53601389D01*
X62473869Y-53613073D01*
X62504732Y-53622821D01*
X62520198Y-53628883D01*
X62524231Y-53633553D01*
X62525214Y-53652727D01*
X62516687Y-53687933D01*
X62511255Y-53705413D01*
X62501600Y-53733804D01*
X62495146Y-53749269D01*
X62491406Y-53750774D01*
X62470692Y-53749578D01*
X62436609Y-53743283D01*
X62394163Y-53732711D01*
X62373475Y-53727037D01*
X62333727Y-53716447D01*
X62304513Y-53709090D01*
X62291032Y-53706299D01*
X62287603Y-53704830D01*
X62282877Y-53691018D01*
X62281781Y-53686504D01*
X62270879Y-53673497D01*
X62255676Y-53664249D01*
X62245401Y-53665134D01*
X62242080Y-53671975D01*
X62233365Y-53691074D01*
X62232980Y-53691919D01*
X62230043Y-53696717D01*
X62225110Y-53700044D01*
X62216460Y-53701500D01*
X62202370Y-53700687D01*
X62181117Y-53697206D01*
X62150978Y-53690659D01*
X62110232Y-53680646D01*
X62057155Y-53666770D01*
X61990026Y-53648632D01*
X61907121Y-53625832D01*
X61806718Y-53597973D01*
X61687095Y-53564656D01*
X61655174Y-53555753D01*
X61552954Y-53527158D01*
X61457794Y-53500410D01*
X61371679Y-53476075D01*
X61296594Y-53454720D01*
X61234525Y-53436910D01*
X61187457Y-53423212D01*
X61157374Y-53414193D01*
X61146262Y-53410417D01*
X61146139Y-53410048D01*
X61148437Y-53396103D01*
X61155876Y-53364310D01*
X61167759Y-53317375D01*
X61183388Y-53258003D01*
X61202063Y-53188902D01*
X61223086Y-53112777D01*
X61225499Y-53104117D01*
X61246454Y-53027846D01*
X61265069Y-52958260D01*
X61280620Y-52898204D01*
X61292384Y-52850525D01*
X61299637Y-52818069D01*
X61301656Y-52803682D01*
X61296266Y-52794544D01*
X61277444Y-52787372D01*
X61270960Y-52789345D01*
X61263870Y-52797069D01*
X61255760Y-52812729D01*
X61245872Y-52838505D01*
X61233447Y-52876578D01*
X61217726Y-52929128D01*
X61197950Y-52998338D01*
X61173358Y-53086387D01*
X61090375Y-53385402D01*
X61055800Y-53383780D01*
X61036796Y-53382473D01*
X61006214Y-53376174D01*
X60992696Y-53363706D01*
X60993135Y-53343049D01*
X60993266Y-53342518D01*
X60993623Y-53321444D01*
X60978499Y-53311685D01*
X60965516Y-53310664D01*
X60953480Y-53317855D01*
X60949679Y-53320218D01*
X60929603Y-53320009D01*
X60897266Y-53314806D01*
X60858100Y-53306014D01*
X60817534Y-53295037D01*
X60781000Y-53283282D01*
X60753929Y-53272155D01*
X60741752Y-53263060D01*
X60741137Y-53247584D01*
X60745615Y-53219267D01*
X60753509Y-53187387D01*
X60762710Y-53160316D01*
X60771112Y-53146424D01*
X60772216Y-53145955D01*
X60789998Y-53146809D01*
X60821525Y-53153498D01*
X60861092Y-53164257D01*
X60902998Y-53177325D01*
X60941539Y-53190939D01*
X60971012Y-53203336D01*
X60985715Y-53212754D01*
X60986477Y-53213770D01*
X61002548Y-53225960D01*
X61017751Y-53218393D01*
X61032658Y-53190412D01*
X61047841Y-53141359D01*
X61048856Y-53137420D01*
X61058746Y-53093071D01*
X61061081Y-53065484D01*
X61056164Y-53051387D01*
X61046727Y-53045320D01*
X61029662Y-53051568D01*
X61020937Y-53055352D01*
X60999643Y-53055376D01*
X60964549Y-53048993D01*
X60912314Y-53035751D01*
X60884087Y-53028026D01*
X60845142Y-53017144D01*
X60817919Y-53009247D01*
X60807059Y-53005660D01*
X60807804Y-52998180D01*
X60813190Y-52974878D01*
X60822166Y-52941641D01*
X60829812Y-52917451D01*
X60843439Y-52889048D01*
X60857273Y-52880053D01*
X60863262Y-52880413D01*
X60893543Y-52885945D01*
X60932499Y-52896538D01*
X60974172Y-52910142D01*
X61012603Y-52924703D01*
X61041836Y-52938168D01*
X61055911Y-52948486D01*
X61057974Y-52951995D01*
X61072371Y-52965894D01*
X61086728Y-52959966D01*
X61101653Y-52933597D01*
X61117759Y-52886170D01*
X61119918Y-52878689D01*
X61130711Y-52839610D01*
X61138309Y-52809284D01*
X61141182Y-52793747D01*
X61139700Y-52789411D01*
X61126142Y-52782828D01*
X61107702Y-52783227D01*
X61095876Y-52791243D01*
X61093796Y-52792166D01*
X61076284Y-52790669D01*
X61045612Y-52784743D01*
X61007263Y-52775791D01*
X60966721Y-52765215D01*
X60929470Y-52754417D01*
X60900995Y-52744800D01*
X60886779Y-52737767D01*
X60885932Y-52728494D01*
X60889926Y-52703422D01*
X60898428Y-52669284D01*
X60908105Y-52639233D01*
X60919779Y-52616768D01*
X60931065Y-52612628D01*
X60935034Y-52613983D01*
X60958056Y-52620785D01*
X60994133Y-52630779D01*
X61037385Y-52642323D01*
X61057248Y-52647705D01*
X61099537Y-52661295D01*
X61124161Y-52673649D01*
X61133978Y-52686062D01*
X61137462Y-52693941D01*
X61151584Y-52704478D01*
X61166730Y-52703355D01*
X61173801Y-52689732D01*
X61176178Y-52670988D01*
X61190636Y-52632205D01*
X61213606Y-52595736D01*
X61239714Y-52571238D01*
X61246102Y-52567326D01*
X61253597Y-52563034D01*
X61261780Y-52559961D01*
X61272340Y-52558490D01*
X61286967Y-52559000D01*
G37*
G36*
X57386914Y-53062308D02*
G01*
X57391961Y-53076215D01*
X57389114Y-53095889D01*
X57381313Y-53124099D01*
X57372944Y-53149813D01*
X57361476Y-53174646D01*
X57352025Y-53184247D01*
X57344325Y-53183277D01*
X57319059Y-53177661D01*
X57285856Y-53168708D01*
X57271044Y-53164458D01*
X57226035Y-53151881D01*
X57186151Y-53141140D01*
X57173320Y-53137257D01*
X57150505Y-53126591D01*
X57142658Y-53116550D01*
X57141253Y-53109344D01*
X57126823Y-53099943D01*
X57118876Y-53099939D01*
X57106794Y-53111551D01*
X57096165Y-53141322D01*
X57093726Y-53149368D01*
X57077709Y-53185032D01*
X57058001Y-53212680D01*
X57037233Y-53228238D01*
X56996861Y-53238613D01*
X56990684Y-53237771D01*
X56964464Y-53232049D01*
X56921132Y-53221493D01*
X56863170Y-53206775D01*
X56793061Y-53188571D01*
X56713289Y-53167552D01*
X56626334Y-53144393D01*
X56534680Y-53119766D01*
X56440810Y-53094346D01*
X56347207Y-53068806D01*
X56256352Y-53043819D01*
X56170729Y-53020059D01*
X56092820Y-52998199D01*
X56025108Y-52978913D01*
X55970075Y-52962874D01*
X55930205Y-52950756D01*
X55907979Y-52943231D01*
X55883874Y-52929513D01*
X55861767Y-52908496D01*
X55856201Y-52898323D01*
X55847428Y-52861561D01*
X55847451Y-52817875D01*
X55856642Y-52776818D01*
X55858711Y-52771097D01*
X55861513Y-52751689D01*
X55851067Y-52742274D01*
X55842447Y-52740621D01*
X55821287Y-52746787D01*
X55819809Y-52747608D01*
X55800468Y-52748341D01*
X55765582Y-52743075D01*
X55719411Y-52732743D01*
X55667931Y-52718743D01*
X56018436Y-52718743D01*
X56030849Y-52773447D01*
X56060075Y-52823784D01*
X56065390Y-52830518D01*
X56078471Y-52844625D01*
X56094534Y-52857440D01*
X56115833Y-52869817D01*
X56144626Y-52882611D01*
X56183168Y-52896674D01*
X56233716Y-52912861D01*
X56298524Y-52932025D01*
X56379850Y-52955022D01*
X56479949Y-52982703D01*
X56496619Y-52987289D01*
X56573515Y-53008500D01*
X56643297Y-53027842D01*
X56703192Y-53044540D01*
X56750430Y-53057819D01*
X56782237Y-53066904D01*
X56795842Y-53071021D01*
X56801225Y-53072373D01*
X56816899Y-53068603D01*
X56824277Y-53052976D01*
X56820727Y-53030905D01*
X56805458Y-53016873D01*
X56802826Y-53016103D01*
X56781754Y-53010109D01*
X56743391Y-52999294D01*
X56690510Y-52984435D01*
X56625883Y-52966310D01*
X56552280Y-52945699D01*
X56472474Y-52923378D01*
X56446832Y-52916194D01*
X56368608Y-52894069D01*
X56297441Y-52873633D01*
X56236111Y-52855705D01*
X56187401Y-52841103D01*
X56154092Y-52830648D01*
X56138964Y-52825158D01*
X56118565Y-52809374D01*
X56096819Y-52785974D01*
X56091341Y-52778996D01*
X56084971Y-52770010D01*
X56079894Y-52760189D01*
X56076396Y-52748276D01*
X56074762Y-52733015D01*
X56075278Y-52713148D01*
X56078229Y-52687419D01*
X56083900Y-52654571D01*
X56092578Y-52613348D01*
X56104547Y-52562493D01*
X56120093Y-52500750D01*
X56139501Y-52426861D01*
X56163058Y-52339570D01*
X56191048Y-52237621D01*
X56223758Y-52119757D01*
X56261472Y-51984720D01*
X56304476Y-51831255D01*
X56353055Y-51658105D01*
X56368970Y-51600981D01*
X56385127Y-51541175D01*
X56396036Y-51497357D01*
X56402234Y-51466755D01*
X56404260Y-51446594D01*
X56402650Y-51434101D01*
X56397943Y-51426502D01*
X56395012Y-51423644D01*
X56381688Y-51416439D01*
X56368686Y-51427153D01*
X56367294Y-51430049D01*
X56360148Y-51450872D01*
X56348112Y-51489535D01*
X56331811Y-51543840D01*
X56311870Y-51611586D01*
X56288914Y-51690574D01*
X56263569Y-51778604D01*
X56236460Y-51873477D01*
X56208211Y-51972993D01*
X56179448Y-52074953D01*
X56150797Y-52177156D01*
X56122883Y-52277404D01*
X56096330Y-52373496D01*
X56071764Y-52463234D01*
X56049811Y-52544416D01*
X56031095Y-52614844D01*
X56022235Y-52655321D01*
X56018436Y-52718743D01*
X55667931Y-52718743D01*
X55666217Y-52718277D01*
X55610258Y-52700608D01*
X55605964Y-52693982D01*
X55606997Y-52669620D01*
X55616224Y-52630456D01*
X55633092Y-52579422D01*
X55640886Y-52576320D01*
X55664898Y-52578122D01*
X55699766Y-52584964D01*
X55740186Y-52595334D01*
X55780856Y-52607715D01*
X55816471Y-52620592D01*
X55841729Y-52632450D01*
X55851327Y-52641774D01*
X55853793Y-52649698D01*
X55869405Y-52660076D01*
X55870658Y-52660217D01*
X55884557Y-52650201D01*
X55899436Y-52620460D01*
X55914587Y-52572777D01*
X55929305Y-52508932D01*
X55930497Y-52502916D01*
X55932468Y-52483348D01*
X55923830Y-52477740D01*
X55899202Y-52481119D01*
X55886750Y-52481627D01*
X55854634Y-52478346D01*
X55813111Y-52471198D01*
X55768367Y-52461562D01*
X55726592Y-52450819D01*
X55693975Y-52440347D01*
X55676704Y-52431527D01*
X55676489Y-52426387D01*
X55680225Y-52405704D01*
X55687318Y-52376043D01*
X55695865Y-52344667D01*
X55703958Y-52318837D01*
X55709693Y-52305813D01*
X55715616Y-52305133D01*
X55738051Y-52309316D01*
X55771813Y-52318358D01*
X55811517Y-52330502D01*
X55851775Y-52343993D01*
X55887199Y-52357076D01*
X55912405Y-52367996D01*
X55922003Y-52374997D01*
X55922339Y-52377206D01*
X55932316Y-52389649D01*
X55948476Y-52399050D01*
X55960385Y-52398907D01*
X55963069Y-52391409D01*
X55970077Y-52367951D01*
X55979591Y-52334516D01*
X55989925Y-52297203D01*
X55999393Y-52262113D01*
X56006310Y-52235346D01*
X56008990Y-52223003D01*
X56008458Y-52220712D01*
X55996562Y-52213280D01*
X55978125Y-52211412D01*
X55965309Y-52216827D01*
X55963098Y-52218793D01*
X55945228Y-52220150D01*
X55909880Y-52213808D01*
X55855707Y-52199556D01*
X55827888Y-52191531D01*
X55788744Y-52179908D01*
X55761127Y-52171274D01*
X55749743Y-52167071D01*
X55749975Y-52159105D01*
X55755003Y-52135353D01*
X55763995Y-52101934D01*
X55765131Y-52098033D01*
X55775417Y-52065403D01*
X55784355Y-52048907D01*
X55795981Y-52044108D01*
X55814328Y-52046568D01*
X55829057Y-52049679D01*
X55877619Y-52061988D01*
X55923418Y-52076303D01*
X55961842Y-52090924D01*
X55988279Y-52104152D01*
X55998116Y-52114287D01*
X56001513Y-52122738D01*
X56018249Y-52129538D01*
X56023276Y-52128891D01*
X56034906Y-52119743D01*
X56045783Y-52096770D01*
X56057979Y-52056143D01*
X56058045Y-52055894D01*
X56068561Y-52017175D01*
X56077333Y-51986054D01*
X56082467Y-51969248D01*
X56082996Y-51963310D01*
X56073427Y-51951306D01*
X56056702Y-51946456D01*
X56043174Y-51953033D01*
X56036416Y-51955347D01*
X56012830Y-51953749D01*
X55977906Y-51947425D01*
X55937098Y-51937812D01*
X55895863Y-51926351D01*
X55859656Y-51914478D01*
X55833931Y-51903635D01*
X55824144Y-51895259D01*
X55825322Y-51886902D01*
X55831299Y-51861402D01*
X55840634Y-51827870D01*
X55857125Y-51772340D01*
X55957522Y-51799549D01*
X56010374Y-51815490D01*
X56053438Y-51833310D01*
X56076361Y-51850387D01*
X56085430Y-51860521D01*
X56097525Y-51865687D01*
X56108415Y-51855740D01*
X56119851Y-51828594D01*
X56133580Y-51782165D01*
X56143511Y-51746503D01*
X56152882Y-51714441D01*
X56158769Y-51696173D01*
X56160302Y-51689211D01*
X56152877Y-51684336D01*
X56129032Y-51687451D01*
X56122955Y-51688166D01*
X56093044Y-51686722D01*
X56051996Y-51680734D01*
X56006357Y-51671613D01*
X55962676Y-51660774D01*
X55927501Y-51649630D01*
X55907377Y-51639595D01*
X55905128Y-51630251D01*
X55906504Y-51606084D01*
X55911241Y-51574748D01*
X55917972Y-51543446D01*
X55925335Y-51519382D01*
X55931965Y-51509760D01*
X55946338Y-51512498D01*
X55975888Y-51520006D01*
X56014426Y-51530568D01*
X56055955Y-51542465D01*
X56094479Y-51553979D01*
X56123999Y-51563389D01*
X56138519Y-51568976D01*
X56142807Y-51572899D01*
X56143876Y-51587539D01*
X56144974Y-51594087D01*
X56162051Y-51594943D01*
X56174500Y-51590812D01*
X56185749Y-51578461D01*
X56196251Y-51553693D01*
X56208501Y-51512054D01*
X56211214Y-51501866D01*
X56220730Y-51459973D01*
X56222802Y-51434088D01*
X56217793Y-51420636D01*
X56207881Y-51414248D01*
X56190995Y-51420619D01*
X56183705Y-51424173D01*
X56163631Y-51424888D01*
X56130170Y-51419049D01*
X56079804Y-51406201D01*
X56057940Y-51400025D01*
X56018072Y-51387845D01*
X55988959Y-51377696D01*
X55975747Y-51371303D01*
X55974141Y-51362906D01*
X55976961Y-51338232D01*
X55984858Y-51304862D01*
X55994639Y-51272858D01*
X56003487Y-51255756D01*
X56015268Y-51250760D01*
X56034342Y-51253328D01*
X56040129Y-51254508D01*
X56091682Y-51266832D01*
X56139357Y-51281137D01*
X56178802Y-51295824D01*
X56205661Y-51309291D01*
X56215582Y-51319938D01*
X56219629Y-51329149D01*
X56237172Y-51335788D01*
X56248358Y-51333273D01*
X56260681Y-51318521D01*
X56271154Y-51286576D01*
X56273487Y-51278143D01*
X56296021Y-51232780D01*
X56330136Y-51204307D01*
X56373923Y-51194435D01*
X56375919Y-51194567D01*
X56397392Y-51198599D01*
X56437192Y-51207845D01*
X56493173Y-51221747D01*
X56563186Y-51239748D01*
X56645082Y-51261289D01*
X56736713Y-51285813D01*
X56835930Y-51312762D01*
X56940585Y-51341578D01*
X56974805Y-51351069D01*
X57091314Y-51383518D01*
X57188974Y-51410998D01*
X57269487Y-51434044D01*
X57334555Y-51453192D01*
X57385880Y-51468975D01*
X57425163Y-51481929D01*
X57454106Y-51492590D01*
X57474410Y-51501491D01*
X57487778Y-51509168D01*
X57495912Y-51516157D01*
X57512006Y-51541950D01*
X57520014Y-51589383D01*
X57510099Y-51649036D01*
X57506681Y-51662308D01*
X57505864Y-51681895D01*
X57515674Y-51690956D01*
X57524463Y-51692463D01*
X57545312Y-51685599D01*
X57549369Y-51683370D01*
X57569234Y-51682148D01*
X57604125Y-51688242D01*
X57656624Y-51702034D01*
X57680059Y-51708812D01*
X57719057Y-51720497D01*
X57746869Y-51729381D01*
X57758616Y-51733937D01*
X57759246Y-51741163D01*
X57756250Y-51764595D01*
X57749681Y-51797835D01*
X57749036Y-51800695D01*
X57738593Y-51836750D01*
X57724793Y-51854493D01*
X57702373Y-51857056D01*
X57666070Y-51847569D01*
X57648816Y-51842240D01*
X57612306Y-51831498D01*
X57572117Y-51820109D01*
X57544481Y-51811045D01*
X57520475Y-51799542D01*
X57512314Y-51790116D01*
X57510934Y-51782860D01*
X57496534Y-51773406D01*
X57484950Y-51775401D01*
X57473528Y-51791350D01*
X57461529Y-51825262D01*
X57453139Y-51854211D01*
X57440881Y-51902197D01*
X57436083Y-51933466D01*
X57438491Y-51950445D01*
X57447849Y-51955565D01*
X57455810Y-51954619D01*
X57470508Y-51946211D01*
X57477557Y-51944718D01*
X57501185Y-51947619D01*
X57536015Y-51954929D01*
X57576635Y-51965168D01*
X57617629Y-51976858D01*
X57653583Y-51988519D01*
X57679083Y-51998671D01*
X57688715Y-52005835D01*
X57687493Y-52014046D01*
X57682120Y-52039100D01*
X57673952Y-52072814D01*
X57673721Y-52073723D01*
X57663470Y-52107396D01*
X57653508Y-52123281D01*
X57641530Y-52125099D01*
X57637655Y-52124001D01*
X57613894Y-52117463D01*
X57577273Y-52107519D01*
X57533968Y-52095849D01*
X57520081Y-52091972D01*
X57480884Y-52079118D01*
X57454150Y-52067289D01*
X57444264Y-52058319D01*
X57443940Y-52056109D01*
X57434012Y-52043498D01*
X57417849Y-52033998D01*
X57405833Y-52034140D01*
X57405149Y-52035578D01*
X57399722Y-52052140D01*
X57390567Y-52082945D01*
X57379225Y-52122853D01*
X57369074Y-52161181D01*
X57363083Y-52191481D01*
X57363375Y-52208830D01*
X57369524Y-52217372D01*
X57377698Y-52220168D01*
X57397191Y-52214982D01*
X57400532Y-52213118D01*
X57420802Y-52211983D01*
X57457200Y-52218462D01*
X57511726Y-52232865D01*
X57538551Y-52240660D01*
X57577500Y-52252326D01*
X57604940Y-52261005D01*
X57616161Y-52265236D01*
X57616273Y-52273939D01*
X57611145Y-52297072D01*
X57602363Y-52327355D01*
X57592166Y-52357727D01*
X57582789Y-52381127D01*
X57576471Y-52390497D01*
X57563906Y-52387903D01*
X57536028Y-52380969D01*
X57498651Y-52371222D01*
X57457539Y-52360189D01*
X57418460Y-52349396D01*
X57387179Y-52340370D01*
X57377134Y-52334995D01*
X57368151Y-52319087D01*
X57364751Y-52310452D01*
X57348018Y-52303510D01*
X57342991Y-52304157D01*
X57331361Y-52313304D01*
X57320484Y-52336278D01*
X57308288Y-52376905D01*
X57308222Y-52377154D01*
X57297706Y-52415873D01*
X57288934Y-52446994D01*
X57283800Y-52463800D01*
X57283283Y-52470177D01*
X57293053Y-52481962D01*
X57309888Y-52486302D01*
X57323576Y-52479234D01*
X57327561Y-52476309D01*
X57346241Y-52475599D01*
X57380987Y-52481983D01*
X57433929Y-52495781D01*
X57462129Y-52503768D01*
X57501401Y-52515177D01*
X57529139Y-52523606D01*
X57540630Y-52527648D01*
X57542123Y-52531884D01*
X57539956Y-52551749D01*
X57532769Y-52580629D01*
X57522828Y-52611154D01*
X57512398Y-52635950D01*
X57503746Y-52647647D01*
X57494757Y-52648951D01*
X57465692Y-52645811D01*
X57426244Y-52636909D01*
X57382676Y-52624167D01*
X57341255Y-52609503D01*
X57308243Y-52594839D01*
X57289906Y-52582094D01*
X57283035Y-52574319D01*
X57269957Y-52567090D01*
X57258414Y-52575304D01*
X57246628Y-52600950D01*
X57232823Y-52646019D01*
X57224268Y-52676724D01*
X57215114Y-52709388D01*
X57209568Y-52728939D01*
X57209986Y-52740780D01*
X57226493Y-52752386D01*
X57239871Y-52753850D01*
X57248545Y-52748297D01*
X57250723Y-52743517D01*
X57265793Y-52738442D01*
X57272500Y-52739056D01*
X57298786Y-52744336D01*
X57335392Y-52753547D01*
X57376026Y-52764890D01*
X57414393Y-52776566D01*
X57444199Y-52786776D01*
X57459151Y-52793719D01*
X57460674Y-52796386D01*
X57461453Y-52815460D01*
X57457552Y-52844897D01*
X57450567Y-52876923D01*
X57442092Y-52903764D01*
X57433723Y-52917646D01*
X57432766Y-52918087D01*
X57414888Y-52917484D01*
X57383167Y-52910575D01*
X57343172Y-52899179D01*
X57300469Y-52885116D01*
X57260627Y-52870206D01*
X57229211Y-52856267D01*
X57211789Y-52845118D01*
X57210862Y-52844136D01*
X57197815Y-52833130D01*
X57187489Y-52833339D01*
X57178135Y-52847290D01*
X57167999Y-52877508D01*
X57155329Y-52926521D01*
X57152376Y-52938843D01*
X57144779Y-52977397D01*
X57144004Y-53000890D01*
X57149769Y-53013707D01*
X57160337Y-53020425D01*
X57171912Y-53011114D01*
X57173060Y-53009436D01*
X57181815Y-53003756D01*
X57198367Y-53003520D01*
X57227009Y-53009156D01*
X57272038Y-53021091D01*
X57295016Y-53027468D01*
X57341382Y-53040705D01*
X57371035Y-53051395D01*
X57373335Y-53052976D01*
X57386914Y-53062308D01*
G37*
G36*
X58821896Y-51876239D02*
G01*
X58854504Y-51882722D01*
X58905253Y-51894532D01*
X58972689Y-51911300D01*
X59055355Y-51932655D01*
X59151793Y-51958226D01*
X59260548Y-51987643D01*
X59380164Y-52020534D01*
X59445772Y-52038704D01*
X59563660Y-52071415D01*
X59662948Y-52099269D01*
X59745200Y-52122951D01*
X59811981Y-52143147D01*
X59864853Y-52160540D01*
X59905382Y-52175817D01*
X59935130Y-52189663D01*
X59955662Y-52202762D01*
X59968542Y-52215799D01*
X59975332Y-52229460D01*
X59977598Y-52244430D01*
X59976904Y-52261394D01*
X59974812Y-52281037D01*
X59973190Y-52294451D01*
X59967765Y-52327028D01*
X59962121Y-52348319D01*
X59960796Y-52356586D01*
X59969373Y-52370711D01*
X59985601Y-52376142D01*
X59999980Y-52367952D01*
X60004268Y-52364862D01*
X60022886Y-52364294D01*
X60057229Y-52370837D01*
X60109582Y-52384844D01*
X60137147Y-52392863D01*
X60176249Y-52404622D01*
X60203837Y-52413419D01*
X60215202Y-52417787D01*
X60216592Y-52425657D01*
X60213378Y-52448601D01*
X60206031Y-52478980D01*
X60196598Y-52509593D01*
X60187127Y-52533240D01*
X60179665Y-52542723D01*
X60172902Y-52541726D01*
X60148126Y-52536178D01*
X60111406Y-52527034D01*
X60068374Y-52515751D01*
X60024660Y-52503786D01*
X59985895Y-52492596D01*
X59975858Y-52487107D01*
X59966866Y-52470516D01*
X59964281Y-52462266D01*
X59949002Y-52457657D01*
X59938432Y-52466000D01*
X59923418Y-52495430D01*
X59906611Y-52546205D01*
X59904465Y-52553682D01*
X59893664Y-52593890D01*
X59889259Y-52618379D01*
X59890847Y-52631438D01*
X59898024Y-52637354D01*
X59906271Y-52638914D01*
X59925003Y-52632428D01*
X59939124Y-52630759D01*
X59968791Y-52634292D01*
X60008715Y-52641905D01*
X60053620Y-52652469D01*
X60098227Y-52664850D01*
X60137259Y-52677919D01*
X60141499Y-52684429D01*
X60140620Y-52708805D01*
X60131423Y-52748132D01*
X60114445Y-52799550D01*
X60106763Y-52802920D01*
X60082799Y-52801549D01*
X60047935Y-52795078D01*
X60007486Y-52784997D01*
X59966770Y-52772798D01*
X59931104Y-52759969D01*
X59905805Y-52748001D01*
X59896190Y-52738384D01*
X59893585Y-52729729D01*
X59877764Y-52718881D01*
X59869603Y-52719219D01*
X59857641Y-52731628D01*
X59847095Y-52762225D01*
X59845199Y-52769440D01*
X59833720Y-52811854D01*
X59822769Y-52850748D01*
X59818554Y-52870488D01*
X59820716Y-52896377D01*
X59834208Y-52906871D01*
X59857306Y-52899534D01*
X59861383Y-52897670D01*
X59882572Y-52896393D01*
X59918307Y-52902585D01*
X59971364Y-52916664D01*
X59994169Y-52923347D01*
X60032826Y-52935048D01*
X60060237Y-52943857D01*
X60071566Y-52948249D01*
X60071312Y-52956292D01*
X60066364Y-52980161D01*
X60057543Y-53013667D01*
X60049268Y-53041243D01*
X60040754Y-53065981D01*
X60035876Y-53075514D01*
X60030741Y-53074401D01*
X60008416Y-53068629D01*
X59972820Y-53059043D01*
X59928659Y-53046900D01*
X59915576Y-53043196D01*
X59866505Y-53027420D01*
X59836002Y-53013954D01*
X59825514Y-53003406D01*
X59821119Y-52992667D01*
X59806094Y-52988721D01*
X59788347Y-52995291D01*
X59776334Y-53011060D01*
X59769254Y-53023899D01*
X59756573Y-53028817D01*
X59755794Y-53028555D01*
X59739606Y-53023820D01*
X59704876Y-53013965D01*
X59653656Y-52999562D01*
X59587998Y-52981187D01*
X59509955Y-52959412D01*
X59421580Y-52934811D01*
X59324927Y-52907959D01*
X59222046Y-52879428D01*
X59201871Y-52873836D01*
X59100452Y-52845687D01*
X59005941Y-52819388D01*
X58920348Y-52795503D01*
X58845679Y-52774594D01*
X58783941Y-52757225D01*
X58737142Y-52743958D01*
X58707290Y-52735357D01*
X58696391Y-52731985D01*
X58696314Y-52731310D01*
X58699350Y-52716252D01*
X58707410Y-52683490D01*
X58719799Y-52635671D01*
X58735825Y-52575443D01*
X58754791Y-52505454D01*
X58776004Y-52428351D01*
X58780289Y-52412835D01*
X58801090Y-52335983D01*
X58819339Y-52266045D01*
X58834352Y-52205820D01*
X58845450Y-52158110D01*
X58851949Y-52125712D01*
X58853169Y-52111429D01*
X58847239Y-52103599D01*
X58828301Y-52098908D01*
X58821941Y-52103757D01*
X58813527Y-52118509D01*
X58802892Y-52144968D01*
X58789409Y-52185009D01*
X58772450Y-52240505D01*
X58751387Y-52313330D01*
X58725592Y-52405357D01*
X58720365Y-52424176D01*
X58699133Y-52500223D01*
X58679876Y-52568578D01*
X58663353Y-52626586D01*
X58650325Y-52671591D01*
X58641551Y-52700941D01*
X58637793Y-52711979D01*
X58634196Y-52712436D01*
X58614929Y-52709143D01*
X58585525Y-52701385D01*
X58556557Y-52691033D01*
X58540872Y-52678722D01*
X58536557Y-52661082D01*
X58535545Y-52649530D01*
X58526929Y-52638679D01*
X58503937Y-52638067D01*
X58495356Y-52638085D01*
X58465066Y-52634293D01*
X58424685Y-52626454D01*
X58380519Y-52616107D01*
X58338873Y-52604793D01*
X58306054Y-52594051D01*
X58288366Y-52585421D01*
X58286893Y-52582776D01*
X58286164Y-52563751D01*
X58289969Y-52534343D01*
X58296752Y-52502356D01*
X58304956Y-52475592D01*
X58313023Y-52461855D01*
X58317556Y-52461518D01*
X58339527Y-52464978D01*
X58374676Y-52472944D01*
X58417945Y-52484333D01*
X58463780Y-52498427D01*
X58509374Y-52517269D01*
X58533567Y-52535102D01*
X58548175Y-52549335D01*
X58559157Y-52551402D01*
X58560389Y-52549604D01*
X58567914Y-52531542D01*
X58578801Y-52499552D01*
X58591139Y-52459142D01*
X58594533Y-52447371D01*
X58604861Y-52408750D01*
X58608875Y-52385148D01*
X58606982Y-52372007D01*
X58599592Y-52364767D01*
X58589931Y-52361282D01*
X58574864Y-52369109D01*
X58561722Y-52373241D01*
X58534051Y-52371157D01*
X58497087Y-52364113D01*
X58455945Y-52353570D01*
X58415745Y-52340985D01*
X58381605Y-52327818D01*
X58358641Y-52315528D01*
X58351973Y-52305574D01*
X58353862Y-52300133D01*
X58361314Y-52274959D01*
X58369980Y-52242307D01*
X58376436Y-52219871D01*
X58388140Y-52200434D01*
X58407373Y-52196535D01*
X58440265Y-52204914D01*
X58457579Y-52210261D01*
X58494104Y-52221006D01*
X58534311Y-52232401D01*
X58556153Y-52239145D01*
X58586328Y-52252791D01*
X58596832Y-52265758D01*
X58600761Y-52274988D01*
X58618158Y-52281764D01*
X58631895Y-52274687D01*
X58648552Y-52247162D01*
X58664496Y-52199932D01*
X58679259Y-52134121D01*
X58680484Y-52125790D01*
X58677757Y-52102067D01*
X58665041Y-52095126D01*
X58645218Y-52107241D01*
X58644486Y-52107733D01*
X58628600Y-52108053D01*
X58598404Y-52103426D01*
X58559575Y-52095244D01*
X58517787Y-52084900D01*
X58478718Y-52073785D01*
X58448045Y-52063292D01*
X58431442Y-52054813D01*
X58429319Y-52048780D01*
X58431308Y-52026965D01*
X58438686Y-51997215D01*
X58449127Y-51966862D01*
X58460303Y-51943237D01*
X58469889Y-51933672D01*
X58473387Y-51933993D01*
X58495265Y-51938252D01*
X58530364Y-51946431D01*
X58572948Y-51957219D01*
X58616535Y-51970008D01*
X58655620Y-51985989D01*
X58673909Y-52000859D01*
X58681999Y-52012774D01*
X58698078Y-52019737D01*
X58713570Y-52006116D01*
X58727096Y-51972645D01*
X58740307Y-51938319D01*
X58770162Y-51898026D01*
X58809316Y-51875251D01*
X58821896Y-51876239D01*
G37*
G36*
X63008482Y-52212525D02*
G01*
X63040126Y-52218507D01*
X63084190Y-52228940D01*
X63143490Y-52244378D01*
X63220843Y-52265370D01*
X63246238Y-52272336D01*
X63314552Y-52291073D01*
X63376426Y-52308040D01*
X63428226Y-52322242D01*
X63466320Y-52332682D01*
X63487076Y-52338364D01*
X63506746Y-52346005D01*
X63535829Y-52372301D01*
X63548196Y-52410667D01*
X63542710Y-52458647D01*
X63539824Y-52467834D01*
X63524795Y-52502790D01*
X63507816Y-52529131D01*
X63486270Y-52545765D01*
X63460950Y-52553596D01*
X63458932Y-52553475D01*
X63437354Y-52549517D01*
X63399181Y-52540625D01*
X63347995Y-52527698D01*
X63287379Y-52511637D01*
X63220915Y-52493339D01*
X63158770Y-52475904D01*
X63087970Y-52455925D01*
X63033832Y-52440380D01*
X62993854Y-52428448D01*
X62965538Y-52419308D01*
X62946381Y-52412142D01*
X62933884Y-52406129D01*
X62925545Y-52400448D01*
X62918865Y-52394281D01*
X62911649Y-52384536D01*
X62902996Y-52351866D01*
X62905355Y-52311708D01*
X62917078Y-52270904D01*
X62936521Y-52236299D01*
X62962038Y-52214737D01*
X62971179Y-52211714D01*
X62986439Y-52210445D01*
X63008482Y-52212525D01*
G37*
D12*
%TO.C,J1*%
X49465000Y-81848000D02*
X49465000Y-76648000D01*
X97785000Y-79248000D02*
X100385000Y-79248000D01*
X97785000Y-81848000D02*
X49465000Y-81848000D01*
X97785000Y-81848000D02*
X97785000Y-79248000D01*
X99055000Y-81848000D02*
X100385000Y-81848000D01*
X100385000Y-76648000D02*
X49465000Y-76648000D01*
X100385000Y-79248000D02*
X100385000Y-76648000D01*
X100385000Y-81848000D02*
X100385000Y-80518000D01*
%TD*%
M02*
