%TF.GenerationSoftware,KiCad,Pcbnew,9.0.0*%
%TF.CreationDate,2025-03-29T21:15:17+01:00*%
%TF.ProjectId,p2000t-ram-expansion-board-128kb-smd-cpld,70323030-3074-42d7-9261-6d2d65787061,4*%
%TF.SameCoordinates,Original*%
%TF.FileFunction,Copper,L1,Top*%
%TF.FilePolarity,Positive*%
%FSLAX46Y46*%
G04 Gerber Fmt 4.6, Leading zero omitted, Abs format (unit mm)*
G04 Created by KiCad (PCBNEW 9.0.0) date 2025-03-29 21:15:17*
%MOMM*%
%LPD*%
G01*
G04 APERTURE LIST*
G04 Aperture macros list*
%AMRoundRect*
0 Rectangle with rounded corners*
0 $1 Rounding radius*
0 $2 $3 $4 $5 $6 $7 $8 $9 X,Y pos of 4 corners*
0 Add a 4 corners polygon primitive as box body*
4,1,4,$2,$3,$4,$5,$6,$7,$8,$9,$2,$3,0*
0 Add four circle primitives for the rounded corners*
1,1,$1+$1,$2,$3*
1,1,$1+$1,$4,$5*
1,1,$1+$1,$6,$7*
1,1,$1+$1,$8,$9*
0 Add four rect primitives between the rounded corners*
20,1,$1+$1,$2,$3,$4,$5,0*
20,1,$1+$1,$4,$5,$6,$7,0*
20,1,$1+$1,$6,$7,$8,$9,0*
20,1,$1+$1,$8,$9,$2,$3,0*%
%AMRotRect*
0 Rectangle, with rotation*
0 The origin of the aperture is its center*
0 $1 length*
0 $2 width*
0 $3 Rotation angle, in degrees counterclockwise*
0 Add horizontal line*
21,1,$1,$2,0,0,$3*%
G04 Aperture macros list end*
%TA.AperFunction,SMDPad,CuDef*%
%ADD10RoundRect,0.250000X0.574524X0.097227X0.097227X0.574524X-0.574524X-0.097227X-0.097227X-0.574524X0*%
%TD*%
%TA.AperFunction,SMDPad,CuDef*%
%ADD11RoundRect,0.250000X-0.097227X0.574524X-0.574524X0.097227X0.097227X-0.574524X0.574524X-0.097227X0*%
%TD*%
%TA.AperFunction,ComponentPad*%
%ADD12R,1.600000X1.600000*%
%TD*%
%TA.AperFunction,ComponentPad*%
%ADD13O,1.600000X1.600000*%
%TD*%
%TA.AperFunction,SMDPad,CuDef*%
%ADD14RoundRect,0.250000X0.337500X0.475000X-0.337500X0.475000X-0.337500X-0.475000X0.337500X-0.475000X0*%
%TD*%
%TA.AperFunction,ComponentPad*%
%ADD15RoundRect,0.250000X-0.600000X-0.600000X0.600000X-0.600000X0.600000X0.600000X-0.600000X0.600000X0*%
%TD*%
%TA.AperFunction,ComponentPad*%
%ADD16C,1.700000*%
%TD*%
%TA.AperFunction,ComponentPad*%
%ADD17R,1.700000X1.700000*%
%TD*%
%TA.AperFunction,ComponentPad*%
%ADD18O,1.700000X1.700000*%
%TD*%
%TA.AperFunction,SMDPad,CuDef*%
%ADD19RoundRect,0.250000X0.097227X-0.574524X0.574524X-0.097227X-0.097227X0.574524X-0.574524X0.097227X0*%
%TD*%
%TA.AperFunction,SMDPad,CuDef*%
%ADD20RotRect,1.500000X0.550000X135.000000*%
%TD*%
%TA.AperFunction,SMDPad,CuDef*%
%ADD21RotRect,1.500000X0.550000X45.000000*%
%TD*%
%TA.AperFunction,SMDPad,CuDef*%
%ADD22RoundRect,0.150000X-0.875000X-0.150000X0.875000X-0.150000X0.875000X0.150000X-0.875000X0.150000X0*%
%TD*%
%TA.AperFunction,ComponentPad*%
%ADD23C,1.600000*%
%TD*%
%TA.AperFunction,ComponentPad*%
%ADD24R,3.000000X3.000000*%
%TD*%
%TA.AperFunction,ComponentPad*%
%ADD25C,3.000000*%
%TD*%
%TA.AperFunction,SMDPad,CuDef*%
%ADD26RoundRect,0.250000X-0.574524X-0.097227X-0.097227X-0.574524X0.574524X0.097227X0.097227X0.574524X0*%
%TD*%
%TA.AperFunction,ViaPad*%
%ADD27C,0.800000*%
%TD*%
%TA.AperFunction,Conductor*%
%ADD28C,0.250000*%
%TD*%
%TA.AperFunction,Conductor*%
%ADD29C,0.500000*%
%TD*%
%TA.AperFunction,Conductor*%
%ADD30C,1.000000*%
%TD*%
G04 APERTURE END LIST*
D10*
%TO.P,C7,2*%
%TO.N,GND*%
X77020877Y-65381877D03*
%TO.P,C7,1*%
%TO.N,+5V*%
X78488123Y-66849123D03*
%TD*%
D11*
%TO.P,C1,1*%
%TO.N,+5V*%
X90988123Y-65599177D03*
%TO.P,C1,2*%
%TO.N,GND*%
X89520877Y-67066423D03*
%TD*%
D12*
%TO.P,D1,1,K*%
%TO.N,+5V*%
X48500000Y-70120000D03*
D13*
%TO.P,D1,2,A*%
%TO.N,VCC*%
X48500000Y-62500000D03*
%TD*%
D14*
%TO.P,C5,1*%
%TO.N,+5V*%
X62345000Y-47544000D03*
%TO.P,C5,2*%
%TO.N,GND*%
X60270000Y-47544000D03*
%TD*%
D15*
%TO.P,J4,1,TCK*%
%TO.N,TCK*%
X104210000Y-53090000D03*
D16*
%TO.P,J4,2,GND*%
%TO.N,GND*%
X106750000Y-53090000D03*
%TO.P,J4,3,TDO*%
%TO.N,TDO*%
X104210000Y-55630000D03*
%TO.P,J4,4,VccT*%
%TO.N,+5V*%
X106750000Y-55630000D03*
%TO.P,J4,5,TMS*%
%TO.N,TMS*%
X104210000Y-58170000D03*
%TO.P,J4,6,NC*%
%TO.N,unconnected-(J4-NC-Pad6)*%
X106750000Y-58170000D03*
%TO.P,J4,7,NC*%
%TO.N,unconnected-(J4-NC-Pad7)*%
X104210000Y-60710000D03*
%TO.P,J4,8,NC*%
%TO.N,unconnected-(J4-NC-Pad8)*%
X106750000Y-60710000D03*
%TO.P,J4,9,TDI*%
%TO.N,TDI*%
X104210000Y-63250000D03*
%TO.P,J4,10,GND*%
%TO.N,GND*%
X106750000Y-63250000D03*
%TD*%
D17*
%TO.P,J2,1,Pin_1*%
%TO.N,GND*%
X42158000Y-64770000D03*
D18*
%TO.P,J2,2,Pin_2*%
%TO.N,VCC*%
X42158000Y-67310000D03*
%TD*%
D19*
%TO.P,C6,1*%
%TO.N,+5V*%
X76770877Y-53316423D03*
%TO.P,C6,2*%
%TO.N,GND*%
X78238123Y-51849177D03*
%TD*%
D20*
%TO.P,U1,44,I/O*%
%TO.N,R3*%
X77229164Y-58197018D03*
%TO.P,U1,43,I/O*%
%TO.N,R2*%
X77794850Y-57631333D03*
%TO.P,U1,42,I/O*%
%TO.N,R1*%
X78360535Y-57065648D03*
%TO.P,U1,41,VCC*%
%TO.N,+5V*%
X78926220Y-56499962D03*
%TO.P,U1,40,I/OE2/GCLK2*%
%TO.N,unconnected-(U1-I{slash}OE2{slash}GCLK2-Pad40)*%
X79491906Y-55934277D03*
%TO.P,U1,39,I/GCLR*%
%TO.N,unconnected-(U1-I{slash}GCLR-Pad39)*%
X80057591Y-55368591D03*
%TO.P,U1,38,I/OE1/Vpp*%
%TO.N,A14*%
X80623277Y-54802906D03*
%TO.P,U1,37,I/GCLK1*%
%TO.N,A13*%
X81188962Y-54237220D03*
%TO.P,U1,36,GND*%
%TO.N,GND*%
X81754648Y-53671535D03*
%TO.P,U1,35,I/O/GCLK3*%
%TO.N,R0*%
X82320333Y-53105850D03*
%TO.P,U1,34,I/O*%
%TO.N,D7*%
X82886018Y-52540164D03*
D21*
%TO.P,U1,33,I/O*%
%TO.N,D6*%
X85290182Y-52540164D03*
%TO.P,U1,32,I/O/TDO*%
%TO.N,TDO*%
X85855867Y-53105850D03*
%TO.P,U1,31,I/O*%
%TO.N,D5*%
X86421552Y-53671535D03*
%TO.P,U1,30,I/O*%
%TO.N,D4*%
X86987238Y-54237220D03*
%TO.P,U1,29,VCC*%
%TO.N,+5V*%
X87552923Y-54802906D03*
%TO.P,U1,28,I/O*%
%TO.N,D3*%
X88118609Y-55368591D03*
%TO.P,U1,27,I/O*%
%TO.N,D2*%
X88684294Y-55934277D03*
%TO.P,U1,26,I/O/TCK*%
%TO.N,TCK*%
X89249980Y-56499962D03*
%TO.P,U1,25,I/O*%
%TO.N,D1*%
X89815665Y-57065648D03*
%TO.P,U1,24,GND*%
%TO.N,GND*%
X90381350Y-57631333D03*
%TO.P,U1,23,I/O*%
%TO.N,D0*%
X90947036Y-58197018D03*
D20*
%TO.P,U1,22,I/O*%
%TO.N,~{RES}*%
X90947036Y-60601182D03*
%TO.P,U1,21,I/O*%
%TO.N,RAMS2*%
X90381350Y-61166867D03*
%TO.P,U1,20,I/O*%
%TO.N,~{WR}*%
X89815665Y-61732552D03*
%TO.P,U1,19,I/O/PD2*%
%TO.N,~{CS1}*%
X89249980Y-62298238D03*
%TO.P,U1,18,I/O*%
%TO.N,~{RD}*%
X88684294Y-62863923D03*
%TO.P,U1,17,VCC*%
%TO.N,+5V*%
X88118609Y-63429609D03*
%TO.P,U1,16,GND*%
%TO.N,GND*%
X87552923Y-63995294D03*
%TO.P,U1,15,I/O*%
%TO.N,~{IORQ}*%
X86987238Y-64560980D03*
%TO.P,U1,14,I/O*%
%TO.N,~{MRQ}*%
X86421552Y-65126665D03*
%TO.P,U1,13,I/O*%
%TO.N,A7*%
X85855867Y-65692350D03*
%TO.P,U1,12,I/O*%
%TO.N,A6*%
X85290182Y-66258036D03*
D21*
%TO.P,U1,11,I/O*%
%TO.N,A5*%
X82886018Y-66258036D03*
%TO.P,U1,10,I/O*%
%TO.N,A4*%
X82320333Y-65692350D03*
%TO.P,U1,9,VCC*%
%TO.N,+5V*%
X81754648Y-65126665D03*
%TO.P,U1,8,I/O*%
%TO.N,A3*%
X81188962Y-64560980D03*
%TO.P,U1,7,I/O/TMS*%
%TO.N,TMS*%
X80623277Y-63995294D03*
%TO.P,U1,6,I/O*%
%TO.N,A2*%
X80057591Y-63429609D03*
%TO.P,U1,5,I/O/PD1*%
%TO.N,unconnected-(U1-I{slash}O{slash}PD1-Pad5)*%
X79491906Y-62863923D03*
%TO.P,U1,4,GND*%
%TO.N,GND*%
X78926220Y-62298238D03*
%TO.P,U1,3,I/O*%
%TO.N,A1*%
X78360535Y-61732552D03*
%TO.P,U1,2,I/O*%
%TO.N,A0*%
X77794850Y-61166867D03*
%TO.P,U1,1,I/O/TDI*%
%TO.N,TDI*%
X77229164Y-60601182D03*
%TD*%
D22*
%TO.P,U2,1,NC*%
%TO.N,unconnected-(U2-NC-Pad1)*%
X54990000Y-49790000D03*
%TO.P,U2,2,A16*%
%TO.N,R3*%
X54990000Y-51060000D03*
%TO.P,U2,3,A14*%
%TO.N,R1*%
X54990000Y-52330000D03*
%TO.P,U2,4,A12*%
%TO.N,A12*%
X54990000Y-53600000D03*
%TO.P,U2,5,A7*%
%TO.N,A7*%
X54990000Y-54870000D03*
%TO.P,U2,6,A6*%
%TO.N,A6*%
X54990000Y-56140000D03*
%TO.P,U2,7,A5*%
%TO.N,A5*%
X54990000Y-57410000D03*
%TO.P,U2,8,A4*%
%TO.N,A4*%
X54990000Y-58680000D03*
%TO.P,U2,9,A3*%
%TO.N,A3*%
X54990000Y-59950000D03*
%TO.P,U2,10,A2*%
%TO.N,A2*%
X54990000Y-61220000D03*
%TO.P,U2,11,A1*%
%TO.N,A1*%
X54990000Y-62490000D03*
%TO.P,U2,12,A0*%
%TO.N,A0*%
X54990000Y-63760000D03*
%TO.P,U2,13,Q0*%
%TO.N,D0*%
X54990000Y-65030000D03*
%TO.P,U2,14,Q1*%
%TO.N,D1*%
X54990000Y-66300000D03*
%TO.P,U2,15,Q2*%
%TO.N,D2*%
X54990000Y-67570000D03*
%TO.P,U2,16,GND*%
%TO.N,GND*%
X54990000Y-68840000D03*
%TO.P,U2,17,Q3*%
%TO.N,D3*%
X68090000Y-68840000D03*
%TO.P,U2,18,Q4*%
%TO.N,D4*%
X68090000Y-67570000D03*
%TO.P,U2,19,Q5*%
%TO.N,D5*%
X68090000Y-66300000D03*
%TO.P,U2,20,Q6*%
%TO.N,D6*%
X68090000Y-65030000D03*
%TO.P,U2,21,Q7*%
%TO.N,D7*%
X68090000Y-63760000D03*
%TO.P,U2,22,~{CS1}*%
%TO.N,~{CS1}*%
X68090000Y-62490000D03*
%TO.P,U2,23,A10*%
%TO.N,A10*%
X68090000Y-61220000D03*
%TO.P,U2,24,~{OE}*%
%TO.N,~{RD}*%
X68090000Y-59950000D03*
%TO.P,U2,25,A11*%
%TO.N,A11*%
X68090000Y-58680000D03*
%TO.P,U2,26,A9*%
%TO.N,A9*%
X68090000Y-57410000D03*
%TO.P,U2,27,A8*%
%TO.N,A8*%
X68090000Y-56140000D03*
%TO.P,U2,28,A13*%
%TO.N,R0*%
X68090000Y-54870000D03*
%TO.P,U2,29,~{WE}*%
%TO.N,~{WR}*%
X68090000Y-53600000D03*
%TO.P,U2,30,CS2*%
%TO.N,+5V*%
X68090000Y-52330000D03*
%TO.P,U2,31,A15*%
%TO.N,R2*%
X68090000Y-51060000D03*
%TO.P,U2,32,VCC*%
%TO.N,+5V*%
X68090000Y-49790000D03*
%TD*%
D12*
%TO.P,C3,1*%
%TO.N,+5V*%
X40500000Y-83750000D03*
D23*
%TO.P,C3,2*%
%TO.N,GND*%
X43000000Y-83750000D03*
%TD*%
D24*
%TO.P,J3,1,Pin_1*%
%TO.N,GND*%
X42158000Y-49530000D03*
D25*
%TO.P,J3,2,Pin_2*%
%TO.N,VCC*%
X42158000Y-54610000D03*
%TD*%
D26*
%TO.P,C8,1*%
%TO.N,+5V*%
X91020877Y-52881877D03*
%TO.P,C8,2*%
%TO.N,GND*%
X92488123Y-54349123D03*
%TD*%
D17*
%TO.P,J1,1,Pin_1*%
%TO.N,GND*%
X99055000Y-80518000D03*
D18*
%TO.P,J1,2,Pin_2*%
%TO.N,unconnected-(J1-Pin_2-Pad2)*%
X99055000Y-77978000D03*
%TO.P,J1,3,Pin_3*%
%TO.N,D0*%
X96515000Y-80518000D03*
%TO.P,J1,4,Pin_4*%
%TO.N,D1*%
X96515000Y-77978000D03*
%TO.P,J1,5,Pin_5*%
%TO.N,D2*%
X93975000Y-80518000D03*
%TO.P,J1,6,Pin_6*%
%TO.N,D3*%
X93975000Y-77978000D03*
%TO.P,J1,7,Pin_7*%
%TO.N,D4*%
X91435000Y-80518000D03*
%TO.P,J1,8,Pin_8*%
%TO.N,D5*%
X91435000Y-77978000D03*
%TO.P,J1,9,Pin_9*%
%TO.N,D6*%
X88895000Y-80518000D03*
%TO.P,J1,10,Pin_10*%
%TO.N,D7*%
X88895000Y-77978000D03*
%TO.P,J1,11,Pin_11*%
%TO.N,A0*%
X86355000Y-80518000D03*
%TO.P,J1,12,Pin_12*%
%TO.N,A1*%
X86355000Y-77978000D03*
%TO.P,J1,13,Pin_13*%
%TO.N,A2*%
X83815000Y-80518000D03*
%TO.P,J1,14,Pin_14*%
%TO.N,A3*%
X83815000Y-77978000D03*
%TO.P,J1,15,Pin_15*%
%TO.N,A4*%
X81275000Y-80518000D03*
%TO.P,J1,16,Pin_16*%
%TO.N,A5*%
X81275000Y-77978000D03*
%TO.P,J1,17,Pin_17*%
%TO.N,A6*%
X78735000Y-80518000D03*
%TO.P,J1,18,Pin_18*%
%TO.N,A7*%
X78735000Y-77978000D03*
%TO.P,J1,19,Pin_19*%
%TO.N,A8*%
X76195000Y-80518000D03*
%TO.P,J1,20,Pin_20*%
%TO.N,A9*%
X76195000Y-77978000D03*
%TO.P,J1,21,Pin_21*%
%TO.N,A10*%
X73655000Y-80518000D03*
%TO.P,J1,22,Pin_22*%
%TO.N,A11*%
X73655000Y-77978000D03*
%TO.P,J1,23,Pin_23*%
%TO.N,A12*%
X71115000Y-80518000D03*
%TO.P,J1,24,Pin_24*%
%TO.N,A13*%
X71115000Y-77978000D03*
%TO.P,J1,25,Pin_25*%
%TO.N,A14*%
X68575000Y-80518000D03*
%TO.P,J1,26,Pin_26*%
%TO.N,RAMS2*%
X68575000Y-77978000D03*
%TO.P,J1,27,Pin_27*%
%TO.N,~{MRQ}*%
X66035000Y-80518000D03*
%TO.P,J1,28,Pin_28*%
%TO.N,~{RD}*%
X66035000Y-77978000D03*
%TO.P,J1,29,Pin_29*%
%TO.N,unconnected-(J1-Pin_29-Pad29)*%
X63495000Y-80518000D03*
%TO.P,J1,30,Pin_30*%
%TO.N,~{WR}*%
X63495000Y-77978000D03*
%TO.P,J1,31,Pin_31*%
%TO.N,~{IORQ}*%
X60955000Y-80518000D03*
%TO.P,J1,32,Pin_32*%
%TO.N,unconnected-(J1-Pin_32-Pad32)*%
X60955000Y-77978000D03*
%TO.P,J1,33,Pin_33*%
%TO.N,unconnected-(J1-Pin_33-Pad33)*%
X58415000Y-80518000D03*
%TO.P,J1,34,Pin_34*%
%TO.N,~{RES}*%
X58415000Y-77978000D03*
%TO.P,J1,35,Pin_35*%
%TO.N,unconnected-(J1-Pin_35-Pad35)*%
X55875000Y-80518000D03*
%TO.P,J1,36,Pin_36*%
%TO.N,unconnected-(J1-Pin_36-Pad36)*%
X55875000Y-77978000D03*
%TO.P,J1,37,Pin_37*%
%TO.N,unconnected-(J1-Pin_37-Pad37)*%
X53335000Y-80518000D03*
%TO.P,J1,38,Pin_38*%
%TO.N,unconnected-(J1-Pin_38-Pad38)*%
X53335000Y-77978000D03*
%TO.P,J1,39,Pin_39*%
%TO.N,unconnected-(J1-Pin_39-Pad39)*%
X50795000Y-80518000D03*
%TO.P,J1,40,Pin_40*%
%TO.N,unconnected-(J1-Pin_40-Pad40)*%
X50795000Y-77978000D03*
%TD*%
D27*
%TO.N,A6*%
X85987500Y-69364000D03*
%TO.N,R3*%
X73500000Y-59500000D03*
X57983300Y-53093100D03*
%TO.N,R1*%
X73500000Y-57500000D03*
X56635900Y-52396700D03*
%TO.N,R0*%
X82500000Y-48500000D03*
X75236200Y-51781200D03*
X72112400Y-53014800D03*
X69727300Y-55733400D03*
%TO.N,TDI*%
X73500000Y-63000000D03*
X93776500Y-66117800D03*
%TO.N,TDO*%
X94511300Y-49047600D03*
%TO.N,~{CS1}*%
X96000000Y-63000000D03*
X64935200Y-66826000D03*
%TO.N,TMS*%
X80750000Y-69750000D03*
X92103100Y-66725400D03*
%TO.N,~{RES}*%
X96000000Y-60000000D03*
X91648500Y-75215900D03*
%TO.N,~{WR}*%
X96000000Y-62000000D03*
X74014200Y-62044200D03*
%TO.N,~{RD}*%
X96000000Y-64000000D03*
X85757100Y-71293900D03*
X70245000Y-69360800D03*
%TO.N,RAMS2*%
X96000000Y-61000000D03*
X88359300Y-74405700D03*
X72407700Y-76527800D03*
%TO.N,A14*%
X75164700Y-55770600D03*
%TO.N,A13*%
X81500000Y-48500000D03*
X74284500Y-53831900D03*
X75323200Y-52793200D03*
%TO.N,A11*%
X71306500Y-65136500D03*
%TO.N,A10*%
X69941300Y-67543300D03*
%TO.N,A9*%
X72320200Y-65904800D03*
%TO.N,A8*%
X73376700Y-67998900D03*
%TO.N,A7*%
X78921000Y-73005900D03*
%TO.N,A6*%
X84559500Y-76593800D03*
%TO.N,A2*%
X79750000Y-69750000D03*
%TO.N,A1*%
X73500000Y-65000000D03*
X72026100Y-60377200D03*
X56948400Y-62220500D03*
X77358200Y-76211000D03*
%TO.N,A0*%
X73500000Y-64000000D03*
X57474400Y-66102400D03*
%TO.N,D7*%
X100410700Y-72741100D03*
X92105000Y-46101900D03*
%TO.N,D6*%
X92096600Y-48059600D03*
X63659400Y-64464700D03*
%TO.N,D5*%
X88000000Y-48500000D03*
X77266100Y-54724000D03*
X73588400Y-56277400D03*
X66114000Y-65578100D03*
%TO.N,D4*%
X62133100Y-62978300D03*
X93860100Y-50045800D03*
%TO.N,D3*%
X90000000Y-48500000D03*
X92804200Y-52784700D03*
X74936300Y-46829500D03*
%TO.N,D2*%
X96000000Y-53250000D03*
X56421700Y-76515700D03*
X56647600Y-67985600D03*
%TO.N,D1*%
X96000000Y-55250000D03*
%TO.N,D0*%
X96000000Y-56250000D03*
%TO.N,+5V*%
X87262700Y-61762700D03*
X65000000Y-47500000D03*
X86500000Y-56000000D03*
X80000000Y-57500000D03*
X83250000Y-63750000D03*
X90000000Y-52000000D03*
X75750000Y-54250000D03*
X79500000Y-67750000D03*
X69645500Y-52876700D03*
%TO.N,GND*%
X89250000Y-58750000D03*
X83000000Y-55000000D03*
X80250000Y-61000000D03*
X93250000Y-55250000D03*
X79250000Y-51000000D03*
X76000000Y-64250000D03*
%TO.N,A3*%
X81750000Y-69750000D03*
%TO.N,A4*%
X82750000Y-69750000D03*
%TO.N,A5*%
X83750000Y-69750000D03*
%TD*%
D28*
%TO.N,A6*%
X85606000Y-69745500D02*
X85987500Y-69364000D01*
X85068800Y-69745500D02*
X85606000Y-69745500D01*
X82533600Y-72280700D02*
X85068800Y-69745500D01*
X54692200Y-72804200D02*
X73262400Y-72804200D01*
X73785900Y-72280700D02*
X82533600Y-72280700D01*
X73262400Y-72804200D02*
X73785900Y-72280700D01*
X51815800Y-69927800D02*
X54692200Y-72804200D01*
X51815800Y-58810900D02*
X51815800Y-69927800D01*
X54486700Y-56140000D02*
X51815800Y-58810900D01*
X54990000Y-56140000D02*
X54486700Y-56140000D01*
%TO.N,A14*%
X77729400Y-55770600D02*
X75164700Y-55770600D01*
X79500000Y-54000000D02*
X77729400Y-55770600D01*
X80623300Y-54802900D02*
X79820400Y-54000000D01*
X79820400Y-54000000D02*
X79500000Y-54000000D01*
%TO.N,R3*%
X77229200Y-58197100D02*
X77229100Y-58197100D01*
X74000000Y-59500000D02*
X73500000Y-59500000D01*
X76250000Y-57250000D02*
X74000000Y-59500000D01*
X77197100Y-58197100D02*
X76250000Y-57250000D01*
X77229100Y-58197100D02*
X77197100Y-58197100D01*
X77229100Y-58197100D02*
X77229200Y-58197000D01*
X56374700Y-51060000D02*
X54990000Y-51060000D01*
X57983300Y-52668600D02*
X56374700Y-51060000D01*
X57983300Y-53093100D02*
X57983300Y-52668600D01*
%TO.N,R1*%
X74612200Y-57500000D02*
X73500000Y-57500000D01*
X75862200Y-56250000D02*
X74612200Y-57500000D01*
X77544900Y-56250000D02*
X75862200Y-56250000D01*
X78360500Y-57065600D02*
X77544900Y-56250000D01*
X78360600Y-57065700D02*
X78360500Y-57065600D01*
X56569200Y-52330000D02*
X56635900Y-52396700D01*
X54990000Y-52330000D02*
X56569200Y-52330000D01*
%TO.N,R2*%
X77794900Y-57631400D02*
X77794800Y-57631300D01*
X74250000Y-58500000D02*
X73500000Y-58500000D01*
X75951000Y-56799000D02*
X74250000Y-58500000D01*
X76962500Y-56799000D02*
X75951000Y-56799000D01*
X77794800Y-57631300D02*
X76962500Y-56799000D01*
X68866200Y-51060000D02*
X68090000Y-51060000D01*
X72375200Y-54569000D02*
X68866200Y-51060000D01*
X72375200Y-57466000D02*
X72375200Y-54569000D01*
X73409200Y-58500000D02*
X72375200Y-57466000D01*
X73500000Y-58500000D02*
X73409200Y-58500000D01*
%TO.N,R0*%
X82320400Y-53105900D02*
X82320300Y-53105800D01*
X82500000Y-50000000D02*
X82500000Y-48500000D01*
X81500000Y-51000000D02*
X82500000Y-50000000D01*
X81500000Y-52285500D02*
X81500000Y-51000000D01*
X82320300Y-53105800D02*
X81500000Y-52285500D01*
X74002600Y-53014800D02*
X72112400Y-53014800D01*
X75236200Y-51781200D02*
X74002600Y-53014800D01*
X68863900Y-54870000D02*
X68090000Y-54870000D01*
X69727300Y-55733400D02*
X68863900Y-54870000D01*
%TO.N,TDI*%
X74750000Y-63000000D02*
X73500000Y-63000000D01*
X77148800Y-60601200D02*
X74750000Y-63000000D01*
X77229200Y-60601200D02*
X77148800Y-60601200D01*
X101342200Y-66117800D02*
X93776500Y-66117800D01*
X104210000Y-63250000D02*
X101342200Y-66117800D01*
%TO.N,TCK*%
X95000000Y-54250000D02*
X96000000Y-54250000D01*
X94750000Y-54500000D02*
X95000000Y-54250000D01*
X94750000Y-55500000D02*
X94750000Y-54500000D01*
X93823000Y-56427000D02*
X94750000Y-55500000D01*
X91427000Y-56427000D02*
X93823000Y-56427000D01*
X90500000Y-55500000D02*
X91427000Y-56427000D01*
X90250000Y-55500000D02*
X90500000Y-55500000D01*
X89250000Y-56500000D02*
X90250000Y-55500000D01*
X103050000Y-54250000D02*
X104210000Y-53090000D01*
X96000000Y-54250000D02*
X103050000Y-54250000D01*
%TO.N,TDO*%
X92059300Y-49047600D02*
X94511300Y-49047600D01*
X91342400Y-48330700D02*
X92059300Y-49047600D01*
X91342400Y-48121400D02*
X91342400Y-48330700D01*
X90500100Y-47279100D02*
X91342400Y-48121400D01*
X88111300Y-47279100D02*
X90500100Y-47279100D01*
X87000000Y-48390400D02*
X88111300Y-47279100D01*
X87000000Y-48500000D02*
X87000000Y-48390400D01*
X85855900Y-53105900D02*
X86428000Y-52533800D01*
X87000000Y-51961800D02*
X87000000Y-48500000D01*
X86428000Y-52533800D02*
X87000000Y-51961800D01*
X86427900Y-52533800D02*
X85855900Y-53105800D01*
X86428000Y-52533800D02*
X86427900Y-52533800D01*
%TO.N,~{CS1}*%
X89250000Y-62298200D02*
X89250000Y-62298300D01*
X93103000Y-63000000D02*
X96000000Y-63000000D01*
X92853000Y-63250000D02*
X93103000Y-63000000D01*
X90201700Y-63250000D02*
X92853000Y-63250000D01*
X89250000Y-62298300D02*
X90201700Y-63250000D01*
X68586700Y-62490000D02*
X68090000Y-62490000D01*
X69456100Y-63359400D02*
X68586700Y-62490000D01*
X69456100Y-66683900D02*
X69456100Y-63359400D01*
X69205000Y-66935000D02*
X69456100Y-66683900D01*
X65044200Y-66935000D02*
X69205000Y-66935000D01*
X64935200Y-66826000D02*
X65044200Y-66935000D01*
%TO.N,TMS*%
X80750000Y-68250000D02*
X80750000Y-69750000D01*
X80250000Y-67750000D02*
X80750000Y-68250000D01*
X80250000Y-67000000D02*
X80250000Y-67750000D01*
X80000000Y-66750000D02*
X80250000Y-67000000D01*
X80000000Y-65750000D02*
X80000000Y-66750000D01*
X79750000Y-65500000D02*
X80000000Y-65750000D01*
X79750000Y-64868600D02*
X79750000Y-65500000D01*
X80623300Y-63995300D02*
X79750000Y-64868600D01*
X97024400Y-65355600D02*
X104210000Y-58170000D01*
X93472900Y-65355600D02*
X97024400Y-65355600D01*
X92103100Y-66725400D02*
X93472900Y-65355600D01*
%TO.N,~{RES}*%
X90947100Y-60601200D02*
X90947100Y-60649100D01*
X94250000Y-60000000D02*
X96000000Y-60000000D01*
X92750000Y-61500000D02*
X94250000Y-60000000D01*
X91750000Y-61500000D02*
X92750000Y-61500000D01*
X90947100Y-60697100D02*
X91750000Y-61500000D01*
X90947100Y-60649100D02*
X90947100Y-60697100D01*
X90947000Y-60649000D02*
X90947000Y-60601200D01*
X90947100Y-60649100D02*
X90947000Y-60649000D01*
X58415000Y-77978000D02*
X58415000Y-79153100D01*
X80282900Y-75215900D02*
X91648500Y-75215900D01*
X79967400Y-75531400D02*
X80282900Y-75215900D01*
X77874700Y-75531400D02*
X79967400Y-75531400D01*
X77818400Y-75475100D02*
X77874700Y-75531400D01*
X77033800Y-75475100D02*
X77818400Y-75475100D01*
X74925000Y-77583900D02*
X77033800Y-75475100D01*
X74925000Y-80999500D02*
X74925000Y-77583900D01*
X73252600Y-82671900D02*
X74925000Y-80999500D01*
X61364000Y-82671900D02*
X73252600Y-82671900D01*
X59685000Y-80992900D02*
X61364000Y-82671900D01*
X59685000Y-80057900D02*
X59685000Y-80992900D01*
X58780200Y-79153100D02*
X59685000Y-80057900D01*
X58415000Y-79153100D02*
X58780200Y-79153100D01*
%TO.N,~{IORQ}*%
X86987300Y-64561000D02*
X86987200Y-64561000D01*
X89000000Y-68000000D02*
X89000000Y-69750000D01*
X88000000Y-67000000D02*
X89000000Y-68000000D01*
X88000000Y-65500000D02*
X88000000Y-67000000D01*
X87061000Y-64561000D02*
X88000000Y-65500000D01*
X86987300Y-64561000D02*
X87061000Y-64561000D01*
X60955000Y-80518000D02*
X62130100Y-80518000D01*
X89000000Y-69851400D02*
X89000000Y-69750000D01*
X84556800Y-74294600D02*
X89000000Y-69851400D01*
X79931000Y-74294600D02*
X84556800Y-74294600D01*
X79594400Y-74631200D02*
X79931000Y-74294600D01*
X78247700Y-74631200D02*
X79594400Y-74631200D01*
X78184600Y-74568100D02*
X78247700Y-74631200D01*
X74044900Y-74568100D02*
X78184600Y-74568100D01*
X74008400Y-74604600D02*
X74044900Y-74568100D01*
X73305200Y-74604600D02*
X74008400Y-74604600D01*
X71646000Y-76263800D02*
X73305200Y-74604600D01*
X71646000Y-76791400D02*
X71646000Y-76263800D01*
X72328100Y-77473500D02*
X71646000Y-76791400D01*
X72328100Y-81019200D02*
X72328100Y-77473500D01*
X71125500Y-82221800D02*
X72328100Y-81019200D01*
X63468600Y-82221800D02*
X71125500Y-82221800D01*
X62130100Y-80883300D02*
X63468600Y-82221800D01*
X62130100Y-80518000D02*
X62130100Y-80883300D01*
%TO.N,~{WR}*%
X93750000Y-62000000D02*
X96000000Y-62000000D01*
X93201000Y-62549000D02*
X93750000Y-62000000D01*
X92916200Y-62549000D02*
X93201000Y-62549000D01*
X92715200Y-62750000D02*
X92916200Y-62549000D01*
X90833100Y-62750000D02*
X92715200Y-62750000D01*
X89815700Y-61732600D02*
X90833100Y-62750000D01*
X68619400Y-53600000D02*
X68090000Y-53600000D01*
X70480300Y-55460900D02*
X68619400Y-53600000D01*
X70480300Y-57025400D02*
X70480300Y-55460900D01*
X72774800Y-59319900D02*
X70480300Y-57025400D01*
X72774800Y-60804800D02*
X72774800Y-59319900D01*
X74014200Y-62044200D02*
X72774800Y-60804800D01*
%TO.N,~{RD}*%
X88684300Y-62863900D02*
X88684300Y-62864000D01*
X89820400Y-64000000D02*
X96000000Y-64000000D01*
X88684300Y-62864000D02*
X89820400Y-64000000D01*
X66035000Y-77978000D02*
X67210100Y-77978000D01*
X68517900Y-59950000D02*
X68090000Y-59950000D01*
X70567300Y-61999400D02*
X68517900Y-59950000D01*
X70567300Y-66985300D02*
X70567300Y-61999400D01*
X70693900Y-67111900D02*
X70567300Y-66985300D01*
X70693900Y-68911900D02*
X70693900Y-67111900D01*
X70245000Y-69360800D02*
X70693900Y-68911900D01*
X83656600Y-73394400D02*
X85757100Y-71293900D01*
X79558000Y-73394400D02*
X83656600Y-73394400D01*
X79221400Y-73731000D02*
X79558000Y-73394400D01*
X78620700Y-73731000D02*
X79221400Y-73731000D01*
X78557600Y-73667900D02*
X78620700Y-73731000D01*
X73671900Y-73667900D02*
X78557600Y-73667900D01*
X73635400Y-73704400D02*
X73671900Y-73667900D01*
X71153200Y-73704400D02*
X73635400Y-73704400D01*
X67210100Y-77647500D02*
X71153200Y-73704400D01*
X67210100Y-77978000D02*
X67210100Y-77647500D01*
%TO.N,~{MRQ}*%
X88000000Y-67637800D02*
X88000000Y-69750000D01*
X87549000Y-67186800D02*
X88000000Y-67637800D01*
X87549000Y-66254100D02*
X87549000Y-67186800D01*
X86421600Y-65126700D02*
X87549000Y-66254100D01*
X66035000Y-80518000D02*
X67210100Y-80518000D01*
X88000000Y-70098500D02*
X88000000Y-69750000D01*
X84254000Y-73844500D02*
X88000000Y-70098500D01*
X79744500Y-73844500D02*
X84254000Y-73844500D01*
X79407900Y-74181100D02*
X79744500Y-73844500D01*
X78434200Y-74181100D02*
X79407900Y-74181100D01*
X78371100Y-74118000D02*
X78434200Y-74181100D01*
X73858400Y-74118000D02*
X78371100Y-74118000D01*
X73821900Y-74154500D02*
X73858400Y-74118000D01*
X73032200Y-74154500D02*
X73821900Y-74154500D01*
X69750200Y-77436500D02*
X73032200Y-74154500D01*
X69750200Y-78503700D02*
X69750200Y-77436500D01*
X69005900Y-79248000D02*
X69750200Y-78503700D01*
X68114800Y-79248000D02*
X69005900Y-79248000D01*
X67210100Y-80152700D02*
X68114800Y-79248000D01*
X67210100Y-80518000D02*
X67210100Y-80152700D01*
%TO.N,RAMS2*%
X94000000Y-61000000D02*
X96000000Y-61000000D01*
X93000000Y-62000000D02*
X94000000Y-61000000D01*
X91214500Y-62000000D02*
X93000000Y-62000000D01*
X90381400Y-61166900D02*
X91214500Y-62000000D01*
X88020300Y-74744700D02*
X88359300Y-74405700D01*
X80117500Y-74744700D02*
X88020300Y-74744700D01*
X79780900Y-75081300D02*
X80117500Y-74744700D01*
X78061200Y-75081300D02*
X79780900Y-75081300D01*
X77998100Y-75018200D02*
X78061200Y-75081300D01*
X74231400Y-75018200D02*
X77998100Y-75018200D01*
X72721800Y-76527800D02*
X74231400Y-75018200D01*
X72407700Y-76527800D02*
X72721800Y-76527800D01*
%TO.N,A13*%
X81189000Y-54237300D02*
X80844500Y-53892800D01*
X81500000Y-49250000D02*
X81500000Y-48500000D01*
X81000000Y-49750000D02*
X81500000Y-49250000D01*
X81000000Y-52000000D02*
X81000000Y-49750000D01*
X80500000Y-52500000D02*
X81000000Y-52000000D01*
X80500000Y-53548300D02*
X80500000Y-52500000D01*
X80844500Y-53892800D02*
X80500000Y-53548300D01*
X80844600Y-53892800D02*
X81189000Y-54237200D01*
X80844500Y-53892800D02*
X80844600Y-53892800D01*
X74284500Y-53831900D02*
X75323200Y-52793200D01*
%TO.N,A12*%
X71115000Y-80518000D02*
X69939900Y-80518000D01*
X69939900Y-80885200D02*
X69939900Y-80518000D01*
X69099300Y-81725800D02*
X69939900Y-80885200D01*
X65559400Y-81725800D02*
X69099300Y-81725800D01*
X64859800Y-81026200D02*
X65559400Y-81725800D01*
X64859800Y-80218700D02*
X64859800Y-81026200D01*
X63794300Y-79153200D02*
X64859800Y-80218700D01*
X62969300Y-79153200D02*
X63794300Y-79153200D01*
X62225000Y-78408900D02*
X62969300Y-79153200D01*
X62225000Y-77540400D02*
X62225000Y-78408900D01*
X59277200Y-74592600D02*
X62225000Y-77540400D01*
X55207400Y-74592600D02*
X59277200Y-74592600D01*
X50915600Y-70300800D02*
X55207400Y-74592600D01*
X50915600Y-57178600D02*
X50915600Y-70300800D01*
X54494200Y-53600000D02*
X50915600Y-57178600D01*
X54990000Y-53600000D02*
X54494200Y-53600000D01*
%TO.N,A11*%
X71193100Y-65023100D02*
X71306500Y-65136500D01*
X71193100Y-61852800D02*
X71193100Y-65023100D01*
X70296100Y-60955800D02*
X71193100Y-61852800D01*
X70296100Y-60397400D02*
X70296100Y-60955800D01*
X68578700Y-58680000D02*
X70296100Y-60397400D01*
X68090000Y-58680000D02*
X68578700Y-58680000D01*
%TO.N,A10*%
X68634000Y-61220000D02*
X68090000Y-61220000D01*
X69941300Y-62527300D02*
X68634000Y-61220000D01*
X69941300Y-67543300D02*
X69941300Y-62527300D01*
%TO.N,A9*%
X68574900Y-57410000D02*
X68090000Y-57410000D01*
X70746200Y-59581300D02*
X68574900Y-57410000D01*
X70746200Y-60759500D02*
X70746200Y-59581300D01*
X71749300Y-61762600D02*
X70746200Y-60759500D01*
X71749300Y-64553800D02*
X71749300Y-61762600D01*
X72031600Y-64836100D02*
X71749300Y-64553800D01*
X72031600Y-65616200D02*
X72031600Y-64836100D01*
X72320200Y-65904800D02*
X72031600Y-65616200D01*
%TO.N,A8*%
X68517900Y-56140000D02*
X68090000Y-56140000D01*
X71196300Y-58818400D02*
X68517900Y-56140000D01*
X71196300Y-60573000D02*
X71196300Y-58818400D01*
X72221200Y-61597900D02*
X71196300Y-60573000D01*
X72221200Y-64389100D02*
X72221200Y-61597900D01*
X72481700Y-64649600D02*
X72221200Y-64389100D01*
X72481700Y-65010000D02*
X72481700Y-64649600D01*
X73376700Y-65905000D02*
X72481700Y-65010000D01*
X73376700Y-67998900D02*
X73376700Y-65905000D01*
%TO.N,A7*%
X86987300Y-66823800D02*
X86987300Y-69762700D01*
X85855900Y-65692400D02*
X86987300Y-66823800D01*
X79033600Y-72893300D02*
X78921000Y-73005900D01*
X82658300Y-72893300D02*
X79033600Y-72893300D01*
X85031900Y-70519700D02*
X82658300Y-72893300D01*
X86319300Y-70519700D02*
X85031900Y-70519700D01*
X86987300Y-69851700D02*
X86319300Y-70519700D01*
X86987300Y-69762700D02*
X86987300Y-69851700D01*
X73697300Y-73005900D02*
X78921000Y-73005900D01*
X73448900Y-73254300D02*
X73697300Y-73005900D01*
X54505700Y-73254300D02*
X73448900Y-73254300D01*
X51365700Y-70114300D02*
X54505700Y-73254300D01*
X51365700Y-57992500D02*
X51365700Y-70114300D01*
X54488200Y-54870000D02*
X51365700Y-57992500D01*
X54990000Y-54870000D02*
X54488200Y-54870000D01*
%TO.N,A6*%
X85290200Y-66258000D02*
X85290200Y-66258100D01*
X78735000Y-80518000D02*
X78735000Y-79342900D01*
X80985900Y-76593800D02*
X84559500Y-76593800D01*
X80005000Y-77574700D02*
X80985900Y-76593800D01*
X80005000Y-78438100D02*
X80005000Y-77574700D01*
X79100200Y-79342900D02*
X80005000Y-78438100D01*
X78735000Y-79342900D02*
X79100200Y-79342900D01*
X85987500Y-66955400D02*
X85987500Y-69364000D01*
X85290200Y-66258100D02*
X85987500Y-66955400D01*
%TO.N,A5*%
X82886000Y-66258100D02*
X82886000Y-66258000D01*
X83750000Y-69000000D02*
X83750000Y-69750000D01*
X81947100Y-67197100D02*
X83750000Y-69000000D01*
X82886000Y-66258100D02*
X81947100Y-67197100D01*
X83750000Y-69824700D02*
X83750000Y-69750000D01*
X81826100Y-71748600D02*
X83750000Y-69824700D01*
X73681400Y-71748600D02*
X81826100Y-71748600D01*
X73075900Y-72354100D02*
X73681400Y-71748600D01*
X54878700Y-72354100D02*
X73075900Y-72354100D01*
X52265900Y-69741300D02*
X54878700Y-72354100D01*
X52265900Y-59630400D02*
X52265900Y-69741300D01*
X54486300Y-57410000D02*
X52265900Y-59630400D01*
X54990000Y-57410000D02*
X54486300Y-57410000D01*
%TO.N,A4*%
X82320400Y-65692400D02*
X82320300Y-65692500D01*
X82320300Y-65692500D02*
X82320300Y-65692400D01*
X82750000Y-68750000D02*
X82750000Y-69750000D01*
X81496100Y-67496100D02*
X82750000Y-68750000D01*
X81496100Y-66516700D02*
X81496100Y-67496100D01*
X82320300Y-65692500D02*
X81496100Y-66516700D01*
X82750000Y-69834400D02*
X82750000Y-69750000D01*
X81658900Y-70925500D02*
X82750000Y-69834400D01*
X73867900Y-70925500D02*
X81658900Y-70925500D01*
X72889400Y-71904000D02*
X73867900Y-70925500D01*
X55065200Y-71904000D02*
X72889400Y-71904000D01*
X52716000Y-69554800D02*
X55065200Y-71904000D01*
X52716000Y-60526100D02*
X52716000Y-69554800D01*
X54562100Y-58680000D02*
X52716000Y-60526100D01*
X54990000Y-58680000D02*
X54562100Y-58680000D01*
%TO.N,A3*%
X81750000Y-68500000D02*
X81750000Y-69750000D01*
X81000000Y-67750000D02*
X81750000Y-68500000D01*
X81000000Y-66250000D02*
X81000000Y-67750000D01*
X80451000Y-65701000D02*
X81000000Y-66250000D01*
X80451000Y-65299000D02*
X80451000Y-65701000D01*
X81189000Y-64561000D02*
X80451000Y-65299000D01*
X81750000Y-69861900D02*
X81750000Y-69750000D01*
X81136700Y-70475200D02*
X81750000Y-69861900D01*
X73681500Y-70475200D02*
X81136700Y-70475200D01*
X72702800Y-71453900D02*
X73681500Y-70475200D01*
X55251700Y-71453900D02*
X72702800Y-71453900D01*
X53166100Y-69368300D02*
X55251700Y-71453900D01*
X53166100Y-61243200D02*
X53166100Y-69368300D01*
X54459300Y-59950000D02*
X53166100Y-61243200D01*
X54990000Y-59950000D02*
X54459300Y-59950000D01*
%TO.N,A2*%
X77332700Y-66712700D02*
X77332700Y-67093500D01*
X77397700Y-66647700D02*
X77332700Y-66712700D01*
X77375000Y-66625000D02*
X77397700Y-66647700D01*
X78750000Y-65250000D02*
X77375000Y-66625000D01*
X78750000Y-64750000D02*
X78750000Y-65250000D01*
X80057600Y-63442400D02*
X78750000Y-64750000D01*
X80057600Y-63429600D02*
X80057600Y-63442400D01*
X79750000Y-69000000D02*
X79750000Y-69750000D01*
X79226000Y-68476000D02*
X79750000Y-69000000D01*
X78774000Y-68476000D02*
X79226000Y-68476000D01*
X78302600Y-68004600D02*
X78774000Y-68476000D01*
X78157200Y-68004600D02*
X78302600Y-68004600D01*
X77332700Y-67180100D02*
X78157200Y-68004600D01*
X77332700Y-67093500D02*
X77332700Y-67180100D01*
X54485400Y-61220000D02*
X54990000Y-61220000D01*
X53616200Y-62089200D02*
X54485400Y-61220000D01*
X53616200Y-69181800D02*
X53616200Y-62089200D01*
X55438200Y-71003800D02*
X53616200Y-69181800D01*
X72291500Y-71003800D02*
X55438200Y-71003800D01*
X76201800Y-67093500D02*
X72291500Y-71003800D01*
X77332700Y-67093500D02*
X76201800Y-67093500D01*
%TO.N,A1*%
X86355000Y-77978000D02*
X86355000Y-76802900D01*
X85390300Y-75838200D02*
X86355000Y-76802900D01*
X80297200Y-75838200D02*
X85390300Y-75838200D01*
X79924400Y-76211000D02*
X80297200Y-75838200D01*
X77358200Y-76211000D02*
X79924400Y-76211000D01*
X72026100Y-60766200D02*
X72026100Y-60377200D01*
X72671300Y-61411400D02*
X72026100Y-60766200D01*
X72671300Y-64202600D02*
X72671300Y-61411400D01*
X73468700Y-65000000D02*
X72671300Y-64202600D01*
X73500000Y-65000000D02*
X73468700Y-65000000D01*
X78360600Y-61732600D02*
X78360500Y-61732600D01*
X74223300Y-65000000D02*
X73500000Y-65000000D01*
X75486600Y-63736600D02*
X74223300Y-65000000D01*
X75699300Y-63524000D02*
X75486600Y-63736600D01*
X76569100Y-63524000D02*
X75699300Y-63524000D01*
X78360500Y-61732600D02*
X76569100Y-63524000D01*
X56678900Y-62490000D02*
X56948400Y-62220500D01*
X54990000Y-62490000D02*
X56678900Y-62490000D01*
%TO.N,A0*%
X77794900Y-61166900D02*
X77794800Y-61167000D01*
X77794800Y-61167000D02*
X77794800Y-61166900D01*
X74500000Y-64000000D02*
X73500000Y-64000000D01*
X75875000Y-62625000D02*
X74500000Y-64000000D01*
X76336800Y-62625000D02*
X75875000Y-62625000D01*
X77794800Y-61167000D02*
X76336800Y-62625000D01*
X55448100Y-63760000D02*
X54990000Y-63760000D01*
X57474400Y-65786300D02*
X55448100Y-63760000D01*
X57474400Y-66102400D02*
X57474400Y-65786300D01*
%TO.N,D7*%
X83500000Y-49750000D02*
X83500000Y-48500000D01*
X82000000Y-51250000D02*
X83500000Y-49750000D01*
X82000000Y-51654200D02*
X82000000Y-51250000D01*
X82886000Y-52540200D02*
X82000000Y-51654200D01*
X96348900Y-76802900D02*
X100410700Y-72741100D01*
X90877900Y-76802900D02*
X96348900Y-76802900D01*
X90070100Y-77610700D02*
X90877900Y-76802900D01*
X90070100Y-77978000D02*
X90070100Y-77610700D01*
X88895000Y-77978000D02*
X90070100Y-77978000D01*
X67624700Y-63760000D02*
X68090000Y-63760000D01*
X66728500Y-62863800D02*
X67624700Y-63760000D01*
X66728500Y-50691600D02*
X66728500Y-62863800D01*
X66995100Y-50425000D02*
X66728500Y-50691600D01*
X75472100Y-50425000D02*
X66995100Y-50425000D01*
X78097900Y-53050800D02*
X75472100Y-50425000D01*
X78523100Y-53050800D02*
X78097900Y-53050800D01*
X80037100Y-51536800D02*
X78523100Y-53050800D01*
X80037100Y-49686800D02*
X80037100Y-51536800D01*
X79762100Y-49411800D02*
X80037100Y-49686800D01*
X79762100Y-48176500D02*
X79762100Y-49411800D01*
X80232700Y-47705900D02*
X79762100Y-48176500D01*
X83500000Y-47705900D02*
X80232700Y-47705900D01*
X83500000Y-48500000D02*
X83500000Y-47705900D01*
X85104000Y-46101900D02*
X92105000Y-46101900D01*
X83500000Y-47705900D02*
X85104000Y-46101900D01*
%TO.N,D6*%
X86000000Y-51830400D02*
X86000000Y-48500000D01*
X85290200Y-52540200D02*
X86000000Y-51830400D01*
X90865900Y-46828900D02*
X92096600Y-48059600D01*
X87595900Y-46828900D02*
X90865900Y-46828900D01*
X86000000Y-48424800D02*
X87595900Y-46828900D01*
X86000000Y-48500000D02*
X86000000Y-48424800D01*
X67524700Y-64464700D02*
X68090000Y-65030000D01*
X63659400Y-64464700D02*
X67524700Y-64464700D01*
%TO.N,D5*%
X86421600Y-53671600D02*
X86421600Y-53671500D01*
X88000000Y-52093100D02*
X88000000Y-48500000D01*
X86421600Y-53671500D02*
X88000000Y-52093100D01*
X74861500Y-55004300D02*
X73588400Y-56277400D01*
X76985800Y-55004300D02*
X74861500Y-55004300D01*
X77266100Y-54724000D02*
X76985800Y-55004300D01*
X66835900Y-66300000D02*
X68090000Y-66300000D01*
X66114000Y-65578100D02*
X66835900Y-66300000D01*
%TO.N,D4*%
X86987300Y-54237300D02*
X87993700Y-53230900D01*
X87993500Y-53230900D02*
X86987200Y-54237200D01*
X87993700Y-53230900D02*
X87993500Y-53230900D01*
X89000000Y-52224500D02*
X89000000Y-48500000D01*
X87993700Y-53230900D02*
X89000000Y-52224500D01*
X92357900Y-50045800D02*
X93860100Y-50045800D01*
X90808700Y-48496600D02*
X92357900Y-50045800D01*
X90808700Y-48224400D02*
X90808700Y-48496600D01*
X90313600Y-47729300D02*
X90808700Y-48224400D01*
X89679900Y-47729300D02*
X90313600Y-47729300D01*
X89000000Y-48409200D02*
X89679900Y-47729300D01*
X89000000Y-48500000D02*
X89000000Y-48409200D01*
X62133100Y-65049300D02*
X62133100Y-62978300D01*
X64653800Y-67570000D02*
X62133100Y-65049300D01*
X68090000Y-67570000D02*
X64653800Y-67570000D01*
%TO.N,D3*%
X92176300Y-53018400D02*
X92176300Y-52784700D01*
X91157300Y-54037300D02*
X92176300Y-53018400D01*
X89449900Y-54037300D02*
X91157300Y-54037300D01*
X88118600Y-55368600D02*
X89449900Y-54037300D01*
X90000000Y-50374700D02*
X90000000Y-48500000D01*
X92176300Y-52551000D02*
X90000000Y-50374700D01*
X92176300Y-52784700D02*
X92176300Y-52551000D01*
X92176300Y-52784700D02*
X92804200Y-52784700D01*
X65227300Y-68840000D02*
X68090000Y-68840000D01*
X61407800Y-65020500D02*
X65227300Y-68840000D01*
X61407800Y-46770000D02*
X61407800Y-65020500D01*
X61687200Y-46490600D02*
X61407800Y-46770000D01*
X74597400Y-46490600D02*
X61687200Y-46490600D01*
X74936300Y-46829500D02*
X74597400Y-46490600D01*
%TO.N,D2*%
X95000000Y-53250000D02*
X96000000Y-53250000D01*
X94250000Y-54000000D02*
X95000000Y-53250000D01*
X94250000Y-55276700D02*
X94250000Y-54000000D01*
X93550700Y-55976000D02*
X94250000Y-55276700D01*
X91976000Y-55976000D02*
X93550700Y-55976000D01*
X90750000Y-54750000D02*
X91976000Y-55976000D01*
X89868600Y-54750000D02*
X90750000Y-54750000D01*
X88684300Y-55934300D02*
X89868600Y-54750000D01*
X93975000Y-80518000D02*
X92799900Y-80518000D01*
X55405600Y-67985600D02*
X56647600Y-67985600D01*
X54990000Y-67570000D02*
X55405600Y-67985600D01*
X92799900Y-80885200D02*
X92799900Y-80518000D01*
X90538700Y-83146400D02*
X92799900Y-80885200D01*
X59328400Y-83146400D02*
X90538700Y-83146400D01*
X57239800Y-81057800D02*
X59328400Y-83146400D01*
X57239800Y-77333800D02*
X57239800Y-81057800D01*
X56421700Y-76515700D02*
X57239800Y-77333800D01*
%TO.N,D1*%
X96515000Y-77978000D02*
X96515000Y-79153100D01*
X89815700Y-57065700D02*
X90098600Y-56782800D01*
X95250000Y-55250000D02*
X96000000Y-55250000D01*
X95250000Y-55637800D02*
X95250000Y-55250000D01*
X94009800Y-56878000D02*
X95250000Y-55637800D01*
X91240200Y-56878000D02*
X94009800Y-56878000D01*
X90862200Y-56500000D02*
X91240200Y-56878000D01*
X90381400Y-56500000D02*
X90862200Y-56500000D01*
X90098600Y-56782800D02*
X90381400Y-56500000D01*
X90098500Y-56782800D02*
X89815700Y-57065600D01*
X90098600Y-56782800D02*
X90098500Y-56782800D01*
X96882200Y-79153100D02*
X96515000Y-79153100D01*
X97730600Y-80001500D02*
X96882200Y-79153100D01*
X97730600Y-80964900D02*
X97730600Y-80001500D01*
X94587400Y-84108100D02*
X97730600Y-80964900D01*
X55254200Y-84108100D02*
X94587400Y-84108100D01*
X52065000Y-80918900D02*
X55254200Y-84108100D01*
X52065000Y-77538000D02*
X52065000Y-80918900D01*
X50015400Y-75488400D02*
X52065000Y-77538000D01*
X50015400Y-54282000D02*
X50015400Y-75488400D01*
X53872400Y-50425000D02*
X50015400Y-54282000D01*
X56427100Y-50425000D02*
X53872400Y-50425000D01*
X58732300Y-52730200D02*
X56427100Y-50425000D01*
X58732300Y-66506600D02*
X58732300Y-52730200D01*
X57961300Y-67277600D02*
X58732300Y-66506600D01*
X56987600Y-67277600D02*
X57961300Y-67277600D01*
X56010000Y-66300000D02*
X56987600Y-67277600D01*
X54990000Y-66300000D02*
X56010000Y-66300000D01*
%TO.N,D0*%
X95275600Y-56250000D02*
X96000000Y-56250000D01*
X94025600Y-57500000D02*
X95275600Y-56250000D01*
X91644100Y-57500000D02*
X94025600Y-57500000D01*
X90947100Y-58197100D02*
X91644100Y-57500000D01*
X90947000Y-58197000D02*
X90947100Y-58197100D01*
X96515000Y-80518000D02*
X95339900Y-80518000D01*
X95339900Y-80885200D02*
X95339900Y-80518000D01*
X92590300Y-83634800D02*
X95339900Y-80885200D01*
X57271600Y-83634800D02*
X92590300Y-83634800D01*
X54605000Y-80968200D02*
X57271600Y-83634800D01*
X54605000Y-75404500D02*
X54605000Y-80968200D01*
X50465500Y-71265000D02*
X54605000Y-75404500D01*
X50465500Y-56373100D02*
X50465500Y-71265000D01*
X53876600Y-52962000D02*
X50465500Y-56373100D01*
X56055600Y-52962000D02*
X53876600Y-52962000D01*
X58199500Y-55105900D02*
X56055600Y-52962000D01*
X58199500Y-66402800D02*
X58199500Y-55105900D01*
X57774800Y-66827500D02*
X58199500Y-66402800D01*
X57174100Y-66827500D02*
X57774800Y-66827500D01*
X56749300Y-66402700D02*
X57174100Y-66827500D01*
X56749300Y-66306600D02*
X56749300Y-66402700D01*
X55472700Y-65030000D02*
X56749300Y-66306600D01*
X54990000Y-65030000D02*
X55472700Y-65030000D01*
%TO.N,+5V*%
X87262700Y-62573700D02*
X87262700Y-61762700D01*
X88118600Y-63429600D02*
X87262700Y-62573700D01*
D29*
X64956000Y-47544000D02*
X65000000Y-47500000D01*
X62345000Y-47544000D02*
X64956000Y-47544000D01*
X62345000Y-49345000D02*
X62345000Y-47544000D01*
X62790000Y-49790000D02*
X62345000Y-49345000D01*
X68090000Y-49790000D02*
X62790000Y-49790000D01*
D28*
X86500000Y-55855900D02*
X87552900Y-54802900D01*
X86500000Y-56000000D02*
X86500000Y-55855900D01*
X79926200Y-57500000D02*
X78926200Y-56500000D01*
X80000000Y-57500000D02*
X79926200Y-57500000D01*
X90881900Y-52881900D02*
X90000000Y-52000000D01*
X91020900Y-52881900D02*
X90881900Y-52881900D01*
X76683600Y-53316400D02*
X75750000Y-54250000D01*
X76770900Y-53316400D02*
X76683600Y-53316400D01*
X78599100Y-66849100D02*
X79500000Y-67750000D01*
X78488100Y-66849100D02*
X78599100Y-66849100D01*
X90988100Y-65599100D02*
X90988100Y-65599200D01*
X90139000Y-64750000D02*
X90988100Y-65599100D01*
X89439000Y-64750000D02*
X90139000Y-64750000D01*
X88118600Y-63429600D02*
X89439000Y-64750000D01*
X83131400Y-63750000D02*
X81932500Y-64948900D01*
X83250000Y-63750000D02*
X83131400Y-63750000D01*
X81932500Y-64948900D02*
X81754700Y-65126700D01*
X81932400Y-64948900D02*
X81754600Y-65126700D01*
X81932500Y-64948900D02*
X81932400Y-64948900D01*
X69098800Y-52330000D02*
X69645500Y-52876700D01*
X68090000Y-52330000D02*
X69098800Y-52330000D01*
%TO.N,GND*%
X80750000Y-60500000D02*
X80250000Y-61000000D01*
X84000000Y-60500000D02*
X80750000Y-60500000D01*
X86250000Y-62750000D02*
X84000000Y-60500000D01*
X86250000Y-61750000D02*
X89250000Y-58750000D01*
X86250000Y-62750000D02*
X86250000Y-61750000D01*
X61250000Y-70430000D02*
X59660000Y-68840000D01*
X61250000Y-70500000D02*
X61250000Y-70430000D01*
X71902800Y-70500000D02*
X61250000Y-70500000D01*
X77020900Y-65381900D02*
X71902800Y-70500000D01*
X94454500Y-72000000D02*
X111500000Y-72000000D01*
X89520900Y-67066400D02*
X94454500Y-72000000D01*
D30*
X111500000Y-64000000D02*
X111500000Y-72000000D01*
D28*
X95250000Y-45250000D02*
X95000000Y-45000000D01*
X95250000Y-51587300D02*
X95250000Y-45250000D01*
X92488100Y-54349100D02*
X95250000Y-51587300D01*
D30*
X77250000Y-45000000D02*
X95000000Y-45000000D01*
D29*
X59660000Y-68840000D02*
X54990000Y-68840000D01*
X60270000Y-68230000D02*
X59660000Y-68840000D01*
X60270000Y-47544000D02*
X60270000Y-68230000D01*
D30*
X59750000Y-45000000D02*
X77250000Y-45000000D01*
D29*
X60270000Y-45520000D02*
X59750000Y-45000000D01*
X60270000Y-47544000D02*
X60270000Y-45520000D01*
D30*
X110750000Y-63250000D02*
X111500000Y-64000000D01*
X106750000Y-63250000D02*
X110750000Y-63250000D01*
X111500000Y-72000000D02*
X111500000Y-79750000D01*
X43000000Y-88250000D02*
X43000000Y-83750000D01*
X44000000Y-89250000D02*
X43000000Y-88250000D01*
X110250000Y-89250000D02*
X44000000Y-89250000D01*
X111500000Y-88000000D02*
X110250000Y-89250000D01*
X111500000Y-79750000D02*
X111500000Y-88000000D01*
X110732000Y-80518000D02*
X99055000Y-80518000D01*
X111500000Y-79750000D02*
X110732000Y-80518000D01*
X111500000Y-52500000D02*
X111500000Y-64000000D01*
X110910000Y-53090000D02*
X106750000Y-53090000D01*
X111500000Y-52500000D02*
X110910000Y-53090000D01*
X111500000Y-46000000D02*
X111500000Y-52500000D01*
X110500000Y-45000000D02*
X111500000Y-46000000D01*
X95000000Y-45000000D02*
X110500000Y-45000000D01*
X44000000Y-45000000D02*
X59750000Y-45000000D01*
X42158000Y-46842000D02*
X44000000Y-45000000D01*
X42158000Y-49530000D02*
X42158000Y-46842000D01*
X43000000Y-80000000D02*
X43000000Y-83750000D01*
X40250000Y-77250000D02*
X43000000Y-80000000D01*
X40250000Y-66678000D02*
X40250000Y-77250000D01*
X42158000Y-64770000D02*
X40250000Y-66678000D01*
X39957000Y-62569000D02*
X42158000Y-64770000D01*
X39957000Y-51731000D02*
X39957000Y-62569000D01*
X42158000Y-49530000D02*
X39957000Y-51731000D01*
D28*
X86750000Y-58750000D02*
X89250000Y-58750000D01*
X83000000Y-55000000D02*
X86750000Y-58750000D01*
X87495300Y-63995300D02*
X86250000Y-62750000D01*
X87552900Y-63995300D02*
X87495300Y-63995300D01*
X92488100Y-54488100D02*
X93250000Y-55250000D01*
X92488100Y-54349100D02*
X92488100Y-54488100D01*
X77020900Y-65270900D02*
X76000000Y-64250000D01*
X77020900Y-65381900D02*
X77020900Y-65270900D01*
X88750000Y-66295500D02*
X89520900Y-67066400D01*
X88750000Y-65192400D02*
X88750000Y-66295500D01*
X87552900Y-63995300D02*
X88750000Y-65192400D01*
X83000000Y-58250000D02*
X80750000Y-60500000D01*
X83000000Y-55000000D02*
X83000000Y-58250000D01*
X80750000Y-60500000D02*
X80250000Y-61000000D01*
X78926200Y-62298300D02*
X78926300Y-62298300D01*
X78951700Y-62298300D02*
X80250000Y-61000000D01*
X78926300Y-62298300D02*
X78951700Y-62298300D01*
X78926300Y-62298300D02*
X78926200Y-62298200D01*
X90381400Y-57631400D02*
X90381300Y-57631400D01*
X90368600Y-57631400D02*
X89250000Y-58750000D01*
X90381300Y-57631400D02*
X90368600Y-57631400D01*
X90381300Y-57631400D02*
X90381400Y-57631300D01*
X78099100Y-51849100D02*
X78238200Y-51849100D01*
X77250000Y-51000000D02*
X78099100Y-51849100D01*
X77250000Y-45000000D02*
X77250000Y-51000000D01*
X78400900Y-51849100D02*
X79250000Y-51000000D01*
X78238200Y-51849100D02*
X78400900Y-51849100D01*
X78238200Y-51849100D02*
X78238100Y-51849200D01*
X81754700Y-53671600D02*
X81754700Y-53713100D01*
X81754700Y-53754700D02*
X83000000Y-55000000D01*
X81754700Y-53713100D02*
X81754700Y-53754700D01*
X81754600Y-53713000D02*
X81754600Y-53671500D01*
X81754700Y-53713100D02*
X81754600Y-53713000D01*
%TD*%
%TA.AperFunction,Conductor*%
%TO.N,GND*%
G36*
X71330201Y-66072030D02*
G01*
X71342447Y-66070270D01*
X71363566Y-66079915D01*
X71386160Y-66085254D01*
X71394749Y-66094155D01*
X71406003Y-66099295D01*
X71418555Y-66118827D01*
X71434676Y-66135534D01*
X71441227Y-66154105D01*
X71443777Y-66158073D01*
X71446417Y-66168817D01*
X71446611Y-66169792D01*
X71446613Y-66169800D01*
X71515096Y-66335132D01*
X71515101Y-66335142D01*
X71614521Y-66483934D01*
X71614524Y-66483938D01*
X71741061Y-66610475D01*
X71741065Y-66610478D01*
X71889857Y-66709898D01*
X71889861Y-66709900D01*
X71889864Y-66709902D01*
X72055200Y-66778387D01*
X72223306Y-66811825D01*
X72230716Y-66813299D01*
X72230720Y-66813300D01*
X72230721Y-66813300D01*
X72409680Y-66813300D01*
X72409681Y-66813299D01*
X72488438Y-66797634D01*
X72591175Y-66777199D01*
X72591518Y-66778923D01*
X72653044Y-66778360D01*
X72712166Y-66815595D01*
X72741771Y-66878882D01*
X72743200Y-66897652D01*
X72743200Y-67296224D01*
X72723515Y-67363263D01*
X72706881Y-67383905D01*
X72671024Y-67419761D01*
X72671021Y-67419765D01*
X72571601Y-67568557D01*
X72571596Y-67568567D01*
X72503113Y-67733899D01*
X72503111Y-67733907D01*
X72468200Y-67909416D01*
X72468200Y-68088383D01*
X72503111Y-68263892D01*
X72503113Y-68263900D01*
X72571596Y-68429232D01*
X72571601Y-68429242D01*
X72671021Y-68578034D01*
X72671024Y-68578038D01*
X72797561Y-68704575D01*
X72797565Y-68704578D01*
X72946357Y-68803998D01*
X72946361Y-68804000D01*
X72946364Y-68804002D01*
X73111700Y-68872487D01*
X73170429Y-68884168D01*
X73230490Y-68896116D01*
X73292401Y-68928501D01*
X73326975Y-68989216D01*
X73323236Y-69058986D01*
X73293980Y-69105414D01*
X72065415Y-70333981D01*
X72004092Y-70367466D01*
X71977734Y-70370300D01*
X70778207Y-70370300D01*
X70711168Y-70350615D01*
X70665413Y-70297811D01*
X70655469Y-70228653D01*
X70684494Y-70165097D01*
X70709316Y-70143198D01*
X70765425Y-70105706D01*
X70824135Y-70066478D01*
X70950678Y-69939935D01*
X71050102Y-69791136D01*
X71118587Y-69625800D01*
X71153500Y-69450279D01*
X71153500Y-69399566D01*
X71172304Y-69333917D01*
X71179802Y-69321901D01*
X71185971Y-69315733D01*
X71255300Y-69211975D01*
X71264982Y-69188600D01*
X71303055Y-69096685D01*
X71327400Y-68974294D01*
X71327400Y-67049506D01*
X71303055Y-66927115D01*
X71255300Y-66811825D01*
X71255299Y-66811824D01*
X71255296Y-66811818D01*
X71221698Y-66761535D01*
X71200820Y-66694857D01*
X71200800Y-66692644D01*
X71200800Y-66193008D01*
X71207340Y-66170733D01*
X71209410Y-66147607D01*
X71217000Y-66137836D01*
X71220485Y-66125969D01*
X71238028Y-66110767D01*
X71252274Y-66092430D01*
X71263940Y-66088314D01*
X71273289Y-66080214D01*
X71296269Y-66076909D01*
X71318164Y-66069186D01*
X71330201Y-66072030D01*
G37*
%TD.AperFunction*%
%TA.AperFunction,Conductor*%
G36*
X78148055Y-62959135D02*
G01*
X78168376Y-62957097D01*
X78181938Y-62964007D01*
X78197001Y-62966173D01*
X78212433Y-62979545D01*
X78230631Y-62988817D01*
X78238303Y-63001961D01*
X78249805Y-63011927D01*
X78255558Y-63031521D01*
X78265854Y-63049159D01*
X78268508Y-63075622D01*
X78269490Y-63078967D01*
X78269220Y-63082730D01*
X78269376Y-63084277D01*
X78269110Y-63090480D01*
X78253393Y-63199799D01*
X78261891Y-63258909D01*
X78261397Y-63270447D01*
X78238860Y-63336582D01*
X78225194Y-63352816D01*
X78219113Y-63358897D01*
X78270614Y-63410398D01*
X78301070Y-63434941D01*
X78329634Y-63471708D01*
X78330870Y-63470945D01*
X78334946Y-63477544D01*
X78373161Y-63524965D01*
X78373167Y-63524972D01*
X78638464Y-63790269D01*
X78671949Y-63851592D01*
X78666965Y-63921284D01*
X78638464Y-63965631D01*
X78470941Y-64133155D01*
X78346167Y-64257929D01*
X78317893Y-64286203D01*
X78257927Y-64346168D01*
X78188603Y-64449918D01*
X78188598Y-64449927D01*
X78140845Y-64565214D01*
X78140845Y-64565215D01*
X78135390Y-64592638D01*
X78103006Y-64654549D01*
X78100102Y-64656202D01*
X77197654Y-65558654D01*
X76332624Y-66423681D01*
X76271301Y-66457166D01*
X76244943Y-66460000D01*
X76139401Y-66460000D01*
X76017022Y-66484343D01*
X76017014Y-66484345D01*
X75901727Y-66532098D01*
X75901718Y-66532103D01*
X75797967Y-66601428D01*
X75797963Y-66601431D01*
X74483214Y-67916180D01*
X74421891Y-67949665D01*
X74352199Y-67944681D01*
X74296266Y-67902809D01*
X74273916Y-67852690D01*
X74257402Y-67769671D01*
X74250287Y-67733900D01*
X74181802Y-67568564D01*
X74181800Y-67568561D01*
X74181798Y-67568557D01*
X74082378Y-67419765D01*
X74082375Y-67419761D01*
X74046519Y-67383905D01*
X74013034Y-67322582D01*
X74010200Y-67296224D01*
X74010200Y-65842603D01*
X74009603Y-65836541D01*
X74011061Y-65836397D01*
X74011479Y-65831714D01*
X74008029Y-65820220D01*
X74014534Y-65797557D01*
X74016634Y-65774077D01*
X74024476Y-65762921D01*
X74027307Y-65753062D01*
X74041952Y-65738063D01*
X74050258Y-65726250D01*
X74056370Y-65720888D01*
X74079135Y-65705678D01*
X74117868Y-65666944D01*
X74120905Y-65664281D01*
X74149065Y-65651213D01*
X74176314Y-65636334D01*
X74182583Y-65635659D01*
X74184284Y-65634871D01*
X74186756Y-65635211D01*
X74202670Y-65633500D01*
X74210846Y-65633500D01*
X74285694Y-65633500D01*
X74285705Y-65633498D01*
X74285710Y-65633497D01*
X74285719Y-65633497D01*
X74332623Y-65624165D01*
X74343219Y-65622058D01*
X74343221Y-65622057D01*
X74343222Y-65622057D01*
X74408085Y-65609155D01*
X74408089Y-65609152D01*
X74408756Y-65609020D01*
X74412082Y-65607501D01*
X74467607Y-65584500D01*
X74520977Y-65562392D01*
X74523162Y-65561543D01*
X74523390Y-65561390D01*
X74523397Y-65561388D01*
X74570050Y-65530212D01*
X74627133Y-65492071D01*
X74627134Y-65492069D01*
X74627457Y-65491854D01*
X74629392Y-65489814D01*
X74669279Y-65449925D01*
X74715371Y-65403833D01*
X74720988Y-65398216D01*
X74721029Y-65398168D01*
X74727753Y-65391443D01*
X75696352Y-65391443D01*
X75696352Y-65566764D01*
X75736786Y-65737368D01*
X75815471Y-65894044D01*
X75880672Y-65974082D01*
X75880688Y-65974100D01*
X75977894Y-66071306D01*
X75977895Y-66071306D01*
X76667323Y-65381876D01*
X76075122Y-64789675D01*
X75880682Y-64984117D01*
X75880672Y-64984128D01*
X75815476Y-65064159D01*
X75815467Y-65064172D01*
X75736786Y-65220839D01*
X75696352Y-65391443D01*
X74727753Y-65391443D01*
X75749218Y-64369901D01*
X75925283Y-64193822D01*
X75986605Y-64160335D01*
X76012968Y-64157500D01*
X76407935Y-64157500D01*
X76474974Y-64177185D01*
X76520729Y-64229989D01*
X76530673Y-64299147D01*
X76501648Y-64362703D01*
X76495616Y-64369181D01*
X76428675Y-64436122D01*
X77020875Y-65028323D01*
X77020876Y-65028323D01*
X77710305Y-64338895D01*
X77613101Y-64241691D01*
X77613080Y-64241672D01*
X77533049Y-64176476D01*
X77533036Y-64176467D01*
X77376365Y-64097784D01*
X77200356Y-64056069D01*
X77139664Y-64021455D01*
X77107320Y-63959522D01*
X77113593Y-63889935D01*
X77141270Y-63847733D01*
X77987627Y-63001375D01*
X78048948Y-62967892D01*
X78057646Y-62966322D01*
X78127845Y-62956229D01*
X78148055Y-62959135D01*
G37*
%TD.AperFunction*%
%TA.AperFunction,Conductor*%
G36*
X88367221Y-64655575D02*
G01*
X88421499Y-64663379D01*
X88485054Y-64692404D01*
X88491532Y-64698436D01*
X89035163Y-65242069D01*
X89035166Y-65242072D01*
X89116687Y-65296542D01*
X89138925Y-65311401D01*
X89143044Y-65313107D01*
X89215596Y-65343159D01*
X89215601Y-65343160D01*
X89215605Y-65343162D01*
X89254215Y-65359155D01*
X89368442Y-65381876D01*
X89376601Y-65383499D01*
X89376605Y-65383500D01*
X89376606Y-65383500D01*
X89376607Y-65383500D01*
X89501394Y-65383500D01*
X89531098Y-65383500D01*
X89537902Y-65385498D01*
X89544888Y-65384269D01*
X89570988Y-65395213D01*
X89598137Y-65403185D01*
X89602780Y-65408544D01*
X89609322Y-65411287D01*
X89625361Y-65434604D01*
X89643892Y-65455989D01*
X89645861Y-65464404D01*
X89648921Y-65468852D01*
X89653269Y-65496059D01*
X89655037Y-65503612D01*
X89655098Y-65505556D01*
X89655098Y-65590605D01*
X89658173Y-65603580D01*
X89658566Y-65616100D01*
X89652802Y-65638279D01*
X89651591Y-65661163D01*
X89644181Y-65671452D01*
X89640993Y-65683723D01*
X89624154Y-65699264D01*
X89610763Y-65717862D01*
X89598967Y-65722512D01*
X89589650Y-65731112D01*
X89567079Y-65735083D01*
X89545762Y-65743487D01*
X89526940Y-65742145D01*
X89520837Y-65743219D01*
X89518541Y-65742256D01*
X89518485Y-65742736D01*
X89511316Y-65741898D01*
X89335990Y-65741898D01*
X89165385Y-65782332D01*
X89008709Y-65861017D01*
X88928671Y-65926218D01*
X88928653Y-65926234D01*
X88845181Y-66009707D01*
X88783858Y-66043192D01*
X88714166Y-66038208D01*
X88658233Y-65996336D01*
X88633816Y-65930872D01*
X88633500Y-65922026D01*
X88633500Y-65437605D01*
X88633499Y-65437601D01*
X88625665Y-65398216D01*
X88609155Y-65315215D01*
X88588355Y-65265000D01*
X88588355Y-65264999D01*
X88561404Y-65199931D01*
X88561402Y-65199927D01*
X88561401Y-65199925D01*
X88520891Y-65139297D01*
X88492072Y-65096166D01*
X88492069Y-65096163D01*
X88261900Y-64865995D01*
X88228415Y-64804672D01*
X88233399Y-64734981D01*
X88275270Y-64679047D01*
X88340735Y-64654630D01*
X88367221Y-64655575D01*
G37*
%TD.AperFunction*%
%TA.AperFunction,Conductor*%
G36*
X84131434Y-53177050D02*
G01*
X84175781Y-53205551D01*
X84629135Y-53658905D01*
X84676563Y-53697125D01*
X84676612Y-53697147D01*
X84679020Y-53699107D01*
X84679213Y-53699388D01*
X84697299Y-53717474D01*
X84698905Y-53719467D01*
X84698906Y-53719469D01*
X84737126Y-53766897D01*
X85194820Y-54224591D01*
X85242248Y-54262811D01*
X85242252Y-54262812D01*
X85244239Y-54264414D01*
X85262986Y-54283162D01*
X85264590Y-54285153D01*
X85264591Y-54285154D01*
X85287186Y-54313193D01*
X85302802Y-54332571D01*
X85302813Y-54332584D01*
X85760506Y-54790277D01*
X85771521Y-54799153D01*
X85807933Y-54828496D01*
X85807934Y-54828496D01*
X85809928Y-54830103D01*
X85828674Y-54848849D01*
X85830276Y-54850837D01*
X85830277Y-54850839D01*
X85834765Y-54856408D01*
X85868495Y-54898265D01*
X86020050Y-55049820D01*
X86053535Y-55111143D01*
X86048551Y-55180835D01*
X86006679Y-55236768D01*
X86001260Y-55240603D01*
X85920865Y-55294321D01*
X85920861Y-55294324D01*
X85794324Y-55420861D01*
X85794321Y-55420865D01*
X85694901Y-55569657D01*
X85694896Y-55569667D01*
X85626413Y-55734999D01*
X85626411Y-55735007D01*
X85591500Y-55910516D01*
X85591500Y-56089483D01*
X85626411Y-56264992D01*
X85626413Y-56265000D01*
X85694896Y-56430332D01*
X85694901Y-56430342D01*
X85794321Y-56579134D01*
X85794324Y-56579138D01*
X85920861Y-56705675D01*
X85920865Y-56705678D01*
X86069657Y-56805098D01*
X86069661Y-56805100D01*
X86069664Y-56805102D01*
X86235000Y-56873587D01*
X86410516Y-56908499D01*
X86410520Y-56908500D01*
X86410521Y-56908500D01*
X86589480Y-56908500D01*
X86589481Y-56908499D01*
X86765000Y-56873587D01*
X86930336Y-56805102D01*
X87079135Y-56705678D01*
X87205678Y-56579135D01*
X87259397Y-56498738D01*
X87271554Y-56488578D01*
X87279924Y-56475123D01*
X87297814Y-56466632D01*
X87313007Y-56453935D01*
X87328727Y-56451960D01*
X87343045Y-56445165D01*
X87362684Y-56447694D01*
X87382332Y-56445226D01*
X87397488Y-56452176D01*
X87412342Y-56454089D01*
X87434124Y-56468976D01*
X87442312Y-56472731D01*
X87446394Y-56476164D01*
X87457562Y-56487332D01*
X87504990Y-56525552D01*
X87505266Y-56525678D01*
X87508988Y-56528808D01*
X87509688Y-56529863D01*
X87525726Y-56545901D01*
X87527332Y-56547894D01*
X87527333Y-56547896D01*
X87551033Y-56577306D01*
X87556535Y-56584134D01*
X87565553Y-56595324D01*
X88023247Y-57053018D01*
X88070675Y-57091238D01*
X88070676Y-57091238D01*
X88072670Y-57092845D01*
X88091416Y-57111591D01*
X88093018Y-57113579D01*
X88093019Y-57113581D01*
X88116311Y-57142484D01*
X88127338Y-57156169D01*
X88131239Y-57161009D01*
X88588933Y-57618703D01*
X88636361Y-57656923D01*
X88636362Y-57656923D01*
X88638351Y-57658526D01*
X88657097Y-57677272D01*
X88658703Y-57679265D01*
X88658704Y-57679267D01*
X88682404Y-57708677D01*
X88696922Y-57726693D01*
X89154619Y-58184390D01*
X89169672Y-58196520D01*
X89202046Y-58222609D01*
X89202047Y-58222609D01*
X89202049Y-58222611D01*
X89208647Y-58226687D01*
X89207881Y-58227926D01*
X89244647Y-58256483D01*
X89269191Y-58286941D01*
X89320688Y-58338438D01*
X89326766Y-58332361D01*
X89388088Y-58298875D01*
X89409139Y-58296155D01*
X89420668Y-58295660D01*
X89479789Y-58304161D01*
X89589117Y-58288442D01*
X89595311Y-58288177D01*
X89623444Y-58295144D01*
X89652131Y-58299269D01*
X89656945Y-58303440D01*
X89663132Y-58304973D01*
X89683033Y-58326045D01*
X89704935Y-58345023D01*
X89706730Y-58351136D01*
X89711106Y-58355770D01*
X89716455Y-58384258D01*
X89724620Y-58412063D01*
X89723808Y-58423412D01*
X89724001Y-58424439D01*
X89723677Y-58425234D01*
X89723358Y-58429709D01*
X89708523Y-58532893D01*
X89708523Y-58532895D01*
X89715379Y-58580587D01*
X89705434Y-58649746D01*
X89680324Y-58685911D01*
X89674243Y-58691992D01*
X89725744Y-58743493D01*
X89756200Y-58768036D01*
X89784764Y-58804803D01*
X89786000Y-58804040D01*
X89790076Y-58810639D01*
X89797482Y-58819829D01*
X89828293Y-58858063D01*
X89828297Y-58858067D01*
X90281649Y-59311419D01*
X90315134Y-59372742D01*
X90310150Y-59442434D01*
X90281649Y-59486781D01*
X89828297Y-59940132D01*
X89828291Y-59940139D01*
X89788472Y-59989551D01*
X89769729Y-60008294D01*
X89720309Y-60048120D01*
X89720300Y-60048128D01*
X89262607Y-60505821D01*
X89222784Y-60555240D01*
X89204038Y-60573986D01*
X89154619Y-60613809D01*
X88696926Y-61071502D01*
X88696918Y-61071511D01*
X88657092Y-61120931D01*
X88638349Y-61139674D01*
X88588932Y-61179497D01*
X88588925Y-61179503D01*
X88306888Y-61461540D01*
X88245565Y-61495025D01*
X88175873Y-61490041D01*
X88119940Y-61448169D01*
X88104646Y-61421312D01*
X88074686Y-61348984D01*
X88067802Y-61332364D01*
X88067800Y-61332361D01*
X88067798Y-61332357D01*
X87968378Y-61183565D01*
X87968375Y-61183561D01*
X87841838Y-61057024D01*
X87841834Y-61057021D01*
X87693042Y-60957601D01*
X87693032Y-60957596D01*
X87527700Y-60889113D01*
X87527692Y-60889111D01*
X87352183Y-60854200D01*
X87352179Y-60854200D01*
X87173221Y-60854200D01*
X87173216Y-60854200D01*
X86997707Y-60889111D01*
X86997699Y-60889113D01*
X86832367Y-60957596D01*
X86832357Y-60957601D01*
X86683565Y-61057021D01*
X86683561Y-61057024D01*
X86557024Y-61183561D01*
X86557021Y-61183565D01*
X86457601Y-61332357D01*
X86457596Y-61332367D01*
X86389113Y-61497699D01*
X86389111Y-61497707D01*
X86354200Y-61673216D01*
X86354200Y-61852183D01*
X86389111Y-62027692D01*
X86389113Y-62027700D01*
X86457596Y-62193032D01*
X86457601Y-62193042D01*
X86557021Y-62341834D01*
X86557024Y-62341838D01*
X86592880Y-62377693D01*
X86626366Y-62439015D01*
X86629200Y-62465375D01*
X86629200Y-62636098D01*
X86653543Y-62758477D01*
X86653545Y-62758485D01*
X86701298Y-62873772D01*
X86701303Y-62873781D01*
X86770627Y-62977531D01*
X86770628Y-62977532D01*
X86770629Y-62977533D01*
X86849782Y-63056686D01*
X86860394Y-63076120D01*
X86874894Y-63092854D01*
X86881132Y-63114099D01*
X86883266Y-63118007D01*
X86884838Y-63126719D01*
X86894931Y-63196917D01*
X86884987Y-63266075D01*
X86839233Y-63318879D01*
X86772193Y-63338564D01*
X86754547Y-63337302D01*
X86651363Y-63322467D01*
X86651359Y-63322467D01*
X86603667Y-63329323D01*
X86534509Y-63319378D01*
X86498343Y-63294267D01*
X86492262Y-63288186D01*
X86492261Y-63288187D01*
X86440769Y-63339680D01*
X86440759Y-63339691D01*
X86416216Y-63370147D01*
X86379456Y-63398707D01*
X86380219Y-63399942D01*
X86373621Y-63404017D01*
X86326192Y-63442237D01*
X85868499Y-63899930D01*
X85868493Y-63899937D01*
X85828674Y-63949349D01*
X85809931Y-63968092D01*
X85760511Y-64007918D01*
X85760502Y-64007926D01*
X85302809Y-64465619D01*
X85262986Y-64515038D01*
X85244240Y-64533784D01*
X85194821Y-64573607D01*
X84737128Y-65031300D01*
X84737120Y-65031309D01*
X84697294Y-65080729D01*
X84678551Y-65099472D01*
X84629139Y-65139291D01*
X84629132Y-65139297D01*
X84175781Y-65592649D01*
X84114458Y-65626134D01*
X84044766Y-65621150D01*
X84000419Y-65592649D01*
X83547063Y-65139293D01*
X83520497Y-65117885D01*
X83499637Y-65101075D01*
X83499635Y-65101074D01*
X83497647Y-65099472D01*
X83478901Y-65080726D01*
X83477294Y-65078732D01*
X83477294Y-65078731D01*
X83439074Y-65031303D01*
X83275639Y-64867868D01*
X83242154Y-64806545D01*
X83247138Y-64736853D01*
X83289010Y-64680920D01*
X83339129Y-64658570D01*
X83417192Y-64643042D01*
X83515000Y-64623587D01*
X83680336Y-64555102D01*
X83829135Y-64455678D01*
X83955678Y-64329135D01*
X84055102Y-64180336D01*
X84123587Y-64015000D01*
X84158500Y-63839479D01*
X84158500Y-63660521D01*
X84123587Y-63485000D01*
X84055102Y-63319664D01*
X84055100Y-63319661D01*
X84055098Y-63319657D01*
X83955678Y-63170865D01*
X83955675Y-63170861D01*
X83829138Y-63044324D01*
X83829134Y-63044321D01*
X83680342Y-62944901D01*
X83680332Y-62944896D01*
X83515000Y-62876413D01*
X83514992Y-62876411D01*
X83339483Y-62841500D01*
X83339479Y-62841500D01*
X83160521Y-62841500D01*
X83160516Y-62841500D01*
X82985007Y-62876411D01*
X82984999Y-62876413D01*
X82819667Y-62944896D01*
X82819657Y-62944901D01*
X82670865Y-63044321D01*
X82670861Y-63044324D01*
X82544324Y-63170861D01*
X82544321Y-63170865D01*
X82444901Y-63319657D01*
X82444896Y-63319667D01*
X82376413Y-63484999D01*
X82376411Y-63485007D01*
X82352941Y-63602998D01*
X82344176Y-63619753D01*
X82340157Y-63638232D01*
X82321409Y-63663277D01*
X82320556Y-63664909D01*
X82319007Y-63666487D01*
X82284312Y-63701181D01*
X82222992Y-63734666D01*
X82153300Y-63729682D01*
X82108951Y-63701181D01*
X81850007Y-63442237D01*
X81821053Y-63418905D01*
X81802581Y-63404019D01*
X81802579Y-63404018D01*
X81800591Y-63402416D01*
X81781845Y-63383670D01*
X81780238Y-63381676D01*
X81780238Y-63381675D01*
X81742018Y-63334247D01*
X81284324Y-62876553D01*
X81284150Y-62876413D01*
X81251251Y-62849901D01*
X81236896Y-62838333D01*
X81236894Y-62838332D01*
X81234901Y-62836726D01*
X81216155Y-62817980D01*
X81214552Y-62815991D01*
X81214552Y-62815990D01*
X81176332Y-62768562D01*
X80718638Y-62310868D01*
X80671210Y-62272648D01*
X80671208Y-62272647D01*
X80669220Y-62271045D01*
X80650474Y-62252299D01*
X80648867Y-62250305D01*
X80648867Y-62250304D01*
X80610647Y-62202876D01*
X80152953Y-61745182D01*
X80140317Y-61734999D01*
X80105526Y-61706962D01*
X80098934Y-61702891D01*
X80099696Y-61701656D01*
X80062922Y-61673087D01*
X80038380Y-61642632D01*
X79986880Y-61591131D01*
X79986879Y-61591131D01*
X79980799Y-61597211D01*
X79919475Y-61630695D01*
X79898430Y-61633414D01*
X79886892Y-61633908D01*
X79827782Y-61625410D01*
X79718463Y-61641127D01*
X79712260Y-61641393D01*
X79684129Y-61634426D01*
X79655438Y-61630301D01*
X79650622Y-61626128D01*
X79644439Y-61624597D01*
X79624541Y-61603528D01*
X79602634Y-61584546D01*
X79600838Y-61578432D01*
X79596465Y-61573801D01*
X79591115Y-61545316D01*
X79582950Y-61517506D01*
X79583761Y-61506157D01*
X79583569Y-61505132D01*
X79583891Y-61504336D01*
X79584211Y-61499871D01*
X79599048Y-61396676D01*
X79592190Y-61348980D01*
X79602133Y-61279826D01*
X79627247Y-61243655D01*
X79633325Y-61237576D01*
X79581824Y-61186076D01*
X79551370Y-61161534D01*
X79522806Y-61124767D01*
X79521571Y-61125531D01*
X79517498Y-61118937D01*
X79517496Y-61118933D01*
X79479276Y-61071505D01*
X79021582Y-60613811D01*
X78974154Y-60575591D01*
X78974153Y-60575590D01*
X78972162Y-60573986D01*
X78953414Y-60555239D01*
X78951812Y-60553252D01*
X78951811Y-60553248D01*
X78913591Y-60505820D01*
X78455897Y-60048126D01*
X78408469Y-60009906D01*
X78408467Y-60009905D01*
X78406474Y-60008299D01*
X78387728Y-59989553D01*
X78386125Y-59987564D01*
X78386125Y-59987563D01*
X78347905Y-59940135D01*
X77894550Y-59486780D01*
X77861066Y-59425458D01*
X77866050Y-59355766D01*
X77894551Y-59311419D01*
X78114470Y-59091500D01*
X78347905Y-58858065D01*
X78386125Y-58810637D01*
X78386125Y-58810635D01*
X78387728Y-58808647D01*
X78406474Y-58789901D01*
X78408467Y-58788294D01*
X78408469Y-58788294D01*
X78455897Y-58750074D01*
X78913591Y-58292380D01*
X78951811Y-58244952D01*
X78951811Y-58244951D01*
X78953416Y-58242960D01*
X78965328Y-58230146D01*
X78972673Y-58223284D01*
X78974154Y-58222609D01*
X79021582Y-58184389D01*
X79124399Y-58081570D01*
X79125938Y-58080134D01*
X79155334Y-58065360D01*
X79184219Y-58049588D01*
X79186406Y-58049744D01*
X79188367Y-58048759D01*
X79221103Y-58052225D01*
X79253911Y-58054572D01*
X79256012Y-58055922D01*
X79257848Y-58056117D01*
X79263983Y-58061045D01*
X79298259Y-58083073D01*
X79420861Y-58205675D01*
X79420865Y-58205678D01*
X79569657Y-58305098D01*
X79569661Y-58305100D01*
X79569664Y-58305102D01*
X79735000Y-58373587D01*
X79910516Y-58408499D01*
X79910520Y-58408500D01*
X79910521Y-58408500D01*
X80089480Y-58408500D01*
X80089481Y-58408499D01*
X80265000Y-58373587D01*
X80430336Y-58305102D01*
X80579135Y-58205678D01*
X80705678Y-58079135D01*
X80805102Y-57930336D01*
X80873587Y-57765000D01*
X80908500Y-57589479D01*
X80908500Y-57410521D01*
X80873587Y-57235000D01*
X80805102Y-57069664D01*
X80805100Y-57069661D01*
X80805098Y-57069657D01*
X80705678Y-56920865D01*
X80705675Y-56920861D01*
X80583073Y-56798259D01*
X80580686Y-56793888D01*
X80576513Y-56791168D01*
X80564105Y-56763522D01*
X80549588Y-56736936D01*
X80549943Y-56731967D01*
X80547904Y-56727424D01*
X80552410Y-56697467D01*
X80554572Y-56667244D01*
X80557759Y-56661911D01*
X80558298Y-56658332D01*
X80569340Y-56642537D01*
X80577573Y-56628766D01*
X80580222Y-56625747D01*
X80610647Y-56595324D01*
X80648867Y-56547896D01*
X80649182Y-56547205D01*
X80653845Y-56541895D01*
X80655577Y-56540797D01*
X80669220Y-56527155D01*
X80671208Y-56525552D01*
X80671210Y-56525552D01*
X80718638Y-56487332D01*
X81176332Y-56029638D01*
X81214552Y-55982210D01*
X81214552Y-55982208D01*
X81216155Y-55980220D01*
X81234901Y-55961474D01*
X81236894Y-55959867D01*
X81236896Y-55959867D01*
X81284324Y-55921647D01*
X81742018Y-55463953D01*
X81780238Y-55416525D01*
X81780238Y-55416523D01*
X81781845Y-55414530D01*
X81800591Y-55395784D01*
X81802579Y-55394181D01*
X81802581Y-55394181D01*
X81850009Y-55355961D01*
X82307703Y-54898267D01*
X82345923Y-54850839D01*
X82345925Y-54850835D01*
X82350001Y-54844238D01*
X82351242Y-54845004D01*
X82379797Y-54808238D01*
X82410264Y-54783686D01*
X82461754Y-54732195D01*
X82461754Y-54732194D01*
X82455674Y-54726114D01*
X82422189Y-54664791D01*
X82419470Y-54643744D01*
X82418975Y-54632211D01*
X82427475Y-54573096D01*
X82411756Y-54463767D01*
X82411491Y-54457575D01*
X82418457Y-54429443D01*
X82422583Y-54400754D01*
X82426755Y-54395938D01*
X82428287Y-54389754D01*
X82449356Y-54369854D01*
X82468337Y-54347950D01*
X82474450Y-54346154D01*
X82479083Y-54341780D01*
X82507568Y-54336430D01*
X82535377Y-54328265D01*
X82546726Y-54329076D01*
X82547752Y-54328884D01*
X82548547Y-54329206D01*
X82553014Y-54329526D01*
X82656209Y-54344363D01*
X82703903Y-54337505D01*
X82773058Y-54347448D01*
X82809230Y-54372563D01*
X82815308Y-54378641D01*
X82815309Y-54378641D01*
X82866799Y-54327151D01*
X82866806Y-54327143D01*
X82891348Y-54296688D01*
X82928111Y-54268134D01*
X82927344Y-54266893D01*
X82933943Y-54262814D01*
X82933952Y-54262811D01*
X82981380Y-54224591D01*
X83439074Y-53766897D01*
X83477294Y-53719469D01*
X83477294Y-53719467D01*
X83478901Y-53717474D01*
X83497647Y-53698728D01*
X83499635Y-53697125D01*
X83499637Y-53697125D01*
X83547065Y-53658905D01*
X84000419Y-53205551D01*
X84061742Y-53172066D01*
X84131434Y-53177050D01*
G37*
%TD.AperFunction*%
%TA.AperFunction,Conductor*%
G36*
X105559173Y-61387483D02*
G01*
X105585730Y-61418132D01*
X105588103Y-61422005D01*
X105588106Y-61422009D01*
X105713794Y-61595004D01*
X105864996Y-61746206D01*
X106037991Y-61871894D01*
X106042680Y-61874283D01*
X106093478Y-61922254D01*
X106110276Y-61990074D01*
X106087742Y-62056210D01*
X106046205Y-62092209D01*
X106046590Y-62092838D01*
X106042804Y-62095157D01*
X106042702Y-62095246D01*
X106042449Y-62095374D01*
X106042440Y-62095380D01*
X105988282Y-62134727D01*
X105988282Y-62134728D01*
X106620591Y-62767037D01*
X106557007Y-62784075D01*
X106442993Y-62849901D01*
X106349901Y-62942993D01*
X106284075Y-63057007D01*
X106267037Y-63120591D01*
X105634728Y-62488282D01*
X105634727Y-62488282D01*
X105595380Y-62542440D01*
X105595374Y-62542449D01*
X105595246Y-62542702D01*
X105595172Y-62542780D01*
X105592838Y-62546590D01*
X105592036Y-62546099D01*
X105547264Y-62593490D01*
X105479441Y-62610275D01*
X105413309Y-62587728D01*
X105374283Y-62542680D01*
X105371894Y-62537991D01*
X105246206Y-62364996D01*
X105095004Y-62213794D01*
X104932011Y-62095373D01*
X104922005Y-62088103D01*
X104918132Y-62085730D01*
X104871254Y-62033920D01*
X104859829Y-61964991D01*
X104887483Y-61900827D01*
X104918132Y-61874270D01*
X104922005Y-61871896D01*
X104922004Y-61871896D01*
X104922009Y-61871894D01*
X105095004Y-61746206D01*
X105246206Y-61595004D01*
X105371894Y-61422009D01*
X105371896Y-61422004D01*
X105374270Y-61418132D01*
X105426080Y-61371254D01*
X105495009Y-61359829D01*
X105559173Y-61387483D01*
G37*
%TD.AperFunction*%
%TA.AperFunction,Conductor*%
G36*
X106284075Y-53282993D02*
G01*
X106349901Y-53397007D01*
X106442993Y-53490099D01*
X106557007Y-53555925D01*
X106620590Y-53572962D01*
X105988282Y-54205269D01*
X105988282Y-54205270D01*
X106042449Y-54244624D01*
X106042682Y-54244743D01*
X106042755Y-54244812D01*
X106046604Y-54247171D01*
X106046108Y-54247979D01*
X106093479Y-54292716D01*
X106110275Y-54360537D01*
X106087739Y-54426672D01*
X106042693Y-54465709D01*
X106037994Y-54468103D01*
X105864993Y-54593796D01*
X105713796Y-54744993D01*
X105588105Y-54917991D01*
X105585727Y-54921873D01*
X105533914Y-54968748D01*
X105464984Y-54980169D01*
X105400822Y-54952512D01*
X105374273Y-54921873D01*
X105371894Y-54917991D01*
X105346835Y-54883500D01*
X105246206Y-54744996D01*
X105095004Y-54593794D01*
X105094999Y-54593790D01*
X105094206Y-54593113D01*
X105093986Y-54592776D01*
X105091559Y-54590349D01*
X105092068Y-54589839D01*
X105056016Y-54534604D01*
X105055520Y-54464736D01*
X105092876Y-54405692D01*
X105126720Y-54386291D01*
X105126195Y-54385165D01*
X105132730Y-54382117D01*
X105132738Y-54382115D01*
X105283652Y-54289030D01*
X105409030Y-54163652D01*
X105502115Y-54012738D01*
X105526921Y-53937875D01*
X105566693Y-53880431D01*
X105631208Y-53853607D01*
X105632862Y-53853582D01*
X106267037Y-53219408D01*
X106284075Y-53282993D01*
G37*
%TD.AperFunction*%
%TA.AperFunction,Conductor*%
G36*
X111254853Y-44450881D02*
G01*
X111438785Y-44465358D01*
X111450586Y-44466859D01*
X111491036Y-44473992D01*
X111498437Y-44475531D01*
X111655905Y-44513335D01*
X111669340Y-44517378D01*
X111698182Y-44527876D01*
X111703178Y-44529819D01*
X111863326Y-44596155D01*
X111877836Y-44603307D01*
X111878560Y-44603725D01*
X111881357Y-44605389D01*
X111951013Y-44648075D01*
X112047593Y-44707259D01*
X112063326Y-44718689D01*
X112212105Y-44845758D01*
X112225841Y-44859494D01*
X112352900Y-45008261D01*
X112364336Y-45024002D01*
X112466221Y-45190263D01*
X112467890Y-45193069D01*
X112468279Y-45193743D01*
X112475444Y-45208274D01*
X112541773Y-45368405D01*
X112543734Y-45373447D01*
X112554215Y-45402243D01*
X112558267Y-45415708D01*
X112596065Y-45573154D01*
X112597607Y-45580568D01*
X112604738Y-45621011D01*
X112606240Y-45632813D01*
X112620718Y-45816746D01*
X112621100Y-45826476D01*
X112621100Y-88590323D01*
X112620718Y-88600053D01*
X112606240Y-88783985D01*
X112604738Y-88795787D01*
X112597607Y-88836230D01*
X112596065Y-88843644D01*
X112558267Y-89001090D01*
X112554215Y-89014555D01*
X112543734Y-89043351D01*
X112541773Y-89048393D01*
X112475444Y-89208524D01*
X112468267Y-89223077D01*
X112467868Y-89223768D01*
X112466212Y-89226551D01*
X112364339Y-89392794D01*
X112352902Y-89408536D01*
X112225846Y-89557299D01*
X112212099Y-89571046D01*
X112102871Y-89664335D01*
X112063336Y-89698102D01*
X112047598Y-89709536D01*
X112047594Y-89709539D01*
X111881351Y-89811412D01*
X111878568Y-89813068D01*
X111877877Y-89813467D01*
X111863324Y-89820644D01*
X111703193Y-89886973D01*
X111698151Y-89888934D01*
X111669355Y-89899415D01*
X111655890Y-89903467D01*
X111498444Y-89941265D01*
X111491030Y-89942807D01*
X111450587Y-89949938D01*
X111438785Y-89951440D01*
X111254853Y-89965918D01*
X111245123Y-89966300D01*
X38626477Y-89966300D01*
X38616747Y-89965918D01*
X38432813Y-89951440D01*
X38421011Y-89949938D01*
X38380568Y-89942807D01*
X38373154Y-89941265D01*
X38215708Y-89903467D01*
X38202243Y-89899415D01*
X38173447Y-89888934D01*
X38168405Y-89886973D01*
X38008274Y-89820644D01*
X37993743Y-89813479D01*
X37993069Y-89813090D01*
X37990263Y-89811421D01*
X37824002Y-89709536D01*
X37808261Y-89698100D01*
X37659494Y-89571041D01*
X37645758Y-89557305D01*
X37518689Y-89408526D01*
X37507259Y-89392793D01*
X37405393Y-89226563D01*
X37403713Y-89223739D01*
X37403308Y-89223037D01*
X37396154Y-89208524D01*
X37329825Y-89048393D01*
X37327876Y-89043382D01*
X37317378Y-89014540D01*
X37313335Y-89001105D01*
X37275531Y-88843637D01*
X37273991Y-88836230D01*
X37266860Y-88795787D01*
X37265358Y-88783984D01*
X37250882Y-88600053D01*
X37250500Y-88590324D01*
X37250500Y-82901345D01*
X39191500Y-82901345D01*
X39191500Y-84598654D01*
X39198011Y-84659202D01*
X39198011Y-84659204D01*
X39249111Y-84796203D01*
X39249111Y-84796204D01*
X39336739Y-84913261D01*
X39453796Y-85000889D01*
X39590799Y-85051989D01*
X39618050Y-85054918D01*
X39651345Y-85058499D01*
X39651362Y-85058500D01*
X41348638Y-85058500D01*
X41348654Y-85058499D01*
X41375692Y-85055591D01*
X41409201Y-85051989D01*
X41546204Y-85000889D01*
X41663261Y-84913261D01*
X41750889Y-84796204D01*
X41801989Y-84659201D01*
X41808500Y-84598638D01*
X41808500Y-84586374D01*
X41812018Y-84571922D01*
X41822363Y-84554034D01*
X41828185Y-84534209D01*
X41839500Y-84524404D01*
X41846999Y-84511439D01*
X41865375Y-84501983D01*
X41880989Y-84488454D01*
X41897255Y-84485578D01*
X41909126Y-84479471D01*
X41916286Y-84480160D01*
X42600000Y-83796446D01*
X42600000Y-83802661D01*
X42627259Y-83904394D01*
X42679920Y-83995606D01*
X42754394Y-84070080D01*
X42845606Y-84122741D01*
X42947339Y-84150000D01*
X42953553Y-84150000D01*
X42274076Y-84829474D01*
X42318650Y-84861859D01*
X42500968Y-84954755D01*
X42695582Y-85017990D01*
X42897683Y-85050000D01*
X43102317Y-85050000D01*
X43304417Y-85017990D01*
X43499031Y-84954755D01*
X43681349Y-84861859D01*
X43725921Y-84829474D01*
X43046447Y-84150000D01*
X43052661Y-84150000D01*
X43154394Y-84122741D01*
X43245606Y-84070080D01*
X43320080Y-83995606D01*
X43372741Y-83904394D01*
X43400000Y-83802661D01*
X43400000Y-83796447D01*
X44079474Y-84475921D01*
X44111859Y-84431349D01*
X44204755Y-84249031D01*
X44267990Y-84054417D01*
X44300000Y-83852317D01*
X44300000Y-83647682D01*
X44267990Y-83445582D01*
X44204755Y-83250968D01*
X44111859Y-83068650D01*
X44079474Y-83024077D01*
X44079474Y-83024076D01*
X43400000Y-83703551D01*
X43400000Y-83697339D01*
X43372741Y-83595606D01*
X43320080Y-83504394D01*
X43245606Y-83429920D01*
X43154394Y-83377259D01*
X43052661Y-83350000D01*
X43046446Y-83350000D01*
X43725922Y-82670524D01*
X43725921Y-82670523D01*
X43681359Y-82638147D01*
X43681350Y-82638141D01*
X43499031Y-82545244D01*
X43304417Y-82482009D01*
X43102317Y-82450000D01*
X42897683Y-82450000D01*
X42695582Y-82482009D01*
X42500968Y-82545244D01*
X42318644Y-82638143D01*
X42274077Y-82670523D01*
X42274077Y-82670524D01*
X42953554Y-83350000D01*
X42947339Y-83350000D01*
X42845606Y-83377259D01*
X42754394Y-83429920D01*
X42679920Y-83504394D01*
X42627259Y-83595606D01*
X42600000Y-83697339D01*
X42600000Y-83703553D01*
X41912589Y-83016142D01*
X41873852Y-83008005D01*
X41824095Y-82958954D01*
X41812018Y-82928078D01*
X41808500Y-82913625D01*
X41808500Y-82901362D01*
X41801989Y-82840799D01*
X41750889Y-82703796D01*
X41663261Y-82586739D01*
X41546204Y-82499111D01*
X41409203Y-82448011D01*
X41348654Y-82441500D01*
X41348638Y-82441500D01*
X39651362Y-82441500D01*
X39651345Y-82441500D01*
X39590797Y-82448011D01*
X39590795Y-82448011D01*
X39453795Y-82499111D01*
X39336739Y-82586739D01*
X39249111Y-82703795D01*
X39198011Y-82840795D01*
X39198011Y-82840797D01*
X39191500Y-82901345D01*
X37250500Y-82901345D01*
X37250500Y-67203084D01*
X40799500Y-67203084D01*
X40799500Y-67416915D01*
X40832951Y-67628117D01*
X40899026Y-67831480D01*
X40899027Y-67831483D01*
X40968618Y-67968061D01*
X40996106Y-68022009D01*
X41121794Y-68195004D01*
X41272996Y-68346206D01*
X41445991Y-68471894D01*
X41494613Y-68496668D01*
X41636516Y-68568972D01*
X41636519Y-68568973D01*
X41715870Y-68594755D01*
X41839884Y-68635049D01*
X42051084Y-68668500D01*
X42051085Y-68668500D01*
X42264915Y-68668500D01*
X42264916Y-68668500D01*
X42476116Y-68635049D01*
X42679483Y-68568972D01*
X42870009Y-68471894D01*
X43043004Y-68346206D01*
X43194206Y-68195004D01*
X43319894Y-68022009D01*
X43416972Y-67831483D01*
X43483049Y-67628116D01*
X43516500Y-67416916D01*
X43516500Y-67203084D01*
X43483049Y-66991884D01*
X43428332Y-66823479D01*
X43416973Y-66788519D01*
X43416972Y-66788516D01*
X43325947Y-66609871D01*
X43319894Y-66597991D01*
X43194206Y-66424996D01*
X43082421Y-66313211D01*
X43048936Y-66251888D01*
X43053920Y-66182196D01*
X43095792Y-66126263D01*
X43126770Y-66109348D01*
X43250084Y-66063355D01*
X43250093Y-66063350D01*
X43365187Y-65977190D01*
X43365190Y-65977187D01*
X43451350Y-65862093D01*
X43451354Y-65862086D01*
X43501596Y-65727379D01*
X43501598Y-65727372D01*
X43507999Y-65667844D01*
X43508000Y-65667827D01*
X43508000Y-65020000D01*
X42591012Y-65020000D01*
X42623925Y-64962993D01*
X42658000Y-64835826D01*
X42658000Y-64704174D01*
X42623925Y-64577007D01*
X42591012Y-64520000D01*
X43508000Y-64520000D01*
X43508000Y-63872172D01*
X43507999Y-63872155D01*
X43501598Y-63812627D01*
X43501596Y-63812620D01*
X43451354Y-63677913D01*
X43451350Y-63677906D01*
X43365190Y-63562812D01*
X43365187Y-63562809D01*
X43250093Y-63476649D01*
X43250086Y-63476645D01*
X43115379Y-63426403D01*
X43115372Y-63426401D01*
X43055844Y-63420000D01*
X42408000Y-63420000D01*
X42408000Y-64336988D01*
X42350993Y-64304075D01*
X42223826Y-64270000D01*
X42092174Y-64270000D01*
X41965007Y-64304075D01*
X41908000Y-64336988D01*
X41908000Y-63420000D01*
X41260155Y-63420000D01*
X41200627Y-63426401D01*
X41200620Y-63426403D01*
X41065913Y-63476645D01*
X41065906Y-63476649D01*
X40950812Y-63562809D01*
X40950809Y-63562812D01*
X40864649Y-63677906D01*
X40864645Y-63677913D01*
X40814403Y-63812620D01*
X40814401Y-63812627D01*
X40808000Y-63872155D01*
X40808000Y-64520000D01*
X41724988Y-64520000D01*
X41692075Y-64577007D01*
X41658000Y-64704174D01*
X41658000Y-64835826D01*
X41692075Y-64962993D01*
X41724988Y-65020000D01*
X40808000Y-65020000D01*
X40808000Y-65667844D01*
X40814401Y-65727372D01*
X40814403Y-65727379D01*
X40864645Y-65862086D01*
X40864649Y-65862093D01*
X40950809Y-65977187D01*
X40950812Y-65977190D01*
X41065906Y-66063350D01*
X41065913Y-66063354D01*
X41189230Y-66109348D01*
X41245164Y-66151219D01*
X41269581Y-66216683D01*
X41254730Y-66284956D01*
X41233579Y-66313211D01*
X41121793Y-66424997D01*
X40996106Y-66597990D01*
X40899027Y-66788516D01*
X40899026Y-66788519D01*
X40832951Y-66991882D01*
X40799500Y-67203084D01*
X37250500Y-67203084D01*
X37250500Y-62397019D01*
X47191500Y-62397019D01*
X47191500Y-62602980D01*
X47223719Y-62806408D01*
X47287367Y-63002294D01*
X47344336Y-63114099D01*
X47376199Y-63176634D01*
X47380873Y-63185806D01*
X47501926Y-63352423D01*
X47501930Y-63352428D01*
X47647571Y-63498069D01*
X47647576Y-63498073D01*
X47746110Y-63569661D01*
X47814197Y-63619129D01*
X47900842Y-63663277D01*
X47997705Y-63712632D01*
X47997707Y-63712632D01*
X47997710Y-63712634D01*
X48066567Y-63735007D01*
X48193591Y-63776280D01*
X48273031Y-63788862D01*
X48397019Y-63808500D01*
X48397020Y-63808500D01*
X48602980Y-63808500D01*
X48602981Y-63808500D01*
X48806408Y-63776280D01*
X49002290Y-63712634D01*
X49185803Y-63619129D01*
X49185807Y-63619125D01*
X49185811Y-63619124D01*
X49189959Y-63616583D01*
X49190640Y-63617695D01*
X49250816Y-63596223D01*
X49318870Y-63612045D01*
X49367567Y-63662148D01*
X49381900Y-63720020D01*
X49381900Y-68687500D01*
X49362215Y-68754539D01*
X49309411Y-68800294D01*
X49257900Y-68811500D01*
X47651345Y-68811500D01*
X47590797Y-68818011D01*
X47590795Y-68818011D01*
X47453795Y-68869111D01*
X47336739Y-68956739D01*
X47249111Y-69073795D01*
X47198011Y-69210795D01*
X47198011Y-69210797D01*
X47191500Y-69271345D01*
X47191500Y-70968654D01*
X47198011Y-71029202D01*
X47198011Y-71029204D01*
X47249111Y-71166204D01*
X47336739Y-71283261D01*
X47453796Y-71370889D01*
X47590799Y-71421989D01*
X47618050Y-71424918D01*
X47651345Y-71428499D01*
X47651362Y-71428500D01*
X49257900Y-71428500D01*
X49324939Y-71448185D01*
X49370694Y-71500989D01*
X49381900Y-71552500D01*
X49381900Y-75550798D01*
X49406243Y-75673177D01*
X49406245Y-75673185D01*
X49453998Y-75788472D01*
X49454003Y-75788481D01*
X49523328Y-75892232D01*
X49523331Y-75892236D01*
X50203583Y-76572487D01*
X50237068Y-76633810D01*
X50232084Y-76703501D01*
X50190213Y-76759435D01*
X50172197Y-76770653D01*
X50082990Y-76816106D01*
X49909993Y-76941796D01*
X49758796Y-77092993D01*
X49633106Y-77265990D01*
X49536027Y-77456516D01*
X49536026Y-77456519D01*
X49469951Y-77659882D01*
X49436500Y-77871084D01*
X49436500Y-78084915D01*
X49469951Y-78296117D01*
X49536026Y-78499480D01*
X49536027Y-78499483D01*
X49615514Y-78655483D01*
X49633106Y-78690009D01*
X49758794Y-78863004D01*
X49909996Y-79014206D01*
X50036069Y-79105803D01*
X50082991Y-79139894D01*
X50086873Y-79142273D01*
X50133748Y-79194086D01*
X50145169Y-79263016D01*
X50117512Y-79327178D01*
X50086873Y-79353727D01*
X50082991Y-79356105D01*
X49909993Y-79481796D01*
X49758796Y-79632993D01*
X49633106Y-79805990D01*
X49536027Y-79996516D01*
X49536026Y-79996519D01*
X49469951Y-80199882D01*
X49436500Y-80411084D01*
X49436500Y-80624915D01*
X49469951Y-80836117D01*
X49536026Y-81039480D01*
X49536027Y-81039483D01*
X49607245Y-81179254D01*
X49633106Y-81230009D01*
X49758794Y-81403004D01*
X49909996Y-81554206D01*
X50082991Y-81679894D01*
X50171883Y-81725187D01*
X50273516Y-81776972D01*
X50273519Y-81776973D01*
X50348016Y-81801178D01*
X50476884Y-81843049D01*
X50688084Y-81876500D01*
X50688085Y-81876500D01*
X50901915Y-81876500D01*
X50901916Y-81876500D01*
X51113116Y-81843049D01*
X51316483Y-81776972D01*
X51507009Y-81679894D01*
X51666376Y-81564107D01*
X51732181Y-81540628D01*
X51800235Y-81556453D01*
X51826941Y-81576745D01*
X54850363Y-84600168D01*
X54850367Y-84600171D01*
X54954118Y-84669496D01*
X54954124Y-84669499D01*
X54954125Y-84669500D01*
X55069415Y-84717255D01*
X55191801Y-84741599D01*
X55191805Y-84741600D01*
X55191806Y-84741600D01*
X94649795Y-84741600D01*
X94649796Y-84741599D01*
X94772185Y-84717255D01*
X94887475Y-84669500D01*
X94991233Y-84600171D01*
X97782362Y-81809041D01*
X97843681Y-81775559D01*
X97913372Y-81780543D01*
X97944350Y-81797459D01*
X97962906Y-81811350D01*
X97962913Y-81811354D01*
X98097620Y-81861596D01*
X98097627Y-81861598D01*
X98157155Y-81867999D01*
X98157172Y-81868000D01*
X98805000Y-81868000D01*
X98805000Y-80951012D01*
X98862007Y-80983925D01*
X98989174Y-81018000D01*
X99120826Y-81018000D01*
X99247993Y-80983925D01*
X99305000Y-80951012D01*
X99305000Y-81868000D01*
X99952828Y-81868000D01*
X99952844Y-81867999D01*
X100012372Y-81861598D01*
X100012379Y-81861596D01*
X100147086Y-81811354D01*
X100147093Y-81811350D01*
X100262187Y-81725190D01*
X100262190Y-81725187D01*
X100348350Y-81610093D01*
X100348354Y-81610086D01*
X100398596Y-81475379D01*
X100398598Y-81475372D01*
X100404999Y-81415844D01*
X100405000Y-81415827D01*
X100405000Y-80768000D01*
X99488012Y-80768000D01*
X99520925Y-80710993D01*
X99555000Y-80583826D01*
X99555000Y-80452174D01*
X99520925Y-80325007D01*
X99488012Y-80268000D01*
X100405000Y-80268000D01*
X100405000Y-79620172D01*
X100404999Y-79620155D01*
X100398598Y-79560627D01*
X100398596Y-79560620D01*
X100348354Y-79425913D01*
X100348350Y-79425906D01*
X100262190Y-79310812D01*
X100262187Y-79310809D01*
X100147093Y-79224649D01*
X100147086Y-79224645D01*
X100023769Y-79178651D01*
X99967835Y-79136780D01*
X99943418Y-79071315D01*
X99958270Y-79003042D01*
X99979415Y-78974794D01*
X100091206Y-78863004D01*
X100216894Y-78690009D01*
X100313972Y-78499483D01*
X100380049Y-78296116D01*
X100413500Y-78084916D01*
X100413500Y-77871084D01*
X100380049Y-77659884D01*
X100313972Y-77456517D01*
X100313972Y-77456516D01*
X100234483Y-77300512D01*
X100216894Y-77265991D01*
X100091206Y-77092996D01*
X99940004Y-76941794D01*
X99767009Y-76816106D01*
X99743034Y-76803890D01*
X99576483Y-76719027D01*
X99576480Y-76719026D01*
X99373117Y-76652951D01*
X99198655Y-76625319D01*
X99161916Y-76619500D01*
X98948084Y-76619500D01*
X98911345Y-76625319D01*
X98736882Y-76652951D01*
X98533519Y-76719026D01*
X98533516Y-76719027D01*
X98342990Y-76816106D01*
X98169993Y-76941796D01*
X98018796Y-77092993D01*
X97893105Y-77265991D01*
X97890727Y-77269873D01*
X97838914Y-77316748D01*
X97769984Y-77328169D01*
X97705822Y-77300512D01*
X97679273Y-77269873D01*
X97676894Y-77265991D01*
X97567377Y-77115254D01*
X97551206Y-77092996D01*
X97400004Y-76941794D01*
X97347123Y-76903374D01*
X97304458Y-76848045D01*
X97298479Y-76778432D01*
X97331084Y-76716636D01*
X97332328Y-76715375D01*
X98026702Y-76021002D01*
X100361786Y-73685919D01*
X100423109Y-73652434D01*
X100449467Y-73649600D01*
X100500180Y-73649600D01*
X100500181Y-73649599D01*
X100675700Y-73614687D01*
X100841036Y-73546202D01*
X100989835Y-73446778D01*
X101116378Y-73320235D01*
X101215802Y-73171436D01*
X101284287Y-73006100D01*
X101319200Y-72830579D01*
X101319200Y-72651621D01*
X101284287Y-72476100D01*
X101215802Y-72310764D01*
X101215800Y-72310761D01*
X101215798Y-72310757D01*
X101116378Y-72161965D01*
X101116375Y-72161961D01*
X100989838Y-72035424D01*
X100989834Y-72035421D01*
X100841042Y-71936001D01*
X100841032Y-71935996D01*
X100675700Y-71867513D01*
X100675692Y-71867511D01*
X100500183Y-71832600D01*
X100500179Y-71832600D01*
X100321221Y-71832600D01*
X100321216Y-71832600D01*
X100145707Y-71867511D01*
X100145699Y-71867513D01*
X99980367Y-71935996D01*
X99980357Y-71936001D01*
X99831565Y-72035421D01*
X99831561Y-72035424D01*
X99705024Y-72161961D01*
X99705021Y-72161965D01*
X99605601Y-72310757D01*
X99605596Y-72310767D01*
X99537113Y-72476099D01*
X99537111Y-72476107D01*
X99502200Y-72651616D01*
X99502200Y-72702333D01*
X99482515Y-72769372D01*
X99465881Y-72790014D01*
X96122815Y-76133081D01*
X96061492Y-76166566D01*
X96035134Y-76169400D01*
X92265517Y-76169400D01*
X92198478Y-76149715D01*
X92152723Y-76096911D01*
X92142779Y-76027753D01*
X92171804Y-75964197D01*
X92196626Y-75942298D01*
X92210106Y-75933290D01*
X92227635Y-75921578D01*
X92354178Y-75795035D01*
X92453602Y-75646236D01*
X92522087Y-75480900D01*
X92557000Y-75305379D01*
X92557000Y-75126421D01*
X92522087Y-74950900D01*
X92453602Y-74785564D01*
X92453600Y-74785561D01*
X92453598Y-74785557D01*
X92354178Y-74636765D01*
X92354175Y-74636761D01*
X92227638Y-74510224D01*
X92227634Y-74510221D01*
X92078842Y-74410801D01*
X92078832Y-74410796D01*
X91913500Y-74342313D01*
X91913492Y-74342311D01*
X91737983Y-74307400D01*
X91737979Y-74307400D01*
X91559021Y-74307400D01*
X91559016Y-74307400D01*
X91383507Y-74342311D01*
X91383499Y-74342313D01*
X91218167Y-74410796D01*
X91218157Y-74410801D01*
X91069365Y-74510221D01*
X91069361Y-74510224D01*
X91033507Y-74546080D01*
X90972185Y-74579566D01*
X90945825Y-74582400D01*
X89391800Y-74582400D01*
X89324761Y-74562715D01*
X89279006Y-74509911D01*
X89267800Y-74458400D01*
X89267800Y-74316220D01*
X89267799Y-74316216D01*
X89232888Y-74140707D01*
X89232887Y-74140700D01*
X89164402Y-73975364D01*
X89164400Y-73975361D01*
X89164398Y-73975357D01*
X89064978Y-73826565D01*
X89064975Y-73826561D01*
X88938438Y-73700024D01*
X88938434Y-73700021D01*
X88789642Y-73600601D01*
X88789632Y-73600596D01*
X88624300Y-73532113D01*
X88624292Y-73532111D01*
X88448783Y-73497200D01*
X88448779Y-73497200D01*
X88269821Y-73497200D01*
X88269816Y-73497200D01*
X88094307Y-73532111D01*
X88094299Y-73532113D01*
X87928967Y-73600596D01*
X87928957Y-73600601D01*
X87780165Y-73700021D01*
X87780161Y-73700024D01*
X87653624Y-73826561D01*
X87653621Y-73826565D01*
X87554201Y-73975357D01*
X87554196Y-73975367D01*
X87529639Y-74034653D01*
X87485797Y-74089057D01*
X87419503Y-74111121D01*
X87415078Y-74111200D01*
X85935466Y-74111200D01*
X85868427Y-74091515D01*
X85822672Y-74038711D01*
X85812728Y-73969553D01*
X85841753Y-73905997D01*
X85847785Y-73899519D01*
X87585340Y-72161965D01*
X89492072Y-70255233D01*
X89561401Y-70151475D01*
X89602643Y-70051906D01*
X89609155Y-70036185D01*
X89633500Y-69913794D01*
X89633500Y-69687606D01*
X89633500Y-68506121D01*
X89653185Y-68439082D01*
X89705989Y-68393327D01*
X89728904Y-68385463D01*
X89876368Y-68350513D01*
X90033044Y-68271828D01*
X90113082Y-68206627D01*
X90113089Y-68206621D01*
X90210306Y-68109404D01*
X89431781Y-67330880D01*
X89398296Y-67269557D01*
X89403280Y-67199866D01*
X89431781Y-67155518D01*
X89609972Y-66977327D01*
X89671295Y-66943842D01*
X89740987Y-66948826D01*
X89785334Y-66977327D01*
X90563857Y-67755851D01*
X90563858Y-67755851D01*
X90661067Y-67658642D01*
X90661076Y-67658632D01*
X90726277Y-67578595D01*
X90726286Y-67578582D01*
X90804967Y-67421914D01*
X90845402Y-67251310D01*
X90845402Y-67075984D01*
X90844564Y-67068815D01*
X90847329Y-67068491D01*
X90850348Y-67011493D01*
X90891178Y-66954795D01*
X90956180Y-66929173D01*
X90970130Y-66928704D01*
X90983188Y-66929000D01*
X90996695Y-66932202D01*
X91123965Y-66932202D01*
X91125372Y-66932234D01*
X91157377Y-66942427D01*
X91189592Y-66951887D01*
X91190550Y-66952993D01*
X91191947Y-66953438D01*
X91213371Y-66979329D01*
X91235347Y-67004691D01*
X91236447Y-67007217D01*
X91236489Y-67007268D01*
X91236496Y-67007331D01*
X91237103Y-67008724D01*
X91253994Y-67049501D01*
X91297996Y-67155733D01*
X91298001Y-67155742D01*
X91397421Y-67304534D01*
X91397424Y-67304538D01*
X91523961Y-67431075D01*
X91523965Y-67431078D01*
X91672757Y-67530498D01*
X91672761Y-67530500D01*
X91672764Y-67530502D01*
X91838100Y-67598987D01*
X91984543Y-67628116D01*
X92013616Y-67633899D01*
X92013620Y-67633900D01*
X92013621Y-67633900D01*
X92192580Y-67633900D01*
X92192581Y-67633899D01*
X92368100Y-67598987D01*
X92533436Y-67530502D01*
X92682235Y-67431078D01*
X92808778Y-67304535D01*
X92908202Y-67155736D01*
X92976687Y-66990400D01*
X92995838Y-66894116D01*
X93028222Y-66832209D01*
X93088937Y-66797634D01*
X93158707Y-66801373D01*
X93192198Y-66820245D01*
X93192300Y-66820094D01*
X93194297Y-66821428D01*
X93196117Y-66822454D01*
X93197366Y-66823479D01*
X93346157Y-66922898D01*
X93346161Y-66922900D01*
X93346164Y-66922902D01*
X93511500Y-66991387D01*
X93612581Y-67011493D01*
X93687016Y-67026299D01*
X93687020Y-67026300D01*
X93687021Y-67026300D01*
X93865980Y-67026300D01*
X93865981Y-67026299D01*
X94041500Y-66991387D01*
X94206836Y-66922902D01*
X94355635Y-66823478D01*
X94391493Y-66787620D01*
X94452815Y-66754134D01*
X94479175Y-66751300D01*
X101404595Y-66751300D01*
X101404596Y-66751299D01*
X101526985Y-66726955D01*
X101642275Y-66679200D01*
X101746033Y-66609871D01*
X103754352Y-64601552D01*
X103815675Y-64568067D01*
X103880351Y-64571302D01*
X103881527Y-64571684D01*
X103891884Y-64575049D01*
X104103084Y-64608500D01*
X104103085Y-64608500D01*
X104316915Y-64608500D01*
X104316916Y-64608500D01*
X104528116Y-64575049D01*
X104731483Y-64508972D01*
X104922009Y-64411894D01*
X105095004Y-64286206D01*
X105246206Y-64135004D01*
X105371894Y-63962009D01*
X105374283Y-63957319D01*
X105422254Y-63906522D01*
X105490074Y-63889724D01*
X105556210Y-63912258D01*
X105592196Y-63953783D01*
X105592829Y-63953396D01*
X105595167Y-63957211D01*
X105595251Y-63957308D01*
X105595371Y-63957545D01*
X105595373Y-63957547D01*
X105634728Y-64011716D01*
X106267037Y-63379408D01*
X106284075Y-63442993D01*
X106349901Y-63557007D01*
X106442993Y-63650099D01*
X106557007Y-63715925D01*
X106620590Y-63732962D01*
X105988282Y-64365269D01*
X105988282Y-64365270D01*
X106042449Y-64404624D01*
X106231782Y-64501095D01*
X106433870Y-64566757D01*
X106643754Y-64600000D01*
X106856246Y-64600000D01*
X107066127Y-64566757D01*
X107066130Y-64566757D01*
X107268217Y-64501095D01*
X107457554Y-64404622D01*
X107511716Y-64365270D01*
X107511717Y-64365270D01*
X106879408Y-63732962D01*
X106942993Y-63715925D01*
X107057007Y-63650099D01*
X107150099Y-63557007D01*
X107215925Y-63442993D01*
X107232962Y-63379409D01*
X107865270Y-64011717D01*
X107865270Y-64011716D01*
X107904622Y-63957554D01*
X108001095Y-63768217D01*
X108066757Y-63566130D01*
X108066757Y-63566127D01*
X108100000Y-63356246D01*
X108100000Y-63143753D01*
X108066757Y-62933872D01*
X108066757Y-62933869D01*
X108001095Y-62731782D01*
X107904624Y-62542449D01*
X107865270Y-62488282D01*
X107865269Y-62488282D01*
X107232962Y-63120590D01*
X107215925Y-63057007D01*
X107150099Y-62942993D01*
X107057007Y-62849901D01*
X106942993Y-62784075D01*
X106879409Y-62767037D01*
X107511716Y-62134728D01*
X107457547Y-62095373D01*
X107457545Y-62095371D01*
X107457308Y-62095251D01*
X107457234Y-62095181D01*
X107453396Y-62092829D01*
X107453890Y-62092022D01*
X107406515Y-62047274D01*
X107389724Y-61979451D01*
X107412266Y-61913318D01*
X107457319Y-61874283D01*
X107462009Y-61871894D01*
X107635004Y-61746206D01*
X107786206Y-61595004D01*
X107911894Y-61422009D01*
X108008972Y-61231483D01*
X108075049Y-61028116D01*
X108108500Y-60816916D01*
X108108500Y-60603084D01*
X108075049Y-60391884D01*
X108042010Y-60290200D01*
X108008973Y-60188519D01*
X108008972Y-60188516D01*
X107944204Y-60061403D01*
X107911894Y-59997991D01*
X107786206Y-59824996D01*
X107635004Y-59673794D01*
X107462009Y-59548106D01*
X107462005Y-59548103D01*
X107458132Y-59545730D01*
X107411254Y-59493920D01*
X107399829Y-59424991D01*
X107427483Y-59360827D01*
X107458132Y-59334270D01*
X107462005Y-59331896D01*
X107462004Y-59331896D01*
X107462009Y-59331894D01*
X107635004Y-59206206D01*
X107786206Y-59055004D01*
X107911894Y-58882009D01*
X108008972Y-58691483D01*
X108075049Y-58488116D01*
X108108500Y-58276916D01*
X108108500Y-58063084D01*
X108075049Y-57851884D01*
X108012224Y-57658526D01*
X108008973Y-57648519D01*
X108008972Y-57648516D01*
X107911893Y-57457990D01*
X107877401Y-57410516D01*
X107786206Y-57284996D01*
X107635004Y-57133794D01*
X107474447Y-57017143D01*
X107462005Y-57008103D01*
X107458132Y-57005730D01*
X107411254Y-56953920D01*
X107399829Y-56884991D01*
X107427483Y-56820827D01*
X107458132Y-56794270D01*
X107462005Y-56791896D01*
X107462004Y-56791896D01*
X107462009Y-56791894D01*
X107635004Y-56666206D01*
X107786206Y-56515004D01*
X107911894Y-56342009D01*
X108008972Y-56151483D01*
X108075049Y-55948116D01*
X108108500Y-55736916D01*
X108108500Y-55523084D01*
X108075049Y-55311884D01*
X108042010Y-55210200D01*
X108008973Y-55108519D01*
X108008972Y-55108516D01*
X107911893Y-54917990D01*
X107901137Y-54903185D01*
X107786206Y-54744996D01*
X107635004Y-54593794D01*
X107462009Y-54468106D01*
X107462010Y-54468106D01*
X107462008Y-54468105D01*
X107457311Y-54465712D01*
X107406517Y-54417735D01*
X107389724Y-54349914D01*
X107412264Y-54283780D01*
X107453790Y-54247801D01*
X107453402Y-54247168D01*
X107457229Y-54244822D01*
X107457327Y-54244738D01*
X107457556Y-54244621D01*
X107511716Y-54205270D01*
X107511717Y-54205270D01*
X106879408Y-53572962D01*
X106942993Y-53555925D01*
X107057007Y-53490099D01*
X107150099Y-53397007D01*
X107215925Y-53282993D01*
X107232962Y-53219409D01*
X107865270Y-53851717D01*
X107865270Y-53851716D01*
X107904622Y-53797554D01*
X108001095Y-53608217D01*
X108066757Y-53406130D01*
X108066757Y-53406127D01*
X108100000Y-53196246D01*
X108100000Y-52983753D01*
X108066757Y-52773872D01*
X108066757Y-52773869D01*
X108001095Y-52571782D01*
X107904624Y-52382449D01*
X107865270Y-52328282D01*
X107865269Y-52328282D01*
X107232962Y-52960590D01*
X107215925Y-52897007D01*
X107150099Y-52782993D01*
X107057007Y-52689901D01*
X106942993Y-52624075D01*
X106879409Y-52607037D01*
X107511716Y-51974728D01*
X107457550Y-51935375D01*
X107268217Y-51838904D01*
X107066129Y-51773242D01*
X106856246Y-51740000D01*
X106643754Y-51740000D01*
X106433872Y-51773242D01*
X106433869Y-51773242D01*
X106231782Y-51838904D01*
X106042439Y-51935380D01*
X105988282Y-51974727D01*
X105988282Y-51974728D01*
X106620591Y-52607037D01*
X106557007Y-52624075D01*
X106442993Y-52689901D01*
X106349901Y-52782993D01*
X106284075Y-52897007D01*
X106267037Y-52960591D01*
X105628824Y-52322378D01*
X105611697Y-52322666D01*
X105599741Y-52315263D01*
X105585978Y-52312372D01*
X105570622Y-52297234D01*
X105552292Y-52285885D01*
X105543198Y-52270199D01*
X105536221Y-52263321D01*
X105532714Y-52256519D01*
X105529366Y-52249504D01*
X105502115Y-52167262D01*
X105409030Y-52016348D01*
X105283652Y-51890970D01*
X105132738Y-51797885D01*
X105058221Y-51773193D01*
X104964427Y-51742113D01*
X104860545Y-51731500D01*
X103559462Y-51731500D01*
X103559446Y-51731501D01*
X103455572Y-51742113D01*
X103287264Y-51797884D01*
X103287259Y-51797886D01*
X103136346Y-51890971D01*
X103010971Y-52016346D01*
X102917886Y-52167259D01*
X102917884Y-52167264D01*
X102862113Y-52335572D01*
X102851500Y-52439447D01*
X102851500Y-53492500D01*
X102831815Y-53559539D01*
X102779011Y-53605294D01*
X102727500Y-53616500D01*
X97004492Y-53616500D01*
X96937453Y-53596815D01*
X96891698Y-53544011D01*
X96881754Y-53474853D01*
X96882875Y-53468309D01*
X96903655Y-53363835D01*
X96908500Y-53339479D01*
X96908500Y-53160521D01*
X96873587Y-52985000D01*
X96805102Y-52819664D01*
X96805100Y-52819661D01*
X96805098Y-52819657D01*
X96705678Y-52670865D01*
X96705675Y-52670861D01*
X96579138Y-52544324D01*
X96579134Y-52544321D01*
X96430342Y-52444901D01*
X96430332Y-52444896D01*
X96265000Y-52376413D01*
X96264992Y-52376411D01*
X96089483Y-52341500D01*
X96089479Y-52341500D01*
X95910521Y-52341500D01*
X95910516Y-52341500D01*
X95735007Y-52376411D01*
X95734999Y-52376413D01*
X95569667Y-52444896D01*
X95569657Y-52444901D01*
X95420865Y-52544321D01*
X95420861Y-52544324D01*
X95385007Y-52580180D01*
X95323685Y-52613666D01*
X95297325Y-52616500D01*
X94937601Y-52616500D01*
X94815222Y-52640843D01*
X94815214Y-52640845D01*
X94699927Y-52688598D01*
X94699918Y-52688603D01*
X94596167Y-52757928D01*
X94596163Y-52757931D01*
X94033432Y-53320664D01*
X93846168Y-53507928D01*
X93846167Y-53507929D01*
X93818056Y-53536040D01*
X93757927Y-53596168D01*
X93725574Y-53644589D01*
X93709408Y-53658098D01*
X93696783Y-53674965D01*
X93683137Y-53680054D01*
X93671962Y-53689394D01*
X93651058Y-53692019D01*
X93631319Y-53699382D01*
X93617086Y-53696286D01*
X93602637Y-53698101D01*
X93583634Y-53689009D01*
X93563046Y-53684531D01*
X93543160Y-53669645D01*
X93539609Y-53667946D01*
X93534791Y-53663380D01*
X93460243Y-53588833D01*
X93426758Y-53527510D01*
X93431742Y-53457818D01*
X93460244Y-53413469D01*
X93509875Y-53363838D01*
X93509878Y-53363835D01*
X93609302Y-53215036D01*
X93677787Y-53049700D01*
X93712700Y-52874179D01*
X93712700Y-52695221D01*
X93677787Y-52519700D01*
X93609302Y-52354364D01*
X93609300Y-52354361D01*
X93609298Y-52354357D01*
X93509878Y-52205565D01*
X93509875Y-52205561D01*
X93383338Y-52079024D01*
X93383334Y-52079021D01*
X93234542Y-51979601D01*
X93234532Y-51979596D01*
X93069200Y-51911113D01*
X93069192Y-51911111D01*
X92893683Y-51876200D01*
X92893679Y-51876200D01*
X92714721Y-51876200D01*
X92714716Y-51876200D01*
X92539207Y-51911110D01*
X92533377Y-51912880D01*
X92532956Y-51911493D01*
X92470672Y-51918175D01*
X92408200Y-51886886D01*
X92405035Y-51883831D01*
X90669819Y-50148615D01*
X90636334Y-50087292D01*
X90633500Y-50060934D01*
X90633500Y-49516666D01*
X90653185Y-49449627D01*
X90705989Y-49403872D01*
X90775147Y-49393928D01*
X90838703Y-49422953D01*
X90845181Y-49428985D01*
X91954063Y-50537869D01*
X91954066Y-50537872D01*
X92057819Y-50607197D01*
X92057825Y-50607201D01*
X92121318Y-50633500D01*
X92121319Y-50633500D01*
X92121320Y-50633501D01*
X92146114Y-50643771D01*
X92173115Y-50654955D01*
X92295501Y-50679299D01*
X92295505Y-50679300D01*
X92295506Y-50679300D01*
X92295507Y-50679300D01*
X92420294Y-50679300D01*
X93157425Y-50679300D01*
X93224464Y-50698985D01*
X93245107Y-50715620D01*
X93280961Y-50751475D01*
X93280965Y-50751478D01*
X93429757Y-50850898D01*
X93429761Y-50850900D01*
X93429764Y-50850902D01*
X93595100Y-50919387D01*
X93770616Y-50954299D01*
X93770620Y-50954300D01*
X93770621Y-50954300D01*
X93949580Y-50954300D01*
X93949581Y-50954299D01*
X94125100Y-50919387D01*
X94290436Y-50850902D01*
X94439235Y-50751478D01*
X94565778Y-50624935D01*
X94665202Y-50476136D01*
X94733687Y-50310800D01*
X94768600Y-50135279D01*
X94768600Y-50007230D01*
X94788285Y-49940191D01*
X94841089Y-49894436D01*
X94845128Y-49892677D01*
X94941636Y-49852702D01*
X95090435Y-49753278D01*
X95216978Y-49626735D01*
X95316402Y-49477936D01*
X95384887Y-49312600D01*
X95419800Y-49137079D01*
X95419800Y-48958121D01*
X95384887Y-48782600D01*
X95316402Y-48617264D01*
X95316400Y-48617261D01*
X95316398Y-48617257D01*
X95216978Y-48468465D01*
X95216975Y-48468461D01*
X95090438Y-48341924D01*
X95090434Y-48341921D01*
X94941642Y-48242501D01*
X94941632Y-48242496D01*
X94776300Y-48174013D01*
X94776292Y-48174011D01*
X94600783Y-48139100D01*
X94600779Y-48139100D01*
X94421821Y-48139100D01*
X94421816Y-48139100D01*
X94246307Y-48174011D01*
X94246299Y-48174013D01*
X94080967Y-48242496D01*
X94080957Y-48242501D01*
X93932165Y-48341921D01*
X93932161Y-48341924D01*
X93896307Y-48377780D01*
X93834985Y-48411266D01*
X93808625Y-48414100D01*
X93103479Y-48414100D01*
X93036440Y-48394415D01*
X92990685Y-48341611D01*
X92980741Y-48272453D01*
X92981862Y-48265909D01*
X93005099Y-48149083D01*
X93005100Y-48149080D01*
X93005100Y-47970120D01*
X93005099Y-47970116D01*
X93001620Y-47952627D01*
X92970187Y-47794600D01*
X92901702Y-47629264D01*
X92901700Y-47629261D01*
X92901698Y-47629257D01*
X92802278Y-47480465D01*
X92802275Y-47480461D01*
X92675738Y-47353924D01*
X92675734Y-47353921D01*
X92526942Y-47254501D01*
X92526932Y-47254496D01*
X92388246Y-47197050D01*
X92333843Y-47153209D01*
X92311778Y-47086914D01*
X92329057Y-47019215D01*
X92380195Y-46971605D01*
X92388228Y-46967936D01*
X92535336Y-46907002D01*
X92684135Y-46807578D01*
X92810678Y-46681035D01*
X92910102Y-46532236D01*
X92978587Y-46366900D01*
X93013500Y-46191379D01*
X93013500Y-46012421D01*
X92978587Y-45836900D01*
X92910102Y-45671564D01*
X92910100Y-45671561D01*
X92910098Y-45671557D01*
X92810678Y-45522765D01*
X92810675Y-45522761D01*
X92684138Y-45396224D01*
X92684134Y-45396221D01*
X92535342Y-45296801D01*
X92535332Y-45296796D01*
X92370000Y-45228313D01*
X92369992Y-45228311D01*
X92194483Y-45193400D01*
X92194479Y-45193400D01*
X92015521Y-45193400D01*
X92015516Y-45193400D01*
X91840007Y-45228311D01*
X91839999Y-45228313D01*
X91674667Y-45296796D01*
X91674657Y-45296801D01*
X91525865Y-45396221D01*
X91525861Y-45396224D01*
X91490007Y-45432080D01*
X91428685Y-45465566D01*
X91402325Y-45468400D01*
X85041602Y-45468400D01*
X84919219Y-45492743D01*
X84919214Y-45492745D01*
X84885448Y-45506729D01*
X84885449Y-45506730D01*
X84803926Y-45540498D01*
X84803922Y-45540500D01*
X84700171Y-45609824D01*
X84700163Y-45609830D01*
X83273915Y-47036081D01*
X83212592Y-47069566D01*
X83186234Y-47072400D01*
X80170301Y-47072400D01*
X80047922Y-47096743D01*
X80047914Y-47096745D01*
X79932627Y-47144498D01*
X79932618Y-47144503D01*
X79828867Y-47213828D01*
X79828863Y-47213831D01*
X79456051Y-47586645D01*
X79358267Y-47684429D01*
X79314147Y-47728549D01*
X79270027Y-47772668D01*
X79200703Y-47876418D01*
X79200698Y-47876427D01*
X79152945Y-47991714D01*
X79152943Y-47991722D01*
X79128600Y-48114101D01*
X79128600Y-49474198D01*
X79152943Y-49596577D01*
X79152945Y-49596585D01*
X79200698Y-49711872D01*
X79200703Y-49711881D01*
X79270027Y-49815631D01*
X79270028Y-49815632D01*
X79270029Y-49815633D01*
X79367282Y-49912886D01*
X79400766Y-49974207D01*
X79403600Y-50000566D01*
X79403600Y-51177335D01*
X79383915Y-51244374D01*
X79331111Y-51290129D01*
X79261953Y-51300073D01*
X79198397Y-51271048D01*
X79191920Y-51265017D01*
X79183878Y-51256975D01*
X79183876Y-51256975D01*
X78502580Y-51938272D01*
X78441257Y-51971757D01*
X78371566Y-51966773D01*
X78327218Y-51938272D01*
X78238123Y-51849177D01*
X78149027Y-51938273D01*
X78087704Y-51971757D01*
X78018012Y-51966773D01*
X77973665Y-51938272D01*
X77195142Y-51159748D01*
X77154114Y-51159748D01*
X77087075Y-51140063D01*
X77066433Y-51123429D01*
X76785516Y-50842512D01*
X76749198Y-50806194D01*
X77548693Y-50806194D01*
X78238123Y-51495623D01*
X78238124Y-51495623D01*
X78830324Y-50903422D01*
X78635882Y-50708982D01*
X78635871Y-50708972D01*
X78555840Y-50643776D01*
X78555827Y-50643767D01*
X78399160Y-50565086D01*
X78228556Y-50524652D01*
X78053236Y-50524652D01*
X77882631Y-50565086D01*
X77725955Y-50643771D01*
X77645912Y-50708976D01*
X77645903Y-50708984D01*
X77548693Y-50806194D01*
X76749198Y-50806194D01*
X75875936Y-49932931D01*
X75875932Y-49932928D01*
X75772181Y-49863603D01*
X75772172Y-49863598D01*
X75656885Y-49815845D01*
X75656877Y-49815843D01*
X75534498Y-49791500D01*
X75534494Y-49791500D01*
X69747500Y-49791500D01*
X69680461Y-49771815D01*
X69634706Y-49719011D01*
X69623500Y-49667500D01*
X69623500Y-49573504D01*
X69623500Y-49573498D01*
X69620562Y-49536169D01*
X69595419Y-49449627D01*
X69582127Y-49403872D01*
X69574145Y-49376399D01*
X69489453Y-49233193D01*
X69489451Y-49233191D01*
X69489448Y-49233187D01*
X69371812Y-49115551D01*
X69371803Y-49115544D01*
X69228601Y-49030855D01*
X69228596Y-49030853D01*
X69068835Y-48984438D01*
X69068829Y-48984437D01*
X69031507Y-48981500D01*
X69031502Y-48981500D01*
X67148498Y-48981500D01*
X67148492Y-48981500D01*
X67111170Y-48984437D01*
X67111164Y-48984438D01*
X66966127Y-49026576D01*
X66931532Y-49031500D01*
X63227500Y-49031500D01*
X63218814Y-49028949D01*
X63209853Y-49030238D01*
X63185812Y-49019259D01*
X63160461Y-49011815D01*
X63154533Y-49004974D01*
X63146297Y-49001213D01*
X63132007Y-48978978D01*
X63114706Y-48959011D01*
X63112418Y-48948496D01*
X63108523Y-48942435D01*
X63103500Y-48907500D01*
X63103500Y-48719694D01*
X63123185Y-48652655D01*
X63150593Y-48622425D01*
X63156145Y-48618034D01*
X63156152Y-48618030D01*
X63281530Y-48492652D01*
X63362486Y-48361402D01*
X63414433Y-48314678D01*
X63468024Y-48302500D01*
X64538718Y-48302500D01*
X64586168Y-48311938D01*
X64735000Y-48373587D01*
X64910516Y-48408499D01*
X64910520Y-48408500D01*
X64910521Y-48408500D01*
X65089480Y-48408500D01*
X65089481Y-48408499D01*
X65265000Y-48373587D01*
X65430336Y-48305102D01*
X65579135Y-48205678D01*
X65705678Y-48079135D01*
X65805102Y-47930336D01*
X65873587Y-47765000D01*
X65908500Y-47589479D01*
X65908500Y-47410521D01*
X65881005Y-47272291D01*
X65887232Y-47202699D01*
X65930095Y-47147522D01*
X65995985Y-47124278D01*
X66002622Y-47124100D01*
X73992120Y-47124100D01*
X74059159Y-47143785D01*
X74104914Y-47196589D01*
X74106681Y-47200647D01*
X74131196Y-47259833D01*
X74131201Y-47259842D01*
X74230621Y-47408634D01*
X74230624Y-47408638D01*
X74357161Y-47535175D01*
X74357165Y-47535178D01*
X74505957Y-47634598D01*
X74505961Y-47634600D01*
X74505964Y-47634602D01*
X74671300Y-47703087D01*
X74846816Y-47737999D01*
X74846820Y-47738000D01*
X74846821Y-47738000D01*
X75025780Y-47738000D01*
X75025781Y-47737999D01*
X75201300Y-47703087D01*
X75366636Y-47634602D01*
X75515435Y-47535178D01*
X75641978Y-47408635D01*
X75741402Y-47259836D01*
X75809887Y-47094500D01*
X75844800Y-46918979D01*
X75844800Y-46740021D01*
X75809887Y-46564500D01*
X75741402Y-46399164D01*
X75741400Y-46399161D01*
X75741398Y-46399157D01*
X75641978Y-46250365D01*
X75641975Y-46250361D01*
X75515438Y-46123824D01*
X75515434Y-46123821D01*
X75366642Y-46024401D01*
X75366632Y-46024396D01*
X75201300Y-45955913D01*
X75201292Y-45955911D01*
X75025783Y-45921000D01*
X75025779Y-45921000D01*
X74902344Y-45921000D01*
X74854891Y-45911561D01*
X74782185Y-45881445D01*
X74782177Y-45881443D01*
X74659798Y-45857100D01*
X74659794Y-45857100D01*
X61749593Y-45857100D01*
X61624806Y-45857100D01*
X61624801Y-45857100D01*
X61502422Y-45881443D01*
X61502414Y-45881445D01*
X61387127Y-45929198D01*
X61387118Y-45929203D01*
X61283367Y-45998528D01*
X61283363Y-45998531D01*
X61003967Y-46277929D01*
X61003966Y-46277930D01*
X60958645Y-46323250D01*
X60897322Y-46356735D01*
X60831961Y-46353274D01*
X60760197Y-46329494D01*
X60657486Y-46319000D01*
X60520000Y-46319000D01*
X60520000Y-48768999D01*
X60650300Y-48768999D01*
X60717339Y-48788684D01*
X60763094Y-48841488D01*
X60774300Y-48892999D01*
X60774300Y-65082898D01*
X60798643Y-65205277D01*
X60798645Y-65205285D01*
X60846398Y-65320572D01*
X60846403Y-65320581D01*
X60915728Y-65424332D01*
X60915731Y-65424336D01*
X64823463Y-69332069D01*
X64823466Y-69332072D01*
X64851067Y-69350514D01*
X64927225Y-69401401D01*
X65005399Y-69433781D01*
X65042515Y-69449155D01*
X65164901Y-69473499D01*
X65164905Y-69473500D01*
X65164906Y-69473500D01*
X65164907Y-69473500D01*
X65289694Y-69473500D01*
X66715877Y-69473500D01*
X66782916Y-69493185D01*
X66803558Y-69509819D01*
X66808187Y-69514448D01*
X66808191Y-69514451D01*
X66808193Y-69514453D01*
X66951399Y-69599145D01*
X66952050Y-69599334D01*
X67111164Y-69645561D01*
X67111167Y-69645561D01*
X67111169Y-69645562D01*
X67148498Y-69648500D01*
X67148504Y-69648500D01*
X69031496Y-69648500D01*
X69031502Y-69648500D01*
X69068831Y-69645562D01*
X69068833Y-69645561D01*
X69068835Y-69645561D01*
X69236092Y-69596969D01*
X69236779Y-69599334D01*
X69294056Y-69592252D01*
X69357025Y-69622529D01*
X69388546Y-69667164D01*
X69439896Y-69791132D01*
X69439901Y-69791142D01*
X69539321Y-69939934D01*
X69539324Y-69939938D01*
X69665861Y-70066475D01*
X69665865Y-70066478D01*
X69780684Y-70143198D01*
X69825489Y-70196810D01*
X69834196Y-70266135D01*
X69804042Y-70329163D01*
X69744599Y-70365882D01*
X69711793Y-70370300D01*
X55751966Y-70370300D01*
X55684927Y-70350615D01*
X55664285Y-70333981D01*
X55181985Y-69851681D01*
X55148500Y-69790358D01*
X55153484Y-69720666D01*
X55195356Y-69664733D01*
X55260820Y-69640316D01*
X55269666Y-69640000D01*
X55930634Y-69640000D01*
X55930649Y-69639999D01*
X55967489Y-69637100D01*
X55967495Y-69637099D01*
X56125193Y-69591283D01*
X56125196Y-69591282D01*
X56266552Y-69507685D01*
X56266561Y-69507678D01*
X56382678Y-69391561D01*
X56382685Y-69391552D01*
X56466282Y-69250196D01*
X56466283Y-69250193D01*
X56512099Y-69092495D01*
X56512100Y-69092489D01*
X56514999Y-69055649D01*
X56515000Y-69055634D01*
X56515000Y-69018100D01*
X56534685Y-68951061D01*
X56587489Y-68905306D01*
X56639000Y-68894100D01*
X56737080Y-68894100D01*
X56737081Y-68894099D01*
X56912600Y-68859187D01*
X57077936Y-68790702D01*
X57226735Y-68691278D01*
X57353278Y-68564735D01*
X57452702Y-68415936D01*
X57521187Y-68250600D01*
X57556100Y-68075079D01*
X57556100Y-68035100D01*
X57575785Y-67968061D01*
X57628589Y-67922306D01*
X57680100Y-67911100D01*
X58023695Y-67911100D01*
X58023696Y-67911099D01*
X58146085Y-67886755D01*
X58261375Y-67839000D01*
X58365133Y-67769671D01*
X59224372Y-66910433D01*
X59293701Y-66806675D01*
X59336299Y-66703833D01*
X59341455Y-66691385D01*
X59365800Y-66568994D01*
X59365800Y-52667806D01*
X59341455Y-52545415D01*
X59304518Y-52456243D01*
X59293701Y-52430127D01*
X59293696Y-52430118D01*
X59224372Y-52326368D01*
X59183889Y-52285885D01*
X59136133Y-52238129D01*
X58004373Y-51106369D01*
X56830936Y-49932931D01*
X56830932Y-49932928D01*
X56727181Y-49863603D01*
X56727172Y-49863598D01*
X56611878Y-49815842D01*
X56611501Y-49815728D01*
X56611327Y-49815614D01*
X56606257Y-49813514D01*
X56606655Y-49812552D01*
X56553063Y-49777429D01*
X56524609Y-49713616D01*
X56523500Y-49697069D01*
X56523500Y-49573504D01*
X56523500Y-49573498D01*
X56520562Y-49536169D01*
X56495419Y-49449627D01*
X56482127Y-49403872D01*
X56474145Y-49376399D01*
X56389453Y-49233193D01*
X56389451Y-49233191D01*
X56389448Y-49233187D01*
X56271812Y-49115551D01*
X56271803Y-49115544D01*
X56128601Y-49030855D01*
X56128596Y-49030853D01*
X55968835Y-48984438D01*
X55968829Y-48984437D01*
X55931507Y-48981500D01*
X55931502Y-48981500D01*
X54048498Y-48981500D01*
X54048492Y-48981500D01*
X54011170Y-48984437D01*
X54011164Y-48984438D01*
X53851403Y-49030853D01*
X53851398Y-49030855D01*
X53708196Y-49115544D01*
X53708187Y-49115551D01*
X53590551Y-49233187D01*
X53590544Y-49233196D01*
X53505855Y-49376398D01*
X53505853Y-49376403D01*
X53459438Y-49536164D01*
X53459437Y-49536170D01*
X53456500Y-49573492D01*
X53456500Y-49893633D01*
X53436815Y-49960672D01*
X53420181Y-49981314D01*
X51514610Y-51886886D01*
X49611567Y-53789929D01*
X49586281Y-53815215D01*
X49523327Y-53878168D01*
X49454003Y-53981918D01*
X49453998Y-53981927D01*
X49406245Y-54097214D01*
X49406243Y-54097222D01*
X49381900Y-54219601D01*
X49381900Y-61279979D01*
X49362215Y-61347018D01*
X49309411Y-61392773D01*
X49240253Y-61402717D01*
X49190502Y-61382529D01*
X49189959Y-61383417D01*
X49185811Y-61380875D01*
X49002294Y-61287367D01*
X48806408Y-61223719D01*
X48630794Y-61195905D01*
X48602981Y-61191500D01*
X48397019Y-61191500D01*
X48372550Y-61195375D01*
X48193591Y-61223719D01*
X47997705Y-61287367D01*
X47814193Y-61380873D01*
X47647576Y-61501926D01*
X47647571Y-61501930D01*
X47501930Y-61647571D01*
X47501926Y-61647576D01*
X47380873Y-61814193D01*
X47287367Y-61997705D01*
X47223719Y-62193591D01*
X47191500Y-62397019D01*
X37250500Y-62397019D01*
X37250500Y-54478362D01*
X40149500Y-54478362D01*
X40149500Y-54741637D01*
X40149501Y-54741653D01*
X40183865Y-55002678D01*
X40252009Y-55256995D01*
X40352761Y-55500234D01*
X40352769Y-55500250D01*
X40484409Y-55728256D01*
X40644687Y-55937136D01*
X40644693Y-55937143D01*
X40830856Y-56123306D01*
X40830863Y-56123312D01*
X41039743Y-56283590D01*
X41267749Y-56415230D01*
X41267765Y-56415238D01*
X41415130Y-56476278D01*
X41511003Y-56515990D01*
X41765320Y-56584134D01*
X42026356Y-56618500D01*
X42026363Y-56618500D01*
X42289637Y-56618500D01*
X42289644Y-56618500D01*
X42550680Y-56584134D01*
X42804997Y-56515990D01*
X43011784Y-56430336D01*
X43048234Y-56415238D01*
X43048237Y-56415236D01*
X43048243Y-56415234D01*
X43276257Y-56283590D01*
X43485138Y-56123311D01*
X43671311Y-55937138D01*
X43831590Y-55728257D01*
X43963234Y-55500243D01*
X44063990Y-55256997D01*
X44132134Y-55002680D01*
X44166500Y-54741644D01*
X44166500Y-54478356D01*
X44132134Y-54217320D01*
X44063990Y-53963003D01*
X43995459Y-53797554D01*
X43963238Y-53719765D01*
X43963230Y-53719749D01*
X43831590Y-53491743D01*
X43671312Y-53282863D01*
X43671306Y-53282856D01*
X43485143Y-53096693D01*
X43485136Y-53096687D01*
X43276256Y-52936409D01*
X43048250Y-52804769D01*
X43048234Y-52804761D01*
X42804995Y-52704009D01*
X42550678Y-52635865D01*
X42289653Y-52601501D01*
X42289650Y-52601500D01*
X42289644Y-52601500D01*
X42026356Y-52601500D01*
X42026350Y-52601500D01*
X42026346Y-52601501D01*
X41765321Y-52635865D01*
X41511004Y-52704009D01*
X41267765Y-52804761D01*
X41267749Y-52804769D01*
X41039743Y-52936409D01*
X40830863Y-53096687D01*
X40830856Y-53096693D01*
X40644693Y-53282856D01*
X40644687Y-53282863D01*
X40484409Y-53491743D01*
X40352769Y-53719749D01*
X40352761Y-53719765D01*
X40252009Y-53963004D01*
X40183865Y-54217321D01*
X40149501Y-54478346D01*
X40149500Y-54478362D01*
X37250500Y-54478362D01*
X37250500Y-47982155D01*
X40158000Y-47982155D01*
X40158000Y-49280000D01*
X41438936Y-49280000D01*
X41427207Y-49308316D01*
X41398000Y-49455147D01*
X41398000Y-49604853D01*
X41427207Y-49751684D01*
X41438936Y-49780000D01*
X40158000Y-49780000D01*
X40158000Y-51077844D01*
X40164401Y-51137372D01*
X40164403Y-51137379D01*
X40214645Y-51272086D01*
X40214649Y-51272093D01*
X40300809Y-51387187D01*
X40300812Y-51387190D01*
X40415906Y-51473350D01*
X40415913Y-51473354D01*
X40550620Y-51523596D01*
X40550627Y-51523598D01*
X40610155Y-51529999D01*
X40610172Y-51530000D01*
X41908000Y-51530000D01*
X41908000Y-50249064D01*
X41936316Y-50260793D01*
X42083147Y-50290000D01*
X42232853Y-50290000D01*
X42379684Y-50260793D01*
X42408000Y-50249064D01*
X42408000Y-51530000D01*
X43705828Y-51530000D01*
X43705844Y-51529999D01*
X43765372Y-51523598D01*
X43765379Y-51523596D01*
X43900086Y-51473354D01*
X43900093Y-51473350D01*
X44015187Y-51387190D01*
X44015190Y-51387187D01*
X44101350Y-51272093D01*
X44101354Y-51272086D01*
X44151596Y-51137379D01*
X44151598Y-51137372D01*
X44157999Y-51077844D01*
X44158000Y-51077827D01*
X44158000Y-49780000D01*
X42877064Y-49780000D01*
X42888793Y-49751684D01*
X42918000Y-49604853D01*
X42918000Y-49455147D01*
X42888793Y-49308316D01*
X42877064Y-49280000D01*
X44158000Y-49280000D01*
X44158000Y-48068986D01*
X59182501Y-48068986D01*
X59192994Y-48171697D01*
X59248141Y-48338119D01*
X59248143Y-48338124D01*
X59340184Y-48487345D01*
X59464154Y-48611315D01*
X59613375Y-48703356D01*
X59613380Y-48703358D01*
X59779802Y-48758505D01*
X59779809Y-48758506D01*
X59882519Y-48768999D01*
X60019999Y-48768999D01*
X60020000Y-48768998D01*
X60020000Y-47794000D01*
X59182501Y-47794000D01*
X59182501Y-48068986D01*
X44158000Y-48068986D01*
X44158000Y-47982172D01*
X44157999Y-47982155D01*
X44151598Y-47922627D01*
X44151596Y-47922620D01*
X44101354Y-47787914D01*
X44101350Y-47787906D01*
X44015190Y-47672812D01*
X44015187Y-47672809D01*
X43900093Y-47586649D01*
X43900086Y-47586645D01*
X43765379Y-47536403D01*
X43765372Y-47536401D01*
X43705844Y-47530000D01*
X42408000Y-47530000D01*
X42408000Y-48810935D01*
X42379684Y-48799207D01*
X42232853Y-48770000D01*
X42083147Y-48770000D01*
X41936316Y-48799207D01*
X41908000Y-48810935D01*
X41908000Y-47530000D01*
X40610155Y-47530000D01*
X40550627Y-47536401D01*
X40550620Y-47536403D01*
X40415913Y-47586645D01*
X40415906Y-47586649D01*
X40300812Y-47672809D01*
X40300809Y-47672812D01*
X40214649Y-47787906D01*
X40214645Y-47787913D01*
X40164403Y-47922620D01*
X40164401Y-47922627D01*
X40158000Y-47982155D01*
X37250500Y-47982155D01*
X37250500Y-47019013D01*
X59182500Y-47019013D01*
X59182500Y-47294000D01*
X60020000Y-47294000D01*
X60020000Y-46319000D01*
X59882527Y-46319000D01*
X59882512Y-46319001D01*
X59779802Y-46329494D01*
X59613380Y-46384641D01*
X59613375Y-46384643D01*
X59464154Y-46476684D01*
X59340184Y-46600654D01*
X59248143Y-46749875D01*
X59248141Y-46749880D01*
X59192994Y-46916302D01*
X59192993Y-46916309D01*
X59182500Y-47019013D01*
X37250500Y-47019013D01*
X37250500Y-45826475D01*
X37250882Y-45816746D01*
X37265358Y-45632814D01*
X37265358Y-45632813D01*
X37266860Y-45621011D01*
X37273994Y-45580550D01*
X37275528Y-45573175D01*
X37313338Y-45415684D01*
X37317375Y-45402269D01*
X37327887Y-45373386D01*
X37329806Y-45368453D01*
X37396160Y-45208260D01*
X37403300Y-45193775D01*
X37403764Y-45192971D01*
X37405347Y-45190310D01*
X37507263Y-45023999D01*
X37518684Y-45008279D01*
X37645764Y-44859487D01*
X37659487Y-44845764D01*
X37808279Y-44718684D01*
X37823999Y-44707263D01*
X37990310Y-44605347D01*
X37992971Y-44603764D01*
X37993775Y-44603300D01*
X38008260Y-44596160D01*
X38168453Y-44529806D01*
X38173386Y-44527887D01*
X38202269Y-44517375D01*
X38215684Y-44513338D01*
X38373175Y-44475528D01*
X38380550Y-44473994D01*
X38421018Y-44466859D01*
X38432809Y-44465358D01*
X38616746Y-44450881D01*
X38626475Y-44450500D01*
X111245125Y-44450500D01*
X111254853Y-44450881D01*
G37*
%TD.AperFunction*%
%TD*%
M02*
