M48
; DRILL file {KiCad 9.0.0} date 2025-03-29T21:15:18+0100
; FORMAT={-:-/ absolute / metric / decimal}
; #@! TF.CreationDate,2025-03-29T21:15:18+01:00
; #@! TF.GenerationSoftware,Kicad,Pcbnew,9.0.0
; #@! TF.FileFunction,Plated,1,2,PTH
FMAT,2
METRIC
; #@! TA.AperFunction,Plated,PTH,ViaDrill
T1C0.400
; #@! TA.AperFunction,Plated,PTH,ComponentDrill
T2C0.800
; #@! TA.AperFunction,Plated,PTH,ComponentDrill
T3C1.000
; #@! TA.AperFunction,Plated,PTH,ComponentDrill
T4C1.520
%
G90
G05
T1
X56.422Y-76.516
X56.636Y-52.397
X56.648Y-67.986
X56.948Y-62.22
X57.474Y-66.102
X57.983Y-53.093
X62.133Y-62.978
X63.659Y-64.465
X64.935Y-66.826
X65.0Y-47.5
X66.114Y-65.578
X69.645Y-52.877
X69.727Y-55.733
X69.941Y-67.543
X70.245Y-69.361
X71.306Y-65.136
X72.026Y-60.377
X72.112Y-53.015
X72.32Y-65.905
X72.408Y-76.528
X73.377Y-67.999
X73.5Y-57.5
X73.5Y-59.5
X73.5Y-63.0
X73.5Y-64.0
X73.5Y-65.0
X73.588Y-56.277
X74.014Y-62.044
X74.284Y-53.832
X74.936Y-46.829
X75.165Y-55.771
X75.236Y-51.781
X75.323Y-52.793
X75.75Y-54.25
X76.0Y-64.25
X77.266Y-54.724
X77.358Y-76.211
X78.921Y-73.006
X79.25Y-51.0
X79.5Y-67.75
X79.75Y-69.75
X80.0Y-57.5
X80.25Y-61.0
X80.75Y-69.75
X81.5Y-48.5
X81.75Y-69.75
X82.5Y-48.5
X82.75Y-69.75
X83.0Y-55.0
X83.25Y-63.75
X83.75Y-69.75
X84.559Y-76.594
X85.757Y-71.294
X85.987Y-69.364
X86.5Y-56.0
X87.263Y-61.763
X88.0Y-48.5
X88.359Y-74.406
X89.25Y-58.75
X90.0Y-48.5
X90.0Y-52.0
X91.648Y-75.216
X92.097Y-48.06
X92.103Y-66.725
X92.105Y-46.102
X92.804Y-52.785
X93.25Y-55.25
X93.776Y-66.118
X93.86Y-50.046
X94.511Y-49.048
X96.0Y-53.25
X96.0Y-55.25
X96.0Y-56.25
X96.0Y-60.0
X96.0Y-61.0
X96.0Y-62.0
X96.0Y-63.0
X96.0Y-64.0
X100.411Y-72.741
T2
X40.5Y-83.75
X43.0Y-83.75
X48.5Y-62.5
X48.5Y-70.12
T3
X42.158Y-64.77
X42.158Y-67.31
X50.795Y-77.978
X50.795Y-80.518
X53.335Y-77.978
X53.335Y-80.518
X55.875Y-77.978
X55.875Y-80.518
X58.415Y-77.978
X58.415Y-80.518
X60.955Y-77.978
X60.955Y-80.518
X63.495Y-77.978
X63.495Y-80.518
X66.035Y-77.978
X66.035Y-80.518
X68.575Y-77.978
X68.575Y-80.518
X71.115Y-77.978
X71.115Y-80.518
X73.655Y-77.978
X73.655Y-80.518
X76.195Y-77.978
X76.195Y-80.518
X78.735Y-77.978
X78.735Y-80.518
X81.275Y-77.978
X81.275Y-80.518
X83.815Y-77.978
X83.815Y-80.518
X86.355Y-77.978
X86.355Y-80.518
X88.895Y-77.978
X88.895Y-80.518
X91.435Y-77.978
X91.435Y-80.518
X93.975Y-77.978
X93.975Y-80.518
X96.515Y-77.978
X96.515Y-80.518
X99.055Y-77.978
X99.055Y-80.518
X104.21Y-53.09
X104.21Y-55.63
X104.21Y-58.17
X104.21Y-60.71
X104.21Y-63.25
X106.75Y-53.09
X106.75Y-55.63
X106.75Y-58.17
X106.75Y-60.71
X106.75Y-63.25
T4
X42.158Y-49.53
X42.158Y-54.61
M30
