%TF.GenerationSoftware,KiCad,Pcbnew,9.0.0*%
%TF.CreationDate,2025-03-29T21:15:17+01:00*%
%TF.ProjectId,p2000t-ram-expansion-board-128kb-smd-cpld,70323030-3074-42d7-9261-6d2d65787061,4*%
%TF.SameCoordinates,Original*%
%TF.FileFunction,Copper,L2,Bot*%
%TF.FilePolarity,Positive*%
%FSLAX46Y46*%
G04 Gerber Fmt 4.6, Leading zero omitted, Abs format (unit mm)*
G04 Created by KiCad (PCBNEW 9.0.0) date 2025-03-29 21:15:17*
%MOMM*%
%LPD*%
G01*
G04 APERTURE LIST*
G04 Aperture macros list*
%AMRoundRect*
0 Rectangle with rounded corners*
0 $1 Rounding radius*
0 $2 $3 $4 $5 $6 $7 $8 $9 X,Y pos of 4 corners*
0 Add a 4 corners polygon primitive as box body*
4,1,4,$2,$3,$4,$5,$6,$7,$8,$9,$2,$3,0*
0 Add four circle primitives for the rounded corners*
1,1,$1+$1,$2,$3*
1,1,$1+$1,$4,$5*
1,1,$1+$1,$6,$7*
1,1,$1+$1,$8,$9*
0 Add four rect primitives between the rounded corners*
20,1,$1+$1,$2,$3,$4,$5,0*
20,1,$1+$1,$4,$5,$6,$7,0*
20,1,$1+$1,$6,$7,$8,$9,0*
20,1,$1+$1,$8,$9,$2,$3,0*%
G04 Aperture macros list end*
%TA.AperFunction,ComponentPad*%
%ADD10R,1.600000X1.600000*%
%TD*%
%TA.AperFunction,ComponentPad*%
%ADD11O,1.600000X1.600000*%
%TD*%
%TA.AperFunction,ComponentPad*%
%ADD12RoundRect,0.250000X-0.600000X-0.600000X0.600000X-0.600000X0.600000X0.600000X-0.600000X0.600000X0*%
%TD*%
%TA.AperFunction,ComponentPad*%
%ADD13C,1.700000*%
%TD*%
%TA.AperFunction,ComponentPad*%
%ADD14R,1.700000X1.700000*%
%TD*%
%TA.AperFunction,ComponentPad*%
%ADD15O,1.700000X1.700000*%
%TD*%
%TA.AperFunction,ComponentPad*%
%ADD16C,1.600000*%
%TD*%
%TA.AperFunction,ComponentPad*%
%ADD17R,3.000000X3.000000*%
%TD*%
%TA.AperFunction,ComponentPad*%
%ADD18C,3.000000*%
%TD*%
%TA.AperFunction,ViaPad*%
%ADD19C,0.800000*%
%TD*%
%TA.AperFunction,Conductor*%
%ADD20C,0.250000*%
%TD*%
%TA.AperFunction,Conductor*%
%ADD21C,1.000000*%
%TD*%
G04 APERTURE END LIST*
D10*
%TO.P,D1,1,K*%
%TO.N,+5V*%
X48500000Y-70120000D03*
D11*
%TO.P,D1,2,A*%
%TO.N,VCC*%
X48500000Y-62500000D03*
%TD*%
D12*
%TO.P,J4,1,TCK*%
%TO.N,TCK*%
X104210000Y-53090000D03*
D13*
%TO.P,J4,2,GND*%
%TO.N,GND*%
X106750000Y-53090000D03*
%TO.P,J4,3,TDO*%
%TO.N,TDO*%
X104210000Y-55630000D03*
%TO.P,J4,4,VccT*%
%TO.N,+5V*%
X106750000Y-55630000D03*
%TO.P,J4,5,TMS*%
%TO.N,TMS*%
X104210000Y-58170000D03*
%TO.P,J4,6,NC*%
%TO.N,unconnected-(J4-NC-Pad6)*%
X106750000Y-58170000D03*
%TO.P,J4,7,NC*%
%TO.N,unconnected-(J4-NC-Pad7)*%
X104210000Y-60710000D03*
%TO.P,J4,8,NC*%
%TO.N,unconnected-(J4-NC-Pad8)*%
X106750000Y-60710000D03*
%TO.P,J4,9,TDI*%
%TO.N,TDI*%
X104210000Y-63250000D03*
%TO.P,J4,10,GND*%
%TO.N,GND*%
X106750000Y-63250000D03*
%TD*%
D14*
%TO.P,J2,1,Pin_1*%
%TO.N,GND*%
X42158000Y-64770000D03*
D15*
%TO.P,J2,2,Pin_2*%
%TO.N,VCC*%
X42158000Y-67310000D03*
%TD*%
D10*
%TO.P,C3,1*%
%TO.N,+5V*%
X40500000Y-83750000D03*
D16*
%TO.P,C3,2*%
%TO.N,GND*%
X43000000Y-83750000D03*
%TD*%
D17*
%TO.P,J3,1,Pin_1*%
%TO.N,GND*%
X42158000Y-49530000D03*
D18*
%TO.P,J3,2,Pin_2*%
%TO.N,VCC*%
X42158000Y-54610000D03*
%TD*%
D14*
%TO.P,J1,1,Pin_1*%
%TO.N,GND*%
X99055000Y-80518000D03*
D15*
%TO.P,J1,2,Pin_2*%
%TO.N,unconnected-(J1-Pin_2-Pad2)*%
X99055000Y-77978000D03*
%TO.P,J1,3,Pin_3*%
%TO.N,D0*%
X96515000Y-80518000D03*
%TO.P,J1,4,Pin_4*%
%TO.N,D1*%
X96515000Y-77978000D03*
%TO.P,J1,5,Pin_5*%
%TO.N,D2*%
X93975000Y-80518000D03*
%TO.P,J1,6,Pin_6*%
%TO.N,D3*%
X93975000Y-77978000D03*
%TO.P,J1,7,Pin_7*%
%TO.N,D4*%
X91435000Y-80518000D03*
%TO.P,J1,8,Pin_8*%
%TO.N,D5*%
X91435000Y-77978000D03*
%TO.P,J1,9,Pin_9*%
%TO.N,D6*%
X88895000Y-80518000D03*
%TO.P,J1,10,Pin_10*%
%TO.N,D7*%
X88895000Y-77978000D03*
%TO.P,J1,11,Pin_11*%
%TO.N,A0*%
X86355000Y-80518000D03*
%TO.P,J1,12,Pin_12*%
%TO.N,A1*%
X86355000Y-77978000D03*
%TO.P,J1,13,Pin_13*%
%TO.N,A2*%
X83815000Y-80518000D03*
%TO.P,J1,14,Pin_14*%
%TO.N,A3*%
X83815000Y-77978000D03*
%TO.P,J1,15,Pin_15*%
%TO.N,A4*%
X81275000Y-80518000D03*
%TO.P,J1,16,Pin_16*%
%TO.N,A5*%
X81275000Y-77978000D03*
%TO.P,J1,17,Pin_17*%
%TO.N,A6*%
X78735000Y-80518000D03*
%TO.P,J1,18,Pin_18*%
%TO.N,A7*%
X78735000Y-77978000D03*
%TO.P,J1,19,Pin_19*%
%TO.N,A8*%
X76195000Y-80518000D03*
%TO.P,J1,20,Pin_20*%
%TO.N,A9*%
X76195000Y-77978000D03*
%TO.P,J1,21,Pin_21*%
%TO.N,A10*%
X73655000Y-80518000D03*
%TO.P,J1,22,Pin_22*%
%TO.N,A11*%
X73655000Y-77978000D03*
%TO.P,J1,23,Pin_23*%
%TO.N,A12*%
X71115000Y-80518000D03*
%TO.P,J1,24,Pin_24*%
%TO.N,A13*%
X71115000Y-77978000D03*
%TO.P,J1,25,Pin_25*%
%TO.N,A14*%
X68575000Y-80518000D03*
%TO.P,J1,26,Pin_26*%
%TO.N,RAMS2*%
X68575000Y-77978000D03*
%TO.P,J1,27,Pin_27*%
%TO.N,~{MRQ}*%
X66035000Y-80518000D03*
%TO.P,J1,28,Pin_28*%
%TO.N,~{RD}*%
X66035000Y-77978000D03*
%TO.P,J1,29,Pin_29*%
%TO.N,unconnected-(J1-Pin_29-Pad29)*%
X63495000Y-80518000D03*
%TO.P,J1,30,Pin_30*%
%TO.N,~{WR}*%
X63495000Y-77978000D03*
%TO.P,J1,31,Pin_31*%
%TO.N,~{IORQ}*%
X60955000Y-80518000D03*
%TO.P,J1,32,Pin_32*%
%TO.N,unconnected-(J1-Pin_32-Pad32)*%
X60955000Y-77978000D03*
%TO.P,J1,33,Pin_33*%
%TO.N,unconnected-(J1-Pin_33-Pad33)*%
X58415000Y-80518000D03*
%TO.P,J1,34,Pin_34*%
%TO.N,~{RES}*%
X58415000Y-77978000D03*
%TO.P,J1,35,Pin_35*%
%TO.N,unconnected-(J1-Pin_35-Pad35)*%
X55875000Y-80518000D03*
%TO.P,J1,36,Pin_36*%
%TO.N,unconnected-(J1-Pin_36-Pad36)*%
X55875000Y-77978000D03*
%TO.P,J1,37,Pin_37*%
%TO.N,unconnected-(J1-Pin_37-Pad37)*%
X53335000Y-80518000D03*
%TO.P,J1,38,Pin_38*%
%TO.N,unconnected-(J1-Pin_38-Pad38)*%
X53335000Y-77978000D03*
%TO.P,J1,39,Pin_39*%
%TO.N,unconnected-(J1-Pin_39-Pad39)*%
X50795000Y-80518000D03*
%TO.P,J1,40,Pin_40*%
%TO.N,unconnected-(J1-Pin_40-Pad40)*%
X50795000Y-77978000D03*
%TD*%
D19*
%TO.N,A6*%
X85987500Y-69364000D03*
%TO.N,R3*%
X73500000Y-59500000D03*
X57983300Y-53093100D03*
%TO.N,R1*%
X73500000Y-57500000D03*
X56635900Y-52396700D03*
%TO.N,R0*%
X82500000Y-48500000D03*
X75236200Y-51781200D03*
X72112400Y-53014800D03*
X69727300Y-55733400D03*
%TO.N,TDI*%
X73500000Y-63000000D03*
X93776500Y-66117800D03*
%TO.N,TDO*%
X94511300Y-49047600D03*
%TO.N,~{CS1}*%
X96000000Y-63000000D03*
X64935200Y-66826000D03*
%TO.N,TMS*%
X80750000Y-69750000D03*
X92103100Y-66725400D03*
%TO.N,~{RES}*%
X96000000Y-60000000D03*
X91648500Y-75215900D03*
%TO.N,~{WR}*%
X96000000Y-62000000D03*
X74014200Y-62044200D03*
%TO.N,~{RD}*%
X96000000Y-64000000D03*
X85757100Y-71293900D03*
X70245000Y-69360800D03*
%TO.N,RAMS2*%
X96000000Y-61000000D03*
X88359300Y-74405700D03*
X72407700Y-76527800D03*
%TO.N,A14*%
X75164700Y-55770600D03*
%TO.N,A13*%
X81500000Y-48500000D03*
X74284500Y-53831900D03*
X75323200Y-52793200D03*
%TO.N,A11*%
X71306500Y-65136500D03*
%TO.N,A10*%
X69941300Y-67543300D03*
%TO.N,A9*%
X72320200Y-65904800D03*
%TO.N,A8*%
X73376700Y-67998900D03*
%TO.N,A7*%
X78921000Y-73005900D03*
%TO.N,A6*%
X84559500Y-76593800D03*
%TO.N,A2*%
X79750000Y-69750000D03*
%TO.N,A1*%
X73500000Y-65000000D03*
X72026100Y-60377200D03*
X56948400Y-62220500D03*
X77358200Y-76211000D03*
%TO.N,A0*%
X73500000Y-64000000D03*
X57474400Y-66102400D03*
%TO.N,D7*%
X100410700Y-72741100D03*
X92105000Y-46101900D03*
%TO.N,D6*%
X92096600Y-48059600D03*
X63659400Y-64464700D03*
%TO.N,D5*%
X88000000Y-48500000D03*
X77266100Y-54724000D03*
X73588400Y-56277400D03*
X66114000Y-65578100D03*
%TO.N,D4*%
X62133100Y-62978300D03*
X93860100Y-50045800D03*
%TO.N,D3*%
X90000000Y-48500000D03*
X92804200Y-52784700D03*
X74936300Y-46829500D03*
%TO.N,D2*%
X96000000Y-53250000D03*
X56421700Y-76515700D03*
X56647600Y-67985600D03*
%TO.N,D1*%
X96000000Y-55250000D03*
%TO.N,D0*%
X96000000Y-56250000D03*
%TO.N,+5V*%
X87262700Y-61762700D03*
X65000000Y-47500000D03*
X86500000Y-56000000D03*
X80000000Y-57500000D03*
X83250000Y-63750000D03*
X90000000Y-52000000D03*
X75750000Y-54250000D03*
X79500000Y-67750000D03*
X69645500Y-52876700D03*
%TO.N,GND*%
X89250000Y-58750000D03*
X83000000Y-55000000D03*
X80250000Y-61000000D03*
X93250000Y-55250000D03*
X79250000Y-51000000D03*
X76000000Y-64250000D03*
%TO.N,A3*%
X81750000Y-69750000D03*
%TO.N,A4*%
X82750000Y-69750000D03*
%TO.N,A5*%
X83750000Y-69750000D03*
%TD*%
D20*
%TO.N,A6*%
X85987500Y-70038100D02*
X85987500Y-69364000D01*
X84559500Y-76593800D02*
X85032000Y-76121300D01*
X85032000Y-70993600D02*
X85987500Y-70038100D01*
X85032000Y-76121300D02*
X85032000Y-70993600D01*
%TO.N,R3*%
X64390200Y-59500000D02*
X57983300Y-53093100D01*
X73500000Y-59500000D02*
X64390200Y-59500000D01*
%TO.N,R1*%
X56694100Y-52338500D02*
X56635900Y-52396700D01*
X58423000Y-52338500D02*
X56694100Y-52338500D01*
X63584500Y-57500000D02*
X58423000Y-52338500D01*
X73500000Y-57500000D02*
X63584500Y-57500000D01*
%TO.N,R0*%
X79293500Y-47723900D02*
X75236200Y-51781200D01*
X81816300Y-47723900D02*
X79293500Y-47723900D01*
X82500000Y-48407600D02*
X81816300Y-47723900D01*
X82500000Y-48500000D02*
X82500000Y-48407600D01*
X72112400Y-53348300D02*
X69727300Y-55733400D01*
X72112400Y-53014800D02*
X72112400Y-53348300D01*
D21*
%TO.N,VCC*%
X46250000Y-62500000D02*
X48500000Y-62500000D01*
X45500000Y-63250000D02*
X46250000Y-62500000D01*
X45500000Y-65000000D02*
X45500000Y-63250000D01*
X43190000Y-67310000D02*
X45500000Y-65000000D01*
X42158000Y-67310000D02*
X43190000Y-67310000D01*
X48500000Y-60952000D02*
X48500000Y-62500000D01*
X42158000Y-54610000D02*
X48500000Y-60952000D01*
D20*
%TO.N,TDI*%
X73598900Y-63000000D02*
X73500000Y-63000000D01*
X74675200Y-64076300D02*
X73598900Y-63000000D01*
X74675200Y-64614400D02*
X74675200Y-64076300D01*
X79023200Y-68962400D02*
X74675200Y-64614400D01*
X80699000Y-68962400D02*
X79023200Y-68962400D01*
X82023000Y-67638400D02*
X80699000Y-68962400D01*
X88000800Y-67638400D02*
X82023000Y-67638400D01*
X89638900Y-66000300D02*
X88000800Y-67638400D01*
X93659000Y-66000300D02*
X89638900Y-66000300D01*
X93776500Y-66117800D02*
X93659000Y-66000300D01*
%TO.N,TDO*%
X97627600Y-49047600D02*
X104210000Y-55630000D01*
X94511300Y-49047600D02*
X97627600Y-49047600D01*
%TO.N,~{CS1}*%
X96090800Y-63000000D02*
X96000000Y-63000000D01*
X96727800Y-63637000D02*
X96090800Y-63000000D01*
X96727800Y-64885200D02*
X96727800Y-63637000D01*
X87625000Y-73988000D02*
X96727800Y-64885200D01*
X87625000Y-80951200D02*
X87625000Y-73988000D01*
X85905500Y-82670700D02*
X87625000Y-80951200D01*
X56352900Y-82670700D02*
X85905500Y-82670700D01*
X54689200Y-81007000D02*
X56352900Y-82670700D01*
X54689200Y-67797900D02*
X54689200Y-81007000D01*
X57147000Y-65340100D02*
X54689200Y-67797900D01*
X63449300Y-65340100D02*
X57147000Y-65340100D01*
X64935200Y-66826000D02*
X63449300Y-65340100D01*
%TO.N,TMS*%
X80750000Y-69688500D02*
X80750000Y-69750000D01*
X82350000Y-68088500D02*
X80750000Y-69688500D01*
X90740000Y-68088500D02*
X82350000Y-68088500D01*
X92103100Y-66725400D02*
X90740000Y-68088500D01*
%TO.N,~{RES}*%
X96082300Y-60000000D02*
X96000000Y-60000000D01*
X97628100Y-61545800D02*
X96082300Y-60000000D01*
X97628100Y-69236300D02*
X97628100Y-61545800D01*
X91648500Y-75215900D02*
X97628100Y-69236300D01*
%TO.N,~{WR}*%
X73802300Y-62256100D02*
X73802300Y-62272700D01*
X74014200Y-62044200D02*
X73802300Y-62256100D01*
X75128300Y-63598700D02*
X73802300Y-62272700D01*
X75128300Y-64430800D02*
X75128300Y-63598700D01*
X79205600Y-68508100D02*
X75128300Y-64430800D01*
X80218300Y-68508100D02*
X79205600Y-68508100D01*
X81538100Y-67188300D02*
X80218300Y-68508100D01*
X84635200Y-67188300D02*
X81538100Y-67188300D01*
X89823500Y-62000000D02*
X84635200Y-67188300D01*
X96000000Y-62000000D02*
X89823500Y-62000000D01*
X63495000Y-71890100D02*
X63495000Y-77978000D01*
X71087100Y-64298000D02*
X63495000Y-71890100D01*
X71167400Y-64298000D02*
X71087100Y-64298000D01*
X73192700Y-62272700D02*
X71167400Y-64298000D01*
X73802300Y-62272700D02*
X73192700Y-62272700D01*
%TO.N,~{RD}*%
X89663700Y-71293900D02*
X85757100Y-71293900D01*
X96000000Y-64957600D02*
X89663700Y-71293900D01*
X96000000Y-64000000D02*
X96000000Y-64957600D01*
X66035000Y-73570800D02*
X70245000Y-69360800D01*
X66035000Y-77978000D02*
X66035000Y-73570800D01*
%TO.N,RAMS2*%
X68575000Y-77978000D02*
X69750100Y-77978000D01*
X70835000Y-76527800D02*
X72407700Y-76527800D01*
X69750100Y-77612700D02*
X70835000Y-76527800D01*
X69750100Y-77978000D02*
X69750100Y-77612700D01*
X96111400Y-61000000D02*
X96000000Y-61000000D01*
X97178000Y-62066600D02*
X96111400Y-61000000D01*
X97178000Y-65587000D02*
X97178000Y-62066600D01*
X88359300Y-74405700D02*
X97178000Y-65587000D01*
%TO.N,A14*%
X68575000Y-80518000D02*
X67399900Y-80518000D01*
X67399900Y-80152800D02*
X67399900Y-80518000D01*
X66495100Y-79248000D02*
X67399900Y-80152800D01*
X63075200Y-79248000D02*
X66495100Y-79248000D01*
X62319800Y-78492600D02*
X63075200Y-79248000D01*
X62319800Y-72371700D02*
X62319800Y-78492600D01*
X70843600Y-63847900D02*
X62319800Y-72371700D01*
X70980800Y-63847900D02*
X70843600Y-63847900D01*
X73538400Y-61290300D02*
X70980800Y-63847900D01*
X74054400Y-61290300D02*
X73538400Y-61290300D01*
X75164700Y-60180000D02*
X74054400Y-61290300D01*
X75164700Y-55770600D02*
X75164700Y-60180000D01*
%TO.N,A13*%
X71115000Y-77978000D02*
X71115000Y-79153100D01*
X78378900Y-49737500D02*
X75323200Y-52793200D01*
X80262500Y-49737500D02*
X78378900Y-49737500D01*
X81500000Y-48500000D02*
X80262500Y-49737500D01*
X70747700Y-79153100D02*
X71115000Y-79153100D01*
X69939900Y-79960900D02*
X70747700Y-79153100D01*
X69939900Y-80834200D02*
X69939900Y-79960900D01*
X69050900Y-81723200D02*
X69939900Y-80834200D01*
X60480000Y-81723200D02*
X69050900Y-81723200D01*
X59774200Y-81017400D02*
X60480000Y-81723200D01*
X59774200Y-74237100D02*
X59774200Y-81017400D01*
X70613500Y-63397800D02*
X59774200Y-74237100D01*
X70707200Y-63397800D02*
X70613500Y-63397800D01*
X73264900Y-60840100D02*
X70707200Y-63397800D01*
X73821900Y-60840100D02*
X73264900Y-60840100D01*
X74680500Y-59981500D02*
X73821900Y-60840100D01*
X74680500Y-56311900D02*
X74680500Y-59981500D01*
X74284500Y-55915900D02*
X74680500Y-56311900D01*
X74284500Y-53831900D02*
X74284500Y-55915900D01*
%TO.N,A11*%
X73655000Y-77978000D02*
X73655000Y-76802900D01*
X71581500Y-65411500D02*
X71306500Y-65136500D01*
X71581500Y-67343300D02*
X71581500Y-65411500D01*
X73655000Y-69416800D02*
X71581500Y-67343300D01*
X73655000Y-76802900D02*
X73655000Y-69416800D01*
%TO.N,A10*%
X73655000Y-80518000D02*
X73655000Y-79342900D01*
X73132800Y-70734800D02*
X69941300Y-67543300D01*
X73132800Y-76828200D02*
X73132800Y-70734800D01*
X72479900Y-77481100D02*
X73132800Y-76828200D01*
X72479900Y-78535100D02*
X72479900Y-77481100D01*
X73287700Y-79342900D02*
X72479900Y-78535100D01*
X73655000Y-79342900D02*
X73287700Y-79342900D01*
%TO.N,A9*%
X76195000Y-77978000D02*
X76195000Y-76802900D01*
X76195000Y-69779600D02*
X72320200Y-65904800D01*
X76195000Y-76802900D02*
X76195000Y-69779600D01*
%TO.N,A8*%
X76195000Y-80518000D02*
X76195000Y-79342900D01*
X75827700Y-79342900D02*
X76195000Y-79342900D01*
X75019900Y-78535100D02*
X75827700Y-79342900D01*
X75019900Y-69642100D02*
X75019900Y-78535100D01*
X73376700Y-67998900D02*
X75019900Y-69642100D01*
%TO.N,A7*%
X78735000Y-77978000D02*
X78735000Y-76802900D01*
X78920900Y-73005900D02*
X78921000Y-73005900D01*
X78920900Y-76617000D02*
X78920900Y-73005900D01*
X78735000Y-76802900D02*
X78920900Y-76617000D01*
%TO.N,A5*%
X81275000Y-75090500D02*
X81275000Y-77978000D01*
X83681700Y-72683800D02*
X81275000Y-75090500D01*
X83681700Y-69818300D02*
X83681700Y-72683800D01*
X83750000Y-69750000D02*
X83681700Y-69818300D01*
%TO.N,A4*%
X81275000Y-80518000D02*
X81275000Y-79342900D01*
X81640200Y-79342900D02*
X81275000Y-79342900D01*
X82545000Y-78438100D02*
X81640200Y-79342900D01*
X82545000Y-74534000D02*
X82545000Y-78438100D01*
X84131800Y-72947200D02*
X82545000Y-74534000D01*
X84131800Y-70620600D02*
X84131800Y-72947200D01*
X84511100Y-70241300D02*
X84131800Y-70620600D01*
X84511100Y-69483300D02*
X84511100Y-70241300D01*
X84016600Y-68988800D02*
X84511100Y-69483300D01*
X83394200Y-68988800D02*
X84016600Y-68988800D01*
X82750000Y-69633000D02*
X83394200Y-68988800D01*
X82750000Y-69750000D02*
X82750000Y-69633000D01*
%TO.N,A3*%
X83815000Y-77978000D02*
X83815000Y-76802900D01*
X83815000Y-74264900D02*
X83815000Y-76802900D01*
X84581900Y-73498000D02*
X83815000Y-74264900D01*
X84581900Y-70807100D02*
X84581900Y-73498000D01*
X84961300Y-70427700D02*
X84581900Y-70807100D01*
X84961300Y-69294600D02*
X84961300Y-70427700D01*
X84205300Y-68538600D02*
X84961300Y-69294600D01*
X82856600Y-68538600D02*
X84205300Y-68538600D01*
X81750000Y-69645200D02*
X82856600Y-68538600D01*
X81750000Y-69750000D02*
X81750000Y-69645200D01*
%TO.N,A2*%
X82639900Y-80883200D02*
X82639900Y-80518000D01*
X81821100Y-81702000D02*
X82639900Y-80883200D01*
X80748200Y-81702000D02*
X81821100Y-81702000D01*
X79948700Y-80902500D02*
X80748200Y-81702000D01*
X79948700Y-69948700D02*
X79948700Y-80902500D01*
X79750000Y-69750000D02*
X79948700Y-69948700D01*
X83815000Y-80518000D02*
X82639900Y-80518000D01*
%TO.N,A1*%
X77358200Y-68858200D02*
X77358200Y-76211000D01*
X73500000Y-65000000D02*
X77358200Y-68858200D01*
X58791700Y-60377200D02*
X56948400Y-62220500D01*
X72026100Y-60377200D02*
X58791700Y-60377200D01*
%TO.N,A0*%
X86355000Y-80518000D02*
X85179900Y-80518000D01*
X57474400Y-68418400D02*
X57474400Y-66102400D01*
X57203400Y-68689400D02*
X57474400Y-68418400D01*
X57203400Y-80970000D02*
X57203400Y-68689400D01*
X58446500Y-82213100D02*
X57203400Y-80970000D01*
X77494100Y-82213100D02*
X58446500Y-82213100D01*
X77555000Y-82152200D02*
X77494100Y-82213100D01*
X83912900Y-82152200D02*
X77555000Y-82152200D01*
X85179900Y-80885200D02*
X83912900Y-82152200D01*
X85179900Y-80518000D02*
X85179900Y-80885200D01*
X73525400Y-64000000D02*
X73500000Y-64000000D01*
X74225100Y-64699700D02*
X73525400Y-64000000D01*
X74225100Y-64944700D02*
X74225100Y-64699700D01*
X78083300Y-68802900D02*
X74225100Y-64944700D01*
X78083300Y-76511400D02*
X78083300Y-68802900D01*
X77555000Y-77039700D02*
X78083300Y-76511400D01*
X77555000Y-82152200D02*
X77555000Y-77039700D01*
%TO.N,D7*%
X100410700Y-56577800D02*
X100410700Y-72741100D01*
X95326200Y-51493300D02*
X100410700Y-56577800D01*
X94282200Y-51493300D02*
X95326200Y-51493300D01*
X93135000Y-50346100D02*
X94282200Y-51493300D01*
X93135000Y-47131900D02*
X93135000Y-50346100D01*
X92105000Y-46101900D02*
X93135000Y-47131900D01*
%TO.N,D6*%
X88895000Y-80518000D02*
X88895000Y-80258600D01*
X88895000Y-80258600D02*
X88895000Y-79342900D01*
X92045300Y-48110900D02*
X92096600Y-48059600D01*
X92045300Y-53103300D02*
X92045300Y-48110900D01*
X92800000Y-53858000D02*
X92045300Y-53103300D01*
X92910200Y-53858000D02*
X92800000Y-53858000D01*
X93980500Y-54928300D02*
X92910200Y-53858000D01*
X93980500Y-56823000D02*
X93980500Y-54928300D01*
X98108900Y-60951400D02*
X93980500Y-56823000D01*
X98108900Y-69811200D02*
X98108900Y-60951400D01*
X91978000Y-75942100D02*
X98108900Y-69811200D01*
X91751300Y-75942100D02*
X91978000Y-75942100D01*
X90070100Y-77623300D02*
X91751300Y-75942100D01*
X90070100Y-78535100D02*
X90070100Y-77623300D01*
X89262300Y-79342900D02*
X90070100Y-78535100D01*
X88895000Y-79342900D02*
X89262300Y-79342900D01*
X88895000Y-80317900D02*
X88895000Y-80258600D01*
X86038200Y-83174700D02*
X88895000Y-80317900D01*
X54255300Y-83174700D02*
X86038200Y-83174700D01*
X52141100Y-81060500D02*
X54255300Y-83174700D01*
X52141100Y-69703400D02*
X52141100Y-81060500D01*
X57379800Y-64464700D02*
X52141100Y-69703400D01*
X63659400Y-64464700D02*
X57379800Y-64464700D01*
%TO.N,D5*%
X91435000Y-77978000D02*
X91435000Y-79153100D01*
X77266100Y-51946800D02*
X77266100Y-54724000D01*
X78984600Y-50228300D02*
X77266100Y-51946800D01*
X86362500Y-50228300D02*
X78984600Y-50228300D01*
X88000000Y-48590800D02*
X86362500Y-50228300D01*
X88000000Y-48500000D02*
X88000000Y-48590800D01*
X68744400Y-62947700D02*
X66114000Y-65578100D01*
X70520600Y-62947700D02*
X68744400Y-62947700D01*
X73243100Y-60225200D02*
X70520600Y-62947700D01*
X73800300Y-60225200D02*
X73243100Y-60225200D01*
X74227800Y-59797700D02*
X73800300Y-60225200D01*
X74227800Y-56916800D02*
X74227800Y-59797700D01*
X73588400Y-56277400D02*
X74227800Y-56916800D01*
X91069700Y-79153100D02*
X91435000Y-79153100D01*
X90070200Y-80152600D02*
X91069700Y-79153100D01*
X90070200Y-81032200D02*
X90070200Y-80152600D01*
X87408100Y-83694300D02*
X90070200Y-81032200D01*
X52278500Y-83694300D02*
X87408100Y-83694300D01*
X49603200Y-81019000D02*
X52278500Y-83694300D01*
X49603200Y-72349800D02*
X49603200Y-81019000D01*
X50470900Y-71482100D02*
X49603200Y-72349800D01*
X50470900Y-70725200D02*
X50470900Y-71482100D01*
X57467200Y-63728900D02*
X50470900Y-70725200D01*
X64264800Y-63728900D02*
X57467200Y-63728900D01*
X66114000Y-65578100D02*
X64264800Y-63728900D01*
%TO.N,D4*%
X92610100Y-80883300D02*
X92610100Y-80518000D01*
X93940600Y-82213800D02*
X92610100Y-80883300D01*
X99558100Y-82213800D02*
X93940600Y-82213800D01*
X101144400Y-80627500D02*
X99558100Y-82213800D01*
X101144400Y-56620300D02*
X101144400Y-80627500D01*
X94569900Y-50045800D02*
X101144400Y-56620300D01*
X93860100Y-50045800D02*
X94569900Y-50045800D01*
X91435000Y-80518000D02*
X92610100Y-80518000D01*
X57578000Y-62978300D02*
X62133100Y-62978300D01*
X49795800Y-70760500D02*
X57578000Y-62978300D01*
X49795800Y-71295700D02*
X49795800Y-70760500D01*
X49153000Y-71938500D02*
X49795800Y-71295700D01*
X49153000Y-81205500D02*
X49153000Y-71938500D01*
X52109200Y-84161700D02*
X49153000Y-81205500D01*
X87791300Y-84161700D02*
X52109200Y-84161700D01*
X91435000Y-80518000D02*
X87791300Y-84161700D01*
%TO.N,D3*%
X93975000Y-77978000D02*
X93975000Y-76802900D01*
X93975000Y-75605000D02*
X93975000Y-76802900D01*
X98559100Y-71020900D02*
X93975000Y-75605000D01*
X98559100Y-60764900D02*
X98559100Y-71020900D01*
X94506400Y-56712200D02*
X98559100Y-60764900D01*
X94506400Y-54486900D02*
X94506400Y-56712200D01*
X92804200Y-52784700D02*
X94506400Y-54486900D01*
X88355200Y-46829500D02*
X74936300Y-46829500D01*
X90000000Y-48474300D02*
X88355200Y-46829500D01*
X90000000Y-48500000D02*
X90000000Y-48474300D01*
%TO.N,D2*%
X56421700Y-68211500D02*
X56421700Y-76515700D01*
X56647600Y-67985600D02*
X56421700Y-68211500D01*
X95150100Y-80883300D02*
X95150100Y-80518000D01*
X95974600Y-81707800D02*
X95150100Y-80883300D01*
X97042500Y-81707800D02*
X95974600Y-81707800D01*
X97879800Y-80870500D02*
X97042500Y-81707800D01*
X97879800Y-79533500D02*
X97879800Y-80870500D01*
X98070400Y-79342900D02*
X97879800Y-79533500D01*
X99413800Y-79342900D02*
X98070400Y-79342900D01*
X100260900Y-78495800D02*
X99413800Y-79342900D01*
X100260900Y-75418600D02*
X100260900Y-78495800D01*
X99660000Y-74817700D02*
X100260900Y-75418600D01*
X99660000Y-72148000D02*
X99660000Y-74817700D01*
X99936300Y-71871700D02*
X99660000Y-72148000D01*
X99936300Y-57074800D02*
X99936300Y-71871700D01*
X96111500Y-53250000D02*
X99936300Y-57074800D01*
X96000000Y-53250000D02*
X96111500Y-53250000D01*
X93975000Y-80518000D02*
X95150100Y-80518000D01*
%TO.N,D1*%
X96515000Y-73701600D02*
X96515000Y-77978000D01*
X99009300Y-71207300D02*
X96515000Y-73701600D01*
X99009300Y-60532500D02*
X99009300Y-71207300D01*
X95234800Y-56758000D02*
X99009300Y-60532500D01*
X95234800Y-55953900D02*
X95234800Y-56758000D01*
X95938700Y-55250000D02*
X95234800Y-55953900D01*
X96000000Y-55250000D02*
X95938700Y-55250000D01*
%TO.N,D0*%
X96515000Y-80518000D02*
X96515000Y-79342900D01*
X96880200Y-79342900D02*
X96515000Y-79342900D01*
X97784900Y-78438200D02*
X96880200Y-79342900D01*
X97784900Y-73068300D02*
X97784900Y-78438200D01*
X99486100Y-71367100D02*
X97784900Y-73068300D01*
X99486100Y-59736100D02*
X99486100Y-71367100D01*
X96000000Y-56250000D02*
X99486100Y-59736100D01*
%TO.N,+5V*%
X87262700Y-61262700D02*
X86500000Y-60500000D01*
X87262700Y-61762700D02*
X87262700Y-61262700D01*
X83250000Y-60750000D02*
X80250000Y-57750000D01*
X83250000Y-63750000D02*
X83250000Y-60750000D01*
X86500000Y-60500000D02*
X83250000Y-63750000D01*
X86500000Y-56000000D02*
X86500000Y-60500000D01*
X91250000Y-50750000D02*
X91250000Y-44961300D01*
X90000000Y-52000000D02*
X91250000Y-50750000D01*
D21*
X71750000Y-44961300D02*
X91250000Y-44961300D01*
X111500000Y-46250000D02*
X111500000Y-56000000D01*
X110211000Y-44961300D02*
X111500000Y-46250000D01*
X91250000Y-44961300D02*
X110211000Y-44961300D01*
X63250000Y-45750000D02*
X65000000Y-47500000D01*
X40250000Y-45750000D02*
X63250000Y-45750000D01*
X39500000Y-46500000D02*
X40250000Y-45750000D01*
X39500000Y-82750000D02*
X39500000Y-46500000D01*
X40500000Y-83750000D02*
X39500000Y-82750000D01*
X40500000Y-78120000D02*
X48500000Y-70120000D01*
X40500000Y-83750000D02*
X40500000Y-78120000D01*
D20*
X89000000Y-53500000D02*
X86500000Y-56000000D01*
X89000000Y-53000000D02*
X89000000Y-53500000D01*
X90000000Y-52000000D02*
X89000000Y-53000000D01*
X79000000Y-57500000D02*
X80000000Y-57500000D01*
X75750000Y-54250000D02*
X79000000Y-57500000D01*
X79500000Y-67500000D02*
X83250000Y-63750000D01*
X79500000Y-67750000D02*
X79500000Y-67500000D01*
D21*
X111500000Y-87250000D02*
X111500000Y-56000000D01*
X109750000Y-89000000D02*
X111500000Y-87250000D01*
X43750000Y-89000000D02*
X109750000Y-89000000D01*
X40500000Y-85750000D02*
X43750000Y-89000000D01*
X40500000Y-83750000D02*
X40500000Y-85750000D01*
X110880000Y-55630000D02*
X106750000Y-55630000D01*
X111250000Y-56000000D02*
X110880000Y-55630000D01*
X111500000Y-56000000D02*
X111250000Y-56000000D01*
D20*
X80250000Y-57750000D02*
X80000000Y-57500000D01*
X80000000Y-57500000D02*
X80250000Y-57750000D01*
X84750000Y-57750000D02*
X86500000Y-56000000D01*
X80250000Y-57750000D02*
X84750000Y-57750000D01*
D21*
X68788700Y-44961300D02*
X71750000Y-44961300D01*
X68000000Y-45750000D02*
X68788700Y-44961300D01*
X63250000Y-45750000D02*
X68000000Y-45750000D01*
D20*
X72000000Y-45211300D02*
X71750000Y-44961300D01*
X72000000Y-50500000D02*
X72000000Y-45211300D01*
X75750000Y-54250000D02*
X72000000Y-50500000D01*
X69645500Y-52854500D02*
X69645500Y-52876700D01*
X72000000Y-50500000D02*
X69645500Y-52854500D01*
%TO.N,GND*%
X89750000Y-58750000D02*
X89250000Y-58750000D01*
X93250000Y-55250000D02*
X89750000Y-58750000D01*
X83000000Y-54750000D02*
X83000000Y-55000000D01*
X79250000Y-51000000D02*
X83000000Y-54750000D01*
X77000000Y-64250000D02*
X80250000Y-61000000D01*
X76000000Y-64250000D02*
X77000000Y-64250000D01*
%TD*%
%TA.AperFunction,Conductor*%
%TO.N,+5V*%
G36*
X106284075Y-55822993D02*
G01*
X106349901Y-55937007D01*
X106442993Y-56030099D01*
X106557007Y-56095925D01*
X106620590Y-56112962D01*
X105988282Y-56745269D01*
X105988282Y-56745270D01*
X106042449Y-56784624D01*
X106042682Y-56784743D01*
X106042755Y-56784812D01*
X106046604Y-56787171D01*
X106046108Y-56787979D01*
X106093479Y-56832716D01*
X106110275Y-56900537D01*
X106087739Y-56966672D01*
X106042693Y-57005709D01*
X106037994Y-57008103D01*
X105864993Y-57133796D01*
X105713796Y-57284993D01*
X105588105Y-57457991D01*
X105585727Y-57461873D01*
X105533914Y-57508748D01*
X105464984Y-57520169D01*
X105400822Y-57492512D01*
X105374273Y-57461873D01*
X105371894Y-57457991D01*
X105321454Y-57388566D01*
X105246206Y-57284996D01*
X105095004Y-57133794D01*
X104922009Y-57008106D01*
X104922005Y-57008103D01*
X104918132Y-57005730D01*
X104871254Y-56953920D01*
X104859829Y-56884991D01*
X104887483Y-56820827D01*
X104918132Y-56794270D01*
X104922005Y-56791896D01*
X104922004Y-56791896D01*
X104922009Y-56791894D01*
X105095004Y-56666206D01*
X105246206Y-56515004D01*
X105371894Y-56342009D01*
X105374283Y-56337319D01*
X105422254Y-56286522D01*
X105490074Y-56269724D01*
X105556210Y-56292258D01*
X105592196Y-56333783D01*
X105592829Y-56333396D01*
X105595167Y-56337211D01*
X105595251Y-56337308D01*
X105595371Y-56337545D01*
X105595373Y-56337547D01*
X105634728Y-56391716D01*
X106267037Y-55759408D01*
X106284075Y-55822993D01*
G37*
%TD.AperFunction*%
%TA.AperFunction,Conductor*%
G36*
X105674173Y-53943779D02*
G01*
X105710075Y-53971832D01*
X105710349Y-53971559D01*
X105712577Y-53973787D01*
X105713113Y-53974206D01*
X105713790Y-53974999D01*
X105713794Y-53975004D01*
X105864996Y-54126206D01*
X106037991Y-54251894D01*
X106042680Y-54254283D01*
X106093478Y-54302254D01*
X106110276Y-54370074D01*
X106087742Y-54436210D01*
X106046205Y-54472209D01*
X106046590Y-54472838D01*
X106042804Y-54475157D01*
X106042702Y-54475246D01*
X106042449Y-54475374D01*
X106042440Y-54475380D01*
X105988282Y-54514727D01*
X105988282Y-54514728D01*
X106620591Y-55147037D01*
X106557007Y-55164075D01*
X106442993Y-55229901D01*
X106349901Y-55322993D01*
X106284075Y-55437007D01*
X106267037Y-55500591D01*
X105634728Y-54868282D01*
X105634727Y-54868282D01*
X105595380Y-54922440D01*
X105595374Y-54922449D01*
X105595246Y-54922702D01*
X105595172Y-54922780D01*
X105592838Y-54926590D01*
X105592036Y-54926099D01*
X105547264Y-54973490D01*
X105479441Y-54990275D01*
X105413309Y-54967728D01*
X105374283Y-54922680D01*
X105371894Y-54917991D01*
X105246206Y-54744996D01*
X105095004Y-54593794D01*
X105094999Y-54593790D01*
X105094206Y-54593113D01*
X105093986Y-54592776D01*
X105091559Y-54590349D01*
X105092068Y-54589839D01*
X105056016Y-54534604D01*
X105055520Y-54464736D01*
X105092876Y-54405692D01*
X105126720Y-54386291D01*
X105126195Y-54385165D01*
X105132730Y-54382117D01*
X105132738Y-54382115D01*
X105283652Y-54289030D01*
X105409030Y-54163652D01*
X105502115Y-54012738D01*
X105502117Y-54012730D01*
X105505165Y-54006195D01*
X105507104Y-54007099D01*
X105540883Y-53958301D01*
X105605396Y-53931471D01*
X105674173Y-53943779D01*
G37*
%TD.AperFunction*%
%TA.AperFunction,Conductor*%
G36*
X111254853Y-44450881D02*
G01*
X111438785Y-44465358D01*
X111450586Y-44466859D01*
X111491036Y-44473992D01*
X111498437Y-44475531D01*
X111655905Y-44513335D01*
X111669340Y-44517378D01*
X111698182Y-44527876D01*
X111703178Y-44529819D01*
X111863326Y-44596155D01*
X111877836Y-44603307D01*
X111878560Y-44603725D01*
X111881357Y-44605389D01*
X111951013Y-44648075D01*
X112047593Y-44707259D01*
X112063326Y-44718689D01*
X112212105Y-44845758D01*
X112225841Y-44859494D01*
X112352900Y-45008261D01*
X112364336Y-45024002D01*
X112466221Y-45190263D01*
X112467890Y-45193069D01*
X112468279Y-45193743D01*
X112475444Y-45208274D01*
X112541773Y-45368405D01*
X112543734Y-45373447D01*
X112554215Y-45402243D01*
X112558267Y-45415708D01*
X112596065Y-45573154D01*
X112597607Y-45580568D01*
X112604738Y-45621011D01*
X112606240Y-45632813D01*
X112620718Y-45816746D01*
X112621100Y-45826476D01*
X112621100Y-88590323D01*
X112620718Y-88600053D01*
X112606240Y-88783985D01*
X112604738Y-88795787D01*
X112597607Y-88836230D01*
X112596065Y-88843644D01*
X112558267Y-89001090D01*
X112554215Y-89014555D01*
X112543734Y-89043351D01*
X112541773Y-89048393D01*
X112475444Y-89208524D01*
X112468267Y-89223077D01*
X112467868Y-89223768D01*
X112466212Y-89226551D01*
X112364339Y-89392794D01*
X112352902Y-89408536D01*
X112225846Y-89557299D01*
X112212099Y-89571046D01*
X112102871Y-89664335D01*
X112063336Y-89698102D01*
X112047598Y-89709536D01*
X112047594Y-89709539D01*
X111881351Y-89811412D01*
X111878568Y-89813068D01*
X111877877Y-89813467D01*
X111863324Y-89820644D01*
X111703193Y-89886973D01*
X111698151Y-89888934D01*
X111669355Y-89899415D01*
X111655890Y-89903467D01*
X111498444Y-89941265D01*
X111491030Y-89942807D01*
X111450587Y-89949938D01*
X111438785Y-89951440D01*
X111254853Y-89965918D01*
X111245123Y-89966300D01*
X38626477Y-89966300D01*
X38616747Y-89965918D01*
X38432813Y-89951440D01*
X38421011Y-89949938D01*
X38380568Y-89942807D01*
X38373154Y-89941265D01*
X38215708Y-89903467D01*
X38202243Y-89899415D01*
X38173447Y-89888934D01*
X38168405Y-89886973D01*
X38008274Y-89820644D01*
X37993743Y-89813479D01*
X37993069Y-89813090D01*
X37990263Y-89811421D01*
X37824002Y-89709536D01*
X37808261Y-89698100D01*
X37659494Y-89571041D01*
X37645758Y-89557305D01*
X37518689Y-89408526D01*
X37507259Y-89392793D01*
X37405393Y-89226563D01*
X37403713Y-89223739D01*
X37403308Y-89223037D01*
X37396154Y-89208524D01*
X37329825Y-89048393D01*
X37327876Y-89043382D01*
X37317378Y-89014540D01*
X37313335Y-89001105D01*
X37275531Y-88843637D01*
X37273991Y-88836230D01*
X37266860Y-88795787D01*
X37265358Y-88783984D01*
X37250882Y-88600053D01*
X37250500Y-88590324D01*
X37250500Y-82902155D01*
X39200000Y-82902155D01*
X39200000Y-83500000D01*
X40184314Y-83500000D01*
X40179920Y-83504394D01*
X40127259Y-83595606D01*
X40100000Y-83697339D01*
X40100000Y-83802661D01*
X40127259Y-83904394D01*
X40179920Y-83995606D01*
X40184314Y-84000000D01*
X39200000Y-84000000D01*
X39200000Y-84597844D01*
X39206401Y-84657372D01*
X39206403Y-84657379D01*
X39256645Y-84792086D01*
X39256649Y-84792093D01*
X39342809Y-84907187D01*
X39342812Y-84907190D01*
X39457906Y-84993350D01*
X39457913Y-84993354D01*
X39592620Y-85043596D01*
X39592627Y-85043598D01*
X39652155Y-85049999D01*
X39652172Y-85050000D01*
X40250000Y-85050000D01*
X40250000Y-84065686D01*
X40254394Y-84070080D01*
X40345606Y-84122741D01*
X40447339Y-84150000D01*
X40552661Y-84150000D01*
X40654394Y-84122741D01*
X40745606Y-84070080D01*
X40750000Y-84065686D01*
X40750000Y-85050000D01*
X41347828Y-85050000D01*
X41347844Y-85049999D01*
X41407372Y-85043598D01*
X41407379Y-85043596D01*
X41542086Y-84993354D01*
X41542093Y-84993350D01*
X41657187Y-84907190D01*
X41657190Y-84907187D01*
X41743350Y-84792093D01*
X41743354Y-84792086D01*
X41796309Y-84650108D01*
X41798433Y-84650900D01*
X41827338Y-84600113D01*
X41889241Y-84567712D01*
X41958834Y-84573922D01*
X42001144Y-84601642D01*
X42147571Y-84748069D01*
X42147576Y-84748073D01*
X42292908Y-84853661D01*
X42314197Y-84869129D01*
X42388890Y-84907187D01*
X42497705Y-84962632D01*
X42497707Y-84962632D01*
X42497710Y-84962634D01*
X42592244Y-84993350D01*
X42693591Y-85026280D01*
X42795305Y-85042390D01*
X42897019Y-85058500D01*
X42897020Y-85058500D01*
X43102980Y-85058500D01*
X43102981Y-85058500D01*
X43306408Y-85026280D01*
X43502290Y-84962634D01*
X43685803Y-84869129D01*
X43852430Y-84748068D01*
X43998068Y-84602430D01*
X44119129Y-84435803D01*
X44212634Y-84252290D01*
X44276280Y-84056408D01*
X44308500Y-83852981D01*
X44308500Y-83647019D01*
X44276280Y-83443592D01*
X44212634Y-83247710D01*
X44212632Y-83247707D01*
X44212632Y-83247705D01*
X44178709Y-83181128D01*
X44119129Y-83064197D01*
X44019347Y-82926858D01*
X43998073Y-82897576D01*
X43998069Y-82897571D01*
X43852428Y-82751930D01*
X43852423Y-82751926D01*
X43685806Y-82630873D01*
X43685805Y-82630872D01*
X43685803Y-82630871D01*
X43628496Y-82601671D01*
X43502294Y-82537367D01*
X43306408Y-82473719D01*
X43130794Y-82445905D01*
X43102981Y-82441500D01*
X42897019Y-82441500D01*
X42872550Y-82445375D01*
X42693591Y-82473719D01*
X42497705Y-82537367D01*
X42314193Y-82630873D01*
X42147577Y-82751925D01*
X42001144Y-82898358D01*
X41939821Y-82931842D01*
X41870129Y-82926858D01*
X41814196Y-82884986D01*
X41797572Y-82849420D01*
X41796309Y-82849892D01*
X41743354Y-82707913D01*
X41743350Y-82707906D01*
X41657190Y-82592812D01*
X41657187Y-82592809D01*
X41542093Y-82506649D01*
X41542086Y-82506645D01*
X41407379Y-82456403D01*
X41407372Y-82456401D01*
X41347844Y-82450000D01*
X40750000Y-82450000D01*
X40750000Y-83434314D01*
X40745606Y-83429920D01*
X40654394Y-83377259D01*
X40552661Y-83350000D01*
X40447339Y-83350000D01*
X40345606Y-83377259D01*
X40254394Y-83429920D01*
X40250000Y-83434314D01*
X40250000Y-82450000D01*
X39652155Y-82450000D01*
X39592627Y-82456401D01*
X39592620Y-82456403D01*
X39457913Y-82506645D01*
X39457906Y-82506649D01*
X39342812Y-82592809D01*
X39342809Y-82592812D01*
X39256649Y-82707906D01*
X39256645Y-82707913D01*
X39206403Y-82842620D01*
X39206401Y-82842627D01*
X39200000Y-82902155D01*
X37250500Y-82902155D01*
X37250500Y-69272155D01*
X47200000Y-69272155D01*
X47200000Y-69870000D01*
X48184314Y-69870000D01*
X48179920Y-69874394D01*
X48127259Y-69965606D01*
X48100000Y-70067339D01*
X48100000Y-70172661D01*
X48127259Y-70274394D01*
X48179920Y-70365606D01*
X48184314Y-70370000D01*
X47200000Y-70370000D01*
X47200000Y-70967844D01*
X47206401Y-71027372D01*
X47206403Y-71027379D01*
X47256645Y-71162086D01*
X47256649Y-71162093D01*
X47342809Y-71277187D01*
X47342812Y-71277190D01*
X47457906Y-71363350D01*
X47457913Y-71363354D01*
X47592620Y-71413596D01*
X47592627Y-71413598D01*
X47652155Y-71419999D01*
X47652172Y-71420000D01*
X48250000Y-71420000D01*
X48250000Y-70435686D01*
X48254394Y-70440080D01*
X48345606Y-70492741D01*
X48447339Y-70520000D01*
X48552661Y-70520000D01*
X48654394Y-70492741D01*
X48745606Y-70440080D01*
X48750000Y-70435686D01*
X48750000Y-71394233D01*
X48730315Y-71461272D01*
X48713681Y-71481914D01*
X48660931Y-71534663D01*
X48660928Y-71534667D01*
X48591603Y-71638418D01*
X48591598Y-71638427D01*
X48543845Y-71753714D01*
X48543843Y-71753722D01*
X48519500Y-71876101D01*
X48519500Y-81267898D01*
X48543843Y-81390277D01*
X48543845Y-81390285D01*
X48591598Y-81505572D01*
X48591603Y-81505581D01*
X48660928Y-81609332D01*
X48660931Y-81609336D01*
X51617129Y-84565533D01*
X51701704Y-84650108D01*
X51705368Y-84653772D01*
X51809118Y-84723096D01*
X51809124Y-84723099D01*
X51809125Y-84723100D01*
X51924415Y-84770855D01*
X52031151Y-84792086D01*
X52046801Y-84795199D01*
X52046805Y-84795200D01*
X52046806Y-84795200D01*
X87853695Y-84795200D01*
X87853696Y-84795199D01*
X87976085Y-84770855D01*
X88091375Y-84723100D01*
X88195133Y-84653771D01*
X90979353Y-81869549D01*
X91040674Y-81836066D01*
X91105348Y-81839300D01*
X91116884Y-81843049D01*
X91328084Y-81876500D01*
X91328085Y-81876500D01*
X91541915Y-81876500D01*
X91541916Y-81876500D01*
X91753116Y-81843049D01*
X91956483Y-81776972D01*
X92147009Y-81679894D01*
X92272029Y-81589061D01*
X92337835Y-81565582D01*
X92405889Y-81581407D01*
X92432595Y-81601699D01*
X93448529Y-82617633D01*
X93536764Y-82705868D01*
X93536768Y-82705872D01*
X93640518Y-82775196D01*
X93640524Y-82775199D01*
X93640525Y-82775200D01*
X93755815Y-82822955D01*
X93878201Y-82847299D01*
X93878205Y-82847300D01*
X93878206Y-82847300D01*
X99620495Y-82847300D01*
X99620496Y-82847299D01*
X99742885Y-82822955D01*
X99858175Y-82775200D01*
X99961933Y-82705871D01*
X101636471Y-81031333D01*
X101705800Y-80927575D01*
X101753555Y-80812285D01*
X101777900Y-80689894D01*
X101777900Y-80565106D01*
X101777900Y-56557906D01*
X101753555Y-56435515D01*
X101712974Y-56337545D01*
X101705801Y-56320227D01*
X101705796Y-56320218D01*
X101636472Y-56216468D01*
X101607920Y-56187916D01*
X101548233Y-56128229D01*
X95312785Y-49892781D01*
X95279300Y-49831458D01*
X95284284Y-49761766D01*
X95326156Y-49705833D01*
X95391620Y-49681416D01*
X95400466Y-49681100D01*
X97313834Y-49681100D01*
X97380873Y-49700785D01*
X97401515Y-49717419D01*
X102858447Y-55174351D01*
X102891932Y-55235674D01*
X102888700Y-55300342D01*
X102884950Y-55311883D01*
X102851500Y-55523084D01*
X102851500Y-55736915D01*
X102884951Y-55948117D01*
X102951026Y-56151480D01*
X102951027Y-56151483D01*
X103026148Y-56298915D01*
X103048106Y-56342009D01*
X103173794Y-56515004D01*
X103324996Y-56666206D01*
X103488257Y-56784822D01*
X103497991Y-56791894D01*
X103501873Y-56794273D01*
X103548748Y-56846086D01*
X103560169Y-56915016D01*
X103532512Y-56979178D01*
X103501873Y-57005727D01*
X103497991Y-57008105D01*
X103324993Y-57133796D01*
X103173796Y-57284993D01*
X103048106Y-57457990D01*
X102951027Y-57648516D01*
X102951026Y-57648519D01*
X102884951Y-57851882D01*
X102870219Y-57944896D01*
X102851500Y-58063084D01*
X102851500Y-58276916D01*
X102858270Y-58319657D01*
X102884951Y-58488117D01*
X102951026Y-58691480D01*
X102951027Y-58691483D01*
X103021698Y-58830181D01*
X103048106Y-58882009D01*
X103173794Y-59055004D01*
X103324996Y-59206206D01*
X103469788Y-59311403D01*
X103497991Y-59331894D01*
X103501873Y-59334273D01*
X103548748Y-59386086D01*
X103560169Y-59455016D01*
X103532512Y-59519178D01*
X103501873Y-59545727D01*
X103497991Y-59548105D01*
X103324993Y-59673796D01*
X103173796Y-59824993D01*
X103048106Y-59997990D01*
X102951027Y-60188516D01*
X102951026Y-60188519D01*
X102884951Y-60391882D01*
X102851500Y-60603084D01*
X102851500Y-60816915D01*
X102884951Y-61028117D01*
X102951026Y-61231480D01*
X102951027Y-61231483D01*
X103044739Y-61415401D01*
X103048106Y-61422009D01*
X103173794Y-61595004D01*
X103324996Y-61746206D01*
X103418578Y-61814197D01*
X103497991Y-61871894D01*
X103501873Y-61874273D01*
X103548748Y-61926086D01*
X103560169Y-61995016D01*
X103532512Y-62059178D01*
X103501873Y-62085727D01*
X103497991Y-62088105D01*
X103324993Y-62213796D01*
X103173796Y-62364993D01*
X103048106Y-62537990D01*
X102951027Y-62728516D01*
X102951026Y-62728519D01*
X102884951Y-62931882D01*
X102870107Y-63025602D01*
X102851500Y-63143084D01*
X102851500Y-63356916D01*
X102860145Y-63411500D01*
X102884951Y-63568117D01*
X102951026Y-63771480D01*
X102951027Y-63771483D01*
X103045233Y-63956371D01*
X103048106Y-63962009D01*
X103173794Y-64135004D01*
X103324996Y-64286206D01*
X103497991Y-64411894D01*
X103536635Y-64431584D01*
X103688516Y-64508972D01*
X103688519Y-64508973D01*
X103786860Y-64540925D01*
X103891884Y-64575049D01*
X104103084Y-64608500D01*
X104103085Y-64608500D01*
X104316915Y-64608500D01*
X104316916Y-64608500D01*
X104528116Y-64575049D01*
X104731483Y-64508972D01*
X104922009Y-64411894D01*
X105095004Y-64286206D01*
X105246206Y-64135004D01*
X105371894Y-63962009D01*
X105371896Y-63962004D01*
X105374270Y-63958132D01*
X105426080Y-63911254D01*
X105495009Y-63899829D01*
X105559173Y-63927483D01*
X105585730Y-63958132D01*
X105588103Y-63962005D01*
X105588106Y-63962009D01*
X105713794Y-64135004D01*
X105864996Y-64286206D01*
X106037991Y-64411894D01*
X106076635Y-64431584D01*
X106228516Y-64508972D01*
X106228519Y-64508973D01*
X106326860Y-64540925D01*
X106431884Y-64575049D01*
X106643084Y-64608500D01*
X106643085Y-64608500D01*
X106856915Y-64608500D01*
X106856916Y-64608500D01*
X107068116Y-64575049D01*
X107271483Y-64508972D01*
X107462009Y-64411894D01*
X107635004Y-64286206D01*
X107786206Y-64135004D01*
X107911894Y-63962009D01*
X108008972Y-63771483D01*
X108075049Y-63568116D01*
X108108500Y-63356916D01*
X108108500Y-63143084D01*
X108075049Y-62931884D01*
X108023197Y-62772298D01*
X108008973Y-62728519D01*
X108008972Y-62728516D01*
X107947117Y-62607120D01*
X107911894Y-62537991D01*
X107786206Y-62364996D01*
X107635004Y-62213794D01*
X107462009Y-62088106D01*
X107462005Y-62088103D01*
X107458132Y-62085730D01*
X107411254Y-62033920D01*
X107399829Y-61964991D01*
X107427483Y-61900827D01*
X107458132Y-61874270D01*
X107462005Y-61871896D01*
X107462004Y-61871896D01*
X107462009Y-61871894D01*
X107635004Y-61746206D01*
X107786206Y-61595004D01*
X107911894Y-61422009D01*
X108008972Y-61231483D01*
X108075049Y-61028116D01*
X108108500Y-60816916D01*
X108108500Y-60603084D01*
X108075049Y-60391884D01*
X108042010Y-60290200D01*
X108008973Y-60188519D01*
X108008972Y-60188516D01*
X107911893Y-59997990D01*
X107848343Y-59910521D01*
X107786206Y-59824996D01*
X107635004Y-59673794D01*
X107462009Y-59548106D01*
X107462005Y-59548103D01*
X107458132Y-59545730D01*
X107411254Y-59493920D01*
X107399829Y-59424991D01*
X107427483Y-59360827D01*
X107458132Y-59334270D01*
X107462005Y-59331896D01*
X107462004Y-59331896D01*
X107462009Y-59331894D01*
X107635004Y-59206206D01*
X107786206Y-59055004D01*
X107911894Y-58882009D01*
X108008972Y-58691483D01*
X108075049Y-58488116D01*
X108108500Y-58276916D01*
X108108500Y-58063084D01*
X108075049Y-57851884D01*
X108008972Y-57648517D01*
X108008972Y-57648516D01*
X107911893Y-57457990D01*
X107786206Y-57284996D01*
X107635004Y-57133794D01*
X107462009Y-57008106D01*
X107462010Y-57008106D01*
X107462008Y-57008105D01*
X107457311Y-57005712D01*
X107406517Y-56957735D01*
X107389724Y-56889914D01*
X107412264Y-56823780D01*
X107453790Y-56787801D01*
X107453402Y-56787168D01*
X107457229Y-56784822D01*
X107457327Y-56784738D01*
X107457556Y-56784621D01*
X107511716Y-56745270D01*
X107511717Y-56745270D01*
X106879408Y-56112962D01*
X106942993Y-56095925D01*
X107057007Y-56030099D01*
X107150099Y-55937007D01*
X107215925Y-55822993D01*
X107232962Y-55759409D01*
X107865270Y-56391717D01*
X107865270Y-56391716D01*
X107904622Y-56337554D01*
X108001095Y-56148217D01*
X108066757Y-55946130D01*
X108066757Y-55946127D01*
X108100000Y-55736246D01*
X108100000Y-55523753D01*
X108066757Y-55313872D01*
X108066757Y-55313869D01*
X108001095Y-55111782D01*
X107904624Y-54922449D01*
X107865270Y-54868282D01*
X107865269Y-54868282D01*
X107232962Y-55500590D01*
X107215925Y-55437007D01*
X107150099Y-55322993D01*
X107057007Y-55229901D01*
X106942993Y-55164075D01*
X106879409Y-55147037D01*
X107511716Y-54514728D01*
X107457547Y-54475373D01*
X107457545Y-54475371D01*
X107457308Y-54475251D01*
X107457234Y-54475181D01*
X107453396Y-54472829D01*
X107453890Y-54472022D01*
X107406515Y-54427274D01*
X107389724Y-54359451D01*
X107412266Y-54293318D01*
X107457319Y-54254283D01*
X107462009Y-54251894D01*
X107635004Y-54126206D01*
X107786206Y-53975004D01*
X107911894Y-53802009D01*
X108008972Y-53611483D01*
X108075049Y-53408116D01*
X108108500Y-53196916D01*
X108108500Y-52983084D01*
X108075049Y-52771884D01*
X108020747Y-52604756D01*
X108008973Y-52568519D01*
X108008972Y-52568516D01*
X107959507Y-52471438D01*
X107911894Y-52377991D01*
X107786206Y-52204996D01*
X107635004Y-52053794D01*
X107462009Y-51928106D01*
X107271483Y-51831027D01*
X107271480Y-51831026D01*
X107068117Y-51764951D01*
X106923923Y-51742113D01*
X106856916Y-51731500D01*
X106643084Y-51731500D01*
X106576077Y-51742113D01*
X106431882Y-51764951D01*
X106228519Y-51831026D01*
X106228516Y-51831027D01*
X106037990Y-51928106D01*
X105864993Y-52053796D01*
X105713790Y-52204999D01*
X105713104Y-52205803D01*
X105712767Y-52206022D01*
X105710349Y-52208441D01*
X105709840Y-52207932D01*
X105654591Y-52243987D01*
X105584723Y-52244475D01*
X105525683Y-52207112D01*
X105506290Y-52173280D01*
X105505165Y-52173805D01*
X105502116Y-52167266D01*
X105502115Y-52167262D01*
X105409030Y-52016348D01*
X105283652Y-51890970D01*
X105144432Y-51805098D01*
X105132740Y-51797886D01*
X105132735Y-51797884D01*
X104964427Y-51742113D01*
X104860545Y-51731500D01*
X103559462Y-51731500D01*
X103559446Y-51731501D01*
X103455572Y-51742113D01*
X103287264Y-51797884D01*
X103287259Y-51797886D01*
X103136346Y-51890971D01*
X103010971Y-52016346D01*
X102917886Y-52167259D01*
X102917884Y-52167264D01*
X102862113Y-52335572D01*
X102851500Y-52439447D01*
X102851500Y-53076233D01*
X102831815Y-53143272D01*
X102779011Y-53189027D01*
X102709853Y-53198971D01*
X102646297Y-53169946D01*
X102639819Y-53163914D01*
X98031436Y-48555531D01*
X98031432Y-48555528D01*
X97927681Y-48486203D01*
X97927672Y-48486198D01*
X97812385Y-48438445D01*
X97812377Y-48438443D01*
X97689998Y-48414100D01*
X97689994Y-48414100D01*
X95213975Y-48414100D01*
X95146936Y-48394415D01*
X95126293Y-48377780D01*
X95090438Y-48341924D01*
X95090434Y-48341921D01*
X94941642Y-48242501D01*
X94941632Y-48242496D01*
X94776300Y-48174013D01*
X94776292Y-48174011D01*
X94600783Y-48139100D01*
X94600779Y-48139100D01*
X94421821Y-48139100D01*
X94421816Y-48139100D01*
X94246307Y-48174011D01*
X94246299Y-48174013D01*
X94080967Y-48242496D01*
X94080952Y-48242504D01*
X93961390Y-48322393D01*
X93894713Y-48343271D01*
X93827333Y-48324786D01*
X93780643Y-48272807D01*
X93768500Y-48219291D01*
X93768500Y-47069505D01*
X93768499Y-47069501D01*
X93756323Y-47008290D01*
X93744155Y-46947115D01*
X93696400Y-46831825D01*
X93696399Y-46831824D01*
X93696396Y-46831818D01*
X93627072Y-46728068D01*
X93627071Y-46728067D01*
X93538833Y-46639829D01*
X93049819Y-46150815D01*
X93016334Y-46089492D01*
X93013500Y-46063134D01*
X93013500Y-46012420D01*
X93013499Y-46012416D01*
X93002260Y-45955913D01*
X92978587Y-45836900D01*
X92910102Y-45671564D01*
X92910100Y-45671561D01*
X92910098Y-45671557D01*
X92810678Y-45522765D01*
X92810675Y-45522761D01*
X92684138Y-45396224D01*
X92684134Y-45396221D01*
X92535342Y-45296801D01*
X92535332Y-45296796D01*
X92370000Y-45228313D01*
X92369992Y-45228311D01*
X92194483Y-45193400D01*
X92194479Y-45193400D01*
X92015521Y-45193400D01*
X92015516Y-45193400D01*
X91840007Y-45228311D01*
X91839999Y-45228313D01*
X91674667Y-45296796D01*
X91674657Y-45296801D01*
X91525865Y-45396221D01*
X91525861Y-45396224D01*
X91399324Y-45522761D01*
X91399321Y-45522765D01*
X91299901Y-45671557D01*
X91299896Y-45671567D01*
X91231413Y-45836899D01*
X91231411Y-45836907D01*
X91196500Y-46012416D01*
X91196500Y-46191383D01*
X91231411Y-46366892D01*
X91231413Y-46366900D01*
X91299896Y-46532232D01*
X91299901Y-46532242D01*
X91399321Y-46681034D01*
X91399324Y-46681038D01*
X91525861Y-46807575D01*
X91525865Y-46807578D01*
X91674657Y-46906998D01*
X91674663Y-46907001D01*
X91674664Y-46907002D01*
X91813353Y-46964449D01*
X91867756Y-47008290D01*
X91889821Y-47074584D01*
X91872542Y-47142283D01*
X91821405Y-47189894D01*
X91813353Y-47193571D01*
X91666267Y-47254496D01*
X91666257Y-47254501D01*
X91517465Y-47353921D01*
X91517461Y-47353924D01*
X91390924Y-47480461D01*
X91390921Y-47480465D01*
X91291501Y-47629257D01*
X91291496Y-47629267D01*
X91223013Y-47794599D01*
X91223011Y-47794607D01*
X91188100Y-47970116D01*
X91188100Y-48149083D01*
X91223011Y-48324592D01*
X91223013Y-48324600D01*
X91291496Y-48489932D01*
X91291501Y-48489942D01*
X91390902Y-48638705D01*
X91411780Y-48705382D01*
X91411800Y-48707596D01*
X91411800Y-53165698D01*
X91436143Y-53288077D01*
X91436145Y-53288085D01*
X91483898Y-53403372D01*
X91483903Y-53403381D01*
X91553228Y-53507132D01*
X91553231Y-53507136D01*
X92307929Y-54261833D01*
X92387596Y-54341500D01*
X92396168Y-54350072D01*
X92499918Y-54419396D01*
X92499922Y-54419398D01*
X92499925Y-54419400D01*
X92527609Y-54430867D01*
X92537678Y-54435038D01*
X92592081Y-54478880D01*
X92614145Y-54545174D01*
X92596865Y-54612873D01*
X92577906Y-54637279D01*
X92544325Y-54670860D01*
X92544321Y-54670865D01*
X92444901Y-54819657D01*
X92444896Y-54819667D01*
X92376413Y-54984999D01*
X92376411Y-54985007D01*
X92341500Y-55160516D01*
X92341500Y-55211233D01*
X92321815Y-55278272D01*
X92305181Y-55298914D01*
X89723975Y-57880119D01*
X89662652Y-57913604D01*
X89592960Y-57908620D01*
X89588841Y-57906999D01*
X89515000Y-57876413D01*
X89514992Y-57876411D01*
X89339483Y-57841500D01*
X89339479Y-57841500D01*
X89160521Y-57841500D01*
X89160516Y-57841500D01*
X88985007Y-57876411D01*
X88984999Y-57876413D01*
X88819667Y-57944896D01*
X88819657Y-57944901D01*
X88670865Y-58044321D01*
X88670861Y-58044324D01*
X88544324Y-58170861D01*
X88544321Y-58170865D01*
X88444901Y-58319657D01*
X88444896Y-58319667D01*
X88376413Y-58484999D01*
X88376411Y-58485007D01*
X88341500Y-58660516D01*
X88341500Y-58839483D01*
X88376411Y-59014992D01*
X88376413Y-59015000D01*
X88444896Y-59180332D01*
X88444901Y-59180342D01*
X88544321Y-59329134D01*
X88544324Y-59329138D01*
X88670861Y-59455675D01*
X88670865Y-59455678D01*
X88819657Y-59555098D01*
X88819661Y-59555100D01*
X88819664Y-59555102D01*
X88985000Y-59623587D01*
X89160516Y-59658499D01*
X89160520Y-59658500D01*
X89160521Y-59658500D01*
X89339480Y-59658500D01*
X89339481Y-59658499D01*
X89515000Y-59623587D01*
X89680336Y-59555102D01*
X89829135Y-59455678D01*
X89901764Y-59383047D01*
X89941991Y-59356170D01*
X90050068Y-59311403D01*
X90050068Y-59311402D01*
X90050075Y-59311400D01*
X90153833Y-59242071D01*
X93135319Y-56260585D01*
X93196642Y-56227100D01*
X93266334Y-56232084D01*
X93322267Y-56273956D01*
X93346684Y-56339420D01*
X93347000Y-56348266D01*
X93347000Y-56885398D01*
X93371343Y-57007777D01*
X93371345Y-57007785D01*
X93419098Y-57123072D01*
X93419103Y-57123081D01*
X93488428Y-57226832D01*
X93488431Y-57226836D01*
X95400709Y-59139114D01*
X95434194Y-59200437D01*
X95429210Y-59270129D01*
X95400710Y-59314476D01*
X95294321Y-59420865D01*
X95194901Y-59569657D01*
X95194896Y-59569667D01*
X95126413Y-59734999D01*
X95126411Y-59735007D01*
X95091500Y-59910516D01*
X95091500Y-60089483D01*
X95126411Y-60264992D01*
X95126413Y-60265000D01*
X95194898Y-60430336D01*
X95195418Y-60431115D01*
X95195565Y-60431584D01*
X95197768Y-60435706D01*
X95196986Y-60436123D01*
X95216292Y-60497794D01*
X95197804Y-60565173D01*
X95195418Y-60568885D01*
X95194898Y-60569663D01*
X95126413Y-60734999D01*
X95126411Y-60735007D01*
X95091500Y-60910516D01*
X95091500Y-61089483D01*
X95117125Y-61218309D01*
X95110898Y-61287901D01*
X95068034Y-61343078D01*
X95002145Y-61366322D01*
X94995508Y-61366500D01*
X89761101Y-61366500D01*
X89638722Y-61390843D01*
X89638714Y-61390845D01*
X89523427Y-61438598D01*
X89523418Y-61438603D01*
X89419667Y-61507928D01*
X89419663Y-61507931D01*
X84409115Y-66518481D01*
X84347792Y-66551966D01*
X84321434Y-66554800D01*
X81475701Y-66554800D01*
X81353322Y-66579143D01*
X81353314Y-66579145D01*
X81238027Y-66626898D01*
X81238018Y-66626903D01*
X81134267Y-66696228D01*
X81134263Y-66696231D01*
X79992215Y-67838281D01*
X79930892Y-67871766D01*
X79904534Y-67874600D01*
X79519366Y-67874600D01*
X79452327Y-67854915D01*
X79431685Y-67838281D01*
X76688585Y-65095181D01*
X76655100Y-65033858D01*
X76660084Y-64964166D01*
X76701956Y-64908233D01*
X76767420Y-64883816D01*
X76776266Y-64883500D01*
X77062395Y-64883500D01*
X77062396Y-64883499D01*
X77184785Y-64859155D01*
X77300075Y-64811400D01*
X77403833Y-64742071D01*
X80201085Y-61944819D01*
X80262408Y-61911334D01*
X80288766Y-61908500D01*
X80339480Y-61908500D01*
X80339481Y-61908499D01*
X80515000Y-61873587D01*
X80680336Y-61805102D01*
X80829135Y-61705678D01*
X80955678Y-61579135D01*
X81055102Y-61430336D01*
X81123587Y-61265000D01*
X81158500Y-61089479D01*
X81158500Y-60910521D01*
X81123587Y-60735000D01*
X81055102Y-60569664D01*
X81055100Y-60569661D01*
X81055098Y-60569657D01*
X80955678Y-60420865D01*
X80955675Y-60420861D01*
X80829138Y-60294324D01*
X80829134Y-60294321D01*
X80680342Y-60194901D01*
X80680332Y-60194896D01*
X80515000Y-60126413D01*
X80514992Y-60126411D01*
X80339483Y-60091500D01*
X80339479Y-60091500D01*
X80160521Y-60091500D01*
X80160516Y-60091500D01*
X79985007Y-60126411D01*
X79984999Y-60126413D01*
X79819667Y-60194896D01*
X79819657Y-60194901D01*
X79670865Y-60294321D01*
X79670861Y-60294324D01*
X79544324Y-60420861D01*
X79544321Y-60420865D01*
X79444901Y-60569657D01*
X79444896Y-60569667D01*
X79376413Y-60734999D01*
X79376411Y-60735007D01*
X79341500Y-60910516D01*
X79341500Y-60961234D01*
X79321815Y-61028273D01*
X79305181Y-61048915D01*
X76782135Y-63571960D01*
X76720812Y-63605445D01*
X76651120Y-63600461D01*
X76606773Y-63571960D01*
X76579135Y-63544322D01*
X76579134Y-63544321D01*
X76579133Y-63544320D01*
X76430342Y-63444901D01*
X76430332Y-63444896D01*
X76265000Y-63376413D01*
X76264992Y-63376411D01*
X76089483Y-63341500D01*
X76089479Y-63341500D01*
X75910521Y-63341500D01*
X75910516Y-63341500D01*
X75821834Y-63359140D01*
X75752242Y-63352913D01*
X75697065Y-63310049D01*
X75693093Y-63303684D01*
X75693085Y-63303690D01*
X75620372Y-63194868D01*
X75593002Y-63167498D01*
X75532133Y-63106629D01*
X74901536Y-62476032D01*
X74868051Y-62414709D01*
X74873035Y-62345017D01*
X74874658Y-62340894D01*
X74875632Y-62338545D01*
X74887787Y-62309200D01*
X74922700Y-62133679D01*
X74922700Y-61954721D01*
X74887787Y-61779200D01*
X74819302Y-61613864D01*
X74798708Y-61583043D01*
X74777831Y-61516367D01*
X74796315Y-61448987D01*
X74814125Y-61426477D01*
X75656771Y-60583833D01*
X75726100Y-60480075D01*
X75773855Y-60364785D01*
X75798200Y-60242394D01*
X75798200Y-60117607D01*
X75798200Y-56473275D01*
X75817885Y-56406236D01*
X75834520Y-56385593D01*
X75870375Y-56349738D01*
X75870378Y-56349735D01*
X75969802Y-56200936D01*
X76038287Y-56035600D01*
X76073200Y-55860079D01*
X76073200Y-55681121D01*
X76038287Y-55505600D01*
X75969802Y-55340264D01*
X75969800Y-55340261D01*
X75969798Y-55340257D01*
X75870378Y-55191465D01*
X75870375Y-55191461D01*
X75743838Y-55064924D01*
X75743834Y-55064921D01*
X75595042Y-54965501D01*
X75595032Y-54965496D01*
X75429700Y-54897013D01*
X75429692Y-54897011D01*
X75254183Y-54862100D01*
X75254179Y-54862100D01*
X75075221Y-54862100D01*
X75075214Y-54862100D01*
X75066186Y-54863896D01*
X75045205Y-54862017D01*
X75024353Y-54865016D01*
X75011102Y-54858964D01*
X74996595Y-54857666D01*
X74979960Y-54844742D01*
X74960797Y-54835991D01*
X74952921Y-54823736D01*
X74941419Y-54814800D01*
X74934411Y-54794933D01*
X74923023Y-54777213D01*
X74919487Y-54752626D01*
X74918177Y-54748910D01*
X74918000Y-54742278D01*
X74918000Y-54534575D01*
X74937685Y-54467536D01*
X74954320Y-54446893D01*
X74990175Y-54411038D01*
X74990178Y-54411035D01*
X75089602Y-54262236D01*
X75158087Y-54096900D01*
X75193000Y-53921379D01*
X75193000Y-53825700D01*
X75212685Y-53758661D01*
X75265489Y-53712906D01*
X75317000Y-53701700D01*
X75412680Y-53701700D01*
X75412681Y-53701699D01*
X75588200Y-53666787D01*
X75753536Y-53598302D01*
X75902335Y-53498878D01*
X76028878Y-53372335D01*
X76128302Y-53223536D01*
X76196787Y-53058200D01*
X76231700Y-52882679D01*
X76231700Y-52831966D01*
X76240344Y-52802525D01*
X76246868Y-52772539D01*
X76250622Y-52767523D01*
X76251385Y-52764927D01*
X76268019Y-52744285D01*
X76420919Y-52591385D01*
X76482242Y-52557900D01*
X76551934Y-52562884D01*
X76607867Y-52604756D01*
X76632284Y-52670220D01*
X76632600Y-52679066D01*
X76632600Y-54021324D01*
X76612915Y-54088363D01*
X76596281Y-54109005D01*
X76560424Y-54144861D01*
X76560421Y-54144865D01*
X76461001Y-54293657D01*
X76460996Y-54293667D01*
X76392513Y-54458999D01*
X76392511Y-54459007D01*
X76357600Y-54634516D01*
X76357600Y-54813483D01*
X76392511Y-54988992D01*
X76392513Y-54989000D01*
X76460996Y-55154332D01*
X76461001Y-55154342D01*
X76560421Y-55303134D01*
X76560424Y-55303138D01*
X76686961Y-55429675D01*
X76686965Y-55429678D01*
X76835757Y-55529098D01*
X76835761Y-55529100D01*
X76835764Y-55529102D01*
X77001100Y-55597587D01*
X77164048Y-55629999D01*
X77176616Y-55632499D01*
X77176620Y-55632500D01*
X77176621Y-55632500D01*
X77355580Y-55632500D01*
X77355581Y-55632499D01*
X77531100Y-55597587D01*
X77696436Y-55529102D01*
X77845235Y-55429678D01*
X77971778Y-55303135D01*
X78071202Y-55154336D01*
X78139687Y-54989000D01*
X78174600Y-54813479D01*
X78174600Y-54634521D01*
X78139687Y-54459000D01*
X78071202Y-54293664D01*
X78071200Y-54293661D01*
X78071198Y-54293657D01*
X77971778Y-54144865D01*
X77971775Y-54144861D01*
X77935919Y-54109005D01*
X77902434Y-54047682D01*
X77899600Y-54021324D01*
X77899600Y-52260565D01*
X77919285Y-52193526D01*
X77935915Y-52172888D01*
X78449315Y-51659487D01*
X78510636Y-51626004D01*
X78580327Y-51630988D01*
X78624675Y-51659489D01*
X78670861Y-51705675D01*
X78670865Y-51705678D01*
X78819657Y-51805098D01*
X78819661Y-51805100D01*
X78819664Y-51805102D01*
X78985000Y-51873587D01*
X79160516Y-51908499D01*
X79160520Y-51908500D01*
X79160521Y-51908500D01*
X79211234Y-51908500D01*
X79278273Y-51928185D01*
X79298915Y-51944819D01*
X82073354Y-54719258D01*
X82106839Y-54780581D01*
X82107291Y-54831128D01*
X82091500Y-54910521D01*
X82091500Y-55089483D01*
X82126411Y-55264992D01*
X82126413Y-55265000D01*
X82194896Y-55430332D01*
X82194901Y-55430342D01*
X82294321Y-55579134D01*
X82294324Y-55579138D01*
X82420861Y-55705675D01*
X82420865Y-55705678D01*
X82569657Y-55805098D01*
X82569661Y-55805100D01*
X82569664Y-55805102D01*
X82735000Y-55873587D01*
X82910516Y-55908499D01*
X82910520Y-55908500D01*
X82910521Y-55908500D01*
X83089480Y-55908500D01*
X83089481Y-55908499D01*
X83265000Y-55873587D01*
X83430336Y-55805102D01*
X83579135Y-55705678D01*
X83705678Y-55579135D01*
X83805102Y-55430336D01*
X83873587Y-55265000D01*
X83908500Y-55089479D01*
X83908500Y-54910521D01*
X83873587Y-54735000D01*
X83805102Y-54569664D01*
X83805100Y-54569661D01*
X83805098Y-54569657D01*
X83705678Y-54420865D01*
X83705675Y-54420861D01*
X83579138Y-54294324D01*
X83579134Y-54294321D01*
X83430342Y-54194901D01*
X83430336Y-54194898D01*
X83300275Y-54141024D01*
X83260048Y-54114144D01*
X80219385Y-51073481D01*
X80185900Y-51012158D01*
X80190884Y-50942466D01*
X80232756Y-50886533D01*
X80298220Y-50862116D01*
X80307066Y-50861800D01*
X86424895Y-50861800D01*
X86424896Y-50861799D01*
X86547285Y-50837455D01*
X86662575Y-50789700D01*
X86766333Y-50720371D01*
X88048809Y-49437895D01*
X88110130Y-49404412D01*
X88112187Y-49403983D01*
X88265000Y-49373587D01*
X88430336Y-49305102D01*
X88579135Y-49205678D01*
X88705678Y-49079135D01*
X88805102Y-48930336D01*
X88873587Y-48765000D01*
X88878383Y-48740891D01*
X88910767Y-48678980D01*
X88971483Y-48644406D01*
X89041253Y-48648145D01*
X89097925Y-48689011D01*
X89121617Y-48740891D01*
X89126411Y-48764992D01*
X89126413Y-48765000D01*
X89194896Y-48930332D01*
X89194901Y-48930342D01*
X89294321Y-49079134D01*
X89294324Y-49079138D01*
X89420861Y-49205675D01*
X89420865Y-49205678D01*
X89569657Y-49305098D01*
X89569661Y-49305100D01*
X89569664Y-49305102D01*
X89735000Y-49373587D01*
X89876506Y-49401734D01*
X89910516Y-49408499D01*
X89910520Y-49408500D01*
X89910521Y-49408500D01*
X90089480Y-49408500D01*
X90089481Y-49408499D01*
X90265000Y-49373587D01*
X90430336Y-49305102D01*
X90579135Y-49205678D01*
X90705678Y-49079135D01*
X90805102Y-48930336D01*
X90873587Y-48765000D01*
X90908500Y-48589479D01*
X90908500Y-48410521D01*
X90873587Y-48235000D01*
X90805102Y-48069664D01*
X90805100Y-48069661D01*
X90805098Y-48069657D01*
X90705678Y-47920865D01*
X90705675Y-47920861D01*
X90579138Y-47794324D01*
X90579134Y-47794321D01*
X90430342Y-47694901D01*
X90430332Y-47694896D01*
X90265000Y-47626413D01*
X90264992Y-47626411D01*
X90089483Y-47591500D01*
X90089479Y-47591500D01*
X90064466Y-47591500D01*
X89997427Y-47571815D01*
X89976785Y-47555181D01*
X88759036Y-46337431D01*
X88759032Y-46337428D01*
X88655281Y-46268103D01*
X88655272Y-46268098D01*
X88539985Y-46220345D01*
X88539977Y-46220343D01*
X88417598Y-46196000D01*
X88417594Y-46196000D01*
X75638975Y-46196000D01*
X75571936Y-46176315D01*
X75551293Y-46159680D01*
X75515438Y-46123824D01*
X75515434Y-46123821D01*
X75366642Y-46024401D01*
X75366632Y-46024396D01*
X75201300Y-45955913D01*
X75201292Y-45955911D01*
X75025783Y-45921000D01*
X75025779Y-45921000D01*
X74846821Y-45921000D01*
X74846816Y-45921000D01*
X74671307Y-45955911D01*
X74671299Y-45955913D01*
X74505967Y-46024396D01*
X74505957Y-46024401D01*
X74357165Y-46123821D01*
X74357161Y-46123824D01*
X74230624Y-46250361D01*
X74230621Y-46250365D01*
X74131201Y-46399157D01*
X74131196Y-46399167D01*
X74062713Y-46564499D01*
X74062711Y-46564507D01*
X74027800Y-46740016D01*
X74027800Y-46918983D01*
X74062711Y-47094492D01*
X74062713Y-47094500D01*
X74131196Y-47259832D01*
X74131201Y-47259842D01*
X74230621Y-47408634D01*
X74230624Y-47408638D01*
X74357161Y-47535175D01*
X74357165Y-47535178D01*
X74505957Y-47634598D01*
X74505961Y-47634600D01*
X74505964Y-47634602D01*
X74671300Y-47703087D01*
X74846816Y-47737999D01*
X74846820Y-47738000D01*
X74846821Y-47738000D01*
X75025780Y-47738000D01*
X75025781Y-47737999D01*
X75201300Y-47703087D01*
X75366636Y-47634602D01*
X75515435Y-47535178D01*
X75551293Y-47499320D01*
X75612615Y-47465834D01*
X75638975Y-47463000D01*
X78359133Y-47463000D01*
X78426172Y-47482685D01*
X78471927Y-47535489D01*
X78481871Y-47604647D01*
X78452846Y-47668203D01*
X78446814Y-47674681D01*
X75285115Y-50836381D01*
X75223792Y-50869866D01*
X75197434Y-50872700D01*
X75146716Y-50872700D01*
X74971207Y-50907611D01*
X74971199Y-50907613D01*
X74805867Y-50976096D01*
X74805857Y-50976101D01*
X74657065Y-51075521D01*
X74657061Y-51075524D01*
X74530524Y-51202061D01*
X74530521Y-51202065D01*
X74431101Y-51350857D01*
X74431096Y-51350867D01*
X74362613Y-51516199D01*
X74362611Y-51516207D01*
X74327700Y-51691716D01*
X74327700Y-51870683D01*
X74362611Y-52046192D01*
X74362613Y-52046200D01*
X74431097Y-52211534D01*
X74486676Y-52294715D01*
X74507553Y-52361392D01*
X74498134Y-52411057D01*
X74449614Y-52528195D01*
X74449611Y-52528207D01*
X74414700Y-52703716D01*
X74414700Y-52799400D01*
X74395015Y-52866439D01*
X74342211Y-52912194D01*
X74290700Y-52923400D01*
X74195016Y-52923400D01*
X74019507Y-52958311D01*
X74019499Y-52958313D01*
X73854167Y-53026796D01*
X73854157Y-53026801D01*
X73705365Y-53126221D01*
X73705361Y-53126224D01*
X73578824Y-53252761D01*
X73578821Y-53252765D01*
X73479401Y-53401557D01*
X73479396Y-53401567D01*
X73410913Y-53566899D01*
X73410911Y-53566907D01*
X73376000Y-53742416D01*
X73376000Y-53921383D01*
X73410911Y-54096892D01*
X73410913Y-54096900D01*
X73479396Y-54262232D01*
X73479401Y-54262242D01*
X73578821Y-54411034D01*
X73578824Y-54411038D01*
X73614680Y-54446893D01*
X73648166Y-54508215D01*
X73651000Y-54534575D01*
X73651000Y-55244900D01*
X73631315Y-55311939D01*
X73578511Y-55357694D01*
X73527000Y-55368900D01*
X73498916Y-55368900D01*
X73323407Y-55403811D01*
X73323399Y-55403813D01*
X73158067Y-55472296D01*
X73158057Y-55472301D01*
X73009265Y-55571721D01*
X73009261Y-55571724D01*
X72882724Y-55698261D01*
X72882721Y-55698265D01*
X72783301Y-55847057D01*
X72783296Y-55847067D01*
X72714813Y-56012399D01*
X72714811Y-56012407D01*
X72679900Y-56187916D01*
X72679900Y-56366883D01*
X72714811Y-56542392D01*
X72714813Y-56542400D01*
X72778042Y-56695047D01*
X72785511Y-56764516D01*
X72754236Y-56826996D01*
X72694147Y-56862648D01*
X72663481Y-56866500D01*
X69946633Y-56866500D01*
X69879594Y-56846815D01*
X69833839Y-56794011D01*
X69823895Y-56724853D01*
X69852920Y-56661297D01*
X69911698Y-56623523D01*
X69922442Y-56620883D01*
X69954386Y-56614528D01*
X69992300Y-56606987D01*
X70157636Y-56538502D01*
X70306435Y-56439078D01*
X70432978Y-56312535D01*
X70532402Y-56163736D01*
X70600887Y-55998400D01*
X70635800Y-55822879D01*
X70635800Y-55772166D01*
X70655485Y-55705127D01*
X70672119Y-55684485D01*
X71590479Y-54766125D01*
X72516769Y-53839834D01*
X72538140Y-53823989D01*
X72537671Y-53823287D01*
X72658702Y-53742416D01*
X72691535Y-53720478D01*
X72818078Y-53593935D01*
X72917502Y-53445136D01*
X72985987Y-53279800D01*
X73020900Y-53104279D01*
X73020900Y-52925321D01*
X72985987Y-52749800D01*
X72917502Y-52584464D01*
X72917500Y-52584461D01*
X72917498Y-52584457D01*
X72818078Y-52435665D01*
X72818075Y-52435661D01*
X72691538Y-52309124D01*
X72691534Y-52309121D01*
X72542742Y-52209701D01*
X72542732Y-52209696D01*
X72377400Y-52141213D01*
X72377392Y-52141211D01*
X72201883Y-52106300D01*
X72201879Y-52106300D01*
X72022921Y-52106300D01*
X72022916Y-52106300D01*
X71847407Y-52141211D01*
X71847399Y-52141213D01*
X71682067Y-52209696D01*
X71682057Y-52209701D01*
X71533265Y-52309121D01*
X71533261Y-52309124D01*
X71406724Y-52435661D01*
X71406721Y-52435665D01*
X71307301Y-52584457D01*
X71307296Y-52584467D01*
X71238813Y-52749799D01*
X71238811Y-52749807D01*
X71203900Y-52925316D01*
X71203900Y-53104283D01*
X71233544Y-53253313D01*
X71227317Y-53322905D01*
X71199608Y-53365185D01*
X69776215Y-54788581D01*
X69714892Y-54822066D01*
X69688534Y-54824900D01*
X69637816Y-54824900D01*
X69462307Y-54859811D01*
X69462299Y-54859813D01*
X69296967Y-54928296D01*
X69296957Y-54928301D01*
X69148165Y-55027721D01*
X69148161Y-55027724D01*
X69021624Y-55154261D01*
X69021621Y-55154265D01*
X68922201Y-55303057D01*
X68922196Y-55303067D01*
X68853713Y-55468399D01*
X68853711Y-55468407D01*
X68818800Y-55643916D01*
X68818800Y-55822883D01*
X68853711Y-55998392D01*
X68853713Y-55998400D01*
X68922196Y-56163732D01*
X68922201Y-56163742D01*
X69021621Y-56312534D01*
X69021624Y-56312538D01*
X69148161Y-56439075D01*
X69148165Y-56439078D01*
X69296957Y-56538498D01*
X69296961Y-56538500D01*
X69296964Y-56538502D01*
X69462300Y-56606987D01*
X69493078Y-56613109D01*
X69532158Y-56620883D01*
X69594069Y-56653268D01*
X69628643Y-56713983D01*
X69624904Y-56783753D01*
X69584038Y-56840425D01*
X69519019Y-56866006D01*
X69507967Y-56866500D01*
X63898266Y-56866500D01*
X63831227Y-56846815D01*
X63810585Y-56830181D01*
X58826836Y-51846431D01*
X58826832Y-51846428D01*
X58723081Y-51777103D01*
X58723072Y-51777098D01*
X58607785Y-51729345D01*
X58607777Y-51729343D01*
X58485398Y-51705000D01*
X58485394Y-51705000D01*
X57273570Y-51705000D01*
X57206531Y-51685315D01*
X57204679Y-51684102D01*
X57066242Y-51591601D01*
X57066232Y-51591596D01*
X56900900Y-51523113D01*
X56900892Y-51523111D01*
X56725383Y-51488200D01*
X56725379Y-51488200D01*
X56546421Y-51488200D01*
X56546416Y-51488200D01*
X56370907Y-51523111D01*
X56370899Y-51523113D01*
X56205567Y-51591596D01*
X56205557Y-51591601D01*
X56056765Y-51691021D01*
X56056761Y-51691024D01*
X55930224Y-51817561D01*
X55930221Y-51817565D01*
X55830801Y-51966357D01*
X55830796Y-51966367D01*
X55762313Y-52131699D01*
X55762311Y-52131707D01*
X55727400Y-52307216D01*
X55727400Y-52486183D01*
X55762311Y-52661692D01*
X55762313Y-52661700D01*
X55830796Y-52827032D01*
X55830801Y-52827042D01*
X55930221Y-52975834D01*
X55930224Y-52975838D01*
X56056761Y-53102375D01*
X56056765Y-53102378D01*
X56205557Y-53201798D01*
X56205561Y-53201800D01*
X56205564Y-53201802D01*
X56370900Y-53270287D01*
X56546416Y-53305199D01*
X56546420Y-53305200D01*
X56546421Y-53305200D01*
X56725380Y-53305200D01*
X56725381Y-53305199D01*
X56900900Y-53270287D01*
X56938089Y-53254882D01*
X57007556Y-53247414D01*
X57070035Y-53278688D01*
X57105688Y-53338777D01*
X57107157Y-53345252D01*
X57109711Y-53358094D01*
X57109713Y-53358100D01*
X57178196Y-53523432D01*
X57178201Y-53523442D01*
X57277621Y-53672234D01*
X57277624Y-53672238D01*
X57404161Y-53798775D01*
X57404165Y-53798778D01*
X57552957Y-53898198D01*
X57552961Y-53898200D01*
X57552964Y-53898202D01*
X57718300Y-53966687D01*
X57859781Y-53994829D01*
X57893816Y-54001599D01*
X57893820Y-54001600D01*
X57893821Y-54001600D01*
X57944534Y-54001600D01*
X58011573Y-54021285D01*
X58032215Y-54037919D01*
X63526315Y-59532019D01*
X63559800Y-59593342D01*
X63554816Y-59663034D01*
X63512944Y-59718967D01*
X63447480Y-59743384D01*
X63438634Y-59743700D01*
X58729301Y-59743700D01*
X58606922Y-59768043D01*
X58606914Y-59768045D01*
X58491627Y-59815798D01*
X58491618Y-59815803D01*
X58387867Y-59885128D01*
X58387863Y-59885131D01*
X56997315Y-61275681D01*
X56935992Y-61309166D01*
X56909634Y-61312000D01*
X56858916Y-61312000D01*
X56683407Y-61346911D01*
X56683399Y-61346913D01*
X56518067Y-61415396D01*
X56518057Y-61415401D01*
X56369265Y-61514821D01*
X56369261Y-61514824D01*
X56242724Y-61641361D01*
X56242721Y-61641365D01*
X56143301Y-61790157D01*
X56143296Y-61790167D01*
X56074813Y-61955499D01*
X56074811Y-61955507D01*
X56039900Y-62131016D01*
X56039900Y-62309983D01*
X56074811Y-62485492D01*
X56074813Y-62485500D01*
X56143296Y-62650832D01*
X56143301Y-62650842D01*
X56242721Y-62799634D01*
X56242724Y-62799638D01*
X56369262Y-62926176D01*
X56369265Y-62926178D01*
X56462407Y-62988413D01*
X56507212Y-63042024D01*
X56515919Y-63111349D01*
X56485765Y-63174377D01*
X56481197Y-63179196D01*
X50011681Y-69648713D01*
X49950358Y-69682198D01*
X49880666Y-69677214D01*
X49824733Y-69635342D01*
X49800316Y-69569878D01*
X49800000Y-69561032D01*
X49800000Y-69272172D01*
X49799999Y-69272155D01*
X49793598Y-69212627D01*
X49793596Y-69212620D01*
X49743354Y-69077913D01*
X49743350Y-69077906D01*
X49657190Y-68962812D01*
X49657187Y-68962809D01*
X49542093Y-68876649D01*
X49542086Y-68876645D01*
X49407379Y-68826403D01*
X49407372Y-68826401D01*
X49347844Y-68820000D01*
X48750000Y-68820000D01*
X48750000Y-69804314D01*
X48745606Y-69799920D01*
X48654394Y-69747259D01*
X48552661Y-69720000D01*
X48447339Y-69720000D01*
X48345606Y-69747259D01*
X48254394Y-69799920D01*
X48250000Y-69804314D01*
X48250000Y-68820000D01*
X47652155Y-68820000D01*
X47592627Y-68826401D01*
X47592620Y-68826403D01*
X47457913Y-68876645D01*
X47457906Y-68876649D01*
X47342812Y-68962809D01*
X47342809Y-68962812D01*
X47256649Y-69077906D01*
X47256645Y-69077913D01*
X47206403Y-69212620D01*
X47206401Y-69212627D01*
X47200000Y-69272155D01*
X37250500Y-69272155D01*
X37250500Y-54478362D01*
X40149500Y-54478362D01*
X40149500Y-54741637D01*
X40149501Y-54741653D01*
X40183865Y-55002678D01*
X40252009Y-55256995D01*
X40352761Y-55500234D01*
X40352769Y-55500250D01*
X40484409Y-55728256D01*
X40644687Y-55937136D01*
X40644693Y-55937143D01*
X40830856Y-56123306D01*
X40830863Y-56123312D01*
X41039743Y-56283590D01*
X41267749Y-56415230D01*
X41267765Y-56415238D01*
X41407880Y-56473275D01*
X41511003Y-56515990D01*
X41765320Y-56584134D01*
X42026356Y-56618500D01*
X42026363Y-56618500D01*
X42289637Y-56618500D01*
X42289644Y-56618500D01*
X42550680Y-56584134D01*
X42603946Y-56569861D01*
X42673793Y-56571522D01*
X42723720Y-56601954D01*
X47401585Y-61279819D01*
X47435070Y-61341142D01*
X47430086Y-61410834D01*
X47388214Y-61466767D01*
X47322750Y-61491184D01*
X47313904Y-61491500D01*
X46150666Y-61491500D01*
X45955838Y-61530254D01*
X45955830Y-61530256D01*
X45772298Y-61606277D01*
X45772289Y-61606282D01*
X45607119Y-61716646D01*
X45607115Y-61716649D01*
X45015286Y-62308480D01*
X44857119Y-62466647D01*
X44786882Y-62536884D01*
X44716645Y-62607120D01*
X44606282Y-62772289D01*
X44606277Y-62772298D01*
X44530256Y-62955830D01*
X44530254Y-62955838D01*
X44491500Y-63150666D01*
X44491500Y-64530904D01*
X44471815Y-64597943D01*
X44455181Y-64618585D01*
X43728181Y-65345585D01*
X43666858Y-65379070D01*
X43597166Y-65374086D01*
X43541233Y-65332214D01*
X43516816Y-65266750D01*
X43516500Y-65257904D01*
X43516500Y-63871362D01*
X43516499Y-63871345D01*
X43513157Y-63840270D01*
X43509989Y-63810799D01*
X43458889Y-63673796D01*
X43371261Y-63556739D01*
X43254204Y-63469111D01*
X43117203Y-63418011D01*
X43056654Y-63411500D01*
X43056638Y-63411500D01*
X41259362Y-63411500D01*
X41259345Y-63411500D01*
X41198797Y-63418011D01*
X41198795Y-63418011D01*
X41061795Y-63469111D01*
X40944739Y-63556739D01*
X40857111Y-63673795D01*
X40806011Y-63810795D01*
X40806011Y-63810797D01*
X40799500Y-63871345D01*
X40799500Y-65668654D01*
X40806011Y-65729202D01*
X40806011Y-65729204D01*
X40849107Y-65844745D01*
X40857111Y-65866204D01*
X40944739Y-65983261D01*
X41061796Y-66070889D01*
X41182626Y-66115956D01*
X41238557Y-66157827D01*
X41262974Y-66223291D01*
X41248122Y-66291564D01*
X41226972Y-66319818D01*
X41121793Y-66424997D01*
X40996106Y-66597990D01*
X40899027Y-66788516D01*
X40899026Y-66788519D01*
X40832951Y-66991882D01*
X40805164Y-67167323D01*
X40799500Y-67203084D01*
X40799500Y-67416916D01*
X40811074Y-67489993D01*
X40832951Y-67628117D01*
X40899026Y-67831480D01*
X40899027Y-67831483D01*
X40996106Y-68022009D01*
X41121794Y-68195004D01*
X41272996Y-68346206D01*
X41445991Y-68471894D01*
X41539438Y-68519507D01*
X41636516Y-68568972D01*
X41636519Y-68568973D01*
X41714910Y-68594443D01*
X41839884Y-68635049D01*
X42051084Y-68668500D01*
X42051085Y-68668500D01*
X42264915Y-68668500D01*
X42264916Y-68668500D01*
X42476116Y-68635049D01*
X42679483Y-68568972D01*
X42870009Y-68471894D01*
X43043004Y-68346206D01*
X43043006Y-68346203D01*
X43046945Y-68343342D01*
X43048069Y-68344890D01*
X43104410Y-68319640D01*
X43121189Y-68318500D01*
X43289330Y-68318500D01*
X43289331Y-68318499D01*
X43484169Y-68279744D01*
X43667704Y-68203721D01*
X43832881Y-68093353D01*
X43973353Y-67952881D01*
X46283353Y-65642881D01*
X46393721Y-65477704D01*
X46469744Y-65294169D01*
X46508500Y-65099329D01*
X46508500Y-64900672D01*
X46508500Y-63719096D01*
X46517144Y-63689655D01*
X46523668Y-63659669D01*
X46527422Y-63654653D01*
X46528185Y-63652057D01*
X46544819Y-63631415D01*
X46631415Y-63544819D01*
X46692738Y-63511334D01*
X46719096Y-63508500D01*
X47621639Y-63508500D01*
X47688678Y-63528185D01*
X47694519Y-63532179D01*
X47814197Y-63619129D01*
X47921485Y-63673795D01*
X47997705Y-63712632D01*
X47997707Y-63712632D01*
X47997710Y-63712634D01*
X48066567Y-63735007D01*
X48193591Y-63776280D01*
X48257505Y-63786403D01*
X48397019Y-63808500D01*
X48397020Y-63808500D01*
X48602980Y-63808500D01*
X48602981Y-63808500D01*
X48806408Y-63776280D01*
X49002290Y-63712634D01*
X49185803Y-63619129D01*
X49352430Y-63498068D01*
X49498068Y-63352430D01*
X49619129Y-63185803D01*
X49712634Y-63002290D01*
X49776280Y-62806408D01*
X49808500Y-62602981D01*
X49808500Y-62397019D01*
X49776280Y-62193592D01*
X49755949Y-62131021D01*
X49742005Y-62088105D01*
X49712634Y-61997710D01*
X49712632Y-61997707D01*
X49712632Y-61997705D01*
X49667179Y-61908500D01*
X49619129Y-61814197D01*
X49601663Y-61790157D01*
X49532182Y-61694523D01*
X49508702Y-61628717D01*
X49508500Y-61621638D01*
X49508500Y-60852670D01*
X49508499Y-60852666D01*
X49485094Y-60735000D01*
X49469744Y-60657831D01*
X49393721Y-60474296D01*
X49393720Y-60474295D01*
X49393717Y-60474289D01*
X49283354Y-60309120D01*
X49216628Y-60242394D01*
X49142881Y-60168647D01*
X44149954Y-55175720D01*
X44116469Y-55114397D01*
X44117860Y-55055947D01*
X44132134Y-55002680D01*
X44166500Y-54741644D01*
X44166500Y-54478356D01*
X44132134Y-54217320D01*
X44063990Y-53963003D01*
X44006483Y-53824168D01*
X43963238Y-53719765D01*
X43963230Y-53719749D01*
X43831590Y-53491743D01*
X43671312Y-53282863D01*
X43671306Y-53282856D01*
X43485143Y-53096693D01*
X43485136Y-53096687D01*
X43276256Y-52936409D01*
X43048250Y-52804769D01*
X43048234Y-52804761D01*
X42804995Y-52704009D01*
X42550678Y-52635865D01*
X42289653Y-52601501D01*
X42289650Y-52601500D01*
X42289644Y-52601500D01*
X42026356Y-52601500D01*
X42026350Y-52601500D01*
X42026346Y-52601501D01*
X41765321Y-52635865D01*
X41511004Y-52704009D01*
X41267765Y-52804761D01*
X41267749Y-52804769D01*
X41039743Y-52936409D01*
X40830863Y-53096687D01*
X40830856Y-53096693D01*
X40644693Y-53282856D01*
X40644687Y-53282863D01*
X40484409Y-53491743D01*
X40352769Y-53719749D01*
X40352761Y-53719765D01*
X40252009Y-53963004D01*
X40183865Y-54217321D01*
X40149501Y-54478346D01*
X40149500Y-54478362D01*
X37250500Y-54478362D01*
X37250500Y-47981345D01*
X40149500Y-47981345D01*
X40149500Y-51078654D01*
X40156011Y-51139202D01*
X40156011Y-51139204D01*
X40179458Y-51202065D01*
X40207111Y-51276204D01*
X40294739Y-51393261D01*
X40411796Y-51480889D01*
X40548799Y-51531989D01*
X40576050Y-51534918D01*
X40609345Y-51538499D01*
X40609362Y-51538500D01*
X43706638Y-51538500D01*
X43706654Y-51538499D01*
X43733692Y-51535591D01*
X43767201Y-51531989D01*
X43904204Y-51480889D01*
X44021261Y-51393261D01*
X44108889Y-51276204D01*
X44159989Y-51139201D01*
X44163591Y-51105692D01*
X44166499Y-51078654D01*
X44166500Y-51078637D01*
X44166500Y-47981362D01*
X44166499Y-47981345D01*
X44163157Y-47950270D01*
X44159989Y-47920799D01*
X44108889Y-47783796D01*
X44021261Y-47666739D01*
X43904204Y-47579111D01*
X43884643Y-47571815D01*
X43767203Y-47528011D01*
X43706654Y-47521500D01*
X43706638Y-47521500D01*
X40609362Y-47521500D01*
X40609345Y-47521500D01*
X40548797Y-47528011D01*
X40548795Y-47528011D01*
X40411795Y-47579111D01*
X40294739Y-47666739D01*
X40207111Y-47783795D01*
X40156011Y-47920795D01*
X40156011Y-47920797D01*
X40149500Y-47981345D01*
X37250500Y-47981345D01*
X37250500Y-45826475D01*
X37250882Y-45816746D01*
X37265358Y-45632814D01*
X37265358Y-45632813D01*
X37266860Y-45621011D01*
X37273994Y-45580550D01*
X37275528Y-45573175D01*
X37313338Y-45415684D01*
X37317375Y-45402269D01*
X37327887Y-45373386D01*
X37329806Y-45368453D01*
X37396160Y-45208260D01*
X37403300Y-45193775D01*
X37403764Y-45192971D01*
X37405347Y-45190310D01*
X37507263Y-45023999D01*
X37518684Y-45008279D01*
X37645764Y-44859487D01*
X37659487Y-44845764D01*
X37808279Y-44718684D01*
X37823999Y-44707263D01*
X37990310Y-44605347D01*
X37992971Y-44603764D01*
X37993775Y-44603300D01*
X38008260Y-44596160D01*
X38168453Y-44529806D01*
X38173386Y-44527887D01*
X38202269Y-44517375D01*
X38215684Y-44513338D01*
X38373175Y-44475528D01*
X38380550Y-44473994D01*
X38421018Y-44466859D01*
X38432809Y-44465358D01*
X38616746Y-44450881D01*
X38626475Y-44450500D01*
X111245125Y-44450500D01*
X111254853Y-44450881D01*
G37*
%TD.AperFunction*%
%TD*%
M02*
