%TF.GenerationSoftware,KiCad,Pcbnew,8.0.2*%
%TF.CreationDate,2024-08-18T09:09:39+02:00*%
%TF.ProjectId,p2000t-ram-expansion-board-128kb-smd,70323030-3074-42d7-9261-6d2d65787061,4*%
%TF.SameCoordinates,Original*%
%TF.FileFunction,Soldermask,Top*%
%TF.FilePolarity,Negative*%
%FSLAX46Y46*%
G04 Gerber Fmt 4.6, Leading zero omitted, Abs format (unit mm)*
G04 Created by KiCad (PCBNEW 8.0.2) date 2024-08-18 09:09:39*
%MOMM*%
%LPD*%
G01*
G04 APERTURE LIST*
G04 Aperture macros list*
%AMRoundRect*
0 Rectangle with rounded corners*
0 $1 Rounding radius*
0 $2 $3 $4 $5 $6 $7 $8 $9 X,Y pos of 4 corners*
0 Add a 4 corners polygon primitive as box body*
4,1,4,$2,$3,$4,$5,$6,$7,$8,$9,$2,$3,0*
0 Add four circle primitives for the rounded corners*
1,1,$1+$1,$2,$3*
1,1,$1+$1,$4,$5*
1,1,$1+$1,$6,$7*
1,1,$1+$1,$8,$9*
0 Add four rect primitives between the rounded corners*
20,1,$1+$1,$2,$3,$4,$5,0*
20,1,$1+$1,$4,$5,$6,$7,0*
20,1,$1+$1,$6,$7,$8,$9,0*
20,1,$1+$1,$8,$9,$2,$3,0*%
G04 Aperture macros list end*
%ADD10C,0.010000*%
%ADD11RoundRect,0.250000X0.337500X0.475000X-0.337500X0.475000X-0.337500X-0.475000X0.337500X-0.475000X0*%
%ADD12R,1.600000X1.600000*%
%ADD13O,1.600000X1.600000*%
%ADD14R,1.700000X1.700000*%
%ADD15O,1.700000X1.700000*%
%ADD16RoundRect,0.150000X-0.875000X-0.150000X0.875000X-0.150000X0.875000X0.150000X-0.875000X0.150000X0*%
%ADD17RoundRect,0.150000X-0.825000X-0.150000X0.825000X-0.150000X0.825000X0.150000X-0.825000X0.150000X0*%
%ADD18C,1.600000*%
%ADD19R,3.000000X3.000000*%
%ADD20C,3.000000*%
G04 APERTURE END LIST*
D10*
%TO.C,LOGO1*%
X124207690Y-84585018D02*
X124242585Y-84600269D01*
X124325877Y-84666235D01*
X124397103Y-84761618D01*
X124441153Y-84863406D01*
X124448322Y-84913587D01*
X124424285Y-84983647D01*
X124371561Y-85020717D01*
X124315031Y-85043164D01*
X124289146Y-85047300D01*
X124276542Y-85017283D01*
X124251654Y-84951961D01*
X124240735Y-84922445D01*
X124179508Y-84820348D01*
X124090861Y-84769423D01*
X123977193Y-84770989D01*
X123968774Y-84772994D01*
X123908088Y-84801767D01*
X123863474Y-84857859D01*
X123833002Y-84948163D01*
X123814744Y-85079571D01*
X123806771Y-85258974D01*
X123806023Y-85354433D01*
X123805652Y-85504913D01*
X123803223Y-85607495D01*
X123796760Y-85672672D01*
X123784288Y-85710938D01*
X123763833Y-85732785D01*
X123733419Y-85748707D01*
X123731661Y-85749509D01*
X123673091Y-85774272D01*
X123644075Y-85783391D01*
X123639616Y-85755822D01*
X123635799Y-85679620D01*
X123632899Y-85564541D01*
X123631191Y-85420341D01*
X123630851Y-85314814D01*
X123632588Y-85110613D01*
X123639382Y-84955697D01*
X123653607Y-84841024D01*
X123677638Y-84757551D01*
X123713848Y-84696236D01*
X123764612Y-84648034D01*
X123814739Y-84614393D01*
X123935275Y-84569619D01*
X124075557Y-84559521D01*
X124207690Y-84585018D01*
G36*
X124207690Y-84585018D02*
G01*
X124242585Y-84600269D01*
X124325877Y-84666235D01*
X124397103Y-84761618D01*
X124441153Y-84863406D01*
X124448322Y-84913587D01*
X124424285Y-84983647D01*
X124371561Y-85020717D01*
X124315031Y-85043164D01*
X124289146Y-85047300D01*
X124276542Y-85017283D01*
X124251654Y-84951961D01*
X124240735Y-84922445D01*
X124179508Y-84820348D01*
X124090861Y-84769423D01*
X123977193Y-84770989D01*
X123968774Y-84772994D01*
X123908088Y-84801767D01*
X123863474Y-84857859D01*
X123833002Y-84948163D01*
X123814744Y-85079571D01*
X123806771Y-85258974D01*
X123806023Y-85354433D01*
X123805652Y-85504913D01*
X123803223Y-85607495D01*
X123796760Y-85672672D01*
X123784288Y-85710938D01*
X123763833Y-85732785D01*
X123733419Y-85748707D01*
X123731661Y-85749509D01*
X123673091Y-85774272D01*
X123644075Y-85783391D01*
X123639616Y-85755822D01*
X123635799Y-85679620D01*
X123632899Y-85564541D01*
X123631191Y-85420341D01*
X123630851Y-85314814D01*
X123632588Y-85110613D01*
X123639382Y-84955697D01*
X123653607Y-84841024D01*
X123677638Y-84757551D01*
X123713848Y-84696236D01*
X123764612Y-84648034D01*
X123814739Y-84614393D01*
X123935275Y-84569619D01*
X124075557Y-84559521D01*
X124207690Y-84585018D01*
G37*
X116289429Y-84522719D02*
X116383123Y-84576914D01*
X116448264Y-84630707D01*
X116495907Y-84687066D01*
X116528728Y-84755987D01*
X116549406Y-84847468D01*
X116560620Y-84971506D01*
X116565049Y-85138098D01*
X116565563Y-85257851D01*
X116565563Y-85698659D01*
X116441483Y-85754283D01*
X116317402Y-85809907D01*
X116302805Y-85327095D01*
X116296773Y-85146779D01*
X116290445Y-85015901D01*
X116282606Y-84925511D01*
X116272037Y-84866664D01*
X116257523Y-84830413D01*
X116237848Y-84807810D01*
X116231535Y-84802917D01*
X116135888Y-84764706D01*
X116039207Y-84779827D01*
X115981655Y-84819943D01*
X115958245Y-84848370D01*
X115942039Y-84885672D01*
X115931741Y-84942223D01*
X115926049Y-85028394D01*
X115923664Y-85154558D01*
X115923264Y-85286042D01*
X115923186Y-85450999D01*
X115920361Y-85567761D01*
X115910907Y-85646510D01*
X115890940Y-85697431D01*
X115856576Y-85730706D01*
X115803932Y-85756520D01*
X115733617Y-85783344D01*
X115656820Y-85812542D01*
X115665962Y-85294346D01*
X115669643Y-85107539D01*
X115673950Y-84969490D01*
X115680123Y-84870568D01*
X115689402Y-84801145D01*
X115703027Y-84751590D01*
X115722239Y-84712273D01*
X115745402Y-84677584D01*
X115857152Y-84566770D01*
X115993513Y-84502689D01*
X116141825Y-84487339D01*
X116289429Y-84522719D01*
G36*
X116289429Y-84522719D02*
G01*
X116383123Y-84576914D01*
X116448264Y-84630707D01*
X116495907Y-84687066D01*
X116528728Y-84755987D01*
X116549406Y-84847468D01*
X116560620Y-84971506D01*
X116565049Y-85138098D01*
X116565563Y-85257851D01*
X116565563Y-85698659D01*
X116441483Y-85754283D01*
X116317402Y-85809907D01*
X116302805Y-85327095D01*
X116296773Y-85146779D01*
X116290445Y-85015901D01*
X116282606Y-84925511D01*
X116272037Y-84866664D01*
X116257523Y-84830413D01*
X116237848Y-84807810D01*
X116231535Y-84802917D01*
X116135888Y-84764706D01*
X116039207Y-84779827D01*
X115981655Y-84819943D01*
X115958245Y-84848370D01*
X115942039Y-84885672D01*
X115931741Y-84942223D01*
X115926049Y-85028394D01*
X115923664Y-85154558D01*
X115923264Y-85286042D01*
X115923186Y-85450999D01*
X115920361Y-85567761D01*
X115910907Y-85646510D01*
X115890940Y-85697431D01*
X115856576Y-85730706D01*
X115803932Y-85756520D01*
X115733617Y-85783344D01*
X115656820Y-85812542D01*
X115665962Y-85294346D01*
X115669643Y-85107539D01*
X115673950Y-84969490D01*
X115680123Y-84870568D01*
X115689402Y-84801145D01*
X115703027Y-84751590D01*
X115722239Y-84712273D01*
X115745402Y-84677584D01*
X115857152Y-84566770D01*
X115993513Y-84502689D01*
X116141825Y-84487339D01*
X116289429Y-84522719D01*
G37*
X119937943Y-84566920D02*
X120070565Y-84615859D01*
X120178010Y-84702419D01*
X120220032Y-84763352D01*
X120265843Y-84875161D01*
X120264891Y-84956006D01*
X120216808Y-85010378D01*
X120199017Y-85019624D01*
X120122204Y-85048450D01*
X120082976Y-85041065D01*
X120069689Y-84992658D01*
X120069012Y-84965920D01*
X120044686Y-84867548D01*
X119981281Y-84798734D01*
X119893154Y-84765498D01*
X119794663Y-84773861D01*
X119714602Y-84817296D01*
X119687561Y-84842072D01*
X119668394Y-84872129D01*
X119655446Y-84917565D01*
X119647064Y-84988476D01*
X119641593Y-85094960D01*
X119637378Y-85247112D01*
X119636287Y-85295287D01*
X119632307Y-85460095D01*
X119627781Y-85576088D01*
X119620995Y-85652833D01*
X119610231Y-85699893D01*
X119593773Y-85726835D01*
X119569906Y-85743223D01*
X119554626Y-85750463D01*
X119489733Y-85775220D01*
X119451534Y-85783391D01*
X119438912Y-85756103D01*
X119431208Y-85673603D01*
X119428380Y-85534941D01*
X119430386Y-85339162D01*
X119431011Y-85308965D01*
X119435421Y-85130349D01*
X119440635Y-84999923D01*
X119448055Y-84907492D01*
X119459082Y-84842858D01*
X119475117Y-84795825D01*
X119497561Y-84756196D01*
X119509302Y-84739215D01*
X119576619Y-84664080D01*
X119651910Y-84605638D01*
X119661128Y-84600536D01*
X119796133Y-84560260D01*
X119937943Y-84566920D01*
G36*
X119937943Y-84566920D02*
G01*
X120070565Y-84615859D01*
X120178010Y-84702419D01*
X120220032Y-84763352D01*
X120265843Y-84875161D01*
X120264891Y-84956006D01*
X120216808Y-85010378D01*
X120199017Y-85019624D01*
X120122204Y-85048450D01*
X120082976Y-85041065D01*
X120069689Y-84992658D01*
X120069012Y-84965920D01*
X120044686Y-84867548D01*
X119981281Y-84798734D01*
X119893154Y-84765498D01*
X119794663Y-84773861D01*
X119714602Y-84817296D01*
X119687561Y-84842072D01*
X119668394Y-84872129D01*
X119655446Y-84917565D01*
X119647064Y-84988476D01*
X119641593Y-85094960D01*
X119637378Y-85247112D01*
X119636287Y-85295287D01*
X119632307Y-85460095D01*
X119627781Y-85576088D01*
X119620995Y-85652833D01*
X119610231Y-85699893D01*
X119593773Y-85726835D01*
X119569906Y-85743223D01*
X119554626Y-85750463D01*
X119489733Y-85775220D01*
X119451534Y-85783391D01*
X119438912Y-85756103D01*
X119431208Y-85673603D01*
X119428380Y-85534941D01*
X119430386Y-85339162D01*
X119431011Y-85308965D01*
X119435421Y-85130349D01*
X119440635Y-84999923D01*
X119448055Y-84907492D01*
X119459082Y-84842858D01*
X119475117Y-84795825D01*
X119497561Y-84756196D01*
X119509302Y-84739215D01*
X119576619Y-84664080D01*
X119651910Y-84605638D01*
X119661128Y-84600536D01*
X119796133Y-84560260D01*
X119937943Y-84566920D01*
G37*
X122452124Y-84584840D02*
X122456579Y-84661653D01*
X122460071Y-84778391D01*
X122462315Y-84925821D01*
X122463035Y-85080455D01*
X122463035Y-85603727D01*
X122370645Y-85696117D01*
X122306978Y-85753047D01*
X122251089Y-85776107D01*
X122174702Y-85774647D01*
X122144380Y-85770934D01*
X122049610Y-85760126D01*
X121971222Y-85753933D01*
X121952115Y-85753361D01*
X121887699Y-85757102D01*
X121795571Y-85766494D01*
X121759850Y-85770934D01*
X121672114Y-85777801D01*
X121613153Y-85762885D01*
X121554690Y-85716835D01*
X121533585Y-85696117D01*
X121441195Y-85603727D01*
X121441195Y-84624947D01*
X121515558Y-84591066D01*
X121579590Y-84565970D01*
X121617052Y-84557184D01*
X121626657Y-84584950D01*
X121635635Y-84662530D01*
X121643386Y-84781348D01*
X121649314Y-84932828D01*
X121652173Y-85060805D01*
X121660161Y-85564425D01*
X121729848Y-85574278D01*
X121793229Y-85567389D01*
X121824286Y-85545083D01*
X121832967Y-85503379D01*
X121840378Y-85414544D01*
X121845931Y-85289834D01*
X121849036Y-85140507D01*
X121849484Y-85063661D01*
X121849931Y-84621287D01*
X121941874Y-84589235D01*
X122006949Y-84567443D01*
X122042347Y-84557281D01*
X122043368Y-84557184D01*
X122046920Y-84584809D01*
X122050823Y-84661411D01*
X122054751Y-84777579D01*
X122058376Y-84923904D01*
X122060908Y-85060805D01*
X122068897Y-85564425D01*
X122244069Y-85564425D01*
X122252107Y-85104965D01*
X122260146Y-84645505D01*
X122345543Y-84601344D01*
X122408593Y-84571019D01*
X122445910Y-84557258D01*
X122446987Y-84557184D01*
X122452124Y-84584840D01*
G36*
X122452124Y-84584840D02*
G01*
X122456579Y-84661653D01*
X122460071Y-84778391D01*
X122462315Y-84925821D01*
X122463035Y-85080455D01*
X122463035Y-85603727D01*
X122370645Y-85696117D01*
X122306978Y-85753047D01*
X122251089Y-85776107D01*
X122174702Y-85774647D01*
X122144380Y-85770934D01*
X122049610Y-85760126D01*
X121971222Y-85753933D01*
X121952115Y-85753361D01*
X121887699Y-85757102D01*
X121795571Y-85766494D01*
X121759850Y-85770934D01*
X121672114Y-85777801D01*
X121613153Y-85762885D01*
X121554690Y-85716835D01*
X121533585Y-85696117D01*
X121441195Y-85603727D01*
X121441195Y-84624947D01*
X121515558Y-84591066D01*
X121579590Y-84565970D01*
X121617052Y-84557184D01*
X121626657Y-84584950D01*
X121635635Y-84662530D01*
X121643386Y-84781348D01*
X121649314Y-84932828D01*
X121652173Y-85060805D01*
X121660161Y-85564425D01*
X121729848Y-85574278D01*
X121793229Y-85567389D01*
X121824286Y-85545083D01*
X121832967Y-85503379D01*
X121840378Y-85414544D01*
X121845931Y-85289834D01*
X121849036Y-85140507D01*
X121849484Y-85063661D01*
X121849931Y-84621287D01*
X121941874Y-84589235D01*
X122006949Y-84567443D01*
X122042347Y-84557281D01*
X122043368Y-84557184D01*
X122046920Y-84584809D01*
X122050823Y-84661411D01*
X122054751Y-84777579D01*
X122058376Y-84923904D01*
X122060908Y-85060805D01*
X122068897Y-85564425D01*
X122244069Y-85564425D01*
X122252107Y-85104965D01*
X122260146Y-84645505D01*
X122345543Y-84601344D01*
X122408593Y-84571019D01*
X122445910Y-84557258D01*
X122446987Y-84557184D01*
X122452124Y-84584840D01*
G37*
X117616598Y-84368857D02*
X117625154Y-84488188D01*
X117634981Y-84558506D01*
X117648599Y-84589179D01*
X117668527Y-84589571D01*
X117674989Y-84585910D01*
X117760940Y-84559398D01*
X117872745Y-84560946D01*
X117986414Y-84588199D01*
X118057510Y-84623455D01*
X118130405Y-84679778D01*
X118183693Y-84743519D01*
X118220275Y-84824510D01*
X118243050Y-84932586D01*
X118254919Y-85077580D01*
X118258782Y-85269326D01*
X118258851Y-85306109D01*
X118258897Y-85719288D01*
X118166954Y-85751339D01*
X118101652Y-85773144D01*
X118065824Y-85783297D01*
X118064770Y-85783391D01*
X118061242Y-85755860D01*
X118058239Y-85679923D01*
X118055990Y-85565565D01*
X118054724Y-85422769D01*
X118054529Y-85335951D01*
X118054123Y-85164773D01*
X118052032Y-85042088D01*
X118046947Y-84958000D01*
X118037560Y-84902614D01*
X118022561Y-84866032D01*
X118000642Y-84838359D01*
X117986957Y-84825032D01*
X117892949Y-84771328D01*
X117790364Y-84767307D01*
X117697290Y-84812725D01*
X117680078Y-84829123D01*
X117654832Y-84859957D01*
X117637320Y-84896531D01*
X117626142Y-84949415D01*
X117619896Y-85029177D01*
X117617182Y-85146385D01*
X117616598Y-85307991D01*
X117616598Y-85719288D01*
X117524655Y-85751339D01*
X117459353Y-85773144D01*
X117423525Y-85783297D01*
X117422471Y-85783391D01*
X117419775Y-85755448D01*
X117417345Y-85676630D01*
X117415278Y-85554453D01*
X117413671Y-85396432D01*
X117412623Y-85210083D01*
X117412231Y-85002920D01*
X117412230Y-84993706D01*
X117412230Y-84204020D01*
X117507115Y-84163997D01*
X117602000Y-84123973D01*
X117616598Y-84368857D01*
G36*
X117616598Y-84368857D02*
G01*
X117625154Y-84488188D01*
X117634981Y-84558506D01*
X117648599Y-84589179D01*
X117668527Y-84589571D01*
X117674989Y-84585910D01*
X117760940Y-84559398D01*
X117872745Y-84560946D01*
X117986414Y-84588199D01*
X118057510Y-84623455D01*
X118130405Y-84679778D01*
X118183693Y-84743519D01*
X118220275Y-84824510D01*
X118243050Y-84932586D01*
X118254919Y-85077580D01*
X118258782Y-85269326D01*
X118258851Y-85306109D01*
X118258897Y-85719288D01*
X118166954Y-85751339D01*
X118101652Y-85773144D01*
X118065824Y-85783297D01*
X118064770Y-85783391D01*
X118061242Y-85755860D01*
X118058239Y-85679923D01*
X118055990Y-85565565D01*
X118054724Y-85422769D01*
X118054529Y-85335951D01*
X118054123Y-85164773D01*
X118052032Y-85042088D01*
X118046947Y-84958000D01*
X118037560Y-84902614D01*
X118022561Y-84866032D01*
X118000642Y-84838359D01*
X117986957Y-84825032D01*
X117892949Y-84771328D01*
X117790364Y-84767307D01*
X117697290Y-84812725D01*
X117680078Y-84829123D01*
X117654832Y-84859957D01*
X117637320Y-84896531D01*
X117626142Y-84949415D01*
X117619896Y-85029177D01*
X117617182Y-85146385D01*
X117616598Y-85307991D01*
X117616598Y-85719288D01*
X117524655Y-85751339D01*
X117459353Y-85773144D01*
X117423525Y-85783297D01*
X117422471Y-85783391D01*
X117419775Y-85755448D01*
X117417345Y-85676630D01*
X117415278Y-85554453D01*
X117413671Y-85396432D01*
X117412623Y-85210083D01*
X117412231Y-85002920D01*
X117412230Y-84993706D01*
X117412230Y-84204020D01*
X117507115Y-84163997D01*
X117602000Y-84123973D01*
X117616598Y-84368857D01*
G37*
X112920221Y-84511015D02*
X113057061Y-84582968D01*
X113158051Y-84698766D01*
X113193925Y-84773213D01*
X113221839Y-84884992D01*
X113236129Y-85026227D01*
X113237484Y-85180371D01*
X113226595Y-85330879D01*
X113204153Y-85461205D01*
X113170850Y-85554803D01*
X113160615Y-85570922D01*
X113039382Y-85691249D01*
X112895387Y-85763317D01*
X112739139Y-85784408D01*
X112581148Y-85751802D01*
X112537180Y-85732253D01*
X112451556Y-85672012D01*
X112376408Y-85592135D01*
X112369306Y-85582004D01*
X112340439Y-85533181D01*
X112321357Y-85480990D01*
X112310084Y-85412285D01*
X112304645Y-85313918D01*
X112303062Y-85172744D01*
X112303035Y-85141092D01*
X112303107Y-85131019D01*
X112594989Y-85131019D01*
X112596687Y-85264256D01*
X112603372Y-85352674D01*
X112617425Y-85409785D01*
X112641229Y-85449102D01*
X112653379Y-85462241D01*
X112723236Y-85512172D01*
X112791059Y-85509895D01*
X112859635Y-85466584D01*
X112900535Y-85420346D01*
X112924758Y-85352857D01*
X112938361Y-85246433D01*
X112939294Y-85234020D01*
X112941616Y-85041147D01*
X112917350Y-84897900D01*
X112866824Y-84805160D01*
X112790368Y-84763807D01*
X112763076Y-84761552D01*
X112691411Y-84772893D01*
X112642390Y-84812184D01*
X112612418Y-84887326D01*
X112597899Y-85006222D01*
X112594989Y-85131019D01*
X112303107Y-85131019D01*
X112304122Y-84990659D01*
X112308688Y-84885549D01*
X112318688Y-84812714D01*
X112336079Y-84759108D01*
X112362816Y-84711681D01*
X112368724Y-84702864D01*
X112468032Y-84584007D01*
X112576242Y-84515008D01*
X112707981Y-84487619D01*
X112752717Y-84486281D01*
X112920221Y-84511015D01*
G36*
X112920221Y-84511015D02*
G01*
X113057061Y-84582968D01*
X113158051Y-84698766D01*
X113193925Y-84773213D01*
X113221839Y-84884992D01*
X113236129Y-85026227D01*
X113237484Y-85180371D01*
X113226595Y-85330879D01*
X113204153Y-85461205D01*
X113170850Y-85554803D01*
X113160615Y-85570922D01*
X113039382Y-85691249D01*
X112895387Y-85763317D01*
X112739139Y-85784408D01*
X112581148Y-85751802D01*
X112537180Y-85732253D01*
X112451556Y-85672012D01*
X112376408Y-85592135D01*
X112369306Y-85582004D01*
X112340439Y-85533181D01*
X112321357Y-85480990D01*
X112310084Y-85412285D01*
X112304645Y-85313918D01*
X112303062Y-85172744D01*
X112303035Y-85141092D01*
X112303107Y-85131019D01*
X112594989Y-85131019D01*
X112596687Y-85264256D01*
X112603372Y-85352674D01*
X112617425Y-85409785D01*
X112641229Y-85449102D01*
X112653379Y-85462241D01*
X112723236Y-85512172D01*
X112791059Y-85509895D01*
X112859635Y-85466584D01*
X112900535Y-85420346D01*
X112924758Y-85352857D01*
X112938361Y-85246433D01*
X112939294Y-85234020D01*
X112941616Y-85041147D01*
X112917350Y-84897900D01*
X112866824Y-84805160D01*
X112790368Y-84763807D01*
X112763076Y-84761552D01*
X112691411Y-84772893D01*
X112642390Y-84812184D01*
X112612418Y-84887326D01*
X112597899Y-85006222D01*
X112594989Y-85131019D01*
X112303107Y-85131019D01*
X112304122Y-84990659D01*
X112308688Y-84885549D01*
X112318688Y-84812714D01*
X112336079Y-84759108D01*
X112362816Y-84711681D01*
X112368724Y-84702864D01*
X112468032Y-84584007D01*
X112576242Y-84515008D01*
X112707981Y-84487619D01*
X112752717Y-84486281D01*
X112920221Y-84511015D01*
G37*
X125215439Y-84601540D02*
X125330950Y-84677034D01*
X125386664Y-84744617D01*
X125430804Y-84867255D01*
X125434309Y-84964298D01*
X125426368Y-85094056D01*
X125127115Y-85225039D01*
X124981611Y-85291958D01*
X124886537Y-85345790D01*
X124837101Y-85392416D01*
X124828511Y-85437720D01*
X124855972Y-85487582D01*
X124886253Y-85520632D01*
X124974363Y-85573633D01*
X125070196Y-85577347D01*
X125158212Y-85536041D01*
X125222869Y-85453983D01*
X125234433Y-85425008D01*
X125289825Y-85334509D01*
X125353553Y-85295940D01*
X125440966Y-85262946D01*
X125440966Y-85388034D01*
X125433238Y-85473156D01*
X125402966Y-85544938D01*
X125339518Y-85627356D01*
X125330088Y-85638066D01*
X125259513Y-85711391D01*
X125198847Y-85750742D01*
X125122950Y-85768845D01*
X125060030Y-85774774D01*
X124947487Y-85776251D01*
X124867370Y-85757535D01*
X124817390Y-85729747D01*
X124738838Y-85668641D01*
X124684463Y-85602554D01*
X124650052Y-85519441D01*
X124631388Y-85407254D01*
X124624256Y-85253946D01*
X124623687Y-85176136D01*
X124625622Y-85082853D01*
X124801899Y-85082853D01*
X124803944Y-85132896D01*
X124809039Y-85141092D01*
X124842666Y-85129958D01*
X124915030Y-85100493D01*
X125011747Y-85058601D01*
X125031973Y-85049597D01*
X125154203Y-84987442D01*
X125221547Y-84932815D01*
X125236348Y-84881649D01*
X125200947Y-84829876D01*
X125171711Y-84807000D01*
X125066216Y-84761250D01*
X124967476Y-84768808D01*
X124884812Y-84824651D01*
X124827548Y-84923753D01*
X124809188Y-85002414D01*
X124801899Y-85082853D01*
X124625622Y-85082853D01*
X124627459Y-84994351D01*
X124641359Y-84859853D01*
X124668894Y-84761916D01*
X124713572Y-84689811D01*
X124778901Y-84632813D01*
X124807383Y-84614393D01*
X124936763Y-84566422D01*
X125078412Y-84563403D01*
X125215439Y-84601540D01*
G36*
X125215439Y-84601540D02*
G01*
X125330950Y-84677034D01*
X125386664Y-84744617D01*
X125430804Y-84867255D01*
X125434309Y-84964298D01*
X125426368Y-85094056D01*
X125127115Y-85225039D01*
X124981611Y-85291958D01*
X124886537Y-85345790D01*
X124837101Y-85392416D01*
X124828511Y-85437720D01*
X124855972Y-85487582D01*
X124886253Y-85520632D01*
X124974363Y-85573633D01*
X125070196Y-85577347D01*
X125158212Y-85536041D01*
X125222869Y-85453983D01*
X125234433Y-85425008D01*
X125289825Y-85334509D01*
X125353553Y-85295940D01*
X125440966Y-85262946D01*
X125440966Y-85388034D01*
X125433238Y-85473156D01*
X125402966Y-85544938D01*
X125339518Y-85627356D01*
X125330088Y-85638066D01*
X125259513Y-85711391D01*
X125198847Y-85750742D01*
X125122950Y-85768845D01*
X125060030Y-85774774D01*
X124947487Y-85776251D01*
X124867370Y-85757535D01*
X124817390Y-85729747D01*
X124738838Y-85668641D01*
X124684463Y-85602554D01*
X124650052Y-85519441D01*
X124631388Y-85407254D01*
X124624256Y-85253946D01*
X124623687Y-85176136D01*
X124625622Y-85082853D01*
X124801899Y-85082853D01*
X124803944Y-85132896D01*
X124809039Y-85141092D01*
X124842666Y-85129958D01*
X124915030Y-85100493D01*
X125011747Y-85058601D01*
X125031973Y-85049597D01*
X125154203Y-84987442D01*
X125221547Y-84932815D01*
X125236348Y-84881649D01*
X125200947Y-84829876D01*
X125171711Y-84807000D01*
X125066216Y-84761250D01*
X124967476Y-84768808D01*
X124884812Y-84824651D01*
X124827548Y-84923753D01*
X124809188Y-85002414D01*
X124801899Y-85082853D01*
X124625622Y-85082853D01*
X124627459Y-84994351D01*
X124641359Y-84859853D01*
X124668894Y-84761916D01*
X124713572Y-84689811D01*
X124778901Y-84632813D01*
X124807383Y-84614393D01*
X124936763Y-84566422D01*
X125078412Y-84563403D01*
X125215439Y-84601540D01*
G37*
X121265914Y-84799455D02*
X121265543Y-85017661D01*
X121264108Y-85185519D01*
X121261002Y-85311070D01*
X121255622Y-85402355D01*
X121247362Y-85467415D01*
X121235616Y-85514291D01*
X121219781Y-85551024D01*
X121207790Y-85571991D01*
X121108490Y-85685694D01*
X120982588Y-85756965D01*
X120843291Y-85782538D01*
X120703805Y-85759150D01*
X120620743Y-85717119D01*
X120533545Y-85644411D01*
X120474117Y-85555612D01*
X120438261Y-85439320D01*
X120421781Y-85284135D01*
X120419447Y-85170287D01*
X120419761Y-85162106D01*
X120623724Y-85162106D01*
X120624970Y-85292657D01*
X120630678Y-85379080D01*
X120643804Y-85435618D01*
X120667306Y-85476514D01*
X120695386Y-85507362D01*
X120789688Y-85566905D01*
X120890940Y-85571992D01*
X120986636Y-85522279D01*
X120994084Y-85515543D01*
X121025874Y-85480502D01*
X121045808Y-85438811D01*
X121056600Y-85376762D01*
X121060965Y-85280644D01*
X121061655Y-85174379D01*
X121060159Y-85040880D01*
X121053964Y-84951822D01*
X121040514Y-84893293D01*
X121017251Y-84851382D01*
X120998175Y-84829123D01*
X120909563Y-84772985D01*
X120807508Y-84766235D01*
X120710095Y-84809114D01*
X120691296Y-84825032D01*
X120659293Y-84860382D01*
X120639318Y-84902502D01*
X120628593Y-84965251D01*
X120624339Y-85062487D01*
X120623724Y-85162106D01*
X120419761Y-85162106D01*
X120426504Y-84986947D01*
X120450472Y-84849195D01*
X120495548Y-84745632D01*
X120565928Y-84664856D01*
X120620743Y-84623455D01*
X120720376Y-84578728D01*
X120835855Y-84557967D01*
X120943199Y-84563525D01*
X121003264Y-84585943D01*
X121026835Y-84592323D01*
X121042477Y-84568535D01*
X121053395Y-84504788D01*
X121061655Y-84407687D01*
X121070699Y-84299541D01*
X121083261Y-84234475D01*
X121106119Y-84197268D01*
X121146051Y-84172699D01*
X121171138Y-84161819D01*
X121266023Y-84122072D01*
X121265914Y-84799455D01*
G36*
X121265914Y-84799455D02*
G01*
X121265543Y-85017661D01*
X121264108Y-85185519D01*
X121261002Y-85311070D01*
X121255622Y-85402355D01*
X121247362Y-85467415D01*
X121235616Y-85514291D01*
X121219781Y-85551024D01*
X121207790Y-85571991D01*
X121108490Y-85685694D01*
X120982588Y-85756965D01*
X120843291Y-85782538D01*
X120703805Y-85759150D01*
X120620743Y-85717119D01*
X120533545Y-85644411D01*
X120474117Y-85555612D01*
X120438261Y-85439320D01*
X120421781Y-85284135D01*
X120419447Y-85170287D01*
X120419761Y-85162106D01*
X120623724Y-85162106D01*
X120624970Y-85292657D01*
X120630678Y-85379080D01*
X120643804Y-85435618D01*
X120667306Y-85476514D01*
X120695386Y-85507362D01*
X120789688Y-85566905D01*
X120890940Y-85571992D01*
X120986636Y-85522279D01*
X120994084Y-85515543D01*
X121025874Y-85480502D01*
X121045808Y-85438811D01*
X121056600Y-85376762D01*
X121060965Y-85280644D01*
X121061655Y-85174379D01*
X121060159Y-85040880D01*
X121053964Y-84951822D01*
X121040514Y-84893293D01*
X121017251Y-84851382D01*
X120998175Y-84829123D01*
X120909563Y-84772985D01*
X120807508Y-84766235D01*
X120710095Y-84809114D01*
X120691296Y-84825032D01*
X120659293Y-84860382D01*
X120639318Y-84902502D01*
X120628593Y-84965251D01*
X120624339Y-85062487D01*
X120623724Y-85162106D01*
X120419761Y-85162106D01*
X120426504Y-84986947D01*
X120450472Y-84849195D01*
X120495548Y-84745632D01*
X120565928Y-84664856D01*
X120620743Y-84623455D01*
X120720376Y-84578728D01*
X120835855Y-84557967D01*
X120943199Y-84563525D01*
X121003264Y-84585943D01*
X121026835Y-84592323D01*
X121042477Y-84568535D01*
X121053395Y-84504788D01*
X121061655Y-84407687D01*
X121070699Y-84299541D01*
X121083261Y-84234475D01*
X121106119Y-84197268D01*
X121146051Y-84172699D01*
X121171138Y-84161819D01*
X121266023Y-84122072D01*
X121265914Y-84799455D01*
G37*
X115187552Y-84529676D02*
X115302658Y-84607111D01*
X115391611Y-84718949D01*
X115444749Y-84861265D01*
X115455497Y-84966015D01*
X115454276Y-85009726D01*
X115444056Y-85043194D01*
X115415961Y-85073179D01*
X115361116Y-85106440D01*
X115270645Y-85149738D01*
X115135672Y-85209833D01*
X115134989Y-85210134D01*
X115010751Y-85267037D01*
X114908873Y-85317565D01*
X114839767Y-85356280D01*
X114813846Y-85377740D01*
X114813839Y-85377913D01*
X114836685Y-85424644D01*
X114890109Y-85476154D01*
X114951442Y-85513261D01*
X114982515Y-85520632D01*
X115067289Y-85495138D01*
X115140293Y-85431291D01*
X115175913Y-85361094D01*
X115210180Y-85309343D01*
X115277303Y-85250409D01*
X115356208Y-85199496D01*
X115425821Y-85171809D01*
X115440377Y-85170287D01*
X115456763Y-85195321D01*
X115457750Y-85259311D01*
X115445708Y-85345593D01*
X115423007Y-85437501D01*
X115392014Y-85518369D01*
X115390448Y-85521509D01*
X115297181Y-85651734D01*
X115176304Y-85740311D01*
X115039027Y-85783786D01*
X114896560Y-85778706D01*
X114760112Y-85721616D01*
X114754045Y-85717602D01*
X114646710Y-85620326D01*
X114576132Y-85493409D01*
X114537074Y-85326526D01*
X114531832Y-85279639D01*
X114522548Y-85058329D01*
X114533678Y-84955124D01*
X114813839Y-84955124D01*
X114817479Y-85019503D01*
X114837389Y-85038291D01*
X114887026Y-85024235D01*
X114965267Y-84991009D01*
X115052726Y-84949359D01*
X115054899Y-84948256D01*
X115129030Y-84909265D01*
X115158781Y-84883244D01*
X115151445Y-84855965D01*
X115120553Y-84820121D01*
X115041960Y-84768251D01*
X114957323Y-84764439D01*
X114881403Y-84802189D01*
X114828965Y-84875001D01*
X114813839Y-84955124D01*
X114533678Y-84955124D01*
X114541644Y-84881261D01*
X114590634Y-84740829D01*
X114658836Y-84642447D01*
X114781935Y-84543030D01*
X114917528Y-84493711D01*
X115055955Y-84490568D01*
X115187552Y-84529676D01*
G36*
X115187552Y-84529676D02*
G01*
X115302658Y-84607111D01*
X115391611Y-84718949D01*
X115444749Y-84861265D01*
X115455497Y-84966015D01*
X115454276Y-85009726D01*
X115444056Y-85043194D01*
X115415961Y-85073179D01*
X115361116Y-85106440D01*
X115270645Y-85149738D01*
X115135672Y-85209833D01*
X115134989Y-85210134D01*
X115010751Y-85267037D01*
X114908873Y-85317565D01*
X114839767Y-85356280D01*
X114813846Y-85377740D01*
X114813839Y-85377913D01*
X114836685Y-85424644D01*
X114890109Y-85476154D01*
X114951442Y-85513261D01*
X114982515Y-85520632D01*
X115067289Y-85495138D01*
X115140293Y-85431291D01*
X115175913Y-85361094D01*
X115210180Y-85309343D01*
X115277303Y-85250409D01*
X115356208Y-85199496D01*
X115425821Y-85171809D01*
X115440377Y-85170287D01*
X115456763Y-85195321D01*
X115457750Y-85259311D01*
X115445708Y-85345593D01*
X115423007Y-85437501D01*
X115392014Y-85518369D01*
X115390448Y-85521509D01*
X115297181Y-85651734D01*
X115176304Y-85740311D01*
X115039027Y-85783786D01*
X114896560Y-85778706D01*
X114760112Y-85721616D01*
X114754045Y-85717602D01*
X114646710Y-85620326D01*
X114576132Y-85493409D01*
X114537074Y-85326526D01*
X114531832Y-85279639D01*
X114522548Y-85058329D01*
X114533678Y-84955124D01*
X114813839Y-84955124D01*
X114817479Y-85019503D01*
X114837389Y-85038291D01*
X114887026Y-85024235D01*
X114965267Y-84991009D01*
X115052726Y-84949359D01*
X115054899Y-84948256D01*
X115129030Y-84909265D01*
X115158781Y-84883244D01*
X115151445Y-84855965D01*
X115120553Y-84820121D01*
X115041960Y-84768251D01*
X114957323Y-84764439D01*
X114881403Y-84802189D01*
X114828965Y-84875001D01*
X114813839Y-84955124D01*
X114533678Y-84955124D01*
X114541644Y-84881261D01*
X114590634Y-84740829D01*
X114658836Y-84642447D01*
X114781935Y-84543030D01*
X114917528Y-84493711D01*
X115055955Y-84490568D01*
X115187552Y-84529676D01*
G37*
X118951944Y-84569360D02*
X119066343Y-84611842D01*
X119067652Y-84612658D01*
X119138403Y-84664730D01*
X119190636Y-84725584D01*
X119227371Y-84804887D01*
X119251634Y-84912309D01*
X119266445Y-85057517D01*
X119274829Y-85250179D01*
X119275564Y-85277628D01*
X119286120Y-85691521D01*
X119197291Y-85737456D01*
X119133018Y-85768498D01*
X119094210Y-85783206D01*
X119092415Y-85783391D01*
X119085700Y-85756250D01*
X119080365Y-85683041D01*
X119077083Y-85576081D01*
X119076368Y-85489469D01*
X119076351Y-85349162D01*
X119069937Y-85261051D01*
X119047580Y-85219025D01*
X118999732Y-85216975D01*
X118916849Y-85248790D01*
X118791713Y-85307272D01*
X118699697Y-85355845D01*
X118652371Y-85397986D01*
X118638458Y-85443916D01*
X118638437Y-85446189D01*
X118661395Y-85525311D01*
X118729370Y-85568055D01*
X118833398Y-85574246D01*
X118908330Y-85573172D01*
X118947839Y-85594753D01*
X118972478Y-85646591D01*
X118986659Y-85712632D01*
X118966223Y-85750104D01*
X118958528Y-85755467D01*
X118886083Y-85777006D01*
X118784633Y-85780055D01*
X118680157Y-85765778D01*
X118606125Y-85739688D01*
X118503772Y-85652785D01*
X118445591Y-85531816D01*
X118434069Y-85437308D01*
X118442862Y-85352062D01*
X118474680Y-85282476D01*
X118537684Y-85220672D01*
X118640031Y-85158772D01*
X118789882Y-85088897D01*
X118799012Y-85084948D01*
X118933997Y-85022588D01*
X119017294Y-84971446D01*
X119052997Y-84925488D01*
X119045203Y-84878683D01*
X118998007Y-84824998D01*
X118983894Y-84812644D01*
X118889359Y-84764741D01*
X118791406Y-84766758D01*
X118706097Y-84813724D01*
X118649496Y-84900669D01*
X118644237Y-84917734D01*
X118593023Y-85000504D01*
X118528037Y-85040372D01*
X118434069Y-85079882D01*
X118434069Y-84977658D01*
X118462653Y-84829072D01*
X118547495Y-84692784D01*
X118591645Y-84647191D01*
X118692005Y-84588674D01*
X118819635Y-84562184D01*
X118951944Y-84569360D01*
G36*
X118951944Y-84569360D02*
G01*
X119066343Y-84611842D01*
X119067652Y-84612658D01*
X119138403Y-84664730D01*
X119190636Y-84725584D01*
X119227371Y-84804887D01*
X119251634Y-84912309D01*
X119266445Y-85057517D01*
X119274829Y-85250179D01*
X119275564Y-85277628D01*
X119286120Y-85691521D01*
X119197291Y-85737456D01*
X119133018Y-85768498D01*
X119094210Y-85783206D01*
X119092415Y-85783391D01*
X119085700Y-85756250D01*
X119080365Y-85683041D01*
X119077083Y-85576081D01*
X119076368Y-85489469D01*
X119076351Y-85349162D01*
X119069937Y-85261051D01*
X119047580Y-85219025D01*
X118999732Y-85216975D01*
X118916849Y-85248790D01*
X118791713Y-85307272D01*
X118699697Y-85355845D01*
X118652371Y-85397986D01*
X118638458Y-85443916D01*
X118638437Y-85446189D01*
X118661395Y-85525311D01*
X118729370Y-85568055D01*
X118833398Y-85574246D01*
X118908330Y-85573172D01*
X118947839Y-85594753D01*
X118972478Y-85646591D01*
X118986659Y-85712632D01*
X118966223Y-85750104D01*
X118958528Y-85755467D01*
X118886083Y-85777006D01*
X118784633Y-85780055D01*
X118680157Y-85765778D01*
X118606125Y-85739688D01*
X118503772Y-85652785D01*
X118445591Y-85531816D01*
X118434069Y-85437308D01*
X118442862Y-85352062D01*
X118474680Y-85282476D01*
X118537684Y-85220672D01*
X118640031Y-85158772D01*
X118789882Y-85088897D01*
X118799012Y-85084948D01*
X118933997Y-85022588D01*
X119017294Y-84971446D01*
X119052997Y-84925488D01*
X119045203Y-84878683D01*
X118998007Y-84824998D01*
X118983894Y-84812644D01*
X118889359Y-84764741D01*
X118791406Y-84766758D01*
X118706097Y-84813724D01*
X118649496Y-84900669D01*
X118644237Y-84917734D01*
X118593023Y-85000504D01*
X118528037Y-85040372D01*
X118434069Y-85079882D01*
X118434069Y-84977658D01*
X118462653Y-84829072D01*
X118547495Y-84692784D01*
X118591645Y-84647191D01*
X118692005Y-84588674D01*
X118819635Y-84562184D01*
X118951944Y-84569360D01*
G37*
X114043900Y-84506903D02*
X114155450Y-84562522D01*
X114253908Y-84664931D01*
X114281023Y-84702864D01*
X114310562Y-84752500D01*
X114329728Y-84806412D01*
X114340693Y-84878364D01*
X114345629Y-84982122D01*
X114346713Y-85119101D01*
X114341818Y-85306815D01*
X114324804Y-85447758D01*
X114292177Y-85552908D01*
X114240442Y-85633243D01*
X114166104Y-85699741D01*
X114160642Y-85703678D01*
X114087380Y-85743953D01*
X113999160Y-85763880D01*
X113886962Y-85768793D01*
X113704567Y-85768793D01*
X113704491Y-85945857D01*
X113702793Y-86044470D01*
X113692450Y-86102314D01*
X113665422Y-86137006D01*
X113613668Y-86166164D01*
X113601239Y-86172121D01*
X113543077Y-86200039D01*
X113498044Y-86217672D01*
X113464559Y-86219194D01*
X113441038Y-86198781D01*
X113425900Y-86150607D01*
X113417563Y-86068846D01*
X113414444Y-85947672D01*
X113414960Y-85781260D01*
X113417529Y-85563785D01*
X113418332Y-85498736D01*
X113421222Y-85274502D01*
X113423812Y-85127821D01*
X113704414Y-85127821D01*
X113705991Y-85252326D01*
X113713000Y-85333787D01*
X113728858Y-85387515D01*
X113756981Y-85428823D01*
X113776075Y-85448971D01*
X113854135Y-85507921D01*
X113923247Y-85512720D01*
X113994560Y-85464038D01*
X113996368Y-85462241D01*
X114025383Y-85424618D01*
X114043033Y-85373484D01*
X114051936Y-85294738D01*
X114054709Y-85174276D01*
X114054759Y-85147588D01*
X114048058Y-84981583D01*
X114026248Y-84866505D01*
X113986765Y-84796254D01*
X113927044Y-84764729D01*
X113892528Y-84761552D01*
X113810611Y-84776460D01*
X113754421Y-84825548D01*
X113720598Y-84915362D01*
X113705780Y-85052445D01*
X113704414Y-85127821D01*
X113423812Y-85127821D01*
X113424287Y-85100952D01*
X113428247Y-84970382D01*
X113433826Y-84875087D01*
X113441746Y-84807364D01*
X113452731Y-84759507D01*
X113467501Y-84723813D01*
X113486782Y-84692578D01*
X113495049Y-84680824D01*
X113604712Y-84569797D01*
X113743365Y-84506847D01*
X113903754Y-84489297D01*
X114043900Y-84506903D01*
G36*
X114043900Y-84506903D02*
G01*
X114155450Y-84562522D01*
X114253908Y-84664931D01*
X114281023Y-84702864D01*
X114310562Y-84752500D01*
X114329728Y-84806412D01*
X114340693Y-84878364D01*
X114345629Y-84982122D01*
X114346713Y-85119101D01*
X114341818Y-85306815D01*
X114324804Y-85447758D01*
X114292177Y-85552908D01*
X114240442Y-85633243D01*
X114166104Y-85699741D01*
X114160642Y-85703678D01*
X114087380Y-85743953D01*
X113999160Y-85763880D01*
X113886962Y-85768793D01*
X113704567Y-85768793D01*
X113704491Y-85945857D01*
X113702793Y-86044470D01*
X113692450Y-86102314D01*
X113665422Y-86137006D01*
X113613668Y-86166164D01*
X113601239Y-86172121D01*
X113543077Y-86200039D01*
X113498044Y-86217672D01*
X113464559Y-86219194D01*
X113441038Y-86198781D01*
X113425900Y-86150607D01*
X113417563Y-86068846D01*
X113414444Y-85947672D01*
X113414960Y-85781260D01*
X113417529Y-85563785D01*
X113418332Y-85498736D01*
X113421222Y-85274502D01*
X113423812Y-85127821D01*
X113704414Y-85127821D01*
X113705991Y-85252326D01*
X113713000Y-85333787D01*
X113728858Y-85387515D01*
X113756981Y-85428823D01*
X113776075Y-85448971D01*
X113854135Y-85507921D01*
X113923247Y-85512720D01*
X113994560Y-85464038D01*
X113996368Y-85462241D01*
X114025383Y-85424618D01*
X114043033Y-85373484D01*
X114051936Y-85294738D01*
X114054709Y-85174276D01*
X114054759Y-85147588D01*
X114048058Y-84981583D01*
X114026248Y-84866505D01*
X113986765Y-84796254D01*
X113927044Y-84764729D01*
X113892528Y-84761552D01*
X113810611Y-84776460D01*
X113754421Y-84825548D01*
X113720598Y-84915362D01*
X113705780Y-85052445D01*
X113704414Y-85127821D01*
X113423812Y-85127821D01*
X113424287Y-85100952D01*
X113428247Y-84970382D01*
X113433826Y-84875087D01*
X113441746Y-84807364D01*
X113452731Y-84759507D01*
X113467501Y-84723813D01*
X113486782Y-84692578D01*
X113495049Y-84680824D01*
X113604712Y-84569797D01*
X113743365Y-84506847D01*
X113903754Y-84489297D01*
X114043900Y-84506903D01*
G37*
X123186406Y-84580156D02*
X123270469Y-84618393D01*
X123336450Y-84664726D01*
X123384794Y-84716532D01*
X123418172Y-84783363D01*
X123439253Y-84874769D01*
X123450707Y-85000301D01*
X123455203Y-85169508D01*
X123455678Y-85280933D01*
X123455678Y-85715627D01*
X123381316Y-85749509D01*
X123322746Y-85774272D01*
X123293730Y-85783391D01*
X123288179Y-85756257D01*
X123283775Y-85683094D01*
X123281078Y-85576263D01*
X123280506Y-85491437D01*
X123278046Y-85368887D01*
X123271412Y-85271668D01*
X123261726Y-85212134D01*
X123254032Y-85199483D01*
X123202311Y-85212402D01*
X123121117Y-85245539D01*
X123027102Y-85290461D01*
X122936917Y-85338735D01*
X122867215Y-85381928D01*
X122834648Y-85411608D01*
X122834519Y-85411929D01*
X122837320Y-85466857D01*
X122862439Y-85519292D01*
X122906541Y-85561881D01*
X122970909Y-85576126D01*
X123025921Y-85574466D01*
X123103835Y-85573245D01*
X123144732Y-85591498D01*
X123169295Y-85639726D01*
X123172392Y-85648820D01*
X123183040Y-85717598D01*
X123154565Y-85759360D01*
X123080344Y-85779263D01*
X123000168Y-85782944D01*
X122855890Y-85755658D01*
X122781203Y-85716690D01*
X122688963Y-85625148D01*
X122640043Y-85512782D01*
X122635654Y-85394051D01*
X122677001Y-85283411D01*
X122739197Y-85214080D01*
X122801294Y-85175265D01*
X122898895Y-85126125D01*
X123012632Y-85076292D01*
X123031590Y-85068677D01*
X123156521Y-85013545D01*
X123228539Y-84964954D01*
X123251700Y-84916647D01*
X123230064Y-84862370D01*
X123192920Y-84819943D01*
X123105127Y-84767702D01*
X123008530Y-84763784D01*
X122919944Y-84804041D01*
X122856186Y-84884326D01*
X122847817Y-84905040D01*
X122799096Y-84981225D01*
X122727965Y-85037785D01*
X122638207Y-85084201D01*
X122638207Y-84952584D01*
X122643490Y-84872168D01*
X122666142Y-84808786D01*
X122716367Y-84741163D01*
X122764582Y-84689076D01*
X122839554Y-84615322D01*
X122897806Y-84575702D01*
X122960372Y-84559810D01*
X123031193Y-84557184D01*
X123186406Y-84580156D01*
G36*
X123186406Y-84580156D02*
G01*
X123270469Y-84618393D01*
X123336450Y-84664726D01*
X123384794Y-84716532D01*
X123418172Y-84783363D01*
X123439253Y-84874769D01*
X123450707Y-85000301D01*
X123455203Y-85169508D01*
X123455678Y-85280933D01*
X123455678Y-85715627D01*
X123381316Y-85749509D01*
X123322746Y-85774272D01*
X123293730Y-85783391D01*
X123288179Y-85756257D01*
X123283775Y-85683094D01*
X123281078Y-85576263D01*
X123280506Y-85491437D01*
X123278046Y-85368887D01*
X123271412Y-85271668D01*
X123261726Y-85212134D01*
X123254032Y-85199483D01*
X123202311Y-85212402D01*
X123121117Y-85245539D01*
X123027102Y-85290461D01*
X122936917Y-85338735D01*
X122867215Y-85381928D01*
X122834648Y-85411608D01*
X122834519Y-85411929D01*
X122837320Y-85466857D01*
X122862439Y-85519292D01*
X122906541Y-85561881D01*
X122970909Y-85576126D01*
X123025921Y-85574466D01*
X123103835Y-85573245D01*
X123144732Y-85591498D01*
X123169295Y-85639726D01*
X123172392Y-85648820D01*
X123183040Y-85717598D01*
X123154565Y-85759360D01*
X123080344Y-85779263D01*
X123000168Y-85782944D01*
X122855890Y-85755658D01*
X122781203Y-85716690D01*
X122688963Y-85625148D01*
X122640043Y-85512782D01*
X122635654Y-85394051D01*
X122677001Y-85283411D01*
X122739197Y-85214080D01*
X122801294Y-85175265D01*
X122898895Y-85126125D01*
X123012632Y-85076292D01*
X123031590Y-85068677D01*
X123156521Y-85013545D01*
X123228539Y-84964954D01*
X123251700Y-84916647D01*
X123230064Y-84862370D01*
X123192920Y-84819943D01*
X123105127Y-84767702D01*
X123008530Y-84763784D01*
X122919944Y-84804041D01*
X122856186Y-84884326D01*
X122847817Y-84905040D01*
X122799096Y-84981225D01*
X122727965Y-85037785D01*
X122638207Y-85084201D01*
X122638207Y-84952584D01*
X122643490Y-84872168D01*
X122666142Y-84808786D01*
X122716367Y-84741163D01*
X122764582Y-84689076D01*
X122839554Y-84615322D01*
X122897806Y-84575702D01*
X122960372Y-84559810D01*
X123031193Y-84557184D01*
X123186406Y-84580156D01*
G37*
X119081014Y-75097998D02*
X119239006Y-75098863D01*
X119353347Y-75101205D01*
X119431407Y-75105762D01*
X119480554Y-75113270D01*
X119508159Y-75124466D01*
X119521592Y-75140088D01*
X119528221Y-75160873D01*
X119528865Y-75163563D01*
X119538935Y-75212113D01*
X119557575Y-75307905D01*
X119582845Y-75440743D01*
X119612807Y-75600431D01*
X119645522Y-75776774D01*
X119646664Y-75782967D01*
X119679433Y-75955782D01*
X119710093Y-76108469D01*
X119736664Y-76231871D01*
X119757167Y-76316831D01*
X119769626Y-76354190D01*
X119770220Y-76354852D01*
X119806919Y-76373095D01*
X119882586Y-76403497D01*
X119980878Y-76439493D01*
X119981425Y-76439685D01*
X120105233Y-76486222D01*
X120251196Y-76545504D01*
X120388781Y-76605109D01*
X120395293Y-76608056D01*
X120619390Y-76709765D01*
X121115619Y-76370897D01*
X121267846Y-76267592D01*
X121405741Y-76175237D01*
X121521315Y-76099084D01*
X121606579Y-76044385D01*
X121653544Y-76016393D01*
X121658004Y-76014317D01*
X121692134Y-76023560D01*
X121755881Y-76068156D01*
X121851731Y-76150209D01*
X121982169Y-76271821D01*
X122115328Y-76401205D01*
X122243694Y-76528702D01*
X122358581Y-76645046D01*
X122453073Y-76743052D01*
X122520253Y-76815536D01*
X122553206Y-76855313D01*
X122554432Y-76857361D01*
X122558074Y-76884656D01*
X122544350Y-76929234D01*
X122509869Y-76997112D01*
X122451239Y-77094311D01*
X122365070Y-77226851D01*
X122250200Y-77397476D01*
X122148254Y-77547655D01*
X122057123Y-77682350D01*
X121982073Y-77793740D01*
X121928369Y-77874005D01*
X121901280Y-77915325D01*
X121899574Y-77918130D01*
X121902882Y-77957721D01*
X121927953Y-78034669D01*
X121969798Y-78134432D01*
X121984712Y-78166291D01*
X122049786Y-78308226D01*
X122119212Y-78469273D01*
X122175609Y-78608621D01*
X122216247Y-78712044D01*
X122248526Y-78790642D01*
X122267178Y-78831720D01*
X122269497Y-78834885D01*
X122303803Y-78840128D01*
X122384669Y-78854494D01*
X122501343Y-78875937D01*
X122643075Y-78902413D01*
X122799110Y-78931877D01*
X122958698Y-78962283D01*
X123111085Y-78991588D01*
X123245521Y-79017745D01*
X123351252Y-79038710D01*
X123417526Y-79052439D01*
X123433782Y-79056320D01*
X123450573Y-79065900D01*
X123463249Y-79087536D01*
X123472378Y-79128531D01*
X123478531Y-79196189D01*
X123482280Y-79297812D01*
X123484192Y-79440703D01*
X123484840Y-79632165D01*
X123484874Y-79710645D01*
X123484874Y-80348906D01*
X123331598Y-80379160D01*
X123246322Y-80395564D01*
X123119070Y-80419509D01*
X122965315Y-80448107D01*
X122800534Y-80478467D01*
X122754989Y-80486806D01*
X122602932Y-80516370D01*
X122470468Y-80545442D01*
X122368714Y-80571329D01*
X122308788Y-80591337D01*
X122298805Y-80597301D01*
X122274293Y-80639534D01*
X122239148Y-80721370D01*
X122200173Y-80826683D01*
X122192442Y-80849368D01*
X122141360Y-80990018D01*
X122077954Y-81148714D01*
X122015904Y-81291225D01*
X122015598Y-81291886D01*
X121912267Y-81515440D01*
X122591961Y-82515232D01*
X122155621Y-82952300D01*
X122023649Y-83082381D01*
X121903279Y-83197048D01*
X121801273Y-83290181D01*
X121724391Y-83355658D01*
X121679393Y-83387357D01*
X121672938Y-83389368D01*
X121635040Y-83373529D01*
X121557708Y-83329496D01*
X121449389Y-83262490D01*
X121318532Y-83177734D01*
X121177052Y-83082816D01*
X121033461Y-82985998D01*
X120905435Y-82901751D01*
X120801105Y-82835258D01*
X120728600Y-82791702D01*
X120696158Y-82776264D01*
X120656576Y-82789328D01*
X120581519Y-82823750D01*
X120486468Y-82872380D01*
X120476392Y-82877785D01*
X120348391Y-82941980D01*
X120260618Y-82973463D01*
X120206028Y-82973798D01*
X120177575Y-82944548D01*
X120177410Y-82944138D01*
X120163188Y-82909498D01*
X120129269Y-82827269D01*
X120078284Y-82703814D01*
X120012862Y-82545498D01*
X119935634Y-82358686D01*
X119849229Y-82149742D01*
X119765551Y-81947446D01*
X119673588Y-81724200D01*
X119589150Y-81517392D01*
X119514769Y-81333362D01*
X119452974Y-81178451D01*
X119406297Y-81058996D01*
X119377268Y-80981339D01*
X119368322Y-80952356D01*
X119390756Y-80919110D01*
X119449439Y-80866123D01*
X119527689Y-80807704D01*
X119750534Y-80622952D01*
X119924718Y-80411182D01*
X120048154Y-80176856D01*
X120118754Y-79924434D01*
X120134431Y-79658377D01*
X120123036Y-79535575D01*
X120060950Y-79280793D01*
X119954023Y-79055801D01*
X119808889Y-78862817D01*
X119632178Y-78704061D01*
X119430522Y-78581750D01*
X119210554Y-78498105D01*
X118978906Y-78455344D01*
X118742209Y-78455687D01*
X118507095Y-78501352D01*
X118280196Y-78594559D01*
X118068144Y-78737527D01*
X117979636Y-78818383D01*
X117809889Y-79026007D01*
X117691699Y-79252895D01*
X117624278Y-79492433D01*
X117606840Y-79738007D01*
X117638598Y-79983003D01*
X117718765Y-80220808D01*
X117846555Y-80444807D01*
X118021180Y-80648387D01*
X118216312Y-80807704D01*
X118297591Y-80868602D01*
X118355009Y-80921015D01*
X118375678Y-80952406D01*
X118364856Y-80986639D01*
X118334077Y-81068419D01*
X118285874Y-81191407D01*
X118222778Y-81349263D01*
X118147322Y-81535649D01*
X118062038Y-81744226D01*
X117978219Y-81947496D01*
X117885745Y-82170933D01*
X117800089Y-82377984D01*
X117723882Y-82562286D01*
X117659753Y-82717475D01*
X117610332Y-82837188D01*
X117578248Y-82915061D01*
X117566359Y-82944138D01*
X117538274Y-82973677D01*
X117483949Y-82973591D01*
X117396395Y-82942326D01*
X117268619Y-82878329D01*
X117267608Y-82877785D01*
X117171402Y-82828121D01*
X117093631Y-82791945D01*
X117049777Y-82776408D01*
X117047842Y-82776264D01*
X117014829Y-82792024D01*
X116941946Y-82835850D01*
X116837322Y-82902557D01*
X116709090Y-82986964D01*
X116566948Y-83082816D01*
X116422233Y-83179867D01*
X116291804Y-83264270D01*
X116184110Y-83330801D01*
X116107598Y-83374238D01*
X116071062Y-83389368D01*
X116037418Y-83369482D01*
X115969776Y-83313903D01*
X115874893Y-83228754D01*
X115759530Y-83120153D01*
X115630445Y-82994221D01*
X115588229Y-82952149D01*
X115151739Y-82514931D01*
X115483977Y-82027340D01*
X115584946Y-81877605D01*
X115673562Y-81743220D01*
X115744854Y-81631969D01*
X115793850Y-81551639D01*
X115815578Y-81510014D01*
X115816215Y-81507053D01*
X115804760Y-81467818D01*
X115773949Y-81388895D01*
X115729116Y-81283509D01*
X115697647Y-81212954D01*
X115638808Y-81077876D01*
X115583396Y-80941409D01*
X115540436Y-80826103D01*
X115528766Y-80790977D01*
X115495611Y-80697174D01*
X115463201Y-80624694D01*
X115445399Y-80597301D01*
X115406114Y-80580536D01*
X115320374Y-80556770D01*
X115199303Y-80528697D01*
X115054027Y-80499009D01*
X114989012Y-80486806D01*
X114823913Y-80456468D01*
X114665552Y-80427093D01*
X114529404Y-80401569D01*
X114430943Y-80382785D01*
X114412402Y-80379160D01*
X114259127Y-80348906D01*
X114259127Y-79710645D01*
X114259471Y-79500770D01*
X114260884Y-79341980D01*
X114263936Y-79226973D01*
X114269197Y-79148446D01*
X114277237Y-79099096D01*
X114288627Y-79071619D01*
X114303937Y-79058713D01*
X114310218Y-79056320D01*
X114348104Y-79047833D01*
X114431805Y-79030900D01*
X114550567Y-79007566D01*
X114693639Y-78979875D01*
X114850268Y-78949873D01*
X115009703Y-78919604D01*
X115161191Y-78891115D01*
X115293981Y-78866449D01*
X115397319Y-78847651D01*
X115460455Y-78836767D01*
X115474503Y-78834885D01*
X115487230Y-78809704D01*
X115515400Y-78742622D01*
X115553748Y-78646333D01*
X115568391Y-78608621D01*
X115627452Y-78462921D01*
X115697000Y-78301951D01*
X115759288Y-78166291D01*
X115805121Y-78062561D01*
X115835613Y-77977326D01*
X115845792Y-77925126D01*
X115844169Y-77918130D01*
X115822657Y-77885102D01*
X115773535Y-77811643D01*
X115702077Y-77705577D01*
X115613555Y-77574726D01*
X115513241Y-77426912D01*
X115493406Y-77397734D01*
X115377012Y-77224863D01*
X115291452Y-77093226D01*
X115233316Y-76996761D01*
X115199192Y-76929408D01*
X115185669Y-76885106D01*
X115189336Y-76857794D01*
X115189430Y-76857620D01*
X115218293Y-76821746D01*
X115282133Y-76752391D01*
X115374031Y-76656745D01*
X115487067Y-76541999D01*
X115614321Y-76415341D01*
X115628672Y-76401205D01*
X115789043Y-76245903D01*
X115912805Y-76131870D01*
X116002445Y-76057002D01*
X116060448Y-76019196D01*
X116085996Y-76014317D01*
X116123282Y-76035603D01*
X116200657Y-76084773D01*
X116310133Y-76156575D01*
X116443720Y-76245755D01*
X116593430Y-76347063D01*
X116628382Y-76370897D01*
X117124610Y-76709765D01*
X117348707Y-76608056D01*
X117484989Y-76548783D01*
X117631276Y-76489170D01*
X117757035Y-76441640D01*
X117762575Y-76439685D01*
X117860943Y-76403677D01*
X117936771Y-76373229D01*
X117973718Y-76354905D01*
X117973780Y-76354852D01*
X117985504Y-76321729D01*
X118005432Y-76240267D01*
X118031587Y-76119625D01*
X118061990Y-75968959D01*
X118094663Y-75797428D01*
X118097336Y-75782967D01*
X118130110Y-75606235D01*
X118160198Y-75445810D01*
X118185661Y-75311888D01*
X118204559Y-75214663D01*
X118214953Y-75164332D01*
X118215135Y-75163563D01*
X118221461Y-75142153D01*
X118233761Y-75125988D01*
X118259406Y-75114331D01*
X118305765Y-75106445D01*
X118380208Y-75101593D01*
X118490105Y-75099039D01*
X118642825Y-75098045D01*
X118845738Y-75097874D01*
X118872000Y-75097874D01*
X119081014Y-75097998D01*
G36*
X119081014Y-75097998D02*
G01*
X119239006Y-75098863D01*
X119353347Y-75101205D01*
X119431407Y-75105762D01*
X119480554Y-75113270D01*
X119508159Y-75124466D01*
X119521592Y-75140088D01*
X119528221Y-75160873D01*
X119528865Y-75163563D01*
X119538935Y-75212113D01*
X119557575Y-75307905D01*
X119582845Y-75440743D01*
X119612807Y-75600431D01*
X119645522Y-75776774D01*
X119646664Y-75782967D01*
X119679433Y-75955782D01*
X119710093Y-76108469D01*
X119736664Y-76231871D01*
X119757167Y-76316831D01*
X119769626Y-76354190D01*
X119770220Y-76354852D01*
X119806919Y-76373095D01*
X119882586Y-76403497D01*
X119980878Y-76439493D01*
X119981425Y-76439685D01*
X120105233Y-76486222D01*
X120251196Y-76545504D01*
X120388781Y-76605109D01*
X120395293Y-76608056D01*
X120619390Y-76709765D01*
X121115619Y-76370897D01*
X121267846Y-76267592D01*
X121405741Y-76175237D01*
X121521315Y-76099084D01*
X121606579Y-76044385D01*
X121653544Y-76016393D01*
X121658004Y-76014317D01*
X121692134Y-76023560D01*
X121755881Y-76068156D01*
X121851731Y-76150209D01*
X121982169Y-76271821D01*
X122115328Y-76401205D01*
X122243694Y-76528702D01*
X122358581Y-76645046D01*
X122453073Y-76743052D01*
X122520253Y-76815536D01*
X122553206Y-76855313D01*
X122554432Y-76857361D01*
X122558074Y-76884656D01*
X122544350Y-76929234D01*
X122509869Y-76997112D01*
X122451239Y-77094311D01*
X122365070Y-77226851D01*
X122250200Y-77397476D01*
X122148254Y-77547655D01*
X122057123Y-77682350D01*
X121982073Y-77793740D01*
X121928369Y-77874005D01*
X121901280Y-77915325D01*
X121899574Y-77918130D01*
X121902882Y-77957721D01*
X121927953Y-78034669D01*
X121969798Y-78134432D01*
X121984712Y-78166291D01*
X122049786Y-78308226D01*
X122119212Y-78469273D01*
X122175609Y-78608621D01*
X122216247Y-78712044D01*
X122248526Y-78790642D01*
X122267178Y-78831720D01*
X122269497Y-78834885D01*
X122303803Y-78840128D01*
X122384669Y-78854494D01*
X122501343Y-78875937D01*
X122643075Y-78902413D01*
X122799110Y-78931877D01*
X122958698Y-78962283D01*
X123111085Y-78991588D01*
X123245521Y-79017745D01*
X123351252Y-79038710D01*
X123417526Y-79052439D01*
X123433782Y-79056320D01*
X123450573Y-79065900D01*
X123463249Y-79087536D01*
X123472378Y-79128531D01*
X123478531Y-79196189D01*
X123482280Y-79297812D01*
X123484192Y-79440703D01*
X123484840Y-79632165D01*
X123484874Y-79710645D01*
X123484874Y-80348906D01*
X123331598Y-80379160D01*
X123246322Y-80395564D01*
X123119070Y-80419509D01*
X122965315Y-80448107D01*
X122800534Y-80478467D01*
X122754989Y-80486806D01*
X122602932Y-80516370D01*
X122470468Y-80545442D01*
X122368714Y-80571329D01*
X122308788Y-80591337D01*
X122298805Y-80597301D01*
X122274293Y-80639534D01*
X122239148Y-80721370D01*
X122200173Y-80826683D01*
X122192442Y-80849368D01*
X122141360Y-80990018D01*
X122077954Y-81148714D01*
X122015904Y-81291225D01*
X122015598Y-81291886D01*
X121912267Y-81515440D01*
X122591961Y-82515232D01*
X122155621Y-82952300D01*
X122023649Y-83082381D01*
X121903279Y-83197048D01*
X121801273Y-83290181D01*
X121724391Y-83355658D01*
X121679393Y-83387357D01*
X121672938Y-83389368D01*
X121635040Y-83373529D01*
X121557708Y-83329496D01*
X121449389Y-83262490D01*
X121318532Y-83177734D01*
X121177052Y-83082816D01*
X121033461Y-82985998D01*
X120905435Y-82901751D01*
X120801105Y-82835258D01*
X120728600Y-82791702D01*
X120696158Y-82776264D01*
X120656576Y-82789328D01*
X120581519Y-82823750D01*
X120486468Y-82872380D01*
X120476392Y-82877785D01*
X120348391Y-82941980D01*
X120260618Y-82973463D01*
X120206028Y-82973798D01*
X120177575Y-82944548D01*
X120177410Y-82944138D01*
X120163188Y-82909498D01*
X120129269Y-82827269D01*
X120078284Y-82703814D01*
X120012862Y-82545498D01*
X119935634Y-82358686D01*
X119849229Y-82149742D01*
X119765551Y-81947446D01*
X119673588Y-81724200D01*
X119589150Y-81517392D01*
X119514769Y-81333362D01*
X119452974Y-81178451D01*
X119406297Y-81058996D01*
X119377268Y-80981339D01*
X119368322Y-80952356D01*
X119390756Y-80919110D01*
X119449439Y-80866123D01*
X119527689Y-80807704D01*
X119750534Y-80622952D01*
X119924718Y-80411182D01*
X120048154Y-80176856D01*
X120118754Y-79924434D01*
X120134431Y-79658377D01*
X120123036Y-79535575D01*
X120060950Y-79280793D01*
X119954023Y-79055801D01*
X119808889Y-78862817D01*
X119632178Y-78704061D01*
X119430522Y-78581750D01*
X119210554Y-78498105D01*
X118978906Y-78455344D01*
X118742209Y-78455687D01*
X118507095Y-78501352D01*
X118280196Y-78594559D01*
X118068144Y-78737527D01*
X117979636Y-78818383D01*
X117809889Y-79026007D01*
X117691699Y-79252895D01*
X117624278Y-79492433D01*
X117606840Y-79738007D01*
X117638598Y-79983003D01*
X117718765Y-80220808D01*
X117846555Y-80444807D01*
X118021180Y-80648387D01*
X118216312Y-80807704D01*
X118297591Y-80868602D01*
X118355009Y-80921015D01*
X118375678Y-80952406D01*
X118364856Y-80986639D01*
X118334077Y-81068419D01*
X118285874Y-81191407D01*
X118222778Y-81349263D01*
X118147322Y-81535649D01*
X118062038Y-81744226D01*
X117978219Y-81947496D01*
X117885745Y-82170933D01*
X117800089Y-82377984D01*
X117723882Y-82562286D01*
X117659753Y-82717475D01*
X117610332Y-82837188D01*
X117578248Y-82915061D01*
X117566359Y-82944138D01*
X117538274Y-82973677D01*
X117483949Y-82973591D01*
X117396395Y-82942326D01*
X117268619Y-82878329D01*
X117267608Y-82877785D01*
X117171402Y-82828121D01*
X117093631Y-82791945D01*
X117049777Y-82776408D01*
X117047842Y-82776264D01*
X117014829Y-82792024D01*
X116941946Y-82835850D01*
X116837322Y-82902557D01*
X116709090Y-82986964D01*
X116566948Y-83082816D01*
X116422233Y-83179867D01*
X116291804Y-83264270D01*
X116184110Y-83330801D01*
X116107598Y-83374238D01*
X116071062Y-83389368D01*
X116037418Y-83369482D01*
X115969776Y-83313903D01*
X115874893Y-83228754D01*
X115759530Y-83120153D01*
X115630445Y-82994221D01*
X115588229Y-82952149D01*
X115151739Y-82514931D01*
X115483977Y-82027340D01*
X115584946Y-81877605D01*
X115673562Y-81743220D01*
X115744854Y-81631969D01*
X115793850Y-81551639D01*
X115815578Y-81510014D01*
X115816215Y-81507053D01*
X115804760Y-81467818D01*
X115773949Y-81388895D01*
X115729116Y-81283509D01*
X115697647Y-81212954D01*
X115638808Y-81077876D01*
X115583396Y-80941409D01*
X115540436Y-80826103D01*
X115528766Y-80790977D01*
X115495611Y-80697174D01*
X115463201Y-80624694D01*
X115445399Y-80597301D01*
X115406114Y-80580536D01*
X115320374Y-80556770D01*
X115199303Y-80528697D01*
X115054027Y-80499009D01*
X114989012Y-80486806D01*
X114823913Y-80456468D01*
X114665552Y-80427093D01*
X114529404Y-80401569D01*
X114430943Y-80382785D01*
X114412402Y-80379160D01*
X114259127Y-80348906D01*
X114259127Y-79710645D01*
X114259471Y-79500770D01*
X114260884Y-79341980D01*
X114263936Y-79226973D01*
X114269197Y-79148446D01*
X114277237Y-79099096D01*
X114288627Y-79071619D01*
X114303937Y-79058713D01*
X114310218Y-79056320D01*
X114348104Y-79047833D01*
X114431805Y-79030900D01*
X114550567Y-79007566D01*
X114693639Y-78979875D01*
X114850268Y-78949873D01*
X115009703Y-78919604D01*
X115161191Y-78891115D01*
X115293981Y-78866449D01*
X115397319Y-78847651D01*
X115460455Y-78836767D01*
X115474503Y-78834885D01*
X115487230Y-78809704D01*
X115515400Y-78742622D01*
X115553748Y-78646333D01*
X115568391Y-78608621D01*
X115627452Y-78462921D01*
X115697000Y-78301951D01*
X115759288Y-78166291D01*
X115805121Y-78062561D01*
X115835613Y-77977326D01*
X115845792Y-77925126D01*
X115844169Y-77918130D01*
X115822657Y-77885102D01*
X115773535Y-77811643D01*
X115702077Y-77705577D01*
X115613555Y-77574726D01*
X115513241Y-77426912D01*
X115493406Y-77397734D01*
X115377012Y-77224863D01*
X115291452Y-77093226D01*
X115233316Y-76996761D01*
X115199192Y-76929408D01*
X115185669Y-76885106D01*
X115189336Y-76857794D01*
X115189430Y-76857620D01*
X115218293Y-76821746D01*
X115282133Y-76752391D01*
X115374031Y-76656745D01*
X115487067Y-76541999D01*
X115614321Y-76415341D01*
X115628672Y-76401205D01*
X115789043Y-76245903D01*
X115912805Y-76131870D01*
X116002445Y-76057002D01*
X116060448Y-76019196D01*
X116085996Y-76014317D01*
X116123282Y-76035603D01*
X116200657Y-76084773D01*
X116310133Y-76156575D01*
X116443720Y-76245755D01*
X116593430Y-76347063D01*
X116628382Y-76370897D01*
X117124610Y-76709765D01*
X117348707Y-76608056D01*
X117484989Y-76548783D01*
X117631276Y-76489170D01*
X117757035Y-76441640D01*
X117762575Y-76439685D01*
X117860943Y-76403677D01*
X117936771Y-76373229D01*
X117973718Y-76354905D01*
X117973780Y-76354852D01*
X117985504Y-76321729D01*
X118005432Y-76240267D01*
X118031587Y-76119625D01*
X118061990Y-75968959D01*
X118094663Y-75797428D01*
X118097336Y-75782967D01*
X118130110Y-75606235D01*
X118160198Y-75445810D01*
X118185661Y-75311888D01*
X118204559Y-75214663D01*
X118214953Y-75164332D01*
X118215135Y-75163563D01*
X118221461Y-75142153D01*
X118233761Y-75125988D01*
X118259406Y-75114331D01*
X118305765Y-75106445D01*
X118380208Y-75101593D01*
X118490105Y-75099039D01*
X118642825Y-75098045D01*
X118845738Y-75097874D01*
X118872000Y-75097874D01*
X119081014Y-75097998D01*
G37*
%TD*%
D11*
%TO.C,C1*%
X87397500Y-57150000D03*
X85322500Y-57150000D03*
%TD*%
%TO.C,C9*%
X76200000Y-54864000D03*
X74125000Y-54864000D03*
%TD*%
D12*
%TO.C,D1*%
X38608000Y-83312000D03*
D13*
X38608000Y-75692000D03*
%TD*%
D11*
%TO.C,C5*%
X60495000Y-47244000D03*
X58420000Y-47244000D03*
%TD*%
%TO.C,C10*%
X105177500Y-58420000D03*
X103102500Y-58420000D03*
%TD*%
%TO.C,C2*%
X122957500Y-58420000D03*
X120882500Y-58420000D03*
%TD*%
D14*
%TO.C,J2*%
X26416000Y-64770000D03*
D15*
X26416000Y-67310000D03*
%TD*%
D11*
%TO.C,C6*%
X37084000Y-57658000D03*
X35009000Y-57658000D03*
%TD*%
%TO.C,C7*%
X46990000Y-57658000D03*
X44915000Y-57658000D03*
%TD*%
D16*
%TO.C,U8*%
X70280000Y-57150000D03*
X70280000Y-58420000D03*
X70280000Y-59690000D03*
X70280000Y-60960000D03*
X70280000Y-62230000D03*
X70280000Y-63500000D03*
X70280000Y-64770000D03*
X70280000Y-66040000D03*
X70280000Y-67310000D03*
X70280000Y-68580000D03*
X79580000Y-68580000D03*
X79580000Y-67310000D03*
X79580000Y-66040000D03*
X79580000Y-64770000D03*
X79580000Y-63500000D03*
X79580000Y-62230000D03*
X79580000Y-60960000D03*
X79580000Y-59690000D03*
X79580000Y-58420000D03*
X79580000Y-57150000D03*
%TD*%
%TO.C,U2*%
X53140000Y-49490000D03*
X53140000Y-50760000D03*
X53140000Y-52030000D03*
X53140000Y-53300000D03*
X53140000Y-54570000D03*
X53140000Y-55840000D03*
X53140000Y-57110000D03*
X53140000Y-58380000D03*
X53140000Y-59650000D03*
X53140000Y-60920000D03*
X53140000Y-62190000D03*
X53140000Y-63460000D03*
X53140000Y-64730000D03*
X53140000Y-66000000D03*
X53140000Y-67270000D03*
X53140000Y-68540000D03*
X66240000Y-68540000D03*
X66240000Y-67270000D03*
X66240000Y-66000000D03*
X66240000Y-64730000D03*
X66240000Y-63460000D03*
X66240000Y-62190000D03*
X66240000Y-60920000D03*
X66240000Y-59650000D03*
X66240000Y-58380000D03*
X66240000Y-57110000D03*
X66240000Y-55840000D03*
X66240000Y-54570000D03*
X66240000Y-53300000D03*
X66240000Y-52030000D03*
X66240000Y-50760000D03*
X66240000Y-49490000D03*
%TD*%
D17*
%TO.C,U4*%
X110555000Y-59870000D03*
X110555000Y-61140000D03*
X110555000Y-62410000D03*
X110555000Y-63680000D03*
X110555000Y-64950000D03*
X110555000Y-66220000D03*
X110555000Y-67490000D03*
X110555000Y-68760000D03*
X115505000Y-68760000D03*
X115505000Y-67490000D03*
X115505000Y-66220000D03*
X115505000Y-64950000D03*
X115505000Y-63680000D03*
X115505000Y-62410000D03*
X115505000Y-61140000D03*
X115505000Y-59870000D03*
%TD*%
D12*
%TO.C,C3*%
X25400000Y-80010000D03*
D18*
X27900000Y-80010000D03*
%TD*%
D11*
%TO.C,C4*%
X96287500Y-57150000D03*
X94212500Y-57150000D03*
%TD*%
D17*
%TO.C,U9*%
X92840000Y-59870000D03*
X92840000Y-61140000D03*
X92840000Y-62410000D03*
X92840000Y-63680000D03*
X92840000Y-64950000D03*
X92840000Y-66220000D03*
X92840000Y-67490000D03*
X92840000Y-68760000D03*
X97790000Y-68760000D03*
X97790000Y-67490000D03*
X97790000Y-66220000D03*
X97790000Y-64950000D03*
X97790000Y-63680000D03*
X97790000Y-62410000D03*
X97790000Y-61140000D03*
X97790000Y-59870000D03*
%TD*%
%TO.C,U1*%
X43310000Y-59870000D03*
X43310000Y-61140000D03*
X43310000Y-62410000D03*
X43310000Y-63680000D03*
X43310000Y-64950000D03*
X43310000Y-66220000D03*
X43310000Y-67490000D03*
X43310000Y-68760000D03*
X48260000Y-68760000D03*
X48260000Y-67490000D03*
X48260000Y-66220000D03*
X48260000Y-64950000D03*
X48260000Y-63680000D03*
X48260000Y-62410000D03*
X48260000Y-61140000D03*
X48260000Y-59870000D03*
%TD*%
%TO.C,U7*%
X83885000Y-59870000D03*
X83885000Y-61140000D03*
X83885000Y-62410000D03*
X83885000Y-63680000D03*
X83885000Y-64950000D03*
X83885000Y-66220000D03*
X83885000Y-67490000D03*
X83885000Y-68760000D03*
X88835000Y-68760000D03*
X88835000Y-67490000D03*
X88835000Y-66220000D03*
X88835000Y-64950000D03*
X88835000Y-63680000D03*
X88835000Y-62410000D03*
X88835000Y-61140000D03*
X88835000Y-59870000D03*
%TD*%
D11*
%TO.C,C8*%
X113835000Y-57150000D03*
X111760000Y-57150000D03*
%TD*%
D19*
%TO.C,J3*%
X26416000Y-49530000D03*
D20*
X26416000Y-54610000D03*
%TD*%
D17*
%TO.C,U3*%
X119445000Y-61125000D03*
X119445000Y-62395000D03*
X119445000Y-63665000D03*
X119445000Y-64935000D03*
X119445000Y-66205000D03*
X119445000Y-67475000D03*
X119445000Y-68745000D03*
X124395000Y-68745000D03*
X124395000Y-67475000D03*
X124395000Y-66205000D03*
X124395000Y-64935000D03*
X124395000Y-63665000D03*
X124395000Y-62395000D03*
X124395000Y-61125000D03*
%TD*%
%TO.C,U5*%
X33658000Y-59870000D03*
X33658000Y-61140000D03*
X33658000Y-62410000D03*
X33658000Y-63680000D03*
X33658000Y-64950000D03*
X33658000Y-66220000D03*
X33658000Y-67490000D03*
X33658000Y-68760000D03*
X38608000Y-68760000D03*
X38608000Y-67490000D03*
X38608000Y-66220000D03*
X38608000Y-64950000D03*
X38608000Y-63680000D03*
X38608000Y-62410000D03*
X38608000Y-61140000D03*
X38608000Y-59870000D03*
%TD*%
%TO.C,U10*%
X101665000Y-61125000D03*
X101665000Y-62395000D03*
X101665000Y-63665000D03*
X101665000Y-64935000D03*
X101665000Y-66205000D03*
X101665000Y-67475000D03*
X101665000Y-68745000D03*
X106615000Y-68745000D03*
X106615000Y-67475000D03*
X106615000Y-66205000D03*
X106615000Y-64935000D03*
X106615000Y-63665000D03*
X106615000Y-62395000D03*
X106615000Y-61125000D03*
%TD*%
D14*
%TO.C,J1*%
X99055000Y-80518000D03*
D15*
X99055000Y-77978000D03*
X96515000Y-80518000D03*
X96515000Y-77978000D03*
X93975000Y-80518000D03*
X93975000Y-77978000D03*
X91435000Y-80518000D03*
X91435000Y-77978000D03*
X88895000Y-80518000D03*
X88895000Y-77978000D03*
X86355000Y-80518000D03*
X86355000Y-77978000D03*
X83815000Y-80518000D03*
X83815000Y-77978000D03*
X81275000Y-80518000D03*
X81275000Y-77978000D03*
X78735000Y-80518000D03*
X78735000Y-77978000D03*
X76195000Y-80518000D03*
X76195000Y-77978000D03*
X73655000Y-80518000D03*
X73655000Y-77978000D03*
X71115000Y-80518000D03*
X71115000Y-77978000D03*
X68575000Y-80518000D03*
X68575000Y-77978000D03*
X66035000Y-80518000D03*
X66035000Y-77978000D03*
X63495000Y-80518000D03*
X63495000Y-77978000D03*
X60955000Y-80518000D03*
X60955000Y-77978000D03*
X58415000Y-80518000D03*
X58415000Y-77978000D03*
X55875000Y-80518000D03*
X55875000Y-77978000D03*
X53335000Y-80518000D03*
X53335000Y-77978000D03*
X50795000Y-80518000D03*
X50795000Y-77978000D03*
%TD*%
M02*
