M48
; DRILL file {KiCad 8.0.2} date 2024-08-07T07:54:52+0200
; FORMAT={-:-/ absolute / inch / decimal}
; #@! TF.CreationDate,2024-08-07T07:54:52+02:00
; #@! TF.GenerationSoftware,Kicad,Pcbnew,8.0.2
; #@! TF.FileFunction,Plated,1,2,PTH
FMAT,2
INCH
; #@! TA.AperFunction,Plated,PTH,ViaDrill
T1C0.0157
; #@! TA.AperFunction,Plated,PTH,ComponentDrill
T2C0.0315
; #@! TA.AperFunction,Plated,PTH,ComponentDrill
T3C0.0394
; #@! TA.AperFunction,Plated,PTH,ComponentDrill
T4C0.0598
%
G90
G05
T1
X1.2671Y-2.5792
X1.3482Y-2.3205
X1.4403Y-2.5987
X1.57Y-2.27
X1.6215Y-2.5308
X1.6421Y-2.4337
X1.6431Y-2.4731
X1.6458Y-2.5813
X1.6857Y-2.3084
X1.8372Y-2.4821
X1.8446Y-2.4321
X1.95Y-2.27
X1.987Y-2.5813
X2.0062Y-2.4642
X2.0091Y-3.2776
X2.0303Y-2.3698
X2.0336Y-2.3237
X2.1576Y-2.2466
X2.1999Y-2.1901
X2.2701Y-1.9984
X2.2735Y-2.9554
X2.49Y-1.86
X2.5151Y-2.1899
X2.5437Y-2.2407
X2.5447Y-2.3716
X2.6662Y-2.3232
X2.6725Y-2.7093
X2.685Y-2.462
X2.696Y-2.3494
X2.725Y-2.1891
X2.8313Y-2.2527
X2.8609Y-2.4484
X2.8895Y-2.4
X2.8897Y-2.3184
X2.9926Y-2.9165
X3.0563Y-2.6166
X3.0576Y-2.7085
X3.058Y-2.6622
X3.0663Y-2.5566
X3.0687Y-2.4464
X3.0704Y-2.371
X3.0747Y-2.9572
X3.12Y-2.16
X3.1692Y-2.7371
X3.2259Y-3.0045
X3.2359Y-2.6022
X3.2392Y-2.3679
X3.24Y-2.5233
X3.2404Y-2.4616
X3.2407Y-2.676
X3.2631Y-2.9572
X3.3296Y-2.3198
X3.3998Y-2.8352
X3.4006Y-2.2075
X3.4053Y-2.5091
X3.4205Y-2.8716
X3.4272Y-2.5622
X3.432Y-2.7008
X3.4348Y-2.6541
X3.5395Y-2.7778
X3.55Y-2.25
X3.5906Y-2.3114
X3.5916Y-2.6172
X3.5924Y-2.4071
X3.5928Y-2.4549
X3.6141Y-2.7955
X3.6805Y-2.3211
X3.748Y-2.2093
X3.7597Y-2.6066
X3.7876Y-2.7041
X3.7878Y-2.3985
X3.9Y-2.25
X3.9301Y-2.4559
X3.9322Y-2.618
X3.9364Y-2.8583
X4.0886Y-2.5904
X4.1145Y-2.5319
X4.1154Y-2.4267
X4.26Y-2.3
X4.2705Y-2.5508
X4.2814Y-2.5071
X4.4326Y-2.5725
X4.4586Y-2.3784
X4.4587Y-2.608
X4.4875Y-2.6781
X4.59Y-2.25
X4.6039Y-2.531
X4.6405Y-2.6408
X4.9Y-2.3
T2
X1.0Y-3.15
X1.0984Y-3.15
X1.52Y-2.98
X1.52Y-3.28
T3
X1.04Y-2.55
X1.04Y-2.65
X1.9998Y-3.07
X1.9998Y-3.17
X2.0998Y-3.07
X2.0998Y-3.17
X2.1998Y-3.07
X2.1998Y-3.17
X2.2998Y-3.07
X2.2998Y-3.17
X2.3998Y-3.07
X2.3998Y-3.17
X2.4998Y-3.07
X2.4998Y-3.17
X2.5998Y-3.07
X2.5998Y-3.17
X2.6998Y-3.07
X2.6998Y-3.17
X2.7998Y-3.07
X2.7998Y-3.17
X2.8998Y-3.07
X2.8998Y-3.17
X2.9998Y-3.07
X2.9998Y-3.17
X3.0998Y-3.07
X3.0998Y-3.17
X3.1998Y-3.07
X3.1998Y-3.17
X3.2998Y-3.07
X3.2998Y-3.17
X3.3998Y-3.07
X3.3998Y-3.17
X3.4998Y-3.07
X3.4998Y-3.17
X3.5998Y-3.07
X3.5998Y-3.17
X3.6998Y-3.07
X3.6998Y-3.17
X3.7998Y-3.07
X3.7998Y-3.17
X3.8998Y-3.07
X3.8998Y-3.17
T4
X1.04Y-1.95
X1.04Y-2.15
M30
