%TF.GenerationSoftware,KiCad,Pcbnew,8.0.2*%
%TF.CreationDate,2024-08-18T09:09:39+02:00*%
%TF.ProjectId,p2000t-ram-expansion-board-128kb-smd,70323030-3074-42d7-9261-6d2d65787061,4*%
%TF.SameCoordinates,Original*%
%TF.FileFunction,Paste,Top*%
%TF.FilePolarity,Positive*%
%FSLAX46Y46*%
G04 Gerber Fmt 4.6, Leading zero omitted, Abs format (unit mm)*
G04 Created by KiCad (PCBNEW 8.0.2) date 2024-08-18 09:09:39*
%MOMM*%
%LPD*%
G01*
G04 APERTURE LIST*
G04 Aperture macros list*
%AMRoundRect*
0 Rectangle with rounded corners*
0 $1 Rounding radius*
0 $2 $3 $4 $5 $6 $7 $8 $9 X,Y pos of 4 corners*
0 Add a 4 corners polygon primitive as box body*
4,1,4,$2,$3,$4,$5,$6,$7,$8,$9,$2,$3,0*
0 Add four circle primitives for the rounded corners*
1,1,$1+$1,$2,$3*
1,1,$1+$1,$4,$5*
1,1,$1+$1,$6,$7*
1,1,$1+$1,$8,$9*
0 Add four rect primitives between the rounded corners*
20,1,$1+$1,$2,$3,$4,$5,0*
20,1,$1+$1,$4,$5,$6,$7,0*
20,1,$1+$1,$6,$7,$8,$9,0*
20,1,$1+$1,$8,$9,$2,$3,0*%
G04 Aperture macros list end*
%ADD10RoundRect,0.250000X0.337500X0.475000X-0.337500X0.475000X-0.337500X-0.475000X0.337500X-0.475000X0*%
%ADD11RoundRect,0.150000X-0.875000X-0.150000X0.875000X-0.150000X0.875000X0.150000X-0.875000X0.150000X0*%
%ADD12RoundRect,0.150000X-0.825000X-0.150000X0.825000X-0.150000X0.825000X0.150000X-0.825000X0.150000X0*%
G04 APERTURE END LIST*
D10*
%TO.C,C1*%
X87397500Y-57150000D03*
X85322500Y-57150000D03*
%TD*%
%TO.C,C9*%
X76200000Y-54864000D03*
X74125000Y-54864000D03*
%TD*%
%TO.C,C5*%
X60495000Y-47244000D03*
X58420000Y-47244000D03*
%TD*%
%TO.C,C10*%
X105177500Y-58420000D03*
X103102500Y-58420000D03*
%TD*%
%TO.C,C2*%
X122957500Y-58420000D03*
X120882500Y-58420000D03*
%TD*%
%TO.C,C6*%
X37084000Y-57658000D03*
X35009000Y-57658000D03*
%TD*%
%TO.C,C7*%
X46990000Y-57658000D03*
X44915000Y-57658000D03*
%TD*%
D11*
%TO.C,U8*%
X70280000Y-57150000D03*
X70280000Y-58420000D03*
X70280000Y-59690000D03*
X70280000Y-60960000D03*
X70280000Y-62230000D03*
X70280000Y-63500000D03*
X70280000Y-64770000D03*
X70280000Y-66040000D03*
X70280000Y-67310000D03*
X70280000Y-68580000D03*
X79580000Y-68580000D03*
X79580000Y-67310000D03*
X79580000Y-66040000D03*
X79580000Y-64770000D03*
X79580000Y-63500000D03*
X79580000Y-62230000D03*
X79580000Y-60960000D03*
X79580000Y-59690000D03*
X79580000Y-58420000D03*
X79580000Y-57150000D03*
%TD*%
%TO.C,U2*%
X53140000Y-49490000D03*
X53140000Y-50760000D03*
X53140000Y-52030000D03*
X53140000Y-53300000D03*
X53140000Y-54570000D03*
X53140000Y-55840000D03*
X53140000Y-57110000D03*
X53140000Y-58380000D03*
X53140000Y-59650000D03*
X53140000Y-60920000D03*
X53140000Y-62190000D03*
X53140000Y-63460000D03*
X53140000Y-64730000D03*
X53140000Y-66000000D03*
X53140000Y-67270000D03*
X53140000Y-68540000D03*
X66240000Y-68540000D03*
X66240000Y-67270000D03*
X66240000Y-66000000D03*
X66240000Y-64730000D03*
X66240000Y-63460000D03*
X66240000Y-62190000D03*
X66240000Y-60920000D03*
X66240000Y-59650000D03*
X66240000Y-58380000D03*
X66240000Y-57110000D03*
X66240000Y-55840000D03*
X66240000Y-54570000D03*
X66240000Y-53300000D03*
X66240000Y-52030000D03*
X66240000Y-50760000D03*
X66240000Y-49490000D03*
%TD*%
D12*
%TO.C,U4*%
X110555000Y-59870000D03*
X110555000Y-61140000D03*
X110555000Y-62410000D03*
X110555000Y-63680000D03*
X110555000Y-64950000D03*
X110555000Y-66220000D03*
X110555000Y-67490000D03*
X110555000Y-68760000D03*
X115505000Y-68760000D03*
X115505000Y-67490000D03*
X115505000Y-66220000D03*
X115505000Y-64950000D03*
X115505000Y-63680000D03*
X115505000Y-62410000D03*
X115505000Y-61140000D03*
X115505000Y-59870000D03*
%TD*%
D10*
%TO.C,C4*%
X96287500Y-57150000D03*
X94212500Y-57150000D03*
%TD*%
D12*
%TO.C,U9*%
X92840000Y-59870000D03*
X92840000Y-61140000D03*
X92840000Y-62410000D03*
X92840000Y-63680000D03*
X92840000Y-64950000D03*
X92840000Y-66220000D03*
X92840000Y-67490000D03*
X92840000Y-68760000D03*
X97790000Y-68760000D03*
X97790000Y-67490000D03*
X97790000Y-66220000D03*
X97790000Y-64950000D03*
X97790000Y-63680000D03*
X97790000Y-62410000D03*
X97790000Y-61140000D03*
X97790000Y-59870000D03*
%TD*%
%TO.C,U1*%
X43310000Y-59870000D03*
X43310000Y-61140000D03*
X43310000Y-62410000D03*
X43310000Y-63680000D03*
X43310000Y-64950000D03*
X43310000Y-66220000D03*
X43310000Y-67490000D03*
X43310000Y-68760000D03*
X48260000Y-68760000D03*
X48260000Y-67490000D03*
X48260000Y-66220000D03*
X48260000Y-64950000D03*
X48260000Y-63680000D03*
X48260000Y-62410000D03*
X48260000Y-61140000D03*
X48260000Y-59870000D03*
%TD*%
%TO.C,U7*%
X83885000Y-59870000D03*
X83885000Y-61140000D03*
X83885000Y-62410000D03*
X83885000Y-63680000D03*
X83885000Y-64950000D03*
X83885000Y-66220000D03*
X83885000Y-67490000D03*
X83885000Y-68760000D03*
X88835000Y-68760000D03*
X88835000Y-67490000D03*
X88835000Y-66220000D03*
X88835000Y-64950000D03*
X88835000Y-63680000D03*
X88835000Y-62410000D03*
X88835000Y-61140000D03*
X88835000Y-59870000D03*
%TD*%
D10*
%TO.C,C8*%
X113835000Y-57150000D03*
X111760000Y-57150000D03*
%TD*%
D12*
%TO.C,U3*%
X119445000Y-61125000D03*
X119445000Y-62395000D03*
X119445000Y-63665000D03*
X119445000Y-64935000D03*
X119445000Y-66205000D03*
X119445000Y-67475000D03*
X119445000Y-68745000D03*
X124395000Y-68745000D03*
X124395000Y-67475000D03*
X124395000Y-66205000D03*
X124395000Y-64935000D03*
X124395000Y-63665000D03*
X124395000Y-62395000D03*
X124395000Y-61125000D03*
%TD*%
%TO.C,U5*%
X33658000Y-59870000D03*
X33658000Y-61140000D03*
X33658000Y-62410000D03*
X33658000Y-63680000D03*
X33658000Y-64950000D03*
X33658000Y-66220000D03*
X33658000Y-67490000D03*
X33658000Y-68760000D03*
X38608000Y-68760000D03*
X38608000Y-67490000D03*
X38608000Y-66220000D03*
X38608000Y-64950000D03*
X38608000Y-63680000D03*
X38608000Y-62410000D03*
X38608000Y-61140000D03*
X38608000Y-59870000D03*
%TD*%
%TO.C,U10*%
X101665000Y-61125000D03*
X101665000Y-62395000D03*
X101665000Y-63665000D03*
X101665000Y-64935000D03*
X101665000Y-66205000D03*
X101665000Y-67475000D03*
X101665000Y-68745000D03*
X106615000Y-68745000D03*
X106615000Y-67475000D03*
X106615000Y-66205000D03*
X106615000Y-64935000D03*
X106615000Y-63665000D03*
X106615000Y-62395000D03*
X106615000Y-61125000D03*
%TD*%
M02*
