%TF.GenerationSoftware,KiCad,Pcbnew,8.0.2*%
%TF.CreationDate,2024-08-07T07:54:49+02:00*%
%TF.ProjectId,p2000t-ram-expansion-board-128kb-smd,70323030-3074-42d7-9261-6d2d65787061,4*%
%TF.SameCoordinates,Original*%
%TF.FileFunction,Legend,Top*%
%TF.FilePolarity,Positive*%
%FSLAX46Y46*%
G04 Gerber Fmt 4.6, Leading zero omitted, Abs format (unit mm)*
G04 Created by KiCad (PCBNEW 8.0.2) date 2024-08-07 07:54:49*
%MOMM*%
%LPD*%
G01*
G04 APERTURE LIST*
%ADD10C,0.150000*%
%ADD11C,0.200000*%
%ADD12C,0.100000*%
%ADD13C,0.120000*%
G04 APERTURE END LIST*
D10*
X97663000Y-82397600D02*
X100457000Y-82397600D01*
X100457000Y-82651600D01*
X97663000Y-82651600D01*
X97663000Y-82397600D01*
G36*
X97663000Y-82397600D02*
G01*
X100457000Y-82397600D01*
X100457000Y-82651600D01*
X97663000Y-82651600D01*
X97663000Y-82397600D01*
G37*
D11*
X28293768Y-64514933D02*
X29817578Y-64514933D01*
X28293768Y-67308933D02*
X29817578Y-67308933D01*
X29055673Y-68070838D02*
X29055673Y-66547028D01*
X30833768Y-49528933D02*
X32357578Y-49528933D01*
X30833768Y-54608933D02*
X32357578Y-54608933D01*
X31595673Y-55370838D02*
X31595673Y-53847028D01*
D10*
X105791000Y-74803000D02*
X110871000Y-74803000D01*
X110871000Y-79883000D01*
X105791000Y-79883000D01*
X105791000Y-74803000D01*
G36*
X105791000Y-74803000D02*
G01*
X110871000Y-74803000D01*
X110871000Y-79883000D01*
X105791000Y-79883000D01*
X105791000Y-74803000D01*
G37*
X101092000Y-79171800D02*
X101346000Y-79171800D01*
X101346000Y-81965800D01*
X101092000Y-81965800D01*
X101092000Y-79171800D01*
G36*
X101092000Y-79171800D02*
G01*
X101346000Y-79171800D01*
X101346000Y-81965800D01*
X101092000Y-81965800D01*
X101092000Y-79171800D01*
G37*
X105791000Y-81026000D02*
X110871000Y-81026000D01*
X110871000Y-86106000D01*
X105791000Y-86106000D01*
X105791000Y-81026000D01*
G36*
X105791000Y-81026000D02*
G01*
X110871000Y-81026000D01*
X110871000Y-86106000D01*
X105791000Y-86106000D01*
X105791000Y-81026000D01*
G37*
X72644000Y-45847000D02*
X120904000Y-45847000D01*
X120904000Y-48387000D01*
X72644000Y-48387000D01*
X72644000Y-45847000D01*
X48938000Y-76200000D02*
X101008000Y-76200000D01*
X101008000Y-82296000D01*
X48938000Y-82296000D01*
X48938000Y-76200000D01*
X66410819Y-75037792D02*
X65934628Y-75371125D01*
X66410819Y-75609220D02*
X65410819Y-75609220D01*
X65410819Y-75609220D02*
X65410819Y-75228268D01*
X65410819Y-75228268D02*
X65458438Y-75133030D01*
X65458438Y-75133030D02*
X65506057Y-75085411D01*
X65506057Y-75085411D02*
X65601295Y-75037792D01*
X65601295Y-75037792D02*
X65744152Y-75037792D01*
X65744152Y-75037792D02*
X65839390Y-75085411D01*
X65839390Y-75085411D02*
X65887009Y-75133030D01*
X65887009Y-75133030D02*
X65934628Y-75228268D01*
X65934628Y-75228268D02*
X65934628Y-75609220D01*
X66410819Y-74609220D02*
X65410819Y-74609220D01*
X65410819Y-74609220D02*
X65410819Y-74371125D01*
X65410819Y-74371125D02*
X65458438Y-74228268D01*
X65458438Y-74228268D02*
X65553676Y-74133030D01*
X65553676Y-74133030D02*
X65648914Y-74085411D01*
X65648914Y-74085411D02*
X65839390Y-74037792D01*
X65839390Y-74037792D02*
X65982247Y-74037792D01*
X65982247Y-74037792D02*
X66172723Y-74085411D01*
X66172723Y-74085411D02*
X66267961Y-74133030D01*
X66267961Y-74133030D02*
X66363200Y-74228268D01*
X66363200Y-74228268D02*
X66410819Y-74371125D01*
X66410819Y-74371125D02*
X66410819Y-74609220D01*
X65133200Y-75747316D02*
X65133200Y-73947316D01*
X63124819Y-75704458D02*
X64124819Y-75466363D01*
X64124819Y-75466363D02*
X63410533Y-75275887D01*
X63410533Y-75275887D02*
X64124819Y-75085411D01*
X64124819Y-75085411D02*
X63124819Y-74847316D01*
X64124819Y-73894935D02*
X63648628Y-74228268D01*
X64124819Y-74466363D02*
X63124819Y-74466363D01*
X63124819Y-74466363D02*
X63124819Y-74085411D01*
X63124819Y-74085411D02*
X63172438Y-73990173D01*
X63172438Y-73990173D02*
X63220057Y-73942554D01*
X63220057Y-73942554D02*
X63315295Y-73894935D01*
X63315295Y-73894935D02*
X63458152Y-73894935D01*
X63458152Y-73894935D02*
X63553390Y-73942554D01*
X63553390Y-73942554D02*
X63601009Y-73990173D01*
X63601009Y-73990173D02*
X63648628Y-74085411D01*
X63648628Y-74085411D02*
X63648628Y-74466363D01*
X62847200Y-75747316D02*
X62847200Y-73804459D01*
X79079104Y-84521731D02*
X79079104Y-84045541D01*
X79364819Y-84616969D02*
X78364819Y-84283636D01*
X78364819Y-84283636D02*
X79364819Y-83950303D01*
X78364819Y-83188398D02*
X78364819Y-83378874D01*
X78364819Y-83378874D02*
X78412438Y-83474112D01*
X78412438Y-83474112D02*
X78460057Y-83521731D01*
X78460057Y-83521731D02*
X78602914Y-83616969D01*
X78602914Y-83616969D02*
X78793390Y-83664588D01*
X78793390Y-83664588D02*
X79174342Y-83664588D01*
X79174342Y-83664588D02*
X79269580Y-83616969D01*
X79269580Y-83616969D02*
X79317200Y-83569350D01*
X79317200Y-83569350D02*
X79364819Y-83474112D01*
X79364819Y-83474112D02*
X79364819Y-83283636D01*
X79364819Y-83283636D02*
X79317200Y-83188398D01*
X79317200Y-83188398D02*
X79269580Y-83140779D01*
X79269580Y-83140779D02*
X79174342Y-83093160D01*
X79174342Y-83093160D02*
X78936247Y-83093160D01*
X78936247Y-83093160D02*
X78841009Y-83140779D01*
X78841009Y-83140779D02*
X78793390Y-83188398D01*
X78793390Y-83188398D02*
X78745771Y-83283636D01*
X78745771Y-83283636D02*
X78745771Y-83474112D01*
X78745771Y-83474112D02*
X78793390Y-83569350D01*
X78793390Y-83569350D02*
X78841009Y-83616969D01*
X78841009Y-83616969D02*
X78936247Y-83664588D01*
X73745104Y-75656839D02*
X73745104Y-75180649D01*
X74030819Y-75752077D02*
X73030819Y-75418744D01*
X73030819Y-75418744D02*
X74030819Y-75085411D01*
X74030819Y-74228268D02*
X74030819Y-74799696D01*
X74030819Y-74513982D02*
X73030819Y-74513982D01*
X73030819Y-74513982D02*
X73173676Y-74609220D01*
X73173676Y-74609220D02*
X73268914Y-74704458D01*
X73268914Y-74704458D02*
X73316533Y-74799696D01*
X74030819Y-73275887D02*
X74030819Y-73847315D01*
X74030819Y-73561601D02*
X73030819Y-73561601D01*
X73030819Y-73561601D02*
X73173676Y-73656839D01*
X73173676Y-73656839D02*
X73268914Y-73752077D01*
X73268914Y-73752077D02*
X73316533Y-73847315D01*
X61330819Y-86236016D02*
X60330819Y-86236016D01*
X60330819Y-85569350D02*
X60330819Y-85378874D01*
X60330819Y-85378874D02*
X60378438Y-85283636D01*
X60378438Y-85283636D02*
X60473676Y-85188398D01*
X60473676Y-85188398D02*
X60664152Y-85140779D01*
X60664152Y-85140779D02*
X60997485Y-85140779D01*
X60997485Y-85140779D02*
X61187961Y-85188398D01*
X61187961Y-85188398D02*
X61283200Y-85283636D01*
X61283200Y-85283636D02*
X61330819Y-85378874D01*
X61330819Y-85378874D02*
X61330819Y-85569350D01*
X61330819Y-85569350D02*
X61283200Y-85664588D01*
X61283200Y-85664588D02*
X61187961Y-85759826D01*
X61187961Y-85759826D02*
X60997485Y-85807445D01*
X60997485Y-85807445D02*
X60664152Y-85807445D01*
X60664152Y-85807445D02*
X60473676Y-85759826D01*
X60473676Y-85759826D02*
X60378438Y-85664588D01*
X60378438Y-85664588D02*
X60330819Y-85569350D01*
X61330819Y-84140779D02*
X60854628Y-84474112D01*
X61330819Y-84712207D02*
X60330819Y-84712207D01*
X60330819Y-84712207D02*
X60330819Y-84331255D01*
X60330819Y-84331255D02*
X60378438Y-84236017D01*
X60378438Y-84236017D02*
X60426057Y-84188398D01*
X60426057Y-84188398D02*
X60521295Y-84140779D01*
X60521295Y-84140779D02*
X60664152Y-84140779D01*
X60664152Y-84140779D02*
X60759390Y-84188398D01*
X60759390Y-84188398D02*
X60807009Y-84236017D01*
X60807009Y-84236017D02*
X60854628Y-84331255D01*
X60854628Y-84331255D02*
X60854628Y-84712207D01*
X61426057Y-83045541D02*
X61378438Y-83140779D01*
X61378438Y-83140779D02*
X61283200Y-83236017D01*
X61283200Y-83236017D02*
X61140342Y-83378874D01*
X61140342Y-83378874D02*
X61092723Y-83474112D01*
X61092723Y-83474112D02*
X61092723Y-83569350D01*
X61330819Y-83521731D02*
X61283200Y-83616969D01*
X61283200Y-83616969D02*
X61187961Y-83712207D01*
X61187961Y-83712207D02*
X60997485Y-83759826D01*
X60997485Y-83759826D02*
X60664152Y-83759826D01*
X60664152Y-83759826D02*
X60473676Y-83712207D01*
X60473676Y-83712207D02*
X60378438Y-83616969D01*
X60378438Y-83616969D02*
X60330819Y-83521731D01*
X60330819Y-83521731D02*
X60330819Y-83331255D01*
X60330819Y-83331255D02*
X60378438Y-83236017D01*
X60378438Y-83236017D02*
X60473676Y-83140779D01*
X60473676Y-83140779D02*
X60664152Y-83093160D01*
X60664152Y-83093160D02*
X60997485Y-83093160D01*
X60997485Y-83093160D02*
X61187961Y-83140779D01*
X61187961Y-83140779D02*
X61283200Y-83236017D01*
X61283200Y-83236017D02*
X61330819Y-83331255D01*
X61330819Y-83331255D02*
X61330819Y-83521731D01*
X60053200Y-86374112D02*
X60053200Y-83002684D01*
X86699104Y-84521731D02*
X86699104Y-84045541D01*
X86984819Y-84616969D02*
X85984819Y-84283636D01*
X85984819Y-84283636D02*
X86984819Y-83950303D01*
X85984819Y-83426493D02*
X85984819Y-83331255D01*
X85984819Y-83331255D02*
X86032438Y-83236017D01*
X86032438Y-83236017D02*
X86080057Y-83188398D01*
X86080057Y-83188398D02*
X86175295Y-83140779D01*
X86175295Y-83140779D02*
X86365771Y-83093160D01*
X86365771Y-83093160D02*
X86603866Y-83093160D01*
X86603866Y-83093160D02*
X86794342Y-83140779D01*
X86794342Y-83140779D02*
X86889580Y-83188398D01*
X86889580Y-83188398D02*
X86937200Y-83236017D01*
X86937200Y-83236017D02*
X86984819Y-83331255D01*
X86984819Y-83331255D02*
X86984819Y-83426493D01*
X86984819Y-83426493D02*
X86937200Y-83521731D01*
X86937200Y-83521731D02*
X86889580Y-83569350D01*
X86889580Y-83569350D02*
X86794342Y-83616969D01*
X86794342Y-83616969D02*
X86603866Y-83664588D01*
X86603866Y-83664588D02*
X86365771Y-83664588D01*
X86365771Y-83664588D02*
X86175295Y-83616969D01*
X86175295Y-83616969D02*
X86080057Y-83569350D01*
X86080057Y-83569350D02*
X86032438Y-83521731D01*
X86032438Y-83521731D02*
X85984819Y-83426493D01*
X96890819Y-75609220D02*
X95890819Y-75609220D01*
X95890819Y-75609220D02*
X95890819Y-75371125D01*
X95890819Y-75371125D02*
X95938438Y-75228268D01*
X95938438Y-75228268D02*
X96033676Y-75133030D01*
X96033676Y-75133030D02*
X96128914Y-75085411D01*
X96128914Y-75085411D02*
X96319390Y-75037792D01*
X96319390Y-75037792D02*
X96462247Y-75037792D01*
X96462247Y-75037792D02*
X96652723Y-75085411D01*
X96652723Y-75085411D02*
X96747961Y-75133030D01*
X96747961Y-75133030D02*
X96843200Y-75228268D01*
X96843200Y-75228268D02*
X96890819Y-75371125D01*
X96890819Y-75371125D02*
X96890819Y-75609220D01*
X96890819Y-74085411D02*
X96890819Y-74656839D01*
X96890819Y-74371125D02*
X95890819Y-74371125D01*
X95890819Y-74371125D02*
X96033676Y-74466363D01*
X96033676Y-74466363D02*
X96128914Y-74561601D01*
X96128914Y-74561601D02*
X96176533Y-74656839D01*
X71205104Y-85474112D02*
X71205104Y-84997922D01*
X71490819Y-85569350D02*
X70490819Y-85236017D01*
X70490819Y-85236017D02*
X71490819Y-84902684D01*
X71490819Y-84045541D02*
X71490819Y-84616969D01*
X71490819Y-84331255D02*
X70490819Y-84331255D01*
X70490819Y-84331255D02*
X70633676Y-84426493D01*
X70633676Y-84426493D02*
X70728914Y-84521731D01*
X70728914Y-84521731D02*
X70776533Y-84616969D01*
X70586057Y-83664588D02*
X70538438Y-83616969D01*
X70538438Y-83616969D02*
X70490819Y-83521731D01*
X70490819Y-83521731D02*
X70490819Y-83283636D01*
X70490819Y-83283636D02*
X70538438Y-83188398D01*
X70538438Y-83188398D02*
X70586057Y-83140779D01*
X70586057Y-83140779D02*
X70681295Y-83093160D01*
X70681295Y-83093160D02*
X70776533Y-83093160D01*
X70776533Y-83093160D02*
X70919390Y-83140779D01*
X70919390Y-83140779D02*
X71490819Y-83712207D01*
X71490819Y-83712207D02*
X71490819Y-83093160D01*
X89524819Y-84616969D02*
X88524819Y-84616969D01*
X88524819Y-84616969D02*
X88524819Y-84378874D01*
X88524819Y-84378874D02*
X88572438Y-84236017D01*
X88572438Y-84236017D02*
X88667676Y-84140779D01*
X88667676Y-84140779D02*
X88762914Y-84093160D01*
X88762914Y-84093160D02*
X88953390Y-84045541D01*
X88953390Y-84045541D02*
X89096247Y-84045541D01*
X89096247Y-84045541D02*
X89286723Y-84093160D01*
X89286723Y-84093160D02*
X89381961Y-84140779D01*
X89381961Y-84140779D02*
X89477200Y-84236017D01*
X89477200Y-84236017D02*
X89524819Y-84378874D01*
X89524819Y-84378874D02*
X89524819Y-84616969D01*
X88524819Y-83188398D02*
X88524819Y-83378874D01*
X88524819Y-83378874D02*
X88572438Y-83474112D01*
X88572438Y-83474112D02*
X88620057Y-83521731D01*
X88620057Y-83521731D02*
X88762914Y-83616969D01*
X88762914Y-83616969D02*
X88953390Y-83664588D01*
X88953390Y-83664588D02*
X89334342Y-83664588D01*
X89334342Y-83664588D02*
X89429580Y-83616969D01*
X89429580Y-83616969D02*
X89477200Y-83569350D01*
X89477200Y-83569350D02*
X89524819Y-83474112D01*
X89524819Y-83474112D02*
X89524819Y-83283636D01*
X89524819Y-83283636D02*
X89477200Y-83188398D01*
X89477200Y-83188398D02*
X89429580Y-83140779D01*
X89429580Y-83140779D02*
X89334342Y-83093160D01*
X89334342Y-83093160D02*
X89096247Y-83093160D01*
X89096247Y-83093160D02*
X89001009Y-83140779D01*
X89001009Y-83140779D02*
X88953390Y-83188398D01*
X88953390Y-83188398D02*
X88905771Y-83283636D01*
X88905771Y-83283636D02*
X88905771Y-83474112D01*
X88905771Y-83474112D02*
X88953390Y-83569350D01*
X88953390Y-83569350D02*
X89001009Y-83616969D01*
X89001009Y-83616969D02*
X89096247Y-83664588D01*
X111722819Y-78239809D02*
X111722819Y-78049333D01*
X111722819Y-78049333D02*
X111770438Y-77954095D01*
X111770438Y-77954095D02*
X111865676Y-77858857D01*
X111865676Y-77858857D02*
X112056152Y-77811238D01*
X112056152Y-77811238D02*
X112389485Y-77811238D01*
X112389485Y-77811238D02*
X112579961Y-77858857D01*
X112579961Y-77858857D02*
X112675200Y-77954095D01*
X112675200Y-77954095D02*
X112722819Y-78049333D01*
X112722819Y-78049333D02*
X112722819Y-78239809D01*
X112722819Y-78239809D02*
X112675200Y-78335047D01*
X112675200Y-78335047D02*
X112579961Y-78430285D01*
X112579961Y-78430285D02*
X112389485Y-78477904D01*
X112389485Y-78477904D02*
X112056152Y-78477904D01*
X112056152Y-78477904D02*
X111865676Y-78430285D01*
X111865676Y-78430285D02*
X111770438Y-78335047D01*
X111770438Y-78335047D02*
X111722819Y-78239809D01*
X112722819Y-77382666D02*
X111722819Y-77382666D01*
X112722819Y-76811238D02*
X112151390Y-77239809D01*
X111722819Y-76811238D02*
X112294247Y-77382666D01*
X112627580Y-76239809D02*
X112675200Y-76192190D01*
X112675200Y-76192190D02*
X112722819Y-76239809D01*
X112722819Y-76239809D02*
X112675200Y-76287428D01*
X112675200Y-76287428D02*
X112627580Y-76239809D01*
X112627580Y-76239809D02*
X112722819Y-76239809D01*
X111770438Y-76430285D02*
X111722819Y-76335047D01*
X111722819Y-76335047D02*
X111722819Y-76096952D01*
X111722819Y-76096952D02*
X111770438Y-76001714D01*
X111770438Y-76001714D02*
X111865676Y-75954095D01*
X111865676Y-75954095D02*
X111960914Y-75954095D01*
X111960914Y-75954095D02*
X112056152Y-76001714D01*
X112056152Y-76001714D02*
X112103771Y-76049333D01*
X112103771Y-76049333D02*
X112151390Y-76144571D01*
X112151390Y-76144571D02*
X112199009Y-76192190D01*
X112199009Y-76192190D02*
X112294247Y-76239809D01*
X112294247Y-76239809D02*
X112341866Y-76239809D01*
X81619104Y-84521731D02*
X81619104Y-84045541D01*
X81904819Y-84616969D02*
X80904819Y-84283636D01*
X80904819Y-84283636D02*
X81904819Y-83950303D01*
X81238152Y-83188398D02*
X81904819Y-83188398D01*
X80857200Y-83426493D02*
X81571485Y-83664588D01*
X81571485Y-83664588D02*
X81571485Y-83045541D01*
X128724819Y-88952857D02*
X127724819Y-88952857D01*
X128724819Y-88524286D02*
X128201009Y-88524286D01*
X128201009Y-88524286D02*
X128105771Y-88571905D01*
X128105771Y-88571905D02*
X128058152Y-88667143D01*
X128058152Y-88667143D02*
X128058152Y-88810000D01*
X128058152Y-88810000D02*
X128105771Y-88905238D01*
X128105771Y-88905238D02*
X128153390Y-88952857D01*
X128058152Y-88190952D02*
X128058152Y-87810000D01*
X127724819Y-88048095D02*
X128581961Y-88048095D01*
X128581961Y-88048095D02*
X128677200Y-88000476D01*
X128677200Y-88000476D02*
X128724819Y-87905238D01*
X128724819Y-87905238D02*
X128724819Y-87810000D01*
X128058152Y-87619523D02*
X128058152Y-87238571D01*
X127724819Y-87476666D02*
X128581961Y-87476666D01*
X128581961Y-87476666D02*
X128677200Y-87429047D01*
X128677200Y-87429047D02*
X128724819Y-87333809D01*
X128724819Y-87333809D02*
X128724819Y-87238571D01*
X128058152Y-86905237D02*
X129058152Y-86905237D01*
X128105771Y-86905237D02*
X128058152Y-86809999D01*
X128058152Y-86809999D02*
X128058152Y-86619523D01*
X128058152Y-86619523D02*
X128105771Y-86524285D01*
X128105771Y-86524285D02*
X128153390Y-86476666D01*
X128153390Y-86476666D02*
X128248628Y-86429047D01*
X128248628Y-86429047D02*
X128534342Y-86429047D01*
X128534342Y-86429047D02*
X128629580Y-86476666D01*
X128629580Y-86476666D02*
X128677200Y-86524285D01*
X128677200Y-86524285D02*
X128724819Y-86619523D01*
X128724819Y-86619523D02*
X128724819Y-86809999D01*
X128724819Y-86809999D02*
X128677200Y-86905237D01*
X128677200Y-86048094D02*
X128724819Y-85952856D01*
X128724819Y-85952856D02*
X128724819Y-85762380D01*
X128724819Y-85762380D02*
X128677200Y-85667142D01*
X128677200Y-85667142D02*
X128581961Y-85619523D01*
X128581961Y-85619523D02*
X128534342Y-85619523D01*
X128534342Y-85619523D02*
X128439104Y-85667142D01*
X128439104Y-85667142D02*
X128391485Y-85762380D01*
X128391485Y-85762380D02*
X128391485Y-85905237D01*
X128391485Y-85905237D02*
X128343866Y-86000475D01*
X128343866Y-86000475D02*
X128248628Y-86048094D01*
X128248628Y-86048094D02*
X128201009Y-86048094D01*
X128201009Y-86048094D02*
X128105771Y-86000475D01*
X128105771Y-86000475D02*
X128058152Y-85905237D01*
X128058152Y-85905237D02*
X128058152Y-85762380D01*
X128058152Y-85762380D02*
X128105771Y-85667142D01*
X128629580Y-85190951D02*
X128677200Y-85143332D01*
X128677200Y-85143332D02*
X128724819Y-85190951D01*
X128724819Y-85190951D02*
X128677200Y-85238570D01*
X128677200Y-85238570D02*
X128629580Y-85190951D01*
X128629580Y-85190951D02*
X128724819Y-85190951D01*
X128105771Y-85190951D02*
X128153390Y-85143332D01*
X128153390Y-85143332D02*
X128201009Y-85190951D01*
X128201009Y-85190951D02*
X128153390Y-85238570D01*
X128153390Y-85238570D02*
X128105771Y-85190951D01*
X128105771Y-85190951D02*
X128201009Y-85190951D01*
X127677200Y-84000476D02*
X128962914Y-84857618D01*
X127677200Y-82952857D02*
X128962914Y-83809999D01*
X128058152Y-82190952D02*
X128867676Y-82190952D01*
X128867676Y-82190952D02*
X128962914Y-82238571D01*
X128962914Y-82238571D02*
X129010533Y-82286190D01*
X129010533Y-82286190D02*
X129058152Y-82381428D01*
X129058152Y-82381428D02*
X129058152Y-82524285D01*
X129058152Y-82524285D02*
X129010533Y-82619523D01*
X128677200Y-82190952D02*
X128724819Y-82286190D01*
X128724819Y-82286190D02*
X128724819Y-82476666D01*
X128724819Y-82476666D02*
X128677200Y-82571904D01*
X128677200Y-82571904D02*
X128629580Y-82619523D01*
X128629580Y-82619523D02*
X128534342Y-82667142D01*
X128534342Y-82667142D02*
X128248628Y-82667142D01*
X128248628Y-82667142D02*
X128153390Y-82619523D01*
X128153390Y-82619523D02*
X128105771Y-82571904D01*
X128105771Y-82571904D02*
X128058152Y-82476666D01*
X128058152Y-82476666D02*
X128058152Y-82286190D01*
X128058152Y-82286190D02*
X128105771Y-82190952D01*
X128724819Y-81714761D02*
X128058152Y-81714761D01*
X127724819Y-81714761D02*
X127772438Y-81762380D01*
X127772438Y-81762380D02*
X127820057Y-81714761D01*
X127820057Y-81714761D02*
X127772438Y-81667142D01*
X127772438Y-81667142D02*
X127724819Y-81714761D01*
X127724819Y-81714761D02*
X127820057Y-81714761D01*
X128058152Y-81381428D02*
X128058152Y-81000476D01*
X127724819Y-81238571D02*
X128581961Y-81238571D01*
X128581961Y-81238571D02*
X128677200Y-81190952D01*
X128677200Y-81190952D02*
X128724819Y-81095714D01*
X128724819Y-81095714D02*
X128724819Y-81000476D01*
X128724819Y-80667142D02*
X127724819Y-80667142D01*
X128724819Y-80238571D02*
X128201009Y-80238571D01*
X128201009Y-80238571D02*
X128105771Y-80286190D01*
X128105771Y-80286190D02*
X128058152Y-80381428D01*
X128058152Y-80381428D02*
X128058152Y-80524285D01*
X128058152Y-80524285D02*
X128105771Y-80619523D01*
X128105771Y-80619523D02*
X128153390Y-80667142D01*
X128058152Y-79333809D02*
X128724819Y-79333809D01*
X128058152Y-79762380D02*
X128581961Y-79762380D01*
X128581961Y-79762380D02*
X128677200Y-79714761D01*
X128677200Y-79714761D02*
X128724819Y-79619523D01*
X128724819Y-79619523D02*
X128724819Y-79476666D01*
X128724819Y-79476666D02*
X128677200Y-79381428D01*
X128677200Y-79381428D02*
X128629580Y-79333809D01*
X128724819Y-78857618D02*
X127724819Y-78857618D01*
X128105771Y-78857618D02*
X128058152Y-78762380D01*
X128058152Y-78762380D02*
X128058152Y-78571904D01*
X128058152Y-78571904D02*
X128105771Y-78476666D01*
X128105771Y-78476666D02*
X128153390Y-78429047D01*
X128153390Y-78429047D02*
X128248628Y-78381428D01*
X128248628Y-78381428D02*
X128534342Y-78381428D01*
X128534342Y-78381428D02*
X128629580Y-78429047D01*
X128629580Y-78429047D02*
X128677200Y-78476666D01*
X128677200Y-78476666D02*
X128724819Y-78571904D01*
X128724819Y-78571904D02*
X128724819Y-78762380D01*
X128724819Y-78762380D02*
X128677200Y-78857618D01*
X128629580Y-77952856D02*
X128677200Y-77905237D01*
X128677200Y-77905237D02*
X128724819Y-77952856D01*
X128724819Y-77952856D02*
X128677200Y-78000475D01*
X128677200Y-78000475D02*
X128629580Y-77952856D01*
X128629580Y-77952856D02*
X128724819Y-77952856D01*
X128677200Y-77048095D02*
X128724819Y-77143333D01*
X128724819Y-77143333D02*
X128724819Y-77333809D01*
X128724819Y-77333809D02*
X128677200Y-77429047D01*
X128677200Y-77429047D02*
X128629580Y-77476666D01*
X128629580Y-77476666D02*
X128534342Y-77524285D01*
X128534342Y-77524285D02*
X128248628Y-77524285D01*
X128248628Y-77524285D02*
X128153390Y-77476666D01*
X128153390Y-77476666D02*
X128105771Y-77429047D01*
X128105771Y-77429047D02*
X128058152Y-77333809D01*
X128058152Y-77333809D02*
X128058152Y-77143333D01*
X128058152Y-77143333D02*
X128105771Y-77048095D01*
X128724819Y-76476666D02*
X128677200Y-76571904D01*
X128677200Y-76571904D02*
X128629580Y-76619523D01*
X128629580Y-76619523D02*
X128534342Y-76667142D01*
X128534342Y-76667142D02*
X128248628Y-76667142D01*
X128248628Y-76667142D02*
X128153390Y-76619523D01*
X128153390Y-76619523D02*
X128105771Y-76571904D01*
X128105771Y-76571904D02*
X128058152Y-76476666D01*
X128058152Y-76476666D02*
X128058152Y-76333809D01*
X128058152Y-76333809D02*
X128105771Y-76238571D01*
X128105771Y-76238571D02*
X128153390Y-76190952D01*
X128153390Y-76190952D02*
X128248628Y-76143333D01*
X128248628Y-76143333D02*
X128534342Y-76143333D01*
X128534342Y-76143333D02*
X128629580Y-76190952D01*
X128629580Y-76190952D02*
X128677200Y-76238571D01*
X128677200Y-76238571D02*
X128724819Y-76333809D01*
X128724819Y-76333809D02*
X128724819Y-76476666D01*
X128724819Y-75714761D02*
X128058152Y-75714761D01*
X128153390Y-75714761D02*
X128105771Y-75667142D01*
X128105771Y-75667142D02*
X128058152Y-75571904D01*
X128058152Y-75571904D02*
X128058152Y-75429047D01*
X128058152Y-75429047D02*
X128105771Y-75333809D01*
X128105771Y-75333809D02*
X128201009Y-75286190D01*
X128201009Y-75286190D02*
X128724819Y-75286190D01*
X128201009Y-75286190D02*
X128105771Y-75238571D01*
X128105771Y-75238571D02*
X128058152Y-75143333D01*
X128058152Y-75143333D02*
X128058152Y-75000476D01*
X128058152Y-75000476D02*
X128105771Y-74905237D01*
X128105771Y-74905237D02*
X128201009Y-74857618D01*
X128201009Y-74857618D02*
X128724819Y-74857618D01*
X127677200Y-73667143D02*
X128962914Y-74524285D01*
X128724819Y-73333809D02*
X128058152Y-73333809D01*
X127724819Y-73333809D02*
X127772438Y-73381428D01*
X127772438Y-73381428D02*
X127820057Y-73333809D01*
X127820057Y-73333809D02*
X127772438Y-73286190D01*
X127772438Y-73286190D02*
X127724819Y-73333809D01*
X127724819Y-73333809D02*
X127820057Y-73333809D01*
X128058152Y-73000476D02*
X128058152Y-72619524D01*
X128724819Y-72857619D02*
X127867676Y-72857619D01*
X127867676Y-72857619D02*
X127772438Y-72810000D01*
X127772438Y-72810000D02*
X127724819Y-72714762D01*
X127724819Y-72714762D02*
X127724819Y-72619524D01*
X128724819Y-72286190D02*
X128058152Y-72286190D01*
X127724819Y-72286190D02*
X127772438Y-72333809D01*
X127772438Y-72333809D02*
X127820057Y-72286190D01*
X127820057Y-72286190D02*
X127772438Y-72238571D01*
X127772438Y-72238571D02*
X127724819Y-72286190D01*
X127724819Y-72286190D02*
X127820057Y-72286190D01*
X128724819Y-71667143D02*
X128677200Y-71762381D01*
X128677200Y-71762381D02*
X128581961Y-71810000D01*
X128581961Y-71810000D02*
X127724819Y-71810000D01*
X128724819Y-71143333D02*
X128677200Y-71238571D01*
X128677200Y-71238571D02*
X128629580Y-71286190D01*
X128629580Y-71286190D02*
X128534342Y-71333809D01*
X128534342Y-71333809D02*
X128248628Y-71333809D01*
X128248628Y-71333809D02*
X128153390Y-71286190D01*
X128153390Y-71286190D02*
X128105771Y-71238571D01*
X128105771Y-71238571D02*
X128058152Y-71143333D01*
X128058152Y-71143333D02*
X128058152Y-71000476D01*
X128058152Y-71000476D02*
X128105771Y-70905238D01*
X128105771Y-70905238D02*
X128153390Y-70857619D01*
X128153390Y-70857619D02*
X128248628Y-70810000D01*
X128248628Y-70810000D02*
X128534342Y-70810000D01*
X128534342Y-70810000D02*
X128629580Y-70857619D01*
X128629580Y-70857619D02*
X128677200Y-70905238D01*
X128677200Y-70905238D02*
X128724819Y-71000476D01*
X128724819Y-71000476D02*
X128724819Y-71143333D01*
X128058152Y-70524285D02*
X128058152Y-70143333D01*
X127724819Y-70381428D02*
X128581961Y-70381428D01*
X128581961Y-70381428D02*
X128677200Y-70333809D01*
X128677200Y-70333809D02*
X128724819Y-70238571D01*
X128724819Y-70238571D02*
X128724819Y-70143333D01*
X127677200Y-69095714D02*
X128962914Y-69952856D01*
X128058152Y-68762380D02*
X129058152Y-68762380D01*
X128105771Y-68762380D02*
X128058152Y-68667142D01*
X128058152Y-68667142D02*
X128058152Y-68476666D01*
X128058152Y-68476666D02*
X128105771Y-68381428D01*
X128105771Y-68381428D02*
X128153390Y-68333809D01*
X128153390Y-68333809D02*
X128248628Y-68286190D01*
X128248628Y-68286190D02*
X128534342Y-68286190D01*
X128534342Y-68286190D02*
X128629580Y-68333809D01*
X128629580Y-68333809D02*
X128677200Y-68381428D01*
X128677200Y-68381428D02*
X128724819Y-68476666D01*
X128724819Y-68476666D02*
X128724819Y-68667142D01*
X128724819Y-68667142D02*
X128677200Y-68762380D01*
X127820057Y-67905237D02*
X127772438Y-67857618D01*
X127772438Y-67857618D02*
X127724819Y-67762380D01*
X127724819Y-67762380D02*
X127724819Y-67524285D01*
X127724819Y-67524285D02*
X127772438Y-67429047D01*
X127772438Y-67429047D02*
X127820057Y-67381428D01*
X127820057Y-67381428D02*
X127915295Y-67333809D01*
X127915295Y-67333809D02*
X128010533Y-67333809D01*
X128010533Y-67333809D02*
X128153390Y-67381428D01*
X128153390Y-67381428D02*
X128724819Y-67952856D01*
X128724819Y-67952856D02*
X128724819Y-67333809D01*
X127724819Y-66714761D02*
X127724819Y-66619523D01*
X127724819Y-66619523D02*
X127772438Y-66524285D01*
X127772438Y-66524285D02*
X127820057Y-66476666D01*
X127820057Y-66476666D02*
X127915295Y-66429047D01*
X127915295Y-66429047D02*
X128105771Y-66381428D01*
X128105771Y-66381428D02*
X128343866Y-66381428D01*
X128343866Y-66381428D02*
X128534342Y-66429047D01*
X128534342Y-66429047D02*
X128629580Y-66476666D01*
X128629580Y-66476666D02*
X128677200Y-66524285D01*
X128677200Y-66524285D02*
X128724819Y-66619523D01*
X128724819Y-66619523D02*
X128724819Y-66714761D01*
X128724819Y-66714761D02*
X128677200Y-66809999D01*
X128677200Y-66809999D02*
X128629580Y-66857618D01*
X128629580Y-66857618D02*
X128534342Y-66905237D01*
X128534342Y-66905237D02*
X128343866Y-66952856D01*
X128343866Y-66952856D02*
X128105771Y-66952856D01*
X128105771Y-66952856D02*
X127915295Y-66905237D01*
X127915295Y-66905237D02*
X127820057Y-66857618D01*
X127820057Y-66857618D02*
X127772438Y-66809999D01*
X127772438Y-66809999D02*
X127724819Y-66714761D01*
X127724819Y-65762380D02*
X127724819Y-65667142D01*
X127724819Y-65667142D02*
X127772438Y-65571904D01*
X127772438Y-65571904D02*
X127820057Y-65524285D01*
X127820057Y-65524285D02*
X127915295Y-65476666D01*
X127915295Y-65476666D02*
X128105771Y-65429047D01*
X128105771Y-65429047D02*
X128343866Y-65429047D01*
X128343866Y-65429047D02*
X128534342Y-65476666D01*
X128534342Y-65476666D02*
X128629580Y-65524285D01*
X128629580Y-65524285D02*
X128677200Y-65571904D01*
X128677200Y-65571904D02*
X128724819Y-65667142D01*
X128724819Y-65667142D02*
X128724819Y-65762380D01*
X128724819Y-65762380D02*
X128677200Y-65857618D01*
X128677200Y-65857618D02*
X128629580Y-65905237D01*
X128629580Y-65905237D02*
X128534342Y-65952856D01*
X128534342Y-65952856D02*
X128343866Y-66000475D01*
X128343866Y-66000475D02*
X128105771Y-66000475D01*
X128105771Y-66000475D02*
X127915295Y-65952856D01*
X127915295Y-65952856D02*
X127820057Y-65905237D01*
X127820057Y-65905237D02*
X127772438Y-65857618D01*
X127772438Y-65857618D02*
X127724819Y-65762380D01*
X127724819Y-64809999D02*
X127724819Y-64714761D01*
X127724819Y-64714761D02*
X127772438Y-64619523D01*
X127772438Y-64619523D02*
X127820057Y-64571904D01*
X127820057Y-64571904D02*
X127915295Y-64524285D01*
X127915295Y-64524285D02*
X128105771Y-64476666D01*
X128105771Y-64476666D02*
X128343866Y-64476666D01*
X128343866Y-64476666D02*
X128534342Y-64524285D01*
X128534342Y-64524285D02*
X128629580Y-64571904D01*
X128629580Y-64571904D02*
X128677200Y-64619523D01*
X128677200Y-64619523D02*
X128724819Y-64714761D01*
X128724819Y-64714761D02*
X128724819Y-64809999D01*
X128724819Y-64809999D02*
X128677200Y-64905237D01*
X128677200Y-64905237D02*
X128629580Y-64952856D01*
X128629580Y-64952856D02*
X128534342Y-65000475D01*
X128534342Y-65000475D02*
X128343866Y-65048094D01*
X128343866Y-65048094D02*
X128105771Y-65048094D01*
X128105771Y-65048094D02*
X127915295Y-65000475D01*
X127915295Y-65000475D02*
X127820057Y-64952856D01*
X127820057Y-64952856D02*
X127772438Y-64905237D01*
X127772438Y-64905237D02*
X127724819Y-64809999D01*
X128058152Y-64190951D02*
X128058152Y-63809999D01*
X127724819Y-64048094D02*
X128581961Y-64048094D01*
X128581961Y-64048094D02*
X128677200Y-64000475D01*
X128677200Y-64000475D02*
X128724819Y-63905237D01*
X128724819Y-63905237D02*
X128724819Y-63809999D01*
X128343866Y-63476665D02*
X128343866Y-62714761D01*
X128724819Y-62238570D02*
X128058152Y-62238570D01*
X128248628Y-62238570D02*
X128153390Y-62190951D01*
X128153390Y-62190951D02*
X128105771Y-62143332D01*
X128105771Y-62143332D02*
X128058152Y-62048094D01*
X128058152Y-62048094D02*
X128058152Y-61952856D01*
X128724819Y-61190951D02*
X128201009Y-61190951D01*
X128201009Y-61190951D02*
X128105771Y-61238570D01*
X128105771Y-61238570D02*
X128058152Y-61333808D01*
X128058152Y-61333808D02*
X128058152Y-61524284D01*
X128058152Y-61524284D02*
X128105771Y-61619522D01*
X128677200Y-61190951D02*
X128724819Y-61286189D01*
X128724819Y-61286189D02*
X128724819Y-61524284D01*
X128724819Y-61524284D02*
X128677200Y-61619522D01*
X128677200Y-61619522D02*
X128581961Y-61667141D01*
X128581961Y-61667141D02*
X128486723Y-61667141D01*
X128486723Y-61667141D02*
X128391485Y-61619522D01*
X128391485Y-61619522D02*
X128343866Y-61524284D01*
X128343866Y-61524284D02*
X128343866Y-61286189D01*
X128343866Y-61286189D02*
X128296247Y-61190951D01*
X128724819Y-60714760D02*
X128058152Y-60714760D01*
X128153390Y-60714760D02*
X128105771Y-60667141D01*
X128105771Y-60667141D02*
X128058152Y-60571903D01*
X128058152Y-60571903D02*
X128058152Y-60429046D01*
X128058152Y-60429046D02*
X128105771Y-60333808D01*
X128105771Y-60333808D02*
X128201009Y-60286189D01*
X128201009Y-60286189D02*
X128724819Y-60286189D01*
X128201009Y-60286189D02*
X128105771Y-60238570D01*
X128105771Y-60238570D02*
X128058152Y-60143332D01*
X128058152Y-60143332D02*
X128058152Y-60000475D01*
X128058152Y-60000475D02*
X128105771Y-59905236D01*
X128105771Y-59905236D02*
X128201009Y-59857617D01*
X128201009Y-59857617D02*
X128724819Y-59857617D01*
X128343866Y-59381427D02*
X128343866Y-58619523D01*
X128677200Y-57762380D02*
X128724819Y-57857618D01*
X128724819Y-57857618D02*
X128724819Y-58048094D01*
X128724819Y-58048094D02*
X128677200Y-58143332D01*
X128677200Y-58143332D02*
X128581961Y-58190951D01*
X128581961Y-58190951D02*
X128201009Y-58190951D01*
X128201009Y-58190951D02*
X128105771Y-58143332D01*
X128105771Y-58143332D02*
X128058152Y-58048094D01*
X128058152Y-58048094D02*
X128058152Y-57857618D01*
X128058152Y-57857618D02*
X128105771Y-57762380D01*
X128105771Y-57762380D02*
X128201009Y-57714761D01*
X128201009Y-57714761D02*
X128296247Y-57714761D01*
X128296247Y-57714761D02*
X128391485Y-58190951D01*
X128724819Y-57381427D02*
X128058152Y-56857618D01*
X128058152Y-57381427D02*
X128724819Y-56857618D01*
X128058152Y-56476665D02*
X129058152Y-56476665D01*
X128105771Y-56476665D02*
X128058152Y-56381427D01*
X128058152Y-56381427D02*
X128058152Y-56190951D01*
X128058152Y-56190951D02*
X128105771Y-56095713D01*
X128105771Y-56095713D02*
X128153390Y-56048094D01*
X128153390Y-56048094D02*
X128248628Y-56000475D01*
X128248628Y-56000475D02*
X128534342Y-56000475D01*
X128534342Y-56000475D02*
X128629580Y-56048094D01*
X128629580Y-56048094D02*
X128677200Y-56095713D01*
X128677200Y-56095713D02*
X128724819Y-56190951D01*
X128724819Y-56190951D02*
X128724819Y-56381427D01*
X128724819Y-56381427D02*
X128677200Y-56476665D01*
X128724819Y-55143332D02*
X128201009Y-55143332D01*
X128201009Y-55143332D02*
X128105771Y-55190951D01*
X128105771Y-55190951D02*
X128058152Y-55286189D01*
X128058152Y-55286189D02*
X128058152Y-55476665D01*
X128058152Y-55476665D02*
X128105771Y-55571903D01*
X128677200Y-55143332D02*
X128724819Y-55238570D01*
X128724819Y-55238570D02*
X128724819Y-55476665D01*
X128724819Y-55476665D02*
X128677200Y-55571903D01*
X128677200Y-55571903D02*
X128581961Y-55619522D01*
X128581961Y-55619522D02*
X128486723Y-55619522D01*
X128486723Y-55619522D02*
X128391485Y-55571903D01*
X128391485Y-55571903D02*
X128343866Y-55476665D01*
X128343866Y-55476665D02*
X128343866Y-55238570D01*
X128343866Y-55238570D02*
X128296247Y-55143332D01*
X128058152Y-54667141D02*
X128724819Y-54667141D01*
X128153390Y-54667141D02*
X128105771Y-54619522D01*
X128105771Y-54619522D02*
X128058152Y-54524284D01*
X128058152Y-54524284D02*
X128058152Y-54381427D01*
X128058152Y-54381427D02*
X128105771Y-54286189D01*
X128105771Y-54286189D02*
X128201009Y-54238570D01*
X128201009Y-54238570D02*
X128724819Y-54238570D01*
X128677200Y-53809998D02*
X128724819Y-53714760D01*
X128724819Y-53714760D02*
X128724819Y-53524284D01*
X128724819Y-53524284D02*
X128677200Y-53429046D01*
X128677200Y-53429046D02*
X128581961Y-53381427D01*
X128581961Y-53381427D02*
X128534342Y-53381427D01*
X128534342Y-53381427D02*
X128439104Y-53429046D01*
X128439104Y-53429046D02*
X128391485Y-53524284D01*
X128391485Y-53524284D02*
X128391485Y-53667141D01*
X128391485Y-53667141D02*
X128343866Y-53762379D01*
X128343866Y-53762379D02*
X128248628Y-53809998D01*
X128248628Y-53809998D02*
X128201009Y-53809998D01*
X128201009Y-53809998D02*
X128105771Y-53762379D01*
X128105771Y-53762379D02*
X128058152Y-53667141D01*
X128058152Y-53667141D02*
X128058152Y-53524284D01*
X128058152Y-53524284D02*
X128105771Y-53429046D01*
X128724819Y-52952855D02*
X128058152Y-52952855D01*
X127724819Y-52952855D02*
X127772438Y-53000474D01*
X127772438Y-53000474D02*
X127820057Y-52952855D01*
X127820057Y-52952855D02*
X127772438Y-52905236D01*
X127772438Y-52905236D02*
X127724819Y-52952855D01*
X127724819Y-52952855D02*
X127820057Y-52952855D01*
X128724819Y-52333808D02*
X128677200Y-52429046D01*
X128677200Y-52429046D02*
X128629580Y-52476665D01*
X128629580Y-52476665D02*
X128534342Y-52524284D01*
X128534342Y-52524284D02*
X128248628Y-52524284D01*
X128248628Y-52524284D02*
X128153390Y-52476665D01*
X128153390Y-52476665D02*
X128105771Y-52429046D01*
X128105771Y-52429046D02*
X128058152Y-52333808D01*
X128058152Y-52333808D02*
X128058152Y-52190951D01*
X128058152Y-52190951D02*
X128105771Y-52095713D01*
X128105771Y-52095713D02*
X128153390Y-52048094D01*
X128153390Y-52048094D02*
X128248628Y-52000475D01*
X128248628Y-52000475D02*
X128534342Y-52000475D01*
X128534342Y-52000475D02*
X128629580Y-52048094D01*
X128629580Y-52048094D02*
X128677200Y-52095713D01*
X128677200Y-52095713D02*
X128724819Y-52190951D01*
X128724819Y-52190951D02*
X128724819Y-52333808D01*
X128058152Y-51571903D02*
X128724819Y-51571903D01*
X128153390Y-51571903D02*
X128105771Y-51524284D01*
X128105771Y-51524284D02*
X128058152Y-51429046D01*
X128058152Y-51429046D02*
X128058152Y-51286189D01*
X128058152Y-51286189D02*
X128105771Y-51190951D01*
X128105771Y-51190951D02*
X128201009Y-51143332D01*
X128201009Y-51143332D02*
X128724819Y-51143332D01*
X128343866Y-50667141D02*
X128343866Y-49905237D01*
X128724819Y-49429046D02*
X127724819Y-49429046D01*
X128105771Y-49429046D02*
X128058152Y-49333808D01*
X128058152Y-49333808D02*
X128058152Y-49143332D01*
X128058152Y-49143332D02*
X128105771Y-49048094D01*
X128105771Y-49048094D02*
X128153390Y-49000475D01*
X128153390Y-49000475D02*
X128248628Y-48952856D01*
X128248628Y-48952856D02*
X128534342Y-48952856D01*
X128534342Y-48952856D02*
X128629580Y-49000475D01*
X128629580Y-49000475D02*
X128677200Y-49048094D01*
X128677200Y-49048094D02*
X128724819Y-49143332D01*
X128724819Y-49143332D02*
X128724819Y-49333808D01*
X128724819Y-49333808D02*
X128677200Y-49429046D01*
X128724819Y-48381427D02*
X128677200Y-48476665D01*
X128677200Y-48476665D02*
X128629580Y-48524284D01*
X128629580Y-48524284D02*
X128534342Y-48571903D01*
X128534342Y-48571903D02*
X128248628Y-48571903D01*
X128248628Y-48571903D02*
X128153390Y-48524284D01*
X128153390Y-48524284D02*
X128105771Y-48476665D01*
X128105771Y-48476665D02*
X128058152Y-48381427D01*
X128058152Y-48381427D02*
X128058152Y-48238570D01*
X128058152Y-48238570D02*
X128105771Y-48143332D01*
X128105771Y-48143332D02*
X128153390Y-48095713D01*
X128153390Y-48095713D02*
X128248628Y-48048094D01*
X128248628Y-48048094D02*
X128534342Y-48048094D01*
X128534342Y-48048094D02*
X128629580Y-48095713D01*
X128629580Y-48095713D02*
X128677200Y-48143332D01*
X128677200Y-48143332D02*
X128724819Y-48238570D01*
X128724819Y-48238570D02*
X128724819Y-48381427D01*
X128724819Y-47190951D02*
X128201009Y-47190951D01*
X128201009Y-47190951D02*
X128105771Y-47238570D01*
X128105771Y-47238570D02*
X128058152Y-47333808D01*
X128058152Y-47333808D02*
X128058152Y-47524284D01*
X128058152Y-47524284D02*
X128105771Y-47619522D01*
X128677200Y-47190951D02*
X128724819Y-47286189D01*
X128724819Y-47286189D02*
X128724819Y-47524284D01*
X128724819Y-47524284D02*
X128677200Y-47619522D01*
X128677200Y-47619522D02*
X128581961Y-47667141D01*
X128581961Y-47667141D02*
X128486723Y-47667141D01*
X128486723Y-47667141D02*
X128391485Y-47619522D01*
X128391485Y-47619522D02*
X128343866Y-47524284D01*
X128343866Y-47524284D02*
X128343866Y-47286189D01*
X128343866Y-47286189D02*
X128296247Y-47190951D01*
X128724819Y-46714760D02*
X128058152Y-46714760D01*
X128248628Y-46714760D02*
X128153390Y-46667141D01*
X128153390Y-46667141D02*
X128105771Y-46619522D01*
X128105771Y-46619522D02*
X128058152Y-46524284D01*
X128058152Y-46524284D02*
X128058152Y-46429046D01*
X128724819Y-45667141D02*
X127724819Y-45667141D01*
X128677200Y-45667141D02*
X128724819Y-45762379D01*
X128724819Y-45762379D02*
X128724819Y-45952855D01*
X128724819Y-45952855D02*
X128677200Y-46048093D01*
X128677200Y-46048093D02*
X128629580Y-46095712D01*
X128629580Y-46095712D02*
X128534342Y-46143331D01*
X128534342Y-46143331D02*
X128248628Y-46143331D01*
X128248628Y-46143331D02*
X128153390Y-46095712D01*
X128153390Y-46095712D02*
X128105771Y-46048093D01*
X128105771Y-46048093D02*
X128058152Y-45952855D01*
X128058152Y-45952855D02*
X128058152Y-45762379D01*
X128058152Y-45762379D02*
X128105771Y-45667141D01*
X83905104Y-75656839D02*
X83905104Y-75180649D01*
X84190819Y-75752077D02*
X83190819Y-75418744D01*
X83190819Y-75418744D02*
X84190819Y-75085411D01*
X83190819Y-74847315D02*
X83190819Y-74228268D01*
X83190819Y-74228268D02*
X83571771Y-74561601D01*
X83571771Y-74561601D02*
X83571771Y-74418744D01*
X83571771Y-74418744D02*
X83619390Y-74323506D01*
X83619390Y-74323506D02*
X83667009Y-74275887D01*
X83667009Y-74275887D02*
X83762247Y-74228268D01*
X83762247Y-74228268D02*
X84000342Y-74228268D01*
X84000342Y-74228268D02*
X84095580Y-74275887D01*
X84095580Y-74275887D02*
X84143200Y-74323506D01*
X84143200Y-74323506D02*
X84190819Y-74418744D01*
X84190819Y-74418744D02*
X84190819Y-74704458D01*
X84190819Y-74704458D02*
X84143200Y-74799696D01*
X84143200Y-74799696D02*
X84095580Y-74847315D01*
X69204819Y-75037792D02*
X68728628Y-75371125D01*
X69204819Y-75609220D02*
X68204819Y-75609220D01*
X68204819Y-75609220D02*
X68204819Y-75228268D01*
X68204819Y-75228268D02*
X68252438Y-75133030D01*
X68252438Y-75133030D02*
X68300057Y-75085411D01*
X68300057Y-75085411D02*
X68395295Y-75037792D01*
X68395295Y-75037792D02*
X68538152Y-75037792D01*
X68538152Y-75037792D02*
X68633390Y-75085411D01*
X68633390Y-75085411D02*
X68681009Y-75133030D01*
X68681009Y-75133030D02*
X68728628Y-75228268D01*
X68728628Y-75228268D02*
X68728628Y-75609220D01*
X68919104Y-74656839D02*
X68919104Y-74180649D01*
X69204819Y-74752077D02*
X68204819Y-74418744D01*
X68204819Y-74418744D02*
X69204819Y-74085411D01*
X69204819Y-73752077D02*
X68204819Y-73752077D01*
X68204819Y-73752077D02*
X68919104Y-73418744D01*
X68919104Y-73418744D02*
X68204819Y-73085411D01*
X68204819Y-73085411D02*
X69204819Y-73085411D01*
X69157200Y-72656839D02*
X69204819Y-72513982D01*
X69204819Y-72513982D02*
X69204819Y-72275887D01*
X69204819Y-72275887D02*
X69157200Y-72180649D01*
X69157200Y-72180649D02*
X69109580Y-72133030D01*
X69109580Y-72133030D02*
X69014342Y-72085411D01*
X69014342Y-72085411D02*
X68919104Y-72085411D01*
X68919104Y-72085411D02*
X68823866Y-72133030D01*
X68823866Y-72133030D02*
X68776247Y-72180649D01*
X68776247Y-72180649D02*
X68728628Y-72275887D01*
X68728628Y-72275887D02*
X68681009Y-72466363D01*
X68681009Y-72466363D02*
X68633390Y-72561601D01*
X68633390Y-72561601D02*
X68585771Y-72609220D01*
X68585771Y-72609220D02*
X68490533Y-72656839D01*
X68490533Y-72656839D02*
X68395295Y-72656839D01*
X68395295Y-72656839D02*
X68300057Y-72609220D01*
X68300057Y-72609220D02*
X68252438Y-72561601D01*
X68252438Y-72561601D02*
X68204819Y-72466363D01*
X68204819Y-72466363D02*
X68204819Y-72228268D01*
X68204819Y-72228268D02*
X68252438Y-72085411D01*
X68300057Y-71704458D02*
X68252438Y-71656839D01*
X68252438Y-71656839D02*
X68204819Y-71561601D01*
X68204819Y-71561601D02*
X68204819Y-71323506D01*
X68204819Y-71323506D02*
X68252438Y-71228268D01*
X68252438Y-71228268D02*
X68300057Y-71180649D01*
X68300057Y-71180649D02*
X68395295Y-71133030D01*
X68395295Y-71133030D02*
X68490533Y-71133030D01*
X68490533Y-71133030D02*
X68633390Y-71180649D01*
X68633390Y-71180649D02*
X69204819Y-71752077D01*
X69204819Y-71752077D02*
X69204819Y-71133030D01*
X92064819Y-84616969D02*
X91064819Y-84616969D01*
X91064819Y-84616969D02*
X91064819Y-84378874D01*
X91064819Y-84378874D02*
X91112438Y-84236017D01*
X91112438Y-84236017D02*
X91207676Y-84140779D01*
X91207676Y-84140779D02*
X91302914Y-84093160D01*
X91302914Y-84093160D02*
X91493390Y-84045541D01*
X91493390Y-84045541D02*
X91636247Y-84045541D01*
X91636247Y-84045541D02*
X91826723Y-84093160D01*
X91826723Y-84093160D02*
X91921961Y-84140779D01*
X91921961Y-84140779D02*
X92017200Y-84236017D01*
X92017200Y-84236017D02*
X92064819Y-84378874D01*
X92064819Y-84378874D02*
X92064819Y-84616969D01*
X91398152Y-83188398D02*
X92064819Y-83188398D01*
X91017200Y-83426493D02*
X91731485Y-83664588D01*
X91731485Y-83664588D02*
X91731485Y-83045541D01*
X76539104Y-84521731D02*
X76539104Y-84045541D01*
X76824819Y-84616969D02*
X75824819Y-84283636D01*
X75824819Y-84283636D02*
X76824819Y-83950303D01*
X76253390Y-83474112D02*
X76205771Y-83569350D01*
X76205771Y-83569350D02*
X76158152Y-83616969D01*
X76158152Y-83616969D02*
X76062914Y-83664588D01*
X76062914Y-83664588D02*
X76015295Y-83664588D01*
X76015295Y-83664588D02*
X75920057Y-83616969D01*
X75920057Y-83616969D02*
X75872438Y-83569350D01*
X75872438Y-83569350D02*
X75824819Y-83474112D01*
X75824819Y-83474112D02*
X75824819Y-83283636D01*
X75824819Y-83283636D02*
X75872438Y-83188398D01*
X75872438Y-83188398D02*
X75920057Y-83140779D01*
X75920057Y-83140779D02*
X76015295Y-83093160D01*
X76015295Y-83093160D02*
X76062914Y-83093160D01*
X76062914Y-83093160D02*
X76158152Y-83140779D01*
X76158152Y-83140779D02*
X76205771Y-83188398D01*
X76205771Y-83188398D02*
X76253390Y-83283636D01*
X76253390Y-83283636D02*
X76253390Y-83474112D01*
X76253390Y-83474112D02*
X76301009Y-83569350D01*
X76301009Y-83569350D02*
X76348628Y-83616969D01*
X76348628Y-83616969D02*
X76443866Y-83664588D01*
X76443866Y-83664588D02*
X76634342Y-83664588D01*
X76634342Y-83664588D02*
X76729580Y-83616969D01*
X76729580Y-83616969D02*
X76777200Y-83569350D01*
X76777200Y-83569350D02*
X76824819Y-83474112D01*
X76824819Y-83474112D02*
X76824819Y-83283636D01*
X76824819Y-83283636D02*
X76777200Y-83188398D01*
X76777200Y-83188398D02*
X76729580Y-83140779D01*
X76729580Y-83140779D02*
X76634342Y-83093160D01*
X76634342Y-83093160D02*
X76443866Y-83093160D01*
X76443866Y-83093160D02*
X76348628Y-83140779D01*
X76348628Y-83140779D02*
X76301009Y-83188398D01*
X76301009Y-83188398D02*
X76253390Y-83283636D01*
X66410819Y-85855064D02*
X65410819Y-85855064D01*
X65410819Y-85855064D02*
X66125104Y-85521731D01*
X66125104Y-85521731D02*
X65410819Y-85188398D01*
X65410819Y-85188398D02*
X66410819Y-85188398D01*
X66410819Y-84140779D02*
X65934628Y-84474112D01*
X66410819Y-84712207D02*
X65410819Y-84712207D01*
X65410819Y-84712207D02*
X65410819Y-84331255D01*
X65410819Y-84331255D02*
X65458438Y-84236017D01*
X65458438Y-84236017D02*
X65506057Y-84188398D01*
X65506057Y-84188398D02*
X65601295Y-84140779D01*
X65601295Y-84140779D02*
X65744152Y-84140779D01*
X65744152Y-84140779D02*
X65839390Y-84188398D01*
X65839390Y-84188398D02*
X65887009Y-84236017D01*
X65887009Y-84236017D02*
X65934628Y-84331255D01*
X65934628Y-84331255D02*
X65934628Y-84712207D01*
X66506057Y-83045541D02*
X66458438Y-83140779D01*
X66458438Y-83140779D02*
X66363200Y-83236017D01*
X66363200Y-83236017D02*
X66220342Y-83378874D01*
X66220342Y-83378874D02*
X66172723Y-83474112D01*
X66172723Y-83474112D02*
X66172723Y-83569350D01*
X66410819Y-83521731D02*
X66363200Y-83616969D01*
X66363200Y-83616969D02*
X66267961Y-83712207D01*
X66267961Y-83712207D02*
X66077485Y-83759826D01*
X66077485Y-83759826D02*
X65744152Y-83759826D01*
X65744152Y-83759826D02*
X65553676Y-83712207D01*
X65553676Y-83712207D02*
X65458438Y-83616969D01*
X65458438Y-83616969D02*
X65410819Y-83521731D01*
X65410819Y-83521731D02*
X65410819Y-83331255D01*
X65410819Y-83331255D02*
X65458438Y-83236017D01*
X65458438Y-83236017D02*
X65553676Y-83140779D01*
X65553676Y-83140779D02*
X65744152Y-83093160D01*
X65744152Y-83093160D02*
X66077485Y-83093160D01*
X66077485Y-83093160D02*
X66267961Y-83140779D01*
X66267961Y-83140779D02*
X66363200Y-83236017D01*
X66363200Y-83236017D02*
X66410819Y-83331255D01*
X66410819Y-83331255D02*
X66410819Y-83521731D01*
X65133200Y-85993160D02*
X65133200Y-83002684D01*
X78825104Y-75656839D02*
X78825104Y-75180649D01*
X79110819Y-75752077D02*
X78110819Y-75418744D01*
X78110819Y-75418744D02*
X79110819Y-75085411D01*
X78110819Y-74847315D02*
X78110819Y-74180649D01*
X78110819Y-74180649D02*
X79110819Y-74609220D01*
X89270819Y-75609220D02*
X88270819Y-75609220D01*
X88270819Y-75609220D02*
X88270819Y-75371125D01*
X88270819Y-75371125D02*
X88318438Y-75228268D01*
X88318438Y-75228268D02*
X88413676Y-75133030D01*
X88413676Y-75133030D02*
X88508914Y-75085411D01*
X88508914Y-75085411D02*
X88699390Y-75037792D01*
X88699390Y-75037792D02*
X88842247Y-75037792D01*
X88842247Y-75037792D02*
X89032723Y-75085411D01*
X89032723Y-75085411D02*
X89127961Y-75133030D01*
X89127961Y-75133030D02*
X89223200Y-75228268D01*
X89223200Y-75228268D02*
X89270819Y-75371125D01*
X89270819Y-75371125D02*
X89270819Y-75609220D01*
X88270819Y-74704458D02*
X88270819Y-74037792D01*
X88270819Y-74037792D02*
X89270819Y-74466363D01*
X91810819Y-75609220D02*
X90810819Y-75609220D01*
X90810819Y-75609220D02*
X90810819Y-75371125D01*
X90810819Y-75371125D02*
X90858438Y-75228268D01*
X90858438Y-75228268D02*
X90953676Y-75133030D01*
X90953676Y-75133030D02*
X91048914Y-75085411D01*
X91048914Y-75085411D02*
X91239390Y-75037792D01*
X91239390Y-75037792D02*
X91382247Y-75037792D01*
X91382247Y-75037792D02*
X91572723Y-75085411D01*
X91572723Y-75085411D02*
X91667961Y-75133030D01*
X91667961Y-75133030D02*
X91763200Y-75228268D01*
X91763200Y-75228268D02*
X91810819Y-75371125D01*
X91810819Y-75371125D02*
X91810819Y-75609220D01*
X90810819Y-74133030D02*
X90810819Y-74609220D01*
X90810819Y-74609220D02*
X91287009Y-74656839D01*
X91287009Y-74656839D02*
X91239390Y-74609220D01*
X91239390Y-74609220D02*
X91191771Y-74513982D01*
X91191771Y-74513982D02*
X91191771Y-74275887D01*
X91191771Y-74275887D02*
X91239390Y-74180649D01*
X91239390Y-74180649D02*
X91287009Y-74133030D01*
X91287009Y-74133030D02*
X91382247Y-74085411D01*
X91382247Y-74085411D02*
X91620342Y-74085411D01*
X91620342Y-74085411D02*
X91715580Y-74133030D01*
X91715580Y-74133030D02*
X91763200Y-74180649D01*
X91763200Y-74180649D02*
X91810819Y-74275887D01*
X91810819Y-74275887D02*
X91810819Y-74513982D01*
X91810819Y-74513982D02*
X91763200Y-74609220D01*
X91763200Y-74609220D02*
X91715580Y-74656839D01*
X59044819Y-75037792D02*
X58568628Y-75371125D01*
X59044819Y-75609220D02*
X58044819Y-75609220D01*
X58044819Y-75609220D02*
X58044819Y-75228268D01*
X58044819Y-75228268D02*
X58092438Y-75133030D01*
X58092438Y-75133030D02*
X58140057Y-75085411D01*
X58140057Y-75085411D02*
X58235295Y-75037792D01*
X58235295Y-75037792D02*
X58378152Y-75037792D01*
X58378152Y-75037792D02*
X58473390Y-75085411D01*
X58473390Y-75085411D02*
X58521009Y-75133030D01*
X58521009Y-75133030D02*
X58568628Y-75228268D01*
X58568628Y-75228268D02*
X58568628Y-75609220D01*
X58521009Y-74609220D02*
X58521009Y-74275887D01*
X59044819Y-74133030D02*
X59044819Y-74609220D01*
X59044819Y-74609220D02*
X58044819Y-74609220D01*
X58044819Y-74609220D02*
X58044819Y-74133030D01*
X58997200Y-73752077D02*
X59044819Y-73609220D01*
X59044819Y-73609220D02*
X59044819Y-73371125D01*
X59044819Y-73371125D02*
X58997200Y-73275887D01*
X58997200Y-73275887D02*
X58949580Y-73228268D01*
X58949580Y-73228268D02*
X58854342Y-73180649D01*
X58854342Y-73180649D02*
X58759104Y-73180649D01*
X58759104Y-73180649D02*
X58663866Y-73228268D01*
X58663866Y-73228268D02*
X58616247Y-73275887D01*
X58616247Y-73275887D02*
X58568628Y-73371125D01*
X58568628Y-73371125D02*
X58521009Y-73561601D01*
X58521009Y-73561601D02*
X58473390Y-73656839D01*
X58473390Y-73656839D02*
X58425771Y-73704458D01*
X58425771Y-73704458D02*
X58330533Y-73752077D01*
X58330533Y-73752077D02*
X58235295Y-73752077D01*
X58235295Y-73752077D02*
X58140057Y-73704458D01*
X58140057Y-73704458D02*
X58092438Y-73656839D01*
X58092438Y-73656839D02*
X58044819Y-73561601D01*
X58044819Y-73561601D02*
X58044819Y-73323506D01*
X58044819Y-73323506D02*
X58092438Y-73180649D01*
X57767200Y-75747316D02*
X57767200Y-73090173D01*
X94350819Y-75609220D02*
X93350819Y-75609220D01*
X93350819Y-75609220D02*
X93350819Y-75371125D01*
X93350819Y-75371125D02*
X93398438Y-75228268D01*
X93398438Y-75228268D02*
X93493676Y-75133030D01*
X93493676Y-75133030D02*
X93588914Y-75085411D01*
X93588914Y-75085411D02*
X93779390Y-75037792D01*
X93779390Y-75037792D02*
X93922247Y-75037792D01*
X93922247Y-75037792D02*
X94112723Y-75085411D01*
X94112723Y-75085411D02*
X94207961Y-75133030D01*
X94207961Y-75133030D02*
X94303200Y-75228268D01*
X94303200Y-75228268D02*
X94350819Y-75371125D01*
X94350819Y-75371125D02*
X94350819Y-75609220D01*
X93350819Y-74704458D02*
X93350819Y-74085411D01*
X93350819Y-74085411D02*
X93731771Y-74418744D01*
X93731771Y-74418744D02*
X93731771Y-74275887D01*
X93731771Y-74275887D02*
X93779390Y-74180649D01*
X93779390Y-74180649D02*
X93827009Y-74133030D01*
X93827009Y-74133030D02*
X93922247Y-74085411D01*
X93922247Y-74085411D02*
X94160342Y-74085411D01*
X94160342Y-74085411D02*
X94255580Y-74133030D01*
X94255580Y-74133030D02*
X94303200Y-74180649D01*
X94303200Y-74180649D02*
X94350819Y-74275887D01*
X94350819Y-74275887D02*
X94350819Y-74561601D01*
X94350819Y-74561601D02*
X94303200Y-74656839D01*
X94303200Y-74656839D02*
X94255580Y-74704458D01*
X73745104Y-85474112D02*
X73745104Y-84997922D01*
X74030819Y-85569350D02*
X73030819Y-85236017D01*
X73030819Y-85236017D02*
X74030819Y-84902684D01*
X74030819Y-84045541D02*
X74030819Y-84616969D01*
X74030819Y-84331255D02*
X73030819Y-84331255D01*
X73030819Y-84331255D02*
X73173676Y-84426493D01*
X73173676Y-84426493D02*
X73268914Y-84521731D01*
X73268914Y-84521731D02*
X73316533Y-84616969D01*
X73030819Y-83426493D02*
X73030819Y-83331255D01*
X73030819Y-83331255D02*
X73078438Y-83236017D01*
X73078438Y-83236017D02*
X73126057Y-83188398D01*
X73126057Y-83188398D02*
X73221295Y-83140779D01*
X73221295Y-83140779D02*
X73411771Y-83093160D01*
X73411771Y-83093160D02*
X73649866Y-83093160D01*
X73649866Y-83093160D02*
X73840342Y-83140779D01*
X73840342Y-83140779D02*
X73935580Y-83188398D01*
X73935580Y-83188398D02*
X73983200Y-83236017D01*
X73983200Y-83236017D02*
X74030819Y-83331255D01*
X74030819Y-83331255D02*
X74030819Y-83426493D01*
X74030819Y-83426493D02*
X73983200Y-83521731D01*
X73983200Y-83521731D02*
X73935580Y-83569350D01*
X73935580Y-83569350D02*
X73840342Y-83616969D01*
X73840342Y-83616969D02*
X73649866Y-83664588D01*
X73649866Y-83664588D02*
X73411771Y-83664588D01*
X73411771Y-83664588D02*
X73221295Y-83616969D01*
X73221295Y-83616969D02*
X73126057Y-83569350D01*
X73126057Y-83569350D02*
X73078438Y-83521731D01*
X73078438Y-83521731D02*
X73030819Y-83426493D01*
X97144819Y-84616969D02*
X96144819Y-84616969D01*
X96144819Y-84616969D02*
X96144819Y-84378874D01*
X96144819Y-84378874D02*
X96192438Y-84236017D01*
X96192438Y-84236017D02*
X96287676Y-84140779D01*
X96287676Y-84140779D02*
X96382914Y-84093160D01*
X96382914Y-84093160D02*
X96573390Y-84045541D01*
X96573390Y-84045541D02*
X96716247Y-84045541D01*
X96716247Y-84045541D02*
X96906723Y-84093160D01*
X96906723Y-84093160D02*
X97001961Y-84140779D01*
X97001961Y-84140779D02*
X97097200Y-84236017D01*
X97097200Y-84236017D02*
X97144819Y-84378874D01*
X97144819Y-84378874D02*
X97144819Y-84616969D01*
X96144819Y-83426493D02*
X96144819Y-83331255D01*
X96144819Y-83331255D02*
X96192438Y-83236017D01*
X96192438Y-83236017D02*
X96240057Y-83188398D01*
X96240057Y-83188398D02*
X96335295Y-83140779D01*
X96335295Y-83140779D02*
X96525771Y-83093160D01*
X96525771Y-83093160D02*
X96763866Y-83093160D01*
X96763866Y-83093160D02*
X96954342Y-83140779D01*
X96954342Y-83140779D02*
X97049580Y-83188398D01*
X97049580Y-83188398D02*
X97097200Y-83236017D01*
X97097200Y-83236017D02*
X97144819Y-83331255D01*
X97144819Y-83331255D02*
X97144819Y-83426493D01*
X97144819Y-83426493D02*
X97097200Y-83521731D01*
X97097200Y-83521731D02*
X97049580Y-83569350D01*
X97049580Y-83569350D02*
X96954342Y-83616969D01*
X96954342Y-83616969D02*
X96763866Y-83664588D01*
X96763866Y-83664588D02*
X96525771Y-83664588D01*
X96525771Y-83664588D02*
X96335295Y-83616969D01*
X96335295Y-83616969D02*
X96240057Y-83569350D01*
X96240057Y-83569350D02*
X96192438Y-83521731D01*
X96192438Y-83521731D02*
X96144819Y-83426493D01*
X84159104Y-84521731D02*
X84159104Y-84045541D01*
X84444819Y-84616969D02*
X83444819Y-84283636D01*
X83444819Y-84283636D02*
X84444819Y-83950303D01*
X83540057Y-83664588D02*
X83492438Y-83616969D01*
X83492438Y-83616969D02*
X83444819Y-83521731D01*
X83444819Y-83521731D02*
X83444819Y-83283636D01*
X83444819Y-83283636D02*
X83492438Y-83188398D01*
X83492438Y-83188398D02*
X83540057Y-83140779D01*
X83540057Y-83140779D02*
X83635295Y-83093160D01*
X83635295Y-83093160D02*
X83730533Y-83093160D01*
X83730533Y-83093160D02*
X83873390Y-83140779D01*
X83873390Y-83140779D02*
X84444819Y-83712207D01*
X84444819Y-83712207D02*
X84444819Y-83093160D01*
X98432438Y-84934398D02*
X98384819Y-85029636D01*
X98384819Y-85029636D02*
X98384819Y-85172493D01*
X98384819Y-85172493D02*
X98432438Y-85315350D01*
X98432438Y-85315350D02*
X98527676Y-85410588D01*
X98527676Y-85410588D02*
X98622914Y-85458207D01*
X98622914Y-85458207D02*
X98813390Y-85505826D01*
X98813390Y-85505826D02*
X98956247Y-85505826D01*
X98956247Y-85505826D02*
X99146723Y-85458207D01*
X99146723Y-85458207D02*
X99241961Y-85410588D01*
X99241961Y-85410588D02*
X99337200Y-85315350D01*
X99337200Y-85315350D02*
X99384819Y-85172493D01*
X99384819Y-85172493D02*
X99384819Y-85077255D01*
X99384819Y-85077255D02*
X99337200Y-84934398D01*
X99337200Y-84934398D02*
X99289580Y-84886779D01*
X99289580Y-84886779D02*
X98956247Y-84886779D01*
X98956247Y-84886779D02*
X98956247Y-85077255D01*
X99384819Y-84458207D02*
X98384819Y-84458207D01*
X98384819Y-84458207D02*
X99384819Y-83886779D01*
X99384819Y-83886779D02*
X98384819Y-83886779D01*
X99384819Y-83410588D02*
X98384819Y-83410588D01*
X98384819Y-83410588D02*
X98384819Y-83172493D01*
X98384819Y-83172493D02*
X98432438Y-83029636D01*
X98432438Y-83029636D02*
X98527676Y-82934398D01*
X98527676Y-82934398D02*
X98622914Y-82886779D01*
X98622914Y-82886779D02*
X98813390Y-82839160D01*
X98813390Y-82839160D02*
X98956247Y-82839160D01*
X98956247Y-82839160D02*
X99146723Y-82886779D01*
X99146723Y-82886779D02*
X99241961Y-82934398D01*
X99241961Y-82934398D02*
X99337200Y-83029636D01*
X99337200Y-83029636D02*
X99384819Y-83172493D01*
X99384819Y-83172493D02*
X99384819Y-83410588D01*
X68665104Y-85474112D02*
X68665104Y-84997922D01*
X68950819Y-85569350D02*
X67950819Y-85236017D01*
X67950819Y-85236017D02*
X68950819Y-84902684D01*
X68950819Y-84045541D02*
X68950819Y-84616969D01*
X68950819Y-84331255D02*
X67950819Y-84331255D01*
X67950819Y-84331255D02*
X68093676Y-84426493D01*
X68093676Y-84426493D02*
X68188914Y-84521731D01*
X68188914Y-84521731D02*
X68236533Y-84616969D01*
X68284152Y-83188398D02*
X68950819Y-83188398D01*
X67903200Y-83426493D02*
X68617485Y-83664588D01*
X68617485Y-83664588D02*
X68617485Y-83045541D01*
X86445104Y-75656839D02*
X86445104Y-75180649D01*
X86730819Y-75752077D02*
X85730819Y-75418744D01*
X85730819Y-75418744D02*
X86730819Y-75085411D01*
X86730819Y-74228268D02*
X86730819Y-74799696D01*
X86730819Y-74513982D02*
X85730819Y-74513982D01*
X85730819Y-74513982D02*
X85873676Y-74609220D01*
X85873676Y-74609220D02*
X85968914Y-74704458D01*
X85968914Y-74704458D02*
X86016533Y-74799696D01*
X81365104Y-75656839D02*
X81365104Y-75180649D01*
X81650819Y-75752077D02*
X80650819Y-75418744D01*
X80650819Y-75418744D02*
X81650819Y-75085411D01*
X80650819Y-74275887D02*
X80650819Y-74752077D01*
X80650819Y-74752077D02*
X81127009Y-74799696D01*
X81127009Y-74799696D02*
X81079390Y-74752077D01*
X81079390Y-74752077D02*
X81031771Y-74656839D01*
X81031771Y-74656839D02*
X81031771Y-74418744D01*
X81031771Y-74418744D02*
X81079390Y-74323506D01*
X81079390Y-74323506D02*
X81127009Y-74275887D01*
X81127009Y-74275887D02*
X81222247Y-74228268D01*
X81222247Y-74228268D02*
X81460342Y-74228268D01*
X81460342Y-74228268D02*
X81555580Y-74275887D01*
X81555580Y-74275887D02*
X81603200Y-74323506D01*
X81603200Y-74323506D02*
X81650819Y-74418744D01*
X81650819Y-74418744D02*
X81650819Y-74656839D01*
X81650819Y-74656839D02*
X81603200Y-74752077D01*
X81603200Y-74752077D02*
X81555580Y-74799696D01*
X76285104Y-75656839D02*
X76285104Y-75180649D01*
X76570819Y-75752077D02*
X75570819Y-75418744D01*
X75570819Y-75418744D02*
X76570819Y-75085411D01*
X76570819Y-74704458D02*
X76570819Y-74513982D01*
X76570819Y-74513982D02*
X76523200Y-74418744D01*
X76523200Y-74418744D02*
X76475580Y-74371125D01*
X76475580Y-74371125D02*
X76332723Y-74275887D01*
X76332723Y-74275887D02*
X76142247Y-74228268D01*
X76142247Y-74228268D02*
X75761295Y-74228268D01*
X75761295Y-74228268D02*
X75666057Y-74275887D01*
X75666057Y-74275887D02*
X75618438Y-74323506D01*
X75618438Y-74323506D02*
X75570819Y-74418744D01*
X75570819Y-74418744D02*
X75570819Y-74609220D01*
X75570819Y-74609220D02*
X75618438Y-74704458D01*
X75618438Y-74704458D02*
X75666057Y-74752077D01*
X75666057Y-74752077D02*
X75761295Y-74799696D01*
X75761295Y-74799696D02*
X75999390Y-74799696D01*
X75999390Y-74799696D02*
X76094628Y-74752077D01*
X76094628Y-74752077D02*
X76142247Y-74704458D01*
X76142247Y-74704458D02*
X76189866Y-74609220D01*
X76189866Y-74609220D02*
X76189866Y-74418744D01*
X76189866Y-74418744D02*
X76142247Y-74323506D01*
X76142247Y-74323506D02*
X76094628Y-74275887D01*
X76094628Y-74275887D02*
X75999390Y-74228268D01*
X94604819Y-84616969D02*
X93604819Y-84616969D01*
X93604819Y-84616969D02*
X93604819Y-84378874D01*
X93604819Y-84378874D02*
X93652438Y-84236017D01*
X93652438Y-84236017D02*
X93747676Y-84140779D01*
X93747676Y-84140779D02*
X93842914Y-84093160D01*
X93842914Y-84093160D02*
X94033390Y-84045541D01*
X94033390Y-84045541D02*
X94176247Y-84045541D01*
X94176247Y-84045541D02*
X94366723Y-84093160D01*
X94366723Y-84093160D02*
X94461961Y-84140779D01*
X94461961Y-84140779D02*
X94557200Y-84236017D01*
X94557200Y-84236017D02*
X94604819Y-84378874D01*
X94604819Y-84378874D02*
X94604819Y-84616969D01*
X93700057Y-83664588D02*
X93652438Y-83616969D01*
X93652438Y-83616969D02*
X93604819Y-83521731D01*
X93604819Y-83521731D02*
X93604819Y-83283636D01*
X93604819Y-83283636D02*
X93652438Y-83188398D01*
X93652438Y-83188398D02*
X93700057Y-83140779D01*
X93700057Y-83140779D02*
X93795295Y-83093160D01*
X93795295Y-83093160D02*
X93890533Y-83093160D01*
X93890533Y-83093160D02*
X94033390Y-83140779D01*
X94033390Y-83140779D02*
X94604819Y-83712207D01*
X94604819Y-83712207D02*
X94604819Y-83093160D01*
D12*
X31174666Y-79201672D02*
X30774666Y-79201672D01*
X30974666Y-79201672D02*
X30974666Y-78501672D01*
X30974666Y-78501672D02*
X30907999Y-78601672D01*
X30907999Y-78601672D02*
X30841333Y-78668339D01*
X30841333Y-78668339D02*
X30774666Y-78701672D01*
X31608000Y-78501672D02*
X31674666Y-78501672D01*
X31674666Y-78501672D02*
X31741333Y-78535005D01*
X31741333Y-78535005D02*
X31774666Y-78568339D01*
X31774666Y-78568339D02*
X31808000Y-78635005D01*
X31808000Y-78635005D02*
X31841333Y-78768339D01*
X31841333Y-78768339D02*
X31841333Y-78935005D01*
X31841333Y-78935005D02*
X31808000Y-79068339D01*
X31808000Y-79068339D02*
X31774666Y-79135005D01*
X31774666Y-79135005D02*
X31741333Y-79168339D01*
X31741333Y-79168339D02*
X31674666Y-79201672D01*
X31674666Y-79201672D02*
X31608000Y-79201672D01*
X31608000Y-79201672D02*
X31541333Y-79168339D01*
X31541333Y-79168339D02*
X31508000Y-79135005D01*
X31508000Y-79135005D02*
X31474666Y-79068339D01*
X31474666Y-79068339D02*
X31441333Y-78935005D01*
X31441333Y-78935005D02*
X31441333Y-78768339D01*
X31441333Y-78768339D02*
X31474666Y-78635005D01*
X31474666Y-78635005D02*
X31508000Y-78568339D01*
X31508000Y-78568339D02*
X31541333Y-78535005D01*
X31541333Y-78535005D02*
X31608000Y-78501672D01*
X32274667Y-78501672D02*
X32341333Y-78501672D01*
X32341333Y-78501672D02*
X32408000Y-78535005D01*
X32408000Y-78535005D02*
X32441333Y-78568339D01*
X32441333Y-78568339D02*
X32474667Y-78635005D01*
X32474667Y-78635005D02*
X32508000Y-78768339D01*
X32508000Y-78768339D02*
X32508000Y-78935005D01*
X32508000Y-78935005D02*
X32474667Y-79068339D01*
X32474667Y-79068339D02*
X32441333Y-79135005D01*
X32441333Y-79135005D02*
X32408000Y-79168339D01*
X32408000Y-79168339D02*
X32341333Y-79201672D01*
X32341333Y-79201672D02*
X32274667Y-79201672D01*
X32274667Y-79201672D02*
X32208000Y-79168339D01*
X32208000Y-79168339D02*
X32174667Y-79135005D01*
X32174667Y-79135005D02*
X32141333Y-79068339D01*
X32141333Y-79068339D02*
X32108000Y-78935005D01*
X32108000Y-78935005D02*
X32108000Y-78768339D01*
X32108000Y-78768339D02*
X32141333Y-78635005D01*
X32141333Y-78635005D02*
X32174667Y-78568339D01*
X32174667Y-78568339D02*
X32208000Y-78535005D01*
X32208000Y-78535005D02*
X32274667Y-78501672D01*
X33108000Y-78735005D02*
X33108000Y-79201672D01*
X32808000Y-78735005D02*
X32808000Y-79101672D01*
X32808000Y-79101672D02*
X32841334Y-79168339D01*
X32841334Y-79168339D02*
X32908000Y-79201672D01*
X32908000Y-79201672D02*
X33008000Y-79201672D01*
X33008000Y-79201672D02*
X33074667Y-79168339D01*
X33074667Y-79168339D02*
X33108000Y-79135005D01*
X33674667Y-78835005D02*
X33441333Y-78835005D01*
X33441333Y-79201672D02*
X33441333Y-78501672D01*
X33441333Y-78501672D02*
X33774667Y-78501672D01*
X30891334Y-79861966D02*
X31024667Y-80328633D01*
X31024667Y-80328633D02*
X31158000Y-79995300D01*
X31158000Y-79995300D02*
X31291334Y-80328633D01*
X31291334Y-80328633D02*
X31424667Y-79861966D01*
X31791333Y-80328633D02*
X31724667Y-80295300D01*
X31724667Y-80295300D02*
X31691333Y-80261966D01*
X31691333Y-80261966D02*
X31658000Y-80195300D01*
X31658000Y-80195300D02*
X31658000Y-79995300D01*
X31658000Y-79995300D02*
X31691333Y-79928633D01*
X31691333Y-79928633D02*
X31724667Y-79895300D01*
X31724667Y-79895300D02*
X31791333Y-79861966D01*
X31791333Y-79861966D02*
X31891333Y-79861966D01*
X31891333Y-79861966D02*
X31958000Y-79895300D01*
X31958000Y-79895300D02*
X31991333Y-79928633D01*
X31991333Y-79928633D02*
X32024667Y-79995300D01*
X32024667Y-79995300D02*
X32024667Y-80195300D01*
X32024667Y-80195300D02*
X31991333Y-80261966D01*
X31991333Y-80261966D02*
X31958000Y-80295300D01*
X31958000Y-80295300D02*
X31891333Y-80328633D01*
X31891333Y-80328633D02*
X31791333Y-80328633D01*
X32324666Y-80328633D02*
X32324666Y-79861966D01*
X32324666Y-79995300D02*
X32358000Y-79928633D01*
X32358000Y-79928633D02*
X32391333Y-79895300D01*
X32391333Y-79895300D02*
X32458000Y-79861966D01*
X32458000Y-79861966D02*
X32524666Y-79861966D01*
X32757999Y-80328633D02*
X32757999Y-79628633D01*
X32824666Y-80061966D02*
X33024666Y-80328633D01*
X33024666Y-79861966D02*
X32757999Y-80128633D01*
X33291333Y-80295300D02*
X33358000Y-80328633D01*
X33358000Y-80328633D02*
X33491333Y-80328633D01*
X33491333Y-80328633D02*
X33558000Y-80295300D01*
X33558000Y-80295300D02*
X33591333Y-80228633D01*
X33591333Y-80228633D02*
X33591333Y-80195300D01*
X33591333Y-80195300D02*
X33558000Y-80128633D01*
X33558000Y-80128633D02*
X33491333Y-80095300D01*
X33491333Y-80095300D02*
X33391333Y-80095300D01*
X33391333Y-80095300D02*
X33324666Y-80061966D01*
X33324666Y-80061966D02*
X33291333Y-79995300D01*
X33291333Y-79995300D02*
X33291333Y-79961966D01*
X33291333Y-79961966D02*
X33324666Y-79895300D01*
X33324666Y-79895300D02*
X33391333Y-79861966D01*
X33391333Y-79861966D02*
X33491333Y-79861966D01*
X33491333Y-79861966D02*
X33558000Y-79895300D01*
X30824666Y-81455594D02*
X30824666Y-81088927D01*
X30824666Y-81088927D02*
X30791333Y-81022261D01*
X30791333Y-81022261D02*
X30724666Y-80988927D01*
X30724666Y-80988927D02*
X30591333Y-80988927D01*
X30591333Y-80988927D02*
X30524666Y-81022261D01*
X30824666Y-81422261D02*
X30758000Y-81455594D01*
X30758000Y-81455594D02*
X30591333Y-81455594D01*
X30591333Y-81455594D02*
X30524666Y-81422261D01*
X30524666Y-81422261D02*
X30491333Y-81355594D01*
X30491333Y-81355594D02*
X30491333Y-81288927D01*
X30491333Y-81288927D02*
X30524666Y-81222261D01*
X30524666Y-81222261D02*
X30591333Y-81188927D01*
X30591333Y-81188927D02*
X30758000Y-81188927D01*
X30758000Y-81188927D02*
X30824666Y-81155594D01*
X31124666Y-81422261D02*
X31191333Y-81455594D01*
X31191333Y-81455594D02*
X31324666Y-81455594D01*
X31324666Y-81455594D02*
X31391333Y-81422261D01*
X31391333Y-81422261D02*
X31424666Y-81355594D01*
X31424666Y-81355594D02*
X31424666Y-81322261D01*
X31424666Y-81322261D02*
X31391333Y-81255594D01*
X31391333Y-81255594D02*
X31324666Y-81222261D01*
X31324666Y-81222261D02*
X31224666Y-81222261D01*
X31224666Y-81222261D02*
X31157999Y-81188927D01*
X31157999Y-81188927D02*
X31124666Y-81122261D01*
X31124666Y-81122261D02*
X31124666Y-81088927D01*
X31124666Y-81088927D02*
X31157999Y-81022261D01*
X31157999Y-81022261D02*
X31224666Y-80988927D01*
X31224666Y-80988927D02*
X31324666Y-80988927D01*
X31324666Y-80988927D02*
X31391333Y-81022261D01*
X32191333Y-80988927D02*
X32324666Y-81455594D01*
X32324666Y-81455594D02*
X32457999Y-81122261D01*
X32457999Y-81122261D02*
X32591333Y-81455594D01*
X32591333Y-81455594D02*
X32724666Y-80988927D01*
X33257999Y-81422261D02*
X33191332Y-81455594D01*
X33191332Y-81455594D02*
X33057999Y-81455594D01*
X33057999Y-81455594D02*
X32991332Y-81422261D01*
X32991332Y-81422261D02*
X32957999Y-81355594D01*
X32957999Y-81355594D02*
X32957999Y-81088927D01*
X32957999Y-81088927D02*
X32991332Y-81022261D01*
X32991332Y-81022261D02*
X33057999Y-80988927D01*
X33057999Y-80988927D02*
X33191332Y-80988927D01*
X33191332Y-80988927D02*
X33257999Y-81022261D01*
X33257999Y-81022261D02*
X33291332Y-81088927D01*
X33291332Y-81088927D02*
X33291332Y-81155594D01*
X33291332Y-81155594D02*
X32957999Y-81222261D01*
X33691332Y-81455594D02*
X33624666Y-81422261D01*
X33624666Y-81422261D02*
X33591332Y-81355594D01*
X33591332Y-81355594D02*
X33591332Y-80755594D01*
X34057999Y-81455594D02*
X33991333Y-81422261D01*
X33991333Y-81422261D02*
X33957999Y-81355594D01*
X33957999Y-81355594D02*
X33957999Y-80755594D01*
D10*
X122628819Y-48291619D02*
X122152628Y-48624952D01*
X122628819Y-48863047D02*
X121628819Y-48863047D01*
X121628819Y-48863047D02*
X121628819Y-48482095D01*
X121628819Y-48482095D02*
X121676438Y-48386857D01*
X121676438Y-48386857D02*
X121724057Y-48339238D01*
X121724057Y-48339238D02*
X121819295Y-48291619D01*
X121819295Y-48291619D02*
X121962152Y-48291619D01*
X121962152Y-48291619D02*
X122057390Y-48339238D01*
X122057390Y-48339238D02*
X122105009Y-48386857D01*
X122105009Y-48386857D02*
X122152628Y-48482095D01*
X122152628Y-48482095D02*
X122152628Y-48863047D01*
X122105009Y-47863047D02*
X122105009Y-47529714D01*
X122628819Y-47386857D02*
X122628819Y-47863047D01*
X122628819Y-47863047D02*
X121628819Y-47863047D01*
X121628819Y-47863047D02*
X121628819Y-47386857D01*
X121628819Y-47101142D02*
X122628819Y-46767809D01*
X122628819Y-46767809D02*
X121628819Y-46434476D01*
X121628819Y-45910666D02*
X121628819Y-45815428D01*
X121628819Y-45815428D02*
X121676438Y-45720190D01*
X121676438Y-45720190D02*
X121724057Y-45672571D01*
X121724057Y-45672571D02*
X121819295Y-45624952D01*
X121819295Y-45624952D02*
X122009771Y-45577333D01*
X122009771Y-45577333D02*
X122247866Y-45577333D01*
X122247866Y-45577333D02*
X122438342Y-45624952D01*
X122438342Y-45624952D02*
X122533580Y-45672571D01*
X122533580Y-45672571D02*
X122581200Y-45720190D01*
X122581200Y-45720190D02*
X122628819Y-45815428D01*
X122628819Y-45815428D02*
X122628819Y-45910666D01*
X122628819Y-45910666D02*
X122581200Y-46005904D01*
X122581200Y-46005904D02*
X122533580Y-46053523D01*
X122533580Y-46053523D02*
X122438342Y-46101142D01*
X122438342Y-46101142D02*
X122247866Y-46148761D01*
X122247866Y-46148761D02*
X122009771Y-46148761D01*
X122009771Y-46148761D02*
X121819295Y-46101142D01*
X121819295Y-46101142D02*
X121724057Y-46053523D01*
X121724057Y-46053523D02*
X121676438Y-46005904D01*
X121676438Y-46005904D02*
X121628819Y-45910666D01*
X73361779Y-47444819D02*
X73361779Y-46444819D01*
X73361779Y-46444819D02*
X73742731Y-46444819D01*
X73742731Y-46444819D02*
X73837969Y-46492438D01*
X73837969Y-46492438D02*
X73885588Y-46540057D01*
X73885588Y-46540057D02*
X73933207Y-46635295D01*
X73933207Y-46635295D02*
X73933207Y-46778152D01*
X73933207Y-46778152D02*
X73885588Y-46873390D01*
X73885588Y-46873390D02*
X73837969Y-46921009D01*
X73837969Y-46921009D02*
X73742731Y-46968628D01*
X73742731Y-46968628D02*
X73361779Y-46968628D01*
X74314160Y-46540057D02*
X74361779Y-46492438D01*
X74361779Y-46492438D02*
X74457017Y-46444819D01*
X74457017Y-46444819D02*
X74695112Y-46444819D01*
X74695112Y-46444819D02*
X74790350Y-46492438D01*
X74790350Y-46492438D02*
X74837969Y-46540057D01*
X74837969Y-46540057D02*
X74885588Y-46635295D01*
X74885588Y-46635295D02*
X74885588Y-46730533D01*
X74885588Y-46730533D02*
X74837969Y-46873390D01*
X74837969Y-46873390D02*
X74266541Y-47444819D01*
X74266541Y-47444819D02*
X74885588Y-47444819D01*
X75504636Y-46444819D02*
X75599874Y-46444819D01*
X75599874Y-46444819D02*
X75695112Y-46492438D01*
X75695112Y-46492438D02*
X75742731Y-46540057D01*
X75742731Y-46540057D02*
X75790350Y-46635295D01*
X75790350Y-46635295D02*
X75837969Y-46825771D01*
X75837969Y-46825771D02*
X75837969Y-47063866D01*
X75837969Y-47063866D02*
X75790350Y-47254342D01*
X75790350Y-47254342D02*
X75742731Y-47349580D01*
X75742731Y-47349580D02*
X75695112Y-47397200D01*
X75695112Y-47397200D02*
X75599874Y-47444819D01*
X75599874Y-47444819D02*
X75504636Y-47444819D01*
X75504636Y-47444819D02*
X75409398Y-47397200D01*
X75409398Y-47397200D02*
X75361779Y-47349580D01*
X75361779Y-47349580D02*
X75314160Y-47254342D01*
X75314160Y-47254342D02*
X75266541Y-47063866D01*
X75266541Y-47063866D02*
X75266541Y-46825771D01*
X75266541Y-46825771D02*
X75314160Y-46635295D01*
X75314160Y-46635295D02*
X75361779Y-46540057D01*
X75361779Y-46540057D02*
X75409398Y-46492438D01*
X75409398Y-46492438D02*
X75504636Y-46444819D01*
X76457017Y-46444819D02*
X76552255Y-46444819D01*
X76552255Y-46444819D02*
X76647493Y-46492438D01*
X76647493Y-46492438D02*
X76695112Y-46540057D01*
X76695112Y-46540057D02*
X76742731Y-46635295D01*
X76742731Y-46635295D02*
X76790350Y-46825771D01*
X76790350Y-46825771D02*
X76790350Y-47063866D01*
X76790350Y-47063866D02*
X76742731Y-47254342D01*
X76742731Y-47254342D02*
X76695112Y-47349580D01*
X76695112Y-47349580D02*
X76647493Y-47397200D01*
X76647493Y-47397200D02*
X76552255Y-47444819D01*
X76552255Y-47444819D02*
X76457017Y-47444819D01*
X76457017Y-47444819D02*
X76361779Y-47397200D01*
X76361779Y-47397200D02*
X76314160Y-47349580D01*
X76314160Y-47349580D02*
X76266541Y-47254342D01*
X76266541Y-47254342D02*
X76218922Y-47063866D01*
X76218922Y-47063866D02*
X76218922Y-46825771D01*
X76218922Y-46825771D02*
X76266541Y-46635295D01*
X76266541Y-46635295D02*
X76314160Y-46540057D01*
X76314160Y-46540057D02*
X76361779Y-46492438D01*
X76361779Y-46492438D02*
X76457017Y-46444819D01*
X77409398Y-46444819D02*
X77504636Y-46444819D01*
X77504636Y-46444819D02*
X77599874Y-46492438D01*
X77599874Y-46492438D02*
X77647493Y-46540057D01*
X77647493Y-46540057D02*
X77695112Y-46635295D01*
X77695112Y-46635295D02*
X77742731Y-46825771D01*
X77742731Y-46825771D02*
X77742731Y-47063866D01*
X77742731Y-47063866D02*
X77695112Y-47254342D01*
X77695112Y-47254342D02*
X77647493Y-47349580D01*
X77647493Y-47349580D02*
X77599874Y-47397200D01*
X77599874Y-47397200D02*
X77504636Y-47444819D01*
X77504636Y-47444819D02*
X77409398Y-47444819D01*
X77409398Y-47444819D02*
X77314160Y-47397200D01*
X77314160Y-47397200D02*
X77266541Y-47349580D01*
X77266541Y-47349580D02*
X77218922Y-47254342D01*
X77218922Y-47254342D02*
X77171303Y-47063866D01*
X77171303Y-47063866D02*
X77171303Y-46825771D01*
X77171303Y-46825771D02*
X77218922Y-46635295D01*
X77218922Y-46635295D02*
X77266541Y-46540057D01*
X77266541Y-46540057D02*
X77314160Y-46492438D01*
X77314160Y-46492438D02*
X77409398Y-46444819D01*
X78028446Y-46444819D02*
X78599874Y-46444819D01*
X78314160Y-47444819D02*
X78314160Y-46444819D01*
X80266541Y-47444819D02*
X79933208Y-46968628D01*
X79695113Y-47444819D02*
X79695113Y-46444819D01*
X79695113Y-46444819D02*
X80076065Y-46444819D01*
X80076065Y-46444819D02*
X80171303Y-46492438D01*
X80171303Y-46492438D02*
X80218922Y-46540057D01*
X80218922Y-46540057D02*
X80266541Y-46635295D01*
X80266541Y-46635295D02*
X80266541Y-46778152D01*
X80266541Y-46778152D02*
X80218922Y-46873390D01*
X80218922Y-46873390D02*
X80171303Y-46921009D01*
X80171303Y-46921009D02*
X80076065Y-46968628D01*
X80076065Y-46968628D02*
X79695113Y-46968628D01*
X80647494Y-47159104D02*
X81123684Y-47159104D01*
X80552256Y-47444819D02*
X80885589Y-46444819D01*
X80885589Y-46444819D02*
X81218922Y-47444819D01*
X81552256Y-47444819D02*
X81552256Y-46444819D01*
X81552256Y-46444819D02*
X81885589Y-47159104D01*
X81885589Y-47159104D02*
X82218922Y-46444819D01*
X82218922Y-46444819D02*
X82218922Y-47444819D01*
X83457018Y-46921009D02*
X83790351Y-46921009D01*
X83933208Y-47444819D02*
X83457018Y-47444819D01*
X83457018Y-47444819D02*
X83457018Y-46444819D01*
X83457018Y-46444819D02*
X83933208Y-46444819D01*
X84266542Y-46444819D02*
X84933208Y-47444819D01*
X84933208Y-46444819D02*
X84266542Y-47444819D01*
X85314161Y-47444819D02*
X85314161Y-46444819D01*
X85314161Y-46444819D02*
X85695113Y-46444819D01*
X85695113Y-46444819D02*
X85790351Y-46492438D01*
X85790351Y-46492438D02*
X85837970Y-46540057D01*
X85837970Y-46540057D02*
X85885589Y-46635295D01*
X85885589Y-46635295D02*
X85885589Y-46778152D01*
X85885589Y-46778152D02*
X85837970Y-46873390D01*
X85837970Y-46873390D02*
X85790351Y-46921009D01*
X85790351Y-46921009D02*
X85695113Y-46968628D01*
X85695113Y-46968628D02*
X85314161Y-46968628D01*
X86266542Y-47159104D02*
X86742732Y-47159104D01*
X86171304Y-47444819D02*
X86504637Y-46444819D01*
X86504637Y-46444819D02*
X86837970Y-47444819D01*
X87171304Y-47444819D02*
X87171304Y-46444819D01*
X87171304Y-46444819D02*
X87742732Y-47444819D01*
X87742732Y-47444819D02*
X87742732Y-46444819D01*
X88171304Y-47397200D02*
X88314161Y-47444819D01*
X88314161Y-47444819D02*
X88552256Y-47444819D01*
X88552256Y-47444819D02*
X88647494Y-47397200D01*
X88647494Y-47397200D02*
X88695113Y-47349580D01*
X88695113Y-47349580D02*
X88742732Y-47254342D01*
X88742732Y-47254342D02*
X88742732Y-47159104D01*
X88742732Y-47159104D02*
X88695113Y-47063866D01*
X88695113Y-47063866D02*
X88647494Y-47016247D01*
X88647494Y-47016247D02*
X88552256Y-46968628D01*
X88552256Y-46968628D02*
X88361780Y-46921009D01*
X88361780Y-46921009D02*
X88266542Y-46873390D01*
X88266542Y-46873390D02*
X88218923Y-46825771D01*
X88218923Y-46825771D02*
X88171304Y-46730533D01*
X88171304Y-46730533D02*
X88171304Y-46635295D01*
X88171304Y-46635295D02*
X88218923Y-46540057D01*
X88218923Y-46540057D02*
X88266542Y-46492438D01*
X88266542Y-46492438D02*
X88361780Y-46444819D01*
X88361780Y-46444819D02*
X88599875Y-46444819D01*
X88599875Y-46444819D02*
X88742732Y-46492438D01*
X89171304Y-47444819D02*
X89171304Y-46444819D01*
X89837970Y-46444819D02*
X90028446Y-46444819D01*
X90028446Y-46444819D02*
X90123684Y-46492438D01*
X90123684Y-46492438D02*
X90218922Y-46587676D01*
X90218922Y-46587676D02*
X90266541Y-46778152D01*
X90266541Y-46778152D02*
X90266541Y-47111485D01*
X90266541Y-47111485D02*
X90218922Y-47301961D01*
X90218922Y-47301961D02*
X90123684Y-47397200D01*
X90123684Y-47397200D02*
X90028446Y-47444819D01*
X90028446Y-47444819D02*
X89837970Y-47444819D01*
X89837970Y-47444819D02*
X89742732Y-47397200D01*
X89742732Y-47397200D02*
X89647494Y-47301961D01*
X89647494Y-47301961D02*
X89599875Y-47111485D01*
X89599875Y-47111485D02*
X89599875Y-46778152D01*
X89599875Y-46778152D02*
X89647494Y-46587676D01*
X89647494Y-46587676D02*
X89742732Y-46492438D01*
X89742732Y-46492438D02*
X89837970Y-46444819D01*
X90695113Y-47444819D02*
X90695113Y-46444819D01*
X90695113Y-46444819D02*
X91266541Y-47444819D01*
X91266541Y-47444819D02*
X91266541Y-46444819D01*
X92837970Y-46921009D02*
X92980827Y-46968628D01*
X92980827Y-46968628D02*
X93028446Y-47016247D01*
X93028446Y-47016247D02*
X93076065Y-47111485D01*
X93076065Y-47111485D02*
X93076065Y-47254342D01*
X93076065Y-47254342D02*
X93028446Y-47349580D01*
X93028446Y-47349580D02*
X92980827Y-47397200D01*
X92980827Y-47397200D02*
X92885589Y-47444819D01*
X92885589Y-47444819D02*
X92504637Y-47444819D01*
X92504637Y-47444819D02*
X92504637Y-46444819D01*
X92504637Y-46444819D02*
X92837970Y-46444819D01*
X92837970Y-46444819D02*
X92933208Y-46492438D01*
X92933208Y-46492438D02*
X92980827Y-46540057D01*
X92980827Y-46540057D02*
X93028446Y-46635295D01*
X93028446Y-46635295D02*
X93028446Y-46730533D01*
X93028446Y-46730533D02*
X92980827Y-46825771D01*
X92980827Y-46825771D02*
X92933208Y-46873390D01*
X92933208Y-46873390D02*
X92837970Y-46921009D01*
X92837970Y-46921009D02*
X92504637Y-46921009D01*
X93695113Y-46444819D02*
X93885589Y-46444819D01*
X93885589Y-46444819D02*
X93980827Y-46492438D01*
X93980827Y-46492438D02*
X94076065Y-46587676D01*
X94076065Y-46587676D02*
X94123684Y-46778152D01*
X94123684Y-46778152D02*
X94123684Y-47111485D01*
X94123684Y-47111485D02*
X94076065Y-47301961D01*
X94076065Y-47301961D02*
X93980827Y-47397200D01*
X93980827Y-47397200D02*
X93885589Y-47444819D01*
X93885589Y-47444819D02*
X93695113Y-47444819D01*
X93695113Y-47444819D02*
X93599875Y-47397200D01*
X93599875Y-47397200D02*
X93504637Y-47301961D01*
X93504637Y-47301961D02*
X93457018Y-47111485D01*
X93457018Y-47111485D02*
X93457018Y-46778152D01*
X93457018Y-46778152D02*
X93504637Y-46587676D01*
X93504637Y-46587676D02*
X93599875Y-46492438D01*
X93599875Y-46492438D02*
X93695113Y-46444819D01*
X94504637Y-47159104D02*
X94980827Y-47159104D01*
X94409399Y-47444819D02*
X94742732Y-46444819D01*
X94742732Y-46444819D02*
X95076065Y-47444819D01*
X95980827Y-47444819D02*
X95647494Y-46968628D01*
X95409399Y-47444819D02*
X95409399Y-46444819D01*
X95409399Y-46444819D02*
X95790351Y-46444819D01*
X95790351Y-46444819D02*
X95885589Y-46492438D01*
X95885589Y-46492438D02*
X95933208Y-46540057D01*
X95933208Y-46540057D02*
X95980827Y-46635295D01*
X95980827Y-46635295D02*
X95980827Y-46778152D01*
X95980827Y-46778152D02*
X95933208Y-46873390D01*
X95933208Y-46873390D02*
X95885589Y-46921009D01*
X95885589Y-46921009D02*
X95790351Y-46968628D01*
X95790351Y-46968628D02*
X95409399Y-46968628D01*
X96409399Y-47444819D02*
X96409399Y-46444819D01*
X96409399Y-46444819D02*
X96647494Y-46444819D01*
X96647494Y-46444819D02*
X96790351Y-46492438D01*
X96790351Y-46492438D02*
X96885589Y-46587676D01*
X96885589Y-46587676D02*
X96933208Y-46682914D01*
X96933208Y-46682914D02*
X96980827Y-46873390D01*
X96980827Y-46873390D02*
X96980827Y-47016247D01*
X96980827Y-47016247D02*
X96933208Y-47206723D01*
X96933208Y-47206723D02*
X96885589Y-47301961D01*
X96885589Y-47301961D02*
X96790351Y-47397200D01*
X96790351Y-47397200D02*
X96647494Y-47444819D01*
X96647494Y-47444819D02*
X96409399Y-47444819D01*
X98885589Y-46397200D02*
X98028447Y-47682914D01*
X100504637Y-47444819D02*
X99933209Y-47444819D01*
X100218923Y-47444819D02*
X100218923Y-46444819D01*
X100218923Y-46444819D02*
X100123685Y-46587676D01*
X100123685Y-46587676D02*
X100028447Y-46682914D01*
X100028447Y-46682914D02*
X99933209Y-46730533D01*
X100885590Y-46540057D02*
X100933209Y-46492438D01*
X100933209Y-46492438D02*
X101028447Y-46444819D01*
X101028447Y-46444819D02*
X101266542Y-46444819D01*
X101266542Y-46444819D02*
X101361780Y-46492438D01*
X101361780Y-46492438D02*
X101409399Y-46540057D01*
X101409399Y-46540057D02*
X101457018Y-46635295D01*
X101457018Y-46635295D02*
X101457018Y-46730533D01*
X101457018Y-46730533D02*
X101409399Y-46873390D01*
X101409399Y-46873390D02*
X100837971Y-47444819D01*
X100837971Y-47444819D02*
X101457018Y-47444819D01*
X102028447Y-46873390D02*
X101933209Y-46825771D01*
X101933209Y-46825771D02*
X101885590Y-46778152D01*
X101885590Y-46778152D02*
X101837971Y-46682914D01*
X101837971Y-46682914D02*
X101837971Y-46635295D01*
X101837971Y-46635295D02*
X101885590Y-46540057D01*
X101885590Y-46540057D02*
X101933209Y-46492438D01*
X101933209Y-46492438D02*
X102028447Y-46444819D01*
X102028447Y-46444819D02*
X102218923Y-46444819D01*
X102218923Y-46444819D02*
X102314161Y-46492438D01*
X102314161Y-46492438D02*
X102361780Y-46540057D01*
X102361780Y-46540057D02*
X102409399Y-46635295D01*
X102409399Y-46635295D02*
X102409399Y-46682914D01*
X102409399Y-46682914D02*
X102361780Y-46778152D01*
X102361780Y-46778152D02*
X102314161Y-46825771D01*
X102314161Y-46825771D02*
X102218923Y-46873390D01*
X102218923Y-46873390D02*
X102028447Y-46873390D01*
X102028447Y-46873390D02*
X101933209Y-46921009D01*
X101933209Y-46921009D02*
X101885590Y-46968628D01*
X101885590Y-46968628D02*
X101837971Y-47063866D01*
X101837971Y-47063866D02*
X101837971Y-47254342D01*
X101837971Y-47254342D02*
X101885590Y-47349580D01*
X101885590Y-47349580D02*
X101933209Y-47397200D01*
X101933209Y-47397200D02*
X102028447Y-47444819D01*
X102028447Y-47444819D02*
X102218923Y-47444819D01*
X102218923Y-47444819D02*
X102314161Y-47397200D01*
X102314161Y-47397200D02*
X102361780Y-47349580D01*
X102361780Y-47349580D02*
X102409399Y-47254342D01*
X102409399Y-47254342D02*
X102409399Y-47063866D01*
X102409399Y-47063866D02*
X102361780Y-46968628D01*
X102361780Y-46968628D02*
X102314161Y-46921009D01*
X102314161Y-46921009D02*
X102218923Y-46873390D01*
X102837971Y-47444819D02*
X102837971Y-46444819D01*
X103409399Y-47444819D02*
X102980828Y-46873390D01*
X103409399Y-46444819D02*
X102837971Y-47016247D01*
X103837971Y-47444819D02*
X103837971Y-46778152D01*
X103837971Y-46444819D02*
X103790352Y-46492438D01*
X103790352Y-46492438D02*
X103837971Y-46540057D01*
X103837971Y-46540057D02*
X103885590Y-46492438D01*
X103885590Y-46492438D02*
X103837971Y-46444819D01*
X103837971Y-46444819D02*
X103837971Y-46540057D01*
X104647494Y-46921009D02*
X104790351Y-46968628D01*
X104790351Y-46968628D02*
X104837970Y-47016247D01*
X104837970Y-47016247D02*
X104885589Y-47111485D01*
X104885589Y-47111485D02*
X104885589Y-47254342D01*
X104885589Y-47254342D02*
X104837970Y-47349580D01*
X104837970Y-47349580D02*
X104790351Y-47397200D01*
X104790351Y-47397200D02*
X104695113Y-47444819D01*
X104695113Y-47444819D02*
X104314161Y-47444819D01*
X104314161Y-47444819D02*
X104314161Y-46444819D01*
X104314161Y-46444819D02*
X104647494Y-46444819D01*
X104647494Y-46444819D02*
X104742732Y-46492438D01*
X104742732Y-46492438D02*
X104790351Y-46540057D01*
X104790351Y-46540057D02*
X104837970Y-46635295D01*
X104837970Y-46635295D02*
X104837970Y-46730533D01*
X104837970Y-46730533D02*
X104790351Y-46825771D01*
X104790351Y-46825771D02*
X104742732Y-46873390D01*
X104742732Y-46873390D02*
X104647494Y-46921009D01*
X104647494Y-46921009D02*
X104314161Y-46921009D01*
X106790351Y-46397200D02*
X105933209Y-47682914D01*
X108409399Y-47444819D02*
X107837971Y-47444819D01*
X108123685Y-47444819D02*
X108123685Y-46444819D01*
X108123685Y-46444819D02*
X108028447Y-46587676D01*
X108028447Y-46587676D02*
X107933209Y-46682914D01*
X107933209Y-46682914D02*
X107837971Y-46730533D01*
X109266542Y-46778152D02*
X109266542Y-47444819D01*
X109028447Y-46397200D02*
X108790352Y-47111485D01*
X108790352Y-47111485D02*
X109409399Y-47111485D01*
X109695114Y-47444819D02*
X110218923Y-46778152D01*
X109695114Y-46778152D02*
X110218923Y-47444819D01*
X110742733Y-46873390D02*
X110647495Y-46825771D01*
X110647495Y-46825771D02*
X110599876Y-46778152D01*
X110599876Y-46778152D02*
X110552257Y-46682914D01*
X110552257Y-46682914D02*
X110552257Y-46635295D01*
X110552257Y-46635295D02*
X110599876Y-46540057D01*
X110599876Y-46540057D02*
X110647495Y-46492438D01*
X110647495Y-46492438D02*
X110742733Y-46444819D01*
X110742733Y-46444819D02*
X110933209Y-46444819D01*
X110933209Y-46444819D02*
X111028447Y-46492438D01*
X111028447Y-46492438D02*
X111076066Y-46540057D01*
X111076066Y-46540057D02*
X111123685Y-46635295D01*
X111123685Y-46635295D02*
X111123685Y-46682914D01*
X111123685Y-46682914D02*
X111076066Y-46778152D01*
X111076066Y-46778152D02*
X111028447Y-46825771D01*
X111028447Y-46825771D02*
X110933209Y-46873390D01*
X110933209Y-46873390D02*
X110742733Y-46873390D01*
X110742733Y-46873390D02*
X110647495Y-46921009D01*
X110647495Y-46921009D02*
X110599876Y-46968628D01*
X110599876Y-46968628D02*
X110552257Y-47063866D01*
X110552257Y-47063866D02*
X110552257Y-47254342D01*
X110552257Y-47254342D02*
X110599876Y-47349580D01*
X110599876Y-47349580D02*
X110647495Y-47397200D01*
X110647495Y-47397200D02*
X110742733Y-47444819D01*
X110742733Y-47444819D02*
X110933209Y-47444819D01*
X110933209Y-47444819D02*
X111028447Y-47397200D01*
X111028447Y-47397200D02*
X111076066Y-47349580D01*
X111076066Y-47349580D02*
X111123685Y-47254342D01*
X111123685Y-47254342D02*
X111123685Y-47063866D01*
X111123685Y-47063866D02*
X111076066Y-46968628D01*
X111076066Y-46968628D02*
X111028447Y-46921009D01*
X111028447Y-46921009D02*
X110933209Y-46873390D01*
X111552257Y-47444819D02*
X111552257Y-46444819D01*
X112123685Y-47444819D02*
X111695114Y-46873390D01*
X112123685Y-46444819D02*
X111552257Y-47016247D01*
X112552257Y-47444819D02*
X112552257Y-46778152D01*
X112552257Y-46444819D02*
X112504638Y-46492438D01*
X112504638Y-46492438D02*
X112552257Y-46540057D01*
X112552257Y-46540057D02*
X112599876Y-46492438D01*
X112599876Y-46492438D02*
X112552257Y-46444819D01*
X112552257Y-46444819D02*
X112552257Y-46540057D01*
X113361780Y-46921009D02*
X113504637Y-46968628D01*
X113504637Y-46968628D02*
X113552256Y-47016247D01*
X113552256Y-47016247D02*
X113599875Y-47111485D01*
X113599875Y-47111485D02*
X113599875Y-47254342D01*
X113599875Y-47254342D02*
X113552256Y-47349580D01*
X113552256Y-47349580D02*
X113504637Y-47397200D01*
X113504637Y-47397200D02*
X113409399Y-47444819D01*
X113409399Y-47444819D02*
X113028447Y-47444819D01*
X113028447Y-47444819D02*
X113028447Y-46444819D01*
X113028447Y-46444819D02*
X113361780Y-46444819D01*
X113361780Y-46444819D02*
X113457018Y-46492438D01*
X113457018Y-46492438D02*
X113504637Y-46540057D01*
X113504637Y-46540057D02*
X113552256Y-46635295D01*
X113552256Y-46635295D02*
X113552256Y-46730533D01*
X113552256Y-46730533D02*
X113504637Y-46825771D01*
X113504637Y-46825771D02*
X113457018Y-46873390D01*
X113457018Y-46873390D02*
X113361780Y-46921009D01*
X113361780Y-46921009D02*
X113028447Y-46921009D01*
X115123685Y-46921009D02*
X115266542Y-46968628D01*
X115266542Y-46968628D02*
X115314161Y-47016247D01*
X115314161Y-47016247D02*
X115361780Y-47111485D01*
X115361780Y-47111485D02*
X115361780Y-47254342D01*
X115361780Y-47254342D02*
X115314161Y-47349580D01*
X115314161Y-47349580D02*
X115266542Y-47397200D01*
X115266542Y-47397200D02*
X115171304Y-47444819D01*
X115171304Y-47444819D02*
X114790352Y-47444819D01*
X114790352Y-47444819D02*
X114790352Y-46444819D01*
X114790352Y-46444819D02*
X115123685Y-46444819D01*
X115123685Y-46444819D02*
X115218923Y-46492438D01*
X115218923Y-46492438D02*
X115266542Y-46540057D01*
X115266542Y-46540057D02*
X115314161Y-46635295D01*
X115314161Y-46635295D02*
X115314161Y-46730533D01*
X115314161Y-46730533D02*
X115266542Y-46825771D01*
X115266542Y-46825771D02*
X115218923Y-46873390D01*
X115218923Y-46873390D02*
X115123685Y-46921009D01*
X115123685Y-46921009D02*
X114790352Y-46921009D01*
X116218923Y-47444819D02*
X116218923Y-46921009D01*
X116218923Y-46921009D02*
X116171304Y-46825771D01*
X116171304Y-46825771D02*
X116076066Y-46778152D01*
X116076066Y-46778152D02*
X115885590Y-46778152D01*
X115885590Y-46778152D02*
X115790352Y-46825771D01*
X116218923Y-47397200D02*
X116123685Y-47444819D01*
X116123685Y-47444819D02*
X115885590Y-47444819D01*
X115885590Y-47444819D02*
X115790352Y-47397200D01*
X115790352Y-47397200D02*
X115742733Y-47301961D01*
X115742733Y-47301961D02*
X115742733Y-47206723D01*
X115742733Y-47206723D02*
X115790352Y-47111485D01*
X115790352Y-47111485D02*
X115885590Y-47063866D01*
X115885590Y-47063866D02*
X116123685Y-47063866D01*
X116123685Y-47063866D02*
X116218923Y-47016247D01*
X116695114Y-46778152D02*
X116695114Y-47444819D01*
X116695114Y-46873390D02*
X116742733Y-46825771D01*
X116742733Y-46825771D02*
X116837971Y-46778152D01*
X116837971Y-46778152D02*
X116980828Y-46778152D01*
X116980828Y-46778152D02*
X117076066Y-46825771D01*
X117076066Y-46825771D02*
X117123685Y-46921009D01*
X117123685Y-46921009D02*
X117123685Y-47444819D01*
X117599876Y-47444819D02*
X117599876Y-46444819D01*
X117695114Y-47063866D02*
X117980828Y-47444819D01*
X117980828Y-46778152D02*
X117599876Y-47159104D01*
X118409400Y-47444819D02*
X118409400Y-46778152D01*
X118409400Y-46444819D02*
X118361781Y-46492438D01*
X118361781Y-46492438D02*
X118409400Y-46540057D01*
X118409400Y-46540057D02*
X118457019Y-46492438D01*
X118457019Y-46492438D02*
X118409400Y-46444819D01*
X118409400Y-46444819D02*
X118409400Y-46540057D01*
X118885590Y-46778152D02*
X118885590Y-47444819D01*
X118885590Y-46873390D02*
X118933209Y-46825771D01*
X118933209Y-46825771D02*
X119028447Y-46778152D01*
X119028447Y-46778152D02*
X119171304Y-46778152D01*
X119171304Y-46778152D02*
X119266542Y-46825771D01*
X119266542Y-46825771D02*
X119314161Y-46921009D01*
X119314161Y-46921009D02*
X119314161Y-47444819D01*
X120218923Y-46778152D02*
X120218923Y-47587676D01*
X120218923Y-47587676D02*
X120171304Y-47682914D01*
X120171304Y-47682914D02*
X120123685Y-47730533D01*
X120123685Y-47730533D02*
X120028447Y-47778152D01*
X120028447Y-47778152D02*
X119885590Y-47778152D01*
X119885590Y-47778152D02*
X119790352Y-47730533D01*
X120218923Y-47397200D02*
X120123685Y-47444819D01*
X120123685Y-47444819D02*
X119933209Y-47444819D01*
X119933209Y-47444819D02*
X119837971Y-47397200D01*
X119837971Y-47397200D02*
X119790352Y-47349580D01*
X119790352Y-47349580D02*
X119742733Y-47254342D01*
X119742733Y-47254342D02*
X119742733Y-46968628D01*
X119742733Y-46968628D02*
X119790352Y-46873390D01*
X119790352Y-46873390D02*
X119837971Y-46825771D01*
X119837971Y-46825771D02*
X119933209Y-46778152D01*
X119933209Y-46778152D02*
X120123685Y-46778152D01*
X120123685Y-46778152D02*
X120218923Y-46825771D01*
X71459104Y-75656839D02*
X71459104Y-75180649D01*
X71744819Y-75752077D02*
X70744819Y-75418744D01*
X70744819Y-75418744D02*
X71744819Y-75085411D01*
X71744819Y-74228268D02*
X71744819Y-74799696D01*
X71744819Y-74513982D02*
X70744819Y-74513982D01*
X70744819Y-74513982D02*
X70887676Y-74609220D01*
X70887676Y-74609220D02*
X70982914Y-74704458D01*
X70982914Y-74704458D02*
X71030533Y-74799696D01*
X70744819Y-73894934D02*
X70744819Y-73275887D01*
X70744819Y-73275887D02*
X71125771Y-73609220D01*
X71125771Y-73609220D02*
X71125771Y-73466363D01*
X71125771Y-73466363D02*
X71173390Y-73371125D01*
X71173390Y-73371125D02*
X71221009Y-73323506D01*
X71221009Y-73323506D02*
X71316247Y-73275887D01*
X71316247Y-73275887D02*
X71554342Y-73275887D01*
X71554342Y-73275887D02*
X71649580Y-73323506D01*
X71649580Y-73323506D02*
X71697200Y-73371125D01*
X71697200Y-73371125D02*
X71744819Y-73466363D01*
X71744819Y-73466363D02*
X71744819Y-73752077D01*
X71744819Y-73752077D02*
X71697200Y-73847315D01*
X71697200Y-73847315D02*
X71649580Y-73894934D01*
X89259580Y-57316666D02*
X89307200Y-57364285D01*
X89307200Y-57364285D02*
X89354819Y-57507142D01*
X89354819Y-57507142D02*
X89354819Y-57602380D01*
X89354819Y-57602380D02*
X89307200Y-57745237D01*
X89307200Y-57745237D02*
X89211961Y-57840475D01*
X89211961Y-57840475D02*
X89116723Y-57888094D01*
X89116723Y-57888094D02*
X88926247Y-57935713D01*
X88926247Y-57935713D02*
X88783390Y-57935713D01*
X88783390Y-57935713D02*
X88592914Y-57888094D01*
X88592914Y-57888094D02*
X88497676Y-57840475D01*
X88497676Y-57840475D02*
X88402438Y-57745237D01*
X88402438Y-57745237D02*
X88354819Y-57602380D01*
X88354819Y-57602380D02*
X88354819Y-57507142D01*
X88354819Y-57507142D02*
X88402438Y-57364285D01*
X88402438Y-57364285D02*
X88450057Y-57316666D01*
X89354819Y-56364285D02*
X89354819Y-56935713D01*
X89354819Y-56649999D02*
X88354819Y-56649999D01*
X88354819Y-56649999D02*
X88497676Y-56745237D01*
X88497676Y-56745237D02*
X88592914Y-56840475D01*
X88592914Y-56840475D02*
X88640533Y-56935713D01*
X78083580Y-55030666D02*
X78131200Y-55078285D01*
X78131200Y-55078285D02*
X78178819Y-55221142D01*
X78178819Y-55221142D02*
X78178819Y-55316380D01*
X78178819Y-55316380D02*
X78131200Y-55459237D01*
X78131200Y-55459237D02*
X78035961Y-55554475D01*
X78035961Y-55554475D02*
X77940723Y-55602094D01*
X77940723Y-55602094D02*
X77750247Y-55649713D01*
X77750247Y-55649713D02*
X77607390Y-55649713D01*
X77607390Y-55649713D02*
X77416914Y-55602094D01*
X77416914Y-55602094D02*
X77321676Y-55554475D01*
X77321676Y-55554475D02*
X77226438Y-55459237D01*
X77226438Y-55459237D02*
X77178819Y-55316380D01*
X77178819Y-55316380D02*
X77178819Y-55221142D01*
X77178819Y-55221142D02*
X77226438Y-55078285D01*
X77226438Y-55078285D02*
X77274057Y-55030666D01*
X78178819Y-54554475D02*
X78178819Y-54363999D01*
X78178819Y-54363999D02*
X78131200Y-54268761D01*
X78131200Y-54268761D02*
X78083580Y-54221142D01*
X78083580Y-54221142D02*
X77940723Y-54125904D01*
X77940723Y-54125904D02*
X77750247Y-54078285D01*
X77750247Y-54078285D02*
X77369295Y-54078285D01*
X77369295Y-54078285D02*
X77274057Y-54125904D01*
X77274057Y-54125904D02*
X77226438Y-54173523D01*
X77226438Y-54173523D02*
X77178819Y-54268761D01*
X77178819Y-54268761D02*
X77178819Y-54459237D01*
X77178819Y-54459237D02*
X77226438Y-54554475D01*
X77226438Y-54554475D02*
X77274057Y-54602094D01*
X77274057Y-54602094D02*
X77369295Y-54649713D01*
X77369295Y-54649713D02*
X77607390Y-54649713D01*
X77607390Y-54649713D02*
X77702628Y-54602094D01*
X77702628Y-54602094D02*
X77750247Y-54554475D01*
X77750247Y-54554475D02*
X77797866Y-54459237D01*
X77797866Y-54459237D02*
X77797866Y-54268761D01*
X77797866Y-54268761D02*
X77750247Y-54173523D01*
X77750247Y-54173523D02*
X77702628Y-54125904D01*
X77702628Y-54125904D02*
X77607390Y-54078285D01*
X36942819Y-80240094D02*
X35942819Y-80240094D01*
X35942819Y-80240094D02*
X35942819Y-80001999D01*
X35942819Y-80001999D02*
X35990438Y-79859142D01*
X35990438Y-79859142D02*
X36085676Y-79763904D01*
X36085676Y-79763904D02*
X36180914Y-79716285D01*
X36180914Y-79716285D02*
X36371390Y-79668666D01*
X36371390Y-79668666D02*
X36514247Y-79668666D01*
X36514247Y-79668666D02*
X36704723Y-79716285D01*
X36704723Y-79716285D02*
X36799961Y-79763904D01*
X36799961Y-79763904D02*
X36895200Y-79859142D01*
X36895200Y-79859142D02*
X36942819Y-80001999D01*
X36942819Y-80001999D02*
X36942819Y-80240094D01*
X36942819Y-78716285D02*
X36942819Y-79287713D01*
X36942819Y-79001999D02*
X35942819Y-79001999D01*
X35942819Y-79001999D02*
X36085676Y-79097237D01*
X36085676Y-79097237D02*
X36180914Y-79192475D01*
X36180914Y-79192475D02*
X36228533Y-79287713D01*
X41182819Y-81644857D02*
X41182819Y-82216285D01*
X41182819Y-81930571D02*
X40182819Y-81930571D01*
X40182819Y-81930571D02*
X40325676Y-82025809D01*
X40325676Y-82025809D02*
X40420914Y-82121047D01*
X40420914Y-82121047D02*
X40468533Y-82216285D01*
X41182819Y-81216285D02*
X40182819Y-81216285D01*
X40182819Y-81216285D02*
X41182819Y-80644857D01*
X41182819Y-80644857D02*
X40182819Y-80644857D01*
X40516152Y-79740095D02*
X41182819Y-79740095D01*
X40135200Y-79978190D02*
X40849485Y-80216285D01*
X40849485Y-80216285D02*
X40849485Y-79597238D01*
X41182819Y-78692476D02*
X41182819Y-79263904D01*
X41182819Y-78978190D02*
X40182819Y-78978190D01*
X40182819Y-78978190D02*
X40325676Y-79073428D01*
X40325676Y-79073428D02*
X40420914Y-79168666D01*
X40420914Y-79168666D02*
X40468533Y-79263904D01*
X40516152Y-77835333D02*
X41182819Y-77835333D01*
X40135200Y-78073428D02*
X40849485Y-78311523D01*
X40849485Y-78311523D02*
X40849485Y-77692476D01*
X40611390Y-77168666D02*
X40563771Y-77263904D01*
X40563771Y-77263904D02*
X40516152Y-77311523D01*
X40516152Y-77311523D02*
X40420914Y-77359142D01*
X40420914Y-77359142D02*
X40373295Y-77359142D01*
X40373295Y-77359142D02*
X40278057Y-77311523D01*
X40278057Y-77311523D02*
X40230438Y-77263904D01*
X40230438Y-77263904D02*
X40182819Y-77168666D01*
X40182819Y-77168666D02*
X40182819Y-76978190D01*
X40182819Y-76978190D02*
X40230438Y-76882952D01*
X40230438Y-76882952D02*
X40278057Y-76835333D01*
X40278057Y-76835333D02*
X40373295Y-76787714D01*
X40373295Y-76787714D02*
X40420914Y-76787714D01*
X40420914Y-76787714D02*
X40516152Y-76835333D01*
X40516152Y-76835333D02*
X40563771Y-76882952D01*
X40563771Y-76882952D02*
X40611390Y-76978190D01*
X40611390Y-76978190D02*
X40611390Y-77168666D01*
X40611390Y-77168666D02*
X40659009Y-77263904D01*
X40659009Y-77263904D02*
X40706628Y-77311523D01*
X40706628Y-77311523D02*
X40801866Y-77359142D01*
X40801866Y-77359142D02*
X40992342Y-77359142D01*
X40992342Y-77359142D02*
X41087580Y-77311523D01*
X41087580Y-77311523D02*
X41135200Y-77263904D01*
X41135200Y-77263904D02*
X41182819Y-77168666D01*
X41182819Y-77168666D02*
X41182819Y-76978190D01*
X41182819Y-76978190D02*
X41135200Y-76882952D01*
X41135200Y-76882952D02*
X41087580Y-76835333D01*
X41087580Y-76835333D02*
X40992342Y-76787714D01*
X40992342Y-76787714D02*
X40801866Y-76787714D01*
X40801866Y-76787714D02*
X40706628Y-76835333D01*
X40706628Y-76835333D02*
X40659009Y-76882952D01*
X40659009Y-76882952D02*
X40611390Y-76978190D01*
X37262819Y-83573904D02*
X36262819Y-83573904D01*
X37262819Y-83002476D02*
X36691390Y-83431047D01*
X36262819Y-83002476D02*
X36834247Y-83573904D01*
X62335580Y-47410666D02*
X62383200Y-47458285D01*
X62383200Y-47458285D02*
X62430819Y-47601142D01*
X62430819Y-47601142D02*
X62430819Y-47696380D01*
X62430819Y-47696380D02*
X62383200Y-47839237D01*
X62383200Y-47839237D02*
X62287961Y-47934475D01*
X62287961Y-47934475D02*
X62192723Y-47982094D01*
X62192723Y-47982094D02*
X62002247Y-48029713D01*
X62002247Y-48029713D02*
X61859390Y-48029713D01*
X61859390Y-48029713D02*
X61668914Y-47982094D01*
X61668914Y-47982094D02*
X61573676Y-47934475D01*
X61573676Y-47934475D02*
X61478438Y-47839237D01*
X61478438Y-47839237D02*
X61430819Y-47696380D01*
X61430819Y-47696380D02*
X61430819Y-47601142D01*
X61430819Y-47601142D02*
X61478438Y-47458285D01*
X61478438Y-47458285D02*
X61526057Y-47410666D01*
X61430819Y-46505904D02*
X61430819Y-46982094D01*
X61430819Y-46982094D02*
X61907009Y-47029713D01*
X61907009Y-47029713D02*
X61859390Y-46982094D01*
X61859390Y-46982094D02*
X61811771Y-46886856D01*
X61811771Y-46886856D02*
X61811771Y-46648761D01*
X61811771Y-46648761D02*
X61859390Y-46553523D01*
X61859390Y-46553523D02*
X61907009Y-46505904D01*
X61907009Y-46505904D02*
X62002247Y-46458285D01*
X62002247Y-46458285D02*
X62240342Y-46458285D01*
X62240342Y-46458285D02*
X62335580Y-46505904D01*
X62335580Y-46505904D02*
X62383200Y-46553523D01*
X62383200Y-46553523D02*
X62430819Y-46648761D01*
X62430819Y-46648761D02*
X62430819Y-46886856D01*
X62430819Y-46886856D02*
X62383200Y-46982094D01*
X62383200Y-46982094D02*
X62335580Y-47029713D01*
X107039580Y-59062857D02*
X107087200Y-59110476D01*
X107087200Y-59110476D02*
X107134819Y-59253333D01*
X107134819Y-59253333D02*
X107134819Y-59348571D01*
X107134819Y-59348571D02*
X107087200Y-59491428D01*
X107087200Y-59491428D02*
X106991961Y-59586666D01*
X106991961Y-59586666D02*
X106896723Y-59634285D01*
X106896723Y-59634285D02*
X106706247Y-59681904D01*
X106706247Y-59681904D02*
X106563390Y-59681904D01*
X106563390Y-59681904D02*
X106372914Y-59634285D01*
X106372914Y-59634285D02*
X106277676Y-59586666D01*
X106277676Y-59586666D02*
X106182438Y-59491428D01*
X106182438Y-59491428D02*
X106134819Y-59348571D01*
X106134819Y-59348571D02*
X106134819Y-59253333D01*
X106134819Y-59253333D02*
X106182438Y-59110476D01*
X106182438Y-59110476D02*
X106230057Y-59062857D01*
X107134819Y-58110476D02*
X107134819Y-58681904D01*
X107134819Y-58396190D02*
X106134819Y-58396190D01*
X106134819Y-58396190D02*
X106277676Y-58491428D01*
X106277676Y-58491428D02*
X106372914Y-58586666D01*
X106372914Y-58586666D02*
X106420533Y-58681904D01*
X106134819Y-57491428D02*
X106134819Y-57396190D01*
X106134819Y-57396190D02*
X106182438Y-57300952D01*
X106182438Y-57300952D02*
X106230057Y-57253333D01*
X106230057Y-57253333D02*
X106325295Y-57205714D01*
X106325295Y-57205714D02*
X106515771Y-57158095D01*
X106515771Y-57158095D02*
X106753866Y-57158095D01*
X106753866Y-57158095D02*
X106944342Y-57205714D01*
X106944342Y-57205714D02*
X107039580Y-57253333D01*
X107039580Y-57253333D02*
X107087200Y-57300952D01*
X107087200Y-57300952D02*
X107134819Y-57396190D01*
X107134819Y-57396190D02*
X107134819Y-57491428D01*
X107134819Y-57491428D02*
X107087200Y-57586666D01*
X107087200Y-57586666D02*
X107039580Y-57634285D01*
X107039580Y-57634285D02*
X106944342Y-57681904D01*
X106944342Y-57681904D02*
X106753866Y-57729523D01*
X106753866Y-57729523D02*
X106515771Y-57729523D01*
X106515771Y-57729523D02*
X106325295Y-57681904D01*
X106325295Y-57681904D02*
X106230057Y-57634285D01*
X106230057Y-57634285D02*
X106182438Y-57586666D01*
X106182438Y-57586666D02*
X106134819Y-57491428D01*
X119739580Y-58586666D02*
X119787200Y-58634285D01*
X119787200Y-58634285D02*
X119834819Y-58777142D01*
X119834819Y-58777142D02*
X119834819Y-58872380D01*
X119834819Y-58872380D02*
X119787200Y-59015237D01*
X119787200Y-59015237D02*
X119691961Y-59110475D01*
X119691961Y-59110475D02*
X119596723Y-59158094D01*
X119596723Y-59158094D02*
X119406247Y-59205713D01*
X119406247Y-59205713D02*
X119263390Y-59205713D01*
X119263390Y-59205713D02*
X119072914Y-59158094D01*
X119072914Y-59158094D02*
X118977676Y-59110475D01*
X118977676Y-59110475D02*
X118882438Y-59015237D01*
X118882438Y-59015237D02*
X118834819Y-58872380D01*
X118834819Y-58872380D02*
X118834819Y-58777142D01*
X118834819Y-58777142D02*
X118882438Y-58634285D01*
X118882438Y-58634285D02*
X118930057Y-58586666D01*
X118930057Y-58205713D02*
X118882438Y-58158094D01*
X118882438Y-58158094D02*
X118834819Y-58062856D01*
X118834819Y-58062856D02*
X118834819Y-57824761D01*
X118834819Y-57824761D02*
X118882438Y-57729523D01*
X118882438Y-57729523D02*
X118930057Y-57681904D01*
X118930057Y-57681904D02*
X119025295Y-57634285D01*
X119025295Y-57634285D02*
X119120533Y-57634285D01*
X119120533Y-57634285D02*
X119263390Y-57681904D01*
X119263390Y-57681904D02*
X119834819Y-58253332D01*
X119834819Y-58253332D02*
X119834819Y-57634285D01*
X26082666Y-61454819D02*
X26082666Y-62169104D01*
X26082666Y-62169104D02*
X26035047Y-62311961D01*
X26035047Y-62311961D02*
X25939809Y-62407200D01*
X25939809Y-62407200D02*
X25796952Y-62454819D01*
X25796952Y-62454819D02*
X25701714Y-62454819D01*
X26511238Y-61550057D02*
X26558857Y-61502438D01*
X26558857Y-61502438D02*
X26654095Y-61454819D01*
X26654095Y-61454819D02*
X26892190Y-61454819D01*
X26892190Y-61454819D02*
X26987428Y-61502438D01*
X26987428Y-61502438D02*
X27035047Y-61550057D01*
X27035047Y-61550057D02*
X27082666Y-61645295D01*
X27082666Y-61645295D02*
X27082666Y-61740533D01*
X27082666Y-61740533D02*
X27035047Y-61883390D01*
X27035047Y-61883390D02*
X26463619Y-62454819D01*
X26463619Y-62454819D02*
X27082666Y-62454819D01*
X38967580Y-57824666D02*
X39015200Y-57872285D01*
X39015200Y-57872285D02*
X39062819Y-58015142D01*
X39062819Y-58015142D02*
X39062819Y-58110380D01*
X39062819Y-58110380D02*
X39015200Y-58253237D01*
X39015200Y-58253237D02*
X38919961Y-58348475D01*
X38919961Y-58348475D02*
X38824723Y-58396094D01*
X38824723Y-58396094D02*
X38634247Y-58443713D01*
X38634247Y-58443713D02*
X38491390Y-58443713D01*
X38491390Y-58443713D02*
X38300914Y-58396094D01*
X38300914Y-58396094D02*
X38205676Y-58348475D01*
X38205676Y-58348475D02*
X38110438Y-58253237D01*
X38110438Y-58253237D02*
X38062819Y-58110380D01*
X38062819Y-58110380D02*
X38062819Y-58015142D01*
X38062819Y-58015142D02*
X38110438Y-57872285D01*
X38110438Y-57872285D02*
X38158057Y-57824666D01*
X38062819Y-56967523D02*
X38062819Y-57157999D01*
X38062819Y-57157999D02*
X38110438Y-57253237D01*
X38110438Y-57253237D02*
X38158057Y-57300856D01*
X38158057Y-57300856D02*
X38300914Y-57396094D01*
X38300914Y-57396094D02*
X38491390Y-57443713D01*
X38491390Y-57443713D02*
X38872342Y-57443713D01*
X38872342Y-57443713D02*
X38967580Y-57396094D01*
X38967580Y-57396094D02*
X39015200Y-57348475D01*
X39015200Y-57348475D02*
X39062819Y-57253237D01*
X39062819Y-57253237D02*
X39062819Y-57062761D01*
X39062819Y-57062761D02*
X39015200Y-56967523D01*
X39015200Y-56967523D02*
X38967580Y-56919904D01*
X38967580Y-56919904D02*
X38872342Y-56872285D01*
X38872342Y-56872285D02*
X38634247Y-56872285D01*
X38634247Y-56872285D02*
X38539009Y-56919904D01*
X38539009Y-56919904D02*
X38491390Y-56967523D01*
X38491390Y-56967523D02*
X38443771Y-57062761D01*
X38443771Y-57062761D02*
X38443771Y-57253237D01*
X38443771Y-57253237D02*
X38491390Y-57348475D01*
X38491390Y-57348475D02*
X38539009Y-57396094D01*
X38539009Y-57396094D02*
X38634247Y-57443713D01*
X48873580Y-57824666D02*
X48921200Y-57872285D01*
X48921200Y-57872285D02*
X48968819Y-58015142D01*
X48968819Y-58015142D02*
X48968819Y-58110380D01*
X48968819Y-58110380D02*
X48921200Y-58253237D01*
X48921200Y-58253237D02*
X48825961Y-58348475D01*
X48825961Y-58348475D02*
X48730723Y-58396094D01*
X48730723Y-58396094D02*
X48540247Y-58443713D01*
X48540247Y-58443713D02*
X48397390Y-58443713D01*
X48397390Y-58443713D02*
X48206914Y-58396094D01*
X48206914Y-58396094D02*
X48111676Y-58348475D01*
X48111676Y-58348475D02*
X48016438Y-58253237D01*
X48016438Y-58253237D02*
X47968819Y-58110380D01*
X47968819Y-58110380D02*
X47968819Y-58015142D01*
X47968819Y-58015142D02*
X48016438Y-57872285D01*
X48016438Y-57872285D02*
X48064057Y-57824666D01*
X47968819Y-57491332D02*
X47968819Y-56824666D01*
X47968819Y-56824666D02*
X48968819Y-57253237D01*
X67780819Y-57911904D02*
X68590342Y-57911904D01*
X68590342Y-57911904D02*
X68685580Y-57864285D01*
X68685580Y-57864285D02*
X68733200Y-57816666D01*
X68733200Y-57816666D02*
X68780819Y-57721428D01*
X68780819Y-57721428D02*
X68780819Y-57530952D01*
X68780819Y-57530952D02*
X68733200Y-57435714D01*
X68733200Y-57435714D02*
X68685580Y-57388095D01*
X68685580Y-57388095D02*
X68590342Y-57340476D01*
X68590342Y-57340476D02*
X67780819Y-57340476D01*
X68209390Y-56721428D02*
X68161771Y-56816666D01*
X68161771Y-56816666D02*
X68114152Y-56864285D01*
X68114152Y-56864285D02*
X68018914Y-56911904D01*
X68018914Y-56911904D02*
X67971295Y-56911904D01*
X67971295Y-56911904D02*
X67876057Y-56864285D01*
X67876057Y-56864285D02*
X67828438Y-56816666D01*
X67828438Y-56816666D02*
X67780819Y-56721428D01*
X67780819Y-56721428D02*
X67780819Y-56530952D01*
X67780819Y-56530952D02*
X67828438Y-56435714D01*
X67828438Y-56435714D02*
X67876057Y-56388095D01*
X67876057Y-56388095D02*
X67971295Y-56340476D01*
X67971295Y-56340476D02*
X68018914Y-56340476D01*
X68018914Y-56340476D02*
X68114152Y-56388095D01*
X68114152Y-56388095D02*
X68161771Y-56435714D01*
X68161771Y-56435714D02*
X68209390Y-56530952D01*
X68209390Y-56530952D02*
X68209390Y-56721428D01*
X68209390Y-56721428D02*
X68257009Y-56816666D01*
X68257009Y-56816666D02*
X68304628Y-56864285D01*
X68304628Y-56864285D02*
X68399866Y-56911904D01*
X68399866Y-56911904D02*
X68590342Y-56911904D01*
X68590342Y-56911904D02*
X68685580Y-56864285D01*
X68685580Y-56864285D02*
X68733200Y-56816666D01*
X68733200Y-56816666D02*
X68780819Y-56721428D01*
X68780819Y-56721428D02*
X68780819Y-56530952D01*
X68780819Y-56530952D02*
X68733200Y-56435714D01*
X68733200Y-56435714D02*
X68685580Y-56388095D01*
X68685580Y-56388095D02*
X68590342Y-56340476D01*
X68590342Y-56340476D02*
X68399866Y-56340476D01*
X68399866Y-56340476D02*
X68304628Y-56388095D01*
X68304628Y-56388095D02*
X68257009Y-56435714D01*
X68257009Y-56435714D02*
X68209390Y-56530952D01*
X71668095Y-69669819D02*
X72334761Y-69669819D01*
X72334761Y-69669819D02*
X71906190Y-70669819D01*
X73144285Y-70003152D02*
X73144285Y-70669819D01*
X72906190Y-69622200D02*
X72668095Y-70336485D01*
X72668095Y-70336485D02*
X73287142Y-70336485D01*
X73668095Y-70669819D02*
X73668095Y-69669819D01*
X73668095Y-70146009D02*
X74239523Y-70146009D01*
X74239523Y-70669819D02*
X74239523Y-69669819D01*
X75287142Y-70574580D02*
X75239523Y-70622200D01*
X75239523Y-70622200D02*
X75096666Y-70669819D01*
X75096666Y-70669819D02*
X75001428Y-70669819D01*
X75001428Y-70669819D02*
X74858571Y-70622200D01*
X74858571Y-70622200D02*
X74763333Y-70526961D01*
X74763333Y-70526961D02*
X74715714Y-70431723D01*
X74715714Y-70431723D02*
X74668095Y-70241247D01*
X74668095Y-70241247D02*
X74668095Y-70098390D01*
X74668095Y-70098390D02*
X74715714Y-69907914D01*
X74715714Y-69907914D02*
X74763333Y-69812676D01*
X74763333Y-69812676D02*
X74858571Y-69717438D01*
X74858571Y-69717438D02*
X75001428Y-69669819D01*
X75001428Y-69669819D02*
X75096666Y-69669819D01*
X75096666Y-69669819D02*
X75239523Y-69717438D01*
X75239523Y-69717438D02*
X75287142Y-69765057D01*
X75668095Y-69765057D02*
X75715714Y-69717438D01*
X75715714Y-69717438D02*
X75810952Y-69669819D01*
X75810952Y-69669819D02*
X76049047Y-69669819D01*
X76049047Y-69669819D02*
X76144285Y-69717438D01*
X76144285Y-69717438D02*
X76191904Y-69765057D01*
X76191904Y-69765057D02*
X76239523Y-69860295D01*
X76239523Y-69860295D02*
X76239523Y-69955533D01*
X76239523Y-69955533D02*
X76191904Y-70098390D01*
X76191904Y-70098390D02*
X75620476Y-70669819D01*
X75620476Y-70669819D02*
X76239523Y-70669819D01*
X77096666Y-70003152D02*
X77096666Y-70669819D01*
X76858571Y-69622200D02*
X76620476Y-70336485D01*
X76620476Y-70336485D02*
X77239523Y-70336485D01*
X78096666Y-69669819D02*
X77620476Y-69669819D01*
X77620476Y-69669819D02*
X77572857Y-70146009D01*
X77572857Y-70146009D02*
X77620476Y-70098390D01*
X77620476Y-70098390D02*
X77715714Y-70050771D01*
X77715714Y-70050771D02*
X77953809Y-70050771D01*
X77953809Y-70050771D02*
X78049047Y-70098390D01*
X78049047Y-70098390D02*
X78096666Y-70146009D01*
X78096666Y-70146009D02*
X78144285Y-70241247D01*
X78144285Y-70241247D02*
X78144285Y-70479342D01*
X78144285Y-70479342D02*
X78096666Y-70574580D01*
X78096666Y-70574580D02*
X78049047Y-70622200D01*
X78049047Y-70622200D02*
X77953809Y-70669819D01*
X77953809Y-70669819D02*
X77715714Y-70669819D01*
X77715714Y-70669819D02*
X77620476Y-70622200D01*
X77620476Y-70622200D02*
X77572857Y-70574580D01*
X50762819Y-50291904D02*
X51572342Y-50291904D01*
X51572342Y-50291904D02*
X51667580Y-50244285D01*
X51667580Y-50244285D02*
X51715200Y-50196666D01*
X51715200Y-50196666D02*
X51762819Y-50101428D01*
X51762819Y-50101428D02*
X51762819Y-49910952D01*
X51762819Y-49910952D02*
X51715200Y-49815714D01*
X51715200Y-49815714D02*
X51667580Y-49768095D01*
X51667580Y-49768095D02*
X51572342Y-49720476D01*
X51572342Y-49720476D02*
X50762819Y-49720476D01*
X50858057Y-49291904D02*
X50810438Y-49244285D01*
X50810438Y-49244285D02*
X50762819Y-49149047D01*
X50762819Y-49149047D02*
X50762819Y-48910952D01*
X50762819Y-48910952D02*
X50810438Y-48815714D01*
X50810438Y-48815714D02*
X50858057Y-48768095D01*
X50858057Y-48768095D02*
X50953295Y-48720476D01*
X50953295Y-48720476D02*
X51048533Y-48720476D01*
X51048533Y-48720476D02*
X51191390Y-48768095D01*
X51191390Y-48768095D02*
X51762819Y-49339523D01*
X51762819Y-49339523D02*
X51762819Y-48720476D01*
X57975714Y-69669819D02*
X57785238Y-69669819D01*
X57785238Y-69669819D02*
X57690000Y-69717438D01*
X57690000Y-69717438D02*
X57642381Y-69765057D01*
X57642381Y-69765057D02*
X57547143Y-69907914D01*
X57547143Y-69907914D02*
X57499524Y-70098390D01*
X57499524Y-70098390D02*
X57499524Y-70479342D01*
X57499524Y-70479342D02*
X57547143Y-70574580D01*
X57547143Y-70574580D02*
X57594762Y-70622200D01*
X57594762Y-70622200D02*
X57690000Y-70669819D01*
X57690000Y-70669819D02*
X57880476Y-70669819D01*
X57880476Y-70669819D02*
X57975714Y-70622200D01*
X57975714Y-70622200D02*
X58023333Y-70574580D01*
X58023333Y-70574580D02*
X58070952Y-70479342D01*
X58070952Y-70479342D02*
X58070952Y-70241247D01*
X58070952Y-70241247D02*
X58023333Y-70146009D01*
X58023333Y-70146009D02*
X57975714Y-70098390D01*
X57975714Y-70098390D02*
X57880476Y-70050771D01*
X57880476Y-70050771D02*
X57690000Y-70050771D01*
X57690000Y-70050771D02*
X57594762Y-70098390D01*
X57594762Y-70098390D02*
X57547143Y-70146009D01*
X57547143Y-70146009D02*
X57499524Y-70241247D01*
X58451905Y-69765057D02*
X58499524Y-69717438D01*
X58499524Y-69717438D02*
X58594762Y-69669819D01*
X58594762Y-69669819D02*
X58832857Y-69669819D01*
X58832857Y-69669819D02*
X58928095Y-69717438D01*
X58928095Y-69717438D02*
X58975714Y-69765057D01*
X58975714Y-69765057D02*
X59023333Y-69860295D01*
X59023333Y-69860295D02*
X59023333Y-69955533D01*
X59023333Y-69955533D02*
X58975714Y-70098390D01*
X58975714Y-70098390D02*
X58404286Y-70669819D01*
X58404286Y-70669819D02*
X59023333Y-70669819D01*
X59975714Y-70669819D02*
X59404286Y-70669819D01*
X59690000Y-70669819D02*
X59690000Y-69669819D01*
X59690000Y-69669819D02*
X59594762Y-69812676D01*
X59594762Y-69812676D02*
X59499524Y-69907914D01*
X59499524Y-69907914D02*
X59404286Y-69955533D01*
X60356667Y-69765057D02*
X60404286Y-69717438D01*
X60404286Y-69717438D02*
X60499524Y-69669819D01*
X60499524Y-69669819D02*
X60737619Y-69669819D01*
X60737619Y-69669819D02*
X60832857Y-69717438D01*
X60832857Y-69717438D02*
X60880476Y-69765057D01*
X60880476Y-69765057D02*
X60928095Y-69860295D01*
X60928095Y-69860295D02*
X60928095Y-69955533D01*
X60928095Y-69955533D02*
X60880476Y-70098390D01*
X60880476Y-70098390D02*
X60309048Y-70669819D01*
X60309048Y-70669819D02*
X60928095Y-70669819D01*
X61499524Y-70098390D02*
X61404286Y-70050771D01*
X61404286Y-70050771D02*
X61356667Y-70003152D01*
X61356667Y-70003152D02*
X61309048Y-69907914D01*
X61309048Y-69907914D02*
X61309048Y-69860295D01*
X61309048Y-69860295D02*
X61356667Y-69765057D01*
X61356667Y-69765057D02*
X61404286Y-69717438D01*
X61404286Y-69717438D02*
X61499524Y-69669819D01*
X61499524Y-69669819D02*
X61690000Y-69669819D01*
X61690000Y-69669819D02*
X61785238Y-69717438D01*
X61785238Y-69717438D02*
X61832857Y-69765057D01*
X61832857Y-69765057D02*
X61880476Y-69860295D01*
X61880476Y-69860295D02*
X61880476Y-69907914D01*
X61880476Y-69907914D02*
X61832857Y-70003152D01*
X61832857Y-70003152D02*
X61785238Y-70050771D01*
X61785238Y-70050771D02*
X61690000Y-70098390D01*
X61690000Y-70098390D02*
X61499524Y-70098390D01*
X61499524Y-70098390D02*
X61404286Y-70146009D01*
X61404286Y-70146009D02*
X61356667Y-70193628D01*
X61356667Y-70193628D02*
X61309048Y-70288866D01*
X61309048Y-70288866D02*
X61309048Y-70479342D01*
X61309048Y-70479342D02*
X61356667Y-70574580D01*
X61356667Y-70574580D02*
X61404286Y-70622200D01*
X61404286Y-70622200D02*
X61499524Y-70669819D01*
X61499524Y-70669819D02*
X61690000Y-70669819D01*
X61690000Y-70669819D02*
X61785238Y-70622200D01*
X61785238Y-70622200D02*
X61832857Y-70574580D01*
X61832857Y-70574580D02*
X61880476Y-70479342D01*
X61880476Y-70479342D02*
X61880476Y-70288866D01*
X61880476Y-70288866D02*
X61832857Y-70193628D01*
X61832857Y-70193628D02*
X61785238Y-70146009D01*
X61785238Y-70146009D02*
X61690000Y-70098390D01*
X108166819Y-60705904D02*
X108976342Y-60705904D01*
X108976342Y-60705904D02*
X109071580Y-60658285D01*
X109071580Y-60658285D02*
X109119200Y-60610666D01*
X109119200Y-60610666D02*
X109166819Y-60515428D01*
X109166819Y-60515428D02*
X109166819Y-60324952D01*
X109166819Y-60324952D02*
X109119200Y-60229714D01*
X109119200Y-60229714D02*
X109071580Y-60182095D01*
X109071580Y-60182095D02*
X108976342Y-60134476D01*
X108976342Y-60134476D02*
X108166819Y-60134476D01*
X108500152Y-59229714D02*
X109166819Y-59229714D01*
X108119200Y-59467809D02*
X108833485Y-59705904D01*
X108833485Y-59705904D02*
X108833485Y-59086857D01*
X109768095Y-69669819D02*
X110434761Y-69669819D01*
X110434761Y-69669819D02*
X110006190Y-70669819D01*
X111244285Y-70003152D02*
X111244285Y-70669819D01*
X111006190Y-69622200D02*
X110768095Y-70336485D01*
X110768095Y-70336485D02*
X111387142Y-70336485D01*
X111768095Y-70669819D02*
X111768095Y-69669819D01*
X111768095Y-70146009D02*
X112339523Y-70146009D01*
X112339523Y-70669819D02*
X112339523Y-69669819D01*
X113387142Y-70574580D02*
X113339523Y-70622200D01*
X113339523Y-70622200D02*
X113196666Y-70669819D01*
X113196666Y-70669819D02*
X113101428Y-70669819D01*
X113101428Y-70669819D02*
X112958571Y-70622200D01*
X112958571Y-70622200D02*
X112863333Y-70526961D01*
X112863333Y-70526961D02*
X112815714Y-70431723D01*
X112815714Y-70431723D02*
X112768095Y-70241247D01*
X112768095Y-70241247D02*
X112768095Y-70098390D01*
X112768095Y-70098390D02*
X112815714Y-69907914D01*
X112815714Y-69907914D02*
X112863333Y-69812676D01*
X112863333Y-69812676D02*
X112958571Y-69717438D01*
X112958571Y-69717438D02*
X113101428Y-69669819D01*
X113101428Y-69669819D02*
X113196666Y-69669819D01*
X113196666Y-69669819D02*
X113339523Y-69717438D01*
X113339523Y-69717438D02*
X113387142Y-69765057D01*
X113768095Y-69765057D02*
X113815714Y-69717438D01*
X113815714Y-69717438D02*
X113910952Y-69669819D01*
X113910952Y-69669819D02*
X114149047Y-69669819D01*
X114149047Y-69669819D02*
X114244285Y-69717438D01*
X114244285Y-69717438D02*
X114291904Y-69765057D01*
X114291904Y-69765057D02*
X114339523Y-69860295D01*
X114339523Y-69860295D02*
X114339523Y-69955533D01*
X114339523Y-69955533D02*
X114291904Y-70098390D01*
X114291904Y-70098390D02*
X113720476Y-70669819D01*
X113720476Y-70669819D02*
X114339523Y-70669819D01*
X114910952Y-70098390D02*
X114815714Y-70050771D01*
X114815714Y-70050771D02*
X114768095Y-70003152D01*
X114768095Y-70003152D02*
X114720476Y-69907914D01*
X114720476Y-69907914D02*
X114720476Y-69860295D01*
X114720476Y-69860295D02*
X114768095Y-69765057D01*
X114768095Y-69765057D02*
X114815714Y-69717438D01*
X114815714Y-69717438D02*
X114910952Y-69669819D01*
X114910952Y-69669819D02*
X115101428Y-69669819D01*
X115101428Y-69669819D02*
X115196666Y-69717438D01*
X115196666Y-69717438D02*
X115244285Y-69765057D01*
X115244285Y-69765057D02*
X115291904Y-69860295D01*
X115291904Y-69860295D02*
X115291904Y-69907914D01*
X115291904Y-69907914D02*
X115244285Y-70003152D01*
X115244285Y-70003152D02*
X115196666Y-70050771D01*
X115196666Y-70050771D02*
X115101428Y-70098390D01*
X115101428Y-70098390D02*
X114910952Y-70098390D01*
X114910952Y-70098390D02*
X114815714Y-70146009D01*
X114815714Y-70146009D02*
X114768095Y-70193628D01*
X114768095Y-70193628D02*
X114720476Y-70288866D01*
X114720476Y-70288866D02*
X114720476Y-70479342D01*
X114720476Y-70479342D02*
X114768095Y-70574580D01*
X114768095Y-70574580D02*
X114815714Y-70622200D01*
X114815714Y-70622200D02*
X114910952Y-70669819D01*
X114910952Y-70669819D02*
X115101428Y-70669819D01*
X115101428Y-70669819D02*
X115196666Y-70622200D01*
X115196666Y-70622200D02*
X115244285Y-70574580D01*
X115244285Y-70574580D02*
X115291904Y-70479342D01*
X115291904Y-70479342D02*
X115291904Y-70288866D01*
X115291904Y-70288866D02*
X115244285Y-70193628D01*
X115244285Y-70193628D02*
X115196666Y-70146009D01*
X115196666Y-70146009D02*
X115101428Y-70098390D01*
X115625238Y-69669819D02*
X116244285Y-69669819D01*
X116244285Y-69669819D02*
X115910952Y-70050771D01*
X115910952Y-70050771D02*
X116053809Y-70050771D01*
X116053809Y-70050771D02*
X116149047Y-70098390D01*
X116149047Y-70098390D02*
X116196666Y-70146009D01*
X116196666Y-70146009D02*
X116244285Y-70241247D01*
X116244285Y-70241247D02*
X116244285Y-70479342D01*
X116244285Y-70479342D02*
X116196666Y-70574580D01*
X116196666Y-70574580D02*
X116149047Y-70622200D01*
X116149047Y-70622200D02*
X116053809Y-70669819D01*
X116053809Y-70669819D02*
X115768095Y-70669819D01*
X115768095Y-70669819D02*
X115672857Y-70622200D01*
X115672857Y-70622200D02*
X115625238Y-70574580D01*
X26483333Y-75969580D02*
X26435714Y-76017200D01*
X26435714Y-76017200D02*
X26292857Y-76064819D01*
X26292857Y-76064819D02*
X26197619Y-76064819D01*
X26197619Y-76064819D02*
X26054762Y-76017200D01*
X26054762Y-76017200D02*
X25959524Y-75921961D01*
X25959524Y-75921961D02*
X25911905Y-75826723D01*
X25911905Y-75826723D02*
X25864286Y-75636247D01*
X25864286Y-75636247D02*
X25864286Y-75493390D01*
X25864286Y-75493390D02*
X25911905Y-75302914D01*
X25911905Y-75302914D02*
X25959524Y-75207676D01*
X25959524Y-75207676D02*
X26054762Y-75112438D01*
X26054762Y-75112438D02*
X26197619Y-75064819D01*
X26197619Y-75064819D02*
X26292857Y-75064819D01*
X26292857Y-75064819D02*
X26435714Y-75112438D01*
X26435714Y-75112438D02*
X26483333Y-75160057D01*
X26816667Y-75064819D02*
X27435714Y-75064819D01*
X27435714Y-75064819D02*
X27102381Y-75445771D01*
X27102381Y-75445771D02*
X27245238Y-75445771D01*
X27245238Y-75445771D02*
X27340476Y-75493390D01*
X27340476Y-75493390D02*
X27388095Y-75541009D01*
X27388095Y-75541009D02*
X27435714Y-75636247D01*
X27435714Y-75636247D02*
X27435714Y-75874342D01*
X27435714Y-75874342D02*
X27388095Y-75969580D01*
X27388095Y-75969580D02*
X27340476Y-76017200D01*
X27340476Y-76017200D02*
X27245238Y-76064819D01*
X27245238Y-76064819D02*
X26959524Y-76064819D01*
X26959524Y-76064819D02*
X26864286Y-76017200D01*
X26864286Y-76017200D02*
X26816667Y-75969580D01*
X24550952Y-84386057D02*
X24598571Y-84338438D01*
X24598571Y-84338438D02*
X24693809Y-84290819D01*
X24693809Y-84290819D02*
X24931904Y-84290819D01*
X24931904Y-84290819D02*
X25027142Y-84338438D01*
X25027142Y-84338438D02*
X25074761Y-84386057D01*
X25074761Y-84386057D02*
X25122380Y-84481295D01*
X25122380Y-84481295D02*
X25122380Y-84576533D01*
X25122380Y-84576533D02*
X25074761Y-84719390D01*
X25074761Y-84719390D02*
X24503333Y-85290819D01*
X24503333Y-85290819D02*
X25122380Y-85290819D01*
X25503333Y-84386057D02*
X25550952Y-84338438D01*
X25550952Y-84338438D02*
X25646190Y-84290819D01*
X25646190Y-84290819D02*
X25884285Y-84290819D01*
X25884285Y-84290819D02*
X25979523Y-84338438D01*
X25979523Y-84338438D02*
X26027142Y-84386057D01*
X26027142Y-84386057D02*
X26074761Y-84481295D01*
X26074761Y-84481295D02*
X26074761Y-84576533D01*
X26074761Y-84576533D02*
X26027142Y-84719390D01*
X26027142Y-84719390D02*
X25455714Y-85290819D01*
X25455714Y-85290819D02*
X26074761Y-85290819D01*
X26693809Y-84290819D02*
X26789047Y-84290819D01*
X26789047Y-84290819D02*
X26884285Y-84338438D01*
X26884285Y-84338438D02*
X26931904Y-84386057D01*
X26931904Y-84386057D02*
X26979523Y-84481295D01*
X26979523Y-84481295D02*
X27027142Y-84671771D01*
X27027142Y-84671771D02*
X27027142Y-84909866D01*
X27027142Y-84909866D02*
X26979523Y-85100342D01*
X26979523Y-85100342D02*
X26931904Y-85195580D01*
X26931904Y-85195580D02*
X26884285Y-85243200D01*
X26884285Y-85243200D02*
X26789047Y-85290819D01*
X26789047Y-85290819D02*
X26693809Y-85290819D01*
X26693809Y-85290819D02*
X26598571Y-85243200D01*
X26598571Y-85243200D02*
X26550952Y-85195580D01*
X26550952Y-85195580D02*
X26503333Y-85100342D01*
X26503333Y-85100342D02*
X26455714Y-84909866D01*
X26455714Y-84909866D02*
X26455714Y-84671771D01*
X26455714Y-84671771D02*
X26503333Y-84481295D01*
X26503333Y-84481295D02*
X26550952Y-84386057D01*
X26550952Y-84386057D02*
X26598571Y-84338438D01*
X26598571Y-84338438D02*
X26693809Y-84290819D01*
X27884285Y-84624152D02*
X27884285Y-85290819D01*
X27455714Y-84624152D02*
X27455714Y-85147961D01*
X27455714Y-85147961D02*
X27503333Y-85243200D01*
X27503333Y-85243200D02*
X27598571Y-85290819D01*
X27598571Y-85290819D02*
X27741428Y-85290819D01*
X27741428Y-85290819D02*
X27836666Y-85243200D01*
X27836666Y-85243200D02*
X27884285Y-85195580D01*
X28693809Y-84767009D02*
X28360476Y-84767009D01*
X28360476Y-85290819D02*
X28360476Y-84290819D01*
X28360476Y-84290819D02*
X28836666Y-84290819D01*
X98149580Y-57316666D02*
X98197200Y-57364285D01*
X98197200Y-57364285D02*
X98244819Y-57507142D01*
X98244819Y-57507142D02*
X98244819Y-57602380D01*
X98244819Y-57602380D02*
X98197200Y-57745237D01*
X98197200Y-57745237D02*
X98101961Y-57840475D01*
X98101961Y-57840475D02*
X98006723Y-57888094D01*
X98006723Y-57888094D02*
X97816247Y-57935713D01*
X97816247Y-57935713D02*
X97673390Y-57935713D01*
X97673390Y-57935713D02*
X97482914Y-57888094D01*
X97482914Y-57888094D02*
X97387676Y-57840475D01*
X97387676Y-57840475D02*
X97292438Y-57745237D01*
X97292438Y-57745237D02*
X97244819Y-57602380D01*
X97244819Y-57602380D02*
X97244819Y-57507142D01*
X97244819Y-57507142D02*
X97292438Y-57364285D01*
X97292438Y-57364285D02*
X97340057Y-57316666D01*
X97578152Y-56459523D02*
X98244819Y-56459523D01*
X97197200Y-56697618D02*
X97911485Y-56935713D01*
X97911485Y-56935713D02*
X97911485Y-56316666D01*
X90386819Y-60705904D02*
X91196342Y-60705904D01*
X91196342Y-60705904D02*
X91291580Y-60658285D01*
X91291580Y-60658285D02*
X91339200Y-60610666D01*
X91339200Y-60610666D02*
X91386819Y-60515428D01*
X91386819Y-60515428D02*
X91386819Y-60324952D01*
X91386819Y-60324952D02*
X91339200Y-60229714D01*
X91339200Y-60229714D02*
X91291580Y-60182095D01*
X91291580Y-60182095D02*
X91196342Y-60134476D01*
X91196342Y-60134476D02*
X90386819Y-60134476D01*
X91386819Y-59610666D02*
X91386819Y-59420190D01*
X91386819Y-59420190D02*
X91339200Y-59324952D01*
X91339200Y-59324952D02*
X91291580Y-59277333D01*
X91291580Y-59277333D02*
X91148723Y-59182095D01*
X91148723Y-59182095D02*
X90958247Y-59134476D01*
X90958247Y-59134476D02*
X90577295Y-59134476D01*
X90577295Y-59134476D02*
X90482057Y-59182095D01*
X90482057Y-59182095D02*
X90434438Y-59229714D01*
X90434438Y-59229714D02*
X90386819Y-59324952D01*
X90386819Y-59324952D02*
X90386819Y-59515428D01*
X90386819Y-59515428D02*
X90434438Y-59610666D01*
X90434438Y-59610666D02*
X90482057Y-59658285D01*
X90482057Y-59658285D02*
X90577295Y-59705904D01*
X90577295Y-59705904D02*
X90815390Y-59705904D01*
X90815390Y-59705904D02*
X90910628Y-59658285D01*
X90910628Y-59658285D02*
X90958247Y-59610666D01*
X90958247Y-59610666D02*
X91005866Y-59515428D01*
X91005866Y-59515428D02*
X91005866Y-59324952D01*
X91005866Y-59324952D02*
X90958247Y-59229714D01*
X90958247Y-59229714D02*
X90910628Y-59182095D01*
X90910628Y-59182095D02*
X90815390Y-59134476D01*
X92053095Y-69669819D02*
X92719761Y-69669819D01*
X92719761Y-69669819D02*
X92291190Y-70669819D01*
X93529285Y-70003152D02*
X93529285Y-70669819D01*
X93291190Y-69622200D02*
X93053095Y-70336485D01*
X93053095Y-70336485D02*
X93672142Y-70336485D01*
X94053095Y-70669819D02*
X94053095Y-69669819D01*
X94053095Y-70146009D02*
X94624523Y-70146009D01*
X94624523Y-70669819D02*
X94624523Y-69669819D01*
X95672142Y-70574580D02*
X95624523Y-70622200D01*
X95624523Y-70622200D02*
X95481666Y-70669819D01*
X95481666Y-70669819D02*
X95386428Y-70669819D01*
X95386428Y-70669819D02*
X95243571Y-70622200D01*
X95243571Y-70622200D02*
X95148333Y-70526961D01*
X95148333Y-70526961D02*
X95100714Y-70431723D01*
X95100714Y-70431723D02*
X95053095Y-70241247D01*
X95053095Y-70241247D02*
X95053095Y-70098390D01*
X95053095Y-70098390D02*
X95100714Y-69907914D01*
X95100714Y-69907914D02*
X95148333Y-69812676D01*
X95148333Y-69812676D02*
X95243571Y-69717438D01*
X95243571Y-69717438D02*
X95386428Y-69669819D01*
X95386428Y-69669819D02*
X95481666Y-69669819D01*
X95481666Y-69669819D02*
X95624523Y-69717438D01*
X95624523Y-69717438D02*
X95672142Y-69765057D01*
X96624523Y-70669819D02*
X96053095Y-70669819D01*
X96338809Y-70669819D02*
X96338809Y-69669819D01*
X96338809Y-69669819D02*
X96243571Y-69812676D01*
X96243571Y-69812676D02*
X96148333Y-69907914D01*
X96148333Y-69907914D02*
X96053095Y-69955533D01*
X97529285Y-69669819D02*
X97053095Y-69669819D01*
X97053095Y-69669819D02*
X97005476Y-70146009D01*
X97005476Y-70146009D02*
X97053095Y-70098390D01*
X97053095Y-70098390D02*
X97148333Y-70050771D01*
X97148333Y-70050771D02*
X97386428Y-70050771D01*
X97386428Y-70050771D02*
X97481666Y-70098390D01*
X97481666Y-70098390D02*
X97529285Y-70146009D01*
X97529285Y-70146009D02*
X97576904Y-70241247D01*
X97576904Y-70241247D02*
X97576904Y-70479342D01*
X97576904Y-70479342D02*
X97529285Y-70574580D01*
X97529285Y-70574580D02*
X97481666Y-70622200D01*
X97481666Y-70622200D02*
X97386428Y-70669819D01*
X97386428Y-70669819D02*
X97148333Y-70669819D01*
X97148333Y-70669819D02*
X97053095Y-70622200D01*
X97053095Y-70622200D02*
X97005476Y-70574580D01*
X97910238Y-69669819D02*
X98576904Y-69669819D01*
X98576904Y-69669819D02*
X98148333Y-70669819D01*
X40856819Y-60705904D02*
X41666342Y-60705904D01*
X41666342Y-60705904D02*
X41761580Y-60658285D01*
X41761580Y-60658285D02*
X41809200Y-60610666D01*
X41809200Y-60610666D02*
X41856819Y-60515428D01*
X41856819Y-60515428D02*
X41856819Y-60324952D01*
X41856819Y-60324952D02*
X41809200Y-60229714D01*
X41809200Y-60229714D02*
X41761580Y-60182095D01*
X41761580Y-60182095D02*
X41666342Y-60134476D01*
X41666342Y-60134476D02*
X40856819Y-60134476D01*
X41856819Y-59134476D02*
X41856819Y-59705904D01*
X41856819Y-59420190D02*
X40856819Y-59420190D01*
X40856819Y-59420190D02*
X40999676Y-59515428D01*
X40999676Y-59515428D02*
X41094914Y-59610666D01*
X41094914Y-59610666D02*
X41142533Y-59705904D01*
X42523095Y-69669819D02*
X43189761Y-69669819D01*
X43189761Y-69669819D02*
X42761190Y-70669819D01*
X43999285Y-70003152D02*
X43999285Y-70669819D01*
X43761190Y-69622200D02*
X43523095Y-70336485D01*
X43523095Y-70336485D02*
X44142142Y-70336485D01*
X44523095Y-70669819D02*
X44523095Y-69669819D01*
X44523095Y-70146009D02*
X45094523Y-70146009D01*
X45094523Y-70669819D02*
X45094523Y-69669819D01*
X46142142Y-70574580D02*
X46094523Y-70622200D01*
X46094523Y-70622200D02*
X45951666Y-70669819D01*
X45951666Y-70669819D02*
X45856428Y-70669819D01*
X45856428Y-70669819D02*
X45713571Y-70622200D01*
X45713571Y-70622200D02*
X45618333Y-70526961D01*
X45618333Y-70526961D02*
X45570714Y-70431723D01*
X45570714Y-70431723D02*
X45523095Y-70241247D01*
X45523095Y-70241247D02*
X45523095Y-70098390D01*
X45523095Y-70098390D02*
X45570714Y-69907914D01*
X45570714Y-69907914D02*
X45618333Y-69812676D01*
X45618333Y-69812676D02*
X45713571Y-69717438D01*
X45713571Y-69717438D02*
X45856428Y-69669819D01*
X45856428Y-69669819D02*
X45951666Y-69669819D01*
X45951666Y-69669819D02*
X46094523Y-69717438D01*
X46094523Y-69717438D02*
X46142142Y-69765057D01*
X47094523Y-70669819D02*
X46523095Y-70669819D01*
X46808809Y-70669819D02*
X46808809Y-69669819D01*
X46808809Y-69669819D02*
X46713571Y-69812676D01*
X46713571Y-69812676D02*
X46618333Y-69907914D01*
X46618333Y-69907914D02*
X46523095Y-69955533D01*
X47427857Y-69669819D02*
X48046904Y-69669819D01*
X48046904Y-69669819D02*
X47713571Y-70050771D01*
X47713571Y-70050771D02*
X47856428Y-70050771D01*
X47856428Y-70050771D02*
X47951666Y-70098390D01*
X47951666Y-70098390D02*
X47999285Y-70146009D01*
X47999285Y-70146009D02*
X48046904Y-70241247D01*
X48046904Y-70241247D02*
X48046904Y-70479342D01*
X48046904Y-70479342D02*
X47999285Y-70574580D01*
X47999285Y-70574580D02*
X47951666Y-70622200D01*
X47951666Y-70622200D02*
X47856428Y-70669819D01*
X47856428Y-70669819D02*
X47570714Y-70669819D01*
X47570714Y-70669819D02*
X47475476Y-70622200D01*
X47475476Y-70622200D02*
X47427857Y-70574580D01*
X48618333Y-70098390D02*
X48523095Y-70050771D01*
X48523095Y-70050771D02*
X48475476Y-70003152D01*
X48475476Y-70003152D02*
X48427857Y-69907914D01*
X48427857Y-69907914D02*
X48427857Y-69860295D01*
X48427857Y-69860295D02*
X48475476Y-69765057D01*
X48475476Y-69765057D02*
X48523095Y-69717438D01*
X48523095Y-69717438D02*
X48618333Y-69669819D01*
X48618333Y-69669819D02*
X48808809Y-69669819D01*
X48808809Y-69669819D02*
X48904047Y-69717438D01*
X48904047Y-69717438D02*
X48951666Y-69765057D01*
X48951666Y-69765057D02*
X48999285Y-69860295D01*
X48999285Y-69860295D02*
X48999285Y-69907914D01*
X48999285Y-69907914D02*
X48951666Y-70003152D01*
X48951666Y-70003152D02*
X48904047Y-70050771D01*
X48904047Y-70050771D02*
X48808809Y-70098390D01*
X48808809Y-70098390D02*
X48618333Y-70098390D01*
X48618333Y-70098390D02*
X48523095Y-70146009D01*
X48523095Y-70146009D02*
X48475476Y-70193628D01*
X48475476Y-70193628D02*
X48427857Y-70288866D01*
X48427857Y-70288866D02*
X48427857Y-70479342D01*
X48427857Y-70479342D02*
X48475476Y-70574580D01*
X48475476Y-70574580D02*
X48523095Y-70622200D01*
X48523095Y-70622200D02*
X48618333Y-70669819D01*
X48618333Y-70669819D02*
X48808809Y-70669819D01*
X48808809Y-70669819D02*
X48904047Y-70622200D01*
X48904047Y-70622200D02*
X48951666Y-70574580D01*
X48951666Y-70574580D02*
X48999285Y-70479342D01*
X48999285Y-70479342D02*
X48999285Y-70288866D01*
X48999285Y-70288866D02*
X48951666Y-70193628D01*
X48951666Y-70193628D02*
X48904047Y-70146009D01*
X48904047Y-70146009D02*
X48808809Y-70098390D01*
X81496819Y-60705904D02*
X82306342Y-60705904D01*
X82306342Y-60705904D02*
X82401580Y-60658285D01*
X82401580Y-60658285D02*
X82449200Y-60610666D01*
X82449200Y-60610666D02*
X82496819Y-60515428D01*
X82496819Y-60515428D02*
X82496819Y-60324952D01*
X82496819Y-60324952D02*
X82449200Y-60229714D01*
X82449200Y-60229714D02*
X82401580Y-60182095D01*
X82401580Y-60182095D02*
X82306342Y-60134476D01*
X82306342Y-60134476D02*
X81496819Y-60134476D01*
X81496819Y-59753523D02*
X81496819Y-59086857D01*
X81496819Y-59086857D02*
X82496819Y-59515428D01*
X83098095Y-69669819D02*
X83764761Y-69669819D01*
X83764761Y-69669819D02*
X83336190Y-70669819D01*
X84574285Y-70003152D02*
X84574285Y-70669819D01*
X84336190Y-69622200D02*
X84098095Y-70336485D01*
X84098095Y-70336485D02*
X84717142Y-70336485D01*
X85098095Y-70669819D02*
X85098095Y-69669819D01*
X85098095Y-70146009D02*
X85669523Y-70146009D01*
X85669523Y-70669819D02*
X85669523Y-69669819D01*
X86717142Y-70574580D02*
X86669523Y-70622200D01*
X86669523Y-70622200D02*
X86526666Y-70669819D01*
X86526666Y-70669819D02*
X86431428Y-70669819D01*
X86431428Y-70669819D02*
X86288571Y-70622200D01*
X86288571Y-70622200D02*
X86193333Y-70526961D01*
X86193333Y-70526961D02*
X86145714Y-70431723D01*
X86145714Y-70431723D02*
X86098095Y-70241247D01*
X86098095Y-70241247D02*
X86098095Y-70098390D01*
X86098095Y-70098390D02*
X86145714Y-69907914D01*
X86145714Y-69907914D02*
X86193333Y-69812676D01*
X86193333Y-69812676D02*
X86288571Y-69717438D01*
X86288571Y-69717438D02*
X86431428Y-69669819D01*
X86431428Y-69669819D02*
X86526666Y-69669819D01*
X86526666Y-69669819D02*
X86669523Y-69717438D01*
X86669523Y-69717438D02*
X86717142Y-69765057D01*
X87669523Y-70669819D02*
X87098095Y-70669819D01*
X87383809Y-70669819D02*
X87383809Y-69669819D01*
X87383809Y-69669819D02*
X87288571Y-69812676D01*
X87288571Y-69812676D02*
X87193333Y-69907914D01*
X87193333Y-69907914D02*
X87098095Y-69955533D01*
X88002857Y-69669819D02*
X88669523Y-69669819D01*
X88669523Y-69669819D02*
X88240952Y-70669819D01*
X88955238Y-69669819D02*
X89574285Y-69669819D01*
X89574285Y-69669819D02*
X89240952Y-70050771D01*
X89240952Y-70050771D02*
X89383809Y-70050771D01*
X89383809Y-70050771D02*
X89479047Y-70098390D01*
X89479047Y-70098390D02*
X89526666Y-70146009D01*
X89526666Y-70146009D02*
X89574285Y-70241247D01*
X89574285Y-70241247D02*
X89574285Y-70479342D01*
X89574285Y-70479342D02*
X89526666Y-70574580D01*
X89526666Y-70574580D02*
X89479047Y-70622200D01*
X89479047Y-70622200D02*
X89383809Y-70669819D01*
X89383809Y-70669819D02*
X89098095Y-70669819D01*
X89098095Y-70669819D02*
X89002857Y-70622200D01*
X89002857Y-70622200D02*
X88955238Y-70574580D01*
X115675580Y-57316666D02*
X115723200Y-57364285D01*
X115723200Y-57364285D02*
X115770819Y-57507142D01*
X115770819Y-57507142D02*
X115770819Y-57602380D01*
X115770819Y-57602380D02*
X115723200Y-57745237D01*
X115723200Y-57745237D02*
X115627961Y-57840475D01*
X115627961Y-57840475D02*
X115532723Y-57888094D01*
X115532723Y-57888094D02*
X115342247Y-57935713D01*
X115342247Y-57935713D02*
X115199390Y-57935713D01*
X115199390Y-57935713D02*
X115008914Y-57888094D01*
X115008914Y-57888094D02*
X114913676Y-57840475D01*
X114913676Y-57840475D02*
X114818438Y-57745237D01*
X114818438Y-57745237D02*
X114770819Y-57602380D01*
X114770819Y-57602380D02*
X114770819Y-57507142D01*
X114770819Y-57507142D02*
X114818438Y-57364285D01*
X114818438Y-57364285D02*
X114866057Y-57316666D01*
X115199390Y-56745237D02*
X115151771Y-56840475D01*
X115151771Y-56840475D02*
X115104152Y-56888094D01*
X115104152Y-56888094D02*
X115008914Y-56935713D01*
X115008914Y-56935713D02*
X114961295Y-56935713D01*
X114961295Y-56935713D02*
X114866057Y-56888094D01*
X114866057Y-56888094D02*
X114818438Y-56840475D01*
X114818438Y-56840475D02*
X114770819Y-56745237D01*
X114770819Y-56745237D02*
X114770819Y-56554761D01*
X114770819Y-56554761D02*
X114818438Y-56459523D01*
X114818438Y-56459523D02*
X114866057Y-56411904D01*
X114866057Y-56411904D02*
X114961295Y-56364285D01*
X114961295Y-56364285D02*
X115008914Y-56364285D01*
X115008914Y-56364285D02*
X115104152Y-56411904D01*
X115104152Y-56411904D02*
X115151771Y-56459523D01*
X115151771Y-56459523D02*
X115199390Y-56554761D01*
X115199390Y-56554761D02*
X115199390Y-56745237D01*
X115199390Y-56745237D02*
X115247009Y-56840475D01*
X115247009Y-56840475D02*
X115294628Y-56888094D01*
X115294628Y-56888094D02*
X115389866Y-56935713D01*
X115389866Y-56935713D02*
X115580342Y-56935713D01*
X115580342Y-56935713D02*
X115675580Y-56888094D01*
X115675580Y-56888094D02*
X115723200Y-56840475D01*
X115723200Y-56840475D02*
X115770819Y-56745237D01*
X115770819Y-56745237D02*
X115770819Y-56554761D01*
X115770819Y-56554761D02*
X115723200Y-56459523D01*
X115723200Y-56459523D02*
X115675580Y-56411904D01*
X115675580Y-56411904D02*
X115580342Y-56364285D01*
X115580342Y-56364285D02*
X115389866Y-56364285D01*
X115389866Y-56364285D02*
X115294628Y-56411904D01*
X115294628Y-56411904D02*
X115247009Y-56459523D01*
X115247009Y-56459523D02*
X115199390Y-56554761D01*
X26082666Y-57874819D02*
X26082666Y-58589104D01*
X26082666Y-58589104D02*
X26035047Y-58731961D01*
X26035047Y-58731961D02*
X25939809Y-58827200D01*
X25939809Y-58827200D02*
X25796952Y-58874819D01*
X25796952Y-58874819D02*
X25701714Y-58874819D01*
X26463619Y-57874819D02*
X27082666Y-57874819D01*
X27082666Y-57874819D02*
X26749333Y-58255771D01*
X26749333Y-58255771D02*
X26892190Y-58255771D01*
X26892190Y-58255771D02*
X26987428Y-58303390D01*
X26987428Y-58303390D02*
X27035047Y-58351009D01*
X27035047Y-58351009D02*
X27082666Y-58446247D01*
X27082666Y-58446247D02*
X27082666Y-58684342D01*
X27082666Y-58684342D02*
X27035047Y-58779580D01*
X27035047Y-58779580D02*
X26987428Y-58827200D01*
X26987428Y-58827200D02*
X26892190Y-58874819D01*
X26892190Y-58874819D02*
X26606476Y-58874819D01*
X26606476Y-58874819D02*
X26511238Y-58827200D01*
X26511238Y-58827200D02*
X26463619Y-58779580D01*
X117056819Y-61975904D02*
X117866342Y-61975904D01*
X117866342Y-61975904D02*
X117961580Y-61928285D01*
X117961580Y-61928285D02*
X118009200Y-61880666D01*
X118009200Y-61880666D02*
X118056819Y-61785428D01*
X118056819Y-61785428D02*
X118056819Y-61594952D01*
X118056819Y-61594952D02*
X118009200Y-61499714D01*
X118009200Y-61499714D02*
X117961580Y-61452095D01*
X117961580Y-61452095D02*
X117866342Y-61404476D01*
X117866342Y-61404476D02*
X117056819Y-61404476D01*
X117056819Y-61023523D02*
X117056819Y-60404476D01*
X117056819Y-60404476D02*
X117437771Y-60737809D01*
X117437771Y-60737809D02*
X117437771Y-60594952D01*
X117437771Y-60594952D02*
X117485390Y-60499714D01*
X117485390Y-60499714D02*
X117533009Y-60452095D01*
X117533009Y-60452095D02*
X117628247Y-60404476D01*
X117628247Y-60404476D02*
X117866342Y-60404476D01*
X117866342Y-60404476D02*
X117961580Y-60452095D01*
X117961580Y-60452095D02*
X118009200Y-60499714D01*
X118009200Y-60499714D02*
X118056819Y-60594952D01*
X118056819Y-60594952D02*
X118056819Y-60880666D01*
X118056819Y-60880666D02*
X118009200Y-60975904D01*
X118009200Y-60975904D02*
X117961580Y-61023523D01*
X119134286Y-69669819D02*
X119800952Y-69669819D01*
X119800952Y-69669819D02*
X119372381Y-70669819D01*
X120610476Y-70003152D02*
X120610476Y-70669819D01*
X120372381Y-69622200D02*
X120134286Y-70336485D01*
X120134286Y-70336485D02*
X120753333Y-70336485D01*
X121134286Y-70669819D02*
X121134286Y-69669819D01*
X121134286Y-70146009D02*
X121705714Y-70146009D01*
X121705714Y-70669819D02*
X121705714Y-69669819D01*
X122753333Y-70574580D02*
X122705714Y-70622200D01*
X122705714Y-70622200D02*
X122562857Y-70669819D01*
X122562857Y-70669819D02*
X122467619Y-70669819D01*
X122467619Y-70669819D02*
X122324762Y-70622200D01*
X122324762Y-70622200D02*
X122229524Y-70526961D01*
X122229524Y-70526961D02*
X122181905Y-70431723D01*
X122181905Y-70431723D02*
X122134286Y-70241247D01*
X122134286Y-70241247D02*
X122134286Y-70098390D01*
X122134286Y-70098390D02*
X122181905Y-69907914D01*
X122181905Y-69907914D02*
X122229524Y-69812676D01*
X122229524Y-69812676D02*
X122324762Y-69717438D01*
X122324762Y-69717438D02*
X122467619Y-69669819D01*
X122467619Y-69669819D02*
X122562857Y-69669819D01*
X122562857Y-69669819D02*
X122705714Y-69717438D01*
X122705714Y-69717438D02*
X122753333Y-69765057D01*
X123372381Y-69669819D02*
X123467619Y-69669819D01*
X123467619Y-69669819D02*
X123562857Y-69717438D01*
X123562857Y-69717438D02*
X123610476Y-69765057D01*
X123610476Y-69765057D02*
X123658095Y-69860295D01*
X123658095Y-69860295D02*
X123705714Y-70050771D01*
X123705714Y-70050771D02*
X123705714Y-70288866D01*
X123705714Y-70288866D02*
X123658095Y-70479342D01*
X123658095Y-70479342D02*
X123610476Y-70574580D01*
X123610476Y-70574580D02*
X123562857Y-70622200D01*
X123562857Y-70622200D02*
X123467619Y-70669819D01*
X123467619Y-70669819D02*
X123372381Y-70669819D01*
X123372381Y-70669819D02*
X123277143Y-70622200D01*
X123277143Y-70622200D02*
X123229524Y-70574580D01*
X123229524Y-70574580D02*
X123181905Y-70479342D01*
X123181905Y-70479342D02*
X123134286Y-70288866D01*
X123134286Y-70288866D02*
X123134286Y-70050771D01*
X123134286Y-70050771D02*
X123181905Y-69860295D01*
X123181905Y-69860295D02*
X123229524Y-69765057D01*
X123229524Y-69765057D02*
X123277143Y-69717438D01*
X123277143Y-69717438D02*
X123372381Y-69669819D01*
X124324762Y-69669819D02*
X124420000Y-69669819D01*
X124420000Y-69669819D02*
X124515238Y-69717438D01*
X124515238Y-69717438D02*
X124562857Y-69765057D01*
X124562857Y-69765057D02*
X124610476Y-69860295D01*
X124610476Y-69860295D02*
X124658095Y-70050771D01*
X124658095Y-70050771D02*
X124658095Y-70288866D01*
X124658095Y-70288866D02*
X124610476Y-70479342D01*
X124610476Y-70479342D02*
X124562857Y-70574580D01*
X124562857Y-70574580D02*
X124515238Y-70622200D01*
X124515238Y-70622200D02*
X124420000Y-70669819D01*
X124420000Y-70669819D02*
X124324762Y-70669819D01*
X124324762Y-70669819D02*
X124229524Y-70622200D01*
X124229524Y-70622200D02*
X124181905Y-70574580D01*
X124181905Y-70574580D02*
X124134286Y-70479342D01*
X124134286Y-70479342D02*
X124086667Y-70288866D01*
X124086667Y-70288866D02*
X124086667Y-70050771D01*
X124086667Y-70050771D02*
X124134286Y-69860295D01*
X124134286Y-69860295D02*
X124181905Y-69765057D01*
X124181905Y-69765057D02*
X124229524Y-69717438D01*
X124229524Y-69717438D02*
X124324762Y-69669819D01*
X31204819Y-60705904D02*
X32014342Y-60705904D01*
X32014342Y-60705904D02*
X32109580Y-60658285D01*
X32109580Y-60658285D02*
X32157200Y-60610666D01*
X32157200Y-60610666D02*
X32204819Y-60515428D01*
X32204819Y-60515428D02*
X32204819Y-60324952D01*
X32204819Y-60324952D02*
X32157200Y-60229714D01*
X32157200Y-60229714D02*
X32109580Y-60182095D01*
X32109580Y-60182095D02*
X32014342Y-60134476D01*
X32014342Y-60134476D02*
X31204819Y-60134476D01*
X31204819Y-59182095D02*
X31204819Y-59658285D01*
X31204819Y-59658285D02*
X31681009Y-59705904D01*
X31681009Y-59705904D02*
X31633390Y-59658285D01*
X31633390Y-59658285D02*
X31585771Y-59563047D01*
X31585771Y-59563047D02*
X31585771Y-59324952D01*
X31585771Y-59324952D02*
X31633390Y-59229714D01*
X31633390Y-59229714D02*
X31681009Y-59182095D01*
X31681009Y-59182095D02*
X31776247Y-59134476D01*
X31776247Y-59134476D02*
X32014342Y-59134476D01*
X32014342Y-59134476D02*
X32109580Y-59182095D01*
X32109580Y-59182095D02*
X32157200Y-59229714D01*
X32157200Y-59229714D02*
X32204819Y-59324952D01*
X32204819Y-59324952D02*
X32204819Y-59563047D01*
X32204819Y-59563047D02*
X32157200Y-59658285D01*
X32157200Y-59658285D02*
X32109580Y-59705904D01*
X32871095Y-69669819D02*
X33537761Y-69669819D01*
X33537761Y-69669819D02*
X33109190Y-70669819D01*
X34347285Y-70003152D02*
X34347285Y-70669819D01*
X34109190Y-69622200D02*
X33871095Y-70336485D01*
X33871095Y-70336485D02*
X34490142Y-70336485D01*
X34871095Y-70669819D02*
X34871095Y-69669819D01*
X34871095Y-70146009D02*
X35442523Y-70146009D01*
X35442523Y-70669819D02*
X35442523Y-69669819D01*
X36490142Y-70574580D02*
X36442523Y-70622200D01*
X36442523Y-70622200D02*
X36299666Y-70669819D01*
X36299666Y-70669819D02*
X36204428Y-70669819D01*
X36204428Y-70669819D02*
X36061571Y-70622200D01*
X36061571Y-70622200D02*
X35966333Y-70526961D01*
X35966333Y-70526961D02*
X35918714Y-70431723D01*
X35918714Y-70431723D02*
X35871095Y-70241247D01*
X35871095Y-70241247D02*
X35871095Y-70098390D01*
X35871095Y-70098390D02*
X35918714Y-69907914D01*
X35918714Y-69907914D02*
X35966333Y-69812676D01*
X35966333Y-69812676D02*
X36061571Y-69717438D01*
X36061571Y-69717438D02*
X36204428Y-69669819D01*
X36204428Y-69669819D02*
X36299666Y-69669819D01*
X36299666Y-69669819D02*
X36442523Y-69717438D01*
X36442523Y-69717438D02*
X36490142Y-69765057D01*
X37442523Y-70669819D02*
X36871095Y-70669819D01*
X37156809Y-70669819D02*
X37156809Y-69669819D01*
X37156809Y-69669819D02*
X37061571Y-69812676D01*
X37061571Y-69812676D02*
X36966333Y-69907914D01*
X36966333Y-69907914D02*
X36871095Y-69955533D01*
X37775857Y-69669819D02*
X38394904Y-69669819D01*
X38394904Y-69669819D02*
X38061571Y-70050771D01*
X38061571Y-70050771D02*
X38204428Y-70050771D01*
X38204428Y-70050771D02*
X38299666Y-70098390D01*
X38299666Y-70098390D02*
X38347285Y-70146009D01*
X38347285Y-70146009D02*
X38394904Y-70241247D01*
X38394904Y-70241247D02*
X38394904Y-70479342D01*
X38394904Y-70479342D02*
X38347285Y-70574580D01*
X38347285Y-70574580D02*
X38299666Y-70622200D01*
X38299666Y-70622200D02*
X38204428Y-70669819D01*
X38204428Y-70669819D02*
X37918714Y-70669819D01*
X37918714Y-70669819D02*
X37823476Y-70622200D01*
X37823476Y-70622200D02*
X37775857Y-70574580D01*
X38966333Y-70098390D02*
X38871095Y-70050771D01*
X38871095Y-70050771D02*
X38823476Y-70003152D01*
X38823476Y-70003152D02*
X38775857Y-69907914D01*
X38775857Y-69907914D02*
X38775857Y-69860295D01*
X38775857Y-69860295D02*
X38823476Y-69765057D01*
X38823476Y-69765057D02*
X38871095Y-69717438D01*
X38871095Y-69717438D02*
X38966333Y-69669819D01*
X38966333Y-69669819D02*
X39156809Y-69669819D01*
X39156809Y-69669819D02*
X39252047Y-69717438D01*
X39252047Y-69717438D02*
X39299666Y-69765057D01*
X39299666Y-69765057D02*
X39347285Y-69860295D01*
X39347285Y-69860295D02*
X39347285Y-69907914D01*
X39347285Y-69907914D02*
X39299666Y-70003152D01*
X39299666Y-70003152D02*
X39252047Y-70050771D01*
X39252047Y-70050771D02*
X39156809Y-70098390D01*
X39156809Y-70098390D02*
X38966333Y-70098390D01*
X38966333Y-70098390D02*
X38871095Y-70146009D01*
X38871095Y-70146009D02*
X38823476Y-70193628D01*
X38823476Y-70193628D02*
X38775857Y-70288866D01*
X38775857Y-70288866D02*
X38775857Y-70479342D01*
X38775857Y-70479342D02*
X38823476Y-70574580D01*
X38823476Y-70574580D02*
X38871095Y-70622200D01*
X38871095Y-70622200D02*
X38966333Y-70669819D01*
X38966333Y-70669819D02*
X39156809Y-70669819D01*
X39156809Y-70669819D02*
X39252047Y-70622200D01*
X39252047Y-70622200D02*
X39299666Y-70574580D01*
X39299666Y-70574580D02*
X39347285Y-70479342D01*
X39347285Y-70479342D02*
X39347285Y-70288866D01*
X39347285Y-70288866D02*
X39299666Y-70193628D01*
X39299666Y-70193628D02*
X39252047Y-70146009D01*
X39252047Y-70146009D02*
X39156809Y-70098390D01*
X99276819Y-62452094D02*
X100086342Y-62452094D01*
X100086342Y-62452094D02*
X100181580Y-62404475D01*
X100181580Y-62404475D02*
X100229200Y-62356856D01*
X100229200Y-62356856D02*
X100276819Y-62261618D01*
X100276819Y-62261618D02*
X100276819Y-62071142D01*
X100276819Y-62071142D02*
X100229200Y-61975904D01*
X100229200Y-61975904D02*
X100181580Y-61928285D01*
X100181580Y-61928285D02*
X100086342Y-61880666D01*
X100086342Y-61880666D02*
X99276819Y-61880666D01*
X100276819Y-60880666D02*
X100276819Y-61452094D01*
X100276819Y-61166380D02*
X99276819Y-61166380D01*
X99276819Y-61166380D02*
X99419676Y-61261618D01*
X99419676Y-61261618D02*
X99514914Y-61356856D01*
X99514914Y-61356856D02*
X99562533Y-61452094D01*
X99276819Y-60261618D02*
X99276819Y-60166380D01*
X99276819Y-60166380D02*
X99324438Y-60071142D01*
X99324438Y-60071142D02*
X99372057Y-60023523D01*
X99372057Y-60023523D02*
X99467295Y-59975904D01*
X99467295Y-59975904D02*
X99657771Y-59928285D01*
X99657771Y-59928285D02*
X99895866Y-59928285D01*
X99895866Y-59928285D02*
X100086342Y-59975904D01*
X100086342Y-59975904D02*
X100181580Y-60023523D01*
X100181580Y-60023523D02*
X100229200Y-60071142D01*
X100229200Y-60071142D02*
X100276819Y-60166380D01*
X100276819Y-60166380D02*
X100276819Y-60261618D01*
X100276819Y-60261618D02*
X100229200Y-60356856D01*
X100229200Y-60356856D02*
X100181580Y-60404475D01*
X100181580Y-60404475D02*
X100086342Y-60452094D01*
X100086342Y-60452094D02*
X99895866Y-60499713D01*
X99895866Y-60499713D02*
X99657771Y-60499713D01*
X99657771Y-60499713D02*
X99467295Y-60452094D01*
X99467295Y-60452094D02*
X99372057Y-60404475D01*
X99372057Y-60404475D02*
X99324438Y-60356856D01*
X99324438Y-60356856D02*
X99276819Y-60261618D01*
X101354286Y-69669819D02*
X102020952Y-69669819D01*
X102020952Y-69669819D02*
X101592381Y-70669819D01*
X102830476Y-70003152D02*
X102830476Y-70669819D01*
X102592381Y-69622200D02*
X102354286Y-70336485D01*
X102354286Y-70336485D02*
X102973333Y-70336485D01*
X103354286Y-70669819D02*
X103354286Y-69669819D01*
X103354286Y-70146009D02*
X103925714Y-70146009D01*
X103925714Y-70669819D02*
X103925714Y-69669819D01*
X104973333Y-70574580D02*
X104925714Y-70622200D01*
X104925714Y-70622200D02*
X104782857Y-70669819D01*
X104782857Y-70669819D02*
X104687619Y-70669819D01*
X104687619Y-70669819D02*
X104544762Y-70622200D01*
X104544762Y-70622200D02*
X104449524Y-70526961D01*
X104449524Y-70526961D02*
X104401905Y-70431723D01*
X104401905Y-70431723D02*
X104354286Y-70241247D01*
X104354286Y-70241247D02*
X104354286Y-70098390D01*
X104354286Y-70098390D02*
X104401905Y-69907914D01*
X104401905Y-69907914D02*
X104449524Y-69812676D01*
X104449524Y-69812676D02*
X104544762Y-69717438D01*
X104544762Y-69717438D02*
X104687619Y-69669819D01*
X104687619Y-69669819D02*
X104782857Y-69669819D01*
X104782857Y-69669819D02*
X104925714Y-69717438D01*
X104925714Y-69717438D02*
X104973333Y-69765057D01*
X105592381Y-69669819D02*
X105687619Y-69669819D01*
X105687619Y-69669819D02*
X105782857Y-69717438D01*
X105782857Y-69717438D02*
X105830476Y-69765057D01*
X105830476Y-69765057D02*
X105878095Y-69860295D01*
X105878095Y-69860295D02*
X105925714Y-70050771D01*
X105925714Y-70050771D02*
X105925714Y-70288866D01*
X105925714Y-70288866D02*
X105878095Y-70479342D01*
X105878095Y-70479342D02*
X105830476Y-70574580D01*
X105830476Y-70574580D02*
X105782857Y-70622200D01*
X105782857Y-70622200D02*
X105687619Y-70669819D01*
X105687619Y-70669819D02*
X105592381Y-70669819D01*
X105592381Y-70669819D02*
X105497143Y-70622200D01*
X105497143Y-70622200D02*
X105449524Y-70574580D01*
X105449524Y-70574580D02*
X105401905Y-70479342D01*
X105401905Y-70479342D02*
X105354286Y-70288866D01*
X105354286Y-70288866D02*
X105354286Y-70050771D01*
X105354286Y-70050771D02*
X105401905Y-69860295D01*
X105401905Y-69860295D02*
X105449524Y-69765057D01*
X105449524Y-69765057D02*
X105497143Y-69717438D01*
X105497143Y-69717438D02*
X105592381Y-69669819D01*
X106306667Y-69765057D02*
X106354286Y-69717438D01*
X106354286Y-69717438D02*
X106449524Y-69669819D01*
X106449524Y-69669819D02*
X106687619Y-69669819D01*
X106687619Y-69669819D02*
X106782857Y-69717438D01*
X106782857Y-69717438D02*
X106830476Y-69765057D01*
X106830476Y-69765057D02*
X106878095Y-69860295D01*
X106878095Y-69860295D02*
X106878095Y-69955533D01*
X106878095Y-69955533D02*
X106830476Y-70098390D01*
X106830476Y-70098390D02*
X106259048Y-70669819D01*
X106259048Y-70669819D02*
X106878095Y-70669819D01*
X101732819Y-77295333D02*
X102447104Y-77295333D01*
X102447104Y-77295333D02*
X102589961Y-77342952D01*
X102589961Y-77342952D02*
X102685200Y-77438190D01*
X102685200Y-77438190D02*
X102732819Y-77581047D01*
X102732819Y-77581047D02*
X102732819Y-77676285D01*
X102732819Y-76295333D02*
X102732819Y-76866761D01*
X102732819Y-76581047D02*
X101732819Y-76581047D01*
X101732819Y-76581047D02*
X101875676Y-76676285D01*
X101875676Y-76676285D02*
X101970914Y-76771523D01*
X101970914Y-76771523D02*
X102018533Y-76866761D01*
X43807905Y-83497009D02*
X44141238Y-83497009D01*
X44284095Y-84020819D02*
X43807905Y-84020819D01*
X43807905Y-84020819D02*
X43807905Y-83020819D01*
X43807905Y-83020819D02*
X44284095Y-83020819D01*
X44617429Y-83020819D02*
X45284095Y-84020819D01*
X45284095Y-83020819D02*
X44617429Y-84020819D01*
X45665048Y-84020819D02*
X45665048Y-83020819D01*
X45665048Y-83020819D02*
X46046000Y-83020819D01*
X46046000Y-83020819D02*
X46141238Y-83068438D01*
X46141238Y-83068438D02*
X46188857Y-83116057D01*
X46188857Y-83116057D02*
X46236476Y-83211295D01*
X46236476Y-83211295D02*
X46236476Y-83354152D01*
X46236476Y-83354152D02*
X46188857Y-83449390D01*
X46188857Y-83449390D02*
X46141238Y-83497009D01*
X46141238Y-83497009D02*
X46046000Y-83544628D01*
X46046000Y-83544628D02*
X45665048Y-83544628D01*
X46617429Y-83735104D02*
X47093619Y-83735104D01*
X46522191Y-84020819D02*
X46855524Y-83020819D01*
X46855524Y-83020819D02*
X47188857Y-84020819D01*
X47522191Y-84020819D02*
X47522191Y-83020819D01*
X47522191Y-83020819D02*
X48093619Y-84020819D01*
X48093619Y-84020819D02*
X48093619Y-83020819D01*
X48522191Y-83973200D02*
X48665048Y-84020819D01*
X48665048Y-84020819D02*
X48903143Y-84020819D01*
X48903143Y-84020819D02*
X48998381Y-83973200D01*
X48998381Y-83973200D02*
X49046000Y-83925580D01*
X49046000Y-83925580D02*
X49093619Y-83830342D01*
X49093619Y-83830342D02*
X49093619Y-83735104D01*
X49093619Y-83735104D02*
X49046000Y-83639866D01*
X49046000Y-83639866D02*
X48998381Y-83592247D01*
X48998381Y-83592247D02*
X48903143Y-83544628D01*
X48903143Y-83544628D02*
X48712667Y-83497009D01*
X48712667Y-83497009D02*
X48617429Y-83449390D01*
X48617429Y-83449390D02*
X48569810Y-83401771D01*
X48569810Y-83401771D02*
X48522191Y-83306533D01*
X48522191Y-83306533D02*
X48522191Y-83211295D01*
X48522191Y-83211295D02*
X48569810Y-83116057D01*
X48569810Y-83116057D02*
X48617429Y-83068438D01*
X48617429Y-83068438D02*
X48712667Y-83020819D01*
X48712667Y-83020819D02*
X48950762Y-83020819D01*
X48950762Y-83020819D02*
X49093619Y-83068438D01*
X49522191Y-84020819D02*
X49522191Y-83020819D01*
X50188857Y-83020819D02*
X50379333Y-83020819D01*
X50379333Y-83020819D02*
X50474571Y-83068438D01*
X50474571Y-83068438D02*
X50569809Y-83163676D01*
X50569809Y-83163676D02*
X50617428Y-83354152D01*
X50617428Y-83354152D02*
X50617428Y-83687485D01*
X50617428Y-83687485D02*
X50569809Y-83877961D01*
X50569809Y-83877961D02*
X50474571Y-83973200D01*
X50474571Y-83973200D02*
X50379333Y-84020819D01*
X50379333Y-84020819D02*
X50188857Y-84020819D01*
X50188857Y-84020819D02*
X50093619Y-83973200D01*
X50093619Y-83973200D02*
X49998381Y-83877961D01*
X49998381Y-83877961D02*
X49950762Y-83687485D01*
X49950762Y-83687485D02*
X49950762Y-83354152D01*
X49950762Y-83354152D02*
X49998381Y-83163676D01*
X49998381Y-83163676D02*
X50093619Y-83068438D01*
X50093619Y-83068438D02*
X50188857Y-83020819D01*
X51046000Y-84020819D02*
X51046000Y-83020819D01*
X51046000Y-83020819D02*
X51617428Y-84020819D01*
X51617428Y-84020819D02*
X51617428Y-83020819D01*
X53188857Y-83497009D02*
X53331714Y-83544628D01*
X53331714Y-83544628D02*
X53379333Y-83592247D01*
X53379333Y-83592247D02*
X53426952Y-83687485D01*
X53426952Y-83687485D02*
X53426952Y-83830342D01*
X53426952Y-83830342D02*
X53379333Y-83925580D01*
X53379333Y-83925580D02*
X53331714Y-83973200D01*
X53331714Y-83973200D02*
X53236476Y-84020819D01*
X53236476Y-84020819D02*
X52855524Y-84020819D01*
X52855524Y-84020819D02*
X52855524Y-83020819D01*
X52855524Y-83020819D02*
X53188857Y-83020819D01*
X53188857Y-83020819D02*
X53284095Y-83068438D01*
X53284095Y-83068438D02*
X53331714Y-83116057D01*
X53331714Y-83116057D02*
X53379333Y-83211295D01*
X53379333Y-83211295D02*
X53379333Y-83306533D01*
X53379333Y-83306533D02*
X53331714Y-83401771D01*
X53331714Y-83401771D02*
X53284095Y-83449390D01*
X53284095Y-83449390D02*
X53188857Y-83497009D01*
X53188857Y-83497009D02*
X52855524Y-83497009D01*
X54046000Y-83020819D02*
X54236476Y-83020819D01*
X54236476Y-83020819D02*
X54331714Y-83068438D01*
X54331714Y-83068438D02*
X54426952Y-83163676D01*
X54426952Y-83163676D02*
X54474571Y-83354152D01*
X54474571Y-83354152D02*
X54474571Y-83687485D01*
X54474571Y-83687485D02*
X54426952Y-83877961D01*
X54426952Y-83877961D02*
X54331714Y-83973200D01*
X54331714Y-83973200D02*
X54236476Y-84020819D01*
X54236476Y-84020819D02*
X54046000Y-84020819D01*
X54046000Y-84020819D02*
X53950762Y-83973200D01*
X53950762Y-83973200D02*
X53855524Y-83877961D01*
X53855524Y-83877961D02*
X53807905Y-83687485D01*
X53807905Y-83687485D02*
X53807905Y-83354152D01*
X53807905Y-83354152D02*
X53855524Y-83163676D01*
X53855524Y-83163676D02*
X53950762Y-83068438D01*
X53950762Y-83068438D02*
X54046000Y-83020819D01*
X54855524Y-83735104D02*
X55331714Y-83735104D01*
X54760286Y-84020819D02*
X55093619Y-83020819D01*
X55093619Y-83020819D02*
X55426952Y-84020819D01*
X56331714Y-84020819D02*
X55998381Y-83544628D01*
X55760286Y-84020819D02*
X55760286Y-83020819D01*
X55760286Y-83020819D02*
X56141238Y-83020819D01*
X56141238Y-83020819D02*
X56236476Y-83068438D01*
X56236476Y-83068438D02*
X56284095Y-83116057D01*
X56284095Y-83116057D02*
X56331714Y-83211295D01*
X56331714Y-83211295D02*
X56331714Y-83354152D01*
X56331714Y-83354152D02*
X56284095Y-83449390D01*
X56284095Y-83449390D02*
X56236476Y-83497009D01*
X56236476Y-83497009D02*
X56141238Y-83544628D01*
X56141238Y-83544628D02*
X55760286Y-83544628D01*
X56760286Y-84020819D02*
X56760286Y-83020819D01*
X56760286Y-83020819D02*
X56998381Y-83020819D01*
X56998381Y-83020819D02*
X57141238Y-83068438D01*
X57141238Y-83068438D02*
X57236476Y-83163676D01*
X57236476Y-83163676D02*
X57284095Y-83258914D01*
X57284095Y-83258914D02*
X57331714Y-83449390D01*
X57331714Y-83449390D02*
X57331714Y-83592247D01*
X57331714Y-83592247D02*
X57284095Y-83782723D01*
X57284095Y-83782723D02*
X57236476Y-83877961D01*
X57236476Y-83877961D02*
X57141238Y-83973200D01*
X57141238Y-83973200D02*
X56998381Y-84020819D01*
X56998381Y-84020819D02*
X56760286Y-84020819D01*
D13*
%TO.C,C1*%
X86621252Y-56415000D02*
X86098748Y-56415000D01*
X86621252Y-57885000D02*
X86098748Y-57885000D01*
%TO.C,C9*%
X75423752Y-54129000D02*
X74901248Y-54129000D01*
X75423752Y-55599000D02*
X74901248Y-55599000D01*
%TO.C,D1*%
X37488000Y-77382000D02*
X37488000Y-81622000D01*
X37488000Y-80782000D02*
X39728000Y-80782000D01*
X37488000Y-80902000D02*
X39728000Y-80902000D01*
X37488000Y-81022000D02*
X39728000Y-81022000D01*
X37488000Y-81622000D02*
X39728000Y-81622000D01*
X38608000Y-76732000D02*
X38608000Y-77382000D01*
X38608000Y-82272000D02*
X38608000Y-81622000D01*
X39728000Y-77382000D02*
X37488000Y-77382000D01*
X39728000Y-81622000D02*
X39728000Y-77382000D01*
%TO.C,C5*%
X59718752Y-46509000D02*
X59196248Y-46509000D01*
X59718752Y-47979000D02*
X59196248Y-47979000D01*
%TO.C,C10*%
X104401252Y-57685000D02*
X103878748Y-57685000D01*
X104401252Y-59155000D02*
X103878748Y-59155000D01*
%TO.C,C2*%
X122181252Y-57685000D02*
X121658748Y-57685000D01*
X122181252Y-59155000D02*
X121658748Y-59155000D01*
%TO.C,J2*%
X25086000Y-66040000D02*
X25086000Y-68640000D01*
X25086000Y-66040000D02*
X27746000Y-66040000D01*
X25086000Y-68640000D02*
X27746000Y-68640000D01*
X26416000Y-63440000D02*
X27746000Y-63440000D01*
X27746000Y-63440000D02*
X27746000Y-64770000D01*
X27746000Y-66040000D02*
X27746000Y-68640000D01*
%TO.C,C6*%
X36307752Y-56923000D02*
X35785248Y-56923000D01*
X36307752Y-58393000D02*
X35785248Y-58393000D01*
%TO.C,C7*%
X46213752Y-56923000D02*
X45691248Y-56923000D01*
X46213752Y-58393000D02*
X45691248Y-58393000D01*
%TO.C,U8*%
X71070000Y-56355000D02*
X71070000Y-56590000D01*
X71070000Y-69375000D02*
X71070000Y-69140000D01*
X74930000Y-56355000D02*
X71070000Y-56355000D01*
X74930000Y-56355000D02*
X78790000Y-56355000D01*
X74930000Y-69375000D02*
X71070000Y-69375000D01*
X74930000Y-69375000D02*
X78790000Y-69375000D01*
X78790000Y-56355000D02*
X78790000Y-56590000D01*
X78790000Y-69375000D02*
X78790000Y-69140000D01*
X70217500Y-56590000D02*
X69877500Y-56120000D01*
X70557500Y-56120000D01*
X70217500Y-56590000D01*
G36*
X70217500Y-56590000D02*
G01*
X69877500Y-56120000D01*
X70557500Y-56120000D01*
X70217500Y-56590000D01*
G37*
%TO.C,U2*%
X53927500Y-48657500D02*
X53927500Y-48930000D01*
X53927500Y-69372500D02*
X53927500Y-69100000D01*
X59690000Y-48657500D02*
X53927500Y-48657500D01*
X59690000Y-48657500D02*
X65452500Y-48657500D01*
X59690000Y-69372500D02*
X53927500Y-69372500D01*
X59690000Y-69372500D02*
X65452500Y-69372500D01*
X65452500Y-48657500D02*
X65452500Y-48930000D01*
X65452500Y-69372500D02*
X65452500Y-69100000D01*
X53076250Y-48930000D02*
X52736250Y-48460000D01*
X53416250Y-48460000D01*
X53076250Y-48930000D01*
G36*
X53076250Y-48930000D02*
G01*
X52736250Y-48460000D01*
X53416250Y-48460000D01*
X53076250Y-48930000D01*
G37*
%TO.C,U4*%
X113030000Y-59255000D02*
X111080000Y-59255000D01*
X113030000Y-59255000D02*
X114980000Y-59255000D01*
X113030000Y-69375000D02*
X111080000Y-69375000D01*
X113030000Y-69375000D02*
X114980000Y-69375000D01*
X110330000Y-59310000D02*
X110090000Y-58980000D01*
X110570000Y-58980000D01*
X110330000Y-59310000D01*
G36*
X110330000Y-59310000D02*
G01*
X110090000Y-58980000D01*
X110570000Y-58980000D01*
X110330000Y-59310000D01*
G37*
%TO.C,C3*%
X23149759Y-78171000D02*
X23779759Y-78171000D01*
X23464759Y-77856000D02*
X23464759Y-78486000D01*
X26650000Y-76780000D02*
X26650000Y-83240000D01*
X26690000Y-76780000D02*
X26690000Y-83240000D01*
X26730000Y-76780000D02*
X26730000Y-83240000D01*
X26770000Y-76782000D02*
X26770000Y-83238000D01*
X26810000Y-76783000D02*
X26810000Y-83237000D01*
X26850000Y-76786000D02*
X26850000Y-83234000D01*
X26890000Y-76788000D02*
X26890000Y-78970000D01*
X26890000Y-81050000D02*
X26890000Y-83232000D01*
X26930000Y-76792000D02*
X26930000Y-78970000D01*
X26930000Y-81050000D02*
X26930000Y-83228000D01*
X26970000Y-76795000D02*
X26970000Y-78970000D01*
X26970000Y-81050000D02*
X26970000Y-83225000D01*
X27010000Y-76799000D02*
X27010000Y-78970000D01*
X27010000Y-81050000D02*
X27010000Y-83221000D01*
X27050000Y-76804000D02*
X27050000Y-78970000D01*
X27050000Y-81050000D02*
X27050000Y-83216000D01*
X27090000Y-76809000D02*
X27090000Y-78970000D01*
X27090000Y-81050000D02*
X27090000Y-83211000D01*
X27130000Y-76815000D02*
X27130000Y-78970000D01*
X27130000Y-81050000D02*
X27130000Y-83205000D01*
X27170000Y-76821000D02*
X27170000Y-78970000D01*
X27170000Y-81050000D02*
X27170000Y-83199000D01*
X27210000Y-76828000D02*
X27210000Y-78970000D01*
X27210000Y-81050000D02*
X27210000Y-83192000D01*
X27250000Y-76835000D02*
X27250000Y-78970000D01*
X27250000Y-81050000D02*
X27250000Y-83185000D01*
X27290000Y-76843000D02*
X27290000Y-78970000D01*
X27290000Y-81050000D02*
X27290000Y-83177000D01*
X27330000Y-76851000D02*
X27330000Y-78970000D01*
X27330000Y-81050000D02*
X27330000Y-83169000D01*
X27371000Y-76860000D02*
X27371000Y-78970000D01*
X27371000Y-81050000D02*
X27371000Y-83160000D01*
X27411000Y-76869000D02*
X27411000Y-78970000D01*
X27411000Y-81050000D02*
X27411000Y-83151000D01*
X27451000Y-76879000D02*
X27451000Y-78970000D01*
X27451000Y-81050000D02*
X27451000Y-83141000D01*
X27491000Y-76889000D02*
X27491000Y-78970000D01*
X27491000Y-81050000D02*
X27491000Y-83131000D01*
X27531000Y-76900000D02*
X27531000Y-78970000D01*
X27531000Y-81050000D02*
X27531000Y-83120000D01*
X27571000Y-76912000D02*
X27571000Y-78970000D01*
X27571000Y-81050000D02*
X27571000Y-83108000D01*
X27611000Y-76924000D02*
X27611000Y-78970000D01*
X27611000Y-81050000D02*
X27611000Y-83096000D01*
X27651000Y-76936000D02*
X27651000Y-78970000D01*
X27651000Y-81050000D02*
X27651000Y-83084000D01*
X27691000Y-76949000D02*
X27691000Y-78970000D01*
X27691000Y-81050000D02*
X27691000Y-83071000D01*
X27731000Y-76963000D02*
X27731000Y-78970000D01*
X27731000Y-81050000D02*
X27731000Y-83057000D01*
X27771000Y-76977000D02*
X27771000Y-78970000D01*
X27771000Y-81050000D02*
X27771000Y-83043000D01*
X27811000Y-76992000D02*
X27811000Y-78970000D01*
X27811000Y-81050000D02*
X27811000Y-83028000D01*
X27851000Y-77008000D02*
X27851000Y-78970000D01*
X27851000Y-81050000D02*
X27851000Y-83012000D01*
X27891000Y-77024000D02*
X27891000Y-78970000D01*
X27891000Y-81050000D02*
X27891000Y-82996000D01*
X27931000Y-77040000D02*
X27931000Y-78970000D01*
X27931000Y-81050000D02*
X27931000Y-82980000D01*
X27971000Y-77058000D02*
X27971000Y-78970000D01*
X27971000Y-81050000D02*
X27971000Y-82962000D01*
X28011000Y-77076000D02*
X28011000Y-78970000D01*
X28011000Y-81050000D02*
X28011000Y-82944000D01*
X28051000Y-77094000D02*
X28051000Y-78970000D01*
X28051000Y-81050000D02*
X28051000Y-82926000D01*
X28091000Y-77114000D02*
X28091000Y-78970000D01*
X28091000Y-81050000D02*
X28091000Y-82906000D01*
X28131000Y-77134000D02*
X28131000Y-78970000D01*
X28131000Y-81050000D02*
X28131000Y-82886000D01*
X28171000Y-77154000D02*
X28171000Y-78970000D01*
X28171000Y-81050000D02*
X28171000Y-82866000D01*
X28211000Y-77176000D02*
X28211000Y-78970000D01*
X28211000Y-81050000D02*
X28211000Y-82844000D01*
X28251000Y-77198000D02*
X28251000Y-78970000D01*
X28251000Y-81050000D02*
X28251000Y-82822000D01*
X28291000Y-77220000D02*
X28291000Y-78970000D01*
X28291000Y-81050000D02*
X28291000Y-82800000D01*
X28331000Y-77244000D02*
X28331000Y-78970000D01*
X28331000Y-81050000D02*
X28331000Y-82776000D01*
X28371000Y-77268000D02*
X28371000Y-78970000D01*
X28371000Y-81050000D02*
X28371000Y-82752000D01*
X28411000Y-77294000D02*
X28411000Y-78970000D01*
X28411000Y-81050000D02*
X28411000Y-82726000D01*
X28451000Y-77320000D02*
X28451000Y-78970000D01*
X28451000Y-81050000D02*
X28451000Y-82700000D01*
X28491000Y-77346000D02*
X28491000Y-78970000D01*
X28491000Y-81050000D02*
X28491000Y-82674000D01*
X28531000Y-77374000D02*
X28531000Y-78970000D01*
X28531000Y-81050000D02*
X28531000Y-82646000D01*
X28571000Y-77403000D02*
X28571000Y-78970000D01*
X28571000Y-81050000D02*
X28571000Y-82617000D01*
X28611000Y-77432000D02*
X28611000Y-78970000D01*
X28611000Y-81050000D02*
X28611000Y-82588000D01*
X28651000Y-77462000D02*
X28651000Y-78970000D01*
X28651000Y-81050000D02*
X28651000Y-82558000D01*
X28691000Y-77494000D02*
X28691000Y-78970000D01*
X28691000Y-81050000D02*
X28691000Y-82526000D01*
X28731000Y-77526000D02*
X28731000Y-78970000D01*
X28731000Y-81050000D02*
X28731000Y-82494000D01*
X28771000Y-77560000D02*
X28771000Y-78970000D01*
X28771000Y-81050000D02*
X28771000Y-82460000D01*
X28811000Y-77594000D02*
X28811000Y-78970000D01*
X28811000Y-81050000D02*
X28811000Y-82426000D01*
X28851000Y-77630000D02*
X28851000Y-78970000D01*
X28851000Y-81050000D02*
X28851000Y-82390000D01*
X28891000Y-77667000D02*
X28891000Y-78970000D01*
X28891000Y-81050000D02*
X28891000Y-82353000D01*
X28931000Y-77705000D02*
X28931000Y-78970000D01*
X28931000Y-81050000D02*
X28931000Y-82315000D01*
X28971000Y-77745000D02*
X28971000Y-82275000D01*
X29011000Y-77786000D02*
X29011000Y-82234000D01*
X29051000Y-77828000D02*
X29051000Y-82192000D01*
X29091000Y-77873000D02*
X29091000Y-82147000D01*
X29131000Y-77918000D02*
X29131000Y-82102000D01*
X29171000Y-77966000D02*
X29171000Y-82054000D01*
X29211000Y-78015000D02*
X29211000Y-82005000D01*
X29251000Y-78066000D02*
X29251000Y-81954000D01*
X29291000Y-78120000D02*
X29291000Y-81900000D01*
X29331000Y-78176000D02*
X29331000Y-81844000D01*
X29371000Y-78234000D02*
X29371000Y-81786000D01*
X29411000Y-78296000D02*
X29411000Y-81724000D01*
X29451000Y-78360000D02*
X29451000Y-81660000D01*
X29491000Y-78429000D02*
X29491000Y-81591000D01*
X29531000Y-78501000D02*
X29531000Y-81519000D01*
X29571000Y-78578000D02*
X29571000Y-81442000D01*
X29611000Y-78660000D02*
X29611000Y-81360000D01*
X29651000Y-78748000D02*
X29651000Y-81272000D01*
X29691000Y-78845000D02*
X29691000Y-81175000D01*
X29731000Y-78951000D02*
X29731000Y-81069000D01*
X29771000Y-79070000D02*
X29771000Y-80950000D01*
X29811000Y-79208000D02*
X29811000Y-80812000D01*
X29851000Y-79377000D02*
X29851000Y-80643000D01*
X29891000Y-79608000D02*
X29891000Y-80412000D01*
X29920000Y-80010000D02*
G75*
G02*
X23380000Y-80010000I-3270000J0D01*
G01*
X23380000Y-80010000D02*
G75*
G02*
X29920000Y-80010000I3270000J0D01*
G01*
%TO.C,C4*%
X95511252Y-56415000D02*
X94988748Y-56415000D01*
X95511252Y-57885000D02*
X94988748Y-57885000D01*
%TO.C,U9*%
X95315000Y-59255000D02*
X93365000Y-59255000D01*
X95315000Y-59255000D02*
X97265000Y-59255000D01*
X95315000Y-69375000D02*
X93365000Y-69375000D01*
X95315000Y-69375000D02*
X97265000Y-69375000D01*
X92615000Y-59310000D02*
X92375000Y-58980000D01*
X92855000Y-58980000D01*
X92615000Y-59310000D01*
G36*
X92615000Y-59310000D02*
G01*
X92375000Y-58980000D01*
X92855000Y-58980000D01*
X92615000Y-59310000D01*
G37*
%TO.C,U1*%
X45785000Y-59255000D02*
X43835000Y-59255000D01*
X45785000Y-59255000D02*
X47735000Y-59255000D01*
X45785000Y-69375000D02*
X43835000Y-69375000D01*
X45785000Y-69375000D02*
X47735000Y-69375000D01*
X43085000Y-59310000D02*
X42845000Y-58980000D01*
X43325000Y-58980000D01*
X43085000Y-59310000D01*
G36*
X43085000Y-59310000D02*
G01*
X42845000Y-58980000D01*
X43325000Y-58980000D01*
X43085000Y-59310000D01*
G37*
%TO.C,U7*%
X86360000Y-59255000D02*
X84410000Y-59255000D01*
X86360000Y-59255000D02*
X88310000Y-59255000D01*
X86360000Y-69375000D02*
X84410000Y-69375000D01*
X86360000Y-69375000D02*
X88310000Y-69375000D01*
X83660000Y-59310000D02*
X83420000Y-58980000D01*
X83900000Y-58980000D01*
X83660000Y-59310000D01*
G36*
X83660000Y-59310000D02*
G01*
X83420000Y-58980000D01*
X83900000Y-58980000D01*
X83660000Y-59310000D01*
G37*
%TO.C,C8*%
X113058752Y-56415000D02*
X112536248Y-56415000D01*
X113058752Y-57885000D02*
X112536248Y-57885000D01*
%TO.C,J3*%
X22606000Y-46990000D02*
X22606000Y-57150000D01*
X22606000Y-57150000D02*
X30226000Y-57150000D01*
X23876000Y-57150000D02*
X23876000Y-46990000D01*
X30226000Y-46990000D02*
X22606000Y-46990000D01*
X30226000Y-57150000D02*
X30226000Y-46990000D01*
%TO.C,U3*%
X121920000Y-60500000D02*
X119970000Y-60500000D01*
X121920000Y-60500000D02*
X123870000Y-60500000D01*
X121920000Y-69370000D02*
X119970000Y-69370000D01*
X121920000Y-69370000D02*
X123870000Y-69370000D01*
X119220000Y-60565000D02*
X118980000Y-60235000D01*
X119460000Y-60235000D01*
X119220000Y-60565000D01*
G36*
X119220000Y-60565000D02*
G01*
X118980000Y-60235000D01*
X119460000Y-60235000D01*
X119220000Y-60565000D01*
G37*
%TO.C,U5*%
X36133000Y-59255000D02*
X34183000Y-59255000D01*
X36133000Y-59255000D02*
X38083000Y-59255000D01*
X36133000Y-69375000D02*
X34183000Y-69375000D01*
X36133000Y-69375000D02*
X38083000Y-69375000D01*
X33433000Y-59310000D02*
X33193000Y-58980000D01*
X33673000Y-58980000D01*
X33433000Y-59310000D01*
G36*
X33433000Y-59310000D02*
G01*
X33193000Y-58980000D01*
X33673000Y-58980000D01*
X33433000Y-59310000D01*
G37*
%TO.C,U10*%
X104140000Y-60500000D02*
X102190000Y-60500000D01*
X104140000Y-60500000D02*
X106090000Y-60500000D01*
X104140000Y-69370000D02*
X102190000Y-69370000D01*
X104140000Y-69370000D02*
X106090000Y-69370000D01*
X101440000Y-60565000D02*
X101200000Y-60235000D01*
X101680000Y-60235000D01*
X101440000Y-60565000D01*
G36*
X101440000Y-60565000D02*
G01*
X101200000Y-60235000D01*
X101680000Y-60235000D01*
X101440000Y-60565000D01*
G37*
%TD*%
M02*
