%TF.GenerationSoftware,KiCad,Pcbnew,9.0.2*%
%TF.CreationDate,2025-06-22T07:24:43+02:00*%
%TF.ProjectId,p2000t-ram-expansion-board-128-512-smd-cpld,70323030-3074-42d7-9261-6d2d65787061,4*%
%TF.SameCoordinates,Original*%
%TF.FileFunction,Copper,L2,Bot*%
%TF.FilePolarity,Positive*%
%FSLAX46Y46*%
G04 Gerber Fmt 4.6, Leading zero omitted, Abs format (unit mm)*
G04 Created by KiCad (PCBNEW 9.0.2) date 2025-06-22 07:24:43*
%MOMM*%
%LPD*%
G01*
G04 APERTURE LIST*
G04 Aperture macros list*
%AMRoundRect*
0 Rectangle with rounded corners*
0 $1 Rounding radius*
0 $2 $3 $4 $5 $6 $7 $8 $9 X,Y pos of 4 corners*
0 Add a 4 corners polygon primitive as box body*
4,1,4,$2,$3,$4,$5,$6,$7,$8,$9,$2,$3,0*
0 Add four circle primitives for the rounded corners*
1,1,$1+$1,$2,$3*
1,1,$1+$1,$4,$5*
1,1,$1+$1,$6,$7*
1,1,$1+$1,$8,$9*
0 Add four rect primitives between the rounded corners*
20,1,$1+$1,$2,$3,$4,$5,0*
20,1,$1+$1,$4,$5,$6,$7,0*
20,1,$1+$1,$6,$7,$8,$9,0*
20,1,$1+$1,$8,$9,$2,$3,0*%
G04 Aperture macros list end*
%TA.AperFunction,ComponentPad*%
%ADD10R,1.600000X1.600000*%
%TD*%
%TA.AperFunction,ComponentPad*%
%ADD11O,1.600000X1.600000*%
%TD*%
%TA.AperFunction,ComponentPad*%
%ADD12RoundRect,0.250000X-0.600000X-0.600000X0.600000X-0.600000X0.600000X0.600000X-0.600000X0.600000X0*%
%TD*%
%TA.AperFunction,ComponentPad*%
%ADD13C,1.700000*%
%TD*%
%TA.AperFunction,ComponentPad*%
%ADD14R,1.700000X1.700000*%
%TD*%
%TA.AperFunction,ComponentPad*%
%ADD15O,1.700000X1.700000*%
%TD*%
%TA.AperFunction,ComponentPad*%
%ADD16C,1.600000*%
%TD*%
%TA.AperFunction,ComponentPad*%
%ADD17R,3.000000X3.000000*%
%TD*%
%TA.AperFunction,ComponentPad*%
%ADD18C,3.000000*%
%TD*%
%TA.AperFunction,ViaPad*%
%ADD19C,0.800000*%
%TD*%
%TA.AperFunction,Conductor*%
%ADD20C,0.250000*%
%TD*%
%TA.AperFunction,Conductor*%
%ADD21C,0.500000*%
%TD*%
%TA.AperFunction,Conductor*%
%ADD22C,1.000000*%
%TD*%
G04 APERTURE END LIST*
D10*
%TO.P,D1,1,K*%
%TO.N,+5V*%
X31115000Y-74930000D03*
D11*
%TO.P,D1,2,A*%
%TO.N,VCC*%
X23495000Y-74930000D03*
%TD*%
D12*
%TO.P,J4,1,TCK*%
%TO.N,TCK*%
X122936000Y-50800000D03*
D13*
%TO.P,J4,2,GND*%
%TO.N,GND*%
X125476000Y-50800000D03*
%TO.P,J4,3,TDO*%
%TO.N,TDO*%
X122936000Y-53340000D03*
%TO.P,J4,4,VccT*%
%TO.N,+5V*%
X125476000Y-53340000D03*
%TO.P,J4,5,TMS*%
%TO.N,TMS*%
X122936000Y-55880000D03*
%TO.P,J4,6,NC*%
%TO.N,unconnected-(J4-NC-Pad6)*%
X125476000Y-55880000D03*
%TO.P,J4,7,NC*%
%TO.N,unconnected-(J4-NC-Pad7)*%
X122936000Y-58420000D03*
%TO.P,J4,8,NC*%
%TO.N,unconnected-(J4-NC-Pad8)*%
X125476000Y-58420000D03*
%TO.P,J4,9,TDI*%
%TO.N,TDI*%
X122936000Y-60960000D03*
%TO.P,J4,10,GND*%
%TO.N,GND*%
X125476000Y-60960000D03*
%TD*%
D14*
%TO.P,J2,1,Pin_1*%
%TO.N,GND*%
X23500000Y-64990000D03*
D15*
%TO.P,J2,2,Pin_2*%
%TO.N,VCC*%
X23500000Y-67530000D03*
%TD*%
D10*
%TO.P,C3,1*%
%TO.N,+5V*%
X24000000Y-83750000D03*
D16*
%TO.P,C3,2*%
%TO.N,GND*%
X26500000Y-83750000D03*
%TD*%
D17*
%TO.P,J3,1,Pin_1*%
%TO.N,GND*%
X25658000Y-49020000D03*
D18*
%TO.P,J3,2,Pin_2*%
%TO.N,VCC*%
X25658000Y-54100000D03*
%TD*%
D14*
%TO.P,J1,1,Pin_1*%
%TO.N,GND*%
X99055000Y-80518000D03*
D15*
%TO.P,J1,2,Pin_2*%
%TO.N,unconnected-(J1-Pin_2-Pad2)*%
X99055000Y-77978000D03*
%TO.P,J1,3,Pin_3*%
%TO.N,D0*%
X96515000Y-80518000D03*
%TO.P,J1,4,Pin_4*%
%TO.N,D1*%
X96515000Y-77978000D03*
%TO.P,J1,5,Pin_5*%
%TO.N,D2*%
X93975000Y-80518000D03*
%TO.P,J1,6,Pin_6*%
%TO.N,D3*%
X93975000Y-77978000D03*
%TO.P,J1,7,Pin_7*%
%TO.N,D4*%
X91435000Y-80518000D03*
%TO.P,J1,8,Pin_8*%
%TO.N,D5*%
X91435000Y-77978000D03*
%TO.P,J1,9,Pin_9*%
%TO.N,D6*%
X88895000Y-80518000D03*
%TO.P,J1,10,Pin_10*%
%TO.N,D7*%
X88895000Y-77978000D03*
%TO.P,J1,11,Pin_11*%
%TO.N,A0*%
X86355000Y-80518000D03*
%TO.P,J1,12,Pin_12*%
%TO.N,A1*%
X86355000Y-77978000D03*
%TO.P,J1,13,Pin_13*%
%TO.N,A2*%
X83815000Y-80518000D03*
%TO.P,J1,14,Pin_14*%
%TO.N,A3*%
X83815000Y-77978000D03*
%TO.P,J1,15,Pin_15*%
%TO.N,A4*%
X81275000Y-80518000D03*
%TO.P,J1,16,Pin_16*%
%TO.N,A5*%
X81275000Y-77978000D03*
%TO.P,J1,17,Pin_17*%
%TO.N,A6*%
X78735000Y-80518000D03*
%TO.P,J1,18,Pin_18*%
%TO.N,A7*%
X78735000Y-77978000D03*
%TO.P,J1,19,Pin_19*%
%TO.N,A8*%
X76195000Y-80518000D03*
%TO.P,J1,20,Pin_20*%
%TO.N,A9*%
X76195000Y-77978000D03*
%TO.P,J1,21,Pin_21*%
%TO.N,A10*%
X73655000Y-80518000D03*
%TO.P,J1,22,Pin_22*%
%TO.N,A11*%
X73655000Y-77978000D03*
%TO.P,J1,23,Pin_23*%
%TO.N,A12*%
X71115000Y-80518000D03*
%TO.P,J1,24,Pin_24*%
%TO.N,A13*%
X71115000Y-77978000D03*
%TO.P,J1,25,Pin_25*%
%TO.N,A14*%
X68575000Y-80518000D03*
%TO.P,J1,26,Pin_26*%
%TO.N,RAMS2*%
X68575000Y-77978000D03*
%TO.P,J1,27,Pin_27*%
%TO.N,~{MRQ}*%
X66035000Y-80518000D03*
%TO.P,J1,28,Pin_28*%
%TO.N,~{RD}*%
X66035000Y-77978000D03*
%TO.P,J1,29,Pin_29*%
%TO.N,unconnected-(J1-Pin_29-Pad29)*%
X63495000Y-80518000D03*
%TO.P,J1,30,Pin_30*%
%TO.N,~{WR}*%
X63495000Y-77978000D03*
%TO.P,J1,31,Pin_31*%
%TO.N,~{IORQ}*%
X60955000Y-80518000D03*
%TO.P,J1,32,Pin_32*%
%TO.N,unconnected-(J1-Pin_32-Pad32)*%
X60955000Y-77978000D03*
%TO.P,J1,33,Pin_33*%
%TO.N,unconnected-(J1-Pin_33-Pad33)*%
X58415000Y-80518000D03*
%TO.P,J1,34,Pin_34*%
%TO.N,~{RES}*%
X58415000Y-77978000D03*
%TO.P,J1,35,Pin_35*%
%TO.N,unconnected-(J1-Pin_35-Pad35)*%
X55875000Y-80518000D03*
%TO.P,J1,36,Pin_36*%
%TO.N,unconnected-(J1-Pin_36-Pad36)*%
X55875000Y-77978000D03*
%TO.P,J1,37,Pin_37*%
%TO.N,unconnected-(J1-Pin_37-Pad37)*%
X53335000Y-80518000D03*
%TO.P,J1,38,Pin_38*%
%TO.N,unconnected-(J1-Pin_38-Pad38)*%
X53335000Y-77978000D03*
%TO.P,J1,39,Pin_39*%
%TO.N,unconnected-(J1-Pin_39-Pad39)*%
X50795000Y-80518000D03*
%TO.P,J1,40,Pin_40*%
%TO.N,unconnected-(J1-Pin_40-Pad40)*%
X50795000Y-77978000D03*
%TD*%
D19*
%TO.N,D0*%
X94408900Y-59418500D03*
X91643400Y-82638100D03*
X86737800Y-83704000D03*
X95214300Y-68289200D03*
%TO.N,D1*%
X96849700Y-58538500D03*
X96521800Y-69016500D03*
%TO.N,D2*%
X93367600Y-57343500D03*
X92070900Y-69593300D03*
%TO.N,D3*%
X61289200Y-56217400D03*
X94945400Y-75899300D03*
X61361600Y-70145900D03*
X95412100Y-72323800D03*
X70993400Y-74027300D03*
X74366100Y-56909700D03*
%TO.N,D4*%
X103805500Y-57109100D03*
X101500600Y-75394600D03*
X57563100Y-69520900D03*
X54133100Y-55940000D03*
%TO.N,D5*%
X99475800Y-74699500D03*
X58581800Y-68727200D03*
X57319500Y-55440000D03*
X103850000Y-55956200D03*
%TO.N,D6*%
X60533400Y-71704700D03*
X61184100Y-54714900D03*
X108472500Y-55217900D03*
X109900800Y-69470800D03*
%TO.N,D7*%
X92484200Y-71723300D03*
X92460100Y-73667800D03*
X54114400Y-67992000D03*
X54147800Y-54440000D03*
%TO.N,A0*%
X91983300Y-68593100D03*
X34766200Y-55026000D03*
X38586500Y-68717500D03*
X41013600Y-61230500D03*
X95925200Y-54617400D03*
%TO.N,A1*%
X39024000Y-67678300D03*
X34765500Y-53940000D03*
X46070000Y-65971300D03*
X91802800Y-67592900D03*
X96633700Y-53892300D03*
%TO.N,A2*%
X89826800Y-69547800D03*
X94860000Y-53229500D03*
%TO.N,A3*%
X60293700Y-75785100D03*
X70982700Y-64783700D03*
X92034900Y-54302100D03*
X89728000Y-68073900D03*
%TO.N,A4*%
X41441200Y-66297600D03*
X91309800Y-53565800D03*
X87051600Y-68789300D03*
%TO.N,A5*%
X91259600Y-55087800D03*
X89709700Y-65725600D03*
%TO.N,A6*%
X86845400Y-66395900D03*
X89741900Y-55098400D03*
%TO.N,A7*%
X83379700Y-68591600D03*
%TO.N,A8*%
X103147800Y-51475100D03*
X53560200Y-51210700D03*
X52083800Y-65280900D03*
%TO.N,A9*%
X52796300Y-52388900D03*
X110977000Y-64321000D03*
X50949400Y-66055300D03*
X104175000Y-52200200D03*
%TO.N,A10*%
X53370700Y-66992000D03*
X53923500Y-53408700D03*
%TO.N,A11*%
X105610000Y-52939700D03*
X56930500Y-65743800D03*
X56950300Y-52408500D03*
X76032400Y-71107400D03*
%TO.N,A12*%
X82240100Y-76577100D03*
X90510000Y-63469100D03*
%TO.N,A13*%
X74790900Y-58441900D03*
%TO.N,A14*%
X72820900Y-55464100D03*
%TO.N,RAMS2*%
X73680700Y-61184300D03*
%TO.N,~{MRQ}*%
X72890500Y-58121800D03*
%TO.N,~{RD}*%
X69141500Y-70343900D03*
X107610400Y-53392200D03*
X77903000Y-61450000D03*
X69634700Y-53790100D03*
X110026700Y-62570100D03*
%TO.N,~{WR}*%
X107430600Y-50464400D03*
X79011900Y-60507800D03*
X116624700Y-61511000D03*
X62709200Y-62863500D03*
X59536000Y-49903700D03*
%TO.N,~{IORQ}*%
X78679000Y-64740600D03*
%TO.N,~{RES}*%
X71547400Y-56367600D03*
%TO.N,GND*%
X60325000Y-64549100D03*
X100330000Y-71120000D03*
X60325000Y-51435000D03*
X117475000Y-50800000D03*
X117475000Y-64135000D03*
X99695000Y-56515000D03*
%TO.N,~{CS2}*%
X64018200Y-67997100D03*
X70805300Y-59005300D03*
%TO.N,+5V*%
X66040000Y-50800000D03*
X58420000Y-59690000D03*
X70485000Y-67310000D03*
X58420000Y-46355000D03*
X115570000Y-59690000D03*
X115570000Y-46185000D03*
X83185000Y-63500000D03*
X83820000Y-50165000D03*
%TO.N,~{CS3}*%
X76778000Y-62418700D03*
X106610200Y-53789800D03*
%TO.N,TMS*%
X79317200Y-74716400D03*
X80795500Y-69177500D03*
%TO.N,~{CS1}*%
X82176300Y-62055800D03*
X67511900Y-53984200D03*
%TO.N,~{CS4}*%
X93791500Y-60365800D03*
X110258700Y-67249700D03*
%TO.N,TDO*%
X109368600Y-55975600D03*
%TO.N,TCK*%
X84680400Y-54666900D03*
%TO.N,TDI*%
X77659900Y-59792300D03*
%TO.N,R0*%
X54150000Y-63603400D03*
X56950300Y-51364200D03*
%TO.N,R2*%
X107425600Y-49455000D03*
X67548000Y-62138400D03*
X113948300Y-59937400D03*
X67998000Y-55412000D03*
%TO.N,R1*%
X82555000Y-49392900D03*
X42851500Y-58338600D03*
X34528400Y-50097100D03*
X67272800Y-58464200D03*
%TO.N,R3*%
X67956800Y-67327000D03*
X65076500Y-57130900D03*
%TD*%
D20*
%TO.N,D0*%
X95302700Y-78497800D02*
X95302700Y-77378500D01*
X96147800Y-79342900D02*
X95302700Y-78497800D01*
X95215800Y-68287700D02*
X95215800Y-60225400D01*
X96151900Y-76529300D02*
X96151900Y-71493700D01*
X91643400Y-82638100D02*
X87803700Y-82638100D01*
X96515000Y-79342900D02*
X96147800Y-79342900D01*
X87803700Y-82638100D02*
X86737800Y-83704000D01*
X95215800Y-68287700D02*
X95214300Y-68289200D01*
X96151900Y-71493700D02*
X95215900Y-70557700D01*
X96515000Y-80518000D02*
X96515000Y-79342900D01*
X95215900Y-68287700D02*
X95215800Y-68287700D01*
X95215900Y-70557700D02*
X95215900Y-68287700D01*
X95302700Y-77378500D02*
X96151900Y-76529300D01*
X95215800Y-60225400D02*
X94408900Y-59418500D01*
%TO.N,D1*%
X96515000Y-77978000D02*
X96515000Y-76802900D01*
X96622500Y-69117200D02*
X96521800Y-69016500D01*
X96849700Y-68688600D02*
X96849700Y-58538500D01*
X96521800Y-69016500D02*
X96849700Y-68688600D01*
X96622500Y-76695400D02*
X96622500Y-69117200D01*
X96515000Y-76802900D02*
X96622500Y-76695400D01*
%TO.N,D2*%
X92760400Y-74530600D02*
X93209300Y-74081700D01*
X92760400Y-78495500D02*
X92760400Y-74530600D01*
X92073400Y-69590800D02*
X92070900Y-69593300D01*
X93607800Y-79342900D02*
X92760400Y-78495500D01*
X93209300Y-69733700D02*
X93066400Y-69590800D01*
X93209300Y-74081700D02*
X93209300Y-69733700D01*
X93066400Y-69590800D02*
X92073400Y-69590800D01*
X93975000Y-79342900D02*
X93607800Y-79342900D01*
X93975000Y-80518000D02*
X93975000Y-79342900D01*
X93066400Y-69590800D02*
X93066400Y-57644700D01*
X93066400Y-57644700D02*
X93367600Y-57343500D01*
%TO.N,D3*%
X74065700Y-58977700D02*
X74065700Y-57210100D01*
X94878600Y-75899300D02*
X94945400Y-75899300D01*
X70993400Y-74027300D02*
X70993400Y-73638300D01*
X94945400Y-75899300D02*
X94945400Y-72790500D01*
X61361600Y-56289800D02*
X61289200Y-56217400D01*
X74065700Y-57210100D02*
X74366100Y-56909700D01*
X74857100Y-69774600D02*
X74857100Y-59769100D01*
X61361600Y-70145900D02*
X61361600Y-56289800D01*
X93975000Y-76802900D02*
X94878600Y-75899300D01*
X74857100Y-59769100D02*
X74065700Y-58977700D01*
X70993400Y-73638300D02*
X74857100Y-69774600D01*
X94945400Y-72790500D02*
X95412100Y-72323800D01*
X93975000Y-77978000D02*
X93975000Y-76802900D01*
%TO.N,D4*%
X53423900Y-56649200D02*
X53423900Y-63902900D01*
X93072400Y-82155400D02*
X99588000Y-82155400D01*
X101500600Y-80242800D02*
X101500600Y-75394600D01*
X53423900Y-63902900D02*
X57563100Y-68042100D01*
X91435000Y-80518000D02*
X93072400Y-82155400D01*
X101500600Y-59414000D02*
X103805500Y-57109100D01*
X57563100Y-68042100D02*
X57563100Y-69520900D01*
X54133100Y-55940000D02*
X53423900Y-56649200D01*
X99588000Y-82155400D02*
X101500600Y-80242800D01*
X101500600Y-75394600D02*
X101500600Y-59414000D01*
%TO.N,D5*%
X92610100Y-80818500D02*
X93496800Y-81705200D01*
X99475800Y-74666000D02*
X98952500Y-74142700D01*
X57319500Y-55440000D02*
X57319500Y-60364600D01*
X93496800Y-81705200D02*
X97035000Y-81705200D01*
X57319500Y-60364600D02*
X58581800Y-61626900D01*
X98952500Y-74142700D02*
X98952500Y-56176000D01*
X97690200Y-76451600D02*
X99475800Y-74666000D01*
X92610100Y-79960900D02*
X92610100Y-80818500D01*
X91802300Y-79153100D02*
X92610100Y-79960900D01*
X91435000Y-79153100D02*
X91802300Y-79153100D01*
X91435000Y-77978000D02*
X91435000Y-79153100D01*
X58581800Y-61626900D02*
X58581800Y-68727200D01*
X97035000Y-81705200D02*
X97690200Y-81050000D01*
X97690200Y-81050000D02*
X97690200Y-76451600D01*
X99475800Y-74666000D02*
X99475800Y-74699500D01*
X99355100Y-55773400D02*
X103667200Y-55773400D01*
X103667200Y-55773400D02*
X103850000Y-55956200D01*
X98952500Y-56176000D02*
X99355100Y-55773400D01*
%TO.N,D6*%
X92638500Y-82607700D02*
X99784500Y-82607700D01*
X91943800Y-81913000D02*
X92638500Y-82607700D01*
X61184100Y-54714900D02*
X62055100Y-55585900D01*
X108472500Y-59137200D02*
X108472500Y-55217900D01*
X61984100Y-63163800D02*
X62126200Y-63305900D01*
X111754800Y-62419500D02*
X108472500Y-59137200D01*
X109900800Y-69470800D02*
X111754800Y-67616800D01*
X109900800Y-72491400D02*
X109900800Y-69470800D01*
X90070100Y-80885200D02*
X91097900Y-81913000D01*
X61984100Y-62563200D02*
X61984100Y-63163800D01*
X62055100Y-62492200D02*
X61984100Y-62563200D01*
X99784500Y-82607700D02*
X109900800Y-72491400D01*
X62126200Y-70409700D02*
X60831200Y-71704700D01*
X60831200Y-71704700D02*
X60533400Y-71704700D01*
X88895000Y-80518000D02*
X90070100Y-80518000D01*
X62055100Y-55585900D02*
X62055100Y-62492200D01*
X91097900Y-81913000D02*
X91943800Y-81913000D01*
X62126200Y-63305900D02*
X62126200Y-70409700D01*
X90070100Y-80518000D02*
X90070100Y-80885200D01*
X111754800Y-67616800D02*
X111754800Y-62419500D01*
%TO.N,D7*%
X92460100Y-71747400D02*
X92484200Y-71723300D01*
X92460100Y-73667800D02*
X92460100Y-71747400D01*
X52957700Y-64080400D02*
X54114400Y-65237100D01*
X54114400Y-65237100D02*
X54114400Y-67992000D01*
X88895000Y-77978000D02*
X88895000Y-76802900D01*
X88895000Y-76802900D02*
X92030100Y-73667800D01*
X92030100Y-73667800D02*
X92460100Y-73667800D01*
X54147800Y-54440000D02*
X52957700Y-55630100D01*
X52957700Y-55630100D02*
X52957700Y-64080400D01*
%TO.N,A0*%
X93574700Y-56082900D02*
X92616300Y-57041300D01*
X91327800Y-69248600D02*
X91983300Y-68593100D01*
X86355000Y-79342900D02*
X86720200Y-79342900D01*
X39027700Y-61230500D02*
X38290200Y-61968000D01*
X39027700Y-59287500D02*
X39027700Y-61230500D01*
X38290200Y-68421200D02*
X38586500Y-68717500D01*
X92616300Y-57041300D02*
X92616300Y-67960100D01*
X39027700Y-61230500D02*
X41013600Y-61230500D01*
X95925200Y-54617400D02*
X94459700Y-56082900D01*
X34766200Y-55026000D02*
X39027700Y-59287500D01*
X86355000Y-80518000D02*
X86355000Y-79342900D01*
X91327800Y-72949800D02*
X91327800Y-69248600D01*
X87625000Y-78438100D02*
X87625000Y-76652600D01*
X38290200Y-61968000D02*
X38290200Y-68421200D01*
X92616300Y-67960100D02*
X91983300Y-68593100D01*
X86720200Y-79342900D02*
X87625000Y-78438100D01*
X87625000Y-76652600D02*
X91327800Y-72949800D01*
X94459700Y-56082900D02*
X93574700Y-56082900D01*
%TO.N,A1*%
X42040800Y-64661500D02*
X39024000Y-67678300D01*
X34765500Y-53940000D02*
X42040800Y-61215300D01*
X86355000Y-77978000D02*
X86355000Y-76802900D01*
X90629400Y-68913700D02*
X91802800Y-67740300D01*
X96633700Y-53892300D02*
X95470300Y-53892300D01*
X90629400Y-72528500D02*
X90629400Y-68913700D01*
X91802800Y-67740300D02*
X91802800Y-67592900D01*
X93491100Y-55473600D02*
X92166200Y-56798500D01*
X42040800Y-64661500D02*
X43350600Y-65971300D01*
X43350600Y-65971300D02*
X46070000Y-65971300D01*
X92166200Y-67229500D02*
X91802800Y-67592900D01*
X92166200Y-56798500D02*
X92166200Y-67229500D01*
X95470300Y-53892300D02*
X93889000Y-55473600D01*
X86355000Y-76802900D02*
X90629400Y-72528500D01*
X93889000Y-55473600D02*
X93491100Y-55473600D01*
X42040800Y-61215300D02*
X42040800Y-64661500D01*
%TO.N,A2*%
X83815000Y-80518000D02*
X83815000Y-79342900D01*
X84990100Y-78535100D02*
X84990100Y-76981900D01*
X90618800Y-68287600D02*
X89826800Y-69079600D01*
X91716100Y-66386100D02*
X90618800Y-67483400D01*
X83815000Y-79342900D02*
X84182300Y-79342900D01*
X84990100Y-76981900D02*
X89826800Y-72145200D01*
X94860000Y-53229500D02*
X91716100Y-56373400D01*
X89826800Y-72145200D02*
X89826800Y-69547800D01*
X89826800Y-69079600D02*
X89826800Y-69547800D01*
X84182300Y-79342900D02*
X84990100Y-78535100D01*
X91716100Y-56373400D02*
X91716100Y-66386100D01*
X90618800Y-67483400D02*
X90618800Y-68287600D01*
%TO.N,A3*%
X67117400Y-68961400D02*
X71214100Y-68961400D01*
X91266000Y-66161100D02*
X89728000Y-67699100D01*
X72156500Y-68019000D02*
X72156500Y-65957500D01*
X71214100Y-68961400D02*
X72156500Y-68019000D01*
X83815000Y-77978000D02*
X83815000Y-76802900D01*
X92034900Y-54302100D02*
X92034900Y-55338000D01*
X92034900Y-55338000D02*
X91266000Y-56106900D01*
X89728000Y-67699100D02*
X89728000Y-68073900D01*
X83815000Y-76802900D02*
X89101600Y-71516300D01*
X89101600Y-71516300D02*
X89101600Y-68700300D01*
X72156500Y-65957500D02*
X70982700Y-64783700D01*
X89101600Y-68700300D02*
X89728000Y-68073900D01*
X91266000Y-56106900D02*
X91266000Y-66161100D01*
X60293700Y-75785100D02*
X67117400Y-68961400D01*
%TO.N,A4*%
X88959400Y-65839200D02*
X88959400Y-62236000D01*
X90534400Y-54341200D02*
X91309800Y-53565800D01*
X80110900Y-80804100D02*
X80110900Y-80518000D01*
X87051600Y-68789300D02*
X87051600Y-70103500D01*
X88959400Y-62236000D02*
X90192700Y-61002700D01*
X87051600Y-70103500D02*
X80060700Y-77094400D01*
X77386300Y-83528700D02*
X80110900Y-80804100D01*
X80060700Y-77094400D02*
X80060700Y-80467800D01*
X80060700Y-80467800D02*
X80110900Y-80518000D01*
X41441200Y-66297600D02*
X41561200Y-66417600D01*
X90192700Y-55906500D02*
X90534400Y-55564800D01*
X41561200Y-66417600D02*
X41561300Y-66417600D01*
X41561300Y-66417600D02*
X41561300Y-72976100D01*
X41561300Y-72976100D02*
X52113900Y-83528700D01*
X52113900Y-83528700D02*
X77386300Y-83528700D01*
X87051600Y-67747000D02*
X88959400Y-65839200D01*
X87051600Y-68789300D02*
X87051600Y-67747000D01*
X90192700Y-61002700D02*
X90192700Y-55906500D01*
X81275000Y-80518000D02*
X80110900Y-80518000D01*
X90534400Y-55564800D02*
X90534400Y-54341200D01*
%TO.N,A5*%
X89709700Y-65725600D02*
X87776700Y-67658600D01*
X90697300Y-62041700D02*
X90697300Y-56038500D01*
X81275000Y-76516700D02*
X81275000Y-76802900D01*
X81275000Y-77978000D02*
X81275000Y-76802900D01*
X87776700Y-70015000D02*
X81275000Y-76516700D01*
X87776700Y-67658600D02*
X87776700Y-70015000D01*
X89709700Y-63029300D02*
X90697300Y-62041700D01*
X91259600Y-55476200D02*
X91259600Y-55087800D01*
X89709700Y-65725600D02*
X89709700Y-63029300D01*
X90697300Y-56038500D02*
X91259600Y-55476200D01*
%TO.N,A6*%
X77527600Y-77502500D02*
X79138400Y-75891700D01*
X86845400Y-66395900D02*
X88309600Y-64931700D01*
X83070300Y-67866500D02*
X85374800Y-67866500D01*
X78367800Y-79342900D02*
X77527600Y-78502700D01*
X88309600Y-64931700D02*
X88309600Y-62249100D01*
X78735000Y-79342900D02*
X78367800Y-79342900D01*
X85374800Y-67866500D02*
X86845400Y-66395900D01*
X82265000Y-72838300D02*
X82265000Y-68671800D01*
X79138400Y-75891700D02*
X79211600Y-75891700D01*
X89741900Y-60816800D02*
X89741900Y-55098400D01*
X88309600Y-62249100D02*
X89741900Y-60816800D01*
X79211600Y-75891700D02*
X82265000Y-72838300D01*
X82265000Y-68671800D02*
X83070300Y-67866500D01*
X77527600Y-78502700D02*
X77527600Y-77502500D01*
X78735000Y-80518000D02*
X78735000Y-79342900D01*
%TO.N,A7*%
X83379700Y-73023700D02*
X83379700Y-68591600D01*
X78735000Y-77978000D02*
X78735000Y-77668400D01*
X78735000Y-77668400D02*
X83379700Y-73023700D01*
%TO.N,A8*%
X52809300Y-79153200D02*
X52083800Y-78427700D01*
X73206500Y-82628500D02*
X56270800Y-82628500D01*
X52083800Y-78427700D02*
X52083800Y-65280900D01*
X52083800Y-65280900D02*
X51998300Y-65195400D01*
X75030700Y-80518000D02*
X75020000Y-80507300D01*
X75030700Y-80804300D02*
X73206500Y-82628500D01*
X88566500Y-54576900D02*
X91668300Y-51475100D01*
X51998300Y-54212600D02*
X53560200Y-52650700D01*
X77014100Y-71296900D02*
X81344700Y-66966300D01*
X91668300Y-51475100D02*
X103147800Y-51475100D01*
X53560200Y-52650700D02*
X53560200Y-51210700D01*
X88566500Y-60719000D02*
X88566500Y-54576900D01*
X87409300Y-61876200D02*
X88566500Y-60719000D01*
X81344700Y-66966300D02*
X84613100Y-66966300D01*
X53634300Y-79153200D02*
X52809300Y-79153200D01*
X51998300Y-65195400D02*
X51998300Y-54212600D01*
X77014100Y-74939000D02*
X77014100Y-71296900D01*
X56270800Y-82628500D02*
X54699900Y-81057600D01*
X54699900Y-80218800D02*
X53634300Y-79153200D01*
X87409300Y-64170100D02*
X87409300Y-61876200D01*
X75030700Y-80518000D02*
X75030700Y-80804300D01*
X75019900Y-76933200D02*
X77014100Y-74939000D01*
X75019900Y-80507300D02*
X75019900Y-76933200D01*
X54699900Y-81057600D02*
X54699900Y-80218800D01*
X75020000Y-80507300D02*
X75019900Y-80507300D01*
X76195000Y-80518000D02*
X75030700Y-80518000D01*
X84613100Y-66966300D02*
X87409300Y-64170100D01*
%TO.N,A9*%
X77464200Y-75533700D02*
X77464200Y-71483400D01*
X89016600Y-60905500D02*
X89016600Y-54763400D01*
X89016600Y-54763400D02*
X91579800Y-52200200D01*
X77393600Y-81036700D02*
X75351700Y-83078600D01*
X91579800Y-52200200D02*
X104175000Y-52200200D01*
X87859400Y-64356600D02*
X87859400Y-62062700D01*
X84799600Y-67416400D02*
X87859400Y-64356600D01*
X50371100Y-79248000D02*
X49608800Y-78485700D01*
X106283500Y-56136200D02*
X106283500Y-59864700D01*
X81531200Y-67416400D02*
X84799600Y-67416400D01*
X75351700Y-83078600D02*
X54207300Y-83078600D01*
X87859400Y-62062700D02*
X89016600Y-60905500D01*
X49608800Y-78485700D02*
X49608800Y-67395900D01*
X77464200Y-71483400D02*
X81531200Y-67416400D01*
X54207300Y-83078600D02*
X52159800Y-81031100D01*
X51189100Y-79248000D02*
X50371100Y-79248000D01*
X76195000Y-78133600D02*
X76195000Y-79153100D01*
X50949400Y-66055300D02*
X50949400Y-54235800D01*
X77393600Y-79984500D02*
X77393600Y-81036700D01*
X76195000Y-76802900D02*
X77464200Y-75533700D01*
X106283500Y-59864700D02*
X110739800Y-64321000D01*
X110739800Y-64321000D02*
X110977000Y-64321000D01*
X76195000Y-77978000D02*
X76195000Y-76802900D01*
X50949400Y-54235800D02*
X52796300Y-52388900D01*
X52159800Y-81031100D02*
X52159800Y-80218700D01*
X104175000Y-54027700D02*
X106283500Y-56136200D01*
X52159800Y-80218700D02*
X51189100Y-79248000D01*
X104175000Y-52200200D02*
X104175000Y-54027700D01*
X76195000Y-79153100D02*
X76562200Y-79153100D01*
X76562200Y-79153100D02*
X77393600Y-79984500D01*
X76195000Y-78133600D02*
X76195000Y-77978000D01*
X49608800Y-67395900D02*
X50949400Y-66055300D01*
%TO.N,A10*%
X73655000Y-80518000D02*
X72479900Y-80518000D01*
X58373600Y-82174000D02*
X57233000Y-81033400D01*
X52507500Y-64355600D02*
X53370700Y-65218800D01*
X71191200Y-82174000D02*
X58373600Y-82174000D01*
X55349300Y-79153200D02*
X54605000Y-78408900D01*
X53370700Y-65218800D02*
X53370700Y-66992000D01*
X54605000Y-78408900D02*
X54605000Y-70104500D01*
X57233000Y-80211900D02*
X56174300Y-79153200D01*
X72479900Y-80885300D02*
X71191200Y-82174000D01*
X72479900Y-80518000D02*
X72479900Y-80885300D01*
X56174300Y-79153200D02*
X55349300Y-79153200D01*
X52507500Y-54824700D02*
X52507500Y-64355600D01*
X53923500Y-53408700D02*
X52507500Y-54824700D01*
X53370700Y-68870200D02*
X53370700Y-66992000D01*
X54605000Y-70104500D02*
X53370700Y-68870200D01*
X57233000Y-81033400D02*
X57233000Y-80211900D01*
%TO.N,A11*%
X103771100Y-50738400D02*
X105610000Y-52577300D01*
X88116400Y-54390400D02*
X91768400Y-50738400D01*
X86959200Y-61689700D02*
X88116400Y-60532500D01*
X84426600Y-66516200D02*
X86959200Y-63983600D01*
X56950300Y-52408500D02*
X56571600Y-52787200D01*
X73655000Y-76802900D02*
X76032400Y-74425500D01*
X76032400Y-74425500D02*
X76032400Y-71107400D01*
X86959200Y-63983600D02*
X86959200Y-61689700D01*
X56571600Y-65384900D02*
X56930500Y-65743800D01*
X88116400Y-60532500D02*
X88116400Y-54390400D01*
X91768400Y-50738400D02*
X103771100Y-50738400D01*
X56571600Y-52787200D02*
X56571600Y-65384900D01*
X105610000Y-52577300D02*
X105610000Y-52939700D01*
X73655000Y-77978000D02*
X73655000Y-76802900D01*
X76032400Y-71107400D02*
X80623600Y-66516200D01*
X80623600Y-66516200D02*
X84426600Y-66516200D01*
%TO.N,A12*%
X88226900Y-68433600D02*
X88226900Y-70590300D01*
X90510000Y-63469100D02*
X90510000Y-66150500D01*
X88226900Y-70590300D02*
X82240100Y-76577100D01*
X90510000Y-66150500D02*
X88226900Y-68433600D01*
%TO.N,A13*%
X71115000Y-77978000D02*
X71115000Y-76802900D01*
X75329300Y-58980300D02*
X74790900Y-58441900D01*
X71718500Y-73549800D02*
X75329300Y-69939000D01*
X71718500Y-76199400D02*
X71718500Y-73549800D01*
X71115000Y-76802900D02*
X71718500Y-76199400D01*
X75329300Y-69939000D02*
X75329300Y-58980300D01*
%TO.N,A14*%
X69823300Y-74171800D02*
X74407000Y-69588100D01*
X73615600Y-56258800D02*
X72820900Y-55464100D01*
X73615600Y-59787300D02*
X73615600Y-56258800D01*
X68575000Y-80518000D02*
X68575000Y-79342900D01*
X69823300Y-78461900D02*
X69823300Y-74171800D01*
X68575000Y-79342900D02*
X68942300Y-79342900D01*
X74407000Y-69588100D02*
X74407000Y-60578700D01*
X68942300Y-79342900D02*
X69823300Y-78461900D01*
X74407000Y-60578700D02*
X73615600Y-59787300D01*
%TO.N,RAMS2*%
X73956900Y-69401600D02*
X73956900Y-61460500D01*
X73956900Y-61460500D02*
X73680700Y-61184300D01*
X68575000Y-77978000D02*
X68575000Y-74783500D01*
X68575000Y-74783500D02*
X73956900Y-69401600D01*
%TO.N,~{MRQ}*%
X66402300Y-79342900D02*
X67210100Y-78535100D01*
X66035000Y-79342900D02*
X66402300Y-79342900D01*
X66035000Y-80518000D02*
X66035000Y-79342900D01*
X67210100Y-75193700D02*
X73506800Y-68897000D01*
X73506800Y-63941200D02*
X72890500Y-63324900D01*
X73506800Y-68897000D02*
X73506800Y-63941200D01*
X72890500Y-63324900D02*
X72890500Y-58121800D01*
X67210100Y-78535100D02*
X67210100Y-75193700D01*
%TO.N,~{RD}*%
X84053600Y-65616000D02*
X86059000Y-63610600D01*
X72030900Y-55825500D02*
X72030900Y-54732800D01*
X75882800Y-59429800D02*
X77903000Y-61450000D01*
X72148200Y-56973900D02*
X72320900Y-56801200D01*
X107610400Y-60153800D02*
X110026700Y-62570100D01*
X72320900Y-56801200D02*
X72320900Y-56115500D01*
X66035000Y-77978000D02*
X66035000Y-73450400D01*
X86059000Y-63610600D02*
X86059000Y-61316700D01*
X86059000Y-61316700D02*
X87216200Y-60159500D01*
X73214700Y-54732800D02*
X75882800Y-57400900D01*
X87216200Y-60159500D02*
X87216200Y-54017400D01*
X72148200Y-64007300D02*
X72148200Y-56973900D01*
X104238800Y-49781900D02*
X107610400Y-53153500D01*
X69141500Y-70343900D02*
X71145400Y-70343900D01*
X77903000Y-61450000D02*
X82069000Y-65616000D01*
X72030900Y-54732800D02*
X71088200Y-53790100D01*
X71145400Y-70343900D02*
X73056700Y-68432600D01*
X82069000Y-65616000D02*
X84053600Y-65616000D01*
X73056700Y-68432600D02*
X73056700Y-64915800D01*
X75882800Y-57400900D02*
X75882800Y-59429800D01*
X72030900Y-54732800D02*
X73214700Y-54732800D01*
X87216200Y-54017400D02*
X91451700Y-49781900D01*
X91451700Y-49781900D02*
X104238800Y-49781900D01*
X107610400Y-53153500D02*
X107610400Y-53392200D01*
X73056700Y-64915800D02*
X72148200Y-64007300D01*
X66035000Y-73450400D02*
X69141500Y-70343900D01*
X72320900Y-56115500D02*
X72030900Y-55825500D01*
X107610400Y-53392200D02*
X107610400Y-60153800D01*
X71088200Y-53790100D02*
X69634700Y-53790100D01*
%TO.N,~{WR}*%
X85158800Y-63198800D02*
X85158800Y-56097700D01*
X63293100Y-67645800D02*
X63293100Y-70177300D01*
X57238000Y-78501900D02*
X57889300Y-79153200D01*
X71240400Y-66999600D02*
X71240400Y-67640400D01*
X61511900Y-79153200D02*
X62319900Y-78345200D01*
X64970800Y-65125100D02*
X62709200Y-62863500D01*
X106274100Y-50464400D02*
X107430600Y-50464400D01*
X91109600Y-48850800D02*
X104660500Y-48850800D01*
X59819500Y-49903700D02*
X62709200Y-52793400D01*
X79011900Y-60507800D02*
X79011900Y-59893400D01*
X79325100Y-60821000D02*
X79325100Y-61340200D01*
X64970800Y-65968100D02*
X64970800Y-65125100D01*
X57889300Y-79153200D02*
X61511900Y-79153200D01*
X85158800Y-56097700D02*
X86316000Y-54940500D01*
X68909600Y-64668800D02*
X71240400Y-66999600D01*
X63293100Y-70177300D02*
X57238000Y-76232400D01*
X82700700Y-64715800D02*
X83641800Y-64715800D01*
X114496500Y-61511000D02*
X116624700Y-61511000D01*
X62319900Y-78345200D02*
X62319900Y-77978000D01*
X113223200Y-60237700D02*
X114496500Y-61511000D01*
X107430600Y-50464400D02*
X113223200Y-56257000D01*
X67063900Y-68061200D02*
X64970800Y-65968100D01*
X86316000Y-54940500D02*
X86316000Y-53644400D01*
X79011900Y-60507800D02*
X79325100Y-60821000D01*
X64970800Y-65968100D02*
X63293100Y-67645800D01*
X86316000Y-53644400D02*
X91109600Y-48850800D01*
X57238000Y-76232400D02*
X57238000Y-78501900D01*
X79011900Y-59893400D02*
X72172600Y-53054100D01*
X59536000Y-49903700D02*
X59819500Y-49903700D01*
X104660500Y-48850800D02*
X106274100Y-50464400D01*
X63495000Y-77978000D02*
X62319900Y-77978000D01*
X83641800Y-64715800D02*
X85158800Y-63198800D01*
X71240400Y-67640400D02*
X70819600Y-68061200D01*
X72172600Y-53054100D02*
X69335600Y-53054100D01*
X68909600Y-53480100D02*
X68909600Y-64668800D01*
X62709200Y-52793400D02*
X62709200Y-62863500D01*
X70819600Y-68061200D02*
X67063900Y-68061200D01*
X79325100Y-61340200D02*
X82700700Y-64715800D01*
X69335600Y-53054100D02*
X68909600Y-53480100D01*
X113223200Y-56257000D02*
X113223200Y-60237700D01*
%TO.N,~{IORQ}*%
X69878400Y-80883300D02*
X69878400Y-80070500D01*
X69037900Y-81723800D02*
X69878400Y-80883300D01*
X62130100Y-80885200D02*
X62968700Y-81723800D01*
X72290200Y-78467700D02*
X72290200Y-73790900D01*
X78679000Y-67402100D02*
X78679000Y-64740600D01*
X71604700Y-79153200D02*
X72290200Y-78467700D01*
X69878400Y-80070500D02*
X70795700Y-79153200D01*
X62968700Y-81723800D02*
X69037900Y-81723800D01*
X70795700Y-79153200D02*
X71604700Y-79153200D01*
X62130100Y-80518000D02*
X62130100Y-80885200D01*
X72290200Y-73790900D02*
X78679000Y-67402100D01*
X60955000Y-80518000D02*
X62130100Y-80518000D01*
%TO.N,~{RES}*%
X71547400Y-64281200D02*
X71547400Y-56367600D01*
X59590100Y-77646300D02*
X67824900Y-69411500D01*
X58415000Y-77978000D02*
X59590100Y-77978000D01*
X59590100Y-77978000D02*
X59590100Y-77646300D01*
X72606600Y-65340400D02*
X71547400Y-64281200D01*
X71400600Y-69411500D02*
X72606600Y-68205500D01*
X67824900Y-69411500D02*
X71400600Y-69411500D01*
X72606600Y-68205500D02*
X72606600Y-65340400D01*
%TO.N,GND*%
X100330000Y-71120000D02*
X100330000Y-57150000D01*
X100330000Y-79243000D02*
X99055000Y-80518000D01*
X100330000Y-57150000D02*
X99695000Y-56515000D01*
X100330000Y-71120000D02*
X100330000Y-79243000D01*
D21*
X117475000Y-64135000D02*
X117475000Y-50800000D01*
X60325000Y-51435000D02*
X60325000Y-64549100D01*
D20*
%TO.N,~{CS2}*%
X70221000Y-65061800D02*
X70221000Y-59589600D01*
X70221000Y-59589600D02*
X70805300Y-59005300D01*
X64018200Y-67997100D02*
X64532400Y-68511300D01*
X71027600Y-68511300D02*
X71706400Y-67832500D01*
X71706400Y-67832500D02*
X71706400Y-66547200D01*
X64532400Y-68511300D02*
X71027600Y-68511300D01*
X71706400Y-66547200D02*
X70221000Y-65061800D01*
D22*
%TO.N,+5V*%
X128270000Y-53340000D02*
X125476000Y-53340000D01*
X32385000Y-88900000D02*
X128270000Y-88900000D01*
D21*
X66040000Y-62865000D02*
X66040000Y-50800000D01*
D22*
X24000000Y-82045000D02*
X31115000Y-74930000D01*
X20510000Y-48705000D02*
X20510000Y-80260000D01*
X128905000Y-53975000D02*
X128905000Y-46355000D01*
X128905000Y-53975000D02*
X128270000Y-53340000D01*
X31115000Y-74930000D02*
X31115000Y-87630000D01*
D21*
X66040000Y-50800000D02*
X66040000Y-44984200D01*
X58420000Y-59690000D02*
X58420000Y-46355000D01*
D22*
X128905000Y-46355000D02*
X127534000Y-44984200D01*
D21*
X115570000Y-46185000D02*
X115570000Y-59690000D01*
D22*
X127534000Y-44984200D02*
X114300000Y-44984200D01*
X59690000Y-44984200D02*
X24230800Y-44984200D01*
D21*
X83185000Y-63500000D02*
X83820000Y-62865000D01*
X58420000Y-46254200D02*
X59690000Y-44984200D01*
D22*
X66040000Y-44984200D02*
X59690000Y-44984200D01*
D21*
X58420000Y-46355000D02*
X58420000Y-46254200D01*
D22*
X20510000Y-80260000D02*
X24000000Y-83750000D01*
D21*
X70485000Y-67310000D02*
X66040000Y-62865000D01*
D22*
X128905000Y-88265000D02*
X128905000Y-53975000D01*
X128270000Y-88900000D02*
X128905000Y-88265000D01*
X24230800Y-44984200D02*
X20510000Y-48705000D01*
D21*
X115501000Y-46185000D02*
X114300000Y-44984200D01*
X83820000Y-45619200D02*
X83185000Y-44984200D01*
D22*
X114300000Y-44984200D02*
X83185000Y-44984200D01*
D21*
X83820000Y-62865000D02*
X83820000Y-50165000D01*
X83820000Y-50165000D02*
X83820000Y-45619200D01*
X115570000Y-46185000D02*
X115501000Y-46185000D01*
D22*
X83185000Y-44984200D02*
X66040000Y-44984200D01*
X24000000Y-83750000D02*
X24000000Y-82045000D01*
X31115000Y-87630000D02*
X32385000Y-88900000D01*
D20*
%TO.N,~{CS3}*%
X104020300Y-50255300D02*
X106610200Y-52845200D01*
X87666300Y-60346000D02*
X87666300Y-54203900D01*
X106610200Y-52845200D02*
X106610200Y-53789800D01*
X87666300Y-54203900D02*
X91614900Y-50255300D01*
X78065000Y-62418700D02*
X81712400Y-66066100D01*
X86509100Y-61503200D02*
X87666300Y-60346000D01*
X84240100Y-66066100D02*
X86509100Y-63797100D01*
X76778000Y-62418700D02*
X78065000Y-62418700D01*
X91614900Y-50255300D02*
X104020300Y-50255300D01*
X86509100Y-63797100D02*
X86509100Y-61503200D01*
X81712400Y-66066100D02*
X84240100Y-66066100D01*
%TO.N,TMS*%
X80795500Y-69177500D02*
X79317200Y-70655800D01*
X79317200Y-70655800D02*
X79317200Y-74716400D01*
%TO.N,~{CS1}*%
X67511900Y-53584300D02*
X67511900Y-53984200D01*
X72490300Y-52098600D02*
X68997600Y-52098600D01*
X82176300Y-62055800D02*
X82176300Y-61784600D01*
X82176300Y-61784600D02*
X72490300Y-52098600D01*
X68997600Y-52098600D02*
X67511900Y-53584300D01*
%TO.N,~{CS4}*%
X104575200Y-55598900D02*
X104575200Y-61566200D01*
X93614400Y-60188700D02*
X93614400Y-59172400D01*
X97593800Y-55193000D02*
X104169300Y-55193000D01*
X104169300Y-55193000D02*
X104575200Y-55598900D01*
X93614400Y-59172400D02*
X97593800Y-55193000D01*
X104575200Y-61566200D02*
X110258700Y-67249700D01*
X93791500Y-60365800D02*
X93614400Y-60188700D01*
%TO.N,TDO*%
X124111200Y-61489500D02*
X120176000Y-65424700D01*
X124111200Y-54515200D02*
X124111200Y-61489500D01*
X122936000Y-53340000D02*
X124111200Y-54515200D01*
X117012400Y-65424700D02*
X109368600Y-57780900D01*
X109368600Y-57780900D02*
X109368600Y-55975600D01*
X120176000Y-65424700D02*
X117012400Y-65424700D01*
%TO.N,TCK*%
X116749800Y-50450000D02*
X116749800Y-59614000D01*
X115935700Y-60428100D02*
X115245200Y-60428100D01*
X117137500Y-50062300D02*
X116749800Y-50450000D01*
X122198300Y-50062300D02*
X117137500Y-50062300D01*
X116749800Y-59614000D02*
X115935700Y-60428100D01*
X114759100Y-55702600D02*
X106929000Y-47872500D01*
X106929000Y-47872500D02*
X90716200Y-47872500D01*
X84680400Y-53908300D02*
X84680400Y-54666900D01*
X115245200Y-60428100D02*
X114759100Y-59942000D01*
X114759100Y-59942000D02*
X114759100Y-55702600D01*
X90716200Y-47872500D02*
X84680400Y-53908300D01*
X122936000Y-50800000D02*
X122198300Y-50062300D01*
%TO.N,TDI*%
X78774500Y-61516200D02*
X82424200Y-65165900D01*
X107376500Y-52203400D02*
X107499600Y-52203400D01*
X110543800Y-55247600D02*
X110543800Y-58263000D01*
X110543800Y-58263000D02*
X117197400Y-64916600D01*
X85608900Y-63385400D02*
X85608900Y-61130200D01*
X117197400Y-64916600D02*
X118979400Y-64916600D01*
X83828400Y-65165900D02*
X85608900Y-63385400D01*
X77659900Y-60181200D02*
X78774500Y-61295800D01*
X86766100Y-59973000D02*
X86766100Y-53830900D01*
X82424200Y-65165900D02*
X83828400Y-65165900D01*
X118979400Y-64916600D02*
X122936000Y-60960000D01*
X85608900Y-61130200D02*
X86766100Y-59973000D01*
X77659900Y-59792300D02*
X77659900Y-60181200D01*
X86766100Y-53830900D02*
X91290200Y-49306800D01*
X91290200Y-49306800D02*
X104479900Y-49306800D01*
X107499600Y-52203400D02*
X110543800Y-55247600D01*
X78774500Y-61295800D02*
X78774500Y-61516200D01*
X104479900Y-49306800D02*
X107376500Y-52203400D01*
D22*
%TO.N,VCC*%
X23495000Y-74930000D02*
X23495000Y-67535000D01*
X23500000Y-67530000D02*
X24702100Y-67530000D01*
X25658000Y-66574100D02*
X25658000Y-54100000D01*
X23495000Y-67535000D02*
X23500000Y-67530000D01*
X24702100Y-67530000D02*
X25658000Y-66574100D01*
D20*
%TO.N,R0*%
X55754600Y-61998800D02*
X55754600Y-52559900D01*
X54150000Y-63603400D02*
X55754600Y-61998800D01*
X55754600Y-52559900D02*
X56950300Y-51364200D01*
%TO.N,R2*%
X80632700Y-61987700D02*
X82880900Y-64235900D01*
X113948300Y-55866800D02*
X107536500Y-49455000D01*
X84483600Y-55949900D02*
X85865900Y-54567600D01*
X85865900Y-53403400D02*
X90924200Y-48345100D01*
X72322200Y-52567100D02*
X80632700Y-60877600D01*
X67998000Y-55412000D02*
X68273000Y-55137000D01*
X82880900Y-64235900D02*
X83485100Y-64235900D01*
X67998000Y-61688400D02*
X67548000Y-62138400D01*
X84483600Y-63237400D02*
X84483600Y-55949900D01*
X80632700Y-60877600D02*
X80632700Y-61987700D01*
X90924200Y-48345100D02*
X106315700Y-48345100D01*
X113948300Y-59937400D02*
X113948300Y-55866800D01*
X67998000Y-55412000D02*
X67998000Y-61688400D01*
X106315700Y-48345100D02*
X107425600Y-49455000D01*
X83485100Y-64235900D02*
X84483600Y-63237400D01*
X107536500Y-49455000D02*
X107425600Y-49455000D01*
X69176300Y-52567100D02*
X72322200Y-52567100D01*
X68273000Y-53470400D02*
X69176300Y-52567100D01*
X68273000Y-55137000D02*
X68273000Y-53470400D01*
X85865900Y-54567600D02*
X85865900Y-53403400D01*
%TO.N,R1*%
X67272800Y-58464200D02*
X66778200Y-57969600D01*
X66778200Y-57969600D02*
X66778200Y-53681400D01*
X66778200Y-53681400D02*
X71066700Y-49392900D01*
X71066700Y-49392900D02*
X82555000Y-49392900D01*
X34528400Y-50097100D02*
X42769900Y-58338600D01*
X42769900Y-58338600D02*
X42851500Y-58338600D01*
%TO.N,R3*%
X65076500Y-57130900D02*
X65076500Y-64446700D01*
X65076500Y-64446700D02*
X67956800Y-67327000D01*
%TD*%
%TA.AperFunction,Conductor*%
%TO.N,VCC*%
G36*
X57481712Y-46012385D02*
G01*
X57527467Y-46065189D01*
X57537411Y-46134347D01*
X57536290Y-46140891D01*
X57511500Y-46265517D01*
X57511500Y-46444483D01*
X57546411Y-46619992D01*
X57546413Y-46620000D01*
X57614898Y-46785336D01*
X57640602Y-46823805D01*
X57661480Y-46890482D01*
X57661500Y-46892696D01*
X57661500Y-50514777D01*
X57641815Y-50581816D01*
X57589011Y-50627571D01*
X57519853Y-50637515D01*
X57468609Y-50617879D01*
X57380642Y-50559101D01*
X57380632Y-50559096D01*
X57215300Y-50490613D01*
X57215292Y-50490611D01*
X57039783Y-50455700D01*
X57039779Y-50455700D01*
X56860821Y-50455700D01*
X56860816Y-50455700D01*
X56685307Y-50490611D01*
X56685299Y-50490613D01*
X56519967Y-50559096D01*
X56519957Y-50559101D01*
X56371165Y-50658521D01*
X56371161Y-50658524D01*
X56244624Y-50785061D01*
X56244621Y-50785065D01*
X56145201Y-50933857D01*
X56145196Y-50933867D01*
X56076713Y-51099199D01*
X56076711Y-51099207D01*
X56041800Y-51274716D01*
X56041800Y-51325434D01*
X56022115Y-51392473D01*
X56005481Y-51413115D01*
X55350767Y-52067829D01*
X55326483Y-52092113D01*
X55262527Y-52156068D01*
X55193203Y-52259818D01*
X55193198Y-52259827D01*
X55145445Y-52375114D01*
X55145443Y-52375122D01*
X55121100Y-52497501D01*
X55121100Y-53852615D01*
X55112961Y-53880332D01*
X55107672Y-53908738D01*
X55103237Y-53913448D01*
X55101415Y-53919654D01*
X55079583Y-53938570D01*
X55059777Y-53959608D01*
X55053499Y-53961172D01*
X55048611Y-53965409D01*
X55020012Y-53969521D01*
X54991982Y-53976509D01*
X54985856Y-53974432D01*
X54979453Y-53975353D01*
X54953173Y-53963351D01*
X54925812Y-53954075D01*
X54920135Y-53948263D01*
X54915897Y-53946328D01*
X54900116Y-53929881D01*
X54896872Y-53925810D01*
X54853478Y-53860865D01*
X54812429Y-53819816D01*
X54808068Y-53814342D01*
X54797411Y-53788204D01*
X54783886Y-53763434D01*
X54784397Y-53756282D01*
X54781690Y-53749642D01*
X54786856Y-53721894D01*
X54788870Y-53693742D01*
X54790492Y-53689620D01*
X54791329Y-53687600D01*
X54797087Y-53673700D01*
X54832000Y-53498179D01*
X54832000Y-53319221D01*
X54797087Y-53143700D01*
X54728602Y-52978364D01*
X54728600Y-52978361D01*
X54728598Y-52978357D01*
X54629178Y-52829565D01*
X54629175Y-52829561D01*
X54502638Y-52703024D01*
X54502634Y-52703021D01*
X54353842Y-52603601D01*
X54353837Y-52603599D01*
X54353836Y-52603598D01*
X54270246Y-52568973D01*
X54215843Y-52525131D01*
X54193779Y-52458837D01*
X54193700Y-52454412D01*
X54193700Y-51913375D01*
X54213385Y-51846336D01*
X54230020Y-51825693D01*
X54265875Y-51789838D01*
X54265878Y-51789835D01*
X54365302Y-51641036D01*
X54433787Y-51475700D01*
X54468700Y-51300179D01*
X54468700Y-51121221D01*
X54433787Y-50945700D01*
X54365302Y-50780364D01*
X54365300Y-50780361D01*
X54365297Y-50780355D01*
X54265878Y-50631565D01*
X54265875Y-50631561D01*
X54139338Y-50505024D01*
X54139334Y-50505021D01*
X53990542Y-50405601D01*
X53990532Y-50405596D01*
X53825200Y-50337113D01*
X53825192Y-50337111D01*
X53649683Y-50302200D01*
X53649679Y-50302200D01*
X53470721Y-50302200D01*
X53470716Y-50302200D01*
X53295207Y-50337111D01*
X53295199Y-50337113D01*
X53129867Y-50405596D01*
X53129857Y-50405601D01*
X52981065Y-50505021D01*
X52981061Y-50505024D01*
X52854524Y-50631561D01*
X52854521Y-50631565D01*
X52755103Y-50780355D01*
X52755096Y-50780367D01*
X52686613Y-50945699D01*
X52686611Y-50945707D01*
X52651700Y-51121216D01*
X52651700Y-51121220D01*
X52651700Y-51121221D01*
X52651700Y-51300179D01*
X52656935Y-51326502D01*
X52664090Y-51362471D01*
X52657861Y-51432063D01*
X52614997Y-51487240D01*
X52566664Y-51508278D01*
X52531305Y-51515311D01*
X52531299Y-51515313D01*
X52365967Y-51583796D01*
X52365957Y-51583801D01*
X52217165Y-51683221D01*
X52217161Y-51683224D01*
X52090624Y-51809761D01*
X52090621Y-51809765D01*
X51991201Y-51958557D01*
X51991196Y-51958567D01*
X51922713Y-52123899D01*
X51922711Y-52123907D01*
X51887800Y-52299416D01*
X51887800Y-52350134D01*
X51868115Y-52417173D01*
X51851481Y-52437815D01*
X50545567Y-53743729D01*
X50523126Y-53766170D01*
X50457327Y-53831968D01*
X50388003Y-53935718D01*
X50387998Y-53935727D01*
X50340245Y-54051014D01*
X50340243Y-54051022D01*
X50315900Y-54173401D01*
X50315900Y-65352624D01*
X50296215Y-65419663D01*
X50279581Y-65440305D01*
X50243724Y-65476161D01*
X50243721Y-65476165D01*
X50144301Y-65624957D01*
X50144296Y-65624967D01*
X50075813Y-65790299D01*
X50075811Y-65790307D01*
X50040900Y-65965816D01*
X50040900Y-66016533D01*
X50021215Y-66083572D01*
X50004580Y-66104214D01*
X49204967Y-66903829D01*
X49182800Y-66925996D01*
X49116727Y-66992068D01*
X49047403Y-67095818D01*
X49047398Y-67095827D01*
X48999645Y-67211114D01*
X48999643Y-67211122D01*
X48975300Y-67333501D01*
X48975300Y-78548098D01*
X48999643Y-78670477D01*
X48999645Y-78670485D01*
X49047398Y-78785772D01*
X49047403Y-78785781D01*
X49116728Y-78889532D01*
X49116731Y-78889536D01*
X49726576Y-79499380D01*
X49760061Y-79560703D01*
X49755077Y-79630394D01*
X49739213Y-79659946D01*
X49633106Y-79805989D01*
X49593795Y-79883141D01*
X49545821Y-79933936D01*
X49478000Y-79950731D01*
X49411865Y-79928193D01*
X49395630Y-79914526D01*
X42231119Y-72750015D01*
X42197634Y-72688692D01*
X42194800Y-72662334D01*
X42194800Y-66842629D01*
X42214485Y-66775590D01*
X42215665Y-66773786D01*
X42246302Y-66727936D01*
X42314787Y-66562600D01*
X42349700Y-66387079D01*
X42349700Y-66208121D01*
X42344573Y-66182346D01*
X42350799Y-66112758D01*
X42393661Y-66057580D01*
X42459550Y-66034334D01*
X42527548Y-66050400D01*
X42553871Y-66070475D01*
X42858529Y-66375133D01*
X42905562Y-66422166D01*
X42946768Y-66463372D01*
X43050518Y-66532696D01*
X43050524Y-66532699D01*
X43050525Y-66532700D01*
X43165815Y-66580455D01*
X43288201Y-66604799D01*
X43288205Y-66604800D01*
X43288206Y-66604800D01*
X45367325Y-66604800D01*
X45434364Y-66624485D01*
X45455007Y-66641120D01*
X45490861Y-66676975D01*
X45490865Y-66676978D01*
X45639657Y-66776398D01*
X45639661Y-66776400D01*
X45639664Y-66776402D01*
X45805000Y-66844887D01*
X45965112Y-66876735D01*
X45980516Y-66879799D01*
X45980520Y-66879800D01*
X45980521Y-66879800D01*
X46159480Y-66879800D01*
X46159481Y-66879799D01*
X46335000Y-66844887D01*
X46500336Y-66776402D01*
X46649135Y-66676978D01*
X46775678Y-66550435D01*
X46875102Y-66401636D01*
X46943587Y-66236300D01*
X46978500Y-66060779D01*
X46978500Y-65881821D01*
X46943587Y-65706300D01*
X46875102Y-65540964D01*
X46875100Y-65540961D01*
X46875098Y-65540957D01*
X46775678Y-65392165D01*
X46775675Y-65392161D01*
X46649138Y-65265624D01*
X46649134Y-65265621D01*
X46500342Y-65166201D01*
X46500332Y-65166196D01*
X46335000Y-65097713D01*
X46334992Y-65097711D01*
X46159483Y-65062800D01*
X46159479Y-65062800D01*
X45980521Y-65062800D01*
X45980516Y-65062800D01*
X45805007Y-65097711D01*
X45804999Y-65097713D01*
X45639667Y-65166196D01*
X45639657Y-65166201D01*
X45490865Y-65265621D01*
X45490861Y-65265624D01*
X45455007Y-65301480D01*
X45393685Y-65334966D01*
X45367325Y-65337800D01*
X43664366Y-65337800D01*
X43597327Y-65318115D01*
X43576685Y-65301481D01*
X42710619Y-64435415D01*
X42677134Y-64374092D01*
X42674300Y-64347734D01*
X42674300Y-61152905D01*
X42674299Y-61152901D01*
X42657334Y-61067613D01*
X42649955Y-61030515D01*
X42602200Y-60915225D01*
X42602199Y-60915224D01*
X42602196Y-60915218D01*
X42532872Y-60811468D01*
X42493927Y-60772523D01*
X42444633Y-60723229D01*
X35710319Y-53988915D01*
X35676834Y-53927592D01*
X35674000Y-53901234D01*
X35674000Y-53850520D01*
X35673999Y-53850516D01*
X35666594Y-53813287D01*
X35639087Y-53675000D01*
X35570602Y-53509664D01*
X35570600Y-53509661D01*
X35570598Y-53509657D01*
X35471178Y-53360865D01*
X35471175Y-53360861D01*
X35344638Y-53234324D01*
X35344634Y-53234321D01*
X35195842Y-53134901D01*
X35195832Y-53134896D01*
X35030500Y-53066413D01*
X35030492Y-53066411D01*
X34854983Y-53031500D01*
X34854979Y-53031500D01*
X34676021Y-53031500D01*
X34676016Y-53031500D01*
X34500507Y-53066411D01*
X34500499Y-53066413D01*
X34335167Y-53134896D01*
X34335157Y-53134901D01*
X34186365Y-53234321D01*
X34186361Y-53234324D01*
X34059824Y-53360861D01*
X34059821Y-53360865D01*
X33960401Y-53509657D01*
X33960396Y-53509667D01*
X33891913Y-53674999D01*
X33891911Y-53675007D01*
X33857000Y-53850516D01*
X33857000Y-54029483D01*
X33891911Y-54204992D01*
X33891913Y-54205000D01*
X33960396Y-54370332D01*
X33960401Y-54370342D01*
X33989995Y-54414632D01*
X34010873Y-54481310D01*
X33992388Y-54548690D01*
X33989997Y-54552411D01*
X33961097Y-54595664D01*
X33892613Y-54760999D01*
X33892611Y-54761007D01*
X33857700Y-54936516D01*
X33857700Y-55115483D01*
X33892611Y-55290992D01*
X33892613Y-55291000D01*
X33961096Y-55456332D01*
X33961101Y-55456342D01*
X34060521Y-55605134D01*
X34060524Y-55605138D01*
X34187061Y-55731675D01*
X34187065Y-55731678D01*
X34335857Y-55831098D01*
X34335861Y-55831100D01*
X34335864Y-55831102D01*
X34501200Y-55899587D01*
X34676716Y-55934499D01*
X34676720Y-55934500D01*
X34676721Y-55934500D01*
X34727434Y-55934500D01*
X34794473Y-55954185D01*
X34815115Y-55970819D01*
X38357881Y-59513585D01*
X38391366Y-59574908D01*
X38394200Y-59601266D01*
X38394200Y-60916733D01*
X38374515Y-60983772D01*
X38357881Y-61004414D01*
X38113695Y-61248601D01*
X37886367Y-61475929D01*
X37858490Y-61503806D01*
X37798127Y-61564168D01*
X37728803Y-61667918D01*
X37728798Y-61667927D01*
X37681045Y-61783214D01*
X37681043Y-61783222D01*
X37656700Y-61905601D01*
X37656700Y-61905606D01*
X37656700Y-68358806D01*
X37656700Y-68483594D01*
X37664797Y-68524299D01*
X37676902Y-68585159D01*
X37676928Y-68621792D01*
X37678597Y-68621957D01*
X37678000Y-68628019D01*
X37678000Y-68806983D01*
X37712911Y-68982492D01*
X37712913Y-68982500D01*
X37781396Y-69147832D01*
X37781401Y-69147842D01*
X37880821Y-69296634D01*
X37880824Y-69296638D01*
X38007361Y-69423175D01*
X38007365Y-69423178D01*
X38156157Y-69522598D01*
X38156161Y-69522600D01*
X38156164Y-69522602D01*
X38321500Y-69591087D01*
X38497016Y-69625999D01*
X38497020Y-69626000D01*
X38497021Y-69626000D01*
X38675980Y-69626000D01*
X38675981Y-69625999D01*
X38851500Y-69591087D01*
X39016836Y-69522602D01*
X39165635Y-69423178D01*
X39292178Y-69296635D01*
X39391602Y-69147836D01*
X39460087Y-68982500D01*
X39495000Y-68806979D01*
X39495000Y-68628021D01*
X39481001Y-68557645D01*
X39487227Y-68488056D01*
X39530090Y-68432878D01*
X39533701Y-68430371D01*
X39603135Y-68383978D01*
X39729678Y-68257435D01*
X39829102Y-68108636D01*
X39897587Y-67943300D01*
X39932500Y-67767779D01*
X39932500Y-67717065D01*
X39952185Y-67650026D01*
X39968815Y-67629388D01*
X40640815Y-66957387D01*
X40646122Y-66954490D01*
X40649511Y-66949479D01*
X40676433Y-66937938D01*
X40702136Y-66923904D01*
X40708168Y-66924335D01*
X40713729Y-66921952D01*
X40742615Y-66926798D01*
X40771827Y-66928888D01*
X40778197Y-66932769D01*
X40782636Y-66933514D01*
X40801740Y-66947113D01*
X40811871Y-66953286D01*
X40814076Y-66955289D01*
X40862065Y-67003278D01*
X40880359Y-67015501D01*
X40887177Y-67021695D01*
X40900763Y-67043967D01*
X40917494Y-67063985D01*
X40919836Y-67075233D01*
X40923563Y-67081343D01*
X40923314Y-67091937D01*
X40927800Y-67113479D01*
X40927800Y-73038498D01*
X40952143Y-73160877D01*
X40952145Y-73160885D01*
X40999898Y-73276172D01*
X40999903Y-73276181D01*
X41069228Y-73379932D01*
X41069231Y-73379936D01*
X51621829Y-83932533D01*
X51710064Y-84020768D01*
X51710068Y-84020772D01*
X51813818Y-84090096D01*
X51813824Y-84090099D01*
X51813825Y-84090100D01*
X51929115Y-84137855D01*
X52051501Y-84162199D01*
X52051505Y-84162200D01*
X52051506Y-84162200D01*
X77448695Y-84162200D01*
X77448696Y-84162199D01*
X77571085Y-84137855D01*
X77686375Y-84090100D01*
X77790133Y-84020771D01*
X80237906Y-81572997D01*
X80299227Y-81539514D01*
X80368919Y-81544498D01*
X80398463Y-81560357D01*
X80562991Y-81679894D01*
X80621477Y-81709694D01*
X80753516Y-81776972D01*
X80753519Y-81776973D01*
X80816844Y-81797548D01*
X80956884Y-81843049D01*
X81168084Y-81876500D01*
X81168085Y-81876500D01*
X81381915Y-81876500D01*
X81381916Y-81876500D01*
X81593116Y-81843049D01*
X81796483Y-81776972D01*
X81987009Y-81679894D01*
X82160004Y-81554206D01*
X82311206Y-81403004D01*
X82436894Y-81230009D01*
X82436896Y-81230004D01*
X82439270Y-81226132D01*
X82491080Y-81179254D01*
X82560009Y-81167829D01*
X82624173Y-81195483D01*
X82650730Y-81226132D01*
X82653103Y-81230005D01*
X82653106Y-81230009D01*
X82778794Y-81403004D01*
X82929996Y-81554206D01*
X83102991Y-81679894D01*
X83161477Y-81709694D01*
X83293516Y-81776972D01*
X83293519Y-81776973D01*
X83356844Y-81797548D01*
X83496884Y-81843049D01*
X83708084Y-81876500D01*
X83708085Y-81876500D01*
X83921915Y-81876500D01*
X83921916Y-81876500D01*
X84133116Y-81843049D01*
X84336483Y-81776972D01*
X84527009Y-81679894D01*
X84700004Y-81554206D01*
X84851206Y-81403004D01*
X84976894Y-81230009D01*
X84976896Y-81230004D01*
X84979270Y-81226132D01*
X85031080Y-81179254D01*
X85100009Y-81167829D01*
X85164173Y-81195483D01*
X85190730Y-81226132D01*
X85193103Y-81230005D01*
X85193106Y-81230009D01*
X85318794Y-81403004D01*
X85469996Y-81554206D01*
X85642991Y-81679894D01*
X85701477Y-81709694D01*
X85833516Y-81776972D01*
X85833519Y-81776973D01*
X85896844Y-81797548D01*
X86036884Y-81843049D01*
X86248084Y-81876500D01*
X86248085Y-81876500D01*
X86461915Y-81876500D01*
X86461916Y-81876500D01*
X86673116Y-81843049D01*
X86876483Y-81776972D01*
X87067009Y-81679894D01*
X87240004Y-81554206D01*
X87391206Y-81403004D01*
X87516894Y-81230009D01*
X87516896Y-81230004D01*
X87519270Y-81226132D01*
X87571080Y-81179254D01*
X87640009Y-81167829D01*
X87704173Y-81195483D01*
X87730730Y-81226132D01*
X87733103Y-81230005D01*
X87733106Y-81230009D01*
X87858794Y-81403004D01*
X88009996Y-81554206D01*
X88182991Y-81679894D01*
X88275310Y-81726933D01*
X88360059Y-81770115D01*
X88410855Y-81818090D01*
X88427650Y-81885911D01*
X88405112Y-81952046D01*
X88350397Y-81995497D01*
X88303764Y-82004600D01*
X87741301Y-82004600D01*
X87618922Y-82028943D01*
X87618914Y-82028945D01*
X87503627Y-82076698D01*
X87503618Y-82076703D01*
X87399867Y-82146028D01*
X87399863Y-82146031D01*
X86786715Y-82759181D01*
X86725392Y-82792666D01*
X86699034Y-82795500D01*
X86648316Y-82795500D01*
X86472807Y-82830411D01*
X86472799Y-82830413D01*
X86307467Y-82898896D01*
X86307457Y-82898901D01*
X86158665Y-82998321D01*
X86158661Y-82998324D01*
X86032124Y-83124861D01*
X86032121Y-83124865D01*
X85932701Y-83273657D01*
X85932696Y-83273667D01*
X85864213Y-83438999D01*
X85864211Y-83439007D01*
X85829300Y-83614516D01*
X85829300Y-83793483D01*
X85864211Y-83968992D01*
X85864213Y-83969000D01*
X85932696Y-84134332D01*
X85932701Y-84134342D01*
X86032121Y-84283134D01*
X86032124Y-84283138D01*
X86158661Y-84409675D01*
X86158665Y-84409678D01*
X86307457Y-84509098D01*
X86307461Y-84509100D01*
X86307464Y-84509102D01*
X86472800Y-84577587D01*
X86629016Y-84608660D01*
X86648316Y-84612499D01*
X86648320Y-84612500D01*
X86648321Y-84612500D01*
X86827280Y-84612500D01*
X86827281Y-84612499D01*
X87002800Y-84577587D01*
X87168136Y-84509102D01*
X87316935Y-84409678D01*
X87443478Y-84283135D01*
X87542902Y-84134336D01*
X87611387Y-83969000D01*
X87646300Y-83793479D01*
X87646300Y-83742766D01*
X87665985Y-83675727D01*
X87682619Y-83655085D01*
X88029785Y-83307919D01*
X88091108Y-83274434D01*
X88117466Y-83271600D01*
X90940725Y-83271600D01*
X91007764Y-83291285D01*
X91028407Y-83307920D01*
X91064261Y-83343775D01*
X91064265Y-83343778D01*
X91213057Y-83443198D01*
X91213061Y-83443200D01*
X91213064Y-83443202D01*
X91378400Y-83511687D01*
X91553916Y-83546599D01*
X91553920Y-83546600D01*
X91553921Y-83546600D01*
X91732880Y-83546600D01*
X91732881Y-83546599D01*
X91908400Y-83511687D01*
X92073736Y-83443202D01*
X92222535Y-83343778D01*
X92321408Y-83244904D01*
X92382729Y-83211420D01*
X92447593Y-83216058D01*
X92447888Y-83215087D01*
X92452170Y-83216386D01*
X92452420Y-83216404D01*
X92453063Y-83216657D01*
X92453705Y-83216850D01*
X92453715Y-83216855D01*
X92576101Y-83241199D01*
X92576105Y-83241200D01*
X92576106Y-83241200D01*
X99846895Y-83241200D01*
X99846896Y-83241199D01*
X99969285Y-83216855D01*
X100084575Y-83169100D01*
X100188333Y-83099771D01*
X110392872Y-72895233D01*
X110462201Y-72791475D01*
X110509955Y-72676184D01*
X110509956Y-72676180D01*
X110513295Y-72659398D01*
X110534299Y-72553798D01*
X110534300Y-72553795D01*
X110534300Y-70173475D01*
X110553985Y-70106436D01*
X110570620Y-70085793D01*
X110606475Y-70049938D01*
X110606478Y-70049935D01*
X110705902Y-69901136D01*
X110774387Y-69735800D01*
X110809300Y-69560279D01*
X110809300Y-69509566D01*
X110828985Y-69442527D01*
X110845619Y-69421885D01*
X112246868Y-68020636D01*
X112246871Y-68020633D01*
X112316200Y-67916875D01*
X112363955Y-67801585D01*
X112388300Y-67679194D01*
X112388300Y-67554406D01*
X112388300Y-62357106D01*
X112363955Y-62234715D01*
X112316200Y-62119425D01*
X112316199Y-62119424D01*
X112316196Y-62119418D01*
X112246872Y-62015668D01*
X112219568Y-61988364D01*
X112158633Y-61927429D01*
X109142319Y-58911115D01*
X109127615Y-58884187D01*
X109111023Y-58858369D01*
X109110131Y-58852168D01*
X109108834Y-58849792D01*
X109106000Y-58823434D01*
X109106000Y-58713566D01*
X109125685Y-58646527D01*
X109178489Y-58600772D01*
X109247647Y-58590828D01*
X109311203Y-58619853D01*
X109317681Y-58625885D01*
X116608563Y-65916769D01*
X116608566Y-65916772D01*
X116665484Y-65954803D01*
X116712325Y-65986101D01*
X116793763Y-66019833D01*
X116827615Y-66033855D01*
X116910793Y-66050400D01*
X116950001Y-66058199D01*
X116950005Y-66058200D01*
X116950006Y-66058200D01*
X120238395Y-66058200D01*
X120238396Y-66058199D01*
X120360785Y-66033855D01*
X120476075Y-65986100D01*
X120579833Y-65916771D01*
X124463637Y-62032966D01*
X124524958Y-61999483D01*
X124594650Y-62004467D01*
X124624199Y-62020329D01*
X124763991Y-62121894D01*
X124840395Y-62160824D01*
X124954516Y-62218972D01*
X124954519Y-62218973D01*
X125056200Y-62252010D01*
X125157884Y-62285049D01*
X125369084Y-62318500D01*
X125369085Y-62318500D01*
X125582915Y-62318500D01*
X125582916Y-62318500D01*
X125794116Y-62285049D01*
X125997483Y-62218972D01*
X126188009Y-62121894D01*
X126361004Y-61996206D01*
X126512206Y-61845004D01*
X126637894Y-61672009D01*
X126734972Y-61481483D01*
X126801049Y-61278116D01*
X126834500Y-61066916D01*
X126834500Y-60853084D01*
X126801049Y-60641884D01*
X126734972Y-60438517D01*
X126734972Y-60438516D01*
X126648362Y-60268536D01*
X126637894Y-60247991D01*
X126512206Y-60074996D01*
X126361004Y-59923794D01*
X126188009Y-59798106D01*
X126188005Y-59798103D01*
X126184132Y-59795730D01*
X126137254Y-59743920D01*
X126125829Y-59674991D01*
X126153483Y-59610827D01*
X126184132Y-59584270D01*
X126188005Y-59581896D01*
X126188004Y-59581896D01*
X126188009Y-59581894D01*
X126361004Y-59456206D01*
X126512206Y-59305004D01*
X126637894Y-59132009D01*
X126734972Y-58941483D01*
X126801049Y-58738116D01*
X126834500Y-58526916D01*
X126834500Y-58313084D01*
X126801049Y-58101884D01*
X126759108Y-57972800D01*
X126734973Y-57898519D01*
X126734972Y-57898516D01*
X126650841Y-57733401D01*
X126637894Y-57707991D01*
X126512206Y-57534996D01*
X126361004Y-57383794D01*
X126188009Y-57258106D01*
X126188005Y-57258103D01*
X126184132Y-57255730D01*
X126137254Y-57203920D01*
X126125829Y-57134991D01*
X126153483Y-57070827D01*
X126184132Y-57044270D01*
X126188005Y-57041896D01*
X126188004Y-57041896D01*
X126188009Y-57041894D01*
X126361004Y-56916206D01*
X126512206Y-56765004D01*
X126637894Y-56592009D01*
X126734972Y-56401483D01*
X126801049Y-56198116D01*
X126834500Y-55986916D01*
X126834500Y-55773084D01*
X126801049Y-55561884D01*
X126740203Y-55374616D01*
X126734973Y-55358519D01*
X126734972Y-55358516D01*
X126637893Y-55167990D01*
X126512206Y-54994996D01*
X126361004Y-54843794D01*
X126188009Y-54718106D01*
X126188005Y-54718103D01*
X126184132Y-54715730D01*
X126162022Y-54691294D01*
X126139100Y-54667587D01*
X126138682Y-54665498D01*
X126137254Y-54663920D01*
X126131865Y-54631407D01*
X126125399Y-54599073D01*
X126126176Y-54597089D01*
X126125829Y-54594991D01*
X126138873Y-54564725D01*
X126150915Y-54534029D01*
X126152850Y-54532295D01*
X126153483Y-54530827D01*
X126176288Y-54509496D01*
X126183935Y-54503969D01*
X126188009Y-54501894D01*
X126361004Y-54376206D01*
X126361706Y-54375503D01*
X126366560Y-54371996D01*
X126394933Y-54361954D01*
X126422410Y-54349640D01*
X126431466Y-54349024D01*
X126432426Y-54348685D01*
X126433331Y-54348897D01*
X126439189Y-54348500D01*
X127772500Y-54348500D01*
X127839539Y-54368185D01*
X127885294Y-54420989D01*
X127896500Y-54472500D01*
X127896500Y-87767500D01*
X127876815Y-87834539D01*
X127824011Y-87880294D01*
X127772500Y-87891500D01*
X32854096Y-87891500D01*
X32787057Y-87871815D01*
X32766415Y-87855181D01*
X32159819Y-87248585D01*
X32126334Y-87187262D01*
X32123500Y-87160904D01*
X32123500Y-76271184D01*
X32143185Y-76204145D01*
X32173189Y-76171917D01*
X32175742Y-76170006D01*
X32278261Y-76093261D01*
X32365889Y-75976204D01*
X32416989Y-75839201D01*
X32423001Y-75783284D01*
X32423499Y-75778654D01*
X32423500Y-75778637D01*
X32423500Y-74081362D01*
X32423499Y-74081345D01*
X32418798Y-74037627D01*
X32416989Y-74020799D01*
X32415566Y-74016985D01*
X32386262Y-73938417D01*
X32365889Y-73883796D01*
X32278261Y-73766739D01*
X32161204Y-73679111D01*
X32024203Y-73628011D01*
X31963654Y-73621500D01*
X31963638Y-73621500D01*
X30266362Y-73621500D01*
X30266345Y-73621500D01*
X30205797Y-73628011D01*
X30205795Y-73628011D01*
X30068795Y-73679111D01*
X29951739Y-73766739D01*
X29864111Y-73883795D01*
X29813011Y-74020795D01*
X29813011Y-74020797D01*
X29806500Y-74081345D01*
X29806500Y-74760904D01*
X29786815Y-74827943D01*
X29770181Y-74848585D01*
X23357121Y-81261644D01*
X23357120Y-81261646D01*
X23357119Y-81261647D01*
X23296149Y-81322616D01*
X23235180Y-81383585D01*
X23173856Y-81417069D01*
X23104164Y-81412084D01*
X23059818Y-81383584D01*
X21554819Y-79878585D01*
X21521334Y-79817262D01*
X21518500Y-79790904D01*
X21518500Y-74680000D01*
X22218391Y-74680000D01*
X23179314Y-74680000D01*
X23174920Y-74684394D01*
X23122259Y-74775606D01*
X23095000Y-74877339D01*
X23095000Y-74982661D01*
X23122259Y-75084394D01*
X23174920Y-75175606D01*
X23179314Y-75180000D01*
X22218391Y-75180000D01*
X22227009Y-75234413D01*
X22290244Y-75429029D01*
X22383140Y-75611349D01*
X22503417Y-75776894D01*
X22503417Y-75776895D01*
X22648104Y-75921582D01*
X22813650Y-76041859D01*
X22995968Y-76134754D01*
X23190578Y-76197988D01*
X23245000Y-76206607D01*
X23245000Y-75245686D01*
X23249394Y-75250080D01*
X23340606Y-75302741D01*
X23442339Y-75330000D01*
X23547661Y-75330000D01*
X23649394Y-75302741D01*
X23740606Y-75250080D01*
X23745000Y-75245686D01*
X23745000Y-76206606D01*
X23799421Y-76197988D01*
X23994031Y-76134754D01*
X24176349Y-76041859D01*
X24341894Y-75921582D01*
X24341895Y-75921582D01*
X24486582Y-75776895D01*
X24486582Y-75776894D01*
X24606859Y-75611349D01*
X24699755Y-75429029D01*
X24762990Y-75234413D01*
X24771609Y-75180000D01*
X23810686Y-75180000D01*
X23815080Y-75175606D01*
X23867741Y-75084394D01*
X23895000Y-74982661D01*
X23895000Y-74877339D01*
X23867741Y-74775606D01*
X23815080Y-74684394D01*
X23810686Y-74680000D01*
X24771609Y-74680000D01*
X24762990Y-74625586D01*
X24699755Y-74430970D01*
X24606859Y-74248650D01*
X24486582Y-74083105D01*
X24486582Y-74083104D01*
X24341895Y-73938417D01*
X24176349Y-73818140D01*
X23994029Y-73725244D01*
X23799413Y-73662009D01*
X23745000Y-73653390D01*
X23745000Y-74614314D01*
X23740606Y-74609920D01*
X23649394Y-74557259D01*
X23547661Y-74530000D01*
X23442339Y-74530000D01*
X23340606Y-74557259D01*
X23249394Y-74609920D01*
X23245000Y-74614314D01*
X23245000Y-73653390D01*
X23190586Y-73662009D01*
X22995970Y-73725244D01*
X22813650Y-73818140D01*
X22648105Y-73938417D01*
X22648104Y-73938417D01*
X22503417Y-74083104D01*
X22503417Y-74083105D01*
X22383140Y-74248650D01*
X22290244Y-74430970D01*
X22227009Y-74625586D01*
X22218391Y-74680000D01*
X21518500Y-74680000D01*
X21518500Y-64091345D01*
X22141500Y-64091345D01*
X22141500Y-65888654D01*
X22148011Y-65949202D01*
X22148011Y-65949204D01*
X22188666Y-66058200D01*
X22199111Y-66086204D01*
X22286739Y-66203261D01*
X22403796Y-66290889D01*
X22533382Y-66339222D01*
X22589313Y-66381093D01*
X22613730Y-66446557D01*
X22598878Y-66514830D01*
X22577728Y-66543084D01*
X22470271Y-66650541D01*
X22345379Y-66822442D01*
X22248904Y-67011782D01*
X22183242Y-67213870D01*
X22183242Y-67213873D01*
X22172769Y-67280000D01*
X23066988Y-67280000D01*
X23034075Y-67337007D01*
X23000000Y-67464174D01*
X23000000Y-67595826D01*
X23034075Y-67722993D01*
X23066988Y-67780000D01*
X22172769Y-67780000D01*
X22183242Y-67846126D01*
X22183242Y-67846129D01*
X22248904Y-68048217D01*
X22345379Y-68237557D01*
X22470272Y-68409459D01*
X22470276Y-68409464D01*
X22620535Y-68559723D01*
X22620540Y-68559727D01*
X22792442Y-68684620D01*
X22981782Y-68781095D01*
X23183871Y-68846757D01*
X23250000Y-68857231D01*
X23250000Y-67963012D01*
X23307007Y-67995925D01*
X23434174Y-68030000D01*
X23565826Y-68030000D01*
X23692993Y-67995925D01*
X23750000Y-67963012D01*
X23750000Y-68857230D01*
X23816126Y-68846757D01*
X23816129Y-68846757D01*
X24018217Y-68781095D01*
X24207557Y-68684620D01*
X24379459Y-68559727D01*
X24379464Y-68559723D01*
X24529723Y-68409464D01*
X24529727Y-68409459D01*
X24654620Y-68237557D01*
X24751095Y-68048217D01*
X24816757Y-67846129D01*
X24816757Y-67846126D01*
X24827231Y-67780000D01*
X23933012Y-67780000D01*
X23965925Y-67722993D01*
X24000000Y-67595826D01*
X24000000Y-67464174D01*
X23965925Y-67337007D01*
X23933012Y-67280000D01*
X24827231Y-67280000D01*
X24816757Y-67213873D01*
X24816757Y-67213870D01*
X24751095Y-67011782D01*
X24654620Y-66822442D01*
X24529727Y-66650540D01*
X24529723Y-66650535D01*
X24422272Y-66543084D01*
X24388787Y-66481761D01*
X24393771Y-66412069D01*
X24435643Y-66356136D01*
X24466612Y-66339224D01*
X24596204Y-66290889D01*
X24713261Y-66203261D01*
X24800889Y-66086204D01*
X24851989Y-65949201D01*
X24856521Y-65907045D01*
X24858499Y-65888654D01*
X24858500Y-65888637D01*
X24858500Y-64091362D01*
X24858499Y-64091345D01*
X24855157Y-64060270D01*
X24851989Y-64030799D01*
X24851101Y-64028419D01*
X24816443Y-63935498D01*
X24800889Y-63893796D01*
X24713261Y-63776739D01*
X24596204Y-63689111D01*
X24459203Y-63638011D01*
X24398654Y-63631500D01*
X24398638Y-63631500D01*
X22601362Y-63631500D01*
X22601345Y-63631500D01*
X22540797Y-63638011D01*
X22540795Y-63638011D01*
X22403795Y-63689111D01*
X22286739Y-63776739D01*
X22199111Y-63893795D01*
X22148011Y-64030795D01*
X22148011Y-64030797D01*
X22141500Y-64091345D01*
X21518500Y-64091345D01*
X21518500Y-53968905D01*
X23658000Y-53968905D01*
X23658000Y-54231094D01*
X23692220Y-54491009D01*
X23692222Y-54491020D01*
X23760075Y-54744255D01*
X23860404Y-54986471D01*
X23860409Y-54986482D01*
X23991488Y-55213516D01*
X23991494Y-55213524D01*
X24078080Y-55326365D01*
X24972767Y-54431677D01*
X24984497Y-54459995D01*
X25067670Y-54584472D01*
X25173528Y-54690330D01*
X25298005Y-54773503D01*
X25326320Y-54785231D01*
X24431633Y-55679917D01*
X24431633Y-55679918D01*
X24544475Y-55766505D01*
X24544483Y-55766511D01*
X24771517Y-55897590D01*
X24771528Y-55897595D01*
X25013744Y-55997924D01*
X25266979Y-56065777D01*
X25266990Y-56065779D01*
X25526905Y-56099999D01*
X25526920Y-56100000D01*
X25789080Y-56100000D01*
X25789094Y-56099999D01*
X26049009Y-56065779D01*
X26049020Y-56065777D01*
X26302255Y-55997924D01*
X26544471Y-55897595D01*
X26544482Y-55897590D01*
X26771516Y-55766511D01*
X26771534Y-55766499D01*
X26884365Y-55679919D01*
X26884365Y-55679917D01*
X25989679Y-54785231D01*
X26017995Y-54773503D01*
X26142472Y-54690330D01*
X26248330Y-54584472D01*
X26331503Y-54459995D01*
X26343231Y-54431679D01*
X27237917Y-55326365D01*
X27237919Y-55326365D01*
X27324499Y-55213534D01*
X27324511Y-55213516D01*
X27455590Y-54986482D01*
X27455595Y-54986471D01*
X27555924Y-54744255D01*
X27623777Y-54491020D01*
X27623779Y-54491009D01*
X27657999Y-54231094D01*
X27658000Y-54231080D01*
X27658000Y-53968919D01*
X27657999Y-53968905D01*
X27623779Y-53708990D01*
X27623777Y-53708979D01*
X27555924Y-53455744D01*
X27455595Y-53213528D01*
X27455590Y-53213517D01*
X27324511Y-52986483D01*
X27324505Y-52986475D01*
X27237918Y-52873633D01*
X27237917Y-52873633D01*
X26343231Y-53768320D01*
X26331503Y-53740005D01*
X26248330Y-53615528D01*
X26142472Y-53509670D01*
X26017995Y-53426497D01*
X25989677Y-53414767D01*
X26884365Y-52520080D01*
X26771524Y-52433494D01*
X26771516Y-52433488D01*
X26544482Y-52302409D01*
X26544471Y-52302404D01*
X26302255Y-52202075D01*
X26049020Y-52134222D01*
X26049009Y-52134220D01*
X25789094Y-52100000D01*
X25526905Y-52100000D01*
X25266990Y-52134220D01*
X25266979Y-52134222D01*
X25013744Y-52202075D01*
X24771528Y-52302404D01*
X24771517Y-52302409D01*
X24544471Y-52433496D01*
X24431633Y-52520079D01*
X24431633Y-52520080D01*
X25326321Y-53414768D01*
X25298005Y-53426497D01*
X25173528Y-53509670D01*
X25067670Y-53615528D01*
X24984497Y-53740005D01*
X24972768Y-53768321D01*
X24078080Y-52873633D01*
X24078079Y-52873633D01*
X23991496Y-52986471D01*
X23860409Y-53213517D01*
X23860404Y-53213528D01*
X23760075Y-53455744D01*
X23692222Y-53708979D01*
X23692220Y-53708990D01*
X23658000Y-53968905D01*
X21518500Y-53968905D01*
X21518500Y-49174096D01*
X21538185Y-49107057D01*
X21554819Y-49086415D01*
X23073650Y-47567584D01*
X23506102Y-47135132D01*
X23567424Y-47101648D01*
X23637116Y-47106632D01*
X23693049Y-47148504D01*
X23717466Y-47213968D01*
X23709963Y-47266148D01*
X23656012Y-47410792D01*
X23656011Y-47410797D01*
X23649500Y-47471345D01*
X23649500Y-50568654D01*
X23656011Y-50629202D01*
X23656011Y-50629204D01*
X23702097Y-50752761D01*
X23707111Y-50766204D01*
X23794739Y-50883261D01*
X23911796Y-50970889D01*
X24048799Y-51021989D01*
X24076050Y-51024918D01*
X24109345Y-51028499D01*
X24109362Y-51028500D01*
X27206638Y-51028500D01*
X27206654Y-51028499D01*
X27233692Y-51025591D01*
X27267201Y-51021989D01*
X27404204Y-50970889D01*
X27521261Y-50883261D01*
X27608889Y-50766204D01*
X27659989Y-50629201D01*
X27663630Y-50595332D01*
X27666499Y-50568654D01*
X27666500Y-50568637D01*
X27666500Y-50007616D01*
X33619900Y-50007616D01*
X33619900Y-50186583D01*
X33654811Y-50362092D01*
X33654813Y-50362100D01*
X33723296Y-50527432D01*
X33723301Y-50527442D01*
X33822721Y-50676234D01*
X33822724Y-50676238D01*
X33949261Y-50802775D01*
X33949265Y-50802778D01*
X34098057Y-50902198D01*
X34098061Y-50902200D01*
X34098064Y-50902202D01*
X34263400Y-50970687D01*
X34438916Y-51005599D01*
X34438920Y-51005600D01*
X34438921Y-51005600D01*
X34489634Y-51005600D01*
X34556673Y-51025285D01*
X34577315Y-51041919D01*
X41911317Y-58375921D01*
X41944802Y-58437244D01*
X41945253Y-58439411D01*
X41977911Y-58603592D01*
X41977913Y-58603600D01*
X42046396Y-58768932D01*
X42046401Y-58768942D01*
X42145821Y-58917734D01*
X42145824Y-58917738D01*
X42272361Y-59044275D01*
X42272365Y-59044278D01*
X42421157Y-59143698D01*
X42421161Y-59143700D01*
X42421164Y-59143702D01*
X42586500Y-59212187D01*
X42725955Y-59239926D01*
X42762016Y-59247099D01*
X42762020Y-59247100D01*
X42762021Y-59247100D01*
X42940980Y-59247100D01*
X42940981Y-59247099D01*
X43116500Y-59212187D01*
X43281836Y-59143702D01*
X43430635Y-59044278D01*
X43557178Y-58917735D01*
X43656602Y-58768936D01*
X43725087Y-58603600D01*
X43760000Y-58428079D01*
X43760000Y-58249121D01*
X43725087Y-58073600D01*
X43656602Y-57908264D01*
X43656600Y-57908261D01*
X43656598Y-57908257D01*
X43557178Y-57759465D01*
X43557175Y-57759461D01*
X43430638Y-57632924D01*
X43430634Y-57632921D01*
X43281842Y-57533501D01*
X43281832Y-57533496D01*
X43116500Y-57465013D01*
X43116492Y-57465011D01*
X42940983Y-57430100D01*
X42940979Y-57430100D01*
X42808666Y-57430100D01*
X42741627Y-57410415D01*
X42720985Y-57393781D01*
X35473219Y-50146015D01*
X35439734Y-50084692D01*
X35436900Y-50058334D01*
X35436900Y-50007620D01*
X35436899Y-50007616D01*
X35415493Y-49899999D01*
X35401987Y-49832100D01*
X35333502Y-49666764D01*
X35333500Y-49666761D01*
X35333498Y-49666757D01*
X35234078Y-49517965D01*
X35234075Y-49517961D01*
X35107538Y-49391424D01*
X35107534Y-49391421D01*
X34958742Y-49292001D01*
X34958732Y-49291996D01*
X34793400Y-49223513D01*
X34793392Y-49223511D01*
X34617883Y-49188600D01*
X34617879Y-49188600D01*
X34438921Y-49188600D01*
X34438916Y-49188600D01*
X34263407Y-49223511D01*
X34263399Y-49223513D01*
X34098067Y-49291996D01*
X34098057Y-49292001D01*
X33949265Y-49391421D01*
X33949261Y-49391424D01*
X33822724Y-49517961D01*
X33822721Y-49517965D01*
X33723301Y-49666757D01*
X33723296Y-49666767D01*
X33654813Y-49832099D01*
X33654811Y-49832107D01*
X33619900Y-50007616D01*
X27666500Y-50007616D01*
X27666500Y-47471362D01*
X27666499Y-47471345D01*
X27663157Y-47440270D01*
X27659989Y-47410799D01*
X27659986Y-47410792D01*
X27622804Y-47311103D01*
X27608889Y-47273796D01*
X27521261Y-47156739D01*
X27404204Y-47069111D01*
X27267203Y-47018011D01*
X27206654Y-47011500D01*
X27206638Y-47011500D01*
X24109362Y-47011500D01*
X24109345Y-47011500D01*
X24048797Y-47018011D01*
X24048792Y-47018012D01*
X23904148Y-47071963D01*
X23834457Y-47076948D01*
X23773133Y-47043464D01*
X23739648Y-46982141D01*
X23744632Y-46912449D01*
X23773131Y-46868103D01*
X24612216Y-46029019D01*
X24673539Y-45995534D01*
X24699897Y-45992700D01*
X57414673Y-45992700D01*
X57481712Y-46012385D01*
G37*
%TD.AperFunction*%
%TD*%
M02*
