%TF.GenerationSoftware,KiCad,Pcbnew,9.0.2*%
%TF.CreationDate,2025-06-22T07:24:43+02:00*%
%TF.ProjectId,p2000t-ram-expansion-board-128-512-smd-cpld,70323030-3074-42d7-9261-6d2d65787061,4*%
%TF.SameCoordinates,Original*%
%TF.FileFunction,Paste,Top*%
%TF.FilePolarity,Positive*%
%FSLAX46Y46*%
G04 Gerber Fmt 4.6, Leading zero omitted, Abs format (unit mm)*
G04 Created by KiCad (PCBNEW 9.0.2) date 2025-06-22 07:24:43*
%MOMM*%
%LPD*%
G01*
G04 APERTURE LIST*
G04 Aperture macros list*
%AMRoundRect*
0 Rectangle with rounded corners*
0 $1 Rounding radius*
0 $2 $3 $4 $5 $6 $7 $8 $9 X,Y pos of 4 corners*
0 Add a 4 corners polygon primitive as box body*
4,1,4,$2,$3,$4,$5,$6,$7,$8,$9,$2,$3,0*
0 Add four circle primitives for the rounded corners*
1,1,$1+$1,$2,$3*
1,1,$1+$1,$4,$5*
1,1,$1+$1,$6,$7*
1,1,$1+$1,$8,$9*
0 Add four rect primitives between the rounded corners*
20,1,$1+$1,$2,$3,$4,$5,0*
20,1,$1+$1,$4,$5,$6,$7,0*
20,1,$1+$1,$6,$7,$8,$9,0*
20,1,$1+$1,$8,$9,$2,$3,0*%
%AMRotRect*
0 Rectangle, with rotation*
0 The origin of the aperture is its center*
0 $1 length*
0 $2 width*
0 $3 Rotation angle, in degrees counterclockwise*
0 Add horizontal line*
21,1,$1,$2,0,0,$3*%
G04 Aperture macros list end*
%ADD10RoundRect,0.250000X-0.097227X0.574524X-0.574524X0.097227X0.097227X-0.574524X0.574524X-0.097227X0*%
%ADD11RoundRect,0.075000X-0.712500X-0.075000X0.712500X-0.075000X0.712500X0.075000X-0.712500X0.075000X0*%
%ADD12RoundRect,0.250000X-0.475000X0.337500X-0.475000X-0.337500X0.475000X-0.337500X0.475000X0.337500X0*%
%ADD13RoundRect,0.250000X0.097227X-0.574524X0.574524X-0.097227X-0.097227X0.574524X-0.574524X0.097227X0*%
%ADD14RotRect,1.500000X0.550000X45.000000*%
%ADD15RotRect,1.500000X0.550000X135.000000*%
%ADD16RoundRect,0.250000X0.574524X0.097227X0.097227X0.574524X-0.574524X-0.097227X-0.097227X-0.574524X0*%
%ADD17RoundRect,0.250000X-0.574524X-0.097227X-0.097227X-0.574524X0.574524X0.097227X0.097227X0.574524X0*%
G04 APERTURE END LIST*
D10*
%TO.C,C1*%
X81733623Y-64766377D03*
X80266377Y-66233623D03*
%TD*%
D11*
%TO.C,U4*%
X93472000Y-48955000D03*
X93472000Y-49455000D03*
X93472000Y-49955000D03*
X93472000Y-50455000D03*
X93472000Y-50955000D03*
X93472000Y-51455000D03*
X93472000Y-51955000D03*
X93472000Y-52455000D03*
X93472000Y-52955000D03*
X93472000Y-53455000D03*
X93472000Y-53955000D03*
X93472000Y-54455000D03*
X93472000Y-54955000D03*
X93472000Y-55455000D03*
X93472000Y-55955000D03*
X93472000Y-56455000D03*
X112847000Y-56455000D03*
X112847000Y-55955000D03*
X112847000Y-55455000D03*
X112847000Y-54955000D03*
X112847000Y-54455000D03*
X112847000Y-53955000D03*
X112847000Y-53455000D03*
X112847000Y-52955000D03*
X112847000Y-52455000D03*
X112847000Y-51955000D03*
X112847000Y-51455000D03*
X112847000Y-50955000D03*
X112847000Y-50455000D03*
X112847000Y-49955000D03*
X112847000Y-49455000D03*
X112847000Y-48955000D03*
%TD*%
D12*
%TO.C,C5*%
X58420000Y-48990000D03*
X58420000Y-51065000D03*
%TD*%
%TO.C,C2*%
X58420000Y-62484000D03*
X58420000Y-64559000D03*
%TD*%
D13*
%TO.C,C6*%
X67516377Y-52483623D03*
X68983623Y-51016377D03*
%TD*%
D12*
%TO.C,C9*%
X115570000Y-48971200D03*
X115570000Y-51046200D03*
%TD*%
D11*
%TO.C,U2*%
X36165000Y-48940000D03*
X36165000Y-49440000D03*
X36165000Y-49940000D03*
X36165000Y-50440000D03*
X36165000Y-50940000D03*
X36165000Y-51440000D03*
X36165000Y-51940000D03*
X36165000Y-52440000D03*
X36165000Y-52940000D03*
X36165000Y-53440000D03*
X36165000Y-53940000D03*
X36165000Y-54440000D03*
X36165000Y-54940000D03*
X36165000Y-55440000D03*
X36165000Y-55940000D03*
X36165000Y-56440000D03*
X55540000Y-56440000D03*
X55540000Y-55940000D03*
X55540000Y-55440000D03*
X55540000Y-54940000D03*
X55540000Y-54440000D03*
X55540000Y-53940000D03*
X55540000Y-53440000D03*
X55540000Y-52940000D03*
X55540000Y-52440000D03*
X55540000Y-51940000D03*
X55540000Y-51440000D03*
X55540000Y-50940000D03*
X55540000Y-50440000D03*
X55540000Y-49940000D03*
X55540000Y-49440000D03*
X55540000Y-48940000D03*
%TD*%
D14*
%TO.C,U1*%
X67974664Y-59768382D03*
X68540350Y-60334067D03*
X69106035Y-60899752D03*
X69671720Y-61465438D03*
X70237406Y-62031123D03*
X70803091Y-62596809D03*
X71368777Y-63162494D03*
X71934462Y-63728180D03*
X72500148Y-64293865D03*
X73065833Y-64859550D03*
X73631518Y-65425236D03*
D15*
X76035682Y-65425236D03*
X76601367Y-64859550D03*
X77167052Y-64293865D03*
X77732738Y-63728180D03*
X78298423Y-63162494D03*
X78864109Y-62596809D03*
X79429794Y-62031123D03*
X79995480Y-61465438D03*
X80561165Y-60899752D03*
X81126850Y-60334067D03*
X81692536Y-59768382D03*
D14*
X81692536Y-57364218D03*
X81126850Y-56798533D03*
X80561165Y-56232848D03*
X79995480Y-55667162D03*
X79429794Y-55101477D03*
X78864109Y-54535791D03*
X78298423Y-53970106D03*
X77732738Y-53404420D03*
X77167052Y-52838735D03*
X76601367Y-52273050D03*
X76035682Y-51707364D03*
D15*
X73631518Y-51707364D03*
X73065833Y-52273050D03*
X72500148Y-52838735D03*
X71934462Y-53404420D03*
X71368777Y-53970106D03*
X70803091Y-54535791D03*
X70237406Y-55101477D03*
X69671720Y-55667162D03*
X69106035Y-56232848D03*
X68540350Y-56798533D03*
X67974664Y-57364218D03*
%TD*%
D11*
%TO.C,U3*%
X36165000Y-62492000D03*
X36165000Y-62992000D03*
X36165000Y-63492000D03*
X36165000Y-63992000D03*
X36165000Y-64492000D03*
X36165000Y-64992000D03*
X36165000Y-65492000D03*
X36165000Y-65992000D03*
X36165000Y-66492000D03*
X36165000Y-66992000D03*
X36165000Y-67492000D03*
X36165000Y-67992000D03*
X36165000Y-68492000D03*
X36165000Y-68992000D03*
X36165000Y-69492000D03*
X36165000Y-69992000D03*
X55540000Y-69992000D03*
X55540000Y-69492000D03*
X55540000Y-68992000D03*
X55540000Y-68492000D03*
X55540000Y-67992000D03*
X55540000Y-67492000D03*
X55540000Y-66992000D03*
X55540000Y-66492000D03*
X55540000Y-65992000D03*
X55540000Y-65492000D03*
X55540000Y-64992000D03*
X55540000Y-64492000D03*
X55540000Y-63992000D03*
X55540000Y-63492000D03*
X55540000Y-62992000D03*
X55540000Y-62492000D03*
%TD*%
%TO.C,U5*%
X93472000Y-62492000D03*
X93472000Y-62992000D03*
X93472000Y-63492000D03*
X93472000Y-63992000D03*
X93472000Y-64492000D03*
X93472000Y-64992000D03*
X93472000Y-65492000D03*
X93472000Y-65992000D03*
X93472000Y-66492000D03*
X93472000Y-66992000D03*
X93472000Y-67492000D03*
X93472000Y-67992000D03*
X93472000Y-68492000D03*
X93472000Y-68992000D03*
X93472000Y-69492000D03*
X93472000Y-69992000D03*
X112847000Y-69992000D03*
X112847000Y-69492000D03*
X112847000Y-68992000D03*
X112847000Y-68492000D03*
X112847000Y-67992000D03*
X112847000Y-67492000D03*
X112847000Y-66992000D03*
X112847000Y-66492000D03*
X112847000Y-65992000D03*
X112847000Y-65492000D03*
X112847000Y-64992000D03*
X112847000Y-64492000D03*
X112847000Y-63992000D03*
X112847000Y-63492000D03*
X112847000Y-62992000D03*
X112847000Y-62492000D03*
%TD*%
D12*
%TO.C,C4*%
X115570000Y-62484000D03*
X115570000Y-64559000D03*
%TD*%
D16*
%TO.C,C7*%
X69233623Y-66016323D03*
X67766377Y-64549077D03*
%TD*%
D17*
%TO.C,C8*%
X81766377Y-52049077D03*
X83233623Y-53516323D03*
%TD*%
M02*
