%TF.GenerationSoftware,KiCad,Pcbnew,9.0.2*%
%TF.CreationDate,2025-07-22T08:12:46+02:00*%
%TF.ProjectId,p2000t-ram-expansion-board-128-512-smd-cpld,70323030-3074-42d7-9261-6d2d65787061,4*%
%TF.SameCoordinates,Original*%
%TF.FileFunction,Copper,L1,Top*%
%TF.FilePolarity,Positive*%
%FSLAX46Y46*%
G04 Gerber Fmt 4.6, Leading zero omitted, Abs format (unit mm)*
G04 Created by KiCad (PCBNEW 9.0.2) date 2025-07-22 08:12:46*
%MOMM*%
%LPD*%
G01*
G04 APERTURE LIST*
G04 Aperture macros list*
%AMRoundRect*
0 Rectangle with rounded corners*
0 $1 Rounding radius*
0 $2 $3 $4 $5 $6 $7 $8 $9 X,Y pos of 4 corners*
0 Add a 4 corners polygon primitive as box body*
4,1,4,$2,$3,$4,$5,$6,$7,$8,$9,$2,$3,0*
0 Add four circle primitives for the rounded corners*
1,1,$1+$1,$2,$3*
1,1,$1+$1,$4,$5*
1,1,$1+$1,$6,$7*
1,1,$1+$1,$8,$9*
0 Add four rect primitives between the rounded corners*
20,1,$1+$1,$2,$3,$4,$5,0*
20,1,$1+$1,$4,$5,$6,$7,0*
20,1,$1+$1,$6,$7,$8,$9,0*
20,1,$1+$1,$8,$9,$2,$3,0*%
G04 Aperture macros list end*
%TA.AperFunction,SMDPad,CuDef*%
%ADD10RoundRect,0.250000X-0.097227X0.574524X-0.574524X0.097227X0.097227X-0.574524X0.574524X-0.097227X0*%
%TD*%
%TA.AperFunction,SMDPad,CuDef*%
%ADD11RoundRect,0.075000X-0.712500X-0.075000X0.712500X-0.075000X0.712500X0.075000X-0.712500X0.075000X0*%
%TD*%
%TA.AperFunction,ComponentPad*%
%ADD12RoundRect,0.250000X0.550000X0.550000X-0.550000X0.550000X-0.550000X-0.550000X0.550000X-0.550000X0*%
%TD*%
%TA.AperFunction,ComponentPad*%
%ADD13C,1.600000*%
%TD*%
%TA.AperFunction,SMDPad,CuDef*%
%ADD14RoundRect,0.250000X-0.475000X0.337500X-0.475000X-0.337500X0.475000X-0.337500X0.475000X0.337500X0*%
%TD*%
%TA.AperFunction,ComponentPad*%
%ADD15RoundRect,0.250000X-0.600000X-0.600000X0.600000X-0.600000X0.600000X0.600000X-0.600000X0.600000X0*%
%TD*%
%TA.AperFunction,ComponentPad*%
%ADD16C,1.700000*%
%TD*%
%TA.AperFunction,ComponentPad*%
%ADD17R,1.700000X1.700000*%
%TD*%
%TA.AperFunction,SMDPad,CuDef*%
%ADD18RoundRect,0.250000X0.097227X-0.574524X0.574524X-0.097227X-0.097227X0.574524X-0.574524X0.097227X0*%
%TD*%
%TA.AperFunction,SMDPad,CuDef*%
%ADD19RoundRect,0.137500X-0.327037X-0.521491X0.521491X0.327037X0.327037X0.521491X-0.521491X-0.327037X0*%
%TD*%
%TA.AperFunction,SMDPad,CuDef*%
%ADD20RoundRect,0.137500X0.327037X-0.521491X0.521491X-0.327037X-0.327037X0.521491X-0.521491X0.327037X0*%
%TD*%
%TA.AperFunction,ComponentPad*%
%ADD21RoundRect,0.250000X-0.550000X-0.550000X0.550000X-0.550000X0.550000X0.550000X-0.550000X0.550000X0*%
%TD*%
%TA.AperFunction,SMDPad,CuDef*%
%ADD22RoundRect,0.250000X0.574524X0.097227X0.097227X0.574524X-0.574524X-0.097227X-0.097227X-0.574524X0*%
%TD*%
%TA.AperFunction,ComponentPad*%
%ADD23R,3.000000X3.000000*%
%TD*%
%TA.AperFunction,ComponentPad*%
%ADD24C,3.000000*%
%TD*%
%TA.AperFunction,SMDPad,CuDef*%
%ADD25RoundRect,0.250000X-0.574524X-0.097227X-0.097227X-0.574524X0.574524X0.097227X0.097227X0.574524X0*%
%TD*%
%TA.AperFunction,ViaPad*%
%ADD26C,0.800000*%
%TD*%
%TA.AperFunction,Conductor*%
%ADD27C,0.250000*%
%TD*%
%TA.AperFunction,Conductor*%
%ADD28C,0.500000*%
%TD*%
%TA.AperFunction,Conductor*%
%ADD29C,1.000000*%
%TD*%
G04 APERTURE END LIST*
D10*
%TO.P,C1,1*%
%TO.N,+5V*%
X81733623Y-64766377D03*
%TO.P,C1,2*%
%TO.N,GND*%
X80266377Y-66233623D03*
%TD*%
D11*
%TO.P,U4,1,A11*%
%TO.N,A11*%
X93472000Y-48955000D03*
%TO.P,U4,2,A9*%
%TO.N,A9*%
X93472000Y-49455000D03*
%TO.P,U4,3,A8*%
%TO.N,A8*%
X93472000Y-49955000D03*
%TO.P,U4,4,A13*%
%TO.N,R0*%
X93472000Y-50455000D03*
%TO.P,U4,5,~{WE}*%
%TO.N,~{WR}*%
X93472000Y-50955000D03*
%TO.P,U4,6,CS2/CE2*%
%TO.N,+5V*%
X93472000Y-51455000D03*
%TO.P,U4,7,A15*%
%TO.N,R2*%
X93472000Y-51955000D03*
%TO.P,U4,8,VCC*%
%TO.N,+5V*%
X93472000Y-52455000D03*
%TO.P,U4,9,NC*%
%TO.N,unconnected-(U4-NC-Pad9)*%
X93472000Y-52955000D03*
%TO.P,U4,10,A16*%
%TO.N,R3*%
X93472000Y-53455000D03*
%TO.P,U4,11,A14*%
%TO.N,R1*%
X93472000Y-53955000D03*
%TO.P,U4,12,A12*%
%TO.N,A12*%
X93472000Y-54455000D03*
%TO.P,U4,13,A7*%
%TO.N,A7*%
X93472000Y-54955000D03*
%TO.P,U4,14,A6*%
%TO.N,A6*%
X93472000Y-55455000D03*
%TO.P,U4,15,A5*%
%TO.N,A5*%
X93472000Y-55955000D03*
%TO.P,U4,16,A4*%
%TO.N,A4*%
X93472000Y-56455000D03*
%TO.P,U4,17,A3*%
%TO.N,A3*%
X112847000Y-56455000D03*
%TO.P,U4,18,A2*%
%TO.N,A2*%
X112847000Y-55955000D03*
%TO.P,U4,19,A1*%
%TO.N,A1*%
X112847000Y-55455000D03*
%TO.P,U4,20,A0*%
%TO.N,A0*%
X112847000Y-54955000D03*
%TO.P,U4,21,I/O0*%
%TO.N,D0*%
X112847000Y-54455000D03*
%TO.P,U4,22,I/O1*%
%TO.N,D1*%
X112847000Y-53955000D03*
%TO.P,U4,23,I/O2*%
%TO.N,D2*%
X112847000Y-53455000D03*
%TO.P,U4,24,GND*%
%TO.N,GND*%
X112847000Y-52955000D03*
%TO.P,U4,25,I/O3*%
%TO.N,D3*%
X112847000Y-52455000D03*
%TO.P,U4,26,I/O4*%
%TO.N,D4*%
X112847000Y-51955000D03*
%TO.P,U4,27,I/O5*%
%TO.N,D5*%
X112847000Y-51455000D03*
%TO.P,U4,28,I/O6*%
%TO.N,D6*%
X112847000Y-50955000D03*
%TO.P,U4,29,I/O7*%
%TO.N,D7*%
X112847000Y-50455000D03*
%TO.P,U4,30,~{CS1}/~{CE1}*%
%TO.N,~{CS3}*%
X112847000Y-49955000D03*
%TO.P,U4,31,A10*%
%TO.N,A10*%
X112847000Y-49455000D03*
%TO.P,U4,32,~{OE}*%
%TO.N,~{RD}*%
X112847000Y-48955000D03*
%TD*%
D12*
%TO.P,D1,1,K*%
%TO.N,+5V*%
X31115000Y-74930000D03*
D13*
%TO.P,D1,2,A*%
%TO.N,VCC*%
X23495000Y-74930000D03*
%TD*%
D14*
%TO.P,C5,1*%
%TO.N,+5V*%
X33655000Y-51276000D03*
%TO.P,C5,2*%
%TO.N,GND*%
X33655000Y-53351000D03*
%TD*%
%TO.P,C2,1*%
%TO.N,+5V*%
X33655000Y-64770000D03*
%TO.P,C2,2*%
%TO.N,GND*%
X33655000Y-66845000D03*
%TD*%
D15*
%TO.P,J4,1,TCK*%
%TO.N,TCK*%
X122936000Y-50800000D03*
D16*
%TO.P,J4,2,GND*%
%TO.N,GND*%
X125476000Y-50800000D03*
%TO.P,J4,3,TDO*%
%TO.N,TDO*%
X122936000Y-53340000D03*
%TO.P,J4,4,VccT*%
%TO.N,+5V*%
X125476000Y-53340000D03*
%TO.P,J4,5,TMS*%
%TO.N,TMS*%
X122936000Y-55880000D03*
%TO.P,J4,6,NC*%
%TO.N,unconnected-(J4-NC-Pad6)*%
X125476000Y-55880000D03*
%TO.P,J4,7,NC*%
%TO.N,unconnected-(J4-NC-Pad7)*%
X122936000Y-58420000D03*
%TO.P,J4,8,NC*%
%TO.N,unconnected-(J4-NC-Pad8)*%
X125476000Y-58420000D03*
%TO.P,J4,9,TDI*%
%TO.N,TDI*%
X122936000Y-60960000D03*
%TO.P,J4,10,GND*%
%TO.N,GND*%
X125476000Y-60960000D03*
%TD*%
D17*
%TO.P,J2,1,Pin_1*%
%TO.N,GND*%
X23500000Y-64990000D03*
D16*
%TO.P,J2,2,Pin_2*%
%TO.N,VCC*%
X23500000Y-67530000D03*
%TD*%
D18*
%TO.P,C6,1*%
%TO.N,+5V*%
X67516377Y-52483623D03*
%TO.P,C6,2*%
%TO.N,GND*%
X68983623Y-51016377D03*
%TD*%
D14*
%TO.P,C9,1*%
%TO.N,+5V*%
X90805000Y-51265000D03*
%TO.P,C9,2*%
%TO.N,GND*%
X90805000Y-53340000D03*
%TD*%
D11*
%TO.P,U2,1,A11*%
%TO.N,A11*%
X36165000Y-48940000D03*
%TO.P,U2,2,A9*%
%TO.N,A9*%
X36165000Y-49440000D03*
%TO.P,U2,3,A8*%
%TO.N,A8*%
X36165000Y-49940000D03*
%TO.P,U2,4,A13*%
%TO.N,R0*%
X36165000Y-50440000D03*
%TO.P,U2,5,~{WE}*%
%TO.N,~{WR}*%
X36165000Y-50940000D03*
%TO.P,U2,6,CS2/CE2*%
%TO.N,+5V*%
X36165000Y-51440000D03*
%TO.P,U2,7,A15*%
%TO.N,R2*%
X36165000Y-51940000D03*
%TO.P,U2,8,VCC*%
%TO.N,+5V*%
X36165000Y-52440000D03*
%TO.P,U2,9,NC*%
%TO.N,unconnected-(U2-NC-Pad9)*%
X36165000Y-52940000D03*
%TO.P,U2,10,A16*%
%TO.N,R3*%
X36165000Y-53440000D03*
%TO.P,U2,11,A14*%
%TO.N,R1*%
X36165000Y-53940000D03*
%TO.P,U2,12,A12*%
%TO.N,A12*%
X36165000Y-54440000D03*
%TO.P,U2,13,A7*%
%TO.N,A7*%
X36165000Y-54940000D03*
%TO.P,U2,14,A6*%
%TO.N,A6*%
X36165000Y-55440000D03*
%TO.P,U2,15,A5*%
%TO.N,A5*%
X36165000Y-55940000D03*
%TO.P,U2,16,A4*%
%TO.N,A4*%
X36165000Y-56440000D03*
%TO.P,U2,17,A3*%
%TO.N,A3*%
X55540000Y-56440000D03*
%TO.P,U2,18,A2*%
%TO.N,A2*%
X55540000Y-55940000D03*
%TO.P,U2,19,A1*%
%TO.N,A1*%
X55540000Y-55440000D03*
%TO.P,U2,20,A0*%
%TO.N,A0*%
X55540000Y-54940000D03*
%TO.P,U2,21,I/O0*%
%TO.N,D0*%
X55540000Y-54440000D03*
%TO.P,U2,22,I/O1*%
%TO.N,D1*%
X55540000Y-53940000D03*
%TO.P,U2,23,I/O2*%
%TO.N,D2*%
X55540000Y-53440000D03*
%TO.P,U2,24,GND*%
%TO.N,GND*%
X55540000Y-52940000D03*
%TO.P,U2,25,I/O3*%
%TO.N,D3*%
X55540000Y-52440000D03*
%TO.P,U2,26,I/O4*%
%TO.N,D4*%
X55540000Y-51940000D03*
%TO.P,U2,27,I/O5*%
%TO.N,D5*%
X55540000Y-51440000D03*
%TO.P,U2,28,I/O6*%
%TO.N,D6*%
X55540000Y-50940000D03*
%TO.P,U2,29,I/O7*%
%TO.N,D7*%
X55540000Y-50440000D03*
%TO.P,U2,30,~{CS1}/~{CE1}*%
%TO.N,~{CS1}*%
X55540000Y-49940000D03*
%TO.P,U2,31,A10*%
%TO.N,A10*%
X55540000Y-49440000D03*
%TO.P,U2,32,~{OE}*%
%TO.N,~{RD}*%
X55540000Y-48940000D03*
%TD*%
D19*
%TO.P,U1,1,I/O/TDI*%
%TO.N,TDI*%
X68001181Y-59741865D03*
%TO.P,U1,2,I/O*%
%TO.N,A0*%
X68566866Y-60307550D03*
%TO.P,U1,3,I/O*%
%TO.N,A1*%
X69132552Y-60873236D03*
%TO.P,U1,4,GND*%
%TO.N,GND*%
X69698237Y-61438921D03*
%TO.P,U1,5,I/O/PD1*%
%TO.N,~{CS3}*%
X70263922Y-62004607D03*
%TO.P,U1,6,I/O*%
%TO.N,A2*%
X70829608Y-62570292D03*
%TO.P,U1,7,I/O/TMS*%
%TO.N,TMS*%
X71395293Y-63135978D03*
%TO.P,U1,8,I/O*%
%TO.N,A3*%
X71960979Y-63701663D03*
%TO.P,U1,9,VCC*%
%TO.N,+5V*%
X72526664Y-64267348D03*
%TO.P,U1,10,I/O*%
%TO.N,A4*%
X73092350Y-64833034D03*
%TO.P,U1,11,I/O*%
%TO.N,A5*%
X73658035Y-65398719D03*
D20*
%TO.P,U1,12,I/O*%
%TO.N,A6*%
X76009165Y-65398719D03*
%TO.P,U1,13,I/O*%
%TO.N,A7*%
X76574850Y-64833034D03*
%TO.P,U1,14,I/O*%
%TO.N,~{CS4}*%
X77140536Y-64267348D03*
%TO.P,U1,15,I/O*%
%TO.N,~{IORQ}*%
X77706221Y-63701663D03*
%TO.P,U1,16,GND*%
%TO.N,GND*%
X78271907Y-63135978D03*
%TO.P,U1,17,VCC*%
%TO.N,+5V*%
X78837592Y-62570292D03*
%TO.P,U1,18,I/O*%
%TO.N,~{RD}*%
X79403278Y-62004607D03*
%TO.P,U1,19,I/O/PD2*%
%TO.N,~{CS1}*%
X79968963Y-61438921D03*
%TO.P,U1,20,I/O*%
%TO.N,~{WR}*%
X80534648Y-60873236D03*
%TO.P,U1,21,I/O*%
%TO.N,RAMS2*%
X81100334Y-60307550D03*
%TO.P,U1,22,I/O*%
%TO.N,~{CS2}*%
X81666019Y-59741865D03*
D19*
%TO.P,U1,23,I/O*%
%TO.N,D0*%
X81666019Y-57390735D03*
%TO.P,U1,24,GND*%
%TO.N,GND*%
X81100334Y-56825050D03*
%TO.P,U1,25,I/O*%
%TO.N,D1*%
X80534648Y-56259364D03*
%TO.P,U1,26,I/O/TCK*%
%TO.N,TCK*%
X79968963Y-55693679D03*
%TO.P,U1,27,I/O*%
%TO.N,D2*%
X79403278Y-55127993D03*
%TO.P,U1,28,I/O*%
%TO.N,D3*%
X78837592Y-54562308D03*
%TO.P,U1,29,VCC*%
%TO.N,+5V*%
X78271907Y-53996622D03*
%TO.P,U1,30,I/O*%
%TO.N,D4*%
X77706221Y-53430937D03*
%TO.P,U1,31,I/O*%
%TO.N,D5*%
X77140536Y-52865252D03*
%TO.P,U1,32,I/O/TDO*%
%TO.N,TDO*%
X76574850Y-52299566D03*
%TO.P,U1,33,I/O*%
%TO.N,D6*%
X76009165Y-51733881D03*
D20*
%TO.P,U1,34,I/O*%
%TO.N,D7*%
X73658035Y-51733881D03*
%TO.P,U1,35,I/O/GCLK3*%
%TO.N,R0*%
X73092350Y-52299566D03*
%TO.P,U1,36,GND*%
%TO.N,GND*%
X72526664Y-52865252D03*
%TO.P,U1,37,I/GCLK1*%
%TO.N,A13*%
X71960979Y-53430937D03*
%TO.P,U1,38,I/OE1/Vpp*%
%TO.N,A14*%
X71395293Y-53996622D03*
%TO.P,U1,39,I/GCLR*%
%TO.N,~{RES}*%
X70829608Y-54562308D03*
%TO.P,U1,40,I/OE2/GCLK2*%
%TO.N,~{MRQ}*%
X70263922Y-55127993D03*
%TO.P,U1,41,VCC*%
%TO.N,+5V*%
X69698237Y-55693679D03*
%TO.P,U1,42,I/O*%
%TO.N,R1*%
X69132552Y-56259364D03*
%TO.P,U1,43,I/O*%
%TO.N,R2*%
X68566866Y-56825050D03*
%TO.P,U1,44,I/O*%
%TO.N,R3*%
X68001181Y-57390735D03*
%TD*%
D21*
%TO.P,C3,1*%
%TO.N,+5V*%
X24000000Y-83750000D03*
D13*
%TO.P,C3,2*%
%TO.N,GND*%
X26500000Y-83750000D03*
%TD*%
D11*
%TO.P,U3,1,A11*%
%TO.N,A11*%
X36165000Y-62492000D03*
%TO.P,U3,2,A9*%
%TO.N,A9*%
X36165000Y-62992000D03*
%TO.P,U3,3,A8*%
%TO.N,A8*%
X36165000Y-63492000D03*
%TO.P,U3,4,A13*%
%TO.N,R0*%
X36165000Y-63992000D03*
%TO.P,U3,5,~{WE}*%
%TO.N,~{WR}*%
X36165000Y-64492000D03*
%TO.P,U3,6,CS2/CE2*%
%TO.N,+5V*%
X36165000Y-64992000D03*
%TO.P,U3,7,A15*%
%TO.N,R2*%
X36165000Y-65492000D03*
%TO.P,U3,8,VCC*%
%TO.N,+5V*%
X36165000Y-65992000D03*
%TO.P,U3,9,NC*%
%TO.N,unconnected-(U3-NC-Pad9)*%
X36165000Y-66492000D03*
%TO.P,U3,10,A16*%
%TO.N,R3*%
X36165000Y-66992000D03*
%TO.P,U3,11,A14*%
%TO.N,R1*%
X36165000Y-67492000D03*
%TO.P,U3,12,A12*%
%TO.N,A12*%
X36165000Y-67992000D03*
%TO.P,U3,13,A7*%
%TO.N,A7*%
X36165000Y-68492000D03*
%TO.P,U3,14,A6*%
%TO.N,A6*%
X36165000Y-68992000D03*
%TO.P,U3,15,A5*%
%TO.N,A5*%
X36165000Y-69492000D03*
%TO.P,U3,16,A4*%
%TO.N,A4*%
X36165000Y-69992000D03*
%TO.P,U3,17,A3*%
%TO.N,A3*%
X55540000Y-69992000D03*
%TO.P,U3,18,A2*%
%TO.N,A2*%
X55540000Y-69492000D03*
%TO.P,U3,19,A1*%
%TO.N,A1*%
X55540000Y-68992000D03*
%TO.P,U3,20,A0*%
%TO.N,A0*%
X55540000Y-68492000D03*
%TO.P,U3,21,I/O0*%
%TO.N,D0*%
X55540000Y-67992000D03*
%TO.P,U3,22,I/O1*%
%TO.N,D1*%
X55540000Y-67492000D03*
%TO.P,U3,23,I/O2*%
%TO.N,D2*%
X55540000Y-66992000D03*
%TO.P,U3,24,GND*%
%TO.N,GND*%
X55540000Y-66492000D03*
%TO.P,U3,25,I/O3*%
%TO.N,D3*%
X55540000Y-65992000D03*
%TO.P,U3,26,I/O4*%
%TO.N,D4*%
X55540000Y-65492000D03*
%TO.P,U3,27,I/O5*%
%TO.N,D5*%
X55540000Y-64992000D03*
%TO.P,U3,28,I/O6*%
%TO.N,D6*%
X55540000Y-64492000D03*
%TO.P,U3,29,I/O7*%
%TO.N,D7*%
X55540000Y-63992000D03*
%TO.P,U3,30,~{CS1}/~{CE1}*%
%TO.N,~{CS2}*%
X55540000Y-63492000D03*
%TO.P,U3,31,A10*%
%TO.N,A10*%
X55540000Y-62992000D03*
%TO.P,U3,32,~{OE}*%
%TO.N,~{RD}*%
X55540000Y-62492000D03*
%TD*%
%TO.P,U5,1,A11*%
%TO.N,A11*%
X93472000Y-62492000D03*
%TO.P,U5,2,A9*%
%TO.N,A9*%
X93472000Y-62992000D03*
%TO.P,U5,3,A8*%
%TO.N,A8*%
X93472000Y-63492000D03*
%TO.P,U5,4,A13*%
%TO.N,R0*%
X93472000Y-63992000D03*
%TO.P,U5,5,~{WE}*%
%TO.N,~{WR}*%
X93472000Y-64492000D03*
%TO.P,U5,6,CS2/CE2*%
%TO.N,+5V*%
X93472000Y-64992000D03*
%TO.P,U5,7,A15*%
%TO.N,R2*%
X93472000Y-65492000D03*
%TO.P,U5,8,VCC*%
%TO.N,+5V*%
X93472000Y-65992000D03*
%TO.P,U5,9,NC*%
%TO.N,unconnected-(U5-NC-Pad9)*%
X93472000Y-66492000D03*
%TO.P,U5,10,A16*%
%TO.N,R3*%
X93472000Y-66992000D03*
%TO.P,U5,11,A14*%
%TO.N,R1*%
X93472000Y-67492000D03*
%TO.P,U5,12,A12*%
%TO.N,A12*%
X93472000Y-67992000D03*
%TO.P,U5,13,A7*%
%TO.N,A7*%
X93472000Y-68492000D03*
%TO.P,U5,14,A6*%
%TO.N,A6*%
X93472000Y-68992000D03*
%TO.P,U5,15,A5*%
%TO.N,A5*%
X93472000Y-69492000D03*
%TO.P,U5,16,A4*%
%TO.N,A4*%
X93472000Y-69992000D03*
%TO.P,U5,17,A3*%
%TO.N,A3*%
X112847000Y-69992000D03*
%TO.P,U5,18,A2*%
%TO.N,A2*%
X112847000Y-69492000D03*
%TO.P,U5,19,A1*%
%TO.N,A1*%
X112847000Y-68992000D03*
%TO.P,U5,20,A0*%
%TO.N,A0*%
X112847000Y-68492000D03*
%TO.P,U5,21,I/O0*%
%TO.N,D0*%
X112847000Y-67992000D03*
%TO.P,U5,22,I/O1*%
%TO.N,D1*%
X112847000Y-67492000D03*
%TO.P,U5,23,I/O2*%
%TO.N,D2*%
X112847000Y-66992000D03*
%TO.P,U5,24,GND*%
%TO.N,GND*%
X112847000Y-66492000D03*
%TO.P,U5,25,I/O3*%
%TO.N,D3*%
X112847000Y-65992000D03*
%TO.P,U5,26,I/O4*%
%TO.N,D4*%
X112847000Y-65492000D03*
%TO.P,U5,27,I/O5*%
%TO.N,D5*%
X112847000Y-64992000D03*
%TO.P,U5,28,I/O6*%
%TO.N,D6*%
X112847000Y-64492000D03*
%TO.P,U5,29,I/O7*%
%TO.N,D7*%
X112847000Y-63992000D03*
%TO.P,U5,30,~{CS1}/~{CE1}*%
%TO.N,~{CS4}*%
X112847000Y-63492000D03*
%TO.P,U5,31,A10*%
%TO.N,A10*%
X112847000Y-62992000D03*
%TO.P,U5,32,~{OE}*%
%TO.N,~{RD}*%
X112847000Y-62492000D03*
%TD*%
D14*
%TO.P,C4,1*%
%TO.N,+5V*%
X90805000Y-64777800D03*
%TO.P,C4,2*%
%TO.N,GND*%
X90805000Y-66852800D03*
%TD*%
D22*
%TO.P,C7,1*%
%TO.N,+5V*%
X69233623Y-66016323D03*
%TO.P,C7,2*%
%TO.N,GND*%
X67766377Y-64549077D03*
%TD*%
D23*
%TO.P,J3,1,Pin_1*%
%TO.N,GND*%
X25658000Y-49020000D03*
D24*
%TO.P,J3,2,Pin_2*%
%TO.N,VCC*%
X25658000Y-54100000D03*
%TD*%
D25*
%TO.P,C8,1*%
%TO.N,+5V*%
X81766377Y-52049077D03*
%TO.P,C8,2*%
%TO.N,GND*%
X83233623Y-53516323D03*
%TD*%
D17*
%TO.P,J1,1,Pin_1*%
%TO.N,GND*%
X99055000Y-80518000D03*
D16*
%TO.P,J1,2,Pin_2*%
%TO.N,unconnected-(J1-Pin_2-Pad2)*%
X99055000Y-77978000D03*
%TO.P,J1,3,Pin_3*%
%TO.N,D0*%
X96515000Y-80518000D03*
%TO.P,J1,4,Pin_4*%
%TO.N,D1*%
X96515000Y-77978000D03*
%TO.P,J1,5,Pin_5*%
%TO.N,D2*%
X93975000Y-80518000D03*
%TO.P,J1,6,Pin_6*%
%TO.N,D3*%
X93975000Y-77978000D03*
%TO.P,J1,7,Pin_7*%
%TO.N,D4*%
X91435000Y-80518000D03*
%TO.P,J1,8,Pin_8*%
%TO.N,D5*%
X91435000Y-77978000D03*
%TO.P,J1,9,Pin_9*%
%TO.N,D6*%
X88895000Y-80518000D03*
%TO.P,J1,10,Pin_10*%
%TO.N,D7*%
X88895000Y-77978000D03*
%TO.P,J1,11,Pin_11*%
%TO.N,A0*%
X86355000Y-80518000D03*
%TO.P,J1,12,Pin_12*%
%TO.N,A1*%
X86355000Y-77978000D03*
%TO.P,J1,13,Pin_13*%
%TO.N,A2*%
X83815000Y-80518000D03*
%TO.P,J1,14,Pin_14*%
%TO.N,A3*%
X83815000Y-77978000D03*
%TO.P,J1,15,Pin_15*%
%TO.N,A4*%
X81275000Y-80518000D03*
%TO.P,J1,16,Pin_16*%
%TO.N,A5*%
X81275000Y-77978000D03*
%TO.P,J1,17,Pin_17*%
%TO.N,A6*%
X78735000Y-80518000D03*
%TO.P,J1,18,Pin_18*%
%TO.N,A7*%
X78735000Y-77978000D03*
%TO.P,J1,19,Pin_19*%
%TO.N,A8*%
X76195000Y-80518000D03*
%TO.P,J1,20,Pin_20*%
%TO.N,A9*%
X76195000Y-77978000D03*
%TO.P,J1,21,Pin_21*%
%TO.N,A10*%
X73655000Y-80518000D03*
%TO.P,J1,22,Pin_22*%
%TO.N,A11*%
X73655000Y-77978000D03*
%TO.P,J1,23,Pin_23*%
%TO.N,A12*%
X71115000Y-80518000D03*
%TO.P,J1,24,Pin_24*%
%TO.N,A13*%
X71115000Y-77978000D03*
%TO.P,J1,25,Pin_25*%
%TO.N,A14*%
X68575000Y-80518000D03*
%TO.P,J1,26,Pin_26*%
%TO.N,RAMS2*%
X68575000Y-77978000D03*
%TO.P,J1,27,Pin_27*%
%TO.N,~{MRQ}*%
X66035000Y-80518000D03*
%TO.P,J1,28,Pin_28*%
%TO.N,~{RD}*%
X66035000Y-77978000D03*
%TO.P,J1,29,Pin_29*%
%TO.N,unconnected-(J1-Pin_29-Pad29)*%
X63495000Y-80518000D03*
%TO.P,J1,30,Pin_30*%
%TO.N,~{WR}*%
X63495000Y-77978000D03*
%TO.P,J1,31,Pin_31*%
%TO.N,~{IORQ}*%
X60955000Y-80518000D03*
%TO.P,J1,32,Pin_32*%
%TO.N,unconnected-(J1-Pin_32-Pad32)*%
X60955000Y-77978000D03*
%TO.P,J1,33,Pin_33*%
%TO.N,unconnected-(J1-Pin_33-Pad33)*%
X58415000Y-80518000D03*
%TO.P,J1,34,Pin_34*%
%TO.N,~{RES}*%
X58415000Y-77978000D03*
%TO.P,J1,35,Pin_35*%
%TO.N,unconnected-(J1-Pin_35-Pad35)*%
X55875000Y-80518000D03*
%TO.P,J1,36,Pin_36*%
%TO.N,unconnected-(J1-Pin_36-Pad36)*%
X55875000Y-77978000D03*
%TO.P,J1,37,Pin_37*%
%TO.N,unconnected-(J1-Pin_37-Pad37)*%
X53335000Y-80518000D03*
%TO.P,J1,38,Pin_38*%
%TO.N,unconnected-(J1-Pin_38-Pad38)*%
X53335000Y-77978000D03*
%TO.P,J1,39,Pin_39*%
%TO.N,unconnected-(J1-Pin_39-Pad39)*%
X50795000Y-80518000D03*
%TO.P,J1,40,Pin_40*%
%TO.N,unconnected-(J1-Pin_40-Pad40)*%
X50795000Y-77978000D03*
%TD*%
D26*
%TO.N,D2*%
X76290000Y-57695000D03*
%TO.N,D3*%
X77169502Y-55908000D03*
%TO.N,R3*%
X96020000Y-66941800D03*
X95091100Y-55175700D03*
X58781200Y-57901800D03*
X51032700Y-62423900D03*
%TO.N,R1*%
X95526900Y-67863200D03*
X94964000Y-54175500D03*
X65556200Y-68412900D03*
X61597400Y-56495700D03*
X39945900Y-56509900D03*
X38797300Y-65212100D03*
%TO.N,R2*%
X95481200Y-66066100D03*
X95468400Y-56686700D03*
X38761700Y-51622700D03*
X70775400Y-57478900D03*
X38244400Y-62867400D03*
X82242800Y-58946800D03*
%TO.N,R0*%
X33750800Y-49437300D03*
X74193100Y-53233200D03*
X82330400Y-49873600D03*
X33750800Y-63496200D03*
%TO.N,TDI*%
X73270200Y-57384600D03*
%TO.N,TCK*%
X85195200Y-52365700D03*
%TO.N,TDO*%
X90227900Y-47800100D03*
%TO.N,~{CS4}*%
X78821000Y-65858700D03*
X107406200Y-61622300D03*
%TO.N,~{CS1}*%
X57586700Y-51429600D03*
X76532900Y-59839900D03*
%TO.N,TMS*%
X70065000Y-63896300D03*
%TO.N,~{CS3}*%
X72161100Y-60229200D03*
X76170300Y-55948000D03*
%TO.N,+5V*%
X85090000Y-64770000D03*
X32385000Y-64770000D03*
X31750000Y-50800000D03*
X66040000Y-50800000D03*
X70485000Y-67310000D03*
X83185000Y-63500000D03*
X83820000Y-50165000D03*
%TO.N,~{CS2}*%
X77495400Y-59149500D03*
X70419700Y-71488400D03*
%TO.N,GND*%
X74930000Y-58420000D03*
%TO.N,~{RES}*%
X59798000Y-58303900D03*
%TO.N,~{IORQ}*%
X78664500Y-64734500D03*
%TO.N,~{WR}*%
X37559900Y-63649400D03*
X65072800Y-72563800D03*
X37559900Y-50940000D03*
%TO.N,~{RD}*%
X113525300Y-61734900D03*
X77821800Y-61434700D03*
X55043000Y-81759300D03*
X111022900Y-49407300D03*
X54141100Y-61519400D03*
%TO.N,~{MRQ}*%
X61827100Y-60351100D03*
%TO.N,RAMS2*%
X78838300Y-60043700D03*
%TO.N,A14*%
X67057600Y-76793800D03*
X75108000Y-64161900D03*
X72206600Y-61300100D03*
X73438400Y-56116800D03*
%TO.N,A13*%
X62769700Y-76396500D03*
X60505300Y-59011200D03*
X66917600Y-57915200D03*
X70330400Y-52644200D03*
%TO.N,A12*%
X92065800Y-54455000D03*
X94865300Y-68622200D03*
X71016400Y-76067400D03*
X75847900Y-70251100D03*
%TO.N,A11*%
X91309500Y-62230900D03*
X35844600Y-60967900D03*
X44497200Y-74940400D03*
X36255800Y-48162500D03*
%TO.N,A10*%
X55716900Y-82911900D03*
X114279600Y-62992000D03*
X114246500Y-49799700D03*
X52539900Y-64117800D03*
%TO.N,A9*%
X36569800Y-61691700D03*
X91741700Y-61230700D03*
X37562600Y-49890500D03*
X48286100Y-74412500D03*
%TO.N,A8*%
X34753900Y-63216300D03*
X34764000Y-49525700D03*
X92209700Y-60191800D03*
X44437800Y-76543800D03*
%TO.N,A7*%
X89346000Y-67845100D03*
X91606000Y-55940400D03*
%TO.N,A6*%
X89571900Y-68849100D03*
X92514700Y-58284400D03*
%TO.N,A5*%
X90286200Y-69574200D03*
X92354700Y-57099000D03*
%TO.N,A4*%
X91959200Y-70202200D03*
X93598700Y-57205800D03*
X47806300Y-80323600D03*
X40804500Y-68594800D03*
%TO.N,A3*%
X58742000Y-68715500D03*
X56248700Y-57583100D03*
X87188200Y-72808200D03*
%TO.N,A2*%
X57032700Y-69413100D03*
X111434100Y-70041600D03*
X111468000Y-60804800D03*
X57245500Y-59853500D03*
X77179900Y-67066100D03*
%TO.N,A1*%
X114554400Y-55534300D03*
X114816000Y-68992000D03*
X58082800Y-59276300D03*
X57720600Y-68228100D03*
%TO.N,A0*%
X111244700Y-68712400D03*
X111244700Y-62049500D03*
X61542700Y-69553900D03*
X61092500Y-61105700D03*
X86958800Y-73808400D03*
%TO.N,D7*%
X102699300Y-54612700D03*
X85890400Y-75427700D03*
%TO.N,D6*%
X86890600Y-75258600D03*
X104876900Y-64567300D03*
X103708000Y-54945600D03*
%TO.N,D5*%
X104469000Y-56246800D03*
X88338800Y-73803300D03*
%TO.N,D4*%
X105570300Y-56806900D03*
X105932000Y-65563400D03*
X78652400Y-51718900D03*
X66917200Y-62294600D03*
%TO.N,D3*%
X64654400Y-65752400D03*
X59214000Y-52198100D03*
X109625800Y-66059400D03*
X110229200Y-53000300D03*
%TO.N,D2*%
X64560600Y-67218900D03*
X60004500Y-53668900D03*
X108833400Y-66841500D03*
X108899300Y-54825300D03*
%TO.N,D1*%
X108471700Y-56569000D03*
X60034200Y-56160100D03*
X62510000Y-67742600D03*
X77854221Y-57700831D03*
%TO.N,D0*%
X110265700Y-68117800D03*
X54133100Y-67863900D03*
X56550100Y-59134300D03*
X111434400Y-54895300D03*
X87690000Y-55666200D03*
%TD*%
D27*
%TO.N,A2*%
X75021480Y-65258149D02*
X75021480Y-65496480D01*
X71563400Y-61836500D02*
X71599831Y-61836500D01*
X71599831Y-61836500D02*
X75021480Y-65258149D01*
X76591100Y-67066100D02*
X77179900Y-67066100D01*
X70803100Y-62596800D02*
X71563400Y-61836500D01*
X75021480Y-65496480D02*
X76591100Y-67066100D01*
%TO.N,D2*%
X77351000Y-56634000D02*
X76290000Y-57695000D01*
X78069300Y-56634000D02*
X77351000Y-56634000D01*
X78427700Y-56275600D02*
X78069300Y-56634000D01*
%TO.N,D3*%
X77169502Y-55908000D02*
X77349900Y-55908000D01*
%TO.N,D1*%
X79009000Y-57785000D02*
X80561200Y-56232800D01*
X77854221Y-57700831D02*
X77854221Y-57723721D01*
X77854221Y-57723721D02*
X77915500Y-57785000D01*
X77915500Y-57785000D02*
X79009000Y-57785000D01*
%TO.N,GND*%
X77191180Y-58420000D02*
X74930000Y-58420000D01*
X77796120Y-58423500D02*
X77194680Y-58423500D01*
X79368200Y-58557200D02*
X77929820Y-58557200D01*
X81915000Y-54834900D02*
X81915000Y-56010400D01*
X81915000Y-56010400D02*
X79368200Y-58557200D01*
X77194680Y-58423500D02*
X77191180Y-58420000D01*
X77929820Y-58557200D02*
X77796120Y-58423500D01*
X83409900Y-53340000D02*
X81915000Y-54834900D01*
X90805000Y-53340000D02*
X83409900Y-53340000D01*
%TO.N,~{CS2}*%
X77636700Y-59008200D02*
X80932300Y-59008200D01*
X77495400Y-59149500D02*
X77636700Y-59008200D01*
X80932300Y-59008200D02*
X81692500Y-59768400D01*
%TO.N,R3*%
X94614300Y-53455000D02*
X93472000Y-53455000D01*
X94711600Y-53357700D02*
X94614300Y-53455000D01*
X95171700Y-53357700D02*
X94711600Y-53357700D01*
X95695700Y-53881700D02*
X95171700Y-53357700D01*
X95695700Y-54571100D02*
X95695700Y-53881700D01*
X95091100Y-55175700D02*
X95695700Y-54571100D01*
X42048800Y-53440000D02*
X36165000Y-53440000D01*
X51032700Y-62423900D02*
X42048800Y-53440000D01*
X35311200Y-53440000D02*
X36165000Y-53440000D01*
X33652200Y-55099000D02*
X35311200Y-53440000D01*
X33652200Y-57231800D02*
X33652200Y-55099000D01*
X39018700Y-62598300D02*
X33652200Y-57231800D01*
X39018700Y-63965300D02*
X39018700Y-62598300D01*
X38072200Y-64911800D02*
X39018700Y-63965300D01*
X38072200Y-65972600D02*
X38072200Y-64911800D01*
X37052800Y-66992000D02*
X38072200Y-65972600D01*
X36165000Y-66992000D02*
X37052800Y-66992000D01*
X58781200Y-58312500D02*
X58781200Y-57901800D01*
X60205000Y-59736300D02*
X58781200Y-58312500D01*
X60805600Y-59736300D02*
X60205000Y-59736300D01*
X61299300Y-59242600D02*
X60805600Y-59736300D01*
X66654700Y-59242600D02*
X61299300Y-59242600D01*
X67974700Y-57922600D02*
X66654700Y-59242600D01*
X67974700Y-57364200D02*
X67974700Y-57922600D01*
X95902500Y-67059300D02*
X96020000Y-66941800D01*
X95835100Y-66992000D02*
X93472000Y-66992000D01*
X95902500Y-67059300D02*
X95835100Y-66992000D01*
X51032700Y-70109200D02*
X51032700Y-62423900D01*
X53762400Y-72838900D02*
X51032700Y-70109200D01*
X63772300Y-72838900D02*
X53762400Y-72838900D01*
X64772500Y-71838700D02*
X63772300Y-72838900D01*
X65373200Y-71838700D02*
X64772500Y-71838700D01*
X65813600Y-72279100D02*
X65373200Y-71838700D01*
X73030700Y-72279100D02*
X65813600Y-72279100D01*
X74615000Y-73863400D02*
X73030700Y-72279100D01*
X76821900Y-73863400D02*
X74615000Y-73863400D01*
X77753000Y-74794500D02*
X76821900Y-73863400D01*
X78164700Y-74794500D02*
X77753000Y-74794500D01*
X78240400Y-74870200D02*
X78164700Y-74794500D01*
X80601800Y-74870200D02*
X78240400Y-74870200D01*
X81051800Y-75320200D02*
X80601800Y-74870200D01*
X84757500Y-75320200D02*
X81051800Y-75320200D01*
X85590100Y-76152800D02*
X84757500Y-75320200D01*
X87021900Y-76152800D02*
X85590100Y-76152800D01*
X91347200Y-71827500D02*
X87021900Y-76152800D01*
X94326700Y-71827500D02*
X91347200Y-71827500D01*
X96295300Y-69858900D02*
X94326700Y-71827500D01*
X96295300Y-67452200D02*
X96295300Y-69858900D01*
X95902500Y-67059300D02*
X96295300Y-67452200D01*
%TO.N,R1*%
X69106000Y-56232800D02*
X68345900Y-55472600D01*
X37376000Y-53940000D02*
X36165000Y-53940000D01*
X39945900Y-56509900D02*
X37376000Y-53940000D01*
X94743500Y-53955000D02*
X94964000Y-54175500D01*
X93472000Y-53955000D02*
X94743500Y-53955000D01*
X61861000Y-56495700D02*
X61597400Y-56495700D01*
X62609900Y-55746800D02*
X61861000Y-56495700D01*
X68071700Y-55746800D02*
X62609900Y-55746800D01*
X68345900Y-55472600D02*
X68071700Y-55746800D01*
X37228400Y-67492000D02*
X36165000Y-67492000D01*
X38797300Y-65923100D02*
X37228400Y-67492000D01*
X38797300Y-65212100D02*
X38797300Y-65923100D01*
X95536500Y-67853600D02*
X95526900Y-67863200D01*
X95174900Y-67492000D02*
X95536500Y-67853600D01*
X93472000Y-67492000D02*
X95174900Y-67492000D01*
X72984100Y-68412900D02*
X65556200Y-68412900D01*
X75613400Y-71042200D02*
X72984100Y-68412900D01*
X77183700Y-71042200D02*
X75613400Y-71042200D01*
X77304300Y-71162800D02*
X77183700Y-71042200D01*
X84632400Y-71162800D02*
X77304300Y-71162800D01*
X84670700Y-71201100D02*
X84632400Y-71162800D01*
X86955400Y-71201100D02*
X84670700Y-71201100D01*
X87131700Y-71377400D02*
X86955400Y-71201100D01*
X94140200Y-71377400D02*
X87131700Y-71377400D01*
X95603400Y-69914200D02*
X94140200Y-71377400D01*
X95603400Y-67939700D02*
X95603400Y-69914200D01*
X95526900Y-67863200D02*
X95603400Y-67939700D01*
%TO.N,R2*%
X94405600Y-51955000D02*
X93472000Y-51955000D01*
X96227200Y-53776600D02*
X94405600Y-51955000D01*
X96227200Y-55927900D02*
X96227200Y-53776600D01*
X95468400Y-56686700D02*
X96227200Y-55927900D01*
X68540300Y-56798500D02*
X69300600Y-57558700D01*
X69380400Y-57478900D02*
X70775400Y-57478900D01*
X69300600Y-57558700D02*
X69380400Y-57478900D01*
X38444400Y-51940000D02*
X38761700Y-51622700D01*
X36165000Y-51940000D02*
X38444400Y-51940000D01*
X38297000Y-62920000D02*
X38244400Y-62867400D01*
X38297000Y-64013600D02*
X38297000Y-62920000D01*
X37609300Y-64701300D02*
X38297000Y-64013600D01*
X37609300Y-64916800D02*
X37609300Y-64701300D01*
X37034100Y-65492000D02*
X37609300Y-64916800D01*
X36165000Y-65492000D02*
X37034100Y-65492000D01*
X94907100Y-65492000D02*
X95481200Y-66066100D01*
X93472000Y-65492000D02*
X94907100Y-65492000D01*
X95468400Y-57107200D02*
X95468400Y-56686700D01*
X93559100Y-59016500D02*
X95468400Y-57107200D01*
X82312500Y-59016500D02*
X93559100Y-59016500D01*
X82242800Y-58946800D02*
X82312500Y-59016500D01*
%TO.N,R0*%
X34652900Y-50440000D02*
X36165000Y-50440000D01*
X33750800Y-49537900D02*
X34652900Y-50440000D01*
X33750800Y-49437300D02*
X33750800Y-49537900D01*
X74026000Y-53233200D02*
X74193100Y-53233200D01*
X73065800Y-52273000D02*
X74026000Y-53233200D01*
X92606300Y-50455000D02*
X93472000Y-50455000D01*
X91608900Y-49457500D02*
X92606300Y-50455000D01*
X91608800Y-49457600D02*
X91608900Y-49457500D01*
X90690400Y-49457600D02*
X91608800Y-49457600D01*
X90672600Y-49439800D02*
X90690400Y-49457600D01*
X82764200Y-49439800D02*
X90672600Y-49439800D01*
X82330400Y-49873600D02*
X82764200Y-49439800D01*
X94381700Y-63992000D02*
X93472000Y-63992000D01*
X98524900Y-59848800D02*
X94381700Y-63992000D01*
X98524900Y-52400000D02*
X98524900Y-59848800D01*
X98169400Y-52044500D02*
X98524900Y-52400000D01*
X98169400Y-51761200D02*
X98169400Y-52044500D01*
X94887700Y-48479500D02*
X98169400Y-51761200D01*
X92586900Y-48479500D02*
X94887700Y-48479500D01*
X91608900Y-49457500D02*
X92586900Y-48479500D01*
X34008400Y-63496200D02*
X33750800Y-63496200D01*
X34504200Y-63992000D02*
X34008400Y-63496200D01*
X36165000Y-63992000D02*
X34504200Y-63992000D01*
%TO.N,TDI*%
X72539600Y-57384600D02*
X73270200Y-57384600D01*
X70916000Y-59008200D02*
X72539600Y-57384600D01*
X68734900Y-59008200D02*
X70916000Y-59008200D01*
X67974700Y-59768400D02*
X68734900Y-59008200D01*
%TO.N,TCK*%
X79995500Y-55667200D02*
X80755800Y-54906900D01*
X83092100Y-52365700D02*
X85195200Y-52365700D01*
X80755700Y-54702100D02*
X83092100Y-52365700D01*
X80755700Y-54906900D02*
X80755700Y-54702100D01*
X80755800Y-54906900D02*
X80755700Y-54906900D01*
%TO.N,TDO*%
X80909100Y-47800100D02*
X90227900Y-47800100D01*
X77361600Y-51347600D02*
X80909100Y-47800100D01*
X77361600Y-51512700D02*
X77361600Y-51347600D01*
X77361700Y-51512700D02*
X77361600Y-51512700D01*
X76601400Y-52273000D02*
X77361700Y-51512700D01*
%TO.N,~{CS4}*%
X110990800Y-63492000D02*
X112847000Y-63492000D01*
X109121100Y-61622300D02*
X110990800Y-63492000D01*
X107406200Y-61622300D02*
X109121100Y-61622300D01*
X78731900Y-65858700D02*
X78821000Y-65858700D01*
X77167100Y-64293900D02*
X78731900Y-65858700D01*
%TO.N,~{CS1}*%
X57586700Y-51131000D02*
X57586700Y-51429600D01*
X56395700Y-49940000D02*
X57586700Y-51131000D01*
X55540000Y-49940000D02*
X56395700Y-49940000D01*
X79135400Y-60805100D02*
X79235300Y-60705200D01*
X78574300Y-60805100D02*
X79135400Y-60805100D01*
X78432700Y-60663500D02*
X78574300Y-60805100D01*
X77356500Y-60663500D02*
X78432700Y-60663500D01*
X76532900Y-59839900D02*
X77356500Y-60663500D01*
X79995500Y-61465400D02*
X79235300Y-60705200D01*
%TO.N,TMS*%
X70582100Y-63896300D02*
X70065000Y-63896300D01*
X70608600Y-63922700D02*
X70582100Y-63896300D01*
X71368800Y-63162500D02*
X70608600Y-63922700D01*
%TO.N,~{CS3}*%
X71119400Y-61270900D02*
X72161100Y-60229200D01*
X70997700Y-61270900D02*
X71119400Y-61270900D01*
X70997700Y-61270800D02*
X70997700Y-61270900D01*
X70237400Y-62031100D02*
X70997700Y-61270800D01*
X111500700Y-49955000D02*
X112847000Y-49955000D01*
X111323300Y-50132400D02*
X111500700Y-49955000D01*
X110722600Y-50132400D02*
X111323300Y-50132400D01*
X107128700Y-46538500D02*
X110722600Y-50132400D01*
X80324400Y-46538500D02*
X107128700Y-46538500D01*
X74924600Y-51938300D02*
X80324400Y-46538500D01*
X74924600Y-54523300D02*
X74924600Y-51938300D01*
X76170300Y-55769000D02*
X74924600Y-54523300D01*
X76170300Y-55948000D02*
X76170300Y-55769000D01*
D28*
%TO.N,+5V*%
X85097800Y-64777800D02*
X90805000Y-64777800D01*
X85090000Y-64770000D02*
X85097800Y-64777800D01*
D27*
X91995000Y-52455000D02*
X90995000Y-51455000D01*
X93472000Y-52455000D02*
X91995000Y-52455000D01*
X90995000Y-51455000D02*
X90805000Y-51265000D01*
X93472000Y-51455000D02*
X90995000Y-51455000D01*
D28*
X84920000Y-51265000D02*
X90805000Y-51265000D01*
X83820000Y-50165000D02*
X84920000Y-51265000D01*
D27*
X92019200Y-65992000D02*
X91019200Y-64992000D01*
X93472000Y-65992000D02*
X92019200Y-65992000D01*
X91019200Y-64992000D02*
X93472000Y-64992000D01*
X90805000Y-64777800D02*
X91019200Y-64992000D01*
D28*
X32385000Y-64770000D02*
X33655000Y-64770000D01*
D27*
X34877000Y-65992000D02*
X33877000Y-64992000D01*
X36165000Y-65992000D02*
X34877000Y-65992000D01*
X33877000Y-64992000D02*
X33655000Y-64770000D01*
X36165000Y-64992000D02*
X33877000Y-64992000D01*
X34819000Y-52440000D02*
X33655000Y-51276000D01*
X36165000Y-52440000D02*
X34819000Y-52440000D01*
X33819000Y-51440000D02*
X33655000Y-51276000D01*
X36165000Y-51440000D02*
X33819000Y-51440000D01*
D28*
X32226000Y-51276000D02*
X31750000Y-50800000D01*
X33655000Y-51276000D02*
X32226000Y-51276000D01*
X69233600Y-66058600D02*
X70107700Y-66932700D01*
X69233600Y-66016300D02*
X69233600Y-66058600D01*
D27*
X71740000Y-65300400D02*
X70107700Y-66932700D01*
X71740000Y-65054000D02*
X71740000Y-65300400D01*
X72500100Y-64293900D02*
X71740000Y-65054000D01*
D28*
X70107700Y-66932700D02*
X70485000Y-67310000D01*
D27*
X81033700Y-64766400D02*
X78864100Y-62596800D01*
X81733600Y-64766400D02*
X81033700Y-64766400D01*
D28*
X81935900Y-52049100D02*
X83820000Y-50165000D01*
X81766400Y-52049100D02*
X81935900Y-52049100D01*
X81918600Y-64766400D02*
X83185000Y-63500000D01*
X81733600Y-64766400D02*
X81918600Y-64766400D01*
X67516400Y-52276400D02*
X66040000Y-50800000D01*
X67516400Y-52483600D02*
X67516400Y-52276400D01*
D27*
X80219400Y-52049100D02*
X78298400Y-53970100D01*
X81766400Y-52049100D02*
X80219400Y-52049100D01*
X67516400Y-52963200D02*
X67516400Y-52483600D01*
X68281200Y-53728000D02*
X67516400Y-52963200D01*
X68281200Y-53994100D02*
X68281200Y-53728000D01*
X68911500Y-54624400D02*
X68281200Y-53994100D01*
X68911500Y-54906900D02*
X68911500Y-54624400D01*
X69671700Y-55667200D02*
X68911500Y-54906900D01*
X33877000Y-64992000D02*
X33655000Y-64770000D01*
X91019200Y-64992000D02*
X90805000Y-64777800D01*
X90995000Y-51455000D02*
X90805000Y-51265000D01*
%TO.N,~{CS2}*%
X54191100Y-63492000D02*
X55540000Y-63492000D01*
X52001400Y-65681700D02*
X54191100Y-63492000D01*
X52001400Y-70441300D02*
X52001400Y-65681700D01*
X53948900Y-72388800D02*
X52001400Y-70441300D01*
X63585800Y-72388800D02*
X53948900Y-72388800D01*
X64586000Y-71388600D02*
X63585800Y-72388800D01*
X70319900Y-71388600D02*
X64586000Y-71388600D01*
X70419700Y-71488400D02*
X70319900Y-71388600D01*
%TO.N,GND*%
X74930000Y-55268600D02*
X74930000Y-58420000D01*
X72500100Y-52838700D02*
X74930000Y-55268600D01*
X74930000Y-59794100D02*
X74930000Y-58420000D01*
X78298400Y-63162500D02*
X74930000Y-59794100D01*
X62230000Y-52940000D02*
X55540000Y-52940000D01*
X65640000Y-49530000D02*
X62230000Y-52940000D01*
X67310000Y-49530000D02*
X65640000Y-49530000D01*
X67310000Y-45085000D02*
X67310000Y-49530000D01*
D29*
X67497200Y-49530000D02*
X68983600Y-51016400D01*
X67497200Y-45272200D02*
X67497200Y-49530000D01*
X67310000Y-45085000D02*
X67497200Y-45272200D01*
D27*
X128722000Y-66492000D02*
X128905000Y-66675000D01*
X112847000Y-66492000D02*
X128722000Y-66492000D01*
X124300000Y-51976000D02*
X125476000Y-50800000D01*
X121867000Y-51976000D02*
X124300000Y-51976000D01*
X120888000Y-52955000D02*
X121867000Y-51976000D01*
X112847000Y-52955000D02*
X120888000Y-52955000D01*
X80885600Y-66852800D02*
X80266400Y-66233600D01*
X90805000Y-66852800D02*
X80885600Y-66852800D01*
X65823500Y-66492000D02*
X67766400Y-64549100D01*
X55540000Y-66492000D02*
X65823500Y-66492000D01*
D29*
X28110000Y-66845000D02*
X33655000Y-66845000D01*
X26255000Y-64990000D02*
X28110000Y-66845000D01*
X23500000Y-64990000D02*
X26255000Y-64990000D01*
D28*
X29989000Y-53351000D02*
X25658000Y-49020000D01*
X33655000Y-53351000D02*
X29989000Y-53351000D01*
D27*
X67766400Y-63370700D02*
X67766400Y-64549100D01*
X68911500Y-62225600D02*
X67766400Y-63370700D01*
D29*
X128905000Y-46355000D02*
X128905000Y-51435000D01*
X127635000Y-45085000D02*
X128905000Y-46355000D01*
X67310000Y-45085000D02*
X127635000Y-45085000D01*
D28*
X128270000Y-60960000D02*
X128905000Y-61595000D01*
X125476000Y-60960000D02*
X128270000Y-60960000D01*
D29*
X128905000Y-51435000D02*
X128905000Y-61595000D01*
D27*
X72717100Y-58420000D02*
X74930000Y-58420000D01*
X69671700Y-61465400D02*
X72717100Y-58420000D01*
X69671700Y-61465400D02*
X68911500Y-62225600D01*
D29*
X99055000Y-86355000D02*
X99055000Y-80518000D01*
X101600000Y-88900000D02*
X99055000Y-86355000D01*
X128905000Y-61595000D02*
X128905000Y-66675000D01*
D28*
X128270000Y-50800000D02*
X128905000Y-51435000D01*
X125476000Y-50800000D02*
X128270000Y-50800000D01*
D27*
X70677800Y-51016400D02*
X68983600Y-51016400D01*
X72500100Y-52838700D02*
X70677800Y-51016400D01*
D29*
X26500000Y-87460000D02*
X26500000Y-83750000D01*
X27940000Y-88900000D02*
X26500000Y-87460000D01*
X101600000Y-88900000D02*
X27940000Y-88900000D01*
X23457000Y-64947000D02*
X23500000Y-64990000D01*
X23457000Y-51221000D02*
X23457000Y-64947000D01*
X25658000Y-49020000D02*
X23457000Y-51221000D01*
D27*
X80266400Y-65130500D02*
X78298400Y-63162500D01*
X80266400Y-66233600D02*
X80266400Y-65130500D01*
D29*
X128270000Y-88900000D02*
X101600000Y-88900000D01*
X128905000Y-88265000D02*
X128270000Y-88900000D01*
X128905000Y-66675000D02*
X128905000Y-88265000D01*
X29593000Y-45085000D02*
X67310000Y-45085000D01*
X25658000Y-49020000D02*
X29593000Y-45085000D01*
X26500000Y-81745000D02*
X26500000Y-83750000D01*
X21949000Y-77194000D02*
X26500000Y-81745000D01*
X21949000Y-66541000D02*
X21949000Y-77194000D01*
X23500000Y-64990000D02*
X21949000Y-66541000D01*
D27*
%TO.N,~{RES}*%
X70803100Y-54535800D02*
X70042900Y-53775500D01*
X70042900Y-53634300D02*
X70042900Y-53775500D01*
X66468700Y-50060100D02*
X70042900Y-53634300D01*
X65750500Y-50060100D02*
X66468700Y-50060100D01*
X62674500Y-53136100D02*
X65750500Y-50060100D01*
X62674500Y-53951100D02*
X62674500Y-53136100D01*
X60759300Y-55866300D02*
X62674500Y-53951100D01*
X60759300Y-56460500D02*
X60759300Y-55866300D01*
X60430200Y-56789600D02*
X60759300Y-56460500D01*
X60430200Y-56901000D02*
X60430200Y-56789600D01*
X60065300Y-57265900D02*
X60430200Y-56901000D01*
X60065300Y-57594700D02*
X60065300Y-57265900D01*
X59935200Y-57724800D02*
X60065300Y-57594700D01*
X59935200Y-58166700D02*
X59935200Y-57724800D01*
X59798000Y-58303900D02*
X59935200Y-58166700D01*
%TO.N,~{IORQ}*%
X77732700Y-63728200D02*
X78493000Y-64488400D01*
X78492900Y-64562900D02*
X78664500Y-64734500D01*
X78492900Y-64488500D02*
X78492900Y-64562900D01*
X78493000Y-64488400D02*
X78492900Y-64488500D01*
%TO.N,~{WR}*%
X80561200Y-60899800D02*
X81321400Y-61659900D01*
X37559900Y-63955200D02*
X37559900Y-63649400D01*
X37023100Y-64492000D02*
X37559900Y-63955200D01*
X36165000Y-64492000D02*
X37023100Y-64492000D01*
X36165000Y-50940000D02*
X37559900Y-50940000D01*
X81321400Y-61659900D02*
X89581800Y-61659900D01*
X89581800Y-62801800D02*
X89581800Y-61659900D01*
X90636200Y-63856200D02*
X89581800Y-62801800D01*
X91622000Y-63856200D02*
X90636200Y-63856200D01*
X92257800Y-64492000D02*
X91622000Y-63856200D01*
X93472000Y-64492000D02*
X92257800Y-64492000D01*
X94400800Y-50955000D02*
X93472000Y-50955000D01*
X96724500Y-53278700D02*
X94400800Y-50955000D01*
X96724500Y-56487800D02*
X96724500Y-53278700D01*
X93745600Y-59466700D02*
X96724500Y-56487800D01*
X91775000Y-59466700D02*
X93745600Y-59466700D01*
X89581800Y-61659900D02*
X91775000Y-59466700D01*
X65330700Y-72821700D02*
X65072800Y-72563800D01*
X72936700Y-72821700D02*
X65330700Y-72821700D01*
X75435300Y-75320300D02*
X72936700Y-72821700D01*
X80415300Y-75320300D02*
X75435300Y-75320300D01*
X80865300Y-75770300D02*
X80415300Y-75320300D01*
X81648000Y-75770300D02*
X80865300Y-75770300D01*
X82480600Y-76602900D02*
X81648000Y-75770300D01*
X87208400Y-76602900D02*
X82480600Y-76602900D01*
X91257500Y-72553800D02*
X87208400Y-76602900D01*
X94236900Y-72553800D02*
X91257500Y-72553800D01*
X96768700Y-70022000D02*
X94236900Y-72553800D01*
X96768700Y-66328100D02*
X96768700Y-70022000D01*
X94932600Y-64492000D02*
X96768700Y-66328100D01*
X93472000Y-64492000D02*
X94932600Y-64492000D01*
%TO.N,~{RD}*%
X78505700Y-61434700D02*
X77821800Y-61434700D01*
X78669600Y-61270800D02*
X78505700Y-61434700D01*
X79429800Y-62031100D02*
X78669600Y-61270800D01*
X63981600Y-81759300D02*
X55043000Y-81759300D01*
X64859900Y-80881000D02*
X63981600Y-81759300D01*
X64859900Y-79960900D02*
X64859900Y-80881000D01*
X65667700Y-79153100D02*
X64859900Y-79960900D01*
X66035000Y-79153100D02*
X65667700Y-79153100D01*
X66035000Y-77978000D02*
X66035000Y-79153100D01*
X113525300Y-61813700D02*
X113525300Y-61734900D01*
X112847000Y-62492000D02*
X113525300Y-61813700D01*
X111475200Y-48955000D02*
X111022900Y-49407300D01*
X112847000Y-48955000D02*
X111475200Y-48955000D01*
X54567400Y-61519400D02*
X55540000Y-62492000D01*
X54141100Y-61519400D02*
X54567400Y-61519400D01*
X54675400Y-48940000D02*
X55540000Y-48940000D01*
X52100300Y-51515100D02*
X54675400Y-48940000D01*
X52100300Y-59478600D02*
X52100300Y-51515100D01*
X54141100Y-61519400D02*
X52100300Y-59478600D01*
%TO.N,~{MRQ}*%
X71521400Y-56385500D02*
X70237400Y-55101500D01*
X71521400Y-57766100D02*
X71521400Y-56385500D01*
X70834400Y-58453100D02*
X71521400Y-57766100D01*
X68406300Y-58453100D02*
X70834400Y-58453100D01*
X66508300Y-60351100D02*
X68406300Y-58453100D01*
X61827100Y-60351100D02*
X66508300Y-60351100D01*
%TO.N,RAMS2*%
X81126900Y-60334100D02*
X80366700Y-59573800D01*
X79126800Y-60043700D02*
X78838300Y-60043700D01*
X79383100Y-59787400D02*
X79126800Y-60043700D01*
X80153100Y-59787400D02*
X79383100Y-59787400D01*
X80366700Y-59573800D02*
X80153100Y-59787400D01*
%TO.N,A14*%
X71368800Y-53970100D02*
X72129100Y-54730300D01*
X68575000Y-80518000D02*
X68575000Y-79342900D01*
X67399900Y-77136100D02*
X67057600Y-76793800D01*
X67399900Y-78535100D02*
X67399900Y-77136100D01*
X68207700Y-79342900D02*
X67399900Y-78535100D01*
X68575000Y-79342900D02*
X68207700Y-79342900D01*
X72246200Y-61300100D02*
X72206600Y-61300100D01*
X75108000Y-64161900D02*
X72246200Y-61300100D01*
X73438400Y-56039700D02*
X73438400Y-56116800D01*
X72129100Y-54730300D02*
X73438400Y-56039700D01*
%TO.N,A13*%
X71934500Y-53404400D02*
X71174300Y-52644100D01*
X71174200Y-52644200D02*
X70330400Y-52644200D01*
X71174300Y-52644100D02*
X71174200Y-52644200D01*
X71115000Y-77978000D02*
X69939900Y-77978000D01*
X69939900Y-77629000D02*
X69939900Y-77978000D01*
X68379600Y-76068700D02*
X69939900Y-77629000D01*
X63097500Y-76068700D02*
X68379600Y-76068700D01*
X62769700Y-76396500D02*
X63097500Y-76068700D01*
X61601300Y-57915200D02*
X60505300Y-59011200D01*
X66917600Y-57915200D02*
X61601300Y-57915200D01*
%TO.N,A12*%
X94865300Y-68521900D02*
X94865300Y-68622200D01*
X94335400Y-67992000D02*
X94865300Y-68521900D01*
X93472000Y-67992000D02*
X94335400Y-67992000D01*
X71115000Y-80518000D02*
X71115000Y-79342900D01*
X71482300Y-79342900D02*
X71115000Y-79342900D01*
X72290100Y-78535100D02*
X71482300Y-79342900D01*
X72290100Y-77341100D02*
X72290100Y-78535100D01*
X71016400Y-76067400D02*
X72290100Y-77341100D01*
X93472000Y-54455000D02*
X92065800Y-54455000D01*
X34963800Y-54440000D02*
X36165000Y-54440000D01*
X34121000Y-55282800D02*
X34963800Y-54440000D01*
X34121000Y-57064000D02*
X34121000Y-55282800D01*
X39551300Y-62494300D02*
X34121000Y-57064000D01*
X39551300Y-65826000D02*
X39551300Y-62494300D01*
X37385300Y-67992000D02*
X39551300Y-65826000D01*
X36165000Y-67992000D02*
X37385300Y-67992000D01*
X76188900Y-70592100D02*
X75847900Y-70251100D01*
X77370200Y-70592100D02*
X76188900Y-70592100D01*
X77490800Y-70712700D02*
X77370200Y-70592100D01*
X84818900Y-70712700D02*
X77490800Y-70712700D01*
X84857200Y-70751000D02*
X84818900Y-70712700D01*
X87141900Y-70751000D02*
X84857200Y-70751000D01*
X87318200Y-70927300D02*
X87141900Y-70751000D01*
X93953700Y-70927300D02*
X87318200Y-70927300D01*
X94865300Y-70015700D02*
X93953700Y-70927300D01*
X94865300Y-68622200D02*
X94865300Y-70015700D01*
X70551300Y-75602300D02*
X71016400Y-76067400D01*
X53436700Y-75602300D02*
X70551300Y-75602300D01*
X53340400Y-75698600D02*
X53436700Y-75602300D01*
X39162700Y-75698600D02*
X53340400Y-75698600D01*
X34056900Y-70592800D02*
X39162700Y-75698600D01*
X34056900Y-69003000D02*
X34056900Y-70592800D01*
X35067900Y-67992000D02*
X34056900Y-69003000D01*
X36165000Y-67992000D02*
X35067900Y-67992000D01*
%TO.N,A11*%
X35844600Y-62171600D02*
X35844600Y-60967900D01*
X36165000Y-62492000D02*
X35844600Y-62171600D01*
X73655000Y-77978000D02*
X73655000Y-76802900D01*
X91570600Y-62492000D02*
X93472000Y-62492000D01*
X91309500Y-62230900D02*
X91570600Y-62492000D01*
X36165000Y-48253300D02*
X36165000Y-48940000D01*
X36255800Y-48162500D02*
X36165000Y-48253300D01*
X94701000Y-48955000D02*
X93472000Y-48955000D01*
X97692000Y-51946000D02*
X94701000Y-48955000D01*
X97692000Y-52203700D02*
X97692000Y-51946000D01*
X98074800Y-52586500D02*
X97692000Y-52203700D01*
X98074800Y-57889200D02*
X98074800Y-52586500D01*
X93472000Y-62492000D02*
X98074800Y-57889200D01*
X72004300Y-75152200D02*
X73655000Y-76802900D01*
X44709000Y-75152200D02*
X72004300Y-75152200D01*
X44497200Y-74940400D02*
X44709000Y-75152200D01*
%TO.N,A10*%
X112847000Y-62992000D02*
X114279600Y-62992000D01*
X73655000Y-80518000D02*
X72479900Y-80518000D01*
X70453200Y-82911900D02*
X55716900Y-82911900D01*
X72479900Y-80885200D02*
X70453200Y-82911900D01*
X72479900Y-80518000D02*
X72479900Y-80885200D01*
X113901800Y-49455000D02*
X114246500Y-49799700D01*
X112847000Y-49455000D02*
X113901800Y-49455000D01*
X53090500Y-62992000D02*
X55540000Y-62992000D01*
X53090500Y-63567200D02*
X53090500Y-62992000D01*
X52539900Y-64117800D02*
X53090500Y-63567200D01*
X56445600Y-49440000D02*
X55540000Y-49440000D01*
X56708600Y-49177000D02*
X56445600Y-49440000D01*
X56708600Y-48701400D02*
X56708600Y-49177000D01*
X56470700Y-48463500D02*
X56708600Y-48701400D01*
X54482700Y-48463500D02*
X56470700Y-48463500D01*
X51639500Y-51306700D02*
X54482700Y-48463500D01*
X51639500Y-61541000D02*
X51639500Y-51306700D01*
X53090500Y-62992000D02*
X51639500Y-61541000D01*
%TO.N,A9*%
X37053700Y-62992000D02*
X36165000Y-62992000D01*
X37328800Y-62716900D02*
X37053700Y-62992000D01*
X37328800Y-62299100D02*
X37328800Y-62716900D01*
X36721400Y-61691700D02*
X37328800Y-62299100D01*
X36569800Y-61691700D02*
X36721400Y-61691700D01*
X92050600Y-62992000D02*
X93472000Y-62992000D01*
X92014600Y-62956000D02*
X92050600Y-62992000D01*
X91009200Y-62956000D02*
X92014600Y-62956000D01*
X90584400Y-62531200D02*
X91009200Y-62956000D01*
X90584400Y-61930600D02*
X90584400Y-62531200D01*
X91284300Y-61230700D02*
X90584400Y-61930600D01*
X91741700Y-61230700D02*
X91284300Y-61230700D01*
X94564300Y-49455000D02*
X93472000Y-49455000D01*
X97228600Y-52119300D02*
X94564300Y-49455000D01*
X97228600Y-52376900D02*
X97228600Y-52119300D01*
X97624700Y-52773000D02*
X97228600Y-52376900D01*
X97624700Y-56860800D02*
X97624700Y-52773000D01*
X93254900Y-61230600D02*
X97624700Y-56860800D01*
X91741700Y-61230600D02*
X93254900Y-61230600D01*
X91741700Y-61230700D02*
X91741700Y-61230600D01*
X37112100Y-49440000D02*
X37562600Y-49890500D01*
X36165000Y-49440000D02*
X37112100Y-49440000D01*
X76195000Y-77978000D02*
X75019900Y-77978000D01*
X75019900Y-77491000D02*
X75019900Y-77978000D01*
X72231000Y-74702100D02*
X75019900Y-77491000D01*
X48575700Y-74702100D02*
X72231000Y-74702100D01*
X48286100Y-74412500D02*
X48575700Y-74702100D01*
%TO.N,A8*%
X35029600Y-63492000D02*
X34753900Y-63216300D01*
X36165000Y-63492000D02*
X35029600Y-63492000D01*
X35178300Y-49940000D02*
X36165000Y-49940000D01*
X34764000Y-49525700D02*
X35178300Y-49940000D01*
X76195000Y-80518000D02*
X75019900Y-80518000D01*
X91914000Y-63492000D02*
X93472000Y-63492000D01*
X91828100Y-63406100D02*
X91914000Y-63492000D01*
X90822700Y-63406100D02*
X91828100Y-63406100D01*
X90134300Y-62717700D02*
X90822700Y-63406100D01*
X90134300Y-61744100D02*
X90134300Y-62717700D01*
X91686600Y-60191800D02*
X90134300Y-61744100D01*
X92209700Y-60191800D02*
X91686600Y-60191800D01*
X94377800Y-49955000D02*
X93472000Y-49955000D01*
X96724500Y-52301700D02*
X94377800Y-49955000D01*
X96724500Y-52509400D02*
X96724500Y-52301700D01*
X97174600Y-52959500D02*
X96724500Y-52509400D01*
X97174600Y-56674300D02*
X97174600Y-52959500D01*
X93657100Y-60191800D02*
X97174600Y-56674300D01*
X92209700Y-60191800D02*
X93657100Y-60191800D01*
X45052000Y-76543800D02*
X44437800Y-76543800D01*
X52209400Y-83701200D02*
X45052000Y-76543800D01*
X72203900Y-83701200D02*
X52209400Y-83701200D01*
X75019900Y-80885200D02*
X72203900Y-83701200D01*
X75019900Y-80518000D02*
X75019900Y-80885200D01*
%TO.N,A7*%
X92591400Y-54955000D02*
X93472000Y-54955000D01*
X91606000Y-55940400D02*
X92591400Y-54955000D01*
X91927300Y-67845100D02*
X89346000Y-67845100D01*
X92574200Y-68492000D02*
X91927300Y-67845100D01*
X93472000Y-68492000D02*
X92574200Y-68492000D01*
X37526100Y-68492000D02*
X36165000Y-68492000D01*
X40043500Y-65974600D02*
X37526100Y-68492000D01*
X40043500Y-62325200D02*
X40043500Y-65974600D01*
X34571200Y-56852900D02*
X40043500Y-62325200D01*
X34571200Y-55469300D02*
X34571200Y-56852900D01*
X35100500Y-54940000D02*
X34571200Y-55469300D01*
X36165000Y-54940000D02*
X35100500Y-54940000D01*
X77395700Y-65619800D02*
X77361700Y-65619800D01*
X79621000Y-67845100D02*
X77395700Y-65619800D01*
X89346000Y-67845100D02*
X79621000Y-67845100D01*
X76601400Y-64859600D02*
X77361700Y-65619800D01*
X35204600Y-68492000D02*
X36165000Y-68492000D01*
X34507100Y-69189500D02*
X35204600Y-68492000D01*
X34507100Y-70373100D02*
X34507100Y-69189500D01*
X36261900Y-72127900D02*
X34507100Y-70373100D01*
X48692000Y-72127900D02*
X36261900Y-72127900D01*
X50816000Y-74251900D02*
X48692000Y-72127900D01*
X72456800Y-74251900D02*
X50816000Y-74251900D01*
X75007800Y-76802900D02*
X72456800Y-74251900D01*
X76752100Y-76802900D02*
X75007800Y-76802900D01*
X77559900Y-77610700D02*
X76752100Y-76802900D01*
X77559900Y-77978000D02*
X77559900Y-77610700D01*
X78735000Y-77978000D02*
X77559900Y-77978000D01*
%TO.N,A6*%
X78735000Y-80518000D02*
X79910100Y-80518000D01*
X35307800Y-55440000D02*
X36165000Y-55440000D01*
X35045400Y-55702400D02*
X35307800Y-55440000D01*
X35045400Y-56690500D02*
X35045400Y-55702400D01*
X40568600Y-62213700D02*
X35045400Y-56690500D01*
X40568600Y-66166900D02*
X40568600Y-62213700D01*
X37743500Y-68992000D02*
X40568600Y-66166900D01*
X36165000Y-68992000D02*
X37743500Y-68992000D01*
X91921900Y-68849100D02*
X89571900Y-68849100D01*
X92064800Y-68992000D02*
X91921900Y-68849100D01*
X93472000Y-68992000D02*
X92064800Y-68992000D01*
X93578200Y-58284400D02*
X92514700Y-58284400D01*
X94585000Y-57277600D02*
X93578200Y-58284400D01*
X94585000Y-55698600D02*
X94585000Y-57277600D01*
X94341400Y-55455000D02*
X94585000Y-55698600D01*
X93472000Y-55455000D02*
X94341400Y-55455000D01*
X76951500Y-66341000D02*
X76035700Y-65425200D01*
X77480300Y-66341000D02*
X76951500Y-66341000D01*
X79988400Y-68849100D02*
X77480300Y-66341000D01*
X89571900Y-68849100D02*
X79988400Y-68849100D01*
X37206300Y-55440000D02*
X36165000Y-55440000D01*
X49486500Y-67720200D02*
X37206300Y-55440000D01*
X49486500Y-69228800D02*
X49486500Y-67720200D01*
X53553100Y-73295400D02*
X49486500Y-69228800D01*
X72773800Y-73295400D02*
X53553100Y-73295400D01*
X75248800Y-75770400D02*
X72773800Y-73295400D01*
X80228800Y-75770400D02*
X75248800Y-75770400D01*
X80678900Y-76220500D02*
X80228800Y-75770400D01*
X81218900Y-76220500D02*
X80678900Y-76220500D01*
X82450200Y-77451800D02*
X81218900Y-76220500D01*
X82450200Y-78503700D02*
X82450200Y-77451800D01*
X81705900Y-79248000D02*
X82450200Y-78503700D01*
X80814800Y-79248000D02*
X81705900Y-79248000D01*
X79910100Y-80152700D02*
X80814800Y-79248000D01*
X79910100Y-80518000D02*
X79910100Y-80152700D01*
%TO.N,A5*%
X77780500Y-69574200D02*
X90286200Y-69574200D01*
X73631500Y-65425200D02*
X77780500Y-69574200D01*
X93447500Y-69467500D02*
X93472000Y-69492000D01*
X90392900Y-69467500D02*
X93447500Y-69467500D01*
X90286200Y-69574200D02*
X90392900Y-69467500D01*
X92354700Y-56146400D02*
X92354700Y-57099000D01*
X92546100Y-55955000D02*
X92354700Y-56146400D01*
X93472000Y-55955000D02*
X92546100Y-55955000D01*
X81275000Y-77978000D02*
X80099900Y-77978000D01*
X41257500Y-70469200D02*
X41572100Y-70154600D01*
X35273000Y-70469200D02*
X41257500Y-70469200D01*
X34995500Y-70191700D02*
X35273000Y-70469200D01*
X34995500Y-69769600D02*
X34995500Y-70191700D01*
X35273100Y-69492000D02*
X34995500Y-69769600D01*
X36165000Y-69492000D02*
X35273100Y-69492000D01*
X37041000Y-55940000D02*
X36165000Y-55940000D01*
X41572100Y-60471100D02*
X37041000Y-55940000D01*
X41572100Y-70154600D02*
X41572100Y-60471100D01*
X49434300Y-70154600D02*
X41572100Y-70154600D01*
X53081500Y-73801800D02*
X49434300Y-70154600D01*
X72643600Y-73801800D02*
X53081500Y-73801800D01*
X75062300Y-76220500D02*
X72643600Y-73801800D01*
X78709600Y-76220500D02*
X75062300Y-76220500D01*
X80099900Y-77610800D02*
X78709600Y-76220500D01*
X80099900Y-77978000D02*
X80099900Y-77610800D01*
%TO.N,A4*%
X73065800Y-64859600D02*
X72305600Y-65619800D01*
X93261800Y-70202200D02*
X91959200Y-70202200D01*
X93472000Y-69992000D02*
X93261800Y-70202200D01*
X93472000Y-57079100D02*
X93598700Y-57205800D01*
X93472000Y-56455000D02*
X93472000Y-57079100D01*
X51640500Y-84157800D02*
X47806300Y-80323600D01*
X77635200Y-84157800D02*
X51640500Y-84157800D01*
X81275000Y-80518000D02*
X77635200Y-84157800D01*
X41018800Y-61293800D02*
X36165000Y-56440000D01*
X41018800Y-68380500D02*
X41018800Y-61293800D01*
X40804500Y-68594800D02*
X41018800Y-68380500D01*
X39407300Y-69992000D02*
X36165000Y-69992000D01*
X40804500Y-68594800D02*
X39407300Y-69992000D01*
X91636600Y-70202200D02*
X91959200Y-70202200D01*
X91548600Y-70290200D02*
X91636600Y-70202200D01*
X91181500Y-70290200D02*
X91548600Y-70290200D01*
X91105500Y-70366200D02*
X91181500Y-70290200D01*
X87763100Y-70366200D02*
X91105500Y-70366200D01*
X87687100Y-70290200D02*
X87763100Y-70366200D01*
X87317700Y-70290200D02*
X87687100Y-70290200D01*
X87317600Y-70290100D02*
X87317700Y-70290200D01*
X85032900Y-70290100D02*
X87317600Y-70290100D01*
X85005400Y-70262600D02*
X85032900Y-70290100D01*
X77677300Y-70262600D02*
X85005400Y-70262600D01*
X77556700Y-70142000D02*
X77677300Y-70262600D01*
X77424700Y-70142000D02*
X77556700Y-70142000D01*
X76799200Y-69516500D02*
X77424700Y-70142000D01*
X76666300Y-69516500D02*
X76799200Y-69516500D01*
X76496900Y-69347100D02*
X76666300Y-69516500D01*
X76413700Y-69347100D02*
X76496900Y-69347100D01*
X76410200Y-69343600D02*
X76413700Y-69347100D01*
X76281600Y-69343600D02*
X76410200Y-69343600D01*
X76079800Y-69141800D02*
X76281600Y-69343600D01*
X75827500Y-69141800D02*
X76079800Y-69141800D01*
X72305600Y-65619800D02*
X75827500Y-69141800D01*
%TO.N,A3*%
X83815000Y-77978000D02*
X84383600Y-77978000D01*
X103666800Y-79172200D02*
X112847000Y-69992000D01*
X87712900Y-79172200D02*
X103666800Y-79172200D01*
X85577800Y-79172200D02*
X87712900Y-79172200D01*
X84383600Y-77978000D02*
X85577800Y-79172200D01*
X111326900Y-56455000D02*
X112847000Y-56455000D01*
X103155900Y-64626000D02*
X111326900Y-56455000D01*
X103155900Y-64908200D02*
X103155900Y-64626000D01*
X94226200Y-73837900D02*
X103155900Y-64908200D01*
X91357900Y-73837900D02*
X94226200Y-73837900D01*
X87712900Y-77482900D02*
X91357900Y-73837900D01*
X87712900Y-79172200D02*
X87712900Y-77482900D01*
X55686300Y-70138300D02*
X55540000Y-69992000D01*
X57407000Y-70138300D02*
X55686300Y-70138300D01*
X58742000Y-68803300D02*
X57407000Y-70138300D01*
X58742000Y-68715500D02*
X58742000Y-68803300D01*
X64831100Y-68136000D02*
X64537200Y-68429900D01*
X64831100Y-68112600D02*
X64831100Y-68136000D01*
X65255900Y-67687800D02*
X64831100Y-68112600D01*
X65279300Y-67687800D02*
X65255900Y-67687800D01*
X66063800Y-66903300D02*
X65279300Y-67687800D01*
X66879400Y-66903300D02*
X66063800Y-66903300D01*
X68955000Y-64827700D02*
X66879400Y-66903300D01*
X70835000Y-64827700D02*
X68955000Y-64827700D01*
X71934500Y-63728200D02*
X70835000Y-64827700D01*
X64251600Y-68715500D02*
X58742000Y-68715500D01*
X64537200Y-68429900D02*
X64251600Y-68715500D01*
X55540000Y-56874400D02*
X56248700Y-57583100D01*
X55540000Y-56440000D02*
X55540000Y-56874400D01*
X65245300Y-69138100D02*
X64537200Y-68429900D01*
X65919400Y-69138100D02*
X65245300Y-69138100D01*
X65953800Y-69103700D02*
X65919400Y-69138100D01*
X69232600Y-69103700D02*
X65953800Y-69103700D01*
X69373400Y-68962900D02*
X69232600Y-69103700D01*
X71499600Y-68962900D02*
X69373400Y-68962900D01*
X71640400Y-69103700D02*
X71499600Y-68962900D01*
X72453800Y-69103700D02*
X71640400Y-69103700D01*
X73101100Y-69751000D02*
X72453800Y-69103700D01*
X73685600Y-69751000D02*
X73101100Y-69751000D01*
X75426900Y-71492300D02*
X73685600Y-69751000D01*
X76997200Y-71492300D02*
X75426900Y-71492300D01*
X77117800Y-71612900D02*
X76997200Y-71492300D01*
X84445900Y-71612900D02*
X77117800Y-71612900D01*
X84484200Y-71651200D02*
X84445900Y-71612900D01*
X86031200Y-71651200D02*
X84484200Y-71651200D01*
X87188200Y-72808200D02*
X86031200Y-71651200D01*
%TO.N,A2*%
X111983700Y-69492000D02*
X111434100Y-70041600D01*
X112847000Y-69492000D02*
X111983700Y-69492000D01*
X113804700Y-55955000D02*
X112847000Y-55955000D01*
X114001600Y-56151900D02*
X113804700Y-55955000D01*
X114001600Y-58271200D02*
X114001600Y-56151900D01*
X111468000Y-60804800D02*
X114001600Y-58271200D01*
X56953800Y-69492000D02*
X57032700Y-69413100D01*
X55540000Y-69492000D02*
X56953800Y-69492000D01*
X56397100Y-55940000D02*
X55540000Y-55940000D01*
X56973800Y-56516700D02*
X56397100Y-55940000D01*
X56973800Y-58532500D02*
X56973800Y-56516700D01*
X57285000Y-58843700D02*
X56973800Y-58532500D01*
X57285000Y-59814000D02*
X57285000Y-58843700D01*
X57245500Y-59853500D02*
X57285000Y-59814000D01*
%TO.N,A1*%
X114475100Y-55455000D02*
X112847000Y-55455000D01*
X114554400Y-55534300D02*
X114475100Y-55455000D01*
X112847000Y-68992000D02*
X114816000Y-68992000D01*
X69106000Y-60899800D02*
X68345900Y-61659900D01*
X56428400Y-68992000D02*
X55540000Y-68992000D01*
X57192300Y-68228100D02*
X56428400Y-68992000D01*
X57720600Y-68228100D02*
X57192300Y-68228100D01*
X68252600Y-61566700D02*
X68345900Y-61659900D01*
X66619800Y-61566700D02*
X68252600Y-61566700D01*
X66344900Y-61841600D02*
X66619800Y-61566700D01*
X60648100Y-61841600D02*
X66344900Y-61841600D01*
X58082800Y-59276300D02*
X60648100Y-61841600D01*
X111941700Y-55455000D02*
X112847000Y-55455000D01*
X111759000Y-55637700D02*
X111941700Y-55455000D01*
X111478700Y-55637700D02*
X111759000Y-55637700D01*
X97218900Y-69897500D02*
X111478700Y-55637700D01*
X97218900Y-70208500D02*
X97218900Y-69897500D01*
X94072400Y-73355000D02*
X97218900Y-70208500D01*
X91092900Y-73355000D02*
X94072400Y-73355000D01*
X86469900Y-77978000D02*
X91092900Y-73355000D01*
X86355000Y-77978000D02*
X86469900Y-77978000D01*
X56533800Y-55440000D02*
X55540000Y-55440000D01*
X57597600Y-56503800D02*
X56533800Y-55440000D01*
X57597600Y-58519700D02*
X57597600Y-56503800D01*
X58082800Y-59004900D02*
X57597600Y-58519700D01*
X58082800Y-59276300D02*
X58082800Y-59004900D01*
%TO.N,A0*%
X68540300Y-60334100D02*
X67780100Y-61094300D01*
X111465100Y-68492000D02*
X111244700Y-68712400D01*
X112847000Y-68492000D02*
X111465100Y-68492000D01*
X111248800Y-62049500D02*
X111244700Y-62049500D01*
X115320500Y-57977800D02*
X111248800Y-62049500D01*
X115320500Y-55270900D02*
X115320500Y-57977800D01*
X114837200Y-54787600D02*
X115320500Y-55270900D01*
X114275600Y-54787600D02*
X114837200Y-54787600D01*
X114108200Y-54955000D02*
X114275600Y-54787600D01*
X112847000Y-54955000D02*
X114108200Y-54955000D01*
X67780000Y-61094300D02*
X67780100Y-61094300D01*
X61981700Y-61094300D02*
X67780000Y-61094300D01*
X61970300Y-61105700D02*
X61981700Y-61094300D01*
X61092500Y-61105700D02*
X61970300Y-61105700D01*
X54656800Y-68492000D02*
X55540000Y-68492000D01*
X54424100Y-68724700D02*
X54656800Y-68492000D01*
X54424100Y-70248700D02*
X54424100Y-68724700D01*
X54763800Y-70588400D02*
X54424100Y-70248700D01*
X60508200Y-70588400D02*
X54763800Y-70588400D01*
X61542700Y-69553900D02*
X60508200Y-70588400D01*
X60937800Y-61105700D02*
X61092500Y-61105700D01*
X58047700Y-58215600D02*
X60937800Y-61105700D01*
X58047700Y-56288600D02*
X58047700Y-58215600D01*
X56699100Y-54940000D02*
X58047700Y-56288600D01*
X55540000Y-54940000D02*
X56699100Y-54940000D01*
X61577000Y-69588200D02*
X61542700Y-69553900D01*
X69384700Y-69588200D02*
X61577000Y-69588200D01*
X69559900Y-69413000D02*
X69384700Y-69588200D01*
X71313100Y-69413000D02*
X69559900Y-69413000D01*
X72101200Y-70201100D02*
X71313100Y-69413000D01*
X73499100Y-70201100D02*
X72101200Y-70201100D01*
X75361000Y-72063000D02*
X73499100Y-70201100D01*
X80501400Y-72063000D02*
X75361000Y-72063000D01*
X80539700Y-72101300D02*
X80501400Y-72063000D01*
X85251700Y-72101300D02*
X80539700Y-72101300D01*
X86958800Y-73808400D02*
X85251700Y-72101300D01*
%TO.N,D7*%
X88895000Y-77978000D02*
X90070100Y-77978000D01*
X110854100Y-63992000D02*
X112847000Y-63992000D01*
X110699600Y-63837500D02*
X110854100Y-63992000D01*
X104581100Y-63837500D02*
X110699600Y-63837500D01*
X103606000Y-64812600D02*
X104581100Y-63837500D01*
X103606000Y-65172700D02*
X103606000Y-64812600D01*
X94490600Y-74288100D02*
X103606000Y-65172700D01*
X93450200Y-74288100D02*
X94490600Y-74288100D01*
X90070100Y-77668200D02*
X93450200Y-74288100D01*
X90070100Y-77978000D02*
X90070100Y-77668200D01*
X79257700Y-46081200D02*
X73631500Y-51707400D01*
X111557100Y-46081200D02*
X79257700Y-46081200D01*
X115008500Y-49532600D02*
X111557100Y-46081200D01*
X115008500Y-50063200D02*
X115008500Y-49532600D01*
X114546900Y-50524800D02*
X115008500Y-50063200D01*
X113946200Y-50524800D02*
X114546900Y-50524800D01*
X113876400Y-50455000D02*
X113946200Y-50524800D01*
X112847000Y-50455000D02*
X113876400Y-50455000D01*
X111637300Y-50455000D02*
X112847000Y-50455000D01*
X111509800Y-50582500D02*
X111637300Y-50455000D01*
X106729500Y-50582500D02*
X111509800Y-50582500D01*
X102699300Y-54612700D02*
X106729500Y-50582500D01*
X54136100Y-50440000D02*
X55540000Y-50440000D01*
X52550500Y-52025600D02*
X54136100Y-50440000D01*
X52550500Y-58093800D02*
X52550500Y-52025600D01*
X56682700Y-62226000D02*
X52550500Y-58093800D01*
X56682700Y-63771800D02*
X56682700Y-62226000D01*
X56462500Y-63992000D02*
X56682700Y-63771800D01*
X55540000Y-63992000D02*
X56462500Y-63992000D01*
X54327700Y-63992000D02*
X55540000Y-63992000D01*
X52451500Y-65868200D02*
X54327700Y-63992000D01*
X52451500Y-70254800D02*
X52451500Y-65868200D01*
X54135400Y-71938700D02*
X52451500Y-70254800D01*
X63399300Y-71938700D02*
X54135400Y-71938700D01*
X64399500Y-70938500D02*
X63399300Y-71938700D01*
X69944200Y-70938500D02*
X64399500Y-70938500D01*
X70119400Y-70763300D02*
X69944200Y-70938500D01*
X70753600Y-70763300D02*
X70119400Y-70763300D01*
X71541700Y-71551400D02*
X70753600Y-70763300D01*
X72939600Y-71551400D02*
X71541700Y-71551400D01*
X74801500Y-73413300D02*
X72939600Y-71551400D01*
X77008400Y-73413300D02*
X74801500Y-73413300D01*
X77939500Y-74344400D02*
X77008400Y-73413300D01*
X84807100Y-74344400D02*
X77939500Y-74344400D01*
X85890400Y-75427700D02*
X84807100Y-74344400D01*
%TO.N,D6*%
X103307100Y-55346500D02*
X103708000Y-54945600D01*
X102335500Y-55346500D02*
X103307100Y-55346500D01*
X101524100Y-54535100D02*
X102335500Y-55346500D01*
X101524100Y-53167400D02*
X101524100Y-54535100D01*
X95398100Y-47041400D02*
X101524100Y-53167400D01*
X80701700Y-47041400D02*
X95398100Y-47041400D01*
X76035700Y-51707400D02*
X80701700Y-47041400D01*
X110717600Y-64492000D02*
X112847000Y-64492000D01*
X110545200Y-64319600D02*
X110717600Y-64492000D01*
X105124600Y-64319600D02*
X110545200Y-64319600D01*
X104876900Y-64567300D02*
X105124600Y-64319600D01*
X111773900Y-50955000D02*
X112847000Y-50955000D01*
X111696300Y-51032600D02*
X111773900Y-50955000D01*
X107621000Y-51032600D02*
X111696300Y-51032600D01*
X103708000Y-54945600D02*
X107621000Y-51032600D01*
X54349900Y-50940000D02*
X55540000Y-50940000D01*
X53061300Y-52228600D02*
X54349900Y-50940000D01*
X53061300Y-57967900D02*
X53061300Y-52228600D01*
X57132900Y-62039500D02*
X53061300Y-57967900D01*
X57132900Y-63958300D02*
X57132900Y-62039500D01*
X56599200Y-64492000D02*
X57132900Y-63958300D01*
X55540000Y-64492000D02*
X56599200Y-64492000D01*
X54475800Y-64492000D02*
X55540000Y-64492000D01*
X52901600Y-66066200D02*
X54475800Y-64492000D01*
X52901600Y-70068300D02*
X52901600Y-66066200D01*
X54321900Y-71488600D02*
X52901600Y-70068300D01*
X61807200Y-71488600D02*
X54321900Y-71488600D01*
X62807400Y-70488400D02*
X61807200Y-71488600D01*
X69757700Y-70488400D02*
X62807400Y-70488400D01*
X69932900Y-70313200D02*
X69757700Y-70488400D01*
X70940100Y-70313200D02*
X69932900Y-70313200D01*
X71728200Y-71101300D02*
X70940100Y-70313200D01*
X73126100Y-71101300D02*
X71728200Y-71101300D01*
X74988000Y-72963200D02*
X73126100Y-71101300D01*
X77194900Y-72963200D02*
X74988000Y-72963200D01*
X78126000Y-73894300D02*
X77194900Y-72963200D01*
X85382700Y-73894300D02*
X78126000Y-73894300D01*
X86747000Y-75258600D02*
X85382700Y-73894300D01*
X86890600Y-75258600D02*
X86747000Y-75258600D01*
%TO.N,D5*%
X91435000Y-77978000D02*
X92610100Y-77978000D01*
X77167100Y-52838700D02*
X77927300Y-52078500D01*
X110580900Y-64992000D02*
X112847000Y-64992000D01*
X110427200Y-64838300D02*
X110580900Y-64992000D01*
X105631300Y-64838300D02*
X110427200Y-64838300D01*
X105177200Y-65292400D02*
X105631300Y-64838300D01*
X104957000Y-65292400D02*
X105177200Y-65292400D01*
X92610100Y-77639300D02*
X104957000Y-65292400D01*
X92610100Y-77978000D02*
X92610100Y-77639300D01*
X104380400Y-56246800D02*
X104469000Y-56246800D01*
X103930300Y-55796700D02*
X104380400Y-56246800D01*
X102073000Y-55796700D02*
X103930300Y-55796700D01*
X100712200Y-54435900D02*
X102073000Y-55796700D01*
X100712200Y-53642600D02*
X100712200Y-54435900D01*
X99425100Y-52355500D02*
X100712200Y-53642600D01*
X99425100Y-52027000D02*
X99425100Y-52355500D01*
X99409700Y-52011600D02*
X99425100Y-52027000D01*
X99409700Y-51728300D02*
X99409700Y-52011600D01*
X95254300Y-47572900D02*
X99409700Y-51728300D01*
X91988800Y-47572900D02*
X95254300Y-47572900D01*
X91277800Y-48283900D02*
X91988800Y-47572900D01*
X90769600Y-48283900D02*
X91277800Y-48283900D01*
X90528300Y-48525200D02*
X90769600Y-48283900D01*
X81625500Y-48525200D02*
X90528300Y-48525200D01*
X81416700Y-48734000D02*
X81625500Y-48525200D01*
X81332700Y-48734000D02*
X81416700Y-48734000D01*
X81107600Y-48959100D02*
X81332700Y-48734000D01*
X81046700Y-48959100D02*
X81107600Y-48959100D01*
X79012000Y-50993800D02*
X81046700Y-48959100D01*
X78352100Y-50993800D02*
X79012000Y-50993800D01*
X77927300Y-51418600D02*
X78352100Y-50993800D01*
X77927300Y-52078500D02*
X77927300Y-51418600D01*
X111910500Y-51455000D02*
X112847000Y-51455000D01*
X111882800Y-51482700D02*
X111910500Y-51455000D01*
X109233100Y-51482700D02*
X111882800Y-51482700D01*
X104469000Y-56246800D02*
X109233100Y-51482700D01*
X54486600Y-51440000D02*
X55540000Y-51440000D01*
X53511600Y-52415000D02*
X54486600Y-51440000D01*
X53511600Y-57781500D02*
X53511600Y-52415000D01*
X57630100Y-61900000D02*
X53511600Y-57781500D01*
X57630100Y-64097800D02*
X57630100Y-61900000D01*
X56735900Y-64992000D02*
X57630100Y-64097800D01*
X55540000Y-64992000D02*
X56735900Y-64992000D01*
X54637000Y-64992000D02*
X55540000Y-64992000D01*
X53351700Y-66277300D02*
X54637000Y-64992000D01*
X53351700Y-69881800D02*
X53351700Y-66277300D01*
X54508400Y-71038500D02*
X53351700Y-69881800D01*
X61395900Y-71038500D02*
X54508400Y-71038500D01*
X62396100Y-70038300D02*
X61395900Y-71038500D01*
X69571200Y-70038300D02*
X62396100Y-70038300D01*
X69746400Y-69863100D02*
X69571200Y-70038300D01*
X71126600Y-69863100D02*
X69746400Y-69863100D01*
X71914700Y-70651200D02*
X71126600Y-69863100D01*
X73312600Y-70651200D02*
X71914700Y-70651200D01*
X75174500Y-72513100D02*
X73312600Y-70651200D01*
X78356500Y-72513100D02*
X75174500Y-72513100D01*
X78806500Y-72963100D02*
X78356500Y-72513100D01*
X85088100Y-72963100D02*
X78806500Y-72963100D01*
X86658500Y-74533500D02*
X85088100Y-72963100D01*
X87608600Y-74533500D02*
X86658500Y-74533500D01*
X88338800Y-73803300D02*
X87608600Y-74533500D01*
%TO.N,D4*%
X105570300Y-56537300D02*
X105570300Y-56806900D01*
X110152600Y-51955000D02*
X105570300Y-56537300D01*
X112847000Y-51955000D02*
X110152600Y-51955000D01*
X77732700Y-53404400D02*
X78493000Y-52644100D01*
X78652400Y-52484700D02*
X78493000Y-52644100D01*
X78652400Y-51718900D02*
X78652400Y-52484700D01*
X106161100Y-65334300D02*
X105932000Y-65563400D01*
X109926200Y-65334300D02*
X106161100Y-65334300D01*
X110083900Y-65492000D02*
X109926200Y-65334300D01*
X112847000Y-65492000D02*
X110083900Y-65492000D01*
X105379700Y-56997500D02*
X105570300Y-56806900D01*
X102622200Y-56997500D02*
X105379700Y-56997500D01*
X98975000Y-53350300D02*
X102622200Y-56997500D01*
X98975000Y-52213500D02*
X98975000Y-53350300D01*
X98959600Y-52198100D02*
X98975000Y-52213500D01*
X98959600Y-51914800D02*
X98959600Y-52198100D01*
X95067800Y-48023000D02*
X98959600Y-51914800D01*
X92399800Y-48023000D02*
X95067800Y-48023000D01*
X91447500Y-48975300D02*
X92399800Y-48023000D01*
X81879300Y-48975300D02*
X91447500Y-48975300D01*
X79135700Y-51718900D02*
X81879300Y-48975300D01*
X78652400Y-51718900D02*
X79135700Y-51718900D01*
X66193600Y-63018200D02*
X66917200Y-62294600D01*
X59384800Y-63018200D02*
X66193600Y-63018200D01*
X56911000Y-65492000D02*
X59384800Y-63018200D01*
X55540000Y-65492000D02*
X56911000Y-65492000D01*
X54668200Y-51940000D02*
X55540000Y-51940000D01*
X53972600Y-52635600D02*
X54668200Y-51940000D01*
X53972600Y-57606000D02*
X53972600Y-52635600D01*
X59384800Y-63018200D02*
X53972600Y-57606000D01*
%TO.N,D3*%
X64414800Y-65992000D02*
X64654400Y-65752400D01*
X55540000Y-65992000D02*
X64414800Y-65992000D01*
X93975000Y-77978000D02*
X95150100Y-77978000D01*
X109693200Y-65992000D02*
X112847000Y-65992000D01*
X109625800Y-66059400D02*
X109693200Y-65992000D01*
X106701500Y-66059400D02*
X109625800Y-66059400D01*
X95150100Y-77610800D02*
X106701500Y-66059400D01*
X95150100Y-77978000D02*
X95150100Y-77610800D01*
X58972100Y-52440000D02*
X59214000Y-52198100D01*
X55540000Y-52440000D02*
X58972100Y-52440000D01*
X78864100Y-54535800D02*
X77420900Y-55979000D01*
X110774500Y-52455000D02*
X112847000Y-52455000D01*
X110229200Y-53000300D02*
X110774500Y-52455000D01*
%TO.N,D2*%
X79429800Y-55101500D02*
X78669600Y-55861700D01*
X108833400Y-66841600D02*
X108833400Y-66841500D01*
X110725200Y-66841600D02*
X108833400Y-66841600D01*
X110875600Y-66992000D02*
X110725200Y-66841600D01*
X112847000Y-66992000D02*
X110875600Y-66992000D01*
X108899300Y-54825200D02*
X108899300Y-54825300D01*
X109629200Y-54825200D02*
X108899300Y-54825200D01*
X110999400Y-53455000D02*
X109629200Y-54825200D01*
X112847000Y-53455000D02*
X110999400Y-53455000D01*
X78427700Y-56195700D02*
X78427700Y-56275600D01*
X78669600Y-55953800D02*
X78427700Y-56195700D01*
X78669600Y-55861800D02*
X78669600Y-55953800D01*
X78669600Y-55861700D02*
X78669600Y-55861800D01*
X64333700Y-66992000D02*
X64560600Y-67218900D01*
X55540000Y-66992000D02*
X64333700Y-66992000D01*
X59775600Y-53440000D02*
X60004500Y-53668900D01*
X55540000Y-53440000D02*
X59775600Y-53440000D01*
%TO.N,D1*%
X96515000Y-77978000D02*
X97690100Y-77978000D01*
X110738900Y-67492000D02*
X112847000Y-67492000D01*
X110639500Y-67392600D02*
X110738900Y-67492000D01*
X109488300Y-67392600D02*
X110639500Y-67392600D01*
X109133800Y-67747100D02*
X109488300Y-67392600D01*
X107622200Y-67747100D02*
X109133800Y-67747100D01*
X97690100Y-77679200D02*
X107622200Y-67747100D01*
X97690100Y-77978000D02*
X97690100Y-77679200D01*
X108526000Y-56569000D02*
X108471700Y-56569000D01*
X111140000Y-53955000D02*
X108526000Y-56569000D01*
X112847000Y-53955000D02*
X111140000Y-53955000D01*
X57814100Y-53940000D02*
X55540000Y-53940000D01*
X60034200Y-56160100D02*
X57814100Y-53940000D01*
X62259400Y-67492000D02*
X62510000Y-67742600D01*
X55540000Y-67492000D02*
X62259400Y-67492000D01*
%TO.N,D0*%
X110413200Y-67970300D02*
X110265700Y-68117800D01*
X112825300Y-67970300D02*
X110413200Y-67970300D01*
X112847000Y-67992000D02*
X112825300Y-67970300D01*
X54261200Y-67992000D02*
X54133100Y-67863900D01*
X55540000Y-67992000D02*
X54261200Y-67992000D01*
X111874700Y-54455000D02*
X111434400Y-54895300D01*
X112847000Y-54455000D02*
X111874700Y-54455000D01*
X83390500Y-55666200D02*
X87690000Y-55666200D01*
X81692500Y-57364200D02*
X83390500Y-55666200D01*
X54583900Y-54440000D02*
X55540000Y-54440000D01*
X54422800Y-54601100D02*
X54583900Y-54440000D01*
X54422800Y-57007000D02*
X54422800Y-54601100D01*
X56550100Y-59134300D02*
X54422800Y-57007000D01*
%TD*%
%TA.AperFunction,Conductor*%
%TO.N,GND*%
G36*
X81039298Y-62229892D02*
G01*
X81042392Y-62230114D01*
X81046466Y-62231716D01*
X81079581Y-62245430D01*
X81079586Y-62245434D01*
X81079587Y-62245433D01*
X81136615Y-62269055D01*
X81136622Y-62269056D01*
X81136646Y-62269063D01*
X81136655Y-62269067D01*
X81195586Y-62280785D01*
X81259006Y-62293400D01*
X81259009Y-62293400D01*
X81259014Y-62293401D01*
X81259039Y-62293403D01*
X81259042Y-62293402D01*
X81259048Y-62293404D01*
X81314506Y-62293400D01*
X81314510Y-62293400D01*
X88824300Y-62293400D01*
X88891339Y-62313085D01*
X88937094Y-62365889D01*
X88948300Y-62417400D01*
X88948300Y-62864198D01*
X88972643Y-62986577D01*
X88972645Y-62986585D01*
X89020398Y-63101872D01*
X89020403Y-63101881D01*
X89089728Y-63205632D01*
X89089731Y-63205636D01*
X89691714Y-63807619D01*
X89725199Y-63868942D01*
X89720215Y-63938634D01*
X89678343Y-63994567D01*
X89612879Y-64018984D01*
X89604033Y-64019300D01*
X85639369Y-64019300D01*
X85572330Y-63999615D01*
X85570512Y-63998424D01*
X85541466Y-63979016D01*
X85520335Y-63964897D01*
X85355000Y-63896413D01*
X85354992Y-63896411D01*
X85179483Y-63861500D01*
X85179479Y-63861500D01*
X85000521Y-63861500D01*
X85000516Y-63861500D01*
X84825007Y-63896411D01*
X84824999Y-63896413D01*
X84659667Y-63964896D01*
X84659657Y-63964901D01*
X84510865Y-64064321D01*
X84510861Y-64064324D01*
X84384324Y-64190861D01*
X84384321Y-64190865D01*
X84284901Y-64339657D01*
X84284896Y-64339667D01*
X84216413Y-64504999D01*
X84216411Y-64505007D01*
X84181500Y-64680516D01*
X84181500Y-64859483D01*
X84216411Y-65034992D01*
X84216413Y-65035000D01*
X84284896Y-65200332D01*
X84284901Y-65200342D01*
X84384321Y-65349134D01*
X84384324Y-65349138D01*
X84510861Y-65475675D01*
X84510865Y-65475678D01*
X84659657Y-65575098D01*
X84659661Y-65575100D01*
X84659664Y-65575102D01*
X84825000Y-65643587D01*
X85000516Y-65678499D01*
X85000520Y-65678500D01*
X85000521Y-65678500D01*
X85179480Y-65678500D01*
X85179481Y-65678499D01*
X85355000Y-65643587D01*
X85520336Y-65575102D01*
X85534339Y-65565744D01*
X85547132Y-65557198D01*
X85613809Y-65536320D01*
X85616022Y-65536300D01*
X89629305Y-65536300D01*
X89658280Y-65544808D01*
X89687839Y-65550985D01*
X89692448Y-65554841D01*
X89696344Y-65555985D01*
X89716265Y-65571904D01*
X89726920Y-65582385D01*
X89730970Y-65588952D01*
X89856348Y-65714330D01*
X89868934Y-65722093D01*
X89878900Y-65731897D01*
X89889366Y-65750697D01*
X89903759Y-65766697D01*
X89906025Y-65780620D01*
X89912886Y-65792944D01*
X89911526Y-65814419D01*
X89914984Y-65835659D01*
X89909363Y-65848595D01*
X89908473Y-65862674D01*
X89895717Y-65880007D01*
X89887144Y-65899742D01*
X89870715Y-65913982D01*
X89867061Y-65918948D01*
X89866476Y-65919171D01*
X89861655Y-65922983D01*
X89737684Y-66046954D01*
X89645643Y-66196175D01*
X89645641Y-66196180D01*
X89590494Y-66362602D01*
X89590493Y-66362609D01*
X89580000Y-66465313D01*
X89580000Y-66602800D01*
X90681000Y-66602800D01*
X90748039Y-66622485D01*
X90793794Y-66675289D01*
X90805000Y-66726800D01*
X90805000Y-66978800D01*
X90785315Y-67045839D01*
X90732511Y-67091594D01*
X90681000Y-67102800D01*
X89907941Y-67102800D01*
X89840902Y-67083115D01*
X89839050Y-67081902D01*
X89776341Y-67040001D01*
X89776332Y-67039996D01*
X89611000Y-66971513D01*
X89610992Y-66971511D01*
X89435483Y-66936600D01*
X89435479Y-66936600D01*
X89256521Y-66936600D01*
X89256516Y-66936600D01*
X89081007Y-66971511D01*
X89080999Y-66971513D01*
X88915667Y-67039996D01*
X88915657Y-67040001D01*
X88766865Y-67139421D01*
X88766861Y-67139424D01*
X88731007Y-67175280D01*
X88669685Y-67208766D01*
X88643325Y-67211600D01*
X81320172Y-67211600D01*
X81253133Y-67191915D01*
X81207378Y-67139111D01*
X81197434Y-67069953D01*
X81226459Y-67006397D01*
X81232491Y-66999919D01*
X81406562Y-66825847D01*
X81406581Y-66825826D01*
X81471777Y-66745795D01*
X81471786Y-66745782D01*
X81550467Y-66589114D01*
X81590902Y-66418510D01*
X81590902Y-66243184D01*
X81590064Y-66236015D01*
X81592829Y-66235691D01*
X81595848Y-66178693D01*
X81636678Y-66121995D01*
X81701680Y-66096373D01*
X81734999Y-66098757D01*
X81735022Y-66098564D01*
X81739328Y-66099067D01*
X81741412Y-66099216D01*
X81742195Y-66099402D01*
X81742199Y-66099402D01*
X81919504Y-66099402D01*
X81919506Y-66099402D01*
X82092039Y-66058511D01*
X82250490Y-65978933D01*
X82331450Y-65912982D01*
X82880227Y-65364204D01*
X82946179Y-65283244D01*
X83025757Y-65124793D01*
X83066648Y-64952260D01*
X83066648Y-64774949D01*
X83066531Y-64774455D01*
X83066549Y-64774103D01*
X83065810Y-64767776D01*
X83066890Y-64767649D01*
X83070221Y-64704683D01*
X83099504Y-64658175D01*
X83341132Y-64416547D01*
X83402453Y-64383064D01*
X83404532Y-64382630D01*
X83450000Y-64373587D01*
X83615336Y-64305102D01*
X83764135Y-64205678D01*
X83890678Y-64079135D01*
X83990102Y-63930336D01*
X84058587Y-63765000D01*
X84093500Y-63589479D01*
X84093500Y-63410521D01*
X84058587Y-63235000D01*
X83990102Y-63069664D01*
X83990100Y-63069661D01*
X83990098Y-63069657D01*
X83890678Y-62920865D01*
X83890675Y-62920861D01*
X83764138Y-62794324D01*
X83764134Y-62794321D01*
X83615342Y-62694901D01*
X83615332Y-62694896D01*
X83450000Y-62626413D01*
X83449992Y-62626411D01*
X83274483Y-62591500D01*
X83274479Y-62591500D01*
X83095521Y-62591500D01*
X83095516Y-62591500D01*
X82920007Y-62626411D01*
X82919999Y-62626413D01*
X82754667Y-62694896D01*
X82754657Y-62694901D01*
X82605865Y-62794321D01*
X82605861Y-62794324D01*
X82479324Y-62920861D01*
X82479321Y-62920865D01*
X82379901Y-63069657D01*
X82379896Y-63069667D01*
X82311413Y-63234999D01*
X82311411Y-63235005D01*
X82302386Y-63280378D01*
X82293620Y-63297134D01*
X82289601Y-63315613D01*
X82270858Y-63340649D01*
X82270001Y-63342289D01*
X82268450Y-63343867D01*
X82120990Y-63491327D01*
X82059667Y-63524812D01*
X81989975Y-63519828D01*
X81977658Y-63514457D01*
X81897585Y-63474243D01*
X81725051Y-63433352D01*
X81547740Y-63433352D01*
X81375207Y-63474243D01*
X81375203Y-63474244D01*
X81216758Y-63553819D01*
X81135792Y-63619775D01*
X81047066Y-63708501D01*
X80985742Y-63741985D01*
X80916051Y-63737001D01*
X80871706Y-63708501D01*
X80254279Y-63091075D01*
X80220795Y-63029753D01*
X80225779Y-62960061D01*
X80254277Y-62915716D01*
X80427685Y-62742310D01*
X80451548Y-62714370D01*
X80514782Y-62599346D01*
X80563704Y-62550424D01*
X80678726Y-62487191D01*
X80706666Y-62463328D01*
X80911379Y-62258613D01*
X80928921Y-62249035D01*
X80943546Y-62235417D01*
X80958954Y-62232635D01*
X80972700Y-62225130D01*
X80992634Y-62226555D01*
X81012304Y-62223005D01*
X81039298Y-62229892D01*
G37*
%TD.AperFunction*%
%TA.AperFunction,Conductor*%
G36*
X69035481Y-62022958D02*
G01*
X69092931Y-62062724D01*
X69119761Y-62127237D01*
X69116594Y-62171505D01*
X69096431Y-62250031D01*
X69096431Y-62342916D01*
X69093610Y-62352522D01*
X69094882Y-62362454D01*
X69083930Y-62385487D01*
X69076746Y-62409955D01*
X69069180Y-62416510D01*
X69064880Y-62425555D01*
X69060112Y-62430597D01*
X69004441Y-62486268D01*
X69095853Y-62536523D01*
X69144776Y-62585447D01*
X69155660Y-62605244D01*
X69215650Y-62714367D01*
X69215652Y-62714371D01*
X69224676Y-62724936D01*
X69239515Y-62742310D01*
X69239522Y-62742317D01*
X69500092Y-63002887D01*
X69533577Y-63064210D01*
X69528593Y-63133902D01*
X69489763Y-63185771D01*
X69490573Y-63186758D01*
X69485861Y-63190624D01*
X69359324Y-63317161D01*
X69359321Y-63317165D01*
X69259901Y-63465957D01*
X69259896Y-63465967D01*
X69191413Y-63631299D01*
X69191411Y-63631307D01*
X69156500Y-63806816D01*
X69156500Y-63915112D01*
X69136815Y-63982151D01*
X69084011Y-64027906D01*
X69014853Y-64037850D01*
X68951297Y-64008825D01*
X68936362Y-63993429D01*
X68906573Y-63956862D01*
X68906565Y-63956853D01*
X68809359Y-63859647D01*
X68809358Y-63859647D01*
X67943154Y-64725854D01*
X67076948Y-65592057D01*
X67076948Y-65592058D01*
X67098161Y-65613271D01*
X67131646Y-65674594D01*
X67126662Y-65744286D01*
X67098161Y-65788633D01*
X66653315Y-66233481D01*
X66591992Y-66266966D01*
X66565634Y-66269800D01*
X66001401Y-66269800D01*
X65879022Y-66294143D01*
X65879010Y-66294146D01*
X65858293Y-66302728D01*
X65763724Y-66341899D01*
X65763721Y-66341900D01*
X65659967Y-66411227D01*
X65659963Y-66411230D01*
X65436534Y-66634659D01*
X65428588Y-66638997D01*
X65423163Y-66646245D01*
X65398403Y-66655479D01*
X65375211Y-66668144D01*
X65366181Y-66667498D01*
X65357699Y-66670662D01*
X65331878Y-66665045D01*
X65305519Y-66663160D01*
X65296465Y-66657341D01*
X65289426Y-66655810D01*
X65261172Y-66634659D01*
X65246744Y-66620231D01*
X65213259Y-66558908D01*
X65218243Y-66489216D01*
X65246742Y-66444870D01*
X65360078Y-66331535D01*
X65459502Y-66182736D01*
X65527987Y-66017400D01*
X65562900Y-65841879D01*
X65562900Y-65662921D01*
X65527987Y-65487400D01*
X65459502Y-65322064D01*
X65459500Y-65322061D01*
X65459498Y-65322057D01*
X65360078Y-65173265D01*
X65360075Y-65173261D01*
X65233538Y-65046724D01*
X65233534Y-65046721D01*
X65084742Y-64947301D01*
X65084732Y-64947296D01*
X64919400Y-64878813D01*
X64919392Y-64878811D01*
X64743883Y-64843900D01*
X64743879Y-64843900D01*
X64564921Y-64843900D01*
X64564916Y-64843900D01*
X64389407Y-64878811D01*
X64389399Y-64878813D01*
X64224067Y-64947296D01*
X64224057Y-64947301D01*
X64075265Y-65046721D01*
X64075261Y-65046724D01*
X63948724Y-65173261D01*
X63948718Y-65173269D01*
X63861775Y-65303390D01*
X63808163Y-65348196D01*
X63758673Y-65358500D01*
X58239766Y-65358500D01*
X58172727Y-65338815D01*
X58126972Y-65286011D01*
X58117028Y-65216853D01*
X58146053Y-65153297D01*
X58152085Y-65146819D01*
X58740261Y-64558643D01*
X66441852Y-64558643D01*
X66441852Y-64733964D01*
X66482286Y-64904568D01*
X66560971Y-65061244D01*
X66626172Y-65141282D01*
X66626188Y-65141300D01*
X66723394Y-65238506D01*
X66723395Y-65238506D01*
X67412823Y-64549076D01*
X66820622Y-63956875D01*
X66626182Y-64151317D01*
X66626172Y-64151328D01*
X66560976Y-64231359D01*
X66560967Y-64231372D01*
X66482286Y-64388039D01*
X66441852Y-64558643D01*
X58740261Y-64558643D01*
X58774829Y-64524075D01*
X59610886Y-63688019D01*
X59672209Y-63654534D01*
X59698567Y-63651700D01*
X66255995Y-63651700D01*
X66255996Y-63651699D01*
X66378385Y-63627355D01*
X66436405Y-63603322D01*
X67174175Y-63603322D01*
X67766375Y-64195523D01*
X67766376Y-64195523D01*
X68455805Y-63506095D01*
X68358601Y-63408891D01*
X68358580Y-63408872D01*
X68278549Y-63343676D01*
X68278536Y-63343667D01*
X68121868Y-63264986D01*
X67951264Y-63224552D01*
X67775944Y-63224552D01*
X67605339Y-63264986D01*
X67448672Y-63343667D01*
X67448665Y-63343672D01*
X67368623Y-63408874D01*
X67368608Y-63408888D01*
X67174175Y-63603322D01*
X66436405Y-63603322D01*
X66493675Y-63579600D01*
X66597433Y-63510271D01*
X66616377Y-63491327D01*
X66643426Y-63464279D01*
X66868285Y-63239419D01*
X66896865Y-63223812D01*
X66924814Y-63207077D01*
X66927366Y-63207157D01*
X66929608Y-63205934D01*
X66955966Y-63203100D01*
X67006680Y-63203100D01*
X67006681Y-63203099D01*
X67182200Y-63168187D01*
X67347536Y-63099702D01*
X67496335Y-63000278D01*
X67622878Y-62873735D01*
X67722302Y-62724936D01*
X67790787Y-62559600D01*
X67825700Y-62384079D01*
X67825700Y-62324200D01*
X67828250Y-62315514D01*
X67826962Y-62306553D01*
X67837940Y-62282512D01*
X67845385Y-62257161D01*
X67852225Y-62251233D01*
X67855987Y-62242997D01*
X67878221Y-62228707D01*
X67898189Y-62211406D01*
X67908703Y-62209118D01*
X67914765Y-62205223D01*
X67949700Y-62200200D01*
X67976632Y-62200200D01*
X68009968Y-62209988D01*
X68013425Y-62209708D01*
X68032269Y-62216537D01*
X68040021Y-62218813D01*
X68040276Y-62218335D01*
X68040631Y-62218524D01*
X68040767Y-62218606D01*
X68040769Y-62218604D01*
X68042556Y-62219557D01*
X68043671Y-62219885D01*
X68045509Y-62221089D01*
X68045825Y-62221300D01*
X68045827Y-62221301D01*
X68045838Y-62221308D01*
X68046124Y-62221461D01*
X68103617Y-62245238D01*
X68103672Y-62245282D01*
X68103680Y-62245265D01*
X68158729Y-62268067D01*
X68158730Y-62268067D01*
X68161115Y-62269055D01*
X68161283Y-62269088D01*
X68161442Y-62269154D01*
X68222042Y-62281174D01*
X68283506Y-62293400D01*
X68283516Y-62293400D01*
X68283838Y-62293431D01*
X68283846Y-62293433D01*
X68345276Y-62293400D01*
X68345309Y-62293400D01*
X68406569Y-62293400D01*
X68408294Y-62293400D01*
X68408464Y-62293366D01*
X68408633Y-62293366D01*
X68468284Y-62281467D01*
X68530685Y-62269055D01*
X68530699Y-62269048D01*
X68530737Y-62269038D01*
X68531006Y-62268955D01*
X68531011Y-62268955D01*
X68559442Y-62257161D01*
X68587714Y-62245433D01*
X68587716Y-62245439D01*
X68587765Y-62245411D01*
X68645975Y-62221300D01*
X68645985Y-62221292D01*
X68646261Y-62221144D01*
X68646276Y-62221139D01*
X68688803Y-62192690D01*
X68697462Y-62186898D01*
X68697481Y-62186884D01*
X68749733Y-62151971D01*
X68749732Y-62151971D01*
X68749969Y-62151777D01*
X68749993Y-62151756D01*
X68749993Y-62151755D01*
X68749996Y-62151754D01*
X68793959Y-62107745D01*
X68827959Y-62073744D01*
X68884801Y-62041323D01*
X68887122Y-62040727D01*
X68887124Y-62040727D01*
X68965653Y-62020564D01*
X69035481Y-62022958D01*
G37*
%TD.AperFunction*%
%TA.AperFunction,Conductor*%
G36*
X79725623Y-64360476D02*
G01*
X79751944Y-64380549D01*
X80085263Y-64713868D01*
X80118748Y-64775191D01*
X80113764Y-64844883D01*
X80071892Y-64900816D01*
X80026179Y-64922206D01*
X79910888Y-64949530D01*
X79754209Y-65028217D01*
X79748524Y-65031898D01*
X79747381Y-65030133D01*
X79692220Y-65053322D01*
X79623396Y-65041276D01*
X79572011Y-64993933D01*
X79554378Y-64926325D01*
X79556703Y-64905912D01*
X79568842Y-64844883D01*
X79573000Y-64823979D01*
X79573000Y-64645021D01*
X79542646Y-64492420D01*
X79548873Y-64422830D01*
X79591736Y-64367653D01*
X79657626Y-64344408D01*
X79725623Y-64360476D01*
G37*
%TD.AperFunction*%
%TA.AperFunction,Conductor*%
G36*
X73319792Y-53553619D02*
G01*
X73364638Y-53607197D01*
X73365541Y-53609321D01*
X73387996Y-53663532D01*
X73388001Y-53663542D01*
X73487421Y-53812334D01*
X73487424Y-53812338D01*
X73613961Y-53938875D01*
X73613965Y-53938878D01*
X73762757Y-54038298D01*
X73762761Y-54038300D01*
X73762764Y-54038302D01*
X73928100Y-54106787D01*
X74066997Y-54134415D01*
X74103616Y-54141699D01*
X74103620Y-54141700D01*
X74167100Y-54141700D01*
X74234139Y-54161385D01*
X74279894Y-54214189D01*
X74291100Y-54265700D01*
X74291100Y-54585698D01*
X74315443Y-54708077D01*
X74315445Y-54708085D01*
X74363198Y-54823372D01*
X74363203Y-54823381D01*
X74432528Y-54927132D01*
X74432531Y-54927136D01*
X75231875Y-55726479D01*
X75265360Y-55787802D01*
X75265812Y-55838349D01*
X75261800Y-55858520D01*
X75261800Y-56037483D01*
X75296711Y-56212992D01*
X75296713Y-56213000D01*
X75365196Y-56378332D01*
X75365201Y-56378342D01*
X75464621Y-56527134D01*
X75464624Y-56527138D01*
X75591161Y-56653675D01*
X75591165Y-56653678D01*
X75745029Y-56756487D01*
X75743987Y-56758045D01*
X75787596Y-56800880D01*
X75803058Y-56869017D01*
X75779229Y-56934697D01*
X75748191Y-56964381D01*
X75710865Y-56989321D01*
X75710861Y-56989324D01*
X75584324Y-57115861D01*
X75584321Y-57115865D01*
X75484901Y-57264657D01*
X75484896Y-57264667D01*
X75416413Y-57429999D01*
X75416411Y-57430007D01*
X75381500Y-57605516D01*
X75381500Y-57784483D01*
X75416411Y-57959992D01*
X75416413Y-57960000D01*
X75484896Y-58125332D01*
X75484901Y-58125342D01*
X75584321Y-58274134D01*
X75584324Y-58274138D01*
X75710861Y-58400675D01*
X75710865Y-58400678D01*
X75859657Y-58500098D01*
X75859661Y-58500100D01*
X75859664Y-58500102D01*
X76025000Y-58568587D01*
X76200516Y-58603499D01*
X76200520Y-58603500D01*
X76200521Y-58603500D01*
X76379480Y-58603500D01*
X76379480Y-58603499D01*
X76542888Y-58570996D01*
X76553008Y-58571901D01*
X76562652Y-58568692D01*
X76587222Y-58574963D01*
X76612478Y-58577223D01*
X76620503Y-58583457D01*
X76630351Y-58585971D01*
X76647631Y-58604531D01*
X76667655Y-58620086D01*
X76671035Y-58629668D01*
X76677962Y-58637108D01*
X76682465Y-58662066D01*
X76690900Y-58685976D01*
X76688893Y-58697695D01*
X76690368Y-58705868D01*
X76681639Y-58740065D01*
X76634093Y-58854852D01*
X76590252Y-58909256D01*
X76523958Y-58931321D01*
X76519532Y-58931400D01*
X76443416Y-58931400D01*
X76267907Y-58966311D01*
X76267899Y-58966313D01*
X76102567Y-59034796D01*
X76102557Y-59034801D01*
X75953765Y-59134221D01*
X75953761Y-59134224D01*
X75827224Y-59260761D01*
X75827221Y-59260765D01*
X75727801Y-59409557D01*
X75727796Y-59409567D01*
X75659313Y-59574899D01*
X75659311Y-59574907D01*
X75624400Y-59750416D01*
X75624400Y-59929383D01*
X75659311Y-60104892D01*
X75659313Y-60104900D01*
X75727796Y-60270232D01*
X75727801Y-60270242D01*
X75827221Y-60419034D01*
X75827224Y-60419038D01*
X75953761Y-60545575D01*
X75953765Y-60545578D01*
X76102557Y-60644998D01*
X76102561Y-60645000D01*
X76102564Y-60645002D01*
X76267900Y-60713487D01*
X76389035Y-60737582D01*
X76443416Y-60748399D01*
X76443420Y-60748400D01*
X76443421Y-60748400D01*
X76494134Y-60748400D01*
X76561173Y-60768085D01*
X76581815Y-60784719D01*
X76904429Y-61107334D01*
X76937914Y-61168657D01*
X76938365Y-61219206D01*
X76913300Y-61345216D01*
X76913300Y-61524183D01*
X76948211Y-61699692D01*
X76948213Y-61699700D01*
X77016696Y-61865032D01*
X77016701Y-61865042D01*
X77116121Y-62013834D01*
X77116124Y-62013838D01*
X77242662Y-62140376D01*
X77242665Y-62140378D01*
X77277732Y-62163809D01*
X77281736Y-62166484D01*
X77326542Y-62220096D01*
X77335249Y-62289421D01*
X77305095Y-62352449D01*
X77300529Y-62357266D01*
X77254111Y-62403685D01*
X77230568Y-62431249D01*
X77174303Y-62533594D01*
X77125379Y-62582518D01*
X76996457Y-62653393D01*
X76996456Y-62653393D01*
X76968524Y-62677250D01*
X76968510Y-62677263D01*
X76681821Y-62963952D01*
X76681808Y-62963966D01*
X76657951Y-62991898D01*
X76657949Y-62991902D01*
X76594718Y-63106920D01*
X76545793Y-63155845D01*
X76430775Y-63219076D01*
X76430771Y-63219078D01*
X76402839Y-63242935D01*
X76402825Y-63242948D01*
X76116136Y-63529637D01*
X76116123Y-63529651D01*
X76092266Y-63557583D01*
X76092266Y-63557584D01*
X76057269Y-63621244D01*
X76007722Y-63670508D01*
X75939407Y-63685164D01*
X75874013Y-63660560D01*
X75845505Y-63630397D01*
X75813678Y-63582765D01*
X75813675Y-63582761D01*
X75687138Y-63456224D01*
X75687134Y-63456221D01*
X75538342Y-63356801D01*
X75538332Y-63356796D01*
X75373000Y-63288313D01*
X75372992Y-63288311D01*
X75197483Y-63253400D01*
X75197479Y-63253400D01*
X75146766Y-63253400D01*
X75079727Y-63233715D01*
X75059085Y-63217081D01*
X73151419Y-61309415D01*
X73117934Y-61248092D01*
X73115100Y-61221734D01*
X73115100Y-61210620D01*
X73115099Y-61210616D01*
X73104295Y-61156302D01*
X73080187Y-61035100D01*
X73011702Y-60869764D01*
X73011700Y-60869761D01*
X73011698Y-60869757D01*
X72964748Y-60799492D01*
X72943870Y-60732815D01*
X72962354Y-60665435D01*
X72964728Y-60661741D01*
X72966202Y-60659536D01*
X73034687Y-60494200D01*
X73069600Y-60318679D01*
X73069600Y-60139721D01*
X73034687Y-59964200D01*
X72966202Y-59798864D01*
X72966199Y-59798859D01*
X72966198Y-59798857D01*
X72866778Y-59650065D01*
X72866775Y-59650061D01*
X72740238Y-59523524D01*
X72740234Y-59523521D01*
X72591442Y-59424101D01*
X72591432Y-59424096D01*
X72426100Y-59355613D01*
X72426092Y-59355611D01*
X72250583Y-59320700D01*
X72250579Y-59320700D01*
X72071621Y-59320700D01*
X72071616Y-59320700D01*
X71896107Y-59355611D01*
X71896099Y-59355613D01*
X71735234Y-59422246D01*
X71665764Y-59429715D01*
X71603285Y-59398440D01*
X71567633Y-59338351D01*
X71570127Y-59268526D01*
X71600100Y-59220004D01*
X71853793Y-58966311D01*
X72642343Y-58177759D01*
X72703664Y-58144276D01*
X72773355Y-58149260D01*
X72798913Y-58162340D01*
X72839857Y-58189698D01*
X72839861Y-58189700D01*
X72839864Y-58189702D01*
X73005200Y-58258187D01*
X73180716Y-58293099D01*
X73180720Y-58293100D01*
X73180721Y-58293100D01*
X73359680Y-58293100D01*
X73359681Y-58293099D01*
X73535200Y-58258187D01*
X73700536Y-58189702D01*
X73849335Y-58090278D01*
X73975878Y-57963735D01*
X74075302Y-57814936D01*
X74143787Y-57649600D01*
X74178700Y-57474079D01*
X74178700Y-57295121D01*
X74143787Y-57119600D01*
X74075302Y-56954264D01*
X74055914Y-56925248D01*
X74035037Y-56858572D01*
X74053521Y-56791192D01*
X74071332Y-56768680D01*
X74144078Y-56695935D01*
X74243502Y-56547136D01*
X74311987Y-56381800D01*
X74346900Y-56206279D01*
X74346900Y-56027321D01*
X74311987Y-55851800D01*
X74243502Y-55686464D01*
X74243500Y-55686461D01*
X74243498Y-55686457D01*
X74144078Y-55537665D01*
X74144075Y-55537661D01*
X74017538Y-55411124D01*
X74017534Y-55411121D01*
X73868742Y-55311701D01*
X73868732Y-55311696D01*
X73703400Y-55243213D01*
X73703392Y-55243211D01*
X73533636Y-55209444D01*
X73471725Y-55177059D01*
X73470142Y-55175505D01*
X73073496Y-54778829D01*
X72812032Y-54517346D01*
X72778551Y-54456023D01*
X72783538Y-54386331D01*
X72812034Y-54341990D01*
X72985386Y-54168640D01*
X73009249Y-54140700D01*
X73080124Y-54011777D01*
X73129047Y-53962854D01*
X73220458Y-53912599D01*
X73220459Y-53912599D01*
X73164789Y-53856929D01*
X73131304Y-53795606D01*
X73128470Y-53769248D01*
X73128470Y-53676364D01*
X73127959Y-53672321D01*
X73128470Y-53669152D01*
X73128470Y-53668564D01*
X73128565Y-53668564D01*
X73139082Y-53603343D01*
X73185733Y-53551328D01*
X73253099Y-53532792D01*
X73319792Y-53553619D01*
G37*
%TD.AperFunction*%
%TA.AperFunction,Conductor*%
G36*
X71361322Y-59559726D02*
G01*
X71408014Y-59611703D01*
X71419193Y-59680673D01*
X71399262Y-59734113D01*
X71356000Y-59798859D01*
X71355996Y-59798867D01*
X71287513Y-59964199D01*
X71287511Y-59964207D01*
X71252600Y-60139716D01*
X71252600Y-60190433D01*
X71232915Y-60257472D01*
X71216281Y-60278114D01*
X70863350Y-60631044D01*
X70855647Y-60636120D01*
X70852239Y-60640898D01*
X70833928Y-60650432D01*
X70821659Y-60658519D01*
X70814740Y-60661281D01*
X70812915Y-60661645D01*
X70788969Y-60671564D01*
X70788316Y-60671834D01*
X70788217Y-60671874D01*
X70697632Y-60709395D01*
X70697619Y-60709402D01*
X70593866Y-60778727D01*
X70593863Y-60778730D01*
X70568491Y-60804103D01*
X70554172Y-60812270D01*
X70544235Y-60822974D01*
X70511646Y-60836527D01*
X70509352Y-60837116D01*
X70509350Y-60837116D01*
X70472545Y-60846566D01*
X70430819Y-60857279D01*
X70360991Y-60854884D01*
X70303542Y-60815117D01*
X70276712Y-60750604D01*
X70279878Y-60706343D01*
X70300043Y-60627808D01*
X70300043Y-60534923D01*
X70319728Y-60467884D01*
X70336362Y-60447241D01*
X70392031Y-60391571D01*
X70300619Y-60341316D01*
X70251696Y-60292392D01*
X70180823Y-60163475D01*
X70180821Y-60163471D01*
X70156964Y-60135539D01*
X70156959Y-60135533D01*
X69874807Y-59853381D01*
X69841322Y-59792058D01*
X69846306Y-59722366D01*
X69888178Y-59666433D01*
X69953642Y-59642016D01*
X69962488Y-59641700D01*
X70978395Y-59641700D01*
X70978396Y-59641699D01*
X71100785Y-59617355D01*
X71216075Y-59569600D01*
X71227265Y-59562122D01*
X71293942Y-59541243D01*
X71361322Y-59559726D01*
G37*
%TD.AperFunction*%
%TA.AperFunction,Conductor*%
G36*
X89658280Y-52032008D02*
G01*
X89687839Y-52038185D01*
X89693497Y-52042349D01*
X89696344Y-52043185D01*
X89703720Y-52049872D01*
X89716265Y-52059104D01*
X89726920Y-52069585D01*
X89730970Y-52076152D01*
X89856348Y-52201530D01*
X89868934Y-52209293D01*
X89878900Y-52219097D01*
X89912886Y-52280144D01*
X89908473Y-52349874D01*
X89867061Y-52406148D01*
X89864760Y-52407728D01*
X89861655Y-52410183D01*
X89737684Y-52534154D01*
X89645643Y-52683375D01*
X89645641Y-52683380D01*
X89590494Y-52849802D01*
X89590493Y-52849809D01*
X89580000Y-52952513D01*
X89580000Y-53090000D01*
X90681000Y-53090000D01*
X90748039Y-53109685D01*
X90793794Y-53162489D01*
X90805000Y-53214000D01*
X90805000Y-53340000D01*
X90931000Y-53340000D01*
X90998039Y-53359685D01*
X91043794Y-53412489D01*
X91055000Y-53464000D01*
X91055000Y-54427499D01*
X91063982Y-54436481D01*
X91100430Y-54447184D01*
X91146185Y-54499988D01*
X91156794Y-54539342D01*
X91157300Y-54544484D01*
X91192211Y-54719992D01*
X91192213Y-54720000D01*
X91260696Y-54885332D01*
X91260700Y-54885340D01*
X91289135Y-54927896D01*
X91310012Y-54994573D01*
X91291527Y-55061953D01*
X91239548Y-55108643D01*
X91233486Y-55111347D01*
X91175663Y-55135298D01*
X91175657Y-55135301D01*
X91026865Y-55234721D01*
X91026861Y-55234724D01*
X90900324Y-55361261D01*
X90900321Y-55361265D01*
X90800901Y-55510057D01*
X90800896Y-55510067D01*
X90732413Y-55675399D01*
X90732411Y-55675407D01*
X90697500Y-55850916D01*
X90697500Y-56029883D01*
X90732411Y-56205392D01*
X90732413Y-56205400D01*
X90800896Y-56370732D01*
X90800901Y-56370742D01*
X90900321Y-56519534D01*
X90900324Y-56519538D01*
X91026861Y-56646075D01*
X91026865Y-56646078D01*
X91175657Y-56745498D01*
X91175661Y-56745500D01*
X91175664Y-56745502D01*
X91341000Y-56813987D01*
X91349332Y-56815644D01*
X91357991Y-56817367D01*
X91419902Y-56849752D01*
X91454476Y-56910467D01*
X91455418Y-56963172D01*
X91446200Y-57009519D01*
X91446200Y-57188483D01*
X91481111Y-57363992D01*
X91481113Y-57364000D01*
X91549596Y-57529332D01*
X91549601Y-57529342D01*
X91649021Y-57678134D01*
X91649024Y-57678138D01*
X91684796Y-57713910D01*
X91718281Y-57775233D01*
X91713297Y-57844925D01*
X91711676Y-57849043D01*
X91641114Y-58019395D01*
X91641111Y-58019407D01*
X91606200Y-58194916D01*
X91606200Y-58259000D01*
X91586515Y-58326039D01*
X91533711Y-58371794D01*
X91482200Y-58383000D01*
X83015175Y-58383000D01*
X82948136Y-58363315D01*
X82927498Y-58346685D01*
X82821935Y-58241122D01*
X82821934Y-58241121D01*
X82821933Y-58241120D01*
X82673142Y-58141701D01*
X82673132Y-58141696D01*
X82507800Y-58073213D01*
X82507792Y-58073211D01*
X82388162Y-58049415D01*
X82326251Y-58017030D01*
X82291677Y-57956315D01*
X82295416Y-57886545D01*
X82324669Y-57840120D01*
X82690426Y-57474365D01*
X82714289Y-57446425D01*
X82792919Y-57303397D01*
X82833510Y-57145307D01*
X82833510Y-57145302D01*
X82834128Y-57142896D01*
X82866549Y-57086054D01*
X83616586Y-56336019D01*
X83677909Y-56302534D01*
X83704267Y-56299700D01*
X86987325Y-56299700D01*
X87054364Y-56319385D01*
X87075007Y-56336020D01*
X87110861Y-56371875D01*
X87110865Y-56371878D01*
X87259657Y-56471298D01*
X87259661Y-56471300D01*
X87259664Y-56471302D01*
X87425000Y-56539787D01*
X87600516Y-56574699D01*
X87600520Y-56574700D01*
X87600521Y-56574700D01*
X87779480Y-56574700D01*
X87779481Y-56574699D01*
X87955000Y-56539787D01*
X88120336Y-56471302D01*
X88269135Y-56371878D01*
X88395678Y-56245335D01*
X88495102Y-56096536D01*
X88563587Y-55931200D01*
X88598500Y-55755679D01*
X88598500Y-55576721D01*
X88563587Y-55401200D01*
X88495102Y-55235864D01*
X88495100Y-55235861D01*
X88495098Y-55235857D01*
X88395678Y-55087065D01*
X88395675Y-55087061D01*
X88269138Y-54960524D01*
X88269134Y-54960521D01*
X88120342Y-54861101D01*
X88120332Y-54861096D01*
X87955000Y-54792613D01*
X87954992Y-54792611D01*
X87779483Y-54757700D01*
X87779479Y-54757700D01*
X87600521Y-54757700D01*
X87600516Y-54757700D01*
X87425007Y-54792611D01*
X87424999Y-54792613D01*
X87259667Y-54861096D01*
X87259657Y-54861101D01*
X87110865Y-54960521D01*
X87110861Y-54960524D01*
X87075007Y-54996380D01*
X87013685Y-55029866D01*
X86987325Y-55032700D01*
X83455337Y-55032700D01*
X83388298Y-55013015D01*
X83342543Y-54960211D01*
X83332599Y-54891053D01*
X83361624Y-54827497D01*
X83399686Y-54797890D01*
X83551327Y-54721732D01*
X83551334Y-54721727D01*
X83631376Y-54656525D01*
X83631380Y-54656521D01*
X83825824Y-54462076D01*
X83233624Y-53869876D01*
X83233623Y-53869876D01*
X82544194Y-54559303D01*
X82544194Y-54559304D01*
X82641398Y-54656508D01*
X82641419Y-54656527D01*
X82721450Y-54721723D01*
X82721463Y-54721732D01*
X82878131Y-54800413D01*
X83048736Y-54840848D01*
X83104271Y-54840848D01*
X83171310Y-54860533D01*
X83217065Y-54913337D01*
X83227009Y-54982495D01*
X83197984Y-55046051D01*
X83151723Y-55079409D01*
X83090431Y-55104795D01*
X83090419Y-55104802D01*
X82986666Y-55174127D01*
X82986663Y-55174130D01*
X81970556Y-56190239D01*
X81956236Y-56198406D01*
X81946301Y-56209109D01*
X81913713Y-56222662D01*
X81832917Y-56243407D01*
X81763088Y-56241013D01*
X81705639Y-56201247D01*
X81678809Y-56136734D01*
X81681974Y-56092470D01*
X81702139Y-56013936D01*
X81702139Y-55921053D01*
X81721824Y-55854014D01*
X81738458Y-55833371D01*
X81794128Y-55777700D01*
X81702715Y-55727444D01*
X81653792Y-55678520D01*
X81589671Y-55561884D01*
X81582918Y-55549601D01*
X81582917Y-55549599D01*
X81559060Y-55521667D01*
X81559055Y-55521661D01*
X81354455Y-55317061D01*
X81347681Y-55304655D01*
X81337097Y-55295281D01*
X81331266Y-55274595D01*
X81320970Y-55255738D01*
X81321604Y-55240313D01*
X81318143Y-55228031D01*
X81323109Y-55203753D01*
X81323546Y-55193153D01*
X81325287Y-55187451D01*
X81359059Y-55105919D01*
X81364955Y-55091685D01*
X81384389Y-54993982D01*
X81386203Y-54988045D01*
X81402129Y-54963846D01*
X81415560Y-54938170D01*
X81417053Y-54936650D01*
X82111633Y-54242070D01*
X82172956Y-54208586D01*
X82189595Y-54206796D01*
X82969165Y-53427227D01*
X83030488Y-53393742D01*
X83100180Y-53398726D01*
X83144527Y-53427227D01*
X83233622Y-53516322D01*
X83322717Y-53427227D01*
X83384040Y-53393742D01*
X83453732Y-53398726D01*
X83498080Y-53427227D01*
X84179376Y-54108524D01*
X84179377Y-54108524D01*
X84373808Y-53914092D01*
X84373827Y-53914071D01*
X84439023Y-53834040D01*
X84439032Y-53834027D01*
X84492539Y-53727486D01*
X89580001Y-53727486D01*
X89590494Y-53830197D01*
X89645641Y-53996619D01*
X89645643Y-53996624D01*
X89737684Y-54145845D01*
X89861654Y-54269815D01*
X90010875Y-54361856D01*
X90010880Y-54361858D01*
X90177302Y-54417005D01*
X90177309Y-54417006D01*
X90280019Y-54427499D01*
X90554999Y-54427499D01*
X90555000Y-54427498D01*
X90555000Y-53590000D01*
X89580001Y-53590000D01*
X89580001Y-53727486D01*
X84492539Y-53727486D01*
X84517713Y-53677360D01*
X84557369Y-53510042D01*
X84557369Y-53510040D01*
X84557370Y-53510039D01*
X84558148Y-53506756D01*
X84558148Y-53331433D01*
X84546770Y-53283429D01*
X84550463Y-53213657D01*
X84591291Y-53156957D01*
X84656292Y-53131332D01*
X84724828Y-53144917D01*
X84736317Y-53151729D01*
X84764852Y-53170795D01*
X84764858Y-53170798D01*
X84764864Y-53170802D01*
X84930200Y-53239287D01*
X85105716Y-53274199D01*
X85105720Y-53274200D01*
X85105721Y-53274200D01*
X85284680Y-53274200D01*
X85284681Y-53274199D01*
X85460200Y-53239287D01*
X85625536Y-53170802D01*
X85774335Y-53071378D01*
X85900878Y-52944835D01*
X86000302Y-52796036D01*
X86068787Y-52630700D01*
X86103700Y-52455179D01*
X86103700Y-52276221D01*
X86082908Y-52171691D01*
X86089135Y-52102100D01*
X86131998Y-52046922D01*
X86197888Y-52023678D01*
X86204525Y-52023500D01*
X89629305Y-52023500D01*
X89658280Y-52032008D01*
G37*
%TD.AperFunction*%
%TA.AperFunction,Conductor*%
G36*
X80437578Y-57409085D02*
G01*
X80495027Y-57448851D01*
X80521857Y-57513364D01*
X80518691Y-57557632D01*
X80498528Y-57636159D01*
X80498528Y-57729045D01*
X80493811Y-57745108D01*
X80494110Y-57761850D01*
X80483572Y-57779975D01*
X80478843Y-57796084D01*
X80469505Y-57804175D01*
X80462209Y-57816726D01*
X80406538Y-57872397D01*
X80497950Y-57922652D01*
X80546874Y-57971577D01*
X80617747Y-58100495D01*
X80617749Y-58100499D01*
X80638959Y-58125332D01*
X80641612Y-58128438D01*
X80641619Y-58128445D01*
X80676193Y-58163019D01*
X80709678Y-58224342D01*
X80704694Y-58294034D01*
X80662822Y-58349967D01*
X80597358Y-58374384D01*
X80588512Y-58374700D01*
X79614567Y-58374700D01*
X79547528Y-58355015D01*
X79501773Y-58302211D01*
X79491829Y-58233053D01*
X79520854Y-58169497D01*
X79526886Y-58163019D01*
X80053745Y-57636159D01*
X80230023Y-57459880D01*
X80233104Y-57458123D01*
X80234839Y-57455315D01*
X80254618Y-57445851D01*
X80286864Y-57427459D01*
X80289216Y-57426855D01*
X80289220Y-57426855D01*
X80367752Y-57406691D01*
X80437578Y-57409085D01*
G37*
%TD.AperFunction*%
%TA.AperFunction,Conductor*%
G36*
X124285173Y-59097483D02*
G01*
X124311730Y-59128132D01*
X124314103Y-59132005D01*
X124314106Y-59132009D01*
X124439794Y-59305004D01*
X124590996Y-59456206D01*
X124763991Y-59581894D01*
X124768680Y-59584283D01*
X124819478Y-59632254D01*
X124836276Y-59700074D01*
X124813742Y-59766210D01*
X124772205Y-59802209D01*
X124772590Y-59802838D01*
X124768804Y-59805157D01*
X124768702Y-59805246D01*
X124768449Y-59805374D01*
X124768440Y-59805380D01*
X124714282Y-59844727D01*
X124714282Y-59844728D01*
X125346591Y-60477037D01*
X125283007Y-60494075D01*
X125168993Y-60559901D01*
X125075901Y-60652993D01*
X125010075Y-60767007D01*
X124993037Y-60830591D01*
X124360728Y-60198282D01*
X124360727Y-60198282D01*
X124321380Y-60252440D01*
X124321374Y-60252449D01*
X124321246Y-60252702D01*
X124321172Y-60252780D01*
X124318838Y-60256590D01*
X124318036Y-60256099D01*
X124273264Y-60303490D01*
X124205441Y-60320275D01*
X124139309Y-60297728D01*
X124100283Y-60252680D01*
X124097894Y-60247991D01*
X123972206Y-60074996D01*
X123821004Y-59923794D01*
X123658011Y-59805373D01*
X123648005Y-59798103D01*
X123644132Y-59795730D01*
X123597254Y-59743920D01*
X123585829Y-59674991D01*
X123613483Y-59610827D01*
X123644132Y-59584270D01*
X123648005Y-59581896D01*
X123648004Y-59581896D01*
X123648009Y-59581894D01*
X123821004Y-59456206D01*
X123972206Y-59305004D01*
X124097894Y-59132009D01*
X124097896Y-59132004D01*
X124100270Y-59128132D01*
X124152080Y-59081254D01*
X124221009Y-59069829D01*
X124285173Y-59097483D01*
G37*
%TD.AperFunction*%
%TA.AperFunction,Conductor*%
G36*
X125010075Y-50992993D02*
G01*
X125075901Y-51107007D01*
X125168993Y-51200099D01*
X125283007Y-51265925D01*
X125346590Y-51282962D01*
X124714282Y-51915269D01*
X124714282Y-51915270D01*
X124768449Y-51954624D01*
X124768682Y-51954743D01*
X124768755Y-51954812D01*
X124772604Y-51957171D01*
X124772108Y-51957979D01*
X124819479Y-52002716D01*
X124836275Y-52070537D01*
X124813739Y-52136672D01*
X124768693Y-52175709D01*
X124763994Y-52178103D01*
X124590993Y-52303796D01*
X124439796Y-52454993D01*
X124314105Y-52627991D01*
X124311727Y-52631873D01*
X124259914Y-52678748D01*
X124190984Y-52690169D01*
X124126822Y-52662512D01*
X124100273Y-52631873D01*
X124097894Y-52627991D01*
X124054480Y-52568237D01*
X123972206Y-52454996D01*
X123821004Y-52303794D01*
X123820999Y-52303790D01*
X123820206Y-52303113D01*
X123819986Y-52302776D01*
X123817559Y-52300349D01*
X123818068Y-52299839D01*
X123782016Y-52244604D01*
X123781520Y-52174736D01*
X123818876Y-52115692D01*
X123852720Y-52096291D01*
X123852195Y-52095165D01*
X123858730Y-52092117D01*
X123858738Y-52092115D01*
X124009652Y-51999030D01*
X124135030Y-51873652D01*
X124228115Y-51722738D01*
X124252921Y-51647875D01*
X124292693Y-51590431D01*
X124357208Y-51563607D01*
X124358862Y-51563582D01*
X124993037Y-50929408D01*
X125010075Y-50992993D01*
G37*
%TD.AperFunction*%
%TA.AperFunction,Conductor*%
G36*
X128624253Y-44484081D02*
G01*
X128808185Y-44498558D01*
X128819986Y-44500059D01*
X128860436Y-44507192D01*
X128867837Y-44508731D01*
X129025305Y-44546535D01*
X129038740Y-44550578D01*
X129067582Y-44561076D01*
X129072578Y-44563019D01*
X129232726Y-44629355D01*
X129247236Y-44636507D01*
X129247960Y-44636925D01*
X129250757Y-44638589D01*
X129320413Y-44681275D01*
X129416993Y-44740459D01*
X129432726Y-44751889D01*
X129581505Y-44878958D01*
X129595241Y-44892694D01*
X129722300Y-45041461D01*
X129733736Y-45057202D01*
X129835621Y-45223463D01*
X129837290Y-45226269D01*
X129837679Y-45226943D01*
X129844844Y-45241474D01*
X129911173Y-45401605D01*
X129913134Y-45406647D01*
X129923615Y-45435443D01*
X129927667Y-45448908D01*
X129965465Y-45606354D01*
X129967007Y-45613768D01*
X129974138Y-45654211D01*
X129975640Y-45666013D01*
X129990118Y-45849946D01*
X129990500Y-45859676D01*
X129990500Y-88623523D01*
X129990118Y-88633253D01*
X129975640Y-88817185D01*
X129974138Y-88828987D01*
X129967007Y-88869430D01*
X129965465Y-88876844D01*
X129927667Y-89034290D01*
X129923615Y-89047755D01*
X129913134Y-89076551D01*
X129911173Y-89081593D01*
X129844844Y-89241724D01*
X129837667Y-89256277D01*
X129837268Y-89256968D01*
X129835612Y-89259751D01*
X129733739Y-89425994D01*
X129722302Y-89441736D01*
X129595246Y-89590499D01*
X129581499Y-89604246D01*
X129472271Y-89697535D01*
X129432736Y-89731302D01*
X129416998Y-89742736D01*
X129416994Y-89742739D01*
X129250751Y-89844612D01*
X129247968Y-89846268D01*
X129247277Y-89846667D01*
X129232724Y-89853844D01*
X129072593Y-89920173D01*
X129067551Y-89922134D01*
X129038755Y-89932615D01*
X129025290Y-89936667D01*
X128867844Y-89974465D01*
X128860430Y-89976007D01*
X128819987Y-89983138D01*
X128808185Y-89984640D01*
X128624253Y-89999118D01*
X128614523Y-89999500D01*
X21385477Y-89999500D01*
X21375747Y-89999118D01*
X21191813Y-89984640D01*
X21180011Y-89983138D01*
X21139568Y-89976007D01*
X21132154Y-89974465D01*
X20974708Y-89936667D01*
X20961243Y-89932615D01*
X20932447Y-89922134D01*
X20927405Y-89920173D01*
X20767274Y-89853844D01*
X20752743Y-89846679D01*
X20752069Y-89846290D01*
X20749263Y-89844621D01*
X20583002Y-89742736D01*
X20567261Y-89731300D01*
X20418494Y-89604241D01*
X20404758Y-89590505D01*
X20277689Y-89441726D01*
X20266259Y-89425993D01*
X20164393Y-89259763D01*
X20162713Y-89256939D01*
X20162308Y-89256237D01*
X20155154Y-89241724D01*
X20088825Y-89081593D01*
X20086876Y-89076582D01*
X20076378Y-89047740D01*
X20072335Y-89034305D01*
X20034531Y-88876837D01*
X20032991Y-88869430D01*
X20025860Y-88828987D01*
X20024358Y-88817184D01*
X20009882Y-88633253D01*
X20009500Y-88623524D01*
X20009500Y-83149447D01*
X22691500Y-83149447D01*
X22691500Y-84350537D01*
X22691501Y-84350553D01*
X22702113Y-84454427D01*
X22717467Y-84500763D01*
X22757885Y-84622738D01*
X22850970Y-84773652D01*
X22976348Y-84899030D01*
X23127262Y-84992115D01*
X23295574Y-85047887D01*
X23399455Y-85058500D01*
X24600544Y-85058499D01*
X24704426Y-85047887D01*
X24872738Y-84992115D01*
X25023652Y-84899030D01*
X25149030Y-84773652D01*
X25242115Y-84622738D01*
X25266244Y-84549917D01*
X25270117Y-84542111D01*
X25288148Y-84522602D01*
X25303268Y-84500763D01*
X25311494Y-84497342D01*
X25317541Y-84490801D01*
X25343252Y-84484138D01*
X25367784Y-84473939D01*
X25383522Y-84473703D01*
X25385177Y-84473275D01*
X25386352Y-84473661D01*
X25390932Y-84473593D01*
X25420525Y-84475921D01*
X26100000Y-83796446D01*
X26100000Y-83802661D01*
X26127259Y-83904394D01*
X26179920Y-83995606D01*
X26254394Y-84070080D01*
X26345606Y-84122741D01*
X26447339Y-84150000D01*
X26453553Y-84150000D01*
X25774076Y-84829474D01*
X25818650Y-84861859D01*
X26000968Y-84954755D01*
X26195582Y-85017990D01*
X26397683Y-85050000D01*
X26602317Y-85050000D01*
X26804417Y-85017990D01*
X26999031Y-84954755D01*
X27181349Y-84861859D01*
X27225921Y-84829474D01*
X26546447Y-84150000D01*
X26552661Y-84150000D01*
X26654394Y-84122741D01*
X26745606Y-84070080D01*
X26820080Y-83995606D01*
X26872741Y-83904394D01*
X26900000Y-83802661D01*
X26900000Y-83796447D01*
X27579474Y-84475921D01*
X27611859Y-84431349D01*
X27704755Y-84249031D01*
X27767990Y-84054417D01*
X27800000Y-83852317D01*
X27800000Y-83647682D01*
X27767990Y-83445582D01*
X27704755Y-83250968D01*
X27611859Y-83068650D01*
X27579474Y-83024077D01*
X27579474Y-83024076D01*
X26900000Y-83703551D01*
X26900000Y-83697339D01*
X26872741Y-83595606D01*
X26820080Y-83504394D01*
X26745606Y-83429920D01*
X26654394Y-83377259D01*
X26552661Y-83350000D01*
X26546446Y-83350000D01*
X27225922Y-82670524D01*
X27225921Y-82670523D01*
X27181359Y-82638147D01*
X27181350Y-82638141D01*
X26999031Y-82545244D01*
X26804417Y-82482009D01*
X26602317Y-82450000D01*
X26397683Y-82450000D01*
X26195582Y-82482009D01*
X26000968Y-82545244D01*
X25818644Y-82638143D01*
X25774077Y-82670523D01*
X25774077Y-82670524D01*
X26453554Y-83350000D01*
X26447339Y-83350000D01*
X26345606Y-83377259D01*
X26254394Y-83429920D01*
X26179920Y-83504394D01*
X26127259Y-83595606D01*
X26100000Y-83697339D01*
X26100000Y-83703553D01*
X25420524Y-83024077D01*
X25390932Y-83026406D01*
X25370730Y-83022162D01*
X25350099Y-83022824D01*
X25337230Y-83015124D01*
X25322555Y-83012042D01*
X25307854Y-82997549D01*
X25290141Y-82986952D01*
X25280460Y-82970544D01*
X25272798Y-82962990D01*
X25270117Y-82957888D01*
X25266243Y-82950079D01*
X25242115Y-82877262D01*
X25149030Y-82726348D01*
X25023652Y-82600970D01*
X24872738Y-82507885D01*
X24794648Y-82482009D01*
X24704427Y-82452113D01*
X24600545Y-82441500D01*
X23399462Y-82441500D01*
X23399446Y-82441501D01*
X23295572Y-82452113D01*
X23127264Y-82507884D01*
X23127259Y-82507886D01*
X22976346Y-82600971D01*
X22850971Y-82726346D01*
X22757886Y-82877259D01*
X22757884Y-82877264D01*
X22702113Y-83045572D01*
X22691500Y-83149447D01*
X20009500Y-83149447D01*
X20009500Y-74827019D01*
X22186500Y-74827019D01*
X22186500Y-75032980D01*
X22218719Y-75236408D01*
X22282367Y-75432294D01*
X22375873Y-75615806D01*
X22496926Y-75782423D01*
X22496930Y-75782428D01*
X22642571Y-75928069D01*
X22642576Y-75928073D01*
X22711187Y-75977921D01*
X22809197Y-76049129D01*
X22926128Y-76108709D01*
X22992705Y-76142632D01*
X22992707Y-76142632D01*
X22992710Y-76142634D01*
X23083437Y-76172113D01*
X23188591Y-76206280D01*
X23290305Y-76222390D01*
X23392019Y-76238500D01*
X23392020Y-76238500D01*
X23597980Y-76238500D01*
X23597981Y-76238500D01*
X23801408Y-76206280D01*
X23997290Y-76142634D01*
X24180803Y-76049129D01*
X24347430Y-75928068D01*
X24493068Y-75782430D01*
X24614129Y-75615803D01*
X24707634Y-75432290D01*
X24771280Y-75236408D01*
X24803500Y-75032981D01*
X24803500Y-74827019D01*
X24771280Y-74623592D01*
X24707634Y-74427710D01*
X24695016Y-74402945D01*
X24684646Y-74382593D01*
X24657566Y-74329447D01*
X29806500Y-74329447D01*
X29806500Y-75530537D01*
X29806501Y-75530553D01*
X29815211Y-75615806D01*
X29817113Y-75634426D01*
X29872885Y-75802738D01*
X29965970Y-75953652D01*
X30091348Y-76079030D01*
X30242262Y-76172115D01*
X30410574Y-76227887D01*
X30514455Y-76238500D01*
X31715544Y-76238499D01*
X31819426Y-76227887D01*
X31987738Y-76172115D01*
X32138652Y-76079030D01*
X32264030Y-75953652D01*
X32357115Y-75802738D01*
X32412887Y-75634426D01*
X32423500Y-75530545D01*
X32423499Y-74329456D01*
X32412887Y-74225574D01*
X32357115Y-74057262D01*
X32264030Y-73906348D01*
X32138652Y-73780970D01*
X31987738Y-73687885D01*
X31884630Y-73653719D01*
X31819427Y-73632113D01*
X31715545Y-73621500D01*
X30514462Y-73621500D01*
X30514446Y-73621501D01*
X30410572Y-73632113D01*
X30242264Y-73687884D01*
X30242259Y-73687886D01*
X30091346Y-73780971D01*
X29965971Y-73906346D01*
X29872886Y-74057259D01*
X29872884Y-74057264D01*
X29817113Y-74225572D01*
X29806500Y-74329447D01*
X24657566Y-74329447D01*
X24654289Y-74323016D01*
X24614129Y-74244197D01*
X24535010Y-74135298D01*
X24493073Y-74077576D01*
X24493069Y-74077571D01*
X24347428Y-73931930D01*
X24347423Y-73931926D01*
X24180806Y-73810873D01*
X24180805Y-73810872D01*
X24180803Y-73810871D01*
X24122119Y-73780970D01*
X23997294Y-73717367D01*
X23801408Y-73653719D01*
X23625794Y-73625905D01*
X23597981Y-73621500D01*
X23392019Y-73621500D01*
X23367550Y-73625375D01*
X23188591Y-73653719D01*
X22992705Y-73717367D01*
X22809193Y-73810873D01*
X22642576Y-73931926D01*
X22642571Y-73931930D01*
X22496930Y-74077571D01*
X22496926Y-74077576D01*
X22375873Y-74244193D01*
X22282367Y-74427705D01*
X22218719Y-74623591D01*
X22186500Y-74827019D01*
X20009500Y-74827019D01*
X20009500Y-67423084D01*
X22141500Y-67423084D01*
X22141500Y-67636915D01*
X22174951Y-67848117D01*
X22241026Y-68051480D01*
X22241027Y-68051483D01*
X22298596Y-68164467D01*
X22338106Y-68242009D01*
X22463794Y-68415004D01*
X22614996Y-68566206D01*
X22787991Y-68691894D01*
X22856904Y-68727007D01*
X22978516Y-68788972D01*
X22978519Y-68788973D01*
X23068765Y-68818295D01*
X23181884Y-68855049D01*
X23393084Y-68888500D01*
X23393085Y-68888500D01*
X23606915Y-68888500D01*
X23606916Y-68888500D01*
X23818116Y-68855049D01*
X24021483Y-68788972D01*
X24212009Y-68691894D01*
X24385004Y-68566206D01*
X24536206Y-68415004D01*
X24661894Y-68242009D01*
X24758972Y-68051483D01*
X24825049Y-67848116D01*
X24858500Y-67636916D01*
X24858500Y-67423084D01*
X24828312Y-67232486D01*
X32430001Y-67232486D01*
X32440494Y-67335197D01*
X32495641Y-67501619D01*
X32495643Y-67501624D01*
X32587684Y-67650845D01*
X32711654Y-67774815D01*
X32860875Y-67866856D01*
X32860880Y-67866858D01*
X33027302Y-67922005D01*
X33027309Y-67922006D01*
X33130019Y-67932499D01*
X33404999Y-67932499D01*
X33405000Y-67932498D01*
X33405000Y-67095000D01*
X32430001Y-67095000D01*
X32430001Y-67232486D01*
X24828312Y-67232486D01*
X24825049Y-67211884D01*
X24816542Y-67185702D01*
X24782834Y-67081955D01*
X24758973Y-67008519D01*
X24758972Y-67008516D01*
X24694972Y-66882911D01*
X24661894Y-66817991D01*
X24536206Y-66644996D01*
X24424421Y-66533211D01*
X24390936Y-66471888D01*
X24395920Y-66402196D01*
X24437792Y-66346263D01*
X24468770Y-66329348D01*
X24592084Y-66283355D01*
X24592093Y-66283350D01*
X24707187Y-66197190D01*
X24707190Y-66197187D01*
X24793350Y-66082093D01*
X24793354Y-66082086D01*
X24843596Y-65947379D01*
X24843598Y-65947372D01*
X24849999Y-65887844D01*
X24850000Y-65887827D01*
X24850000Y-65240000D01*
X23933012Y-65240000D01*
X23965925Y-65182993D01*
X24000000Y-65055826D01*
X24000000Y-64924174D01*
X23965925Y-64797007D01*
X23933012Y-64740000D01*
X24850000Y-64740000D01*
X24850000Y-64092172D01*
X24849999Y-64092155D01*
X24843598Y-64032627D01*
X24843596Y-64032620D01*
X24793354Y-63897913D01*
X24793350Y-63897906D01*
X24707190Y-63782812D01*
X24707187Y-63782809D01*
X24592093Y-63696649D01*
X24592086Y-63696645D01*
X24457379Y-63646403D01*
X24457372Y-63646401D01*
X24397844Y-63640000D01*
X23750000Y-63640000D01*
X23750000Y-64556988D01*
X23692993Y-64524075D01*
X23565826Y-64490000D01*
X23434174Y-64490000D01*
X23307007Y-64524075D01*
X23250000Y-64556988D01*
X23250000Y-63640000D01*
X22602155Y-63640000D01*
X22542627Y-63646401D01*
X22542620Y-63646403D01*
X22407913Y-63696645D01*
X22407906Y-63696649D01*
X22292812Y-63782809D01*
X22292809Y-63782812D01*
X22206649Y-63897906D01*
X22206645Y-63897913D01*
X22156403Y-64032620D01*
X22156401Y-64032627D01*
X22150000Y-64092155D01*
X22150000Y-64740000D01*
X23066988Y-64740000D01*
X23034075Y-64797007D01*
X23000000Y-64924174D01*
X23000000Y-65055826D01*
X23034075Y-65182993D01*
X23066988Y-65240000D01*
X22150000Y-65240000D01*
X22150000Y-65887844D01*
X22156401Y-65947372D01*
X22156403Y-65947379D01*
X22206645Y-66082086D01*
X22206649Y-66082093D01*
X22292809Y-66197187D01*
X22292812Y-66197190D01*
X22407906Y-66283350D01*
X22407913Y-66283354D01*
X22531230Y-66329348D01*
X22587164Y-66371219D01*
X22611581Y-66436683D01*
X22596730Y-66504956D01*
X22575579Y-66533211D01*
X22463793Y-66644997D01*
X22338106Y-66817990D01*
X22241027Y-67008516D01*
X22241026Y-67008519D01*
X22174951Y-67211882D01*
X22141500Y-67423084D01*
X20009500Y-67423084D01*
X20009500Y-53968362D01*
X23649500Y-53968362D01*
X23649500Y-54231637D01*
X23649501Y-54231653D01*
X23683865Y-54492678D01*
X23752009Y-54746995D01*
X23852761Y-54990234D01*
X23852769Y-54990250D01*
X23984409Y-55218256D01*
X24144687Y-55427136D01*
X24144693Y-55427143D01*
X24330856Y-55613306D01*
X24330863Y-55613312D01*
X24539743Y-55773590D01*
X24767749Y-55905230D01*
X24767765Y-55905238D01*
X24894150Y-55957588D01*
X25011003Y-56005990D01*
X25265320Y-56074134D01*
X25526356Y-56108500D01*
X25526363Y-56108500D01*
X25789637Y-56108500D01*
X25789644Y-56108500D01*
X26050680Y-56074134D01*
X26304997Y-56005990D01*
X26510053Y-55921053D01*
X26548234Y-55905238D01*
X26548237Y-55905236D01*
X26548243Y-55905234D01*
X26776257Y-55773590D01*
X26985138Y-55613311D01*
X27171311Y-55427138D01*
X27331590Y-55218257D01*
X27463234Y-54990243D01*
X27464145Y-54988045D01*
X27494726Y-54914214D01*
X27563990Y-54746997D01*
X27632134Y-54492680D01*
X27666500Y-54231644D01*
X27666500Y-53968356D01*
X27632134Y-53707320D01*
X27563990Y-53453003D01*
X27511629Y-53326592D01*
X27463238Y-53209765D01*
X27463230Y-53209749D01*
X27331590Y-52981743D01*
X27171312Y-52772863D01*
X27171306Y-52772856D01*
X26985143Y-52586693D01*
X26985136Y-52586687D01*
X26776256Y-52426409D01*
X26548250Y-52294769D01*
X26548234Y-52294761D01*
X26304995Y-52194009D01*
X26050678Y-52125865D01*
X25789653Y-52091501D01*
X25789650Y-52091500D01*
X25789644Y-52091500D01*
X25526356Y-52091500D01*
X25526350Y-52091500D01*
X25526346Y-52091501D01*
X25265321Y-52125865D01*
X25011004Y-52194009D01*
X24767765Y-52294761D01*
X24767749Y-52294769D01*
X24539743Y-52426409D01*
X24330863Y-52586687D01*
X24330856Y-52586693D01*
X24144693Y-52772856D01*
X24144687Y-52772863D01*
X23984409Y-52981743D01*
X23852769Y-53209749D01*
X23852761Y-53209765D01*
X23752009Y-53453004D01*
X23683865Y-53707321D01*
X23649501Y-53968346D01*
X23649500Y-53968362D01*
X20009500Y-53968362D01*
X20009500Y-47472155D01*
X23658000Y-47472155D01*
X23658000Y-48770000D01*
X24938936Y-48770000D01*
X24927207Y-48798316D01*
X24898000Y-48945147D01*
X24898000Y-49094853D01*
X24927207Y-49241684D01*
X24938936Y-49270000D01*
X23658000Y-49270000D01*
X23658000Y-50567844D01*
X23664401Y-50627372D01*
X23664403Y-50627379D01*
X23714645Y-50762086D01*
X23714649Y-50762093D01*
X23800809Y-50877187D01*
X23800812Y-50877190D01*
X23915906Y-50963350D01*
X23915913Y-50963354D01*
X24050620Y-51013596D01*
X24050627Y-51013598D01*
X24110155Y-51019999D01*
X24110172Y-51020000D01*
X25408000Y-51020000D01*
X25408000Y-49739064D01*
X25436316Y-49750793D01*
X25583147Y-49780000D01*
X25732853Y-49780000D01*
X25879684Y-49750793D01*
X25908000Y-49739064D01*
X25908000Y-51020000D01*
X27205828Y-51020000D01*
X27205844Y-51019999D01*
X27265372Y-51013598D01*
X27265379Y-51013596D01*
X27400086Y-50963354D01*
X27400093Y-50963350D01*
X27515187Y-50877190D01*
X27515190Y-50877187D01*
X27601350Y-50762093D01*
X27601354Y-50762086D01*
X27620588Y-50710516D01*
X30841500Y-50710516D01*
X30841500Y-50889483D01*
X30876411Y-51064992D01*
X30876413Y-51065000D01*
X30944896Y-51230332D01*
X30944901Y-51230342D01*
X31044321Y-51379134D01*
X31044324Y-51379138D01*
X31170861Y-51505675D01*
X31170865Y-51505678D01*
X31319657Y-51605098D01*
X31319661Y-51605100D01*
X31319664Y-51605102D01*
X31485000Y-51673587D01*
X31530379Y-51682613D01*
X31592288Y-51714997D01*
X31593814Y-51716495D01*
X31742485Y-51865166D01*
X31828934Y-51922929D01*
X31866716Y-51948174D01*
X31898299Y-51961256D01*
X31998392Y-52002716D01*
X32004754Y-52005351D01*
X32004758Y-52005351D01*
X32004759Y-52005352D01*
X32151291Y-52034500D01*
X32151294Y-52034500D01*
X32151295Y-52034500D01*
X32300705Y-52034500D01*
X32479305Y-52034500D01*
X32508280Y-52043008D01*
X32537839Y-52049185D01*
X32542448Y-52053041D01*
X32546344Y-52054185D01*
X32566265Y-52070104D01*
X32576920Y-52080585D01*
X32580970Y-52087152D01*
X32706348Y-52212530D01*
X32718934Y-52220293D01*
X32728900Y-52230097D01*
X32739366Y-52248897D01*
X32753759Y-52264897D01*
X32756025Y-52278820D01*
X32762886Y-52291144D01*
X32761526Y-52312619D01*
X32764984Y-52333859D01*
X32759363Y-52346795D01*
X32758473Y-52360874D01*
X32745717Y-52378207D01*
X32737144Y-52397942D01*
X32720715Y-52412182D01*
X32717061Y-52417148D01*
X32716476Y-52417371D01*
X32711655Y-52421183D01*
X32587684Y-52545154D01*
X32495643Y-52694375D01*
X32495641Y-52694380D01*
X32440494Y-52860802D01*
X32440493Y-52860809D01*
X32430000Y-52963513D01*
X32430000Y-53101000D01*
X33531000Y-53101000D01*
X33598039Y-53120685D01*
X33643794Y-53173489D01*
X33655000Y-53225000D01*
X33655000Y-53477000D01*
X33635315Y-53544039D01*
X33582511Y-53589794D01*
X33531000Y-53601000D01*
X32430001Y-53601000D01*
X32430001Y-53738486D01*
X32440494Y-53841197D01*
X32495641Y-54007619D01*
X32495643Y-54007624D01*
X32587684Y-54156845D01*
X32711654Y-54280815D01*
X32860875Y-54372856D01*
X32860880Y-54372858D01*
X33027302Y-54428005D01*
X33027309Y-54428006D01*
X33130617Y-54438561D01*
X33195308Y-54464957D01*
X33235460Y-54522138D01*
X33238323Y-54591949D01*
X33205695Y-54649600D01*
X33160131Y-54695163D01*
X33160128Y-54695167D01*
X33090803Y-54798918D01*
X33090798Y-54798927D01*
X33043045Y-54914214D01*
X33043043Y-54914222D01*
X33018700Y-55036601D01*
X33018700Y-57294198D01*
X33043043Y-57416577D01*
X33043045Y-57416585D01*
X33090798Y-57531872D01*
X33090803Y-57531881D01*
X33160128Y-57635632D01*
X33160131Y-57635636D01*
X35476100Y-59951604D01*
X35509585Y-60012927D01*
X35504601Y-60082619D01*
X35462729Y-60138552D01*
X35435877Y-60153844D01*
X35414268Y-60162795D01*
X35414257Y-60162801D01*
X35265465Y-60262221D01*
X35265461Y-60262224D01*
X35138924Y-60388761D01*
X35138921Y-60388765D01*
X35039501Y-60537557D01*
X35039496Y-60537567D01*
X34971013Y-60702899D01*
X34971011Y-60702907D01*
X34936100Y-60878416D01*
X34936100Y-61057383D01*
X34971011Y-61232892D01*
X34971013Y-61232900D01*
X35039496Y-61398232D01*
X35039501Y-61398242D01*
X35138921Y-61547034D01*
X35138924Y-61547038D01*
X35174780Y-61582893D01*
X35189485Y-61609823D01*
X35206077Y-61635640D01*
X35206968Y-61641838D01*
X35208266Y-61644215D01*
X35211100Y-61670575D01*
X35211100Y-61805597D01*
X35191415Y-61872636D01*
X35162587Y-61903973D01*
X35158233Y-61907313D01*
X35158232Y-61907314D01*
X35042390Y-61996203D01*
X35036343Y-62000843D01*
X34942813Y-62122733D01*
X34897863Y-62231253D01*
X34854022Y-62285656D01*
X34787728Y-62307721D01*
X34783302Y-62307800D01*
X34664416Y-62307800D01*
X34488907Y-62342711D01*
X34488899Y-62342713D01*
X34323567Y-62411196D01*
X34323557Y-62411201D01*
X34174768Y-62510619D01*
X34174763Y-62510623D01*
X34101845Y-62583540D01*
X34040522Y-62617025D01*
X33989974Y-62617475D01*
X33840283Y-62587700D01*
X33840279Y-62587700D01*
X33661321Y-62587700D01*
X33661316Y-62587700D01*
X33485807Y-62622611D01*
X33485799Y-62622613D01*
X33320467Y-62691096D01*
X33320457Y-62691101D01*
X33171665Y-62790521D01*
X33171661Y-62790524D01*
X33045124Y-62917061D01*
X33045121Y-62917065D01*
X32945701Y-63065857D01*
X32945696Y-63065867D01*
X32877213Y-63231199D01*
X32877211Y-63231207D01*
X32842300Y-63406716D01*
X32842300Y-63406721D01*
X32842300Y-63585679D01*
X32851375Y-63631300D01*
X32854537Y-63647198D01*
X32852841Y-63666145D01*
X32856184Y-63684869D01*
X32849791Y-63700222D01*
X32848309Y-63716790D01*
X32836639Y-63731811D01*
X32829329Y-63749371D01*
X32809317Y-63766981D01*
X32805445Y-63771967D01*
X32803453Y-63773374D01*
X32800768Y-63775230D01*
X32706348Y-63833470D01*
X32683442Y-63856375D01*
X32674218Y-63862755D01*
X32651260Y-63870349D01*
X32630039Y-63881937D01*
X32615850Y-63882063D01*
X32607884Y-63884699D01*
X32598247Y-63882220D01*
X32579494Y-63882388D01*
X32518967Y-63870349D01*
X32474479Y-63861500D01*
X32295521Y-63861500D01*
X32295516Y-63861500D01*
X32120007Y-63896411D01*
X32119999Y-63896413D01*
X31954667Y-63964896D01*
X31954657Y-63964901D01*
X31805865Y-64064321D01*
X31805861Y-64064324D01*
X31679324Y-64190861D01*
X31679321Y-64190865D01*
X31579901Y-64339657D01*
X31579896Y-64339667D01*
X31511413Y-64504999D01*
X31511411Y-64505007D01*
X31476500Y-64680516D01*
X31476500Y-64859483D01*
X31511411Y-65034992D01*
X31511413Y-65035000D01*
X31579896Y-65200332D01*
X31579901Y-65200342D01*
X31679321Y-65349134D01*
X31679324Y-65349138D01*
X31805861Y-65475675D01*
X31805865Y-65475678D01*
X31954657Y-65575098D01*
X31954661Y-65575100D01*
X31954664Y-65575102D01*
X32120000Y-65643587D01*
X32295516Y-65678499D01*
X32295520Y-65678500D01*
X32295521Y-65678500D01*
X32474480Y-65678500D01*
X32474480Y-65678499D01*
X32579494Y-65657611D01*
X32583022Y-65657926D01*
X32586249Y-65656460D01*
X32617563Y-65661017D01*
X32649083Y-65663838D01*
X32652915Y-65666162D01*
X32655390Y-65666523D01*
X32668215Y-65675444D01*
X32685049Y-65685656D01*
X32688306Y-65688488D01*
X32706348Y-65706530D01*
X32715661Y-65712274D01*
X32723305Y-65718921D01*
X32736898Y-65740153D01*
X32753759Y-65758897D01*
X32755416Y-65769078D01*
X32760977Y-65777764D01*
X32760933Y-65802975D01*
X32764984Y-65827859D01*
X32760874Y-65837317D01*
X32760857Y-65847634D01*
X32747187Y-65868822D01*
X32737144Y-65891942D01*
X32726094Y-65901519D01*
X32722981Y-65906346D01*
X32717819Y-65908692D01*
X32716582Y-65909764D01*
X32717323Y-65910702D01*
X32711655Y-65915183D01*
X32587684Y-66039154D01*
X32495643Y-66188375D01*
X32495641Y-66188380D01*
X32440494Y-66354802D01*
X32440493Y-66354809D01*
X32430000Y-66457513D01*
X32430000Y-66595000D01*
X33531000Y-66595000D01*
X33598039Y-66614685D01*
X33643794Y-66667489D01*
X33655000Y-66719000D01*
X33655000Y-66845000D01*
X33781000Y-66845000D01*
X33848039Y-66864685D01*
X33893794Y-66917489D01*
X33905000Y-66969000D01*
X33905000Y-67932499D01*
X33932134Y-67932499D01*
X33999173Y-67952184D01*
X34044928Y-68004988D01*
X34054872Y-68074146D01*
X34025847Y-68137702D01*
X34019815Y-68144180D01*
X33834197Y-68329799D01*
X33653067Y-68510929D01*
X33615864Y-68548132D01*
X33564827Y-68599168D01*
X33495503Y-68702918D01*
X33495498Y-68702927D01*
X33447745Y-68818214D01*
X33447743Y-68818222D01*
X33423400Y-68940601D01*
X33423400Y-70655198D01*
X33447743Y-70777577D01*
X33447745Y-70777585D01*
X33495498Y-70892872D01*
X33495503Y-70892881D01*
X33564828Y-70996632D01*
X33564831Y-70996636D01*
X38758863Y-76190669D01*
X38758867Y-76190672D01*
X38862621Y-76259999D01*
X38862623Y-76259999D01*
X38862625Y-76260001D01*
X38944147Y-76293768D01*
X38977915Y-76307755D01*
X38977917Y-76307755D01*
X38977922Y-76307757D01*
X39100301Y-76332099D01*
X39100305Y-76332100D01*
X39100306Y-76332100D01*
X39100307Y-76332100D01*
X39225094Y-76332100D01*
X43405300Y-76332100D01*
X43472339Y-76351785D01*
X43518094Y-76404589D01*
X43529300Y-76456100D01*
X43529300Y-76633283D01*
X43564211Y-76808792D01*
X43564213Y-76808800D01*
X43632696Y-76974132D01*
X43632701Y-76974142D01*
X43732121Y-77122934D01*
X43732124Y-77122938D01*
X43858661Y-77249475D01*
X43858665Y-77249478D01*
X44007457Y-77348898D01*
X44007461Y-77348900D01*
X44007464Y-77348902D01*
X44172800Y-77417387D01*
X44348316Y-77452299D01*
X44348320Y-77452300D01*
X44348321Y-77452300D01*
X44527280Y-77452300D01*
X44527281Y-77452299D01*
X44702800Y-77417387D01*
X44857396Y-77353350D01*
X44926862Y-77345882D01*
X44989341Y-77377156D01*
X44992527Y-77380231D01*
X47141010Y-79528714D01*
X47174495Y-79590037D01*
X47169511Y-79659729D01*
X47141010Y-79704076D01*
X47100624Y-79744461D01*
X47100621Y-79744465D01*
X47001201Y-79893257D01*
X47001196Y-79893267D01*
X46932713Y-80058599D01*
X46932711Y-80058607D01*
X46897800Y-80234116D01*
X46897800Y-80413083D01*
X46932711Y-80588592D01*
X46932713Y-80588600D01*
X47001196Y-80753932D01*
X47001201Y-80753942D01*
X47100621Y-80902734D01*
X47100624Y-80902738D01*
X47227161Y-81029275D01*
X47227165Y-81029278D01*
X47375957Y-81128698D01*
X47375961Y-81128700D01*
X47375964Y-81128702D01*
X47541300Y-81197187D01*
X47686818Y-81226132D01*
X47716816Y-81232099D01*
X47716820Y-81232100D01*
X47716821Y-81232100D01*
X47767534Y-81232100D01*
X47834573Y-81251785D01*
X47855215Y-81268419D01*
X51236663Y-84649869D01*
X51236667Y-84649872D01*
X51340421Y-84719199D01*
X51340423Y-84719199D01*
X51340425Y-84719201D01*
X51421947Y-84752968D01*
X51455715Y-84766955D01*
X51455717Y-84766955D01*
X51455722Y-84766957D01*
X51578101Y-84791299D01*
X51578105Y-84791300D01*
X51578106Y-84791300D01*
X77697595Y-84791300D01*
X77697596Y-84791299D01*
X77819985Y-84766955D01*
X77935275Y-84719200D01*
X78039033Y-84649871D01*
X80819352Y-81869552D01*
X80880675Y-81836067D01*
X80945351Y-81839302D01*
X80949761Y-81840734D01*
X80956884Y-81843049D01*
X81168084Y-81876500D01*
X81168085Y-81876500D01*
X81381915Y-81876500D01*
X81381916Y-81876500D01*
X81593116Y-81843049D01*
X81796483Y-81776972D01*
X81987009Y-81679894D01*
X82160004Y-81554206D01*
X82311206Y-81403004D01*
X82436894Y-81230009D01*
X82436896Y-81230004D01*
X82439270Y-81226132D01*
X82491080Y-81179254D01*
X82560009Y-81167829D01*
X82624173Y-81195483D01*
X82650730Y-81226132D01*
X82653103Y-81230005D01*
X82653106Y-81230009D01*
X82778794Y-81403004D01*
X82929996Y-81554206D01*
X83102991Y-81679894D01*
X83170485Y-81714284D01*
X83293516Y-81776972D01*
X83293519Y-81776973D01*
X83368016Y-81801178D01*
X83496884Y-81843049D01*
X83708084Y-81876500D01*
X83708085Y-81876500D01*
X83921915Y-81876500D01*
X83921916Y-81876500D01*
X84133116Y-81843049D01*
X84336483Y-81776972D01*
X84527009Y-81679894D01*
X84700004Y-81554206D01*
X84851206Y-81403004D01*
X84976894Y-81230009D01*
X84976896Y-81230004D01*
X84979270Y-81226132D01*
X85031080Y-81179254D01*
X85100009Y-81167829D01*
X85164173Y-81195483D01*
X85190730Y-81226132D01*
X85193103Y-81230005D01*
X85193106Y-81230009D01*
X85318794Y-81403004D01*
X85469996Y-81554206D01*
X85642991Y-81679894D01*
X85710485Y-81714284D01*
X85833516Y-81776972D01*
X85833519Y-81776973D01*
X85908016Y-81801178D01*
X86036884Y-81843049D01*
X86248084Y-81876500D01*
X86248085Y-81876500D01*
X86461915Y-81876500D01*
X86461916Y-81876500D01*
X86673116Y-81843049D01*
X86876483Y-81776972D01*
X87067009Y-81679894D01*
X87240004Y-81554206D01*
X87391206Y-81403004D01*
X87516894Y-81230009D01*
X87516896Y-81230004D01*
X87519270Y-81226132D01*
X87571080Y-81179254D01*
X87640009Y-81167829D01*
X87704173Y-81195483D01*
X87730730Y-81226132D01*
X87733103Y-81230005D01*
X87733106Y-81230009D01*
X87858794Y-81403004D01*
X88009996Y-81554206D01*
X88182991Y-81679894D01*
X88250485Y-81714284D01*
X88373516Y-81776972D01*
X88373519Y-81776973D01*
X88448016Y-81801178D01*
X88576884Y-81843049D01*
X88788084Y-81876500D01*
X88788085Y-81876500D01*
X89001915Y-81876500D01*
X89001916Y-81876500D01*
X89213116Y-81843049D01*
X89416483Y-81776972D01*
X89607009Y-81679894D01*
X89780004Y-81554206D01*
X89931206Y-81403004D01*
X90056894Y-81230009D01*
X90056896Y-81230004D01*
X90059270Y-81226132D01*
X90111080Y-81179254D01*
X90180009Y-81167829D01*
X90244173Y-81195483D01*
X90270730Y-81226132D01*
X90273103Y-81230005D01*
X90273106Y-81230009D01*
X90398794Y-81403004D01*
X90549996Y-81554206D01*
X90722991Y-81679894D01*
X90790485Y-81714284D01*
X90913516Y-81776972D01*
X90913519Y-81776973D01*
X90988016Y-81801178D01*
X91116884Y-81843049D01*
X91328084Y-81876500D01*
X91328085Y-81876500D01*
X91541915Y-81876500D01*
X91541916Y-81876500D01*
X91753116Y-81843049D01*
X91956483Y-81776972D01*
X92147009Y-81679894D01*
X92320004Y-81554206D01*
X92471206Y-81403004D01*
X92596894Y-81230009D01*
X92596896Y-81230004D01*
X92599270Y-81226132D01*
X92651080Y-81179254D01*
X92720009Y-81167829D01*
X92784173Y-81195483D01*
X92810730Y-81226132D01*
X92813103Y-81230005D01*
X92813106Y-81230009D01*
X92938794Y-81403004D01*
X93089996Y-81554206D01*
X93262991Y-81679894D01*
X93330485Y-81714284D01*
X93453516Y-81776972D01*
X93453519Y-81776973D01*
X93528016Y-81801178D01*
X93656884Y-81843049D01*
X93868084Y-81876500D01*
X93868085Y-81876500D01*
X94081915Y-81876500D01*
X94081916Y-81876500D01*
X94293116Y-81843049D01*
X94496483Y-81776972D01*
X94687009Y-81679894D01*
X94860004Y-81554206D01*
X95011206Y-81403004D01*
X95136894Y-81230009D01*
X95136896Y-81230004D01*
X95139270Y-81226132D01*
X95191080Y-81179254D01*
X95260009Y-81167829D01*
X95324173Y-81195483D01*
X95350730Y-81226132D01*
X95353103Y-81230005D01*
X95353106Y-81230009D01*
X95478794Y-81403004D01*
X95629996Y-81554206D01*
X95802991Y-81679894D01*
X95870485Y-81714284D01*
X95993516Y-81776972D01*
X95993519Y-81776973D01*
X96068016Y-81801178D01*
X96196884Y-81843049D01*
X96408084Y-81876500D01*
X96408085Y-81876500D01*
X96621915Y-81876500D01*
X96621916Y-81876500D01*
X96833116Y-81843049D01*
X97036483Y-81776972D01*
X97227009Y-81679894D01*
X97400004Y-81554206D01*
X97511791Y-81442418D01*
X97573110Y-81408936D01*
X97642802Y-81413920D01*
X97698736Y-81455791D01*
X97715651Y-81486769D01*
X97761645Y-81610086D01*
X97761649Y-81610093D01*
X97847809Y-81725187D01*
X97847812Y-81725190D01*
X97962906Y-81811350D01*
X97962913Y-81811354D01*
X98097620Y-81861596D01*
X98097627Y-81861598D01*
X98157155Y-81867999D01*
X98157172Y-81868000D01*
X98805000Y-81868000D01*
X98805000Y-80951012D01*
X98862007Y-80983925D01*
X98989174Y-81018000D01*
X99120826Y-81018000D01*
X99247993Y-80983925D01*
X99305000Y-80951012D01*
X99305000Y-81868000D01*
X99952828Y-81868000D01*
X99952844Y-81867999D01*
X100012372Y-81861598D01*
X100012379Y-81861596D01*
X100147086Y-81811354D01*
X100147093Y-81811350D01*
X100262187Y-81725190D01*
X100262190Y-81725187D01*
X100348350Y-81610093D01*
X100348354Y-81610086D01*
X100398596Y-81475379D01*
X100398598Y-81475372D01*
X100404999Y-81415844D01*
X100405000Y-81415827D01*
X100405000Y-80768000D01*
X99488012Y-80768000D01*
X99520925Y-80710993D01*
X99555000Y-80583826D01*
X99555000Y-80452174D01*
X99520925Y-80325007D01*
X99488012Y-80268000D01*
X100405000Y-80268000D01*
X100405000Y-79929700D01*
X100424685Y-79862661D01*
X100477489Y-79816906D01*
X100529000Y-79805700D01*
X103729195Y-79805700D01*
X103729196Y-79805699D01*
X103851585Y-79781355D01*
X103966875Y-79733600D01*
X104070633Y-79664271D01*
X113048085Y-70686819D01*
X113109408Y-70653334D01*
X113135766Y-70650500D01*
X113597737Y-70650500D01*
X113597744Y-70650500D01*
X113711824Y-70635481D01*
X113853768Y-70576686D01*
X113975657Y-70483157D01*
X114069186Y-70361268D01*
X114127981Y-70219324D01*
X114143000Y-70105244D01*
X114143000Y-69878756D01*
X114142999Y-69878750D01*
X114142734Y-69874704D01*
X114147694Y-69874378D01*
X114146306Y-69835980D01*
X114181931Y-69775875D01*
X114244396Y-69744572D01*
X114313869Y-69752010D01*
X114335359Y-69763490D01*
X114385657Y-69797098D01*
X114385661Y-69797100D01*
X114385664Y-69797102D01*
X114551000Y-69865587D01*
X114726516Y-69900499D01*
X114726520Y-69900500D01*
X114726521Y-69900500D01*
X114905480Y-69900500D01*
X114905481Y-69900499D01*
X115081000Y-69865587D01*
X115246336Y-69797102D01*
X115395135Y-69697678D01*
X115521678Y-69571135D01*
X115621102Y-69422336D01*
X115689587Y-69257000D01*
X115724500Y-69081479D01*
X115724500Y-68902521D01*
X115689587Y-68727000D01*
X115621102Y-68561664D01*
X115621100Y-68561661D01*
X115621098Y-68561657D01*
X115521678Y-68412865D01*
X115521675Y-68412861D01*
X115395138Y-68286324D01*
X115395134Y-68286321D01*
X115246342Y-68186901D01*
X115246332Y-68186896D01*
X115081000Y-68118413D01*
X115080992Y-68118411D01*
X114905483Y-68083500D01*
X114905479Y-68083500D01*
X114726521Y-68083500D01*
X114726516Y-68083500D01*
X114551007Y-68118411D01*
X114550999Y-68118413D01*
X114385667Y-68186896D01*
X114385654Y-68186903D01*
X114335357Y-68220510D01*
X114268680Y-68241387D01*
X114201300Y-68222902D01*
X114154610Y-68170922D01*
X114144645Y-68109421D01*
X114142734Y-68109296D01*
X114143000Y-68105237D01*
X114143000Y-67878762D01*
X114142999Y-67878748D01*
X114134146Y-67811507D01*
X114127981Y-67764676D01*
X114127980Y-67764674D01*
X114127126Y-67758186D01*
X114127126Y-67725814D01*
X114127980Y-67719325D01*
X114127981Y-67719324D01*
X114143000Y-67605244D01*
X114143000Y-67378756D01*
X114127981Y-67264676D01*
X114127980Y-67264674D01*
X114127126Y-67258186D01*
X114127126Y-67225814D01*
X114127980Y-67219325D01*
X114127981Y-67219324D01*
X114143000Y-67105244D01*
X114143000Y-66878756D01*
X114127981Y-66764676D01*
X114069186Y-66622732D01*
X114026794Y-66567486D01*
X114001600Y-66502319D01*
X114015638Y-66433874D01*
X114026793Y-66416515D01*
X114046746Y-66390511D01*
X114103174Y-66349310D01*
X114126785Y-66345195D01*
X114129587Y-66342000D01*
X114121281Y-66278911D01*
X114128021Y-66227750D01*
X114125877Y-66227176D01*
X114127978Y-66219330D01*
X114127981Y-66219324D01*
X114143000Y-66105244D01*
X114143000Y-65878756D01*
X114127981Y-65764676D01*
X114127980Y-65764674D01*
X114127126Y-65758186D01*
X114127126Y-65725814D01*
X114127980Y-65719325D01*
X114127981Y-65719324D01*
X114143000Y-65605244D01*
X114143000Y-65378756D01*
X114127981Y-65264676D01*
X114127980Y-65264674D01*
X114127126Y-65258186D01*
X114127126Y-65225814D01*
X114127980Y-65219325D01*
X114127981Y-65219324D01*
X114143000Y-65105244D01*
X114143000Y-64878756D01*
X114127981Y-64764676D01*
X114127980Y-64764674D01*
X114127126Y-64758186D01*
X114127126Y-64725814D01*
X114127980Y-64719325D01*
X114127981Y-64719324D01*
X114143000Y-64605244D01*
X114143000Y-64378756D01*
X114142319Y-64373587D01*
X114133303Y-64305102D01*
X114127981Y-64264676D01*
X114127980Y-64264674D01*
X114127126Y-64258186D01*
X114126439Y-64232374D01*
X114127333Y-64220887D01*
X114127981Y-64219324D01*
X114143000Y-64105244D01*
X114143000Y-64019677D01*
X114143374Y-64014874D01*
X114154147Y-63986534D01*
X114162685Y-63957461D01*
X114166437Y-63954209D01*
X114168203Y-63949565D01*
X114192590Y-63931547D01*
X114215489Y-63911706D01*
X114221099Y-63910485D01*
X114224400Y-63908047D01*
X114235692Y-63907310D01*
X114267000Y-63900500D01*
X114369080Y-63900500D01*
X114369081Y-63900499D01*
X114544600Y-63865587D01*
X114709936Y-63797102D01*
X114858735Y-63697678D01*
X114985278Y-63571135D01*
X115084702Y-63422336D01*
X115153187Y-63257000D01*
X115188100Y-63081479D01*
X115188100Y-62902521D01*
X115153187Y-62727000D01*
X115084702Y-62561664D01*
X115084700Y-62561661D01*
X115084698Y-62561657D01*
X114985278Y-62412865D01*
X114985275Y-62412861D01*
X114858738Y-62286324D01*
X114858734Y-62286321D01*
X114709942Y-62186901D01*
X114709932Y-62186896D01*
X114544600Y-62118413D01*
X114544592Y-62118411D01*
X114503373Y-62110212D01*
X114441462Y-62077827D01*
X114406888Y-62017112D01*
X114405947Y-61964406D01*
X114433800Y-61824379D01*
X114433800Y-61645421D01*
X114398887Y-61469900D01*
X114330402Y-61304564D01*
X114330400Y-61304561D01*
X114330398Y-61304557D01*
X114230978Y-61155765D01*
X114230975Y-61155761D01*
X114104438Y-61029224D01*
X114104434Y-61029221D01*
X113955642Y-60929801D01*
X113955632Y-60929796D01*
X113790300Y-60861313D01*
X113790292Y-60861311D01*
X113636309Y-60830682D01*
X113574398Y-60798297D01*
X113539824Y-60737582D01*
X113543563Y-60667812D01*
X113572819Y-60621384D01*
X114582501Y-59611703D01*
X115812571Y-58381633D01*
X115881900Y-58277875D01*
X115929655Y-58162585D01*
X115954000Y-58040194D01*
X115954000Y-57915407D01*
X115954000Y-55208506D01*
X115929655Y-55086115D01*
X115881900Y-54970825D01*
X115881899Y-54970824D01*
X115881896Y-54970818D01*
X115812572Y-54867068D01*
X115768876Y-54823372D01*
X115724333Y-54778829D01*
X115484846Y-54539342D01*
X115241036Y-54295531D01*
X115241032Y-54295528D01*
X115137281Y-54226203D01*
X115137272Y-54226198D01*
X115021985Y-54178445D01*
X115021977Y-54178443D01*
X114899598Y-54154100D01*
X114899594Y-54154100D01*
X114337993Y-54154100D01*
X114267000Y-54154100D01*
X114199961Y-54134415D01*
X114154206Y-54081611D01*
X114143000Y-54030100D01*
X114143000Y-53841762D01*
X114142999Y-53841748D01*
X114137645Y-53801082D01*
X114127981Y-53727676D01*
X114127980Y-53727674D01*
X114127126Y-53721186D01*
X114127126Y-53688814D01*
X114127980Y-53682325D01*
X114127981Y-53682324D01*
X114143000Y-53568244D01*
X114143000Y-53341756D01*
X114127981Y-53227676D01*
X114069186Y-53085732D01*
X114026794Y-53030486D01*
X114001600Y-52965319D01*
X114015638Y-52896874D01*
X114026791Y-52879517D01*
X114046746Y-52853511D01*
X114103174Y-52812310D01*
X114126785Y-52808195D01*
X114129587Y-52805000D01*
X114121281Y-52741911D01*
X114128021Y-52690750D01*
X114125877Y-52690176D01*
X114127978Y-52682330D01*
X114127981Y-52682324D01*
X114143000Y-52568244D01*
X114143000Y-52341756D01*
X114127981Y-52227676D01*
X114127980Y-52227674D01*
X114127126Y-52221186D01*
X114127126Y-52188814D01*
X114127980Y-52182325D01*
X114127981Y-52182324D01*
X114143000Y-52068244D01*
X114143000Y-51841756D01*
X114142650Y-51839101D01*
X114141644Y-51831460D01*
X114127981Y-51727676D01*
X114127980Y-51727674D01*
X114127126Y-51721186D01*
X114127126Y-51688814D01*
X114127980Y-51682325D01*
X114127981Y-51682324D01*
X114143000Y-51568244D01*
X114143000Y-51341756D01*
X114137303Y-51298485D01*
X114148068Y-51229451D01*
X114194448Y-51177195D01*
X114260242Y-51158300D01*
X114609295Y-51158300D01*
X114609296Y-51158299D01*
X114731685Y-51133955D01*
X114846975Y-51086200D01*
X114950733Y-51016871D01*
X115500571Y-50467033D01*
X115569900Y-50363275D01*
X115617655Y-50247985D01*
X115637255Y-50149447D01*
X121577500Y-50149447D01*
X121577500Y-51450537D01*
X121577501Y-51450553D01*
X121588113Y-51554427D01*
X121619079Y-51647876D01*
X121643885Y-51722738D01*
X121736970Y-51873652D01*
X121862348Y-51999030D01*
X122013262Y-52092115D01*
X122013266Y-52092116D01*
X122019805Y-52095165D01*
X122018901Y-52097103D01*
X122067704Y-52130891D01*
X122094529Y-52195406D01*
X122082215Y-52264182D01*
X122054168Y-52300076D01*
X122054441Y-52300349D01*
X122052221Y-52302568D01*
X122051803Y-52303104D01*
X122050999Y-52303790D01*
X121899796Y-52454993D01*
X121774106Y-52627990D01*
X121677027Y-52818516D01*
X121677026Y-52818519D01*
X121610951Y-53021882D01*
X121587364Y-53170803D01*
X121577500Y-53233084D01*
X121577500Y-53446916D01*
X121589103Y-53520171D01*
X121610951Y-53658117D01*
X121677026Y-53861480D01*
X121677027Y-53861483D01*
X121755374Y-54015245D01*
X121774106Y-54052009D01*
X121899794Y-54225004D01*
X122050996Y-54376206D01*
X122211306Y-54492678D01*
X122223991Y-54501894D01*
X122227873Y-54504273D01*
X122274748Y-54556086D01*
X122286169Y-54625016D01*
X122258512Y-54689178D01*
X122227873Y-54715727D01*
X122223991Y-54718105D01*
X122050993Y-54843796D01*
X121899796Y-54994993D01*
X121774106Y-55167990D01*
X121677027Y-55358516D01*
X121677026Y-55358519D01*
X121610951Y-55561882D01*
X121584729Y-55727444D01*
X121577500Y-55773084D01*
X121577500Y-55986916D01*
X121585509Y-56037483D01*
X121610951Y-56198117D01*
X121677026Y-56401480D01*
X121677027Y-56401483D01*
X121763096Y-56570400D01*
X121774106Y-56592009D01*
X121899794Y-56765004D01*
X122050996Y-56916206D01*
X122205158Y-57028211D01*
X122223991Y-57041894D01*
X122227873Y-57044273D01*
X122274748Y-57096086D01*
X122286169Y-57165016D01*
X122258512Y-57229178D01*
X122227873Y-57255727D01*
X122223991Y-57258105D01*
X122050993Y-57383796D01*
X121899796Y-57534993D01*
X121774106Y-57707990D01*
X121677027Y-57898516D01*
X121677026Y-57898519D01*
X121610951Y-58101882D01*
X121597042Y-58189702D01*
X121577500Y-58313084D01*
X121577500Y-58526916D01*
X121589630Y-58603499D01*
X121610951Y-58738117D01*
X121677026Y-58941480D01*
X121677027Y-58941483D01*
X121748245Y-59081254D01*
X121774106Y-59132009D01*
X121899794Y-59305004D01*
X122050996Y-59456206D01*
X122196779Y-59562123D01*
X122223991Y-59581894D01*
X122227873Y-59584273D01*
X122274748Y-59636086D01*
X122286169Y-59705016D01*
X122258512Y-59769178D01*
X122227873Y-59795727D01*
X122223991Y-59798105D01*
X122050993Y-59923796D01*
X121899796Y-60074993D01*
X121774106Y-60247990D01*
X121677027Y-60438516D01*
X121677026Y-60438519D01*
X121610951Y-60641882D01*
X121577500Y-60853084D01*
X121577500Y-61066915D01*
X121610951Y-61278117D01*
X121677026Y-61481480D01*
X121677027Y-61481483D01*
X121755028Y-61634566D01*
X121774106Y-61672009D01*
X121899794Y-61845004D01*
X122050996Y-61996206D01*
X122223991Y-62121894D01*
X122306254Y-62163809D01*
X122414516Y-62218972D01*
X122414519Y-62218973D01*
X122495941Y-62245428D01*
X122617884Y-62285049D01*
X122829084Y-62318500D01*
X122829085Y-62318500D01*
X123042915Y-62318500D01*
X123042916Y-62318500D01*
X123254116Y-62285049D01*
X123457483Y-62218972D01*
X123648009Y-62121894D01*
X123821004Y-61996206D01*
X123972206Y-61845004D01*
X124097894Y-61672009D01*
X124100283Y-61667319D01*
X124148254Y-61616522D01*
X124216074Y-61599724D01*
X124282210Y-61622258D01*
X124318196Y-61663783D01*
X124318829Y-61663396D01*
X124321167Y-61667211D01*
X124321251Y-61667308D01*
X124321371Y-61667545D01*
X124321373Y-61667547D01*
X124360728Y-61721716D01*
X124993037Y-61089408D01*
X125010075Y-61152993D01*
X125075901Y-61267007D01*
X125168993Y-61360099D01*
X125283007Y-61425925D01*
X125346590Y-61442962D01*
X124714282Y-62075269D01*
X124714282Y-62075270D01*
X124768449Y-62114624D01*
X124957782Y-62211095D01*
X125159870Y-62276757D01*
X125369754Y-62310000D01*
X125582246Y-62310000D01*
X125792127Y-62276757D01*
X125792130Y-62276757D01*
X125994217Y-62211095D01*
X126183554Y-62114622D01*
X126237716Y-62075270D01*
X126237717Y-62075270D01*
X125605408Y-61442962D01*
X125668993Y-61425925D01*
X125783007Y-61360099D01*
X125876099Y-61267007D01*
X125941925Y-61152993D01*
X125958962Y-61089408D01*
X126591270Y-61721717D01*
X126591270Y-61721716D01*
X126630622Y-61667554D01*
X126727095Y-61478217D01*
X126792757Y-61276130D01*
X126792757Y-61276127D01*
X126826000Y-61066246D01*
X126826000Y-60853753D01*
X126792757Y-60643872D01*
X126792757Y-60643869D01*
X126727095Y-60441782D01*
X126630624Y-60252449D01*
X126591270Y-60198282D01*
X126591269Y-60198282D01*
X125958962Y-60830590D01*
X125941925Y-60767007D01*
X125876099Y-60652993D01*
X125783007Y-60559901D01*
X125668993Y-60494075D01*
X125605409Y-60477037D01*
X126237716Y-59844728D01*
X126183547Y-59805373D01*
X126183545Y-59805371D01*
X126183308Y-59805251D01*
X126183234Y-59805181D01*
X126179396Y-59802829D01*
X126179890Y-59802022D01*
X126132515Y-59757274D01*
X126115724Y-59689451D01*
X126138266Y-59623318D01*
X126183319Y-59584283D01*
X126188009Y-59581894D01*
X126361004Y-59456206D01*
X126512206Y-59305004D01*
X126637894Y-59132009D01*
X126734972Y-58941483D01*
X126801049Y-58738116D01*
X126834500Y-58526916D01*
X126834500Y-58313084D01*
X126801049Y-58101884D01*
X126754115Y-57957434D01*
X126734973Y-57898519D01*
X126734972Y-57898516D01*
X126674322Y-57779485D01*
X126637894Y-57707991D01*
X126512206Y-57534996D01*
X126361004Y-57383794D01*
X126201059Y-57267587D01*
X126188005Y-57258103D01*
X126184132Y-57255730D01*
X126137254Y-57203920D01*
X126125829Y-57134991D01*
X126153483Y-57070827D01*
X126184132Y-57044270D01*
X126188005Y-57041896D01*
X126188004Y-57041896D01*
X126188009Y-57041894D01*
X126361004Y-56916206D01*
X126512206Y-56765004D01*
X126637894Y-56592009D01*
X126734972Y-56401483D01*
X126801049Y-56198116D01*
X126834500Y-55986916D01*
X126834500Y-55773084D01*
X126801049Y-55561884D01*
X126752064Y-55411121D01*
X126734973Y-55358519D01*
X126734972Y-55358516D01*
X126680003Y-55250634D01*
X126637894Y-55167991D01*
X126512206Y-54994996D01*
X126361004Y-54843794D01*
X126188009Y-54718106D01*
X126188005Y-54718103D01*
X126184132Y-54715730D01*
X126137254Y-54663920D01*
X126125829Y-54594991D01*
X126153483Y-54530827D01*
X126184132Y-54504270D01*
X126188005Y-54501896D01*
X126188004Y-54501896D01*
X126188009Y-54501894D01*
X126361004Y-54376206D01*
X126512206Y-54225004D01*
X126637894Y-54052009D01*
X126734972Y-53861483D01*
X126801049Y-53658116D01*
X126834500Y-53446916D01*
X126834500Y-53233084D01*
X126801049Y-53021884D01*
X126750831Y-52867327D01*
X126734973Y-52818519D01*
X126734972Y-52818516D01*
X126684224Y-52718919D01*
X126637894Y-52627991D01*
X126512206Y-52454996D01*
X126361004Y-52303794D01*
X126233452Y-52211122D01*
X126188008Y-52178105D01*
X126183311Y-52175712D01*
X126132517Y-52127735D01*
X126115724Y-52059914D01*
X126138264Y-51993780D01*
X126179790Y-51957801D01*
X126179402Y-51957168D01*
X126183229Y-51954822D01*
X126183327Y-51954738D01*
X126183556Y-51954621D01*
X126237716Y-51915270D01*
X126237717Y-51915270D01*
X125605408Y-51282962D01*
X125668993Y-51265925D01*
X125783007Y-51200099D01*
X125876099Y-51107007D01*
X125941925Y-50992993D01*
X125958962Y-50929408D01*
X126591270Y-51561717D01*
X126591270Y-51561716D01*
X126630622Y-51507554D01*
X126727095Y-51318217D01*
X126792757Y-51116130D01*
X126792757Y-51116127D01*
X126826000Y-50906246D01*
X126826000Y-50693753D01*
X126792757Y-50483872D01*
X126792757Y-50483869D01*
X126727095Y-50281782D01*
X126630624Y-50092449D01*
X126591270Y-50038282D01*
X126591269Y-50038282D01*
X125958962Y-50670590D01*
X125941925Y-50607007D01*
X125876099Y-50492993D01*
X125783007Y-50399901D01*
X125668993Y-50334075D01*
X125605409Y-50317037D01*
X126237716Y-49684728D01*
X126183550Y-49645375D01*
X125994217Y-49548904D01*
X125792129Y-49483242D01*
X125582246Y-49450000D01*
X125369754Y-49450000D01*
X125159872Y-49483242D01*
X125159869Y-49483242D01*
X124957782Y-49548904D01*
X124768439Y-49645380D01*
X124714282Y-49684727D01*
X124714282Y-49684728D01*
X125346591Y-50317037D01*
X125283007Y-50334075D01*
X125168993Y-50399901D01*
X125075901Y-50492993D01*
X125010075Y-50607007D01*
X124993037Y-50670591D01*
X124354824Y-50032378D01*
X124337697Y-50032666D01*
X124325741Y-50025263D01*
X124311978Y-50022372D01*
X124296622Y-50007234D01*
X124278292Y-49995885D01*
X124269198Y-49980199D01*
X124262221Y-49973321D01*
X124258714Y-49966519D01*
X124255366Y-49959504D01*
X124228115Y-49877262D01*
X124135030Y-49726348D01*
X124009652Y-49600970D01*
X123915898Y-49543142D01*
X123858740Y-49507886D01*
X123858735Y-49507884D01*
X123690427Y-49452113D01*
X123586545Y-49441500D01*
X122285462Y-49441500D01*
X122285446Y-49441501D01*
X122181572Y-49452113D01*
X122013264Y-49507884D01*
X122013259Y-49507886D01*
X121862346Y-49600971D01*
X121736971Y-49726346D01*
X121643886Y-49877259D01*
X121643884Y-49877264D01*
X121588113Y-50045572D01*
X121577500Y-50149447D01*
X115637255Y-50149447D01*
X115642000Y-50125594D01*
X115642000Y-50000806D01*
X115642000Y-49470206D01*
X115620434Y-49361785D01*
X115617657Y-49347822D01*
X115617654Y-49347813D01*
X115600542Y-49306500D01*
X115585423Y-49270000D01*
X115569901Y-49232525D01*
X115569899Y-49232523D01*
X115569899Y-49232521D01*
X115500572Y-49128767D01*
X115500569Y-49128763D01*
X111960936Y-45589131D01*
X111960932Y-45589128D01*
X111857181Y-45519803D01*
X111857172Y-45519798D01*
X111741885Y-45472045D01*
X111741877Y-45472043D01*
X111619498Y-45447700D01*
X111619494Y-45447700D01*
X79320093Y-45447700D01*
X79195306Y-45447700D01*
X79195301Y-45447700D01*
X79072922Y-45472043D01*
X79072914Y-45472045D01*
X78957627Y-45519798D01*
X78957618Y-45519803D01*
X78853867Y-45589128D01*
X78853863Y-45589131D01*
X73807729Y-50635265D01*
X73746406Y-50668750D01*
X73676714Y-50663766D01*
X73660311Y-50656246D01*
X73570700Y-50606982D01*
X73570692Y-50606979D01*
X73412608Y-50566390D01*
X73412607Y-50566390D01*
X73249390Y-50566390D01*
X73249388Y-50566390D01*
X73091304Y-50606979D01*
X73091296Y-50606982D01*
X72948274Y-50685609D01*
X72948270Y-50685611D01*
X72920338Y-50709468D01*
X72920324Y-50709481D01*
X72633635Y-50996170D01*
X72633622Y-50996184D01*
X72609765Y-51024116D01*
X72609763Y-51024120D01*
X72546532Y-51139138D01*
X72497607Y-51188063D01*
X72382589Y-51251294D01*
X72382585Y-51251296D01*
X72354653Y-51275153D01*
X72354639Y-51275166D01*
X72067950Y-51561855D01*
X72067937Y-51561869D01*
X72044080Y-51589801D01*
X72044080Y-51589802D01*
X71973206Y-51718722D01*
X71924283Y-51767645D01*
X71832868Y-51817902D01*
X71888540Y-51873574D01*
X71897781Y-51890498D01*
X71911084Y-51904454D01*
X71915623Y-51923174D01*
X71922025Y-51934897D01*
X71921214Y-51946228D01*
X71924859Y-51961256D01*
X71924859Y-52054141D01*
X71945022Y-52132668D01*
X71944859Y-52137413D01*
X71946979Y-52141663D01*
X71943673Y-52172000D01*
X71942628Y-52202496D01*
X71939925Y-52206400D01*
X71939411Y-52211122D01*
X71920228Y-52234856D01*
X71902862Y-52259945D01*
X71898477Y-52261768D01*
X71895492Y-52265462D01*
X71866523Y-52275057D01*
X71838349Y-52286775D01*
X71832427Y-52286351D01*
X71829166Y-52287432D01*
X71794080Y-52283609D01*
X71713425Y-52262900D01*
X71656583Y-52230478D01*
X71620121Y-52194017D01*
X71620116Y-52194009D01*
X71620115Y-52194011D01*
X71614919Y-52188814D01*
X71578165Y-52152055D01*
X71578161Y-52152052D01*
X71578155Y-52152046D01*
X71578142Y-52152035D01*
X71562619Y-52141663D01*
X71531828Y-52121089D01*
X71474412Y-52082719D01*
X71474408Y-52082717D01*
X71474385Y-52082704D01*
X71445012Y-52070537D01*
X71425485Y-52062448D01*
X71425483Y-52062446D01*
X71425483Y-52062447D01*
X71359120Y-52034955D01*
X71359087Y-52034945D01*
X71307505Y-52024685D01*
X71307505Y-52024684D01*
X71307496Y-52024684D01*
X71236724Y-52010601D01*
X71236693Y-52010601D01*
X71189941Y-52010601D01*
X71189924Y-52010600D01*
X71111948Y-52010596D01*
X71111946Y-52010596D01*
X71106883Y-52010596D01*
X71104779Y-52010700D01*
X71033075Y-52010700D01*
X70966036Y-51991015D01*
X70945393Y-51974380D01*
X70909538Y-51938524D01*
X70909534Y-51938521D01*
X70760742Y-51839101D01*
X70760732Y-51839096D01*
X70595400Y-51770613D01*
X70595392Y-51770611D01*
X70419883Y-51735700D01*
X70419879Y-51735700D01*
X70281223Y-51735700D01*
X70214184Y-51716015D01*
X70168429Y-51663211D01*
X70158485Y-51594053D01*
X70185087Y-51533381D01*
X70189026Y-51528545D01*
X70189032Y-51528536D01*
X70267713Y-51371868D01*
X70308148Y-51201264D01*
X70308148Y-51025943D01*
X70267713Y-50855339D01*
X70189032Y-50698672D01*
X70189027Y-50698665D01*
X70123825Y-50618623D01*
X70123811Y-50618608D01*
X69929377Y-50424175D01*
X69929376Y-50424175D01*
X69248080Y-51105472D01*
X69186757Y-51138957D01*
X69117066Y-51133973D01*
X69072718Y-51105472D01*
X68983623Y-51016377D01*
X68894527Y-51105473D01*
X68833204Y-51138957D01*
X68763512Y-51133973D01*
X68719165Y-51105472D01*
X67940641Y-50326948D01*
X67940640Y-50326948D01*
X67873727Y-50393861D01*
X67812404Y-50427346D01*
X67742712Y-50422362D01*
X67698365Y-50393861D01*
X67314216Y-50009712D01*
X67277898Y-49973394D01*
X68294193Y-49973394D01*
X68983623Y-50662823D01*
X68983624Y-50662823D01*
X69575824Y-50070622D01*
X69381382Y-49876182D01*
X69381371Y-49876172D01*
X69301340Y-49810976D01*
X69301327Y-49810967D01*
X69144660Y-49732286D01*
X68974056Y-49691852D01*
X68798736Y-49691852D01*
X68628131Y-49732286D01*
X68471455Y-49810971D01*
X68391412Y-49876176D01*
X68391403Y-49876184D01*
X68294193Y-49973394D01*
X67277898Y-49973394D01*
X66872536Y-49568031D01*
X66872532Y-49568028D01*
X66768781Y-49498703D01*
X66768772Y-49498698D01*
X66653485Y-49450945D01*
X66653477Y-49450943D01*
X66531098Y-49426600D01*
X66531094Y-49426600D01*
X65812894Y-49426600D01*
X65688106Y-49426600D01*
X65688101Y-49426600D01*
X65565722Y-49450943D01*
X65565714Y-49450945D01*
X65450427Y-49498698D01*
X65450418Y-49498703D01*
X65346667Y-49568028D01*
X65346663Y-49568031D01*
X63027004Y-51887692D01*
X62270667Y-52644029D01*
X62247372Y-52667324D01*
X62182427Y-52732268D01*
X62113103Y-52836018D01*
X62113098Y-52836027D01*
X62065346Y-52951313D01*
X62065343Y-52951322D01*
X62041000Y-53073701D01*
X62041000Y-53637333D01*
X62021315Y-53704372D01*
X62004681Y-53725014D01*
X60459597Y-55270097D01*
X60398274Y-55303582D01*
X60328582Y-55298598D01*
X60324466Y-55296978D01*
X60299201Y-55286513D01*
X60299192Y-55286510D01*
X60123683Y-55251600D01*
X60123679Y-55251600D01*
X60072967Y-55251600D01*
X60005928Y-55231915D01*
X59985286Y-55215281D01*
X59451353Y-54681348D01*
X59417868Y-54620025D01*
X59422852Y-54550333D01*
X59464724Y-54494400D01*
X59530188Y-54469983D01*
X59586485Y-54479105D01*
X59739500Y-54542487D01*
X59895414Y-54573500D01*
X59915016Y-54577399D01*
X59915020Y-54577400D01*
X59915021Y-54577400D01*
X60093980Y-54577400D01*
X60093981Y-54577399D01*
X60269500Y-54542487D01*
X60434836Y-54474002D01*
X60583635Y-54374578D01*
X60710178Y-54248035D01*
X60809602Y-54099236D01*
X60878087Y-53933900D01*
X60913000Y-53758379D01*
X60913000Y-53579421D01*
X60878087Y-53403900D01*
X60809602Y-53238564D01*
X60809600Y-53238561D01*
X60809598Y-53238557D01*
X60710178Y-53089765D01*
X60710175Y-53089761D01*
X60583638Y-52963224D01*
X60583634Y-52963221D01*
X60434842Y-52863801D01*
X60434832Y-52863796D01*
X60269500Y-52795313D01*
X60269492Y-52795311D01*
X60122492Y-52766071D01*
X60060581Y-52733686D01*
X60026007Y-52672971D01*
X60029746Y-52603201D01*
X60032105Y-52597042D01*
X60087587Y-52463100D01*
X60122500Y-52287579D01*
X60122500Y-52108621D01*
X60087587Y-51933100D01*
X60019102Y-51767764D01*
X60019100Y-51767761D01*
X60019098Y-51767757D01*
X59919678Y-51618965D01*
X59919675Y-51618961D01*
X59793138Y-51492424D01*
X59793134Y-51492421D01*
X59644342Y-51393001D01*
X59644332Y-51392996D01*
X59479000Y-51324513D01*
X59478992Y-51324511D01*
X59303483Y-51289600D01*
X59303479Y-51289600D01*
X59124521Y-51289600D01*
X59124516Y-51289600D01*
X58949007Y-51324511D01*
X58948999Y-51324513D01*
X58783667Y-51392996D01*
X58783657Y-51393001D01*
X58688091Y-51456857D01*
X58621413Y-51477735D01*
X58554033Y-51459250D01*
X58507343Y-51407271D01*
X58495200Y-51353755D01*
X58495200Y-51340120D01*
X58495199Y-51340116D01*
X58490843Y-51318217D01*
X58460287Y-51164600D01*
X58391802Y-50999264D01*
X58391800Y-50999261D01*
X58391798Y-50999257D01*
X58292378Y-50850465D01*
X58292375Y-50850461D01*
X58165838Y-50723924D01*
X58165834Y-50723921D01*
X58017043Y-50624502D01*
X58017039Y-50624500D01*
X58017038Y-50624499D01*
X58017036Y-50624498D01*
X57982457Y-50610174D01*
X57969939Y-50604989D01*
X57929714Y-50578110D01*
X57154235Y-49802631D01*
X57120750Y-49741308D01*
X57125734Y-49671616D01*
X57154236Y-49627268D01*
X57200668Y-49580836D01*
X57200671Y-49580833D01*
X57270000Y-49477075D01*
X57317755Y-49361785D01*
X57342100Y-49239394D01*
X57342100Y-49114606D01*
X57342100Y-48639006D01*
X57317755Y-48516615D01*
X57270000Y-48401325D01*
X57269999Y-48401324D01*
X57269996Y-48401318D01*
X57200672Y-48297568D01*
X57163104Y-48260000D01*
X57112433Y-48209329D01*
X57049246Y-48146142D01*
X56874536Y-47971431D01*
X56874532Y-47971428D01*
X56770781Y-47902103D01*
X56770772Y-47902098D01*
X56655485Y-47854345D01*
X56655477Y-47854343D01*
X56533098Y-47830000D01*
X56533094Y-47830000D01*
X54545094Y-47830000D01*
X54420306Y-47830000D01*
X54420301Y-47830000D01*
X54297922Y-47854343D01*
X54297914Y-47854345D01*
X54182627Y-47902098D01*
X54182618Y-47902103D01*
X54078867Y-47971428D01*
X54078863Y-47971431D01*
X51924702Y-50125594D01*
X51235667Y-50814629D01*
X51199835Y-50850461D01*
X51147427Y-50902868D01*
X51078103Y-51006618D01*
X51078098Y-51006627D01*
X51030345Y-51121914D01*
X51030343Y-51121922D01*
X51006000Y-51244301D01*
X51006000Y-61201933D01*
X50986315Y-61268972D01*
X50933511Y-61314727D01*
X50864353Y-61324671D01*
X50800797Y-61295646D01*
X50794319Y-61289614D01*
X42452636Y-52947931D01*
X42452632Y-52947928D01*
X42348881Y-52878603D01*
X42348872Y-52878598D01*
X42233585Y-52830845D01*
X42233577Y-52830843D01*
X42111198Y-52806500D01*
X42111194Y-52806500D01*
X38594418Y-52806500D01*
X38575802Y-52801033D01*
X38556405Y-52800530D01*
X38542967Y-52791392D01*
X38527379Y-52786815D01*
X38514673Y-52772152D01*
X38498628Y-52761241D01*
X38492264Y-52746290D01*
X38481624Y-52734011D01*
X38478862Y-52714806D01*
X38471263Y-52696953D01*
X38473992Y-52680935D01*
X38471680Y-52664853D01*
X38479740Y-52647202D01*
X38483000Y-52628076D01*
X38493954Y-52616078D01*
X38500705Y-52601297D01*
X38517029Y-52590805D01*
X38530111Y-52576479D01*
X38553429Y-52567413D01*
X38559483Y-52563523D01*
X38562585Y-52562656D01*
X38566384Y-52561646D01*
X38629185Y-52549155D01*
X38657376Y-52537477D01*
X38665364Y-52535356D01*
X38675040Y-52535607D01*
X38697197Y-52531200D01*
X38851180Y-52531200D01*
X38851181Y-52531199D01*
X39026700Y-52496287D01*
X39192036Y-52427802D01*
X39340835Y-52328378D01*
X39467378Y-52201835D01*
X39566802Y-52053036D01*
X39635287Y-51887700D01*
X39670200Y-51712179D01*
X39670200Y-51533221D01*
X39635287Y-51357700D01*
X39566802Y-51192364D01*
X39566800Y-51192361D01*
X39566798Y-51192357D01*
X39467378Y-51043565D01*
X39467375Y-51043561D01*
X39340838Y-50917024D01*
X39340834Y-50917021D01*
X39192042Y-50817601D01*
X39192032Y-50817596D01*
X39026700Y-50749113D01*
X39026692Y-50749111D01*
X38851183Y-50714200D01*
X38851179Y-50714200D01*
X38672221Y-50714200D01*
X38637114Y-50721183D01*
X38566468Y-50735235D01*
X38537015Y-50732598D01*
X38507449Y-50732625D01*
X38502606Y-50729518D01*
X38496877Y-50729006D01*
X38473529Y-50710869D01*
X38448637Y-50694903D01*
X38444625Y-50688415D01*
X38441700Y-50686143D01*
X38429529Y-50665228D01*
X38428585Y-50663167D01*
X38365002Y-50509664D01*
X38343779Y-50477902D01*
X38339650Y-50468881D01*
X38336011Y-50443731D01*
X38328419Y-50419485D01*
X38331093Y-50409736D01*
X38329646Y-50399732D01*
X38340180Y-50376609D01*
X38346903Y-50352104D01*
X38349261Y-50348433D01*
X38367702Y-50320836D01*
X38436187Y-50155500D01*
X38471100Y-49979979D01*
X38471100Y-49801021D01*
X38436187Y-49625500D01*
X38367702Y-49460164D01*
X38367700Y-49460161D01*
X38367698Y-49460157D01*
X38268278Y-49311365D01*
X38268275Y-49311361D01*
X38141738Y-49184824D01*
X38141734Y-49184821D01*
X37992942Y-49085401D01*
X37992932Y-49085396D01*
X37827600Y-49016913D01*
X37827592Y-49016911D01*
X37652083Y-48982000D01*
X37652079Y-48982000D01*
X37601366Y-48982000D01*
X37578348Y-48975241D01*
X37554479Y-48972794D01*
X37542183Y-48964621D01*
X37534327Y-48962315D01*
X37524037Y-48954934D01*
X37518603Y-48950599D01*
X37515933Y-48947929D01*
X37511764Y-48945143D01*
X37507671Y-48941878D01*
X37490484Y-48917384D01*
X37471300Y-48894424D01*
X37470002Y-48888193D01*
X37467540Y-48884683D01*
X37467119Y-48874341D01*
X37461000Y-48844944D01*
X37461000Y-48826762D01*
X37460999Y-48826748D01*
X37457256Y-48798316D01*
X37445981Y-48712676D01*
X37387186Y-48570732D01*
X37293657Y-48448843D01*
X37262606Y-48425016D01*
X37208629Y-48383598D01*
X37167427Y-48327170D01*
X37162500Y-48261026D01*
X37164300Y-48251979D01*
X37164300Y-48073021D01*
X37129387Y-47897500D01*
X37060902Y-47732164D01*
X37060900Y-47732161D01*
X37060898Y-47732157D01*
X36961478Y-47583365D01*
X36961475Y-47583361D01*
X36834938Y-47456824D01*
X36834934Y-47456821D01*
X36686142Y-47357401D01*
X36686132Y-47357396D01*
X36520800Y-47288913D01*
X36520792Y-47288911D01*
X36345283Y-47254000D01*
X36345279Y-47254000D01*
X36166321Y-47254000D01*
X36166316Y-47254000D01*
X35990807Y-47288911D01*
X35990799Y-47288913D01*
X35825467Y-47357396D01*
X35825457Y-47357401D01*
X35676665Y-47456821D01*
X35676661Y-47456824D01*
X35550124Y-47583361D01*
X35550121Y-47583365D01*
X35450701Y-47732157D01*
X35450696Y-47732167D01*
X35382213Y-47897499D01*
X35382211Y-47897507D01*
X35347300Y-48073016D01*
X35347300Y-48194145D01*
X35327615Y-48261184D01*
X35274811Y-48306939D01*
X35270753Y-48308706D01*
X35158233Y-48355313D01*
X35098269Y-48401325D01*
X35036343Y-48448843D01*
X34944382Y-48568688D01*
X34887956Y-48609889D01*
X34846008Y-48617200D01*
X34674516Y-48617200D01*
X34499007Y-48652111D01*
X34498995Y-48652114D01*
X34382410Y-48700405D01*
X34312941Y-48707874D01*
X34266068Y-48688947D01*
X34239138Y-48670953D01*
X34181136Y-48632198D01*
X34181131Y-48632196D01*
X34015800Y-48563713D01*
X34015792Y-48563711D01*
X33840283Y-48528800D01*
X33840279Y-48528800D01*
X33661321Y-48528800D01*
X33661316Y-48528800D01*
X33485807Y-48563711D01*
X33485799Y-48563713D01*
X33320467Y-48632196D01*
X33320457Y-48632201D01*
X33171665Y-48731621D01*
X33171661Y-48731624D01*
X33045124Y-48858161D01*
X33045121Y-48858165D01*
X32945701Y-49006957D01*
X32945696Y-49006967D01*
X32877213Y-49172299D01*
X32877211Y-49172307D01*
X32842300Y-49347816D01*
X32842300Y-49526783D01*
X32877211Y-49702292D01*
X32877213Y-49702300D01*
X32945696Y-49867632D01*
X32945701Y-49867642D01*
X33046403Y-50018353D01*
X33067281Y-50085031D01*
X33048796Y-50152411D01*
X32996817Y-50199101D01*
X32982305Y-50204950D01*
X32857264Y-50246384D01*
X32857259Y-50246386D01*
X32706345Y-50339471D01*
X32700685Y-50343948D01*
X32698903Y-50341694D01*
X32649046Y-50368887D01*
X32579357Y-50363869D01*
X32523444Y-50321970D01*
X32519653Y-50316611D01*
X32455678Y-50220865D01*
X32455676Y-50220862D01*
X32329138Y-50094324D01*
X32329134Y-50094321D01*
X32180342Y-49994901D01*
X32180332Y-49994896D01*
X32015000Y-49926413D01*
X32014992Y-49926411D01*
X31839483Y-49891500D01*
X31839479Y-49891500D01*
X31660521Y-49891500D01*
X31660516Y-49891500D01*
X31485007Y-49926411D01*
X31484999Y-49926413D01*
X31319667Y-49994896D01*
X31319657Y-49994901D01*
X31170865Y-50094321D01*
X31170861Y-50094324D01*
X31044324Y-50220861D01*
X31044321Y-50220865D01*
X30944901Y-50369657D01*
X30944896Y-50369667D01*
X30876413Y-50534999D01*
X30876411Y-50535007D01*
X30841500Y-50710516D01*
X27620588Y-50710516D01*
X27639021Y-50661096D01*
X27639021Y-50661095D01*
X27651598Y-50627375D01*
X27651598Y-50627372D01*
X27657999Y-50567844D01*
X27658000Y-50567827D01*
X27658000Y-49270000D01*
X26377064Y-49270000D01*
X26388793Y-49241684D01*
X26418000Y-49094853D01*
X26418000Y-48945147D01*
X26388793Y-48798316D01*
X26377064Y-48770000D01*
X27658000Y-48770000D01*
X27658000Y-47472172D01*
X27657999Y-47472155D01*
X27651598Y-47412627D01*
X27651596Y-47412620D01*
X27601354Y-47277913D01*
X27601350Y-47277906D01*
X27515190Y-47162812D01*
X27515187Y-47162809D01*
X27400093Y-47076649D01*
X27400086Y-47076645D01*
X27265379Y-47026403D01*
X27265372Y-47026401D01*
X27205844Y-47020000D01*
X25908000Y-47020000D01*
X25908000Y-48300935D01*
X25879684Y-48289207D01*
X25732853Y-48260000D01*
X25583147Y-48260000D01*
X25436316Y-48289207D01*
X25408000Y-48300935D01*
X25408000Y-47020000D01*
X24110155Y-47020000D01*
X24050627Y-47026401D01*
X24050620Y-47026403D01*
X23915913Y-47076645D01*
X23915906Y-47076649D01*
X23800812Y-47162809D01*
X23800809Y-47162812D01*
X23714649Y-47277906D01*
X23714645Y-47277913D01*
X23664403Y-47412620D01*
X23664401Y-47412627D01*
X23658000Y-47472155D01*
X20009500Y-47472155D01*
X20009500Y-45859675D01*
X20009882Y-45849946D01*
X20024358Y-45666014D01*
X20024358Y-45666013D01*
X20025860Y-45654211D01*
X20032994Y-45613750D01*
X20034528Y-45606375D01*
X20072338Y-45448884D01*
X20076375Y-45435469D01*
X20086887Y-45406586D01*
X20088806Y-45401653D01*
X20155160Y-45241460D01*
X20162300Y-45226975D01*
X20162764Y-45226171D01*
X20164347Y-45223510D01*
X20266263Y-45057199D01*
X20277684Y-45041479D01*
X20404764Y-44892687D01*
X20418487Y-44878964D01*
X20567279Y-44751884D01*
X20582999Y-44740463D01*
X20749310Y-44638547D01*
X20751971Y-44636964D01*
X20752775Y-44636500D01*
X20767260Y-44629360D01*
X20927453Y-44563006D01*
X20932386Y-44561087D01*
X20961269Y-44550575D01*
X20974684Y-44546538D01*
X21132175Y-44508728D01*
X21139550Y-44507194D01*
X21180018Y-44500059D01*
X21191809Y-44498558D01*
X21375746Y-44484081D01*
X21385475Y-44483700D01*
X128614525Y-44483700D01*
X128624253Y-44484081D01*
G37*
%TD.AperFunction*%
%TD*%
M02*
