M48
; DRILL file {KiCad 9.0.2} date 2025-07-22T08:12:48+0200
; FORMAT={-:-/ absolute / metric / decimal}
; #@! TF.CreationDate,2025-07-22T08:12:48+02:00
; #@! TF.GenerationSoftware,Kicad,Pcbnew,9.0.2
; #@! TF.FileFunction,Plated,1,2,PTH
FMAT,2
METRIC
; #@! TA.AperFunction,Plated,PTH,ViaDrill
T1C0.400
; #@! TA.AperFunction,Plated,PTH,ComponentDrill
T2C0.800
; #@! TA.AperFunction,Plated,PTH,ComponentDrill
T3C1.000
; #@! TA.AperFunction,Plated,PTH,ComponentDrill
T4C1.520
%
G90
G05
T1
X31.75Y-50.8
X32.385Y-64.77
X33.751Y-49.437
X33.751Y-63.496
X34.754Y-63.216
X34.764Y-49.526
X35.845Y-60.968
X36.256Y-48.162
X36.57Y-61.692
X37.56Y-50.94
X37.56Y-63.649
X37.563Y-49.89
X38.244Y-62.867
X38.762Y-51.623
X38.797Y-65.212
X39.946Y-56.51
X40.804Y-68.595
X44.438Y-76.544
X44.497Y-74.94
X47.806Y-80.324
X48.286Y-74.412
X51.033Y-62.424
X52.54Y-64.118
X54.133Y-67.864
X54.141Y-61.519
X55.043Y-81.759
X55.717Y-82.912
X56.249Y-57.583
X56.55Y-59.134
X57.033Y-69.413
X57.245Y-59.853
X57.587Y-51.43
X57.721Y-68.228
X58.083Y-59.276
X58.742Y-68.715
X58.781Y-57.902
X59.214Y-52.198
X59.798Y-58.304
X60.005Y-53.669
X60.034Y-56.16
X60.505Y-59.011
X61.092Y-61.106
X61.543Y-69.554
X61.597Y-56.496
X61.827Y-60.351
X62.51Y-67.743
X62.77Y-76.397
X64.561Y-67.219
X64.654Y-65.752
X65.073Y-72.564
X65.556Y-68.413
X66.04Y-50.8
X66.917Y-62.295
X66.918Y-57.915
X67.058Y-76.794
X70.065Y-63.896
X70.33Y-52.644
X70.42Y-71.488
X70.485Y-67.31
X70.775Y-57.479
X71.016Y-76.067
X72.161Y-60.229
X72.207Y-61.3
X73.27Y-57.385
X73.438Y-56.117
X74.193Y-53.233
X74.93Y-58.42
X75.108Y-64.162
X75.848Y-70.251
X76.17Y-55.948
X76.29Y-57.695
X76.533Y-59.84
X77.17Y-55.908
X77.18Y-67.066
X77.495Y-59.149
X77.822Y-61.435
X77.854Y-57.701
X78.652Y-51.719
X78.664Y-64.734
X78.821Y-65.859
X78.838Y-60.044
X82.243Y-58.947
X82.33Y-49.874
X83.185Y-63.5
X83.82Y-50.165
X85.09Y-64.77
X85.195Y-52.366
X85.89Y-75.428
X86.891Y-75.259
X86.959Y-73.808
X87.188Y-72.808
X87.69Y-55.666
X88.339Y-73.803
X89.346Y-67.845
X89.572Y-68.849
X90.228Y-47.8
X90.286Y-69.574
X91.309Y-62.231
X91.606Y-55.94
X91.742Y-61.231
X91.959Y-70.202
X92.066Y-54.455
X92.21Y-60.192
X92.355Y-57.099
X92.515Y-58.284
X93.599Y-57.206
X94.865Y-68.622
X94.964Y-54.175
X95.091Y-55.176
X95.468Y-56.687
X95.481Y-66.066
X95.527Y-67.863
X96.02Y-66.942
X102.699Y-54.613
X103.708Y-54.946
X104.469Y-56.247
X104.877Y-64.567
X105.57Y-56.807
X105.932Y-65.563
X107.406Y-61.622
X108.472Y-56.569
X108.833Y-66.841
X108.899Y-54.825
X109.626Y-66.059
X110.229Y-53.0
X110.266Y-68.118
X111.023Y-49.407
X111.245Y-62.049
X111.245Y-68.712
X111.434Y-70.042
X111.434Y-54.895
X111.468Y-60.805
X113.525Y-61.735
X114.246Y-49.8
X114.28Y-62.992
X114.554Y-55.534
X114.816Y-68.992
T2
X23.495Y-74.93
X24.0Y-83.75
X26.5Y-83.75
X31.115Y-74.93
T3
X23.5Y-64.99
X23.5Y-67.53
X50.795Y-77.978
X50.795Y-80.518
X53.335Y-77.978
X53.335Y-80.518
X55.875Y-77.978
X55.875Y-80.518
X58.415Y-77.978
X58.415Y-80.518
X60.955Y-77.978
X60.955Y-80.518
X63.495Y-77.978
X63.495Y-80.518
X66.035Y-77.978
X66.035Y-80.518
X68.575Y-77.978
X68.575Y-80.518
X71.115Y-77.978
X71.115Y-80.518
X73.655Y-77.978
X73.655Y-80.518
X76.195Y-77.978
X76.195Y-80.518
X78.735Y-77.978
X78.735Y-80.518
X81.275Y-77.978
X81.275Y-80.518
X83.815Y-77.978
X83.815Y-80.518
X86.355Y-77.978
X86.355Y-80.518
X88.895Y-77.978
X88.895Y-80.518
X91.435Y-77.978
X91.435Y-80.518
X93.975Y-77.978
X93.975Y-80.518
X96.515Y-77.978
X96.515Y-80.518
X99.055Y-77.978
X99.055Y-80.518
X122.936Y-50.8
X122.936Y-53.34
X122.936Y-55.88
X122.936Y-58.42
X122.936Y-60.96
X125.476Y-50.8
X125.476Y-53.34
X125.476Y-55.88
X125.476Y-58.42
X125.476Y-60.96
T4
X25.658Y-49.02
X25.658Y-54.1
M30
