M48
; DRILL file {KiCad 9.0.2} date 2025-06-22T07:24:45+0200
; FORMAT={-:-/ absolute / metric / decimal}
; #@! TF.CreationDate,2025-06-22T07:24:45+02:00
; #@! TF.GenerationSoftware,Kicad,Pcbnew,9.0.2
; #@! TF.FileFunction,Plated,1,2,PTH
FMAT,2
METRIC
; #@! TA.AperFunction,Plated,PTH,ViaDrill
T1C0.400
; #@! TA.AperFunction,Plated,PTH,ComponentDrill
T2C0.800
; #@! TA.AperFunction,Plated,PTH,ComponentDrill
T3C1.000
; #@! TA.AperFunction,Plated,PTH,ComponentDrill
T4C1.520
%
G90
G05
T1
X34.528Y-50.097
X34.765Y-53.94
X34.766Y-55.026
X38.587Y-68.718
X39.024Y-67.678
X41.014Y-61.23
X41.441Y-66.298
X42.852Y-58.339
X46.07Y-65.971
X50.949Y-66.055
X52.084Y-65.281
X52.796Y-52.389
X53.371Y-66.992
X53.56Y-51.211
X53.923Y-53.409
X54.114Y-67.992
X54.133Y-55.94
X54.148Y-54.44
X54.15Y-63.603
X56.93Y-65.744
X56.95Y-51.364
X56.95Y-52.408
X57.319Y-55.44
X57.563Y-69.521
X58.42Y-46.355
X58.42Y-59.69
X58.582Y-68.727
X59.536Y-49.904
X60.294Y-75.785
X60.325Y-51.435
X60.325Y-64.549
X60.533Y-71.705
X61.184Y-54.715
X61.289Y-56.217
X61.362Y-70.146
X62.709Y-62.863
X64.018Y-67.997
X65.076Y-57.131
X66.04Y-50.8
X67.273Y-58.464
X67.512Y-53.984
X67.548Y-62.138
X67.957Y-67.327
X67.998Y-55.412
X69.141Y-70.344
X69.635Y-53.79
X70.485Y-67.31
X70.805Y-59.005
X70.983Y-64.784
X70.993Y-74.027
X71.547Y-56.368
X72.821Y-55.464
X72.891Y-58.122
X73.681Y-61.184
X74.366Y-56.91
X74.791Y-58.442
X76.032Y-71.107
X76.778Y-62.419
X77.66Y-59.792
X77.903Y-61.45
X78.679Y-64.741
X79.012Y-60.508
X79.317Y-74.716
X80.795Y-69.177
X82.176Y-62.056
X82.24Y-76.577
X82.555Y-49.393
X83.185Y-63.5
X83.38Y-68.592
X83.82Y-50.165
X84.68Y-54.667
X86.738Y-83.704
X86.845Y-66.396
X87.052Y-68.789
X89.71Y-65.726
X89.728Y-68.074
X89.742Y-55.098
X89.827Y-69.548
X90.51Y-63.469
X91.26Y-55.088
X91.31Y-53.566
X91.643Y-82.638
X91.803Y-67.593
X91.983Y-68.593
X92.035Y-54.302
X92.071Y-69.593
X92.46Y-73.668
X92.484Y-71.723
X93.368Y-57.343
X93.791Y-60.366
X94.409Y-59.418
X94.86Y-53.229
X94.945Y-75.899
X95.214Y-68.289
X95.412Y-72.324
X95.925Y-54.617
X96.522Y-69.016
X96.634Y-53.892
X96.85Y-58.538
X99.476Y-74.7
X99.695Y-56.515
X100.33Y-71.12
X101.501Y-75.395
X103.148Y-51.475
X103.805Y-57.109
X103.85Y-55.956
X104.175Y-52.2
X105.61Y-52.94
X106.61Y-53.79
X107.426Y-49.455
X107.431Y-50.464
X107.61Y-53.392
X108.472Y-55.218
X109.369Y-55.976
X109.901Y-69.471
X110.027Y-62.57
X110.259Y-67.25
X110.977Y-64.321
X113.948Y-59.937
X115.57Y-46.185
X115.57Y-59.69
X116.625Y-61.511
X117.475Y-50.8
X117.475Y-64.135
T2
X23.495Y-74.93
X24.0Y-83.75
X26.5Y-83.75
X31.115Y-74.93
T3
X23.5Y-64.99
X23.5Y-67.53
X50.795Y-77.978
X50.795Y-80.518
X53.335Y-77.978
X53.335Y-80.518
X55.875Y-77.978
X55.875Y-80.518
X58.415Y-77.978
X58.415Y-80.518
X60.955Y-77.978
X60.955Y-80.518
X63.495Y-77.978
X63.495Y-80.518
X66.035Y-77.978
X66.035Y-80.518
X68.575Y-77.978
X68.575Y-80.518
X71.115Y-77.978
X71.115Y-80.518
X73.655Y-77.978
X73.655Y-80.518
X76.195Y-77.978
X76.195Y-80.518
X78.735Y-77.978
X78.735Y-80.518
X81.275Y-77.978
X81.275Y-80.518
X83.815Y-77.978
X83.815Y-80.518
X86.355Y-77.978
X86.355Y-80.518
X88.895Y-77.978
X88.895Y-80.518
X91.435Y-77.978
X91.435Y-80.518
X93.975Y-77.978
X93.975Y-80.518
X96.515Y-77.978
X96.515Y-80.518
X99.055Y-77.978
X99.055Y-80.518
X122.936Y-50.8
X122.936Y-53.34
X122.936Y-55.88
X122.936Y-58.42
X122.936Y-60.96
X125.476Y-50.8
X125.476Y-53.34
X125.476Y-55.88
X125.476Y-58.42
X125.476Y-60.96
T4
X25.658Y-49.02
X25.658Y-54.1
M30
