%TF.GenerationSoftware,KiCad,Pcbnew,9.0.2*%
%TF.CreationDate,2025-07-22T08:12:46+02:00*%
%TF.ProjectId,p2000t-ram-expansion-board-128-512-smd-cpld,70323030-3074-42d7-9261-6d2d65787061,4*%
%TF.SameCoordinates,Original*%
%TF.FileFunction,Paste,Top*%
%TF.FilePolarity,Positive*%
%FSLAX46Y46*%
G04 Gerber Fmt 4.6, Leading zero omitted, Abs format (unit mm)*
G04 Created by KiCad (PCBNEW 9.0.2) date 2025-07-22 08:12:46*
%MOMM*%
%LPD*%
G01*
G04 APERTURE LIST*
G04 Aperture macros list*
%AMRoundRect*
0 Rectangle with rounded corners*
0 $1 Rounding radius*
0 $2 $3 $4 $5 $6 $7 $8 $9 X,Y pos of 4 corners*
0 Add a 4 corners polygon primitive as box body*
4,1,4,$2,$3,$4,$5,$6,$7,$8,$9,$2,$3,0*
0 Add four circle primitives for the rounded corners*
1,1,$1+$1,$2,$3*
1,1,$1+$1,$4,$5*
1,1,$1+$1,$6,$7*
1,1,$1+$1,$8,$9*
0 Add four rect primitives between the rounded corners*
20,1,$1+$1,$2,$3,$4,$5,0*
20,1,$1+$1,$4,$5,$6,$7,0*
20,1,$1+$1,$6,$7,$8,$9,0*
20,1,$1+$1,$8,$9,$2,$3,0*%
G04 Aperture macros list end*
%ADD10RoundRect,0.250000X-0.097227X0.574524X-0.574524X0.097227X0.097227X-0.574524X0.574524X-0.097227X0*%
%ADD11RoundRect,0.075000X-0.712500X-0.075000X0.712500X-0.075000X0.712500X0.075000X-0.712500X0.075000X0*%
%ADD12RoundRect,0.250000X-0.475000X0.337500X-0.475000X-0.337500X0.475000X-0.337500X0.475000X0.337500X0*%
%ADD13RoundRect,0.250000X0.097227X-0.574524X0.574524X-0.097227X-0.097227X0.574524X-0.574524X0.097227X0*%
%ADD14RoundRect,0.137500X-0.327037X-0.521491X0.521491X0.327037X0.327037X0.521491X-0.521491X-0.327037X0*%
%ADD15RoundRect,0.137500X0.327037X-0.521491X0.521491X-0.327037X-0.327037X0.521491X-0.521491X0.327037X0*%
%ADD16RoundRect,0.250000X0.574524X0.097227X0.097227X0.574524X-0.574524X-0.097227X-0.097227X-0.574524X0*%
%ADD17RoundRect,0.250000X-0.574524X-0.097227X-0.097227X-0.574524X0.574524X0.097227X0.097227X0.574524X0*%
G04 APERTURE END LIST*
D10*
%TO.C,C1*%
X81733623Y-64766377D03*
X80266377Y-66233623D03*
%TD*%
D11*
%TO.C,U4*%
X93472000Y-48955000D03*
X93472000Y-49455000D03*
X93472000Y-49955000D03*
X93472000Y-50455000D03*
X93472000Y-50955000D03*
X93472000Y-51455000D03*
X93472000Y-51955000D03*
X93472000Y-52455000D03*
X93472000Y-52955000D03*
X93472000Y-53455000D03*
X93472000Y-53955000D03*
X93472000Y-54455000D03*
X93472000Y-54955000D03*
X93472000Y-55455000D03*
X93472000Y-55955000D03*
X93472000Y-56455000D03*
X112847000Y-56455000D03*
X112847000Y-55955000D03*
X112847000Y-55455000D03*
X112847000Y-54955000D03*
X112847000Y-54455000D03*
X112847000Y-53955000D03*
X112847000Y-53455000D03*
X112847000Y-52955000D03*
X112847000Y-52455000D03*
X112847000Y-51955000D03*
X112847000Y-51455000D03*
X112847000Y-50955000D03*
X112847000Y-50455000D03*
X112847000Y-49955000D03*
X112847000Y-49455000D03*
X112847000Y-48955000D03*
%TD*%
D12*
%TO.C,C5*%
X33655000Y-51276000D03*
X33655000Y-53351000D03*
%TD*%
%TO.C,C2*%
X33655000Y-64770000D03*
X33655000Y-66845000D03*
%TD*%
D13*
%TO.C,C6*%
X67516377Y-52483623D03*
X68983623Y-51016377D03*
%TD*%
D12*
%TO.C,C9*%
X90805000Y-51265000D03*
X90805000Y-53340000D03*
%TD*%
D11*
%TO.C,U2*%
X36165000Y-48940000D03*
X36165000Y-49440000D03*
X36165000Y-49940000D03*
X36165000Y-50440000D03*
X36165000Y-50940000D03*
X36165000Y-51440000D03*
X36165000Y-51940000D03*
X36165000Y-52440000D03*
X36165000Y-52940000D03*
X36165000Y-53440000D03*
X36165000Y-53940000D03*
X36165000Y-54440000D03*
X36165000Y-54940000D03*
X36165000Y-55440000D03*
X36165000Y-55940000D03*
X36165000Y-56440000D03*
X55540000Y-56440000D03*
X55540000Y-55940000D03*
X55540000Y-55440000D03*
X55540000Y-54940000D03*
X55540000Y-54440000D03*
X55540000Y-53940000D03*
X55540000Y-53440000D03*
X55540000Y-52940000D03*
X55540000Y-52440000D03*
X55540000Y-51940000D03*
X55540000Y-51440000D03*
X55540000Y-50940000D03*
X55540000Y-50440000D03*
X55540000Y-49940000D03*
X55540000Y-49440000D03*
X55540000Y-48940000D03*
%TD*%
D14*
%TO.C,U1*%
X68001181Y-59741865D03*
X68566866Y-60307550D03*
X69132552Y-60873236D03*
X69698237Y-61438921D03*
X70263922Y-62004607D03*
X70829608Y-62570292D03*
X71395293Y-63135978D03*
X71960979Y-63701663D03*
X72526664Y-64267348D03*
X73092350Y-64833034D03*
X73658035Y-65398719D03*
D15*
X76009165Y-65398719D03*
X76574850Y-64833034D03*
X77140536Y-64267348D03*
X77706221Y-63701663D03*
X78271907Y-63135978D03*
X78837592Y-62570292D03*
X79403278Y-62004607D03*
X79968963Y-61438921D03*
X80534648Y-60873236D03*
X81100334Y-60307550D03*
X81666019Y-59741865D03*
D14*
X81666019Y-57390735D03*
X81100334Y-56825050D03*
X80534648Y-56259364D03*
X79968963Y-55693679D03*
X79403278Y-55127993D03*
X78837592Y-54562308D03*
X78271907Y-53996622D03*
X77706221Y-53430937D03*
X77140536Y-52865252D03*
X76574850Y-52299566D03*
X76009165Y-51733881D03*
D15*
X73658035Y-51733881D03*
X73092350Y-52299566D03*
X72526664Y-52865252D03*
X71960979Y-53430937D03*
X71395293Y-53996622D03*
X70829608Y-54562308D03*
X70263922Y-55127993D03*
X69698237Y-55693679D03*
X69132552Y-56259364D03*
X68566866Y-56825050D03*
X68001181Y-57390735D03*
%TD*%
D11*
%TO.C,U3*%
X36165000Y-62492000D03*
X36165000Y-62992000D03*
X36165000Y-63492000D03*
X36165000Y-63992000D03*
X36165000Y-64492000D03*
X36165000Y-64992000D03*
X36165000Y-65492000D03*
X36165000Y-65992000D03*
X36165000Y-66492000D03*
X36165000Y-66992000D03*
X36165000Y-67492000D03*
X36165000Y-67992000D03*
X36165000Y-68492000D03*
X36165000Y-68992000D03*
X36165000Y-69492000D03*
X36165000Y-69992000D03*
X55540000Y-69992000D03*
X55540000Y-69492000D03*
X55540000Y-68992000D03*
X55540000Y-68492000D03*
X55540000Y-67992000D03*
X55540000Y-67492000D03*
X55540000Y-66992000D03*
X55540000Y-66492000D03*
X55540000Y-65992000D03*
X55540000Y-65492000D03*
X55540000Y-64992000D03*
X55540000Y-64492000D03*
X55540000Y-63992000D03*
X55540000Y-63492000D03*
X55540000Y-62992000D03*
X55540000Y-62492000D03*
%TD*%
%TO.C,U5*%
X93472000Y-62492000D03*
X93472000Y-62992000D03*
X93472000Y-63492000D03*
X93472000Y-63992000D03*
X93472000Y-64492000D03*
X93472000Y-64992000D03*
X93472000Y-65492000D03*
X93472000Y-65992000D03*
X93472000Y-66492000D03*
X93472000Y-66992000D03*
X93472000Y-67492000D03*
X93472000Y-67992000D03*
X93472000Y-68492000D03*
X93472000Y-68992000D03*
X93472000Y-69492000D03*
X93472000Y-69992000D03*
X112847000Y-69992000D03*
X112847000Y-69492000D03*
X112847000Y-68992000D03*
X112847000Y-68492000D03*
X112847000Y-67992000D03*
X112847000Y-67492000D03*
X112847000Y-66992000D03*
X112847000Y-66492000D03*
X112847000Y-65992000D03*
X112847000Y-65492000D03*
X112847000Y-64992000D03*
X112847000Y-64492000D03*
X112847000Y-63992000D03*
X112847000Y-63492000D03*
X112847000Y-62992000D03*
X112847000Y-62492000D03*
%TD*%
D12*
%TO.C,C4*%
X90805000Y-64777800D03*
X90805000Y-66852800D03*
%TD*%
D16*
%TO.C,C7*%
X69233623Y-66016323D03*
X67766377Y-64549077D03*
%TD*%
D17*
%TO.C,C8*%
X81766377Y-52049077D03*
X83233623Y-53516323D03*
%TD*%
M02*
