%TF.GenerationSoftware,KiCad,Pcbnew,9.0.2*%
%TF.CreationDate,2025-06-22T07:24:44+02:00*%
%TF.ProjectId,p2000t-ram-expansion-board-128-512-smd-cpld,70323030-3074-42d7-9261-6d2d65787061,4*%
%TF.SameCoordinates,Original*%
%TF.FileFunction,Legend,Bot*%
%TF.FilePolarity,Positive*%
%FSLAX46Y46*%
G04 Gerber Fmt 4.6, Leading zero omitted, Abs format (unit mm)*
G04 Created by KiCad (PCBNEW 9.0.2) date 2025-06-22 07:24:44*
%MOMM*%
%LPD*%
G01*
G04 APERTURE LIST*
%ADD10C,0.150000*%
%ADD11C,0.120000*%
G04 APERTURE END LIST*
D10*
X98413220Y-75119819D02*
X98413220Y-74119819D01*
X97984649Y-75119819D02*
X97984649Y-74596009D01*
X97984649Y-74596009D02*
X98032268Y-74500771D01*
X98032268Y-74500771D02*
X98127506Y-74453152D01*
X98127506Y-74453152D02*
X98270363Y-74453152D01*
X98270363Y-74453152D02*
X98365601Y-74500771D01*
X98365601Y-74500771D02*
X98413220Y-74548390D01*
X97651315Y-74453152D02*
X97270363Y-74453152D01*
X97508458Y-74119819D02*
X97508458Y-74976961D01*
X97508458Y-74976961D02*
X97460839Y-75072200D01*
X97460839Y-75072200D02*
X97365601Y-75119819D01*
X97365601Y-75119819D02*
X97270363Y-75119819D01*
X97079886Y-74453152D02*
X96698934Y-74453152D01*
X96937029Y-74119819D02*
X96937029Y-74976961D01*
X96937029Y-74976961D02*
X96889410Y-75072200D01*
X96889410Y-75072200D02*
X96794172Y-75119819D01*
X96794172Y-75119819D02*
X96698934Y-75119819D01*
X96365600Y-74453152D02*
X96365600Y-75453152D01*
X96365600Y-74500771D02*
X96270362Y-74453152D01*
X96270362Y-74453152D02*
X96079886Y-74453152D01*
X96079886Y-74453152D02*
X95984648Y-74500771D01*
X95984648Y-74500771D02*
X95937029Y-74548390D01*
X95937029Y-74548390D02*
X95889410Y-74643628D01*
X95889410Y-74643628D02*
X95889410Y-74929342D01*
X95889410Y-74929342D02*
X95937029Y-75024580D01*
X95937029Y-75024580D02*
X95984648Y-75072200D01*
X95984648Y-75072200D02*
X96079886Y-75119819D01*
X96079886Y-75119819D02*
X96270362Y-75119819D01*
X96270362Y-75119819D02*
X96365600Y-75072200D01*
X95508457Y-75072200D02*
X95413219Y-75119819D01*
X95413219Y-75119819D02*
X95222743Y-75119819D01*
X95222743Y-75119819D02*
X95127505Y-75072200D01*
X95127505Y-75072200D02*
X95079886Y-74976961D01*
X95079886Y-74976961D02*
X95079886Y-74929342D01*
X95079886Y-74929342D02*
X95127505Y-74834104D01*
X95127505Y-74834104D02*
X95222743Y-74786485D01*
X95222743Y-74786485D02*
X95365600Y-74786485D01*
X95365600Y-74786485D02*
X95460838Y-74738866D01*
X95460838Y-74738866D02*
X95508457Y-74643628D01*
X95508457Y-74643628D02*
X95508457Y-74596009D01*
X95508457Y-74596009D02*
X95460838Y-74500771D01*
X95460838Y-74500771D02*
X95365600Y-74453152D01*
X95365600Y-74453152D02*
X95222743Y-74453152D01*
X95222743Y-74453152D02*
X95127505Y-74500771D01*
X94651314Y-75024580D02*
X94603695Y-75072200D01*
X94603695Y-75072200D02*
X94651314Y-75119819D01*
X94651314Y-75119819D02*
X94698933Y-75072200D01*
X94698933Y-75072200D02*
X94651314Y-75024580D01*
X94651314Y-75024580D02*
X94651314Y-75119819D01*
X94651314Y-74500771D02*
X94603695Y-74548390D01*
X94603695Y-74548390D02*
X94651314Y-74596009D01*
X94651314Y-74596009D02*
X94698933Y-74548390D01*
X94698933Y-74548390D02*
X94651314Y-74500771D01*
X94651314Y-74500771D02*
X94651314Y-74596009D01*
X93460839Y-74072200D02*
X94317981Y-75357914D01*
X92413220Y-74072200D02*
X93270362Y-75357914D01*
X91651315Y-74453152D02*
X91651315Y-75262676D01*
X91651315Y-75262676D02*
X91698934Y-75357914D01*
X91698934Y-75357914D02*
X91746553Y-75405533D01*
X91746553Y-75405533D02*
X91841791Y-75453152D01*
X91841791Y-75453152D02*
X91984648Y-75453152D01*
X91984648Y-75453152D02*
X92079886Y-75405533D01*
X91651315Y-75072200D02*
X91746553Y-75119819D01*
X91746553Y-75119819D02*
X91937029Y-75119819D01*
X91937029Y-75119819D02*
X92032267Y-75072200D01*
X92032267Y-75072200D02*
X92079886Y-75024580D01*
X92079886Y-75024580D02*
X92127505Y-74929342D01*
X92127505Y-74929342D02*
X92127505Y-74643628D01*
X92127505Y-74643628D02*
X92079886Y-74548390D01*
X92079886Y-74548390D02*
X92032267Y-74500771D01*
X92032267Y-74500771D02*
X91937029Y-74453152D01*
X91937029Y-74453152D02*
X91746553Y-74453152D01*
X91746553Y-74453152D02*
X91651315Y-74500771D01*
X91175124Y-75119819D02*
X91175124Y-74453152D01*
X91175124Y-74119819D02*
X91222743Y-74167438D01*
X91222743Y-74167438D02*
X91175124Y-74215057D01*
X91175124Y-74215057D02*
X91127505Y-74167438D01*
X91127505Y-74167438D02*
X91175124Y-74119819D01*
X91175124Y-74119819D02*
X91175124Y-74215057D01*
X90841791Y-74453152D02*
X90460839Y-74453152D01*
X90698934Y-74119819D02*
X90698934Y-74976961D01*
X90698934Y-74976961D02*
X90651315Y-75072200D01*
X90651315Y-75072200D02*
X90556077Y-75119819D01*
X90556077Y-75119819D02*
X90460839Y-75119819D01*
X90127505Y-75119819D02*
X90127505Y-74119819D01*
X89698934Y-75119819D02*
X89698934Y-74596009D01*
X89698934Y-74596009D02*
X89746553Y-74500771D01*
X89746553Y-74500771D02*
X89841791Y-74453152D01*
X89841791Y-74453152D02*
X89984648Y-74453152D01*
X89984648Y-74453152D02*
X90079886Y-74500771D01*
X90079886Y-74500771D02*
X90127505Y-74548390D01*
X88794172Y-74453152D02*
X88794172Y-75119819D01*
X89222743Y-74453152D02*
X89222743Y-74976961D01*
X89222743Y-74976961D02*
X89175124Y-75072200D01*
X89175124Y-75072200D02*
X89079886Y-75119819D01*
X89079886Y-75119819D02*
X88937029Y-75119819D01*
X88937029Y-75119819D02*
X88841791Y-75072200D01*
X88841791Y-75072200D02*
X88794172Y-75024580D01*
X88317981Y-75119819D02*
X88317981Y-74119819D01*
X88317981Y-74500771D02*
X88222743Y-74453152D01*
X88222743Y-74453152D02*
X88032267Y-74453152D01*
X88032267Y-74453152D02*
X87937029Y-74500771D01*
X87937029Y-74500771D02*
X87889410Y-74548390D01*
X87889410Y-74548390D02*
X87841791Y-74643628D01*
X87841791Y-74643628D02*
X87841791Y-74929342D01*
X87841791Y-74929342D02*
X87889410Y-75024580D01*
X87889410Y-75024580D02*
X87937029Y-75072200D01*
X87937029Y-75072200D02*
X88032267Y-75119819D01*
X88032267Y-75119819D02*
X88222743Y-75119819D01*
X88222743Y-75119819D02*
X88317981Y-75072200D01*
X87413219Y-75024580D02*
X87365600Y-75072200D01*
X87365600Y-75072200D02*
X87413219Y-75119819D01*
X87413219Y-75119819D02*
X87460838Y-75072200D01*
X87460838Y-75072200D02*
X87413219Y-75024580D01*
X87413219Y-75024580D02*
X87413219Y-75119819D01*
X86508458Y-75072200D02*
X86603696Y-75119819D01*
X86603696Y-75119819D02*
X86794172Y-75119819D01*
X86794172Y-75119819D02*
X86889410Y-75072200D01*
X86889410Y-75072200D02*
X86937029Y-75024580D01*
X86937029Y-75024580D02*
X86984648Y-74929342D01*
X86984648Y-74929342D02*
X86984648Y-74643628D01*
X86984648Y-74643628D02*
X86937029Y-74548390D01*
X86937029Y-74548390D02*
X86889410Y-74500771D01*
X86889410Y-74500771D02*
X86794172Y-74453152D01*
X86794172Y-74453152D02*
X86603696Y-74453152D01*
X86603696Y-74453152D02*
X86508458Y-74500771D01*
X85937029Y-75119819D02*
X86032267Y-75072200D01*
X86032267Y-75072200D02*
X86079886Y-75024580D01*
X86079886Y-75024580D02*
X86127505Y-74929342D01*
X86127505Y-74929342D02*
X86127505Y-74643628D01*
X86127505Y-74643628D02*
X86079886Y-74548390D01*
X86079886Y-74548390D02*
X86032267Y-74500771D01*
X86032267Y-74500771D02*
X85937029Y-74453152D01*
X85937029Y-74453152D02*
X85794172Y-74453152D01*
X85794172Y-74453152D02*
X85698934Y-74500771D01*
X85698934Y-74500771D02*
X85651315Y-74548390D01*
X85651315Y-74548390D02*
X85603696Y-74643628D01*
X85603696Y-74643628D02*
X85603696Y-74929342D01*
X85603696Y-74929342D02*
X85651315Y-75024580D01*
X85651315Y-75024580D02*
X85698934Y-75072200D01*
X85698934Y-75072200D02*
X85794172Y-75119819D01*
X85794172Y-75119819D02*
X85937029Y-75119819D01*
X85175124Y-75119819D02*
X85175124Y-74453152D01*
X85175124Y-74548390D02*
X85127505Y-74500771D01*
X85127505Y-74500771D02*
X85032267Y-74453152D01*
X85032267Y-74453152D02*
X84889410Y-74453152D01*
X84889410Y-74453152D02*
X84794172Y-74500771D01*
X84794172Y-74500771D02*
X84746553Y-74596009D01*
X84746553Y-74596009D02*
X84746553Y-75119819D01*
X84746553Y-74596009D02*
X84698934Y-74500771D01*
X84698934Y-74500771D02*
X84603696Y-74453152D01*
X84603696Y-74453152D02*
X84460839Y-74453152D01*
X84460839Y-74453152D02*
X84365600Y-74500771D01*
X84365600Y-74500771D02*
X84317981Y-74596009D01*
X84317981Y-74596009D02*
X84317981Y-75119819D01*
X83127506Y-74072200D02*
X83984648Y-75357914D01*
X82794172Y-75119819D02*
X82794172Y-74453152D01*
X82794172Y-74119819D02*
X82841791Y-74167438D01*
X82841791Y-74167438D02*
X82794172Y-74215057D01*
X82794172Y-74215057D02*
X82746553Y-74167438D01*
X82746553Y-74167438D02*
X82794172Y-74119819D01*
X82794172Y-74119819D02*
X82794172Y-74215057D01*
X82460839Y-74453152D02*
X82079887Y-74453152D01*
X82317982Y-75119819D02*
X82317982Y-74262676D01*
X82317982Y-74262676D02*
X82270363Y-74167438D01*
X82270363Y-74167438D02*
X82175125Y-74119819D01*
X82175125Y-74119819D02*
X82079887Y-74119819D01*
X81746553Y-75119819D02*
X81746553Y-74453152D01*
X81746553Y-74119819D02*
X81794172Y-74167438D01*
X81794172Y-74167438D02*
X81746553Y-74215057D01*
X81746553Y-74215057D02*
X81698934Y-74167438D01*
X81698934Y-74167438D02*
X81746553Y-74119819D01*
X81746553Y-74119819D02*
X81746553Y-74215057D01*
X81127506Y-75119819D02*
X81222744Y-75072200D01*
X81222744Y-75072200D02*
X81270363Y-74976961D01*
X81270363Y-74976961D02*
X81270363Y-74119819D01*
X80603696Y-75119819D02*
X80698934Y-75072200D01*
X80698934Y-75072200D02*
X80746553Y-75024580D01*
X80746553Y-75024580D02*
X80794172Y-74929342D01*
X80794172Y-74929342D02*
X80794172Y-74643628D01*
X80794172Y-74643628D02*
X80746553Y-74548390D01*
X80746553Y-74548390D02*
X80698934Y-74500771D01*
X80698934Y-74500771D02*
X80603696Y-74453152D01*
X80603696Y-74453152D02*
X80460839Y-74453152D01*
X80460839Y-74453152D02*
X80365601Y-74500771D01*
X80365601Y-74500771D02*
X80317982Y-74548390D01*
X80317982Y-74548390D02*
X80270363Y-74643628D01*
X80270363Y-74643628D02*
X80270363Y-74929342D01*
X80270363Y-74929342D02*
X80317982Y-75024580D01*
X80317982Y-75024580D02*
X80365601Y-75072200D01*
X80365601Y-75072200D02*
X80460839Y-75119819D01*
X80460839Y-75119819D02*
X80603696Y-75119819D01*
X79984648Y-74453152D02*
X79603696Y-74453152D01*
X79841791Y-74119819D02*
X79841791Y-74976961D01*
X79841791Y-74976961D02*
X79794172Y-75072200D01*
X79794172Y-75072200D02*
X79698934Y-75119819D01*
X79698934Y-75119819D02*
X79603696Y-75119819D01*
X78556077Y-74072200D02*
X79413219Y-75357914D01*
X78222743Y-74453152D02*
X78222743Y-75453152D01*
X78222743Y-74500771D02*
X78127505Y-74453152D01*
X78127505Y-74453152D02*
X77937029Y-74453152D01*
X77937029Y-74453152D02*
X77841791Y-74500771D01*
X77841791Y-74500771D02*
X77794172Y-74548390D01*
X77794172Y-74548390D02*
X77746553Y-74643628D01*
X77746553Y-74643628D02*
X77746553Y-74929342D01*
X77746553Y-74929342D02*
X77794172Y-75024580D01*
X77794172Y-75024580D02*
X77841791Y-75072200D01*
X77841791Y-75072200D02*
X77937029Y-75119819D01*
X77937029Y-75119819D02*
X78127505Y-75119819D01*
X78127505Y-75119819D02*
X78222743Y-75072200D01*
X77365600Y-74215057D02*
X77317981Y-74167438D01*
X77317981Y-74167438D02*
X77222743Y-74119819D01*
X77222743Y-74119819D02*
X76984648Y-74119819D01*
X76984648Y-74119819D02*
X76889410Y-74167438D01*
X76889410Y-74167438D02*
X76841791Y-74215057D01*
X76841791Y-74215057D02*
X76794172Y-74310295D01*
X76794172Y-74310295D02*
X76794172Y-74405533D01*
X76794172Y-74405533D02*
X76841791Y-74548390D01*
X76841791Y-74548390D02*
X77413219Y-75119819D01*
X77413219Y-75119819D02*
X76794172Y-75119819D01*
X76175124Y-74119819D02*
X76079886Y-74119819D01*
X76079886Y-74119819D02*
X75984648Y-74167438D01*
X75984648Y-74167438D02*
X75937029Y-74215057D01*
X75937029Y-74215057D02*
X75889410Y-74310295D01*
X75889410Y-74310295D02*
X75841791Y-74500771D01*
X75841791Y-74500771D02*
X75841791Y-74738866D01*
X75841791Y-74738866D02*
X75889410Y-74929342D01*
X75889410Y-74929342D02*
X75937029Y-75024580D01*
X75937029Y-75024580D02*
X75984648Y-75072200D01*
X75984648Y-75072200D02*
X76079886Y-75119819D01*
X76079886Y-75119819D02*
X76175124Y-75119819D01*
X76175124Y-75119819D02*
X76270362Y-75072200D01*
X76270362Y-75072200D02*
X76317981Y-75024580D01*
X76317981Y-75024580D02*
X76365600Y-74929342D01*
X76365600Y-74929342D02*
X76413219Y-74738866D01*
X76413219Y-74738866D02*
X76413219Y-74500771D01*
X76413219Y-74500771D02*
X76365600Y-74310295D01*
X76365600Y-74310295D02*
X76317981Y-74215057D01*
X76317981Y-74215057D02*
X76270362Y-74167438D01*
X76270362Y-74167438D02*
X76175124Y-74119819D01*
X75222743Y-74119819D02*
X75127505Y-74119819D01*
X75127505Y-74119819D02*
X75032267Y-74167438D01*
X75032267Y-74167438D02*
X74984648Y-74215057D01*
X74984648Y-74215057D02*
X74937029Y-74310295D01*
X74937029Y-74310295D02*
X74889410Y-74500771D01*
X74889410Y-74500771D02*
X74889410Y-74738866D01*
X74889410Y-74738866D02*
X74937029Y-74929342D01*
X74937029Y-74929342D02*
X74984648Y-75024580D01*
X74984648Y-75024580D02*
X75032267Y-75072200D01*
X75032267Y-75072200D02*
X75127505Y-75119819D01*
X75127505Y-75119819D02*
X75222743Y-75119819D01*
X75222743Y-75119819D02*
X75317981Y-75072200D01*
X75317981Y-75072200D02*
X75365600Y-75024580D01*
X75365600Y-75024580D02*
X75413219Y-74929342D01*
X75413219Y-74929342D02*
X75460838Y-74738866D01*
X75460838Y-74738866D02*
X75460838Y-74500771D01*
X75460838Y-74500771D02*
X75413219Y-74310295D01*
X75413219Y-74310295D02*
X75365600Y-74215057D01*
X75365600Y-74215057D02*
X75317981Y-74167438D01*
X75317981Y-74167438D02*
X75222743Y-74119819D01*
X74270362Y-74119819D02*
X74175124Y-74119819D01*
X74175124Y-74119819D02*
X74079886Y-74167438D01*
X74079886Y-74167438D02*
X74032267Y-74215057D01*
X74032267Y-74215057D02*
X73984648Y-74310295D01*
X73984648Y-74310295D02*
X73937029Y-74500771D01*
X73937029Y-74500771D02*
X73937029Y-74738866D01*
X73937029Y-74738866D02*
X73984648Y-74929342D01*
X73984648Y-74929342D02*
X74032267Y-75024580D01*
X74032267Y-75024580D02*
X74079886Y-75072200D01*
X74079886Y-75072200D02*
X74175124Y-75119819D01*
X74175124Y-75119819D02*
X74270362Y-75119819D01*
X74270362Y-75119819D02*
X74365600Y-75072200D01*
X74365600Y-75072200D02*
X74413219Y-75024580D01*
X74413219Y-75024580D02*
X74460838Y-74929342D01*
X74460838Y-74929342D02*
X74508457Y-74738866D01*
X74508457Y-74738866D02*
X74508457Y-74500771D01*
X74508457Y-74500771D02*
X74460838Y-74310295D01*
X74460838Y-74310295D02*
X74413219Y-74215057D01*
X74413219Y-74215057D02*
X74365600Y-74167438D01*
X74365600Y-74167438D02*
X74270362Y-74119819D01*
X73651314Y-74453152D02*
X73270362Y-74453152D01*
X73508457Y-74119819D02*
X73508457Y-74976961D01*
X73508457Y-74976961D02*
X73460838Y-75072200D01*
X73460838Y-75072200D02*
X73365600Y-75119819D01*
X73365600Y-75119819D02*
X73270362Y-75119819D01*
X72937028Y-74738866D02*
X72175124Y-74738866D01*
X71698933Y-75119819D02*
X71698933Y-74453152D01*
X71698933Y-74643628D02*
X71651314Y-74548390D01*
X71651314Y-74548390D02*
X71603695Y-74500771D01*
X71603695Y-74500771D02*
X71508457Y-74453152D01*
X71508457Y-74453152D02*
X71413219Y-74453152D01*
X70651314Y-75119819D02*
X70651314Y-74596009D01*
X70651314Y-74596009D02*
X70698933Y-74500771D01*
X70698933Y-74500771D02*
X70794171Y-74453152D01*
X70794171Y-74453152D02*
X70984647Y-74453152D01*
X70984647Y-74453152D02*
X71079885Y-74500771D01*
X70651314Y-75072200D02*
X70746552Y-75119819D01*
X70746552Y-75119819D02*
X70984647Y-75119819D01*
X70984647Y-75119819D02*
X71079885Y-75072200D01*
X71079885Y-75072200D02*
X71127504Y-74976961D01*
X71127504Y-74976961D02*
X71127504Y-74881723D01*
X71127504Y-74881723D02*
X71079885Y-74786485D01*
X71079885Y-74786485D02*
X70984647Y-74738866D01*
X70984647Y-74738866D02*
X70746552Y-74738866D01*
X70746552Y-74738866D02*
X70651314Y-74691247D01*
X70175123Y-75119819D02*
X70175123Y-74453152D01*
X70175123Y-74548390D02*
X70127504Y-74500771D01*
X70127504Y-74500771D02*
X70032266Y-74453152D01*
X70032266Y-74453152D02*
X69889409Y-74453152D01*
X69889409Y-74453152D02*
X69794171Y-74500771D01*
X69794171Y-74500771D02*
X69746552Y-74596009D01*
X69746552Y-74596009D02*
X69746552Y-75119819D01*
X69746552Y-74596009D02*
X69698933Y-74500771D01*
X69698933Y-74500771D02*
X69603695Y-74453152D01*
X69603695Y-74453152D02*
X69460838Y-74453152D01*
X69460838Y-74453152D02*
X69365599Y-74500771D01*
X69365599Y-74500771D02*
X69317980Y-74596009D01*
X69317980Y-74596009D02*
X69317980Y-75119819D01*
X68841790Y-74738866D02*
X68079886Y-74738866D01*
X67222743Y-75072200D02*
X67317981Y-75119819D01*
X67317981Y-75119819D02*
X67508457Y-75119819D01*
X67508457Y-75119819D02*
X67603695Y-75072200D01*
X67603695Y-75072200D02*
X67651314Y-74976961D01*
X67651314Y-74976961D02*
X67651314Y-74596009D01*
X67651314Y-74596009D02*
X67603695Y-74500771D01*
X67603695Y-74500771D02*
X67508457Y-74453152D01*
X67508457Y-74453152D02*
X67317981Y-74453152D01*
X67317981Y-74453152D02*
X67222743Y-74500771D01*
X67222743Y-74500771D02*
X67175124Y-74596009D01*
X67175124Y-74596009D02*
X67175124Y-74691247D01*
X67175124Y-74691247D02*
X67651314Y-74786485D01*
X66841790Y-75119819D02*
X66317981Y-74453152D01*
X66841790Y-74453152D02*
X66317981Y-75119819D01*
X65937028Y-74453152D02*
X65937028Y-75453152D01*
X65937028Y-74500771D02*
X65841790Y-74453152D01*
X65841790Y-74453152D02*
X65651314Y-74453152D01*
X65651314Y-74453152D02*
X65556076Y-74500771D01*
X65556076Y-74500771D02*
X65508457Y-74548390D01*
X65508457Y-74548390D02*
X65460838Y-74643628D01*
X65460838Y-74643628D02*
X65460838Y-74929342D01*
X65460838Y-74929342D02*
X65508457Y-75024580D01*
X65508457Y-75024580D02*
X65556076Y-75072200D01*
X65556076Y-75072200D02*
X65651314Y-75119819D01*
X65651314Y-75119819D02*
X65841790Y-75119819D01*
X65841790Y-75119819D02*
X65937028Y-75072200D01*
X64603695Y-75119819D02*
X64603695Y-74596009D01*
X64603695Y-74596009D02*
X64651314Y-74500771D01*
X64651314Y-74500771D02*
X64746552Y-74453152D01*
X64746552Y-74453152D02*
X64937028Y-74453152D01*
X64937028Y-74453152D02*
X65032266Y-74500771D01*
X64603695Y-75072200D02*
X64698933Y-75119819D01*
X64698933Y-75119819D02*
X64937028Y-75119819D01*
X64937028Y-75119819D02*
X65032266Y-75072200D01*
X65032266Y-75072200D02*
X65079885Y-74976961D01*
X65079885Y-74976961D02*
X65079885Y-74881723D01*
X65079885Y-74881723D02*
X65032266Y-74786485D01*
X65032266Y-74786485D02*
X64937028Y-74738866D01*
X64937028Y-74738866D02*
X64698933Y-74738866D01*
X64698933Y-74738866D02*
X64603695Y-74691247D01*
X64127504Y-74453152D02*
X64127504Y-75119819D01*
X64127504Y-74548390D02*
X64079885Y-74500771D01*
X64079885Y-74500771D02*
X63984647Y-74453152D01*
X63984647Y-74453152D02*
X63841790Y-74453152D01*
X63841790Y-74453152D02*
X63746552Y-74500771D01*
X63746552Y-74500771D02*
X63698933Y-74596009D01*
X63698933Y-74596009D02*
X63698933Y-75119819D01*
X63270361Y-75072200D02*
X63175123Y-75119819D01*
X63175123Y-75119819D02*
X62984647Y-75119819D01*
X62984647Y-75119819D02*
X62889409Y-75072200D01*
X62889409Y-75072200D02*
X62841790Y-74976961D01*
X62841790Y-74976961D02*
X62841790Y-74929342D01*
X62841790Y-74929342D02*
X62889409Y-74834104D01*
X62889409Y-74834104D02*
X62984647Y-74786485D01*
X62984647Y-74786485D02*
X63127504Y-74786485D01*
X63127504Y-74786485D02*
X63222742Y-74738866D01*
X63222742Y-74738866D02*
X63270361Y-74643628D01*
X63270361Y-74643628D02*
X63270361Y-74596009D01*
X63270361Y-74596009D02*
X63222742Y-74500771D01*
X63222742Y-74500771D02*
X63127504Y-74453152D01*
X63127504Y-74453152D02*
X62984647Y-74453152D01*
X62984647Y-74453152D02*
X62889409Y-74500771D01*
X62413218Y-75119819D02*
X62413218Y-74453152D01*
X62413218Y-74119819D02*
X62460837Y-74167438D01*
X62460837Y-74167438D02*
X62413218Y-74215057D01*
X62413218Y-74215057D02*
X62365599Y-74167438D01*
X62365599Y-74167438D02*
X62413218Y-74119819D01*
X62413218Y-74119819D02*
X62413218Y-74215057D01*
X61794171Y-75119819D02*
X61889409Y-75072200D01*
X61889409Y-75072200D02*
X61937028Y-75024580D01*
X61937028Y-75024580D02*
X61984647Y-74929342D01*
X61984647Y-74929342D02*
X61984647Y-74643628D01*
X61984647Y-74643628D02*
X61937028Y-74548390D01*
X61937028Y-74548390D02*
X61889409Y-74500771D01*
X61889409Y-74500771D02*
X61794171Y-74453152D01*
X61794171Y-74453152D02*
X61651314Y-74453152D01*
X61651314Y-74453152D02*
X61556076Y-74500771D01*
X61556076Y-74500771D02*
X61508457Y-74548390D01*
X61508457Y-74548390D02*
X61460838Y-74643628D01*
X61460838Y-74643628D02*
X61460838Y-74929342D01*
X61460838Y-74929342D02*
X61508457Y-75024580D01*
X61508457Y-75024580D02*
X61556076Y-75072200D01*
X61556076Y-75072200D02*
X61651314Y-75119819D01*
X61651314Y-75119819D02*
X61794171Y-75119819D01*
X61032266Y-74453152D02*
X61032266Y-75119819D01*
X61032266Y-74548390D02*
X60984647Y-74500771D01*
X60984647Y-74500771D02*
X60889409Y-74453152D01*
X60889409Y-74453152D02*
X60746552Y-74453152D01*
X60746552Y-74453152D02*
X60651314Y-74500771D01*
X60651314Y-74500771D02*
X60603695Y-74596009D01*
X60603695Y-74596009D02*
X60603695Y-75119819D01*
X60127504Y-74738866D02*
X59365600Y-74738866D01*
X58889409Y-75119819D02*
X58889409Y-74119819D01*
X58889409Y-74500771D02*
X58794171Y-74453152D01*
X58794171Y-74453152D02*
X58603695Y-74453152D01*
X58603695Y-74453152D02*
X58508457Y-74500771D01*
X58508457Y-74500771D02*
X58460838Y-74548390D01*
X58460838Y-74548390D02*
X58413219Y-74643628D01*
X58413219Y-74643628D02*
X58413219Y-74929342D01*
X58413219Y-74929342D02*
X58460838Y-75024580D01*
X58460838Y-75024580D02*
X58508457Y-75072200D01*
X58508457Y-75072200D02*
X58603695Y-75119819D01*
X58603695Y-75119819D02*
X58794171Y-75119819D01*
X58794171Y-75119819D02*
X58889409Y-75072200D01*
X57841790Y-75119819D02*
X57937028Y-75072200D01*
X57937028Y-75072200D02*
X57984647Y-75024580D01*
X57984647Y-75024580D02*
X58032266Y-74929342D01*
X58032266Y-74929342D02*
X58032266Y-74643628D01*
X58032266Y-74643628D02*
X57984647Y-74548390D01*
X57984647Y-74548390D02*
X57937028Y-74500771D01*
X57937028Y-74500771D02*
X57841790Y-74453152D01*
X57841790Y-74453152D02*
X57698933Y-74453152D01*
X57698933Y-74453152D02*
X57603695Y-74500771D01*
X57603695Y-74500771D02*
X57556076Y-74548390D01*
X57556076Y-74548390D02*
X57508457Y-74643628D01*
X57508457Y-74643628D02*
X57508457Y-74929342D01*
X57508457Y-74929342D02*
X57556076Y-75024580D01*
X57556076Y-75024580D02*
X57603695Y-75072200D01*
X57603695Y-75072200D02*
X57698933Y-75119819D01*
X57698933Y-75119819D02*
X57841790Y-75119819D01*
X56651314Y-75119819D02*
X56651314Y-74596009D01*
X56651314Y-74596009D02*
X56698933Y-74500771D01*
X56698933Y-74500771D02*
X56794171Y-74453152D01*
X56794171Y-74453152D02*
X56984647Y-74453152D01*
X56984647Y-74453152D02*
X57079885Y-74500771D01*
X56651314Y-75072200D02*
X56746552Y-75119819D01*
X56746552Y-75119819D02*
X56984647Y-75119819D01*
X56984647Y-75119819D02*
X57079885Y-75072200D01*
X57079885Y-75072200D02*
X57127504Y-74976961D01*
X57127504Y-74976961D02*
X57127504Y-74881723D01*
X57127504Y-74881723D02*
X57079885Y-74786485D01*
X57079885Y-74786485D02*
X56984647Y-74738866D01*
X56984647Y-74738866D02*
X56746552Y-74738866D01*
X56746552Y-74738866D02*
X56651314Y-74691247D01*
X56175123Y-75119819D02*
X56175123Y-74453152D01*
X56175123Y-74643628D02*
X56127504Y-74548390D01*
X56127504Y-74548390D02*
X56079885Y-74500771D01*
X56079885Y-74500771D02*
X55984647Y-74453152D01*
X55984647Y-74453152D02*
X55889409Y-74453152D01*
X55127504Y-75119819D02*
X55127504Y-74119819D01*
X55127504Y-75072200D02*
X55222742Y-75119819D01*
X55222742Y-75119819D02*
X55413218Y-75119819D01*
X55413218Y-75119819D02*
X55508456Y-75072200D01*
X55508456Y-75072200D02*
X55556075Y-75024580D01*
X55556075Y-75024580D02*
X55603694Y-74929342D01*
X55603694Y-74929342D02*
X55603694Y-74643628D01*
X55603694Y-74643628D02*
X55556075Y-74548390D01*
X55556075Y-74548390D02*
X55508456Y-74500771D01*
X55508456Y-74500771D02*
X55413218Y-74453152D01*
X55413218Y-74453152D02*
X55222742Y-74453152D01*
X55222742Y-74453152D02*
X55127504Y-74500771D01*
D11*
%TO.C,J1*%
X49465000Y-81848000D02*
X49465000Y-76648000D01*
X97785000Y-79248000D02*
X100385000Y-79248000D01*
X97785000Y-81848000D02*
X49465000Y-81848000D01*
X97785000Y-81848000D02*
X97785000Y-79248000D01*
X99055000Y-81848000D02*
X100385000Y-81848000D01*
X100385000Y-76648000D02*
X49465000Y-76648000D01*
X100385000Y-79248000D02*
X100385000Y-76648000D01*
X100385000Y-81848000D02*
X100385000Y-80518000D01*
%TD*%
M02*
